<svg xmlns="http://www.w3.org/2000/svg" xmlns:rdkit="http://www.rdkit.org/xml" xmlns:xlink="http://www.w3.org/1999/xlink" version="1.1" baseProfile="full" xml:space="preserve" width="750px" height="750px" viewBox="0 0 750 750">
<!-- END OF HEADER -->
<rect style="opacity:1.0;fill:#FFFFFF;stroke:none" width="250.0" height="250.0" x="0.0" y="0.0"> </rect>
<path class="bond-0 atom-0 atom-1" d="M 13.4,147.5 L 103.8,95.3" style="fill:none;fill-rule:evenodd;stroke:#000000;stroke-width:2.0px;stroke-linecap:butt;stroke-linejoin:miter;stroke-opacity:1"/>
<path class="bond-0 atom-0 atom-1" d="M 22.5,163.2 L 112.9,111.1" style="fill:none;fill-rule:evenodd;stroke:#000000;stroke-width:2.0px;stroke-linecap:butt;stroke-linejoin:miter;stroke-opacity:1"/>
<path class="bond-1 atom-1 atom-2" d="M 137.8,103.2 L 215.8,148.2" style="fill:none;fill-rule:evenodd;stroke:#000000;stroke-width:2.0px;stroke-linecap:butt;stroke-linejoin:miter;stroke-opacity:1"/>
<path class="atom-1" d="M 116.8 80.5 L 126.1 95.5 Q 127.0 97.0, 128.5 99.7 Q 130.0 102.3, 130.0 102.5 L 130.0 80.5 L 133.8 80.5 L 133.8 108.8 L 129.9 108.8 L 120.0 92.4 Q 118.8 90.5, 117.6 88.3 Q 116.4 86.1, 116.0 85.4 L 116.0 108.8 L 112.3 108.8 L 112.3 80.5 L 116.8 80.5 " fill="#000000"/>
<path class="atom-2" d="M 219.8 141.2 L 236.6 141.2 L 236.6 144.4 L 223.6 144.4 L 223.6 153.0 L 235.2 153.0 L 235.2 156.3 L 223.6 156.3 L 223.6 169.5 L 219.8 169.5 L 219.8 141.2 " fill="#000000"/>
<path class="bond-0 atom-0 atom-1" d="M 262.5,141.3 L 307.6,118.3" style="fill:none;fill-rule:evenodd;stroke:#000000;stroke-width:2.0px;stroke-linecap:butt;stroke-linejoin:miter;stroke-opacity:1"/>
<path class="bond-0 atom-0 atom-1" d="M 266.0,148.1 L 307.1,127.0" style="fill:none;fill-rule:evenodd;stroke:#000000;stroke-width:2.0px;stroke-linecap:butt;stroke-linejoin:miter;stroke-opacity:1"/>
<path class="bond-1 atom-1 atom-2" d="M 307.6,118.3 L 350.0,145.8" style="fill:none;fill-rule:evenodd;stroke:#000000;stroke-width:2.0px;stroke-linecap:butt;stroke-linejoin:miter;stroke-opacity:1"/>
<path class="bond-2 atom-2 atom-3" d="M 350.0,145.8 L 388.0,126.4" style="fill:none;fill-rule:evenodd;stroke:#000000;stroke-width:2.0px;stroke-linecap:butt;stroke-linejoin:miter;stroke-opacity:1"/>
<path class="bond-3 atom-3 atom-4" d="M 402.2,127.3 L 437.6,150.2" style="fill:none;fill-rule:evenodd;stroke:#000000;stroke-width:2.0px;stroke-linecap:butt;stroke-linejoin:miter;stroke-opacity:1"/>
<path class="bond-4 atom-4 atom-5" d="M 437.6,150.2 L 474.4,131.4" style="fill:none;fill-rule:evenodd;stroke:#000000;stroke-width:2.0px;stroke-linecap:butt;stroke-linejoin:miter;stroke-opacity:1"/>
<path class="bond-4 atom-4 atom-5" d="M 438.0,141.5 L 470.9,124.6" style="fill:none;fill-rule:evenodd;stroke:#000000;stroke-width:2.0px;stroke-linecap:butt;stroke-linejoin:miter;stroke-opacity:1"/>
<path d="M 305.3,119.4 L 307.6,118.3 L 309.7,119.6" style="fill:none;stroke:#000000;stroke-width:2.0px;stroke-linecap:butt;stroke-linejoin:miter;stroke-miterlimit:10;stroke-opacity:1;"/>
<path d="M 347.9,144.4 L 350.0,145.8 L 351.9,144.8" style="fill:none;stroke:#000000;stroke-width:2.0px;stroke-linecap:butt;stroke-linejoin:miter;stroke-miterlimit:10;stroke-opacity:1;"/>
<path d="M 435.8,149.1 L 437.6,150.2 L 439.4,149.3" style="fill:none;stroke:#000000;stroke-width:2.0px;stroke-linecap:butt;stroke-linejoin:miter;stroke-miterlimit:10;stroke-opacity:1;"/>
<path class="atom-3" d="M 391.9 115.6 L 396.6 123.1 Q 397.1 123.9, 397.8 125.2 Q 398.6 126.6, 398.6 126.7 L 398.6 115.6 L 400.5 115.6 L 400.5 129.9 L 398.6 129.9 L 393.5 121.6 Q 392.9 120.6, 392.3 119.5 Q 391.7 118.4, 391.5 118.0 L 391.5 129.9 L 389.7 129.9 L 389.7 115.6 L 391.9 115.6 " fill="#000000"/>
<path class="atom-3" d="M 389.5 99.8 L 391.4 99.8 L 391.4 105.9 L 398.8 105.9 L 398.8 99.8 L 400.7 99.8 L 400.7 114.1 L 398.8 114.1 L 398.8 107.5 L 391.4 107.5 L 391.4 114.1 L 389.5 114.1 L 389.5 99.8 " fill="#000000"/>
<path class="atom-5" d="M 474.3 123.8 Q 474.3 120.4, 476.0 118.5 Q 477.7 116.5, 480.9 116.5 Q 484.1 116.5, 485.8 118.5 Q 487.5 120.4, 487.5 123.8 Q 487.5 127.3, 485.8 129.3 Q 484.1 131.3, 480.9 131.3 Q 477.8 131.3, 476.0 129.3 Q 474.3 127.3, 474.3 123.8 M 480.9 129.6 Q 483.1 129.6, 484.3 128.2 Q 485.5 126.7, 485.5 123.8 Q 485.5 121.0, 484.3 119.6 Q 483.1 118.2, 480.9 118.2 Q 478.7 118.2, 477.5 119.6 Q 476.4 121.0, 476.4 123.8 Q 476.4 126.7, 477.5 128.2 Q 478.7 129.6, 480.9 129.6 " fill="#000000"/>
<path class="bond-0 atom-0 atom-1" d="M 672.2,146.7 L 667.2,177.1" style="fill:none;fill-rule:evenodd;stroke:#000000;stroke-width:2.0px;stroke-linecap:butt;stroke-linejoin:miter;stroke-opacity:1"/>
<path class="bond-1 atom-0 atom-2" d="M 672.1,133.3 L 667.6,109.4" style="fill:none;fill-rule:evenodd;stroke:#000000;stroke-width:2.0px;stroke-linecap:butt;stroke-linejoin:miter;stroke-opacity:1"/>
<path class="bond-2 atom-2 atom-3" d="M 671.6,98.3 L 689.7,82.8" style="fill:none;fill-rule:evenodd;stroke:#000000;stroke-width:2.0px;stroke-linecap:butt;stroke-linejoin:miter;stroke-opacity:1"/>
<path class="bond-3 atom-3 atom-4" d="M 700.3,80.1 L 730.5,90.8" style="fill:none;fill-rule:evenodd;stroke:#000000;stroke-width:2.0px;stroke-linecap:butt;stroke-linejoin:miter;stroke-opacity:1"/>
<path class="bond-3 atom-3 atom-4" d="M 698.4,85.5 L 725.6,95.0" style="fill:none;fill-rule:evenodd;stroke:#000000;stroke-width:2.0px;stroke-linecap:butt;stroke-linejoin:miter;stroke-opacity:1"/>
<path class="bond-4 atom-4 atom-5" d="M 730.5,90.8 L 737.5,127.8" style="fill:none;fill-rule:evenodd;stroke:#000000;stroke-width:2.0px;stroke-linecap:butt;stroke-linejoin:miter;stroke-opacity:1"/>
<path class="bond-5 atom-5 atom-6" d="M 737.5,127.8 L 708.9,152.4" style="fill:none;fill-rule:evenodd;stroke:#000000;stroke-width:2.0px;stroke-linecap:butt;stroke-linejoin:miter;stroke-opacity:1"/>
<path class="bond-5 atom-5 atom-6" d="M 731.3,125.6 L 707.7,146.0" style="fill:none;fill-rule:evenodd;stroke:#000000;stroke-width:2.0px;stroke-linecap:butt;stroke-linejoin:miter;stroke-opacity:1"/>
<path class="bond-6 atom-0 atom-7" d="M 668.7,139.9 L 641.8,140.2" style="fill:none;fill-rule:evenodd;stroke:#000000;stroke-width:2.0px;stroke-linecap:butt;stroke-linejoin:miter;stroke-opacity:1"/>
<path class="bond-7 atom-7 atom-8" d="M 631.7,133.7 L 616.4,107.9" style="fill:none;fill-rule:evenodd;stroke:#000000;stroke-width:2.0px;stroke-linecap:butt;stroke-linejoin:miter;stroke-opacity:1"/>
<path class="bond-8 atom-8 atom-9" d="M 616.4,107.9 L 578.7,108.3" style="fill:none;fill-rule:evenodd;stroke:#000000;stroke-width:2.0px;stroke-linecap:butt;stroke-linejoin:miter;stroke-opacity:1"/>
<path class="bond-9 atom-9 atom-10" d="M 578.7,108.3 L 559.5,75.9" style="fill:none;fill-rule:evenodd;stroke:#000000;stroke-width:2.0px;stroke-linecap:butt;stroke-linejoin:miter;stroke-opacity:1"/>
<path class="bond-10 atom-9 atom-11" d="M 578.7,108.3 L 560.2,141.2" style="fill:none;fill-rule:evenodd;stroke:#000000;stroke-width:2.0px;stroke-linecap:butt;stroke-linejoin:miter;stroke-opacity:1"/>
<path class="bond-11 atom-11 atom-12" d="M 560.2,141.2 L 524.5,141.6" style="fill:none;fill-rule:evenodd;stroke:#000000;stroke-width:2.0px;stroke-linecap:butt;stroke-linejoin:miter;stroke-opacity:1"/>
<path class="bond-12 atom-6 atom-0" d="M 708.9,152.4 L 678.0,141.5" style="fill:none;fill-rule:evenodd;stroke:#000000;stroke-width:2.0px;stroke-linecap:butt;stroke-linejoin:miter;stroke-opacity:1"/>
<path d="M 729.0,90.2 L 730.5,90.8 L 730.9,92.6" style="fill:none;stroke:#000000;stroke-width:2.0px;stroke-linecap:butt;stroke-linejoin:miter;stroke-miterlimit:10;stroke-opacity:1;"/>
<path d="M 737.2,126.0 L 737.5,127.8 L 736.1,129.0" style="fill:none;stroke:#000000;stroke-width:2.0px;stroke-linecap:butt;stroke-linejoin:miter;stroke-miterlimit:10;stroke-opacity:1;"/>
<path d="M 710.3,151.1 L 708.9,152.4 L 707.3,151.8" style="fill:none;stroke:#000000;stroke-width:2.0px;stroke-linecap:butt;stroke-linejoin:miter;stroke-miterlimit:10;stroke-opacity:1;"/>
<path d="M 617.2,109.2 L 616.4,107.9 L 614.5,107.9" style="fill:none;stroke:#000000;stroke-width:2.0px;stroke-linecap:butt;stroke-linejoin:miter;stroke-miterlimit:10;stroke-opacity:1;"/>
<path d="M 561.1,139.5 L 560.2,141.2 L 558.4,141.2" style="fill:none;stroke:#000000;stroke-width:2.0px;stroke-linecap:butt;stroke-linejoin:miter;stroke-miterlimit:10;stroke-opacity:1;"/>
<path class="atom-0" d="M 670.3 143.5 Q 670.4 143.6, 670.9 143.8 Q 671.4 144.0, 672.0 144.1 Q 672.5 144.3, 673.1 144.3 Q 674.1 144.3, 674.7 143.8 Q 675.2 143.3, 675.2 142.4 Q 675.2 141.8, 674.9 141.5 Q 674.7 141.1, 674.2 140.9 Q 673.8 140.7, 673.0 140.5 Q 672.1 140.2, 671.5 139.9 Q 670.9 139.7, 670.5 139.1 Q 670.1 138.5, 670.1 137.6 Q 670.1 136.2, 671.0 135.4 Q 671.9 134.6, 673.8 134.6 Q 675.0 134.6, 676.4 135.1 L 676.0 136.3 Q 674.8 135.8, 673.8 135.8 Q 672.8 135.8, 672.2 136.2 Q 671.6 136.6, 671.6 137.4 Q 671.6 137.9, 671.9 138.3 Q 672.2 138.6, 672.6 138.8 Q 673.1 139.0, 673.8 139.3 Q 674.8 139.6, 675.3 139.9 Q 675.9 140.2, 676.3 140.8 Q 676.7 141.4, 676.7 142.4 Q 676.7 143.9, 675.7 144.7 Q 674.8 145.5, 673.1 145.5 Q 672.2 145.5, 671.4 145.3 Q 670.7 145.1, 669.9 144.7 L 670.3 143.5 " fill="#000000"/>
<path class="atom-2" d="M 651.8 97.5 L 653.3 97.5 L 653.3 102.0 L 658.8 102.0 L 658.8 97.5 L 660.2 97.5 L 660.2 108.2 L 658.8 108.2 L 658.8 103.2 L 653.3 103.2 L 653.3 108.2 L 651.8 108.2 L 651.8 97.5 " fill="#000000"/>
<path class="atom-2" d="M 664.0 97.5 L 667.5 103.1 Q 667.8 103.7, 668.4 104.7 Q 669.0 105.7, 669.0 105.8 L 669.0 97.5 L 670.4 97.5 L 670.4 108.2 L 668.9 108.2 L 665.2 102.0 Q 664.7 101.3, 664.3 100.4 Q 663.8 99.6, 663.7 99.3 L 663.7 108.2 L 662.3 108.2 L 662.3 97.5 L 664.0 97.5 " fill="#000000"/>
<path class="atom-3" d="M 692.6 72.9 L 696.1 78.6 Q 696.4 79.1, 697.0 80.1 Q 697.6 81.2, 697.6 81.2 L 697.6 72.9 L 699.0 72.9 L 699.0 83.6 L 697.5 83.6 L 693.8 77.4 Q 693.4 76.7, 692.9 75.9 Q 692.4 75.0, 692.3 74.8 L 692.3 83.6 L 690.9 83.6 L 690.9 72.9 L 692.6 72.9 " fill="#000000"/>
<path class="atom-7" d="M 630.7 140.3 Q 630.7 137.8, 632.0 136.3 Q 633.2 134.9, 635.6 134.9 Q 638.0 134.9, 639.3 136.3 Q 640.5 137.8, 640.5 140.3 Q 640.5 142.9, 639.2 144.4 Q 638.0 145.9, 635.6 145.9 Q 633.3 145.9, 632.0 144.4 Q 630.7 142.9, 630.7 140.3 M 635.6 144.7 Q 637.2 144.7, 638.1 143.6 Q 639.0 142.5, 639.0 140.3 Q 639.0 138.2, 638.1 137.2 Q 637.2 136.1, 635.6 136.1 Q 634.0 136.1, 633.1 137.2 Q 632.2 138.2, 632.2 140.3 Q 632.2 142.5, 633.1 143.6 Q 634.0 144.7, 635.6 144.7 " fill="#000000"/>
<path class="atom-12" d="M 512.5 141.9 Q 512.5 139.3, 513.7 137.9 Q 515.0 136.5, 517.4 136.5 Q 519.6 136.5, 520.7 138.1 L 519.7 138.9 Q 518.9 137.7, 517.4 137.7 Q 515.7 137.7, 514.9 138.8 Q 514.0 139.9, 514.0 141.9 Q 514.0 144.1, 514.9 145.1 Q 515.8 146.2, 517.5 146.2 Q 518.7 146.2, 520.1 145.5 L 520.5 146.7 Q 519.9 147.0, 519.1 147.2 Q 518.2 147.4, 517.3 147.4 Q 515.0 147.4, 513.7 146.0 Q 512.5 144.6, 512.5 141.9 " fill="#000000"/>
<path class="atom-12" d="M 521.8 135.9 L 523.2 135.9 L 523.2 147.3 L 521.8 147.3 L 521.8 135.9 " fill="#000000"/>
<path class="bond-0 atom-0 atom-1" d="M 12.5,358.4 L 29.9,371.4" style="fill:none;fill-rule:evenodd;stroke:#000000;stroke-width:2.0px;stroke-linecap:butt;stroke-linejoin:miter;stroke-opacity:1"/>
<path class="bond-1 atom-1 atom-2" d="M 29.9,371.4 L 46.7,364.1" style="fill:none;fill-rule:evenodd;stroke:#000000;stroke-width:2.0px;stroke-linecap:butt;stroke-linejoin:miter;stroke-opacity:1"/>
<path class="bond-1 atom-1 atom-2" d="M 30.3,367.6 L 45.4,361.1" style="fill:none;fill-rule:evenodd;stroke:#000000;stroke-width:2.0px;stroke-linecap:butt;stroke-linejoin:miter;stroke-opacity:1"/>
<path class="bond-2 atom-2 atom-3" d="M 52.8,365.1 L 67.1,375.7" style="fill:none;fill-rule:evenodd;stroke:#000000;stroke-width:2.0px;stroke-linecap:butt;stroke-linejoin:miter;stroke-opacity:1"/>
<path class="bond-3 atom-3 atom-4" d="M 67.1,375.7 L 87.0,367.1" style="fill:none;fill-rule:evenodd;stroke:#000000;stroke-width:2.0px;stroke-linecap:butt;stroke-linejoin:miter;stroke-opacity:1"/>
<path class="bond-4 atom-4 atom-5" d="M 87.0,367.1 L 104.4,380.1" style="fill:none;fill-rule:evenodd;stroke:#000000;stroke-width:2.0px;stroke-linecap:butt;stroke-linejoin:miter;stroke-opacity:1"/>
<path class="bond-4 atom-4 atom-5" d="M 86.6,370.9 L 102.4,382.7" style="fill:none;fill-rule:evenodd;stroke:#000000;stroke-width:2.0px;stroke-linecap:butt;stroke-linejoin:miter;stroke-opacity:1"/>
<path class="bond-5 atom-5 atom-6" d="M 104.4,380.1 L 124.2,371.5" style="fill:none;fill-rule:evenodd;stroke:#000000;stroke-width:2.0px;stroke-linecap:butt;stroke-linejoin:miter;stroke-opacity:1"/>
<path class="bond-6 atom-6 atom-7" d="M 124.2,371.5 L 138.6,382.2" style="fill:none;fill-rule:evenodd;stroke:#000000;stroke-width:2.0px;stroke-linecap:butt;stroke-linejoin:miter;stroke-opacity:1"/>
<path class="bond-7 atom-7 atom-8" d="M 144.6,383.1 L 161.5,375.8" style="fill:none;fill-rule:evenodd;stroke:#000000;stroke-width:2.0px;stroke-linecap:butt;stroke-linejoin:miter;stroke-opacity:1"/>
<path class="bond-7 atom-7 atom-8" d="M 143.4,380.1 L 160.2,372.9" style="fill:none;fill-rule:evenodd;stroke:#000000;stroke-width:2.0px;stroke-linecap:butt;stroke-linejoin:miter;stroke-opacity:1"/>
<path class="bond-8 atom-8 atom-9" d="M 161.5,375.8 L 178.8,388.8" style="fill:none;fill-rule:evenodd;stroke:#000000;stroke-width:2.0px;stroke-linecap:butt;stroke-linejoin:miter;stroke-opacity:1"/>
<path class="bond-9 atom-9 atom-10" d="M 178.8,388.8 L 176.8,406.5" style="fill:none;fill-rule:evenodd;stroke:#000000;stroke-width:2.0px;stroke-linecap:butt;stroke-linejoin:miter;stroke-opacity:1"/>
<path class="bond-10 atom-10 atom-11" d="M 173.3,411.6 L 156.5,418.9" style="fill:none;fill-rule:evenodd;stroke:#000000;stroke-width:2.0px;stroke-linecap:butt;stroke-linejoin:miter;stroke-opacity:1"/>
<path class="bond-11 atom-9 atom-12" d="M 178.8,388.8 L 198.7,380.2" style="fill:none;fill-rule:evenodd;stroke:#000000;stroke-width:2.0px;stroke-linecap:butt;stroke-linejoin:miter;stroke-opacity:1"/>
<path class="bond-12 atom-12 atom-13" d="M 198.7,380.2 L 220.2,382.7" style="fill:none;fill-rule:evenodd;stroke:#000000;stroke-width:2.0px;stroke-linecap:butt;stroke-linejoin:miter;stroke-opacity:1"/>
<path class="bond-13 atom-12 atom-14" d="M 198.7,380.2 L 211.7,362.8" style="fill:none;fill-rule:evenodd;stroke:#000000;stroke-width:2.0px;stroke-linecap:butt;stroke-linejoin:miter;stroke-opacity:1"/>
<path class="bond-13 atom-12 atom-14" d="M 204.7,377.6 L 210.9,369.3" style="fill:none;fill-rule:evenodd;stroke:#000000;stroke-width:2.0px;stroke-linecap:butt;stroke-linejoin:miter;stroke-opacity:1"/>
<path class="bond-14 atom-14 atom-15" d="M 211.7,362.8 L 214.2,341.3" style="fill:none;fill-rule:evenodd;stroke:#000000;stroke-width:2.0px;stroke-linecap:butt;stroke-linejoin:miter;stroke-opacity:1"/>
<path class="bond-15 atom-15 atom-16" d="M 214.2,341.3 L 230.5,334.3" style="fill:none;fill-rule:evenodd;stroke:#000000;stroke-width:2.0px;stroke-linecap:butt;stroke-linejoin:miter;stroke-opacity:1"/>
<path class="bond-15 atom-15 atom-16" d="M 217.2,343.6 L 231.8,337.3" style="fill:none;fill-rule:evenodd;stroke:#000000;stroke-width:2.0px;stroke-linecap:butt;stroke-linejoin:miter;stroke-opacity:1"/>
<path class="bond-16 atom-14 atom-13" d="M 211.7,362.8 L 220.2,382.7" style="fill:none;fill-rule:evenodd;stroke:#000000;stroke-width:2.0px;stroke-linecap:butt;stroke-linejoin:miter;stroke-opacity:1"/>
<path d="M 29.0,370.7 L 29.9,371.4 L 30.7,371.0" style="fill:none;stroke:#000000;stroke-width:2.0px;stroke-linecap:butt;stroke-linejoin:miter;stroke-miterlimit:10;stroke-opacity:1;"/>
<path d="M 66.4,375.2 L 67.1,375.7 L 68.1,375.3" style="fill:none;stroke:#000000;stroke-width:2.0px;stroke-linecap:butt;stroke-linejoin:miter;stroke-miterlimit:10;stroke-opacity:1;"/>
<path d="M 86.0,367.6 L 87.0,367.1 L 87.9,367.8" style="fill:none;stroke:#000000;stroke-width:2.0px;stroke-linecap:butt;stroke-linejoin:miter;stroke-miterlimit:10;stroke-opacity:1;"/>
<path d="M 103.5,379.4 L 104.4,380.1 L 105.3,379.6" style="fill:none;stroke:#000000;stroke-width:2.0px;stroke-linecap:butt;stroke-linejoin:miter;stroke-miterlimit:10;stroke-opacity:1;"/>
<path d="M 123.2,371.9 L 124.2,371.5 L 125.0,372.0" style="fill:none;stroke:#000000;stroke-width:2.0px;stroke-linecap:butt;stroke-linejoin:miter;stroke-miterlimit:10;stroke-opacity:1;"/>
<path d="M 160.6,376.2 L 161.5,375.8 L 162.3,376.5" style="fill:none;stroke:#000000;stroke-width:2.0px;stroke-linecap:butt;stroke-linejoin:miter;stroke-miterlimit:10;stroke-opacity:1;"/>
<path d="M 219.2,382.6 L 220.2,382.7 L 219.8,381.7" style="fill:none;stroke:#000000;stroke-width:2.0px;stroke-linecap:butt;stroke-linejoin:miter;stroke-miterlimit:10;stroke-opacity:1;"/>
<path d="M 214.0,342.4 L 214.2,341.3 L 215.0,341.0" style="fill:none;stroke:#000000;stroke-width:2.0px;stroke-linecap:butt;stroke-linejoin:miter;stroke-miterlimit:10;stroke-opacity:1;"/>
<path class="atom-2" d="M 48.4 359.7 L 50.4 363.0 Q 50.6 363.3, 50.9 363.9 Q 51.2 364.5, 51.3 364.5 L 51.3 359.7 L 52.1 359.7 L 52.1 365.9 L 51.2 365.9 L 49.1 362.3 Q 48.8 361.9, 48.6 361.4 Q 48.3 360.9, 48.2 360.8 L 48.2 365.9 L 47.4 365.9 L 47.4 359.7 L 48.4 359.7 " fill="#000000"/>
<path class="atom-7" d="M 140.2 381.4 L 142.3 384.6 Q 142.5 384.9, 142.8 385.5 Q 143.1 386.1, 143.1 386.1 L 143.1 381.4 L 143.9 381.4 L 143.9 387.5 L 143.1 387.5 L 140.9 383.9 Q 140.7 383.5, 140.4 383.0 Q 140.1 382.6, 140.1 382.4 L 140.1 387.5 L 139.3 387.5 L 139.3 381.4 L 140.2 381.4 " fill="#000000"/>
<path class="atom-10" d="M 175.0 407.2 L 177.0 410.5 Q 177.2 410.8, 177.5 411.4 Q 177.8 411.9, 177.8 412.0 L 177.8 407.2 L 178.7 407.2 L 178.7 413.3 L 177.8 413.3 L 175.7 409.8 Q 175.4 409.4, 175.1 408.9 Q 174.9 408.4, 174.8 408.3 L 174.8 413.3 L 174.0 413.3 L 174.0 407.2 L 175.0 407.2 " fill="#000000"/>
<path class="atom-10" d="M 179.8 407.2 L 180.7 407.2 L 180.7 409.8 L 183.8 409.8 L 183.8 407.2 L 184.6 407.2 L 184.6 413.3 L 183.8 413.3 L 183.8 410.5 L 180.7 410.5 L 180.7 413.3 L 179.8 413.3 L 179.8 407.2 " fill="#000000"/>
<path class="atom-16" d="M 231.9 334.3 Q 231.9 332.8, 232.6 332.0 Q 233.3 331.1, 234.7 331.1 Q 236.0 331.1, 236.8 332.0 Q 237.5 332.8, 237.5 334.3 Q 237.5 335.8, 236.8 336.6 Q 236.0 337.4, 234.7 337.4 Q 233.3 337.4, 232.6 336.6 Q 231.9 335.8, 231.9 334.3 M 234.7 336.7 Q 235.6 336.7, 236.1 336.1 Q 236.6 335.5, 236.6 334.3 Q 236.6 333.1, 236.1 332.5 Q 235.6 331.8, 234.7 331.8 Q 233.8 331.8, 233.2 332.4 Q 232.7 333.1, 232.7 334.3 Q 232.7 335.5, 233.2 336.1 Q 233.8 336.7, 234.7 336.7 " fill="#000000"/>
<path class="bond-0 atom-0 atom-1" d="M 262.5,382.8 L 340.9,349.4" style="fill:none;fill-rule:evenodd;stroke:#000000;stroke-width:2.0px;stroke-linecap:butt;stroke-linejoin:miter;stroke-opacity:1"/>
<path class="bond-0 atom-0 atom-1" d="M 267.5,394.5 L 339.2,364.0" style="fill:none;fill-rule:evenodd;stroke:#000000;stroke-width:2.0px;stroke-linecap:butt;stroke-linejoin:miter;stroke-opacity:1"/>
<path class="bond-1 atom-1 atom-2" d="M 340.9,349.4 L 409.1,400.6" style="fill:none;fill-rule:evenodd;stroke:#000000;stroke-width:2.0px;stroke-linecap:butt;stroke-linejoin:miter;stroke-opacity:1"/>
<path class="bond-2 atom-2 atom-3" d="M 409.1,400.6 L 487.5,367.2" style="fill:none;fill-rule:evenodd;stroke:#000000;stroke-width:2.0px;stroke-linecap:butt;stroke-linejoin:miter;stroke-opacity:1"/>
<path d="M 337.0,351.0 L 340.9,349.4 L 344.3,351.9" style="fill:none;stroke:#000000;stroke-width:2.0px;stroke-linecap:butt;stroke-linejoin:miter;stroke-miterlimit:10;stroke-opacity:1;"/>
<path d="M 405.7,398.1 L 409.1,400.6 L 413.0,399.0" style="fill:none;stroke:#000000;stroke-width:2.0px;stroke-linecap:butt;stroke-linejoin:miter;stroke-miterlimit:10;stroke-opacity:1;"/>
<path class="bond-0 atom-0 atom-1" d="M 576.7,425.5 L 512.5,388.7" style="fill:none;fill-rule:evenodd;stroke:#000000;stroke-width:2.0px;stroke-linecap:butt;stroke-linejoin:miter;stroke-opacity:1"/>
<path class="bond-0 atom-0 atom-1" d="M 572.6,410.4 L 527.7,384.6" style="fill:none;fill-rule:evenodd;stroke:#000000;stroke-width:2.0px;stroke-linecap:butt;stroke-linejoin:miter;stroke-opacity:1"/>
<path class="bond-1 atom-1 atom-2" d="M 512.5,388.7 L 549.3,324.5" style="fill:none;fill-rule:evenodd;stroke:#000000;stroke-width:2.0px;stroke-linecap:butt;stroke-linejoin:miter;stroke-opacity:1"/>
<path class="bond-2 atom-2 atom-3" d="M 549.3,324.5 L 604.4,356.1" style="fill:none;fill-rule:evenodd;stroke:#000000;stroke-width:2.0px;stroke-linecap:butt;stroke-linejoin:miter;stroke-opacity:1"/>
<path class="bond-3 atom-3 atom-4" d="M 621.3,353.5 L 673.2,339.4" style="fill:none;fill-rule:evenodd;stroke:#000000;stroke-width:2.0px;stroke-linecap:butt;stroke-linejoin:miter;stroke-opacity:1"/>
<path class="bond-3 atom-3 atom-4" d="M 624.2,364.2 L 676.1,350.1" style="fill:none;fill-rule:evenodd;stroke:#000000;stroke-width:2.0px;stroke-linecap:butt;stroke-linejoin:miter;stroke-opacity:1"/>
<path class="bond-4 atom-4 atom-5" d="M 695.4,352.3 L 737.5,394.2" style="fill:none;fill-rule:evenodd;stroke:#000000;stroke-width:2.0px;stroke-linecap:butt;stroke-linejoin:miter;stroke-opacity:1"/>
<path class="bond-5 atom-3 atom-0" d="M 605.8,374.8 L 576.7,425.5" style="fill:none;fill-rule:evenodd;stroke:#000000;stroke-width:2.0px;stroke-linecap:butt;stroke-linejoin:miter;stroke-opacity:1"/>
<path d="M 573.5,423.7 L 576.7,425.5 L 578.2,423.0" style="fill:none;stroke:#000000;stroke-width:2.0px;stroke-linecap:butt;stroke-linejoin:miter;stroke-miterlimit:10;stroke-opacity:1;"/>
<path d="M 515.7,390.5 L 512.5,388.7 L 514.3,385.5" style="fill:none;stroke:#000000;stroke-width:2.0px;stroke-linecap:butt;stroke-linejoin:miter;stroke-miterlimit:10;stroke-opacity:1;"/>
<path d="M 547.5,327.7 L 549.3,324.5 L 552.1,326.1" style="fill:none;stroke:#000000;stroke-width:2.0px;stroke-linecap:butt;stroke-linejoin:miter;stroke-miterlimit:10;stroke-opacity:1;"/>
<path class="atom-3" d="M 607.6 368.5 Q 607.9 368.6, 608.8 369.0 Q 609.8 369.4, 610.9 369.7 Q 612.0 369.9, 613.1 369.9 Q 615.0 369.9, 616.2 369.0 Q 617.3 368.0, 617.3 366.3 Q 617.3 365.2, 616.8 364.5 Q 616.2 363.7, 615.3 363.4 Q 614.4 363.0, 612.9 362.5 Q 611.1 362.0, 609.9 361.4 Q 608.8 360.9, 608.0 359.8 Q 607.3 358.7, 607.3 356.8 Q 607.3 354.1, 609.1 352.5 Q 610.9 350.9, 614.4 350.9 Q 616.8 350.9, 619.6 352.0 L 618.9 354.3 Q 616.4 353.3, 614.5 353.3 Q 612.5 353.3, 611.3 354.1 Q 610.2 354.9, 610.2 356.4 Q 610.2 357.5, 610.8 358.2 Q 611.4 358.9, 612.2 359.3 Q 613.1 359.7, 614.5 360.1 Q 616.4 360.7, 617.5 361.3 Q 618.6 361.9, 619.4 363.1 Q 620.3 364.3, 620.3 366.3 Q 620.3 369.2, 618.3 370.8 Q 616.4 372.3, 613.2 372.3 Q 611.3 372.3, 609.9 371.9 Q 608.5 371.5, 606.8 370.9 L 607.6 368.5 " fill="#000000"/>
<path class="atom-4" d="M 680.4 331.5 L 687.2 342.6 Q 687.9 343.7, 689.0 345.7 Q 690.1 347.6, 690.2 347.8 L 690.2 331.5 L 693.0 331.5 L 693.0 352.4 L 690.1 352.4 L 682.7 340.3 Q 681.9 338.9, 680.9 337.3 Q 680.1 335.6, 679.8 335.1 L 679.8 352.4 L 677.1 352.4 L 677.1 331.5 L 680.4 331.5 " fill="#000000"/>
<path class="bond-0 atom-0 atom-1" d="M 58.3,611.8 L 46.0,620.4" style="fill:none;fill-rule:evenodd;stroke:#000000;stroke-width:2.0px;stroke-linecap:butt;stroke-linejoin:miter;stroke-opacity:1"/>
<path class="bond-0 atom-0 atom-1" d="M 56.2,610.5 L 45.4,618.0" style="fill:none;fill-rule:evenodd;stroke:#000000;stroke-width:2.0px;stroke-linecap:butt;stroke-linejoin:miter;stroke-opacity:1"/>
<path class="bond-1 atom-1 atom-2" d="M 46.0,620.4 L 49.2,635.1" style="fill:none;fill-rule:evenodd;stroke:#000000;stroke-width:2.0px;stroke-linecap:butt;stroke-linejoin:miter;stroke-opacity:1"/>
<path class="bond-2 atom-2 atom-3" d="M 49.2,635.1 L 40.6,643.0" style="fill:none;fill-rule:evenodd;stroke:#000000;stroke-width:2.0px;stroke-linecap:butt;stroke-linejoin:miter;stroke-opacity:1"/>
<path class="bond-3 atom-3 atom-4" d="M 38.7,647.9 L 41.4,659.9" style="fill:none;fill-rule:evenodd;stroke:#000000;stroke-width:2.0px;stroke-linecap:butt;stroke-linejoin:miter;stroke-opacity:1"/>
<path class="bond-4 atom-4 atom-5" d="M 40.4,660.8 L 53.2,664.8" style="fill:none;fill-rule:evenodd;stroke:#000000;stroke-width:2.0px;stroke-linecap:butt;stroke-linejoin:miter;stroke-opacity:1"/>
<path class="bond-4 atom-4 atom-5" d="M 41.1,658.6 L 53.9,662.7" style="fill:none;fill-rule:evenodd;stroke:#000000;stroke-width:2.0px;stroke-linecap:butt;stroke-linejoin:miter;stroke-opacity:1"/>
<path class="bond-5 atom-4 atom-6" d="M 41.4,659.9 L 30.3,670.1" style="fill:none;fill-rule:evenodd;stroke:#000000;stroke-width:2.0px;stroke-linecap:butt;stroke-linejoin:miter;stroke-opacity:1"/>
<path class="bond-6 atom-1 atom-7" d="M 46.0,620.4 L 33.6,618.2" style="fill:none;fill-rule:evenodd;stroke:#000000;stroke-width:2.0px;stroke-linecap:butt;stroke-linejoin:miter;stroke-opacity:1"/>
<path class="bond-7 atom-7 atom-8" d="M 29.3,615.1 L 22.6,605.5" style="fill:none;fill-rule:evenodd;stroke:#000000;stroke-width:2.0px;stroke-linecap:butt;stroke-linejoin:miter;stroke-opacity:1"/>
<path class="bond-8 atom-8 atom-9" d="M 22.6,605.5 L 25.2,590.7" style="fill:none;fill-rule:evenodd;stroke:#000000;stroke-width:2.0px;stroke-linecap:butt;stroke-linejoin:miter;stroke-opacity:1"/>
<path class="bond-8 atom-8 atom-9" d="M 24.9,605.0 L 27.2,592.0" style="fill:none;fill-rule:evenodd;stroke:#000000;stroke-width:2.0px;stroke-linecap:butt;stroke-linejoin:miter;stroke-opacity:1"/>
<path class="bond-9 atom-9 atom-10" d="M 25.2,590.7 L 12.5,582.6" style="fill:none;fill-rule:evenodd;stroke:#000000;stroke-width:2.0px;stroke-linecap:butt;stroke-linejoin:miter;stroke-opacity:1"/>
<path class="bond-10 atom-9 atom-11" d="M 25.2,590.7 L 35.6,583.4" style="fill:none;fill-rule:evenodd;stroke:#000000;stroke-width:2.0px;stroke-linecap:butt;stroke-linejoin:miter;stroke-opacity:1"/>
<path class="bond-11 atom-11 atom-12" d="M 39.3,582.4 L 52.3,584.7" style="fill:none;fill-rule:evenodd;stroke:#000000;stroke-width:2.0px;stroke-linecap:butt;stroke-linejoin:miter;stroke-opacity:1"/>
<path class="bond-12 atom-12 atom-13" d="M 52.3,584.7 L 60.9,597.0" style="fill:none;fill-rule:evenodd;stroke:#000000;stroke-width:2.0px;stroke-linecap:butt;stroke-linejoin:miter;stroke-opacity:1"/>
<path class="bond-12 atom-12 atom-13" d="M 51.0,586.7 L 58.5,597.5" style="fill:none;fill-rule:evenodd;stroke:#000000;stroke-width:2.0px;stroke-linecap:butt;stroke-linejoin:miter;stroke-opacity:1"/>
<path class="bond-13 atom-13 atom-14" d="M 60.9,597.0 L 75.6,593.8" style="fill:none;fill-rule:evenodd;stroke:#000000;stroke-width:2.0px;stroke-linecap:butt;stroke-linejoin:miter;stroke-opacity:1"/>
<path class="bond-14 atom-14 atom-15" d="M 75.6,593.8 L 90.2,590.5" style="fill:none;fill-rule:evenodd;stroke:#000000;stroke-width:2.0px;stroke-linecap:butt;stroke-linejoin:miter;stroke-opacity:1"/>
<path class="bond-14 atom-14 atom-15" d="M 75.1,591.6 L 89.8,588.3" style="fill:none;fill-rule:evenodd;stroke:#000000;stroke-width:2.0px;stroke-linecap:butt;stroke-linejoin:miter;stroke-opacity:1"/>
<path class="bond-14 atom-14 atom-15" d="M 76.1,596.0 L 90.7,592.7" style="fill:none;fill-rule:evenodd;stroke:#000000;stroke-width:2.0px;stroke-linecap:butt;stroke-linejoin:miter;stroke-opacity:1"/>
<path class="bond-15 atom-15 atom-16" d="M 90.2,590.5 L 104.9,587.3" style="fill:none;fill-rule:evenodd;stroke:#000000;stroke-width:2.0px;stroke-linecap:butt;stroke-linejoin:miter;stroke-opacity:1"/>
<path class="bond-16 atom-16 atom-17" d="M 104.9,587.3 L 115.1,598.4" style="fill:none;fill-rule:evenodd;stroke:#000000;stroke-width:2.0px;stroke-linecap:butt;stroke-linejoin:miter;stroke-opacity:1"/>
<path class="bond-17 atom-17 atom-18" d="M 115.1,598.4 L 129.7,595.1" style="fill:none;fill-rule:evenodd;stroke:#000000;stroke-width:2.0px;stroke-linecap:butt;stroke-linejoin:miter;stroke-opacity:1"/>
<path class="bond-18 atom-18 atom-19" d="M 129.7,595.1 L 137.5,603.5" style="fill:none;fill-rule:evenodd;stroke:#000000;stroke-width:2.0px;stroke-linecap:butt;stroke-linejoin:miter;stroke-opacity:1"/>
<path class="bond-19 atom-19 atom-20" d="M 142.3,605.7 L 154.6,603.0" style="fill:none;fill-rule:evenodd;stroke:#000000;stroke-width:2.0px;stroke-linecap:butt;stroke-linejoin:miter;stroke-opacity:1"/>
<path class="bond-20 atom-20 atom-21" d="M 154.6,603.0 L 164.7,614.0" style="fill:none;fill-rule:evenodd;stroke:#000000;stroke-width:2.0px;stroke-linecap:butt;stroke-linejoin:miter;stroke-opacity:1"/>
<path class="bond-21 atom-21 atom-22" d="M 164.7,614.0 L 179.4,610.8" style="fill:none;fill-rule:evenodd;stroke:#000000;stroke-width:2.0px;stroke-linecap:butt;stroke-linejoin:miter;stroke-opacity:1"/>
<path class="bond-22 atom-22 atom-23" d="M 179.4,610.8 L 187.4,619.6" style="fill:none;fill-rule:evenodd;stroke:#000000;stroke-width:2.0px;stroke-linecap:butt;stroke-linejoin:miter;stroke-opacity:1"/>
<path class="bond-23 atom-23 atom-24" d="M 191.6,621.4 L 204.2,618.6" style="fill:none;fill-rule:evenodd;stroke:#000000;stroke-width:2.0px;stroke-linecap:butt;stroke-linejoin:miter;stroke-opacity:1"/>
<path class="bond-23 atom-23 atom-24" d="M 191.2,619.2 L 203.7,616.4" style="fill:none;fill-rule:evenodd;stroke:#000000;stroke-width:2.0px;stroke-linecap:butt;stroke-linejoin:miter;stroke-opacity:1"/>
<path class="bond-24 atom-24 atom-25" d="M 204.2,618.6 L 214.4,629.7" style="fill:none;fill-rule:evenodd;stroke:#000000;stroke-width:2.0px;stroke-linecap:butt;stroke-linejoin:miter;stroke-opacity:1"/>
<path class="bond-25 atom-25 atom-26" d="M 214.4,629.7 L 226.9,626.9" style="fill:none;fill-rule:evenodd;stroke:#000000;stroke-width:2.0px;stroke-linecap:butt;stroke-linejoin:miter;stroke-opacity:1"/>
<path class="bond-26 atom-13 atom-0" d="M 60.9,597.0 L 58.3,611.8" style="fill:none;fill-rule:evenodd;stroke:#000000;stroke-width:2.0px;stroke-linecap:butt;stroke-linejoin:miter;stroke-opacity:1"/>
<path d="M 57.7,612.2 L 58.3,611.8 L 58.4,611.1" style="fill:none;stroke:#000000;stroke-width:2.0px;stroke-linecap:butt;stroke-linejoin:miter;stroke-miterlimit:10;stroke-opacity:1;"/>
<path d="M 49.0,634.4 L 49.2,635.1 L 48.8,635.5" style="fill:none;stroke:#000000;stroke-width:2.0px;stroke-linecap:butt;stroke-linejoin:miter;stroke-miterlimit:10;stroke-opacity:1;"/>
<path d="M 41.2,659.3 L 41.4,659.9 L 40.8,660.4" style="fill:none;stroke:#000000;stroke-width:2.0px;stroke-linecap:butt;stroke-linejoin:miter;stroke-miterlimit:10;stroke-opacity:1;"/>
<path d="M 22.9,606.0 L 22.6,605.5 L 22.7,604.7" style="fill:none;stroke:#000000;stroke-width:2.0px;stroke-linecap:butt;stroke-linejoin:miter;stroke-miterlimit:10;stroke-opacity:1;"/>
<path d="M 51.6,584.6 L 52.3,584.7 L 52.7,585.3" style="fill:none;stroke:#000000;stroke-width:2.0px;stroke-linecap:butt;stroke-linejoin:miter;stroke-miterlimit:10;stroke-opacity:1;"/>
<path d="M 74.8,593.9 L 75.6,593.8 L 76.3,593.6" style="fill:none;stroke:#000000;stroke-width:2.0px;stroke-linecap:butt;stroke-linejoin:miter;stroke-miterlimit:10;stroke-opacity:1;"/>
<path d="M 89.5,590.7 L 90.2,590.5 L 91.0,590.4" style="fill:none;stroke:#000000;stroke-width:2.0px;stroke-linecap:butt;stroke-linejoin:miter;stroke-miterlimit:10;stroke-opacity:1;"/>
<path d="M 104.2,587.4 L 104.9,587.3 L 105.4,587.8" style="fill:none;stroke:#000000;stroke-width:2.0px;stroke-linecap:butt;stroke-linejoin:miter;stroke-miterlimit:10;stroke-opacity:1;"/>
<path d="M 114.6,597.8 L 115.1,598.4 L 115.8,598.2" style="fill:none;stroke:#000000;stroke-width:2.0px;stroke-linecap:butt;stroke-linejoin:miter;stroke-miterlimit:10;stroke-opacity:1;"/>
<path d="M 129.0,595.3 L 129.7,595.1 L 130.1,595.5" style="fill:none;stroke:#000000;stroke-width:2.0px;stroke-linecap:butt;stroke-linejoin:miter;stroke-miterlimit:10;stroke-opacity:1;"/>
<path d="M 154.0,603.1 L 154.6,603.0 L 155.1,603.5" style="fill:none;stroke:#000000;stroke-width:2.0px;stroke-linecap:butt;stroke-linejoin:miter;stroke-miterlimit:10;stroke-opacity:1;"/>
<path d="M 164.2,613.5 L 164.7,614.0 L 165.4,613.9" style="fill:none;stroke:#000000;stroke-width:2.0px;stroke-linecap:butt;stroke-linejoin:miter;stroke-miterlimit:10;stroke-opacity:1;"/>
<path d="M 178.6,611.0 L 179.4,610.8 L 179.8,611.2" style="fill:none;stroke:#000000;stroke-width:2.0px;stroke-linecap:butt;stroke-linejoin:miter;stroke-miterlimit:10;stroke-opacity:1;"/>
<path d="M 203.6,618.8 L 204.2,618.6 L 204.7,619.2" style="fill:none;stroke:#000000;stroke-width:2.0px;stroke-linecap:butt;stroke-linejoin:miter;stroke-miterlimit:10;stroke-opacity:1;"/>
<path d="M 213.8,629.2 L 214.4,629.7 L 215.0,629.6" style="fill:none;stroke:#000000;stroke-width:2.0px;stroke-linecap:butt;stroke-linejoin:miter;stroke-miterlimit:10;stroke-opacity:1;"/>
<path class="atom-3" d="M 36.2 645.2 Q 36.2 644.2, 36.7 643.7 Q 37.2 643.1, 38.1 643.1 Q 39.1 643.1, 39.6 643.7 Q 40.1 644.2, 40.1 645.2 Q 40.1 646.3, 39.6 646.9 Q 39.1 647.5, 38.1 647.5 Q 37.2 647.5, 36.7 646.9 Q 36.2 646.3, 36.2 645.2 M 38.1 647.0 Q 38.8 647.0, 39.1 646.5 Q 39.5 646.1, 39.5 645.2 Q 39.5 644.4, 39.1 644.0 Q 38.8 643.6, 38.1 643.6 Q 37.5 643.6, 37.1 644.0 Q 36.8 644.4, 36.8 645.2 Q 36.8 646.1, 37.1 646.5 Q 37.5 647.0, 38.1 647.0 " fill="#000000"/>
<path class="atom-5" d="M 54.8 662.3 L 56.2 664.6 Q 56.3 664.8, 56.5 665.2 Q 56.7 665.6, 56.7 665.6 L 56.7 662.3 L 57.3 662.3 L 57.3 666.6 L 56.7 666.6 L 55.2 664.1 Q 55.1 663.8, 54.9 663.5 Q 54.7 663.1, 54.6 663.0 L 54.6 666.6 L 54.1 666.6 L 54.1 662.3 L 54.8 662.3 " fill="#000000"/>
<path class="atom-5" d="M 58.1 662.3 L 58.7 662.3 L 58.7 664.1 L 60.9 664.1 L 60.9 662.3 L 61.5 662.3 L 61.5 666.6 L 60.9 666.6 L 60.9 664.6 L 58.7 664.6 L 58.7 666.6 L 58.1 666.6 L 58.1 662.3 " fill="#000000"/>
<path class="atom-7" d="M 29.2 617.8 Q 29.2 616.8, 29.7 616.2 Q 30.2 615.6, 31.2 615.6 Q 32.1 615.6, 32.6 616.2 Q 33.1 616.8, 33.1 617.8 Q 33.1 618.8, 32.6 619.4 Q 32.1 620.0, 31.2 620.0 Q 30.2 620.0, 29.7 619.4 Q 29.2 618.8, 29.2 617.8 M 31.2 619.5 Q 31.8 619.5, 32.2 619.1 Q 32.5 618.7, 32.5 617.8 Q 32.5 617.0, 32.2 616.6 Q 31.8 616.1, 31.2 616.1 Q 30.5 616.1, 30.2 616.5 Q 29.8 617.0, 29.8 617.8 Q 29.8 618.7, 30.2 619.1 Q 30.5 619.5, 31.2 619.5 " fill="#000000"/>
<path class="atom-11" d="M 36.3 583.5 Q 36.3 583.5, 36.5 583.6 Q 36.7 583.7, 36.9 583.8 Q 37.2 583.8, 37.4 583.8 Q 37.8 583.8, 38.0 583.6 Q 38.3 583.4, 38.3 583.1 Q 38.3 582.8, 38.1 582.7 Q 38.0 582.6, 37.8 582.5 Q 37.7 582.4, 37.4 582.3 Q 37.0 582.2, 36.8 582.1 Q 36.5 582.0, 36.4 581.8 Q 36.2 581.5, 36.2 581.1 Q 36.2 580.6, 36.6 580.3 Q 36.9 579.9, 37.7 579.9 Q 38.2 579.9, 38.7 580.2 L 38.6 580.6 Q 38.1 580.4, 37.7 580.4 Q 37.3 580.4, 37.0 580.6 Q 36.8 580.8, 36.8 581.1 Q 36.8 581.3, 36.9 581.4 Q 37.0 581.6, 37.2 581.7 Q 37.4 581.7, 37.7 581.8 Q 38.1 581.9, 38.3 582.1 Q 38.5 582.2, 38.7 582.4 Q 38.9 582.7, 38.9 583.1 Q 38.9 583.7, 38.5 584.0 Q 38.1 584.3, 37.4 584.3 Q 37.0 584.3, 36.7 584.2 Q 36.5 584.1, 36.1 584.0 L 36.3 583.5 " fill="#000000"/>
<path class="atom-19" d="M 137.9 606.2 Q 137.9 605.2, 138.4 604.6 Q 138.9 604.0, 139.9 604.0 Q 140.8 604.0, 141.3 604.6 Q 141.8 605.2, 141.8 606.2 Q 141.8 607.2, 141.3 607.8 Q 140.8 608.4, 139.9 608.4 Q 139.0 608.4, 138.4 607.8 Q 137.9 607.2, 137.9 606.2 M 139.9 607.9 Q 140.5 607.9, 140.9 607.5 Q 141.2 607.1, 141.2 606.2 Q 141.2 605.4, 140.9 605.0 Q 140.5 604.5, 139.9 604.5 Q 139.2 604.5, 138.9 604.9 Q 138.5 605.4, 138.5 606.2 Q 138.5 607.1, 138.9 607.5 Q 139.2 607.9, 139.9 607.9 " fill="#000000"/>
<path class="atom-23" d="M 188.6 619.8 L 190.0 622.0 Q 190.1 622.2, 190.3 622.6 Q 190.6 623.0, 190.6 623.1 L 190.6 619.8 L 191.1 619.8 L 191.1 624.0 L 190.6 624.0 L 189.1 621.5 Q 188.9 621.3, 188.7 620.9 Q 188.5 620.6, 188.5 620.5 L 188.5 624.0 L 187.9 624.0 L 187.9 619.8 L 188.6 619.8 " fill="#000000"/>
<path class="atom-26" d="M 228.1 624.3 L 229.5 626.6 Q 229.6 626.8, 229.8 627.2 Q 230.1 627.6, 230.1 627.7 L 230.1 624.3 L 230.6 624.3 L 230.6 628.6 L 230.1 628.6 L 228.6 626.1 Q 228.4 625.9, 228.2 625.5 Q 228.0 625.2, 228.0 625.1 L 228.0 628.6 L 227.4 628.6 L 227.4 624.3 L 228.1 624.3 " fill="#000000"/>
<path class="atom-26" d="M 231.5 624.3 L 232.0 624.3 L 232.0 626.2 L 234.2 626.2 L 234.2 624.3 L 234.8 624.3 L 234.8 628.6 L 234.2 628.6 L 234.2 626.6 L 232.0 626.6 L 232.0 628.6 L 231.5 628.6 L 231.5 624.3 " fill="#000000"/>
<path class="atom-26" d="M 235.6 628.5 Q 235.7 628.2, 236.0 628.0 Q 236.2 627.9, 236.6 627.9 Q 237.0 627.9, 237.2 628.1 Q 237.5 628.4, 237.5 628.8 Q 237.5 629.2, 237.1 629.6 Q 236.8 630.0, 236.2 630.4 L 237.5 630.4 L 237.5 630.7 L 235.6 630.7 L 235.6 630.5 Q 236.1 630.1, 236.4 629.8 Q 236.8 629.5, 236.9 629.3 Q 237.1 629.0, 237.1 628.8 Q 237.1 628.5, 236.9 628.4 Q 236.8 628.2, 236.6 628.2 Q 236.3 628.2, 236.2 628.3 Q 236.0 628.4, 235.9 628.6 L 235.6 628.5 " fill="#000000"/>
<path class="atom-17" d="M 115.4,599.7 L 115.4,599.7 L 115.4,599.8 L 115.4,599.8 L 115.3,599.8 L 115.3,599.8 L 115.3,599.9 L 115.3,599.9 L 115.3,599.9 L 115.3,599.9 L 115.3,599.9 L 115.2,600.0 L 115.2,600.0 L 115.2,600.0 L 115.2,600.0 L 115.1,600.0 L 115.1,600.0 L 115.1,600.0 L 115.1,600.0 L 115.0,600.0 L 115.0,600.0 L 115.0,600.0 L 115.0,600.0 L 114.9,600.0 L 114.9,600.0 L 114.9,600.0 L 114.9,599.9 L 114.9,599.9 L 114.8,599.9 L 114.8,599.9 L 114.8,599.9 L 114.8,599.8 L 114.8,599.8 L 114.8,599.8 L 114.8,599.8 L 114.8,599.7 L 114.8,599.7 L 114.8,599.7 L 114.8,599.7 L 114.8,599.6 L 114.8,599.6 L 114.8,599.6 L 114.8,599.6 L 114.8,599.5 L 114.8,599.5 L 114.8,599.5 L 114.9,599.5 L 114.9,599.5 L 114.9,599.5 L 114.9,599.4 L 114.9,599.4 L 115.0,599.4 L 115.0,599.4 L 115.0,599.4 L 115.0,599.4 L 115.1,599.4 L 115.1,599.4 L 115.1,599.4 L 115.1,599.4 L 115.2,599.4 L 115.2,599.4 L 115.2,599.4 L 115.2,599.5 L 115.3,599.5 L 115.3,599.5 L 115.3,599.5 L 115.3,599.5 L 115.3,599.6 L 115.3,599.6 L 115.3,599.6 L 115.4,599.6 L 115.4,599.7 L 115.4,599.7 L 115.4,599.7 L 115.1,599.7 Z" style="fill:#000000;fill-rule:evenodd;fill-opacity:1;stroke:#000000;stroke-width:0.0px;stroke-linecap:butt;stroke-linejoin:miter;stroke-miterlimit:10;stroke-opacity:1;"/>
<path class="bond-0 atom-0 atom-1" d="M 341.8,628.8 L 349.3,652.4" style="fill:none;fill-rule:evenodd;stroke:#000000;stroke-width:2.0px;stroke-linecap:butt;stroke-linejoin:miter;stroke-opacity:1"/>
<path class="bond-1 atom-0 atom-2" d="M 341.8,628.8 L 334.3,605.1" style="fill:none;fill-rule:evenodd;stroke:#000000;stroke-width:2.0px;stroke-linecap:butt;stroke-linejoin:miter;stroke-opacity:1"/>
<path class="bond-2 atom-2 atom-3" d="M 334.3,605.1 L 357.9,597.6" style="fill:none;fill-rule:evenodd;stroke:#000000;stroke-width:2.0px;stroke-linecap:butt;stroke-linejoin:miter;stroke-opacity:1"/>
<path class="bond-3 atom-3 atom-4" d="M 357.9,597.6 L 364.1,616.9" style="fill:none;fill-rule:evenodd;stroke:#000000;stroke-width:2.0px;stroke-linecap:butt;stroke-linejoin:miter;stroke-opacity:1"/>
<path class="bond-4 atom-4 atom-5" d="M 368.9,623.0 L 387.5,632.7" style="fill:none;fill-rule:evenodd;stroke:#000000;stroke-width:2.0px;stroke-linecap:butt;stroke-linejoin:miter;stroke-opacity:1"/>
<path class="bond-5 atom-5 atom-6" d="M 387.5,632.7 L 408.4,619.3" style="fill:none;fill-rule:evenodd;stroke:#000000;stroke-width:2.0px;stroke-linecap:butt;stroke-linejoin:miter;stroke-opacity:1"/>
<path class="bond-6 atom-6 atom-7" d="M 408.4,619.3 L 430.5,630.7" style="fill:none;fill-rule:evenodd;stroke:#000000;stroke-width:2.0px;stroke-linecap:butt;stroke-linejoin:miter;stroke-opacity:1"/>
<path class="bond-7 atom-7 atom-8" d="M 430.5,630.7 L 451.4,617.3" style="fill:none;fill-rule:evenodd;stroke:#000000;stroke-width:2.0px;stroke-linecap:butt;stroke-linejoin:miter;stroke-opacity:1"/>
<path class="bond-8 atom-8 atom-9" d="M 451.4,617.3 L 470.0,626.9" style="fill:none;fill-rule:evenodd;stroke:#000000;stroke-width:2.0px;stroke-linecap:butt;stroke-linejoin:miter;stroke-opacity:1"/>
<path class="bond-9 atom-0 atom-10" d="M 341.8,628.8 L 318.1,636.3" style="fill:none;fill-rule:evenodd;stroke:#000000;stroke-width:2.0px;stroke-linecap:butt;stroke-linejoin:miter;stroke-opacity:1"/>
<path class="bond-10 atom-10 atom-11" d="M 318.1,636.3 L 303.2,622.7" style="fill:none;fill-rule:evenodd;stroke:#000000;stroke-width:2.0px;stroke-linecap:butt;stroke-linejoin:miter;stroke-opacity:1"/>
<path class="bond-10 atom-10 atom-11" d="M 319.0,632.1 L 305.8,620.0" style="fill:none;fill-rule:evenodd;stroke:#000000;stroke-width:2.0px;stroke-linecap:butt;stroke-linejoin:miter;stroke-opacity:1"/>
<path class="bond-11 atom-11 atom-12" d="M 296.3,620.6 L 279.6,625.9" style="fill:none;fill-rule:evenodd;stroke:#000000;stroke-width:2.0px;stroke-linecap:butt;stroke-linejoin:miter;stroke-opacity:1"/>
<path class="bond-12 atom-4 atom-0" d="M 362.0,622.3 L 341.8,628.8" style="fill:none;fill-rule:evenodd;stroke:#000000;stroke-width:2.0px;stroke-linecap:butt;stroke-linejoin:miter;stroke-opacity:1"/>
<path d="M 334.6,606.3 L 334.3,605.1 L 335.4,604.7" style="fill:none;stroke:#000000;stroke-width:2.0px;stroke-linecap:butt;stroke-linejoin:miter;stroke-miterlimit:10;stroke-opacity:1;"/>
<path d="M 356.8,597.9 L 357.9,597.6 L 358.2,598.5" style="fill:none;stroke:#000000;stroke-width:2.0px;stroke-linecap:butt;stroke-linejoin:miter;stroke-miterlimit:10;stroke-opacity:1;"/>
<path d="M 386.6,632.2 L 387.5,632.7 L 388.6,632.0" style="fill:none;stroke:#000000;stroke-width:2.0px;stroke-linecap:butt;stroke-linejoin:miter;stroke-miterlimit:10;stroke-opacity:1;"/>
<path d="M 407.4,619.9 L 408.4,619.3 L 409.5,619.8" style="fill:none;stroke:#000000;stroke-width:2.0px;stroke-linecap:butt;stroke-linejoin:miter;stroke-miterlimit:10;stroke-opacity:1;"/>
<path d="M 429.4,630.1 L 430.5,630.7 L 431.6,630.0" style="fill:none;stroke:#000000;stroke-width:2.0px;stroke-linecap:butt;stroke-linejoin:miter;stroke-miterlimit:10;stroke-opacity:1;"/>
<path d="M 450.4,618.0 L 451.4,617.3 L 452.4,617.8" style="fill:none;stroke:#000000;stroke-width:2.0px;stroke-linecap:butt;stroke-linejoin:miter;stroke-miterlimit:10;stroke-opacity:1;"/>
<path d="M 319.3,635.9 L 318.1,636.3 L 317.4,635.6" style="fill:none;stroke:#000000;stroke-width:2.0px;stroke-linecap:butt;stroke-linejoin:miter;stroke-miterlimit:10;stroke-opacity:1;"/>
<path class="atom-4" d="M 363.9 617.7 L 366.2 621.4 Q 366.4 621.8, 366.8 622.5 Q 367.2 623.1, 367.2 623.2 L 367.2 617.7 L 368.1 617.7 L 368.1 624.8 L 367.2 624.8 L 364.7 620.7 Q 364.4 620.2, 364.1 619.7 Q 363.8 619.1, 363.7 618.9 L 363.7 624.8 L 362.8 624.8 L 362.8 617.7 L 363.9 617.7 " fill="#000000"/>
<path class="atom-9" d="M 471.9 625.2 L 474.2 628.9 Q 474.5 629.3, 474.8 630.0 Q 475.2 630.6, 475.2 630.7 L 475.2 625.2 L 476.2 625.2 L 476.2 632.3 L 475.2 632.3 L 472.7 628.2 Q 472.4 627.7, 472.1 627.2 Q 471.8 626.6, 471.7 626.4 L 471.7 632.3 L 470.8 632.3 L 470.8 625.2 L 471.9 625.2 " fill="#000000"/>
<path class="atom-9" d="M 477.5 625.2 L 478.5 625.2 L 478.5 628.2 L 482.1 628.2 L 482.1 625.2 L 483.0 625.2 L 483.0 632.3 L 482.1 632.3 L 482.1 629.0 L 478.5 629.0 L 478.5 632.3 L 477.5 632.3 L 477.5 625.2 " fill="#000000"/>
<path class="atom-9" d="M 484.4 632.0 Q 484.6 631.6, 485.0 631.3 Q 485.4 631.1, 485.9 631.1 Q 486.6 631.1, 487.0 631.5 Q 487.4 631.8, 487.4 632.5 Q 487.4 633.2, 486.9 633.8 Q 486.4 634.5, 485.4 635.2 L 487.5 635.2 L 487.5 635.8 L 484.4 635.8 L 484.4 635.3 Q 485.2 634.7, 485.7 634.3 Q 486.3 633.8, 486.5 633.4 Q 486.8 633.0, 486.8 632.5 Q 486.8 632.1, 486.5 631.8 Q 486.3 631.6, 485.9 631.6 Q 485.6 631.6, 485.3 631.7 Q 485.1 631.9, 484.9 632.2 L 484.4 632.0 " fill="#000000"/>
<path class="atom-11" d="M 298.2 616.0 L 300.5 619.7 Q 300.7 620.1, 301.1 620.8 Q 301.5 621.4, 301.5 621.5 L 301.5 616.0 L 302.4 616.0 L 302.4 623.1 L 301.5 623.1 L 299.0 619.0 Q 298.7 618.5, 298.4 618.0 Q 298.1 617.4, 298.0 617.2 L 298.0 623.1 L 297.1 623.1 L 297.1 616.0 L 298.2 616.0 " fill="#000000"/>
<path class="atom-12" d="M 262.5 623.5 L 263.5 623.5 L 263.5 626.5 L 267.1 626.5 L 267.1 623.5 L 268.0 623.5 L 268.0 630.6 L 267.1 630.6 L 267.1 627.3 L 263.5 627.3 L 263.5 630.6 L 262.5 630.6 L 262.5 623.5 " fill="#000000"/>
<path class="atom-12" d="M 269.4 630.3 Q 269.6 629.9, 270.0 629.6 Q 270.4 629.4, 270.9 629.4 Q 271.6 629.4, 272.0 629.8 Q 272.4 630.2, 272.4 630.8 Q 272.4 631.5, 271.9 632.2 Q 271.4 632.8, 270.4 633.6 L 272.5 633.6 L 272.5 634.1 L 269.4 634.1 L 269.4 633.7 Q 270.2 633.0, 270.7 632.6 Q 271.3 632.1, 271.5 631.7 Q 271.8 631.3, 271.8 630.9 Q 271.8 630.4, 271.5 630.2 Q 271.3 629.9, 270.9 629.9 Q 270.6 629.9, 270.3 630.1 Q 270.1 630.2, 269.9 630.6 L 269.4 630.3 " fill="#000000"/>
<path class="atom-12" d="M 274.5 623.5 L 276.8 627.3 Q 277.1 627.6, 277.4 628.3 Q 277.8 629.0, 277.8 629.0 L 277.8 623.5 L 278.7 623.5 L 278.7 630.6 L 277.8 630.6 L 275.3 626.5 Q 275.0 626.0, 274.7 625.5 Q 274.4 624.9, 274.3 624.8 L 274.3 630.6 L 273.4 630.6 L 273.4 623.5 L 274.5 623.5 " fill="#000000"/>
<path class="atom-5" d="M 388.0,634.9 L 388.0,634.9 L 388.0,635.0 L 388.0,635.0 L 388.0,635.1 L 388.0,635.1 L 388.0,635.1 L 387.9,635.2 L 387.9,635.2 L 387.9,635.2 L 387.8,635.3 L 387.8,635.3 L 387.8,635.3 L 387.7,635.3 L 387.7,635.4 L 387.7,635.4 L 387.6,635.4 L 387.6,635.4 L 387.5,635.4 L 387.5,635.4 L 387.4,635.4 L 387.4,635.4 L 387.4,635.4 L 387.3,635.4 L 387.3,635.3 L 387.2,635.3 L 387.2,635.3 L 387.2,635.3 L 387.2,635.2 L 387.1,635.2 L 387.1,635.2 L 387.1,635.1 L 387.1,635.1 L 387.0,635.0 L 387.0,635.0 L 387.0,635.0 L 387.0,634.9 L 387.0,634.9 L 387.0,634.8 L 387.0,634.8 L 387.0,634.8 L 387.1,634.7 L 387.1,634.7 L 387.1,634.6 L 387.1,634.6 L 387.2,634.6 L 387.2,634.5 L 387.2,634.5 L 387.2,634.5 L 387.3,634.5 L 387.3,634.4 L 387.4,634.4 L 387.4,634.4 L 387.4,634.4 L 387.5,634.4 L 387.5,634.4 L 387.6,634.4 L 387.6,634.4 L 387.7,634.4 L 387.7,634.4 L 387.7,634.5 L 387.8,634.5 L 387.8,634.5 L 387.8,634.5 L 387.9,634.6 L 387.9,634.6 L 387.9,634.6 L 388.0,634.7 L 388.0,634.7 L 388.0,634.7 L 388.0,634.8 L 388.0,634.8 L 388.0,634.9 L 388.0,634.9 L 387.5,634.9 Z" style="fill:#000000;fill-rule:evenodd;fill-opacity:1;stroke:#000000;stroke-width:0.0px;stroke-linecap:butt;stroke-linejoin:miter;stroke-miterlimit:10;stroke-opacity:1;"/>
<path class="bond-0 atom-0 atom-1" d="M 737.5,618.2 L 726.2,636.0" style="fill:none;fill-rule:evenodd;stroke:#000000;stroke-width:2.0px;stroke-linecap:butt;stroke-linejoin:miter;stroke-opacity:1"/>
<path class="bond-1 atom-1 atom-2" d="M 718.9,640.5 L 696.6,639.6" style="fill:none;fill-rule:evenodd;stroke:#000000;stroke-width:2.0px;stroke-linecap:butt;stroke-linejoin:miter;stroke-opacity:1"/>
<path class="bond-2 atom-2 atom-3" d="M 696.6,639.6 L 682.4,662.1" style="fill:none;fill-rule:evenodd;stroke:#000000;stroke-width:2.0px;stroke-linecap:butt;stroke-linejoin:miter;stroke-opacity:1"/>
<path class="bond-3 atom-3 atom-4" d="M 682.4,662.1 L 655.8,660.9" style="fill:none;fill-rule:evenodd;stroke:#000000;stroke-width:2.0px;stroke-linecap:butt;stroke-linejoin:miter;stroke-opacity:1"/>
<path class="bond-3 atom-3 atom-4" d="M 680.2,658.0 L 655.9,657.0" style="fill:none;fill-rule:evenodd;stroke:#000000;stroke-width:2.0px;stroke-linecap:butt;stroke-linejoin:miter;stroke-opacity:1"/>
<path class="bond-4 atom-4 atom-5" d="M 655.8,660.9 L 641.5,683.4" style="fill:none;fill-rule:evenodd;stroke:#000000;stroke-width:2.0px;stroke-linecap:butt;stroke-linejoin:miter;stroke-opacity:1"/>
<path class="bond-5 atom-2 atom-6" d="M 696.6,639.6 L 684.3,616.0" style="fill:none;fill-rule:evenodd;stroke:#000000;stroke-width:2.0px;stroke-linecap:butt;stroke-linejoin:miter;stroke-opacity:1"/>
<path class="bond-6 atom-6 atom-7" d="M 684.3,616.0 L 695.6,598.1" style="fill:none;fill-rule:evenodd;stroke:#000000;stroke-width:2.0px;stroke-linecap:butt;stroke-linejoin:miter;stroke-opacity:1"/>
<path class="bond-7 atom-6 atom-8" d="M 684.3,616.0 L 657.7,614.9" style="fill:none;fill-rule:evenodd;stroke:#000000;stroke-width:2.0px;stroke-linecap:butt;stroke-linejoin:miter;stroke-opacity:1"/>
<path class="bond-8 atom-8 atom-9" d="M 657.7,614.9 L 647.8,595.9" style="fill:none;fill-rule:evenodd;stroke:#000000;stroke-width:2.0px;stroke-linecap:butt;stroke-linejoin:miter;stroke-opacity:1"/>
<path class="bond-8 atom-8 atom-9" d="M 660.2,611.0 L 651.3,594.1" style="fill:none;fill-rule:evenodd;stroke:#000000;stroke-width:2.0px;stroke-linecap:butt;stroke-linejoin:miter;stroke-opacity:1"/>
<path class="bond-9 atom-9 atom-10" d="M 641.6,591.1 L 618.7,590.2" style="fill:none;fill-rule:evenodd;stroke:#000000;stroke-width:2.0px;stroke-linecap:butt;stroke-linejoin:miter;stroke-opacity:1"/>
<path class="bond-10 atom-10 atom-11" d="M 618.7,590.2 L 606.4,566.6" style="fill:none;fill-rule:evenodd;stroke:#000000;stroke-width:2.0px;stroke-linecap:butt;stroke-linejoin:miter;stroke-opacity:1"/>
<path class="bond-11 atom-10 atom-12" d="M 618.7,590.2 L 604.5,612.6" style="fill:none;fill-rule:evenodd;stroke:#000000;stroke-width:2.0px;stroke-linecap:butt;stroke-linejoin:miter;stroke-opacity:1"/>
<path class="bond-11 atom-10 atom-12" d="M 614.1,590.0 L 602.3,608.6" style="fill:none;fill-rule:evenodd;stroke:#000000;stroke-width:2.0px;stroke-linecap:butt;stroke-linejoin:miter;stroke-opacity:1"/>
<path class="bond-12 atom-12 atom-13" d="M 604.5,612.6 L 577.9,611.5" style="fill:none;fill-rule:evenodd;stroke:#000000;stroke-width:2.0px;stroke-linecap:butt;stroke-linejoin:miter;stroke-opacity:1"/>
<path class="bond-13 atom-13 atom-14" d="M 577.9,611.5 L 563.6,634.0" style="fill:none;fill-rule:evenodd;stroke:#000000;stroke-width:2.0px;stroke-linecap:butt;stroke-linejoin:miter;stroke-opacity:1"/>
<path class="bond-14 atom-14 atom-15" d="M 563.6,634.0 L 540.3,633.0" style="fill:none;fill-rule:evenodd;stroke:#000000;stroke-width:2.0px;stroke-linecap:butt;stroke-linejoin:miter;stroke-opacity:1"/>
<path class="bond-15 atom-15 atom-16" d="M 532.2,636.7 L 524.0,649.7" style="fill:none;fill-rule:evenodd;stroke:#000000;stroke-width:2.0px;stroke-linecap:butt;stroke-linejoin:miter;stroke-opacity:1"/>
<path class="bond-15 atom-15 atom-16" d="M 535.6,638.8 L 527.4,651.8" style="fill:none;fill-rule:evenodd;stroke:#000000;stroke-width:2.0px;stroke-linecap:butt;stroke-linejoin:miter;stroke-opacity:1"/>
<path d="M 683.1,660.9 L 682.4,662.1 L 681.0,662.0" style="fill:none;stroke:#000000;stroke-width:2.0px;stroke-linecap:butt;stroke-linejoin:miter;stroke-miterlimit:10;stroke-opacity:1;"/>
<path d="M 657.1,661.0 L 655.8,660.9 L 655.1,662.1" style="fill:none;stroke:#000000;stroke-width:2.0px;stroke-linecap:butt;stroke-linejoin:miter;stroke-miterlimit:10;stroke-opacity:1;"/>
<path d="M 659.0,614.9 L 657.7,614.9 L 657.2,613.9" style="fill:none;stroke:#000000;stroke-width:2.0px;stroke-linecap:butt;stroke-linejoin:miter;stroke-miterlimit:10;stroke-opacity:1;"/>
<path d="M 605.2,611.5 L 604.5,612.6 L 603.2,612.6" style="fill:none;stroke:#000000;stroke-width:2.0px;stroke-linecap:butt;stroke-linejoin:miter;stroke-miterlimit:10;stroke-opacity:1;"/>
<path d="M 579.2,611.6 L 577.9,611.5 L 577.2,612.7" style="fill:none;stroke:#000000;stroke-width:2.0px;stroke-linecap:butt;stroke-linejoin:miter;stroke-miterlimit:10;stroke-opacity:1;"/>
<path d="M 564.3,632.9 L 563.6,634.0 L 562.4,634.0" style="fill:none;stroke:#000000;stroke-width:2.0px;stroke-linecap:butt;stroke-linejoin:miter;stroke-miterlimit:10;stroke-opacity:1;"/>
<path class="atom-1" d="M 719.8 640.7 Q 719.8 638.9, 720.7 637.9 Q 721.6 636.9, 723.2 636.9 Q 724.9 636.9, 725.8 637.9 Q 726.7 638.9, 726.7 640.7 Q 726.7 642.5, 725.8 643.6 Q 724.9 644.6, 723.2 644.6 Q 721.6 644.6, 720.7 643.6 Q 719.8 642.6, 719.8 640.7 M 723.2 643.8 Q 724.4 643.8, 725.0 643.0 Q 725.6 642.2, 725.6 640.7 Q 725.6 639.2, 725.0 638.5 Q 724.4 637.7, 723.2 637.7 Q 722.1 637.7, 721.5 638.5 Q 720.8 639.2, 720.8 640.7 Q 720.8 642.2, 721.5 643.0 Q 722.1 643.8, 723.2 643.8 " fill="#000000"/>
<path class="atom-7" d="M 696.3 589.7 L 700.8 589.7 L 700.8 590.6 L 697.3 590.6 L 697.3 592.9 L 700.4 592.9 L 700.4 593.8 L 697.3 593.8 L 697.3 597.3 L 696.3 597.3 L 696.3 589.7 " fill="#000000"/>
<path class="atom-9" d="M 643.7 587.5 L 646.2 591.5 Q 646.4 591.9, 646.8 592.6 Q 647.2 593.3, 647.2 593.4 L 647.2 587.5 L 648.2 587.5 L 648.2 595.0 L 647.2 595.0 L 644.5 590.7 Q 644.2 590.2, 643.9 589.6 Q 643.6 589.0, 643.5 588.8 L 643.5 595.0 L 642.5 595.0 L 642.5 587.5 L 643.7 587.5 " fill="#000000"/>
<path class="atom-9" d="M 649.6 587.5 L 650.7 587.5 L 650.7 590.7 L 654.5 590.7 L 654.5 587.5 L 655.5 587.5 L 655.5 595.0 L 654.5 595.0 L 654.5 591.6 L 650.7 591.6 L 650.7 595.0 L 649.6 595.0 L 649.6 587.5 " fill="#000000"/>
<path class="atom-9" d="M 657.0 588.9 L 658.3 588.9 L 658.3 587.5 L 658.9 587.5 L 658.9 588.9 L 660.3 588.9 L 660.3 589.4 L 658.9 589.4 L 658.9 590.8 L 658.3 590.8 L 658.3 589.4 L 657.0 589.4 L 657.0 588.9 " fill="#000000"/>
<path class="atom-15" d="M 527.3 629.1 L 528.3 629.1 L 528.3 632.3 L 532.1 632.3 L 532.1 629.1 L 533.2 629.1 L 533.2 636.7 L 532.1 636.7 L 532.1 633.2 L 528.3 633.2 L 528.3 636.7 L 527.3 636.7 L 527.3 629.1 " fill="#000000"/>
<path class="atom-15" d="M 534.9 635.5 Q 535.0 635.5, 535.3 635.7 Q 535.7 635.8, 536.1 635.9 Q 536.4 636.0, 536.8 636.0 Q 537.5 636.0, 538.0 635.7 Q 538.4 635.3, 538.4 634.7 Q 538.4 634.3, 538.2 634.0 Q 538.0 633.8, 537.6 633.7 Q 537.3 633.5, 536.8 633.4 Q 536.1 633.2, 535.7 633.0 Q 535.3 632.8, 535.0 632.4 Q 534.8 632.0, 534.8 631.3 Q 534.8 630.3, 535.4 629.7 Q 536.0 629.2, 537.3 629.2 Q 538.2 629.2, 539.2 629.6 L 538.9 630.4 Q 538.0 630.0, 537.4 630.0 Q 536.6 630.0, 536.2 630.3 Q 535.8 630.6, 535.8 631.1 Q 535.8 631.6, 536.0 631.8 Q 536.2 632.0, 536.5 632.2 Q 536.8 632.3, 537.4 632.5 Q 538.0 632.7, 538.4 632.9 Q 538.8 633.1, 539.1 633.6 Q 539.4 634.0, 539.4 634.7 Q 539.4 635.8, 538.7 636.3 Q 538.0 636.9, 536.9 636.9 Q 536.2 636.9, 535.7 636.7 Q 535.2 636.6, 534.6 636.3 L 534.9 635.5 " fill="#000000"/>
<path class="atom-16" d="M 512.5 651.6 L 513.5 651.6 L 513.5 654.8 L 517.4 654.8 L 517.4 651.6 L 518.4 651.6 L 518.4 659.2 L 517.4 659.2 L 517.4 655.7 L 513.5 655.7 L 513.5 659.2 L 512.5 659.2 L 512.5 651.6 " fill="#000000"/>
<path class="atom-16" d="M 521.1 651.6 L 523.6 655.6 Q 523.8 656.0, 524.2 656.7 Q 524.6 657.4, 524.6 657.5 L 524.6 651.6 L 525.6 651.6 L 525.6 659.2 L 524.6 659.2 L 521.9 654.8 Q 521.6 654.3, 521.3 653.7 Q 521.0 653.1, 520.9 652.9 L 520.9 659.2 L 519.9 659.2 L 519.9 651.6 L 521.1 651.6 " fill="#000000"/>
</svg>