<svg xmlns="http://www.w3.org/2000/svg" xmlns:rdkit="http://www.rdkit.org/xml" xmlns:xlink="http://www.w3.org/1999/xlink" version="1.1" baseProfile="full" xml:space="preserve" width="750px" height="750px" viewBox="0 0 750 750">
<!-- END OF HEADER -->
<rect style="opacity:1.0;fill:#FFFFFF;stroke:none" width="250.0" height="250.0" x="0.0" y="0.0"> </rect>
<path class="bond-0 atom-0 atom-1" d="M 63.4,175.1 L 33.0,172.6" style="fill:none;fill-rule:evenodd;stroke:#000000;stroke-width:2.0px;stroke-linecap:butt;stroke-linejoin:miter;stroke-opacity:1"/>
<path class="bond-1 atom-1 atom-2" d="M 33.0,172.6 L 36.1,136.3" style="fill:none;fill-rule:evenodd;stroke:#000000;stroke-width:2.0px;stroke-linecap:butt;stroke-linejoin:miter;stroke-opacity:1"/>
<path class="bond-2 atom-2 atom-3" d="M 36.1,136.3 L 12.5,108.5" style="fill:none;fill-rule:evenodd;stroke:#000000;stroke-width:2.0px;stroke-linecap:butt;stroke-linejoin:miter;stroke-opacity:1"/>
<path class="bond-3 atom-3 atom-4" d="M 12.5,108.5 L 22.4,80.8" style="fill:none;fill-rule:evenodd;stroke:#000000;stroke-width:2.0px;stroke-linecap:butt;stroke-linejoin:miter;stroke-opacity:1"/>
<path class="bond-4 atom-2 atom-5" d="M 36.1,136.3 L 72.4,139.3" style="fill:none;fill-rule:evenodd;stroke:#000000;stroke-width:2.0px;stroke-linecap:butt;stroke-linejoin:miter;stroke-opacity:1"/>
<path class="bond-5 atom-5 atom-6" d="M 75.4,137.2 L 75.0,136.7" style="fill:none;fill-rule:evenodd;stroke:#000000;stroke-width:1.0px;stroke-linecap:butt;stroke-linejoin:miter;stroke-opacity:1"/>
<path class="bond-5 atom-5 atom-6" d="M 78.4,135.1 L 77.6,134.1" style="fill:none;fill-rule:evenodd;stroke:#000000;stroke-width:1.0px;stroke-linecap:butt;stroke-linejoin:miter;stroke-opacity:1"/>
<path class="bond-5 atom-5 atom-6" d="M 81.3,132.9 L 80.2,131.5" style="fill:none;fill-rule:evenodd;stroke:#000000;stroke-width:1.0px;stroke-linecap:butt;stroke-linejoin:miter;stroke-opacity:1"/>
<path class="bond-5 atom-5 atom-6" d="M 84.3,130.8 L 82.7,129.0" style="fill:none;fill-rule:evenodd;stroke:#000000;stroke-width:1.0px;stroke-linecap:butt;stroke-linejoin:miter;stroke-opacity:1"/>
<path class="bond-5 atom-5 atom-6" d="M 87.3,128.7 L 85.3,126.4" style="fill:none;fill-rule:evenodd;stroke:#000000;stroke-width:1.0px;stroke-linecap:butt;stroke-linejoin:miter;stroke-opacity:1"/>
<path class="bond-5 atom-5 atom-6" d="M 90.3,126.6 L 87.9,123.8" style="fill:none;fill-rule:evenodd;stroke:#000000;stroke-width:1.0px;stroke-linecap:butt;stroke-linejoin:miter;stroke-opacity:1"/>
<path class="bond-5 atom-5 atom-6" d="M 93.2,124.4 L 90.5,121.2" style="fill:none;fill-rule:evenodd;stroke:#000000;stroke-width:1.0px;stroke-linecap:butt;stroke-linejoin:miter;stroke-opacity:1"/>
<path class="bond-5 atom-5 atom-6" d="M 96.2,122.3 L 93.1,118.6" style="fill:none;fill-rule:evenodd;stroke:#000000;stroke-width:1.0px;stroke-linecap:butt;stroke-linejoin:miter;stroke-opacity:1"/>
<path class="bond-5 atom-5 atom-6" d="M 99.2,120.2 L 95.7,116.0" style="fill:none;fill-rule:evenodd;stroke:#000000;stroke-width:1.0px;stroke-linecap:butt;stroke-linejoin:miter;stroke-opacity:1"/>
<path class="bond-6 atom-6 atom-7" d="M 100.2,115.7 L 134.5,128.1" style="fill:none;fill-rule:evenodd;stroke:#000000;stroke-width:2.0px;stroke-linecap:butt;stroke-linejoin:miter;stroke-opacity:1"/>
<path class="bond-7 atom-7 atom-8" d="M 134.5,128.1 L 157.3,108.8" style="fill:none;fill-rule:evenodd;stroke:#000000;stroke-width:2.0px;stroke-linecap:butt;stroke-linejoin:miter;stroke-opacity:1"/>
<path class="bond-8 atom-8 atom-9" d="M 167.5,106.3 L 192.2,115.2" style="fill:none;fill-rule:evenodd;stroke:#000000;stroke-width:2.0px;stroke-linecap:butt;stroke-linejoin:miter;stroke-opacity:1"/>
<path class="bond-9 atom-9 atom-10" d="M 191.7,122.5 L 184.1,143.8" style="fill:none;fill-rule:evenodd;stroke:#000000;stroke-width:2.0px;stroke-linecap:butt;stroke-linejoin:miter;stroke-opacity:1"/>
<path class="bond-9 atom-9 atom-10" d="M 196.9,124.4 L 189.3,145.6" style="fill:none;fill-rule:evenodd;stroke:#000000;stroke-width:2.0px;stroke-linecap:butt;stroke-linejoin:miter;stroke-opacity:1"/>
<path class="bond-10 atom-9 atom-11" d="M 201.5,111.4 L 209.2,90.0" style="fill:none;fill-rule:evenodd;stroke:#000000;stroke-width:2.0px;stroke-linecap:butt;stroke-linejoin:miter;stroke-opacity:1"/>
<path class="bond-10 atom-9 atom-11" d="M 196.4,109.6 L 204.1,88.2" style="fill:none;fill-rule:evenodd;stroke:#000000;stroke-width:2.0px;stroke-linecap:butt;stroke-linejoin:miter;stroke-opacity:1"/>
<path class="bond-11 atom-9 atom-12" d="M 201.2,118.5 L 231.0,129.2" style="fill:none;fill-rule:evenodd;stroke:#000000;stroke-width:2.0px;stroke-linecap:butt;stroke-linejoin:miter;stroke-opacity:1"/>
<path class="bond-12 atom-12 atom-13" d="M 231.0,129.2 L 237.5,165.0" style="fill:none;fill-rule:evenodd;stroke:#000000;stroke-width:2.0px;stroke-linecap:butt;stroke-linejoin:miter;stroke-opacity:1"/>
<path class="bond-13 atom-5 atom-0" d="M 72.4,139.3 L 69.9,169.2" style="fill:none;fill-rule:evenodd;stroke:#000000;stroke-width:2.0px;stroke-linecap:butt;stroke-linejoin:miter;stroke-opacity:1"/>
<path d="M 34.6,172.8 L 33.0,172.6 L 33.2,170.8" style="fill:none;stroke:#000000;stroke-width:2.0px;stroke-linecap:butt;stroke-linejoin:miter;stroke-miterlimit:10;stroke-opacity:1;"/>
<path d="M 13.7,109.8 L 12.5,108.5 L 13.0,107.1" style="fill:none;stroke:#000000;stroke-width:2.0px;stroke-linecap:butt;stroke-linejoin:miter;stroke-miterlimit:10;stroke-opacity:1;"/>
<path d="M 70.6,139.2 L 72.4,139.3 L 72.3,140.8" style="fill:none;stroke:#000000;stroke-width:2.0px;stroke-linecap:butt;stroke-linejoin:miter;stroke-miterlimit:10;stroke-opacity:1;"/>
<path d="M 132.8,127.5 L 134.5,128.1 L 135.7,127.1" style="fill:none;stroke:#000000;stroke-width:2.0px;stroke-linecap:butt;stroke-linejoin:miter;stroke-miterlimit:10;stroke-opacity:1;"/>
<path d="M 229.5,128.6 L 231.0,129.2 L 231.3,130.9" style="fill:none;stroke:#000000;stroke-width:2.0px;stroke-linecap:butt;stroke-linejoin:miter;stroke-miterlimit:10;stroke-opacity:1;"/>
<path class="atom-0" d="M 64.6 175.7 Q 64.6 173.2, 65.9 171.8 Q 67.1 170.4, 69.4 170.4 Q 71.7 170.4, 72.9 171.8 Q 74.1 173.2, 74.1 175.7 Q 74.1 178.2, 72.9 179.6 Q 71.6 181.0, 69.4 181.0 Q 67.1 181.0, 65.9 179.6 Q 64.6 178.2, 64.6 175.7 M 69.4 179.9 Q 71.0 179.9, 71.8 178.8 Q 72.7 177.7, 72.7 175.7 Q 72.7 173.6, 71.8 172.6 Q 71.0 171.6, 69.4 171.6 Q 67.8 171.6, 66.9 172.6 Q 66.1 173.6, 66.1 175.7 Q 66.1 177.8, 66.9 178.8 Q 67.8 179.9, 69.4 179.9 " fill="#000000"/>
<path class="atom-0" d="M 75.7 172.3 L 77.5 172.3 L 77.5 170.3 L 78.3 170.3 L 78.3 172.3 L 80.2 172.3 L 80.2 173.0 L 78.3 173.0 L 78.3 174.9 L 77.5 174.9 L 77.5 173.0 L 75.7 173.0 L 75.7 172.3 " fill="#000000"/>
<path class="atom-4" d="M 21.9 77.7 Q 22.0 77.7, 22.5 77.9 Q 23.0 78.1, 23.5 78.3 Q 24.0 78.4, 24.6 78.4 Q 25.6 78.4, 26.1 77.9 Q 26.7 77.4, 26.7 76.6 Q 26.7 76.0, 26.4 75.7 Q 26.1 75.3, 25.7 75.2 Q 25.2 75.0, 24.5 74.8 Q 23.6 74.5, 23.0 74.2 Q 22.5 73.9, 22.1 73.4 Q 21.7 72.8, 21.7 71.9 Q 21.7 70.6, 22.6 69.8 Q 23.5 69.0, 25.2 69.0 Q 26.4 69.0, 27.8 69.6 L 27.5 70.7 Q 26.2 70.2, 25.3 70.2 Q 24.3 70.2, 23.7 70.6 Q 23.2 71.0, 23.2 71.7 Q 23.2 72.3, 23.5 72.6 Q 23.8 73.0, 24.2 73.1 Q 24.6 73.3, 25.3 73.6 Q 26.2 73.8, 26.8 74.1 Q 27.3 74.4, 27.7 75.0 Q 28.1 75.6, 28.1 76.6 Q 28.1 78.0, 27.2 78.8 Q 26.2 79.6, 24.6 79.6 Q 23.7 79.6, 23.0 79.4 Q 22.3 79.2, 21.5 78.8 L 21.9 77.7 " fill="#000000"/>
<path class="atom-4" d="M 29.6 69.0 L 31.0 69.0 L 31.0 73.4 L 36.2 73.4 L 36.2 69.0 L 37.6 69.0 L 37.6 79.3 L 36.2 79.3 L 36.2 74.5 L 31.0 74.5 L 31.0 79.3 L 29.6 79.3 L 29.6 69.0 " fill="#000000"/>
<path class="atom-8" d="M 160.1 99.3 L 163.5 104.8 Q 163.8 105.4, 164.4 106.3 Q 164.9 107.3, 164.9 107.4 L 164.9 99.3 L 166.3 99.3 L 166.3 109.7 L 164.9 109.7 L 161.2 103.7 Q 160.8 103.0, 160.4 102.2 Q 159.9 101.4, 159.8 101.1 L 159.8 109.7 L 158.5 109.7 L 158.5 99.3 L 160.1 99.3 " fill="#000000"/>
<path class="atom-8" d="M 158.3 88.0 L 159.7 88.0 L 159.7 92.4 L 165.0 92.4 L 165.0 88.0 L 166.4 88.0 L 166.4 98.3 L 165.0 98.3 L 165.0 93.5 L 159.7 93.5 L 159.7 98.3 L 158.3 98.3 L 158.3 88.0 " fill="#000000"/>
<path class="atom-9" d="M 193.8 120.4 Q 193.9 120.4, 194.4 120.6 Q 194.9 120.8, 195.4 121.0 Q 195.9 121.1, 196.4 121.1 Q 197.4 121.1, 198.0 120.6 Q 198.6 120.1, 198.6 119.3 Q 198.6 118.7, 198.3 118.4 Q 198.0 118.0, 197.6 117.8 Q 197.1 117.6, 196.4 117.4 Q 195.5 117.2, 194.9 116.9 Q 194.4 116.6, 194.0 116.1 Q 193.6 115.5, 193.6 114.6 Q 193.6 113.3, 194.5 112.5 Q 195.4 111.7, 197.1 111.7 Q 198.3 111.7, 199.7 112.3 L 199.3 113.4 Q 198.1 112.9, 197.2 112.9 Q 196.2 112.9, 195.6 113.3 Q 195.0 113.7, 195.1 114.4 Q 195.1 115.0, 195.3 115.3 Q 195.6 115.6, 196.0 115.8 Q 196.5 116.0, 197.2 116.2 Q 198.1 116.5, 198.6 116.8 Q 199.2 117.1, 199.6 117.7 Q 200.0 118.3, 200.0 119.3 Q 200.0 120.7, 199.0 121.5 Q 198.1 122.3, 196.5 122.3 Q 195.6 122.3, 194.9 122.1 Q 194.2 121.9, 193.4 121.5 L 193.8 120.4 " fill="#000000"/>
<path class="atom-10" d="M 179.6 151.2 Q 179.6 148.7, 180.9 147.3 Q 182.1 145.9, 184.4 145.9 Q 186.7 145.9, 187.9 147.3 Q 189.1 148.7, 189.1 151.2 Q 189.1 153.7, 187.9 155.1 Q 186.6 156.5, 184.4 156.5 Q 182.1 156.5, 180.9 155.1 Q 179.6 153.7, 179.6 151.2 M 184.4 155.4 Q 185.9 155.4, 186.8 154.3 Q 187.7 153.2, 187.7 151.2 Q 187.7 149.1, 186.8 148.1 Q 185.9 147.1, 184.4 147.1 Q 182.8 147.1, 181.9 148.1 Q 181.1 149.1, 181.1 151.2 Q 181.1 153.3, 181.9 154.3 Q 182.8 155.4, 184.4 155.4 " fill="#000000"/>
<path class="atom-11" d="M 204.3 82.5 Q 204.3 80.1, 205.5 78.7 Q 206.7 77.3, 209.0 77.3 Q 211.3 77.3, 212.5 78.7 Q 213.8 80.1, 213.8 82.5 Q 213.8 85.0, 212.5 86.5 Q 211.3 87.9, 209.0 87.9 Q 206.7 87.9, 205.5 86.5 Q 204.3 85.1, 204.3 82.5 M 209.0 86.7 Q 210.6 86.7, 211.4 85.7 Q 212.3 84.6, 212.3 82.5 Q 212.3 80.5, 211.4 79.5 Q 210.6 78.5, 209.0 78.5 Q 207.4 78.5, 206.6 79.5 Q 205.7 80.5, 205.7 82.5 Q 205.7 84.6, 206.6 85.7 Q 207.4 86.7, 209.0 86.7 " fill="#000000"/>
<path class="atom-0" d="M 83.1,175.6 L 83.1,175.7 L 83.1,175.8 L 83.1,175.8 L 83.0,175.9 L 83.0,175.9 L 83.0,176.0 L 82.9,176.1 L 82.9,176.1 L 82.9,176.2 L 82.8,176.2 L 82.8,176.2 L 82.7,176.3 L 82.7,176.3 L 82.6,176.3 L 82.5,176.3 L 82.5,176.4 L 82.4,176.4 L 82.4,176.4 L 82.3,176.4 L 82.2,176.4 L 82.2,176.4 L 82.1,176.3 L 82.1,176.3 L 82.0,176.3 L 81.9,176.3 L 81.9,176.2 L 81.8,176.2 L 81.8,176.1 L 81.8,176.1 L 81.7,176.0 L 81.7,176.0 L 81.7,175.9 L 81.6,175.9 L 81.6,175.8 L 81.6,175.7 L 81.6,175.7 L 81.6,175.6 L 81.6,175.5 L 81.6,175.5 L 81.6,175.4 L 81.7,175.4 L 81.7,175.3 L 81.7,175.3 L 81.8,175.2 L 81.8,175.2 L 81.8,175.1 L 81.9,175.1 L 81.9,175.0 L 82.0,175.0 L 82.1,175.0 L 82.1,175.0 L 82.2,174.9 L 82.2,174.9 L 82.3,174.9 L 82.4,174.9 L 82.4,174.9 L 82.5,174.9 L 82.5,174.9 L 82.6,175.0 L 82.7,175.0 L 82.7,175.0 L 82.8,175.1 L 82.8,175.1 L 82.9,175.1 L 82.9,175.2 L 82.9,175.2 L 83.0,175.3 L 83.0,175.3 L 83.0,175.4 L 83.1,175.5 L 83.1,175.5 L 83.1,175.6 L 83.1,175.6 L 82.3,175.6 Z" style="fill:#000000;fill-rule:evenodd;fill-opacity:1;stroke:#000000;stroke-width:0.0px;stroke-linecap:butt;stroke-linejoin:miter;stroke-miterlimit:10;stroke-opacity:1;"/>
<path class="bond-0 atom-0 atom-1" d="M 326.4,208.6 L 334.4,194.7" style="fill:none;fill-rule:evenodd;stroke:#000000;stroke-width:2.0px;stroke-linecap:butt;stroke-linejoin:miter;stroke-opacity:1"/>
<path class="bond-1 atom-1 atom-2" d="M 336.1,194.7 L 327.6,180.2" style="fill:none;fill-rule:evenodd;stroke:#000000;stroke-width:2.0px;stroke-linecap:butt;stroke-linejoin:miter;stroke-opacity:1"/>
<path class="bond-1 atom-1 atom-2" d="M 333.5,196.2 L 325.0,181.7" style="fill:none;fill-rule:evenodd;stroke:#000000;stroke-width:2.0px;stroke-linecap:butt;stroke-linejoin:miter;stroke-opacity:1"/>
<path class="bond-2 atom-1 atom-3" d="M 334.4,194.7 L 354.5,194.6" style="fill:none;fill-rule:evenodd;stroke:#000000;stroke-width:2.0px;stroke-linecap:butt;stroke-linejoin:miter;stroke-opacity:1"/>
<path class="bond-3 atom-3 atom-4" d="M 354.5,194.6 L 364.5,177.1" style="fill:none;fill-rule:evenodd;stroke:#000000;stroke-width:2.0px;stroke-linecap:butt;stroke-linejoin:miter;stroke-opacity:1"/>
<path class="bond-4 atom-4 atom-5" d="M 364.5,177.1 L 384.7,177.1" style="fill:none;fill-rule:evenodd;stroke:#000000;stroke-width:2.0px;stroke-linecap:butt;stroke-linejoin:miter;stroke-opacity:1"/>
<path class="bond-5 atom-6 atom-5" d="M 392.8,162.3 L 393.3,162.6" style="fill:none;fill-rule:evenodd;stroke:#000000;stroke-width:1.0px;stroke-linecap:butt;stroke-linejoin:miter;stroke-opacity:1"/>
<path class="bond-5 atom-6 atom-5" d="M 390.8,165.1 L 391.9,165.7" style="fill:none;fill-rule:evenodd;stroke:#000000;stroke-width:1.0px;stroke-linecap:butt;stroke-linejoin:miter;stroke-opacity:1"/>
<path class="bond-5 atom-6 atom-5" d="M 388.9,167.8 L 390.5,168.7" style="fill:none;fill-rule:evenodd;stroke:#000000;stroke-width:1.0px;stroke-linecap:butt;stroke-linejoin:miter;stroke-opacity:1"/>
<path class="bond-5 atom-6 atom-5" d="M 387.0,170.6 L 389.1,171.8" style="fill:none;fill-rule:evenodd;stroke:#000000;stroke-width:1.0px;stroke-linecap:butt;stroke-linejoin:miter;stroke-opacity:1"/>
<path class="bond-5 atom-6 atom-5" d="M 385.1,173.4 L 387.7,174.9" style="fill:none;fill-rule:evenodd;stroke:#000000;stroke-width:1.0px;stroke-linecap:butt;stroke-linejoin:miter;stroke-opacity:1"/>
<path class="bond-6 atom-6 atom-7" d="M 394.7,159.6 L 414.9,159.5" style="fill:none;fill-rule:evenodd;stroke:#000000;stroke-width:2.0px;stroke-linecap:butt;stroke-linejoin:miter;stroke-opacity:1"/>
<path class="bond-7 atom-7 atom-8" d="M 414.9,159.5 L 424.9,142.0" style="fill:none;fill-rule:evenodd;stroke:#000000;stroke-width:2.0px;stroke-linecap:butt;stroke-linejoin:miter;stroke-opacity:1"/>
<path class="bond-7 atom-7 atom-8" d="M 413.1,156.5 L 422.2,140.5" style="fill:none;fill-rule:evenodd;stroke:#000000;stroke-width:2.0px;stroke-linecap:butt;stroke-linejoin:miter;stroke-opacity:1"/>
<path class="bond-8 atom-8 atom-9" d="M 424.9,142.0 L 445.0,141.9" style="fill:none;fill-rule:evenodd;stroke:#000000;stroke-width:2.0px;stroke-linecap:butt;stroke-linejoin:miter;stroke-opacity:1"/>
<path class="bond-9 atom-9 atom-10" d="M 445.0,141.9 L 455.0,124.4" style="fill:none;fill-rule:evenodd;stroke:#000000;stroke-width:2.0px;stroke-linecap:butt;stroke-linejoin:miter;stroke-opacity:1"/>
<path class="bond-9 atom-9 atom-10" d="M 448.5,141.9 L 456.8,127.5" style="fill:none;fill-rule:evenodd;stroke:#000000;stroke-width:2.0px;stroke-linecap:butt;stroke-linejoin:miter;stroke-opacity:1"/>
<path class="bond-10 atom-10 atom-11" d="M 455.0,124.4 L 446.9,110.5" style="fill:none;fill-rule:evenodd;stroke:#000000;stroke-width:2.0px;stroke-linecap:butt;stroke-linejoin:miter;stroke-opacity:1"/>
<path class="bond-11 atom-11 atom-12" d="M 446.9,103.5 L 454.9,89.5" style="fill:none;fill-rule:evenodd;stroke:#000000;stroke-width:2.0px;stroke-linecap:butt;stroke-linejoin:miter;stroke-opacity:1"/>
<path class="bond-12 atom-12 atom-13" d="M 454.9,89.5 L 448.2,74.7" style="fill:none;fill-rule:evenodd;stroke:#000000;stroke-width:2.0px;stroke-linecap:butt;stroke-linejoin:miter;stroke-opacity:1"/>
<path class="bond-12 atom-12 atom-13" d="M 456.8,86.3 L 451.0,73.4" style="fill:none;fill-rule:evenodd;stroke:#000000;stroke-width:2.0px;stroke-linecap:butt;stroke-linejoin:miter;stroke-opacity:1"/>
<path class="bond-13 atom-13 atom-14" d="M 449.5,68.6 L 461.6,57.6" style="fill:none;fill-rule:evenodd;stroke:#000000;stroke-width:2.0px;stroke-linecap:butt;stroke-linejoin:miter;stroke-opacity:1"/>
<path class="bond-14 atom-14 atom-15" d="M 461.6,57.6 L 476.2,66.0" style="fill:none;fill-rule:evenodd;stroke:#000000;stroke-width:2.0px;stroke-linecap:butt;stroke-linejoin:miter;stroke-opacity:1"/>
<path class="bond-14 atom-14 atom-15" d="M 462.0,61.3 L 474.7,68.6" style="fill:none;fill-rule:evenodd;stroke:#000000;stroke-width:2.0px;stroke-linecap:butt;stroke-linejoin:miter;stroke-opacity:1"/>
<path class="bond-15 atom-15 atom-16" d="M 478.3,71.1 L 475.7,83.8" style="fill:none;fill-rule:evenodd;stroke:#000000;stroke-width:2.0px;stroke-linecap:butt;stroke-linejoin:miter;stroke-opacity:1"/>
<path class="bond-16 atom-10 atom-17" d="M 455.0,124.4 L 475.2,124.4" style="fill:none;fill-rule:evenodd;stroke:#000000;stroke-width:2.0px;stroke-linecap:butt;stroke-linejoin:miter;stroke-opacity:1"/>
<path class="bond-17 atom-17 atom-18" d="M 475.2,124.4 L 483.3,138.3" style="fill:none;fill-rule:evenodd;stroke:#000000;stroke-width:2.0px;stroke-linecap:butt;stroke-linejoin:miter;stroke-opacity:1"/>
<path class="bond-17 atom-17 atom-18" d="M 473.5,127.4 L 480.7,139.8" style="fill:none;fill-rule:evenodd;stroke:#000000;stroke-width:2.0px;stroke-linecap:butt;stroke-linejoin:miter;stroke-opacity:1"/>
<path class="bond-18 atom-18 atom-19" d="M 483.3,145.3 L 475.3,159.3" style="fill:none;fill-rule:evenodd;stroke:#000000;stroke-width:2.0px;stroke-linecap:butt;stroke-linejoin:miter;stroke-opacity:1"/>
<path class="bond-19 atom-19 atom-20" d="M 475.3,159.3 L 458.0,159.3" style="fill:none;fill-rule:evenodd;stroke:#000000;stroke-width:2.0px;stroke-linecap:butt;stroke-linejoin:miter;stroke-opacity:1"/>
<path class="bond-19 atom-19 atom-20" d="M 473.6,156.3 L 458.0,156.3" style="fill:none;fill-rule:evenodd;stroke:#000000;stroke-width:2.0px;stroke-linecap:butt;stroke-linejoin:miter;stroke-opacity:1"/>
<path class="bond-20 atom-6 atom-21" d="M 394.7,159.6 L 384.6,142.1" style="fill:none;fill-rule:evenodd;stroke:#000000;stroke-width:2.0px;stroke-linecap:butt;stroke-linejoin:miter;stroke-opacity:1"/>
<path class="bond-21 atom-21 atom-22" d="M 384.6,142.1 L 364.4,142.2" style="fill:none;fill-rule:evenodd;stroke:#000000;stroke-width:2.0px;stroke-linecap:butt;stroke-linejoin:miter;stroke-opacity:1"/>
<path class="bond-22 atom-22 atom-23" d="M 364.4,142.2 L 354.3,124.8" style="fill:none;fill-rule:evenodd;stroke:#000000;stroke-width:2.0px;stroke-linecap:butt;stroke-linejoin:miter;stroke-opacity:1"/>
<path class="bond-22 atom-22 atom-23" d="M 366.1,139.2 L 356.9,123.3" style="fill:none;fill-rule:evenodd;stroke:#000000;stroke-width:2.0px;stroke-linecap:butt;stroke-linejoin:miter;stroke-opacity:1"/>
<path class="bond-23 atom-23 atom-24" d="M 354.3,124.8 L 334.1,124.9" style="fill:none;fill-rule:evenodd;stroke:#000000;stroke-width:2.0px;stroke-linecap:butt;stroke-linejoin:miter;stroke-opacity:1"/>
<path class="bond-24 atom-24 atom-25" d="M 334.1,124.9 L 325.3,140.3" style="fill:none;fill-rule:evenodd;stroke:#000000;stroke-width:2.0px;stroke-linecap:butt;stroke-linejoin:miter;stroke-opacity:1"/>
<path class="bond-25 atom-24 atom-26" d="M 334.1,124.9 L 324.0,107.5" style="fill:none;fill-rule:evenodd;stroke:#000000;stroke-width:2.0px;stroke-linecap:butt;stroke-linejoin:miter;stroke-opacity:1"/>
<path class="bond-25 atom-24 atom-26" d="M 330.6,124.9 L 322.2,110.5" style="fill:none;fill-rule:evenodd;stroke:#000000;stroke-width:2.0px;stroke-linecap:butt;stroke-linejoin:miter;stroke-opacity:1"/>
<path class="bond-26 atom-26 atom-27" d="M 324.0,107.5 L 306.6,107.5" style="fill:none;fill-rule:evenodd;stroke:#000000;stroke-width:2.0px;stroke-linecap:butt;stroke-linejoin:miter;stroke-opacity:1"/>
<path class="bond-27 atom-27 atom-28" d="M 301.8,104.0 L 293.7,90.1" style="fill:none;fill-rule:evenodd;stroke:#000000;stroke-width:2.0px;stroke-linecap:butt;stroke-linejoin:miter;stroke-opacity:1"/>
<path class="bond-28 atom-28 atom-29" d="M 293.7,90.1 L 276.3,90.2" style="fill:none;fill-rule:evenodd;stroke:#000000;stroke-width:2.0px;stroke-linecap:butt;stroke-linejoin:miter;stroke-opacity:1"/>
<path class="bond-29 atom-28 atom-30" d="M 293.7,90.1 L 301.7,76.1" style="fill:none;fill-rule:evenodd;stroke:#000000;stroke-width:2.0px;stroke-linecap:butt;stroke-linejoin:miter;stroke-opacity:1"/>
<path class="bond-29 atom-28 atom-30" d="M 291.0,88.6 L 299.0,74.6" style="fill:none;fill-rule:evenodd;stroke:#000000;stroke-width:2.0px;stroke-linecap:butt;stroke-linejoin:miter;stroke-opacity:1"/>
<path class="bond-30 atom-30 atom-31" d="M 301.6,69.1 L 295.6,58.7" style="fill:none;fill-rule:evenodd;stroke:#000000;stroke-width:2.0px;stroke-linecap:butt;stroke-linejoin:miter;stroke-opacity:1"/>
<path class="bond-31 atom-31 atom-32" d="M 296.9,52.4 L 302.8,42.1" style="fill:none;fill-rule:evenodd;stroke:#000000;stroke-width:2.0px;stroke-linecap:butt;stroke-linejoin:miter;stroke-opacity:1"/>
<path class="bond-31 atom-31 atom-32" d="M 294.2,50.9 L 300.2,40.6" style="fill:none;fill-rule:evenodd;stroke:#000000;stroke-width:2.0px;stroke-linecap:butt;stroke-linejoin:miter;stroke-opacity:1"/>
<path class="bond-32 atom-20 atom-9" d="M 453.1,155.8 L 445.0,141.9" style="fill:none;fill-rule:evenodd;stroke:#000000;stroke-width:2.0px;stroke-linecap:butt;stroke-linejoin:miter;stroke-opacity:1"/>
<path class="bond-33 atom-16 atom-12" d="M 472.1,87.7 L 454.9,89.5" style="fill:none;fill-rule:evenodd;stroke:#000000;stroke-width:2.0px;stroke-linecap:butt;stroke-linejoin:miter;stroke-opacity:1"/>
<path d="M 334.0,195.4 L 334.4,194.7 L 335.4,194.7" style="fill:none;stroke:#000000;stroke-width:2.0px;stroke-linecap:butt;stroke-linejoin:miter;stroke-miterlimit:10;stroke-opacity:1;"/>
<path d="M 353.5,194.6 L 354.5,194.6 L 355.0,193.7" style="fill:none;stroke:#000000;stroke-width:2.0px;stroke-linecap:butt;stroke-linejoin:miter;stroke-miterlimit:10;stroke-opacity:1;"/>
<path d="M 364.0,178.0 L 364.5,177.1 L 365.5,177.1" style="fill:none;stroke:#000000;stroke-width:2.0px;stroke-linecap:butt;stroke-linejoin:miter;stroke-miterlimit:10;stroke-opacity:1;"/>
<path d="M 395.7,159.6 L 394.7,159.6 L 394.2,158.7" style="fill:none;stroke:#000000;stroke-width:2.0px;stroke-linecap:butt;stroke-linejoin:miter;stroke-miterlimit:10;stroke-opacity:1;"/>
<path d="M 413.8,159.5 L 414.9,159.5 L 415.4,158.6" style="fill:none;stroke:#000000;stroke-width:2.0px;stroke-linecap:butt;stroke-linejoin:miter;stroke-miterlimit:10;stroke-opacity:1;"/>
<path d="M 424.4,142.9 L 424.9,142.0 L 425.9,142.0" style="fill:none;stroke:#000000;stroke-width:2.0px;stroke-linecap:butt;stroke-linejoin:miter;stroke-miterlimit:10;stroke-opacity:1;"/>
<path d="M 461.0,58.1 L 461.6,57.6 L 462.3,58.0" style="fill:none;stroke:#000000;stroke-width:2.0px;stroke-linecap:butt;stroke-linejoin:miter;stroke-miterlimit:10;stroke-opacity:1;"/>
<path d="M 474.2,124.4 L 475.2,124.4 L 475.6,125.1" style="fill:none;stroke:#000000;stroke-width:2.0px;stroke-linecap:butt;stroke-linejoin:miter;stroke-miterlimit:10;stroke-opacity:1;"/>
<path d="M 475.7,158.6 L 475.3,159.3 L 474.5,159.3" style="fill:none;stroke:#000000;stroke-width:2.0px;stroke-linecap:butt;stroke-linejoin:miter;stroke-miterlimit:10;stroke-opacity:1;"/>
<path d="M 385.1,143.0 L 384.6,142.1 L 383.6,142.1" style="fill:none;stroke:#000000;stroke-width:2.0px;stroke-linecap:butt;stroke-linejoin:miter;stroke-miterlimit:10;stroke-opacity:1;"/>
<path d="M 365.4,142.2 L 364.4,142.2 L 363.9,141.3" style="fill:none;stroke:#000000;stroke-width:2.0px;stroke-linecap:butt;stroke-linejoin:miter;stroke-miterlimit:10;stroke-opacity:1;"/>
<path d="M 354.8,125.7 L 354.3,124.8 L 353.3,124.8" style="fill:none;stroke:#000000;stroke-width:2.0px;stroke-linecap:butt;stroke-linejoin:miter;stroke-miterlimit:10;stroke-opacity:1;"/>
<path d="M 324.5,108.3 L 324.0,107.5 L 323.1,107.5" style="fill:none;stroke:#000000;stroke-width:2.0px;stroke-linecap:butt;stroke-linejoin:miter;stroke-miterlimit:10;stroke-opacity:1;"/>
<path class="atom-0" d="M 322.1 212.2 Q 322.1 210.8, 322.8 210.0 Q 323.5 209.3, 324.7 209.3 Q 325.9 209.3, 326.5 210.1 L 326.0 210.6 Q 325.6 210.0, 324.7 210.0 Q 323.9 210.0, 323.4 210.5 Q 323.0 211.1, 323.0 212.2 Q 323.0 213.3, 323.4 213.9 Q 323.9 214.5, 324.8 214.5 Q 325.5 214.5, 326.2 214.1 L 326.4 214.7 Q 326.1 214.9, 325.7 215.0 Q 325.2 215.1, 324.7 215.1 Q 323.5 215.1, 322.8 214.4 Q 322.1 213.6, 322.1 212.2 " fill="#000000"/>
<path class="atom-0" d="M 327.2 210.2 L 329.2 210.2 L 329.2 210.7 L 327.2 210.7 L 327.2 210.2 " fill="#000000"/>
<path class="atom-2" d="M 321.6 177.3 Q 321.6 175.9, 322.3 175.2 Q 323.0 174.4, 324.2 174.4 Q 325.5 174.4, 326.2 175.2 Q 326.8 175.9, 326.8 177.3 Q 326.8 178.7, 326.2 179.5 Q 325.5 180.2, 324.2 180.2 Q 323.0 180.2, 322.3 179.5 Q 321.6 178.7, 321.6 177.3 M 324.2 179.6 Q 325.1 179.6, 325.6 179.0 Q 326.0 178.4, 326.0 177.3 Q 326.0 176.2, 325.6 175.6 Q 325.1 175.0, 324.2 175.0 Q 323.3 175.0, 322.9 175.6 Q 322.4 176.2, 322.4 177.3 Q 322.4 178.4, 322.9 179.0 Q 323.3 179.6, 324.2 179.6 " fill="#000000"/>
<path class="atom-11" d="M 437.1 104.2 L 437.9 104.2 L 437.9 106.6 L 440.8 106.6 L 440.8 104.2 L 441.6 104.2 L 441.6 109.9 L 440.8 109.9 L 440.8 107.2 L 437.9 107.2 L 437.9 109.9 L 437.1 109.9 L 437.1 104.2 " fill="#000000"/>
<path class="atom-11" d="M 443.6 104.2 L 445.5 107.2 Q 445.7 107.5, 446.0 108.0 Q 446.3 108.6, 446.3 108.6 L 446.3 104.2 L 447.1 104.2 L 447.1 109.9 L 446.3 109.9 L 444.3 106.6 Q 444.0 106.2, 443.8 105.7 Q 443.5 105.3, 443.5 105.2 L 443.5 109.9 L 442.7 109.9 L 442.7 104.2 L 443.6 104.2 " fill="#000000"/>
<path class="atom-13" d="M 445.4 68.3 L 447.3 71.3 Q 447.4 71.6, 447.7 72.1 Q 448.0 72.7, 448.1 72.7 L 448.1 68.3 L 448.8 68.3 L 448.8 74.0 L 448.0 74.0 L 446.0 70.7 Q 445.8 70.3, 445.5 69.9 Q 445.3 69.4, 445.2 69.3 L 445.2 74.0 L 444.5 74.0 L 444.5 68.3 L 445.4 68.3 " fill="#000000"/>
<path class="atom-15" d="M 477.8 64.8 L 479.7 67.8 Q 479.9 68.1, 480.2 68.6 Q 480.5 69.2, 480.5 69.2 L 480.5 64.8 L 481.2 64.8 L 481.2 70.5 L 480.5 70.5 L 478.4 67.2 Q 478.2 66.8, 478.0 66.3 Q 477.7 65.9, 477.6 65.8 L 477.6 70.5 L 476.9 70.5 L 476.9 64.8 L 477.8 64.8 " fill="#000000"/>
<path class="atom-16" d="M 473.7 84.5 L 475.6 87.5 Q 475.7 87.8, 476.0 88.4 Q 476.3 88.9, 476.4 88.9 L 476.4 84.5 L 477.1 84.5 L 477.1 90.2 L 476.3 90.2 L 474.3 86.9 Q 474.1 86.5, 473.8 86.1 Q 473.6 85.6, 473.5 85.5 L 473.5 90.2 L 472.8 90.2 L 472.8 84.5 L 473.7 84.5 " fill="#000000"/>
<path class="atom-16" d="M 478.2 84.5 L 479.0 84.5 L 479.0 86.9 L 481.9 86.9 L 481.9 84.5 L 482.7 84.5 L 482.7 90.2 L 481.9 90.2 L 481.9 87.6 L 479.0 87.6 L 479.0 90.2 L 478.2 90.2 L 478.2 84.5 " fill="#000000"/>
<path class="atom-18" d="M 484.1 138.9 L 485.9 141.9 Q 486.1 142.2, 486.4 142.8 Q 486.7 143.3, 486.7 143.4 L 486.7 138.9 L 487.5 138.9 L 487.5 144.6 L 486.7 144.6 L 484.7 141.3 Q 484.5 140.9, 484.2 140.5 Q 484.0 140.1, 483.9 139.9 L 483.9 144.6 L 483.2 144.6 L 483.2 138.9 L 484.1 138.9 " fill="#000000"/>
<path class="atom-20" d="M 453.9 156.5 L 455.8 159.5 Q 456.0 159.8, 456.3 160.4 Q 456.6 160.9, 456.6 160.9 L 456.6 156.5 L 457.3 156.5 L 457.3 162.2 L 456.5 162.2 L 454.5 158.9 Q 454.3 158.5, 454.1 158.1 Q 453.8 157.6, 453.7 157.5 L 453.7 162.2 L 453.0 162.2 L 453.0 156.5 L 453.9 156.5 " fill="#000000"/>
<path class="atom-25" d="M 321.1 142.2 Q 321.7 142.4, 321.9 142.7 Q 322.2 143.0, 322.2 143.5 Q 322.2 144.3, 321.7 144.8 Q 321.2 145.2, 320.3 145.2 L 318.3 145.2 L 318.3 139.5 L 320.0 139.5 Q 321.0 139.5, 321.5 139.9 Q 322.0 140.3, 322.0 141.0 Q 322.0 141.9, 321.1 142.2 M 319.1 140.2 L 319.1 141.9 L 320.0 141.9 Q 320.6 141.9, 320.9 141.7 Q 321.2 141.5, 321.2 141.0 Q 321.2 140.2, 320.0 140.2 L 319.1 140.2 M 320.3 144.6 Q 320.8 144.6, 321.1 144.3 Q 321.4 144.0, 321.4 143.5 Q 321.4 143.1, 321.1 142.8 Q 320.8 142.6, 320.1 142.6 L 319.1 142.6 L 319.1 144.6 L 320.3 144.6 " fill="#000000"/>
<path class="atom-25" d="M 323.5 141.1 L 323.6 141.6 Q 324.0 141.0, 324.8 141.0 Q 325.0 141.0, 325.3 141.1 L 325.2 141.8 Q 324.8 141.7, 324.6 141.7 Q 324.3 141.7, 324.1 141.8 Q 323.8 141.9, 323.7 142.3 L 323.7 145.2 L 322.9 145.2 L 322.9 141.1 L 323.5 141.1 " fill="#000000"/>
<path class="atom-27" d="M 296.1 104.7 L 296.8 104.7 L 296.8 107.1 L 299.7 107.1 L 299.7 104.7 L 300.5 104.7 L 300.5 110.4 L 299.7 110.4 L 299.7 107.7 L 296.8 107.7 L 296.8 110.4 L 296.1 110.4 L 296.1 104.7 " fill="#000000"/>
<path class="atom-27" d="M 302.6 104.7 L 304.4 107.7 Q 304.6 108.0, 304.9 108.5 Q 305.2 109.1, 305.2 109.1 L 305.2 104.7 L 306.0 104.7 L 306.0 110.4 L 305.2 110.4 L 303.2 107.1 Q 303.0 106.7, 302.7 106.2 Q 302.5 105.8, 302.4 105.7 L 302.4 110.4 L 301.6 110.4 L 301.6 104.7 L 302.6 104.7 " fill="#000000"/>
<path class="atom-29" d="M 262.5 87.3 L 263.3 87.3 L 263.3 89.8 L 266.2 89.8 L 266.2 87.3 L 267.0 87.3 L 267.0 93.0 L 266.2 93.0 L 266.2 90.4 L 263.3 90.4 L 263.3 93.0 L 262.5 93.0 L 262.5 87.3 " fill="#000000"/>
<path class="atom-29" d="M 268.1 92.8 Q 268.2 92.5, 268.6 92.3 Q 268.9 92.1, 269.3 92.1 Q 269.9 92.1, 270.2 92.4 Q 270.5 92.7, 270.5 93.2 Q 270.5 93.8, 270.1 94.3 Q 269.7 94.8, 268.9 95.5 L 270.6 95.5 L 270.6 95.9 L 268.1 95.9 L 268.1 95.5 Q 268.8 95.0, 269.2 94.7 Q 269.6 94.3, 269.8 94.0 Q 270.0 93.6, 270.0 93.3 Q 270.0 92.9, 269.8 92.7 Q 269.7 92.5, 269.3 92.5 Q 269.0 92.5, 268.8 92.6 Q 268.6 92.7, 268.5 93.0 L 268.1 92.8 " fill="#000000"/>
<path class="atom-29" d="M 272.3 87.3 L 274.1 90.3 Q 274.3 90.6, 274.6 91.2 Q 274.9 91.7, 274.9 91.8 L 274.9 87.3 L 275.7 87.3 L 275.7 93.0 L 274.9 93.0 L 272.9 89.7 Q 272.7 89.3, 272.4 88.9 Q 272.2 88.5, 272.1 88.3 L 272.1 93.0 L 271.4 93.0 L 271.4 87.3 L 272.3 87.3 " fill="#000000"/>
<path class="atom-30" d="M 302.4 69.8 L 304.3 72.8 Q 304.5 73.1, 304.8 73.6 Q 305.1 74.2, 305.1 74.2 L 305.1 69.8 L 305.9 69.8 L 305.9 75.5 L 305.1 75.5 L 303.1 72.2 Q 302.8 71.8, 302.6 71.3 Q 302.3 70.9, 302.3 70.8 L 302.3 75.5 L 301.5 75.5 L 301.5 69.8 L 302.4 69.8 " fill="#000000"/>
<path class="atom-31" d="M 292.3 52.3 L 294.2 55.4 Q 294.3 55.7, 294.6 56.2 Q 294.9 56.7, 295.0 56.8 L 295.0 52.3 L 295.7 52.3 L 295.7 58.1 L 294.9 58.1 L 292.9 54.7 Q 292.7 54.4, 292.4 53.9 Q 292.2 53.5, 292.1 53.3 L 292.1 58.1 L 291.4 58.1 L 291.4 52.3 L 292.3 52.3 " fill="#000000"/>
<path class="atom-31" d="M 296.8 53.4 L 297.8 53.4 L 297.8 52.3 L 298.2 52.3 L 298.2 53.4 L 299.3 53.4 L 299.3 53.8 L 298.2 53.8 L 298.2 54.8 L 297.8 54.8 L 297.8 53.8 L 296.8 53.8 L 296.8 53.4 " fill="#000000"/>
<path class="atom-32" d="M 301.9 39.7 Q 302.0 39.7, 302.3 39.8 Q 302.5 39.9, 302.8 40.0 Q 303.1 40.1, 303.4 40.1 Q 304.0 40.1, 304.3 39.8 Q 304.6 39.5, 304.6 39.1 Q 304.6 38.8, 304.4 38.6 Q 304.3 38.4, 304.0 38.3 Q 303.8 38.2, 303.4 38.0 Q 302.9 37.9, 302.6 37.7 Q 302.3 37.6, 302.1 37.3 Q 301.9 37.0, 301.9 36.5 Q 301.9 35.7, 302.3 35.3 Q 302.8 34.9, 303.8 34.9 Q 304.5 34.9, 305.2 35.2 L 305.0 35.8 Q 304.3 35.5, 303.8 35.5 Q 303.3 35.5, 303.0 35.7 Q 302.6 36.0, 302.7 36.4 Q 302.7 36.7, 302.8 36.9 Q 303.0 37.0, 303.2 37.1 Q 303.4 37.3, 303.8 37.4 Q 304.3 37.5, 304.6 37.7 Q 304.9 37.9, 305.2 38.2 Q 305.4 38.5, 305.4 39.1 Q 305.4 39.9, 304.9 40.3 Q 304.3 40.7, 303.5 40.7 Q 302.9 40.7, 302.6 40.6 Q 302.2 40.5, 301.7 40.3 L 301.9 39.7 " fill="#000000"/>
<path class="atom-31" d="M 290.6,55.2 L 290.6,55.2 L 290.6,55.3 L 290.6,55.3 L 290.6,55.3 L 290.5,55.4 L 290.5,55.4 L 290.5,55.4 L 290.5,55.5 L 290.5,55.5 L 290.4,55.5 L 290.4,55.5 L 290.4,55.5 L 290.3,55.6 L 290.3,55.6 L 290.3,55.6 L 290.2,55.6 L 290.2,55.6 L 290.2,55.6 L 290.1,55.6 L 290.1,55.6 L 290.1,55.6 L 290.0,55.6 L 290.0,55.6 L 290.0,55.6 L 290.0,55.5 L 289.9,55.5 L 289.9,55.5 L 289.9,55.5 L 289.8,55.4 L 289.8,55.4 L 289.8,55.4 L 289.8,55.3 L 289.8,55.3 L 289.8,55.3 L 289.8,55.2 L 289.8,55.2 L 289.8,55.2 L 289.8,55.1 L 289.8,55.1 L 289.8,55.1 L 289.8,55.0 L 289.8,55.0 L 289.8,55.0 L 289.8,55.0 L 289.9,54.9 L 289.9,54.9 L 289.9,54.9 L 290.0,54.9 L 290.0,54.8 L 290.0,54.8 L 290.0,54.8 L 290.1,54.8 L 290.1,54.8 L 290.1,54.8 L 290.2,54.8 L 290.2,54.8 L 290.2,54.8 L 290.3,54.8 L 290.3,54.8 L 290.3,54.8 L 290.4,54.9 L 290.4,54.9 L 290.4,54.9 L 290.5,54.9 L 290.5,54.9 L 290.5,55.0 L 290.5,55.0 L 290.5,55.0 L 290.6,55.1 L 290.6,55.1 L 290.6,55.1 L 290.6,55.2 L 290.6,55.2 L 290.2,55.2 Z" style="fill:#000000;fill-rule:evenodd;fill-opacity:1;stroke:#000000;stroke-width:0.0px;stroke-linecap:butt;stroke-linejoin:miter;stroke-miterlimit:10;stroke-opacity:1;"/>
<path class="bond-0 atom-0 atom-1" d="M 709.9,143.8 L 681.4,113.2" style="fill:none;fill-rule:evenodd;stroke:#000000;stroke-width:2.0px;stroke-linecap:butt;stroke-linejoin:miter;stroke-opacity:1"/>
<path class="bond-1 atom-1 atom-2" d="M 681.4,113.2 L 645.5,74.7" style="fill:none;fill-rule:evenodd;stroke:#000000;stroke-width:2.0px;stroke-linecap:butt;stroke-linejoin:miter;stroke-opacity:1"/>
<path class="bond-1 atom-1 atom-2" d="M 672.5,115.2 L 642.9,83.4" style="fill:none;fill-rule:evenodd;stroke:#000000;stroke-width:2.0px;stroke-linecap:butt;stroke-linejoin:miter;stroke-opacity:1"/>
<path class="bond-2 atom-2 atom-3" d="M 645.5,74.7 L 594.2,86.5" style="fill:none;fill-rule:evenodd;stroke:#000000;stroke-width:2.0px;stroke-linecap:butt;stroke-linejoin:miter;stroke-opacity:1"/>
<path class="bond-3 atom-3 atom-4" d="M 594.2,86.5 L 578.8,136.8" style="fill:none;fill-rule:evenodd;stroke:#000000;stroke-width:2.0px;stroke-linecap:butt;stroke-linejoin:miter;stroke-opacity:1"/>
<path class="bond-3 atom-3 atom-4" d="M 600.4,93.2 L 587.7,134.8" style="fill:none;fill-rule:evenodd;stroke:#000000;stroke-width:2.0px;stroke-linecap:butt;stroke-linejoin:miter;stroke-opacity:1"/>
<path class="bond-4 atom-4 atom-5" d="M 578.8,136.8 L 532.4,147.5" style="fill:none;fill-rule:evenodd;stroke:#000000;stroke-width:2.0px;stroke-linecap:butt;stroke-linejoin:miter;stroke-opacity:1"/>
<path class="bond-5 atom-4 atom-6" d="M 578.8,136.8 L 614.7,175.3" style="fill:none;fill-rule:evenodd;stroke:#000000;stroke-width:2.0px;stroke-linecap:butt;stroke-linejoin:miter;stroke-opacity:1"/>
<path class="bond-6 atom-6 atom-7" d="M 614.7,175.3 L 666.0,163.5" style="fill:none;fill-rule:evenodd;stroke:#000000;stroke-width:2.0px;stroke-linecap:butt;stroke-linejoin:miter;stroke-opacity:1"/>
<path class="bond-6 atom-6 atom-7" d="M 617.4,166.6 L 659.8,156.8" style="fill:none;fill-rule:evenodd;stroke:#000000;stroke-width:2.0px;stroke-linecap:butt;stroke-linejoin:miter;stroke-opacity:1"/>
<path class="bond-7 atom-7 atom-0" d="M 666.0,163.5 L 709.9,153.4" style="fill:none;fill-rule:evenodd;stroke:#000000;stroke-width:2.0px;stroke-linecap:butt;stroke-linejoin:miter;stroke-opacity:1"/>
<path class="bond-8 atom-7 atom-1" d="M 666.0,163.5 L 681.4,113.2" style="fill:none;fill-rule:evenodd;stroke:#000000;stroke-width:2.0px;stroke-linecap:butt;stroke-linejoin:miter;stroke-opacity:1"/>
<path d="M 647.3,76.6 L 645.5,74.7 L 643.0,75.3" style="fill:none;stroke:#000000;stroke-width:2.0px;stroke-linecap:butt;stroke-linejoin:miter;stroke-miterlimit:10;stroke-opacity:1;"/>
<path d="M 596.8,85.9 L 594.2,86.5 L 593.5,89.0" style="fill:none;stroke:#000000;stroke-width:2.0px;stroke-linecap:butt;stroke-linejoin:miter;stroke-miterlimit:10;stroke-opacity:1;"/>
<path d="M 612.9,173.4 L 614.7,175.3 L 617.3,174.7" style="fill:none;stroke:#000000;stroke-width:2.0px;stroke-linecap:butt;stroke-linejoin:miter;stroke-miterlimit:10;stroke-opacity:1;"/>
<path class="atom-0" d="M 714.0 144.2 L 718.9 152.1 Q 719.4 152.9, 720.1 154.3 Q 720.9 155.7, 721.0 155.8 L 721.0 144.2 L 722.9 144.2 L 722.9 159.2 L 720.9 159.2 L 715.7 150.5 Q 715.0 149.5, 714.4 148.4 Q 713.8 147.2, 713.6 146.8 L 713.6 159.2 L 711.6 159.2 L 711.6 144.2 L 714.0 144.2 " fill="#000000"/>
<path class="atom-0" d="M 725.8 144.2 L 727.9 144.2 L 727.9 150.6 L 735.5 150.6 L 735.5 144.2 L 737.5 144.2 L 737.5 159.2 L 735.5 159.2 L 735.5 152.3 L 727.9 152.3 L 727.9 159.2 L 725.8 159.2 L 725.8 144.2 " fill="#000000"/>
<path class="atom-5" d="M 519.7 148.3 Q 521.2 148.7, 521.9 149.5 Q 522.6 150.4, 522.6 151.7 Q 522.6 153.7, 521.3 154.9 Q 520.0 156.1, 517.5 156.1 L 512.5 156.1 L 512.5 141.2 L 516.9 141.2 Q 519.4 141.2, 520.7 142.2 Q 522.0 143.2, 522.0 145.1 Q 522.0 147.4, 519.7 148.3 M 514.5 142.9 L 514.5 147.5 L 516.9 147.5 Q 518.4 147.5, 519.1 146.9 Q 519.9 146.3, 519.9 145.1 Q 519.9 142.9, 516.9 142.9 L 514.5 142.9 M 517.5 154.4 Q 519.0 154.4, 519.7 153.7 Q 520.5 153.0, 520.5 151.7 Q 520.5 150.5, 519.7 149.9 Q 518.8 149.2, 517.2 149.2 L 514.5 149.2 L 514.5 154.4 L 517.5 154.4 " fill="#000000"/>
<path class="atom-5" d="M 526.0 145.3 L 526.2 146.8 Q 527.4 145.1, 529.2 145.1 Q 529.8 145.1, 530.6 145.3 L 530.3 147.1 Q 529.4 146.8, 528.9 146.8 Q 528.0 146.8, 527.4 147.2 Q 526.9 147.5, 526.4 148.4 L 526.4 156.1 L 524.4 156.1 L 524.4 145.3 L 526.0 145.3 " fill="#000000"/>
<path class="bond-0 atom-0 atom-1" d="M 92.1,367.9 L 188.9,367.9" style="fill:none;fill-rule:evenodd;stroke:#000000;stroke-width:2.0px;stroke-linecap:butt;stroke-linejoin:miter;stroke-opacity:1"/>
<path class="atom-0" d="M 22.6 353.8 L 26.4 353.8 L 26.4 365.8 L 40.9 365.8 L 40.9 353.8 L 44.7 353.8 L 44.7 382.1 L 40.9 382.1 L 40.9 369.0 L 26.4 369.0 L 26.4 382.1 L 22.6 382.1 L 22.6 353.8 " fill="#000000"/>
<path class="atom-0" d="M 50.3 381.1 Q 51.0 379.3, 52.6 378.3 Q 54.2 377.3, 56.5 377.3 Q 59.3 377.3, 60.9 378.9 Q 62.5 380.4, 62.5 383.1 Q 62.5 385.9, 60.4 388.5 Q 58.4 391.1, 54.2 394.1 L 62.8 394.1 L 62.8 396.2 L 50.2 396.2 L 50.2 394.5 Q 53.7 392.0, 55.8 390.1 Q 57.9 388.3, 58.9 386.6 Q 59.9 385.0, 59.9 383.3 Q 59.9 381.5, 59.0 380.5 Q 58.1 379.4, 56.5 379.4 Q 55.0 379.4, 54.0 380.1 Q 53.0 380.7, 52.3 382.0 L 50.3 381.1 " fill="#000000"/>
<path class="atom-0" d="M 71.0 353.8 L 80.3 368.8 Q 81.2 370.2, 82.7 372.9 Q 84.1 375.6, 84.2 375.8 L 84.2 353.8 L 88.0 353.8 L 88.0 382.1 L 84.1 382.1 L 74.1 365.7 Q 73.0 363.8, 71.7 361.6 Q 70.5 359.4, 70.2 358.7 L 70.2 382.1 L 66.5 382.1 L 66.5 353.8 L 71.0 353.8 " fill="#000000"/>
<path class="atom-1" d="M 206.7 367.2 Q 209.5 368.0, 210.8 369.6 Q 212.2 371.3, 212.2 373.7 Q 212.2 377.6, 209.7 379.9 Q 207.2 382.1, 202.5 382.1 L 193.0 382.1 L 193.0 353.8 L 201.3 353.8 Q 206.2 353.8, 208.6 355.7 Q 211.1 357.7, 211.1 361.3 Q 211.1 365.6, 206.7 367.2 M 196.8 357.0 L 196.8 365.8 L 201.3 365.8 Q 204.1 365.8, 205.6 364.7 Q 207.1 363.6, 207.1 361.3 Q 207.1 357.0, 201.3 357.0 L 196.8 357.0 M 202.5 378.9 Q 205.3 378.9, 206.7 377.6 Q 208.2 376.2, 208.2 373.7 Q 208.2 371.4, 206.6 370.2 Q 205.0 369.0, 201.9 369.0 L 196.8 369.0 L 196.8 378.9 L 202.5 378.9 " fill="#000000"/>
<path class="atom-1" d="M 218.7 361.5 L 219.1 364.4 Q 221.3 361.2, 224.8 361.2 Q 225.9 361.2, 227.4 361.6 L 226.8 364.9 Q 225.1 364.5, 224.1 364.5 Q 222.5 364.5, 221.3 365.2 Q 220.3 365.8, 219.4 367.4 L 219.4 382.1 L 215.6 382.1 L 215.6 361.5 L 218.7 361.5 " fill="#000000"/>
<path class="bond-0 atom-0 atom-1" d="M 344.8,370.2 L 312.9,394.0" style="fill:none;fill-rule:evenodd;stroke:#000000;stroke-width:2.0px;stroke-linecap:butt;stroke-linejoin:miter;stroke-opacity:1"/>
<path class="bond-1 atom-1 atom-2" d="M 304.1,409.8 L 304.6,451.5" style="fill:none;fill-rule:evenodd;stroke:#000000;stroke-width:2.0px;stroke-linecap:butt;stroke-linejoin:miter;stroke-opacity:1"/>
<path class="bond-2 atom-1 atom-3" d="M 297.8,396.2 L 262.5,371.2" style="fill:none;fill-rule:evenodd;stroke:#000000;stroke-width:2.0px;stroke-linecap:butt;stroke-linejoin:miter;stroke-opacity:1"/>
<path class="bond-3 atom-3 atom-4" d="M 262.5,371.2 L 274.9,331.5" style="fill:none;fill-rule:evenodd;stroke:#000000;stroke-width:2.0px;stroke-linecap:butt;stroke-linejoin:miter;stroke-opacity:1"/>
<path class="bond-3 atom-3 atom-4" d="M 271.2,368.3 L 282.0,333.7" style="fill:none;fill-rule:evenodd;stroke:#000000;stroke-width:2.0px;stroke-linecap:butt;stroke-linejoin:miter;stroke-opacity:1"/>
<path class="bond-4 atom-4 atom-5" d="M 284.7,322.6 L 328.5,322.0" style="fill:none;fill-rule:evenodd;stroke:#000000;stroke-width:2.0px;stroke-linecap:butt;stroke-linejoin:miter;stroke-opacity:1"/>
<path class="bond-5 atom-5 atom-6" d="M 328.5,322.0 L 369.6,308.1" style="fill:none;fill-rule:evenodd;stroke:#000000;stroke-width:2.0px;stroke-linecap:butt;stroke-linejoin:miter;stroke-opacity:1"/>
<path class="bond-5 atom-5 atom-6" d="M 337.9,326.7 L 371.9,315.2" style="fill:none;fill-rule:evenodd;stroke:#000000;stroke-width:2.0px;stroke-linecap:butt;stroke-linejoin:miter;stroke-opacity:1"/>
<path class="bond-6 atom-6 atom-7" d="M 379.6,314.6 L 390.0,345.1" style="fill:none;fill-rule:evenodd;stroke:#000000;stroke-width:2.0px;stroke-linecap:butt;stroke-linejoin:miter;stroke-opacity:1"/>
<path class="bond-7 atom-7 atom-8" d="M 400.1,357.4 L 438.6,376.4" style="fill:none;fill-rule:evenodd;stroke:#000000;stroke-width:2.0px;stroke-linecap:butt;stroke-linejoin:miter;stroke-opacity:1"/>
<path class="bond-8 atom-8 atom-9" d="M 438.6,376.4 L 441.3,418.3" style="fill:none;fill-rule:evenodd;stroke:#000000;stroke-width:2.0px;stroke-linecap:butt;stroke-linejoin:miter;stroke-opacity:1"/>
<path class="bond-9 atom-8 atom-10" d="M 438.9,380.7 L 474.7,356.8" style="fill:none;fill-rule:evenodd;stroke:#000000;stroke-width:2.0px;stroke-linecap:butt;stroke-linejoin:miter;stroke-opacity:1"/>
<path class="bond-9 atom-8 atom-10" d="M 434.7,374.5 L 470.6,350.6" style="fill:none;fill-rule:evenodd;stroke:#000000;stroke-width:2.0px;stroke-linecap:butt;stroke-linejoin:miter;stroke-opacity:1"/>
<path class="bond-10 atom-5 atom-0" d="M 328.5,322.0 L 344.8,370.2" style="fill:none;fill-rule:evenodd;stroke:#000000;stroke-width:2.0px;stroke-linecap:butt;stroke-linejoin:miter;stroke-opacity:1"/>
<path class="bond-11 atom-7 atom-0" d="M 385.9,356.3 L 344.8,370.2" style="fill:none;fill-rule:evenodd;stroke:#000000;stroke-width:2.0px;stroke-linecap:butt;stroke-linejoin:miter;stroke-opacity:1"/>
<path class="bond-12 atom-0 atom-11" d="M 344.8,370.2 L 358.4,388.0 L 351.8,391.5 Z" style="fill:#000000;fill-rule:evenodd;fill-opacity:1;stroke:#000000;stroke-width:0.5px;stroke-linecap:butt;stroke-linejoin:miter;stroke-miterlimit:10;stroke-opacity:1;"/>
<path d="M 264.3,372.5 L 262.5,371.2 L 263.1,369.2" style="fill:none;stroke:#000000;stroke-width:2.0px;stroke-linecap:butt;stroke-linejoin:miter;stroke-miterlimit:10;stroke-opacity:1;"/>
<path d="M 436.6,375.5 L 438.6,376.4 L 438.7,378.5" style="fill:none;stroke:#000000;stroke-width:2.0px;stroke-linecap:butt;stroke-linejoin:miter;stroke-miterlimit:10;stroke-opacity:1;"/>
<path class="atom-1" d="M 299.9 405.6 Q 300.1 405.6, 300.8 405.9 Q 301.5 406.2, 302.2 406.4 Q 302.9 406.5, 303.7 406.5 Q 305.0 406.5, 305.8 405.9 Q 306.6 405.2, 306.6 404.1 Q 306.6 403.3, 306.2 402.8 Q 305.8 402.3, 305.2 402.0 Q 304.6 401.8, 303.6 401.5 Q 302.3 401.1, 301.5 400.7 Q 300.8 400.3, 300.2 399.6 Q 299.7 398.8, 299.7 397.5 Q 299.7 395.7, 300.9 394.6 Q 302.2 393.4, 304.6 393.4 Q 306.3 393.4, 308.2 394.2 L 307.7 395.8 Q 306.0 395.1, 304.7 395.1 Q 303.3 395.1, 302.5 395.7 Q 301.7 396.2, 301.7 397.2 Q 301.7 398.0, 302.1 398.5 Q 302.5 399.0, 303.1 399.2 Q 303.7 399.5, 304.7 399.8 Q 306.0 400.2, 306.7 400.6 Q 307.5 401.0, 308.1 401.8 Q 308.6 402.7, 308.6 404.1 Q 308.6 406.1, 307.3 407.1 Q 306.0 408.2, 303.8 408.2 Q 302.5 408.2, 301.5 407.9 Q 300.5 407.6, 299.4 407.2 L 299.9 405.6 " fill="#000000"/>
<path class="atom-1" d="M 310.4 395.6 L 315.4 395.6 L 315.4 396.7 L 310.4 396.7 L 310.4 395.6 " fill="#000000"/>
<path class="atom-4" d="M 274.4 315.5 L 279.2 323.1 Q 279.6 323.8, 280.4 325.2 Q 281.1 326.6, 281.2 326.7 L 281.2 315.5 L 283.1 315.5 L 283.1 329.9 L 281.1 329.9 L 276.0 321.5 Q 275.5 320.6, 274.8 319.4 Q 274.2 318.3, 274.0 318.0 L 274.0 329.9 L 272.2 329.9 L 272.2 315.5 L 274.4 315.5 " fill="#000000"/>
<path class="atom-6" d="M 373.5 298.5 L 378.2 306.1 Q 378.7 306.9, 379.4 308.3 Q 380.2 309.6, 380.2 309.7 L 380.2 298.5 L 382.1 298.5 L 382.1 312.9 L 380.1 312.9 L 375.1 304.6 Q 374.5 303.6, 373.9 302.5 Q 373.2 301.4, 373.1 301.0 L 373.1 312.9 L 371.2 312.9 L 371.2 298.5 L 373.5 298.5 " fill="#000000"/>
<path class="atom-7" d="M 389.8 346.7 L 394.5 354.3 Q 395.0 355.1, 395.7 356.4 Q 396.5 357.8, 396.5 357.9 L 396.5 346.7 L 398.4 346.7 L 398.4 361.1 L 396.5 361.1 L 391.4 352.8 Q 390.8 351.8, 390.2 350.7 Q 389.6 349.5, 389.4 349.2 L 389.4 361.1 L 387.5 361.1 L 387.5 346.7 L 389.8 346.7 " fill="#000000"/>
<path class="atom-9" d="M 438.7 420.0 L 443.4 427.6 Q 443.9 428.4, 444.6 429.7 Q 445.4 431.1, 445.4 431.2 L 445.4 420.0 L 447.3 420.0 L 447.3 434.4 L 445.4 434.4 L 440.3 426.0 Q 439.7 425.1, 439.1 424.0 Q 438.5 422.8, 438.3 422.5 L 438.3 434.4 L 436.4 434.4 L 436.4 420.0 L 438.7 420.0 " fill="#000000"/>
<path class="atom-9" d="M 450.1 420.0 L 452.0 420.0 L 452.0 426.1 L 459.4 426.1 L 459.4 420.0 L 461.4 420.0 L 461.4 434.4 L 459.4 434.4 L 459.4 427.7 L 452.0 427.7 L 452.0 434.4 L 450.1 434.4 L 450.1 420.0 " fill="#000000"/>
<path class="atom-9" d="M 464.2 433.9 Q 464.5 433.0, 465.4 432.5 Q 466.2 432.0, 467.3 432.0 Q 468.8 432.0, 469.6 432.8 Q 470.4 433.5, 470.4 434.9 Q 470.4 436.3, 469.3 437.6 Q 468.3 439.0, 466.2 440.5 L 470.6 440.5 L 470.6 441.6 L 464.1 441.6 L 464.1 440.7 Q 465.9 439.4, 467.0 438.5 Q 468.0 437.5, 468.5 436.7 Q 469.0 435.9, 469.0 435.0 Q 469.0 434.1, 468.6 433.6 Q 468.1 433.1, 467.3 433.1 Q 466.6 433.1, 466.1 433.4 Q 465.6 433.7, 465.2 434.4 L 464.2 433.9 " fill="#000000"/>
<path class="atom-10" d="M 474.3 348.2 Q 474.3 344.8, 476.0 342.8 Q 477.7 340.9, 480.9 340.9 Q 484.1 340.9, 485.8 342.8 Q 487.5 344.8, 487.5 348.2 Q 487.5 351.7, 485.8 353.7 Q 484.0 355.7, 480.9 355.7 Q 477.7 355.7, 476.0 353.7 Q 474.3 351.8, 474.3 348.2 M 480.9 354.1 Q 483.1 354.1, 484.3 352.6 Q 485.5 351.1, 485.5 348.2 Q 485.5 345.4, 484.3 344.0 Q 483.1 342.5, 480.9 342.5 Q 478.7 342.5, 477.5 344.0 Q 476.3 345.4, 476.3 348.2 Q 476.3 351.1, 477.5 352.6 Q 478.7 354.1, 480.9 354.1 " fill="#000000"/>
<path class="atom-11" d="M 354.9 393.0 L 356.9 393.0 L 356.9 399.2 L 364.2 399.2 L 364.2 393.0 L 366.2 393.0 L 366.2 407.4 L 364.2 407.4 L 364.2 400.8 L 356.9 400.8 L 356.9 407.4 L 354.9 407.4 L 354.9 393.0 " fill="#000000"/>
<path class="bond-0 atom-0 atom-1" d="M 533.5,365.4 L 560.3,393.3" style="fill:none;fill-rule:evenodd;stroke:#000000;stroke-width:2.0px;stroke-linecap:butt;stroke-linejoin:miter;stroke-opacity:1"/>
<path class="bond-1 atom-1 atom-2" d="M 578.5,400.6 L 632.5,387.3" style="fill:none;fill-rule:evenodd;stroke:#000000;stroke-width:2.0px;stroke-linecap:butt;stroke-linejoin:miter;stroke-opacity:1"/>
<path class="bond-2 atom-2 atom-3" d="M 632.5,387.3 L 682.2,429.2" style="fill:none;fill-rule:evenodd;stroke:#000000;stroke-width:2.0px;stroke-linecap:butt;stroke-linejoin:miter;stroke-opacity:1"/>
<path class="bond-2 atom-2 atom-3" d="M 644.3,384.4 L 683.1,417.2" style="fill:none;fill-rule:evenodd;stroke:#000000;stroke-width:2.0px;stroke-linecap:butt;stroke-linejoin:miter;stroke-opacity:1"/>
<path class="bond-3 atom-3 atom-4" d="M 682.2,429.2 L 737.5,394.9" style="fill:none;fill-rule:evenodd;stroke:#000000;stroke-width:2.0px;stroke-linecap:butt;stroke-linejoin:miter;stroke-opacity:1"/>
<path class="bond-4 atom-4 atom-5" d="M 737.5,394.9 L 722.0,331.8" style="fill:none;fill-rule:evenodd;stroke:#000000;stroke-width:2.0px;stroke-linecap:butt;stroke-linejoin:miter;stroke-opacity:1"/>
<path class="bond-4 atom-4 atom-5" d="M 726.3,390.4 L 714.2,341.0" style="fill:none;fill-rule:evenodd;stroke:#000000;stroke-width:2.0px;stroke-linecap:butt;stroke-linejoin:miter;stroke-opacity:1"/>
<path class="bond-5 atom-5 atom-6" d="M 722.0,331.8 L 667.7,327.8" style="fill:none;fill-rule:evenodd;stroke:#000000;stroke-width:2.0px;stroke-linecap:butt;stroke-linejoin:miter;stroke-opacity:1"/>
<path class="bond-6 atom-6 atom-2" d="M 652.3,338.8 L 632.5,387.3" style="fill:none;fill-rule:evenodd;stroke:#000000;stroke-width:2.0px;stroke-linecap:butt;stroke-linejoin:miter;stroke-opacity:1"/>
<path d="M 679.8,427.1 L 682.2,429.2 L 685.0,427.5" style="fill:none;stroke:#000000;stroke-width:2.0px;stroke-linecap:butt;stroke-linejoin:miter;stroke-miterlimit:10;stroke-opacity:1;"/>
<path d="M 734.7,396.6 L 737.5,394.9 L 736.7,391.8" style="fill:none;stroke:#000000;stroke-width:2.0px;stroke-linecap:butt;stroke-linejoin:miter;stroke-miterlimit:10;stroke-opacity:1;"/>
<path d="M 722.7,334.9 L 722.0,331.8 L 719.2,331.6" style="fill:none;stroke:#000000;stroke-width:2.0px;stroke-linecap:butt;stroke-linejoin:miter;stroke-miterlimit:10;stroke-opacity:1;"/>
<path class="atom-0" d="M 520.3 346.7 L 526.3 356.4 Q 526.9 357.4, 527.9 359.1 Q 528.8 360.9, 528.9 361.0 L 528.9 346.7 L 531.3 346.7 L 531.3 365.1 L 528.8 365.1 L 522.3 354.4 Q 521.6 353.2, 520.8 351.8 Q 520.0 350.3, 519.8 349.9 L 519.8 365.1 L 517.4 365.1 L 517.4 346.7 L 520.3 346.7 " fill="#000000"/>
<path class="atom-0" d="M 534.7 349.7 L 541.0 349.7 L 541.0 351.1 L 534.7 351.1 L 534.7 349.7 " fill="#000000"/>
<path class="atom-1" d="M 565.3 393.6 L 571.4 403.4 Q 572.0 404.3, 572.9 406.1 Q 573.9 407.8, 573.9 407.9 L 573.9 393.6 L 576.4 393.6 L 576.4 412.0 L 573.9 412.0 L 567.4 401.3 Q 566.6 400.1, 565.8 398.7 Q 565.0 397.2, 564.8 396.8 L 564.8 412.0 L 562.4 412.0 L 562.4 393.6 L 565.3 393.6 " fill="#000000"/>
<path class="atom-1" d="M 562.2 413.9 L 564.7 413.9 L 564.7 421.7 L 574.1 421.7 L 574.1 413.9 L 576.6 413.9 L 576.6 432.3 L 574.1 432.3 L 574.1 423.8 L 564.7 423.8 L 564.7 432.3 L 562.2 432.3 L 562.2 413.9 " fill="#000000"/>
<path class="atom-6" d="M 648.6 327.1 Q 648.6 322.7, 650.8 320.2 Q 653.0 317.7, 657.1 317.7 Q 661.2 317.7, 663.4 320.2 Q 665.5 322.7, 665.5 327.1 Q 665.5 331.6, 663.3 334.1 Q 661.1 336.6, 657.1 336.6 Q 653.0 336.6, 650.8 334.1 Q 648.6 331.6, 648.6 327.1 M 657.1 334.6 Q 659.9 334.6, 661.4 332.7 Q 662.9 330.8, 662.9 327.1 Q 662.9 323.5, 661.4 321.7 Q 659.9 319.8, 657.1 319.8 Q 654.3 319.8, 652.7 321.6 Q 651.2 323.4, 651.2 327.1 Q 651.2 330.8, 652.7 332.7 Q 654.3 334.6, 657.1 334.6 " fill="#000000"/>
<path class="atom-0" d="M 514.8,355.9 L 514.8,356.0 L 514.8,356.1 L 514.7,356.2 L 514.7,356.3 L 514.7,356.4 L 514.6,356.5 L 514.5,356.6 L 514.5,356.7 L 514.4,356.8 L 514.3,356.9 L 514.2,356.9 L 514.1,357.0 L 514.0,357.1 L 513.9,357.1 L 513.8,357.1 L 513.7,357.2 L 513.6,357.2 L 513.5,357.2 L 513.4,357.2 L 513.3,357.2 L 513.2,357.2 L 513.1,357.1 L 513.0,357.1 L 512.9,357.0 L 512.8,357.0 L 512.7,356.9 L 512.6,356.8 L 512.5,356.8 L 512.4,356.7 L 512.4,356.6 L 512.3,356.5 L 512.3,356.4 L 512.2,356.3 L 512.2,356.2 L 512.2,356.1 L 512.2,355.9 L 512.2,355.8 L 512.2,355.7 L 512.2,355.6 L 512.2,355.5 L 512.3,355.4 L 512.3,355.3 L 512.4,355.2 L 512.4,355.1 L 512.5,355.0 L 512.6,354.9 L 512.7,354.9 L 512.8,354.8 L 512.9,354.7 L 513.0,354.7 L 513.1,354.7 L 513.2,354.6 L 513.3,354.6 L 513.4,354.6 L 513.5,354.6 L 513.6,354.6 L 513.7,354.6 L 513.8,354.6 L 513.9,354.7 L 514.0,354.7 L 514.1,354.8 L 514.2,354.8 L 514.3,354.9 L 514.4,355.0 L 514.5,355.1 L 514.5,355.2 L 514.6,355.2 L 514.7,355.3 L 514.7,355.4 L 514.7,355.6 L 514.8,355.7 L 514.8,355.8 L 514.8,355.9 L 513.5,355.9 Z" style="fill:#000000;fill-rule:evenodd;fill-opacity:1;stroke:#000000;stroke-width:0.0px;stroke-linecap:butt;stroke-linejoin:miter;stroke-miterlimit:10;stroke-opacity:1;"/>
<path class="bond-0 atom-0 atom-1" d="M 16.9,629.0 L 21.2,584.5" style="fill:none;fill-rule:evenodd;stroke:#000000;stroke-width:2.0px;stroke-linecap:butt;stroke-linejoin:miter;stroke-opacity:1"/>
<path class="bond-1 atom-1 atom-2" d="M 21.2,584.5 L 65.7,588.8" style="fill:none;fill-rule:evenodd;stroke:#000000;stroke-width:2.0px;stroke-linecap:butt;stroke-linejoin:miter;stroke-opacity:1"/>
<path class="bond-1 atom-1 atom-2" d="M 27.3,591.9 L 65.0,595.5" style="fill:none;fill-rule:evenodd;stroke:#000000;stroke-width:2.0px;stroke-linecap:butt;stroke-linejoin:miter;stroke-opacity:1"/>
<path class="bond-2 atom-2 atom-3" d="M 65.7,588.8 L 93.8,565.6" style="fill:none;fill-rule:evenodd;stroke:#000000;stroke-width:2.0px;stroke-linecap:butt;stroke-linejoin:miter;stroke-opacity:1"/>
<path class="bond-3 atom-3 atom-4" d="M 106.4,568.1 L 122.2,587.3" style="fill:none;fill-rule:evenodd;stroke:#000000;stroke-width:2.0px;stroke-linecap:butt;stroke-linejoin:miter;stroke-opacity:1"/>
<path class="bond-4 atom-4 atom-5" d="M 134.8,592.1 L 169.1,576.4" style="fill:none;fill-rule:evenodd;stroke:#000000;stroke-width:2.0px;stroke-linecap:butt;stroke-linejoin:miter;stroke-opacity:1"/>
<path class="bond-5 atom-5 atom-6" d="M 169.1,576.4 L 205.5,602.3" style="fill:none;fill-rule:evenodd;stroke:#000000;stroke-width:2.0px;stroke-linecap:butt;stroke-linejoin:miter;stroke-opacity:1"/>
<path class="bond-6 atom-6 atom-7" d="M 205.5,602.3 L 201.2,646.8" style="fill:none;fill-rule:evenodd;stroke:#000000;stroke-width:2.0px;stroke-linecap:butt;stroke-linejoin:miter;stroke-opacity:1"/>
<path class="bond-7 atom-7 atom-8" d="M 201.2,646.8 L 237.5,672.7" style="fill:none;fill-rule:evenodd;stroke:#000000;stroke-width:2.0px;stroke-linecap:butt;stroke-linejoin:miter;stroke-opacity:1"/>
<path class="bond-8 atom-7 atom-9" d="M 201.2,646.8 L 160.5,665.3" style="fill:none;fill-rule:evenodd;stroke:#000000;stroke-width:2.0px;stroke-linecap:butt;stroke-linejoin:miter;stroke-opacity:1"/>
<path class="bond-9 atom-9 atom-10" d="M 160.5,665.3 L 124.2,639.3" style="fill:none;fill-rule:evenodd;stroke:#000000;stroke-width:2.0px;stroke-linecap:butt;stroke-linejoin:miter;stroke-opacity:1"/>
<path class="bond-10 atom-10 atom-11" d="M 124.2,639.3 L 89.8,667.7" style="fill:none;fill-rule:evenodd;stroke:#000000;stroke-width:2.0px;stroke-linecap:butt;stroke-linejoin:miter;stroke-opacity:1"/>
<path class="bond-11 atom-11 atom-12" d="M 89.8,667.7 L 45.3,663.4" style="fill:none;fill-rule:evenodd;stroke:#000000;stroke-width:2.0px;stroke-linecap:butt;stroke-linejoin:miter;stroke-opacity:1"/>
<path class="bond-11 atom-11 atom-12" d="M 87.6,660.8 L 48.7,657.0" style="fill:none;fill-rule:evenodd;stroke:#000000;stroke-width:2.0px;stroke-linecap:butt;stroke-linejoin:miter;stroke-opacity:1"/>
<path class="bond-12 atom-12 atom-13" d="M 45.3,663.4 L 26.6,698.5" style="fill:none;fill-rule:evenodd;stroke:#000000;stroke-width:2.0px;stroke-linecap:butt;stroke-linejoin:miter;stroke-opacity:1"/>
<path class="bond-13 atom-12 atom-0" d="M 45.3,663.4 L 16.9,629.0" style="fill:none;fill-rule:evenodd;stroke:#000000;stroke-width:2.0px;stroke-linecap:butt;stroke-linejoin:miter;stroke-opacity:1"/>
<path class="bond-14 atom-10 atom-4" d="M 124.2,639.3 L 127.7,602.7" style="fill:none;fill-rule:evenodd;stroke:#000000;stroke-width:2.0px;stroke-linecap:butt;stroke-linejoin:miter;stroke-opacity:1"/>
<path d="M 17.2,626.8 L 16.9,629.0 L 18.4,630.7" style="fill:none;stroke:#000000;stroke-width:2.0px;stroke-linecap:butt;stroke-linejoin:miter;stroke-miterlimit:10;stroke-opacity:1;"/>
<path d="M 21.0,586.8 L 21.2,584.5 L 23.5,584.8" style="fill:none;stroke:#000000;stroke-width:2.0px;stroke-linecap:butt;stroke-linejoin:miter;stroke-miterlimit:10;stroke-opacity:1;"/>
<path d="M 63.4,588.6 L 65.7,588.8 L 67.1,587.7" style="fill:none;stroke:#000000;stroke-width:2.0px;stroke-linecap:butt;stroke-linejoin:miter;stroke-miterlimit:10;stroke-opacity:1;"/>
<path d="M 167.4,577.2 L 169.1,576.4 L 170.9,577.7" style="fill:none;stroke:#000000;stroke-width:2.0px;stroke-linecap:butt;stroke-linejoin:miter;stroke-miterlimit:10;stroke-opacity:1;"/>
<path d="M 203.6,601.0 L 205.5,602.3 L 205.2,604.6" style="fill:none;stroke:#000000;stroke-width:2.0px;stroke-linecap:butt;stroke-linejoin:miter;stroke-miterlimit:10;stroke-opacity:1;"/>
<path d="M 162.6,664.3 L 160.5,665.3 L 158.7,664.0" style="fill:none;stroke:#000000;stroke-width:2.0px;stroke-linecap:butt;stroke-linejoin:miter;stroke-miterlimit:10;stroke-opacity:1;"/>
<path d="M 91.5,666.3 L 89.8,667.7 L 87.5,667.5" style="fill:none;stroke:#000000;stroke-width:2.0px;stroke-linecap:butt;stroke-linejoin:miter;stroke-miterlimit:10;stroke-opacity:1;"/>
<path class="atom-3" d="M 97.3 554.1 L 101.5 560.8 Q 101.9 561.5, 102.5 562.7 Q 103.2 563.9, 103.2 564.0 L 103.2 554.1 L 104.9 554.1 L 104.9 566.8 L 103.2 566.8 L 98.7 559.5 Q 98.2 558.6, 97.7 557.6 Q 97.1 556.6, 97.0 556.3 L 97.0 566.8 L 95.3 566.8 L 95.3 554.1 L 97.3 554.1 " fill="#000000"/>
<path class="atom-3" d="M 95.2 540.2 L 96.9 540.2 L 96.9 545.6 L 103.3 545.6 L 103.3 540.2 L 105.1 540.2 L 105.1 552.9 L 103.3 552.9 L 103.3 547.0 L 96.9 547.0 L 96.9 552.9 L 95.2 552.9 L 95.2 540.2 " fill="#000000"/>
<path class="atom-4" d="M 125.7 588.6 L 129.8 595.3 Q 130.3 595.9, 130.9 597.1 Q 131.6 598.3, 131.6 598.4 L 131.6 588.6 L 133.3 588.6 L 133.3 601.2 L 131.6 601.2 L 127.1 593.9 Q 126.6 593.0, 126.0 592.1 Q 125.5 591.1, 125.3 590.8 L 125.3 601.2 L 123.7 601.2 L 123.7 588.6 L 125.7 588.6 " fill="#000000"/>
<path class="atom-13" d="M 12.5 703.3 Q 12.5 700.1, 14.0 698.5 Q 15.4 696.8, 18.2 696.8 Q 20.9 696.8, 22.2 698.7 L 21.1 699.6 Q 20.1 698.3, 18.2 698.3 Q 16.3 698.3, 15.3 699.6 Q 14.3 700.8, 14.3 703.3 Q 14.3 705.8, 15.4 707.1 Q 16.4 708.3, 18.4 708.3 Q 19.8 708.3, 21.5 707.5 L 22.0 708.8 Q 21.3 709.3, 20.3 709.5 Q 19.3 709.8, 18.2 709.8 Q 15.4 709.8, 14.0 708.1 Q 12.5 706.4, 12.5 703.3 " fill="#000000"/>
<path class="atom-13" d="M 23.5 696.1 L 25.2 696.1 L 25.2 709.6 L 23.5 709.6 L 23.5 696.1 " fill="#000000"/>
<path class="atom-5" d="M 170.0,572.4 L 170.0,572.5 L 170.0,572.5 L 170.0,572.6 L 170.0,572.7 L 169.9,572.8 L 169.9,572.8 L 169.9,572.9 L 169.8,573.0 L 169.8,573.0 L 169.7,573.1 L 169.6,573.1 L 169.6,573.2 L 169.5,573.2 L 169.4,573.2 L 169.4,573.2 L 169.3,573.3 L 169.2,573.3 L 169.1,573.3 L 169.1,573.3 L 169.0,573.3 L 168.9,573.3 L 168.8,573.2 L 168.8,573.2 L 168.7,573.2 L 168.6,573.1 L 168.6,573.1 L 168.5,573.0 L 168.5,573.0 L 168.4,572.9 L 168.4,572.9 L 168.3,572.8 L 168.3,572.7 L 168.3,572.7 L 168.3,572.6 L 168.2,572.5 L 168.2,572.4 L 168.2,572.4 L 168.2,572.3 L 168.3,572.2 L 168.3,572.1 L 168.3,572.1 L 168.3,572.0 L 168.4,571.9 L 168.4,571.9 L 168.5,571.8 L 168.5,571.7 L 168.6,571.7 L 168.6,571.6 L 168.7,571.6 L 168.8,571.6 L 168.8,571.5 L 168.9,571.5 L 169.0,571.5 L 169.1,571.5 L 169.1,571.5 L 169.2,571.5 L 169.3,571.5 L 169.4,571.5 L 169.4,571.6 L 169.5,571.6 L 169.6,571.6 L 169.6,571.7 L 169.7,571.7 L 169.8,571.8 L 169.8,571.8 L 169.9,571.9 L 169.9,571.9 L 169.9,572.0 L 170.0,572.1 L 170.0,572.2 L 170.0,572.2 L 170.0,572.3 L 170.0,572.4 L 169.1,572.4 Z" style="fill:#000000;fill-rule:evenodd;fill-opacity:1;stroke:#000000;stroke-width:0.0px;stroke-linecap:butt;stroke-linejoin:miter;stroke-miterlimit:10;stroke-opacity:1;"/>
<path class="bond-0 atom-0 atom-1" d="M 464.2,657.6 L 437.1,649.9" style="fill:none;fill-rule:evenodd;stroke:#000000;stroke-width:2.0px;stroke-linecap:butt;stroke-linejoin:miter;stroke-opacity:1"/>
<path class="bond-1 atom-1 atom-2" d="M 437.1,649.9 L 413.3,672.8" style="fill:none;fill-rule:evenodd;stroke:#000000;stroke-width:2.0px;stroke-linecap:butt;stroke-linejoin:miter;stroke-opacity:1"/>
<path class="bond-1 atom-1 atom-2" d="M 431.6,648.3 L 411.9,667.3" style="fill:none;fill-rule:evenodd;stroke:#000000;stroke-width:2.0px;stroke-linecap:butt;stroke-linejoin:miter;stroke-opacity:1"/>
<path class="bond-2 atom-2 atom-3" d="M 413.3,672.8 L 381.6,663.7" style="fill:none;fill-rule:evenodd;stroke:#000000;stroke-width:2.0px;stroke-linecap:butt;stroke-linejoin:miter;stroke-opacity:1"/>
<path class="bond-3 atom-3 atom-4" d="M 381.6,663.7 L 373.6,631.7" style="fill:none;fill-rule:evenodd;stroke:#000000;stroke-width:2.0px;stroke-linecap:butt;stroke-linejoin:miter;stroke-opacity:1"/>
<path class="bond-3 atom-3 atom-4" d="M 385.7,659.7 L 379.1,633.2" style="fill:none;fill-rule:evenodd;stroke:#000000;stroke-width:2.0px;stroke-linecap:butt;stroke-linejoin:miter;stroke-opacity:1"/>
<path class="bond-4 atom-4 atom-5" d="M 373.6,631.7 L 397.3,608.7" style="fill:none;fill-rule:evenodd;stroke:#000000;stroke-width:2.0px;stroke-linecap:butt;stroke-linejoin:miter;stroke-opacity:1"/>
<path class="bond-5 atom-5 atom-6" d="M 397.3,608.7 L 429.1,617.8" style="fill:none;fill-rule:evenodd;stroke:#000000;stroke-width:2.0px;stroke-linecap:butt;stroke-linejoin:miter;stroke-opacity:1"/>
<path class="bond-5 atom-5 atom-6" d="M 398.7,614.2 L 425.0,621.8" style="fill:none;fill-rule:evenodd;stroke:#000000;stroke-width:2.0px;stroke-linecap:butt;stroke-linejoin:miter;stroke-opacity:1"/>
<path class="bond-6 atom-5 atom-7" d="M 397.3,608.7 L 389.3,576.6" style="fill:none;fill-rule:evenodd;stroke:#000000;stroke-width:2.0px;stroke-linecap:butt;stroke-linejoin:miter;stroke-opacity:1"/>
<path class="bond-7 atom-7 atom-8" d="M 389.3,576.6 L 357.6,567.5" style="fill:none;fill-rule:evenodd;stroke:#000000;stroke-width:2.0px;stroke-linecap:butt;stroke-linejoin:miter;stroke-opacity:1"/>
<path class="bond-8 atom-8 atom-9" d="M 357.6,567.5 L 333.8,590.5" style="fill:none;fill-rule:evenodd;stroke:#000000;stroke-width:2.0px;stroke-linecap:butt;stroke-linejoin:miter;stroke-opacity:1"/>
<path class="bond-9 atom-9 atom-10" d="M 333.8,590.5 L 340.4,616.8" style="fill:none;fill-rule:evenodd;stroke:#000000;stroke-width:2.0px;stroke-linecap:butt;stroke-linejoin:miter;stroke-opacity:1"/>
<path class="bond-10 atom-10 atom-11" d="M 337.2,627.0 L 318.0,645.5" style="fill:none;fill-rule:evenodd;stroke:#000000;stroke-width:2.0px;stroke-linecap:butt;stroke-linejoin:miter;stroke-opacity:1"/>
<path class="bond-11 atom-11 atom-12" d="M 315.3,644.7 L 322.2,672.4" style="fill:none;fill-rule:evenodd;stroke:#000000;stroke-width:2.0px;stroke-linecap:butt;stroke-linejoin:miter;stroke-opacity:1"/>
<path class="bond-11 atom-11 atom-12" d="M 320.1,643.5 L 327.0,671.2" style="fill:none;fill-rule:evenodd;stroke:#000000;stroke-width:2.0px;stroke-linecap:butt;stroke-linejoin:miter;stroke-opacity:1"/>
<path class="bond-12 atom-11 atom-13" d="M 318.0,645.5 L 286.3,636.4" style="fill:none;fill-rule:evenodd;stroke:#000000;stroke-width:2.0px;stroke-linecap:butt;stroke-linejoin:miter;stroke-opacity:1"/>
<path class="bond-13 atom-13 atom-14" d="M 286.3,636.4 L 262.5,659.4" style="fill:none;fill-rule:evenodd;stroke:#000000;stroke-width:2.0px;stroke-linecap:butt;stroke-linejoin:miter;stroke-opacity:1"/>
<path class="bond-14 atom-6 atom-1" d="M 429.1,617.8 L 437.1,649.9" style="fill:none;fill-rule:evenodd;stroke:#000000;stroke-width:2.0px;stroke-linecap:butt;stroke-linejoin:miter;stroke-opacity:1"/>
<path class="bond-15 atom-10 atom-4" d="M 346.4,623.9 L 373.6,631.7" style="fill:none;fill-rule:evenodd;stroke:#000000;stroke-width:2.0px;stroke-linecap:butt;stroke-linejoin:miter;stroke-opacity:1"/>
<path d="M 414.5,671.7 L 413.3,672.8 L 411.7,672.4" style="fill:none;stroke:#000000;stroke-width:2.0px;stroke-linecap:butt;stroke-linejoin:miter;stroke-miterlimit:10;stroke-opacity:1;"/>
<path d="M 383.2,664.2 L 381.6,663.7 L 381.2,662.1" style="fill:none;stroke:#000000;stroke-width:2.0px;stroke-linecap:butt;stroke-linejoin:miter;stroke-miterlimit:10;stroke-opacity:1;"/>
<path d="M 427.5,617.3 L 429.1,617.8 L 429.5,619.4" style="fill:none;stroke:#000000;stroke-width:2.0px;stroke-linecap:butt;stroke-linejoin:miter;stroke-miterlimit:10;stroke-opacity:1;"/>
<path d="M 389.7,578.2 L 389.3,576.6 L 387.7,576.2" style="fill:none;stroke:#000000;stroke-width:2.0px;stroke-linecap:butt;stroke-linejoin:miter;stroke-miterlimit:10;stroke-opacity:1;"/>
<path d="M 359.1,568.0 L 357.6,567.5 L 356.4,568.7" style="fill:none;stroke:#000000;stroke-width:2.0px;stroke-linecap:butt;stroke-linejoin:miter;stroke-miterlimit:10;stroke-opacity:1;"/>
<path d="M 335.0,589.4 L 333.8,590.5 L 334.1,591.8" style="fill:none;stroke:#000000;stroke-width:2.0px;stroke-linecap:butt;stroke-linejoin:miter;stroke-miterlimit:10;stroke-opacity:1;"/>
<path d="M 319.0,644.6 L 318.0,645.5 L 316.4,645.1" style="fill:none;stroke:#000000;stroke-width:2.0px;stroke-linecap:butt;stroke-linejoin:miter;stroke-miterlimit:10;stroke-opacity:1;"/>
<path d="M 287.9,636.9 L 286.3,636.4 L 285.1,637.6" style="fill:none;stroke:#000000;stroke-width:2.0px;stroke-linecap:butt;stroke-linejoin:miter;stroke-miterlimit:10;stroke-opacity:1;"/>
<path class="atom-0" d="M 466.8 654.3 L 469.9 659.2 Q 470.2 659.7, 470.7 660.6 Q 471.1 661.5, 471.2 661.5 L 471.2 654.3 L 472.4 654.3 L 472.4 663.6 L 471.1 663.6 L 467.8 658.2 Q 467.5 657.6, 467.0 656.9 Q 466.7 656.1, 466.5 655.9 L 466.5 663.6 L 465.3 663.6 L 465.3 654.3 L 466.8 654.3 " fill="#000000"/>
<path class="atom-0" d="M 474.2 654.3 L 475.5 654.3 L 475.5 658.3 L 480.3 658.3 L 480.3 654.3 L 481.5 654.3 L 481.5 663.6 L 480.3 663.6 L 480.3 659.3 L 475.5 659.3 L 475.5 663.6 L 474.2 663.6 L 474.2 654.3 " fill="#000000"/>
<path class="atom-0" d="M 483.4 663.3 Q 483.6 662.7, 484.1 662.4 Q 484.7 662.1, 485.4 662.1 Q 486.3 662.1, 486.9 662.6 Q 487.4 663.1, 487.4 664.0 Q 487.4 664.9, 486.7 665.7 Q 486.0 666.6, 484.6 667.6 L 487.5 667.6 L 487.5 668.3 L 483.3 668.3 L 483.3 667.7 Q 484.5 666.9, 485.2 666.3 Q 485.9 665.7, 486.2 665.1 Q 486.5 664.6, 486.5 664.0 Q 486.5 663.4, 486.2 663.1 Q 485.9 662.8, 485.4 662.8 Q 484.9 662.8, 484.6 663.0 Q 484.3 663.2, 484.0 663.6 L 483.4 663.3 " fill="#000000"/>
<path class="atom-10" d="M 339.7 617.9 L 342.8 622.8 Q 343.1 623.3, 343.6 624.2 Q 344.1 625.1, 344.1 625.2 L 344.1 617.9 L 345.3 617.9 L 345.3 627.2 L 344.1 627.2 L 340.8 621.8 Q 340.4 621.2, 340.0 620.5 Q 339.6 619.7, 339.5 619.5 L 339.5 627.2 L 338.2 627.2 L 338.2 617.9 L 339.7 617.9 " fill="#000000"/>
<path class="atom-12" d="M 321.7 677.6 Q 321.7 675.4, 322.9 674.1 Q 324.0 672.9, 326.0 672.9 Q 328.1 672.9, 329.2 674.1 Q 330.3 675.4, 330.3 677.6 Q 330.3 679.9, 329.2 681.2 Q 328.1 682.5, 326.0 682.5 Q 324.0 682.5, 322.9 681.2 Q 321.7 679.9, 321.7 677.6 M 326.0 681.4 Q 327.5 681.4, 328.2 680.5 Q 329.0 679.5, 329.0 677.6 Q 329.0 675.8, 328.2 674.8 Q 327.5 673.9, 326.0 673.9 Q 324.6 673.9, 323.8 674.8 Q 323.1 675.8, 323.1 677.6 Q 323.1 679.5, 323.8 680.5 Q 324.6 681.4, 326.0 681.4 " fill="#000000"/>
<path class="atom-13" d="M 286.9,633.5 L 286.9,633.5 L 286.9,633.6 L 286.9,633.6 L 286.9,633.7 L 286.9,633.7 L 286.8,633.8 L 286.8,633.8 L 286.8,633.9 L 286.7,633.9 L 286.7,634.0 L 286.6,634.0 L 286.6,634.0 L 286.6,634.0 L 286.5,634.1 L 286.4,634.1 L 286.4,634.1 L 286.3,634.1 L 286.3,634.1 L 286.2,634.1 L 286.2,634.1 L 286.1,634.1 L 286.1,634.1 L 286.0,634.1 L 285.9,634.0 L 285.9,634.0 L 285.9,634.0 L 285.8,633.9 L 285.8,633.9 L 285.7,633.8 L 285.7,633.8 L 285.7,633.8 L 285.7,633.7 L 285.6,633.6 L 285.6,633.6 L 285.6,633.5 L 285.6,633.5 L 285.6,633.4 L 285.6,633.4 L 285.6,633.3 L 285.6,633.3 L 285.7,633.2 L 285.7,633.2 L 285.7,633.1 L 285.7,633.1 L 285.8,633.0 L 285.8,633.0 L 285.9,632.9 L 285.9,632.9 L 285.9,632.9 L 286.0,632.8 L 286.1,632.8 L 286.1,632.8 L 286.2,632.8 L 286.2,632.8 L 286.3,632.8 L 286.3,632.8 L 286.4,632.8 L 286.4,632.8 L 286.5,632.8 L 286.6,632.9 L 286.6,632.9 L 286.6,632.9 L 286.7,633.0 L 286.7,633.0 L 286.8,633.0 L 286.8,633.1 L 286.8,633.1 L 286.9,633.2 L 286.9,633.2 L 286.9,633.3 L 286.9,633.3 L 286.9,633.4 L 286.9,633.5 L 286.3,633.5 Z" style="fill:#000000;fill-rule:evenodd;fill-opacity:1;stroke:#000000;stroke-width:0.0px;stroke-linecap:butt;stroke-linejoin:miter;stroke-miterlimit:10;stroke-opacity:1;"/>
<path class="bond-0 atom-0 atom-1" d="M 523.8,652.7 L 556.8,659.1" style="fill:none;fill-rule:evenodd;stroke:#000000;stroke-width:2.0px;stroke-linecap:butt;stroke-linejoin:miter;stroke-opacity:1"/>
<path class="bond-1 atom-1 atom-2" d="M 556.8,659.1 L 580.1,632.2" style="fill:none;fill-rule:evenodd;stroke:#000000;stroke-width:2.0px;stroke-linecap:butt;stroke-linejoin:miter;stroke-opacity:1"/>
<path class="bond-1 atom-1 atom-2" d="M 554.8,653.2 L 574.1,631.0" style="fill:none;fill-rule:evenodd;stroke:#000000;stroke-width:2.0px;stroke-linecap:butt;stroke-linejoin:miter;stroke-opacity:1"/>
<path class="bond-2 atom-2 atom-3" d="M 580.1,632.2 L 570.8,605.3" style="fill:none;fill-rule:evenodd;stroke:#000000;stroke-width:2.0px;stroke-linecap:butt;stroke-linejoin:miter;stroke-opacity:1"/>
<path class="bond-3 atom-2 atom-4" d="M 580.1,632.2 L 615.0,639.0" style="fill:none;fill-rule:evenodd;stroke:#000000;stroke-width:2.0px;stroke-linecap:butt;stroke-linejoin:miter;stroke-opacity:1"/>
<path class="bond-4 atom-4 atom-5" d="M 615.0,639.0 L 638.3,612.1" style="fill:none;fill-rule:evenodd;stroke:#000000;stroke-width:2.0px;stroke-linecap:butt;stroke-linejoin:miter;stroke-opacity:1"/>
<path class="bond-4 atom-4 atom-5" d="M 613.0,633.1 L 632.3,610.9" style="fill:none;fill-rule:evenodd;stroke:#000000;stroke-width:2.0px;stroke-linecap:butt;stroke-linejoin:miter;stroke-opacity:1"/>
<path class="bond-5 atom-5 atom-6" d="M 638.3,612.1 L 626.7,578.5" style="fill:none;fill-rule:evenodd;stroke:#000000;stroke-width:2.0px;stroke-linecap:butt;stroke-linejoin:miter;stroke-opacity:1"/>
<path class="bond-6 atom-6 atom-7" d="M 626.7,578.5 L 650.0,551.7" style="fill:none;fill-rule:evenodd;stroke:#000000;stroke-width:2.0px;stroke-linecap:butt;stroke-linejoin:miter;stroke-opacity:1"/>
<path class="bond-6 atom-6 atom-7" d="M 632.7,579.7 L 652.0,557.5" style="fill:none;fill-rule:evenodd;stroke:#000000;stroke-width:2.0px;stroke-linecap:butt;stroke-linejoin:miter;stroke-opacity:1"/>
<path class="bond-7 atom-7 atom-8" d="M 650.0,551.7 L 684.9,558.4" style="fill:none;fill-rule:evenodd;stroke:#000000;stroke-width:2.0px;stroke-linecap:butt;stroke-linejoin:miter;stroke-opacity:1"/>
<path class="bond-8 atom-8 atom-9" d="M 684.9,558.4 L 696.5,592.0" style="fill:none;fill-rule:evenodd;stroke:#000000;stroke-width:2.0px;stroke-linecap:butt;stroke-linejoin:miter;stroke-opacity:1"/>
<path class="bond-8 atom-8 atom-9" d="M 680.8,563.1 L 690.4,590.9" style="fill:none;fill-rule:evenodd;stroke:#000000;stroke-width:2.0px;stroke-linecap:butt;stroke-linejoin:miter;stroke-opacity:1"/>
<path class="bond-9 atom-9 atom-10" d="M 696.5,592.0 L 673.2,618.9" style="fill:none;fill-rule:evenodd;stroke:#000000;stroke-width:2.0px;stroke-linecap:butt;stroke-linejoin:miter;stroke-opacity:1"/>
<path class="bond-10 atom-10 atom-11" d="M 673.2,618.9 L 682.7,646.3" style="fill:none;fill-rule:evenodd;stroke:#000000;stroke-width:2.0px;stroke-linecap:butt;stroke-linejoin:miter;stroke-opacity:1"/>
<path class="bond-10 atom-10 atom-11" d="M 679.2,620.0 L 687.7,644.5" style="fill:none;fill-rule:evenodd;stroke:#000000;stroke-width:2.0px;stroke-linecap:butt;stroke-linejoin:miter;stroke-opacity:1"/>
<path class="bond-11 atom-11 atom-12" d="M 689.8,653.4 L 719.7,659.2" style="fill:none;fill-rule:evenodd;stroke:#000000;stroke-width:2.0px;stroke-linecap:butt;stroke-linejoin:miter;stroke-opacity:1"/>
<path class="bond-12 atom-12 atom-13" d="M 719.7,659.2 L 729.2,686.8" style="fill:none;fill-rule:evenodd;stroke:#000000;stroke-width:2.0px;stroke-linecap:butt;stroke-linejoin:miter;stroke-opacity:1"/>
<path class="bond-13 atom-10 atom-5" d="M 673.2,618.9 L 638.3,612.1" style="fill:none;fill-rule:evenodd;stroke:#000000;stroke-width:2.0px;stroke-linecap:butt;stroke-linejoin:miter;stroke-opacity:1"/>
<path d="M 555.2,658.7 L 556.8,659.1 L 558.0,657.7" style="fill:none;stroke:#000000;stroke-width:2.0px;stroke-linecap:butt;stroke-linejoin:miter;stroke-miterlimit:10;stroke-opacity:1;"/>
<path d="M 613.3,638.6 L 615.0,639.0 L 616.2,637.6" style="fill:none;stroke:#000000;stroke-width:2.0px;stroke-linecap:butt;stroke-linejoin:miter;stroke-miterlimit:10;stroke-opacity:1;"/>
<path d="M 627.3,580.2 L 626.7,578.5 L 627.9,577.2" style="fill:none;stroke:#000000;stroke-width:2.0px;stroke-linecap:butt;stroke-linejoin:miter;stroke-miterlimit:10;stroke-opacity:1;"/>
<path d="M 648.8,553.0 L 650.0,551.7 L 651.7,552.0" style="fill:none;stroke:#000000;stroke-width:2.0px;stroke-linecap:butt;stroke-linejoin:miter;stroke-miterlimit:10;stroke-opacity:1;"/>
<path d="M 683.1,558.1 L 684.9,558.4 L 685.5,560.1" style="fill:none;stroke:#000000;stroke-width:2.0px;stroke-linecap:butt;stroke-linejoin:miter;stroke-miterlimit:10;stroke-opacity:1;"/>
<path d="M 695.9,590.3 L 696.5,592.0 L 695.3,593.4" style="fill:none;stroke:#000000;stroke-width:2.0px;stroke-linecap:butt;stroke-linejoin:miter;stroke-miterlimit:10;stroke-opacity:1;"/>
<path d="M 718.2,658.9 L 719.7,659.2 L 720.2,660.6" style="fill:none;stroke:#000000;stroke-width:2.0px;stroke-linecap:butt;stroke-linejoin:miter;stroke-miterlimit:10;stroke-opacity:1;"/>
<path class="atom-0" d="M 512.5 652.7 Q 512.5 650.2, 513.7 648.8 Q 514.8 647.5, 517.1 647.5 Q 519.2 647.5, 520.3 649.0 L 519.3 649.8 Q 518.5 648.7, 517.1 648.7 Q 515.6 648.7, 514.7 649.7 Q 513.9 650.7, 513.9 652.7 Q 513.9 654.6, 514.8 655.7 Q 515.6 656.7, 517.2 656.7 Q 518.3 656.7, 519.6 656.0 L 520.0 657.1 Q 519.5 657.4, 518.7 657.6 Q 517.9 657.8, 517.0 657.8 Q 514.8 657.8, 513.7 656.5 Q 512.5 655.2, 512.5 652.7 " fill="#000000"/>
<path class="atom-0" d="M 521.3 646.9 L 522.6 646.9 L 522.6 657.7 L 521.3 657.7 L 521.3 646.9 " fill="#000000"/>
<path class="atom-3" d="M 564.6 599.0 Q 564.6 596.5, 565.8 595.2 Q 567.0 593.8, 569.2 593.8 Q 571.3 593.8, 572.4 595.3 L 571.5 596.1 Q 570.6 595.0, 569.2 595.0 Q 567.7 595.0, 566.9 596.0 Q 566.1 597.0, 566.1 599.0 Q 566.1 601.0, 566.9 602.0 Q 567.7 603.0, 569.4 603.0 Q 570.5 603.0, 571.8 602.3 L 572.2 603.4 Q 571.6 603.7, 570.8 603.9 Q 570.1 604.1, 569.2 604.1 Q 567.0 604.1, 565.8 602.8 Q 564.6 601.5, 564.6 599.0 " fill="#000000"/>
<path class="atom-3" d="M 573.4 593.2 L 574.7 593.2 L 574.7 604.0 L 573.4 604.0 L 573.4 593.2 " fill="#000000"/>
<path class="atom-11" d="M 671.2 647.4 L 672.5 647.4 L 672.5 651.7 L 677.7 651.7 L 677.7 647.4 L 679.0 647.4 L 679.0 657.5 L 677.7 657.5 L 677.7 652.8 L 672.5 652.8 L 672.5 657.5 L 671.2 657.5 L 671.2 647.4 " fill="#000000"/>
<path class="atom-11" d="M 682.6 647.4 L 685.9 652.8 Q 686.2 653.3, 686.7 654.2 Q 687.2 655.2, 687.3 655.2 L 687.3 647.4 L 688.6 647.4 L 688.6 657.5 L 687.2 657.5 L 683.7 651.7 Q 683.3 651.0, 682.8 650.2 Q 682.4 649.4, 682.3 649.2 L 682.3 657.5 L 681.0 657.5 L 681.0 647.4 L 682.6 647.4 " fill="#000000"/>
<path class="atom-11" d="M 690.5 649.2 L 692.3 649.2 L 692.3 647.4 L 693.1 647.4 L 693.1 649.2 L 694.9 649.2 L 694.9 649.9 L 693.1 649.9 L 693.1 651.8 L 692.3 651.8 L 692.3 649.9 L 690.5 649.9 L 690.5 649.2 " fill="#000000"/>
<path class="atom-13" d="M 727.4 693.1 Q 727.4 690.6, 728.6 689.3 Q 729.8 688.0, 732.0 688.0 Q 734.1 688.0, 735.2 689.5 L 734.2 690.2 Q 733.4 689.2, 732.0 689.2 Q 730.5 689.2, 729.7 690.2 Q 728.9 691.2, 728.9 693.1 Q 728.9 695.1, 729.7 696.2 Q 730.5 697.2, 732.1 697.2 Q 733.3 697.2, 734.5 696.5 L 734.9 697.6 Q 734.4 697.9, 733.6 698.1 Q 732.8 698.3, 731.9 698.3 Q 729.8 698.3, 728.6 697.0 Q 727.4 695.6, 727.4 693.1 " fill="#000000"/>
<path class="atom-13" d="M 736.2 687.4 L 737.5 687.4 L 737.5 698.2 L 736.2 698.2 L 736.2 687.4 " fill="#000000"/>
</svg>