<svg xmlns="http://www.w3.org/2000/svg" xmlns:rdkit="http://www.rdkit.org/xml" xmlns:xlink="http://www.w3.org/1999/xlink" version="1.1" baseProfile="full" xml:space="preserve" width="750px" height="750px" viewBox="0 0 750 750">
<!-- END OF HEADER -->
<rect style="opacity:1.0;fill:#FFFFFF;stroke:none" width="250.0" height="250.0" x="0.0" y="0.0"> </rect>
<path class="bond-0 atom-0 atom-1" d="M 51.8,131.7 L 92.1,114.6" style="fill:none;fill-rule:evenodd;stroke:#000000;stroke-width:2.0px;stroke-linecap:butt;stroke-linejoin:miter;stroke-opacity:1"/>
<path class="bond-1 atom-1 atom-2" d="M 113.4,118.0 L 155.0,149.3" style="fill:none;fill-rule:evenodd;stroke:#000000;stroke-width:2.0px;stroke-linecap:butt;stroke-linejoin:miter;stroke-opacity:1"/>
<path class="bond-2 atom-2 atom-3" d="M 155.0,149.3 L 204.5,128.3" style="fill:none;fill-rule:evenodd;stroke:#000000;stroke-width:2.0px;stroke-linecap:butt;stroke-linejoin:miter;stroke-opacity:1"/>
<path class="bond-2 atom-2 atom-3" d="M 156.4,138.1 L 200.7,119.2" style="fill:none;fill-rule:evenodd;stroke:#000000;stroke-width:2.0px;stroke-linecap:butt;stroke-linejoin:miter;stroke-opacity:1"/>
<path d="M 152.9,147.8 L 155.0,149.3 L 157.5,148.3" style="fill:none;stroke:#000000;stroke-width:2.0px;stroke-linecap:butt;stroke-linejoin:miter;stroke-miterlimit:10;stroke-opacity:1;"/>
<path class="atom-0" d="M 17.4 126.4 L 19.9 126.4 L 19.9 134.2 L 29.4 134.2 L 29.4 126.4 L 31.9 126.4 L 31.9 144.9 L 29.4 144.9 L 29.4 136.3 L 19.9 136.3 L 19.9 144.9 L 17.4 144.9 L 17.4 126.4 " fill="#000000"/>
<path class="atom-0" d="M 38.5 126.4 L 44.5 136.2 Q 45.1 137.2, 46.1 138.9 Q 47.1 140.7, 47.1 140.8 L 47.1 126.4 L 49.6 126.4 L 49.6 144.9 L 47.1 144.9 L 40.5 134.2 Q 39.8 132.9, 39.0 131.5 Q 38.2 130.0, 38.0 129.6 L 38.0 144.9 L 35.5 144.9 L 35.5 126.4 L 38.5 126.4 " fill="#000000"/>
<path class="atom-1" d="M 94.2 110.1 Q 94.2 105.6, 96.4 103.1 Q 98.6 100.7, 102.7 100.7 Q 106.9 100.7, 109.0 103.1 Q 111.2 105.6, 111.2 110.1 Q 111.2 114.6, 109.0 117.1 Q 106.8 119.7, 102.7 119.7 Q 98.7 119.7, 96.4 117.1 Q 94.2 114.6, 94.2 110.1 M 102.7 117.6 Q 105.6 117.6, 107.1 115.7 Q 108.6 113.8, 108.6 110.1 Q 108.6 106.4, 107.1 104.6 Q 105.6 102.8, 102.7 102.8 Q 99.9 102.8, 98.4 104.6 Q 96.9 106.4, 96.9 110.1 Q 96.9 113.8, 98.4 115.7 Q 99.9 117.6, 102.7 117.6 " fill="#000000"/>
<path class="atom-3" d="M 204.8 119.3 Q 204.8 114.8, 207.0 112.3 Q 209.2 109.9, 213.3 109.9 Q 217.4 109.9, 219.6 112.3 Q 221.8 114.8, 221.8 119.3 Q 221.8 123.8, 219.5 126.3 Q 217.3 128.9, 213.3 128.9 Q 209.2 128.9, 207.0 126.3 Q 204.8 123.8, 204.8 119.3 M 213.3 126.8 Q 216.1 126.8, 217.6 124.9 Q 219.1 123.0, 219.1 119.3 Q 219.1 115.6, 217.6 113.8 Q 216.1 111.9, 213.3 111.9 Q 210.4 111.9, 208.9 113.8 Q 207.4 115.6, 207.4 119.3 Q 207.4 123.0, 208.9 124.9 Q 210.4 126.8, 213.3 126.8 " fill="#000000"/>
<path class="atom-3" d="M 224.5 113.2 L 227.8 113.2 L 227.8 109.7 L 229.2 109.7 L 229.2 113.2 L 232.6 113.2 L 232.6 114.4 L 229.2 114.4 L 229.2 117.8 L 227.8 117.8 L 227.8 114.4 L 224.5 114.4 L 224.5 113.2 " fill="#000000"/>
<path class="atom-0" d="M 14.8,135.6 L 14.8,135.7 L 14.8,135.9 L 14.7,136.0 L 14.7,136.1 L 14.7,136.2 L 14.6,136.3 L 14.6,136.4 L 14.5,136.5 L 14.4,136.5 L 14.3,136.6 L 14.2,136.7 L 14.2,136.8 L 14.1,136.8 L 13.9,136.9 L 13.8,136.9 L 13.7,136.9 L 13.6,136.9 L 13.5,136.9 L 13.4,136.9 L 13.3,136.9 L 13.2,136.9 L 13.1,136.9 L 13.0,136.8 L 12.9,136.8 L 12.8,136.7 L 12.7,136.7 L 12.6,136.6 L 12.5,136.5 L 12.4,136.4 L 12.4,136.3 L 12.3,136.2 L 12.3,136.1 L 12.2,136.0 L 12.2,135.9 L 12.2,135.8 L 12.2,135.7 L 12.2,135.6 L 12.2,135.5 L 12.2,135.4 L 12.2,135.2 L 12.3,135.1 L 12.3,135.0 L 12.4,134.9 L 12.4,134.8 L 12.5,134.8 L 12.6,134.7 L 12.7,134.6 L 12.8,134.5 L 12.9,134.5 L 13.0,134.4 L 13.1,134.4 L 13.2,134.4 L 13.3,134.3 L 13.4,134.3 L 13.5,134.3 L 13.6,134.3 L 13.7,134.3 L 13.8,134.4 L 13.9,134.4 L 14.1,134.5 L 14.2,134.5 L 14.2,134.6 L 14.3,134.6 L 14.4,134.7 L 14.5,134.8 L 14.6,134.9 L 14.6,135.0 L 14.7,135.1 L 14.7,135.2 L 14.7,135.3 L 14.8,135.4 L 14.8,135.5 L 14.8,135.6 L 13.5,135.6 Z" style="fill:#000000;fill-rule:evenodd;fill-opacity:1;stroke:#000000;stroke-width:0.0px;stroke-linecap:butt;stroke-linejoin:miter;stroke-miterlimit:10;stroke-opacity:1;"/>
<path class="atom-3" d="M 237.8,123.7 L 237.8,123.8 L 237.8,124.0 L 237.8,124.1 L 237.8,124.2 L 237.7,124.3 L 237.7,124.4 L 237.6,124.5 L 237.5,124.6 L 237.5,124.6 L 237.4,124.7 L 237.3,124.8 L 237.2,124.9 L 237.1,124.9 L 237.0,125.0 L 236.9,125.0 L 236.8,125.0 L 236.7,125.0 L 236.5,125.0 L 236.4,125.0 L 236.3,125.0 L 236.2,125.0 L 236.1,125.0 L 236.0,124.9 L 235.9,124.9 L 235.8,124.8 L 235.7,124.8 L 235.6,124.7 L 235.5,124.6 L 235.5,124.5 L 235.4,124.4 L 235.4,124.3 L 235.3,124.2 L 235.3,124.1 L 235.2,124.0 L 235.2,123.9 L 235.2,123.8 L 235.2,123.7 L 235.2,123.6 L 235.2,123.5 L 235.3,123.3 L 235.3,123.2 L 235.4,123.1 L 235.4,123.0 L 235.5,122.9 L 235.5,122.9 L 235.6,122.8 L 235.7,122.7 L 235.8,122.6 L 235.9,122.6 L 236.0,122.5 L 236.1,122.5 L 236.2,122.5 L 236.3,122.4 L 236.4,122.4 L 236.5,122.4 L 236.7,122.4 L 236.8,122.4 L 236.9,122.5 L 237.0,122.5 L 237.1,122.6 L 237.2,122.6 L 237.3,122.7 L 237.4,122.7 L 237.5,122.8 L 237.5,122.9 L 237.6,123.0 L 237.7,123.1 L 237.7,123.2 L 237.8,123.3 L 237.8,123.4 L 237.8,123.5 L 237.8,123.6 L 237.8,123.7 L 236.5,123.7 Z" style="fill:#000000;fill-rule:evenodd;fill-opacity:1;stroke:#000000;stroke-width:0.0px;stroke-linecap:butt;stroke-linejoin:miter;stroke-miterlimit:10;stroke-opacity:1;"/>
<path class="bond-0 atom-0 atom-1" d="M 421.9,125.0 L 325.5,125.0" style="fill:none;fill-rule:evenodd;stroke:#000000;stroke-width:2.0px;stroke-linecap:butt;stroke-linejoin:miter;stroke-opacity:1"/>
<path class="atom-0" d="M 434.4 110.8 Q 439.2 110.8, 441.6 113.0 Q 444.1 115.2, 444.1 119.2 Q 444.1 123.1, 441.6 125.3 Q 439.1 127.5, 434.4 127.5 L 429.8 127.5 L 429.8 139.2 L 426.0 139.2 L 426.0 110.8 L 434.4 110.8 M 434.4 124.3 Q 437.1 124.3, 438.6 123.0 Q 440.1 121.7, 440.1 119.2 Q 440.1 116.6, 438.6 115.4 Q 437.2 114.0, 434.4 114.0 L 429.8 114.0 L 429.8 124.3 L 434.4 124.3 " fill="#000000"/>
<path class="atom-0" d="M 448.0 110.8 L 451.8 110.8 L 451.8 122.9 L 466.3 122.9 L 466.3 110.8 L 470.1 110.8 L 470.1 139.2 L 466.3 139.2 L 466.3 126.1 L 451.8 126.1 L 451.8 139.2 L 448.0 139.2 L 448.0 110.8 " fill="#000000"/>
<path class="atom-1" d="M 272.4 110.8 L 276.2 110.8 L 276.2 122.9 L 290.7 122.9 L 290.7 110.8 L 294.5 110.8 L 294.5 139.2 L 290.7 139.2 L 290.7 126.1 L 276.2 126.1 L 276.2 139.2 L 272.4 139.2 L 272.4 110.8 " fill="#000000"/>
<path class="atom-1" d="M 304.4 110.8 L 313.6 125.8 Q 314.6 127.3, 316.0 130.0 Q 317.5 132.7, 317.6 132.8 L 317.6 110.8 L 321.4 110.8 L 321.4 139.2 L 317.5 139.2 L 307.5 122.8 Q 306.4 120.8, 305.1 118.6 Q 303.9 116.4, 303.6 115.8 L 303.6 139.2 L 299.9 139.2 L 299.9 110.8 L 304.4 110.8 " fill="#000000"/>
<path class="atom-1" d="M 326.6 115.5 L 336.3 115.5 L 336.3 117.6 L 326.6 117.6 L 326.6 115.5 " fill="#000000"/>
<path class="atom-0" d="M 478.1,125.0 L 478.1,125.2 L 478.1,125.3 L 478.1,125.5 L 478.0,125.7 L 477.9,125.8 L 477.9,126.0 L 477.8,126.1 L 477.7,126.3 L 477.6,126.4 L 477.4,126.5 L 477.3,126.6 L 477.2,126.7 L 477.0,126.8 L 476.8,126.9 L 476.7,126.9 L 476.5,127.0 L 476.3,127.0 L 476.2,127.0 L 476.0,127.0 L 475.8,127.0 L 475.7,126.9 L 475.5,126.9 L 475.3,126.8 L 475.2,126.8 L 475.0,126.7 L 474.9,126.6 L 474.8,126.5 L 474.6,126.3 L 474.5,126.2 L 474.4,126.1 L 474.3,125.9 L 474.3,125.8 L 474.2,125.6 L 474.2,125.4 L 474.1,125.3 L 474.1,125.1 L 474.1,124.9 L 474.1,124.7 L 474.2,124.6 L 474.2,124.4 L 474.3,124.2 L 474.3,124.1 L 474.4,123.9 L 474.5,123.8 L 474.6,123.7 L 474.8,123.5 L 474.9,123.4 L 475.0,123.3 L 475.2,123.2 L 475.3,123.2 L 475.5,123.1 L 475.7,123.1 L 475.8,123.0 L 476.0,123.0 L 476.2,123.0 L 476.3,123.0 L 476.5,123.0 L 476.7,123.1 L 476.8,123.1 L 477.0,123.2 L 477.2,123.3 L 477.3,123.4 L 477.4,123.5 L 477.6,123.6 L 477.7,123.7 L 477.8,123.9 L 477.9,124.0 L 477.9,124.2 L 478.0,124.3 L 478.1,124.5 L 478.1,124.7 L 478.1,124.8 L 478.1,125.0 L 476.1,125.0 Z" style="fill:#000000;fill-rule:evenodd;fill-opacity:1;stroke:#000000;stroke-width:0.0px;stroke-linecap:butt;stroke-linejoin:miter;stroke-miterlimit:10;stroke-opacity:1;"/>
<path class="bond-0 atom-0 atom-1" d="M 512.5,140.0 L 556.4,114.7" style="fill:none;fill-rule:evenodd;stroke:#000000;stroke-width:2.0px;stroke-linecap:butt;stroke-linejoin:miter;stroke-opacity:1"/>
<path class="bond-1 atom-1 atom-2" d="M 573.6,114.7 L 607.6,134.3" style="fill:none;fill-rule:evenodd;stroke:#000000;stroke-width:2.0px;stroke-linecap:butt;stroke-linejoin:miter;stroke-opacity:1"/>
<path class="bond-2 atom-2 atom-3" d="M 636.2,129.2 L 670.0,109.7" style="fill:none;fill-rule:evenodd;stroke:#000000;stroke-width:2.0px;stroke-linecap:butt;stroke-linejoin:miter;stroke-opacity:1"/>
<path class="bond-2 atom-2 atom-3" d="M 631.7,121.3 L 665.4,101.8" style="fill:none;fill-rule:evenodd;stroke:#000000;stroke-width:2.0px;stroke-linecap:butt;stroke-linejoin:miter;stroke-opacity:1"/>
<path class="bond-3 atom-3 atom-4" d="M 670.0,109.7 L 714.6,135.5" style="fill:none;fill-rule:evenodd;stroke:#000000;stroke-width:2.0px;stroke-linecap:butt;stroke-linejoin:miter;stroke-opacity:1"/>
<path d="M 668.3,110.7 L 670.0,109.7 L 672.2,111.0" style="fill:none;stroke:#000000;stroke-width:2.0px;stroke-linecap:butt;stroke-linejoin:miter;stroke-miterlimit:10;stroke-opacity:1;"/>
<path class="atom-1" d="M 558.4 109.8 Q 558.4 105.5, 560.4 103.3 Q 562.4 101.0, 566.2 101.0 Q 569.7 101.0, 571.6 103.5 L 570.0 104.8 Q 568.6 103.0, 566.2 103.0 Q 563.6 103.0, 562.2 104.8 Q 560.8 106.5, 560.8 109.8 Q 560.8 113.2, 562.3 114.9 Q 563.7 116.7, 566.4 116.7 Q 568.3 116.7, 570.5 115.5 L 571.2 117.4 Q 570.3 117.9, 569.0 118.3 Q 567.6 118.6, 566.1 118.6 Q 562.4 118.6, 560.4 116.3 Q 558.4 114.1, 558.4 109.8 " fill="#000000"/>
<path class="atom-1" d="M 573.7 103.9 L 579.6 103.9 L 579.6 105.1 L 573.7 105.1 L 573.7 103.9 " fill="#000000"/>
<path class="atom-2" d="M 609.6 140.1 Q 609.6 135.9, 611.6 133.6 Q 613.7 131.3, 617.5 131.3 Q 621.3 131.3, 623.3 133.6 Q 625.4 135.9, 625.4 140.1 Q 625.4 144.2, 623.3 146.6 Q 621.2 149.0, 617.5 149.0 Q 613.7 149.0, 611.6 146.6 Q 609.6 144.3, 609.6 140.1 M 617.5 147.0 Q 620.1 147.0, 621.5 145.3 Q 622.9 143.5, 622.9 140.1 Q 622.9 136.7, 621.5 135.0 Q 620.1 133.3, 617.5 133.3 Q 614.9 133.3, 613.4 135.0 Q 612.0 136.7, 612.0 140.1 Q 612.0 143.5, 613.4 145.3 Q 614.9 147.0, 617.5 147.0 " fill="#000000"/>
<path class="atom-2" d="M 627.9 134.4 L 631.0 134.4 L 631.0 131.2 L 632.3 131.2 L 632.3 134.4 L 635.4 134.4 L 635.4 135.5 L 632.3 135.5 L 632.3 138.7 L 631.0 138.7 L 631.0 135.5 L 627.9 135.5 L 627.9 134.4 " fill="#000000"/>
<path class="atom-4" d="M 725.0 139.6 Q 726.6 140.0, 727.4 141.1 Q 728.3 142.1, 728.3 143.5 Q 728.3 145.9, 726.8 147.3 Q 725.3 148.6, 722.4 148.6 L 716.6 148.6 L 716.6 131.4 L 721.7 131.4 Q 724.6 131.4, 726.1 132.6 Q 727.6 133.8, 727.6 136.0 Q 727.6 138.6, 725.0 139.6 M 718.9 133.4 L 718.9 138.8 L 721.7 138.8 Q 723.4 138.8, 724.3 138.1 Q 725.2 137.4, 725.2 136.0 Q 725.2 133.4, 721.7 133.4 L 718.9 133.4 M 722.4 146.7 Q 724.1 146.7, 725.0 145.9 Q 725.9 145.1, 725.9 143.5 Q 725.9 142.1, 724.9 141.4 Q 723.9 140.7, 722.0 140.7 L 718.9 140.7 L 718.9 146.7 L 722.4 146.7 " fill="#000000"/>
<path class="atom-4" d="M 732.2 136.1 L 732.5 137.9 Q 733.8 135.9, 735.9 135.9 Q 736.6 135.9, 737.5 136.2 L 737.1 138.2 Q 736.1 138.0, 735.5 138.0 Q 734.5 138.0, 733.8 138.4 Q 733.2 138.8, 732.6 139.7 L 732.6 148.6 L 730.3 148.6 L 730.3 136.1 L 732.2 136.1 " fill="#000000"/>
<path class="bond-0 atom-0 atom-1" d="M 37.7,375.0 L 157.4,375.0" style="fill:none;fill-rule:evenodd;stroke:#000000;stroke-width:2.0px;stroke-linecap:butt;stroke-linejoin:miter;stroke-opacity:1"/>
<path class="atom-1" d="M 166.4 360.8 L 175.7 375.8 Q 176.6 377.3, 178.1 380.0 Q 179.5 382.7, 179.6 382.8 L 179.6 360.8 L 183.4 360.8 L 183.4 389.2 L 179.5 389.2 L 169.5 372.8 Q 168.4 370.8, 167.1 368.6 Q 165.9 366.4, 165.6 365.8 L 165.6 389.2 L 161.9 389.2 L 161.9 360.8 L 166.4 360.8 " fill="#000000"/>
<path class="atom-1" d="M 188.6 360.8 L 192.5 360.8 L 192.5 372.9 L 207.0 372.9 L 207.0 360.8 L 210.8 360.8 L 210.8 389.2 L 207.0 389.2 L 207.0 376.1 L 192.5 376.1 L 192.5 389.2 L 188.6 389.2 L 188.6 360.8 " fill="#000000"/>
<path class="atom-1" d="M 216.1 365.5 L 225.8 365.5 L 225.8 367.6 L 216.1 367.6 L 216.1 365.5 " fill="#000000"/>
<path class="atom-0" d="M 27.7,379.0 L 27.7,379.2 L 27.6,379.3 L 27.6,379.5 L 27.5,379.7 L 27.5,379.8 L 27.4,380.0 L 27.3,380.1 L 27.2,380.3 L 27.1,380.4 L 27.0,380.5 L 26.8,380.6 L 26.7,380.7 L 26.5,380.8 L 26.4,380.9 L 26.2,380.9 L 26.0,381.0 L 25.9,381.0 L 25.7,381.0 L 25.5,381.0 L 25.4,381.0 L 25.2,380.9 L 25.0,380.9 L 24.9,380.8 L 24.7,380.8 L 24.6,380.7 L 24.4,380.6 L 24.3,380.5 L 24.2,380.3 L 24.1,380.2 L 24.0,380.1 L 23.9,379.9 L 23.8,379.8 L 23.8,379.6 L 23.7,379.4 L 23.7,379.3 L 23.7,379.1 L 23.7,378.9 L 23.7,378.7 L 23.7,378.6 L 23.8,378.4 L 23.8,378.2 L 23.9,378.1 L 24.0,377.9 L 24.1,377.8 L 24.2,377.7 L 24.3,377.5 L 24.4,377.4 L 24.6,377.3 L 24.7,377.2 L 24.9,377.2 L 25.0,377.1 L 25.2,377.1 L 25.4,377.0 L 25.5,377.0 L 25.7,377.0 L 25.9,377.0 L 26.0,377.0 L 26.2,377.1 L 26.4,377.1 L 26.5,377.2 L 26.7,377.3 L 26.8,377.4 L 27.0,377.5 L 27.1,377.6 L 27.2,377.7 L 27.3,377.9 L 27.4,378.0 L 27.5,378.2 L 27.5,378.3 L 27.6,378.5 L 27.6,378.7 L 27.7,378.8 L 27.7,379.0 L 25.7,379.0 Z" style="fill:#000000;fill-rule:evenodd;fill-opacity:1;stroke:#000000;stroke-width:0.0px;stroke-linecap:butt;stroke-linejoin:miter;stroke-miterlimit:10;stroke-opacity:1;"/>
<path class="atom-0" d="M 27.7,371.0 L 27.7,371.2 L 27.6,371.3 L 27.6,371.5 L 27.5,371.7 L 27.5,371.8 L 27.4,372.0 L 27.3,372.1 L 27.2,372.3 L 27.1,372.4 L 27.0,372.5 L 26.8,372.6 L 26.7,372.7 L 26.5,372.8 L 26.4,372.9 L 26.2,372.9 L 26.0,373.0 L 25.9,373.0 L 25.7,373.0 L 25.5,373.0 L 25.4,373.0 L 25.2,372.9 L 25.0,372.9 L 24.9,372.8 L 24.7,372.8 L 24.6,372.7 L 24.4,372.6 L 24.3,372.5 L 24.2,372.3 L 24.1,372.2 L 24.0,372.1 L 23.9,371.9 L 23.8,371.8 L 23.8,371.6 L 23.7,371.4 L 23.7,371.3 L 23.7,371.1 L 23.7,370.9 L 23.7,370.7 L 23.7,370.6 L 23.8,370.4 L 23.8,370.2 L 23.9,370.1 L 24.0,369.9 L 24.1,369.8 L 24.2,369.7 L 24.3,369.5 L 24.4,369.4 L 24.6,369.3 L 24.7,369.2 L 24.9,369.2 L 25.0,369.1 L 25.2,369.1 L 25.4,369.0 L 25.5,369.0 L 25.7,369.0 L 25.9,369.0 L 26.0,369.0 L 26.2,369.1 L 26.4,369.1 L 26.5,369.2 L 26.7,369.3 L 26.8,369.4 L 27.0,369.5 L 27.1,369.6 L 27.2,369.7 L 27.3,369.9 L 27.4,370.0 L 27.5,370.2 L 27.5,370.3 L 27.6,370.5 L 27.6,370.7 L 27.7,370.8 L 27.7,371.0 L 25.7,371.0 Z" style="fill:#000000;fill-rule:evenodd;fill-opacity:1;stroke:#000000;stroke-width:0.0px;stroke-linecap:butt;stroke-linejoin:miter;stroke-miterlimit:10;stroke-opacity:1;"/>
<path class="bond-0 atom-0 atom-1" d="M 427.4,375.0 L 322.6,375.0" style="fill:none;fill-rule:evenodd;stroke:#000000;stroke-width:2.0px;stroke-linecap:butt;stroke-linejoin:miter;stroke-opacity:1"/>
<path class="bond-0 atom-0 atom-1" d="M 427.4,398.7 L 322.6,398.7" style="fill:none;fill-rule:evenodd;stroke:#000000;stroke-width:2.0px;stroke-linecap:butt;stroke-linejoin:miter;stroke-opacity:1"/>
<path class="bond-0 atom-0 atom-1" d="M 427.4,351.3 L 322.6,351.3" style="fill:none;fill-rule:evenodd;stroke:#000000;stroke-width:2.0px;stroke-linecap:butt;stroke-linejoin:miter;stroke-opacity:1"/>
<path class="atom-0" d="M 432.6 375.1 Q 432.6 368.3, 436.0 364.5 Q 439.4 360.7, 445.6 360.7 Q 451.9 360.7, 455.3 364.5 Q 458.6 368.3, 458.6 375.1 Q 458.6 382.0, 455.2 385.9 Q 451.8 389.8, 445.6 389.8 Q 439.4 389.8, 436.0 385.9 Q 432.6 382.0, 432.6 375.1 M 445.6 386.6 Q 450.0 386.6, 452.3 383.7 Q 454.6 380.8, 454.6 375.1 Q 454.6 369.5, 452.3 366.7 Q 450.0 363.9, 445.6 363.9 Q 441.3 363.9, 439.0 366.7 Q 436.6 369.5, 436.6 375.1 Q 436.6 380.8, 439.0 383.7 Q 441.3 386.6, 445.6 386.6 " fill="#000000"/>
<path class="atom-0" d="M 462.9 365.7 L 467.9 365.7 L 467.9 360.5 L 470.1 360.5 L 470.1 365.7 L 475.2 365.7 L 475.2 367.6 L 470.1 367.6 L 470.1 372.9 L 467.9 372.9 L 467.9 367.6 L 462.9 367.6 L 462.9 365.7 " fill="#000000"/>
<path class="atom-1" d="M 274.8 375.1 Q 274.8 368.3, 278.2 364.5 Q 281.5 360.7, 287.8 360.7 Q 294.1 360.7, 297.4 364.5 Q 300.8 368.3, 300.8 375.1 Q 300.8 382.0, 297.4 385.9 Q 294.0 389.8, 287.8 389.8 Q 281.6 389.8, 278.2 385.9 Q 274.8 382.0, 274.8 375.1 M 287.8 386.6 Q 292.1 386.6, 294.4 383.7 Q 296.8 380.8, 296.8 375.1 Q 296.8 369.5, 294.4 366.7 Q 292.1 363.9, 287.8 363.9 Q 283.5 363.9, 281.1 366.7 Q 278.8 369.5, 278.8 375.1 Q 278.8 380.8, 281.1 383.7 Q 283.5 386.6, 287.8 386.6 " fill="#000000"/>
<path class="atom-1" d="M 305.0 365.7 L 310.0 365.7 L 310.0 360.5 L 312.2 360.5 L 312.2 365.7 L 317.4 365.7 L 317.4 367.6 L 312.2 367.6 L 312.2 372.9 L 310.0 372.9 L 310.0 367.6 L 305.0 367.6 L 305.0 365.7 " fill="#000000"/>
<path class="bond-0 atom-0 atom-1" d="M 729.9,358.3 L 720.4,362.6" style="fill:none;fill-rule:evenodd;stroke:#000000;stroke-width:2.0px;stroke-linecap:butt;stroke-linejoin:miter;stroke-opacity:1"/>
<path class="bond-0 atom-0 atom-1" d="M 728.6,355.3 L 719.0,359.6" style="fill:none;fill-rule:evenodd;stroke:#000000;stroke-width:2.0px;stroke-linecap:butt;stroke-linejoin:miter;stroke-opacity:1"/>
<path class="bond-1 atom-1 atom-2" d="M 712.2,368.2 L 710.4,385.8" style="fill:none;fill-rule:evenodd;stroke:#000000;stroke-width:2.0px;stroke-linecap:butt;stroke-linejoin:miter;stroke-opacity:1"/>
<path class="bond-2 atom-2 atom-3" d="M 710.4,385.8 L 693.7,393.2" style="fill:none;fill-rule:evenodd;stroke:#000000;stroke-width:2.0px;stroke-linecap:butt;stroke-linejoin:miter;stroke-opacity:1"/>
<path class="bond-2 atom-2 atom-3" d="M 707.4,383.6 L 692.4,390.3" style="fill:none;fill-rule:evenodd;stroke:#000000;stroke-width:2.0px;stroke-linecap:butt;stroke-linejoin:miter;stroke-opacity:1"/>
<path class="bond-3 atom-3 atom-4" d="M 687.6,392.4 L 676.2,384.1" style="fill:none;fill-rule:evenodd;stroke:#000000;stroke-width:2.0px;stroke-linecap:butt;stroke-linejoin:miter;stroke-opacity:1"/>
<path class="bond-4 atom-4 atom-5" d="M 670.1,383.3 L 653.4,390.8" style="fill:none;fill-rule:evenodd;stroke:#000000;stroke-width:2.0px;stroke-linecap:butt;stroke-linejoin:miter;stroke-opacity:1"/>
<path class="bond-5 atom-5 atom-6" d="M 653.4,390.8 L 639.0,380.3" style="fill:none;fill-rule:evenodd;stroke:#000000;stroke-width:2.0px;stroke-linecap:butt;stroke-linejoin:miter;stroke-opacity:1"/>
<path class="bond-6 atom-6 atom-7" d="M 632.9,379.5 L 616.2,386.9" style="fill:none;fill-rule:evenodd;stroke:#000000;stroke-width:2.0px;stroke-linecap:butt;stroke-linejoin:miter;stroke-opacity:1"/>
<path class="bond-7 atom-7 atom-8" d="M 616.2,386.9 L 602.2,376.8" style="fill:none;fill-rule:evenodd;stroke:#000000;stroke-width:2.0px;stroke-linecap:butt;stroke-linejoin:miter;stroke-opacity:1"/>
<path class="bond-8 atom-8 atom-9" d="M 595.2,375.9 L 582.0,381.8" style="fill:none;fill-rule:evenodd;stroke:#000000;stroke-width:2.0px;stroke-linecap:butt;stroke-linejoin:miter;stroke-opacity:1"/>
<path class="bond-9 atom-9 atom-10" d="M 576.0,380.9 L 561.5,370.5" style="fill:none;fill-rule:evenodd;stroke:#000000;stroke-width:2.0px;stroke-linecap:butt;stroke-linejoin:miter;stroke-opacity:1"/>
<path class="bond-10 atom-10 atom-11" d="M 561.5,370.5 L 541.8,379.3" style="fill:none;fill-rule:evenodd;stroke:#000000;stroke-width:2.0px;stroke-linecap:butt;stroke-linejoin:miter;stroke-opacity:1"/>
<path class="bond-10 atom-10 atom-11" d="M 561.1,374.2 L 543.1,382.3" style="fill:none;fill-rule:evenodd;stroke:#000000;stroke-width:2.0px;stroke-linecap:butt;stroke-linejoin:miter;stroke-opacity:1"/>
<path class="bond-11 atom-11 atom-12" d="M 541.8,379.3 L 527.3,368.8" style="fill:none;fill-rule:evenodd;stroke:#000000;stroke-width:2.0px;stroke-linecap:butt;stroke-linejoin:miter;stroke-opacity:1"/>
<path d="M 710.5,384.9 L 710.4,385.8 L 709.6,386.1" style="fill:none;stroke:#000000;stroke-width:2.0px;stroke-linecap:butt;stroke-linejoin:miter;stroke-miterlimit:10;stroke-opacity:1;"/>
<path d="M 654.3,390.4 L 653.4,390.8 L 652.7,390.2" style="fill:none;stroke:#000000;stroke-width:2.0px;stroke-linecap:butt;stroke-linejoin:miter;stroke-miterlimit:10;stroke-opacity:1;"/>
<path d="M 617.1,386.6 L 616.2,386.9 L 615.5,386.4" style="fill:none;stroke:#000000;stroke-width:2.0px;stroke-linecap:butt;stroke-linejoin:miter;stroke-miterlimit:10;stroke-opacity:1;"/>
<path d="M 562.2,371.0 L 561.5,370.5 L 560.5,370.9" style="fill:none;stroke:#000000;stroke-width:2.0px;stroke-linecap:butt;stroke-linejoin:miter;stroke-miterlimit:10;stroke-opacity:1;"/>
<path d="M 542.8,378.9 L 541.8,379.3 L 541.1,378.8" style="fill:none;stroke:#000000;stroke-width:2.0px;stroke-linecap:butt;stroke-linejoin:miter;stroke-miterlimit:10;stroke-opacity:1;"/>
<path class="atom-0" d="M 729.9 355.5 Q 729.9 353.9, 730.7 353.1 Q 731.4 352.3, 732.7 352.3 Q 734.0 352.3, 734.7 353.2 L 734.1 353.7 Q 733.6 353.1, 732.7 353.1 Q 731.8 353.1, 731.3 353.7 Q 730.8 354.3, 730.8 355.5 Q 730.8 356.7, 731.3 357.3 Q 731.8 357.9, 732.8 357.9 Q 733.5 357.9, 734.3 357.5 L 734.5 358.2 Q 734.2 358.4, 733.7 358.5 Q 733.2 358.6, 732.7 358.6 Q 731.4 358.6, 730.7 357.8 Q 729.9 357.0, 729.9 355.5 " fill="#000000"/>
<path class="atom-0" d="M 735.4 353.4 L 737.5 353.4 L 737.5 353.8 L 735.4 353.8 L 735.4 353.4 " fill="#000000"/>
<path class="atom-1" d="M 709.8 364.3 Q 709.8 362.8, 710.5 362.0 Q 711.2 361.2, 712.6 361.2 Q 713.9 361.2, 714.7 362.0 Q 715.4 362.8, 715.4 364.3 Q 715.4 365.8, 714.7 366.6 Q 713.9 367.5, 712.6 367.5 Q 711.2 367.5, 710.5 366.6 Q 709.8 365.8, 709.8 364.3 M 712.6 366.8 Q 713.5 366.8, 714.0 366.1 Q 714.5 365.5, 714.5 364.3 Q 714.5 363.1, 714.0 362.5 Q 713.5 361.9, 712.6 361.9 Q 711.7 361.9, 711.1 362.5 Q 710.6 363.1, 710.6 364.3 Q 710.6 365.5, 711.1 366.1 Q 711.7 366.8, 712.6 366.8 " fill="#000000"/>
<path class="atom-1" d="M 716.3 362.3 L 717.4 362.3 L 717.4 361.1 L 717.9 361.1 L 717.9 362.3 L 719.0 362.3 L 719.0 362.7 L 717.9 362.7 L 717.9 363.8 L 717.4 363.8 L 717.4 362.7 L 716.3 362.7 L 716.3 362.3 " fill="#000000"/>
<path class="atom-3" d="M 689.3 391.5 L 691.3 394.8 Q 691.5 395.1, 691.8 395.7 Q 692.2 396.3, 692.2 396.3 L 692.2 391.5 L 693.0 391.5 L 693.0 397.7 L 692.2 397.7 L 690.0 394.1 Q 689.7 393.7, 689.5 393.2 Q 689.2 392.7, 689.1 392.6 L 689.1 397.7 L 688.3 397.7 L 688.3 391.5 L 689.3 391.5 " fill="#000000"/>
<path class="atom-4" d="M 671.8 378.9 L 673.8 382.1 Q 674.0 382.4, 674.3 383.0 Q 674.7 383.6, 674.7 383.6 L 674.7 378.9 L 675.5 378.9 L 675.5 385.0 L 674.6 385.0 L 672.5 381.5 Q 672.2 381.0, 672.0 380.6 Q 671.7 380.1, 671.6 379.9 L 671.6 385.0 L 670.8 385.0 L 670.8 378.9 L 671.8 378.9 " fill="#000000"/>
<path class="atom-4" d="M 670.8 372.1 L 671.6 372.1 L 671.6 374.8 L 674.7 374.8 L 674.7 372.1 L 675.6 372.1 L 675.6 378.3 L 674.7 378.3 L 674.7 375.4 L 671.6 375.4 L 671.6 378.3 L 670.8 378.3 L 670.8 372.1 " fill="#000000"/>
<path class="atom-4" d="M 676.7 378.1 Q 676.9 377.7, 677.2 377.5 Q 677.6 377.2, 678.1 377.2 Q 678.7 377.2, 679.0 377.6 Q 679.4 377.9, 679.4 378.5 Q 679.4 379.1, 678.9 379.6 Q 678.5 380.2, 677.6 380.9 L 679.4 380.9 L 679.4 381.3 L 676.7 381.3 L 676.7 380.9 Q 677.5 380.4, 677.9 380.0 Q 678.4 379.6, 678.6 379.3 Q 678.8 378.9, 678.8 378.5 Q 678.8 378.1, 678.6 377.9 Q 678.4 377.7, 678.1 377.7 Q 677.8 377.7, 677.5 377.8 Q 677.3 378.0, 677.2 378.3 L 676.7 378.1 " fill="#000000"/>
<path class="atom-4" d="M 676.8 373.3 L 677.8 373.3 L 677.8 372.1 L 678.3 372.1 L 678.3 373.3 L 679.4 373.3 L 679.4 373.7 L 678.3 373.7 L 678.3 374.8 L 677.8 374.8 L 677.8 373.7 L 676.8 373.7 L 676.8 373.3 " fill="#000000"/>
<path class="atom-6" d="M 634.6 375.1 L 636.6 378.3 Q 636.8 378.6, 637.1 379.2 Q 637.4 379.8, 637.4 379.8 L 637.4 375.1 L 638.3 375.1 L 638.3 381.2 L 637.4 381.2 L 635.3 377.6 Q 635.0 377.2, 634.8 376.7 Q 634.5 376.3, 634.4 376.1 L 634.4 381.2 L 633.6 381.2 L 633.6 375.1 L 634.6 375.1 " fill="#000000"/>
<path class="atom-6" d="M 633.5 368.3 L 634.4 368.3 L 634.4 370.9 L 637.5 370.9 L 637.5 368.3 L 638.3 368.3 L 638.3 374.4 L 637.5 374.4 L 637.5 371.6 L 634.4 371.6 L 634.4 374.4 L 633.5 374.4 L 633.5 368.3 " fill="#000000"/>
<path class="atom-8" d="M 595.9 374.3 Q 595.9 372.8, 596.6 372.0 Q 597.4 371.2, 598.7 371.2 Q 600.1 371.2, 600.8 372.0 Q 601.5 372.8, 601.5 374.3 Q 601.5 375.8, 600.8 376.6 Q 600.1 377.5, 598.7 377.5 Q 597.4 377.5, 596.6 376.6 Q 595.9 375.8, 595.9 374.3 M 598.7 376.8 Q 599.7 376.8, 600.2 376.2 Q 600.7 375.5, 600.7 374.3 Q 600.7 373.1, 600.2 372.5 Q 599.7 371.9, 598.7 371.9 Q 597.8 371.9, 597.3 372.5 Q 596.8 373.1, 596.8 374.3 Q 596.8 375.5, 597.3 376.2 Q 597.8 376.8, 598.7 376.8 " fill="#000000"/>
<path class="atom-9" d="M 577.6 380.1 L 579.7 383.3 Q 579.9 383.6, 580.2 384.2 Q 580.5 384.8, 580.5 384.8 L 580.5 380.1 L 581.3 380.1 L 581.3 386.2 L 580.5 386.2 L 578.3 382.6 Q 578.1 382.2, 577.8 381.7 Q 577.6 381.3, 577.5 381.1 L 577.5 386.2 L 576.7 386.2 L 576.7 380.1 L 577.6 380.1 " fill="#000000"/>
<path class="atom-9" d="M 576.6 386.8 L 577.4 386.8 L 577.4 389.4 L 580.6 389.4 L 580.6 386.8 L 581.4 386.8 L 581.4 392.9 L 580.6 392.9 L 580.6 390.1 L 577.4 390.1 L 577.4 392.9 L 576.6 392.9 L 576.6 386.8 " fill="#000000"/>
<path class="atom-12" d="M 512.5 363.6 L 513.3 363.6 L 513.3 366.2 L 516.5 366.2 L 516.5 363.6 L 517.3 363.6 L 517.3 369.7 L 516.5 369.7 L 516.5 366.9 L 513.3 366.9 L 513.3 369.7 L 512.5 369.7 L 512.5 363.6 " fill="#000000"/>
<path class="atom-12" d="M 520.4 370.6 Q 520.8 370.7, 521.0 371.0 Q 521.2 371.3, 521.2 371.7 Q 521.2 372.0, 521.0 372.3 Q 520.8 372.5, 520.5 372.7 Q 520.2 372.8, 519.8 372.8 Q 519.4 372.8, 519.0 372.7 Q 518.7 372.5, 518.5 372.2 L 518.8 371.9 Q 519.0 372.1, 519.2 372.3 Q 519.5 372.4, 519.8 372.4 Q 520.2 372.4, 520.4 372.2 Q 520.6 372.0, 520.6 371.6 Q 520.6 371.2, 520.4 371.1 Q 520.1 370.9, 519.6 370.9 L 519.4 370.9 L 519.4 370.5 L 519.6 370.5 Q 520.1 370.5, 520.3 370.3 Q 520.5 370.1, 520.5 369.7 Q 520.5 369.4, 520.3 369.3 Q 520.1 369.1, 519.8 369.1 Q 519.5 369.1, 519.3 369.3 Q 519.0 369.4, 518.9 369.7 L 518.5 369.5 Q 518.6 369.1, 519.0 368.9 Q 519.3 368.7, 519.8 368.7 Q 520.4 368.7, 520.7 369.0 Q 521.1 369.2, 521.1 369.7 Q 521.1 370.0, 520.9 370.3 Q 520.7 370.5, 520.4 370.6 " fill="#000000"/>
<path class="atom-12" d="M 522.9 363.6 L 524.9 366.8 Q 525.1 367.1, 525.4 367.7 Q 525.8 368.3, 525.8 368.3 L 525.8 363.6 L 526.6 363.6 L 526.6 369.7 L 525.8 369.7 L 523.6 366.2 Q 523.4 365.7, 523.1 365.3 Q 522.8 364.8, 522.7 364.6 L 522.7 369.7 L 522.0 369.7 L 522.0 363.6 L 522.9 363.6 " fill="#000000"/>
<path class="atom-12" d="M 527.7 364.7 L 528.8 364.7 L 528.8 363.6 L 529.3 363.6 L 529.3 364.7 L 530.4 364.7 L 530.4 365.1 L 529.3 365.1 L 529.3 366.2 L 528.8 366.2 L 528.8 365.1 L 527.7 365.1 L 527.7 364.7 " fill="#000000"/>
<path class="atom-5" d="M 653.9,392.7 L 653.9,392.8 L 653.9,392.8 L 653.9,392.8 L 653.9,392.9 L 653.8,392.9 L 653.8,392.9 L 653.8,393.0 L 653.8,393.0 L 653.8,393.0 L 653.7,393.0 L 653.7,393.1 L 653.7,393.1 L 653.6,393.1 L 653.6,393.1 L 653.6,393.1 L 653.5,393.1 L 653.5,393.1 L 653.5,393.1 L 653.4,393.1 L 653.4,393.1 L 653.3,393.1 L 653.3,393.1 L 653.3,393.1 L 653.2,393.1 L 653.2,393.1 L 653.2,393.1 L 653.2,393.0 L 653.1,393.0 L 653.1,393.0 L 653.1,392.9 L 653.1,392.9 L 653.0,392.9 L 653.0,392.8 L 653.0,392.8 L 653.0,392.8 L 653.0,392.7 L 653.0,392.7 L 653.0,392.7 L 653.0,392.6 L 653.0,392.6 L 653.0,392.6 L 653.1,392.5 L 653.1,392.5 L 653.1,392.5 L 653.1,392.4 L 653.2,392.4 L 653.2,392.4 L 653.2,392.4 L 653.2,392.3 L 653.3,392.3 L 653.3,392.3 L 653.3,392.3 L 653.4,392.3 L 653.4,392.3 L 653.5,392.3 L 653.5,392.3 L 653.5,392.3 L 653.6,392.3 L 653.6,392.3 L 653.6,392.3 L 653.7,392.3 L 653.7,392.4 L 653.7,392.4 L 653.8,392.4 L 653.8,392.4 L 653.8,392.5 L 653.8,392.5 L 653.8,392.5 L 653.9,392.6 L 653.9,392.6 L 653.9,392.6 L 653.9,392.7 L 653.9,392.7 L 653.4,392.7 Z" style="fill:#000000;fill-rule:evenodd;fill-opacity:1;stroke:#000000;stroke-width:0.0px;stroke-linecap:butt;stroke-linejoin:miter;stroke-miterlimit:10;stroke-opacity:1;"/>
<path class="atom-10" d="M 561.9,368.5 L 561.9,368.6 L 561.9,368.6 L 561.9,368.6 L 561.9,368.7 L 561.9,368.7 L 561.9,368.7 L 561.9,368.8 L 561.8,368.8 L 561.8,368.8 L 561.8,368.8 L 561.7,368.9 L 561.7,368.9 L 561.7,368.9 L 561.6,368.9 L 561.6,368.9 L 561.6,368.9 L 561.5,369.0 L 561.5,369.0 L 561.5,369.0 L 561.4,368.9 L 561.4,368.9 L 561.4,368.9 L 561.3,368.9 L 561.3,368.9 L 561.3,368.9 L 561.2,368.9 L 561.2,368.8 L 561.2,368.8 L 561.1,368.8 L 561.1,368.8 L 561.1,368.7 L 561.1,368.7 L 561.1,368.7 L 561.1,368.6 L 561.1,368.6 L 561.1,368.5 L 561.1,368.5 L 561.1,368.5 L 561.1,368.4 L 561.1,368.4 L 561.1,368.4 L 561.1,368.3 L 561.1,368.3 L 561.1,368.3 L 561.2,368.2 L 561.2,368.2 L 561.2,368.2 L 561.3,368.2 L 561.3,368.1 L 561.3,368.1 L 561.4,368.1 L 561.4,368.1 L 561.4,368.1 L 561.5,368.1 L 561.5,368.1 L 561.5,368.1 L 561.6,368.1 L 561.6,368.1 L 561.6,368.1 L 561.7,368.1 L 561.7,368.2 L 561.7,368.2 L 561.8,368.2 L 561.8,368.2 L 561.8,368.2 L 561.9,368.3 L 561.9,368.3 L 561.9,368.3 L 561.9,368.4 L 561.9,368.4 L 561.9,368.4 L 561.9,368.5 L 561.9,368.5 L 561.5,368.5 Z" style="fill:#000000;fill-rule:evenodd;fill-opacity:1;stroke:#000000;stroke-width:0.0px;stroke-linecap:butt;stroke-linejoin:miter;stroke-miterlimit:10;stroke-opacity:1;"/>
<path class="bond-0 atom-0 atom-1" d="M 43.4,637.0 L 110.1,598.4" style="fill:none;fill-rule:evenodd;stroke:#000000;stroke-width:2.0px;stroke-linecap:butt;stroke-linejoin:miter;stroke-opacity:1"/>
<path class="bond-0 atom-0 atom-1" d="M 52.4,652.7 L 119.2,614.1" style="fill:none;fill-rule:evenodd;stroke:#000000;stroke-width:2.0px;stroke-linecap:butt;stroke-linejoin:miter;stroke-opacity:1"/>
<path class="bond-1 atom-1 atom-2" d="M 144.2,606.3 L 228.4,654.9" style="fill:none;fill-rule:evenodd;stroke:#000000;stroke-width:2.0px;stroke-linecap:butt;stroke-linejoin:miter;stroke-opacity:1"/>
<path class="atom-0" d="M 18.3 644.2 L 27.6 659.2 Q 28.5 660.6, 30.0 663.3 Q 31.5 666.0, 31.6 666.2 L 31.6 644.2 L 35.3 644.2 L 35.3 672.5 L 31.4 672.5 L 21.5 656.1 Q 20.3 654.2, 19.1 652.0 Q 17.9 649.8, 17.5 649.1 L 17.5 672.5 L 13.8 672.5 L 13.8 644.2 L 18.3 644.2 " fill="#000000"/>
<path class="atom-0" d="M 40.4 648.8 L 50.1 648.8 L 50.1 650.9 L 40.4 650.9 L 40.4 648.8 " fill="#000000"/>
<path class="atom-1" d="M 123.2 583.6 L 132.4 598.6 Q 133.4 600.1, 134.8 602.8 Q 136.3 605.5, 136.4 605.6 L 136.4 583.6 L 140.2 583.6 L 140.2 611.9 L 136.3 611.9 L 126.3 595.5 Q 125.2 593.6, 123.9 591.4 Q 122.7 589.2, 122.4 588.5 L 122.4 611.9 L 118.7 611.9 L 118.7 583.6 L 123.2 583.6 " fill="#000000"/>
<path class="atom-1" d="M 145.5 588.7 L 150.5 588.7 L 150.5 583.5 L 152.7 583.5 L 152.7 588.7 L 157.8 588.7 L 157.8 590.6 L 152.7 590.6 L 152.7 595.9 L 150.5 595.9 L 150.5 590.6 L 145.5 590.6 L 145.5 588.7 " fill="#000000"/>
<path class="atom-2" d="M 232.4 644.1 L 236.2 644.1 L 236.2 672.5 L 232.4 672.5 L 232.4 644.1 " fill="#000000"/>
<path class="atom-1" d="M 131.4,580.5 L 131.4,580.6 L 131.4,580.8 L 131.4,581.0 L 131.3,581.1 L 131.2,581.3 L 131.2,581.5 L 131.1,581.6 L 131.0,581.7 L 130.8,581.9 L 130.7,582.0 L 130.6,582.1 L 130.4,582.2 L 130.3,582.3 L 130.1,582.3 L 130.0,582.4 L 129.8,582.4 L 129.6,582.5 L 129.5,582.5 L 129.3,582.5 L 129.1,582.4 L 129.0,582.4 L 128.8,582.4 L 128.6,582.3 L 128.5,582.2 L 128.3,582.1 L 128.2,582.0 L 128.1,581.9 L 127.9,581.8 L 127.8,581.7 L 127.7,581.5 L 127.6,581.4 L 127.6,581.2 L 127.5,581.1 L 127.5,580.9 L 127.4,580.7 L 127.4,580.6 L 127.4,580.4 L 127.4,580.2 L 127.5,580.0 L 127.5,579.9 L 127.6,579.7 L 127.6,579.6 L 127.7,579.4 L 127.8,579.3 L 127.9,579.1 L 128.1,579.0 L 128.2,578.9 L 128.3,578.8 L 128.5,578.7 L 128.6,578.6 L 128.8,578.6 L 129.0,578.5 L 129.1,578.5 L 129.3,578.5 L 129.5,578.5 L 129.6,578.5 L 129.8,578.5 L 130.0,578.5 L 130.1,578.6 L 130.3,578.7 L 130.4,578.8 L 130.6,578.8 L 130.7,579.0 L 130.8,579.1 L 131.0,579.2 L 131.1,579.3 L 131.2,579.5 L 131.2,579.6 L 131.3,579.8 L 131.4,580.0 L 131.4,580.1 L 131.4,580.3 L 131.4,580.5 L 129.4,580.5 Z" style="fill:#000000;fill-rule:evenodd;fill-opacity:1;stroke:#000000;stroke-width:0.0px;stroke-linecap:butt;stroke-linejoin:miter;stroke-miterlimit:10;stroke-opacity:1;"/>
<path class="atom-0" d="M 342.2 603.8 L 351.5 618.8 Q 352.4 620.3, 353.9 623.0 Q 355.4 625.7, 355.5 625.8 L 355.5 603.8 L 359.2 603.8 L 359.2 632.2 L 355.3 632.2 L 345.4 615.8 Q 344.2 613.8, 343.0 611.6 Q 341.8 609.4, 341.4 608.8 L 341.4 632.2 L 337.7 632.2 L 337.7 603.8 L 342.2 603.8 " fill="#000000"/>
<path class="atom-0" d="M 364.6 603.8 L 368.4 603.8 L 368.4 615.9 L 382.9 615.9 L 382.9 603.8 L 386.7 603.8 L 386.7 632.2 L 382.9 632.2 L 382.9 619.1 L 368.4 619.1 L 368.4 632.2 L 364.6 632.2 L 364.6 603.8 " fill="#000000"/>
<path class="atom-0" d="M 392.2 631.2 Q 392.9 629.4, 394.5 628.4 Q 396.2 627.4, 398.5 627.4 Q 401.3 627.4, 402.9 628.9 Q 404.4 630.5, 404.4 633.2 Q 404.4 636.0, 402.4 638.6 Q 400.4 641.1, 396.1 644.2 L 404.8 644.2 L 404.8 646.3 L 392.2 646.3 L 392.2 644.5 Q 395.7 642.1, 397.7 640.2 Q 399.8 638.4, 400.8 636.7 Q 401.8 635.0, 401.8 633.3 Q 401.8 631.5, 400.9 630.5 Q 400.0 629.5, 398.5 629.5 Q 396.9 629.5, 395.9 630.1 Q 394.9 630.7, 394.2 632.1 L 392.2 631.2 " fill="#000000"/>
<path class="atom-0" d="M 392.3 608.9 L 397.3 608.9 L 397.3 603.7 L 399.5 603.7 L 399.5 608.9 L 404.6 608.9 L 404.6 610.8 L 399.5 610.8 L 399.5 616.1 L 397.3 616.1 L 397.3 610.8 L 392.3 610.8 L 392.3 608.9 " fill="#000000"/>
<path class="atom-0" d="M 412.8,622.0 L 412.8,622.2 L 412.7,622.3 L 412.7,622.5 L 412.6,622.7 L 412.6,622.8 L 412.5,623.0 L 412.4,623.1 L 412.3,623.3 L 412.2,623.4 L 412.1,623.5 L 411.9,623.6 L 411.8,623.7 L 411.6,623.8 L 411.5,623.9 L 411.3,623.9 L 411.1,624.0 L 411.0,624.0 L 410.8,624.0 L 410.6,624.0 L 410.5,624.0 L 410.3,623.9 L 410.1,623.9 L 410.0,623.8 L 409.8,623.8 L 409.7,623.7 L 409.5,623.6 L 409.4,623.5 L 409.3,623.3 L 409.2,623.2 L 409.1,623.1 L 409.0,622.9 L 408.9,622.7 L 408.9,622.6 L 408.8,622.4 L 408.8,622.3 L 408.8,622.1 L 408.8,621.9 L 408.8,621.7 L 408.8,621.6 L 408.9,621.4 L 408.9,621.2 L 409.0,621.1 L 409.1,620.9 L 409.2,620.8 L 409.3,620.7 L 409.4,620.5 L 409.5,620.4 L 409.7,620.3 L 409.8,620.2 L 410.0,620.2 L 410.1,620.1 L 410.3,620.1 L 410.5,620.0 L 410.6,620.0 L 410.8,620.0 L 411.0,620.0 L 411.1,620.0 L 411.3,620.1 L 411.5,620.1 L 411.6,620.2 L 411.8,620.3 L 411.9,620.4 L 412.1,620.5 L 412.2,620.6 L 412.3,620.7 L 412.4,620.9 L 412.5,621.0 L 412.6,621.2 L 412.6,621.3 L 412.7,621.5 L 412.7,621.7 L 412.8,621.8 L 412.8,622.0 L 410.8,622.0 Z" style="fill:#000000;fill-rule:evenodd;fill-opacity:1;stroke:#000000;stroke-width:0.0px;stroke-linecap:butt;stroke-linejoin:miter;stroke-miterlimit:10;stroke-opacity:1;"/>
<path class="atom-0" d="M 412.8,614.0 L 412.8,614.2 L 412.7,614.3 L 412.7,614.5 L 412.6,614.7 L 412.6,614.8 L 412.5,615.0 L 412.4,615.1 L 412.3,615.3 L 412.2,615.4 L 412.1,615.5 L 411.9,615.6 L 411.8,615.7 L 411.6,615.8 L 411.5,615.9 L 411.3,615.9 L 411.1,616.0 L 411.0,616.0 L 410.8,616.0 L 410.6,616.0 L 410.5,616.0 L 410.3,615.9 L 410.1,615.9 L 410.0,615.8 L 409.8,615.8 L 409.7,615.7 L 409.5,615.6 L 409.4,615.5 L 409.3,615.3 L 409.2,615.2 L 409.1,615.1 L 409.0,614.9 L 408.9,614.7 L 408.9,614.6 L 408.8,614.4 L 408.8,614.3 L 408.8,614.1 L 408.8,613.9 L 408.8,613.7 L 408.8,613.6 L 408.9,613.4 L 408.9,613.2 L 409.0,613.1 L 409.1,612.9 L 409.2,612.8 L 409.3,612.7 L 409.4,612.5 L 409.5,612.4 L 409.7,612.3 L 409.8,612.2 L 410.0,612.2 L 410.1,612.1 L 410.3,612.1 L 410.5,612.0 L 410.6,612.0 L 410.8,612.0 L 411.0,612.0 L 411.1,612.0 L 411.3,612.1 L 411.5,612.1 L 411.6,612.2 L 411.8,612.3 L 411.9,612.4 L 412.1,612.5 L 412.2,612.6 L 412.3,612.7 L 412.4,612.9 L 412.5,613.0 L 412.6,613.2 L 412.6,613.3 L 412.7,613.5 L 412.7,613.7 L 412.8,613.8 L 412.8,614.0 L 410.8,614.0 Z" style="fill:#000000;fill-rule:evenodd;fill-opacity:1;stroke:#000000;stroke-width:0.0px;stroke-linecap:butt;stroke-linejoin:miter;stroke-miterlimit:10;stroke-opacity:1;"/>
<path class="bond-0 atom-0 atom-1" d="M 718.1,615.5 L 635.8,663.0" style="fill:none;fill-rule:evenodd;stroke:#000000;stroke-width:2.0px;stroke-linecap:butt;stroke-linejoin:miter;stroke-opacity:1"/>
<path class="bond-0 atom-0 atom-1" d="M 709.9,601.3 L 635.8,644.0" style="fill:none;fill-rule:evenodd;stroke:#000000;stroke-width:2.0px;stroke-linecap:butt;stroke-linejoin:miter;stroke-opacity:1"/>
<path class="bond-1 atom-1 atom-2" d="M 635.8,663.0 L 546.2,611.3" style="fill:none;fill-rule:evenodd;stroke:#000000;stroke-width:2.0px;stroke-linecap:butt;stroke-linejoin:miter;stroke-opacity:1"/>
<path d="M 639.9,660.7 L 635.8,663.0 L 631.3,660.5" style="fill:none;stroke:#000000;stroke-width:2.0px;stroke-linecap:butt;stroke-linejoin:miter;stroke-miterlimit:10;stroke-opacity:1;"/>
<path class="atom-0" d="M 718.7 610.8 Q 719.0 610.9, 720.3 611.5 Q 721.7 612.0, 723.1 612.4 Q 724.6 612.7, 726.0 612.7 Q 728.7 612.7, 730.3 611.4 Q 731.8 610.1, 731.8 607.8 Q 731.8 606.3, 731.0 605.3 Q 730.3 604.4, 729.1 603.8 Q 727.9 603.3, 725.9 602.7 Q 723.3 602.0, 721.8 601.2 Q 720.3 600.5, 719.3 599.0 Q 718.2 597.5, 718.2 594.9 Q 718.2 591.4, 720.6 589.2 Q 723.1 587.0, 727.9 587.0 Q 731.1 587.0, 734.9 588.5 L 733.9 591.6 Q 730.5 590.2, 728.0 590.2 Q 725.2 590.2, 723.7 591.4 Q 722.2 592.5, 722.2 594.4 Q 722.2 596.0, 723.0 596.9 Q 723.8 597.8, 724.9 598.3 Q 726.1 598.8, 728.0 599.4 Q 730.5 600.2, 732.1 601.0 Q 733.6 601.8, 734.7 603.5 Q 735.8 605.1, 735.8 607.8 Q 735.8 611.8, 733.1 613.9 Q 730.5 616.0, 726.2 616.0 Q 723.7 616.0, 721.7 615.4 Q 719.9 614.9, 717.6 614.0 L 718.7 610.8 " fill="#000000"/>
<path class="atom-2" d="M 514.2 609.2 Q 514.2 602.1, 517.5 598.5 Q 520.8 594.7, 527.1 594.7 Q 532.9 594.7, 536.1 598.9 L 533.4 601.0 Q 531.1 598.0, 527.1 598.0 Q 522.8 598.0, 520.5 600.9 Q 518.3 603.7, 518.3 609.2 Q 518.3 614.8, 520.6 617.7 Q 523.0 620.5, 527.5 620.5 Q 530.7 620.5, 534.3 618.7 L 535.4 621.7 Q 533.9 622.6, 531.7 623.2 Q 529.5 623.7, 527.0 623.7 Q 520.8 623.7, 517.5 620.0 Q 514.2 616.2, 514.2 609.2 " fill="#000000"/>
<path class="atom-2" d="M 538.9 593.0 L 542.6 593.0 L 542.6 623.4 L 538.9 623.4 L 538.9 593.0 " fill="#000000"/>
</svg>