<svg xmlns="http://www.w3.org/2000/svg" xmlns:rdkit="http://www.rdkit.org/xml" xmlns:xlink="http://www.w3.org/1999/xlink" version="1.1" baseProfile="full" xml:space="preserve" width="750px" height="750px" viewBox="0 0 750 750">
<!-- END OF HEADER -->
<rect style="opacity:1.0;fill:#FFFFFF;stroke:none" width="250.0" height="250.0" x="0.0" y="0.0"> </rect>
<path class="bond-0 atom-0 atom-1" d="M 48.5,140.5 L 109.4,105.3" style="fill:none;fill-rule:evenodd;stroke:#000000;stroke-width:2.0px;stroke-linecap:butt;stroke-linejoin:miter;stroke-opacity:1"/>
<path class="bond-1 atom-1 atom-2" d="M 143.1,105.3 L 215.2,146.9" style="fill:none;fill-rule:evenodd;stroke:#000000;stroke-width:2.0px;stroke-linecap:butt;stroke-linejoin:miter;stroke-opacity:1"/>
<path class="atom-0" d="M 14.1 154.2 Q 14.1 147.1, 17.4 143.4 Q 20.7 139.7, 27.0 139.7 Q 32.8 139.7, 36.0 143.8 L 33.3 146.0 Q 31.0 143.0, 27.0 143.0 Q 22.7 143.0, 20.4 145.9 Q 18.2 148.7, 18.2 154.2 Q 18.2 159.8, 20.5 162.6 Q 22.9 165.5, 27.4 165.5 Q 30.6 165.5, 34.2 163.6 L 35.3 166.6 Q 33.8 167.6, 31.6 168.2 Q 29.4 168.7, 26.9 168.7 Q 20.7 168.7, 17.4 165.0 Q 14.1 161.2, 14.1 154.2 " fill="#000000"/>
<path class="atom-0" d="M 39.4 144.4 L 49.1 144.4 L 49.1 146.5 L 39.4 146.5 L 39.4 144.4 " fill="#000000"/>
<path class="atom-1" d="M 113.2 95.7 Q 113.2 88.9, 116.6 85.1 Q 120.0 81.3, 126.2 81.3 Q 132.5 81.3, 135.9 85.1 Q 139.2 88.9, 139.2 95.7 Q 139.2 102.6, 135.8 106.5 Q 132.4 110.4, 126.2 110.4 Q 120.0 110.4, 116.6 106.5 Q 113.2 102.6, 113.2 95.7 M 126.2 107.2 Q 130.6 107.2, 132.9 104.3 Q 135.2 101.4, 135.2 95.7 Q 135.2 90.1, 132.9 87.3 Q 130.6 84.5, 126.2 84.5 Q 121.9 84.5, 119.6 87.3 Q 117.2 90.1, 117.2 95.7 Q 117.2 101.4, 119.6 104.3 Q 121.9 107.2, 126.2 107.2 " fill="#000000"/>
<path class="atom-2" d="M 219.0 139.9 L 235.9 139.9 L 235.9 143.1 L 222.8 143.1 L 222.8 151.7 L 234.4 151.7 L 234.4 155.0 L 222.8 155.0 L 222.8 168.2 L 219.0 168.2 L 219.0 139.9 " fill="#000000"/>
<path class="bond-0 atom-0 atom-1" d="M 431.7,182.0 L 392.8,182.0" style="fill:none;fill-rule:evenodd;stroke:#000000;stroke-width:2.0px;stroke-linecap:butt;stroke-linejoin:miter;stroke-opacity:1"/>
<path class="bond-1 atom-1 atom-2" d="M 362.8,169.5 L 334.2,119.9" style="fill:none;fill-rule:evenodd;stroke:#000000;stroke-width:2.0px;stroke-linecap:butt;stroke-linejoin:miter;stroke-opacity:1"/>
<path class="bond-2 atom-2 atom-3" d="M 330.6,120.2 L 330.6,119.7" style="fill:none;fill-rule:evenodd;stroke:#000000;stroke-width:1.0px;stroke-linecap:butt;stroke-linejoin:miter;stroke-opacity:1"/>
<path class="bond-2 atom-2 atom-3" d="M 327.0,120.5 L 327.0,119.4" style="fill:none;fill-rule:evenodd;stroke:#000000;stroke-width:1.0px;stroke-linecap:butt;stroke-linejoin:miter;stroke-opacity:1"/>
<path class="bond-2 atom-2 atom-3" d="M 323.4,120.7 L 323.4,119.1" style="fill:none;fill-rule:evenodd;stroke:#000000;stroke-width:1.0px;stroke-linecap:butt;stroke-linejoin:miter;stroke-opacity:1"/>
<path class="bond-2 atom-2 atom-3" d="M 319.9,121.0 L 319.9,118.8" style="fill:none;fill-rule:evenodd;stroke:#000000;stroke-width:1.0px;stroke-linecap:butt;stroke-linejoin:miter;stroke-opacity:1"/>
<path class="bond-2 atom-2 atom-3" d="M 316.3,121.3 L 316.3,118.6" style="fill:none;fill-rule:evenodd;stroke:#000000;stroke-width:1.0px;stroke-linecap:butt;stroke-linejoin:miter;stroke-opacity:1"/>
<path class="bond-2 atom-2 atom-3" d="M 312.7,121.5 L 312.7,118.3" style="fill:none;fill-rule:evenodd;stroke:#000000;stroke-width:1.0px;stroke-linecap:butt;stroke-linejoin:miter;stroke-opacity:1"/>
<path class="bond-2 atom-2 atom-3" d="M 309.1,121.8 L 309.1,118.0" style="fill:none;fill-rule:evenodd;stroke:#000000;stroke-width:1.0px;stroke-linecap:butt;stroke-linejoin:miter;stroke-opacity:1"/>
<path class="bond-2 atom-2 atom-3" d="M 305.5,122.1 L 305.5,117.8" style="fill:none;fill-rule:evenodd;stroke:#000000;stroke-width:1.0px;stroke-linecap:butt;stroke-linejoin:miter;stroke-opacity:1"/>
<path class="bond-2 atom-2 atom-3" d="M 301.9,122.3 L 301.9,117.5" style="fill:none;fill-rule:evenodd;stroke:#000000;stroke-width:1.0px;stroke-linecap:butt;stroke-linejoin:miter;stroke-opacity:1"/>
<path class="bond-2 atom-2 atom-3" d="M 298.4,122.6 L 298.4,117.2" style="fill:none;fill-rule:evenodd;stroke:#000000;stroke-width:1.0px;stroke-linecap:butt;stroke-linejoin:miter;stroke-opacity:1"/>
<path class="bond-2 atom-2 atom-3" d="M 294.8,122.9 L 294.8,117.0" style="fill:none;fill-rule:evenodd;stroke:#000000;stroke-width:1.0px;stroke-linecap:butt;stroke-linejoin:miter;stroke-opacity:1"/>
<path class="bond-2 atom-2 atom-3" d="M 291.2,123.1 L 291.2,116.7" style="fill:none;fill-rule:evenodd;stroke:#000000;stroke-width:1.0px;stroke-linecap:butt;stroke-linejoin:miter;stroke-opacity:1"/>
<path class="bond-2 atom-2 atom-3" d="M 287.6,123.4 L 287.6,116.4" style="fill:none;fill-rule:evenodd;stroke:#000000;stroke-width:1.0px;stroke-linecap:butt;stroke-linejoin:miter;stroke-opacity:1"/>
<path class="bond-2 atom-2 atom-3" d="M 284.0,123.7 L 284.0,116.2" style="fill:none;fill-rule:evenodd;stroke:#000000;stroke-width:1.0px;stroke-linecap:butt;stroke-linejoin:miter;stroke-opacity:1"/>
<path class="bond-2 atom-2 atom-3" d="M 280.4,124.0 L 280.4,115.9" style="fill:none;fill-rule:evenodd;stroke:#000000;stroke-width:1.0px;stroke-linecap:butt;stroke-linejoin:miter;stroke-opacity:1"/>
<path class="bond-2 atom-2 atom-3" d="M 276.8,124.2 L 276.8,115.6" style="fill:none;fill-rule:evenodd;stroke:#000000;stroke-width:1.0px;stroke-linecap:butt;stroke-linejoin:miter;stroke-opacity:1"/>
<path class="bond-2 atom-2 atom-3" d="M 273.3,124.5 L 273.3,115.4" style="fill:none;fill-rule:evenodd;stroke:#000000;stroke-width:1.0px;stroke-linecap:butt;stroke-linejoin:miter;stroke-opacity:1"/>
<path class="bond-2 atom-2 atom-3" d="M 269.7,124.8 L 269.7,115.1" style="fill:none;fill-rule:evenodd;stroke:#000000;stroke-width:1.0px;stroke-linecap:butt;stroke-linejoin:miter;stroke-opacity:1"/>
<path class="bond-2 atom-2 atom-3" d="M 266.1,125.0 L 266.1,114.8" style="fill:none;fill-rule:evenodd;stroke:#000000;stroke-width:1.0px;stroke-linecap:butt;stroke-linejoin:miter;stroke-opacity:1"/>
<path class="bond-2 atom-2 atom-3" d="M 262.5,125.3 L 262.5,114.5" style="fill:none;fill-rule:evenodd;stroke:#000000;stroke-width:1.0px;stroke-linecap:butt;stroke-linejoin:miter;stroke-opacity:1"/>
<path class="bond-3 atom-2 atom-4" d="M 334.2,119.9 L 362.8,70.3" style="fill:none;fill-rule:evenodd;stroke:#000000;stroke-width:2.0px;stroke-linecap:butt;stroke-linejoin:miter;stroke-opacity:1"/>
<path class="bond-4 atom-4 atom-5" d="M 380.1,57.8 L 432.5,57.8" style="fill:none;fill-rule:evenodd;stroke:#000000;stroke-width:2.0px;stroke-linecap:butt;stroke-linejoin:miter;stroke-opacity:1"/>
<path d="M 335.6,122.4 L 334.2,119.9 L 335.6,117.4" style="fill:none;stroke:#000000;stroke-width:2.0px;stroke-linecap:butt;stroke-linejoin:miter;stroke-miterlimit:10;stroke-opacity:1;"/>
<path class="atom-0" d="M 437.3 171.9 L 443.9 182.6 Q 444.6 183.7, 445.7 185.6 Q 446.7 187.5, 446.8 187.6 L 446.8 171.9 L 449.5 171.9 L 449.5 192.2 L 446.7 192.2 L 439.5 180.4 Q 438.7 179.0, 437.8 177.5 Q 437.0 175.9, 436.7 175.4 L 436.7 192.2 L 434.1 192.2 L 434.1 171.9 L 437.3 171.9 " fill="#000000"/>
<path class="atom-0" d="M 453.3 171.9 L 456.1 171.9 L 456.1 180.5 L 466.4 180.5 L 466.4 171.9 L 469.2 171.9 L 469.2 192.2 L 466.4 192.2 L 466.4 182.8 L 456.1 182.8 L 456.1 192.2 L 453.3 192.2 L 453.3 171.9 " fill="#000000"/>
<path class="atom-0" d="M 473.1 191.5 Q 473.6 190.2, 474.8 189.5 Q 476.0 188.8, 477.6 188.8 Q 479.6 188.8, 480.8 189.9 Q 481.9 191.0, 481.9 192.9 Q 481.9 194.9, 480.4 196.8 Q 479.0 198.6, 475.9 200.8 L 482.1 200.8 L 482.1 202.3 L 473.1 202.3 L 473.1 201.1 Q 475.6 199.3, 477.1 198.0 Q 478.6 196.6, 479.3 195.4 Q 480.0 194.2, 480.0 193.0 Q 480.0 191.7, 479.4 191.0 Q 478.7 190.3, 477.6 190.3 Q 476.5 190.3, 475.8 190.7 Q 475.1 191.2, 474.6 192.1 L 473.1 191.5 " fill="#000000"/>
<path class="atom-0" d="M 473.2 175.5 L 476.8 175.5 L 476.8 171.8 L 478.4 171.8 L 478.4 175.5 L 482.0 175.5 L 482.0 176.9 L 478.4 176.9 L 478.4 180.7 L 476.8 180.7 L 476.8 176.9 L 473.2 176.9 L 473.2 175.5 " fill="#000000"/>
<path class="atom-1" d="M 330.9 171.9 L 333.7 171.9 L 333.7 180.5 L 344.1 180.5 L 344.1 171.9 L 346.8 171.9 L 346.8 192.2 L 344.1 192.2 L 344.1 182.8 L 333.7 182.8 L 333.7 192.2 L 330.9 192.2 L 330.9 171.9 " fill="#000000"/>
<path class="atom-1" d="M 350.8 191.5 Q 351.3 190.2, 352.4 189.5 Q 353.6 188.8, 355.2 188.8 Q 357.3 188.8, 358.4 189.9 Q 359.5 191.0, 359.5 192.9 Q 359.5 194.9, 358.1 196.8 Q 356.6 198.6, 353.6 200.8 L 359.8 200.8 L 359.8 202.3 L 350.7 202.3 L 350.7 201.1 Q 353.2 199.3, 354.7 198.0 Q 356.2 196.6, 356.9 195.4 Q 357.6 194.2, 357.6 193.0 Q 357.6 191.7, 357.0 191.0 Q 356.4 190.3, 355.2 190.3 Q 354.2 190.3, 353.4 190.7 Q 352.7 191.2, 352.2 192.1 L 350.8 191.5 " fill="#000000"/>
<path class="atom-1" d="M 365.6 171.9 L 372.2 182.6 Q 372.9 183.7, 373.9 185.6 Q 375.0 187.5, 375.1 187.6 L 375.1 171.9 L 377.8 171.9 L 377.8 192.2 L 375.0 192.2 L 367.8 180.4 Q 367.0 179.0, 366.1 177.5 Q 365.3 175.9, 365.0 175.4 L 365.0 192.2 L 362.4 192.2 L 362.4 171.9 L 365.6 171.9 " fill="#000000"/>
<path class="atom-1" d="M 381.6 175.5 L 385.2 175.5 L 385.2 171.8 L 386.8 171.8 L 386.8 175.5 L 390.4 175.5 L 390.4 176.9 L 386.8 176.9 L 386.8 180.7 L 385.2 180.7 L 385.2 176.9 L 381.6 176.9 L 381.6 175.5 " fill="#000000"/>
<path class="atom-4" d="M 342.5 47.7 L 345.2 47.7 L 345.2 56.3 L 355.6 56.3 L 355.6 47.7 L 358.4 47.7 L 358.4 68.0 L 355.6 68.0 L 355.6 58.6 L 345.2 58.6 L 345.2 68.0 L 342.5 68.0 L 342.5 47.7 " fill="#000000"/>
<path class="atom-4" d="M 365.6 47.7 L 372.2 58.4 Q 372.9 59.5, 373.9 61.4 Q 375.0 63.3, 375.1 63.4 L 375.1 47.7 L 377.8 47.7 L 377.8 68.0 L 375.0 68.0 L 367.8 56.2 Q 367.0 54.8, 366.1 53.3 Q 365.3 51.7, 365.0 51.2 L 365.0 68.0 L 362.4 68.0 L 362.4 47.7 L 365.6 47.7 " fill="#000000"/>
<path class="atom-5" d="M 444.7 57.3 Q 446.7 57.9, 447.7 59.1 Q 448.7 60.2, 448.7 62.0 Q 448.7 64.8, 446.9 66.4 Q 445.1 68.0, 441.7 68.0 L 434.9 68.0 L 434.9 47.7 L 440.9 47.7 Q 444.3 47.7, 446.1 49.1 Q 447.8 50.5, 447.8 53.1 Q 447.8 56.1, 444.7 57.3 M 437.6 50.0 L 437.6 56.3 L 440.9 56.3 Q 442.9 56.3, 443.9 55.5 Q 445.0 54.7, 445.0 53.1 Q 445.0 50.0, 440.9 50.0 L 437.6 50.0 M 441.7 65.7 Q 443.7 65.7, 444.7 64.7 Q 445.8 63.8, 445.8 62.0 Q 445.8 60.3, 444.6 59.5 Q 443.5 58.6, 441.3 58.6 L 437.6 58.6 L 437.6 65.7 L 441.7 65.7 " fill="#000000"/>
<path class="atom-5" d="M 453.3 53.2 L 453.6 55.3 Q 455.1 53.0, 457.7 53.0 Q 458.5 53.0, 459.6 53.3 L 459.1 55.7 Q 457.9 55.4, 457.2 55.4 Q 456.0 55.4, 455.2 55.9 Q 454.4 56.3, 453.8 57.5 L 453.8 68.0 L 451.1 68.0 L 451.1 53.2 L 453.3 53.2 " fill="#000000"/>
<path class="atom-0" d="M 487.9,182.0 L 487.9,182.1 L 487.8,182.3 L 487.8,182.4 L 487.8,182.5 L 487.7,182.6 L 487.7,182.7 L 487.6,182.8 L 487.5,182.9 L 487.4,183.0 L 487.4,183.1 L 487.3,183.2 L 487.2,183.3 L 487.1,183.3 L 486.9,183.4 L 486.8,183.4 L 486.7,183.4 L 486.6,183.4 L 486.5,183.5 L 486.3,183.5 L 486.2,183.4 L 486.1,183.4 L 486.0,183.4 L 485.9,183.3 L 485.7,183.3 L 485.6,183.2 L 485.5,183.1 L 485.4,183.1 L 485.4,183.0 L 485.3,182.9 L 485.2,182.8 L 485.1,182.7 L 485.1,182.6 L 485.1,182.4 L 485.0,182.3 L 485.0,182.2 L 485.0,182.1 L 485.0,182.0 L 485.0,181.8 L 485.0,181.7 L 485.1,181.6 L 485.1,181.5 L 485.1,181.4 L 485.2,181.3 L 485.3,181.2 L 485.4,181.1 L 485.4,181.0 L 485.5,180.9 L 485.6,180.8 L 485.7,180.8 L 485.9,180.7 L 486.0,180.7 L 486.1,180.6 L 486.2,180.6 L 486.3,180.6 L 486.5,180.6 L 486.6,180.6 L 486.7,180.6 L 486.8,180.6 L 486.9,180.7 L 487.1,180.7 L 487.2,180.8 L 487.3,180.9 L 487.4,180.9 L 487.4,181.0 L 487.5,181.1 L 487.6,181.2 L 487.7,181.3 L 487.7,181.4 L 487.8,181.5 L 487.8,181.7 L 487.8,181.8 L 487.9,181.9 L 487.9,182.0 L 486.4,182.0 Z" style="fill:#000000;fill-rule:evenodd;fill-opacity:1;stroke:#000000;stroke-width:0.0px;stroke-linecap:butt;stroke-linejoin:miter;stroke-miterlimit:10;stroke-opacity:1;"/>
<path class="bond-0 atom-0 atom-1" d="M 517.7,163.9 L 536.5,160.1" style="fill:none;fill-rule:evenodd;stroke:#000000;stroke-width:2.0px;stroke-linecap:butt;stroke-linejoin:miter;stroke-opacity:1"/>
<path class="bond-1 atom-1 atom-2" d="M 541.6,154.8 L 546.8,139.4" style="fill:none;fill-rule:evenodd;stroke:#000000;stroke-width:2.0px;stroke-linecap:butt;stroke-linejoin:miter;stroke-opacity:1"/>
<path class="bond-2 atom-2 atom-3" d="M 551.6,134.1 L 570.6,130.2" style="fill:none;fill-rule:evenodd;stroke:#000000;stroke-width:2.0px;stroke-linecap:butt;stroke-linejoin:miter;stroke-opacity:1"/>
<path class="bond-3 atom-3 atom-4" d="M 573.5,124.4 L 578.6,109.1" style="fill:none;fill-rule:evenodd;stroke:#000000;stroke-width:2.0px;stroke-linecap:butt;stroke-linejoin:miter;stroke-opacity:1"/>
<path class="bond-3 atom-3 atom-4" d="M 577.2,125.7 L 582.3,110.3" style="fill:none;fill-rule:evenodd;stroke:#000000;stroke-width:2.0px;stroke-linecap:butt;stroke-linejoin:miter;stroke-opacity:1"/>
<path class="bond-4 atom-4 atom-5" d="M 585.3,104.3 L 604.3,100.5" style="fill:none;fill-rule:evenodd;stroke:#000000;stroke-width:2.0px;stroke-linecap:butt;stroke-linejoin:miter;stroke-opacity:1"/>
<path class="bond-5 atom-5 atom-6" d="M 610.7,103.5 L 624.7,119.3" style="fill:none;fill-rule:evenodd;stroke:#000000;stroke-width:2.0px;stroke-linecap:butt;stroke-linejoin:miter;stroke-opacity:1"/>
<path class="bond-6 atom-6 atom-7" d="M 624.7,119.3 L 646.5,114.9" style="fill:none;fill-rule:evenodd;stroke:#000000;stroke-width:2.0px;stroke-linecap:butt;stroke-linejoin:miter;stroke-opacity:1"/>
<path class="bond-7 atom-7 atom-8" d="M 653.7,118.3 L 663.6,129.5" style="fill:none;fill-rule:evenodd;stroke:#000000;stroke-width:2.0px;stroke-linecap:butt;stroke-linejoin:miter;stroke-opacity:1"/>
<path class="bond-8 atom-8 atom-9" d="M 675.1,130.0 L 689.1,127.2" style="fill:none;fill-rule:evenodd;stroke:#000000;stroke-width:2.0px;stroke-linecap:butt;stroke-linejoin:miter;stroke-opacity:1"/>
<path class="bond-8 atom-8 atom-9" d="M 675.9,133.8 L 689.9,131.0" style="fill:none;fill-rule:evenodd;stroke:#000000;stroke-width:2.0px;stroke-linecap:butt;stroke-linejoin:miter;stroke-opacity:1"/>
<path class="bond-9 atom-9 atom-10" d="M 697.4,130.8 L 708.1,143.0" style="fill:none;fill-rule:evenodd;stroke:#000000;stroke-width:2.0px;stroke-linecap:butt;stroke-linejoin:miter;stroke-opacity:1"/>
<path class="bond-9 atom-9 atom-10" d="M 694.5,133.4 L 705.2,145.6" style="fill:none;fill-rule:evenodd;stroke:#000000;stroke-width:2.0px;stroke-linecap:butt;stroke-linejoin:miter;stroke-opacity:1"/>
<path class="bond-10 atom-10 atom-11" d="M 713.1,147.3 L 732.3,143.4" style="fill:none;fill-rule:evenodd;stroke:#000000;stroke-width:2.0px;stroke-linecap:butt;stroke-linejoin:miter;stroke-opacity:1"/>
<path class="bond-11 atom-4 atom-12" d="M 578.9,101.3 L 568.5,89.7" style="fill:none;fill-rule:evenodd;stroke:#000000;stroke-width:2.0px;stroke-linecap:butt;stroke-linejoin:miter;stroke-opacity:1"/>
<path d="M 624.0,118.5 L 624.7,119.3 L 625.8,119.1" style="fill:none;stroke:#000000;stroke-width:2.0px;stroke-linecap:butt;stroke-linejoin:miter;stroke-miterlimit:10;stroke-opacity:1;"/>
<path class="atom-0" d="M 512.5 160.8 L 516.9 160.8 L 516.9 161.6 L 513.5 161.6 L 513.5 163.9 L 516.5 163.9 L 516.5 164.7 L 513.5 164.7 L 513.5 168.1 L 512.5 168.1 L 512.5 160.8 " fill="#000000"/>
<path class="atom-1" d="M 538.5 155.6 L 540.9 159.5 Q 541.1 159.9, 541.5 160.6 Q 541.9 161.3, 541.9 161.4 L 541.9 155.6 L 542.9 155.6 L 542.9 163.0 L 541.9 163.0 L 539.3 158.7 Q 539.0 158.2, 538.7 157.7 Q 538.4 157.1, 538.3 156.9 L 538.3 163.0 L 537.3 163.0 L 537.3 155.6 L 538.5 155.6 " fill="#000000"/>
<path class="atom-1" d="M 544.3 155.6 L 545.3 155.6 L 545.3 158.8 L 549.0 158.8 L 549.0 155.6 L 550.0 155.6 L 550.0 163.0 L 549.0 163.0 L 549.0 159.6 L 545.3 159.6 L 545.3 163.0 L 544.3 163.0 L 544.3 155.6 " fill="#000000"/>
<path class="atom-1" d="M 551.5 162.7 Q 551.6 162.3, 552.1 162.0 Q 552.5 161.8, 553.1 161.8 Q 553.8 161.8, 554.2 162.2 Q 554.6 162.6, 554.6 163.3 Q 554.6 164.0, 554.1 164.7 Q 553.6 165.3, 552.5 166.1 L 554.7 166.1 L 554.7 166.7 L 551.5 166.7 L 551.5 166.2 Q 552.4 165.6, 552.9 165.1 Q 553.4 164.6, 553.7 164.2 Q 554.0 163.7, 554.0 163.3 Q 554.0 162.8, 553.7 162.6 Q 553.5 162.3, 553.1 162.3 Q 552.7 162.3, 552.4 162.5 Q 552.2 162.6, 552.0 163.0 L 551.5 162.7 " fill="#000000"/>
<path class="atom-1" d="M 551.5 157.0 L 552.8 157.0 L 552.8 155.6 L 553.4 155.6 L 553.4 157.0 L 554.7 157.0 L 554.7 157.5 L 553.4 157.5 L 553.4 158.8 L 552.8 158.8 L 552.8 157.5 L 551.5 157.5 L 551.5 157.0 " fill="#000000"/>
<path class="atom-2" d="M 546.3 137.2 Q 546.4 137.3, 546.7 137.4 Q 547.1 137.6, 547.4 137.7 Q 547.8 137.7, 548.2 137.7 Q 548.9 137.7, 549.3 137.4 Q 549.7 137.1, 549.7 136.5 Q 549.7 136.1, 549.5 135.8 Q 549.3 135.6, 549.0 135.4 Q 548.7 135.3, 548.2 135.2 Q 547.5 135.0, 547.1 134.8 Q 546.7 134.6, 546.4 134.2 Q 546.2 133.8, 546.2 133.1 Q 546.2 132.2, 546.8 131.6 Q 547.4 131.1, 548.7 131.1 Q 549.5 131.1, 550.5 131.5 L 550.3 132.3 Q 549.4 131.9, 548.7 131.9 Q 548.0 131.9, 547.6 132.2 Q 547.2 132.5, 547.2 133.0 Q 547.2 133.4, 547.4 133.6 Q 547.6 133.9, 547.9 134.0 Q 548.2 134.1, 548.7 134.3 Q 549.4 134.5, 549.8 134.7 Q 550.2 134.9, 550.4 135.3 Q 550.7 135.8, 550.7 136.5 Q 550.7 137.5, 550.0 138.0 Q 549.4 138.6, 548.2 138.6 Q 547.6 138.6, 547.1 138.4 Q 546.6 138.3, 546.0 138.1 L 546.3 137.2 " fill="#000000"/>
<path class="atom-3" d="M 573.6 125.9 Q 574.9 125.9, 575.5 126.5 Q 576.2 127.0, 576.2 128.1 Q 576.2 129.1, 575.5 129.7 Q 574.9 130.2, 573.6 130.2 L 572.5 130.2 L 572.5 133.3 L 571.5 133.3 L 571.5 125.9 L 573.6 125.9 M 573.6 129.4 Q 574.3 129.4, 574.7 129.1 Q 575.1 128.7, 575.1 128.1 Q 575.1 127.4, 574.7 127.1 Q 574.4 126.7, 573.6 126.7 L 572.5 126.7 L 572.5 129.4 L 573.6 129.4 " fill="#000000"/>
<path class="atom-3" d="M 577.2 125.9 L 578.2 125.9 L 578.2 129.0 L 581.9 129.0 L 581.9 125.9 L 582.9 125.9 L 582.9 133.3 L 581.9 133.3 L 581.9 129.9 L 578.2 129.9 L 578.2 133.3 L 577.2 133.3 L 577.2 125.9 " fill="#000000"/>
<path class="atom-4" d="M 580.0 107.5 Q 580.1 107.5, 580.4 107.7 Q 580.8 107.8, 581.1 107.9 Q 581.5 108.0, 581.9 108.0 Q 582.6 108.0, 583.0 107.7 Q 583.4 107.3, 583.4 106.7 Q 583.4 106.3, 583.2 106.1 Q 583.0 105.8, 582.7 105.7 Q 582.4 105.6, 581.9 105.4 Q 581.2 105.2, 580.8 105.0 Q 580.4 104.8, 580.1 104.4 Q 579.9 104.0, 579.9 103.4 Q 579.9 102.5, 580.5 101.9 Q 581.1 101.3, 582.4 101.3 Q 583.2 101.3, 584.2 101.7 L 583.9 102.5 Q 583.1 102.2, 582.4 102.2 Q 581.7 102.2, 581.3 102.5 Q 580.9 102.8, 580.9 103.3 Q 580.9 103.7, 581.1 103.9 Q 581.3 104.1, 581.6 104.3 Q 581.9 104.4, 582.4 104.6 Q 583.1 104.8, 583.5 105.0 Q 583.9 105.2, 584.1 105.6 Q 584.4 106.0, 584.4 106.7 Q 584.4 107.8, 583.7 108.3 Q 583.1 108.8, 581.9 108.8 Q 581.3 108.8, 580.8 108.7 Q 580.3 108.6, 579.7 108.3 L 580.0 107.5 " fill="#000000"/>
<path class="atom-5" d="M 607.3 96.2 Q 608.6 96.2, 609.2 96.7 Q 609.8 97.3, 609.8 98.3 Q 609.8 99.3, 609.2 99.9 Q 608.5 100.5, 607.3 100.5 L 606.2 100.5 L 606.2 103.5 L 605.2 103.5 L 605.2 96.2 L 607.3 96.2 M 607.3 99.7 Q 608.0 99.7, 608.4 99.3 Q 608.8 99.0, 608.8 98.3 Q 608.8 97.7, 608.4 97.3 Q 608.1 97.0, 607.3 97.0 L 606.2 97.0 L 606.2 99.7 L 607.3 99.7 " fill="#000000"/>
<path class="atom-5" d="M 604.6 88.1 L 605.6 88.1 L 605.6 91.2 L 609.4 91.2 L 609.4 88.1 L 610.4 88.1 L 610.4 95.4 L 609.4 95.4 L 609.4 92.0 L 605.6 92.0 L 605.6 95.4 L 604.6 95.4 L 604.6 88.1 " fill="#000000"/>
<path class="atom-5" d="M 611.8 89.4 L 613.1 89.4 L 613.1 88.0 L 613.7 88.0 L 613.7 89.4 L 615.0 89.4 L 615.0 89.9 L 613.7 89.9 L 613.7 91.3 L 613.1 91.3 L 613.1 89.9 L 611.8 89.9 L 611.8 89.4 " fill="#000000"/>
<path class="atom-7" d="M 648.5 110.5 L 650.9 114.4 Q 651.1 114.7, 651.5 115.4 Q 651.9 116.1, 651.9 116.2 L 651.9 110.5 L 652.9 110.5 L 652.9 117.8 L 651.9 117.8 L 649.3 113.6 Q 649.0 113.1, 648.7 112.5 Q 648.4 111.9, 648.3 111.7 L 648.3 117.8 L 647.3 117.8 L 647.3 110.5 L 648.5 110.5 " fill="#000000"/>
<path class="atom-7" d="M 647.2 102.4 L 648.2 102.4 L 648.2 105.5 L 652.0 105.5 L 652.0 102.4 L 653.0 102.4 L 653.0 109.7 L 652.0 109.7 L 652.0 106.3 L 648.2 106.3 L 648.2 109.7 L 647.2 109.7 L 647.2 102.4 " fill="#000000"/>
<path class="atom-8" d="M 665.7 129.9 L 668.1 133.8 Q 668.3 134.2, 668.7 134.9 Q 669.1 135.6, 669.1 135.6 L 669.1 129.9 L 670.1 129.9 L 670.1 137.3 L 669.1 137.3 L 666.5 133.0 Q 666.2 132.5, 665.9 131.9 Q 665.5 131.4, 665.4 131.2 L 665.4 137.3 L 664.5 137.3 L 664.5 129.9 L 665.7 129.9 " fill="#000000"/>
<path class="atom-8" d="M 671.4 131.2 L 672.7 131.2 L 672.7 129.9 L 673.3 129.9 L 673.3 131.2 L 674.6 131.2 L 674.6 131.7 L 673.3 131.7 L 673.3 133.1 L 672.7 133.1 L 672.7 131.7 L 671.4 131.7 L 671.4 131.2 " fill="#000000"/>
<path class="atom-8" d="M 664.4 138.0 L 665.4 138.0 L 665.4 141.1 L 669.2 141.1 L 669.2 138.0 L 670.2 138.0 L 670.2 145.4 L 669.2 145.4 L 669.2 142.0 L 665.4 142.0 L 665.4 145.4 L 664.4 145.4 L 664.4 138.0 " fill="#000000"/>
<path class="atom-9" d="M 690.6 131.0 Q 690.7 131.0, 691.1 131.1 Q 691.4 131.3, 691.8 131.4 Q 692.2 131.5, 692.5 131.5 Q 693.2 131.5, 693.6 131.1 Q 694.0 130.8, 694.0 130.2 Q 694.0 129.8, 693.8 129.6 Q 693.6 129.3, 693.3 129.2 Q 693.0 129.0, 692.5 128.9 Q 691.8 128.7, 691.4 128.5 Q 691.1 128.3, 690.8 127.9 Q 690.5 127.5, 690.5 126.9 Q 690.5 125.9, 691.1 125.4 Q 691.8 124.8, 693.0 124.8 Q 693.9 124.8, 694.8 125.2 L 694.6 126.0 Q 693.7 125.6, 693.0 125.6 Q 692.3 125.6, 691.9 125.9 Q 691.5 126.2, 691.5 126.7 Q 691.5 127.1, 691.7 127.4 Q 692.0 127.6, 692.2 127.7 Q 692.5 127.9, 693.0 128.0 Q 693.7 128.2, 694.1 128.4 Q 694.5 128.6, 694.8 129.1 Q 695.1 129.5, 695.1 130.2 Q 695.1 131.2, 694.4 131.8 Q 693.7 132.3, 692.6 132.3 Q 691.9 132.3, 691.4 132.2 Q 690.9 132.0, 690.4 131.8 L 690.6 131.0 " fill="#000000"/>
<path class="atom-9" d="M 689.8 116.5 L 690.8 116.5 L 690.8 119.6 L 694.6 119.6 L 694.6 116.5 L 695.6 116.5 L 695.6 123.8 L 694.6 123.8 L 694.6 120.5 L 690.8 120.5 L 690.8 123.8 L 689.8 123.8 L 689.8 116.5 " fill="#000000"/>
<path class="atom-9" d="M 697.0 117.8 L 698.3 117.8 L 698.3 116.5 L 698.9 116.5 L 698.9 117.8 L 700.2 117.8 L 700.2 118.3 L 698.9 118.3 L 698.9 119.7 L 698.3 119.7 L 698.3 118.3 L 697.0 118.3 L 697.0 117.8 " fill="#000000"/>
<path class="atom-10" d="M 709.7 144.2 Q 711.0 144.2, 711.6 144.8 Q 712.2 145.4, 712.2 146.4 Q 712.2 147.4, 711.6 148.0 Q 710.9 148.6, 709.7 148.6 L 708.5 148.6 L 708.5 151.6 L 707.5 151.6 L 707.5 144.2 L 709.7 144.2 M 709.7 147.7 Q 710.4 147.7, 710.8 147.4 Q 711.2 147.0, 711.2 146.4 Q 711.2 145.7, 710.8 145.4 Q 710.4 145.1, 709.7 145.1 L 708.5 145.1 L 708.5 147.7 L 709.7 147.7 " fill="#000000"/>
<path class="atom-11" d="M 733.1 139.1 L 737.5 139.1 L 737.5 139.9 L 734.1 139.9 L 734.1 142.2 L 737.1 142.2 L 737.1 143.0 L 734.1 143.0 L 734.1 146.4 L 733.1 146.4 L 733.1 139.1 " fill="#000000"/>
<path class="atom-12" d="M 555.0 81.9 L 556.0 81.9 L 556.0 85.0 L 559.7 85.0 L 559.7 81.9 L 560.7 81.9 L 560.7 89.2 L 559.7 89.2 L 559.7 85.8 L 556.0 85.8 L 556.0 89.2 L 555.0 89.2 L 555.0 81.9 " fill="#000000"/>
<path class="atom-12" d="M 563.3 81.9 L 565.7 85.7 Q 565.9 86.1, 566.3 86.8 Q 566.7 87.5, 566.7 87.6 L 566.7 81.9 L 567.7 81.9 L 567.7 89.2 L 566.7 89.2 L 564.1 84.9 Q 563.8 84.5, 563.5 83.9 Q 563.2 83.3, 563.1 83.1 L 563.1 89.2 L 562.1 89.2 L 562.1 81.9 L 563.3 81.9 " fill="#000000"/>
<path class="atom-12" d="M 569.0 83.1 L 571.6 83.1 L 571.6 83.6 L 569.0 83.6 L 569.0 83.1 " fill="#000000"/>
<path class="atom-3" d="M 585.0,129.6 L 585.0,129.6 L 585.0,129.7 L 585.0,129.7 L 585.0,129.8 L 584.9,129.8 L 584.9,129.8 L 584.9,129.9 L 584.9,129.9 L 584.8,129.9 L 584.8,130.0 L 584.8,130.0 L 584.7,130.0 L 584.7,130.0 L 584.7,130.1 L 584.6,130.1 L 584.6,130.1 L 584.5,130.1 L 584.5,130.1 L 584.4,130.1 L 584.4,130.1 L 584.4,130.1 L 584.3,130.1 L 584.3,130.1 L 584.2,130.0 L 584.2,130.0 L 584.2,130.0 L 584.1,130.0 L 584.1,129.9 L 584.1,129.9 L 584.0,129.9 L 584.0,129.8 L 584.0,129.8 L 584.0,129.7 L 584.0,129.7 L 584.0,129.6 L 584.0,129.6 L 584.0,129.6 L 584.0,129.5 L 584.0,129.5 L 584.0,129.4 L 584.0,129.4 L 584.0,129.3 L 584.0,129.3 L 584.1,129.3 L 584.1,129.2 L 584.1,129.2 L 584.2,129.2 L 584.2,129.1 L 584.2,129.1 L 584.3,129.1 L 584.3,129.1 L 584.4,129.1 L 584.4,129.1 L 584.4,129.1 L 584.5,129.1 L 584.5,129.1 L 584.6,129.1 L 584.6,129.1 L 584.7,129.1 L 584.7,129.1 L 584.7,129.1 L 584.8,129.2 L 584.8,129.2 L 584.8,129.2 L 584.9,129.3 L 584.9,129.3 L 584.9,129.3 L 584.9,129.4 L 585.0,129.4 L 585.0,129.4 L 585.0,129.5 L 585.0,129.5 L 585.0,129.6 L 584.5,129.6 Z" style="fill:#000000;fill-rule:evenodd;fill-opacity:1;stroke:#000000;stroke-width:0.0px;stroke-linecap:butt;stroke-linejoin:miter;stroke-miterlimit:10;stroke-opacity:1;"/>
<path class="atom-5" d="M 608.0,87.3 L 608.0,87.3 L 608.0,87.4 L 608.0,87.4 L 608.0,87.4 L 608.0,87.5 L 608.0,87.5 L 607.9,87.6 L 607.9,87.6 L 607.9,87.6 L 607.8,87.7 L 607.8,87.7 L 607.8,87.7 L 607.7,87.7 L 607.7,87.7 L 607.6,87.8 L 607.6,87.8 L 607.6,87.8 L 607.5,87.8 L 607.5,87.8 L 607.4,87.8 L 607.4,87.8 L 607.3,87.8 L 607.3,87.7 L 607.3,87.7 L 607.2,87.7 L 607.2,87.7 L 607.1,87.6 L 607.1,87.6 L 607.1,87.6 L 607.1,87.5 L 607.0,87.5 L 607.0,87.5 L 607.0,87.4 L 607.0,87.4 L 607.0,87.3 L 607.0,87.3 L 607.0,87.2 L 607.0,87.2 L 607.0,87.2 L 607.0,87.1 L 607.0,87.1 L 607.0,87.0 L 607.1,87.0 L 607.1,87.0 L 607.1,86.9 L 607.1,86.9 L 607.2,86.9 L 607.2,86.8 L 607.3,86.8 L 607.3,86.8 L 607.3,86.8 L 607.4,86.8 L 607.4,86.8 L 607.5,86.7 L 607.5,86.7 L 607.6,86.7 L 607.6,86.8 L 607.6,86.8 L 607.7,86.8 L 607.7,86.8 L 607.8,86.8 L 607.8,86.8 L 607.8,86.9 L 607.9,86.9 L 607.9,86.9 L 607.9,87.0 L 608.0,87.0 L 608.0,87.0 L 608.0,87.1 L 608.0,87.1 L 608.0,87.2 L 608.0,87.2 L 608.0,87.3 L 607.5,87.3 Z" style="fill:#000000;fill-rule:evenodd;fill-opacity:1;stroke:#000000;stroke-width:0.0px;stroke-linecap:butt;stroke-linejoin:miter;stroke-miterlimit:10;stroke-opacity:1;"/>
<path class="atom-6" d="M 625.2,121.6 L 625.2,121.7 L 625.2,121.7 L 625.2,121.8 L 625.2,121.8 L 625.1,121.8 L 625.1,121.9 L 625.1,121.9 L 625.1,122.0 L 625.0,122.0 L 625.0,122.0 L 625.0,122.0 L 624.9,122.1 L 624.9,122.1 L 624.9,122.1 L 624.8,122.1 L 624.8,122.1 L 624.7,122.1 L 624.7,122.1 L 624.6,122.1 L 624.6,122.1 L 624.6,122.1 L 624.5,122.1 L 624.5,122.1 L 624.4,122.1 L 624.4,122.1 L 624.4,122.0 L 624.3,122.0 L 624.3,122.0 L 624.3,121.9 L 624.2,121.9 L 624.2,121.9 L 624.2,121.8 L 624.2,121.8 L 624.2,121.7 L 624.2,121.7 L 624.2,121.6 L 624.2,121.6 L 624.2,121.6 L 624.2,121.5 L 624.2,121.5 L 624.2,121.4 L 624.2,121.4 L 624.2,121.3 L 624.3,121.3 L 624.3,121.3 L 624.3,121.2 L 624.4,121.2 L 624.4,121.2 L 624.4,121.2 L 624.5,121.1 L 624.5,121.1 L 624.6,121.1 L 624.6,121.1 L 624.6,121.1 L 624.7,121.1 L 624.7,121.1 L 624.8,121.1 L 624.8,121.1 L 624.9,121.1 L 624.9,121.2 L 624.9,121.2 L 625.0,121.2 L 625.0,121.2 L 625.0,121.3 L 625.1,121.3 L 625.1,121.3 L 625.1,121.4 L 625.1,121.4 L 625.2,121.4 L 625.2,121.5 L 625.2,121.5 L 625.2,121.6 L 625.2,121.6 L 624.7,121.6 Z" style="fill:#000000;fill-rule:evenodd;fill-opacity:1;stroke:#000000;stroke-width:0.0px;stroke-linecap:butt;stroke-linejoin:miter;stroke-miterlimit:10;stroke-opacity:1;"/>
<path class="bond-0 atom-0 atom-1" d="M 62.3,358.1 L 104.2,375.9" style="fill:none;fill-rule:evenodd;stroke:#000000;stroke-width:2.0px;stroke-linecap:butt;stroke-linejoin:miter;stroke-opacity:1"/>
<path class="bond-1 atom-1 atom-2" d="M 122.6,372.9 L 165.8,340.5" style="fill:none;fill-rule:evenodd;stroke:#000000;stroke-width:2.0px;stroke-linecap:butt;stroke-linejoin:miter;stroke-opacity:1"/>
<path class="bond-2 atom-2 atom-3" d="M 165.8,340.5 L 216.7,362.2" style="fill:none;fill-rule:evenodd;stroke:#000000;stroke-width:2.0px;stroke-linecap:butt;stroke-linejoin:miter;stroke-opacity:1"/>
<path d="M 163.6,342.1 L 165.8,340.5 L 168.3,341.6" style="fill:none;stroke:#000000;stroke-width:2.0px;stroke-linecap:butt;stroke-linejoin:miter;stroke-miterlimit:10;stroke-opacity:1;"/>
<path class="atom-0" d="M 17.4 344.9 L 19.9 344.9 L 19.9 352.8 L 29.4 352.8 L 29.4 344.9 L 31.9 344.9 L 31.9 363.5 L 29.4 363.5 L 29.4 354.9 L 19.9 354.9 L 19.9 363.5 L 17.4 363.5 L 17.4 344.9 " fill="#000000"/>
<path class="atom-0" d="M 35.5 362.8 Q 36.0 361.7, 37.0 361.0 Q 38.1 360.4, 39.6 360.4 Q 41.5 360.4, 42.5 361.4 Q 43.5 362.4, 43.5 364.2 Q 43.5 366.0, 42.2 367.7 Q 40.9 369.4, 38.1 371.4 L 43.7 371.4 L 43.7 372.7 L 35.5 372.7 L 35.5 371.6 Q 37.8 370.0, 39.1 368.8 Q 40.5 367.5, 41.1 366.5 Q 41.8 365.4, 41.8 364.2 Q 41.8 363.1, 41.2 362.4 Q 40.6 361.8, 39.6 361.8 Q 38.6 361.8, 38.0 362.1 Q 37.3 362.5, 36.8 363.4 L 35.5 362.8 " fill="#000000"/>
<path class="atom-0" d="M 49.0 344.9 L 55.1 354.7 Q 55.7 355.7, 56.7 357.5 Q 57.7 359.2, 57.7 359.3 L 57.7 344.9 L 60.2 344.9 L 60.2 363.5 L 57.6 363.5 L 51.1 352.7 Q 50.4 351.5, 49.5 350.0 Q 48.8 348.6, 48.5 348.1 L 48.5 363.5 L 46.1 363.5 L 46.1 344.9 L 49.0 344.9 " fill="#000000"/>
<path class="atom-0" d="M 63.7 348.3 L 67.0 348.3 L 67.0 344.8 L 68.4 344.8 L 68.4 348.3 L 71.8 348.3 L 71.8 349.5 L 68.4 349.5 L 68.4 353.0 L 67.0 353.0 L 67.0 349.5 L 63.7 349.5 L 63.7 348.3 " fill="#000000"/>
<path class="atom-1" d="M 109.3 370.6 L 115.4 380.4 Q 116.0 381.4, 117.0 383.1 Q 117.9 384.9, 118.0 385.0 L 118.0 370.6 L 120.5 370.6 L 120.5 389.1 L 117.9 389.1 L 111.4 378.4 Q 110.6 377.1, 109.8 375.7 Q 109.0 374.2, 108.8 373.8 L 108.8 389.1 L 106.4 389.1 L 106.4 370.6 L 109.3 370.6 " fill="#000000"/>
<path class="atom-1" d="M 106.2 391.0 L 108.7 391.0 L 108.7 398.9 L 118.2 398.9 L 118.2 391.0 L 120.7 391.0 L 120.7 409.5 L 118.2 409.5 L 118.2 401.0 L 108.7 401.0 L 108.7 409.5 L 106.2 409.5 L 106.2 391.0 " fill="#000000"/>
<path class="atom-3" d="M 218.9 366.8 Q 218.9 362.1, 221.0 359.7 Q 223.2 357.3, 227.3 357.3 Q 231.2 357.3, 233.2 360.0 L 231.5 361.4 Q 230.0 359.5, 227.3 359.5 Q 224.5 359.5, 223.0 361.3 Q 221.6 363.2, 221.6 366.8 Q 221.6 370.4, 223.1 372.3 Q 224.6 374.2, 227.6 374.2 Q 229.7 374.2, 232.1 373.0 L 232.8 374.9 Q 231.8 375.6, 230.3 375.9 Q 228.9 376.3, 227.3 376.3 Q 223.2 376.3, 221.0 373.8 Q 218.9 371.4, 218.9 366.8 " fill="#000000"/>
<path class="atom-3" d="M 235.1 356.2 L 237.5 356.2 L 237.5 376.1 L 235.1 376.1 L 235.1 356.2 " fill="#000000"/>
<path class="atom-0" d="M 14.8,354.2 L 14.8,354.3 L 14.8,354.4 L 14.7,354.5 L 14.7,354.6 L 14.7,354.7 L 14.6,354.8 L 14.6,354.9 L 14.5,355.0 L 14.4,355.1 L 14.3,355.2 L 14.2,355.3 L 14.2,355.3 L 14.1,355.4 L 14.0,355.4 L 13.8,355.5 L 13.7,355.5 L 13.6,355.5 L 13.5,355.5 L 13.4,355.5 L 13.3,355.5 L 13.2,355.5 L 13.1,355.4 L 13.0,355.4 L 12.9,355.4 L 12.8,355.3 L 12.7,355.2 L 12.6,355.2 L 12.5,355.1 L 12.4,355.0 L 12.4,354.9 L 12.3,354.8 L 12.3,354.7 L 12.2,354.6 L 12.2,354.5 L 12.2,354.4 L 12.2,354.3 L 12.2,354.1 L 12.2,354.0 L 12.2,353.9 L 12.2,353.8 L 12.3,353.7 L 12.3,353.6 L 12.4,353.5 L 12.4,353.4 L 12.5,353.3 L 12.6,353.2 L 12.7,353.2 L 12.8,353.1 L 12.9,353.0 L 13.0,353.0 L 13.1,353.0 L 13.2,352.9 L 13.3,352.9 L 13.4,352.9 L 13.5,352.9 L 13.6,352.9 L 13.7,352.9 L 13.8,352.9 L 14.0,353.0 L 14.1,353.0 L 14.2,353.1 L 14.2,353.1 L 14.3,353.2 L 14.4,353.3 L 14.5,353.4 L 14.6,353.5 L 14.6,353.6 L 14.7,353.7 L 14.7,353.8 L 14.7,353.9 L 14.8,354.0 L 14.8,354.1 L 14.8,354.2 L 13.5,354.2 Z" style="fill:#000000;fill-rule:evenodd;fill-opacity:1;stroke:#000000;stroke-width:0.0px;stroke-linecap:butt;stroke-linejoin:miter;stroke-miterlimit:10;stroke-opacity:1;"/>
<path class="bond-0 atom-0 atom-1" d="M 275.2,363.3 L 322.4,390.6" style="fill:none;fill-rule:evenodd;stroke:#000000;stroke-width:2.0px;stroke-linecap:butt;stroke-linejoin:miter;stroke-opacity:1"/>
<path class="bond-1 atom-1 atom-2" d="M 322.4,390.6 L 366.8,365.0" style="fill:none;fill-rule:evenodd;stroke:#000000;stroke-width:2.0px;stroke-linecap:butt;stroke-linejoin:miter;stroke-opacity:1"/>
<path class="bond-2 atom-2 atom-3" d="M 387.3,365.0 L 423.9,386.1" style="fill:none;fill-rule:evenodd;stroke:#000000;stroke-width:2.0px;stroke-linecap:butt;stroke-linejoin:miter;stroke-opacity:1"/>
<path class="bond-3 atom-3 atom-4" d="M 439.5,386.1 L 483.0,360.9" style="fill:none;fill-rule:evenodd;stroke:#000000;stroke-width:2.0px;stroke-linecap:butt;stroke-linejoin:miter;stroke-opacity:1"/>
<path d="M 320.1,389.2 L 322.4,390.6 L 324.7,389.3" style="fill:none;stroke:#000000;stroke-width:2.0px;stroke-linecap:butt;stroke-linejoin:miter;stroke-miterlimit:10;stroke-opacity:1;"/>
<path class="atom-0" d="M 262.5 350.1 L 273.1 350.1 L 273.1 352.2 L 264.9 352.2 L 264.9 357.6 L 272.2 357.6 L 272.2 359.7 L 264.9 359.7 L 264.9 368.0 L 262.5 368.0 L 262.5 350.1 " fill="#000000"/>
<path class="atom-2" d="M 368.9 359.1 Q 368.9 354.8, 371.0 352.4 Q 373.1 350.0, 377.1 350.0 Q 381.0 350.0, 383.1 352.4 Q 385.3 354.8, 385.3 359.1 Q 385.3 363.4, 383.1 365.9 Q 381.0 368.4, 377.1 368.4 Q 373.1 368.4, 371.0 365.9 Q 368.9 363.5, 368.9 359.1 M 377.1 366.3 Q 379.8 366.3, 381.2 364.5 Q 382.7 362.7, 382.7 359.1 Q 382.7 355.6, 381.2 353.8 Q 379.8 352.0, 377.1 352.0 Q 374.3 352.0, 372.8 353.8 Q 371.4 355.6, 371.4 359.1 Q 371.4 362.7, 372.8 364.5 Q 374.3 366.3, 377.1 366.3 " fill="#000000"/>
<path class="atom-3" d="M 426.6 396.7 Q 426.8 396.8, 427.7 397.2 Q 428.5 397.5, 429.4 397.7 Q 430.3 397.9, 431.2 397.9 Q 432.9 397.9, 433.9 397.1 Q 434.9 396.3, 434.9 394.9 Q 434.9 393.9, 434.4 393.3 Q 433.9 392.7, 433.2 392.3 Q 432.4 392.0, 431.1 391.6 Q 429.6 391.1, 428.6 390.7 Q 427.7 390.2, 427.0 389.3 Q 426.3 388.3, 426.3 386.7 Q 426.3 384.5, 427.8 383.1 Q 429.4 381.7, 432.4 381.7 Q 434.5 381.7, 436.8 382.7 L 436.2 384.6 Q 434.1 383.7, 432.5 383.7 Q 430.7 383.7, 429.8 384.5 Q 428.8 385.2, 428.9 386.4 Q 428.9 387.4, 429.3 387.9 Q 429.8 388.5, 430.5 388.9 Q 431.3 389.2, 432.5 389.6 Q 434.1 390.1, 435.1 390.6 Q 436.0 391.1, 436.7 392.1 Q 437.4 393.1, 437.4 394.9 Q 437.4 397.3, 435.7 398.7 Q 434.1 400.0, 431.4 400.0 Q 429.8 400.0, 428.6 399.6 Q 427.4 399.3, 426.0 398.7 L 426.6 396.7 " fill="#000000"/>
<path class="atom-4" d="M 485.1 350.1 L 487.5 350.1 L 487.5 368.0 L 485.1 368.0 L 485.1 350.1 " fill="#000000"/>
<path class="atom-1" d="M 323.7,396.3 L 323.7,396.4 L 323.7,396.5 L 323.7,396.6 L 323.6,396.7 L 323.6,396.8 L 323.5,396.9 L 323.5,397.0 L 323.4,397.1 L 323.3,397.2 L 323.3,397.2 L 323.2,397.3 L 323.1,397.4 L 323.0,397.4 L 322.9,397.4 L 322.8,397.5 L 322.7,397.5 L 322.6,397.5 L 322.5,397.5 L 322.4,397.5 L 322.2,397.5 L 322.1,397.5 L 322.0,397.5 L 321.9,397.4 L 321.8,397.4 L 321.7,397.3 L 321.7,397.3 L 321.6,397.2 L 321.5,397.1 L 321.4,397.0 L 321.4,396.9 L 321.3,396.8 L 321.3,396.7 L 321.2,396.6 L 321.2,396.5 L 321.2,396.4 L 321.2,396.3 L 321.2,396.2 L 321.2,396.1 L 321.2,396.0 L 321.2,395.9 L 321.3,395.8 L 321.3,395.7 L 321.4,395.6 L 321.4,395.5 L 321.5,395.4 L 321.6,395.3 L 321.7,395.3 L 321.7,395.2 L 321.8,395.2 L 321.9,395.1 L 322.0,395.1 L 322.1,395.0 L 322.2,395.0 L 322.4,395.0 L 322.5,395.0 L 322.6,395.0 L 322.7,395.0 L 322.8,395.1 L 322.9,395.1 L 323.0,395.1 L 323.1,395.2 L 323.2,395.2 L 323.3,395.3 L 323.3,395.4 L 323.4,395.5 L 323.5,395.6 L 323.5,395.6 L 323.6,395.7 L 323.6,395.8 L 323.7,395.9 L 323.7,396.1 L 323.7,396.2 L 323.7,396.3 L 322.4,396.3 Z" style="fill:#000000;fill-rule:evenodd;fill-opacity:1;stroke:#000000;stroke-width:0.0px;stroke-linecap:butt;stroke-linejoin:miter;stroke-miterlimit:10;stroke-opacity:1;"/>
<path class="bond-0 atom-0 atom-1" d="M 538.1,362.9 L 683.8,362.9" style="fill:none;fill-rule:evenodd;stroke:#000000;stroke-width:2.0px;stroke-linecap:butt;stroke-linejoin:miter;stroke-opacity:1"/>
<path class="bond-0 atom-0 atom-1" d="M 538.1,387.1 L 683.8,387.1" style="fill:none;fill-rule:evenodd;stroke:#000000;stroke-width:2.0px;stroke-linecap:butt;stroke-linejoin:miter;stroke-opacity:1"/>
<path class="atom-1" d="M 693.6 360.8 L 702.9 375.8 Q 703.8 377.3, 705.3 380.0 Q 706.8 382.7, 706.9 382.8 L 706.9 360.8 L 710.6 360.8 L 710.6 389.2 L 706.7 389.2 L 696.8 372.8 Q 695.6 370.8, 694.4 368.6 Q 693.2 366.4, 692.8 365.8 L 692.8 389.2 L 689.1 389.2 L 689.1 360.8 L 693.6 360.8 " fill="#000000"/>
<path class="atom-1" d="M 715.7 365.5 L 725.4 365.5 L 725.4 367.6 L 715.7 367.6 L 715.7 365.5 " fill="#000000"/>
<path class="atom-0" d="M 528.1,379.0 L 528.1,379.2 L 528.0,379.3 L 528.0,379.5 L 528.0,379.7 L 527.9,379.8 L 527.8,380.0 L 527.7,380.1 L 527.6,380.3 L 527.5,380.4 L 527.4,380.5 L 527.2,380.6 L 527.1,380.7 L 526.9,380.8 L 526.8,380.9 L 526.6,380.9 L 526.5,381.0 L 526.3,381.0 L 526.1,381.0 L 525.9,381.0 L 525.8,381.0 L 525.6,380.9 L 525.4,380.9 L 525.3,380.8 L 525.1,380.8 L 525.0,380.7 L 524.8,380.6 L 524.7,380.5 L 524.6,380.3 L 524.5,380.2 L 524.4,380.1 L 524.3,379.9 L 524.2,379.8 L 524.2,379.6 L 524.1,379.4 L 524.1,379.3 L 524.1,379.1 L 524.1,378.9 L 524.1,378.7 L 524.1,378.6 L 524.2,378.4 L 524.2,378.2 L 524.3,378.1 L 524.4,377.9 L 524.5,377.8 L 524.6,377.7 L 524.7,377.5 L 524.8,377.4 L 525.0,377.3 L 525.1,377.2 L 525.3,377.2 L 525.4,377.1 L 525.6,377.1 L 525.8,377.0 L 525.9,377.0 L 526.1,377.0 L 526.3,377.0 L 526.5,377.0 L 526.6,377.1 L 526.8,377.1 L 526.9,377.2 L 527.1,377.3 L 527.2,377.4 L 527.4,377.5 L 527.5,377.6 L 527.6,377.7 L 527.7,377.9 L 527.8,378.0 L 527.9,378.2 L 528.0,378.3 L 528.0,378.5 L 528.0,378.7 L 528.1,378.8 L 528.1,379.0 L 526.1,379.0 Z" style="fill:#000000;fill-rule:evenodd;fill-opacity:1;stroke:#000000;stroke-width:0.0px;stroke-linecap:butt;stroke-linejoin:miter;stroke-miterlimit:10;stroke-opacity:1;"/>
<path class="atom-0" d="M 528.1,371.0 L 528.1,371.2 L 528.0,371.3 L 528.0,371.5 L 528.0,371.7 L 527.9,371.8 L 527.8,372.0 L 527.7,372.1 L 527.6,372.3 L 527.5,372.4 L 527.4,372.5 L 527.2,372.6 L 527.1,372.7 L 526.9,372.8 L 526.8,372.9 L 526.6,372.9 L 526.5,373.0 L 526.3,373.0 L 526.1,373.0 L 525.9,373.0 L 525.8,373.0 L 525.6,372.9 L 525.4,372.9 L 525.3,372.8 L 525.1,372.8 L 525.0,372.7 L 524.8,372.6 L 524.7,372.5 L 524.6,372.3 L 524.5,372.2 L 524.4,372.1 L 524.3,371.9 L 524.2,371.8 L 524.2,371.6 L 524.1,371.4 L 524.1,371.3 L 524.1,371.1 L 524.1,370.9 L 524.1,370.7 L 524.1,370.6 L 524.2,370.4 L 524.2,370.2 L 524.3,370.1 L 524.4,369.9 L 524.5,369.8 L 524.6,369.7 L 524.7,369.5 L 524.8,369.4 L 525.0,369.3 L 525.1,369.2 L 525.3,369.2 L 525.4,369.1 L 525.6,369.1 L 525.8,369.0 L 525.9,369.0 L 526.1,369.0 L 526.3,369.0 L 526.5,369.0 L 526.6,369.1 L 526.8,369.1 L 526.9,369.2 L 527.1,369.3 L 527.2,369.4 L 527.4,369.5 L 527.5,369.6 L 527.6,369.7 L 527.7,369.9 L 527.8,370.0 L 527.9,370.2 L 528.0,370.3 L 528.0,370.5 L 528.0,370.7 L 528.1,370.8 L 528.1,371.0 L 526.1,371.0 Z" style="fill:#000000;fill-rule:evenodd;fill-opacity:1;stroke:#000000;stroke-width:0.0px;stroke-linecap:butt;stroke-linejoin:miter;stroke-miterlimit:10;stroke-opacity:1;"/>
<path class="bond-0 atom-0 atom-1" d="M 30.4,619.4 L 18.2,626.3" style="fill:none;fill-rule:evenodd;stroke:#000000;stroke-width:2.0px;stroke-linecap:butt;stroke-linejoin:miter;stroke-opacity:1"/>
<path class="bond-1 atom-0 atom-2" d="M 36.0,618.2 L 48.1,625.3" style="fill:none;fill-rule:evenodd;stroke:#000000;stroke-width:2.0px;stroke-linecap:butt;stroke-linejoin:miter;stroke-opacity:1"/>
<path class="bond-1 atom-0 atom-2" d="M 34.6,620.7 L 46.6,627.8" style="fill:none;fill-rule:evenodd;stroke:#000000;stroke-width:2.0px;stroke-linecap:butt;stroke-linejoin:miter;stroke-opacity:1"/>
<path class="bond-2 atom-2 atom-3" d="M 52.2,626.6 L 66.9,618.3" style="fill:none;fill-rule:evenodd;stroke:#000000;stroke-width:2.0px;stroke-linecap:butt;stroke-linejoin:miter;stroke-opacity:1"/>
<path class="bond-3 atom-3 atom-4" d="M 66.9,618.3 L 81.4,626.9" style="fill:none;fill-rule:evenodd;stroke:#000000;stroke-width:2.0px;stroke-linecap:butt;stroke-linejoin:miter;stroke-opacity:1"/>
<path class="bond-4 atom-4 atom-5" d="M 86.3,626.9 L 101.0,618.6" style="fill:none;fill-rule:evenodd;stroke:#000000;stroke-width:2.0px;stroke-linecap:butt;stroke-linejoin:miter;stroke-opacity:1"/>
<path class="bond-5 atom-5 atom-6" d="M 101.0,618.6 L 114.7,626.7" style="fill:none;fill-rule:evenodd;stroke:#000000;stroke-width:2.0px;stroke-linecap:butt;stroke-linejoin:miter;stroke-opacity:1"/>
<path class="bond-6 atom-6 atom-7" d="M 121.1,626.8 L 132.6,620.3" style="fill:none;fill-rule:evenodd;stroke:#000000;stroke-width:2.0px;stroke-linecap:butt;stroke-linejoin:miter;stroke-opacity:1"/>
<path class="bond-7 atom-7 atom-8" d="M 137.4,620.4 L 149.2,627.3" style="fill:none;fill-rule:evenodd;stroke:#000000;stroke-width:2.0px;stroke-linecap:butt;stroke-linejoin:miter;stroke-opacity:1"/>
<path class="bond-8 atom-9 atom-8" d="M 163.1,622.0 L 163.6,622.9" style="fill:none;fill-rule:evenodd;stroke:#000000;stroke-width:1.0px;stroke-linecap:butt;stroke-linejoin:miter;stroke-opacity:1"/>
<path class="bond-8 atom-9 atom-8" d="M 160.2,623.1 L 161.2,624.8" style="fill:none;fill-rule:evenodd;stroke:#000000;stroke-width:1.0px;stroke-linecap:butt;stroke-linejoin:miter;stroke-opacity:1"/>
<path class="bond-8 atom-9 atom-8" d="M 157.3,624.2 L 158.8,626.7" style="fill:none;fill-rule:evenodd;stroke:#000000;stroke-width:1.0px;stroke-linecap:butt;stroke-linejoin:miter;stroke-opacity:1"/>
<path class="bond-9 atom-9 atom-10" d="M 171.5,620.7 L 183.5,627.8" style="fill:none;fill-rule:evenodd;stroke:#000000;stroke-width:2.0px;stroke-linecap:butt;stroke-linejoin:miter;stroke-opacity:1"/>
<path class="bond-10 atom-10 atom-11" d="M 191.6,626.1 L 200.3,621.1" style="fill:none;fill-rule:evenodd;stroke:#000000;stroke-width:2.0px;stroke-linecap:butt;stroke-linejoin:miter;stroke-opacity:1"/>
<path class="bond-11 atom-11 atom-12" d="M 205.8,621.2 L 220.0,629.5" style="fill:none;fill-rule:evenodd;stroke:#000000;stroke-width:2.0px;stroke-linecap:butt;stroke-linejoin:miter;stroke-opacity:1"/>
<path class="bond-12 atom-12 atom-13" d="M 220.0,629.5 L 236.1,620.4" style="fill:none;fill-rule:evenodd;stroke:#000000;stroke-width:2.0px;stroke-linecap:butt;stroke-linejoin:miter;stroke-opacity:1"/>
<path d="M 66.2,618.7 L 66.9,618.3 L 67.6,618.7" style="fill:none;stroke:#000000;stroke-width:2.0px;stroke-linecap:butt;stroke-linejoin:miter;stroke-miterlimit:10;stroke-opacity:1;"/>
<path d="M 100.2,619.0 L 101.0,618.6 L 101.6,619.0" style="fill:none;stroke:#000000;stroke-width:2.0px;stroke-linecap:butt;stroke-linejoin:miter;stroke-miterlimit:10;stroke-opacity:1;"/>
<path d="M 219.3,629.1 L 220.0,629.5 L 220.8,629.1" style="fill:none;stroke:#000000;stroke-width:2.0px;stroke-linecap:butt;stroke-linejoin:miter;stroke-miterlimit:10;stroke-opacity:1;"/>
<path class="atom-0" d="M 31.3 619.9 Q 31.4 619.9, 31.6 620.1 Q 31.9 620.2, 32.2 620.2 Q 32.5 620.3, 32.7 620.3 Q 33.3 620.3, 33.6 620.0 Q 33.9 619.8, 33.9 619.3 Q 33.9 619.0, 33.7 618.8 Q 33.6 618.7, 33.3 618.6 Q 33.1 618.5, 32.7 618.3 Q 32.2 618.2, 31.9 618.0 Q 31.6 617.9, 31.4 617.6 Q 31.2 617.3, 31.2 616.8 Q 31.2 616.1, 31.7 615.7 Q 32.2 615.2, 33.1 615.2 Q 33.7 615.2, 34.5 615.5 L 34.3 616.1 Q 33.6 615.9, 33.1 615.9 Q 32.6 615.9, 32.3 616.1 Q 32.0 616.3, 32.0 616.7 Q 32.0 617.0, 32.1 617.2 Q 32.3 617.4, 32.5 617.5 Q 32.7 617.6, 33.1 617.7 Q 33.6 617.8, 33.9 618.0 Q 34.2 618.2, 34.4 618.5 Q 34.7 618.8, 34.7 619.3 Q 34.7 620.1, 34.1 620.5 Q 33.6 620.9, 32.8 620.9 Q 32.3 620.9, 31.9 620.8 Q 31.5 620.7, 31.1 620.5 L 31.3 619.9 " fill="#000000"/>
<path class="atom-1" d="M 14.2 629.6 Q 14.2 629.6, 14.5 629.7 Q 14.8 629.8, 15.1 629.9 Q 15.3 630.0, 15.6 630.0 Q 16.2 630.0, 16.5 629.7 Q 16.8 629.5, 16.8 629.0 Q 16.8 628.7, 16.6 628.5 Q 16.5 628.3, 16.2 628.2 Q 16.0 628.1, 15.6 628.0 Q 15.1 627.9, 14.8 627.7 Q 14.5 627.6, 14.3 627.3 Q 14.1 627.0, 14.1 626.5 Q 14.1 625.8, 14.6 625.3 Q 15.0 624.9, 16.0 624.9 Q 16.6 624.9, 17.4 625.2 L 17.2 625.8 Q 16.5 625.5, 16.0 625.5 Q 15.5 625.5, 15.2 625.8 Q 14.9 626.0, 14.9 626.4 Q 14.9 626.7, 15.0 626.9 Q 15.2 627.0, 15.4 627.1 Q 15.6 627.2, 16.0 627.4 Q 16.5 627.5, 16.8 627.7 Q 17.1 627.8, 17.3 628.2 Q 17.5 628.5, 17.5 629.0 Q 17.5 629.8, 17.0 630.2 Q 16.5 630.6, 15.7 630.6 Q 15.2 630.6, 14.8 630.5 Q 14.4 630.4, 14.0 630.2 L 14.2 629.6 " fill="#000000"/>
<path class="atom-2" d="M 49.7 625.2 Q 50.6 625.2, 51.1 625.6 Q 51.6 626.1, 51.6 626.8 Q 51.6 627.6, 51.1 628.1 Q 50.6 628.5, 49.7 628.5 L 48.8 628.5 L 48.8 630.8 L 48.0 630.8 L 48.0 625.2 L 49.7 625.2 M 49.7 627.9 Q 50.2 627.9, 50.5 627.6 Q 50.8 627.3, 50.8 626.8 Q 50.8 626.3, 50.5 626.1 Q 50.2 625.8, 49.7 625.8 L 48.8 625.8 L 48.8 627.9 L 49.7 627.9 " fill="#000000"/>
<path class="atom-2" d="M 47.6 631.3 L 48.4 631.3 L 48.4 633.7 L 51.2 633.7 L 51.2 631.3 L 52.0 631.3 L 52.0 636.9 L 51.2 636.9 L 51.2 634.3 L 48.4 634.3 L 48.4 636.9 L 47.6 636.9 L 47.6 631.3 " fill="#000000"/>
<path class="atom-2" d="M 53.1 636.7 Q 53.2 636.4, 53.5 636.2 Q 53.8 636.0, 54.3 636.0 Q 54.8 636.0, 55.2 636.3 Q 55.5 636.6, 55.5 637.1 Q 55.5 637.6, 55.1 638.2 Q 54.7 638.7, 53.8 639.3 L 55.5 639.3 L 55.5 639.7 L 53.1 639.7 L 53.1 639.3 Q 53.7 638.8, 54.1 638.5 Q 54.6 638.1, 54.8 637.8 Q 54.9 637.5, 54.9 637.1 Q 54.9 636.8, 54.8 636.6 Q 54.6 636.4, 54.3 636.4 Q 54.0 636.4, 53.8 636.5 Q 53.6 636.6, 53.5 636.9 L 53.1 636.7 " fill="#000000"/>
<path class="atom-4" d="M 82.3 630.2 Q 82.3 630.2, 82.6 630.3 Q 82.9 630.4, 83.1 630.5 Q 83.4 630.6, 83.7 630.6 Q 84.2 630.6, 84.5 630.3 Q 84.9 630.1, 84.9 629.6 Q 84.9 629.3, 84.7 629.1 Q 84.5 628.9, 84.3 628.8 Q 84.1 628.7, 83.7 628.6 Q 83.2 628.5, 82.9 628.3 Q 82.6 628.2, 82.4 627.9 Q 82.2 627.6, 82.2 627.1 Q 82.2 626.4, 82.6 626.0 Q 83.1 625.5, 84.1 625.5 Q 84.7 625.5, 85.4 625.8 L 85.3 626.4 Q 84.6 626.2, 84.1 626.2 Q 83.6 626.2, 83.3 626.4 Q 83.0 626.6, 83.0 627.0 Q 83.0 627.3, 83.1 627.5 Q 83.3 627.6, 83.5 627.8 Q 83.7 627.9, 84.1 628.0 Q 84.6 628.1, 84.9 628.3 Q 85.2 628.4, 85.4 628.8 Q 85.6 629.1, 85.6 629.6 Q 85.6 630.4, 85.1 630.8 Q 84.6 631.2, 83.7 631.2 Q 83.2 631.2, 82.9 631.1 Q 82.5 631.0, 82.1 630.8 L 82.3 630.2 " fill="#000000"/>
<path class="atom-6" d="M 115.3 628.6 Q 115.3 627.3, 116.0 626.5 Q 116.7 625.8, 117.9 625.8 Q 119.1 625.8, 119.8 626.5 Q 120.4 627.3, 120.4 628.6 Q 120.4 630.0, 119.8 630.7 Q 119.1 631.5, 117.9 631.5 Q 116.7 631.5, 116.0 630.7 Q 115.3 630.0, 115.3 628.6 M 117.9 630.9 Q 118.7 630.9, 119.2 630.3 Q 119.7 629.7, 119.7 628.6 Q 119.7 627.5, 119.2 627.0 Q 118.7 626.4, 117.9 626.4 Q 117.0 626.4, 116.6 627.0 Q 116.1 627.5, 116.1 628.6 Q 116.1 629.7, 116.6 630.3 Q 117.0 630.9, 117.9 630.9 " fill="#000000"/>
<path class="atom-7" d="M 134.9 616.1 Q 135.8 616.1, 136.3 616.6 Q 136.8 617.0, 136.8 617.8 Q 136.8 618.5, 136.3 619.0 Q 135.8 619.4, 134.9 619.4 L 134.0 619.4 L 134.0 621.7 L 133.2 621.7 L 133.2 616.1 L 134.9 616.1 M 134.9 618.8 Q 135.4 618.8, 135.7 618.5 Q 136.0 618.3, 136.0 617.8 Q 136.0 617.3, 135.7 617.0 Q 135.4 616.8, 134.9 616.8 L 134.0 616.8 L 134.0 618.8 L 134.9 618.8 " fill="#000000"/>
<path class="atom-7" d="M 137.5 617.1 L 138.5 617.1 L 138.5 616.1 L 138.9 616.1 L 138.9 617.1 L 139.9 617.1 L 139.9 617.5 L 138.9 617.5 L 138.9 618.6 L 138.5 618.6 L 138.5 617.5 L 137.5 617.5 L 137.5 617.1 " fill="#000000"/>
<path class="atom-8" d="M 150.7 626.1 L 152.5 629.1 Q 152.7 629.4, 153.0 629.9 Q 153.3 630.4, 153.3 630.4 L 153.3 626.1 L 154.0 626.1 L 154.0 631.7 L 153.3 631.7 L 151.3 628.5 Q 151.1 628.1, 150.9 627.7 Q 150.6 627.2, 150.5 627.1 L 150.5 631.7 L 149.8 631.7 L 149.8 626.1 L 150.7 626.1 " fill="#000000"/>
<path class="atom-8" d="M 149.8 632.2 L 150.5 632.2 L 150.5 634.6 L 153.4 634.6 L 153.4 632.2 L 154.1 632.2 L 154.1 637.8 L 153.4 637.8 L 153.4 635.2 L 150.5 635.2 L 150.5 637.8 L 149.8 637.8 L 149.8 632.2 " fill="#000000"/>
<path class="atom-9" d="M 168.9 616.4 Q 169.9 616.4, 170.3 616.9 Q 170.8 617.3, 170.8 618.1 Q 170.8 618.8, 170.3 619.3 Q 169.8 619.7, 168.9 619.7 L 168.0 619.7 L 168.0 622.0 L 167.3 622.0 L 167.3 616.4 L 168.9 616.4 M 168.9 619.1 Q 169.4 619.1, 169.7 618.8 Q 170.0 618.6, 170.0 618.1 Q 170.0 617.6, 169.7 617.3 Q 169.5 617.1, 168.9 617.1 L 168.0 617.1 L 168.0 619.1 L 168.9 619.1 " fill="#000000"/>
<path class="atom-9" d="M 166.9 610.3 L 167.6 610.3 L 167.6 612.7 L 170.5 612.7 L 170.5 610.3 L 171.2 610.3 L 171.2 615.9 L 170.5 615.9 L 170.5 613.3 L 167.6 613.3 L 167.6 615.9 L 166.9 615.9 L 166.9 610.3 " fill="#000000"/>
<path class="atom-10" d="M 185.8 626.4 Q 186.8 626.4, 187.3 626.9 Q 187.8 627.3, 187.8 628.1 Q 187.8 628.8, 187.3 629.3 Q 186.8 629.7, 185.8 629.7 L 185.0 629.7 L 185.0 632.0 L 184.2 632.0 L 184.2 626.4 L 185.8 626.4 M 185.8 629.1 Q 186.4 629.1, 186.7 628.8 Q 187.0 628.6, 187.0 628.1 Q 187.0 627.6, 186.7 627.3 Q 186.4 627.1, 185.8 627.1 L 185.0 627.1 L 185.0 629.1 L 185.8 629.1 " fill="#000000"/>
<path class="atom-10" d="M 188.5 627.4 L 189.5 627.4 L 189.5 626.4 L 189.9 626.4 L 189.9 627.4 L 190.9 627.4 L 190.9 627.8 L 189.9 627.8 L 189.9 628.8 L 189.5 628.8 L 189.5 627.8 L 188.5 627.8 L 188.5 627.4 " fill="#000000"/>
<path class="atom-11" d="M 201.9 616.7 L 203.7 619.7 Q 203.9 620.0, 204.1 620.5 Q 204.4 621.0, 204.5 621.1 L 204.5 616.7 L 205.2 616.7 L 205.2 622.3 L 204.4 622.3 L 202.5 619.1 Q 202.2 618.7, 202.0 618.3 Q 201.8 617.8, 201.7 617.7 L 201.7 622.3 L 201.0 622.3 L 201.0 616.7 L 201.9 616.7 " fill="#000000"/>
<path class="atom-11" d="M 200.9 610.6 L 201.7 610.6 L 201.7 613.0 L 204.5 613.0 L 204.5 610.6 L 205.3 610.6 L 205.3 616.2 L 204.5 616.2 L 204.5 613.6 L 201.7 613.6 L 201.7 616.2 L 200.9 616.2 L 200.9 610.6 " fill="#000000"/>
<path class="atom-13" d="M 236.8 617.0 L 237.5 617.0 L 237.5 622.6 L 236.8 622.6 L 236.8 617.0 " fill="#000000"/>
<path class="atom-0" d="M 33.3,621.5 L 33.3,621.6 L 33.3,621.6 L 33.2,621.6 L 33.2,621.7 L 33.2,621.7 L 33.2,621.7 L 33.2,621.7 L 33.2,621.8 L 33.1,621.8 L 33.1,621.8 L 33.1,621.8 L 33.1,621.9 L 33.0,621.9 L 33.0,621.9 L 33.0,621.9 L 32.9,621.9 L 32.9,621.9 L 32.9,621.9 L 32.8,621.9 L 32.8,621.9 L 32.8,621.9 L 32.7,621.9 L 32.7,621.9 L 32.7,621.9 L 32.7,621.9 L 32.6,621.8 L 32.6,621.8 L 32.6,621.8 L 32.6,621.8 L 32.5,621.7 L 32.5,621.7 L 32.5,621.7 L 32.5,621.6 L 32.5,621.6 L 32.5,621.6 L 32.5,621.5 L 32.5,621.5 L 32.5,621.5 L 32.5,621.4 L 32.5,621.4 L 32.5,621.4 L 32.5,621.3 L 32.5,621.3 L 32.6,621.3 L 32.6,621.3 L 32.6,621.2 L 32.6,621.2 L 32.7,621.2 L 32.7,621.2 L 32.7,621.2 L 32.7,621.2 L 32.8,621.1 L 32.8,621.1 L 32.8,621.1 L 32.9,621.1 L 32.9,621.1 L 32.9,621.1 L 33.0,621.1 L 33.0,621.2 L 33.0,621.2 L 33.1,621.2 L 33.1,621.2 L 33.1,621.2 L 33.1,621.3 L 33.2,621.3 L 33.2,621.3 L 33.2,621.3 L 33.2,621.4 L 33.2,621.4 L 33.2,621.4 L 33.3,621.5 L 33.3,621.5 L 33.3,621.5 L 32.9,621.5 Z" style="fill:#000000;fill-rule:evenodd;fill-opacity:1;stroke:#000000;stroke-width:0.0px;stroke-linecap:butt;stroke-linejoin:miter;stroke-miterlimit:10;stroke-opacity:1;"/>
<path class="atom-1" d="M 13.2,627.7 L 13.2,627.7 L 13.2,627.8 L 13.2,627.8 L 13.2,627.8 L 13.2,627.9 L 13.1,627.9 L 13.1,627.9 L 13.1,627.9 L 13.1,628.0 L 13.1,628.0 L 13.0,628.0 L 13.0,628.0 L 13.0,628.0 L 12.9,628.1 L 12.9,628.1 L 12.9,628.1 L 12.8,628.1 L 12.8,628.1 L 12.8,628.1 L 12.7,628.1 L 12.7,628.1 L 12.7,628.1 L 12.6,628.0 L 12.6,628.0 L 12.6,628.0 L 12.6,628.0 L 12.5,628.0 L 12.5,627.9 L 12.5,627.9 L 12.5,627.9 L 12.4,627.9 L 12.4,627.8 L 12.4,627.8 L 12.4,627.8 L 12.4,627.7 L 12.4,627.7 L 12.4,627.7 L 12.4,627.6 L 12.4,627.6 L 12.4,627.6 L 12.4,627.5 L 12.4,627.5 L 12.5,627.5 L 12.5,627.4 L 12.5,627.4 L 12.5,627.4 L 12.6,627.4 L 12.6,627.4 L 12.6,627.3 L 12.6,627.3 L 12.7,627.3 L 12.7,627.3 L 12.7,627.3 L 12.8,627.3 L 12.8,627.3 L 12.8,627.3 L 12.9,627.3 L 12.9,627.3 L 12.9,627.3 L 13.0,627.3 L 13.0,627.3 L 13.0,627.4 L 13.1,627.4 L 13.1,627.4 L 13.1,627.4 L 13.1,627.5 L 13.1,627.5 L 13.2,627.5 L 13.2,627.6 L 13.2,627.6 L 13.2,627.6 L 13.2,627.7 L 13.2,627.7 L 12.8,627.7 Z" style="fill:#000000;fill-rule:evenodd;fill-opacity:1;stroke:#000000;stroke-width:0.0px;stroke-linecap:butt;stroke-linejoin:miter;stroke-miterlimit:10;stroke-opacity:1;"/>
<path class="atom-3" d="M 67.3,616.5 L 67.3,616.6 L 67.3,616.6 L 67.3,616.6 L 67.3,616.7 L 67.3,616.7 L 67.3,616.7 L 67.2,616.8 L 67.2,616.8 L 67.2,616.8 L 67.2,616.8 L 67.1,616.9 L 67.1,616.9 L 67.1,616.9 L 67.1,616.9 L 67.0,616.9 L 67.0,616.9 L 67.0,616.9 L 66.9,616.9 L 66.9,616.9 L 66.9,616.9 L 66.8,616.9 L 66.8,616.9 L 66.8,616.9 L 66.7,616.9 L 66.7,616.9 L 66.7,616.9 L 66.6,616.8 L 66.6,616.8 L 66.6,616.8 L 66.6,616.8 L 66.6,616.7 L 66.5,616.7 L 66.5,616.7 L 66.5,616.6 L 66.5,616.6 L 66.5,616.6 L 66.5,616.5 L 66.5,616.5 L 66.5,616.5 L 66.5,616.4 L 66.5,616.4 L 66.6,616.4 L 66.6,616.3 L 66.6,616.3 L 66.6,616.3 L 66.6,616.3 L 66.7,616.2 L 66.7,616.2 L 66.7,616.2 L 66.8,616.2 L 66.8,616.2 L 66.8,616.2 L 66.9,616.2 L 66.9,616.2 L 66.9,616.2 L 67.0,616.2 L 67.0,616.2 L 67.0,616.2 L 67.1,616.2 L 67.1,616.2 L 67.1,616.2 L 67.1,616.2 L 67.2,616.2 L 67.2,616.3 L 67.2,616.3 L 67.2,616.3 L 67.3,616.4 L 67.3,616.4 L 67.3,616.4 L 67.3,616.4 L 67.3,616.5 L 67.3,616.5 L 67.3,616.5 L 66.9,616.5 Z" style="fill:#000000;fill-rule:evenodd;fill-opacity:1;stroke:#000000;stroke-width:0.0px;stroke-linecap:butt;stroke-linejoin:miter;stroke-miterlimit:10;stroke-opacity:1;"/>
<path class="atom-5" d="M 101.3,616.8 L 101.3,616.9 L 101.3,616.9 L 101.3,617.0 L 101.3,617.0 L 101.3,617.0 L 101.3,617.0 L 101.3,617.1 L 101.3,617.1 L 101.2,617.1 L 101.2,617.1 L 101.2,617.2 L 101.2,617.2 L 101.1,617.2 L 101.1,617.2 L 101.1,617.2 L 101.0,617.2 L 101.0,617.2 L 101.0,617.2 L 100.9,617.2 L 100.9,617.2 L 100.9,617.2 L 100.8,617.2 L 100.8,617.2 L 100.8,617.2 L 100.7,617.2 L 100.7,617.2 L 100.7,617.1 L 100.7,617.1 L 100.6,617.1 L 100.6,617.1 L 100.6,617.0 L 100.6,617.0 L 100.6,617.0 L 100.6,616.9 L 100.6,616.9 L 100.6,616.9 L 100.6,616.8 L 100.6,616.8 L 100.6,616.8 L 100.6,616.7 L 100.6,616.7 L 100.6,616.7 L 100.6,616.6 L 100.6,616.6 L 100.7,616.6 L 100.7,616.6 L 100.7,616.5 L 100.7,616.5 L 100.8,616.5 L 100.8,616.5 L 100.8,616.5 L 100.9,616.5 L 100.9,616.5 L 100.9,616.5 L 101.0,616.5 L 101.0,616.5 L 101.0,616.5 L 101.1,616.5 L 101.1,616.5 L 101.1,616.5 L 101.2,616.5 L 101.2,616.5 L 101.2,616.6 L 101.2,616.6 L 101.3,616.6 L 101.3,616.6 L 101.3,616.7 L 101.3,616.7 L 101.3,616.7 L 101.3,616.7 L 101.3,616.8 L 101.3,616.8 L 101.3,616.8 L 101.0,616.8 Z" style="fill:#000000;fill-rule:evenodd;fill-opacity:1;stroke:#000000;stroke-width:0.0px;stroke-linecap:butt;stroke-linejoin:miter;stroke-miterlimit:10;stroke-opacity:1;"/>
<path class="atom-7" d="M 136.2,615.5 L 136.2,615.6 L 136.2,615.6 L 136.2,615.6 L 136.2,615.7 L 136.1,615.7 L 136.1,615.7 L 136.1,615.7 L 136.1,615.8 L 136.1,615.8 L 136.0,615.8 L 136.0,615.8 L 136.0,615.9 L 136.0,615.9 L 135.9,615.9 L 135.9,615.9 L 135.9,615.9 L 135.8,615.9 L 135.8,615.9 L 135.8,615.9 L 135.7,615.9 L 135.7,615.9 L 135.7,615.9 L 135.6,615.9 L 135.6,615.9 L 135.6,615.8 L 135.5,615.8 L 135.5,615.8 L 135.5,615.8 L 135.5,615.8 L 135.5,615.7 L 135.4,615.7 L 135.4,615.7 L 135.4,615.6 L 135.4,615.6 L 135.4,615.6 L 135.4,615.5 L 135.4,615.5 L 135.4,615.5 L 135.4,615.4 L 135.4,615.4 L 135.4,615.4 L 135.4,615.3 L 135.5,615.3 L 135.5,615.3 L 135.5,615.3 L 135.5,615.2 L 135.5,615.2 L 135.6,615.2 L 135.6,615.2 L 135.6,615.2 L 135.7,615.1 L 135.7,615.1 L 135.7,615.1 L 135.8,615.1 L 135.8,615.1 L 135.8,615.1 L 135.9,615.1 L 135.9,615.1 L 135.9,615.2 L 136.0,615.2 L 136.0,615.2 L 136.0,615.2 L 136.0,615.2 L 136.1,615.2 L 136.1,615.3 L 136.1,615.3 L 136.1,615.3 L 136.1,615.4 L 136.2,615.4 L 136.2,615.4 L 136.2,615.5 L 136.2,615.5 L 136.2,615.5 L 135.8,615.5 Z" style="fill:#000000;fill-rule:evenodd;fill-opacity:1;stroke:#000000;stroke-width:0.0px;stroke-linecap:butt;stroke-linejoin:miter;stroke-miterlimit:10;stroke-opacity:1;"/>
<path class="atom-7" d="M 134.6,615.5 L 134.6,615.6 L 134.6,615.6 L 134.6,615.6 L 134.6,615.7 L 134.6,615.7 L 134.6,615.7 L 134.5,615.7 L 134.5,615.8 L 134.5,615.8 L 134.5,615.8 L 134.4,615.8 L 134.4,615.9 L 134.4,615.9 L 134.4,615.9 L 134.3,615.9 L 134.3,615.9 L 134.3,615.9 L 134.2,615.9 L 134.2,615.9 L 134.2,615.9 L 134.1,615.9 L 134.1,615.9 L 134.1,615.9 L 134.0,615.9 L 134.0,615.8 L 134.0,615.8 L 133.9,615.8 L 133.9,615.8 L 133.9,615.8 L 133.9,615.7 L 133.9,615.7 L 133.8,615.7 L 133.8,615.6 L 133.8,615.6 L 133.8,615.6 L 133.8,615.5 L 133.8,615.5 L 133.8,615.5 L 133.8,615.4 L 133.8,615.4 L 133.8,615.4 L 133.9,615.3 L 133.9,615.3 L 133.9,615.3 L 133.9,615.3 L 133.9,615.2 L 134.0,615.2 L 134.0,615.2 L 134.0,615.2 L 134.1,615.2 L 134.1,615.1 L 134.1,615.1 L 134.2,615.1 L 134.2,615.1 L 134.2,615.1 L 134.3,615.1 L 134.3,615.1 L 134.3,615.1 L 134.4,615.2 L 134.4,615.2 L 134.4,615.2 L 134.4,615.2 L 134.5,615.2 L 134.5,615.2 L 134.5,615.3 L 134.5,615.3 L 134.6,615.3 L 134.6,615.4 L 134.6,615.4 L 134.6,615.4 L 134.6,615.5 L 134.6,615.5 L 134.6,615.5 L 134.2,615.5 Z" style="fill:#000000;fill-rule:evenodd;fill-opacity:1;stroke:#000000;stroke-width:0.0px;stroke-linecap:butt;stroke-linejoin:miter;stroke-miterlimit:10;stroke-opacity:1;"/>
<path class="atom-10" d="M 192.5,630.0 L 192.5,630.0 L 192.5,630.1 L 192.5,630.1 L 192.5,630.1 L 192.4,630.2 L 192.4,630.2 L 192.4,630.2 L 192.4,630.2 L 192.4,630.3 L 192.3,630.3 L 192.3,630.3 L 192.3,630.3 L 192.3,630.3 L 192.2,630.4 L 192.2,630.4 L 192.2,630.4 L 192.1,630.4 L 192.1,630.4 L 192.1,630.4 L 192.0,630.4 L 192.0,630.4 L 192.0,630.4 L 191.9,630.4 L 191.9,630.3 L 191.9,630.3 L 191.8,630.3 L 191.8,630.3 L 191.8,630.3 L 191.8,630.2 L 191.8,630.2 L 191.7,630.2 L 191.7,630.1 L 191.7,630.1 L 191.7,630.1 L 191.7,630.0 L 191.7,630.0 L 191.7,630.0 L 191.7,629.9 L 191.7,629.9 L 191.7,629.9 L 191.7,629.8 L 191.7,629.8 L 191.8,629.8 L 191.8,629.8 L 191.8,629.7 L 191.8,629.7 L 191.8,629.7 L 191.9,629.7 L 191.9,629.6 L 191.9,629.6 L 192.0,629.6 L 192.0,629.6 L 192.0,629.6 L 192.1,629.6 L 192.1,629.6 L 192.1,629.6 L 192.2,629.6 L 192.2,629.6 L 192.2,629.6 L 192.3,629.6 L 192.3,629.7 L 192.3,629.7 L 192.3,629.7 L 192.4,629.7 L 192.4,629.7 L 192.4,629.8 L 192.4,629.8 L 192.4,629.8 L 192.5,629.9 L 192.5,629.9 L 192.5,629.9 L 192.5,630.0 L 192.5,630.0 L 192.1,630.0 Z" style="fill:#000000;fill-rule:evenodd;fill-opacity:1;stroke:#000000;stroke-width:0.0px;stroke-linecap:butt;stroke-linejoin:miter;stroke-miterlimit:10;stroke-opacity:1;"/>
<path class="atom-10" d="M 192.5,628.4 L 192.5,628.5 L 192.5,628.5 L 192.5,628.5 L 192.5,628.6 L 192.4,628.6 L 192.4,628.6 L 192.4,628.6 L 192.4,628.7 L 192.4,628.7 L 192.3,628.7 L 192.3,628.7 L 192.3,628.8 L 192.3,628.8 L 192.2,628.8 L 192.2,628.8 L 192.2,628.8 L 192.1,628.8 L 192.1,628.8 L 192.1,628.8 L 192.0,628.8 L 192.0,628.8 L 192.0,628.8 L 191.9,628.8 L 191.9,628.8 L 191.9,628.7 L 191.8,628.7 L 191.8,628.7 L 191.8,628.7 L 191.8,628.7 L 191.8,628.6 L 191.7,628.6 L 191.7,628.6 L 191.7,628.5 L 191.7,628.5 L 191.7,628.5 L 191.7,628.4 L 191.7,628.4 L 191.7,628.4 L 191.7,628.3 L 191.7,628.3 L 191.7,628.3 L 191.7,628.2 L 191.8,628.2 L 191.8,628.2 L 191.8,628.2 L 191.8,628.1 L 191.8,628.1 L 191.9,628.1 L 191.9,628.1 L 191.9,628.1 L 192.0,628.0 L 192.0,628.0 L 192.0,628.0 L 192.1,628.0 L 192.1,628.0 L 192.1,628.0 L 192.2,628.0 L 192.2,628.0 L 192.2,628.1 L 192.3,628.1 L 192.3,628.1 L 192.3,628.1 L 192.3,628.1 L 192.4,628.1 L 192.4,628.2 L 192.4,628.2 L 192.4,628.2 L 192.4,628.3 L 192.5,628.3 L 192.5,628.3 L 192.5,628.4 L 192.5,628.4 L 192.5,628.4 L 192.1,628.4 Z" style="fill:#000000;fill-rule:evenodd;fill-opacity:1;stroke:#000000;stroke-width:0.0px;stroke-linecap:butt;stroke-linejoin:miter;stroke-miterlimit:10;stroke-opacity:1;"/>
<path class="atom-12" d="M 220.4,631.3 L 220.4,631.3 L 220.4,631.3 L 220.4,631.4 L 220.4,631.4 L 220.4,631.4 L 220.4,631.5 L 220.3,631.5 L 220.3,631.5 L 220.3,631.6 L 220.3,631.6 L 220.2,631.6 L 220.2,631.6 L 220.2,631.6 L 220.2,631.6 L 220.1,631.7 L 220.1,631.7 L 220.1,631.7 L 220.0,631.7 L 220.0,631.7 L 220.0,631.7 L 219.9,631.7 L 219.9,631.7 L 219.9,631.6 L 219.8,631.6 L 219.8,631.6 L 219.8,631.6 L 219.7,631.6 L 219.7,631.5 L 219.7,631.5 L 219.7,631.5 L 219.7,631.5 L 219.7,631.4 L 219.6,631.4 L 219.6,631.4 L 219.6,631.3 L 219.6,631.3 L 219.6,631.3 L 219.6,631.2 L 219.6,631.2 L 219.6,631.2 L 219.7,631.1 L 219.7,631.1 L 219.7,631.1 L 219.7,631.0 L 219.7,631.0 L 219.7,631.0 L 219.8,631.0 L 219.8,631.0 L 219.8,630.9 L 219.9,630.9 L 219.9,630.9 L 219.9,630.9 L 220.0,630.9 L 220.0,630.9 L 220.0,630.9 L 220.1,630.9 L 220.1,630.9 L 220.1,630.9 L 220.2,630.9 L 220.2,630.9 L 220.2,630.9 L 220.2,631.0 L 220.3,631.0 L 220.3,631.0 L 220.3,631.0 L 220.3,631.1 L 220.4,631.1 L 220.4,631.1 L 220.4,631.1 L 220.4,631.2 L 220.4,631.2 L 220.4,631.2 L 220.4,631.3 L 220.0,631.3 Z" style="fill:#000000;fill-rule:evenodd;fill-opacity:1;stroke:#000000;stroke-width:0.0px;stroke-linecap:butt;stroke-linejoin:miter;stroke-miterlimit:10;stroke-opacity:1;"/>
<path class="atom-0" d="M 356.2 610.9 L 365.4 625.9 Q 366.4 627.4, 367.8 630.1 Q 369.3 632.8, 369.4 632.9 L 369.4 610.9 L 373.2 610.9 L 373.2 639.2 L 369.3 639.2 L 359.3 622.8 Q 358.2 620.9, 356.9 618.7 Q 355.7 616.5, 355.4 615.8 L 355.4 639.2 L 351.7 639.2 L 351.7 610.9 L 356.2 610.9 " fill="#000000"/>
<path class="atom-0" d="M 378.5 616.0 L 383.5 616.0 L 383.5 610.8 L 385.7 610.8 L 385.7 616.0 L 390.8 616.0 L 390.8 617.9 L 385.7 617.9 L 385.7 623.2 L 383.5 623.2 L 383.5 617.9 L 378.5 617.9 L 378.5 616.0 " fill="#000000"/>
<path class="atom-0" d="M 398.8,637.1 L 398.8,637.2 L 398.8,637.4 L 398.8,637.6 L 398.7,637.7 L 398.6,637.9 L 398.6,638.1 L 398.5,638.2 L 398.4,638.3 L 398.2,638.5 L 398.1,638.6 L 398.0,638.7 L 397.8,638.8 L 397.7,638.9 L 397.5,638.9 L 397.4,639.0 L 397.2,639.0 L 397.0,639.1 L 396.9,639.1 L 396.7,639.1 L 396.5,639.1 L 396.3,639.0 L 396.2,639.0 L 396.0,638.9 L 395.9,638.8 L 395.7,638.7 L 395.6,638.6 L 395.5,638.5 L 395.3,638.4 L 395.2,638.3 L 395.1,638.1 L 395.0,638.0 L 395.0,637.8 L 394.9,637.7 L 394.9,637.5 L 394.8,637.3 L 394.8,637.2 L 394.8,637.0 L 394.8,636.8 L 394.9,636.6 L 394.9,636.5 L 395.0,636.3 L 395.0,636.2 L 395.1,636.0 L 395.2,635.9 L 395.3,635.7 L 395.5,635.6 L 395.6,635.5 L 395.7,635.4 L 395.9,635.3 L 396.0,635.2 L 396.2,635.2 L 396.3,635.1 L 396.5,635.1 L 396.7,635.1 L 396.9,635.1 L 397.0,635.1 L 397.2,635.1 L 397.4,635.2 L 397.5,635.2 L 397.7,635.3 L 397.8,635.4 L 398.0,635.5 L 398.1,635.6 L 398.2,635.7 L 398.4,635.8 L 398.5,635.9 L 398.6,636.1 L 398.6,636.2 L 398.7,636.4 L 398.8,636.6 L 398.8,636.7 L 398.8,636.9 L 398.8,637.1 L 396.8,637.1 Z" style="fill:#000000;fill-rule:evenodd;fill-opacity:1;stroke:#000000;stroke-width:0.0px;stroke-linecap:butt;stroke-linejoin:miter;stroke-miterlimit:10;stroke-opacity:1;"/>
<path class="atom-0" d="M 398.8,613.1 L 398.8,613.2 L 398.8,613.4 L 398.8,613.6 L 398.7,613.7 L 398.6,613.9 L 398.6,614.1 L 398.5,614.2 L 398.4,614.3 L 398.2,614.5 L 398.1,614.6 L 398.0,614.7 L 397.8,614.8 L 397.7,614.9 L 397.5,614.9 L 397.4,615.0 L 397.2,615.0 L 397.0,615.1 L 396.9,615.1 L 396.7,615.1 L 396.5,615.1 L 396.3,615.0 L 396.2,615.0 L 396.0,614.9 L 395.9,614.8 L 395.7,614.7 L 395.6,614.6 L 395.5,614.5 L 395.3,614.4 L 395.2,614.3 L 395.1,614.1 L 395.0,614.0 L 395.0,613.8 L 394.9,613.7 L 394.9,613.5 L 394.8,613.3 L 394.8,613.2 L 394.8,613.0 L 394.8,612.8 L 394.9,612.6 L 394.9,612.5 L 395.0,612.3 L 395.0,612.2 L 395.1,612.0 L 395.2,611.9 L 395.3,611.7 L 395.5,611.6 L 395.6,611.5 L 395.7,611.4 L 395.9,611.3 L 396.0,611.2 L 396.2,611.2 L 396.3,611.1 L 396.5,611.1 L 396.7,611.1 L 396.9,611.1 L 397.0,611.1 L 397.2,611.1 L 397.4,611.2 L 397.5,611.2 L 397.7,611.3 L 397.8,611.4 L 398.0,611.5 L 398.1,611.6 L 398.2,611.7 L 398.4,611.8 L 398.5,611.9 L 398.6,612.1 L 398.6,612.2 L 398.7,612.4 L 398.8,612.6 L 398.8,612.7 L 398.8,612.9 L 398.8,613.1 L 396.8,613.1 Z" style="fill:#000000;fill-rule:evenodd;fill-opacity:1;stroke:#000000;stroke-width:0.0px;stroke-linecap:butt;stroke-linejoin:miter;stroke-miterlimit:10;stroke-opacity:1;"/>
<path class="atom-0" d="M 398.8,629.1 L 398.8,629.2 L 398.8,629.4 L 398.8,629.6 L 398.7,629.7 L 398.6,629.9 L 398.6,630.1 L 398.5,630.2 L 398.4,630.3 L 398.2,630.5 L 398.1,630.6 L 398.0,630.7 L 397.8,630.8 L 397.7,630.9 L 397.5,630.9 L 397.4,631.0 L 397.2,631.0 L 397.0,631.1 L 396.9,631.1 L 396.7,631.1 L 396.5,631.1 L 396.3,631.0 L 396.2,631.0 L 396.0,630.9 L 395.9,630.8 L 395.7,630.7 L 395.6,630.6 L 395.5,630.5 L 395.3,630.4 L 395.2,630.3 L 395.1,630.1 L 395.0,630.0 L 395.0,629.8 L 394.9,629.7 L 394.9,629.5 L 394.8,629.3 L 394.8,629.2 L 394.8,629.0 L 394.8,628.8 L 394.9,628.6 L 394.9,628.5 L 395.0,628.3 L 395.0,628.2 L 395.1,628.0 L 395.2,627.9 L 395.3,627.7 L 395.5,627.6 L 395.6,627.5 L 395.7,627.4 L 395.9,627.3 L 396.0,627.2 L 396.2,627.2 L 396.3,627.1 L 396.5,627.1 L 396.7,627.1 L 396.9,627.1 L 397.0,627.1 L 397.2,627.1 L 397.4,627.2 L 397.5,627.2 L 397.7,627.3 L 397.8,627.4 L 398.0,627.5 L 398.1,627.6 L 398.2,627.7 L 398.4,627.8 L 398.5,627.9 L 398.6,628.1 L 398.6,628.2 L 398.7,628.4 L 398.8,628.6 L 398.8,628.7 L 398.8,628.9 L 398.8,629.1 L 396.8,629.1 Z" style="fill:#000000;fill-rule:evenodd;fill-opacity:1;stroke:#000000;stroke-width:0.0px;stroke-linecap:butt;stroke-linejoin:miter;stroke-miterlimit:10;stroke-opacity:1;"/>
<path class="atom-0" d="M 398.8,621.1 L 398.8,621.2 L 398.8,621.4 L 398.8,621.6 L 398.7,621.7 L 398.6,621.9 L 398.6,622.1 L 398.5,622.2 L 398.4,622.3 L 398.2,622.5 L 398.1,622.6 L 398.0,622.7 L 397.8,622.8 L 397.7,622.9 L 397.5,622.9 L 397.4,623.0 L 397.2,623.0 L 397.0,623.1 L 396.9,623.1 L 396.7,623.1 L 396.5,623.1 L 396.3,623.0 L 396.2,623.0 L 396.0,622.9 L 395.9,622.8 L 395.7,622.7 L 395.6,622.6 L 395.5,622.5 L 395.3,622.4 L 395.2,622.3 L 395.1,622.1 L 395.0,622.0 L 395.0,621.8 L 394.9,621.7 L 394.9,621.5 L 394.8,621.3 L 394.8,621.2 L 394.8,621.0 L 394.8,620.8 L 394.9,620.6 L 394.9,620.5 L 395.0,620.3 L 395.0,620.2 L 395.1,620.0 L 395.2,619.9 L 395.3,619.7 L 395.5,619.6 L 395.6,619.5 L 395.7,619.4 L 395.9,619.3 L 396.0,619.2 L 396.2,619.2 L 396.3,619.1 L 396.5,619.1 L 396.7,619.1 L 396.9,619.1 L 397.0,619.1 L 397.2,619.1 L 397.4,619.2 L 397.5,619.2 L 397.7,619.3 L 397.8,619.4 L 398.0,619.5 L 398.1,619.6 L 398.2,619.7 L 398.4,619.8 L 398.5,619.9 L 398.6,620.1 L 398.6,620.2 L 398.7,620.4 L 398.8,620.6 L 398.8,620.7 L 398.8,620.9 L 398.8,621.1 L 396.8,621.1 Z" style="fill:#000000;fill-rule:evenodd;fill-opacity:1;stroke:#000000;stroke-width:0.0px;stroke-linecap:butt;stroke-linejoin:miter;stroke-miterlimit:10;stroke-opacity:1;"/>
<path class="bond-0 atom-0 atom-1" d="M 567.7,633.3 L 545.7,620.6" style="fill:none;fill-rule:evenodd;stroke:#000000;stroke-width:2.0px;stroke-linecap:butt;stroke-linejoin:miter;stroke-opacity:1"/>
<path class="bond-1 atom-1 atom-2" d="M 537.2,618.7 L 520.1,628.6" style="fill:none;fill-rule:evenodd;stroke:#000000;stroke-width:2.0px;stroke-linecap:butt;stroke-linejoin:miter;stroke-opacity:1"/>
<path class="bond-1 atom-1 atom-2" d="M 539.5,622.5 L 522.3,632.5" style="fill:none;fill-rule:evenodd;stroke:#000000;stroke-width:2.0px;stroke-linecap:butt;stroke-linejoin:miter;stroke-opacity:1"/>
<path class="bond-2 atom-0 atom-3" d="M 567.7,633.3 L 589.2,620.9" style="fill:none;fill-rule:evenodd;stroke:#000000;stroke-width:2.0px;stroke-linecap:butt;stroke-linejoin:miter;stroke-opacity:1"/>
<path class="bond-3 atom-3 atom-4" d="M 597.5,620.9 L 614.8,630.9" style="fill:none;fill-rule:evenodd;stroke:#000000;stroke-width:2.0px;stroke-linecap:butt;stroke-linejoin:miter;stroke-opacity:1"/>
<path class="bond-4 atom-4 atom-5" d="M 628.0,628.1 L 640.5,620.9" style="fill:none;fill-rule:evenodd;stroke:#000000;stroke-width:2.0px;stroke-linecap:butt;stroke-linejoin:miter;stroke-opacity:1"/>
<path class="bond-5 atom-5 atom-6" d="M 648.8,620.9 L 666.1,630.9" style="fill:none;fill-rule:evenodd;stroke:#000000;stroke-width:2.0px;stroke-linecap:butt;stroke-linejoin:miter;stroke-opacity:1"/>
<path class="bond-6 atom-6 atom-7" d="M 679.3,628.1 L 696.0,618.5" style="fill:none;fill-rule:evenodd;stroke:#000000;stroke-width:2.0px;stroke-linecap:butt;stroke-linejoin:miter;stroke-opacity:1"/>
<path class="bond-7 atom-7 atom-8" d="M 696.0,618.5 L 716.8,630.5" style="fill:none;fill-rule:evenodd;stroke:#000000;stroke-width:2.0px;stroke-linecap:butt;stroke-linejoin:miter;stroke-opacity:1"/>
<path class="bond-7 atom-7 atom-8" d="M 696.0,623.6 L 714.6,634.4" style="fill:none;fill-rule:evenodd;stroke:#000000;stroke-width:2.0px;stroke-linecap:butt;stroke-linejoin:miter;stroke-opacity:1"/>
<path d="M 566.6,632.7 L 567.7,633.3 L 568.7,632.7" style="fill:none;stroke:#000000;stroke-width:2.0px;stroke-linecap:butt;stroke-linejoin:miter;stroke-miterlimit:10;stroke-opacity:1;"/>
<path d="M 695.1,619.0 L 696.0,618.5 L 697.0,619.1" style="fill:none;stroke:#000000;stroke-width:2.0px;stroke-linecap:butt;stroke-linejoin:miter;stroke-miterlimit:10;stroke-opacity:1;"/>
<path class="atom-1" d="M 539.6 621.4 Q 539.7 621.4, 540.1 621.6 Q 540.5 621.8, 540.9 621.9 Q 541.4 622.0, 541.8 622.0 Q 542.6 622.0, 543.1 621.6 Q 543.5 621.2, 543.5 620.5 Q 543.5 620.0, 543.3 619.8 Q 543.1 619.5, 542.7 619.3 Q 542.4 619.2, 541.8 619.0 Q 541.0 618.8, 540.6 618.6 Q 540.1 618.3, 539.8 617.9 Q 539.5 617.4, 539.5 616.7 Q 539.5 615.6, 540.2 615.0 Q 540.9 614.3, 542.4 614.3 Q 543.3 614.3, 544.4 614.8 L 544.2 615.7 Q 543.1 615.3, 542.4 615.3 Q 541.6 615.3, 541.1 615.6 Q 540.7 616.0, 540.7 616.5 Q 540.7 617.0, 540.9 617.3 Q 541.1 617.5, 541.5 617.7 Q 541.8 617.8, 542.4 618.0 Q 543.1 618.3, 543.6 618.5 Q 544.0 618.7, 544.4 619.2 Q 544.7 619.7, 544.7 620.5 Q 544.7 621.7, 543.9 622.3 Q 543.1 622.9, 541.9 622.9 Q 541.1 622.9, 540.5 622.7 Q 540.0 622.6, 539.3 622.3 L 539.6 621.4 " fill="#000000"/>
<path class="atom-1" d="M 545.7 615.6 L 548.6 615.6 L 548.6 616.2 L 545.7 616.2 L 545.7 615.6 " fill="#000000"/>
<path class="atom-2" d="M 512.5 633.3 Q 512.5 631.3, 513.5 630.2 Q 514.5 629.1, 516.4 629.1 Q 518.2 629.1, 519.2 630.2 Q 520.2 631.3, 520.2 633.3 Q 520.2 635.4, 519.2 636.5 Q 518.2 637.7, 516.4 637.7 Q 514.5 637.7, 513.5 636.5 Q 512.5 635.4, 512.5 633.3 M 516.4 636.7 Q 517.6 636.7, 518.3 635.9 Q 519.0 635.0, 519.0 633.3 Q 519.0 631.7, 518.3 630.9 Q 517.6 630.0, 516.4 630.0 Q 515.1 630.0, 514.4 630.9 Q 513.7 631.7, 513.7 633.3 Q 513.7 635.0, 514.4 635.9 Q 515.1 636.7, 516.4 636.7 " fill="#000000"/>
<path class="atom-3" d="M 591.5 614.3 L 594.2 618.8 Q 594.5 619.2, 594.9 620.0 Q 595.4 620.8, 595.4 620.8 L 595.4 614.3 L 596.5 614.3 L 596.5 622.7 L 595.4 622.7 L 592.4 617.8 Q 592.1 617.3, 591.7 616.6 Q 591.3 616.0, 591.2 615.8 L 591.2 622.7 L 590.1 622.7 L 590.1 614.3 L 591.5 614.3 " fill="#000000"/>
<path class="atom-3" d="M 590.0 605.1 L 591.2 605.1 L 591.2 608.6 L 595.5 608.6 L 595.5 605.1 L 596.6 605.1 L 596.6 613.5 L 595.5 613.5 L 595.5 609.6 L 591.2 609.6 L 591.2 613.5 L 590.0 613.5 L 590.0 605.1 " fill="#000000"/>
<path class="atom-3" d="M 598.2 606.6 L 599.7 606.6 L 599.7 605.0 L 600.4 605.0 L 600.4 606.6 L 601.9 606.6 L 601.9 607.2 L 600.4 607.2 L 600.4 608.7 L 599.7 608.7 L 599.7 607.2 L 598.2 607.2 L 598.2 606.6 " fill="#000000"/>
<path class="atom-4" d="M 617.1 629.1 L 619.9 633.6 Q 620.2 634.0, 620.6 634.8 Q 621.0 635.6, 621.1 635.6 L 621.1 629.1 L 622.2 629.1 L 622.2 637.5 L 621.0 637.5 L 618.1 632.7 Q 617.7 632.1, 617.4 631.4 Q 617.0 630.8, 616.9 630.6 L 616.9 637.5 L 615.8 637.5 L 615.8 629.1 L 617.1 629.1 " fill="#000000"/>
<path class="atom-4" d="M 623.7 630.6 L 625.2 630.6 L 625.2 629.1 L 625.9 629.1 L 625.9 630.6 L 627.4 630.6 L 627.4 631.2 L 625.9 631.2 L 625.9 632.8 L 625.2 632.8 L 625.2 631.2 L 623.7 631.2 L 623.7 630.6 " fill="#000000"/>
<path class="atom-4" d="M 615.7 638.4 L 616.8 638.4 L 616.8 641.9 L 621.1 641.9 L 621.1 638.4 L 622.3 638.4 L 622.3 646.7 L 621.1 646.7 L 621.1 642.9 L 616.8 642.9 L 616.8 646.7 L 615.7 646.7 L 615.7 638.4 " fill="#000000"/>
<path class="atom-5" d="M 642.8 614.3 L 645.5 618.8 Q 645.8 619.2, 646.3 620.0 Q 646.7 620.8, 646.7 620.8 L 646.7 614.3 L 647.8 614.3 L 647.8 622.7 L 646.7 622.7 L 643.7 617.8 Q 643.4 617.3, 643.0 616.6 Q 642.7 616.0, 642.6 615.8 L 642.6 622.7 L 641.5 622.7 L 641.5 614.3 L 642.8 614.3 " fill="#000000"/>
<path class="atom-5" d="M 649.3 615.7 L 652.2 615.7 L 652.2 616.3 L 649.3 616.3 L 649.3 615.7 " fill="#000000"/>
<path class="atom-6" d="M 668.4 629.1 L 671.2 633.6 Q 671.5 634.0, 671.9 634.8 Q 672.3 635.6, 672.4 635.6 L 672.4 629.1 L 673.5 629.1 L 673.5 637.5 L 672.3 637.5 L 669.4 632.7 Q 669.0 632.1, 668.7 631.4 Q 668.3 630.8, 668.2 630.6 L 668.2 637.5 L 667.1 637.5 L 667.1 629.1 L 668.4 629.1 " fill="#000000"/>
<path class="atom-6" d="M 675.1 630.6 L 676.5 630.6 L 676.5 629.1 L 677.2 629.1 L 677.2 630.6 L 678.7 630.6 L 678.7 631.2 L 677.2 631.2 L 677.2 632.8 L 676.5 632.8 L 676.5 631.2 L 675.1 631.2 L 675.1 630.6 " fill="#000000"/>
<path class="atom-8" d="M 716.7 635.3 Q 716.7 633.3, 717.7 632.1 Q 718.6 631.0, 720.5 631.0 Q 722.4 631.0, 723.4 632.1 Q 724.4 633.3, 724.4 635.3 Q 724.4 637.3, 723.4 638.5 Q 722.3 639.6, 720.5 639.6 Q 718.7 639.6, 717.7 638.5 Q 716.7 637.3, 716.7 635.3 M 720.5 638.7 Q 721.8 638.7, 722.5 637.8 Q 723.2 636.9, 723.2 635.3 Q 723.2 633.6, 722.5 632.8 Q 721.8 631.9, 720.5 631.9 Q 719.2 631.9, 718.5 632.8 Q 717.8 633.6, 717.8 635.3 Q 717.8 637.0, 718.5 637.8 Q 719.2 638.7, 720.5 638.7 " fill="#000000"/>
<path class="atom-8" d="M 725.6 631.1 L 726.8 631.1 L 726.8 634.7 L 731.0 634.7 L 731.0 631.1 L 732.2 631.1 L 732.2 639.5 L 731.0 639.5 L 731.0 635.6 L 726.8 635.6 L 726.8 639.5 L 725.6 639.5 L 725.6 631.1 " fill="#000000"/>
<path class="atom-8" d="M 733.8 632.6 L 735.3 632.6 L 735.3 631.1 L 736.0 631.1 L 736.0 632.6 L 737.5 632.6 L 737.5 633.2 L 736.0 633.2 L 736.0 634.7 L 735.3 634.7 L 735.3 633.2 L 733.8 633.2 L 733.8 632.6 " fill="#000000"/>
<path class="atom-3" d="M 593.9,604.1 L 593.9,604.2 L 593.9,604.2 L 593.9,604.3 L 593.9,604.3 L 593.9,604.4 L 593.8,604.4 L 593.8,604.5 L 593.8,604.5 L 593.8,604.6 L 593.7,604.6 L 593.7,604.6 L 593.6,604.7 L 593.6,604.7 L 593.5,604.7 L 593.5,604.7 L 593.4,604.7 L 593.4,604.7 L 593.3,604.7 L 593.3,604.7 L 593.2,604.7 L 593.2,604.7 L 593.1,604.7 L 593.1,604.7 L 593.0,604.7 L 593.0,604.6 L 593.0,604.6 L 592.9,604.6 L 592.9,604.5 L 592.9,604.5 L 592.8,604.5 L 592.8,604.4 L 592.8,604.4 L 592.8,604.3 L 592.7,604.3 L 592.7,604.2 L 592.7,604.2 L 592.7,604.1 L 592.7,604.1 L 592.7,604.0 L 592.8,604.0 L 592.8,603.9 L 592.8,603.9 L 592.8,603.8 L 592.9,603.8 L 592.9,603.8 L 592.9,603.7 L 593.0,603.7 L 593.0,603.7 L 593.0,603.6 L 593.1,603.6 L 593.1,603.6 L 593.2,603.6 L 593.2,603.6 L 593.3,603.6 L 593.3,603.6 L 593.4,603.6 L 593.4,603.6 L 593.5,603.6 L 593.5,603.6 L 593.6,603.6 L 593.6,603.6 L 593.7,603.7 L 593.7,603.7 L 593.8,603.7 L 593.8,603.8 L 593.8,603.8 L 593.8,603.9 L 593.9,603.9 L 593.9,603.9 L 593.9,604.0 L 593.9,604.0 L 593.9,604.1 L 593.9,604.1 L 593.3,604.1 Z" style="fill:#000000;fill-rule:evenodd;fill-opacity:1;stroke:#000000;stroke-width:0.0px;stroke-linecap:butt;stroke-linejoin:miter;stroke-miterlimit:10;stroke-opacity:1;"/>
<path class="atom-4" d="M 629.8,633.3 L 629.8,633.4 L 629.8,633.4 L 629.8,633.5 L 629.7,633.5 L 629.7,633.6 L 629.7,633.6 L 629.7,633.7 L 629.6,633.7 L 629.6,633.7 L 629.6,633.8 L 629.5,633.8 L 629.5,633.8 L 629.4,633.9 L 629.4,633.9 L 629.3,633.9 L 629.3,633.9 L 629.2,633.9 L 629.2,633.9 L 629.1,633.9 L 629.1,633.9 L 629.0,633.9 L 629.0,633.9 L 628.9,633.9 L 628.9,633.8 L 628.9,633.8 L 628.8,633.8 L 628.8,633.8 L 628.7,633.7 L 628.7,633.7 L 628.7,633.6 L 628.6,633.6 L 628.6,633.5 L 628.6,633.5 L 628.6,633.4 L 628.6,633.4 L 628.6,633.3 L 628.6,633.3 L 628.6,633.2 L 628.6,633.2 L 628.6,633.1 L 628.6,633.1 L 628.6,633.0 L 628.7,633.0 L 628.7,633.0 L 628.7,632.9 L 628.8,632.9 L 628.8,632.9 L 628.9,632.8 L 628.9,632.8 L 628.9,632.8 L 629.0,632.8 L 629.0,632.7 L 629.1,632.7 L 629.1,632.7 L 629.2,632.7 L 629.2,632.7 L 629.3,632.7 L 629.3,632.7 L 629.4,632.8 L 629.4,632.8 L 629.5,632.8 L 629.5,632.8 L 629.6,632.9 L 629.6,632.9 L 629.6,632.9 L 629.7,633.0 L 629.7,633.0 L 629.7,633.1 L 629.7,633.1 L 629.8,633.2 L 629.8,633.2 L 629.8,633.3 L 629.8,633.3 L 629.2,633.3 Z" style="fill:#000000;fill-rule:evenodd;fill-opacity:1;stroke:#000000;stroke-width:0.0px;stroke-linecap:butt;stroke-linejoin:miter;stroke-miterlimit:10;stroke-opacity:1;"/>
<path class="atom-6" d="M 681.1,634.5 L 681.1,634.6 L 681.1,634.6 L 681.1,634.7 L 681.1,634.7 L 681.0,634.8 L 681.0,634.8 L 681.0,634.8 L 681.0,634.9 L 680.9,634.9 L 680.9,635.0 L 680.8,635.0 L 680.8,635.0 L 680.8,635.0 L 680.7,635.1 L 680.7,635.1 L 680.6,635.1 L 680.6,635.1 L 680.5,635.1 L 680.5,635.1 L 680.4,635.1 L 680.4,635.1 L 680.3,635.1 L 680.3,635.0 L 680.2,635.0 L 680.2,635.0 L 680.1,635.0 L 680.1,634.9 L 680.1,634.9 L 680.0,634.9 L 680.0,634.8 L 680.0,634.8 L 679.9,634.7 L 679.9,634.7 L 679.9,634.6 L 679.9,634.6 L 679.9,634.5 L 679.9,634.5 L 679.9,634.4 L 679.9,634.4 L 679.9,634.3 L 679.9,634.3 L 680.0,634.2 L 680.0,634.2 L 680.0,634.1 L 680.1,634.1 L 680.1,634.1 L 680.1,634.0 L 680.2,634.0 L 680.2,634.0 L 680.3,634.0 L 680.3,633.9 L 680.4,633.9 L 680.4,633.9 L 680.5,633.9 L 680.5,633.9 L 680.6,633.9 L 680.6,633.9 L 680.7,633.9 L 680.7,633.9 L 680.8,634.0 L 680.8,634.0 L 680.8,634.0 L 680.9,634.1 L 680.9,634.1 L 681.0,634.1 L 681.0,634.2 L 681.0,634.2 L 681.0,634.3 L 681.1,634.3 L 681.1,634.4 L 681.1,634.4 L 681.1,634.5 L 681.1,634.5 L 680.5,634.5 Z" style="fill:#000000;fill-rule:evenodd;fill-opacity:1;stroke:#000000;stroke-width:0.0px;stroke-linecap:butt;stroke-linejoin:miter;stroke-miterlimit:10;stroke-opacity:1;"/>
<path class="atom-6" d="M 681.1,632.1 L 681.1,632.2 L 681.1,632.2 L 681.1,632.3 L 681.1,632.3 L 681.0,632.4 L 681.0,632.4 L 681.0,632.5 L 681.0,632.5 L 680.9,632.5 L 680.9,632.6 L 680.8,632.6 L 680.8,632.6 L 680.8,632.7 L 680.7,632.7 L 680.7,632.7 L 680.6,632.7 L 680.6,632.7 L 680.5,632.7 L 680.5,632.7 L 680.4,632.7 L 680.4,632.7 L 680.3,632.7 L 680.3,632.7 L 680.2,632.7 L 680.2,632.6 L 680.1,632.6 L 680.1,632.6 L 680.1,632.5 L 680.0,632.5 L 680.0,632.4 L 680.0,632.4 L 679.9,632.4 L 679.9,632.3 L 679.9,632.3 L 679.9,632.2 L 679.9,632.2 L 679.9,632.1 L 679.9,632.1 L 679.9,632.0 L 679.9,632.0 L 679.9,631.9 L 680.0,631.9 L 680.0,631.8 L 680.0,631.8 L 680.1,631.7 L 680.1,631.7 L 680.1,631.7 L 680.2,631.6 L 680.2,631.6 L 680.3,631.6 L 680.3,631.6 L 680.4,631.6 L 680.4,631.5 L 680.5,631.5 L 680.5,631.5 L 680.6,631.5 L 680.6,631.6 L 680.7,631.6 L 680.7,631.6 L 680.8,631.6 L 680.8,631.6 L 680.8,631.7 L 680.9,631.7 L 680.9,631.7 L 681.0,631.8 L 681.0,631.8 L 681.0,631.8 L 681.0,631.9 L 681.1,631.9 L 681.1,632.0 L 681.1,632.0 L 681.1,632.1 L 681.1,632.1 L 680.5,632.1 Z" style="fill:#000000;fill-rule:evenodd;fill-opacity:1;stroke:#000000;stroke-width:0.0px;stroke-linecap:butt;stroke-linejoin:miter;stroke-miterlimit:10;stroke-opacity:1;"/>
</svg>