<svg xmlns="http://www.w3.org/2000/svg" xmlns:rdkit="http://www.rdkit.org/xml" xmlns:xlink="http://www.w3.org/1999/xlink" version="1.1" baseProfile="full" xml:space="preserve" width="750px" height="750px" viewBox="0 0 750 750">
<!-- END OF HEADER -->
<rect style="opacity:1.0;fill:#FFFFFF;stroke:none" width="250.0" height="250.0" x="0.0" y="0.0"> </rect>
<path class="bond-0 atom-0 atom-1" d="M 45.6,150.6 L 48.4,138.8" style="fill:none;fill-rule:evenodd;stroke:#000000;stroke-width:2.0px;stroke-linecap:butt;stroke-linejoin:miter;stroke-opacity:1"/>
<path class="bond-1 atom-1 atom-2" d="M 48.4,138.8 L 37.5,128.7" style="fill:none;fill-rule:evenodd;stroke:#000000;stroke-width:2.0px;stroke-linecap:butt;stroke-linejoin:miter;stroke-opacity:1"/>
<path class="bond-2 atom-2 atom-3" d="M 37.5,128.7 L 23.3,133.0" style="fill:none;fill-rule:evenodd;stroke:#000000;stroke-width:2.0px;stroke-linecap:butt;stroke-linejoin:miter;stroke-opacity:1"/>
<path class="bond-2 atom-2 atom-3" d="M 35.6,126.9 L 23.9,130.5" style="fill:none;fill-rule:evenodd;stroke:#000000;stroke-width:2.0px;stroke-linecap:butt;stroke-linejoin:miter;stroke-opacity:1"/>
<path class="bond-3 atom-3 atom-4" d="M 23.3,133.0 L 12.5,122.9" style="fill:none;fill-rule:evenodd;stroke:#000000;stroke-width:2.0px;stroke-linecap:butt;stroke-linejoin:miter;stroke-opacity:1"/>
<path class="bond-4 atom-4 atom-5" d="M 12.5,122.9 L 15.8,108.4" style="fill:none;fill-rule:evenodd;stroke:#000000;stroke-width:2.0px;stroke-linecap:butt;stroke-linejoin:miter;stroke-opacity:1"/>
<path class="bond-4 atom-4 atom-5" d="M 15.0,122.1 L 17.7,110.2" style="fill:none;fill-rule:evenodd;stroke:#000000;stroke-width:2.0px;stroke-linecap:butt;stroke-linejoin:miter;stroke-opacity:1"/>
<path class="bond-5 atom-5 atom-6" d="M 15.8,108.4 L 30.0,104.1" style="fill:none;fill-rule:evenodd;stroke:#000000;stroke-width:2.0px;stroke-linecap:butt;stroke-linejoin:miter;stroke-opacity:1"/>
<path class="bond-6 atom-6 atom-7" d="M 30.0,104.1 L 40.9,114.2" style="fill:none;fill-rule:evenodd;stroke:#000000;stroke-width:2.0px;stroke-linecap:butt;stroke-linejoin:miter;stroke-opacity:1"/>
<path class="bond-6 atom-6 atom-7" d="M 29.4,106.6 L 38.4,115.0" style="fill:none;fill-rule:evenodd;stroke:#000000;stroke-width:2.0px;stroke-linecap:butt;stroke-linejoin:miter;stroke-opacity:1"/>
<path class="bond-7 atom-7 atom-8" d="M 40.9,114.2 L 55.0,109.9" style="fill:none;fill-rule:evenodd;stroke:#000000;stroke-width:2.0px;stroke-linecap:butt;stroke-linejoin:miter;stroke-opacity:1"/>
<path class="bond-8 atom-8 atom-9" d="M 55.0,109.9 L 63.8,118.0" style="fill:none;fill-rule:evenodd;stroke:#000000;stroke-width:2.0px;stroke-linecap:butt;stroke-linejoin:miter;stroke-opacity:1"/>
<path class="bond-9 atom-9 atom-10" d="M 68.0,119.3 L 80.1,115.6" style="fill:none;fill-rule:evenodd;stroke:#000000;stroke-width:2.0px;stroke-linecap:butt;stroke-linejoin:miter;stroke-opacity:1"/>
<path class="bond-10 atom-10 atom-11" d="M 80.1,115.6 L 90.9,125.7" style="fill:none;fill-rule:evenodd;stroke:#000000;stroke-width:2.0px;stroke-linecap:butt;stroke-linejoin:miter;stroke-opacity:1"/>
<path class="bond-11 atom-11 atom-12" d="M 90.9,125.7 L 105.1,121.4" style="fill:none;fill-rule:evenodd;stroke:#000000;stroke-width:2.0px;stroke-linecap:butt;stroke-linejoin:miter;stroke-opacity:1"/>
<path class="bond-12 atom-12 atom-13" d="M 105.1,121.4 L 115.9,131.5" style="fill:none;fill-rule:evenodd;stroke:#000000;stroke-width:2.0px;stroke-linecap:butt;stroke-linejoin:miter;stroke-opacity:1"/>
<path class="bond-13 atom-13 atom-14" d="M 115.9,131.5 L 112.6,146.0" style="fill:none;fill-rule:evenodd;stroke:#000000;stroke-width:2.0px;stroke-linecap:butt;stroke-linejoin:miter;stroke-opacity:1"/>
<path class="bond-13 atom-13 atom-14" d="M 117.8,133.3 L 115.0,145.2" style="fill:none;fill-rule:evenodd;stroke:#000000;stroke-width:2.0px;stroke-linecap:butt;stroke-linejoin:miter;stroke-opacity:1"/>
<path class="bond-14 atom-14 atom-15" d="M 112.6,146.0 L 123.4,156.1" style="fill:none;fill-rule:evenodd;stroke:#000000;stroke-width:2.0px;stroke-linecap:butt;stroke-linejoin:miter;stroke-opacity:1"/>
<path class="bond-15 atom-15 atom-16" d="M 123.4,156.1 L 137.6,151.7" style="fill:none;fill-rule:evenodd;stroke:#000000;stroke-width:2.0px;stroke-linecap:butt;stroke-linejoin:miter;stroke-opacity:1"/>
<path class="bond-15 atom-15 atom-16" d="M 124.0,153.6 L 135.7,150.0" style="fill:none;fill-rule:evenodd;stroke:#000000;stroke-width:2.0px;stroke-linecap:butt;stroke-linejoin:miter;stroke-opacity:1"/>
<path class="bond-16 atom-16 atom-17" d="M 137.6,151.7 L 140.9,137.3" style="fill:none;fill-rule:evenodd;stroke:#000000;stroke-width:2.0px;stroke-linecap:butt;stroke-linejoin:miter;stroke-opacity:1"/>
<path class="bond-17 atom-17 atom-18" d="M 140.9,137.3 L 130.1,127.2" style="fill:none;fill-rule:evenodd;stroke:#000000;stroke-width:2.0px;stroke-linecap:butt;stroke-linejoin:miter;stroke-opacity:1"/>
<path class="bond-17 atom-17 atom-18" d="M 138.5,138.0 L 129.5,129.7" style="fill:none;fill-rule:evenodd;stroke:#000000;stroke-width:2.0px;stroke-linecap:butt;stroke-linejoin:miter;stroke-opacity:1"/>
<path class="bond-18 atom-18 atom-19" d="M 130.1,127.2 L 133.4,112.7" style="fill:none;fill-rule:evenodd;stroke:#000000;stroke-width:2.0px;stroke-linecap:butt;stroke-linejoin:miter;stroke-opacity:1"/>
<path class="bond-19 atom-19 atom-20" d="M 133.4,112.7 L 145.5,109.0" style="fill:none;fill-rule:evenodd;stroke:#000000;stroke-width:2.0px;stroke-linecap:butt;stroke-linejoin:miter;stroke-opacity:1"/>
<path class="bond-20 atom-20 atom-21" d="M 149.3,101.1 L 150.9,93.9" style="fill:none;fill-rule:evenodd;stroke:#000000;stroke-width:2.0px;stroke-linecap:butt;stroke-linejoin:miter;stroke-opacity:1"/>
<path class="bond-21 atom-20 atom-22" d="M 149.7,110.3 L 158.5,118.5" style="fill:none;fill-rule:evenodd;stroke:#000000;stroke-width:2.0px;stroke-linecap:butt;stroke-linejoin:miter;stroke-opacity:1"/>
<path class="bond-22 atom-22 atom-23" d="M 158.5,118.5 L 172.6,114.2" style="fill:none;fill-rule:evenodd;stroke:#000000;stroke-width:2.0px;stroke-linecap:butt;stroke-linejoin:miter;stroke-opacity:1"/>
<path class="bond-23 atom-23 atom-24" d="M 172.6,114.2 L 183.5,124.3" style="fill:none;fill-rule:evenodd;stroke:#000000;stroke-width:2.0px;stroke-linecap:butt;stroke-linejoin:miter;stroke-opacity:1"/>
<path class="bond-23 atom-23 atom-24" d="M 172.1,116.7 L 182.0,125.9" style="fill:none;fill-rule:evenodd;stroke:#000000;stroke-width:2.0px;stroke-linecap:butt;stroke-linejoin:miter;stroke-opacity:1"/>
<path class="bond-24 atom-24 atom-25" d="M 183.5,124.3 L 197.6,119.9" style="fill:none;fill-rule:evenodd;stroke:#000000;stroke-width:2.0px;stroke-linecap:butt;stroke-linejoin:miter;stroke-opacity:1"/>
<path class="bond-25 atom-25 atom-26" d="M 197.6,119.9 L 208.5,130.0" style="fill:none;fill-rule:evenodd;stroke:#000000;stroke-width:2.0px;stroke-linecap:butt;stroke-linejoin:miter;stroke-opacity:1"/>
<path class="bond-25 atom-25 atom-26" d="M 197.1,122.4 L 207.0,131.7" style="fill:none;fill-rule:evenodd;stroke:#000000;stroke-width:2.0px;stroke-linecap:butt;stroke-linejoin:miter;stroke-opacity:1"/>
<path class="bond-26 atom-26 atom-27" d="M 208.5,130.0 L 222.7,125.7" style="fill:none;fill-rule:evenodd;stroke:#000000;stroke-width:2.0px;stroke-linecap:butt;stroke-linejoin:miter;stroke-opacity:1"/>
<path class="bond-27 atom-27 atom-28" d="M 222.7,125.7 L 236.8,121.3" style="fill:none;fill-rule:evenodd;stroke:#000000;stroke-width:2.0px;stroke-linecap:butt;stroke-linejoin:miter;stroke-opacity:1"/>
<path class="bond-27 atom-27 atom-28" d="M 222.0,123.6 L 236.2,119.2" style="fill:none;fill-rule:evenodd;stroke:#000000;stroke-width:2.0px;stroke-linecap:butt;stroke-linejoin:miter;stroke-opacity:1"/>
<path class="bond-27 atom-27 atom-28" d="M 223.3,127.8 L 237.5,123.5" style="fill:none;fill-rule:evenodd;stroke:#000000;stroke-width:2.0px;stroke-linecap:butt;stroke-linejoin:miter;stroke-opacity:1"/>
<path class="bond-28 atom-7 atom-2" d="M 40.9,114.2 L 37.5,128.7" style="fill:none;fill-rule:evenodd;stroke:#000000;stroke-width:2.0px;stroke-linecap:butt;stroke-linejoin:miter;stroke-opacity:1"/>
<path class="bond-29 atom-18 atom-13" d="M 130.1,127.2 L 115.9,131.5" style="fill:none;fill-rule:evenodd;stroke:#000000;stroke-width:2.0px;stroke-linecap:butt;stroke-linejoin:miter;stroke-opacity:1"/>
<path d="M 48.2,139.4 L 48.4,138.8 L 47.8,138.3" style="fill:none;stroke:#000000;stroke-width:2.0px;stroke-linecap:butt;stroke-linejoin:miter;stroke-miterlimit:10;stroke-opacity:1;"/>
<path d="M 24.1,132.8 L 23.3,133.0 L 22.8,132.5" style="fill:none;stroke:#000000;stroke-width:2.0px;stroke-linecap:butt;stroke-linejoin:miter;stroke-miterlimit:10;stroke-opacity:1;"/>
<path d="M 13.0,123.4 L 12.5,122.9 L 12.7,122.2" style="fill:none;stroke:#000000;stroke-width:2.0px;stroke-linecap:butt;stroke-linejoin:miter;stroke-miterlimit:10;stroke-opacity:1;"/>
<path d="M 15.7,109.2 L 15.8,108.4 L 16.5,108.2" style="fill:none;stroke:#000000;stroke-width:2.0px;stroke-linecap:butt;stroke-linejoin:miter;stroke-miterlimit:10;stroke-opacity:1;"/>
<path d="M 29.3,104.3 L 30.0,104.1 L 30.5,104.6" style="fill:none;stroke:#000000;stroke-width:2.0px;stroke-linecap:butt;stroke-linejoin:miter;stroke-miterlimit:10;stroke-opacity:1;"/>
<path d="M 54.3,110.1 L 55.0,109.9 L 55.5,110.3" style="fill:none;stroke:#000000;stroke-width:2.0px;stroke-linecap:butt;stroke-linejoin:miter;stroke-miterlimit:10;stroke-opacity:1;"/>
<path d="M 79.4,115.8 L 80.1,115.6 L 80.6,116.1" style="fill:none;stroke:#000000;stroke-width:2.0px;stroke-linecap:butt;stroke-linejoin:miter;stroke-miterlimit:10;stroke-opacity:1;"/>
<path d="M 90.4,125.2 L 90.9,125.7 L 91.6,125.5" style="fill:none;stroke:#000000;stroke-width:2.0px;stroke-linecap:butt;stroke-linejoin:miter;stroke-miterlimit:10;stroke-opacity:1;"/>
<path d="M 104.4,121.6 L 105.1,121.4 L 105.6,121.9" style="fill:none;stroke:#000000;stroke-width:2.0px;stroke-linecap:butt;stroke-linejoin:miter;stroke-miterlimit:10;stroke-opacity:1;"/>
<path d="M 112.8,145.2 L 112.6,146.0 L 113.1,146.5" style="fill:none;stroke:#000000;stroke-width:2.0px;stroke-linecap:butt;stroke-linejoin:miter;stroke-miterlimit:10;stroke-opacity:1;"/>
<path d="M 122.9,155.6 L 123.4,156.1 L 124.1,155.8" style="fill:none;stroke:#000000;stroke-width:2.0px;stroke-linecap:butt;stroke-linejoin:miter;stroke-miterlimit:10;stroke-opacity:1;"/>
<path d="M 136.9,151.9 L 137.6,151.7 L 137.8,151.0" style="fill:none;stroke:#000000;stroke-width:2.0px;stroke-linecap:butt;stroke-linejoin:miter;stroke-miterlimit:10;stroke-opacity:1;"/>
<path d="M 140.8,138.0 L 140.9,137.3 L 140.4,136.8" style="fill:none;stroke:#000000;stroke-width:2.0px;stroke-linecap:butt;stroke-linejoin:miter;stroke-miterlimit:10;stroke-opacity:1;"/>
<path d="M 133.3,113.4 L 133.4,112.7 L 134.0,112.5" style="fill:none;stroke:#000000;stroke-width:2.0px;stroke-linecap:butt;stroke-linejoin:miter;stroke-miterlimit:10;stroke-opacity:1;"/>
<path d="M 158.0,118.1 L 158.5,118.5 L 159.2,118.3" style="fill:none;stroke:#000000;stroke-width:2.0px;stroke-linecap:butt;stroke-linejoin:miter;stroke-miterlimit:10;stroke-opacity:1;"/>
<path d="M 171.9,114.4 L 172.6,114.2 L 173.2,114.7" style="fill:none;stroke:#000000;stroke-width:2.0px;stroke-linecap:butt;stroke-linejoin:miter;stroke-miterlimit:10;stroke-opacity:1;"/>
<path d="M 182.9,123.8 L 183.5,124.3 L 184.2,124.0" style="fill:none;stroke:#000000;stroke-width:2.0px;stroke-linecap:butt;stroke-linejoin:miter;stroke-miterlimit:10;stroke-opacity:1;"/>
<path d="M 196.9,120.1 L 197.6,119.9 L 198.2,120.4" style="fill:none;stroke:#000000;stroke-width:2.0px;stroke-linecap:butt;stroke-linejoin:miter;stroke-miterlimit:10;stroke-opacity:1;"/>
<path d="M 208.0,129.5 L 208.5,130.0 L 209.2,129.8" style="fill:none;stroke:#000000;stroke-width:2.0px;stroke-linecap:butt;stroke-linejoin:miter;stroke-miterlimit:10;stroke-opacity:1;"/>
<path d="M 222.0,125.9 L 222.7,125.7 L 223.4,125.5" style="fill:none;stroke:#000000;stroke-width:2.0px;stroke-linecap:butt;stroke-linejoin:miter;stroke-miterlimit:10;stroke-opacity:1;"/>
<path class="atom-0" d="M 44.8 151.1 L 45.3 151.1 L 45.3 155.3 L 44.8 155.3 L 44.8 151.1 " fill="#000000"/>
<path class="atom-9" d="M 64.9 117.8 L 66.3 120.1 Q 66.5 120.3, 66.7 120.7 Q 66.9 121.1, 66.9 121.1 L 66.9 117.8 L 67.5 117.8 L 67.5 122.1 L 66.9 122.1 L 65.4 119.6 Q 65.2 119.3, 65.1 119.0 Q 64.9 118.7, 64.8 118.6 L 64.8 122.1 L 64.3 122.1 L 64.3 117.8 L 64.9 117.8 " fill="#000000"/>
<path class="atom-9" d="M 64.2 122.5 L 64.8 122.5 L 64.8 124.3 L 67.0 124.3 L 67.0 122.5 L 67.5 122.5 L 67.5 126.8 L 67.0 126.8 L 67.0 124.8 L 64.8 124.8 L 64.8 126.8 L 64.2 126.8 L 64.2 122.5 " fill="#000000"/>
<path class="atom-20" d="M 146.7 106.3 L 148.1 108.5 Q 148.2 108.7, 148.4 109.1 Q 148.6 109.5, 148.7 109.6 L 148.7 106.3 L 149.2 106.3 L 149.2 110.5 L 148.6 110.5 L 147.1 108.0 Q 147.0 107.8, 146.8 107.4 Q 146.6 107.1, 146.5 107.0 L 146.5 110.5 L 146.0 110.5 L 146.0 106.3 L 146.7 106.3 " fill="#000000"/>
<path class="atom-20" d="M 145.9 101.6 L 146.5 101.6 L 146.5 103.4 L 148.7 103.4 L 148.7 101.6 L 149.3 101.6 L 149.3 105.8 L 148.7 105.8 L 148.7 103.9 L 146.5 103.9 L 146.5 105.8 L 145.9 105.8 L 145.9 101.6 " fill="#000000"/>
<path class="atom-20" d="M 150.1 102.4 L 150.8 102.4 L 150.8 101.6 L 151.2 101.6 L 151.2 102.4 L 151.9 102.4 L 151.9 102.6 L 151.2 102.6 L 151.2 103.4 L 150.8 103.4 L 150.8 102.6 L 150.1 102.6 L 150.1 102.4 " fill="#000000"/>
<path class="bond-0 atom-0 atom-1" d="M 350.8,183.1 L 348.8,156.8" style="fill:none;fill-rule:evenodd;stroke:#000000;stroke-width:2.0px;stroke-linecap:butt;stroke-linejoin:miter;stroke-opacity:1"/>
<path class="bond-1 atom-1 atom-2" d="M 348.8,156.8 L 320.0,143.0" style="fill:none;fill-rule:evenodd;stroke:#000000;stroke-width:2.0px;stroke-linecap:butt;stroke-linejoin:miter;stroke-opacity:1"/>
<path class="bond-2 atom-2 atom-3" d="M 320.0,143.0 L 293.7,161.1" style="fill:none;fill-rule:evenodd;stroke:#000000;stroke-width:2.0px;stroke-linecap:butt;stroke-linejoin:miter;stroke-opacity:1"/>
<path class="bond-3 atom-3 atom-4" d="M 293.7,161.1 L 264.9,147.3" style="fill:none;fill-rule:evenodd;stroke:#000000;stroke-width:2.0px;stroke-linecap:butt;stroke-linejoin:miter;stroke-opacity:1"/>
<path class="bond-4 atom-4 atom-5" d="M 264.9,147.3 L 262.5,115.5" style="fill:none;fill-rule:evenodd;stroke:#000000;stroke-width:2.0px;stroke-linecap:butt;stroke-linejoin:miter;stroke-opacity:1"/>
<path class="bond-5 atom-5 atom-6" d="M 262.5,115.5 L 288.8,97.5" style="fill:none;fill-rule:evenodd;stroke:#000000;stroke-width:2.0px;stroke-linecap:butt;stroke-linejoin:miter;stroke-opacity:1"/>
<path class="bond-6 atom-6 atom-7" d="M 288.8,97.5 L 317.6,111.2" style="fill:none;fill-rule:evenodd;stroke:#000000;stroke-width:2.0px;stroke-linecap:butt;stroke-linejoin:miter;stroke-opacity:1"/>
<path class="bond-7 atom-7 atom-8" d="M 317.6,111.2 L 339.4,96.3" style="fill:none;fill-rule:evenodd;stroke:#000000;stroke-width:2.0px;stroke-linecap:butt;stroke-linejoin:miter;stroke-opacity:1"/>
<path class="bond-8 atom-8 atom-9" d="M 344.1,87.7 L 344.8,61.3" style="fill:none;fill-rule:evenodd;stroke:#000000;stroke-width:2.0px;stroke-linecap:butt;stroke-linejoin:miter;stroke-opacity:1"/>
<path class="bond-9 atom-9 atom-10" d="M 344.8,61.3 L 375.4,52.3" style="fill:none;fill-rule:evenodd;stroke:#000000;stroke-width:2.0px;stroke-linecap:butt;stroke-linejoin:miter;stroke-opacity:1"/>
<path class="bond-10 atom-10 atom-11" d="M 375.4,52.3 L 389.6,73.1" style="fill:none;fill-rule:evenodd;stroke:#000000;stroke-width:2.0px;stroke-linecap:butt;stroke-linejoin:miter;stroke-opacity:1"/>
<path class="bond-11 atom-11 atom-12" d="M 397.9,78.8 L 425.3,79.6" style="fill:none;fill-rule:evenodd;stroke:#000000;stroke-width:2.0px;stroke-linecap:butt;stroke-linejoin:miter;stroke-opacity:1"/>
<path class="bond-12 atom-12 atom-13" d="M 425.3,79.6 L 440.5,107.6" style="fill:none;fill-rule:evenodd;stroke:#000000;stroke-width:2.0px;stroke-linecap:butt;stroke-linejoin:miter;stroke-opacity:1"/>
<path class="bond-13 atom-13 atom-14" d="M 440.5,107.6 L 423.7,134.8" style="fill:none;fill-rule:evenodd;stroke:#000000;stroke-width:2.0px;stroke-linecap:butt;stroke-linejoin:miter;stroke-opacity:1"/>
<path class="bond-13 atom-13 atom-14" d="M 443.1,112.5 L 429.3,134.9" style="fill:none;fill-rule:evenodd;stroke:#000000;stroke-width:2.0px;stroke-linecap:butt;stroke-linejoin:miter;stroke-opacity:1"/>
<path class="bond-14 atom-14 atom-15" d="M 423.7,134.8 L 438.9,162.8" style="fill:none;fill-rule:evenodd;stroke:#000000;stroke-width:2.0px;stroke-linecap:butt;stroke-linejoin:miter;stroke-opacity:1"/>
<path class="bond-15 atom-15 atom-16" d="M 438.9,162.8 L 470.8,163.7" style="fill:none;fill-rule:evenodd;stroke:#000000;stroke-width:2.0px;stroke-linecap:butt;stroke-linejoin:miter;stroke-opacity:1"/>
<path class="bond-15 atom-15 atom-16" d="M 441.8,158.1 L 468.2,158.9" style="fill:none;fill-rule:evenodd;stroke:#000000;stroke-width:2.0px;stroke-linecap:butt;stroke-linejoin:miter;stroke-opacity:1"/>
<path class="bond-16 atom-16 atom-17" d="M 470.8,163.7 L 487.5,136.6" style="fill:none;fill-rule:evenodd;stroke:#000000;stroke-width:2.0px;stroke-linecap:butt;stroke-linejoin:miter;stroke-opacity:1"/>
<path class="bond-17 atom-17 atom-18" d="M 487.5,136.6 L 472.3,108.5" style="fill:none;fill-rule:evenodd;stroke:#000000;stroke-width:2.0px;stroke-linecap:butt;stroke-linejoin:miter;stroke-opacity:1"/>
<path class="bond-17 atom-17 atom-18" d="M 482.0,136.4 L 469.4,113.2" style="fill:none;fill-rule:evenodd;stroke:#000000;stroke-width:2.0px;stroke-linecap:butt;stroke-linejoin:miter;stroke-opacity:1"/>
<path class="bond-18 atom-11 atom-19" d="M 389.1,84.2 L 373.9,103.9" style="fill:none;fill-rule:evenodd;stroke:#000000;stroke-width:2.0px;stroke-linecap:butt;stroke-linejoin:miter;stroke-opacity:1"/>
<path class="bond-19 atom-19 atom-20" d="M 373.9,103.9 L 396.6,117.9" style="fill:none;fill-rule:evenodd;stroke:#000000;stroke-width:2.0px;stroke-linecap:butt;stroke-linejoin:miter;stroke-opacity:1"/>
<path class="bond-20 atom-19 atom-21" d="M 373.9,103.9 L 361.8,129.3" style="fill:none;fill-rule:evenodd;stroke:#000000;stroke-width:2.0px;stroke-linecap:butt;stroke-linejoin:miter;stroke-opacity:1"/>
<path class="bond-21 atom-7 atom-2" d="M 317.6,111.2 L 320.0,143.0" style="fill:none;fill-rule:evenodd;stroke:#000000;stroke-width:2.0px;stroke-linecap:butt;stroke-linejoin:miter;stroke-opacity:1"/>
<path class="bond-22 atom-19 atom-8" d="M 373.9,103.9 L 348.4,94.8" style="fill:none;fill-rule:evenodd;stroke:#000000;stroke-width:2.0px;stroke-linecap:butt;stroke-linejoin:miter;stroke-opacity:1"/>
<path class="bond-23 atom-18 atom-13" d="M 472.3,108.5 L 440.5,107.6" style="fill:none;fill-rule:evenodd;stroke:#000000;stroke-width:2.0px;stroke-linecap:butt;stroke-linejoin:miter;stroke-opacity:1"/>
<path d="M 348.9,158.1 L 348.8,156.8 L 347.3,156.1" style="fill:none;stroke:#000000;stroke-width:2.0px;stroke-linecap:butt;stroke-linejoin:miter;stroke-miterlimit:10;stroke-opacity:1;"/>
<path d="M 295.0,160.2 L 293.7,161.1 L 292.3,160.4" style="fill:none;stroke:#000000;stroke-width:2.0px;stroke-linecap:butt;stroke-linejoin:miter;stroke-miterlimit:10;stroke-opacity:1;"/>
<path d="M 266.4,148.0 L 264.9,147.3 L 264.8,145.7" style="fill:none;stroke:#000000;stroke-width:2.0px;stroke-linecap:butt;stroke-linejoin:miter;stroke-miterlimit:10;stroke-opacity:1;"/>
<path d="M 262.6,117.1 L 262.5,115.5 L 263.8,114.6" style="fill:none;stroke:#000000;stroke-width:2.0px;stroke-linecap:butt;stroke-linejoin:miter;stroke-miterlimit:10;stroke-opacity:1;"/>
<path d="M 287.5,98.4 L 288.8,97.5 L 290.3,98.1" style="fill:none;stroke:#000000;stroke-width:2.0px;stroke-linecap:butt;stroke-linejoin:miter;stroke-miterlimit:10;stroke-opacity:1;"/>
<path d="M 344.8,62.7 L 344.8,61.3 L 346.3,60.9" style="fill:none;stroke:#000000;stroke-width:2.0px;stroke-linecap:butt;stroke-linejoin:miter;stroke-miterlimit:10;stroke-opacity:1;"/>
<path d="M 373.9,52.8 L 375.4,52.3 L 376.1,53.4" style="fill:none;stroke:#000000;stroke-width:2.0px;stroke-linecap:butt;stroke-linejoin:miter;stroke-miterlimit:10;stroke-opacity:1;"/>
<path d="M 423.9,79.5 L 425.3,79.6 L 426.0,81.0" style="fill:none;stroke:#000000;stroke-width:2.0px;stroke-linecap:butt;stroke-linejoin:miter;stroke-miterlimit:10;stroke-opacity:1;"/>
<path d="M 424.6,133.4 L 423.7,134.8 L 424.5,136.2" style="fill:none;stroke:#000000;stroke-width:2.0px;stroke-linecap:butt;stroke-linejoin:miter;stroke-miterlimit:10;stroke-opacity:1;"/>
<path d="M 438.1,161.4 L 438.9,162.8 L 440.5,162.9" style="fill:none;stroke:#000000;stroke-width:2.0px;stroke-linecap:butt;stroke-linejoin:miter;stroke-miterlimit:10;stroke-opacity:1;"/>
<path d="M 469.2,163.7 L 470.8,163.7 L 471.6,162.4" style="fill:none;stroke:#000000;stroke-width:2.0px;stroke-linecap:butt;stroke-linejoin:miter;stroke-miterlimit:10;stroke-opacity:1;"/>
<path d="M 486.7,137.9 L 487.5,136.6 L 486.7,135.2" style="fill:none;stroke:#000000;stroke-width:2.0px;stroke-linecap:butt;stroke-linejoin:miter;stroke-miterlimit:10;stroke-opacity:1;"/>
<path d="M 473.1,109.9 L 472.3,108.5 L 470.7,108.5" style="fill:none;stroke:#000000;stroke-width:2.0px;stroke-linecap:butt;stroke-linejoin:miter;stroke-miterlimit:10;stroke-opacity:1;"/>
<path class="atom-0" d="M 349.2 184.1 L 352.2 188.9 Q 352.5 189.4, 353.0 190.2 Q 353.4 191.1, 353.5 191.1 L 353.5 184.1 L 354.7 184.1 L 354.7 193.1 L 353.4 193.1 L 350.2 187.9 Q 349.9 187.3, 349.5 186.6 Q 349.1 185.9, 349.0 185.7 L 349.0 193.1 L 347.8 193.1 L 347.8 184.1 L 349.2 184.1 " fill="#000000"/>
<path class="atom-0" d="M 356.4 184.1 L 357.6 184.1 L 357.6 187.9 L 362.2 187.9 L 362.2 184.1 L 363.4 184.1 L 363.4 193.1 L 362.2 193.1 L 362.2 189.0 L 357.6 189.0 L 357.6 193.1 L 356.4 193.1 L 356.4 184.1 " fill="#000000"/>
<path class="atom-0" d="M 365.2 192.8 Q 365.4 192.3, 365.9 191.9 Q 366.4 191.6, 367.2 191.6 Q 368.1 191.6, 368.6 192.1 Q 369.1 192.6, 369.1 193.5 Q 369.1 194.4, 368.4 195.2 Q 367.8 196.0, 366.4 197.0 L 369.2 197.0 L 369.2 197.7 L 365.2 197.7 L 365.2 197.1 Q 366.3 196.3, 366.9 195.7 Q 367.6 195.1, 367.9 194.6 Q 368.2 194.1, 368.2 193.5 Q 368.2 192.9, 367.9 192.6 Q 367.7 192.3, 367.2 192.3 Q 366.7 192.3, 366.4 192.5 Q 366.0 192.7, 365.8 193.1 L 365.2 192.8 " fill="#000000"/>
<path class="atom-0" d="M 365.2 185.7 L 366.8 185.7 L 366.8 184.1 L 367.5 184.1 L 367.5 185.7 L 369.1 185.7 L 369.1 186.3 L 367.5 186.3 L 367.5 188.0 L 366.8 188.0 L 366.8 186.3 L 365.2 186.3 L 365.2 185.7 " fill="#000000"/>
<path class="atom-8" d="M 341.9 88.7 L 344.9 93.5 Q 345.2 94.0, 345.6 94.8 Q 346.1 95.7, 346.1 95.7 L 346.1 88.7 L 347.3 88.7 L 347.3 97.7 L 346.1 97.7 L 342.9 92.5 Q 342.5 91.9, 342.1 91.2 Q 341.8 90.5, 341.6 90.3 L 341.6 97.7 L 340.5 97.7 L 340.5 88.7 L 341.9 88.7 " fill="#000000"/>
<path class="atom-11" d="M 391.4 74.1 L 394.4 78.9 Q 394.7 79.4, 395.1 80.3 Q 395.6 81.1, 395.6 81.2 L 395.6 74.1 L 396.8 74.1 L 396.8 83.2 L 395.6 83.2 L 392.4 77.9 Q 392.0 77.3, 391.7 76.6 Q 391.3 75.9, 391.2 75.7 L 391.2 83.2 L 390.0 83.2 L 390.0 74.1 L 391.4 74.1 " fill="#000000"/>
<path class="atom-20" d="M 397.6 121.0 Q 397.6 118.7, 398.7 117.5 Q 399.7 116.3, 401.7 116.3 Q 403.6 116.3, 404.6 117.7 L 403.7 118.4 Q 403.0 117.4, 401.7 117.4 Q 400.4 117.4, 399.6 118.3 Q 398.9 119.2, 398.9 121.0 Q 398.9 122.7, 399.7 123.7 Q 400.4 124.6, 401.9 124.6 Q 402.9 124.6, 404.0 124.0 L 404.4 124.9 Q 403.9 125.2, 403.2 125.4 Q 402.5 125.6, 401.7 125.6 Q 399.7 125.6, 398.7 124.4 Q 397.6 123.2, 397.6 121.0 " fill="#000000"/>
<path class="atom-20" d="M 405.5 115.8 L 406.7 115.8 L 406.7 125.5 L 405.5 125.5 L 405.5 115.8 " fill="#000000"/>
<path class="atom-21" d="M 351.7 133.0 Q 351.7 130.8, 352.7 129.6 Q 353.8 128.4, 355.8 128.4 Q 357.7 128.4, 358.7 129.7 L 357.8 130.4 Q 357.1 129.4, 355.8 129.4 Q 354.4 129.4, 353.7 130.4 Q 353.0 131.3, 353.0 133.0 Q 353.0 134.8, 353.7 135.7 Q 354.5 136.6, 355.9 136.6 Q 356.9 136.6, 358.1 136.0 L 358.4 137.0 Q 358.0 137.3, 357.3 137.5 Q 356.5 137.6, 355.8 137.6 Q 353.8 137.6, 352.7 136.4 Q 351.7 135.2, 351.7 133.0 " fill="#000000"/>
<path class="atom-21" d="M 359.6 127.8 L 360.7 127.8 L 360.7 137.5 L 359.6 137.5 L 359.6 127.8 " fill="#000000"/>
<path class="atom-0" d="M 371.7,188.6 L 371.7,188.7 L 371.7,188.7 L 371.7,188.8 L 371.7,188.8 L 371.7,188.9 L 371.6,188.9 L 371.6,189.0 L 371.6,189.0 L 371.5,189.1 L 371.5,189.1 L 371.5,189.1 L 371.4,189.2 L 371.4,189.2 L 371.3,189.2 L 371.3,189.2 L 371.2,189.3 L 371.2,189.3 L 371.1,189.3 L 371.1,189.3 L 371.0,189.3 L 370.9,189.2 L 370.9,189.2 L 370.8,189.2 L 370.8,189.2 L 370.7,189.2 L 370.7,189.1 L 370.7,189.1 L 370.6,189.1 L 370.6,189.0 L 370.6,189.0 L 370.5,188.9 L 370.5,188.9 L 370.5,188.8 L 370.5,188.8 L 370.5,188.7 L 370.5,188.7 L 370.5,188.6 L 370.5,188.5 L 370.5,188.5 L 370.5,188.4 L 370.5,188.4 L 370.5,188.3 L 370.6,188.3 L 370.6,188.2 L 370.6,188.2 L 370.7,188.2 L 370.7,188.1 L 370.7,188.1 L 370.8,188.1 L 370.8,188.0 L 370.9,188.0 L 370.9,188.0 L 371.0,188.0 L 371.1,188.0 L 371.1,188.0 L 371.2,188.0 L 371.2,188.0 L 371.3,188.0 L 371.3,188.0 L 371.4,188.1 L 371.4,188.1 L 371.5,188.1 L 371.5,188.1 L 371.5,188.2 L 371.6,188.2 L 371.6,188.3 L 371.6,188.3 L 371.7,188.4 L 371.7,188.4 L 371.7,188.5 L 371.7,188.5 L 371.7,188.6 L 371.7,188.6 L 371.1,188.6 Z" style="fill:#000000;fill-rule:evenodd;fill-opacity:1;stroke:#000000;stroke-width:0.0px;stroke-linecap:butt;stroke-linejoin:miter;stroke-miterlimit:10;stroke-opacity:1;"/>
<path class="bond-0 atom-0 atom-1" d="M 705.4,124.8 L 553.8,124.8" style="fill:none;fill-rule:evenodd;stroke:#000000;stroke-width:2.0px;stroke-linecap:butt;stroke-linejoin:miter;stroke-opacity:1"/>
<path class="atom-0" d="M 711.5 110.6 L 728.4 110.6 L 728.4 113.9 L 715.3 113.9 L 715.3 122.5 L 726.9 122.5 L 726.9 125.7 L 715.3 125.7 L 715.3 138.9 L 711.5 138.9 L 711.5 110.6 " fill="#000000"/>
<path class="atom-1" d="M 521.6 124.9 Q 521.6 118.1, 525.0 114.3 Q 528.4 110.5, 534.6 110.5 Q 540.9 110.5, 544.3 114.3 Q 547.6 118.1, 547.6 124.9 Q 547.6 131.7, 544.2 135.7 Q 540.8 139.5, 534.6 139.5 Q 528.4 139.5, 525.0 135.7 Q 521.6 131.8, 521.6 124.9 M 534.6 136.3 Q 539.0 136.3, 541.3 133.5 Q 543.6 130.5, 543.6 124.9 Q 543.6 119.3, 541.3 116.5 Q 539.0 113.7, 534.6 113.7 Q 530.3 113.7, 528.0 116.5 Q 525.6 119.3, 525.6 124.9 Q 525.6 130.6, 528.0 133.5 Q 530.3 136.3, 534.6 136.3 " fill="#000000"/>
<path class="atom-1" d="M 551.7 115.1 L 561.4 115.1 L 561.4 117.2 L 551.7 117.2 L 551.7 115.1 " fill="#000000"/>
<path class="bond-0 atom-0 atom-1" d="M 38.1,362.9 L 183.8,362.9" style="fill:none;fill-rule:evenodd;stroke:#000000;stroke-width:2.0px;stroke-linecap:butt;stroke-linejoin:miter;stroke-opacity:1"/>
<path class="bond-0 atom-0 atom-1" d="M 38.1,387.1 L 183.8,387.1" style="fill:none;fill-rule:evenodd;stroke:#000000;stroke-width:2.0px;stroke-linecap:butt;stroke-linejoin:miter;stroke-opacity:1"/>
<path class="atom-1" d="M 193.6 360.8 L 202.9 375.8 Q 203.8 377.3, 205.3 380.0 Q 206.8 382.7, 206.9 382.8 L 206.9 360.8 L 210.6 360.8 L 210.6 389.2 L 206.7 389.2 L 196.8 372.8 Q 195.6 370.8, 194.4 368.6 Q 193.2 366.4, 192.8 365.8 L 192.8 389.2 L 189.1 389.2 L 189.1 360.8 L 193.6 360.8 " fill="#000000"/>
<path class="atom-1" d="M 215.7 365.5 L 225.4 365.5 L 225.4 367.6 L 215.7 367.6 L 215.7 365.5 " fill="#000000"/>
<path class="atom-0" d="M 28.1,379.0 L 28.1,379.2 L 28.0,379.3 L 28.0,379.5 L 28.0,379.7 L 27.9,379.8 L 27.8,380.0 L 27.7,380.1 L 27.6,380.3 L 27.5,380.4 L 27.4,380.5 L 27.2,380.6 L 27.1,380.7 L 26.9,380.8 L 26.8,380.9 L 26.6,380.9 L 26.5,381.0 L 26.3,381.0 L 26.1,381.0 L 25.9,381.0 L 25.8,381.0 L 25.6,380.9 L 25.4,380.9 L 25.3,380.8 L 25.1,380.8 L 25.0,380.7 L 24.8,380.6 L 24.7,380.5 L 24.6,380.3 L 24.5,380.2 L 24.4,380.1 L 24.3,379.9 L 24.2,379.8 L 24.2,379.6 L 24.1,379.4 L 24.1,379.3 L 24.1,379.1 L 24.1,378.9 L 24.1,378.7 L 24.1,378.6 L 24.2,378.4 L 24.2,378.2 L 24.3,378.1 L 24.4,377.9 L 24.5,377.8 L 24.6,377.7 L 24.7,377.5 L 24.8,377.4 L 25.0,377.3 L 25.1,377.2 L 25.3,377.2 L 25.4,377.1 L 25.6,377.1 L 25.8,377.0 L 25.9,377.0 L 26.1,377.0 L 26.3,377.0 L 26.5,377.0 L 26.6,377.1 L 26.8,377.1 L 26.9,377.2 L 27.1,377.3 L 27.2,377.4 L 27.4,377.5 L 27.5,377.6 L 27.6,377.7 L 27.7,377.9 L 27.8,378.0 L 27.9,378.2 L 28.0,378.3 L 28.0,378.5 L 28.0,378.7 L 28.1,378.8 L 28.1,379.0 L 26.1,379.0 Z" style="fill:#000000;fill-rule:evenodd;fill-opacity:1;stroke:#000000;stroke-width:0.0px;stroke-linecap:butt;stroke-linejoin:miter;stroke-miterlimit:10;stroke-opacity:1;"/>
<path class="atom-0" d="M 28.1,371.0 L 28.1,371.2 L 28.0,371.3 L 28.0,371.5 L 28.0,371.7 L 27.9,371.8 L 27.8,372.0 L 27.7,372.1 L 27.6,372.3 L 27.5,372.4 L 27.4,372.5 L 27.2,372.6 L 27.1,372.7 L 26.9,372.8 L 26.8,372.9 L 26.6,372.9 L 26.5,373.0 L 26.3,373.0 L 26.1,373.0 L 25.9,373.0 L 25.8,373.0 L 25.6,372.9 L 25.4,372.9 L 25.3,372.8 L 25.1,372.8 L 25.0,372.7 L 24.8,372.6 L 24.7,372.5 L 24.6,372.3 L 24.5,372.2 L 24.4,372.1 L 24.3,371.9 L 24.2,371.8 L 24.2,371.6 L 24.1,371.4 L 24.1,371.3 L 24.1,371.1 L 24.1,370.9 L 24.1,370.7 L 24.1,370.6 L 24.2,370.4 L 24.2,370.2 L 24.3,370.1 L 24.4,369.9 L 24.5,369.8 L 24.6,369.7 L 24.7,369.5 L 24.8,369.4 L 25.0,369.3 L 25.1,369.2 L 25.3,369.2 L 25.4,369.1 L 25.6,369.1 L 25.8,369.0 L 25.9,369.0 L 26.1,369.0 L 26.3,369.0 L 26.5,369.0 L 26.6,369.1 L 26.8,369.1 L 26.9,369.2 L 27.1,369.3 L 27.2,369.4 L 27.4,369.5 L 27.5,369.6 L 27.6,369.7 L 27.7,369.9 L 27.8,370.0 L 27.9,370.2 L 28.0,370.3 L 28.0,370.5 L 28.0,370.7 L 28.1,370.8 L 28.1,371.0 L 26.1,371.0 Z" style="fill:#000000;fill-rule:evenodd;fill-opacity:1;stroke:#000000;stroke-width:0.0px;stroke-linecap:butt;stroke-linejoin:miter;stroke-miterlimit:10;stroke-opacity:1;"/>
<path class="bond-0 atom-0 atom-1" d="M 310.0,425.9 L 303.6,398.1" style="fill:none;fill-rule:evenodd;stroke:#000000;stroke-width:2.0px;stroke-linecap:butt;stroke-linejoin:miter;stroke-opacity:1"/>
<path class="bond-1 atom-1 atom-2" d="M 303.6,398.1 L 270.3,388.0" style="fill:none;fill-rule:evenodd;stroke:#000000;stroke-width:2.0px;stroke-linecap:butt;stroke-linejoin:miter;stroke-opacity:1"/>
<path class="bond-1 atom-1 atom-2" d="M 302.2,392.3 L 274.7,383.9" style="fill:none;fill-rule:evenodd;stroke:#000000;stroke-width:2.0px;stroke-linecap:butt;stroke-linejoin:miter;stroke-opacity:1"/>
<path class="bond-2 atom-2 atom-3" d="M 270.3,388.0 L 262.5,354.1" style="fill:none;fill-rule:evenodd;stroke:#000000;stroke-width:2.0px;stroke-linecap:butt;stroke-linejoin:miter;stroke-opacity:1"/>
<path class="bond-3 atom-3 atom-4" d="M 262.5,354.1 L 287.9,330.4" style="fill:none;fill-rule:evenodd;stroke:#000000;stroke-width:2.0px;stroke-linecap:butt;stroke-linejoin:miter;stroke-opacity:1"/>
<path class="bond-3 atom-3 atom-4" d="M 268.3,355.8 L 289.3,336.2" style="fill:none;fill-rule:evenodd;stroke:#000000;stroke-width:2.0px;stroke-linecap:butt;stroke-linejoin:miter;stroke-opacity:1"/>
<path class="bond-4 atom-4 atom-5" d="M 287.9,330.4 L 321.2,340.5" style="fill:none;fill-rule:evenodd;stroke:#000000;stroke-width:2.0px;stroke-linecap:butt;stroke-linejoin:miter;stroke-opacity:1"/>
<path class="bond-5 atom-5 atom-6" d="M 321.2,340.5 L 329.0,374.4" style="fill:none;fill-rule:evenodd;stroke:#000000;stroke-width:2.0px;stroke-linecap:butt;stroke-linejoin:miter;stroke-opacity:1"/>
<path class="bond-5 atom-5 atom-6" d="M 316.8,344.6 L 323.3,372.6" style="fill:none;fill-rule:evenodd;stroke:#000000;stroke-width:2.0px;stroke-linecap:butt;stroke-linejoin:miter;stroke-opacity:1"/>
<path class="bond-6 atom-6 atom-7" d="M 329.0,374.4 L 357.4,383.1" style="fill:none;fill-rule:evenodd;stroke:#000000;stroke-width:2.0px;stroke-linecap:butt;stroke-linejoin:miter;stroke-opacity:1"/>
<path class="bond-7 atom-7 atom-8" d="M 367.2,380.0 L 387.7,360.9" style="fill:none;fill-rule:evenodd;stroke:#000000;stroke-width:2.0px;stroke-linecap:butt;stroke-linejoin:miter;stroke-opacity:1"/>
<path class="bond-8 atom-8 atom-9" d="M 390.6,361.7 L 383.9,332.7" style="fill:none;fill-rule:evenodd;stroke:#000000;stroke-width:2.0px;stroke-linecap:butt;stroke-linejoin:miter;stroke-opacity:1"/>
<path class="bond-8 atom-8 atom-9" d="M 385.5,362.9 L 378.8,333.8" style="fill:none;fill-rule:evenodd;stroke:#000000;stroke-width:2.0px;stroke-linecap:butt;stroke-linejoin:miter;stroke-opacity:1"/>
<path class="bond-9 atom-8 atom-10" d="M 387.7,360.9 L 421.0,371.0" style="fill:none;fill-rule:evenodd;stroke:#000000;stroke-width:2.0px;stroke-linecap:butt;stroke-linejoin:miter;stroke-opacity:1"/>
<path class="bond-10 atom-10 atom-11" d="M 421.0,371.0 L 428.8,404.9" style="fill:none;fill-rule:evenodd;stroke:#000000;stroke-width:2.0px;stroke-linecap:butt;stroke-linejoin:miter;stroke-opacity:1"/>
<path class="bond-10 atom-10 atom-11" d="M 426.7,372.8 L 433.2,400.8" style="fill:none;fill-rule:evenodd;stroke:#000000;stroke-width:2.0px;stroke-linecap:butt;stroke-linejoin:miter;stroke-opacity:1"/>
<path class="bond-11 atom-11 atom-12" d="M 428.8,404.9 L 462.1,415.1" style="fill:none;fill-rule:evenodd;stroke:#000000;stroke-width:2.0px;stroke-linecap:butt;stroke-linejoin:miter;stroke-opacity:1"/>
<path class="bond-12 atom-12 atom-13" d="M 462.1,415.1 L 487.5,391.4" style="fill:none;fill-rule:evenodd;stroke:#000000;stroke-width:2.0px;stroke-linecap:butt;stroke-linejoin:miter;stroke-opacity:1"/>
<path class="bond-12 atom-12 atom-13" d="M 460.7,409.2 L 481.7,389.6" style="fill:none;fill-rule:evenodd;stroke:#000000;stroke-width:2.0px;stroke-linecap:butt;stroke-linejoin:miter;stroke-opacity:1"/>
<path class="bond-13 atom-13 atom-14" d="M 487.5,391.4 L 479.7,357.5" style="fill:none;fill-rule:evenodd;stroke:#000000;stroke-width:2.0px;stroke-linecap:butt;stroke-linejoin:miter;stroke-opacity:1"/>
<path class="bond-14 atom-14 atom-15" d="M 479.7,357.5 L 446.4,347.3" style="fill:none;fill-rule:evenodd;stroke:#000000;stroke-width:2.0px;stroke-linecap:butt;stroke-linejoin:miter;stroke-opacity:1"/>
<path class="bond-14 atom-14 atom-15" d="M 475.3,361.6 L 447.8,353.2" style="fill:none;fill-rule:evenodd;stroke:#000000;stroke-width:2.0px;stroke-linecap:butt;stroke-linejoin:miter;stroke-opacity:1"/>
<path class="bond-15 atom-15 atom-16" d="M 446.4,347.3 L 440.1,320.0" style="fill:none;fill-rule:evenodd;stroke:#000000;stroke-width:2.0px;stroke-linecap:butt;stroke-linejoin:miter;stroke-opacity:1"/>
<path class="bond-16 atom-6 atom-1" d="M 329.0,374.4 L 303.6,398.1" style="fill:none;fill-rule:evenodd;stroke:#000000;stroke-width:2.0px;stroke-linecap:butt;stroke-linejoin:miter;stroke-opacity:1"/>
<path class="bond-17 atom-15 atom-10" d="M 446.4,347.3 L 421.0,371.0" style="fill:none;fill-rule:evenodd;stroke:#000000;stroke-width:2.0px;stroke-linecap:butt;stroke-linejoin:miter;stroke-opacity:1"/>
<path d="M 272.0,388.5 L 270.3,388.0 L 269.9,386.3" style="fill:none;stroke:#000000;stroke-width:2.0px;stroke-linecap:butt;stroke-linejoin:miter;stroke-miterlimit:10;stroke-opacity:1;"/>
<path d="M 262.9,355.8 L 262.5,354.1 L 263.8,352.9" style="fill:none;stroke:#000000;stroke-width:2.0px;stroke-linecap:butt;stroke-linejoin:miter;stroke-miterlimit:10;stroke-opacity:1;"/>
<path d="M 286.7,331.5 L 287.9,330.4 L 289.6,330.9" style="fill:none;stroke:#000000;stroke-width:2.0px;stroke-linecap:butt;stroke-linejoin:miter;stroke-miterlimit:10;stroke-opacity:1;"/>
<path d="M 319.5,340.0 L 321.2,340.5 L 321.6,342.2" style="fill:none;stroke:#000000;stroke-width:2.0px;stroke-linecap:butt;stroke-linejoin:miter;stroke-miterlimit:10;stroke-opacity:1;"/>
<path d="M 386.7,361.8 L 387.7,360.9 L 389.4,361.4" style="fill:none;stroke:#000000;stroke-width:2.0px;stroke-linecap:butt;stroke-linejoin:miter;stroke-miterlimit:10;stroke-opacity:1;"/>
<path d="M 428.4,403.2 L 428.8,404.9 L 430.5,405.4" style="fill:none;stroke:#000000;stroke-width:2.0px;stroke-linecap:butt;stroke-linejoin:miter;stroke-miterlimit:10;stroke-opacity:1;"/>
<path d="M 460.4,414.6 L 462.1,415.1 L 463.3,413.9" style="fill:none;stroke:#000000;stroke-width:2.0px;stroke-linecap:butt;stroke-linejoin:miter;stroke-miterlimit:10;stroke-opacity:1;"/>
<path d="M 486.2,392.5 L 487.5,391.4 L 487.1,389.7" style="fill:none;stroke:#000000;stroke-width:2.0px;stroke-linecap:butt;stroke-linejoin:miter;stroke-miterlimit:10;stroke-opacity:1;"/>
<path d="M 480.1,359.2 L 479.7,357.5 L 478.0,357.0" style="fill:none;stroke:#000000;stroke-width:2.0px;stroke-linecap:butt;stroke-linejoin:miter;stroke-miterlimit:10;stroke-opacity:1;"/>
<path class="atom-0" d="M 309.2 427.1 L 312.5 432.3 Q 312.8 432.8, 313.3 433.8 Q 313.8 434.7, 313.8 434.7 L 313.8 427.1 L 315.1 427.1 L 315.1 436.9 L 313.8 436.9 L 310.3 431.2 Q 309.9 430.6, 309.5 429.8 Q 309.1 429.0, 309.0 428.8 L 309.0 436.9 L 307.7 436.9 L 307.7 427.1 L 309.2 427.1 " fill="#000000"/>
<path class="atom-0" d="M 317.0 427.1 L 318.3 427.1 L 318.3 431.3 L 323.4 431.3 L 323.4 427.1 L 324.7 427.1 L 324.7 436.9 L 323.4 436.9 L 323.4 432.4 L 318.3 432.4 L 318.3 436.9 L 317.0 436.9 L 317.0 427.1 " fill="#000000"/>
<path class="atom-0" d="M 326.6 436.6 Q 326.9 436.0, 327.4 435.6 Q 328.0 435.3, 328.8 435.3 Q 329.8 435.3, 330.3 435.8 Q 330.9 436.4, 330.9 437.3 Q 330.9 438.3, 330.2 439.2 Q 329.5 440.1, 328.0 441.1 L 331.0 441.1 L 331.0 441.9 L 326.6 441.9 L 326.6 441.3 Q 327.8 440.4, 328.5 439.7 Q 329.3 439.1, 329.6 438.5 Q 330.0 437.9, 330.0 437.4 Q 330.0 436.7, 329.6 436.4 Q 329.3 436.0, 328.8 436.0 Q 328.3 436.0, 327.9 436.2 Q 327.6 436.5, 327.3 436.9 L 326.6 436.6 " fill="#000000"/>
<path class="atom-0" d="M 326.7 428.9 L 328.4 428.9 L 328.4 427.0 L 329.2 427.0 L 329.2 428.9 L 330.9 428.9 L 330.9 429.5 L 329.2 429.5 L 329.2 431.4 L 328.4 431.4 L 328.4 429.5 L 326.7 429.5 L 326.7 428.9 " fill="#000000"/>
<path class="atom-7" d="M 360.1 379.7 L 363.3 384.9 Q 363.7 385.4, 364.2 386.3 Q 364.7 387.2, 364.7 387.3 L 364.7 379.7 L 366.0 379.7 L 366.0 389.5 L 364.7 389.5 L 361.2 383.8 Q 360.8 383.1, 360.4 382.4 Q 360.0 381.6, 359.8 381.4 L 359.8 389.5 L 358.5 389.5 L 358.5 379.7 L 360.1 379.7 " fill="#000000"/>
<path class="atom-7" d="M 358.4 390.5 L 359.8 390.5 L 359.8 394.7 L 364.8 394.7 L 364.8 390.5 L 366.1 390.5 L 366.1 400.3 L 364.8 400.3 L 364.8 395.8 L 359.8 395.8 L 359.8 400.3 L 358.4 400.3 L 358.4 390.5 " fill="#000000"/>
<path class="atom-9" d="M 375.4 327.0 Q 375.4 324.6, 376.5 323.3 Q 377.7 322.0, 379.9 322.0 Q 382.1 322.0, 383.2 323.3 Q 384.4 324.6, 384.4 327.0 Q 384.4 329.4, 383.2 330.8 Q 382.0 332.1, 379.9 332.1 Q 377.7 332.1, 376.5 330.8 Q 375.4 329.4, 375.4 327.0 M 379.9 331.0 Q 381.4 331.0, 382.2 330.0 Q 383.0 329.0, 383.0 327.0 Q 383.0 325.1, 382.2 324.1 Q 381.4 323.1, 379.9 323.1 Q 378.4 323.1, 377.6 324.1 Q 376.8 325.0, 376.8 327.0 Q 376.8 329.0, 377.6 330.0 Q 378.4 331.0, 379.9 331.0 " fill="#000000"/>
<path class="atom-16" d="M 434.8 313.8 Q 434.8 311.3, 435.9 310.0 Q 437.1 308.7, 439.3 308.7 Q 441.3 308.7, 442.4 310.2 L 441.5 310.9 Q 440.7 309.9, 439.3 309.9 Q 437.8 309.9, 437.0 310.9 Q 436.2 311.9, 436.2 313.8 Q 436.2 315.7, 437.0 316.7 Q 437.8 317.7, 439.4 317.7 Q 440.5 317.7, 441.8 317.0 L 442.2 318.1 Q 441.6 318.4, 440.9 318.6 Q 440.1 318.8, 439.2 318.8 Q 437.1 318.8, 435.9 317.5 Q 434.8 316.2, 434.8 313.8 " fill="#000000"/>
<path class="atom-16" d="M 443.4 308.1 L 444.7 308.1 L 444.7 318.7 L 443.4 318.7 L 443.4 308.1 " fill="#000000"/>
<path class="atom-0" d="M 333.8,432.0 L 333.8,432.1 L 333.8,432.1 L 333.7,432.2 L 333.7,432.3 L 333.7,432.3 L 333.7,432.4 L 333.6,432.4 L 333.6,432.5 L 333.6,432.5 L 333.5,432.5 L 333.5,432.6 L 333.4,432.6 L 333.4,432.6 L 333.3,432.7 L 333.3,432.7 L 333.2,432.7 L 333.2,432.7 L 333.1,432.7 L 333.0,432.7 L 333.0,432.7 L 332.9,432.7 L 332.9,432.7 L 332.8,432.7 L 332.7,432.6 L 332.7,432.6 L 332.6,432.6 L 332.6,432.5 L 332.6,432.5 L 332.5,432.4 L 332.5,432.4 L 332.5,432.3 L 332.4,432.3 L 332.4,432.2 L 332.4,432.2 L 332.4,432.1 L 332.4,432.0 L 332.4,432.0 L 332.4,431.9 L 332.4,431.9 L 332.4,431.8 L 332.4,431.8 L 332.5,431.7 L 332.5,431.7 L 332.5,431.6 L 332.6,431.6 L 332.6,431.5 L 332.6,431.5 L 332.7,431.4 L 332.7,431.4 L 332.8,431.4 L 332.9,431.4 L 332.9,431.3 L 333.0,431.3 L 333.0,431.3 L 333.1,431.3 L 333.2,431.3 L 333.2,431.3 L 333.3,431.4 L 333.3,431.4 L 333.4,431.4 L 333.4,431.4 L 333.5,431.5 L 333.5,431.5 L 333.6,431.5 L 333.6,431.6 L 333.6,431.6 L 333.7,431.7 L 333.7,431.7 L 333.7,431.8 L 333.7,431.8 L 333.8,431.9 L 333.8,432.0 L 333.8,432.0 L 333.1,432.0 Z" style="fill:#000000;fill-rule:evenodd;fill-opacity:1;stroke:#000000;stroke-width:0.0px;stroke-linecap:butt;stroke-linejoin:miter;stroke-miterlimit:10;stroke-opacity:1;"/>
<path class="bond-0 atom-0 atom-1" d="M 691.7,391.5 L 654.1,456.7" style="fill:none;fill-rule:evenodd;stroke:#000000;stroke-width:2.0px;stroke-linecap:butt;stroke-linejoin:miter;stroke-opacity:1"/>
<path class="bond-1 atom-1 atom-2" d="M 654.1,456.7 L 559.7,456.7" style="fill:none;fill-rule:evenodd;stroke:#000000;stroke-width:2.0px;stroke-linecap:butt;stroke-linejoin:miter;stroke-opacity:1"/>
<path class="bond-2 atom-2 atom-3" d="M 559.7,456.7 L 512.5,375.0" style="fill:none;fill-rule:evenodd;stroke:#000000;stroke-width:2.0px;stroke-linecap:butt;stroke-linejoin:miter;stroke-opacity:1"/>
<path class="bond-3 atom-3 atom-4" d="M 512.5,375.0 L 559.7,293.3" style="fill:none;fill-rule:evenodd;stroke:#000000;stroke-width:2.0px;stroke-linecap:butt;stroke-linejoin:miter;stroke-opacity:1"/>
<path class="bond-4 atom-4 atom-5" d="M 559.7,293.3 L 654.1,293.3" style="fill:none;fill-rule:evenodd;stroke:#000000;stroke-width:2.0px;stroke-linecap:butt;stroke-linejoin:miter;stroke-opacity:1"/>
<path class="bond-5 atom-5 atom-0" d="M 654.1,293.3 L 691.7,358.5" style="fill:none;fill-rule:evenodd;stroke:#000000;stroke-width:2.0px;stroke-linecap:butt;stroke-linejoin:miter;stroke-opacity:1"/>
<path d="M 656.0,453.5 L 654.1,456.7 L 649.3,456.7" style="fill:none;stroke:#000000;stroke-width:2.0px;stroke-linecap:butt;stroke-linejoin:miter;stroke-miterlimit:10;stroke-opacity:1;"/>
<path d="M 564.4,456.7 L 559.7,456.7 L 557.3,452.6" style="fill:none;stroke:#000000;stroke-width:2.0px;stroke-linecap:butt;stroke-linejoin:miter;stroke-miterlimit:10;stroke-opacity:1;"/>
<path d="M 514.9,379.1 L 512.5,375.0 L 514.9,370.9" style="fill:none;stroke:#000000;stroke-width:2.0px;stroke-linecap:butt;stroke-linejoin:miter;stroke-miterlimit:10;stroke-opacity:1;"/>
<path d="M 557.3,297.4 L 559.7,293.3 L 564.4,293.3" style="fill:none;stroke:#000000;stroke-width:2.0px;stroke-linecap:butt;stroke-linejoin:miter;stroke-miterlimit:10;stroke-opacity:1;"/>
<path d="M 649.3,293.3 L 654.1,293.3 L 656.0,296.5" style="fill:none;stroke:#000000;stroke-width:2.0px;stroke-linecap:butt;stroke-linejoin:miter;stroke-miterlimit:10;stroke-opacity:1;"/>
<path class="atom-0" d="M 695.3 361.6 L 704.1 375.8 Q 705.0 377.2, 706.4 379.7 Q 707.8 382.2, 707.8 382.4 L 707.8 361.6 L 711.4 361.6 L 711.4 388.4 L 707.7 388.4 L 698.3 372.9 Q 697.2 371.1, 696.1 369.0 Q 694.9 366.9, 694.6 366.3 L 694.6 388.4 L 691.1 388.4 L 691.1 361.6 L 695.3 361.6 " fill="#000000"/>
<path class="atom-0" d="M 716.6 361.6 L 720.2 361.6 L 720.2 373.0 L 733.9 373.0 L 733.9 361.6 L 737.5 361.6 L 737.5 388.4 L 733.9 388.4 L 733.9 376.0 L 720.2 376.0 L 720.2 388.4 L 716.6 388.4 L 716.6 361.6 " fill="#000000"/>
<path class="bond-0 atom-0 atom-1" d="M 157.5,666.1 L 139.8,657.4" style="fill:none;fill-rule:evenodd;stroke:#000000;stroke-width:2.0px;stroke-linecap:butt;stroke-linejoin:miter;stroke-opacity:1"/>
<path class="bond-0 atom-0 atom-1" d="M 159.0,663.0 L 144.4,655.9" style="fill:none;fill-rule:evenodd;stroke:#000000;stroke-width:2.0px;stroke-linecap:butt;stroke-linejoin:miter;stroke-opacity:1"/>
<path class="bond-1 atom-1 atom-2" d="M 139.8,657.4 L 147.9,640.8" style="fill:none;fill-rule:evenodd;stroke:#000000;stroke-width:2.0px;stroke-linecap:butt;stroke-linejoin:miter;stroke-opacity:1"/>
<path class="bond-2 atom-2 atom-3" d="M 153.1,638.4 L 170.5,646.9" style="fill:none;fill-rule:evenodd;stroke:#000000;stroke-width:2.0px;stroke-linecap:butt;stroke-linejoin:miter;stroke-opacity:1"/>
<path class="bond-2 atom-2 atom-3" d="M 151.6,641.5 L 165.9,648.5" style="fill:none;fill-rule:evenodd;stroke:#000000;stroke-width:2.0px;stroke-linecap:butt;stroke-linejoin:miter;stroke-opacity:1"/>
<path class="bond-3 atom-3 atom-4" d="M 170.5,646.9 L 188.9,640.6" style="fill:none;fill-rule:evenodd;stroke:#000000;stroke-width:2.0px;stroke-linecap:butt;stroke-linejoin:miter;stroke-opacity:1"/>
<path class="bond-4 atom-4 atom-5" d="M 192.9,635.5 L 196.6,616.9" style="fill:none;fill-rule:evenodd;stroke:#000000;stroke-width:2.0px;stroke-linecap:butt;stroke-linejoin:miter;stroke-opacity:1"/>
<path class="bond-5 atom-5 atom-6" d="M 196.6,616.9 L 218.3,609.5" style="fill:none;fill-rule:evenodd;stroke:#000000;stroke-width:2.0px;stroke-linecap:butt;stroke-linejoin:miter;stroke-opacity:1"/>
<path class="bond-5 atom-5 atom-6" d="M 197.3,613.0 L 215.3,606.9" style="fill:none;fill-rule:evenodd;stroke:#000000;stroke-width:2.0px;stroke-linecap:butt;stroke-linejoin:miter;stroke-opacity:1"/>
<path class="bond-6 atom-6 atom-7" d="M 218.3,609.5 L 232.9,622.2" style="fill:none;fill-rule:evenodd;stroke:#000000;stroke-width:2.0px;stroke-linecap:butt;stroke-linejoin:miter;stroke-opacity:1"/>
<path class="bond-7 atom-6 atom-8" d="M 218.3,609.5 L 222.7,587.0" style="fill:none;fill-rule:evenodd;stroke:#000000;stroke-width:2.0px;stroke-linecap:butt;stroke-linejoin:miter;stroke-opacity:1"/>
<path class="bond-8 atom-8 atom-9" d="M 222.7,587.0 L 205.4,571.9" style="fill:none;fill-rule:evenodd;stroke:#000000;stroke-width:2.0px;stroke-linecap:butt;stroke-linejoin:miter;stroke-opacity:1"/>
<path class="bond-8 atom-8 atom-9" d="M 218.9,588.3 L 204.6,575.8" style="fill:none;fill-rule:evenodd;stroke:#000000;stroke-width:2.0px;stroke-linecap:butt;stroke-linejoin:miter;stroke-opacity:1"/>
<path class="bond-9 atom-9 atom-10" d="M 205.4,571.9 L 183.7,579.4" style="fill:none;fill-rule:evenodd;stroke:#000000;stroke-width:2.0px;stroke-linecap:butt;stroke-linejoin:miter;stroke-opacity:1"/>
<path class="bond-10 atom-10 atom-11" d="M 183.7,579.4 L 179.3,601.9" style="fill:none;fill-rule:evenodd;stroke:#000000;stroke-width:2.0px;stroke-linecap:butt;stroke-linejoin:miter;stroke-opacity:1"/>
<path class="bond-10 atom-10 atom-11" d="M 186.7,582.0 L 183.0,600.6" style="fill:none;fill-rule:evenodd;stroke:#000000;stroke-width:2.0px;stroke-linecap:butt;stroke-linejoin:miter;stroke-opacity:1"/>
<path class="bond-11 atom-11 atom-12" d="M 179.3,601.9 L 161.3,608.0" style="fill:none;fill-rule:evenodd;stroke:#000000;stroke-width:2.0px;stroke-linecap:butt;stroke-linejoin:miter;stroke-opacity:1"/>
<path class="bond-12 atom-12 atom-13" d="M 153.8,606.1 L 140.3,594.2" style="fill:none;fill-rule:evenodd;stroke:#000000;stroke-width:2.0px;stroke-linecap:butt;stroke-linejoin:miter;stroke-opacity:1"/>
<path class="bond-13 atom-13 atom-14" d="M 140.3,594.2 L 118.6,601.7" style="fill:none;fill-rule:evenodd;stroke:#000000;stroke-width:2.0px;stroke-linecap:butt;stroke-linejoin:miter;stroke-opacity:1"/>
<path class="bond-14 atom-14 atom-15" d="M 117.1,600.4 L 113.2,619.8" style="fill:none;fill-rule:evenodd;stroke:#000000;stroke-width:2.0px;stroke-linecap:butt;stroke-linejoin:miter;stroke-opacity:1"/>
<path class="bond-14 atom-14 atom-15" d="M 120.4,601.0 L 116.6,620.5" style="fill:none;fill-rule:evenodd;stroke:#000000;stroke-width:2.0px;stroke-linecap:butt;stroke-linejoin:miter;stroke-opacity:1"/>
<path class="bond-15 atom-14 atom-16" d="M 118.6,601.7 L 104.5,589.4" style="fill:none;fill-rule:evenodd;stroke:#000000;stroke-width:2.0px;stroke-linecap:butt;stroke-linejoin:miter;stroke-opacity:1"/>
<path class="bond-16 atom-16 atom-17" d="M 98.0,587.7 L 79.5,594.1" style="fill:none;fill-rule:evenodd;stroke:#000000;stroke-width:2.0px;stroke-linecap:butt;stroke-linejoin:miter;stroke-opacity:1"/>
<path class="bond-17 atom-17 atom-18" d="M 79.5,594.1 L 62.2,579.0" style="fill:none;fill-rule:evenodd;stroke:#000000;stroke-width:2.0px;stroke-linecap:butt;stroke-linejoin:miter;stroke-opacity:1"/>
<path class="bond-17 atom-17 atom-18" d="M 75.8,595.4 L 61.5,582.9" style="fill:none;fill-rule:evenodd;stroke:#000000;stroke-width:2.0px;stroke-linecap:butt;stroke-linejoin:miter;stroke-opacity:1"/>
<path class="bond-18 atom-18 atom-19" d="M 62.2,579.0 L 40.5,586.4" style="fill:none;fill-rule:evenodd;stroke:#000000;stroke-width:2.0px;stroke-linecap:butt;stroke-linejoin:miter;stroke-opacity:1"/>
<path class="bond-19 atom-19 atom-20" d="M 40.5,586.4 L 36.1,609.0" style="fill:none;fill-rule:evenodd;stroke:#000000;stroke-width:2.0px;stroke-linecap:butt;stroke-linejoin:miter;stroke-opacity:1"/>
<path class="bond-19 atom-19 atom-20" d="M 43.5,589.1 L 39.9,607.7" style="fill:none;fill-rule:evenodd;stroke:#000000;stroke-width:2.0px;stroke-linecap:butt;stroke-linejoin:miter;stroke-opacity:1"/>
<path class="bond-20 atom-20 atom-21" d="M 36.1,609.0 L 17.1,615.5" style="fill:none;fill-rule:evenodd;stroke:#000000;stroke-width:2.0px;stroke-linecap:butt;stroke-linejoin:miter;stroke-opacity:1"/>
<path class="bond-21 atom-20 atom-22" d="M 36.1,609.0 L 53.4,624.0" style="fill:none;fill-rule:evenodd;stroke:#000000;stroke-width:2.0px;stroke-linecap:butt;stroke-linejoin:miter;stroke-opacity:1"/>
<path class="bond-22 atom-22 atom-23" d="M 53.4,624.0 L 75.1,616.6" style="fill:none;fill-rule:evenodd;stroke:#000000;stroke-width:2.0px;stroke-linecap:butt;stroke-linejoin:miter;stroke-opacity:1"/>
<path class="bond-22 atom-22 atom-23" d="M 54.2,620.1 L 72.1,614.0" style="fill:none;fill-rule:evenodd;stroke:#000000;stroke-width:2.0px;stroke-linecap:butt;stroke-linejoin:miter;stroke-opacity:1"/>
<path class="bond-23 atom-23 atom-24" d="M 75.1,616.6 L 89.6,629.2" style="fill:none;fill-rule:evenodd;stroke:#000000;stroke-width:2.0px;stroke-linecap:butt;stroke-linejoin:miter;stroke-opacity:1"/>
<path class="bond-24 atom-24 atom-25" d="M 91.7,635.7 L 88.8,650.2" style="fill:none;fill-rule:evenodd;stroke:#000000;stroke-width:2.0px;stroke-linecap:butt;stroke-linejoin:miter;stroke-opacity:1"/>
<path class="bond-25 atom-25 atom-26" d="M 91.3,657.0 L 102.7,666.9" style="fill:none;fill-rule:evenodd;stroke:#000000;stroke-width:2.0px;stroke-linecap:butt;stroke-linejoin:miter;stroke-opacity:1"/>
<path class="bond-26 atom-3 atom-0" d="M 170.5,646.9 L 162.3,663.5" style="fill:none;fill-rule:evenodd;stroke:#000000;stroke-width:2.0px;stroke-linecap:butt;stroke-linejoin:miter;stroke-opacity:1"/>
<path class="bond-27 atom-11 atom-5" d="M 179.3,601.9 L 196.6,616.9" style="fill:none;fill-rule:evenodd;stroke:#000000;stroke-width:2.0px;stroke-linecap:butt;stroke-linejoin:miter;stroke-opacity:1"/>
<path class="bond-28 atom-23 atom-17" d="M 75.1,616.6 L 79.5,594.1" style="fill:none;fill-rule:evenodd;stroke:#000000;stroke-width:2.0px;stroke-linecap:butt;stroke-linejoin:miter;stroke-opacity:1"/>
<path d="M 140.6,657.9 L 139.8,657.4 L 140.2,656.6" style="fill:none;stroke:#000000;stroke-width:2.0px;stroke-linecap:butt;stroke-linejoin:miter;stroke-miterlimit:10;stroke-opacity:1;"/>
<path d="M 222.4,588.1 L 222.7,587.0 L 221.8,586.2" style="fill:none;stroke:#000000;stroke-width:2.0px;stroke-linecap:butt;stroke-linejoin:miter;stroke-miterlimit:10;stroke-opacity:1;"/>
<path d="M 206.2,572.7 L 205.4,571.9 L 204.3,572.3" style="fill:none;stroke:#000000;stroke-width:2.0px;stroke-linecap:butt;stroke-linejoin:miter;stroke-miterlimit:10;stroke-opacity:1;"/>
<path d="M 184.7,579.0 L 183.7,579.4 L 183.4,580.5" style="fill:none;stroke:#000000;stroke-width:2.0px;stroke-linecap:butt;stroke-linejoin:miter;stroke-miterlimit:10;stroke-opacity:1;"/>
<path d="M 140.9,594.8 L 140.3,594.2 L 139.2,594.6" style="fill:none;stroke:#000000;stroke-width:2.0px;stroke-linecap:butt;stroke-linejoin:miter;stroke-miterlimit:10;stroke-opacity:1;"/>
<path d="M 119.6,601.3 L 118.6,601.7 L 117.8,601.1" style="fill:none;stroke:#000000;stroke-width:2.0px;stroke-linecap:butt;stroke-linejoin:miter;stroke-miterlimit:10;stroke-opacity:1;"/>
<path d="M 63.1,579.7 L 62.2,579.0 L 61.2,579.4" style="fill:none;stroke:#000000;stroke-width:2.0px;stroke-linecap:butt;stroke-linejoin:miter;stroke-miterlimit:10;stroke-opacity:1;"/>
<path d="M 41.6,586.1 L 40.5,586.4 L 40.3,587.6" style="fill:none;stroke:#000000;stroke-width:2.0px;stroke-linecap:butt;stroke-linejoin:miter;stroke-miterlimit:10;stroke-opacity:1;"/>
<path d="M 52.6,623.3 L 53.4,624.0 L 54.5,623.7" style="fill:none;stroke:#000000;stroke-width:2.0px;stroke-linecap:butt;stroke-linejoin:miter;stroke-miterlimit:10;stroke-opacity:1;"/>
<path class="atom-0" d="M 158.5 669.8 Q 158.6 669.8, 158.9 669.9 Q 159.2 670.0, 159.5 670.1 Q 159.9 670.2, 160.2 670.2 Q 160.8 670.2, 161.2 669.9 Q 161.5 669.6, 161.5 669.1 Q 161.5 668.7, 161.4 668.5 Q 161.2 668.3, 160.9 668.2 Q 160.6 668.0, 160.2 667.9 Q 159.6 667.7, 159.3 667.6 Q 158.9 667.4, 158.7 667.0 Q 158.4 666.7, 158.4 666.1 Q 158.4 665.3, 159.0 664.8 Q 159.5 664.3, 160.6 664.3 Q 161.4 664.3, 162.2 664.6 L 162.0 665.3 Q 161.3 665.0, 160.7 665.0 Q 160.0 665.0, 159.7 665.3 Q 159.3 665.6, 159.3 666.0 Q 159.3 666.4, 159.5 666.6 Q 159.7 666.8, 160.0 666.9 Q 160.2 667.0, 160.7 667.1 Q 161.3 667.3, 161.6 667.5 Q 162.0 667.7, 162.2 668.1 Q 162.5 668.4, 162.5 669.1 Q 162.5 670.0, 161.9 670.5 Q 161.3 670.9, 160.3 670.9 Q 159.7 670.9, 159.2 670.8 Q 158.8 670.7, 158.3 670.5 L 158.5 669.8 " fill="#000000"/>
<path class="atom-0" d="M 157.8 671.6 L 158.7 671.6 L 158.7 674.4 L 162.0 674.4 L 162.0 671.6 L 162.9 671.6 L 162.9 678.1 L 162.0 678.1 L 162.0 675.1 L 158.7 675.1 L 158.7 678.1 L 157.8 678.1 L 157.8 671.6 " fill="#000000"/>
<path class="atom-2" d="M 148.4 633.6 L 150.5 637.0 Q 150.7 637.4, 151.1 638.0 Q 151.4 638.6, 151.4 638.6 L 151.4 633.6 L 152.3 633.6 L 152.3 640.1 L 151.4 640.1 L 149.1 636.3 Q 148.9 635.9, 148.6 635.4 Q 148.3 634.9, 148.2 634.7 L 148.2 640.1 L 147.4 640.1 L 147.4 633.6 L 148.4 633.6 " fill="#000000"/>
<path class="atom-4" d="M 190.7 636.2 L 192.9 639.7 Q 193.1 640.0, 193.4 640.6 Q 193.7 641.2, 193.8 641.3 L 193.8 636.2 L 194.6 636.2 L 194.6 642.7 L 193.7 642.7 L 191.4 639.0 Q 191.2 638.5, 190.9 638.0 Q 190.6 637.5, 190.5 637.3 L 190.5 642.7 L 189.7 642.7 L 189.7 636.2 L 190.7 636.2 " fill="#000000"/>
<path class="atom-4" d="M 195.9 636.2 L 196.8 636.2 L 196.8 639.0 L 200.1 639.0 L 200.1 636.2 L 201.0 636.2 L 201.0 642.7 L 200.1 642.7 L 200.1 639.7 L 196.8 639.7 L 196.8 642.7 L 195.9 642.7 L 195.9 636.2 " fill="#000000"/>
<path class="atom-7" d="M 233.6 621.3 L 237.5 621.3 L 237.5 622.1 L 234.5 622.1 L 234.5 624.0 L 237.2 624.0 L 237.2 624.8 L 234.5 624.8 L 234.5 627.8 L 233.6 627.8 L 233.6 621.3 " fill="#000000"/>
<path class="atom-12" d="M 154.6 609.3 Q 154.6 607.8, 155.3 606.9 Q 156.1 606.0, 157.6 606.0 Q 159.0 606.0, 159.8 606.9 Q 160.5 607.8, 160.5 609.3 Q 160.5 610.9, 159.8 611.8 Q 159.0 612.7, 157.6 612.7 Q 156.1 612.7, 155.3 611.8 Q 154.6 610.9, 154.6 609.3 M 157.6 612.0 Q 158.5 612.0, 159.1 611.3 Q 159.6 610.6, 159.6 609.3 Q 159.6 608.1, 159.1 607.4 Q 158.5 606.8, 157.6 606.8 Q 156.6 606.8, 156.0 607.4 Q 155.5 608.1, 155.5 609.3 Q 155.5 610.7, 156.0 611.3 Q 156.6 612.0, 157.6 612.0 " fill="#000000"/>
<path class="atom-15" d="M 111.2 624.2 Q 111.2 622.7, 111.9 621.8 Q 112.7 620.9, 114.1 620.9 Q 115.6 620.9, 116.4 621.8 Q 117.1 622.7, 117.1 624.2 Q 117.1 625.8, 116.4 626.7 Q 115.6 627.6, 114.1 627.6 Q 112.7 627.6, 111.9 626.7 Q 111.2 625.8, 111.2 624.2 M 114.1 626.9 Q 115.1 626.9, 115.7 626.2 Q 116.2 625.5, 116.2 624.2 Q 116.2 623.0, 115.7 622.3 Q 115.1 621.7, 114.1 621.7 Q 113.2 621.7, 112.6 622.3 Q 112.1 622.9, 112.1 624.2 Q 112.1 625.5, 112.6 626.2 Q 113.2 626.9, 114.1 626.9 " fill="#000000"/>
<path class="atom-16" d="M 99.8 583.4 L 101.9 586.8 Q 102.2 587.2, 102.5 587.8 Q 102.8 588.4, 102.9 588.4 L 102.9 583.4 L 103.7 583.4 L 103.7 589.9 L 102.8 589.9 L 100.5 586.1 Q 100.3 585.7, 100.0 585.2 Q 99.7 584.7, 99.6 584.5 L 99.6 589.9 L 98.8 589.9 L 98.8 583.4 L 99.8 583.4 " fill="#000000"/>
<path class="atom-16" d="M 98.7 576.2 L 99.6 576.2 L 99.6 579.0 L 102.9 579.0 L 102.9 576.2 L 103.8 576.2 L 103.8 582.7 L 102.9 582.7 L 102.9 579.7 L 99.6 579.7 L 99.6 582.7 L 98.7 582.7 L 98.7 576.2 " fill="#000000"/>
<path class="atom-21" d="M 12.5 613.2 L 16.4 613.2 L 16.4 613.9 L 13.4 613.9 L 13.4 615.9 L 16.0 615.9 L 16.0 616.6 L 13.4 616.6 L 13.4 619.7 L 12.5 619.7 L 12.5 613.2 " fill="#000000"/>
<path class="atom-24" d="M 92.3 628.4 Q 93.4 628.4, 94.0 628.9 Q 94.5 629.4, 94.5 630.3 Q 94.5 631.2, 93.9 631.7 Q 93.4 632.2, 92.3 632.2 L 91.3 632.2 L 91.3 634.9 L 90.4 634.9 L 90.4 628.4 L 92.3 628.4 M 92.3 631.5 Q 92.9 631.5, 93.3 631.2 Q 93.6 630.9, 93.6 630.3 Q 93.6 629.7, 93.3 629.4 Q 92.9 629.1, 92.3 629.1 L 91.3 629.1 L 91.3 631.5 L 92.3 631.5 " fill="#000000"/>
<path class="atom-24" d="M 95.4 628.4 L 96.3 628.4 L 96.3 631.2 L 99.6 631.2 L 99.6 628.4 L 100.5 628.4 L 100.5 634.9 L 99.6 634.9 L 99.6 631.9 L 96.3 631.9 L 96.3 634.9 L 95.4 634.9 L 95.4 628.4 " fill="#000000"/>
<path class="atom-25" d="M 79.2 650.9 L 80.1 650.9 L 80.1 653.7 L 83.4 653.7 L 83.4 650.9 L 84.3 650.9 L 84.3 657.4 L 83.4 657.4 L 83.4 654.4 L 80.1 654.4 L 80.1 657.4 L 79.2 657.4 L 79.2 650.9 " fill="#000000"/>
<path class="atom-25" d="M 86.6 650.9 L 88.7 654.4 Q 88.9 654.7, 89.3 655.3 Q 89.6 655.9, 89.6 656.0 L 89.6 650.9 L 90.5 650.9 L 90.5 657.4 L 89.6 657.4 L 87.3 653.7 Q 87.1 653.2, 86.8 652.7 Q 86.5 652.2, 86.4 652.1 L 86.4 657.4 L 85.6 657.4 L 85.6 650.9 L 86.6 650.9 " fill="#000000"/>
<path class="atom-25" d="M 91.7 652.1 L 92.9 652.1 L 92.9 650.9 L 93.4 650.9 L 93.4 652.1 L 94.6 652.1 L 94.6 652.5 L 93.4 652.5 L 93.4 653.7 L 92.9 653.7 L 92.9 652.5 L 91.7 652.5 L 91.7 652.1 " fill="#000000"/>
<path class="atom-26" d="M 103.4 666.0 L 107.3 666.0 L 107.3 666.7 L 104.3 666.7 L 104.3 668.7 L 106.9 668.7 L 106.9 669.5 L 104.3 669.5 L 104.3 672.5 L 103.4 672.5 L 103.4 666.0 " fill="#000000"/>
<path class="atom-25" d="M 78.3,654.2 L 78.3,654.2 L 78.3,654.3 L 78.3,654.3 L 78.3,654.3 L 78.3,654.4 L 78.3,654.4 L 78.2,654.4 L 78.2,654.5 L 78.2,654.5 L 78.2,654.5 L 78.1,654.6 L 78.1,654.6 L 78.1,654.6 L 78.0,654.6 L 78.0,654.6 L 77.9,654.6 L 77.9,654.6 L 77.9,654.6 L 77.8,654.6 L 77.8,654.6 L 77.7,654.6 L 77.7,654.6 L 77.7,654.6 L 77.6,654.6 L 77.6,654.6 L 77.6,654.5 L 77.5,654.5 L 77.5,654.5 L 77.5,654.5 L 77.5,654.4 L 77.4,654.4 L 77.4,654.4 L 77.4,654.3 L 77.4,654.3 L 77.4,654.2 L 77.4,654.2 L 77.4,654.2 L 77.4,654.1 L 77.4,654.1 L 77.4,654.0 L 77.4,654.0 L 77.4,654.0 L 77.5,653.9 L 77.5,653.9 L 77.5,653.9 L 77.5,653.8 L 77.6,653.8 L 77.6,653.8 L 77.6,653.8 L 77.7,653.8 L 77.7,653.7 L 77.7,653.7 L 77.8,653.7 L 77.8,653.7 L 77.9,653.7 L 77.9,653.7 L 77.9,653.7 L 78.0,653.7 L 78.0,653.8 L 78.1,653.8 L 78.1,653.8 L 78.1,653.8 L 78.2,653.8 L 78.2,653.9 L 78.2,653.9 L 78.2,653.9 L 78.3,654.0 L 78.3,654.0 L 78.3,654.0 L 78.3,654.1 L 78.3,654.1 L 78.3,654.1 L 78.3,654.2 L 77.9,654.2 Z" style="fill:#000000;fill-rule:evenodd;fill-opacity:1;stroke:#000000;stroke-width:0.0px;stroke-linecap:butt;stroke-linejoin:miter;stroke-miterlimit:10;stroke-opacity:1;"/>
<path class="bond-0 atom-0 atom-1" d="M 425.2,684.1 L 363.1,719.7" style="fill:none;fill-rule:evenodd;stroke:#000000;stroke-width:2.0px;stroke-linecap:butt;stroke-linejoin:miter;stroke-opacity:1"/>
<path class="bond-1 atom-0 atom-2" d="M 425.2,684.1 L 487.3,648.4" style="fill:none;fill-rule:evenodd;stroke:#000000;stroke-width:2.0px;stroke-linecap:butt;stroke-linejoin:miter;stroke-opacity:1"/>
<path class="bond-2 atom-2 atom-3" d="M 487.3,648.4 L 487.5,576.8" style="fill:none;fill-rule:evenodd;stroke:#000000;stroke-width:2.0px;stroke-linecap:butt;stroke-linejoin:miter;stroke-opacity:1"/>
<path class="bond-3 atom-3 atom-4" d="M 487.5,576.8 L 425.6,540.8" style="fill:none;fill-rule:evenodd;stroke:#000000;stroke-width:2.0px;stroke-linecap:butt;stroke-linejoin:miter;stroke-opacity:1"/>
<path class="bond-4 atom-4 atom-5" d="M 425.6,540.8 L 363.5,576.5" style="fill:none;fill-rule:evenodd;stroke:#000000;stroke-width:2.0px;stroke-linecap:butt;stroke-linejoin:miter;stroke-opacity:1"/>
<path class="bond-5 atom-5 atom-6" d="M 363.5,576.5 L 311.2,552.4 L 316.6,543.1 Z" style="fill:#000000;fill-rule:evenodd;fill-opacity:1;stroke:#000000;stroke-width:0.5px;stroke-linecap:butt;stroke-linejoin:miter;stroke-miterlimit:10;stroke-opacity:1;"/>
<path class="bond-6 atom-5 atom-7" d="M 363.5,576.5 L 363.3,648.1" style="fill:none;fill-rule:evenodd;stroke:#000000;stroke-width:2.0px;stroke-linecap:butt;stroke-linejoin:miter;stroke-opacity:1"/>
<path class="bond-7 atom-7 atom-8" d="M 363.3,648.1 L 301.7,648.0" style="fill:none;fill-rule:evenodd;stroke:#000000;stroke-width:2.0px;stroke-linecap:butt;stroke-linejoin:miter;stroke-opacity:1"/>
<path class="bond-8 atom-7 atom-0" d="M 363.3,648.1 L 425.2,684.1" style="fill:none;fill-rule:evenodd;stroke:#000000;stroke-width:2.0px;stroke-linecap:butt;stroke-linejoin:miter;stroke-opacity:1"/>
<path class="bond-9 atom-7 atom-1" d="M 363.3,648.1 L 363.1,719.7" style="fill:none;fill-rule:evenodd;stroke:#000000;stroke-width:2.0px;stroke-linecap:butt;stroke-linejoin:miter;stroke-opacity:1"/>
<path d="M 366.2,717.9 L 363.1,719.7 L 363.1,716.1" style="fill:none;stroke:#000000;stroke-width:2.0px;stroke-linecap:butt;stroke-linejoin:miter;stroke-miterlimit:10;stroke-opacity:1;"/>
<path d="M 484.2,650.2 L 487.3,648.4 L 487.3,644.8" style="fill:none;stroke:#000000;stroke-width:2.0px;stroke-linecap:butt;stroke-linejoin:miter;stroke-miterlimit:10;stroke-opacity:1;"/>
<path d="M 487.5,580.4 L 487.5,576.8 L 484.4,575.0" style="fill:none;stroke:#000000;stroke-width:2.0px;stroke-linecap:butt;stroke-linejoin:miter;stroke-miterlimit:10;stroke-opacity:1;"/>
<path d="M 428.7,542.6 L 425.6,540.8 L 422.5,542.6" style="fill:none;stroke:#000000;stroke-width:2.0px;stroke-linecap:butt;stroke-linejoin:miter;stroke-miterlimit:10;stroke-opacity:1;"/>
<path d="M 366.6,574.7 L 363.5,576.5 L 363.4,580.1" style="fill:none;stroke:#000000;stroke-width:2.0px;stroke-linecap:butt;stroke-linejoin:miter;stroke-miterlimit:10;stroke-opacity:1;"/>
<path class="atom-6" d="M 262.5 530.4 L 265.3 530.4 L 265.3 539.0 L 275.6 539.0 L 275.6 530.4 L 278.4 530.4 L 278.4 550.7 L 275.6 550.7 L 275.6 541.3 L 265.3 541.3 L 265.3 550.7 L 262.5 550.7 L 262.5 530.4 " fill="#000000"/>
<path class="atom-6" d="M 288.7 553.8 Q 290.0 554.1, 290.6 555.0 Q 291.3 555.8, 291.3 557.1 Q 291.3 558.3, 290.7 559.2 Q 290.1 560.0, 289.1 560.5 Q 288.0 561.0, 286.7 561.0 Q 285.2 561.0, 284.2 560.5 Q 283.1 560.0, 282.3 559.0 L 283.3 557.9 Q 284.2 558.8, 284.9 559.1 Q 285.6 559.5, 286.7 559.5 Q 287.9 559.5, 288.6 558.8 Q 289.4 558.2, 289.4 557.1 Q 289.4 555.8, 288.6 555.2 Q 287.8 554.5, 286.2 554.5 L 285.2 554.5 L 285.2 553.2 L 286.1 553.2 Q 287.5 553.2, 288.3 552.5 Q 289.1 551.9, 289.1 550.7 Q 289.1 549.8, 288.4 549.3 Q 287.8 548.8, 286.7 548.8 Q 285.6 548.8, 284.9 549.2 Q 284.2 549.6, 283.7 550.6 L 282.4 549.9 Q 282.8 548.8, 284.0 548.0 Q 285.1 547.3, 286.7 547.3 Q 288.7 547.3, 289.8 548.2 Q 291.0 549.1, 291.0 550.7 Q 291.0 551.8, 290.4 552.5 Q 289.8 553.3, 288.7 553.8 " fill="#000000"/>
<path class="atom-6" d="M 297.0 530.4 L 303.7 541.1 Q 304.3 542.2, 305.4 544.1 Q 306.5 546.0, 306.5 546.1 L 306.5 530.4 L 309.2 530.4 L 309.2 550.7 L 306.4 550.7 L 299.3 538.9 Q 298.5 537.5, 297.6 536.0 Q 296.7 534.4, 296.5 533.9 L 296.5 550.7 L 293.8 550.7 L 293.8 530.4 L 297.0 530.4 " fill="#000000"/>
<path class="atom-6" d="M 313.1 534.0 L 316.6 534.0 L 316.6 530.3 L 318.2 530.3 L 318.2 534.0 L 321.9 534.0 L 321.9 535.4 L 318.2 535.4 L 318.2 539.2 L 316.6 539.2 L 316.6 535.4 L 313.1 535.4 L 313.1 534.0 " fill="#000000"/>
<path class="atom-8" d="M 264.3 637.8 L 267.0 637.8 L 267.0 646.4 L 277.4 646.4 L 277.4 637.8 L 280.1 637.8 L 280.1 658.1 L 277.4 658.1 L 277.4 648.7 L 267.0 648.7 L 267.0 658.1 L 264.3 658.1 L 264.3 637.8 " fill="#000000"/>
<path class="atom-8" d="M 287.2 637.8 L 293.8 648.5 Q 294.5 649.6, 295.5 651.5 Q 296.6 653.4, 296.7 653.5 L 296.7 637.8 L 299.4 637.8 L 299.4 658.1 L 296.6 658.1 L 289.4 646.3 Q 288.6 644.9, 287.7 643.4 Q 286.9 641.8, 286.6 641.3 L 286.6 658.1 L 284.0 658.1 L 284.0 637.8 L 287.2 637.8 " fill="#000000"/>
<path class="atom-8" d="M 303.1 641.1 L 310.1 641.1 L 310.1 642.7 L 303.1 642.7 L 303.1 641.1 " fill="#000000"/>
<path class="atom-0" d="M 435.2,684.1 L 435.2,684.2 L 435.2,684.3 L 435.2,684.4 L 435.2,684.5 L 435.1,684.7 L 435.1,684.8 L 435.0,684.9 L 434.9,685.0 L 434.8,685.1 L 434.7,685.1 L 434.6,685.2 L 434.5,685.3 L 434.4,685.4 L 434.3,685.4 L 434.2,685.4 L 434.1,685.5 L 434.0,685.5 L 433.8,685.5 L 433.7,685.5 L 433.6,685.5 L 433.5,685.5 L 433.4,685.4 L 433.2,685.4 L 433.1,685.3 L 433.0,685.3 L 432.9,685.2 L 432.8,685.1 L 432.7,685.0 L 432.7,684.9 L 432.6,684.8 L 432.5,684.7 L 432.5,684.6 L 432.4,684.5 L 432.4,684.4 L 432.4,684.2 L 432.4,684.1 L 432.4,684.0 L 432.4,683.9 L 432.4,683.8 L 432.4,683.6 L 432.5,683.5 L 432.5,683.4 L 432.6,683.3 L 432.7,683.2 L 432.7,683.1 L 432.8,683.0 L 432.9,682.9 L 433.0,682.9 L 433.1,682.8 L 433.2,682.7 L 433.4,682.7 L 433.5,682.7 L 433.6,682.6 L 433.7,682.6 L 433.8,682.6 L 434.0,682.6 L 434.1,682.7 L 434.2,682.7 L 434.3,682.7 L 434.4,682.8 L 434.5,682.8 L 434.6,682.9 L 434.7,683.0 L 434.8,683.1 L 434.9,683.2 L 435.0,683.3 L 435.1,683.4 L 435.1,683.5 L 435.2,683.6 L 435.2,683.7 L 435.2,683.8 L 435.2,683.9 L 435.2,684.1 L 433.8,684.1 Z" style="fill:#000000;fill-rule:evenodd;fill-opacity:1;stroke:#000000;stroke-width:0.0px;stroke-linecap:butt;stroke-linejoin:miter;stroke-miterlimit:10;stroke-opacity:1;"/>
<path class="bond-0 atom-0 atom-1" d="M 675.8,636.6 L 551.5,636.6" style="fill:none;fill-rule:evenodd;stroke:#000000;stroke-width:2.0px;stroke-linecap:butt;stroke-linejoin:miter;stroke-opacity:1"/>
<path class="bond-0 atom-0 atom-1" d="M 675.8,613.4 L 551.5,613.4" style="fill:none;fill-rule:evenodd;stroke:#000000;stroke-width:2.0px;stroke-linecap:butt;stroke-linejoin:miter;stroke-opacity:1"/>
<path class="atom-0" d="M 689.3 610.8 Q 694.1 610.8, 696.6 613.0 Q 699.0 615.2, 699.0 619.2 Q 699.0 623.1, 696.5 625.3 Q 694.0 627.5, 689.3 627.5 L 684.8 627.5 L 684.8 639.2 L 680.9 639.2 L 680.9 610.8 L 689.3 610.8 M 689.3 624.3 Q 692.0 624.3, 693.5 623.0 Q 695.0 621.7, 695.0 619.2 Q 695.0 616.6, 693.5 615.4 Q 692.1 614.0, 689.3 614.0 L 684.8 614.0 L 684.8 624.3 L 689.3 624.3 " fill="#000000"/>
<path class="atom-0" d="M 702.9 610.8 L 706.7 610.8 L 706.7 622.9 L 721.2 622.9 L 721.2 610.8 L 725.1 610.8 L 725.1 639.2 L 721.2 639.2 L 721.2 626.1 L 706.7 626.1 L 706.7 639.2 L 702.9 639.2 L 702.9 610.8 " fill="#000000"/>
<path class="atom-1" d="M 529.4 610.8 L 538.7 625.8 Q 539.6 627.3, 541.1 630.0 Q 542.6 632.7, 542.7 632.8 L 542.7 610.8 L 546.4 610.8 L 546.4 639.2 L 542.5 639.2 L 532.6 622.8 Q 531.4 620.8, 530.2 618.6 Q 529.0 616.4, 528.6 615.8 L 528.6 639.2 L 524.9 639.2 L 524.9 610.8 L 529.4 610.8 " fill="#000000"/>
<path class="atom-1" d="M 551.5 615.5 L 561.2 615.5 L 561.2 617.6 L 551.5 617.6 L 551.5 615.5 " fill="#000000"/>
</svg>