<svg xmlns="http://www.w3.org/2000/svg" xmlns:rdkit="http://www.rdkit.org/xml" xmlns:xlink="http://www.w3.org/1999/xlink" version="1.1" baseProfile="full" xml:space="preserve" width="750px" height="500px" viewBox="0 0 750 500">
<!-- END OF HEADER -->
<rect style="opacity:1.0;fill:#FFFFFF;stroke:none" width="250.0" height="250.0" x="0.0" y="0.0"> </rect>
<path class="bond-0 atom-0 atom-1" d="M 12.5,40.0 L 37.3,74.3" style="fill:none;fill-rule:evenodd;stroke:#000000;stroke-width:2.0px;stroke-linecap:butt;stroke-linejoin:miter;stroke-opacity:1"/>
<path class="bond-1 atom-1 atom-2" d="M 37.3,74.3 L 26.5,107.0" style="fill:none;fill-rule:evenodd;stroke:#000000;stroke-width:2.0px;stroke-linecap:butt;stroke-linejoin:miter;stroke-opacity:1"/>
<path class="bond-2 atom-2 atom-3" d="M 31.0,119.5 L 58.3,139.4" style="fill:none;fill-rule:evenodd;stroke:#000000;stroke-width:2.0px;stroke-linecap:butt;stroke-linejoin:miter;stroke-opacity:1"/>
<path class="bond-3 atom-3 atom-4" d="M 55.1,137.1 L 55.0,174.3" style="fill:none;fill-rule:evenodd;stroke:#000000;stroke-width:2.0px;stroke-linecap:butt;stroke-linejoin:miter;stroke-opacity:1"/>
<path class="bond-3 atom-3 atom-4" d="M 61.4,137.1 L 61.3,174.3" style="fill:none;fill-rule:evenodd;stroke:#000000;stroke-width:2.0px;stroke-linecap:butt;stroke-linejoin:miter;stroke-opacity:1"/>
<path class="bond-4 atom-3 atom-5" d="M 58.3,139.4 L 92.5,114.7" style="fill:none;fill-rule:evenodd;stroke:#000000;stroke-width:2.0px;stroke-linecap:butt;stroke-linejoin:miter;stroke-opacity:1"/>
<path class="bond-5 atom-5 atom-6" d="M 92.5,114.7 L 133.9,123.6" style="fill:none;fill-rule:evenodd;stroke:#000000;stroke-width:2.0px;stroke-linecap:butt;stroke-linejoin:miter;stroke-opacity:1"/>
<path class="bond-5 atom-5 atom-6" d="M 97.5,109.2 L 131.6,116.6" style="fill:none;fill-rule:evenodd;stroke:#000000;stroke-width:2.0px;stroke-linecap:butt;stroke-linejoin:miter;stroke-opacity:1"/>
<path class="bond-6 atom-6 atom-7" d="M 133.9,123.6 L 162.3,92.2" style="fill:none;fill-rule:evenodd;stroke:#000000;stroke-width:2.0px;stroke-linecap:butt;stroke-linejoin:miter;stroke-opacity:1"/>
<path class="bond-7 atom-7 atom-8" d="M 162.3,92.2 L 149.3,52.0" style="fill:none;fill-rule:evenodd;stroke:#000000;stroke-width:2.0px;stroke-linecap:butt;stroke-linejoin:miter;stroke-opacity:1"/>
<path class="bond-7 atom-7 atom-8" d="M 155.1,90.7 L 144.4,57.4" style="fill:none;fill-rule:evenodd;stroke:#000000;stroke-width:2.0px;stroke-linecap:butt;stroke-linejoin:miter;stroke-opacity:1"/>
<path class="bond-8 atom-8 atom-9" d="M 149.3,52.0 L 108.0,43.1" style="fill:none;fill-rule:evenodd;stroke:#000000;stroke-width:2.0px;stroke-linecap:butt;stroke-linejoin:miter;stroke-opacity:1"/>
<path class="bond-9 atom-9 atom-10" d="M 108.0,43.1 L 79.6,74.4" style="fill:none;fill-rule:evenodd;stroke:#000000;stroke-width:2.0px;stroke-linecap:butt;stroke-linejoin:miter;stroke-opacity:1"/>
<path class="bond-9 atom-9 atom-10" d="M 110.2,50.0 L 86.7,76.0" style="fill:none;fill-rule:evenodd;stroke:#000000;stroke-width:2.0px;stroke-linecap:butt;stroke-linejoin:miter;stroke-opacity:1"/>
<path class="bond-10 atom-7 atom-11" d="M 162.3,92.2 L 197.7,99.8" style="fill:none;fill-rule:evenodd;stroke:#000000;stroke-width:2.0px;stroke-linecap:butt;stroke-linejoin:miter;stroke-opacity:1"/>
<path class="bond-11 atom-11 atom-12" d="M 206.0,108.5 L 214.2,133.9" style="fill:none;fill-rule:evenodd;stroke:#000000;stroke-width:2.0px;stroke-linecap:butt;stroke-linejoin:miter;stroke-opacity:1"/>
<path class="bond-12 atom-11 atom-13" d="M 212.7,95.8 L 227.5,79.5" style="fill:none;fill-rule:evenodd;stroke:#000000;stroke-width:2.0px;stroke-linecap:butt;stroke-linejoin:miter;stroke-opacity:1"/>
<path class="bond-12 atom-11 atom-13" d="M 208.0,91.5 L 222.8,75.2" style="fill:none;fill-rule:evenodd;stroke:#000000;stroke-width:2.0px;stroke-linecap:butt;stroke-linejoin:miter;stroke-opacity:1"/>
<path class="bond-13 atom-10 atom-1" d="M 79.6,74.4 L 37.3,74.3" style="fill:none;fill-rule:evenodd;stroke:#000000;stroke-width:2.0px;stroke-linecap:butt;stroke-linejoin:miter;stroke-opacity:1"/>
<path class="bond-14 atom-10 atom-5" d="M 79.6,74.4 L 92.5,114.7" style="fill:none;fill-rule:evenodd;stroke:#000000;stroke-width:2.0px;stroke-linecap:butt;stroke-linejoin:miter;stroke-opacity:1"/>
<path d="M 56.9,138.4 L 58.3,139.4 L 60.0,138.2" style="fill:none;stroke:#000000;stroke-width:2.0px;stroke-linecap:butt;stroke-linejoin:miter;stroke-miterlimit:10;stroke-opacity:1;"/>
<path d="M 131.8,123.1 L 133.9,123.6 L 135.3,122.0" style="fill:none;stroke:#000000;stroke-width:2.0px;stroke-linecap:butt;stroke-linejoin:miter;stroke-miterlimit:10;stroke-opacity:1;"/>
<path d="M 150.0,54.0 L 149.3,52.0 L 147.2,51.5" style="fill:none;stroke:#000000;stroke-width:2.0px;stroke-linecap:butt;stroke-linejoin:miter;stroke-miterlimit:10;stroke-opacity:1;"/>
<path d="M 110.0,43.5 L 108.0,43.1 L 106.5,44.6" style="fill:none;stroke:#000000;stroke-width:2.0px;stroke-linecap:butt;stroke-linejoin:miter;stroke-miterlimit:10;stroke-opacity:1;"/>
<path class="atom-2" d="M 18.6 114.5 Q 18.6 111.7, 20.0 110.0 Q 21.4 108.4, 24.1 108.4 Q 26.8 108.4, 28.2 110.0 Q 29.6 111.7, 29.6 114.5 Q 29.6 117.4, 28.2 119.1 Q 26.7 120.7, 24.1 120.7 Q 21.5 120.7, 20.0 119.1 Q 18.6 117.5, 18.6 114.5 M 24.1 119.4 Q 25.9 119.4, 26.9 118.2 Q 27.9 116.9, 27.9 114.5 Q 27.9 112.2, 26.9 111.0 Q 25.9 109.8, 24.1 109.8 Q 22.3 109.8, 21.3 111.0 Q 20.3 112.2, 20.3 114.5 Q 20.3 116.9, 21.3 118.2 Q 22.3 119.4, 24.1 119.4 " fill="#000000"/>
<path class="atom-4" d="M 52.6 181.8 Q 52.6 178.9, 54.1 177.3 Q 55.5 175.7, 58.1 175.7 Q 60.8 175.7, 62.2 177.3 Q 63.6 178.9, 63.6 181.8 Q 63.6 184.7, 62.2 186.3 Q 60.8 188.0, 58.1 188.0 Q 55.5 188.0, 54.1 186.3 Q 52.6 184.7, 52.6 181.8 M 58.1 186.6 Q 60.0 186.6, 60.9 185.4 Q 61.9 184.2, 61.9 181.8 Q 61.9 179.4, 60.9 178.2 Q 60.0 177.0, 58.1 177.0 Q 56.3 177.0, 55.3 178.2 Q 54.3 179.4, 54.3 181.8 Q 54.3 184.2, 55.3 185.4 Q 56.3 186.6, 58.1 186.6 " fill="#000000"/>
<path class="atom-11" d="M 201.0 95.1 L 204.9 101.5 Q 205.3 102.1, 205.9 103.2 Q 206.5 104.4, 206.6 104.4 L 206.6 95.1 L 208.2 95.1 L 208.2 107.1 L 206.5 107.1 L 202.3 100.2 Q 201.8 99.4, 201.3 98.4 Q 200.8 97.5, 200.6 97.2 L 200.6 107.1 L 199.1 107.1 L 199.1 95.1 L 201.0 95.1 " fill="#000000"/>
<path class="atom-11" d="M 210.4 97.3 L 212.5 97.3 L 212.5 95.1 L 213.5 95.1 L 213.5 97.3 L 215.6 97.3 L 215.6 98.1 L 213.5 98.1 L 213.5 100.3 L 212.5 100.3 L 212.5 98.1 L 210.4 98.1 L 210.4 97.3 " fill="#000000"/>
<path class="atom-12" d="M 211.1 141.4 Q 211.1 138.5, 212.5 136.9 Q 213.9 135.3, 216.6 135.3 Q 219.2 135.3, 220.7 136.9 Q 222.1 138.5, 222.1 141.4 Q 222.1 144.3, 220.6 146.0 Q 219.2 147.6, 216.6 147.6 Q 213.9 147.6, 212.5 146.0 Q 211.1 144.3, 211.1 141.4 M 216.6 146.3 Q 218.4 146.3, 219.4 145.0 Q 220.4 143.8, 220.4 141.4 Q 220.4 139.1, 219.4 137.9 Q 218.4 136.7, 216.6 136.7 Q 214.8 136.7, 213.8 137.9 Q 212.8 139.0, 212.8 141.4 Q 212.8 143.8, 213.8 145.0 Q 214.8 146.3, 216.6 146.3 " fill="#000000"/>
<path class="atom-12" d="M 223.8 137.3 L 227.9 137.3 L 227.9 138.2 L 223.8 138.2 L 223.8 137.3 " fill="#000000"/>
<path class="atom-13" d="M 226.5 69.8 Q 226.5 66.9, 227.9 65.3 Q 229.3 63.7, 232.0 63.7 Q 234.7 63.7, 236.1 65.3 Q 237.5 66.9, 237.5 69.8 Q 237.5 72.7, 236.1 74.4 Q 234.6 76.0, 232.0 76.0 Q 229.4 76.0, 227.9 74.4 Q 226.5 72.7, 226.5 69.8 M 232.0 74.6 Q 233.8 74.6, 234.8 73.4 Q 235.8 72.2, 235.8 69.8 Q 235.8 67.4, 234.8 66.3 Q 233.8 65.1, 232.0 65.1 Q 230.2 65.1, 229.2 66.2 Q 228.2 67.4, 228.2 69.8 Q 228.2 72.2, 229.2 73.4 Q 230.2 74.6, 232.0 74.6 " fill="#000000"/>
<path class="legend" d="M 111.3 227.3 L 107.8 227.3 L 107.8 226.0 L 116.1 226.0 L 116.1 227.3 L 112.8 227.3 L 112.8 237.3 L 111.3 237.3 L 111.3 227.3 " fill="#000000"/>
<path class="legend" d="M 117.9 229.1 L 118.1 230.2 Q 119.0 228.9, 120.4 228.9 Q 120.8 228.9, 121.4 229.1 L 121.2 230.4 Q 120.5 230.3, 120.1 230.3 Q 119.4 230.3, 119.0 230.6 Q 118.6 230.8, 118.2 231.4 L 118.2 237.3 L 116.7 237.3 L 116.7 229.1 L 117.9 229.1 " fill="#000000"/>
<path class="legend" d="M 122.2 235.1 Q 122.2 233.8, 123.3 233.1 Q 124.3 232.3, 126.3 232.3 L 127.5 232.3 L 127.5 232.0 Q 127.5 231.0, 127.1 230.6 Q 126.7 230.1, 125.6 230.1 Q 125.0 230.1, 124.5 230.3 Q 123.9 230.4, 123.1 230.7 L 122.7 229.7 Q 124.2 228.9, 125.7 228.9 Q 127.4 228.9, 128.2 229.7 Q 129.0 230.4, 129.0 232.0 L 129.0 237.3 L 127.8 237.3 Q 127.8 237.2, 127.8 237.0 Q 127.7 236.7, 127.6 236.3 Q 126.5 237.5, 124.9 237.5 Q 123.7 237.5, 123.0 236.8 Q 122.2 236.2, 122.2 235.1 M 123.7 235.1 Q 123.7 235.7, 124.1 236.0 Q 124.5 236.3, 125.2 236.3 Q 125.9 236.3, 126.5 236.0 Q 127.1 235.7, 127.5 235.2 L 127.5 233.5 L 126.4 233.5 Q 125.1 233.5, 124.4 233.9 Q 123.7 234.3, 123.7 235.1 " fill="#000000"/>
<path class="legend" d="M 130.8 226.0 L 132.3 226.0 L 132.3 227.4 L 130.8 227.4 L 130.8 226.0 M 130.8 229.1 L 132.3 229.1 L 132.3 237.3 L 130.8 237.3 L 130.8 229.1 " fill="#000000"/>
<path class="legend" d="M 138.5 228.9 Q 139.8 228.9, 140.5 229.7 Q 141.2 230.4, 141.2 231.9 L 141.2 237.3 L 139.7 237.3 L 139.7 232.0 Q 139.7 231.0, 139.3 230.6 Q 139.0 230.1, 138.1 230.1 Q 137.4 230.1, 136.7 230.5 Q 136.1 230.8, 135.7 231.4 L 135.7 237.3 L 134.2 237.3 L 134.2 229.1 L 135.4 229.1 L 135.6 230.2 Q 136.7 228.9, 138.5 228.9 " fill="#000000"/>
<path class="bond-0 atom-0 atom-1" d="M 487.5,109.9 L 474.1,119.2" style="fill:none;fill-rule:evenodd;stroke:#000000;stroke-width:2.0px;stroke-linecap:butt;stroke-linejoin:miter;stroke-opacity:1"/>
<path class="bond-1 atom-1 atom-2" d="M 474.1,119.2 L 459.4,112.3" style="fill:none;fill-rule:evenodd;stroke:#000000;stroke-width:2.0px;stroke-linecap:butt;stroke-linejoin:miter;stroke-opacity:1"/>
<path class="bond-2 atom-2 atom-3" d="M 459.4,112.3 L 446.0,121.6" style="fill:none;fill-rule:evenodd;stroke:#000000;stroke-width:2.0px;stroke-linecap:butt;stroke-linejoin:miter;stroke-opacity:1"/>
<path class="bond-3 atom-3 atom-4" d="M 446.0,121.6 L 431.2,114.7" style="fill:none;fill-rule:evenodd;stroke:#000000;stroke-width:2.0px;stroke-linecap:butt;stroke-linejoin:miter;stroke-opacity:1"/>
<path class="bond-4 atom-4 atom-5" d="M 431.2,114.7 L 417.9,124.0" style="fill:none;fill-rule:evenodd;stroke:#000000;stroke-width:2.0px;stroke-linecap:butt;stroke-linejoin:miter;stroke-opacity:1"/>
<path class="bond-5 atom-5 atom-6" d="M 417.9,124.0 L 403.1,117.1" style="fill:none;fill-rule:evenodd;stroke:#000000;stroke-width:2.0px;stroke-linecap:butt;stroke-linejoin:miter;stroke-opacity:1"/>
<path class="bond-6 atom-6 atom-7" d="M 403.1,117.1 L 389.8,126.4" style="fill:none;fill-rule:evenodd;stroke:#000000;stroke-width:2.0px;stroke-linecap:butt;stroke-linejoin:miter;stroke-opacity:1"/>
<path class="bond-7 atom-7 atom-8" d="M 389.8,126.4 L 375.0,119.5" style="fill:none;fill-rule:evenodd;stroke:#000000;stroke-width:2.0px;stroke-linecap:butt;stroke-linejoin:miter;stroke-opacity:1"/>
<path class="bond-8 atom-8 atom-9" d="M 375.0,119.5 L 361.6,128.9" style="fill:none;fill-rule:evenodd;stroke:#000000;stroke-width:2.0px;stroke-linecap:butt;stroke-linejoin:miter;stroke-opacity:1"/>
<path class="bond-9 atom-9 atom-10" d="M 361.6,128.9 L 346.9,122.0" style="fill:none;fill-rule:evenodd;stroke:#000000;stroke-width:2.0px;stroke-linecap:butt;stroke-linejoin:miter;stroke-opacity:1"/>
<path class="bond-10 atom-10 atom-11" d="M 346.9,122.0 L 333.5,131.3" style="fill:none;fill-rule:evenodd;stroke:#000000;stroke-width:2.0px;stroke-linecap:butt;stroke-linejoin:miter;stroke-opacity:1"/>
<path class="bond-11 atom-11 atom-12" d="M 332.2,130.7 L 333.4,144.8" style="fill:none;fill-rule:evenodd;stroke:#000000;stroke-width:2.0px;stroke-linecap:butt;stroke-linejoin:miter;stroke-opacity:1"/>
<path class="bond-11 atom-11 atom-12" d="M 334.7,130.5 L 335.9,144.5" style="fill:none;fill-rule:evenodd;stroke:#000000;stroke-width:2.0px;stroke-linecap:butt;stroke-linejoin:miter;stroke-opacity:1"/>
<path class="bond-12 atom-11 atom-13" d="M 333.5,131.3 L 321.0,125.4" style="fill:none;fill-rule:evenodd;stroke:#000000;stroke-width:2.0px;stroke-linecap:butt;stroke-linejoin:miter;stroke-opacity:1"/>
<path class="bond-13 atom-13 atom-14" d="M 316.5,126.0 L 305.4,133.7" style="fill:none;fill-rule:evenodd;stroke:#000000;stroke-width:2.0px;stroke-linecap:butt;stroke-linejoin:miter;stroke-opacity:1"/>
<path class="bond-14 atom-14 atom-15" d="M 305.4,133.7 L 290.6,126.8" style="fill:none;fill-rule:evenodd;stroke:#000000;stroke-width:2.0px;stroke-linecap:butt;stroke-linejoin:miter;stroke-opacity:1"/>
<path class="bond-15 atom-15 atom-16" d="M 290.6,126.8 L 277.3,136.1" style="fill:none;fill-rule:evenodd;stroke:#000000;stroke-width:2.0px;stroke-linecap:butt;stroke-linejoin:miter;stroke-opacity:1"/>
<path class="bond-16 atom-16 atom-17" d="M 277.3,136.1 L 262.5,129.2" style="fill:none;fill-rule:evenodd;stroke:#000000;stroke-width:2.0px;stroke-linecap:butt;stroke-linejoin:miter;stroke-opacity:1"/>
<path class="bond-17 atom-13 atom-18" d="M 318.5,121.5 L 317.4,108.1" style="fill:none;fill-rule:evenodd;stroke:#000000;stroke-width:2.0px;stroke-linecap:butt;stroke-linejoin:miter;stroke-opacity:1"/>
<path class="bond-18 atom-18 atom-19" d="M 317.4,108.1 L 302.6,101.2" style="fill:none;fill-rule:evenodd;stroke:#000000;stroke-width:2.0px;stroke-linecap:butt;stroke-linejoin:miter;stroke-opacity:1"/>
<path class="bond-19 atom-19 atom-20" d="M 302.6,101.2 L 301.2,85.0" style="fill:none;fill-rule:evenodd;stroke:#000000;stroke-width:2.0px;stroke-linecap:butt;stroke-linejoin:miter;stroke-opacity:1"/>
<path class="bond-20 atom-20 atom-21" d="M 301.2,85.0 L 286.4,78.1" style="fill:none;fill-rule:evenodd;stroke:#000000;stroke-width:2.0px;stroke-linecap:butt;stroke-linejoin:miter;stroke-opacity:1"/>
<path d="M 474.8,118.7 L 474.1,119.2 L 473.4,118.8" style="fill:none;stroke:#000000;stroke-width:2.0px;stroke-linecap:butt;stroke-linejoin:miter;stroke-miterlimit:10;stroke-opacity:1;"/>
<path d="M 460.1,112.6 L 459.4,112.3 L 458.7,112.7" style="fill:none;stroke:#000000;stroke-width:2.0px;stroke-linecap:butt;stroke-linejoin:miter;stroke-miterlimit:10;stroke-opacity:1;"/>
<path d="M 446.7,121.1 L 446.0,121.6 L 445.3,121.3" style="fill:none;stroke:#000000;stroke-width:2.0px;stroke-linecap:butt;stroke-linejoin:miter;stroke-miterlimit:10;stroke-opacity:1;"/>
<path d="M 432.0,115.0 L 431.2,114.7 L 430.6,115.2" style="fill:none;stroke:#000000;stroke-width:2.0px;stroke-linecap:butt;stroke-linejoin:miter;stroke-miterlimit:10;stroke-opacity:1;"/>
<path d="M 418.6,123.6 L 417.9,124.0 L 417.1,123.7" style="fill:none;stroke:#000000;stroke-width:2.0px;stroke-linecap:butt;stroke-linejoin:miter;stroke-miterlimit:10;stroke-opacity:1;"/>
<path d="M 403.9,117.5 L 403.1,117.1 L 402.5,117.6" style="fill:none;stroke:#000000;stroke-width:2.0px;stroke-linecap:butt;stroke-linejoin:miter;stroke-miterlimit:10;stroke-opacity:1;"/>
<path d="M 390.4,126.0 L 389.8,126.4 L 389.0,126.1" style="fill:none;stroke:#000000;stroke-width:2.0px;stroke-linecap:butt;stroke-linejoin:miter;stroke-miterlimit:10;stroke-opacity:1;"/>
<path d="M 375.7,119.9 L 375.0,119.5 L 374.3,120.0" style="fill:none;stroke:#000000;stroke-width:2.0px;stroke-linecap:butt;stroke-linejoin:miter;stroke-miterlimit:10;stroke-opacity:1;"/>
<path d="M 362.3,128.4 L 361.6,128.9 L 360.9,128.5" style="fill:none;stroke:#000000;stroke-width:2.0px;stroke-linecap:butt;stroke-linejoin:miter;stroke-miterlimit:10;stroke-opacity:1;"/>
<path d="M 347.6,122.3 L 346.9,122.0 L 346.2,122.4" style="fill:none;stroke:#000000;stroke-width:2.0px;stroke-linecap:butt;stroke-linejoin:miter;stroke-miterlimit:10;stroke-opacity:1;"/>
<path d="M 334.2,130.8 L 333.5,131.3 L 332.9,131.0" style="fill:none;stroke:#000000;stroke-width:2.0px;stroke-linecap:butt;stroke-linejoin:miter;stroke-miterlimit:10;stroke-opacity:1;"/>
<path d="M 305.9,133.3 L 305.4,133.7 L 304.6,133.4" style="fill:none;stroke:#000000;stroke-width:2.0px;stroke-linecap:butt;stroke-linejoin:miter;stroke-miterlimit:10;stroke-opacity:1;"/>
<path d="M 291.4,127.1 L 290.6,126.8 L 290.0,127.3" style="fill:none;stroke:#000000;stroke-width:2.0px;stroke-linecap:butt;stroke-linejoin:miter;stroke-miterlimit:10;stroke-opacity:1;"/>
<path d="M 277.9,135.7 L 277.3,136.1 L 276.5,135.8" style="fill:none;stroke:#000000;stroke-width:2.0px;stroke-linecap:butt;stroke-linejoin:miter;stroke-miterlimit:10;stroke-opacity:1;"/>
<path d="M 317.4,108.8 L 317.4,108.1 L 316.6,107.8" style="fill:none;stroke:#000000;stroke-width:2.0px;stroke-linecap:butt;stroke-linejoin:miter;stroke-miterlimit:10;stroke-opacity:1;"/>
<path d="M 303.3,101.6 L 302.6,101.2 L 302.5,100.4" style="fill:none;stroke:#000000;stroke-width:2.0px;stroke-linecap:butt;stroke-linejoin:miter;stroke-miterlimit:10;stroke-opacity:1;"/>
<path d="M 301.3,85.8 L 301.2,85.0 L 300.5,84.6" style="fill:none;stroke:#000000;stroke-width:2.0px;stroke-linecap:butt;stroke-linejoin:miter;stroke-miterlimit:10;stroke-opacity:1;"/>
<path class="atom-12" d="M 332.8 147.5 Q 332.8 146.4, 333.3 145.8 Q 333.9 145.2, 334.9 145.2 Q 335.9 145.2, 336.5 145.8 Q 337.0 146.4, 337.0 147.5 Q 337.0 148.7, 336.5 149.3 Q 335.9 149.9, 334.9 149.9 Q 333.9 149.9, 333.3 149.3 Q 332.8 148.7, 332.8 147.5 M 334.9 149.4 Q 335.6 149.4, 336.0 148.9 Q 336.4 148.5, 336.4 147.5 Q 336.4 146.6, 336.0 146.2 Q 335.6 145.7, 334.9 145.7 Q 334.2 145.7, 333.8 146.2 Q 333.4 146.6, 333.4 147.5 Q 333.4 148.5, 333.8 148.9 Q 334.2 149.4, 334.9 149.4 " fill="#000000"/>
<path class="atom-13" d="M 317.7 122.1 L 319.2 124.5 Q 319.4 124.7, 319.6 125.2 Q 319.9 125.6, 319.9 125.6 L 319.9 122.1 L 320.5 122.1 L 320.5 126.7 L 319.9 126.7 L 318.2 124.0 Q 318.1 123.7, 317.9 123.3 Q 317.7 123.0, 317.6 122.9 L 317.6 126.7 L 317.0 126.7 L 317.0 122.1 L 317.7 122.1 " fill="#000000"/>
<path class="legend" d="M 361.3 227.3 L 357.8 227.3 L 357.8 226.0 L 366.1 226.0 L 366.1 227.3 L 362.8 227.3 L 362.8 237.3 L 361.3 237.3 L 361.3 227.3 " fill="#000000"/>
<path class="legend" d="M 367.9 229.1 L 368.1 230.2 Q 369.0 228.9, 370.4 228.9 Q 370.8 228.9, 371.4 229.1 L 371.2 230.4 Q 370.5 230.3, 370.1 230.3 Q 369.4 230.3, 369.0 230.6 Q 368.6 230.8, 368.2 231.4 L 368.2 237.3 L 366.7 237.3 L 366.7 229.1 L 367.9 229.1 " fill="#000000"/>
<path class="legend" d="M 372.2 235.1 Q 372.2 233.8, 373.3 233.1 Q 374.3 232.3, 376.3 232.3 L 377.5 232.3 L 377.5 232.0 Q 377.5 231.0, 377.1 230.6 Q 376.7 230.1, 375.6 230.1 Q 375.0 230.1, 374.5 230.3 Q 373.9 230.4, 373.1 230.7 L 372.7 229.7 Q 374.2 228.9, 375.7 228.9 Q 377.4 228.9, 378.2 229.7 Q 379.0 230.4, 379.0 232.0 L 379.0 237.3 L 377.8 237.3 Q 377.8 237.2, 377.8 237.0 Q 377.7 236.7, 377.6 236.3 Q 376.5 237.5, 374.9 237.5 Q 373.7 237.5, 373.0 236.8 Q 372.2 236.2, 372.2 235.1 M 373.7 235.1 Q 373.7 235.7, 374.1 236.0 Q 374.5 236.3, 375.2 236.3 Q 375.9 236.3, 376.5 236.0 Q 377.1 235.7, 377.5 235.2 L 377.5 233.5 L 376.4 233.5 Q 375.1 233.5, 374.4 233.9 Q 373.7 234.3, 373.7 235.1 " fill="#000000"/>
<path class="legend" d="M 380.8 226.0 L 382.3 226.0 L 382.3 227.4 L 380.8 227.4 L 380.8 226.0 M 380.8 229.1 L 382.3 229.1 L 382.3 237.3 L 380.8 237.3 L 380.8 229.1 " fill="#000000"/>
<path class="legend" d="M 388.5 228.9 Q 389.8 228.9, 390.5 229.7 Q 391.2 230.4, 391.2 231.9 L 391.2 237.3 L 389.7 237.3 L 389.7 232.0 Q 389.7 231.0, 389.3 230.6 Q 389.0 230.1, 388.1 230.1 Q 387.4 230.1, 386.7 230.5 Q 386.1 230.8, 385.7 231.4 L 385.7 237.3 L 384.2 237.3 L 384.2 229.1 L 385.4 229.1 L 385.6 230.2 Q 386.7 228.9, 388.5 228.9 " fill="#000000"/>
<path class="bond-0 atom-0 atom-1" d="M 659.2,54.3 L 637.3,88.3" style="fill:none;fill-rule:evenodd;stroke:#000000;stroke-width:2.0px;stroke-linecap:butt;stroke-linejoin:miter;stroke-opacity:1"/>
<path class="bond-1 atom-1 atom-2" d="M 637.3,88.3 L 602.6,86.7" style="fill:none;fill-rule:evenodd;stroke:#000000;stroke-width:2.0px;stroke-linecap:butt;stroke-linejoin:miter;stroke-opacity:1"/>
<path class="bond-2 atom-2 atom-3" d="M 592.3,93.4 L 575.0,120.4" style="fill:none;fill-rule:evenodd;stroke:#000000;stroke-width:2.0px;stroke-linecap:butt;stroke-linejoin:miter;stroke-opacity:1"/>
<path class="bond-3 atom-3 atom-4" d="M 575.0,120.4 L 540.3,118.7" style="fill:none;fill-rule:evenodd;stroke:#000000;stroke-width:2.0px;stroke-linecap:butt;stroke-linejoin:miter;stroke-opacity:1"/>
<path class="bond-4 atom-3 atom-5" d="M 571.5,120.2 L 587.1,150.6" style="fill:none;fill-rule:evenodd;stroke:#000000;stroke-width:2.0px;stroke-linecap:butt;stroke-linejoin:miter;stroke-opacity:1"/>
<path class="bond-4 atom-3 atom-5" d="M 576.9,117.4 L 592.5,147.8" style="fill:none;fill-rule:evenodd;stroke:#000000;stroke-width:2.0px;stroke-linecap:butt;stroke-linejoin:miter;stroke-opacity:1"/>
<path class="bond-5 atom-1 atom-6" d="M 637.3,88.3 L 652.2,117.2" style="fill:none;fill-rule:evenodd;stroke:#000000;stroke-width:2.0px;stroke-linecap:butt;stroke-linejoin:miter;stroke-opacity:1"/>
<path class="bond-6 atom-6 atom-7" d="M 661.5,124.6 L 696.2,126.3" style="fill:none;fill-rule:evenodd;stroke:#000000;stroke-width:2.0px;stroke-linecap:butt;stroke-linejoin:miter;stroke-opacity:1"/>
<path class="bond-7 atom-7 atom-8" d="M 696.2,126.3 L 711.1,155.2" style="fill:none;fill-rule:evenodd;stroke:#000000;stroke-width:2.0px;stroke-linecap:butt;stroke-linejoin:miter;stroke-opacity:1"/>
<path class="bond-8 atom-7 atom-9" d="M 697.8,129.4 L 715.9,101.2" style="fill:none;fill-rule:evenodd;stroke:#000000;stroke-width:2.0px;stroke-linecap:butt;stroke-linejoin:miter;stroke-opacity:1"/>
<path class="bond-8 atom-7 atom-9" d="M 692.7,126.1 L 710.8,97.9" style="fill:none;fill-rule:evenodd;stroke:#000000;stroke-width:2.0px;stroke-linecap:butt;stroke-linejoin:miter;stroke-opacity:1"/>
<path d="M 575.9,119.0 L 575.0,120.4 L 573.3,120.3" style="fill:none;stroke:#000000;stroke-width:2.0px;stroke-linecap:butt;stroke-linejoin:miter;stroke-miterlimit:10;stroke-opacity:1;"/>
<path d="M 694.5,126.2 L 696.2,126.3 L 696.9,127.7" style="fill:none;stroke:#000000;stroke-width:2.0px;stroke-linecap:butt;stroke-linejoin:miter;stroke-miterlimit:10;stroke-opacity:1;"/>
<path class="atom-2" d="M 581.3 80.6 L 582.9 80.6 L 582.9 85.5 L 588.7 85.5 L 588.7 80.6 L 590.3 80.6 L 590.3 92.1 L 588.7 92.1 L 588.7 86.8 L 582.9 86.8 L 582.9 92.1 L 581.3 92.1 L 581.3 80.6 " fill="#000000"/>
<path class="atom-2" d="M 594.4 80.6 L 598.1 86.7 Q 598.5 87.3, 599.1 88.4 Q 599.7 89.5, 599.7 89.5 L 599.7 80.6 L 601.2 80.6 L 601.2 92.1 L 599.7 92.1 L 595.6 85.5 Q 595.2 84.7, 594.7 83.8 Q 594.2 82.9, 594.0 82.6 L 594.0 92.1 L 592.6 92.1 L 592.6 80.6 L 594.4 80.6 " fill="#000000"/>
<path class="atom-4" d="M 512.5 112.7 L 514.1 112.7 L 514.1 117.6 L 519.9 117.6 L 519.9 112.7 L 521.5 112.7 L 521.5 124.1 L 519.9 124.1 L 519.9 118.9 L 514.1 118.9 L 514.1 124.1 L 512.5 124.1 L 512.5 112.7 " fill="#000000"/>
<path class="atom-4" d="M 523.7 123.7 Q 524.0 123.0, 524.6 122.6 Q 525.3 122.2, 526.2 122.2 Q 527.4 122.2, 528.0 122.9 Q 528.6 123.5, 528.6 124.6 Q 528.6 125.7, 527.8 126.7 Q 527.0 127.8, 525.3 129.0 L 528.8 129.0 L 528.8 129.9 L 523.7 129.9 L 523.7 129.2 Q 525.1 128.2, 525.9 127.4 Q 526.8 126.7, 527.2 126.0 Q 527.6 125.3, 527.6 124.6 Q 527.6 123.9, 527.2 123.5 Q 526.9 123.1, 526.2 123.1 Q 525.6 123.1, 525.2 123.3 Q 524.8 123.6, 524.5 124.1 L 523.7 123.7 " fill="#000000"/>
<path class="atom-4" d="M 532.1 112.7 L 535.8 118.8 Q 536.2 119.4, 536.8 120.4 Q 537.4 121.5, 537.4 121.6 L 537.4 112.7 L 538.9 112.7 L 538.9 124.1 L 537.4 124.1 L 533.4 117.5 Q 532.9 116.7, 532.4 115.8 Q 531.9 115.0, 531.8 114.7 L 531.8 124.1 L 530.3 124.1 L 530.3 112.7 L 532.1 112.7 " fill="#000000"/>
<path class="atom-5" d="M 588.2 156.4 Q 588.2 153.6, 589.6 152.1 Q 591.0 150.6, 593.5 150.6 Q 596.0 150.6, 597.4 152.1 Q 598.8 153.6, 598.8 156.4 Q 598.8 159.2, 597.4 160.7 Q 596.0 162.3, 593.5 162.3 Q 591.0 162.3, 589.6 160.7 Q 588.2 159.2, 588.2 156.4 M 593.5 161.0 Q 595.3 161.0, 596.2 159.9 Q 597.1 158.7, 597.1 156.4 Q 597.1 154.1, 596.2 153.0 Q 595.3 151.8, 593.5 151.8 Q 591.8 151.8, 590.8 153.0 Q 589.9 154.1, 589.9 156.4 Q 589.9 158.7, 590.8 159.9 Q 591.8 161.0, 593.5 161.0 " fill="#000000"/>
<path class="atom-6" d="M 640.2 118.6 L 641.8 118.6 L 641.8 123.4 L 647.6 123.4 L 647.6 118.6 L 649.2 118.6 L 649.2 130.0 L 647.6 130.0 L 647.6 124.7 L 641.8 124.7 L 641.8 130.0 L 640.2 130.0 L 640.2 118.6 " fill="#000000"/>
<path class="atom-6" d="M 653.3 118.6 L 657.0 124.6 Q 657.4 125.2, 658.0 126.3 Q 658.6 127.4, 658.6 127.5 L 658.6 118.6 L 660.1 118.6 L 660.1 130.0 L 658.6 130.0 L 654.5 123.4 Q 654.1 122.6, 653.6 121.7 Q 653.1 120.8, 652.9 120.6 L 652.9 130.0 L 651.5 130.0 L 651.5 118.6 L 653.3 118.6 " fill="#000000"/>
<path class="atom-8" d="M 712.2 156.5 L 715.9 162.6 Q 716.3 163.2, 716.9 164.2 Q 717.5 165.3, 717.5 165.4 L 717.5 156.5 L 719.0 156.5 L 719.0 167.9 L 717.5 167.9 L 713.4 161.3 Q 713.0 160.5, 712.5 159.6 Q 712.0 158.8, 711.8 158.5 L 711.8 167.9 L 710.3 167.9 L 710.3 156.5 L 712.2 156.5 " fill="#000000"/>
<path class="atom-8" d="M 721.2 156.5 L 722.8 156.5 L 722.8 161.4 L 728.6 161.4 L 728.6 156.5 L 730.2 156.5 L 730.2 167.9 L 728.6 167.9 L 728.6 162.7 L 722.8 162.7 L 722.8 167.9 L 721.2 167.9 L 721.2 156.5 " fill="#000000"/>
<path class="atom-8" d="M 732.4 167.5 Q 732.7 166.8, 733.4 166.4 Q 734.0 166.0, 734.9 166.0 Q 736.1 166.0, 736.7 166.6 Q 737.4 167.3, 737.4 168.4 Q 737.4 169.5, 736.5 170.5 Q 735.7 171.6, 734.0 172.8 L 737.5 172.8 L 737.5 173.7 L 732.4 173.7 L 732.4 173.0 Q 733.8 172.0, 734.6 171.2 Q 735.5 170.5, 735.9 169.8 Q 736.3 169.1, 736.3 168.4 Q 736.3 167.7, 735.9 167.3 Q 735.6 166.9, 734.9 166.9 Q 734.3 166.9, 733.9 167.1 Q 733.5 167.4, 733.2 167.9 L 732.4 167.5 " fill="#000000"/>
<path class="atom-9" d="M 712.8 92.3 Q 712.8 89.5, 714.2 88.0 Q 715.5 86.5, 718.1 86.5 Q 720.6 86.5, 722.0 88.0 Q 723.3 89.5, 723.3 92.3 Q 723.3 95.1, 722.0 96.7 Q 720.6 98.2, 718.1 98.2 Q 715.6 98.2, 714.2 96.7 Q 712.8 95.1, 712.8 92.3 M 718.1 96.9 Q 719.8 96.9, 720.8 95.8 Q 721.7 94.6, 721.7 92.3 Q 721.7 90.0, 720.8 88.9 Q 719.8 87.8, 718.1 87.8 Q 716.3 87.8, 715.4 88.9 Q 714.4 90.0, 714.4 92.3 Q 714.4 94.6, 715.4 95.8 Q 716.3 96.9, 718.1 96.9 " fill="#000000"/>
<path class="legend" d="M 611.3 227.3 L 607.8 227.3 L 607.8 226.0 L 616.1 226.0 L 616.1 227.3 L 612.8 227.3 L 612.8 237.3 L 611.3 237.3 L 611.3 227.3 " fill="#000000"/>
<path class="legend" d="M 617.9 229.1 L 618.1 230.2 Q 619.0 228.9, 620.4 228.9 Q 620.8 228.9, 621.4 229.1 L 621.2 230.4 Q 620.5 230.3, 620.1 230.3 Q 619.4 230.3, 619.0 230.6 Q 618.6 230.8, 618.2 231.4 L 618.2 237.3 L 616.7 237.3 L 616.7 229.1 L 617.9 229.1 " fill="#000000"/>
<path class="legend" d="M 622.2 235.1 Q 622.2 233.8, 623.3 233.1 Q 624.3 232.3, 626.3 232.3 L 627.5 232.3 L 627.5 232.0 Q 627.5 231.0, 627.1 230.6 Q 626.7 230.1, 625.6 230.1 Q 625.0 230.1, 624.5 230.3 Q 623.9 230.4, 623.1 230.7 L 622.7 229.7 Q 624.2 228.9, 625.7 228.9 Q 627.4 228.9, 628.2 229.7 Q 629.0 230.4, 629.0 232.0 L 629.0 237.3 L 627.8 237.3 Q 627.8 237.2, 627.8 237.0 Q 627.7 236.7, 627.6 236.3 Q 626.5 237.5, 624.9 237.5 Q 623.7 237.5, 623.0 236.8 Q 622.2 236.2, 622.2 235.1 M 623.7 235.1 Q 623.7 235.7, 624.1 236.0 Q 624.5 236.3, 625.2 236.3 Q 625.9 236.3, 626.5 236.0 Q 627.1 235.7, 627.5 235.2 L 627.5 233.5 L 626.4 233.5 Q 625.1 233.5, 624.4 233.9 Q 623.7 234.3, 623.7 235.1 " fill="#000000"/>
<path class="legend" d="M 630.8 226.0 L 632.3 226.0 L 632.3 227.4 L 630.8 227.4 L 630.8 226.0 M 630.8 229.1 L 632.3 229.1 L 632.3 237.3 L 630.8 237.3 L 630.8 229.1 " fill="#000000"/>
<path class="legend" d="M 638.5 228.9 Q 639.8 228.9, 640.5 229.7 Q 641.2 230.4, 641.2 231.9 L 641.2 237.3 L 639.7 237.3 L 639.7 232.0 Q 639.7 231.0, 639.3 230.6 Q 639.0 230.1, 638.1 230.1 Q 637.4 230.1, 636.7 230.5 Q 636.1 230.8, 635.7 231.4 L 635.7 237.3 L 634.2 237.3 L 634.2 229.1 L 635.4 229.1 L 635.6 230.2 Q 636.7 228.9, 638.5 228.9 " fill="#000000"/>
<path class="bond-0 atom-0 atom-1" d="M 12.5,431.0 L 22.2,404.2" style="fill:none;fill-rule:evenodd;stroke:#000000;stroke-width:2.0px;stroke-linecap:butt;stroke-linejoin:miter;stroke-opacity:1"/>
<path class="bond-1 atom-1 atom-2" d="M 22.2,404.2 L 45.6,400.0" style="fill:none;fill-rule:evenodd;stroke:#000000;stroke-width:2.0px;stroke-linecap:butt;stroke-linejoin:miter;stroke-opacity:1"/>
<path class="bond-2 atom-2 atom-3" d="M 52.1,394.2 L 58.1,377.4" style="fill:none;fill-rule:evenodd;stroke:#000000;stroke-width:2.0px;stroke-linecap:butt;stroke-linejoin:miter;stroke-opacity:1"/>
<path class="bond-3 atom-3 atom-4" d="M 57.2,369.1 L 37.4,362.0" style="fill:none;fill-rule:evenodd;stroke:#000000;stroke-width:2.0px;stroke-linecap:butt;stroke-linejoin:miter;stroke-opacity:1"/>
<path class="bond-3 atom-3 atom-4" d="M 55.7,373.1 L 36.0,366.0" style="fill:none;fill-rule:evenodd;stroke:#000000;stroke-width:2.0px;stroke-linecap:butt;stroke-linejoin:miter;stroke-opacity:1"/>
<path class="bond-4 atom-3 atom-5" d="M 61.7,367.4 L 67.8,350.7" style="fill:none;fill-rule:evenodd;stroke:#000000;stroke-width:2.0px;stroke-linecap:butt;stroke-linejoin:miter;stroke-opacity:1"/>
<path class="bond-5 atom-5 atom-6" d="M 65.4,340.6 L 51.3,323.8" style="fill:none;fill-rule:evenodd;stroke:#000000;stroke-width:2.0px;stroke-linecap:butt;stroke-linejoin:miter;stroke-opacity:1"/>
<path class="bond-6 atom-6 atom-7" d="M 51.3,323.8 L 61.0,297.0" style="fill:none;fill-rule:evenodd;stroke:#000000;stroke-width:2.0px;stroke-linecap:butt;stroke-linejoin:miter;stroke-opacity:1"/>
<path class="bond-7 atom-3 atom-8" d="M 63.5,373.7 L 83.2,380.8" style="fill:none;fill-rule:evenodd;stroke:#000000;stroke-width:2.0px;stroke-linecap:butt;stroke-linejoin:miter;stroke-opacity:1"/>
<path class="bond-8 atom-8 atom-9" d="M 90.3,379.1 L 108.5,363.7" style="fill:none;fill-rule:evenodd;stroke:#000000;stroke-width:2.0px;stroke-linecap:butt;stroke-linejoin:miter;stroke-opacity:1"/>
<path class="bond-9 atom-9 atom-10" d="M 108.5,363.7 L 131.3,372.0" style="fill:none;fill-rule:evenodd;stroke:#000000;stroke-width:2.0px;stroke-linecap:butt;stroke-linejoin:miter;stroke-opacity:1"/>
<path class="bond-10 atom-10 atom-11" d="M 136.2,378.4 L 139.4,396.5" style="fill:none;fill-rule:evenodd;stroke:#000000;stroke-width:2.0px;stroke-linecap:butt;stroke-linejoin:miter;stroke-opacity:1"/>
<path class="bond-11 atom-11 atom-12" d="M 144.3,402.9 L 163.1,409.7" style="fill:none;fill-rule:evenodd;stroke:#000000;stroke-width:2.0px;stroke-linecap:butt;stroke-linejoin:miter;stroke-opacity:1"/>
<path class="bond-11 atom-11 atom-12" d="M 145.8,398.9 L 164.6,405.7" style="fill:none;fill-rule:evenodd;stroke:#000000;stroke-width:2.0px;stroke-linecap:butt;stroke-linejoin:miter;stroke-opacity:1"/>
<path class="bond-12 atom-12 atom-13" d="M 171.1,407.8 L 188.9,392.8" style="fill:none;fill-rule:evenodd;stroke:#000000;stroke-width:2.0px;stroke-linecap:butt;stroke-linejoin:miter;stroke-opacity:1"/>
<path class="bond-13 atom-13 atom-14" d="M 188.9,392.8 L 215.7,402.5" style="fill:none;fill-rule:evenodd;stroke:#000000;stroke-width:2.0px;stroke-linecap:butt;stroke-linejoin:miter;stroke-opacity:1"/>
<path class="bond-13 atom-13 atom-14" d="M 192.7,389.6 L 214.8,397.7" style="fill:none;fill-rule:evenodd;stroke:#000000;stroke-width:2.0px;stroke-linecap:butt;stroke-linejoin:miter;stroke-opacity:1"/>
<path class="bond-14 atom-14 atom-15" d="M 215.7,402.5 L 237.5,384.2" style="fill:none;fill-rule:evenodd;stroke:#000000;stroke-width:2.0px;stroke-linecap:butt;stroke-linejoin:miter;stroke-opacity:1"/>
<path class="bond-15 atom-15 atom-16" d="M 237.5,384.2 L 232.5,356.1" style="fill:none;fill-rule:evenodd;stroke:#000000;stroke-width:2.0px;stroke-linecap:butt;stroke-linejoin:miter;stroke-opacity:1"/>
<path class="bond-15 atom-15 atom-16" d="M 232.9,382.5 L 228.7,359.3" style="fill:none;fill-rule:evenodd;stroke:#000000;stroke-width:2.0px;stroke-linecap:butt;stroke-linejoin:miter;stroke-opacity:1"/>
<path class="bond-16 atom-16 atom-17" d="M 232.5,356.1 L 205.7,346.4" style="fill:none;fill-rule:evenodd;stroke:#000000;stroke-width:2.0px;stroke-linecap:butt;stroke-linejoin:miter;stroke-opacity:1"/>
<path class="bond-17 atom-17 atom-18" d="M 205.7,346.4 L 183.9,364.8" style="fill:none;fill-rule:evenodd;stroke:#000000;stroke-width:2.0px;stroke-linecap:butt;stroke-linejoin:miter;stroke-opacity:1"/>
<path class="bond-17 atom-17 atom-18" d="M 206.6,351.3 L 188.6,366.5" style="fill:none;fill-rule:evenodd;stroke:#000000;stroke-width:2.0px;stroke-linecap:butt;stroke-linejoin:miter;stroke-opacity:1"/>
<path class="bond-18 atom-18 atom-19" d="M 183.9,364.8 L 157.1,355.1" style="fill:none;fill-rule:evenodd;stroke:#000000;stroke-width:2.0px;stroke-linecap:butt;stroke-linejoin:miter;stroke-opacity:1"/>
<path class="bond-19 atom-19 atom-20" d="M 159.4,355.9 L 155.1,331.8" style="fill:none;fill-rule:evenodd;stroke:#000000;stroke-width:2.0px;stroke-linecap:butt;stroke-linejoin:miter;stroke-opacity:1"/>
<path class="bond-19 atom-19 atom-20" d="M 155.2,356.7 L 150.9,332.5" style="fill:none;fill-rule:evenodd;stroke:#000000;stroke-width:2.0px;stroke-linecap:butt;stroke-linejoin:miter;stroke-opacity:1"/>
<path class="bond-20 atom-19 atom-10" d="M 157.1,355.1 L 139.3,370.1" style="fill:none;fill-rule:evenodd;stroke:#000000;stroke-width:2.0px;stroke-linecap:butt;stroke-linejoin:miter;stroke-opacity:1"/>
<path class="bond-21 atom-18 atom-13" d="M 183.9,364.8 L 188.9,392.8" style="fill:none;fill-rule:evenodd;stroke:#000000;stroke-width:2.0px;stroke-linecap:butt;stroke-linejoin:miter;stroke-opacity:1"/>
<path d="M 21.7,405.5 L 22.2,404.2 L 23.4,404.0" style="fill:none;stroke:#000000;stroke-width:2.0px;stroke-linecap:butt;stroke-linejoin:miter;stroke-miterlimit:10;stroke-opacity:1;"/>
<path d="M 52.0,324.6 L 51.3,323.8 L 51.8,322.5" style="fill:none;stroke:#000000;stroke-width:2.0px;stroke-linecap:butt;stroke-linejoin:miter;stroke-miterlimit:10;stroke-opacity:1;"/>
<path d="M 107.6,364.5 L 108.5,363.7 L 109.7,364.2" style="fill:none;stroke:#000000;stroke-width:2.0px;stroke-linecap:butt;stroke-linejoin:miter;stroke-miterlimit:10;stroke-opacity:1;"/>
<path d="M 214.4,402.0 L 215.7,402.5 L 216.8,401.6" style="fill:none;stroke:#000000;stroke-width:2.0px;stroke-linecap:butt;stroke-linejoin:miter;stroke-miterlimit:10;stroke-opacity:1;"/>
<path d="M 236.4,385.1 L 237.5,384.2 L 237.3,382.8" style="fill:none;stroke:#000000;stroke-width:2.0px;stroke-linecap:butt;stroke-linejoin:miter;stroke-miterlimit:10;stroke-opacity:1;"/>
<path d="M 232.8,357.5 L 232.5,356.1 L 231.2,355.6" style="fill:none;stroke:#000000;stroke-width:2.0px;stroke-linecap:butt;stroke-linejoin:miter;stroke-miterlimit:10;stroke-opacity:1;"/>
<path d="M 207.0,346.9 L 205.7,346.4 L 204.6,347.3" style="fill:none;stroke:#000000;stroke-width:2.0px;stroke-linecap:butt;stroke-linejoin:miter;stroke-miterlimit:10;stroke-opacity:1;"/>
<path d="M 158.5,355.6 L 157.1,355.1 L 156.2,355.8" style="fill:none;stroke:#000000;stroke-width:2.0px;stroke-linecap:butt;stroke-linejoin:miter;stroke-miterlimit:10;stroke-opacity:1;"/>
<path class="atom-2" d="M 46.5 399.2 Q 46.5 397.3, 47.5 396.2 Q 48.5 395.1, 50.2 395.1 Q 52.0 395.1, 53.0 396.2 Q 54.0 397.3, 54.0 399.2 Q 54.0 401.2, 53.0 402.3 Q 52.0 403.4, 50.2 403.4 Q 48.5 403.4, 47.5 402.3 Q 46.5 401.2, 46.5 399.2 M 50.2 402.5 Q 51.5 402.5, 52.1 401.7 Q 52.8 400.8, 52.8 399.2 Q 52.8 397.6, 52.1 396.8 Q 51.5 396.0, 50.2 396.0 Q 49.0 396.0, 48.3 396.8 Q 47.7 397.6, 47.7 399.2 Q 47.7 400.8, 48.3 401.7 Q 49.0 402.5, 50.2 402.5 " fill="#000000"/>
<path class="atom-3" d="M 59.8 368.4 Q 61.1 368.4, 61.8 369.0 Q 62.5 369.6, 62.5 370.7 Q 62.5 371.9, 61.8 372.5 Q 61.1 373.1, 59.8 373.1 L 58.5 373.1 L 58.5 376.4 L 57.4 376.4 L 57.4 368.4 L 59.8 368.4 M 59.8 372.2 Q 60.5 372.2, 61.0 371.8 Q 61.4 371.5, 61.4 370.7 Q 61.4 370.0, 61.0 369.7 Q 60.5 369.3, 59.8 369.3 L 58.5 369.3 L 58.5 372.2 L 59.8 372.2 " fill="#000000"/>
<path class="atom-4" d="M 30.9 365.5 Q 31.0 365.5, 31.3 365.7 Q 31.7 365.8, 32.1 365.9 Q 32.5 366.0, 33.0 366.0 Q 33.7 366.0, 34.2 365.7 Q 34.6 365.3, 34.6 364.6 Q 34.6 364.2, 34.4 363.9 Q 34.2 363.6, 33.8 363.5 Q 33.5 363.3, 32.9 363.2 Q 32.2 363.0, 31.8 362.7 Q 31.3 362.5, 31.0 362.1 Q 30.7 361.7, 30.7 360.9 Q 30.7 359.9, 31.4 359.3 Q 32.1 358.7, 33.5 358.7 Q 34.4 358.7, 35.5 359.1 L 35.2 360.0 Q 34.2 359.6, 33.5 359.6 Q 32.7 359.6, 32.3 359.9 Q 31.9 360.3, 31.9 360.8 Q 31.9 361.2, 32.1 361.5 Q 32.3 361.8, 32.6 361.9 Q 33.0 362.1, 33.5 362.2 Q 34.2 362.5, 34.7 362.7 Q 35.1 362.9, 35.4 363.4 Q 35.7 363.8, 35.7 364.6 Q 35.7 365.7, 35.0 366.3 Q 34.2 366.9, 33.0 366.9 Q 32.3 366.9, 31.7 366.8 Q 31.2 366.6, 30.6 366.4 L 30.9 365.5 " fill="#000000"/>
<path class="atom-5" d="M 65.9 345.6 Q 65.9 343.7, 66.9 342.6 Q 67.9 341.5, 69.6 341.5 Q 71.4 341.5, 72.4 342.6 Q 73.3 343.7, 73.3 345.6 Q 73.3 347.6, 72.4 348.7 Q 71.4 349.8, 69.6 349.8 Q 67.9 349.8, 66.9 348.7 Q 65.9 347.6, 65.9 345.6 M 69.6 348.9 Q 70.9 348.9, 71.5 348.1 Q 72.2 347.2, 72.2 345.6 Q 72.2 344.0, 71.5 343.2 Q 70.9 342.4, 69.6 342.4 Q 68.4 342.4, 67.7 343.2 Q 67.1 344.0, 67.1 345.6 Q 67.1 347.3, 67.7 348.1 Q 68.4 348.9, 69.6 348.9 " fill="#000000"/>
<path class="atom-8" d="M 84.5 384.9 Q 84.5 384.9, 84.9 385.1 Q 85.3 385.2, 85.7 385.3 Q 86.1 385.4, 86.5 385.4 Q 87.3 385.4, 87.8 385.0 Q 88.2 384.7, 88.2 384.0 Q 88.2 383.6, 88.0 383.3 Q 87.8 383.0, 87.4 382.9 Q 87.1 382.7, 86.5 382.6 Q 85.8 382.3, 85.3 382.1 Q 84.9 381.9, 84.6 381.5 Q 84.3 381.1, 84.3 380.3 Q 84.3 379.3, 85.0 378.7 Q 85.7 378.1, 87.1 378.1 Q 88.0 378.1, 89.1 378.5 L 88.8 379.4 Q 87.8 379.0, 87.1 379.0 Q 86.3 379.0, 85.9 379.3 Q 85.5 379.6, 85.5 380.2 Q 85.5 380.6, 85.7 380.9 Q 85.9 381.2, 86.2 381.3 Q 86.6 381.5, 87.1 381.6 Q 87.8 381.9, 88.3 382.1 Q 88.7 382.3, 89.0 382.8 Q 89.3 383.2, 89.3 384.0 Q 89.3 385.1, 88.6 385.7 Q 87.8 386.3, 86.6 386.3 Q 85.9 386.3, 85.3 386.2 Q 84.8 386.0, 84.2 385.8 L 84.5 384.9 " fill="#000000"/>
<path class="atom-10" d="M 133.5 369.4 L 136.2 373.7 Q 136.4 374.1, 136.9 374.9 Q 137.3 375.6, 137.3 375.7 L 137.3 369.4 L 138.4 369.4 L 138.4 377.5 L 137.3 377.5 L 134.4 372.8 Q 134.1 372.2, 133.8 371.6 Q 133.4 371.0, 133.3 370.8 L 133.3 377.5 L 132.3 377.5 L 132.3 369.4 L 133.5 369.4 " fill="#000000"/>
<path class="atom-11" d="M 138.5 397.5 L 141.2 401.7 Q 141.4 402.1, 141.9 402.9 Q 142.3 403.7, 142.3 403.7 L 142.3 397.5 L 143.4 397.5 L 143.4 405.5 L 142.3 405.5 L 139.4 400.8 Q 139.1 400.3, 138.8 399.7 Q 138.4 399.0, 138.3 398.9 L 138.3 405.5 L 137.3 405.5 L 137.3 397.5 L 138.5 397.5 " fill="#000000"/>
<path class="atom-12" d="M 165.3 407.1 L 168.0 411.4 Q 168.2 411.8, 168.7 412.6 Q 169.1 413.4, 169.1 413.4 L 169.1 407.1 L 170.2 407.1 L 170.2 415.2 L 169.1 415.2 L 166.2 410.5 Q 165.9 410.0, 165.6 409.4 Q 165.2 408.7, 165.1 408.5 L 165.1 415.2 L 164.1 415.2 L 164.1 407.1 L 165.3 407.1 " fill="#000000"/>
<path class="atom-20" d="M 148.4 327.0 Q 148.4 325.1, 149.4 324.0 Q 150.3 322.9, 152.1 322.9 Q 153.9 322.9, 154.9 324.0 Q 155.8 325.1, 155.8 327.0 Q 155.8 329.0, 154.9 330.1 Q 153.9 331.2, 152.1 331.2 Q 150.3 331.2, 149.4 330.1 Q 148.4 329.0, 148.4 327.0 M 152.1 330.3 Q 153.4 330.3, 154.0 329.5 Q 154.7 328.7, 154.7 327.0 Q 154.7 325.5, 154.0 324.7 Q 153.4 323.9, 152.1 323.9 Q 150.9 323.9, 150.2 324.7 Q 149.6 325.5, 149.6 327.0 Q 149.6 328.7, 150.2 329.5 Q 150.9 330.3, 152.1 330.3 " fill="#000000"/>
<path class="legend" d="M 112.7 477.3 L 109.2 477.3 L 109.2 476.0 L 117.6 476.0 L 117.6 477.3 L 114.3 477.3 L 114.3 487.4 L 112.7 487.4 L 112.7 477.3 " fill="#000000"/>
<path class="legend" d="M 118.3 483.2 Q 118.3 481.2, 119.3 480.1 Q 120.3 479.0, 122.1 479.0 Q 123.9 479.0, 124.7 480.1 Q 125.5 481.1, 125.5 483.2 L 125.5 483.4 L 119.8 483.4 Q 119.8 484.8, 120.5 485.6 Q 121.1 486.3, 122.2 486.3 Q 122.9 486.3, 123.5 486.2 Q 124.1 486.0, 124.8 485.7 L 125.2 486.7 Q 124.4 487.1, 123.7 487.3 Q 122.9 487.5, 122.2 487.5 Q 120.3 487.5, 119.3 486.4 Q 118.3 485.2, 118.3 483.2 M 122.1 480.2 Q 121.2 480.2, 120.6 480.7 Q 120.0 481.3, 119.9 482.3 L 124.0 482.3 Q 123.9 481.2, 123.4 480.7 Q 123.0 480.2, 122.1 480.2 " fill="#000000"/>
<path class="legend" d="M 127.3 485.7 Q 128.0 486.0, 128.5 486.1 Q 129.1 486.3, 129.6 486.3 Q 130.3 486.3, 130.7 485.9 Q 131.1 485.6, 131.1 485.1 Q 131.1 484.7, 130.9 484.5 Q 130.7 484.2, 130.4 484.1 Q 130.2 484.0, 129.5 483.8 Q 129.4 483.7, 128.6 483.5 Q 127.9 483.2, 127.5 482.7 Q 127.1 482.1, 127.1 481.3 Q 127.1 480.3, 127.9 479.7 Q 128.6 479.0, 130.1 479.0 Q 130.8 479.0, 131.3 479.1 Q 131.9 479.3, 132.5 479.5 L 132.1 480.7 Q 131.5 480.5, 131.1 480.4 Q 130.6 480.2, 130.1 480.2 Q 129.4 480.2, 129.0 480.5 Q 128.6 480.8, 128.6 481.3 Q 128.6 481.8, 128.9 482.0 Q 129.2 482.2, 129.9 482.4 Q 130.1 482.5, 130.2 482.5 L 130.6 482.7 Q 131.3 482.9, 131.7 483.1 Q 132.1 483.4, 132.4 483.8 Q 132.7 484.3, 132.7 485.0 Q 132.7 486.2, 131.8 486.9 Q 131.0 487.5, 129.6 487.5 Q 128.8 487.5, 128.2 487.3 Q 127.5 487.2, 126.8 486.9 L 127.3 485.7 " fill="#000000"/>
<path class="legend" d="M 134.2 480.3 L 134.2 479.1 L 135.7 479.1 L 136.0 476.7 L 137.1 476.7 L 137.1 479.1 L 139.6 479.1 L 139.6 480.3 L 137.1 480.3 L 137.1 484.8 Q 137.1 486.3, 138.3 486.3 Q 138.8 486.3, 139.5 486.0 L 139.8 487.1 Q 138.9 487.5, 138.1 487.5 Q 137.0 487.5, 136.3 486.8 Q 135.6 486.2, 135.6 484.9 L 135.6 480.3 L 134.2 480.3 " fill="#000000"/>
<path class="bond-0 atom-0 atom-1" d="M 344.4,404.6 L 344.4,376.4" style="fill:none;fill-rule:evenodd;stroke:#000000;stroke-width:2.0px;stroke-linecap:butt;stroke-linejoin:miter;stroke-opacity:1"/>
<path class="bond-0 atom-0 atom-1" d="M 349.3,404.6 L 349.3,376.4" style="fill:none;fill-rule:evenodd;stroke:#000000;stroke-width:2.0px;stroke-linecap:butt;stroke-linejoin:miter;stroke-opacity:1"/>
<path class="bond-1 atom-1 atom-2" d="M 346.9,377.8 L 370.4,364.2" style="fill:none;fill-rule:evenodd;stroke:#000000;stroke-width:2.0px;stroke-linecap:butt;stroke-linejoin:miter;stroke-opacity:1"/>
<path class="bond-2 atom-2 atom-3" d="M 379.6,364.2 L 403.1,377.8" style="fill:none;fill-rule:evenodd;stroke:#000000;stroke-width:2.0px;stroke-linecap:butt;stroke-linejoin:miter;stroke-opacity:1"/>
<path class="bond-3 atom-3 atom-4" d="M 400.7,376.4 L 400.7,404.6" style="fill:none;fill-rule:evenodd;stroke:#000000;stroke-width:2.0px;stroke-linecap:butt;stroke-linejoin:miter;stroke-opacity:1"/>
<path class="bond-3 atom-3 atom-4" d="M 405.6,376.4 L 405.6,404.6" style="fill:none;fill-rule:evenodd;stroke:#000000;stroke-width:2.0px;stroke-linecap:butt;stroke-linejoin:miter;stroke-opacity:1"/>
<path class="bond-4 atom-3 atom-5" d="M 403.1,377.8 L 431.2,361.6" style="fill:none;fill-rule:evenodd;stroke:#000000;stroke-width:2.0px;stroke-linecap:butt;stroke-linejoin:miter;stroke-opacity:1"/>
<path class="bond-5 atom-5 atom-6" d="M 431.2,361.6 L 459.4,377.8" style="fill:none;fill-rule:evenodd;stroke:#000000;stroke-width:2.0px;stroke-linecap:butt;stroke-linejoin:miter;stroke-opacity:1"/>
<path class="bond-5 atom-5 atom-6" d="M 436.1,358.8 L 459.4,372.2" style="fill:none;fill-rule:evenodd;stroke:#000000;stroke-width:2.0px;stroke-linecap:butt;stroke-linejoin:miter;stroke-opacity:1"/>
<path class="bond-6 atom-6 atom-7" d="M 459.4,377.8 L 487.5,361.6" style="fill:none;fill-rule:evenodd;stroke:#000000;stroke-width:2.0px;stroke-linecap:butt;stroke-linejoin:miter;stroke-opacity:1"/>
<path class="bond-7 atom-7 atom-8" d="M 487.5,361.6 L 487.5,329.1" style="fill:none;fill-rule:evenodd;stroke:#000000;stroke-width:2.0px;stroke-linecap:butt;stroke-linejoin:miter;stroke-opacity:1"/>
<path class="bond-7 atom-7 atom-8" d="M 482.6,358.8 L 482.6,331.9" style="fill:none;fill-rule:evenodd;stroke:#000000;stroke-width:2.0px;stroke-linecap:butt;stroke-linejoin:miter;stroke-opacity:1"/>
<path class="bond-8 atom-8 atom-9" d="M 487.5,329.1 L 459.4,312.9" style="fill:none;fill-rule:evenodd;stroke:#000000;stroke-width:2.0px;stroke-linecap:butt;stroke-linejoin:miter;stroke-opacity:1"/>
<path class="bond-9 atom-9 atom-10" d="M 459.4,312.9 L 431.2,329.1" style="fill:none;fill-rule:evenodd;stroke:#000000;stroke-width:2.0px;stroke-linecap:butt;stroke-linejoin:miter;stroke-opacity:1"/>
<path class="bond-9 atom-9 atom-10" d="M 459.4,318.5 L 436.1,331.9" style="fill:none;fill-rule:evenodd;stroke:#000000;stroke-width:2.0px;stroke-linecap:butt;stroke-linejoin:miter;stroke-opacity:1"/>
<path class="bond-10 atom-1 atom-11" d="M 346.9,377.8 L 318.8,361.6" style="fill:none;fill-rule:evenodd;stroke:#000000;stroke-width:2.0px;stroke-linecap:butt;stroke-linejoin:miter;stroke-opacity:1"/>
<path class="bond-11 atom-11 atom-12" d="M 318.8,361.6 L 318.8,329.1" style="fill:none;fill-rule:evenodd;stroke:#000000;stroke-width:2.0px;stroke-linecap:butt;stroke-linejoin:miter;stroke-opacity:1"/>
<path class="bond-11 atom-11 atom-12" d="M 313.9,358.8 L 313.9,331.9" style="fill:none;fill-rule:evenodd;stroke:#000000;stroke-width:2.0px;stroke-linecap:butt;stroke-linejoin:miter;stroke-opacity:1"/>
<path class="bond-12 atom-12 atom-13" d="M 318.8,329.1 L 290.6,312.9" style="fill:none;fill-rule:evenodd;stroke:#000000;stroke-width:2.0px;stroke-linecap:butt;stroke-linejoin:miter;stroke-opacity:1"/>
<path class="bond-13 atom-13 atom-14" d="M 290.6,312.9 L 262.5,329.1" style="fill:none;fill-rule:evenodd;stroke:#000000;stroke-width:2.0px;stroke-linecap:butt;stroke-linejoin:miter;stroke-opacity:1"/>
<path class="bond-13 atom-13 atom-14" d="M 290.6,318.5 L 267.4,331.9" style="fill:none;fill-rule:evenodd;stroke:#000000;stroke-width:2.0px;stroke-linecap:butt;stroke-linejoin:miter;stroke-opacity:1"/>
<path class="bond-14 atom-14 atom-15" d="M 262.5,329.1 L 262.5,361.6" style="fill:none;fill-rule:evenodd;stroke:#000000;stroke-width:2.0px;stroke-linecap:butt;stroke-linejoin:miter;stroke-opacity:1"/>
<path class="bond-15 atom-15 atom-16" d="M 262.5,361.6 L 290.6,377.8" style="fill:none;fill-rule:evenodd;stroke:#000000;stroke-width:2.0px;stroke-linecap:butt;stroke-linejoin:miter;stroke-opacity:1"/>
<path class="bond-15 atom-15 atom-16" d="M 267.4,358.8 L 290.6,372.2" style="fill:none;fill-rule:evenodd;stroke:#000000;stroke-width:2.0px;stroke-linecap:butt;stroke-linejoin:miter;stroke-opacity:1"/>
<path class="bond-16 atom-10 atom-5" d="M 431.2,329.1 L 431.2,361.6" style="fill:none;fill-rule:evenodd;stroke:#000000;stroke-width:2.0px;stroke-linecap:butt;stroke-linejoin:miter;stroke-opacity:1"/>
<path class="bond-17 atom-16 atom-11" d="M 290.6,377.8 L 318.8,361.6" style="fill:none;fill-rule:evenodd;stroke:#000000;stroke-width:2.0px;stroke-linecap:butt;stroke-linejoin:miter;stroke-opacity:1"/>
<path d="M 348.1,377.2 L 346.9,377.8 L 345.5,377.0" style="fill:none;stroke:#000000;stroke-width:2.0px;stroke-linecap:butt;stroke-linejoin:miter;stroke-miterlimit:10;stroke-opacity:1;"/>
<path d="M 401.9,377.2 L 403.1,377.8 L 404.5,377.0" style="fill:none;stroke:#000000;stroke-width:2.0px;stroke-linecap:butt;stroke-linejoin:miter;stroke-miterlimit:10;stroke-opacity:1;"/>
<path d="M 458.0,377.0 L 459.4,377.8 L 460.8,377.0" style="fill:none;stroke:#000000;stroke-width:2.0px;stroke-linecap:butt;stroke-linejoin:miter;stroke-miterlimit:10;stroke-opacity:1;"/>
<path d="M 486.1,362.4 L 487.5,361.6 L 487.5,360.0" style="fill:none;stroke:#000000;stroke-width:2.0px;stroke-linecap:butt;stroke-linejoin:miter;stroke-miterlimit:10;stroke-opacity:1;"/>
<path d="M 487.5,330.8 L 487.5,329.1 L 486.1,328.3" style="fill:none;stroke:#000000;stroke-width:2.0px;stroke-linecap:butt;stroke-linejoin:miter;stroke-miterlimit:10;stroke-opacity:1;"/>
<path d="M 460.8,313.7 L 459.4,312.9 L 458.0,313.7" style="fill:none;stroke:#000000;stroke-width:2.0px;stroke-linecap:butt;stroke-linejoin:miter;stroke-miterlimit:10;stroke-opacity:1;"/>
<path d="M 432.7,328.3 L 431.2,329.1 L 431.2,330.8" style="fill:none;stroke:#000000;stroke-width:2.0px;stroke-linecap:butt;stroke-linejoin:miter;stroke-miterlimit:10;stroke-opacity:1;"/>
<path d="M 318.8,330.8 L 318.8,329.1 L 317.3,328.3" style="fill:none;stroke:#000000;stroke-width:2.0px;stroke-linecap:butt;stroke-linejoin:miter;stroke-miterlimit:10;stroke-opacity:1;"/>
<path d="M 292.0,313.7 L 290.6,312.9 L 289.2,313.7" style="fill:none;stroke:#000000;stroke-width:2.0px;stroke-linecap:butt;stroke-linejoin:miter;stroke-miterlimit:10;stroke-opacity:1;"/>
<path d="M 263.9,328.3 L 262.5,329.1 L 262.5,330.8" style="fill:none;stroke:#000000;stroke-width:2.0px;stroke-linecap:butt;stroke-linejoin:miter;stroke-miterlimit:10;stroke-opacity:1;"/>
<path d="M 262.5,360.0 L 262.5,361.6 L 263.9,362.4" style="fill:none;stroke:#000000;stroke-width:2.0px;stroke-linecap:butt;stroke-linejoin:miter;stroke-miterlimit:10;stroke-opacity:1;"/>
<path d="M 289.2,377.0 L 290.6,377.8 L 292.0,377.0" style="fill:none;stroke:#000000;stroke-width:2.0px;stroke-linecap:butt;stroke-linejoin:miter;stroke-miterlimit:10;stroke-opacity:1;"/>
<path class="atom-0" d="M 342.7 410.3 Q 342.7 408.1, 343.7 406.9 Q 344.8 405.7, 346.9 405.7 Q 348.9 405.7, 350.0 406.9 Q 351.1 408.1, 351.1 410.3 Q 351.1 412.6, 350.0 413.9 Q 348.9 415.1, 346.9 415.1 Q 344.8 415.1, 343.7 413.9 Q 342.7 412.6, 342.7 410.3 M 346.9 414.1 Q 348.3 414.1, 349.0 413.1 Q 349.8 412.2, 349.8 410.3 Q 349.8 408.5, 349.0 407.6 Q 348.3 406.7, 346.9 406.7 Q 345.5 406.7, 344.7 407.6 Q 344.0 408.5, 344.0 410.3 Q 344.0 412.2, 344.7 413.1 Q 345.5 414.1, 346.9 414.1 " fill="#000000"/>
<path class="atom-2" d="M 373.0 357.0 L 376.0 361.9 Q 376.3 362.4, 376.8 363.2 Q 377.2 364.1, 377.3 364.1 L 377.3 357.0 L 378.5 357.0 L 378.5 366.2 L 377.2 366.2 L 374.0 360.9 Q 373.6 360.3, 373.2 359.5 Q 372.8 358.8, 372.7 358.6 L 372.7 366.2 L 371.5 366.2 L 371.5 357.0 L 373.0 357.0 " fill="#000000"/>
<path class="atom-2" d="M 371.4 346.9 L 372.6 346.9 L 372.6 350.8 L 377.4 350.8 L 377.4 346.9 L 378.6 346.9 L 378.6 356.1 L 377.4 356.1 L 377.4 351.8 L 372.6 351.8 L 372.6 356.1 L 371.4 356.1 L 371.4 346.9 " fill="#000000"/>
<path class="atom-4" d="M 398.9 410.3 Q 398.9 408.1, 400.0 406.9 Q 401.1 405.7, 403.1 405.7 Q 405.2 405.7, 406.3 406.9 Q 407.3 408.1, 407.3 410.3 Q 407.3 412.6, 406.2 413.9 Q 405.1 415.1, 403.1 415.1 Q 401.1 415.1, 400.0 413.9 Q 398.9 412.6, 398.9 410.3 M 403.1 414.1 Q 404.5 414.1, 405.3 413.1 Q 406.0 412.2, 406.0 410.3 Q 406.0 408.5, 405.3 407.6 Q 404.5 406.7, 403.1 406.7 Q 401.7 406.7, 401.0 407.6 Q 400.2 408.5, 400.2 410.3 Q 400.2 412.2, 401.0 413.1 Q 401.7 414.1, 403.1 414.1 " fill="#000000"/>
<path class="legend" d="M 362.7 477.3 L 359.2 477.3 L 359.2 476.0 L 367.6 476.0 L 367.6 477.3 L 364.3 477.3 L 364.3 487.4 L 362.7 487.4 L 362.7 477.3 " fill="#000000"/>
<path class="legend" d="M 368.3 483.2 Q 368.3 481.2, 369.3 480.1 Q 370.3 479.0, 372.1 479.0 Q 373.9 479.0, 374.7 480.1 Q 375.5 481.1, 375.5 483.2 L 375.5 483.4 L 369.8 483.4 Q 369.8 484.8, 370.5 485.6 Q 371.1 486.3, 372.2 486.3 Q 372.9 486.3, 373.5 486.2 Q 374.1 486.0, 374.8 485.7 L 375.2 486.7 Q 374.4 487.1, 373.7 487.3 Q 372.9 487.5, 372.2 487.5 Q 370.3 487.5, 369.3 486.4 Q 368.3 485.2, 368.3 483.2 M 372.1 480.2 Q 371.2 480.2, 370.6 480.7 Q 370.0 481.3, 369.9 482.3 L 374.0 482.3 Q 373.9 481.2, 373.4 480.7 Q 373.0 480.2, 372.1 480.2 " fill="#000000"/>
<path class="legend" d="M 377.3 485.7 Q 378.0 486.0, 378.5 486.1 Q 379.1 486.3, 379.6 486.3 Q 380.3 486.3, 380.7 485.9 Q 381.2 485.6, 381.2 485.1 Q 381.2 484.7, 380.9 484.5 Q 380.7 484.2, 380.4 484.1 Q 380.2 484.0, 379.5 483.8 Q 379.4 483.7, 378.6 483.5 Q 377.9 483.2, 377.5 482.7 Q 377.1 482.1, 377.1 481.3 Q 377.1 480.3, 377.9 479.7 Q 378.6 479.0, 380.1 479.0 Q 380.8 479.0, 381.3 479.1 Q 381.9 479.3, 382.5 479.5 L 382.1 480.7 Q 381.5 480.5, 381.1 480.4 Q 380.6 480.2, 380.1 480.2 Q 379.4 480.2, 379.0 480.5 Q 378.6 480.8, 378.6 481.3 Q 378.6 481.8, 378.9 482.0 Q 379.2 482.2, 379.9 482.4 Q 380.1 482.5, 380.2 482.5 L 380.6 482.7 Q 381.3 482.9, 381.7 483.1 Q 382.1 483.4, 382.4 483.8 Q 382.7 484.3, 382.7 485.0 Q 382.7 486.2, 381.8 486.9 Q 381.0 487.5, 379.6 487.5 Q 378.8 487.5, 378.2 487.3 Q 377.5 487.2, 376.8 486.9 L 377.3 485.7 " fill="#000000"/>
<path class="legend" d="M 384.2 480.3 L 384.2 479.1 L 385.7 479.1 L 386.0 476.7 L 387.1 476.7 L 387.1 479.1 L 389.6 479.1 L 389.6 480.3 L 387.1 480.3 L 387.1 484.8 Q 387.1 486.3, 388.3 486.3 Q 388.8 486.3, 389.5 486.0 L 389.8 487.1 Q 388.9 487.5, 388.1 487.5 Q 387.0 487.5, 386.3 486.8 Q 385.6 486.2, 385.6 484.9 L 385.6 480.3 L 384.2 480.3 " fill="#000000"/>
<path class="bond-0 atom-3 atom-4" d="M 526.0,359.3 L 520.0,368.1" style="fill:none;fill-rule:evenodd;stroke:#000000;stroke-width:2.0px;stroke-linecap:butt;stroke-linejoin:miter;stroke-opacity:1"/>
<path class="bond-1 atom-4 atom-5" d="M 520.0,368.1 L 514.0,376.8" style="fill:none;fill-rule:evenodd;stroke:#000000;stroke-width:2.0px;stroke-linecap:butt;stroke-linejoin:miter;stroke-opacity:1"/>
<path class="bond-2 atom-4 atom-6" d="M 520.0,368.1 L 511.3,362.1" style="fill:none;fill-rule:evenodd;stroke:#000000;stroke-width:2.0px;stroke-linecap:butt;stroke-linejoin:miter;stroke-opacity:1"/>
<path class="bond-3 atom-4 atom-7" d="M 520.0,368.1 L 528.8,374.1" style="fill:none;fill-rule:evenodd;stroke:#000000;stroke-width:2.0px;stroke-linecap:butt;stroke-linejoin:miter;stroke-opacity:1"/>
<path class="bond-4 atom-7 atom-8" d="M 528.8,374.1 L 538.3,369.5" style="fill:none;fill-rule:evenodd;stroke:#000000;stroke-width:2.0px;stroke-linecap:butt;stroke-linejoin:miter;stroke-opacity:1"/>
<path class="bond-4 atom-7 atom-8" d="M 530.3,375.1 L 538.2,371.3" style="fill:none;fill-rule:evenodd;stroke:#000000;stroke-width:2.0px;stroke-linecap:butt;stroke-linejoin:miter;stroke-opacity:1"/>
<path class="bond-5 atom-8 atom-9" d="M 538.3,369.5 L 547.1,375.4" style="fill:none;fill-rule:evenodd;stroke:#000000;stroke-width:2.0px;stroke-linecap:butt;stroke-linejoin:miter;stroke-opacity:1"/>
<path class="bond-6 atom-9 atom-10" d="M 547.1,375.4 L 546.3,386.0" style="fill:none;fill-rule:evenodd;stroke:#000000;stroke-width:2.0px;stroke-linecap:butt;stroke-linejoin:miter;stroke-opacity:1"/>
<path class="bond-6 atom-9 atom-10" d="M 545.4,376.2 L 544.8,385.0" style="fill:none;fill-rule:evenodd;stroke:#000000;stroke-width:2.0px;stroke-linecap:butt;stroke-linejoin:miter;stroke-opacity:1"/>
<path class="bond-7 atom-10 atom-11" d="M 546.3,386.0 L 536.7,390.6" style="fill:none;fill-rule:evenodd;stroke:#000000;stroke-width:2.0px;stroke-linecap:butt;stroke-linejoin:miter;stroke-opacity:1"/>
<path class="bond-8 atom-11 atom-12" d="M 536.7,390.6 L 528.0,384.6" style="fill:none;fill-rule:evenodd;stroke:#000000;stroke-width:2.0px;stroke-linecap:butt;stroke-linejoin:miter;stroke-opacity:1"/>
<path class="bond-8 atom-11 atom-12" d="M 536.9,388.8 L 529.6,383.8" style="fill:none;fill-rule:evenodd;stroke:#000000;stroke-width:2.0px;stroke-linecap:butt;stroke-linejoin:miter;stroke-opacity:1"/>
<path class="bond-9 atom-10 atom-13" d="M 546.3,386.0 L 553.3,390.8" style="fill:none;fill-rule:evenodd;stroke:#000000;stroke-width:2.0px;stroke-linecap:butt;stroke-linejoin:miter;stroke-opacity:1"/>
<path class="bond-10 atom-13 atom-14" d="M 557.4,390.0 L 559.9,386.3" style="fill:none;fill-rule:evenodd;stroke:#000000;stroke-width:2.0px;stroke-linecap:butt;stroke-linejoin:miter;stroke-opacity:1"/>
<path class="bond-10 atom-13 atom-14" d="M 556.1,389.1 L 558.6,385.4" style="fill:none;fill-rule:evenodd;stroke:#000000;stroke-width:2.0px;stroke-linecap:butt;stroke-linejoin:miter;stroke-opacity:1"/>
<path class="bond-11 atom-13 atom-15" d="M 552.7,394.1 L 550.1,397.8" style="fill:none;fill-rule:evenodd;stroke:#000000;stroke-width:2.0px;stroke-linecap:butt;stroke-linejoin:miter;stroke-opacity:1"/>
<path class="bond-11 atom-13 atom-15" d="M 554.0,395.0 L 551.4,398.7" style="fill:none;fill-rule:evenodd;stroke:#000000;stroke-width:2.0px;stroke-linecap:butt;stroke-linejoin:miter;stroke-opacity:1"/>
<path class="bond-12 atom-13 atom-16" d="M 556.8,393.2 L 561.9,396.6" style="fill:none;fill-rule:evenodd;stroke:#000000;stroke-width:2.0px;stroke-linecap:butt;stroke-linejoin:miter;stroke-opacity:1"/>
<path class="bond-13 atom-16 atom-17" d="M 565.8,397.0 L 573.4,393.4" style="fill:none;fill-rule:evenodd;stroke:#000000;stroke-width:2.0px;stroke-linecap:butt;stroke-linejoin:miter;stroke-opacity:1"/>
<path class="bond-14 atom-17 atom-18" d="M 573.4,393.4 L 574.2,382.8" style="fill:none;fill-rule:evenodd;stroke:#000000;stroke-width:2.0px;stroke-linecap:butt;stroke-linejoin:miter;stroke-opacity:1"/>
<path class="bond-14 atom-17 atom-18" d="M 575.0,392.6 L 575.7,383.8" style="fill:none;fill-rule:evenodd;stroke:#000000;stroke-width:2.0px;stroke-linecap:butt;stroke-linejoin:miter;stroke-opacity:1"/>
<path class="bond-15 atom-18 atom-19" d="M 574.2,382.8 L 583.7,378.2" style="fill:none;fill-rule:evenodd;stroke:#000000;stroke-width:2.0px;stroke-linecap:butt;stroke-linejoin:miter;stroke-opacity:1"/>
<path class="bond-16 atom-19 atom-20" d="M 583.7,378.2 L 592.5,384.2" style="fill:none;fill-rule:evenodd;stroke:#000000;stroke-width:2.0px;stroke-linecap:butt;stroke-linejoin:miter;stroke-opacity:1"/>
<path class="bond-16 atom-19 atom-20" d="M 583.6,380.0 L 590.8,385.0" style="fill:none;fill-rule:evenodd;stroke:#000000;stroke-width:2.0px;stroke-linecap:butt;stroke-linejoin:miter;stroke-opacity:1"/>
<path class="bond-17 atom-20 atom-21" d="M 592.5,384.2 L 602.1,379.6" style="fill:none;fill-rule:evenodd;stroke:#000000;stroke-width:2.0px;stroke-linecap:butt;stroke-linejoin:miter;stroke-opacity:1"/>
<path class="bond-18 atom-21 atom-22" d="M 602.1,379.6 L 610.8,385.6" style="fill:none;fill-rule:evenodd;stroke:#000000;stroke-width:2.0px;stroke-linecap:butt;stroke-linejoin:miter;stroke-opacity:1"/>
<path class="bond-18 atom-21 atom-22" d="M 601.9,381.4 L 609.2,386.4" style="fill:none;fill-rule:evenodd;stroke:#000000;stroke-width:2.0px;stroke-linecap:butt;stroke-linejoin:miter;stroke-opacity:1"/>
<path class="bond-19 atom-22 atom-23" d="M 610.8,385.6 L 610.0,396.2" style="fill:none;fill-rule:evenodd;stroke:#000000;stroke-width:2.0px;stroke-linecap:butt;stroke-linejoin:miter;stroke-opacity:1"/>
<path class="bond-20 atom-23 atom-24" d="M 610.0,396.2 L 600.5,400.8" style="fill:none;fill-rule:evenodd;stroke:#000000;stroke-width:2.0px;stroke-linecap:butt;stroke-linejoin:miter;stroke-opacity:1"/>
<path class="bond-20 atom-23 atom-24" d="M 608.5,395.1 L 600.6,398.9" style="fill:none;fill-rule:evenodd;stroke:#000000;stroke-width:2.0px;stroke-linecap:butt;stroke-linejoin:miter;stroke-opacity:1"/>
<path class="bond-21 atom-24 atom-25" d="M 600.5,400.8 L 591.7,394.8" style="fill:none;fill-rule:evenodd;stroke:#000000;stroke-width:2.0px;stroke-linecap:butt;stroke-linejoin:miter;stroke-opacity:1"/>
<path class="bond-22 atom-25 atom-26" d="M 591.7,394.8 L 582.1,399.4" style="fill:none;fill-rule:evenodd;stroke:#000000;stroke-width:2.0px;stroke-linecap:butt;stroke-linejoin:miter;stroke-opacity:1"/>
<path class="bond-22 atom-25 atom-26" d="M 590.2,393.7 L 582.3,397.5" style="fill:none;fill-rule:evenodd;stroke:#000000;stroke-width:2.0px;stroke-linecap:butt;stroke-linejoin:miter;stroke-opacity:1"/>
<path class="bond-23 atom-22 atom-27" d="M 610.8,385.6 L 618.7,381.8" style="fill:none;fill-rule:evenodd;stroke:#000000;stroke-width:2.0px;stroke-linecap:butt;stroke-linejoin:miter;stroke-opacity:1"/>
<path class="bond-24 atom-27 atom-28" d="M 619.9,378.2 L 617.7,373.6" style="fill:none;fill-rule:evenodd;stroke:#000000;stroke-width:2.0px;stroke-linecap:butt;stroke-linejoin:miter;stroke-opacity:1"/>
<path class="bond-24 atom-27 atom-28" d="M 618.5,378.9 L 616.3,374.3" style="fill:none;fill-rule:evenodd;stroke:#000000;stroke-width:2.0px;stroke-linecap:butt;stroke-linejoin:miter;stroke-opacity:1"/>
<path class="bond-25 atom-27 atom-29" d="M 620.9,383.9 L 623.0,388.4" style="fill:none;fill-rule:evenodd;stroke:#000000;stroke-width:2.0px;stroke-linecap:butt;stroke-linejoin:miter;stroke-opacity:1"/>
<path class="bond-25 atom-27 atom-29" d="M 622.3,383.2 L 624.5,387.7" style="fill:none;fill-rule:evenodd;stroke:#000000;stroke-width:2.0px;stroke-linecap:butt;stroke-linejoin:miter;stroke-opacity:1"/>
<path class="bond-26 atom-27 atom-30" d="M 622.1,380.2 L 629.9,376.4" style="fill:none;fill-rule:evenodd;stroke:#000000;stroke-width:2.0px;stroke-linecap:butt;stroke-linejoin:miter;stroke-opacity:1"/>
<path class="bond-27 atom-30 atom-31" d="M 629.9,376.4 L 638.7,382.4" style="fill:none;fill-rule:evenodd;stroke:#000000;stroke-width:2.0px;stroke-linecap:butt;stroke-linejoin:miter;stroke-opacity:1"/>
<path class="bond-27 atom-30 atom-31" d="M 631.6,375.6 L 638.8,380.5" style="fill:none;fill-rule:evenodd;stroke:#000000;stroke-width:2.0px;stroke-linecap:butt;stroke-linejoin:miter;stroke-opacity:1"/>
<path class="bond-28 atom-31 atom-32" d="M 638.7,382.4 L 648.2,377.8" style="fill:none;fill-rule:evenodd;stroke:#000000;stroke-width:2.0px;stroke-linecap:butt;stroke-linejoin:miter;stroke-opacity:1"/>
<path class="bond-29 atom-32 atom-33" d="M 648.2,377.8 L 655.0,382.4" style="fill:none;fill-rule:evenodd;stroke:#000000;stroke-width:2.0px;stroke-linecap:butt;stroke-linejoin:miter;stroke-opacity:1"/>
<path class="bond-30 atom-33 atom-34" d="M 659.0,382.8 L 666.6,379.2" style="fill:none;fill-rule:evenodd;stroke:#000000;stroke-width:2.0px;stroke-linecap:butt;stroke-linejoin:miter;stroke-opacity:1"/>
<path class="bond-30 atom-33 atom-34" d="M 658.3,381.4 L 665.0,378.1" style="fill:none;fill-rule:evenodd;stroke:#000000;stroke-width:2.0px;stroke-linecap:butt;stroke-linejoin:miter;stroke-opacity:1"/>
<path class="bond-31 atom-34 atom-35" d="M 666.6,379.2 L 675.3,385.1" style="fill:none;fill-rule:evenodd;stroke:#000000;stroke-width:2.0px;stroke-linecap:butt;stroke-linejoin:miter;stroke-opacity:1"/>
<path class="bond-32 atom-35 atom-36" d="M 675.3,385.1 L 684.9,380.5" style="fill:none;fill-rule:evenodd;stroke:#000000;stroke-width:2.0px;stroke-linecap:butt;stroke-linejoin:miter;stroke-opacity:1"/>
<path class="bond-32 atom-35 atom-36" d="M 675.5,383.3 L 683.4,379.5" style="fill:none;fill-rule:evenodd;stroke:#000000;stroke-width:2.0px;stroke-linecap:butt;stroke-linejoin:miter;stroke-opacity:1"/>
<path class="bond-33 atom-36 atom-37" d="M 684.9,380.5 L 691.3,385.0" style="fill:none;fill-rule:evenodd;stroke:#000000;stroke-width:2.0px;stroke-linecap:butt;stroke-linejoin:miter;stroke-opacity:1"/>
<path class="bond-34 atom-37 atom-38" d="M 695.9,385.4 L 703.2,381.9" style="fill:none;fill-rule:evenodd;stroke:#000000;stroke-width:2.0px;stroke-linecap:butt;stroke-linejoin:miter;stroke-opacity:1"/>
<path class="bond-35 atom-38 atom-39" d="M 703.2,381.9 L 704.0,371.3" style="fill:none;fill-rule:evenodd;stroke:#000000;stroke-width:2.0px;stroke-linecap:butt;stroke-linejoin:miter;stroke-opacity:1"/>
<path class="bond-35 atom-38 atom-39" d="M 704.9,381.1 L 705.5,372.4" style="fill:none;fill-rule:evenodd;stroke:#000000;stroke-width:2.0px;stroke-linecap:butt;stroke-linejoin:miter;stroke-opacity:1"/>
<path class="bond-36 atom-39 atom-40" d="M 704.0,371.3 L 713.6,366.8" style="fill:none;fill-rule:evenodd;stroke:#000000;stroke-width:2.0px;stroke-linecap:butt;stroke-linejoin:miter;stroke-opacity:1"/>
<path class="bond-37 atom-40 atom-41" d="M 713.6,366.8 L 722.3,372.7" style="fill:none;fill-rule:evenodd;stroke:#000000;stroke-width:2.0px;stroke-linecap:butt;stroke-linejoin:miter;stroke-opacity:1"/>
<path class="bond-37 atom-40 atom-41" d="M 713.4,368.6 L 720.7,373.5" style="fill:none;fill-rule:evenodd;stroke:#000000;stroke-width:2.0px;stroke-linecap:butt;stroke-linejoin:miter;stroke-opacity:1"/>
<path class="bond-38 atom-41 atom-42" d="M 722.3,372.7 L 721.5,383.3" style="fill:none;fill-rule:evenodd;stroke:#000000;stroke-width:2.0px;stroke-linecap:butt;stroke-linejoin:miter;stroke-opacity:1"/>
<path class="bond-39 atom-42 atom-43" d="M 721.5,383.3 L 728.3,388.0" style="fill:none;fill-rule:evenodd;stroke:#000000;stroke-width:2.0px;stroke-linecap:butt;stroke-linejoin:miter;stroke-opacity:1"/>
<path class="bond-40 atom-42 atom-44" d="M 721.5,383.3 L 712.0,387.9" style="fill:none;fill-rule:evenodd;stroke:#000000;stroke-width:2.0px;stroke-linecap:butt;stroke-linejoin:miter;stroke-opacity:1"/>
<path class="bond-40 atom-42 atom-44" d="M 720.0,382.3 L 712.1,386.1" style="fill:none;fill-rule:evenodd;stroke:#000000;stroke-width:2.0px;stroke-linecap:butt;stroke-linejoin:miter;stroke-opacity:1"/>
<path class="bond-41 atom-44 atom-45" d="M 712.0,387.9 L 711.3,396.0" style="fill:none;fill-rule:evenodd;stroke:#000000;stroke-width:2.0px;stroke-linecap:butt;stroke-linejoin:miter;stroke-opacity:1"/>
<path class="bond-42 atom-45 atom-46" d="M 711.0,401.1 L 710.6,406.6" style="fill:none;fill-rule:evenodd;stroke:#000000;stroke-width:2.0px;stroke-linecap:butt;stroke-linejoin:miter;stroke-opacity:1"/>
<path class="bond-43 atom-45 atom-47" d="M 709.5,397.6 L 702.9,397.1" style="fill:none;fill-rule:evenodd;stroke:#000000;stroke-width:2.0px;stroke-linecap:butt;stroke-linejoin:miter;stroke-opacity:1"/>
<path class="bond-43 atom-45 atom-47" d="M 709.4,399.1 L 702.8,398.6" style="fill:none;fill-rule:evenodd;stroke:#000000;stroke-width:2.0px;stroke-linecap:butt;stroke-linejoin:miter;stroke-opacity:1"/>
<path class="bond-44 atom-45 atom-48" d="M 712.8,399.4 L 719.4,399.9" style="fill:none;fill-rule:evenodd;stroke:#000000;stroke-width:2.0px;stroke-linecap:butt;stroke-linejoin:miter;stroke-opacity:1"/>
<path class="bond-44 atom-45 atom-48" d="M 712.9,397.8 L 719.5,398.3" style="fill:none;fill-rule:evenodd;stroke:#000000;stroke-width:2.0px;stroke-linecap:butt;stroke-linejoin:miter;stroke-opacity:1"/>
<path class="bond-45 atom-39 atom-49" d="M 704.0,371.3 L 697.2,366.7" style="fill:none;fill-rule:evenodd;stroke:#000000;stroke-width:2.0px;stroke-linecap:butt;stroke-linejoin:miter;stroke-opacity:1"/>
<path class="bond-46 atom-49 atom-50" d="M 693.3,366.3 L 685.7,370.0" style="fill:none;fill-rule:evenodd;stroke:#000000;stroke-width:2.0px;stroke-linecap:butt;stroke-linejoin:miter;stroke-opacity:1"/>
<path class="bond-46 atom-49 atom-50" d="M 694.0,367.7 L 687.2,371.0" style="fill:none;fill-rule:evenodd;stroke:#000000;stroke-width:2.0px;stroke-linecap:butt;stroke-linejoin:miter;stroke-opacity:1"/>
<path class="bond-47 atom-50 atom-51" d="M 685.7,370.0 L 676.9,364.0" style="fill:none;fill-rule:evenodd;stroke:#000000;stroke-width:2.0px;stroke-linecap:butt;stroke-linejoin:miter;stroke-opacity:1"/>
<path class="bond-48 atom-51 atom-52" d="M 676.9,364.0 L 667.4,368.6" style="fill:none;fill-rule:evenodd;stroke:#000000;stroke-width:2.0px;stroke-linecap:butt;stroke-linejoin:miter;stroke-opacity:1"/>
<path class="bond-48 atom-51 atom-52" d="M 676.8,365.8 L 668.9,369.6" style="fill:none;fill-rule:evenodd;stroke:#000000;stroke-width:2.0px;stroke-linecap:butt;stroke-linejoin:miter;stroke-opacity:1"/>
<path class="bond-49 atom-52 atom-53" d="M 667.4,368.6 L 660.9,364.2" style="fill:none;fill-rule:evenodd;stroke:#000000;stroke-width:2.0px;stroke-linecap:butt;stroke-linejoin:miter;stroke-opacity:1"/>
<path class="bond-50 atom-53 atom-54" d="M 656.3,363.7 L 649.0,367.2" style="fill:none;fill-rule:evenodd;stroke:#000000;stroke-width:2.0px;stroke-linecap:butt;stroke-linejoin:miter;stroke-opacity:1"/>
<path class="bond-51 atom-54 atom-55" d="M 649.0,367.2 L 640.3,361.2" style="fill:none;fill-rule:evenodd;stroke:#000000;stroke-width:2.0px;stroke-linecap:butt;stroke-linejoin:miter;stroke-opacity:1"/>
<path class="bond-52 atom-55 atom-56" d="M 640.3,361.2 L 630.7,365.8" style="fill:none;fill-rule:evenodd;stroke:#000000;stroke-width:2.0px;stroke-linecap:butt;stroke-linejoin:miter;stroke-opacity:1"/>
<path class="bond-52 atom-55 atom-56" d="M 640.1,363.0 L 632.2,366.8" style="fill:none;fill-rule:evenodd;stroke:#000000;stroke-width:2.0px;stroke-linecap:butt;stroke-linejoin:miter;stroke-opacity:1"/>
<path class="bond-53 atom-56 atom-57" d="M 630.7,365.8 L 623.9,361.2" style="fill:none;fill-rule:evenodd;stroke:#000000;stroke-width:2.0px;stroke-linecap:butt;stroke-linejoin:miter;stroke-opacity:1"/>
<path class="bond-54 atom-55 atom-58" d="M 640.3,361.2 L 640.9,353.2" style="fill:none;fill-rule:evenodd;stroke:#000000;stroke-width:2.0px;stroke-linecap:butt;stroke-linejoin:miter;stroke-opacity:1"/>
<path class="bond-55 atom-58 atom-59" d="M 641.3,348.2 L 641.7,342.6" style="fill:none;fill-rule:evenodd;stroke:#000000;stroke-width:2.0px;stroke-linecap:butt;stroke-linejoin:miter;stroke-opacity:1"/>
<path class="bond-56 atom-58 atom-60" d="M 642.7,351.6 L 649.3,352.1" style="fill:none;fill-rule:evenodd;stroke:#000000;stroke-width:2.0px;stroke-linecap:butt;stroke-linejoin:miter;stroke-opacity:1"/>
<path class="bond-56 atom-58 atom-60" d="M 642.9,350.0 L 649.4,350.5" style="fill:none;fill-rule:evenodd;stroke:#000000;stroke-width:2.0px;stroke-linecap:butt;stroke-linejoin:miter;stroke-opacity:1"/>
<path class="bond-57 atom-58 atom-61" d="M 639.4,349.7 L 632.9,349.2" style="fill:none;fill-rule:evenodd;stroke:#000000;stroke-width:2.0px;stroke-linecap:butt;stroke-linejoin:miter;stroke-opacity:1"/>
<path class="bond-57 atom-58 atom-61" d="M 639.3,351.3 L 632.8,350.8" style="fill:none;fill-rule:evenodd;stroke:#000000;stroke-width:2.0px;stroke-linecap:butt;stroke-linejoin:miter;stroke-opacity:1"/>
<path class="bond-58 atom-51 atom-62" d="M 676.9,364.0 L 677.5,356.1" style="fill:none;fill-rule:evenodd;stroke:#000000;stroke-width:2.0px;stroke-linecap:butt;stroke-linejoin:miter;stroke-opacity:1"/>
<path class="bond-59 atom-35 atom-63" d="M 675.3,385.1 L 674.7,393.3" style="fill:none;fill-rule:evenodd;stroke:#000000;stroke-width:2.0px;stroke-linecap:butt;stroke-linejoin:miter;stroke-opacity:1"/>
<path class="bond-60 atom-12 atom-7" d="M 528.0,384.6 L 528.8,374.1" style="fill:none;fill-rule:evenodd;stroke:#000000;stroke-width:2.0px;stroke-linecap:butt;stroke-linejoin:miter;stroke-opacity:1"/>
<path class="bond-61 atom-26 atom-17" d="M 582.1,399.4 L 573.4,393.4" style="fill:none;fill-rule:evenodd;stroke:#000000;stroke-width:2.0px;stroke-linecap:butt;stroke-linejoin:miter;stroke-opacity:1"/>
<path class="bond-62 atom-25 atom-20" d="M 591.7,394.8 L 592.5,384.2" style="fill:none;fill-rule:evenodd;stroke:#000000;stroke-width:2.0px;stroke-linecap:butt;stroke-linejoin:miter;stroke-opacity:1"/>
<path class="bond-63 atom-56 atom-30" d="M 630.7,365.8 L 629.9,376.4" style="fill:none;fill-rule:evenodd;stroke:#000000;stroke-width:2.0px;stroke-linecap:butt;stroke-linejoin:miter;stroke-opacity:1"/>
<path class="bond-64 atom-54 atom-32" d="M 649.0,367.2 L 648.2,377.8" style="fill:none;fill-rule:evenodd;stroke:#000000;stroke-width:2.0px;stroke-linecap:butt;stroke-linejoin:miter;stroke-opacity:1"/>
<path class="bond-64 atom-54 atom-32" d="M 647.4,368.0 L 646.7,376.7" style="fill:none;fill-rule:evenodd;stroke:#000000;stroke-width:2.0px;stroke-linecap:butt;stroke-linejoin:miter;stroke-opacity:1"/>
<path class="bond-65 atom-52 atom-34" d="M 667.4,368.6 L 666.6,379.2" style="fill:none;fill-rule:evenodd;stroke:#000000;stroke-width:2.0px;stroke-linecap:butt;stroke-linejoin:miter;stroke-opacity:1"/>
<path class="bond-66 atom-50 atom-36" d="M 685.7,370.0 L 684.9,380.5" style="fill:none;fill-rule:evenodd;stroke:#000000;stroke-width:2.0px;stroke-linecap:butt;stroke-linejoin:miter;stroke-opacity:1"/>
<path class="bond-67 atom-44 atom-38" d="M 712.0,387.9 L 703.2,381.9" style="fill:none;fill-rule:evenodd;stroke:#000000;stroke-width:2.0px;stroke-linecap:butt;stroke-linejoin:miter;stroke-opacity:1"/>
<path d="M 537.9,369.7 L 538.3,369.5 L 538.8,369.8" style="fill:none;stroke:#000000;stroke-width:2.0px;stroke-linecap:butt;stroke-linejoin:miter;stroke-miterlimit:10;stroke-opacity:1;"/>
<path d="M 546.7,375.1 L 547.1,375.4 L 547.1,376.0" style="fill:none;stroke:#000000;stroke-width:2.0px;stroke-linecap:butt;stroke-linejoin:miter;stroke-miterlimit:10;stroke-opacity:1;"/>
<path d="M 537.2,390.4 L 536.7,390.6 L 536.3,390.3" style="fill:none;stroke:#000000;stroke-width:2.0px;stroke-linecap:butt;stroke-linejoin:miter;stroke-miterlimit:10;stroke-opacity:1;"/>
<path d="M 528.4,384.9 L 528.0,384.6 L 528.0,384.1" style="fill:none;stroke:#000000;stroke-width:2.0px;stroke-linecap:butt;stroke-linejoin:miter;stroke-miterlimit:10;stroke-opacity:1;"/>
<path d="M 574.1,383.3 L 574.2,382.8 L 574.7,382.6" style="fill:none;stroke:#000000;stroke-width:2.0px;stroke-linecap:butt;stroke-linejoin:miter;stroke-miterlimit:10;stroke-opacity:1;"/>
<path d="M 583.3,378.4 L 583.7,378.2 L 584.2,378.5" style="fill:none;stroke:#000000;stroke-width:2.0px;stroke-linecap:butt;stroke-linejoin:miter;stroke-miterlimit:10;stroke-opacity:1;"/>
<path d="M 601.6,379.8 L 602.1,379.6 L 602.5,379.9" style="fill:none;stroke:#000000;stroke-width:2.0px;stroke-linecap:butt;stroke-linejoin:miter;stroke-miterlimit:10;stroke-opacity:1;"/>
<path d="M 610.1,395.6 L 610.0,396.2 L 609.5,396.4" style="fill:none;stroke:#000000;stroke-width:2.0px;stroke-linecap:butt;stroke-linejoin:miter;stroke-miterlimit:10;stroke-opacity:1;"/>
<path d="M 600.9,400.5 L 600.5,400.8 L 600.0,400.5" style="fill:none;stroke:#000000;stroke-width:2.0px;stroke-linecap:butt;stroke-linejoin:miter;stroke-miterlimit:10;stroke-opacity:1;"/>
<path d="M 582.6,399.1 L 582.1,399.4 L 581.7,399.1" style="fill:none;stroke:#000000;stroke-width:2.0px;stroke-linecap:butt;stroke-linejoin:miter;stroke-miterlimit:10;stroke-opacity:1;"/>
<path d="M 638.3,382.1 L 638.7,382.4 L 639.2,382.1" style="fill:none;stroke:#000000;stroke-width:2.0px;stroke-linecap:butt;stroke-linejoin:miter;stroke-miterlimit:10;stroke-opacity:1;"/>
<path d="M 713.1,367.0 L 713.6,366.8 L 714.0,367.1" style="fill:none;stroke:#000000;stroke-width:2.0px;stroke-linecap:butt;stroke-linejoin:miter;stroke-miterlimit:10;stroke-opacity:1;"/>
<path d="M 721.9,372.4 L 722.3,372.7 L 722.3,373.3" style="fill:none;stroke:#000000;stroke-width:2.0px;stroke-linecap:butt;stroke-linejoin:miter;stroke-miterlimit:10;stroke-opacity:1;"/>
<path class="atom-0" d="M 626.5 330.9 L 627.1 330.9 L 627.1 334.6 L 629.1 334.6 L 629.1 335.1 L 626.5 335.1 L 626.5 330.9 " fill="#000000"/>
<path class="atom-0" d="M 629.4 330.9 L 629.9 330.9 L 629.9 331.4 L 629.4 331.4 L 629.4 330.9 M 629.4 332.0 L 629.9 332.0 L 629.9 335.1 L 629.4 335.1 L 629.4 332.0 " fill="#000000"/>
<path class="atom-1" d="M 626.9 323.8 L 628.3 326.0 Q 628.4 326.3, 628.6 326.7 Q 628.8 327.1, 628.8 327.1 L 628.8 323.8 L 629.4 323.8 L 629.4 328.0 L 628.8 328.0 L 627.3 325.6 Q 627.2 325.3, 627.0 325.0 Q 626.8 324.6, 626.7 324.5 L 626.7 328.0 L 626.2 328.0 L 626.2 323.8 L 626.9 323.8 " fill="#000000"/>
<path class="atom-1" d="M 630.2 327.2 Q 630.2 326.7, 630.6 326.5 Q 631.0 326.2, 631.7 326.2 L 632.2 326.2 L 632.2 326.1 Q 632.2 325.7, 632.0 325.5 Q 631.9 325.4, 631.5 325.4 Q 631.2 325.4, 631.0 325.4 Q 630.8 325.4, 630.5 325.6 L 630.4 325.2 Q 630.9 324.9, 631.5 324.9 Q 632.1 324.9, 632.4 325.2 Q 632.7 325.5, 632.7 326.1 L 632.7 328.0 L 632.3 328.0 Q 632.3 328.0, 632.3 327.9 Q 632.3 327.8, 632.2 327.7 Q 631.8 328.1, 631.2 328.1 Q 630.7 328.1, 630.5 327.9 Q 630.2 327.6, 630.2 327.2 M 630.8 327.2 Q 630.8 327.4, 630.9 327.6 Q 631.0 327.7, 631.3 327.7 Q 631.6 327.7, 631.8 327.6 Q 632.0 327.5, 632.2 327.3 L 632.2 326.6 L 631.8 326.6 Q 631.3 326.6, 631.0 326.8 Q 630.8 326.9, 630.8 327.2 " fill="#000000"/>
<path class="atom-2" d="M 626.2 316.7 L 626.7 316.7 L 626.7 321.0 L 626.2 321.0 L 626.2 316.7 M 628.5 316.7 L 629.3 316.7 L 627.6 318.7 L 629.4 321.0 L 628.7 321.0 L 626.9 318.7 L 628.5 316.7 " fill="#000000"/>
<path class="atom-13" d="M 553.9 393.5 Q 553.9 393.5, 554.1 393.6 Q 554.3 393.6, 554.5 393.7 Q 554.7 393.7, 555.0 393.7 Q 555.4 393.7, 555.6 393.6 Q 555.8 393.4, 555.8 393.0 Q 555.8 392.8, 555.7 392.6 Q 555.6 392.5, 555.4 392.4 Q 555.2 392.3, 554.9 392.2 Q 554.6 392.1, 554.3 392.0 Q 554.1 391.9, 553.9 391.7 Q 553.8 391.5, 553.8 391.1 Q 553.8 390.5, 554.1 390.2 Q 554.5 389.9, 555.2 389.9 Q 555.7 389.9, 556.3 390.1 L 556.1 390.6 Q 555.6 390.4, 555.3 390.4 Q 554.8 390.4, 554.6 390.5 Q 554.4 390.7, 554.4 391.0 Q 554.4 391.2, 554.5 391.4 Q 554.6 391.5, 554.8 391.6 Q 555.0 391.7, 555.3 391.8 Q 555.6 391.9, 555.9 392.0 Q 556.1 392.1, 556.3 392.4 Q 556.4 392.6, 556.4 393.0 Q 556.4 393.6, 556.0 393.9 Q 555.6 394.2, 555.0 394.2 Q 554.6 394.2, 554.3 394.1 Q 554.0 394.1, 553.7 393.9 L 553.9 393.5 " fill="#000000"/>
<path class="atom-14" d="M 559.1 383.3 Q 559.1 382.2, 559.6 381.7 Q 560.1 381.1, 561.0 381.1 Q 562.0 381.1, 562.5 381.7 Q 563.0 382.2, 563.0 383.3 Q 563.0 384.3, 562.5 384.9 Q 562.0 385.5, 561.0 385.5 Q 560.1 385.5, 559.6 384.9 Q 559.1 384.3, 559.1 383.3 M 561.0 385.0 Q 561.7 385.0, 562.0 384.5 Q 562.4 384.1, 562.4 383.3 Q 562.4 382.4, 562.0 382.0 Q 561.7 381.6, 561.0 381.6 Q 560.4 381.6, 560.0 382.0 Q 559.7 382.4, 559.7 383.3 Q 559.7 384.1, 560.0 384.5 Q 560.4 385.0, 561.0 385.0 " fill="#000000"/>
<path class="atom-15" d="M 547.1 400.8 Q 547.1 399.8, 547.6 399.2 Q 548.1 398.6, 549.1 398.6 Q 550.0 398.6, 550.5 399.2 Q 551.0 399.8, 551.0 400.8 Q 551.0 401.8, 550.5 402.4 Q 550.0 403.0, 549.1 403.0 Q 548.1 403.0, 547.6 402.4 Q 547.1 401.8, 547.1 400.8 M 549.1 402.5 Q 549.7 402.5, 550.1 402.1 Q 550.4 401.6, 550.4 400.8 Q 550.4 399.9, 550.1 399.5 Q 549.7 399.1, 549.1 399.1 Q 548.4 399.1, 548.1 399.5 Q 547.7 399.9, 547.7 400.8 Q 547.7 401.6, 548.1 402.1 Q 548.4 402.5, 549.1 402.5 " fill="#000000"/>
<path class="atom-16" d="M 562.9 395.9 L 564.3 398.1 Q 564.4 398.3, 564.6 398.7 Q 564.9 399.1, 564.9 399.2 L 564.9 395.9 L 565.4 395.9 L 565.4 400.1 L 564.8 400.1 L 563.4 397.6 Q 563.2 397.4, 563.0 397.0 Q 562.8 396.7, 562.8 396.6 L 562.8 400.1 L 562.2 400.1 L 562.2 395.9 L 562.9 395.9 " fill="#000000"/>
<path class="atom-16" d="M 562.2 400.5 L 562.7 400.5 L 562.7 402.3 L 564.9 402.3 L 564.9 400.5 L 565.5 400.5 L 565.5 404.8 L 564.9 404.8 L 564.9 402.8 L 562.7 402.8 L 562.7 404.8 L 562.2 404.8 L 562.2 400.5 " fill="#000000"/>
<path class="atom-27" d="M 619.2 382.4 Q 619.2 382.5, 619.4 382.5 Q 619.6 382.6, 619.8 382.7 Q 620.1 382.7, 620.3 382.7 Q 620.7 382.7, 620.9 382.5 Q 621.1 382.3, 621.1 382.0 Q 621.1 381.8, 621.0 381.6 Q 620.9 381.5, 620.7 381.4 Q 620.5 381.3, 620.2 381.2 Q 619.9 381.1, 619.6 381.0 Q 619.4 380.9, 619.3 380.7 Q 619.1 380.4, 619.1 380.1 Q 619.1 379.5, 619.5 379.2 Q 619.8 378.9, 620.5 378.9 Q 621.0 378.9, 621.6 379.1 L 621.5 379.6 Q 620.9 379.4, 620.6 379.4 Q 620.1 379.4, 619.9 379.5 Q 619.7 379.7, 619.7 380.0 Q 619.7 380.2, 619.8 380.4 Q 619.9 380.5, 620.1 380.6 Q 620.3 380.6, 620.6 380.7 Q 620.9 380.9, 621.2 381.0 Q 621.4 381.1, 621.6 381.3 Q 621.7 381.6, 621.7 382.0 Q 621.7 382.6, 621.3 382.9 Q 620.9 383.2, 620.3 383.2 Q 619.9 383.2, 619.6 383.1 Q 619.3 383.1, 619.0 382.9 L 619.2 382.4 " fill="#000000"/>
<path class="atom-28" d="M 613.8 371.4 Q 613.8 370.4, 614.3 369.8 Q 614.8 369.3, 615.8 369.3 Q 616.7 369.3, 617.2 369.8 Q 617.7 370.4, 617.7 371.4 Q 617.7 372.5, 617.2 373.1 Q 616.7 373.6, 615.8 373.6 Q 614.8 373.6, 614.3 373.1 Q 613.8 372.5, 613.8 371.4 M 615.8 373.2 Q 616.4 373.2, 616.8 372.7 Q 617.1 372.3, 617.1 371.4 Q 617.1 370.6, 616.8 370.2 Q 616.4 369.8, 615.8 369.8 Q 615.1 369.8, 614.8 370.2 Q 614.4 370.6, 614.4 371.4 Q 614.4 372.3, 614.8 372.7 Q 615.1 373.2, 615.8 373.2 " fill="#000000"/>
<path class="atom-29" d="M 623.0 390.6 Q 623.0 389.5, 623.5 389.0 Q 624.0 388.4, 625.0 388.4 Q 625.9 388.4, 626.4 389.0 Q 626.9 389.5, 626.9 390.6 Q 626.9 391.6, 626.4 392.2 Q 625.9 392.8, 625.0 392.8 Q 624.0 392.8, 623.5 392.2 Q 623.0 391.6, 623.0 390.6 M 625.0 392.3 Q 625.6 392.3, 626.0 391.8 Q 626.3 391.4, 626.3 390.6 Q 626.3 389.7, 626.0 389.3 Q 625.6 388.9, 625.0 388.9 Q 624.3 388.9, 624.0 389.3 Q 623.6 389.7, 623.6 390.6 Q 623.6 391.4, 624.0 391.8 Q 624.3 392.3, 625.0 392.3 " fill="#000000"/>
<path class="atom-33" d="M 656.1 381.6 L 657.5 383.9 Q 657.6 384.1, 657.8 384.5 Q 658.0 384.9, 658.1 384.9 L 658.1 381.6 L 658.6 381.6 L 658.6 385.9 L 658.0 385.9 L 656.5 383.4 Q 656.4 383.1, 656.2 382.8 Q 656.0 382.5, 655.9 382.4 L 655.9 385.9 L 655.4 385.9 L 655.4 381.6 L 656.1 381.6 " fill="#000000"/>
<path class="atom-37" d="M 691.7 386.5 Q 691.7 385.5, 692.2 384.9 Q 692.7 384.4, 693.6 384.4 Q 694.6 384.4, 695.1 384.9 Q 695.6 385.5, 695.6 386.5 Q 695.6 387.6, 695.1 388.2 Q 694.6 388.7, 693.6 388.7 Q 692.7 388.7, 692.2 388.2 Q 691.7 387.6, 691.7 386.5 M 693.6 388.3 Q 694.3 388.3, 694.6 387.8 Q 695.0 387.4, 695.0 386.5 Q 695.0 385.7, 694.6 385.3 Q 694.3 384.9, 693.6 384.9 Q 693.0 384.9, 692.6 385.3 Q 692.3 385.7, 692.3 386.5 Q 692.3 387.4, 692.6 387.8 Q 693.0 388.3, 693.6 388.3 " fill="#000000"/>
<path class="atom-43" d="M 729.3 387.2 L 730.7 389.4 Q 730.9 389.6, 731.1 390.0 Q 731.3 390.4, 731.3 390.5 L 731.3 387.2 L 731.9 387.2 L 731.9 391.4 L 731.3 391.4 L 729.8 389.0 Q 729.6 388.7, 729.5 388.3 Q 729.3 388.0, 729.2 387.9 L 729.2 391.4 L 728.7 391.4 L 728.7 387.2 L 729.3 387.2 " fill="#000000"/>
<path class="atom-43" d="M 732.7 387.2 L 733.3 387.2 L 733.3 389.0 L 735.5 389.0 L 735.5 387.2 L 736.0 387.2 L 736.0 391.4 L 735.5 391.4 L 735.5 389.5 L 733.3 389.5 L 733.3 391.4 L 732.7 391.4 L 732.7 387.2 " fill="#000000"/>
<path class="atom-43" d="M 736.9 391.3 Q 737.0 391.0, 737.2 390.9 Q 737.5 390.7, 737.8 390.7 Q 738.2 390.7, 738.5 390.9 Q 738.7 391.2, 738.7 391.6 Q 738.7 392.0, 738.4 392.4 Q 738.1 392.8, 737.4 393.2 L 738.7 393.2 L 738.7 393.5 L 736.9 393.5 L 736.9 393.3 Q 737.4 392.9, 737.7 392.6 Q 738.0 392.3, 738.1 392.1 Q 738.3 391.8, 738.3 391.6 Q 738.3 391.3, 738.2 391.2 Q 738.0 391.0, 737.8 391.0 Q 737.6 391.0, 737.4 391.1 Q 737.3 391.2, 737.2 391.4 L 736.9 391.3 " fill="#000000"/>
<path class="atom-45" d="M 710.0 399.9 Q 710.0 400.0, 710.2 400.0 Q 710.4 400.1, 710.6 400.2 Q 710.8 400.2, 711.1 400.2 Q 711.5 400.2, 711.7 400.0 Q 711.9 399.8, 711.9 399.5 Q 711.9 399.3, 711.8 399.1 Q 711.7 399.0, 711.5 398.9 Q 711.3 398.8, 711.0 398.7 Q 710.7 398.6, 710.4 398.5 Q 710.2 398.4, 710.0 398.2 Q 709.9 397.9, 709.9 397.6 Q 709.9 397.0, 710.3 396.7 Q 710.6 396.4, 711.3 396.4 Q 711.8 396.4, 712.4 396.6 L 712.2 397.1 Q 711.7 396.9, 711.4 396.9 Q 710.9 396.9, 710.7 397.0 Q 710.5 397.2, 710.5 397.5 Q 710.5 397.7, 710.6 397.9 Q 710.7 398.0, 710.9 398.1 Q 711.1 398.1, 711.4 398.2 Q 711.7 398.4, 712.0 398.5 Q 712.2 398.6, 712.4 398.8 Q 712.5 399.1, 712.5 399.5 Q 712.5 400.1, 712.1 400.4 Q 711.7 400.7, 711.1 400.7 Q 710.7 400.7, 710.4 400.6 Q 710.1 400.6, 709.8 400.4 L 710.0 399.9 " fill="#000000"/>
<path class="atom-46" d="M 708.4 409.1 Q 708.4 408.1, 708.9 407.5 Q 709.4 406.9, 710.4 406.9 Q 711.3 406.9, 711.8 407.5 Q 712.3 408.1, 712.3 409.1 Q 712.3 410.1, 711.8 410.7 Q 711.3 411.3, 710.4 411.3 Q 709.4 411.3, 708.9 410.7 Q 708.4 410.1, 708.4 409.1 M 710.4 410.8 Q 711.0 410.8, 711.4 410.4 Q 711.7 409.9, 711.7 409.1 Q 711.7 408.2, 711.4 407.8 Q 711.0 407.4, 710.4 407.4 Q 709.7 407.4, 709.4 407.8 Q 709.0 408.2, 709.0 409.1 Q 709.0 409.9, 709.4 410.4 Q 709.7 410.8, 710.4 410.8 " fill="#000000"/>
<path class="atom-46" d="M 713.0 407.0 L 713.6 407.0 L 713.6 408.8 L 715.7 408.8 L 715.7 407.0 L 716.3 407.0 L 716.3 411.2 L 715.7 411.2 L 715.7 409.2 L 713.6 409.2 L 713.6 411.2 L 713.0 411.2 L 713.0 407.0 " fill="#000000"/>
<path class="atom-47" d="M 698.6 397.7 Q 698.6 396.7, 699.1 396.1 Q 699.6 395.5, 700.6 395.5 Q 701.5 395.5, 702.0 396.1 Q 702.5 396.7, 702.5 397.7 Q 702.5 398.7, 702.0 399.3 Q 701.5 399.9, 700.6 399.9 Q 699.7 399.9, 699.1 399.3 Q 698.6 398.7, 698.6 397.7 M 700.6 399.4 Q 701.2 399.4, 701.6 399.0 Q 701.9 398.5, 701.9 397.7 Q 701.9 396.9, 701.6 396.4 Q 701.2 396.0, 700.6 396.0 Q 699.9 396.0, 699.6 396.4 Q 699.2 396.9, 699.2 397.7 Q 699.2 398.6, 699.6 399.0 Q 699.9 399.4, 700.6 399.4 " fill="#000000"/>
<path class="atom-48" d="M 719.8 399.3 Q 719.8 398.3, 720.3 397.7 Q 720.8 397.1, 721.7 397.1 Q 722.7 397.1, 723.2 397.7 Q 723.7 398.3, 723.7 399.3 Q 723.7 400.3, 723.2 400.9 Q 722.7 401.5, 721.7 401.5 Q 720.8 401.5, 720.3 400.9 Q 719.8 400.3, 719.8 399.3 M 721.7 401.0 Q 722.4 401.0, 722.7 400.6 Q 723.1 400.1, 723.1 399.3 Q 723.1 398.5, 722.7 398.0 Q 722.4 397.6, 721.7 397.6 Q 721.1 397.6, 720.7 398.0 Q 720.4 398.5, 720.4 399.3 Q 720.4 400.2, 720.7 400.6 Q 721.1 401.0, 721.7 401.0 " fill="#000000"/>
<path class="atom-49" d="M 694.3 363.2 L 695.7 365.5 Q 695.8 365.7, 696.1 366.1 Q 696.3 366.5, 696.3 366.5 L 696.3 363.2 L 696.9 363.2 L 696.9 367.5 L 696.3 367.5 L 694.8 365.0 Q 694.6 364.7, 694.4 364.4 Q 694.2 364.1, 694.2 364.0 L 694.2 367.5 L 693.6 367.5 L 693.6 363.2 L 694.3 363.2 " fill="#000000"/>
<path class="atom-53" d="M 656.7 362.6 Q 656.7 361.6, 657.2 361.0 Q 657.7 360.5, 658.6 360.5 Q 659.5 360.5, 660.1 361.0 Q 660.6 361.6, 660.6 362.6 Q 660.6 363.6, 660.0 364.2 Q 659.5 364.8, 658.6 364.8 Q 657.7 364.8, 657.2 364.2 Q 656.7 363.7, 656.7 362.6 M 658.6 364.3 Q 659.3 364.3, 659.6 363.9 Q 660.0 363.5, 660.0 362.6 Q 660.0 361.8, 659.6 361.4 Q 659.3 360.9, 658.6 360.9 Q 658.0 360.9, 657.6 361.4 Q 657.3 361.8, 657.3 362.6 Q 657.3 363.5, 657.6 363.9 Q 658.0 364.3, 658.6 364.3 " fill="#000000"/>
<path class="atom-57" d="M 613.8 357.7 L 614.3 357.7 L 614.3 359.5 L 616.5 359.5 L 616.5 357.7 L 617.1 357.7 L 617.1 362.0 L 616.5 362.0 L 616.5 360.0 L 614.3 360.0 L 614.3 362.0 L 613.8 362.0 L 613.8 357.7 " fill="#000000"/>
<path class="atom-57" d="M 617.9 361.8 Q 618.0 361.5, 618.3 361.4 Q 618.5 361.2, 618.9 361.2 Q 619.3 361.2, 619.5 361.5 Q 619.8 361.7, 619.8 362.1 Q 619.8 362.5, 619.5 362.9 Q 619.1 363.3, 618.5 363.8 L 619.8 363.8 L 619.8 364.1 L 617.9 364.1 L 617.9 363.8 Q 618.4 363.4, 618.7 363.2 Q 619.1 362.9, 619.2 362.6 Q 619.4 362.4, 619.4 362.1 Q 619.4 361.9, 619.2 361.7 Q 619.1 361.6, 618.9 361.6 Q 618.6 361.6, 618.5 361.7 Q 618.3 361.7, 618.2 361.9 L 617.9 361.8 " fill="#000000"/>
<path class="atom-57" d="M 621.0 357.7 L 622.4 360.0 Q 622.6 360.2, 622.8 360.6 Q 623.0 361.0, 623.0 361.0 L 623.0 357.7 L 623.6 357.7 L 623.6 362.0 L 623.0 362.0 L 621.5 359.5 Q 621.3 359.2, 621.1 358.9 Q 621.0 358.5, 620.9 358.4 L 620.9 362.0 L 620.4 362.0 L 620.4 357.7 L 621.0 357.7 " fill="#000000"/>
<path class="atom-58" d="M 639.9 352.1 Q 639.9 352.1, 640.1 352.2 Q 640.3 352.3, 640.5 352.3 Q 640.8 352.4, 641.0 352.4 Q 641.4 352.4, 641.6 352.2 Q 641.9 352.0, 641.9 351.7 Q 641.9 351.4, 641.7 351.3 Q 641.6 351.1, 641.4 351.1 Q 641.3 351.0, 641.0 350.9 Q 640.6 350.8, 640.4 350.7 Q 640.1 350.6, 640.0 350.3 Q 639.8 350.1, 639.8 349.7 Q 639.8 349.2, 640.2 348.9 Q 640.5 348.5, 641.3 348.5 Q 641.8 348.5, 642.3 348.8 L 642.2 349.2 Q 641.7 349.0, 641.3 349.0 Q 640.9 349.0, 640.6 349.2 Q 640.4 349.4, 640.4 349.6 Q 640.4 349.9, 640.5 350.0 Q 640.6 350.1, 640.8 350.2 Q 641.0 350.3, 641.3 350.4 Q 641.7 350.5, 641.9 350.6 Q 642.1 350.8, 642.3 351.0 Q 642.4 351.2, 642.4 351.7 Q 642.4 352.2, 642.1 352.6 Q 641.7 352.9, 641.0 352.9 Q 640.6 352.9, 640.3 352.8 Q 640.1 352.7, 639.7 352.6 L 639.9 352.1 " fill="#000000"/>
<path class="atom-59" d="M 639.9 340.1 Q 639.9 339.1, 640.4 338.5 Q 640.9 337.9, 641.9 337.9 Q 642.8 337.9, 643.3 338.5 Q 643.8 339.1, 643.8 340.1 Q 643.8 341.1, 643.3 341.7 Q 642.8 342.3, 641.9 342.3 Q 641.0 342.3, 640.4 341.7 Q 639.9 341.1, 639.9 340.1 M 641.9 341.8 Q 642.5 341.8, 642.9 341.4 Q 643.2 340.9, 643.2 340.1 Q 643.2 339.2, 642.9 338.8 Q 642.5 338.4, 641.9 338.4 Q 641.2 338.4, 640.9 338.8 Q 640.5 339.2, 640.5 340.1 Q 640.5 340.9, 640.9 341.4 Q 641.2 341.8, 641.9 341.8 " fill="#000000"/>
<path class="atom-59" d="M 644.5 338.0 L 645.1 338.0 L 645.1 339.8 L 647.2 339.8 L 647.2 338.0 L 647.8 338.0 L 647.8 342.2 L 647.2 342.2 L 647.2 340.3 L 645.1 340.3 L 645.1 342.2 L 644.5 342.2 L 644.5 338.0 " fill="#000000"/>
<path class="atom-60" d="M 649.7 351.5 Q 649.7 350.4, 650.2 349.9 Q 650.7 349.3, 651.7 349.3 Q 652.6 349.3, 653.1 349.9 Q 653.6 350.4, 653.6 351.5 Q 653.6 352.5, 653.1 353.1 Q 652.6 353.7, 651.7 353.7 Q 650.7 353.7, 650.2 353.1 Q 649.7 352.5, 649.7 351.5 M 651.7 353.2 Q 652.3 353.2, 652.7 352.7 Q 653.0 352.3, 653.0 351.5 Q 653.0 350.6, 652.7 350.2 Q 652.3 349.8, 651.7 349.8 Q 651.0 349.8, 650.7 350.2 Q 650.3 350.6, 650.3 351.5 Q 650.3 352.3, 650.7 352.7 Q 651.0 353.2, 651.7 353.2 " fill="#000000"/>
<path class="atom-61" d="M 628.6 349.9 Q 628.6 348.8, 629.1 348.3 Q 629.6 347.7, 630.5 347.7 Q 631.5 347.7, 632.0 348.3 Q 632.5 348.8, 632.5 349.9 Q 632.5 350.9, 632.0 351.5 Q 631.4 352.1, 630.5 352.1 Q 629.6 352.1, 629.1 351.5 Q 628.6 350.9, 628.6 349.9 M 630.5 351.6 Q 631.2 351.6, 631.5 351.1 Q 631.9 350.7, 631.9 349.9 Q 631.9 349.0, 631.5 348.6 Q 631.2 348.2, 630.5 348.2 Q 629.9 348.2, 629.5 348.6 Q 629.2 349.0, 629.2 349.9 Q 629.2 350.7, 629.5 351.1 Q 629.9 351.6, 630.5 351.6 " fill="#000000"/>
<path class="atom-62" d="M 676.1 353.6 Q 676.1 352.5, 676.6 351.9 Q 677.1 351.4, 678.0 351.4 Q 678.9 351.4, 679.4 352.0 L 679.0 352.3 Q 678.6 351.9, 678.0 351.9 Q 677.4 351.9, 677.0 352.3 Q 676.7 352.7, 676.7 353.6 Q 676.7 354.4, 677.0 354.8 Q 677.4 355.3, 678.1 355.3 Q 678.6 355.3, 679.1 355.0 L 679.3 355.4 Q 679.0 355.6, 678.7 355.7 Q 678.4 355.7, 678.0 355.7 Q 677.1 355.7, 676.6 355.2 Q 676.1 354.6, 676.1 353.6 " fill="#000000"/>
<path class="atom-62" d="M 679.8 351.1 L 680.3 351.1 L 680.3 355.7 L 679.8 355.7 L 679.8 351.1 " fill="#000000"/>
<path class="atom-63" d="M 672.9 395.9 Q 672.9 394.8, 673.4 394.3 Q 673.9 393.7, 674.8 393.7 Q 675.7 393.7, 676.2 394.3 L 675.8 394.6 Q 675.4 394.2, 674.8 394.2 Q 674.2 394.2, 673.8 394.6 Q 673.5 395.0, 673.5 395.9 Q 673.5 396.7, 673.8 397.1 Q 674.2 397.6, 674.9 397.6 Q 675.4 397.6, 675.9 397.3 L 676.1 397.7 Q 675.8 397.9, 675.5 398.0 Q 675.2 398.0, 674.8 398.0 Q 673.9 398.0, 673.4 397.5 Q 672.9 396.9, 672.9 395.9 " fill="#000000"/>
<path class="atom-63" d="M 676.6 393.4 L 677.1 393.4 L 677.1 398.0 L 676.6 398.0 L 676.6 393.4 " fill="#000000"/>
<path class="atom-0" d="M 631.1,333.0 L 631.1,333.0 L 631.1,333.0 L 631.1,333.1 L 631.1,333.1 L 631.1,333.1 L 631.1,333.1 L 631.1,333.2 L 631.1,333.2 L 631.0,333.2 L 631.0,333.2 L 631.0,333.2 L 631.0,333.3 L 631.0,333.3 L 630.9,333.3 L 630.9,333.3 L 630.9,333.3 L 630.9,333.3 L 630.8,333.3 L 630.8,333.3 L 630.8,333.3 L 630.8,333.3 L 630.7,333.3 L 630.7,333.3 L 630.7,333.3 L 630.7,333.2 L 630.6,333.2 L 630.6,333.2 L 630.6,333.2 L 630.6,333.2 L 630.6,333.2 L 630.6,333.1 L 630.6,333.1 L 630.5,333.1 L 630.5,333.1 L 630.5,333.0 L 630.5,333.0 L 630.5,333.0 L 630.5,333.0 L 630.5,332.9 L 630.5,332.9 L 630.6,332.9 L 630.6,332.9 L 630.6,332.8 L 630.6,332.8 L 630.6,332.8 L 630.6,332.8 L 630.6,332.8 L 630.7,332.7 L 630.7,332.7 L 630.7,332.7 L 630.7,332.7 L 630.8,332.7 L 630.8,332.7 L 630.8,332.7 L 630.8,332.7 L 630.9,332.7 L 630.9,332.7 L 630.9,332.7 L 630.9,332.7 L 631.0,332.7 L 631.0,332.7 L 631.0,332.7 L 631.0,332.8 L 631.0,332.8 L 631.1,332.8 L 631.1,332.8 L 631.1,332.8 L 631.1,332.9 L 631.1,332.9 L 631.1,332.9 L 631.1,332.9 L 631.1,333.0 L 631.1,333.0 L 630.8,333.0 Z" style="fill:#000000;fill-rule:evenodd;fill-opacity:1;stroke:#000000;stroke-width:0.0px;stroke-linecap:butt;stroke-linejoin:miter;stroke-miterlimit:10;stroke-opacity:1;"/>
<path class="atom-1" d="M 633.9,325.9 L 633.9,325.9 L 633.9,326.0 L 633.9,326.0 L 633.9,326.0 L 633.9,326.0 L 633.9,326.1 L 633.9,326.1 L 633.9,326.1 L 633.9,326.1 L 633.8,326.2 L 633.8,326.2 L 633.8,326.2 L 633.8,326.2 L 633.7,326.2 L 633.7,326.2 L 633.7,326.2 L 633.7,326.2 L 633.6,326.2 L 633.6,326.2 L 633.6,326.2 L 633.6,326.2 L 633.5,326.2 L 633.5,326.2 L 633.5,326.2 L 633.5,326.2 L 633.5,326.2 L 633.4,326.1 L 633.4,326.1 L 633.4,326.1 L 633.4,326.1 L 633.4,326.1 L 633.4,326.0 L 633.3,326.0 L 633.3,326.0 L 633.3,326.0 L 633.3,325.9 L 633.3,325.9 L 633.3,325.9 L 633.3,325.9 L 633.3,325.8 L 633.4,325.8 L 633.4,325.8 L 633.4,325.8 L 633.4,325.7 L 633.4,325.7 L 633.4,325.7 L 633.5,325.7 L 633.5,325.7 L 633.5,325.7 L 633.5,325.6 L 633.5,325.6 L 633.6,325.6 L 633.6,325.6 L 633.6,325.6 L 633.6,325.6 L 633.7,325.6 L 633.7,325.6 L 633.7,325.6 L 633.7,325.6 L 633.8,325.7 L 633.8,325.7 L 633.8,325.7 L 633.8,325.7 L 633.9,325.7 L 633.9,325.7 L 633.9,325.8 L 633.9,325.8 L 633.9,325.8 L 633.9,325.8 L 633.9,325.8 L 633.9,325.9 L 633.9,325.9 L 633.9,325.9 L 633.6,325.9 Z" style="fill:#000000;fill-rule:evenodd;fill-opacity:1;stroke:#000000;stroke-width:0.0px;stroke-linecap:butt;stroke-linejoin:miter;stroke-miterlimit:10;stroke-opacity:1;"/>
<path class="atom-2" d="M 630.6,318.9 L 630.6,318.9 L 630.6,318.9 L 630.6,318.9 L 630.6,319.0 L 630.6,319.0 L 630.6,319.0 L 630.6,319.0 L 630.6,319.0 L 630.6,319.1 L 630.5,319.1 L 630.5,319.1 L 630.5,319.1 L 630.5,319.1 L 630.4,319.1 L 630.4,319.1 L 630.4,319.1 L 630.4,319.2 L 630.3,319.2 L 630.3,319.2 L 630.3,319.1 L 630.3,319.1 L 630.2,319.1 L 630.2,319.1 L 630.2,319.1 L 630.2,319.1 L 630.2,319.1 L 630.1,319.1 L 630.1,319.1 L 630.1,319.0 L 630.1,319.0 L 630.1,319.0 L 630.1,319.0 L 630.0,318.9 L 630.0,318.9 L 630.0,318.9 L 630.0,318.9 L 630.0,318.8 L 630.0,318.8 L 630.0,318.8 L 630.0,318.8 L 630.1,318.7 L 630.1,318.7 L 630.1,318.7 L 630.1,318.7 L 630.1,318.7 L 630.1,318.6 L 630.2,318.6 L 630.2,318.6 L 630.2,318.6 L 630.2,318.6 L 630.2,318.6 L 630.3,318.6 L 630.3,318.6 L 630.3,318.6 L 630.3,318.6 L 630.4,318.6 L 630.4,318.6 L 630.4,318.6 L 630.4,318.6 L 630.5,318.6 L 630.5,318.6 L 630.5,318.6 L 630.5,318.6 L 630.6,318.6 L 630.6,318.7 L 630.6,318.7 L 630.6,318.7 L 630.6,318.7 L 630.6,318.8 L 630.6,318.8 L 630.6,318.8 L 630.6,318.8 L 630.6,318.9 L 630.3,318.9 Z" style="fill:#000000;fill-rule:evenodd;fill-opacity:1;stroke:#000000;stroke-width:0.0px;stroke-linecap:butt;stroke-linejoin:miter;stroke-miterlimit:10;stroke-opacity:1;"/>
<path class="legend" d="M 612.7 477.3 L 609.2 477.3 L 609.2 476.0 L 617.6 476.0 L 617.6 477.3 L 614.3 477.3 L 614.3 487.4 L 612.7 487.4 L 612.7 477.3 " fill="#000000"/>
<path class="legend" d="M 618.3 483.2 Q 618.3 481.2, 619.3 480.1 Q 620.3 479.0, 622.1 479.0 Q 623.9 479.0, 624.7 480.1 Q 625.5 481.1, 625.5 483.2 L 625.5 483.4 L 619.8 483.4 Q 619.8 484.8, 620.5 485.6 Q 621.1 486.3, 622.2 486.3 Q 622.9 486.3, 623.5 486.2 Q 624.1 486.0, 624.8 485.7 L 625.2 486.7 Q 624.4 487.1, 623.7 487.3 Q 622.9 487.5, 622.2 487.5 Q 620.3 487.5, 619.3 486.4 Q 618.3 485.2, 618.3 483.2 M 622.1 480.2 Q 621.2 480.2, 620.6 480.7 Q 620.0 481.3, 619.9 482.3 L 624.0 482.3 Q 623.9 481.2, 623.4 480.7 Q 623.0 480.2, 622.1 480.2 " fill="#000000"/>
<path class="legend" d="M 627.3 485.7 Q 628.0 486.0, 628.5 486.1 Q 629.1 486.3, 629.6 486.3 Q 630.3 486.3, 630.7 485.9 Q 631.1 485.6, 631.1 485.1 Q 631.1 484.7, 630.9 484.5 Q 630.7 484.2, 630.4 484.1 Q 630.2 484.0, 629.5 483.8 Q 629.4 483.7, 628.6 483.5 Q 627.9 483.2, 627.5 482.7 Q 627.1 482.1, 627.1 481.3 Q 627.1 480.3, 627.9 479.7 Q 628.6 479.0, 630.1 479.0 Q 630.8 479.0, 631.3 479.1 Q 631.9 479.3, 632.5 479.5 L 632.1 480.7 Q 631.5 480.5, 631.1 480.4 Q 630.6 480.2, 630.1 480.2 Q 629.4 480.2, 629.0 480.5 Q 628.6 480.8, 628.6 481.3 Q 628.6 481.8, 628.9 482.0 Q 629.2 482.2, 629.9 482.4 Q 630.1 482.5, 630.2 482.5 L 630.6 482.7 Q 631.3 482.9, 631.7 483.1 Q 632.1 483.4, 632.4 483.8 Q 632.7 484.3, 632.7 485.0 Q 632.7 486.2, 631.8 486.9 Q 631.0 487.5, 629.6 487.5 Q 628.8 487.5, 628.2 487.3 Q 627.5 487.2, 626.8 486.9 L 627.3 485.7 " fill="#000000"/>
<path class="legend" d="M 634.2 480.3 L 634.2 479.1 L 635.7 479.1 L 636.0 476.7 L 637.1 476.7 L 637.1 479.1 L 639.6 479.1 L 639.6 480.3 L 637.1 480.3 L 637.1 484.8 Q 637.1 486.3, 638.3 486.3 Q 638.8 486.3, 639.5 486.0 L 639.8 487.1 Q 638.9 487.5, 638.1 487.5 Q 637.0 487.5, 636.3 486.8 Q 635.6 486.2, 635.6 484.9 L 635.6 480.3 L 634.2 480.3 " fill="#000000"/>
</svg>