<svg xmlns="http://www.w3.org/2000/svg" xmlns:rdkit="http://www.rdkit.org/xml" xmlns:xlink="http://www.w3.org/1999/xlink" version="1.1" baseProfile="full" xml:space="preserve" width="750px" height="750px" viewBox="0 0 750 750">
<!-- END OF HEADER -->
<rect style="opacity:1.0;fill:#FFFFFF;stroke:none" width="250.0" height="250.0" x="0.0" y="0.0"> </rect>
<path class="bond-0 atom-0 atom-1" d="M 225.3,134.9 L 202.9,142.3" style="fill:none;fill-rule:evenodd;stroke:#000000;stroke-width:2.0px;stroke-linecap:butt;stroke-linejoin:miter;stroke-opacity:1"/>
<path class="bond-1 atom-1 atom-2" d="M 202.9,142.3 L 182.7,124.3" style="fill:none;fill-rule:evenodd;stroke:#000000;stroke-width:2.0px;stroke-linecap:butt;stroke-linejoin:miter;stroke-opacity:1"/>
<path class="bond-1 atom-1 atom-2" d="M 203.9,137.7 L 185.4,121.2" style="fill:none;fill-rule:evenodd;stroke:#000000;stroke-width:2.0px;stroke-linecap:butt;stroke-linejoin:miter;stroke-opacity:1"/>
<path class="bond-2 atom-2 atom-3" d="M 182.7,124.3 L 156.9,132.8" style="fill:none;fill-rule:evenodd;stroke:#000000;stroke-width:2.0px;stroke-linecap:butt;stroke-linejoin:miter;stroke-opacity:1"/>
<path class="bond-3 atom-3 atom-4" d="M 156.9,132.8 L 136.7,114.8" style="fill:none;fill-rule:evenodd;stroke:#000000;stroke-width:2.0px;stroke-linecap:butt;stroke-linejoin:miter;stroke-opacity:1"/>
<path class="bond-3 atom-3 atom-4" d="M 157.9,128.2 L 139.4,111.7" style="fill:none;fill-rule:evenodd;stroke:#000000;stroke-width:2.0px;stroke-linecap:butt;stroke-linejoin:miter;stroke-opacity:1"/>
<path class="bond-4 atom-4 atom-5" d="M 136.7,114.8 L 110.9,123.3" style="fill:none;fill-rule:evenodd;stroke:#000000;stroke-width:2.0px;stroke-linecap:butt;stroke-linejoin:miter;stroke-opacity:1"/>
<path class="bond-5 atom-5 atom-6" d="M 110.9,123.3 L 94.5,108.6" style="fill:none;fill-rule:evenodd;stroke:#000000;stroke-width:2.0px;stroke-linecap:butt;stroke-linejoin:miter;stroke-opacity:1"/>
<path class="bond-6 atom-6 atom-7" d="M 92.0,100.5 L 98.1,79.2" style="fill:none;fill-rule:evenodd;stroke:#000000;stroke-width:2.0px;stroke-linecap:butt;stroke-linejoin:miter;stroke-opacity:1"/>
<path class="bond-7 atom-7 atom-8" d="M 98.1,79.2 L 82.4,57.1" style="fill:none;fill-rule:evenodd;stroke:#000000;stroke-width:2.0px;stroke-linecap:butt;stroke-linejoin:miter;stroke-opacity:1"/>
<path class="bond-8 atom-8 atom-9" d="M 82.4,57.1 L 55.3,55.6" style="fill:none;fill-rule:evenodd;stroke:#000000;stroke-width:2.0px;stroke-linecap:butt;stroke-linejoin:miter;stroke-opacity:1"/>
<path class="bond-9 atom-9 atom-10" d="M 55.3,55.6 L 37.3,75.9" style="fill:none;fill-rule:evenodd;stroke:#000000;stroke-width:2.0px;stroke-linecap:butt;stroke-linejoin:miter;stroke-opacity:1"/>
<path class="bond-10 atom-10 atom-11" d="M 37.3,75.9 L 41.9,102.6" style="fill:none;fill-rule:evenodd;stroke:#000000;stroke-width:2.0px;stroke-linecap:butt;stroke-linejoin:miter;stroke-opacity:1"/>
<path class="bond-11 atom-11 atom-12" d="M 41.9,102.6 L 65.6,115.7" style="fill:none;fill-rule:evenodd;stroke:#000000;stroke-width:2.0px;stroke-linecap:butt;stroke-linejoin:miter;stroke-opacity:1"/>
<path class="bond-12 atom-12 atom-13" d="M 65.2,119.0 L 65.8,119.1" style="fill:none;fill-rule:evenodd;stroke:#000000;stroke-width:1.0px;stroke-linecap:butt;stroke-linejoin:miter;stroke-opacity:1"/>
<path class="bond-12 atom-12 atom-13" d="M 64.7,122.4 L 65.9,122.5" style="fill:none;fill-rule:evenodd;stroke:#000000;stroke-width:1.0px;stroke-linecap:butt;stroke-linejoin:miter;stroke-opacity:1"/>
<path class="bond-12 atom-12 atom-13" d="M 64.2,125.8 L 66.0,125.9" style="fill:none;fill-rule:evenodd;stroke:#000000;stroke-width:1.0px;stroke-linecap:butt;stroke-linejoin:miter;stroke-opacity:1"/>
<path class="bond-12 atom-12 atom-13" d="M 63.8,129.1 L 66.1,129.3" style="fill:none;fill-rule:evenodd;stroke:#000000;stroke-width:1.0px;stroke-linecap:butt;stroke-linejoin:miter;stroke-opacity:1"/>
<path class="bond-12 atom-12 atom-13" d="M 63.3,132.5 L 66.2,132.7" style="fill:none;fill-rule:evenodd;stroke:#000000;stroke-width:1.0px;stroke-linecap:butt;stroke-linejoin:miter;stroke-opacity:1"/>
<path class="bond-12 atom-12 atom-13" d="M 62.8,135.9 L 66.3,136.1" style="fill:none;fill-rule:evenodd;stroke:#000000;stroke-width:1.0px;stroke-linecap:butt;stroke-linejoin:miter;stroke-opacity:1"/>
<path class="bond-12 atom-12 atom-13" d="M 62.3,139.2 L 66.4,139.5" style="fill:none;fill-rule:evenodd;stroke:#000000;stroke-width:1.0px;stroke-linecap:butt;stroke-linejoin:miter;stroke-opacity:1"/>
<path class="bond-13 atom-13 atom-14" d="M 64.2,142.8 L 40.0,155.0" style="fill:none;fill-rule:evenodd;stroke:#000000;stroke-width:2.0px;stroke-linecap:butt;stroke-linejoin:miter;stroke-opacity:1"/>
<path class="bond-13 atom-13 atom-14" d="M 60.2,140.2 L 38.2,151.4" style="fill:none;fill-rule:evenodd;stroke:#000000;stroke-width:2.0px;stroke-linecap:butt;stroke-linejoin:miter;stroke-opacity:1"/>
<path class="bond-14 atom-14 atom-15" d="M 40.0,155.0 L 38.5,182.1" style="fill:none;fill-rule:evenodd;stroke:#000000;stroke-width:2.0px;stroke-linecap:butt;stroke-linejoin:miter;stroke-opacity:1"/>
<path class="bond-15 atom-15 atom-16" d="M 38.5,182.1 L 14.3,194.4" style="fill:none;fill-rule:evenodd;stroke:#000000;stroke-width:2.0px;stroke-linecap:butt;stroke-linejoin:miter;stroke-opacity:1"/>
<path class="bond-15 atom-15 atom-16" d="M 34.6,179.5 L 12.5,190.7" style="fill:none;fill-rule:evenodd;stroke:#000000;stroke-width:2.0px;stroke-linecap:butt;stroke-linejoin:miter;stroke-opacity:1"/>
<path class="bond-16 atom-12 atom-6" d="M 65.6,115.7 L 79.4,110.0" style="fill:none;fill-rule:evenodd;stroke:#000000;stroke-width:2.0px;stroke-linecap:butt;stroke-linejoin:miter;stroke-opacity:1"/>
<path d="M 204.0,141.9 L 202.9,142.3 L 201.9,141.4" style="fill:none;stroke:#000000;stroke-width:2.0px;stroke-linecap:butt;stroke-linejoin:miter;stroke-miterlimit:10;stroke-opacity:1;"/>
<path d="M 183.7,125.2 L 182.7,124.3 L 181.4,124.7" style="fill:none;stroke:#000000;stroke-width:2.0px;stroke-linecap:butt;stroke-linejoin:miter;stroke-miterlimit:10;stroke-opacity:1;"/>
<path d="M 158.2,132.4 L 156.9,132.8 L 155.9,131.9" style="fill:none;stroke:#000000;stroke-width:2.0px;stroke-linecap:butt;stroke-linejoin:miter;stroke-miterlimit:10;stroke-opacity:1;"/>
<path d="M 137.7,115.7 L 136.7,114.8 L 135.4,115.2" style="fill:none;stroke:#000000;stroke-width:2.0px;stroke-linecap:butt;stroke-linejoin:miter;stroke-miterlimit:10;stroke-opacity:1;"/>
<path d="M 112.2,122.9 L 110.9,123.3 L 110.1,122.6" style="fill:none;stroke:#000000;stroke-width:2.0px;stroke-linecap:butt;stroke-linejoin:miter;stroke-miterlimit:10;stroke-opacity:1;"/>
<path d="M 97.8,80.3 L 98.1,79.2 L 97.3,78.1" style="fill:none;stroke:#000000;stroke-width:2.0px;stroke-linecap:butt;stroke-linejoin:miter;stroke-miterlimit:10;stroke-opacity:1;"/>
<path d="M 83.2,58.2 L 82.4,57.1 L 81.0,57.0" style="fill:none;stroke:#000000;stroke-width:2.0px;stroke-linecap:butt;stroke-linejoin:miter;stroke-miterlimit:10;stroke-opacity:1;"/>
<path d="M 56.7,55.7 L 55.3,55.6 L 54.4,56.6" style="fill:none;stroke:#000000;stroke-width:2.0px;stroke-linecap:butt;stroke-linejoin:miter;stroke-miterlimit:10;stroke-opacity:1;"/>
<path d="M 38.2,74.9 L 37.3,75.9 L 37.5,77.2" style="fill:none;stroke:#000000;stroke-width:2.0px;stroke-linecap:butt;stroke-linejoin:miter;stroke-miterlimit:10;stroke-opacity:1;"/>
<path d="M 41.7,101.3 L 41.9,102.6 L 43.1,103.3" style="fill:none;stroke:#000000;stroke-width:2.0px;stroke-linecap:butt;stroke-linejoin:miter;stroke-miterlimit:10;stroke-opacity:1;"/>
<path d="M 64.5,115.0 L 65.6,115.7 L 66.3,115.4" style="fill:none;stroke:#000000;stroke-width:2.0px;stroke-linecap:butt;stroke-linejoin:miter;stroke-miterlimit:10;stroke-opacity:1;"/>
<path d="M 41.2,154.4 L 40.0,155.0 L 39.9,156.4" style="fill:none;stroke:#000000;stroke-width:2.0px;stroke-linecap:butt;stroke-linejoin:miter;stroke-miterlimit:10;stroke-opacity:1;"/>
<path d="M 38.6,180.7 L 38.5,182.1 L 37.3,182.7" style="fill:none;stroke:#000000;stroke-width:2.0px;stroke-linecap:butt;stroke-linejoin:miter;stroke-miterlimit:10;stroke-opacity:1;"/>
<path class="atom-0" d="M 226.5 136.4 Q 226.6 136.4, 226.9 136.6 Q 227.3 136.8, 227.7 136.9 Q 228.1 136.9, 228.5 136.9 Q 229.2 136.9, 229.6 136.6 Q 230.0 136.2, 230.0 135.6 Q 230.0 135.2, 229.8 134.9 Q 229.6 134.7, 229.3 134.5 Q 229.0 134.4, 228.4 134.2 Q 227.7 134.0, 227.3 133.8 Q 226.9 133.6, 226.6 133.2 Q 226.4 132.8, 226.4 132.1 Q 226.4 131.1, 227.0 130.5 Q 227.7 130.0, 229.0 130.0 Q 229.9 130.0, 230.9 130.4 L 230.6 131.2 Q 229.7 130.8, 229.0 130.8 Q 228.3 130.8, 227.8 131.1 Q 227.4 131.4, 227.4 132.0 Q 227.4 132.4, 227.6 132.6 Q 227.9 132.9, 228.2 133.0 Q 228.5 133.2, 229.0 133.3 Q 229.7 133.6, 230.1 133.8 Q 230.5 134.0, 230.8 134.4 Q 231.1 134.9, 231.1 135.6 Q 231.1 136.7, 230.4 137.3 Q 229.7 137.8, 228.5 137.8 Q 227.8 137.8, 227.3 137.7 Q 226.8 137.5, 226.2 137.3 L 226.5 136.4 " fill="#000000"/>
<path class="atom-0" d="M 232.1 131.2 L 233.5 131.2 L 233.5 129.8 L 234.1 129.8 L 234.1 131.2 L 235.5 131.2 L 235.5 131.7 L 234.1 131.7 L 234.1 133.2 L 233.5 133.2 L 233.5 131.7 L 232.1 131.7 L 232.1 131.2 " fill="#000000"/>
<path class="atom-6" d="M 80.3 101.4 L 81.3 101.4 L 81.3 104.7 L 85.2 104.7 L 85.2 101.4 L 86.3 101.4 L 86.3 109.1 L 85.2 109.1 L 85.2 105.6 L 81.3 105.6 L 81.3 109.1 L 80.3 109.1 L 80.3 101.4 " fill="#000000"/>
<path class="atom-6" d="M 89.0 101.4 L 91.5 105.5 Q 91.7 105.9, 92.1 106.6 Q 92.5 107.3, 92.6 107.4 L 92.6 101.4 L 93.6 101.4 L 93.6 109.1 L 92.5 109.1 L 89.8 104.7 Q 89.5 104.1, 89.2 103.5 Q 88.9 102.9, 88.8 102.8 L 88.8 109.1 L 87.8 109.1 L 87.8 101.4 L 89.0 101.4 " fill="#000000"/>
<path class="atom-6" d="M 95.1 102.8 L 96.4 102.8 L 96.4 101.4 L 97.0 101.4 L 97.0 102.8 L 98.4 102.8 L 98.4 103.3 L 97.0 103.3 L 97.0 104.8 L 96.4 104.8 L 96.4 103.3 L 95.1 103.3 L 95.1 102.8 " fill="#000000"/>
<path class="atom-0" d="M 237.6,134.9 L 237.6,134.9 L 237.6,135.0 L 237.6,135.0 L 237.6,135.0 L 237.6,135.1 L 237.6,135.1 L 237.5,135.2 L 237.5,135.2 L 237.5,135.2 L 237.4,135.3 L 237.4,135.3 L 237.4,135.3 L 237.3,135.4 L 237.3,135.4 L 237.2,135.4 L 237.2,135.4 L 237.2,135.4 L 237.1,135.4 L 237.1,135.4 L 237.0,135.4 L 237.0,135.4 L 236.9,135.4 L 236.9,135.4 L 236.8,135.3 L 236.8,135.3 L 236.8,135.3 L 236.7,135.3 L 236.7,135.2 L 236.7,135.2 L 236.6,135.2 L 236.6,135.1 L 236.6,135.1 L 236.6,135.0 L 236.6,135.0 L 236.6,134.9 L 236.6,134.9 L 236.6,134.8 L 236.6,134.8 L 236.6,134.7 L 236.6,134.7 L 236.6,134.7 L 236.6,134.6 L 236.6,134.6 L 236.7,134.5 L 236.7,134.5 L 236.7,134.5 L 236.8,134.4 L 236.8,134.4 L 236.8,134.4 L 236.9,134.4 L 236.9,134.4 L 237.0,134.3 L 237.0,134.3 L 237.1,134.3 L 237.1,134.3 L 237.2,134.3 L 237.2,134.3 L 237.2,134.3 L 237.3,134.4 L 237.3,134.4 L 237.4,134.4 L 237.4,134.4 L 237.4,134.5 L 237.5,134.5 L 237.5,134.5 L 237.5,134.6 L 237.6,134.6 L 237.6,134.6 L 237.6,134.7 L 237.6,134.7 L 237.6,134.8 L 237.6,134.8 L 237.6,134.9 L 237.1,134.9 Z" style="fill:#000000;fill-rule:evenodd;fill-opacity:1;stroke:#000000;stroke-width:0.0px;stroke-linecap:butt;stroke-linejoin:miter;stroke-miterlimit:10;stroke-opacity:1;"/>
<path class="atom-0" d="M 237.6,132.7 L 237.6,132.7 L 237.6,132.8 L 237.6,132.8 L 237.6,132.9 L 237.6,132.9 L 237.6,133.0 L 237.5,133.0 L 237.5,133.0 L 237.5,133.1 L 237.4,133.1 L 237.4,133.1 L 237.4,133.2 L 237.3,133.2 L 237.3,133.2 L 237.2,133.2 L 237.2,133.2 L 237.2,133.2 L 237.1,133.2 L 237.1,133.2 L 237.0,133.2 L 237.0,133.2 L 236.9,133.2 L 236.9,133.2 L 236.8,133.2 L 236.8,133.1 L 236.8,133.1 L 236.7,133.1 L 236.7,133.1 L 236.7,133.0 L 236.6,133.0 L 236.6,132.9 L 236.6,132.9 L 236.6,132.9 L 236.6,132.8 L 236.6,132.8 L 236.6,132.7 L 236.6,132.7 L 236.6,132.6 L 236.6,132.6 L 236.6,132.5 L 236.6,132.5 L 236.6,132.4 L 236.6,132.4 L 236.7,132.4 L 236.7,132.3 L 236.7,132.3 L 236.8,132.3 L 236.8,132.2 L 236.8,132.2 L 236.9,132.2 L 236.9,132.2 L 237.0,132.2 L 237.0,132.2 L 237.1,132.2 L 237.1,132.2 L 237.2,132.2 L 237.2,132.2 L 237.2,132.2 L 237.3,132.2 L 237.3,132.2 L 237.4,132.2 L 237.4,132.3 L 237.4,132.3 L 237.5,132.3 L 237.5,132.4 L 237.5,132.4 L 237.6,132.4 L 237.6,132.5 L 237.6,132.5 L 237.6,132.6 L 237.6,132.6 L 237.6,132.6 L 237.6,132.7 L 237.1,132.7 Z" style="fill:#000000;fill-rule:evenodd;fill-opacity:1;stroke:#000000;stroke-width:0.0px;stroke-linecap:butt;stroke-linejoin:miter;stroke-miterlimit:10;stroke-opacity:1;"/>
<path class="bond-0 atom-0 atom-1" d="M 353.9,26.6 L 348.6,52.4" style="fill:none;fill-rule:evenodd;stroke:#000000;stroke-width:2.0px;stroke-linecap:butt;stroke-linejoin:miter;stroke-opacity:1"/>
<path class="bond-1 atom-1 atom-2" d="M 348.6,52.4 L 384.0,83.7" style="fill:none;fill-rule:evenodd;stroke:#000000;stroke-width:2.0px;stroke-linecap:butt;stroke-linejoin:miter;stroke-opacity:1"/>
<path class="bond-1 atom-1 atom-2" d="M 353.9,50.7 L 384.7,77.9" style="fill:none;fill-rule:evenodd;stroke:#000000;stroke-width:2.0px;stroke-linecap:butt;stroke-linejoin:miter;stroke-opacity:1"/>
<path class="bond-2 atom-2 atom-3" d="M 384.0,83.7 L 403.3,73.2" style="fill:none;fill-rule:evenodd;stroke:#000000;stroke-width:2.0px;stroke-linecap:butt;stroke-linejoin:miter;stroke-opacity:1"/>
<path class="bond-3 atom-3 atom-4" d="M 405.1,77.7 L 432.7,64.8" style="fill:none;fill-rule:evenodd;stroke:#000000;stroke-width:2.0px;stroke-linecap:butt;stroke-linejoin:miter;stroke-opacity:1"/>
<path class="bond-3 atom-3 atom-4" d="M 403.3,73.2 L 431.3,60.2" style="fill:none;fill-rule:evenodd;stroke:#000000;stroke-width:2.0px;stroke-linecap:butt;stroke-linejoin:miter;stroke-opacity:1"/>
<path class="bond-4 atom-4 atom-5" d="M 432.7,64.8 L 418.1,64.6" style="fill:none;fill-rule:evenodd;stroke:#000000;stroke-width:2.0px;stroke-linecap:butt;stroke-linejoin:miter;stroke-opacity:1"/>
<path class="bond-5 atom-5 atom-6" d="M 408.9,65.4 L 378.5,71.1" style="fill:none;fill-rule:evenodd;stroke:#000000;stroke-width:2.0px;stroke-linecap:butt;stroke-linejoin:miter;stroke-opacity:1"/>
<path class="bond-6 atom-6 atom-7" d="M 369.4,72.1 L 356.8,72.6" style="fill:none;fill-rule:evenodd;stroke:#000000;stroke-width:2.0px;stroke-linecap:butt;stroke-linejoin:miter;stroke-opacity:1"/>
<path class="bond-7 atom-7 atom-8" d="M 347.8,75.4 L 324.6,89.1" style="fill:none;fill-rule:evenodd;stroke:#000000;stroke-width:2.0px;stroke-linecap:butt;stroke-linejoin:miter;stroke-opacity:1"/>
<path class="bond-8 atom-8 atom-9" d="M 324.6,89.1 L 316.6,120.3" style="fill:none;fill-rule:evenodd;stroke:#000000;stroke-width:2.0px;stroke-linecap:butt;stroke-linejoin:miter;stroke-opacity:1"/>
<path class="bond-8 atom-8 atom-9" d="M 319.2,90.6 L 312.6,116.5" style="fill:none;fill-rule:evenodd;stroke:#000000;stroke-width:2.0px;stroke-linecap:butt;stroke-linejoin:miter;stroke-opacity:1"/>
<path class="bond-9 atom-9 atom-10" d="M 316.6,120.3 L 285.5,129.0" style="fill:none;fill-rule:evenodd;stroke:#000000;stroke-width:2.0px;stroke-linecap:butt;stroke-linejoin:miter;stroke-opacity:1"/>
<path class="bond-10 atom-10 atom-11" d="M 285.5,129.0 L 262.5,106.5" style="fill:none;fill-rule:evenodd;stroke:#000000;stroke-width:2.0px;stroke-linecap:butt;stroke-linejoin:miter;stroke-opacity:1"/>
<path class="bond-10 atom-10 atom-11" d="M 286.9,123.7 L 267.8,105.0" style="fill:none;fill-rule:evenodd;stroke:#000000;stroke-width:2.0px;stroke-linecap:butt;stroke-linejoin:miter;stroke-opacity:1"/>
<path class="bond-11 atom-11 atom-12" d="M 262.5,106.5 L 270.5,75.3" style="fill:none;fill-rule:evenodd;stroke:#000000;stroke-width:2.0px;stroke-linecap:butt;stroke-linejoin:miter;stroke-opacity:1"/>
<path class="bond-12 atom-12 atom-13" d="M 270.5,75.3 L 301.5,66.6" style="fill:none;fill-rule:evenodd;stroke:#000000;stroke-width:2.0px;stroke-linecap:butt;stroke-linejoin:miter;stroke-opacity:1"/>
<path class="bond-12 atom-12 atom-13" d="M 274.4,79.1 L 300.2,71.9" style="fill:none;fill-rule:evenodd;stroke:#000000;stroke-width:2.0px;stroke-linecap:butt;stroke-linejoin:miter;stroke-opacity:1"/>
<path class="bond-13 atom-13 atom-14" d="M 301.5,66.6 L 308.0,41.4" style="fill:none;fill-rule:evenodd;stroke:#000000;stroke-width:2.0px;stroke-linecap:butt;stroke-linejoin:miter;stroke-opacity:1"/>
<path class="bond-14 atom-7 atom-15" d="M 353.9,78.3 L 361.0,103.7" style="fill:none;fill-rule:evenodd;stroke:#000000;stroke-width:2.0px;stroke-linecap:butt;stroke-linejoin:miter;stroke-opacity:1"/>
<path class="bond-15 atom-15 atom-16" d="M 361.0,103.7 L 371.2,134.3" style="fill:none;fill-rule:evenodd;stroke:#000000;stroke-width:2.0px;stroke-linecap:butt;stroke-linejoin:miter;stroke-opacity:1"/>
<path class="bond-16 atom-16 atom-17" d="M 371.2,134.3 L 339.6,127.9" style="fill:none;fill-rule:evenodd;stroke:#000000;stroke-width:2.0px;stroke-linecap:butt;stroke-linejoin:miter;stroke-opacity:1"/>
<path class="bond-16 atom-16 atom-17" d="M 364.0,127.9 L 348.7,124.8" style="fill:none;fill-rule:evenodd;stroke:#000000;stroke-width:2.0px;stroke-linecap:butt;stroke-linejoin:miter;stroke-opacity:1"/>
<path class="bond-17 atom-4 atom-18" d="M 432.7,64.8 L 452.7,90.0" style="fill:none;fill-rule:evenodd;stroke:#000000;stroke-width:2.0px;stroke-linecap:butt;stroke-linejoin:miter;stroke-opacity:1"/>
<path class="bond-18 atom-18 atom-19" d="M 452.7,90.0 L 451.9,122.2" style="fill:none;fill-rule:evenodd;stroke:#000000;stroke-width:2.0px;stroke-linecap:butt;stroke-linejoin:miter;stroke-opacity:1"/>
<path class="bond-18 atom-18 atom-19" d="M 447.9,91.6 L 447.2,120.3" style="fill:none;fill-rule:evenodd;stroke:#000000;stroke-width:2.0px;stroke-linecap:butt;stroke-linejoin:miter;stroke-opacity:1"/>
<path class="bond-19 atom-19 atom-20" d="M 451.9,122.2 L 477.3,132.2" style="fill:none;fill-rule:evenodd;stroke:#000000;stroke-width:2.0px;stroke-linecap:butt;stroke-linejoin:miter;stroke-opacity:1"/>
<path class="bond-20 atom-19 atom-21" d="M 451.9,122.2 L 430.5,146.3" style="fill:none;fill-rule:evenodd;stroke:#000000;stroke-width:2.0px;stroke-linecap:butt;stroke-linejoin:miter;stroke-opacity:1"/>
<path class="bond-21 atom-21 atom-22" d="M 430.5,146.3 L 442.9,169.0" style="fill:none;fill-rule:evenodd;stroke:#000000;stroke-width:2.0px;stroke-linecap:butt;stroke-linejoin:miter;stroke-opacity:1"/>
<path class="bond-22 atom-21 atom-23" d="M 430.5,146.3 L 398.7,151.1" style="fill:none;fill-rule:evenodd;stroke:#000000;stroke-width:2.0px;stroke-linecap:butt;stroke-linejoin:miter;stroke-opacity:1"/>
<path class="bond-22 atom-21 atom-23" d="M 428.1,141.9 L 399.7,146.1" style="fill:none;fill-rule:evenodd;stroke:#000000;stroke-width:2.0px;stroke-linecap:butt;stroke-linejoin:miter;stroke-opacity:1"/>
<path class="bond-23 atom-23 atom-24" d="M 398.7,151.1 L 364.2,156.0" style="fill:none;fill-rule:evenodd;stroke:#000000;stroke-width:2.0px;stroke-linecap:butt;stroke-linejoin:miter;stroke-opacity:1"/>
<path class="bond-24 atom-24 atom-25" d="M 364.2,156.0 L 333.0,148.0" style="fill:none;fill-rule:evenodd;stroke:#000000;stroke-width:2.0px;stroke-linecap:butt;stroke-linejoin:miter;stroke-opacity:1"/>
<path class="bond-25 atom-25 atom-26" d="M 333.0,148.0 L 313.6,173.8" style="fill:none;fill-rule:evenodd;stroke:#000000;stroke-width:2.0px;stroke-linecap:butt;stroke-linejoin:miter;stroke-opacity:1"/>
<path class="bond-26 atom-26 atom-27" d="M 313.6,173.8 L 326.3,203.4" style="fill:none;fill-rule:evenodd;stroke:#000000;stroke-width:2.0px;stroke-linecap:butt;stroke-linejoin:miter;stroke-opacity:1"/>
<path class="bond-26 atom-26 atom-27" d="M 319.1,174.5 L 330.7,201.6" style="fill:none;fill-rule:evenodd;stroke:#000000;stroke-width:2.0px;stroke-linecap:butt;stroke-linejoin:miter;stroke-opacity:1"/>
<path class="bond-27 atom-27 atom-28" d="M 326.3,203.4 L 310.9,223.9" style="fill:none;fill-rule:evenodd;stroke:#000000;stroke-width:2.0px;stroke-linecap:butt;stroke-linejoin:miter;stroke-opacity:1"/>
<path class="bond-28 atom-15 atom-2" d="M 361.0,103.7 L 384.0,83.7" style="fill:none;fill-rule:evenodd;stroke:#000000;stroke-width:2.0px;stroke-linecap:butt;stroke-linejoin:miter;stroke-opacity:1"/>
<path class="bond-29 atom-13 atom-8" d="M 301.5,66.6 L 324.6,89.1" style="fill:none;fill-rule:evenodd;stroke:#000000;stroke-width:2.0px;stroke-linecap:butt;stroke-linejoin:miter;stroke-opacity:1"/>
<path class="bond-30 atom-25 atom-9" d="M 333.0,148.0 L 316.6,120.3" style="fill:none;fill-rule:evenodd;stroke:#000000;stroke-width:2.0px;stroke-linecap:butt;stroke-linejoin:miter;stroke-opacity:1"/>
<path class="bond-31 atom-17 atom-15" d="M 339.6,127.9 L 361.0,103.7" style="fill:none;fill-rule:evenodd;stroke:#000000;stroke-width:2.0px;stroke-linecap:butt;stroke-linejoin:miter;stroke-opacity:1"/>
<path class="bond-32 atom-23 atom-16" d="M 398.7,151.1 L 371.2,134.3" style="fill:none;fill-rule:evenodd;stroke:#000000;stroke-width:2.0px;stroke-linecap:butt;stroke-linejoin:miter;stroke-opacity:1"/>
<path d="M 348.9,51.1 L 348.6,52.4 L 350.4,54.0" style="fill:none;stroke:#000000;stroke-width:2.0px;stroke-linecap:butt;stroke-linejoin:miter;stroke-miterlimit:10;stroke-opacity:1;"/>
<path d="M 402.3,73.8 L 403.3,73.2 L 404.7,72.6" style="fill:none;stroke:#000000;stroke-width:2.0px;stroke-linecap:butt;stroke-linejoin:miter;stroke-miterlimit:10;stroke-opacity:1;"/>
<path d="M 287.1,128.6 L 285.5,129.0 L 284.4,127.9" style="fill:none;stroke:#000000;stroke-width:2.0px;stroke-linecap:butt;stroke-linejoin:miter;stroke-miterlimit:10;stroke-opacity:1;"/>
<path d="M 263.7,107.6 L 262.5,106.5 L 262.9,104.9" style="fill:none;stroke:#000000;stroke-width:2.0px;stroke-linecap:butt;stroke-linejoin:miter;stroke-miterlimit:10;stroke-opacity:1;"/>
<path d="M 270.1,76.8 L 270.5,75.3 L 272.1,74.8" style="fill:none;stroke:#000000;stroke-width:2.0px;stroke-linecap:butt;stroke-linejoin:miter;stroke-miterlimit:10;stroke-opacity:1;"/>
<path d="M 341.2,128.2 L 339.6,127.9 L 340.7,126.7" style="fill:none;stroke:#000000;stroke-width:2.0px;stroke-linecap:butt;stroke-linejoin:miter;stroke-miterlimit:10;stroke-opacity:1;"/>
<path d="M 451.7,88.7 L 452.7,90.0 L 452.7,91.6" style="fill:none;stroke:#000000;stroke-width:2.0px;stroke-linecap:butt;stroke-linejoin:miter;stroke-miterlimit:10;stroke-opacity:1;"/>
<path d="M 365.9,155.8 L 364.2,156.0 L 362.6,155.6" style="fill:none;stroke:#000000;stroke-width:2.0px;stroke-linecap:butt;stroke-linejoin:miter;stroke-miterlimit:10;stroke-opacity:1;"/>
<path d="M 314.6,172.5 L 313.6,173.8 L 314.3,175.3" style="fill:none;stroke:#000000;stroke-width:2.0px;stroke-linecap:butt;stroke-linejoin:miter;stroke-miterlimit:10;stroke-opacity:1;"/>
<path d="M 325.7,202.0 L 326.3,203.4 L 325.5,204.5" style="fill:none;stroke:#000000;stroke-width:2.0px;stroke-linecap:butt;stroke-linejoin:miter;stroke-miterlimit:10;stroke-opacity:1;"/>
<path class="atom-0" d="M 351.5 20.9 Q 351.5 18.6, 352.6 17.4 Q 353.7 16.2, 355.7 16.2 Q 357.6 16.2, 358.6 17.5 L 357.7 18.2 Q 357.0 17.3, 355.7 17.3 Q 354.3 17.3, 353.6 18.2 Q 352.9 19.1, 352.9 20.9 Q 352.9 22.7, 353.6 23.6 Q 354.4 24.5, 355.8 24.5 Q 356.8 24.5, 358.0 23.9 L 358.4 24.9 Q 357.9 25.2, 357.2 25.4 Q 356.4 25.6, 355.6 25.6 Q 353.7 25.6, 352.6 24.3 Q 351.5 23.1, 351.5 20.9 " fill="#000000"/>
<path class="atom-0" d="M 359.7 17.7 L 362.8 17.7 L 362.8 18.4 L 359.7 18.4 L 359.7 17.7 " fill="#000000"/>
<path class="atom-5" d="M 410.0 64.6 Q 410.0 62.3, 411.0 61.1 Q 412.1 60.0, 414.1 60.0 Q 416.0 60.0, 417.0 61.3 L 416.2 62.0 Q 415.4 61.0, 414.1 61.0 Q 412.7 61.0, 412.0 61.9 Q 411.3 62.9, 411.3 64.6 Q 411.3 66.4, 412.0 67.3 Q 412.8 68.3, 414.3 68.3 Q 415.3 68.3, 416.4 67.7 L 416.8 68.6 Q 416.3 68.9, 415.6 69.1 Q 414.9 69.3, 414.1 69.3 Q 412.1 69.3, 411.0 68.1 Q 410.0 66.9, 410.0 64.6 " fill="#000000"/>
<path class="atom-6" d="M 370.4 72.0 Q 370.4 69.8, 371.5 68.6 Q 372.5 67.4, 374.6 67.4 Q 376.4 67.4, 377.4 68.7 L 376.6 69.4 Q 375.9 68.4, 374.6 68.4 Q 373.2 68.4, 372.4 69.4 Q 371.7 70.3, 371.7 72.0 Q 371.7 73.8, 372.5 74.8 Q 373.2 75.7, 374.7 75.7 Q 375.7 75.7, 376.9 75.1 L 377.2 76.0 Q 376.8 76.4, 376.0 76.5 Q 375.3 76.7, 374.5 76.7 Q 372.5 76.7, 371.5 75.5 Q 370.4 74.3, 370.4 72.0 " fill="#000000"/>
<path class="atom-7" d="M 350.3 68.1 L 353.3 73.0 Q 353.6 73.5, 354.0 74.3 Q 354.5 75.2, 354.5 75.2 L 354.5 68.1 L 355.7 68.1 L 355.7 77.3 L 354.5 77.3 L 351.3 72.0 Q 350.9 71.4, 350.5 70.7 Q 350.1 69.9, 350.0 69.7 L 350.0 77.3 L 348.8 77.3 L 348.8 68.1 L 350.3 68.1 " fill="#000000"/>
<path class="atom-14" d="M 306.0 35.7 Q 306.0 33.4, 307.1 32.2 Q 308.1 31.0, 310.2 31.0 Q 312.0 31.0, 313.0 32.4 L 312.2 33.1 Q 311.5 32.1, 310.2 32.1 Q 308.8 32.1, 308.0 33.0 Q 307.3 33.9, 307.3 35.7 Q 307.3 37.5, 308.1 38.4 Q 308.8 39.3, 310.3 39.3 Q 311.3 39.3, 312.5 38.7 L 312.8 39.7 Q 312.4 40.0, 311.6 40.2 Q 310.9 40.4, 310.1 40.4 Q 308.1 40.4, 307.1 39.2 Q 306.0 38.0, 306.0 35.7 " fill="#000000"/>
<path class="atom-14" d="M 314.0 30.5 L 315.2 30.5 L 315.2 40.3 L 314.0 40.3 L 314.0 30.5 " fill="#000000"/>
<path class="atom-20" d="M 478.4 134.3 Q 478.4 132.0, 479.4 130.9 Q 480.5 129.7, 482.5 129.7 Q 484.4 129.7, 485.4 131.0 L 484.5 131.7 Q 483.8 130.7, 482.5 130.7 Q 481.1 130.7, 480.4 131.6 Q 479.7 132.6, 479.7 134.3 Q 479.7 136.1, 480.4 137.0 Q 481.2 138.0, 482.6 138.0 Q 483.6 138.0, 484.8 137.4 L 485.2 138.3 Q 484.7 138.6, 484.0 138.8 Q 483.3 139.0, 482.5 139.0 Q 480.5 139.0, 479.4 137.8 Q 478.4 136.6, 478.4 134.3 " fill="#000000"/>
<path class="atom-20" d="M 486.3 129.1 L 487.5 129.1 L 487.5 138.9 L 486.3 138.9 L 486.3 129.1 " fill="#000000"/>
<path class="atom-22" d="M 443.2 170.1 L 448.6 170.1 L 448.6 171.1 L 444.4 171.1 L 444.4 173.9 L 448.2 173.9 L 448.2 174.9 L 444.4 174.9 L 444.4 179.2 L 443.2 179.2 L 443.2 170.1 " fill="#000000"/>
<path class="atom-28" d="M 295.2 224.7 L 296.4 224.7 L 296.4 228.5 L 301.1 228.5 L 301.1 224.7 L 302.3 224.7 L 302.3 233.8 L 301.1 233.8 L 301.1 229.6 L 296.4 229.6 L 296.4 233.8 L 295.2 233.8 L 295.2 224.7 " fill="#000000"/>
<path class="atom-28" d="M 306.7 224.7 Q 308.3 224.7, 309.1 225.4 Q 309.9 226.1, 309.9 227.3 Q 309.9 228.6, 309.0 229.3 Q 308.2 230.0, 306.7 230.0 L 305.3 230.0 L 305.3 233.8 L 304.0 233.8 L 304.0 224.7 L 306.7 224.7 M 306.7 229.0 Q 307.6 229.0, 308.1 228.6 Q 308.6 228.2, 308.6 227.3 Q 308.6 226.5, 308.1 226.1 Q 307.6 225.7, 306.7 225.7 L 305.3 225.7 L 305.3 229.0 L 306.7 229.0 " fill="#000000"/>
<path class="atom-28" d="M 293.9,229.2 L 293.9,229.3 L 293.9,229.3 L 293.8,229.4 L 293.8,229.4 L 293.8,229.5 L 293.8,229.5 L 293.8,229.6 L 293.7,229.6 L 293.7,229.7 L 293.6,229.7 L 293.6,229.7 L 293.5,229.8 L 293.5,229.8 L 293.4,229.8 L 293.4,229.8 L 293.3,229.9 L 293.3,229.9 L 293.2,229.9 L 293.2,229.9 L 293.1,229.9 L 293.1,229.8 L 293.0,229.8 L 293.0,229.8 L 292.9,229.8 L 292.9,229.8 L 292.8,229.7 L 292.8,229.7 L 292.7,229.7 L 292.7,229.6 L 292.7,229.6 L 292.6,229.5 L 292.6,229.5 L 292.6,229.4 L 292.6,229.4 L 292.6,229.3 L 292.6,229.2 L 292.6,229.2 L 292.6,229.1 L 292.6,229.1 L 292.6,229.0 L 292.6,229.0 L 292.6,228.9 L 292.7,228.9 L 292.7,228.8 L 292.7,228.8 L 292.8,228.8 L 292.8,228.7 L 292.9,228.7 L 292.9,228.7 L 293.0,228.6 L 293.0,228.6 L 293.1,228.6 L 293.1,228.6 L 293.2,228.6 L 293.2,228.6 L 293.3,228.6 L 293.3,228.6 L 293.4,228.6 L 293.4,228.6 L 293.5,228.6 L 293.5,228.7 L 293.6,228.7 L 293.6,228.7 L 293.7,228.8 L 293.7,228.8 L 293.8,228.9 L 293.8,228.9 L 293.8,229.0 L 293.8,229.0 L 293.8,229.1 L 293.9,229.1 L 293.9,229.2 L 293.9,229.2 L 293.2,229.2 Z" style="fill:#000000;fill-rule:evenodd;fill-opacity:1;stroke:#000000;stroke-width:0.0px;stroke-linecap:butt;stroke-linejoin:miter;stroke-miterlimit:10;stroke-opacity:1;"/>
<path class="bond-0 atom-0 atom-1" d="M 522.5,152.1 L 551.2,161.5" style="fill:none;fill-rule:evenodd;stroke:#000000;stroke-width:2.0px;stroke-linecap:butt;stroke-linejoin:miter;stroke-opacity:1"/>
<path class="bond-1 atom-1 atom-2" d="M 551.2,161.5 L 561.9,128.5" style="fill:none;fill-rule:evenodd;stroke:#000000;stroke-width:2.0px;stroke-linecap:butt;stroke-linejoin:miter;stroke-opacity:1"/>
<path class="bond-2 atom-1 atom-3" d="M 551.2,161.5 L 540.5,194.4" style="fill:none;fill-rule:evenodd;stroke:#000000;stroke-width:2.0px;stroke-linecap:butt;stroke-linejoin:miter;stroke-opacity:1"/>
<path class="bond-3 atom-1 atom-4" d="M 551.2,161.5 L 584.1,172.2" style="fill:none;fill-rule:evenodd;stroke:#000000;stroke-width:2.0px;stroke-linecap:butt;stroke-linejoin:miter;stroke-opacity:1"/>
<path class="bond-4 atom-4 atom-5" d="M 584.1,172.2 L 609.8,149.0" style="fill:none;fill-rule:evenodd;stroke:#000000;stroke-width:2.0px;stroke-linecap:butt;stroke-linejoin:miter;stroke-opacity:1"/>
<path class="bond-5 atom-5 atom-6" d="M 609.8,149.0 L 643.7,156.2" style="fill:none;fill-rule:evenodd;stroke:#000000;stroke-width:2.0px;stroke-linecap:butt;stroke-linejoin:miter;stroke-opacity:1"/>
<path class="bond-6 atom-6 atom-7" d="M 643.7,156.2 L 661.0,126.2" style="fill:none;fill-rule:evenodd;stroke:#000000;stroke-width:2.0px;stroke-linecap:butt;stroke-linejoin:miter;stroke-opacity:1"/>
<path class="bond-7 atom-7 atom-8" d="M 661.0,126.2 L 684.2,100.5" style="fill:none;fill-rule:evenodd;stroke:#000000;stroke-width:2.0px;stroke-linecap:butt;stroke-linejoin:miter;stroke-opacity:1"/>
<path class="bond-8 atom-8 atom-9" d="M 684.2,100.5 L 713.2,106.7" style="fill:none;fill-rule:evenodd;stroke:#000000;stroke-width:2.0px;stroke-linecap:butt;stroke-linejoin:miter;stroke-opacity:1"/>
<path class="bond-9 atom-7 atom-10" d="M 661.0,126.2 L 684.1,143.1" style="fill:none;fill-rule:evenodd;stroke:#000000;stroke-width:2.0px;stroke-linecap:butt;stroke-linejoin:miter;stroke-opacity:1"/>
<path class="bond-10 atom-7 atom-11" d="M 661.0,126.2 L 637.8,100.5" style="fill:none;fill-rule:evenodd;stroke:#000000;stroke-width:2.0px;stroke-linecap:butt;stroke-linejoin:miter;stroke-opacity:1"/>
<path class="bond-11 atom-11 atom-12" d="M 637.8,100.5 L 606.2,114.6" style="fill:none;fill-rule:evenodd;stroke:#000000;stroke-width:2.0px;stroke-linecap:butt;stroke-linejoin:miter;stroke-opacity:1"/>
<path class="bond-12 atom-12 atom-13" d="M 606.2,114.6 L 576.2,97.3" style="fill:none;fill-rule:evenodd;stroke:#000000;stroke-width:2.0px;stroke-linecap:butt;stroke-linejoin:miter;stroke-opacity:1"/>
<path class="bond-13 atom-13 atom-14" d="M 576.2,97.3 L 544.6,111.3" style="fill:none;fill-rule:evenodd;stroke:#000000;stroke-width:2.0px;stroke-linecap:butt;stroke-linejoin:miter;stroke-opacity:1"/>
<path class="bond-14 atom-14 atom-15" d="M 544.6,111.3 L 521.4,85.6" style="fill:none;fill-rule:evenodd;stroke:#000000;stroke-width:2.0px;stroke-linecap:butt;stroke-linejoin:miter;stroke-opacity:1"/>
<path class="bond-15 atom-15 atom-16" d="M 521.4,85.6 L 538.8,55.6" style="fill:none;fill-rule:evenodd;stroke:#000000;stroke-width:2.0px;stroke-linecap:butt;stroke-linejoin:miter;stroke-opacity:1"/>
<path class="bond-16 atom-16 atom-17" d="M 538.8,55.6 L 567.0,61.6" style="fill:none;fill-rule:evenodd;stroke:#000000;stroke-width:2.0px;stroke-linecap:butt;stroke-linejoin:miter;stroke-opacity:1"/>
<path class="bond-17 atom-12 atom-5" d="M 606.2,114.6 L 609.8,149.0" style="fill:none;fill-rule:evenodd;stroke:#000000;stroke-width:2.0px;stroke-linecap:butt;stroke-linejoin:miter;stroke-opacity:1"/>
<path class="bond-18 atom-17 atom-13" d="M 573.3,69.1 L 576.2,97.3" style="fill:none;fill-rule:evenodd;stroke:#000000;stroke-width:2.0px;stroke-linecap:butt;stroke-linejoin:miter;stroke-opacity:1"/>
<path d="M 582.4,171.6 L 584.1,172.2 L 585.4,171.0" style="fill:none;stroke:#000000;stroke-width:2.0px;stroke-linecap:butt;stroke-linejoin:miter;stroke-miterlimit:10;stroke-opacity:1;"/>
<path d="M 642.0,155.9 L 643.7,156.2 L 644.5,154.7" style="fill:none;stroke:#000000;stroke-width:2.0px;stroke-linecap:butt;stroke-linejoin:miter;stroke-miterlimit:10;stroke-opacity:1;"/>
<path d="M 683.0,101.8 L 684.2,100.5 L 685.6,100.8" style="fill:none;stroke:#000000;stroke-width:2.0px;stroke-linecap:butt;stroke-linejoin:miter;stroke-miterlimit:10;stroke-opacity:1;"/>
<path d="M 639.0,101.8 L 637.8,100.5 L 636.3,101.2" style="fill:none;stroke:#000000;stroke-width:2.0px;stroke-linecap:butt;stroke-linejoin:miter;stroke-miterlimit:10;stroke-opacity:1;"/>
<path d="M 546.2,110.6 L 544.6,111.3 L 543.4,110.0" style="fill:none;stroke:#000000;stroke-width:2.0px;stroke-linecap:butt;stroke-linejoin:miter;stroke-miterlimit:10;stroke-opacity:1;"/>
<path d="M 522.6,86.9 L 521.4,85.6 L 522.3,84.1" style="fill:none;stroke:#000000;stroke-width:2.0px;stroke-linecap:butt;stroke-linejoin:miter;stroke-miterlimit:10;stroke-opacity:1;"/>
<path d="M 537.9,57.1 L 538.8,55.6 L 540.2,55.9" style="fill:none;stroke:#000000;stroke-width:2.0px;stroke-linecap:butt;stroke-linejoin:miter;stroke-miterlimit:10;stroke-opacity:1;"/>
<path class="atom-0" d="M 515.5 154.1 Q 515.6 154.2, 516.0 154.4 Q 516.5 154.5, 517.0 154.7 Q 517.5 154.8, 518.0 154.8 Q 518.9 154.8, 519.5 154.3 Q 520.0 153.9, 520.0 153.1 Q 520.0 152.6, 519.7 152.2 Q 519.5 151.9, 519.1 151.7 Q 518.6 151.5, 517.9 151.3 Q 517.1 151.1, 516.6 150.8 Q 516.0 150.6, 515.7 150.0 Q 515.3 149.5, 515.3 148.6 Q 515.3 147.4, 516.1 146.6 Q 517.0 145.9, 518.6 145.9 Q 519.8 145.9, 521.1 146.4 L 520.7 147.5 Q 519.6 147.0, 518.7 147.0 Q 517.7 147.0, 517.2 147.4 Q 516.7 147.8, 516.7 148.5 Q 516.7 149.0, 517.0 149.3 Q 517.2 149.6, 517.6 149.8 Q 518.0 150.0, 518.7 150.2 Q 519.6 150.5, 520.1 150.7 Q 520.6 151.0, 521.0 151.6 Q 521.4 152.1, 521.4 153.1 Q 521.4 154.4, 520.5 155.2 Q 519.6 155.9, 518.1 155.9 Q 517.2 155.9, 516.5 155.7 Q 515.9 155.5, 515.1 155.2 L 515.5 154.1 " fill="#000000"/>
<path class="atom-0" d="M 522.7 147.5 L 524.4 147.5 L 524.4 145.7 L 525.2 145.7 L 525.2 147.5 L 526.9 147.5 L 526.9 148.1 L 525.2 148.1 L 525.2 150.0 L 524.4 150.0 L 524.4 148.1 L 522.7 148.1 L 522.7 147.5 " fill="#000000"/>
<path class="atom-9" d="M 715.9 102.8 L 719.1 108.0 Q 719.4 108.5, 719.9 109.5 Q 720.4 110.4, 720.4 110.4 L 720.4 102.8 L 721.7 102.8 L 721.7 112.6 L 720.4 112.6 L 717.0 106.9 Q 716.6 106.3, 716.1 105.5 Q 715.7 104.8, 715.6 104.5 L 715.6 112.6 L 714.3 112.6 L 714.3 102.8 L 715.9 102.8 " fill="#000000"/>
<path class="atom-9" d="M 723.6 102.8 L 724.9 102.8 L 724.9 107.0 L 729.9 107.0 L 729.9 102.8 L 731.3 102.8 L 731.3 112.6 L 729.9 112.6 L 729.9 108.1 L 724.9 108.1 L 724.9 112.6 L 723.6 112.6 L 723.6 102.8 " fill="#000000"/>
<path class="atom-9" d="M 736.3 114.1 Q 736.9 114.3, 737.2 114.7 Q 737.5 115.1, 737.5 115.8 Q 737.5 116.3, 737.2 116.7 Q 737.0 117.2, 736.4 117.4 Q 735.9 117.6, 735.3 117.6 Q 734.6 117.6, 734.1 117.4 Q 733.6 117.1, 733.1 116.6 L 733.7 116.1 Q 734.1 116.5, 734.4 116.7 Q 734.7 116.9, 735.3 116.9 Q 735.9 116.9, 736.2 116.6 Q 736.6 116.3, 736.6 115.7 Q 736.6 115.1, 736.2 114.8 Q 735.8 114.5, 735.1 114.5 L 734.6 114.5 L 734.6 113.8 L 735.0 113.8 Q 735.7 113.8, 736.1 113.5 Q 736.4 113.2, 736.4 112.6 Q 736.4 112.2, 736.1 112.0 Q 735.8 111.7, 735.3 111.7 Q 734.8 111.7, 734.4 111.9 Q 734.1 112.1, 733.8 112.6 L 733.2 112.2 Q 733.4 111.7, 734.0 111.3 Q 734.5 111.0, 735.3 111.0 Q 736.2 111.0, 736.8 111.4 Q 737.4 111.9, 737.4 112.6 Q 737.4 113.2, 737.1 113.5 Q 736.8 113.9, 736.3 114.1 " fill="#000000"/>
<path class="atom-9" d="M 733.2 104.6 L 734.9 104.6 L 734.9 102.8 L 735.7 102.8 L 735.7 104.6 L 737.5 104.6 L 737.5 105.2 L 735.7 105.2 L 735.7 107.1 L 734.9 107.1 L 734.9 105.2 L 733.2 105.2 L 733.2 104.6 " fill="#000000"/>
<path class="atom-10" d="M 686.8 141.7 L 690.0 146.9 Q 690.4 147.4, 690.9 148.3 Q 691.4 149.3, 691.4 149.3 L 691.4 141.7 L 692.7 141.7 L 692.7 151.5 L 691.4 151.5 L 687.9 145.8 Q 687.5 145.2, 687.1 144.4 Q 686.7 143.6, 686.6 143.4 L 686.6 151.5 L 685.3 151.5 L 685.3 141.7 L 686.8 141.7 " fill="#000000"/>
<path class="atom-10" d="M 694.6 141.7 L 695.9 141.7 L 695.9 145.9 L 700.9 145.9 L 700.9 141.7 L 702.2 141.7 L 702.2 151.5 L 700.9 151.5 L 700.9 147.0 L 695.9 147.0 L 695.9 151.5 L 694.6 151.5 L 694.6 141.7 " fill="#000000"/>
<path class="atom-10" d="M 707.2 153.0 Q 707.9 153.2, 708.2 153.6 Q 708.5 154.0, 708.5 154.6 Q 708.5 155.2, 708.2 155.6 Q 707.9 156.0, 707.4 156.3 Q 706.9 156.5, 706.3 156.5 Q 705.6 156.5, 705.0 156.3 Q 704.5 156.0, 704.1 155.5 L 704.6 155.0 Q 705.0 155.4, 705.4 155.6 Q 705.7 155.8, 706.3 155.8 Q 706.8 155.8, 707.2 155.4 Q 707.6 155.1, 707.6 154.6 Q 707.6 154.0, 707.2 153.7 Q 706.8 153.4, 706.0 153.4 L 705.6 153.4 L 705.6 152.7 L 706.0 152.7 Q 706.7 152.7, 707.0 152.4 Q 707.4 152.1, 707.4 151.5 Q 707.4 151.1, 707.1 150.8 Q 706.8 150.6, 706.3 150.6 Q 705.7 150.6, 705.4 150.8 Q 705.1 151.0, 704.8 151.5 L 704.2 151.1 Q 704.4 150.6, 705.0 150.2 Q 705.5 149.9, 706.3 149.9 Q 707.2 149.9, 707.8 150.3 Q 708.3 150.7, 708.3 151.5 Q 708.3 152.0, 708.0 152.4 Q 707.8 152.8, 707.2 153.0 " fill="#000000"/>
<path class="atom-10" d="M 704.2 143.5 L 705.9 143.5 L 705.9 141.6 L 706.7 141.6 L 706.7 143.5 L 708.4 143.5 L 708.4 144.1 L 706.7 144.1 L 706.7 145.9 L 705.9 145.9 L 705.9 144.1 L 704.2 144.1 L 704.2 143.5 " fill="#000000"/>
<path class="atom-17" d="M 568.1 62.9 Q 568.1 60.5, 569.3 59.2 Q 570.4 57.9, 572.6 57.9 Q 574.8 57.9, 576.0 59.2 Q 577.1 60.5, 577.1 62.9 Q 577.1 65.2, 575.9 66.6 Q 574.8 67.9, 572.6 67.9 Q 570.5 67.9, 569.3 66.6 Q 568.1 65.3, 568.1 62.9 M 572.6 66.8 Q 574.1 66.8, 574.9 65.8 Q 575.7 64.8, 575.7 62.9 Q 575.7 60.9, 574.9 60.0 Q 574.1 59.0, 572.6 59.0 Q 571.1 59.0, 570.3 59.9 Q 569.5 60.9, 569.5 62.9 Q 569.5 64.8, 570.3 65.8 Q 571.1 66.8, 572.6 66.8 " fill="#000000"/>
<path class="atom-0" d="M 513.7,152.1 L 513.7,152.2 L 513.7,152.3 L 513.7,152.3 L 513.7,152.4 L 513.6,152.4 L 513.6,152.5 L 513.6,152.5 L 513.6,152.6 L 513.5,152.6 L 513.5,152.7 L 513.4,152.7 L 513.4,152.7 L 513.3,152.8 L 513.3,152.8 L 513.2,152.8 L 513.2,152.8 L 513.1,152.8 L 513.0,152.8 L 513.0,152.8 L 512.9,152.8 L 512.9,152.8 L 512.8,152.8 L 512.7,152.8 L 512.7,152.7 L 512.6,152.7 L 512.6,152.7 L 512.5,152.6 L 512.5,152.6 L 512.5,152.6 L 512.4,152.5 L 512.4,152.5 L 512.4,152.4 L 512.4,152.3 L 512.3,152.3 L 512.3,152.2 L 512.3,152.2 L 512.3,152.1 L 512.3,152.0 L 512.3,152.0 L 512.4,151.9 L 512.4,151.9 L 512.4,151.8 L 512.4,151.8 L 512.5,151.7 L 512.5,151.7 L 512.5,151.6 L 512.6,151.6 L 512.6,151.6 L 512.7,151.5 L 512.7,151.5 L 512.8,151.5 L 512.9,151.5 L 512.9,151.5 L 513.0,151.4 L 513.0,151.4 L 513.1,151.4 L 513.2,151.5 L 513.2,151.5 L 513.3,151.5 L 513.3,151.5 L 513.4,151.5 L 513.4,151.6 L 513.5,151.6 L 513.5,151.7 L 513.6,151.7 L 513.6,151.7 L 513.6,151.8 L 513.6,151.8 L 513.7,151.9 L 513.7,152.0 L 513.7,152.0 L 513.7,152.1 L 513.7,152.1 L 513.0,152.1 Z" style="fill:#000000;fill-rule:evenodd;fill-opacity:1;stroke:#000000;stroke-width:0.0px;stroke-linecap:butt;stroke-linejoin:miter;stroke-miterlimit:10;stroke-opacity:1;"/>
<path class="atom-0" d="M 513.7,149.4 L 513.7,149.4 L 513.7,149.5 L 513.7,149.5 L 513.7,149.6 L 513.6,149.7 L 513.6,149.7 L 513.6,149.8 L 513.6,149.8 L 513.5,149.8 L 513.5,149.9 L 513.4,149.9 L 513.4,150.0 L 513.3,150.0 L 513.3,150.0 L 513.2,150.0 L 513.2,150.0 L 513.1,150.1 L 513.0,150.1 L 513.0,150.1 L 512.9,150.0 L 512.9,150.0 L 512.8,150.0 L 512.7,150.0 L 512.7,150.0 L 512.6,149.9 L 512.6,149.9 L 512.5,149.9 L 512.5,149.8 L 512.5,149.8 L 512.4,149.7 L 512.4,149.7 L 512.4,149.6 L 512.4,149.6 L 512.3,149.5 L 512.3,149.5 L 512.3,149.4 L 512.3,149.3 L 512.3,149.3 L 512.3,149.2 L 512.4,149.2 L 512.4,149.1 L 512.4,149.0 L 512.4,149.0 L 512.5,148.9 L 512.5,148.9 L 512.5,148.9 L 512.6,148.8 L 512.6,148.8 L 512.7,148.8 L 512.7,148.7 L 512.8,148.7 L 512.9,148.7 L 512.9,148.7 L 513.0,148.7 L 513.0,148.7 L 513.1,148.7 L 513.2,148.7 L 513.2,148.7 L 513.3,148.7 L 513.3,148.7 L 513.4,148.8 L 513.4,148.8 L 513.5,148.8 L 513.5,148.9 L 513.6,148.9 L 513.6,149.0 L 513.6,149.0 L 513.6,149.1 L 513.7,149.1 L 513.7,149.2 L 513.7,149.2 L 513.7,149.3 L 513.7,149.4 L 513.0,149.4 Z" style="fill:#000000;fill-rule:evenodd;fill-opacity:1;stroke:#000000;stroke-width:0.0px;stroke-linecap:butt;stroke-linejoin:miter;stroke-miterlimit:10;stroke-opacity:1;"/>
<path class="atom-13" d="M 581.1,97.3 L 581.1,97.3 L 581.1,97.4 L 581.1,97.4 L 581.0,97.5 L 581.0,97.5 L 581.0,97.6 L 581.0,97.7 L 580.9,97.7 L 580.9,97.7 L 580.8,97.8 L 580.8,97.8 L 580.7,97.9 L 580.7,97.9 L 580.6,97.9 L 580.6,97.9 L 580.5,97.9 L 580.5,97.9 L 580.4,98.0 L 580.3,97.9 L 580.3,97.9 L 580.2,97.9 L 580.2,97.9 L 580.1,97.9 L 580.1,97.9 L 580.0,97.8 L 580.0,97.8 L 579.9,97.8 L 579.9,97.7 L 579.8,97.7 L 579.8,97.6 L 579.8,97.6 L 579.7,97.5 L 579.7,97.5 L 579.7,97.4 L 579.7,97.3 L 579.7,97.3 L 579.7,97.2 L 579.7,97.2 L 579.7,97.1 L 579.7,97.1 L 579.7,97.0 L 579.8,96.9 L 579.8,96.9 L 579.8,96.8 L 579.9,96.8 L 579.9,96.8 L 580.0,96.7 L 580.0,96.7 L 580.1,96.6 L 580.1,96.6 L 580.2,96.6 L 580.2,96.6 L 580.3,96.6 L 580.3,96.6 L 580.4,96.6 L 580.5,96.6 L 580.5,96.6 L 580.6,96.6 L 580.6,96.6 L 580.7,96.6 L 580.7,96.7 L 580.8,96.7 L 580.8,96.7 L 580.9,96.8 L 580.9,96.8 L 581.0,96.9 L 581.0,96.9 L 581.0,97.0 L 581.0,97.0 L 581.1,97.1 L 581.1,97.1 L 581.1,97.2 L 581.1,97.3 L 580.4,97.3 Z" style="fill:#000000;fill-rule:evenodd;fill-opacity:1;stroke:#000000;stroke-width:0.0px;stroke-linecap:butt;stroke-linejoin:miter;stroke-miterlimit:10;stroke-opacity:1;"/>
<path class="bond-0 atom-0 atom-1" d="M 232.0,375.0 L 46.2,375.0" style="fill:none;fill-rule:evenodd;stroke:#000000;stroke-width:2.0px;stroke-linecap:butt;stroke-linejoin:miter;stroke-opacity:1"/>
<path class="bond-0 atom-0 atom-1" d="M 232.0,405.5 L 46.2,405.5" style="fill:none;fill-rule:evenodd;stroke:#000000;stroke-width:2.0px;stroke-linecap:butt;stroke-linejoin:miter;stroke-opacity:1"/>
<path class="bond-0 atom-0 atom-1" d="M 232.0,344.5 L 46.2,344.5" style="fill:none;fill-rule:evenodd;stroke:#000000;stroke-width:2.0px;stroke-linecap:butt;stroke-linejoin:miter;stroke-opacity:1"/>
<path class="atom-1" d="M 22.5 360.8 L 31.8 375.8 Q 32.7 377.3, 34.2 380.0 Q 35.7 382.7, 35.8 382.8 L 35.8 360.8 L 39.5 360.8 L 39.5 389.2 L 35.6 389.2 L 25.7 372.8 Q 24.5 370.8, 23.3 368.6 Q 22.1 366.4, 21.7 365.8 L 21.7 389.2 L 18.0 389.2 L 18.0 360.8 L 22.5 360.8 " fill="#000000"/>
<path class="bond-0 atom-0 atom-1" d="M 449.1,413.1 L 478.3,413.3" style="fill:none;fill-rule:evenodd;stroke:#000000;stroke-width:2.0px;stroke-linecap:butt;stroke-linejoin:miter;stroke-opacity:1"/>
<path class="bond-0 atom-0 atom-1" d="M 449.1,408.8 L 478.3,408.9" style="fill:none;fill-rule:evenodd;stroke:#000000;stroke-width:2.0px;stroke-linecap:butt;stroke-linejoin:miter;stroke-opacity:1"/>
<path class="bond-0 atom-0 atom-1" d="M 449.1,417.5 L 478.3,417.7" style="fill:none;fill-rule:evenodd;stroke:#000000;stroke-width:2.0px;stroke-linecap:butt;stroke-linejoin:miter;stroke-opacity:1"/>
<path class="bond-1 atom-1 atom-2" d="M 478.3,413.3 L 487.5,385.6" style="fill:none;fill-rule:evenodd;stroke:#000000;stroke-width:2.0px;stroke-linecap:butt;stroke-linejoin:miter;stroke-opacity:1"/>
<path class="bond-2 atom-2 atom-3" d="M 487.5,385.6 L 463.9,368.3" style="fill:none;fill-rule:evenodd;stroke:#000000;stroke-width:2.0px;stroke-linecap:butt;stroke-linejoin:miter;stroke-opacity:1"/>
<path class="bond-2 atom-2 atom-3" d="M 482.3,387.2 L 463.9,373.7" style="fill:none;fill-rule:evenodd;stroke:#000000;stroke-width:2.0px;stroke-linecap:butt;stroke-linejoin:miter;stroke-opacity:1"/>
<path class="bond-3 atom-3 atom-4" d="M 463.9,368.3 L 440.2,385.3" style="fill:none;fill-rule:evenodd;stroke:#000000;stroke-width:2.0px;stroke-linecap:butt;stroke-linejoin:miter;stroke-opacity:1"/>
<path class="bond-4 atom-4 atom-5" d="M 440.2,385.3 L 413.4,397.0" style="fill:none;fill-rule:evenodd;stroke:#000000;stroke-width:2.0px;stroke-linecap:butt;stroke-linejoin:miter;stroke-opacity:1"/>
<path class="bond-5 atom-5 atom-6" d="M 413.4,397.0 L 389.9,379.7" style="fill:none;fill-rule:evenodd;stroke:#000000;stroke-width:2.0px;stroke-linecap:butt;stroke-linejoin:miter;stroke-opacity:1"/>
<path class="bond-6 atom-6 atom-7" d="M 389.9,379.7 L 363.1,391.5" style="fill:none;fill-rule:evenodd;stroke:#000000;stroke-width:2.0px;stroke-linecap:butt;stroke-linejoin:miter;stroke-opacity:1"/>
<path class="bond-6 atom-6 atom-7" d="M 389.3,384.8 L 364.9,395.5" style="fill:none;fill-rule:evenodd;stroke:#000000;stroke-width:2.0px;stroke-linecap:butt;stroke-linejoin:miter;stroke-opacity:1"/>
<path class="bond-7 atom-7 atom-8" d="M 363.1,391.5 L 339.6,374.2" style="fill:none;fill-rule:evenodd;stroke:#000000;stroke-width:2.0px;stroke-linecap:butt;stroke-linejoin:miter;stroke-opacity:1"/>
<path class="bond-8 atom-8 atom-9" d="M 339.6,374.2 L 312.8,385.9" style="fill:none;fill-rule:evenodd;stroke:#000000;stroke-width:2.0px;stroke-linecap:butt;stroke-linejoin:miter;stroke-opacity:1"/>
<path class="bond-8 atom-8 atom-9" d="M 339.0,379.2 L 316.9,388.9" style="fill:none;fill-rule:evenodd;stroke:#000000;stroke-width:2.0px;stroke-linecap:butt;stroke-linejoin:miter;stroke-opacity:1"/>
<path class="bond-9 atom-9 atom-10" d="M 312.8,385.9 L 310.1,410.1" style="fill:none;fill-rule:evenodd;stroke:#000000;stroke-width:2.0px;stroke-linecap:butt;stroke-linejoin:miter;stroke-opacity:1"/>
<path class="bond-10 atom-9 atom-11" d="M 312.8,385.9 L 289.3,368.6" style="fill:none;fill-rule:evenodd;stroke:#000000;stroke-width:2.0px;stroke-linecap:butt;stroke-linejoin:miter;stroke-opacity:1"/>
<path class="bond-11 atom-11 atom-12" d="M 289.3,368.6 L 262.5,380.3" style="fill:none;fill-rule:evenodd;stroke:#000000;stroke-width:2.0px;stroke-linecap:butt;stroke-linejoin:miter;stroke-opacity:1"/>
<path class="bond-11 atom-11 atom-12" d="M 288.7,373.6 L 264.3,384.4" style="fill:none;fill-rule:evenodd;stroke:#000000;stroke-width:2.0px;stroke-linecap:butt;stroke-linejoin:miter;stroke-opacity:1"/>
<path class="bond-12 atom-4 atom-13" d="M 440.2,385.3 L 428.6,365.0" style="fill:none;fill-rule:evenodd;stroke:#000000;stroke-width:2.0px;stroke-linecap:butt;stroke-linejoin:miter;stroke-opacity:1"/>
<path class="bond-13 atom-13 atom-14" d="M 428.7,354.8 L 437.4,340.0" style="fill:none;fill-rule:evenodd;stroke:#000000;stroke-width:2.0px;stroke-linecap:butt;stroke-linejoin:miter;stroke-opacity:1"/>
<path class="bond-14 atom-4 atom-0" d="M 440.2,385.3 L 449.1,413.1" style="fill:none;fill-rule:evenodd;stroke:#000000;stroke-width:2.0px;stroke-linecap:butt;stroke-linejoin:miter;stroke-opacity:1"/>
<path d="M 450.6,413.2 L 449.1,413.1 L 448.6,411.8" style="fill:none;stroke:#000000;stroke-width:2.0px;stroke-linecap:butt;stroke-linejoin:miter;stroke-miterlimit:10;stroke-opacity:1;"/>
<path d="M 476.9,413.3 L 478.3,413.3 L 478.8,411.9" style="fill:none;stroke:#000000;stroke-width:2.0px;stroke-linecap:butt;stroke-linejoin:miter;stroke-miterlimit:10;stroke-opacity:1;"/>
<path d="M 487.0,386.9 L 487.5,385.6 L 486.3,384.7" style="fill:none;stroke:#000000;stroke-width:2.0px;stroke-linecap:butt;stroke-linejoin:miter;stroke-miterlimit:10;stroke-opacity:1;"/>
<path d="M 465.1,369.1 L 463.9,368.3 L 462.8,369.1" style="fill:none;stroke:#000000;stroke-width:2.0px;stroke-linecap:butt;stroke-linejoin:miter;stroke-miterlimit:10;stroke-opacity:1;"/>
<path d="M 414.8,396.5 L 413.4,397.0 L 412.3,396.2" style="fill:none;stroke:#000000;stroke-width:2.0px;stroke-linecap:butt;stroke-linejoin:miter;stroke-miterlimit:10;stroke-opacity:1;"/>
<path d="M 391.1,380.6 L 389.9,379.7 L 388.6,380.3" style="fill:none;stroke:#000000;stroke-width:2.0px;stroke-linecap:butt;stroke-linejoin:miter;stroke-miterlimit:10;stroke-opacity:1;"/>
<path d="M 364.5,390.9 L 363.1,391.5 L 362.0,390.6" style="fill:none;stroke:#000000;stroke-width:2.0px;stroke-linecap:butt;stroke-linejoin:miter;stroke-miterlimit:10;stroke-opacity:1;"/>
<path d="M 340.8,375.0 L 339.6,374.2 L 338.2,374.8" style="fill:none;stroke:#000000;stroke-width:2.0px;stroke-linecap:butt;stroke-linejoin:miter;stroke-miterlimit:10;stroke-opacity:1;"/>
<path d="M 290.4,369.5 L 289.3,368.6 L 287.9,369.2" style="fill:none;stroke:#000000;stroke-width:2.0px;stroke-linecap:butt;stroke-linejoin:miter;stroke-miterlimit:10;stroke-opacity:1;"/>
<path class="atom-10" d="M 306.4 415.3 Q 306.4 413.2, 307.4 412.1 Q 308.3 411.0, 310.2 411.0 Q 311.9 411.0, 312.8 412.2 L 312.0 412.9 Q 311.4 412.0, 310.2 412.0 Q 308.9 412.0, 308.3 412.8 Q 307.6 413.7, 307.6 415.3 Q 307.6 416.9, 308.3 417.7 Q 309.0 418.6, 310.3 418.6 Q 311.2 418.6, 312.3 418.0 L 312.6 418.9 Q 312.2 419.2, 311.5 419.3 Q 310.9 419.5, 310.1 419.5 Q 308.3 419.5, 307.4 418.4 Q 306.4 417.3, 306.4 415.3 " fill="#000000"/>
<path class="atom-10" d="M 313.6 410.5 L 314.7 410.5 L 314.7 419.4 L 313.6 419.4 L 313.6 410.5 " fill="#000000"/>
<path class="atom-13" d="M 414.5 355.8 L 415.6 355.8 L 415.6 359.3 L 419.8 359.3 L 419.8 355.8 L 421.0 355.8 L 421.0 364.0 L 419.8 364.0 L 419.8 360.2 L 415.6 360.2 L 415.6 364.0 L 414.5 364.0 L 414.5 355.8 " fill="#000000"/>
<path class="atom-13" d="M 423.9 355.8 L 426.6 360.2 Q 426.9 360.6, 427.3 361.4 Q 427.8 362.2, 427.8 362.2 L 427.8 355.8 L 428.9 355.8 L 428.9 364.0 L 427.7 364.0 L 424.8 359.3 Q 424.5 358.7, 424.1 358.1 Q 423.8 357.4, 423.7 357.2 L 423.7 364.0 L 422.6 364.0 L 422.6 355.8 L 423.9 355.8 " fill="#000000"/>
<path class="atom-14" d="M 436.7 334.7 Q 436.7 332.7, 437.7 331.6 Q 438.7 330.5, 440.5 330.5 Q 442.3 330.5, 443.3 331.6 Q 444.3 332.7, 444.3 334.7 Q 444.3 336.7, 443.3 337.9 Q 442.3 339.0, 440.5 339.0 Q 438.7 339.0, 437.7 337.9 Q 436.7 336.7, 436.7 334.7 M 440.5 338.1 Q 441.7 338.1, 442.4 337.2 Q 443.1 336.4, 443.1 334.7 Q 443.1 333.1, 442.4 332.3 Q 441.7 331.4, 440.5 331.4 Q 439.2 331.4, 438.5 332.2 Q 437.9 333.1, 437.9 334.7 Q 437.9 336.4, 438.5 337.2 Q 439.2 338.1, 440.5 338.1 " fill="#000000"/>
<path class="atom-14" d="M 445.6 330.6 L 446.7 330.6 L 446.7 334.1 L 450.9 334.1 L 450.9 330.6 L 452.1 330.6 L 452.1 338.9 L 450.9 338.9 L 450.9 335.0 L 446.7 335.0 L 446.7 338.9 L 445.6 338.9 L 445.6 330.6 " fill="#000000"/>
<path class="bond-0 atom-0 atom-1" d="M 530.5,392.7 L 555.3,423.0" style="fill:none;fill-rule:evenodd;stroke:#000000;stroke-width:2.0px;stroke-linecap:butt;stroke-linejoin:miter;stroke-opacity:1"/>
<path class="bond-1 atom-1 atom-2" d="M 555.3,423.0 L 605.8,414.7" style="fill:none;fill-rule:evenodd;stroke:#000000;stroke-width:2.0px;stroke-linecap:butt;stroke-linejoin:miter;stroke-opacity:1"/>
<path class="bond-2 atom-2 atom-3" d="M 605.8,414.7 L 615.3,373.9" style="fill:none;fill-rule:evenodd;stroke:#000000;stroke-width:2.0px;stroke-linecap:butt;stroke-linejoin:miter;stroke-opacity:1"/>
<path class="bond-3 atom-3 atom-4" d="M 624.6,360.5 L 660.8,338.0" style="fill:none;fill-rule:evenodd;stroke:#000000;stroke-width:2.0px;stroke-linecap:butt;stroke-linejoin:miter;stroke-opacity:1"/>
<path class="bond-4 atom-4 atom-5" d="M 664.9,338.9 L 657.8,296.2" style="fill:none;fill-rule:evenodd;stroke:#000000;stroke-width:2.0px;stroke-linecap:butt;stroke-linejoin:miter;stroke-opacity:1"/>
<path class="bond-4 atom-4 atom-5" d="M 657.3,340.2 L 650.3,297.4" style="fill:none;fill-rule:evenodd;stroke:#000000;stroke-width:2.0px;stroke-linecap:butt;stroke-linejoin:miter;stroke-opacity:1"/>
<path class="bond-5 atom-4 atom-6" d="M 660.8,338.0 L 710.6,349.6" style="fill:none;fill-rule:evenodd;stroke:#000000;stroke-width:2.0px;stroke-linecap:butt;stroke-linejoin:miter;stroke-opacity:1"/>
<path class="bond-6 atom-6 atom-7" d="M 710.6,349.6 L 737.5,393.1" style="fill:none;fill-rule:evenodd;stroke:#000000;stroke-width:2.0px;stroke-linecap:butt;stroke-linejoin:miter;stroke-opacity:1"/>
<path class="bond-7 atom-7 atom-8" d="M 737.5,393.1 L 725.9,442.8" style="fill:none;fill-rule:evenodd;stroke:#000000;stroke-width:2.0px;stroke-linecap:butt;stroke-linejoin:miter;stroke-opacity:1"/>
<path class="bond-8 atom-8 atom-9" d="M 725.9,442.8 L 682.4,469.7" style="fill:none;fill-rule:evenodd;stroke:#000000;stroke-width:2.0px;stroke-linecap:butt;stroke-linejoin:miter;stroke-opacity:1"/>
<path class="bond-8 atom-8 atom-9" d="M 719.1,438.0 L 678.4,463.2" style="fill:none;fill-rule:evenodd;stroke:#000000;stroke-width:2.0px;stroke-linecap:butt;stroke-linejoin:miter;stroke-opacity:1"/>
<path class="bond-9 atom-9 atom-10" d="M 682.4,469.7 L 632.7,458.1" style="fill:none;fill-rule:evenodd;stroke:#000000;stroke-width:2.0px;stroke-linecap:butt;stroke-linejoin:miter;stroke-opacity:1"/>
<path class="bond-10 atom-10 atom-2" d="M 632.7,458.1 L 605.8,414.7" style="fill:none;fill-rule:evenodd;stroke:#000000;stroke-width:2.0px;stroke-linecap:butt;stroke-linejoin:miter;stroke-opacity:1"/>
<path d="M 554.1,421.4 L 555.3,423.0 L 557.9,422.5" style="fill:none;stroke:#000000;stroke-width:2.0px;stroke-linecap:butt;stroke-linejoin:miter;stroke-miterlimit:10;stroke-opacity:1;"/>
<path d="M 659.0,339.1 L 660.8,338.0 L 663.3,338.6" style="fill:none;stroke:#000000;stroke-width:2.0px;stroke-linecap:butt;stroke-linejoin:miter;stroke-miterlimit:10;stroke-opacity:1;"/>
<path d="M 708.1,349.1 L 710.6,349.6 L 711.9,351.8" style="fill:none;stroke:#000000;stroke-width:2.0px;stroke-linecap:butt;stroke-linejoin:miter;stroke-miterlimit:10;stroke-opacity:1;"/>
<path d="M 736.2,390.9 L 737.5,393.1 L 736.9,395.5" style="fill:none;stroke:#000000;stroke-width:2.0px;stroke-linecap:butt;stroke-linejoin:miter;stroke-miterlimit:10;stroke-opacity:1;"/>
<path d="M 726.4,440.3 L 725.9,442.8 L 723.7,444.1" style="fill:none;stroke:#000000;stroke-width:2.0px;stroke-linecap:butt;stroke-linejoin:miter;stroke-miterlimit:10;stroke-opacity:1;"/>
<path d="M 684.6,468.4 L 682.4,469.7 L 680.0,469.2" style="fill:none;stroke:#000000;stroke-width:2.0px;stroke-linecap:butt;stroke-linejoin:miter;stroke-miterlimit:10;stroke-opacity:1;"/>
<path d="M 635.2,458.7 L 632.7,458.1 L 631.4,455.9" style="fill:none;stroke:#000000;stroke-width:2.0px;stroke-linecap:butt;stroke-linejoin:miter;stroke-miterlimit:10;stroke-opacity:1;"/>
<path class="atom-0" d="M 516.3 383.5 Q 516.3 380.0, 518.0 378.1 Q 519.8 376.1, 523.0 376.1 Q 526.2 376.1, 527.9 378.1 Q 529.6 380.0, 529.6 383.5 Q 529.6 387.0, 527.9 389.0 Q 526.1 391.0, 523.0 391.0 Q 519.8 391.0, 518.0 389.0 Q 516.3 387.0, 516.3 383.5 M 523.0 389.3 Q 525.2 389.3, 526.4 387.9 Q 527.6 386.4, 527.6 383.5 Q 527.6 380.6, 526.4 379.2 Q 525.2 377.8, 523.0 377.8 Q 520.8 377.8, 519.6 379.2 Q 518.4 380.6, 518.4 383.5 Q 518.4 386.4, 519.6 387.9 Q 520.8 389.3, 523.0 389.3 " fill="#000000"/>
<path class="atom-0" d="M 531.8 378.7 L 534.3 378.7 L 534.3 376.0 L 535.5 376.0 L 535.5 378.7 L 538.1 378.7 L 538.1 379.7 L 535.5 379.7 L 535.5 382.4 L 534.3 382.4 L 534.3 379.7 L 531.8 379.7 L 531.8 378.7 " fill="#000000"/>
<path class="atom-3" d="M 597.7 357.7 L 599.7 357.7 L 599.7 363.9 L 607.1 363.9 L 607.1 357.7 L 609.1 357.7 L 609.1 372.2 L 607.1 372.2 L 607.1 365.5 L 599.7 365.5 L 599.7 372.2 L 597.7 372.2 L 597.7 357.7 " fill="#000000"/>
<path class="atom-3" d="M 614.2 357.7 L 619.0 365.4 Q 619.4 366.1, 620.2 367.5 Q 620.9 368.9, 621.0 368.9 L 621.0 357.7 L 622.9 357.7 L 622.9 372.2 L 620.9 372.2 L 615.8 363.8 Q 615.2 362.8, 614.6 361.7 Q 614.0 360.6, 613.8 360.2 L 613.8 372.2 L 611.9 372.2 L 611.9 357.7 L 614.2 357.7 " fill="#000000"/>
<path class="atom-5" d="M 645.9 287.6 Q 645.9 284.1, 647.6 282.2 Q 649.3 280.3, 652.5 280.3 Q 655.7 280.3, 657.5 282.2 Q 659.2 284.1, 659.2 287.6 Q 659.2 291.1, 657.4 293.1 Q 655.7 295.1, 652.5 295.1 Q 649.4 295.1, 647.6 293.1 Q 645.9 291.2, 645.9 287.6 M 652.5 293.5 Q 654.7 293.5, 655.9 292.0 Q 657.1 290.5, 657.1 287.6 Q 657.1 284.8, 655.9 283.4 Q 654.7 281.9, 652.5 281.9 Q 650.3 281.9, 649.1 283.3 Q 647.9 284.8, 647.9 287.6 Q 647.9 290.5, 649.1 292.0 Q 650.3 293.5, 652.5 293.5 " fill="#000000"/>
<path class="atom-0" d="M 514.3,385.5 L 514.3,385.6 L 514.3,385.7 L 514.3,385.7 L 514.2,385.8 L 514.2,385.9 L 514.2,386.0 L 514.1,386.1 L 514.1,386.1 L 514.0,386.2 L 513.9,386.3 L 513.9,386.3 L 513.8,386.4 L 513.7,386.4 L 513.6,386.4 L 513.5,386.5 L 513.5,386.5 L 513.4,386.5 L 513.3,386.5 L 513.2,386.5 L 513.1,386.5 L 513.0,386.5 L 512.9,386.4 L 512.9,386.4 L 512.8,386.4 L 512.7,386.3 L 512.6,386.3 L 512.6,386.2 L 512.5,386.2 L 512.5,386.1 L 512.4,386.0 L 512.4,385.9 L 512.3,385.9 L 512.3,385.8 L 512.3,385.7 L 512.3,385.6 L 512.2,385.5 L 512.2,385.4 L 512.3,385.3 L 512.3,385.3 L 512.3,385.2 L 512.3,385.1 L 512.4,385.0 L 512.4,384.9 L 512.5,384.9 L 512.5,384.8 L 512.6,384.7 L 512.6,384.7 L 512.7,384.6 L 512.8,384.6 L 512.9,384.5 L 512.9,384.5 L 513.0,384.5 L 513.1,384.5 L 513.2,384.5 L 513.3,384.5 L 513.4,384.5 L 513.5,384.5 L 513.5,384.5 L 513.6,384.5 L 513.7,384.6 L 513.8,384.6 L 513.9,384.6 L 513.9,384.7 L 514.0,384.8 L 514.1,384.8 L 514.1,384.9 L 514.2,385.0 L 514.2,385.1 L 514.2,385.1 L 514.3,385.2 L 514.3,385.3 L 514.3,385.4 L 514.3,385.5 L 513.3,385.5 Z" style="fill:#000000;fill-rule:evenodd;fill-opacity:1;stroke:#000000;stroke-width:0.0px;stroke-linecap:butt;stroke-linejoin:miter;stroke-miterlimit:10;stroke-opacity:1;"/>
<path class="atom-0" d="M 514.3,381.4 L 514.3,381.5 L 514.3,381.6 L 514.3,381.7 L 514.2,381.7 L 514.2,381.8 L 514.2,381.9 L 514.1,382.0 L 514.1,382.0 L 514.0,382.1 L 513.9,382.2 L 513.9,382.2 L 513.8,382.3 L 513.7,382.3 L 513.6,382.3 L 513.5,382.4 L 513.5,382.4 L 513.4,382.4 L 513.3,382.4 L 513.2,382.4 L 513.1,382.4 L 513.0,382.4 L 512.9,382.4 L 512.9,382.3 L 512.8,382.3 L 512.7,382.2 L 512.6,382.2 L 512.6,382.1 L 512.5,382.1 L 512.5,382.0 L 512.4,381.9 L 512.4,381.9 L 512.3,381.8 L 512.3,381.7 L 512.3,381.6 L 512.3,381.5 L 512.2,381.4 L 512.2,381.3 L 512.3,381.3 L 512.3,381.2 L 512.3,381.1 L 512.3,381.0 L 512.4,380.9 L 512.4,380.8 L 512.5,380.8 L 512.5,380.7 L 512.6,380.6 L 512.6,380.6 L 512.7,380.5 L 512.8,380.5 L 512.9,380.5 L 512.9,380.4 L 513.0,380.4 L 513.1,380.4 L 513.2,380.4 L 513.3,380.4 L 513.4,380.4 L 513.5,380.4 L 513.5,380.4 L 513.6,380.4 L 513.7,380.5 L 513.8,380.5 L 513.9,380.6 L 513.9,380.6 L 514.0,380.7 L 514.1,380.7 L 514.1,380.8 L 514.2,380.9 L 514.2,381.0 L 514.2,381.0 L 514.3,381.1 L 514.3,381.2 L 514.3,381.3 L 514.3,381.4 L 513.3,381.4 Z" style="fill:#000000;fill-rule:evenodd;fill-opacity:1;stroke:#000000;stroke-width:0.0px;stroke-linecap:butt;stroke-linejoin:miter;stroke-miterlimit:10;stroke-opacity:1;"/>
<path class="atom-6" d="M 717.7,349.6 L 717.7,349.7 L 717.7,349.8 L 717.7,349.9 L 717.7,350.0 L 717.6,350.1 L 717.6,350.1 L 717.5,350.2 L 717.5,350.3 L 717.4,350.4 L 717.4,350.4 L 717.3,350.5 L 717.2,350.5 L 717.1,350.6 L 717.1,350.6 L 717.0,350.6 L 716.9,350.6 L 716.8,350.7 L 716.7,350.7 L 716.6,350.7 L 716.5,350.7 L 716.5,350.6 L 716.4,350.6 L 716.3,350.6 L 716.2,350.5 L 716.1,350.5 L 716.1,350.4 L 716.0,350.4 L 715.9,350.3 L 715.9,350.3 L 715.8,350.2 L 715.8,350.1 L 715.7,350.0 L 715.7,349.9 L 715.7,349.9 L 715.7,349.8 L 715.7,349.7 L 715.7,349.6 L 715.7,349.5 L 715.7,349.4 L 715.7,349.3 L 715.7,349.3 L 715.8,349.2 L 715.8,349.1 L 715.9,349.0 L 715.9,349.0 L 716.0,348.9 L 716.1,348.8 L 716.1,348.8 L 716.2,348.7 L 716.3,348.7 L 716.4,348.7 L 716.5,348.6 L 716.5,348.6 L 716.6,348.6 L 716.7,348.6 L 716.8,348.6 L 716.9,348.6 L 717.0,348.7 L 717.1,348.7 L 717.1,348.7 L 717.2,348.8 L 717.3,348.8 L 717.4,348.9 L 717.4,348.9 L 717.5,349.0 L 717.5,349.1 L 717.6,349.1 L 717.6,349.2 L 717.7,349.3 L 717.7,349.4 L 717.7,349.5 L 717.7,349.6 L 717.7,349.6 L 716.7,349.6 Z" style="fill:#000000;fill-rule:evenodd;fill-opacity:1;stroke:#000000;stroke-width:0.0px;stroke-linecap:butt;stroke-linejoin:miter;stroke-miterlimit:10;stroke-opacity:1;"/>
<path class="atom-10" d="M 627.6,458.1 L 627.6,458.2 L 627.6,458.3 L 627.6,458.3 L 627.5,458.4 L 627.5,458.5 L 627.5,458.6 L 627.4,458.7 L 627.4,458.7 L 627.3,458.8 L 627.2,458.9 L 627.2,458.9 L 627.1,459.0 L 627.0,459.0 L 626.9,459.0 L 626.9,459.1 L 626.8,459.1 L 626.7,459.1 L 626.6,459.1 L 626.5,459.1 L 626.4,459.1 L 626.3,459.1 L 626.2,459.1 L 626.2,459.0 L 626.1,459.0 L 626.0,458.9 L 625.9,458.9 L 625.9,458.8 L 625.8,458.8 L 625.8,458.7 L 625.7,458.6 L 625.7,458.6 L 625.6,458.5 L 625.6,458.4 L 625.6,458.3 L 625.6,458.2 L 625.5,458.1 L 625.5,458.0 L 625.6,458.0 L 625.6,457.9 L 625.6,457.8 L 625.6,457.7 L 625.7,457.6 L 625.7,457.5 L 625.8,457.5 L 625.8,457.4 L 625.9,457.3 L 625.9,457.3 L 626.0,457.2 L 626.1,457.2 L 626.2,457.2 L 626.2,457.1 L 626.3,457.1 L 626.4,457.1 L 626.5,457.1 L 626.6,457.1 L 626.7,457.1 L 626.8,457.1 L 626.9,457.1 L 626.9,457.1 L 627.0,457.2 L 627.1,457.2 L 627.2,457.3 L 627.2,457.3 L 627.3,457.4 L 627.4,457.4 L 627.4,457.5 L 627.5,457.6 L 627.5,457.7 L 627.5,457.7 L 627.6,457.8 L 627.6,457.9 L 627.6,458.0 L 627.6,458.1 L 626.6,458.1 Z" style="fill:#000000;fill-rule:evenodd;fill-opacity:1;stroke:#000000;stroke-width:0.0px;stroke-linecap:butt;stroke-linejoin:miter;stroke-miterlimit:10;stroke-opacity:1;"/>
<path class="bond-0 atom-0 atom-1" d="M 35.5,634.7 L 55.1,615.3" style="fill:none;fill-rule:evenodd;stroke:#000000;stroke-width:2.0px;stroke-linecap:butt;stroke-linejoin:miter;stroke-opacity:1"/>
<path class="bond-1 atom-1 atom-2" d="M 66.9,608.3 L 98.3,617.0" style="fill:none;fill-rule:evenodd;stroke:#000000;stroke-width:2.0px;stroke-linecap:butt;stroke-linejoin:miter;stroke-opacity:1"/>
<path class="bond-1 atom-1 atom-2" d="M 65.1,614.7 L 96.6,623.4" style="fill:none;fill-rule:evenodd;stroke:#000000;stroke-width:2.0px;stroke-linecap:butt;stroke-linejoin:miter;stroke-opacity:1"/>
<path class="bond-2 atom-2 atom-3" d="M 108.3,616.3 L 134.2,590.9" style="fill:none;fill-rule:evenodd;stroke:#000000;stroke-width:2.0px;stroke-linecap:butt;stroke-linejoin:miter;stroke-opacity:1"/>
<path class="bond-3 atom-3 atom-4" d="M 134.2,590.9 L 176.5,602.6" style="fill:none;fill-rule:evenodd;stroke:#000000;stroke-width:2.0px;stroke-linecap:butt;stroke-linejoin:miter;stroke-opacity:1"/>
<path class="bond-4 atom-4 atom-5" d="M 176.5,602.6 L 207.8,571.8" style="fill:none;fill-rule:evenodd;stroke:#000000;stroke-width:2.0px;stroke-linecap:butt;stroke-linejoin:miter;stroke-opacity:1"/>
<path class="bond-5 atom-4 atom-6" d="M 176.5,602.6 L 187.5,645.1" style="fill:none;fill-rule:evenodd;stroke:#000000;stroke-width:2.0px;stroke-linecap:butt;stroke-linejoin:miter;stroke-opacity:1"/>
<path class="bond-6 atom-6 atom-7" d="M 187.5,645.1 L 223.6,655.0" style="fill:none;fill-rule:evenodd;stroke:#000000;stroke-width:2.0px;stroke-linecap:butt;stroke-linejoin:miter;stroke-opacity:1"/>
<path class="bond-7 atom-6 atom-8" d="M 186.6,641.4 L 153.9,673.5" style="fill:none;fill-rule:evenodd;stroke:#000000;stroke-width:2.0px;stroke-linecap:butt;stroke-linejoin:miter;stroke-opacity:1"/>
<path class="bond-7 atom-6 atom-8" d="M 191.2,646.1 L 158.5,678.2" style="fill:none;fill-rule:evenodd;stroke:#000000;stroke-width:2.0px;stroke-linecap:butt;stroke-linejoin:miter;stroke-opacity:1"/>
<path d="M 132.9,592.2 L 134.2,590.9 L 136.3,591.5" style="fill:none;stroke:#000000;stroke-width:2.0px;stroke-linecap:butt;stroke-linejoin:miter;stroke-miterlimit:10;stroke-opacity:1;"/>
<path d="M 187.0,642.9 L 187.5,645.1 L 189.3,645.6" style="fill:none;stroke:#000000;stroke-width:2.0px;stroke-linecap:butt;stroke-linejoin:miter;stroke-miterlimit:10;stroke-opacity:1;"/>
<path class="atom-0" d="M 12.5 634.6 L 14.2 634.6 L 14.2 639.9 L 20.5 639.9 L 20.5 634.6 L 22.2 634.6 L 22.2 647.0 L 20.5 647.0 L 20.5 641.3 L 14.2 641.3 L 14.2 647.0 L 12.5 647.0 L 12.5 634.6 " fill="#000000"/>
<path class="atom-0" d="M 26.5 634.6 L 30.6 641.2 Q 31.0 641.8, 31.7 643.0 Q 32.3 644.2, 32.4 644.2 L 32.4 634.6 L 34.0 634.6 L 34.0 647.0 L 32.3 647.0 L 27.9 639.8 Q 27.4 639.0, 26.9 638.0 Q 26.3 637.0, 26.2 636.7 L 26.2 647.0 L 24.6 647.0 L 24.6 634.6 L 26.5 634.6 " fill="#000000"/>
<path class="atom-0" d="M 36.3 636.6 L 40.6 636.6 L 40.6 637.6 L 36.3 637.6 L 36.3 636.6 " fill="#000000"/>
<path class="atom-1" d="M 57.1 614.3 Q 57.2 614.3, 57.8 614.6 Q 58.4 614.8, 59.0 615.0 Q 59.6 615.1, 60.3 615.1 Q 61.5 615.1, 62.1 614.5 Q 62.8 614.0, 62.8 613.0 Q 62.8 612.3, 62.5 611.9 Q 62.1 611.4, 61.6 611.2 Q 61.1 611.0, 60.2 610.7 Q 59.1 610.4, 58.4 610.1 Q 57.8 609.7, 57.3 609.1 Q 56.8 608.4, 56.8 607.3 Q 56.8 605.7, 57.9 604.8 Q 59.0 603.8, 61.1 603.8 Q 62.5 603.8, 64.2 604.5 L 63.8 605.8 Q 62.3 605.2, 61.1 605.2 Q 59.9 605.2, 59.3 605.7 Q 58.6 606.2, 58.6 607.1 Q 58.6 607.7, 58.9 608.2 Q 59.3 608.6, 59.8 608.8 Q 60.3 609.0, 61.1 609.3 Q 62.3 609.6, 62.9 610.0 Q 63.6 610.3, 64.1 611.0 Q 64.6 611.8, 64.6 613.0 Q 64.6 614.7, 63.4 615.6 Q 62.3 616.5, 60.3 616.5 Q 59.2 616.5, 58.4 616.3 Q 57.6 616.1, 56.6 615.6 L 57.1 614.3 " fill="#000000"/>
<path class="atom-1" d="M 66.2 605.9 L 68.4 605.9 L 68.4 603.5 L 69.4 603.5 L 69.4 605.9 L 71.6 605.9 L 71.6 606.7 L 69.4 606.7 L 69.4 609.0 L 68.4 609.0 L 68.4 606.7 L 66.2 606.7 L 66.2 605.9 " fill="#000000"/>
<path class="atom-2" d="M 99.4 626.0 Q 99.5 626.0, 100.1 626.3 Q 100.7 626.5, 101.3 626.7 Q 102.0 626.8, 102.6 626.8 Q 103.8 626.8, 104.4 626.2 Q 105.1 625.7, 105.1 624.7 Q 105.1 624.0, 104.8 623.5 Q 104.4 623.1, 103.9 622.9 Q 103.4 622.7, 102.5 622.4 Q 101.4 622.1, 100.7 621.8 Q 100.1 621.4, 99.6 620.8 Q 99.2 620.1, 99.2 619.0 Q 99.2 617.4, 100.2 616.5 Q 101.3 615.5, 103.4 615.5 Q 104.8 615.5, 106.5 616.2 L 106.1 617.5 Q 104.6 616.9, 103.4 616.9 Q 102.2 616.9, 101.6 617.4 Q 100.9 617.9, 100.9 618.8 Q 100.9 619.4, 101.3 619.8 Q 101.6 620.2, 102.1 620.5 Q 102.6 620.7, 103.4 621.0 Q 104.6 621.3, 105.2 621.7 Q 105.9 622.0, 106.4 622.7 Q 106.9 623.4, 106.9 624.7 Q 106.9 626.4, 105.7 627.3 Q 104.6 628.2, 102.7 628.2 Q 101.6 628.2, 100.7 628.0 Q 99.9 627.7, 98.9 627.3 L 99.4 626.0 " fill="#000000"/>
<path class="atom-2" d="M 98.0 629.5 L 99.7 629.5 L 99.7 634.8 L 106.1 634.8 L 106.1 629.5 L 107.8 629.5 L 107.8 641.9 L 106.1 641.9 L 106.1 636.2 L 99.7 636.2 L 99.7 641.9 L 98.0 641.9 L 98.0 629.5 " fill="#000000"/>
<path class="atom-7" d="M 225.0 657.2 Q 225.0 654.1, 226.5 652.5 Q 227.9 650.9, 230.7 650.9 Q 233.3 650.9, 234.6 652.7 L 233.5 653.6 Q 232.5 652.3, 230.7 652.3 Q 228.8 652.3, 227.8 653.6 Q 226.8 654.8, 226.8 657.2 Q 226.8 659.7, 227.8 660.9 Q 228.9 662.2, 230.9 662.2 Q 232.3 662.2, 233.8 661.4 L 234.3 662.7 Q 233.7 663.1, 232.7 663.3 Q 231.7 663.6, 230.6 663.6 Q 227.9 663.6, 226.5 661.9 Q 225.0 660.3, 225.0 657.2 " fill="#000000"/>
<path class="atom-7" d="M 235.9 650.1 L 237.5 650.1 L 237.5 663.4 L 235.9 663.4 L 235.9 650.1 " fill="#000000"/>
<path class="bond-0 atom-0 atom-1" d="M 450.1,648.7 L 434.1,614.9" style="fill:none;fill-rule:evenodd;stroke:#000000;stroke-width:2.0px;stroke-linecap:butt;stroke-linejoin:miter;stroke-opacity:1"/>
<path class="bond-1 atom-2 atom-1" d="M 368.3,599.4 L 418.8,598.9 L 418.1,608.0 Z" style="fill:#000000;fill-rule:evenodd;fill-opacity:1;stroke:#000000;stroke-width:0.5px;stroke-linecap:butt;stroke-linejoin:miter;stroke-miterlimit:10;stroke-opacity:1;"/>
<path class="bond-2 atom-2 atom-3" d="M 368.3,599.4 L 318.1,564.8" style="fill:none;fill-rule:evenodd;stroke:#000000;stroke-width:2.0px;stroke-linecap:butt;stroke-linejoin:miter;stroke-opacity:1"/>
<path class="bond-3 atom-3 atom-4" d="M 318.1,564.8 L 313.3,625.6" style="fill:none;fill-rule:evenodd;stroke:#000000;stroke-width:2.0px;stroke-linecap:butt;stroke-linejoin:miter;stroke-opacity:1"/>
<path class="bond-4 atom-4 atom-5" d="M 311.6,628.6 L 311.1,628.2" style="fill:none;fill-rule:evenodd;stroke:#000000;stroke-width:1.0px;stroke-linecap:butt;stroke-linejoin:miter;stroke-opacity:1"/>
<path class="bond-4 atom-4 atom-5" d="M 309.8,631.6 L 308.8,630.9" style="fill:none;fill-rule:evenodd;stroke:#000000;stroke-width:1.0px;stroke-linecap:butt;stroke-linejoin:miter;stroke-opacity:1"/>
<path class="bond-4 atom-4 atom-5" d="M 308.1,634.6 L 306.6,633.6" style="fill:none;fill-rule:evenodd;stroke:#000000;stroke-width:1.0px;stroke-linecap:butt;stroke-linejoin:miter;stroke-opacity:1"/>
<path class="bond-4 atom-4 atom-5" d="M 306.4,637.6 L 304.4,636.2" style="fill:none;fill-rule:evenodd;stroke:#000000;stroke-width:1.0px;stroke-linecap:butt;stroke-linejoin:miter;stroke-opacity:1"/>
<path class="bond-4 atom-4 atom-5" d="M 304.7,640.7 L 302.2,638.9" style="fill:none;fill-rule:evenodd;stroke:#000000;stroke-width:1.0px;stroke-linecap:butt;stroke-linejoin:miter;stroke-opacity:1"/>
<path class="bond-4 atom-4 atom-5" d="M 303.0,643.7 L 300.0,641.6" style="fill:none;fill-rule:evenodd;stroke:#000000;stroke-width:1.0px;stroke-linecap:butt;stroke-linejoin:miter;stroke-opacity:1"/>
<path class="bond-4 atom-4 atom-5" d="M 301.3,646.7 L 297.8,644.3" style="fill:none;fill-rule:evenodd;stroke:#000000;stroke-width:1.0px;stroke-linecap:butt;stroke-linejoin:miter;stroke-opacity:1"/>
<path class="bond-4 atom-4 atom-5" d="M 299.6,649.7 L 295.6,646.9" style="fill:none;fill-rule:evenodd;stroke:#000000;stroke-width:1.0px;stroke-linecap:butt;stroke-linejoin:miter;stroke-opacity:1"/>
<path class="bond-4 atom-4 atom-5" d="M 297.9,652.7 L 293.3,649.6" style="fill:none;fill-rule:evenodd;stroke:#000000;stroke-width:1.0px;stroke-linecap:butt;stroke-linejoin:miter;stroke-opacity:1"/>
<path class="bond-4 atom-4 atom-5" d="M 296.1,655.8 L 291.1,652.3" style="fill:none;fill-rule:evenodd;stroke:#000000;stroke-width:1.0px;stroke-linecap:butt;stroke-linejoin:miter;stroke-opacity:1"/>
<path class="bond-4 atom-4 atom-5" d="M 294.4,658.8 L 288.9,655.0" style="fill:none;fill-rule:evenodd;stroke:#000000;stroke-width:1.0px;stroke-linecap:butt;stroke-linejoin:miter;stroke-opacity:1"/>
<path class="bond-4 atom-4 atom-5" d="M 292.7,661.8 L 286.7,657.6" style="fill:none;fill-rule:evenodd;stroke:#000000;stroke-width:1.0px;stroke-linecap:butt;stroke-linejoin:miter;stroke-opacity:1"/>
<path class="bond-4 atom-4 atom-5" d="M 291.0,664.8 L 284.5,660.3" style="fill:none;fill-rule:evenodd;stroke:#000000;stroke-width:1.0px;stroke-linecap:butt;stroke-linejoin:miter;stroke-opacity:1"/>
<path class="bond-4 atom-4 atom-5" d="M 289.3,667.8 L 282.3,663.0" style="fill:none;fill-rule:evenodd;stroke:#000000;stroke-width:1.0px;stroke-linecap:butt;stroke-linejoin:miter;stroke-opacity:1"/>
<path class="bond-4 atom-4 atom-5" d="M 287.6,670.9 L 280.1,665.7" style="fill:none;fill-rule:evenodd;stroke:#000000;stroke-width:1.0px;stroke-linecap:butt;stroke-linejoin:miter;stroke-opacity:1"/>
<path class="bond-5 atom-4 atom-2" d="M 313.3,625.6 L 368.3,599.4" style="fill:none;fill-rule:evenodd;stroke:#000000;stroke-width:2.0px;stroke-linecap:butt;stroke-linejoin:miter;stroke-opacity:1"/>
<path d="M 365.8,597.7 L 368.3,599.4 L 365.5,600.7" style="fill:none;stroke:#000000;stroke-width:2.0px;stroke-linecap:butt;stroke-linejoin:miter;stroke-miterlimit:10;stroke-opacity:1;"/>
<path d="M 320.6,566.5 L 318.1,564.8 L 317.9,567.9" style="fill:none;stroke:#000000;stroke-width:2.0px;stroke-linecap:butt;stroke-linejoin:miter;stroke-miterlimit:10;stroke-opacity:1;"/>
<path d="M 313.5,622.5 L 313.3,625.6 L 316.0,624.2" style="fill:none;stroke:#000000;stroke-width:2.0px;stroke-linecap:butt;stroke-linejoin:miter;stroke-miterlimit:10;stroke-opacity:1;"/>
<path class="atom-0" d="M 454.8 650.7 Q 457.7 650.7, 459.2 652.0 Q 460.7 653.3, 460.7 655.7 Q 460.7 658.1, 459.2 659.5 Q 457.7 660.8, 454.8 660.8 L 452.0 660.8 L 452.0 667.9 L 449.7 667.9 L 449.7 650.7 L 454.8 650.7 M 454.8 658.9 Q 456.5 658.9, 457.4 658.1 Q 458.3 657.3, 458.3 655.7 Q 458.3 654.2, 457.4 653.4 Q 456.5 652.6, 454.8 652.6 L 452.0 652.6 L 452.0 658.9 L 454.8 658.9 " fill="#000000"/>
<path class="atom-0" d="M 463.0 650.7 L 465.4 650.7 L 465.4 658.0 L 474.2 658.0 L 474.2 650.7 L 476.6 650.7 L 476.6 667.9 L 474.2 667.9 L 474.2 660.0 L 465.4 660.0 L 465.4 667.9 L 463.0 667.9 L 463.0 650.7 " fill="#000000"/>
<path class="atom-0" d="M 479.9 667.3 Q 480.3 666.2, 481.3 665.6 Q 482.3 665.0, 483.7 665.0 Q 485.4 665.0, 486.3 666.0 Q 487.3 666.9, 487.3 668.6 Q 487.3 670.3, 486.1 671.8 Q 484.8 673.4, 482.2 675.3 L 487.5 675.3 L 487.5 676.6 L 479.8 676.6 L 479.8 675.5 Q 482.0 674.0, 483.2 672.8 Q 484.5 671.7, 485.1 670.7 Q 485.7 669.7, 485.7 668.6 Q 485.7 667.5, 485.2 666.9 Q 484.6 666.3, 483.7 666.3 Q 482.7 666.3, 482.1 666.7 Q 481.5 667.1, 481.1 667.9 L 479.9 667.3 " fill="#000000"/>
<path class="atom-1" d="M 425.2 595.6 L 430.9 604.8 Q 431.4 605.7, 432.3 607.3 Q 433.2 608.9, 433.3 609.0 L 433.3 595.6 L 435.6 595.6 L 435.6 612.9 L 433.2 612.9 L 427.1 602.9 Q 426.4 601.7, 425.7 600.4 Q 425.0 599.1, 424.7 598.6 L 424.7 612.9 L 422.5 612.9 L 422.5 595.6 L 425.2 595.6 " fill="#000000"/>
<path class="atom-1" d="M 438.8 595.6 L 441.2 595.6 L 441.2 603.0 L 450.0 603.0 L 450.0 595.6 L 452.3 595.6 L 452.3 612.9 L 450.0 612.9 L 450.0 604.9 L 441.2 604.9 L 441.2 612.9 L 438.8 612.9 L 438.8 595.6 " fill="#000000"/>
<path class="atom-1" d="M 455.7 612.3 Q 456.1 611.2, 457.1 610.6 Q 458.1 610.0, 459.5 610.0 Q 461.2 610.0, 462.2 610.9 Q 463.1 611.9, 463.1 613.5 Q 463.1 615.2, 461.9 616.8 Q 460.6 618.4, 458.1 620.2 L 463.3 620.2 L 463.3 621.5 L 455.7 621.5 L 455.7 620.4 Q 457.8 618.9, 459.0 617.8 Q 460.3 616.7, 460.9 615.7 Q 461.5 614.7, 461.5 613.6 Q 461.5 612.5, 461.0 611.9 Q 460.4 611.3, 459.5 611.3 Q 458.6 611.3, 458.0 611.7 Q 457.3 612.0, 456.9 612.9 L 455.7 612.3 " fill="#000000"/>
<path class="atom-1" d="M 455.7 598.7 L 458.8 598.7 L 458.8 595.5 L 460.1 595.5 L 460.1 598.7 L 463.3 598.7 L 463.3 599.9 L 460.1 599.9 L 460.1 603.1 L 458.8 603.1 L 458.8 599.9 L 455.7 599.9 L 455.7 598.7 " fill="#000000"/>
<path class="atom-5" d="M 262.5 676.3 Q 262.5 672.0, 264.5 669.8 Q 266.5 667.5, 270.3 667.5 Q 273.9 667.5, 275.8 670.0 L 274.2 671.3 Q 272.8 669.5, 270.3 669.5 Q 267.7 669.5, 266.4 671.3 Q 265.0 673.0, 265.0 676.3 Q 265.0 679.7, 266.4 681.5 Q 267.8 683.2, 270.6 683.2 Q 272.5 683.2, 274.7 682.1 L 275.4 683.9 Q 274.5 684.5, 273.2 684.8 Q 271.8 685.2, 270.3 685.2 Q 266.5 685.2, 264.5 682.9 Q 262.5 680.6, 262.5 676.3 " fill="#000000"/>
<path class="atom-5" d="M 277.6 666.5 L 279.8 666.5 L 279.8 685.0 L 277.6 685.0 L 277.6 666.5 " fill="#000000"/>
<path class="bond-0 atom-0 atom-1" d="M 518.2,670.0 L 543.9,636.4" style="fill:none;fill-rule:evenodd;stroke:#000000;stroke-width:2.0px;stroke-linecap:butt;stroke-linejoin:miter;stroke-opacity:1"/>
<path class="bond-1 atom-1 atom-2" d="M 543.9,636.4 L 527.7,597.3" style="fill:none;fill-rule:evenodd;stroke:#000000;stroke-width:2.0px;stroke-linecap:butt;stroke-linejoin:miter;stroke-opacity:1"/>
<path class="bond-2 atom-2 atom-3" d="M 527.7,597.3 L 553.4,563.7" style="fill:none;fill-rule:evenodd;stroke:#000000;stroke-width:2.0px;stroke-linecap:butt;stroke-linejoin:miter;stroke-opacity:1"/>
<path class="bond-3 atom-3 atom-4" d="M 553.4,563.7 L 588.5,568.3" style="fill:none;fill-rule:evenodd;stroke:#000000;stroke-width:2.0px;stroke-linecap:butt;stroke-linejoin:miter;stroke-opacity:1"/>
<path class="bond-4 atom-4 atom-5" d="M 598.5,576.8 L 611.6,608.2" style="fill:none;fill-rule:evenodd;stroke:#000000;stroke-width:2.0px;stroke-linecap:butt;stroke-linejoin:miter;stroke-opacity:1"/>
<path class="bond-5 atom-5 atom-6" d="M 611.6,608.2 L 585.9,641.8" style="fill:none;fill-rule:evenodd;stroke:#000000;stroke-width:2.0px;stroke-linecap:butt;stroke-linejoin:miter;stroke-opacity:1"/>
<path class="bond-6 atom-6 atom-7" d="M 585.9,641.8 L 599.1,673.5" style="fill:none;fill-rule:evenodd;stroke:#000000;stroke-width:2.0px;stroke-linecap:butt;stroke-linejoin:miter;stroke-opacity:1"/>
<path class="bond-7 atom-7 atom-8" d="M 608.1,681.7 L 644.1,686.4" style="fill:none;fill-rule:evenodd;stroke:#000000;stroke-width:2.0px;stroke-linecap:butt;stroke-linejoin:miter;stroke-opacity:1"/>
<path class="bond-8 atom-8 atom-9" d="M 644.1,686.4 L 669.8,652.8" style="fill:none;fill-rule:evenodd;stroke:#000000;stroke-width:2.0px;stroke-linecap:butt;stroke-linejoin:miter;stroke-opacity:1"/>
<path class="bond-9 atom-9 atom-10" d="M 669.8,652.8 L 711.8,658.2" style="fill:none;fill-rule:evenodd;stroke:#000000;stroke-width:2.0px;stroke-linecap:butt;stroke-linejoin:miter;stroke-opacity:1"/>
<path class="bond-9 atom-9 atom-10" d="M 674.2,647.1 L 709.0,651.6" style="fill:none;fill-rule:evenodd;stroke:#000000;stroke-width:2.0px;stroke-linecap:butt;stroke-linejoin:miter;stroke-opacity:1"/>
<path class="bond-10 atom-10 atom-11" d="M 711.8,658.2 L 737.5,624.6" style="fill:none;fill-rule:evenodd;stroke:#000000;stroke-width:2.0px;stroke-linecap:butt;stroke-linejoin:miter;stroke-opacity:1"/>
<path class="bond-11 atom-11 atom-12" d="M 737.5,624.6 L 721.3,585.6" style="fill:none;fill-rule:evenodd;stroke:#000000;stroke-width:2.0px;stroke-linecap:butt;stroke-linejoin:miter;stroke-opacity:1"/>
<path class="bond-11 atom-11 atom-12" d="M 730.4,623.7 L 716.9,591.3" style="fill:none;fill-rule:evenodd;stroke:#000000;stroke-width:2.0px;stroke-linecap:butt;stroke-linejoin:miter;stroke-opacity:1"/>
<path class="bond-12 atom-12 atom-13" d="M 721.3,585.6 L 679.3,580.1" style="fill:none;fill-rule:evenodd;stroke:#000000;stroke-width:2.0px;stroke-linecap:butt;stroke-linejoin:miter;stroke-opacity:1"/>
<path class="bond-13 atom-13 atom-14" d="M 679.3,580.1 L 653.6,613.7" style="fill:none;fill-rule:evenodd;stroke:#000000;stroke-width:2.0px;stroke-linecap:butt;stroke-linejoin:miter;stroke-opacity:1"/>
<path class="bond-13 atom-13 atom-14" d="M 682.1,586.7 L 660.7,614.6" style="fill:none;fill-rule:evenodd;stroke:#000000;stroke-width:2.0px;stroke-linecap:butt;stroke-linejoin:miter;stroke-opacity:1"/>
<path class="bond-14 atom-6 atom-1" d="M 585.9,641.8 L 543.9,636.4" style="fill:none;fill-rule:evenodd;stroke:#000000;stroke-width:2.0px;stroke-linecap:butt;stroke-linejoin:miter;stroke-opacity:1"/>
<path class="bond-15 atom-14 atom-5" d="M 653.6,613.7 L 611.6,608.2" style="fill:none;fill-rule:evenodd;stroke:#000000;stroke-width:2.0px;stroke-linecap:butt;stroke-linejoin:miter;stroke-opacity:1"/>
<path class="bond-16 atom-14 atom-9" d="M 653.6,613.7 L 669.8,652.8" style="fill:none;fill-rule:evenodd;stroke:#000000;stroke-width:2.0px;stroke-linecap:butt;stroke-linejoin:miter;stroke-opacity:1"/>
<path class="bond-17 atom-6 atom-15" d="M 585.9,641.8 L 577.9,657.4 L 573.0,653.6 Z" style="fill:#000000;fill-rule:evenodd;fill-opacity:1;stroke:#000000;stroke-width:0.5px;stroke-linecap:butt;stroke-linejoin:miter;stroke-miterlimit:10;stroke-opacity:1;"/>
<path d="M 528.5,599.2 L 527.7,597.3 L 529.0,595.6" style="fill:none;stroke:#000000;stroke-width:2.0px;stroke-linecap:butt;stroke-linejoin:miter;stroke-miterlimit:10;stroke-opacity:1;"/>
<path d="M 552.1,565.4 L 553.4,563.7 L 555.2,563.9" style="fill:none;stroke:#000000;stroke-width:2.0px;stroke-linecap:butt;stroke-linejoin:miter;stroke-miterlimit:10;stroke-opacity:1;"/>
<path d="M 642.3,686.1 L 644.1,686.4 L 645.4,684.7" style="fill:none;stroke:#000000;stroke-width:2.0px;stroke-linecap:butt;stroke-linejoin:miter;stroke-miterlimit:10;stroke-opacity:1;"/>
<path d="M 709.7,658.0 L 711.8,658.2 L 713.1,656.6" style="fill:none;stroke:#000000;stroke-width:2.0px;stroke-linecap:butt;stroke-linejoin:miter;stroke-miterlimit:10;stroke-opacity:1;"/>
<path d="M 736.2,626.3 L 737.5,624.6 L 736.7,622.7" style="fill:none;stroke:#000000;stroke-width:2.0px;stroke-linecap:butt;stroke-linejoin:miter;stroke-miterlimit:10;stroke-opacity:1;"/>
<path d="M 722.1,587.5 L 721.3,585.6 L 719.2,585.3" style="fill:none;stroke:#000000;stroke-width:2.0px;stroke-linecap:butt;stroke-linejoin:miter;stroke-miterlimit:10;stroke-opacity:1;"/>
<path d="M 681.4,580.4 L 679.3,580.1 L 678.0,581.8" style="fill:none;stroke:#000000;stroke-width:2.0px;stroke-linecap:butt;stroke-linejoin:miter;stroke-miterlimit:10;stroke-opacity:1;"/>
<path class="atom-4" d="M 589.9 569.2 Q 589.9 566.3, 591.3 564.7 Q 592.7 563.1, 595.4 563.1 Q 598.0 563.1, 599.4 564.7 Q 600.9 566.3, 600.9 569.2 Q 600.9 572.1, 599.4 573.8 Q 598.0 575.4, 595.4 575.4 Q 592.7 575.4, 591.3 573.8 Q 589.9 572.1, 589.9 569.2 M 595.4 574.0 Q 597.2 574.0, 598.2 572.8 Q 599.2 571.6, 599.2 569.2 Q 599.2 566.8, 598.2 565.7 Q 597.2 564.4, 595.4 564.4 Q 593.5 564.4, 592.5 565.6 Q 591.6 566.8, 591.6 569.2 Q 591.6 571.6, 592.5 572.8 Q 593.5 574.0, 595.4 574.0 " fill="#000000"/>
<path class="atom-7" d="M 585.9 674.9 L 587.5 674.9 L 587.5 680.0 L 593.6 680.0 L 593.6 674.9 L 595.2 674.9 L 595.2 686.9 L 593.6 686.9 L 593.6 681.4 L 587.5 681.4 L 587.5 686.9 L 585.9 686.9 L 585.9 674.9 " fill="#000000"/>
<path class="atom-7" d="M 599.5 674.9 L 603.4 681.3 Q 603.8 681.9, 604.4 683.0 Q 605.1 684.2, 605.1 684.2 L 605.1 674.9 L 606.7 674.9 L 606.7 686.9 L 605.0 686.9 L 600.8 680.0 Q 600.3 679.2, 599.8 678.2 Q 599.3 677.3, 599.2 677.0 L 599.2 686.9 L 597.6 686.9 L 597.6 674.9 L 599.5 674.9 " fill="#000000"/>
<path class="atom-15" d="M 564.1 658.3 L 565.7 658.3 L 565.7 663.3 L 571.8 663.3 L 571.8 658.3 L 573.4 658.3 L 573.4 670.2 L 571.8 670.2 L 571.8 664.7 L 565.7 664.7 L 565.7 670.2 L 564.1 670.2 L 564.1 658.3 " fill="#000000"/>
<path class="atom-0" d="M 514.0,671.7 L 514.0,671.7 L 514.0,671.8 L 514.0,671.9 L 513.9,672.0 L 513.9,672.0 L 513.9,672.1 L 513.8,672.1 L 513.8,672.2 L 513.7,672.3 L 513.7,672.3 L 513.6,672.4 L 513.6,672.4 L 513.5,672.4 L 513.4,672.5 L 513.4,672.5 L 513.3,672.5 L 513.2,672.5 L 513.2,672.5 L 513.1,672.5 L 513.0,672.5 L 512.9,672.5 L 512.9,672.5 L 512.8,672.4 L 512.7,672.4 L 512.7,672.4 L 512.6,672.3 L 512.6,672.3 L 512.5,672.2 L 512.5,672.2 L 512.4,672.1 L 512.4,672.1 L 512.4,672.0 L 512.3,671.9 L 512.3,671.9 L 512.3,671.8 L 512.3,671.7 L 512.3,671.6 L 512.3,671.6 L 512.3,671.5 L 512.3,671.4 L 512.4,671.3 L 512.4,671.3 L 512.4,671.2 L 512.5,671.2 L 512.5,671.1 L 512.6,671.1 L 512.6,671.0 L 512.7,671.0 L 512.7,670.9 L 512.8,670.9 L 512.9,670.9 L 512.9,670.8 L 513.0,670.8 L 513.1,670.8 L 513.2,670.8 L 513.2,670.8 L 513.3,670.8 L 513.4,670.9 L 513.4,670.9 L 513.5,670.9 L 513.6,670.9 L 513.6,671.0 L 513.7,671.0 L 513.7,671.1 L 513.8,671.1 L 513.8,671.2 L 513.9,671.3 L 513.9,671.3 L 513.9,671.4 L 514.0,671.5 L 514.0,671.5 L 514.0,671.6 L 514.0,671.7 L 513.1,671.7 Z" style="fill:#000000;fill-rule:evenodd;fill-opacity:1;stroke:#000000;stroke-width:0.0px;stroke-linecap:butt;stroke-linejoin:miter;stroke-miterlimit:10;stroke-opacity:1;"/>
<path class="atom-0" d="M 514.0,668.3 L 514.0,668.4 L 514.0,668.4 L 514.0,668.5 L 513.9,668.6 L 513.9,668.6 L 513.9,668.7 L 513.8,668.8 L 513.8,668.8 L 513.7,668.9 L 513.7,668.9 L 513.6,669.0 L 513.6,669.0 L 513.5,669.0 L 513.4,669.1 L 513.4,669.1 L 513.3,669.1 L 513.2,669.1 L 513.2,669.1 L 513.1,669.1 L 513.0,669.1 L 512.9,669.1 L 512.9,669.1 L 512.8,669.1 L 512.7,669.0 L 512.7,669.0 L 512.6,668.9 L 512.6,668.9 L 512.5,668.8 L 512.5,668.8 L 512.4,668.7 L 512.4,668.7 L 512.4,668.6 L 512.3,668.5 L 512.3,668.5 L 512.3,668.4 L 512.3,668.3 L 512.3,668.2 L 512.3,668.2 L 512.3,668.1 L 512.3,668.0 L 512.4,668.0 L 512.4,667.9 L 512.4,667.8 L 512.5,667.8 L 512.5,667.7 L 512.6,667.7 L 512.6,667.6 L 512.7,667.6 L 512.7,667.5 L 512.8,667.5 L 512.9,667.5 L 512.9,667.5 L 513.0,667.4 L 513.1,667.4 L 513.2,667.4 L 513.2,667.4 L 513.3,667.5 L 513.4,667.5 L 513.4,667.5 L 513.5,667.5 L 513.6,667.6 L 513.6,667.6 L 513.7,667.6 L 513.7,667.7 L 513.8,667.7 L 513.8,667.8 L 513.9,667.9 L 513.9,667.9 L 513.9,668.0 L 514.0,668.1 L 514.0,668.1 L 514.0,668.2 L 514.0,668.3 L 513.1,668.3 Z" style="fill:#000000;fill-rule:evenodd;fill-opacity:1;stroke:#000000;stroke-width:0.0px;stroke-linecap:butt;stroke-linejoin:miter;stroke-miterlimit:10;stroke-opacity:1;"/>
</svg>