<svg xmlns="http://www.w3.org/2000/svg" xmlns:rdkit="http://www.rdkit.org/xml" xmlns:xlink="http://www.w3.org/1999/xlink" version="1.1" baseProfile="full" xml:space="preserve" width="750px" height="750px" viewBox="0 0 750 750">
<!-- END OF HEADER -->
<rect style="opacity:1.0;fill:#FFFFFF;stroke:none" width="250.0" height="250.0" x="0.0" y="0.0"> </rect>
<path class="bond-0 atom-0 atom-1" d="M 210.2,134.8 L 175.2,114.6" style="fill:none;fill-rule:evenodd;stroke:#000000;stroke-width:2.0px;stroke-linecap:butt;stroke-linejoin:miter;stroke-opacity:1"/>
<path class="bond-1 atom-1 atom-2" d="M 160.9,114.6 L 117.9,139.5" style="fill:none;fill-rule:evenodd;stroke:#000000;stroke-width:2.0px;stroke-linecap:butt;stroke-linejoin:miter;stroke-opacity:1"/>
<path class="bond-2 atom-2 atom-3" d="M 117.9,139.5 L 74.8,114.6" style="fill:none;fill-rule:evenodd;stroke:#000000;stroke-width:2.0px;stroke-linecap:butt;stroke-linejoin:miter;stroke-opacity:1"/>
<path class="bond-3 atom-3 atom-4" d="M 60.5,114.6 L 24.2,135.6" style="fill:none;fill-rule:evenodd;stroke:#000000;stroke-width:2.0px;stroke-linecap:butt;stroke-linejoin:miter;stroke-opacity:1"/>
<path d="M 120.0,138.3 L 117.9,139.5 L 115.7,138.3" style="fill:none;stroke:#000000;stroke-width:2.0px;stroke-linecap:butt;stroke-linejoin:miter;stroke-miterlimit:10;stroke-opacity:1;"/>
<path class="atom-0" d="M 214.7 131.3 L 220.1 140.0 Q 220.6 140.8, 221.5 142.4 Q 222.3 144.0, 222.4 144.0 L 222.4 131.3 L 224.6 131.3 L 224.6 147.7 L 222.3 147.7 L 216.5 138.2 Q 215.9 137.1, 215.1 135.8 Q 214.4 134.5, 214.2 134.1 L 214.2 147.7 L 212.1 147.7 L 212.1 131.3 L 214.7 131.3 " fill="#000000"/>
<path class="atom-0" d="M 227.5 134.0 L 233.1 134.0 L 233.1 135.2 L 227.5 135.2 L 227.5 134.0 " fill="#000000"/>
<path class="atom-1" d="M 167.7 102.3 Q 170.5 102.3, 171.9 103.6 Q 173.3 104.8, 173.3 107.1 Q 173.3 109.4, 171.9 110.7 Q 170.4 112.0, 167.7 112.0 L 165.1 112.0 L 165.1 118.7 L 162.8 118.7 L 162.8 102.3 L 167.7 102.3 M 167.7 110.1 Q 169.3 110.1, 170.2 109.3 Q 171.0 108.6, 171.0 107.1 Q 171.0 105.6, 170.2 104.9 Q 169.3 104.1, 167.7 104.1 L 165.1 104.1 L 165.1 110.1 L 167.7 110.1 " fill="#000000"/>
<path class="atom-3" d="M 67.2 102.3 Q 70.0 102.3, 71.4 103.6 Q 72.9 104.8, 72.9 107.1 Q 72.9 109.4, 71.4 110.7 Q 70.0 112.0, 67.2 112.0 L 64.6 112.0 L 64.6 118.7 L 62.4 118.7 L 62.4 102.3 L 67.2 102.3 M 67.2 110.1 Q 68.8 110.1, 69.7 109.3 Q 70.5 108.6, 70.5 107.1 Q 70.5 105.6, 69.7 104.9 Q 68.8 104.1, 67.2 104.1 L 64.6 104.1 L 64.6 110.1 L 67.2 110.1 " fill="#000000"/>
<path class="atom-4" d="M 12.5 131.3 L 22.3 131.3 L 22.3 133.2 L 14.7 133.2 L 14.7 138.2 L 21.4 138.2 L 21.4 140.1 L 14.7 140.1 L 14.7 147.7 L 12.5 147.7 L 12.5 131.3 " fill="#000000"/>
<path class="atom-0" d="M 237.8,139.5 L 237.8,139.6 L 237.8,139.7 L 237.8,139.8 L 237.7,139.9 L 237.7,140.0 L 237.6,140.1 L 237.6,140.2 L 237.5,140.2 L 237.5,140.3 L 237.4,140.4 L 237.3,140.4 L 237.2,140.5 L 237.1,140.5 L 237.0,140.6 L 237.0,140.6 L 236.9,140.6 L 236.8,140.7 L 236.7,140.7 L 236.6,140.7 L 236.5,140.6 L 236.4,140.6 L 236.3,140.6 L 236.2,140.6 L 236.1,140.5 L 236.0,140.5 L 235.9,140.4 L 235.8,140.3 L 235.8,140.3 L 235.7,140.2 L 235.6,140.1 L 235.6,140.0 L 235.6,139.9 L 235.5,139.8 L 235.5,139.7 L 235.5,139.7 L 235.5,139.6 L 235.5,139.5 L 235.5,139.4 L 235.5,139.3 L 235.5,139.2 L 235.6,139.1 L 235.6,139.0 L 235.6,138.9 L 235.7,138.8 L 235.8,138.7 L 235.8,138.7 L 235.9,138.6 L 236.0,138.5 L 236.1,138.5 L 236.2,138.4 L 236.3,138.4 L 236.4,138.4 L 236.5,138.4 L 236.6,138.3 L 236.7,138.3 L 236.8,138.3 L 236.9,138.4 L 237.0,138.4 L 237.0,138.4 L 237.1,138.5 L 237.2,138.5 L 237.3,138.6 L 237.4,138.6 L 237.5,138.7 L 237.5,138.8 L 237.6,138.8 L 237.6,138.9 L 237.7,139.0 L 237.7,139.1 L 237.8,139.2 L 237.8,139.3 L 237.8,139.4 L 237.8,139.5 L 236.6,139.5 Z" style="fill:#000000;fill-rule:evenodd;fill-opacity:1;stroke:#000000;stroke-width:0.0px;stroke-linecap:butt;stroke-linejoin:miter;stroke-miterlimit:10;stroke-opacity:1;"/>
<path class="atom-1" d="M 169.2,120.5 L 169.2,120.6 L 169.2,120.7 L 169.2,120.7 L 169.2,120.8 L 169.1,120.9 L 169.1,121.0 L 169.0,121.1 L 169.0,121.2 L 168.9,121.3 L 168.8,121.3 L 168.8,121.4 L 168.7,121.4 L 168.6,121.5 L 168.5,121.5 L 168.4,121.6 L 168.3,121.6 L 168.2,121.6 L 168.1,121.6 L 168.0,121.6 L 167.9,121.6 L 167.8,121.6 L 167.7,121.6 L 167.6,121.5 L 167.5,121.5 L 167.5,121.4 L 167.4,121.4 L 167.3,121.3 L 167.2,121.2 L 167.2,121.2 L 167.1,121.1 L 167.1,121.0 L 167.0,120.9 L 167.0,120.8 L 167.0,120.7 L 166.9,120.6 L 166.9,120.5 L 166.9,120.4 L 166.9,120.3 L 167.0,120.2 L 167.0,120.1 L 167.0,120.0 L 167.1,119.9 L 167.1,119.8 L 167.2,119.8 L 167.2,119.7 L 167.3,119.6 L 167.4,119.5 L 167.5,119.5 L 167.5,119.4 L 167.6,119.4 L 167.7,119.4 L 167.8,119.3 L 167.9,119.3 L 168.0,119.3 L 168.1,119.3 L 168.2,119.3 L 168.3,119.3 L 168.4,119.3 L 168.5,119.4 L 168.6,119.4 L 168.7,119.5 L 168.8,119.5 L 168.8,119.6 L 168.9,119.6 L 169.0,119.7 L 169.0,119.8 L 169.1,119.9 L 169.1,120.0 L 169.2,120.1 L 169.2,120.2 L 169.2,120.3 L 169.2,120.4 L 169.2,120.5 L 168.1,120.5 Z" style="fill:#000000;fill-rule:evenodd;fill-opacity:1;stroke:#000000;stroke-width:0.0px;stroke-linecap:butt;stroke-linejoin:miter;stroke-miterlimit:10;stroke-opacity:1;"/>
<path class="atom-2" d="M 121.3,144.7 L 121.3,144.8 L 121.3,144.9 L 121.3,145.0 L 121.3,145.1 L 121.2,145.2 L 121.2,145.3 L 121.1,145.4 L 121.1,145.5 L 121.0,145.5 L 120.9,145.6 L 120.9,145.7 L 120.8,145.7 L 120.7,145.8 L 120.6,145.8 L 120.5,145.8 L 120.4,145.9 L 120.3,145.9 L 120.2,145.9 L 120.1,145.9 L 120.0,145.9 L 119.9,145.9 L 119.8,145.8 L 119.7,145.8 L 119.6,145.7 L 119.5,145.7 L 119.5,145.6 L 119.4,145.6 L 119.3,145.5 L 119.2,145.4 L 119.2,145.3 L 119.1,145.3 L 119.1,145.2 L 119.1,145.1 L 119.0,145.0 L 119.0,144.9 L 119.0,144.8 L 119.0,144.7 L 119.0,144.6 L 119.0,144.5 L 119.1,144.4 L 119.1,144.3 L 119.1,144.2 L 119.2,144.1 L 119.2,144.0 L 119.3,143.9 L 119.4,143.9 L 119.5,143.8 L 119.5,143.8 L 119.6,143.7 L 119.7,143.7 L 119.8,143.6 L 119.9,143.6 L 120.0,143.6 L 120.1,143.6 L 120.2,143.6 L 120.3,143.6 L 120.4,143.6 L 120.5,143.6 L 120.6,143.6 L 120.7,143.7 L 120.8,143.7 L 120.9,143.8 L 120.9,143.8 L 121.0,143.9 L 121.1,144.0 L 121.1,144.1 L 121.2,144.1 L 121.2,144.2 L 121.3,144.3 L 121.3,144.4 L 121.3,144.5 L 121.3,144.6 L 121.3,144.7 L 120.2,144.7 Z" style="fill:#000000;fill-rule:evenodd;fill-opacity:1;stroke:#000000;stroke-width:0.0px;stroke-linecap:butt;stroke-linejoin:miter;stroke-miterlimit:10;stroke-opacity:1;"/>
<path class="atom-2" d="M 116.7,144.7 L 116.7,144.8 L 116.7,144.9 L 116.7,145.0 L 116.6,145.1 L 116.6,145.2 L 116.5,145.3 L 116.5,145.4 L 116.4,145.5 L 116.4,145.5 L 116.3,145.6 L 116.2,145.7 L 116.1,145.7 L 116.0,145.8 L 115.9,145.8 L 115.9,145.8 L 115.8,145.9 L 115.7,145.9 L 115.6,145.9 L 115.5,145.9 L 115.4,145.9 L 115.3,145.9 L 115.2,145.8 L 115.1,145.8 L 115.0,145.7 L 114.9,145.7 L 114.8,145.6 L 114.7,145.6 L 114.7,145.5 L 114.6,145.4 L 114.6,145.3 L 114.5,145.3 L 114.5,145.2 L 114.4,145.1 L 114.4,145.0 L 114.4,144.9 L 114.4,144.8 L 114.4,144.7 L 114.4,144.6 L 114.4,144.5 L 114.4,144.4 L 114.5,144.3 L 114.5,144.2 L 114.6,144.1 L 114.6,144.0 L 114.7,143.9 L 114.7,143.9 L 114.8,143.8 L 114.9,143.8 L 115.0,143.7 L 115.1,143.7 L 115.2,143.6 L 115.3,143.6 L 115.4,143.6 L 115.5,143.6 L 115.6,143.6 L 115.7,143.6 L 115.8,143.6 L 115.9,143.6 L 115.9,143.6 L 116.0,143.7 L 116.1,143.7 L 116.2,143.8 L 116.3,143.8 L 116.4,143.9 L 116.4,144.0 L 116.5,144.1 L 116.5,144.1 L 116.6,144.2 L 116.6,144.3 L 116.7,144.4 L 116.7,144.5 L 116.7,144.6 L 116.7,144.7 L 115.5,144.7 Z" style="fill:#000000;fill-rule:evenodd;fill-opacity:1;stroke:#000000;stroke-width:0.0px;stroke-linecap:butt;stroke-linejoin:miter;stroke-miterlimit:10;stroke-opacity:1;"/>
<path class="atom-3" d="M 68.8,120.5 L 68.8,120.6 L 68.8,120.7 L 68.7,120.7 L 68.7,120.8 L 68.7,120.9 L 68.6,121.0 L 68.6,121.1 L 68.5,121.2 L 68.4,121.3 L 68.4,121.3 L 68.3,121.4 L 68.2,121.4 L 68.1,121.5 L 68.0,121.5 L 67.9,121.6 L 67.8,121.6 L 67.7,121.6 L 67.6,121.6 L 67.5,121.6 L 67.4,121.6 L 67.3,121.6 L 67.3,121.6 L 67.2,121.5 L 67.1,121.5 L 67.0,121.4 L 66.9,121.4 L 66.8,121.3 L 66.8,121.2 L 66.7,121.2 L 66.6,121.1 L 66.6,121.0 L 66.5,120.9 L 66.5,120.8 L 66.5,120.7 L 66.5,120.6 L 66.5,120.5 L 66.5,120.4 L 66.5,120.3 L 66.5,120.2 L 66.5,120.1 L 66.5,120.0 L 66.6,119.9 L 66.6,119.8 L 66.7,119.8 L 66.8,119.7 L 66.8,119.6 L 66.9,119.5 L 67.0,119.5 L 67.1,119.4 L 67.2,119.4 L 67.3,119.4 L 67.3,119.3 L 67.4,119.3 L 67.5,119.3 L 67.6,119.3 L 67.7,119.3 L 67.8,119.3 L 67.9,119.3 L 68.0,119.4 L 68.1,119.4 L 68.2,119.5 L 68.3,119.5 L 68.4,119.6 L 68.4,119.6 L 68.5,119.7 L 68.6,119.8 L 68.6,119.9 L 68.7,120.0 L 68.7,120.1 L 68.7,120.2 L 68.8,120.3 L 68.8,120.4 L 68.8,120.5 L 67.6,120.5 Z" style="fill:#000000;fill-rule:evenodd;fill-opacity:1;stroke:#000000;stroke-width:0.0px;stroke-linecap:butt;stroke-linejoin:miter;stroke-miterlimit:10;stroke-opacity:1;"/>
<path class="bond-0 atom-0 atom-1" d="M 307.4,124.8 L 467.2,124.8" style="fill:none;fill-rule:evenodd;stroke:#000000;stroke-width:2.0px;stroke-linecap:butt;stroke-linejoin:miter;stroke-opacity:1"/>
<path class="atom-0" d="M 273.2 125.8 Q 273.2 118.8, 276.5 115.1 Q 279.8 111.4, 286.1 111.4 Q 291.9 111.4, 295.0 115.5 L 292.4 117.6 Q 290.1 114.6, 286.1 114.6 Q 281.8 114.6, 279.5 117.5 Q 277.3 120.4, 277.3 125.8 Q 277.3 131.4, 279.6 134.3 Q 282.0 137.2, 286.5 137.2 Q 289.6 137.2, 293.3 135.3 L 294.4 138.3 Q 292.9 139.2, 290.7 139.8 Q 288.4 140.4, 286.0 140.4 Q 279.8 140.4, 276.5 136.6 Q 273.2 132.8, 273.2 125.8 " fill="#000000"/>
<path class="atom-0" d="M 297.9 109.6 L 301.6 109.6 L 301.6 140.0 L 297.9 140.0 L 297.9 109.6 " fill="#000000"/>
<path class="atom-1" d="M 473.0 110.6 L 476.8 110.6 L 476.8 139.0 L 473.0 139.0 L 473.0 110.6 " fill="#000000"/>
<path class="bond-0 atom-0 atom-1" d="M 585.1,146.2 L 626.8,122.2" style="fill:none;fill-rule:evenodd;stroke:#000000;stroke-width:2.0px;stroke-linecap:butt;stroke-linejoin:miter;stroke-opacity:1"/>
<path class="bond-1 atom-1 atom-2" d="M 650.2,122.2 L 707.4,155.1" style="fill:none;fill-rule:evenodd;stroke:#000000;stroke-width:2.0px;stroke-linecap:butt;stroke-linejoin:miter;stroke-opacity:1"/>
<path class="atom-0" d="M 519.6 149.5 L 523.3 149.5 L 523.3 160.9 L 537.1 160.9 L 537.1 149.5 L 540.7 149.5 L 540.7 176.4 L 537.1 176.4 L 537.1 164.0 L 523.3 164.0 L 523.3 176.4 L 519.6 176.4 L 519.6 149.5 " fill="#000000"/>
<path class="atom-0" d="M 550.2 149.5 L 559.0 163.7 Q 559.9 165.1, 561.3 167.7 Q 562.7 170.2, 562.8 170.4 L 562.8 149.5 L 566.4 149.5 L 566.4 176.4 L 562.7 176.4 L 553.2 160.8 Q 552.1 159.0, 550.9 156.9 Q 549.8 154.8, 549.4 154.1 L 549.4 176.4 L 545.9 176.4 L 545.9 149.5 L 550.2 149.5 " fill="#000000"/>
<path class="atom-0" d="M 571.5 154.3 L 576.2 154.3 L 576.2 149.3 L 578.3 149.3 L 578.3 154.3 L 583.2 154.3 L 583.2 156.1 L 578.3 156.1 L 578.3 161.2 L 576.2 161.2 L 576.2 156.1 L 571.5 156.1 L 571.5 154.3 " fill="#000000"/>
<path class="atom-1" d="M 637.9 101.9 Q 642.5 101.9, 644.8 104.0 Q 647.1 106.1, 647.1 109.8 Q 647.1 113.6, 644.7 115.7 Q 642.3 117.8, 637.9 117.8 L 633.6 117.8 L 633.6 128.8 L 629.9 128.8 L 629.9 101.9 L 637.9 101.9 M 637.9 114.7 Q 640.5 114.7, 641.9 113.5 Q 643.3 112.2, 643.3 109.8 Q 643.3 107.4, 641.9 106.2 Q 640.5 105.0, 637.9 105.0 L 633.6 105.0 L 633.6 114.7 L 637.9 114.7 " fill="#000000"/>
<path class="atom-1" d="M 628.0 72.3 L 631.6 72.3 L 631.6 83.7 L 645.4 83.7 L 645.4 72.3 L 649.0 72.3 L 649.0 99.2 L 645.4 99.2 L 645.4 86.8 L 631.6 86.8 L 631.6 99.2 L 628.0 99.2 L 628.0 72.3 " fill="#000000"/>
<path class="atom-2" d="M 710.5 163.9 Q 710.5 157.2, 713.6 153.7 Q 716.8 150.1, 722.7 150.1 Q 728.3 150.1, 731.3 154.1 L 728.8 156.1 Q 726.6 153.3, 722.7 153.3 Q 718.7 153.3, 716.5 156.0 Q 714.4 158.7, 714.4 163.9 Q 714.4 169.2, 716.6 171.9 Q 718.8 174.7, 723.2 174.7 Q 726.1 174.7, 729.6 172.9 L 730.7 175.7 Q 729.2 176.7, 727.1 177.2 Q 725.0 177.7, 722.6 177.7 Q 716.8 177.7, 713.6 174.1 Q 710.5 170.6, 710.5 163.9 " fill="#000000"/>
<path class="atom-2" d="M 734.0 148.5 L 737.5 148.5 L 737.5 177.4 L 734.0 177.4 L 734.0 148.5 " fill="#000000"/>
<path class="atom-0" d="M 515.8,166.7 L 515.8,166.9 L 515.8,167.1 L 515.8,167.2 L 515.7,167.4 L 515.7,167.5 L 515.6,167.7 L 515.5,167.8 L 515.4,168.0 L 515.3,168.1 L 515.2,168.2 L 515.0,168.3 L 514.9,168.4 L 514.8,168.5 L 514.6,168.5 L 514.5,168.6 L 514.3,168.6 L 514.1,168.6 L 514.0,168.6 L 513.8,168.6 L 513.6,168.6 L 513.5,168.6 L 513.3,168.5 L 513.2,168.5 L 513.0,168.4 L 512.9,168.3 L 512.7,168.2 L 512.6,168.1 L 512.5,168.0 L 512.4,167.9 L 512.3,167.8 L 512.2,167.6 L 512.2,167.5 L 512.1,167.3 L 512.1,167.1 L 512.0,167.0 L 512.0,166.8 L 512.0,166.7 L 512.0,166.5 L 512.1,166.3 L 512.1,166.2 L 512.2,166.0 L 512.2,165.9 L 512.3,165.7 L 512.4,165.6 L 512.5,165.5 L 512.6,165.4 L 512.7,165.2 L 512.9,165.2 L 513.0,165.1 L 513.2,165.0 L 513.3,164.9 L 513.5,164.9 L 513.6,164.9 L 513.8,164.8 L 514.0,164.8 L 514.1,164.9 L 514.3,164.9 L 514.5,164.9 L 514.6,165.0 L 514.8,165.0 L 514.9,165.1 L 515.0,165.2 L 515.2,165.3 L 515.3,165.4 L 515.4,165.5 L 515.5,165.7 L 515.6,165.8 L 515.7,165.9 L 515.7,166.1 L 515.8,166.3 L 515.8,166.4 L 515.8,166.6 L 515.8,166.7 L 513.9,166.7 Z" style="fill:#000000;fill-rule:evenodd;fill-opacity:1;stroke:#000000;stroke-width:0.0px;stroke-linecap:butt;stroke-linejoin:miter;stroke-miterlimit:10;stroke-opacity:1;"/>
<path class="atom-0" d="M 515.8,159.1 L 515.8,159.3 L 515.8,159.5 L 515.8,159.6 L 515.7,159.8 L 515.7,159.9 L 515.6,160.1 L 515.5,160.2 L 515.4,160.3 L 515.3,160.5 L 515.2,160.6 L 515.0,160.7 L 514.9,160.8 L 514.8,160.8 L 514.6,160.9 L 514.5,161.0 L 514.3,161.0 L 514.1,161.0 L 514.0,161.0 L 513.8,161.0 L 513.6,161.0 L 513.5,161.0 L 513.3,160.9 L 513.2,160.9 L 513.0,160.8 L 512.9,160.7 L 512.7,160.6 L 512.6,160.5 L 512.5,160.4 L 512.4,160.3 L 512.3,160.1 L 512.2,160.0 L 512.2,159.9 L 512.1,159.7 L 512.1,159.5 L 512.0,159.4 L 512.0,159.2 L 512.0,159.1 L 512.0,158.9 L 512.1,158.7 L 512.1,158.6 L 512.2,158.4 L 512.2,158.3 L 512.3,158.1 L 512.4,158.0 L 512.5,157.9 L 512.6,157.7 L 512.7,157.6 L 512.9,157.5 L 513.0,157.5 L 513.2,157.4 L 513.3,157.3 L 513.5,157.3 L 513.6,157.3 L 513.8,157.2 L 514.0,157.2 L 514.1,157.2 L 514.3,157.3 L 514.5,157.3 L 514.6,157.4 L 514.8,157.4 L 514.9,157.5 L 515.0,157.6 L 515.2,157.7 L 515.3,157.8 L 515.4,157.9 L 515.5,158.1 L 515.6,158.2 L 515.7,158.3 L 515.7,158.5 L 515.8,158.6 L 515.8,158.8 L 515.8,159.0 L 515.8,159.1 L 513.9,159.1 Z" style="fill:#000000;fill-rule:evenodd;fill-opacity:1;stroke:#000000;stroke-width:0.0px;stroke-linecap:butt;stroke-linejoin:miter;stroke-miterlimit:10;stroke-opacity:1;"/>
<path class="bond-0 atom-0 atom-1" d="M 173.9,408.4 L 169.1,374.4" style="fill:none;fill-rule:evenodd;stroke:#000000;stroke-width:2.0px;stroke-linecap:butt;stroke-linejoin:miter;stroke-opacity:1"/>
<path class="bond-1 atom-1 atom-2" d="M 174.3,359.6 L 202.9,337.2" style="fill:none;fill-rule:evenodd;stroke:#000000;stroke-width:2.0px;stroke-linecap:butt;stroke-linejoin:miter;stroke-opacity:1"/>
<path class="bond-2 atom-1 atom-3" d="M 161.1,362.1 L 125.1,347.7" style="fill:none;fill-rule:evenodd;stroke:#000000;stroke-width:2.0px;stroke-linecap:butt;stroke-linejoin:miter;stroke-opacity:1"/>
<path class="bond-3 atom-3 atom-4" d="M 111.9,350.2 L 83.4,372.6" style="fill:none;fill-rule:evenodd;stroke:#000000;stroke-width:2.0px;stroke-linecap:butt;stroke-linejoin:miter;stroke-opacity:1"/>
<path class="bond-4 atom-4 atom-5" d="M 70.3,375.2 L 32.5,360.0" style="fill:none;fill-rule:evenodd;stroke:#000000;stroke-width:2.0px;stroke-linecap:butt;stroke-linejoin:miter;stroke-opacity:1"/>
<path class="atom-0" d="M 169.4 417.8 Q 169.4 414.0, 171.2 412.1 Q 172.9 410.1, 176.3 410.1 Q 179.4 410.1, 181.0 412.3 L 179.6 413.4 Q 178.4 411.8, 176.3 411.8 Q 174.0 411.8, 172.8 413.4 Q 171.6 414.9, 171.6 417.8 Q 171.6 420.7, 172.8 422.3 Q 174.1 423.8, 176.5 423.8 Q 178.1 423.8, 180.1 422.8 L 180.7 424.4 Q 179.9 424.9, 178.7 425.2 Q 177.5 425.5, 176.2 425.5 Q 172.9 425.5, 171.2 423.5 Q 169.4 421.5, 169.4 417.8 " fill="#000000"/>
<path class="atom-0" d="M 182.5 409.2 L 184.5 409.2 L 184.5 425.3 L 182.5 425.3 L 182.5 409.2 " fill="#000000"/>
<path class="atom-1" d="M 163.5 369.9 Q 163.6 370.0, 164.3 370.3 Q 165.0 370.6, 165.8 370.8 Q 166.6 370.9, 167.3 370.9 Q 168.8 370.9, 169.6 370.3 Q 170.4 369.6, 170.4 368.4 Q 170.4 367.5, 170.0 367.0 Q 169.6 366.5, 169.0 366.2 Q 168.3 366.0, 167.3 365.6 Q 165.9 365.2, 165.1 364.9 Q 164.3 364.5, 163.8 363.7 Q 163.2 362.9, 163.2 361.5 Q 163.2 359.6, 164.5 358.5 Q 165.8 357.3, 168.3 357.3 Q 170.1 357.3, 172.0 358.1 L 171.5 359.7 Q 169.7 359.0, 168.4 359.0 Q 166.9 359.0, 166.1 359.6 Q 165.3 360.2, 165.3 361.3 Q 165.3 362.1, 165.7 362.5 Q 166.2 363.0, 166.8 363.3 Q 167.4 363.6, 168.4 363.9 Q 169.7 364.3, 170.5 364.7 Q 171.4 365.2, 171.9 366.0 Q 172.5 366.9, 172.5 368.4 Q 172.5 370.4, 171.1 371.6 Q 169.7 372.7, 167.4 372.7 Q 166.1 372.7, 165.1 372.4 Q 164.1 372.1, 162.9 371.6 L 163.5 369.9 " fill="#000000"/>
<path class="atom-2" d="M 209.0 324.5 Q 211.6 324.5, 212.9 325.7 Q 214.2 326.8, 214.2 328.9 Q 214.2 331.0, 212.8 332.2 Q 211.5 333.4, 209.0 333.4 L 206.6 333.4 L 206.6 339.5 L 204.6 339.5 L 204.6 324.5 L 209.0 324.5 M 209.0 331.7 Q 210.5 331.7, 211.3 331.0 Q 212.1 330.3, 212.1 328.9 Q 212.1 327.6, 211.3 326.9 Q 210.5 326.2, 209.0 326.2 L 206.6 326.2 L 206.6 331.7 L 209.0 331.7 " fill="#000000"/>
<path class="atom-2" d="M 216.2 324.5 L 218.3 324.5 L 218.3 330.9 L 225.9 330.9 L 225.9 324.5 L 228.0 324.5 L 228.0 339.5 L 225.9 339.5 L 225.9 332.6 L 218.3 332.6 L 218.3 339.5 L 216.2 339.5 L 216.2 324.5 " fill="#000000"/>
<path class="atom-2" d="M 230.9 339.0 Q 231.2 338.1, 232.1 337.6 Q 233.0 337.0, 234.2 337.0 Q 235.7 337.0, 236.5 337.8 Q 237.3 338.6, 237.3 340.1 Q 237.3 341.6, 236.2 342.9 Q 235.2 344.3, 232.9 345.9 L 237.5 345.9 L 237.5 347.0 L 230.8 347.0 L 230.8 346.1 Q 232.7 344.8, 233.8 343.8 Q 234.9 342.8, 235.4 341.9 Q 235.9 341.1, 235.9 340.2 Q 235.9 339.2, 235.5 338.7 Q 235.0 338.1, 234.2 338.1 Q 233.4 338.1, 232.8 338.5 Q 232.3 338.8, 231.9 339.5 L 230.9 339.0 " fill="#000000"/>
<path class="atom-3" d="M 114.3 350.2 Q 114.4 350.3, 115.1 350.6 Q 115.8 350.9, 116.6 351.0 Q 117.4 351.2, 118.1 351.2 Q 119.6 351.2, 120.4 350.5 Q 121.2 349.8, 121.2 348.6 Q 121.2 347.8, 120.8 347.3 Q 120.4 346.8, 119.8 346.5 Q 119.1 346.2, 118.1 345.9 Q 116.7 345.5, 115.9 345.1 Q 115.1 344.7, 114.6 343.9 Q 114.0 343.1, 114.0 341.8 Q 114.0 339.9, 115.3 338.7 Q 116.6 337.6, 119.1 337.6 Q 120.9 337.6, 122.8 338.4 L 122.3 340.0 Q 120.5 339.3, 119.2 339.3 Q 117.7 339.3, 116.9 339.9 Q 116.1 340.5, 116.1 341.5 Q 116.1 342.3, 116.5 342.8 Q 117.0 343.3, 117.6 343.6 Q 118.2 343.9, 119.2 344.2 Q 120.5 344.6, 121.3 345.0 Q 122.2 345.4, 122.7 346.3 Q 123.3 347.2, 123.3 348.6 Q 123.3 350.7, 121.9 351.8 Q 120.5 352.9, 118.2 352.9 Q 116.9 352.9, 115.9 352.6 Q 114.9 352.4, 113.7 351.9 L 114.3 350.2 " fill="#000000"/>
<path class="atom-3" d="M 125.3 340.0 L 127.9 340.0 L 127.9 337.3 L 129.1 337.3 L 129.1 340.0 L 131.8 340.0 L 131.8 341.0 L 129.1 341.0 L 129.1 343.8 L 127.9 343.8 L 127.9 341.0 L 125.3 341.0 L 125.3 340.0 " fill="#000000"/>
<path class="atom-4" d="M 72.6 382.9 Q 72.8 383.0, 73.5 383.3 Q 74.2 383.6, 74.9 383.8 Q 75.7 384.0, 76.5 384.0 Q 77.9 384.0, 78.7 383.3 Q 79.5 382.6, 79.5 381.4 Q 79.5 380.5, 79.1 380.0 Q 78.7 379.5, 78.1 379.2 Q 77.4 379.0, 76.4 378.7 Q 75.0 378.3, 74.2 377.9 Q 73.5 377.5, 72.9 376.7 Q 72.3 375.9, 72.3 374.5 Q 72.3 372.6, 73.6 371.5 Q 74.9 370.3, 77.4 370.3 Q 79.2 370.3, 81.1 371.1 L 80.7 372.8 Q 78.9 372.0, 77.5 372.0 Q 76.0 372.0, 75.2 372.6 Q 74.4 373.2, 74.4 374.3 Q 74.4 375.1, 74.9 375.6 Q 75.3 376.0, 75.9 376.3 Q 76.5 376.6, 77.5 376.9 Q 78.9 377.3, 79.7 377.8 Q 80.5 378.2, 81.0 379.1 Q 81.6 379.9, 81.6 381.4 Q 81.6 383.4, 80.2 384.6 Q 78.9 385.7, 76.5 385.7 Q 75.2 385.7, 74.2 385.4 Q 73.2 385.1, 72.0 384.6 L 72.6 382.9 " fill="#000000"/>
<path class="atom-5" d="M 19.8 357.7 Q 21.2 358.1, 22.0 359.0 Q 22.7 359.8, 22.7 361.1 Q 22.7 363.2, 21.4 364.4 Q 20.0 365.6, 17.5 365.6 L 12.5 365.6 L 12.5 350.6 L 16.9 350.6 Q 19.5 350.6, 20.8 351.6 Q 22.1 352.6, 22.1 354.5 Q 22.1 356.8, 19.8 357.7 M 14.5 352.2 L 14.5 357.0 L 16.9 357.0 Q 18.4 357.0, 19.2 356.4 Q 20.0 355.7, 20.0 354.5 Q 20.0 352.2, 16.9 352.2 L 14.5 352.2 M 17.5 363.9 Q 19.0 363.9, 19.8 363.2 Q 20.6 362.5, 20.6 361.1 Q 20.6 359.9, 19.7 359.3 Q 18.9 358.7, 17.2 358.7 L 14.5 358.7 L 14.5 363.9 L 17.5 363.9 " fill="#000000"/>
<path class="atom-5" d="M 26.1 354.7 L 26.3 356.2 Q 27.5 354.5, 29.4 354.5 Q 29.9 354.5, 30.8 354.7 L 30.4 356.5 Q 29.5 356.3, 29.0 356.3 Q 28.1 356.3, 27.5 356.6 Q 27.0 357.0, 26.5 357.8 L 26.5 365.6 L 24.5 365.6 L 24.5 354.7 L 26.1 354.7 " fill="#000000"/>
<path class="atom-1" d="M 168.8,355.7 L 168.8,355.8 L 168.8,355.9 L 168.7,356.0 L 168.7,356.1 L 168.7,356.1 L 168.6,356.2 L 168.6,356.3 L 168.5,356.4 L 168.5,356.4 L 168.4,356.5 L 168.3,356.6 L 168.3,356.6 L 168.2,356.6 L 168.1,356.7 L 168.0,356.7 L 167.9,356.7 L 167.8,356.7 L 167.7,356.8 L 167.6,356.8 L 167.5,356.7 L 167.5,356.7 L 167.4,356.7 L 167.3,356.7 L 167.2,356.6 L 167.1,356.6 L 167.1,356.5 L 167.0,356.5 L 166.9,356.4 L 166.9,356.3 L 166.8,356.3 L 166.8,356.2 L 166.7,356.1 L 166.7,356.0 L 166.7,355.9 L 166.7,355.8 L 166.6,355.7 L 166.6,355.6 L 166.7,355.6 L 166.7,355.5 L 166.7,355.4 L 166.7,355.3 L 166.8,355.2 L 166.8,355.1 L 166.9,355.1 L 166.9,355.0 L 167.0,354.9 L 167.1,354.9 L 167.1,354.8 L 167.2,354.8 L 167.3,354.7 L 167.4,354.7 L 167.5,354.7 L 167.5,354.6 L 167.6,354.6 L 167.7,354.6 L 167.8,354.6 L 167.9,354.7 L 168.0,354.7 L 168.1,354.7 L 168.2,354.7 L 168.3,354.8 L 168.3,354.8 L 168.4,354.9 L 168.5,355.0 L 168.5,355.0 L 168.6,355.1 L 168.6,355.2 L 168.7,355.3 L 168.7,355.3 L 168.7,355.4 L 168.8,355.5 L 168.8,355.6 L 168.8,355.7 L 167.7,355.7 Z" style="fill:#000000;fill-rule:evenodd;fill-opacity:1;stroke:#000000;stroke-width:0.0px;stroke-linecap:butt;stroke-linejoin:miter;stroke-miterlimit:10;stroke-opacity:1;"/>
<path class="atom-3" d="M 119.6,335.7 L 119.6,335.8 L 119.6,335.8 L 119.5,335.9 L 119.5,336.0 L 119.5,336.1 L 119.4,336.2 L 119.4,336.3 L 119.3,336.3 L 119.3,336.4 L 119.2,336.5 L 119.1,336.5 L 119.1,336.6 L 119.0,336.6 L 118.9,336.7 L 118.8,336.7 L 118.7,336.7 L 118.6,336.7 L 118.5,336.7 L 118.4,336.7 L 118.3,336.7 L 118.3,336.7 L 118.2,336.7 L 118.1,336.6 L 118.0,336.6 L 117.9,336.6 L 117.9,336.5 L 117.8,336.4 L 117.7,336.4 L 117.7,336.3 L 117.6,336.2 L 117.6,336.1 L 117.5,336.1 L 117.5,336.0 L 117.5,335.9 L 117.5,335.8 L 117.4,335.7 L 117.4,335.6 L 117.5,335.5 L 117.5,335.4 L 117.5,335.4 L 117.5,335.3 L 117.6,335.2 L 117.6,335.1 L 117.7,335.0 L 117.7,335.0 L 117.8,334.9 L 117.9,334.8 L 117.9,334.8 L 118.0,334.7 L 118.1,334.7 L 118.2,334.7 L 118.3,334.6 L 118.3,334.6 L 118.4,334.6 L 118.5,334.6 L 118.6,334.6 L 118.7,334.6 L 118.8,334.6 L 118.9,334.7 L 119.0,334.7 L 119.1,334.8 L 119.1,334.8 L 119.2,334.9 L 119.3,334.9 L 119.3,335.0 L 119.4,335.1 L 119.4,335.1 L 119.5,335.2 L 119.5,335.3 L 119.5,335.4 L 119.6,335.5 L 119.6,335.6 L 119.6,335.7 L 118.5,335.7 Z" style="fill:#000000;fill-rule:evenodd;fill-opacity:1;stroke:#000000;stroke-width:0.0px;stroke-linecap:butt;stroke-linejoin:miter;stroke-miterlimit:10;stroke-opacity:1;"/>
<path class="bond-0 atom-0 atom-1" d="M 274.8,382.3 L 289.3,384.6" style="fill:none;fill-rule:evenodd;stroke:#000000;stroke-width:2.0px;stroke-linecap:butt;stroke-linejoin:miter;stroke-opacity:1"/>
<path class="bond-0 atom-0 atom-1" d="M 274.3,385.2 L 288.8,387.6" style="fill:none;fill-rule:evenodd;stroke:#000000;stroke-width:2.0px;stroke-linecap:butt;stroke-linejoin:miter;stroke-opacity:1"/>
<path class="bond-1 atom-1 atom-2" d="M 294.2,385.4 L 308.3,387.6" style="fill:none;fill-rule:evenodd;stroke:#000000;stroke-width:2.0px;stroke-linecap:butt;stroke-linejoin:miter;stroke-opacity:1"/>
<path class="bond-1 atom-1 atom-2" d="M 293.8,388.4 L 307.8,390.6" style="fill:none;fill-rule:evenodd;stroke:#000000;stroke-width:2.0px;stroke-linecap:butt;stroke-linejoin:miter;stroke-opacity:1"/>
<path class="bond-2 atom-2 atom-3" d="M 314.2,386.1 L 324.0,374.1" style="fill:none;fill-rule:evenodd;stroke:#000000;stroke-width:2.0px;stroke-linecap:butt;stroke-linejoin:miter;stroke-opacity:1"/>
<path class="bond-3 atom-3 atom-4" d="M 324.0,374.1 L 341.3,376.8" style="fill:none;fill-rule:evenodd;stroke:#000000;stroke-width:2.0px;stroke-linecap:butt;stroke-linejoin:miter;stroke-opacity:1"/>
<path class="bond-4 atom-4 atom-5" d="M 346.7,373.7 L 354.0,364.7" style="fill:none;fill-rule:evenodd;stroke:#000000;stroke-width:2.0px;stroke-linecap:butt;stroke-linejoin:miter;stroke-opacity:1"/>
<path class="bond-5 atom-5 atom-6" d="M 358.9,362.1 L 373.8,364.4" style="fill:none;fill-rule:evenodd;stroke:#000000;stroke-width:2.0px;stroke-linecap:butt;stroke-linejoin:miter;stroke-opacity:1"/>
<path class="bond-6 atom-6 atom-7" d="M 378.8,361.8 L 388.9,349.2" style="fill:none;fill-rule:evenodd;stroke:#000000;stroke-width:2.0px;stroke-linecap:butt;stroke-linejoin:miter;stroke-opacity:1"/>
<path class="bond-7 atom-7 atom-8" d="M 389.2,347.8 L 406.2,350.5" style="fill:none;fill-rule:evenodd;stroke:#000000;stroke-width:2.0px;stroke-linecap:butt;stroke-linejoin:miter;stroke-opacity:1"/>
<path class="bond-7 atom-7 atom-8" d="M 388.7,350.7 L 405.7,353.4" style="fill:none;fill-rule:evenodd;stroke:#000000;stroke-width:2.0px;stroke-linecap:butt;stroke-linejoin:miter;stroke-opacity:1"/>
<path class="bond-8 atom-8 atom-9" d="M 411.8,351.4 L 426.0,353.6" style="fill:none;fill-rule:evenodd;stroke:#000000;stroke-width:2.0px;stroke-linecap:butt;stroke-linejoin:miter;stroke-opacity:1"/>
<path class="bond-8 atom-8 atom-9" d="M 411.3,354.3 L 425.5,356.6" style="fill:none;fill-rule:evenodd;stroke:#000000;stroke-width:2.0px;stroke-linecap:butt;stroke-linejoin:miter;stroke-opacity:1"/>
<path class="bond-9 atom-9 atom-10" d="M 429.9,359.1 L 434.4,370.8" style="fill:none;fill-rule:evenodd;stroke:#000000;stroke-width:2.0px;stroke-linecap:butt;stroke-linejoin:miter;stroke-opacity:1"/>
<path class="bond-10 atom-10 atom-11" d="M 439.0,374.8 L 452.7,377.0" style="fill:none;fill-rule:evenodd;stroke:#000000;stroke-width:2.0px;stroke-linecap:butt;stroke-linejoin:miter;stroke-opacity:1"/>
<path class="bond-11 atom-11 atom-12" d="M 456.9,381.0 L 461.4,392.7" style="fill:none;fill-rule:evenodd;stroke:#000000;stroke-width:2.0px;stroke-linecap:butt;stroke-linejoin:miter;stroke-opacity:1"/>
<path class="bond-12 atom-12 atom-13" d="M 465.2,396.6 L 479.9,399.0" style="fill:none;fill-rule:evenodd;stroke:#000000;stroke-width:2.0px;stroke-linecap:butt;stroke-linejoin:miter;stroke-opacity:1"/>
<path d="M 323.5,374.7 L 324.0,374.1 L 324.9,374.2" style="fill:none;stroke:#000000;stroke-width:2.0px;stroke-linecap:butt;stroke-linejoin:miter;stroke-miterlimit:10;stroke-opacity:1;"/>
<path class="atom-0" d="M 264.0 380.5 L 264.8 380.5 L 264.8 382.9 L 267.7 382.9 L 267.7 380.5 L 268.5 380.5 L 268.5 386.1 L 267.7 386.1 L 267.7 383.5 L 264.8 383.5 L 264.8 386.1 L 264.0 386.1 L 264.0 380.5 " fill="#000000"/>
<path class="atom-0" d="M 270.5 380.5 L 272.3 383.5 Q 272.5 383.8, 272.8 384.3 Q 273.1 384.8, 273.1 384.9 L 273.1 380.5 L 273.9 380.5 L 273.9 386.1 L 273.1 386.1 L 271.1 382.9 Q 270.9 382.5, 270.6 382.0 Q 270.4 381.6, 270.3 381.5 L 270.3 386.1 L 269.6 386.1 L 269.6 380.5 L 270.5 380.5 " fill="#000000"/>
<path class="atom-0" d="M 274.9 381.5 L 275.9 381.5 L 275.9 380.4 L 276.4 380.4 L 276.4 381.5 L 277.4 381.5 L 277.4 381.9 L 276.4 381.9 L 276.4 382.9 L 275.9 382.9 L 275.9 381.9 L 274.9 381.9 L 274.9 381.5 " fill="#000000"/>
<path class="atom-1" d="M 289.9 388.4 Q 290.0 388.4, 290.2 388.6 Q 290.5 388.7, 290.8 388.7 Q 291.1 388.8, 291.4 388.8 Q 291.9 388.8, 292.2 388.6 Q 292.6 388.3, 292.6 387.8 Q 292.6 387.5, 292.4 387.3 Q 292.2 387.1, 292.0 387.0 Q 291.8 386.9, 291.4 386.8 Q 290.8 386.7, 290.5 386.5 Q 290.2 386.4, 290.0 386.1 Q 289.8 385.8, 289.8 385.2 Q 289.8 384.5, 290.3 384.1 Q 290.8 383.6, 291.8 383.6 Q 292.4 383.6, 293.2 384.0 L 293.0 384.6 Q 292.3 384.3, 291.8 384.3 Q 291.2 384.3, 290.9 384.5 Q 290.6 384.7, 290.6 385.1 Q 290.6 385.4, 290.8 385.6 Q 290.9 385.8, 291.2 385.9 Q 291.4 386.0, 291.8 386.1 Q 292.3 386.3, 292.6 386.5 Q 292.9 386.6, 293.1 387.0 Q 293.3 387.3, 293.3 387.8 Q 293.3 388.6, 292.8 389.0 Q 292.3 389.5, 291.4 389.5 Q 290.9 389.5, 290.5 389.3 Q 290.2 389.2, 289.7 389.1 L 289.9 388.4 " fill="#000000"/>
<path class="atom-1" d="M 294.1 384.6 L 295.1 384.6 L 295.1 383.5 L 295.5 383.5 L 295.5 384.6 L 296.6 384.6 L 296.6 385.0 L 295.5 385.0 L 295.5 386.0 L 295.1 386.0 L 295.1 385.0 L 294.1 385.0 L 294.1 384.6 " fill="#000000"/>
<path class="atom-2" d="M 308.7 389.7 Q 308.7 388.3, 309.4 387.5 Q 310.1 386.8, 311.3 386.8 Q 312.6 386.8, 313.3 387.5 Q 313.9 388.3, 313.9 389.7 Q 313.9 391.0, 313.3 391.8 Q 312.6 392.6, 311.3 392.6 Q 310.1 392.6, 309.4 391.8 Q 308.7 391.0, 308.7 389.7 M 311.3 392.0 Q 312.2 392.0, 312.7 391.4 Q 313.1 390.8, 313.1 389.7 Q 313.1 388.5, 312.7 388.0 Q 312.2 387.4, 311.3 387.4 Q 310.5 387.4, 310.0 388.0 Q 309.5 388.5, 309.5 389.7 Q 309.5 390.8, 310.0 391.4 Q 310.5 392.0, 311.3 392.0 " fill="#000000"/>
<path class="atom-2" d="M 314.8 387.8 L 315.8 387.8 L 315.8 386.7 L 316.2 386.7 L 316.2 387.8 L 317.3 387.8 L 317.3 388.2 L 316.2 388.2 L 316.2 389.2 L 315.8 389.2 L 315.8 388.2 L 314.8 388.2 L 314.8 387.8 " fill="#000000"/>
<path class="atom-4" d="M 343.7 374.4 Q 344.6 374.4, 345.1 374.8 Q 345.6 375.3, 345.6 376.1 Q 345.6 376.8, 345.1 377.3 Q 344.6 377.7, 343.7 377.7 L 342.8 377.7 L 342.8 380.1 L 342.0 380.1 L 342.0 374.4 L 343.7 374.4 M 343.7 377.1 Q 344.2 377.1, 344.5 376.8 Q 344.8 376.6, 344.8 376.1 Q 344.8 375.6, 344.5 375.3 Q 344.2 375.0, 343.7 375.0 L 342.8 375.0 L 342.8 377.1 L 343.7 377.1 " fill="#000000"/>
<path class="atom-4" d="M 346.4 375.4 L 347.4 375.4 L 347.4 374.4 L 347.8 374.4 L 347.8 375.4 L 348.8 375.4 L 348.8 375.8 L 347.8 375.8 L 347.8 376.9 L 347.4 376.9 L 347.4 375.8 L 346.4 375.8 L 346.4 375.4 " fill="#000000"/>
<path class="atom-5" d="M 354.9 363.6 Q 354.9 363.6, 355.2 363.7 Q 355.4 363.9, 355.7 363.9 Q 356.0 364.0, 356.3 364.0 Q 356.9 364.0, 357.2 363.7 Q 357.5 363.5, 357.5 363.0 Q 357.5 362.7, 357.3 362.5 Q 357.2 362.3, 356.9 362.2 Q 356.7 362.1, 356.3 362.0 Q 355.8 361.8, 355.5 361.7 Q 355.2 361.5, 355.0 361.2 Q 354.8 360.9, 354.8 360.4 Q 354.8 359.7, 355.2 359.3 Q 355.7 358.8, 356.7 358.8 Q 357.3 358.8, 358.1 359.1 L 357.9 359.8 Q 357.2 359.5, 356.7 359.5 Q 356.2 359.5, 355.9 359.7 Q 355.6 359.9, 355.6 360.3 Q 355.6 360.6, 355.7 360.8 Q 355.9 361.0, 356.1 361.1 Q 356.3 361.2, 356.7 361.3 Q 357.2 361.5, 357.5 361.6 Q 357.8 361.8, 358.1 362.1 Q 358.3 362.5, 358.3 363.0 Q 358.3 363.8, 357.8 364.2 Q 357.2 364.6, 356.4 364.6 Q 355.8 364.6, 355.5 364.5 Q 355.1 364.4, 354.6 364.2 L 354.9 363.6 " fill="#000000"/>
<path class="atom-5" d="M 359.0 359.7 L 360.9 359.7 L 360.9 360.1 L 359.0 360.1 L 359.0 359.7 " fill="#000000"/>
<path class="atom-6" d="M 374.7 366.8 Q 374.7 366.8, 375.0 366.9 Q 375.3 367.0, 375.6 367.1 Q 375.8 367.2, 376.1 367.2 Q 376.7 367.2, 377.0 366.9 Q 377.3 366.6, 377.3 366.2 Q 377.3 365.9, 377.1 365.7 Q 377.0 365.5, 376.7 365.4 Q 376.5 365.3, 376.1 365.1 Q 375.6 365.0, 375.3 364.9 Q 375.0 364.7, 374.8 364.4 Q 374.6 364.1, 374.6 363.6 Q 374.6 362.9, 375.1 362.4 Q 375.5 362.0, 376.5 362.0 Q 377.2 362.0, 377.9 362.3 L 377.7 362.9 Q 377.0 362.6, 376.5 362.6 Q 376.0 362.6, 375.7 362.9 Q 375.4 363.1, 375.4 363.5 Q 375.4 363.8, 375.5 364.0 Q 375.7 364.2, 375.9 364.3 Q 376.1 364.4, 376.5 364.5 Q 377.0 364.7, 377.3 364.8 Q 377.7 365.0, 377.9 365.3 Q 378.1 365.6, 378.1 366.2 Q 378.1 367.0, 377.6 367.4 Q 377.0 367.8, 376.2 367.8 Q 375.7 367.8, 375.3 367.7 Q 374.9 367.6, 374.5 367.4 L 374.7 366.8 " fill="#000000"/>
<path class="atom-8" d="M 407.5 349.6 L 409.3 352.6 Q 409.5 352.9, 409.8 353.4 Q 410.1 354.0, 410.1 354.0 L 410.1 349.6 L 410.9 349.6 L 410.9 355.3 L 410.1 355.3 L 408.1 352.0 Q 407.9 351.6, 407.6 351.1 Q 407.4 350.7, 407.3 350.6 L 407.3 355.3 L 406.6 355.3 L 406.6 349.6 L 407.5 349.6 " fill="#000000"/>
<path class="atom-8" d="M 412.0 350.6 L 413.0 350.6 L 413.0 349.5 L 413.4 349.5 L 413.4 350.6 L 414.4 350.6 L 414.4 351.0 L 413.4 351.0 L 413.4 352.0 L 413.0 352.0 L 413.0 351.0 L 412.0 351.0 L 412.0 350.6 " fill="#000000"/>
<path class="atom-9" d="M 427.3 352.7 L 429.2 355.7 Q 429.3 356.0, 429.6 356.6 Q 429.9 357.1, 430.0 357.2 L 430.0 352.7 L 430.7 352.7 L 430.7 358.4 L 429.9 358.4 L 427.9 355.1 Q 427.7 354.7, 427.5 354.3 Q 427.2 353.9, 427.1 353.7 L 427.1 358.4 L 426.4 358.4 L 426.4 352.7 L 427.3 352.7 " fill="#000000"/>
<path class="atom-9" d="M 431.8 352.7 L 432.6 352.7 L 432.6 355.2 L 435.5 355.2 L 435.5 352.7 L 436.2 352.7 L 436.2 358.4 L 435.5 358.4 L 435.5 355.8 L 432.6 355.8 L 432.6 358.4 L 431.8 358.4 L 431.8 352.7 " fill="#000000"/>
<path class="atom-9" d="M 437.3 353.8 L 438.3 353.8 L 438.3 352.7 L 438.8 352.7 L 438.8 353.8 L 439.8 353.8 L 439.8 354.1 L 438.8 354.1 L 438.8 355.2 L 438.3 355.2 L 438.3 354.1 L 437.3 354.1 L 437.3 353.8 " fill="#000000"/>
<path class="atom-10" d="M 433.1 374.3 Q 433.1 373.0, 433.8 372.2 Q 434.5 371.4, 435.7 371.4 Q 437.0 371.4, 437.7 372.2 Q 438.3 373.0, 438.3 374.3 Q 438.3 375.7, 437.6 376.5 Q 437.0 377.3, 435.7 377.3 Q 434.5 377.3, 433.8 376.5 Q 433.1 375.7, 433.1 374.3 M 435.7 376.6 Q 436.6 376.6, 437.1 376.1 Q 437.5 375.5, 437.5 374.3 Q 437.5 373.2, 437.1 372.7 Q 436.6 372.1, 435.7 372.1 Q 434.9 372.1, 434.4 372.7 Q 433.9 373.2, 433.9 374.3 Q 433.9 375.5, 434.4 376.1 Q 434.9 376.6, 435.7 376.6 " fill="#000000"/>
<path class="atom-11" d="M 454.3 374.6 L 456.1 377.7 Q 456.3 378.0, 456.6 378.5 Q 456.9 379.0, 456.9 379.1 L 456.9 374.6 L 457.7 374.6 L 457.7 380.3 L 456.9 380.3 L 454.9 377.0 Q 454.7 376.7, 454.4 376.2 Q 454.2 375.8, 454.1 375.6 L 454.1 380.3 L 453.4 380.3 L 453.4 374.6 L 454.3 374.6 " fill="#000000"/>
<path class="atom-11" d="M 458.8 374.6 L 459.6 374.6 L 459.6 377.1 L 462.5 377.1 L 462.5 374.6 L 463.2 374.6 L 463.2 380.3 L 462.5 380.3 L 462.5 377.7 L 459.6 377.7 L 459.6 380.3 L 458.8 380.3 L 458.8 374.6 " fill="#000000"/>
<path class="atom-12" d="M 461.1 398.2 Q 461.2 398.2, 461.4 398.3 Q 461.7 398.4, 462.0 398.5 Q 462.3 398.6, 462.6 398.6 Q 463.1 398.6, 463.4 398.3 Q 463.7 398.0, 463.7 397.6 Q 463.7 397.3, 463.6 397.1 Q 463.4 396.9, 463.2 396.8 Q 462.9 396.7, 462.5 396.6 Q 462.0 396.4, 461.7 396.3 Q 461.4 396.1, 461.2 395.8 Q 461.0 395.5, 461.0 395.0 Q 461.0 394.3, 461.5 393.8 Q 462.0 393.4, 462.9 393.4 Q 463.6 393.4, 464.3 393.7 L 464.2 394.3 Q 463.5 394.1, 463.0 394.1 Q 462.4 394.1, 462.1 394.3 Q 461.8 394.5, 461.8 394.9 Q 461.8 395.2, 462.0 395.4 Q 462.1 395.6, 462.3 395.7 Q 462.6 395.8, 463.0 395.9 Q 463.5 396.1, 463.8 396.2 Q 464.1 396.4, 464.3 396.7 Q 464.5 397.0, 464.5 397.6 Q 464.5 398.4, 464.0 398.8 Q 463.5 399.2, 462.6 399.2 Q 462.1 399.2, 461.7 399.1 Q 461.3 399.0, 460.9 398.8 L 461.1 398.2 " fill="#000000"/>
<path class="atom-13" d="M 483.4 399.3 Q 483.9 399.4, 484.2 399.7 Q 484.5 400.1, 484.5 400.6 Q 484.5 401.4, 483.9 401.8 Q 483.4 402.2, 482.5 402.2 L 480.6 402.2 L 480.6 396.6 L 482.3 396.6 Q 483.2 396.6, 483.7 397.0 Q 484.2 397.3, 484.2 398.1 Q 484.2 398.9, 483.4 399.3 M 481.4 397.2 L 481.4 399.0 L 482.3 399.0 Q 482.8 399.0, 483.1 398.8 Q 483.4 398.5, 483.4 398.1 Q 483.4 397.2, 482.3 397.2 L 481.4 397.2 M 482.5 401.6 Q 483.1 401.6, 483.4 401.3 Q 483.6 401.1, 483.6 400.6 Q 483.6 400.1, 483.3 399.9 Q 483.0 399.6, 482.4 399.6 L 481.4 399.6 L 481.4 401.6 L 482.5 401.6 " fill="#000000"/>
<path class="atom-13" d="M 485.7 398.1 L 485.8 398.7 Q 486.3 398.0, 487.0 398.0 Q 487.2 398.0, 487.5 398.1 L 487.4 398.8 Q 487.0 398.7, 486.8 398.7 Q 486.5 398.7, 486.3 398.9 Q 486.1 399.0, 485.9 399.3 L 485.9 402.2 L 485.1 402.2 L 485.1 398.1 L 485.7 398.1 " fill="#000000"/>
<path class="atom-0" d="M 263.2,383.3 L 263.2,383.3 L 263.2,383.4 L 263.2,383.4 L 263.2,383.4 L 263.2,383.5 L 263.2,383.5 L 263.1,383.5 L 263.1,383.6 L 263.1,383.6 L 263.1,383.6 L 263.0,383.6 L 263.0,383.7 L 263.0,383.7 L 262.9,383.7 L 262.9,383.7 L 262.9,383.7 L 262.8,383.7 L 262.8,383.7 L 262.8,383.7 L 262.7,383.7 L 262.7,383.7 L 262.7,383.7 L 262.6,383.7 L 262.6,383.7 L 262.6,383.6 L 262.6,383.6 L 262.5,383.6 L 262.5,383.6 L 262.5,383.5 L 262.5,383.5 L 262.4,383.5 L 262.4,383.5 L 262.4,383.4 L 262.4,383.4 L 262.4,383.4 L 262.4,383.3 L 262.4,383.3 L 262.4,383.3 L 262.4,383.2 L 262.4,383.2 L 262.4,383.2 L 262.4,383.1 L 262.5,383.1 L 262.5,383.1 L 262.5,383.0 L 262.5,383.0 L 262.6,383.0 L 262.6,383.0 L 262.6,383.0 L 262.6,382.9 L 262.7,382.9 L 262.7,382.9 L 262.7,382.9 L 262.8,382.9 L 262.8,382.9 L 262.8,382.9 L 262.9,382.9 L 262.9,382.9 L 262.9,382.9 L 263.0,382.9 L 263.0,383.0 L 263.0,383.0 L 263.1,383.0 L 263.1,383.0 L 263.1,383.1 L 263.1,383.1 L 263.2,383.1 L 263.2,383.1 L 263.2,383.2 L 263.2,383.2 L 263.2,383.2 L 263.2,383.3 L 263.2,383.3 L 262.8,383.3 Z" style="fill:#000000;fill-rule:evenodd;fill-opacity:1;stroke:#000000;stroke-width:0.0px;stroke-linecap:butt;stroke-linejoin:miter;stroke-miterlimit:10;stroke-opacity:1;"/>
<path class="atom-1" d="M 298.2,386.5 L 298.2,386.5 L 298.2,386.5 L 298.2,386.6 L 298.1,386.6 L 298.1,386.6 L 298.1,386.7 L 298.1,386.7 L 298.1,386.7 L 298.1,386.8 L 298.0,386.8 L 298.0,386.8 L 298.0,386.8 L 297.9,386.8 L 297.9,386.8 L 297.9,386.9 L 297.8,386.9 L 297.8,386.9 L 297.8,386.9 L 297.7,386.9 L 297.7,386.9 L 297.7,386.9 L 297.6,386.9 L 297.6,386.8 L 297.6,386.8 L 297.5,386.8 L 297.5,386.8 L 297.5,386.8 L 297.5,386.7 L 297.4,386.7 L 297.4,386.7 L 297.4,386.7 L 297.4,386.6 L 297.4,386.6 L 297.4,386.6 L 297.4,386.5 L 297.4,386.5 L 297.4,386.5 L 297.4,386.4 L 297.4,386.4 L 297.4,386.4 L 297.4,386.3 L 297.4,386.3 L 297.4,386.3 L 297.4,386.2 L 297.5,386.2 L 297.5,386.2 L 297.5,386.2 L 297.5,386.1 L 297.6,386.1 L 297.6,386.1 L 297.6,386.1 L 297.7,386.1 L 297.7,386.1 L 297.7,386.1 L 297.8,386.1 L 297.8,386.1 L 297.8,386.1 L 297.9,386.1 L 297.9,386.1 L 297.9,386.1 L 298.0,386.1 L 298.0,386.1 L 298.0,386.2 L 298.1,386.2 L 298.1,386.2 L 298.1,386.2 L 298.1,386.3 L 298.1,386.3 L 298.1,386.3 L 298.2,386.4 L 298.2,386.4 L 298.2,386.4 L 298.2,386.5 L 297.8,386.5 Z" style="fill:#000000;fill-rule:evenodd;fill-opacity:1;stroke:#000000;stroke-width:0.0px;stroke-linecap:butt;stroke-linejoin:miter;stroke-miterlimit:10;stroke-opacity:1;"/>
<path class="atom-3" d="M 322.0,374.1 L 322.0,374.1 L 322.0,374.1 L 322.0,374.2 L 322.0,374.2 L 321.9,374.2 L 321.9,374.3 L 321.9,374.3 L 321.9,374.3 L 321.9,374.3 L 321.8,374.4 L 321.8,374.4 L 321.8,374.4 L 321.8,374.4 L 321.7,374.4 L 321.7,374.4 L 321.7,374.5 L 321.6,374.5 L 321.6,374.5 L 321.6,374.5 L 321.5,374.5 L 321.5,374.5 L 321.5,374.4 L 321.4,374.4 L 321.4,374.4 L 321.4,374.4 L 321.3,374.4 L 321.3,374.4 L 321.3,374.3 L 321.3,374.3 L 321.2,374.3 L 321.2,374.2 L 321.2,374.2 L 321.2,374.2 L 321.2,374.1 L 321.2,374.1 L 321.2,374.1 L 321.2,374.0 L 321.2,374.0 L 321.2,374.0 L 321.2,373.9 L 321.2,373.9 L 321.2,373.9 L 321.2,373.9 L 321.3,373.8 L 321.3,373.8 L 321.3,373.8 L 321.3,373.7 L 321.4,373.7 L 321.4,373.7 L 321.4,373.7 L 321.5,373.7 L 321.5,373.7 L 321.5,373.7 L 321.6,373.7 L 321.6,373.7 L 321.6,373.7 L 321.7,373.7 L 321.7,373.7 L 321.7,373.7 L 321.8,373.7 L 321.8,373.7 L 321.8,373.7 L 321.8,373.8 L 321.9,373.8 L 321.9,373.8 L 321.9,373.8 L 321.9,373.9 L 321.9,373.9 L 322.0,373.9 L 322.0,374.0 L 322.0,374.0 L 322.0,374.0 L 322.0,374.1 L 321.6,374.1 Z" style="fill:#000000;fill-rule:evenodd;fill-opacity:1;stroke:#000000;stroke-width:0.0px;stroke-linecap:butt;stroke-linejoin:miter;stroke-miterlimit:10;stroke-opacity:1;"/>
<path class="atom-4" d="M 350.4,378.0 L 350.4,378.1 L 350.4,378.1 L 350.4,378.1 L 350.4,378.2 L 350.4,378.2 L 350.4,378.2 L 350.4,378.3 L 350.4,378.3 L 350.3,378.3 L 350.3,378.3 L 350.3,378.4 L 350.3,378.4 L 350.2,378.4 L 350.2,378.4 L 350.2,378.4 L 350.1,378.4 L 350.1,378.4 L 350.1,378.4 L 350.0,378.4 L 350.0,378.4 L 350.0,378.4 L 349.9,378.4 L 349.9,378.4 L 349.9,378.4 L 349.8,378.4 L 349.8,378.3 L 349.8,378.3 L 349.7,378.3 L 349.7,378.3 L 349.7,378.2 L 349.7,378.2 L 349.7,378.2 L 349.7,378.2 L 349.7,378.1 L 349.6,378.1 L 349.6,378.1 L 349.6,378.0 L 349.6,378.0 L 349.7,377.9 L 349.7,377.9 L 349.7,377.9 L 349.7,377.9 L 349.7,377.8 L 349.7,377.8 L 349.7,377.8 L 349.8,377.7 L 349.8,377.7 L 349.8,377.7 L 349.9,377.7 L 349.9,377.7 L 349.9,377.7 L 350.0,377.6 L 350.0,377.6 L 350.0,377.6 L 350.1,377.6 L 350.1,377.6 L 350.1,377.6 L 350.2,377.6 L 350.2,377.7 L 350.2,377.7 L 350.3,377.7 L 350.3,377.7 L 350.3,377.7 L 350.3,377.8 L 350.4,377.8 L 350.4,377.8 L 350.4,377.8 L 350.4,377.9 L 350.4,377.9 L 350.4,377.9 L 350.4,378.0 L 350.4,378.0 L 350.4,378.0 L 350.0,378.0 Z" style="fill:#000000;fill-rule:evenodd;fill-opacity:1;stroke:#000000;stroke-width:0.0px;stroke-linecap:butt;stroke-linejoin:miter;stroke-miterlimit:10;stroke-opacity:1;"/>
<path class="atom-4" d="M 350.4,376.4 L 350.4,376.5 L 350.4,376.5 L 350.4,376.5 L 350.4,376.6 L 350.4,376.6 L 350.4,376.6 L 350.4,376.7 L 350.4,376.7 L 350.3,376.7 L 350.3,376.7 L 350.3,376.8 L 350.3,376.8 L 350.2,376.8 L 350.2,376.8 L 350.2,376.8 L 350.1,376.8 L 350.1,376.8 L 350.1,376.8 L 350.0,376.8 L 350.0,376.8 L 350.0,376.8 L 349.9,376.8 L 349.9,376.8 L 349.9,376.8 L 349.8,376.8 L 349.8,376.7 L 349.8,376.7 L 349.7,376.7 L 349.7,376.7 L 349.7,376.6 L 349.7,376.6 L 349.7,376.6 L 349.7,376.5 L 349.7,376.5 L 349.6,376.5 L 349.6,376.4 L 349.6,376.4 L 349.6,376.4 L 349.7,376.3 L 349.7,376.3 L 349.7,376.3 L 349.7,376.2 L 349.7,376.2 L 349.7,376.2 L 349.7,376.2 L 349.8,376.1 L 349.8,376.1 L 349.8,376.1 L 349.9,376.1 L 349.9,376.1 L 349.9,376.0 L 350.0,376.0 L 350.0,376.0 L 350.0,376.0 L 350.1,376.0 L 350.1,376.0 L 350.1,376.0 L 350.2,376.0 L 350.2,376.1 L 350.2,376.1 L 350.3,376.1 L 350.3,376.1 L 350.3,376.1 L 350.3,376.1 L 350.4,376.2 L 350.4,376.2 L 350.4,376.2 L 350.4,376.3 L 350.4,376.3 L 350.4,376.3 L 350.4,376.4 L 350.4,376.4 L 350.4,376.4 L 350.0,376.4 Z" style="fill:#000000;fill-rule:evenodd;fill-opacity:1;stroke:#000000;stroke-width:0.0px;stroke-linecap:butt;stroke-linejoin:miter;stroke-miterlimit:10;stroke-opacity:1;"/>
<path class="atom-5" d="M 353.8,361.7 L 353.8,361.7 L 353.8,361.7 L 353.8,361.8 L 353.8,361.8 L 353.8,361.8 L 353.8,361.9 L 353.8,361.9 L 353.7,361.9 L 353.7,361.9 L 353.7,362.0 L 353.7,362.0 L 353.6,362.0 L 353.6,362.0 L 353.6,362.0 L 353.5,362.0 L 353.5,362.0 L 353.5,362.1 L 353.4,362.1 L 353.4,362.1 L 353.4,362.1 L 353.3,362.0 L 353.3,362.0 L 353.3,362.0 L 353.2,362.0 L 353.2,362.0 L 353.2,362.0 L 353.2,361.9 L 353.1,361.9 L 353.1,361.9 L 353.1,361.9 L 353.1,361.8 L 353.1,361.8 L 353.0,361.8 L 353.0,361.7 L 353.0,361.7 L 353.0,361.7 L 353.0,361.6 L 353.0,361.6 L 353.0,361.6 L 353.0,361.5 L 353.1,361.5 L 353.1,361.5 L 353.1,361.4 L 353.1,361.4 L 353.1,361.4 L 353.2,361.4 L 353.2,361.3 L 353.2,361.3 L 353.2,361.3 L 353.3,361.3 L 353.3,361.3 L 353.3,361.3 L 353.4,361.3 L 353.4,361.3 L 353.4,361.3 L 353.5,361.3 L 353.5,361.3 L 353.5,361.3 L 353.6,361.3 L 353.6,361.3 L 353.6,361.3 L 353.7,361.3 L 353.7,361.3 L 353.7,361.4 L 353.7,361.4 L 353.8,361.4 L 353.8,361.5 L 353.8,361.5 L 353.8,361.5 L 353.8,361.6 L 353.8,361.6 L 353.8,361.6 L 353.8,361.7 L 353.4,361.7 Z" style="fill:#000000;fill-rule:evenodd;fill-opacity:1;stroke:#000000;stroke-width:0.0px;stroke-linecap:butt;stroke-linejoin:miter;stroke-miterlimit:10;stroke-opacity:1;"/>
<path class="bond-0 atom-0 atom-1" d="M 680.4,374.8 L 551.7,374.8" style="fill:none;fill-rule:evenodd;stroke:#000000;stroke-width:2.0px;stroke-linecap:butt;stroke-linejoin:miter;stroke-opacity:1"/>
<path class="atom-0" d="M 685.8 374.9 Q 685.8 368.1, 689.2 364.3 Q 692.6 360.5, 698.8 360.5 Q 705.1 360.5, 708.5 364.3 Q 711.8 368.1, 711.8 374.9 Q 711.8 381.7, 708.4 385.7 Q 705.0 389.5, 698.8 389.5 Q 692.6 389.5, 689.2 385.7 Q 685.8 381.8, 685.8 374.9 M 698.8 386.3 Q 703.2 386.3, 705.5 383.5 Q 707.8 380.5, 707.8 374.9 Q 707.8 369.3, 705.5 366.5 Q 703.2 363.7, 698.8 363.7 Q 694.5 363.7, 692.2 366.5 Q 689.8 369.3, 689.8 374.9 Q 689.8 380.6, 692.2 383.5 Q 694.5 386.3, 698.8 386.3 " fill="#000000"/>
<path class="atom-0" d="M 715.9 365.1 L 725.6 365.1 L 725.6 367.2 L 715.9 367.2 L 715.9 365.1 " fill="#000000"/>
<path class="atom-1" d="M 524.4 374.9 Q 524.4 367.9, 527.7 364.2 Q 531.0 360.5, 537.3 360.5 Q 543.2 360.5, 546.3 364.6 L 543.6 366.7 Q 541.4 363.7, 537.3 363.7 Q 533.0 363.7, 530.8 366.6 Q 528.5 369.5, 528.5 374.9 Q 528.5 380.5, 530.8 383.4 Q 533.2 386.3, 537.8 386.3 Q 540.9 386.3, 544.5 384.4 L 545.6 387.4 Q 544.2 388.3, 541.9 388.9 Q 539.7 389.5, 537.2 389.5 Q 531.0 389.5, 527.7 385.7 Q 524.4 381.9, 524.4 374.9 " fill="#000000"/>
<path class="atom-1" d="M 549.7 365.1 L 559.4 365.1 L 559.4 367.2 L 549.7 367.2 L 549.7 365.1 " fill="#000000"/>
<path class="bond-0 atom-0 atom-1" d="M 91.8,637.0 L 82.5,640.4" style="fill:none;fill-rule:evenodd;stroke:#000000;stroke-width:2.0px;stroke-linecap:butt;stroke-linejoin:miter;stroke-opacity:1"/>
<path class="bond-1 atom-1 atom-2" d="M 74.0,640.4 L 64.6,632.5" style="fill:none;fill-rule:evenodd;stroke:#000000;stroke-width:2.0px;stroke-linecap:butt;stroke-linejoin:miter;stroke-opacity:1"/>
<path class="bond-2 atom-2 atom-3" d="M 60.0,631.4 L 44.8,637.0" style="fill:none;fill-rule:evenodd;stroke:#000000;stroke-width:2.0px;stroke-linecap:butt;stroke-linejoin:miter;stroke-opacity:1"/>
<path class="bond-3 atom-3 atom-4" d="M 44.8,637.0 L 30.5,625.0" style="fill:none;fill-rule:evenodd;stroke:#000000;stroke-width:2.0px;stroke-linecap:butt;stroke-linejoin:miter;stroke-opacity:1"/>
<path class="bond-4 atom-4 atom-5" d="M 27.1,626.5 L 26.9,626.0" style="fill:none;fill-rule:evenodd;stroke:#000000;stroke-width:1.0px;stroke-linecap:butt;stroke-linejoin:miter;stroke-opacity:1"/>
<path class="bond-4 atom-4 atom-5" d="M 23.7,628.1 L 23.3,627.0" style="fill:none;fill-rule:evenodd;stroke:#000000;stroke-width:1.0px;stroke-linecap:butt;stroke-linejoin:miter;stroke-opacity:1"/>
<path class="bond-4 atom-4 atom-5" d="M 20.3,629.6 L 19.7,628.0" style="fill:none;fill-rule:evenodd;stroke:#000000;stroke-width:1.0px;stroke-linecap:butt;stroke-linejoin:miter;stroke-opacity:1"/>
<path class="bond-4 atom-4 atom-5" d="M 16.9,631.2 L 16.1,629.1" style="fill:none;fill-rule:evenodd;stroke:#000000;stroke-width:1.0px;stroke-linecap:butt;stroke-linejoin:miter;stroke-opacity:1"/>
<path class="bond-4 atom-4 atom-5" d="M 13.5,632.7 L 12.5,630.1" style="fill:none;fill-rule:evenodd;stroke:#000000;stroke-width:1.0px;stroke-linecap:butt;stroke-linejoin:miter;stroke-opacity:1"/>
<path class="bond-5 atom-4 atom-6" d="M 30.5,625.0 L 33.2,609.9" style="fill:none;fill-rule:evenodd;stroke:#000000;stroke-width:2.0px;stroke-linecap:butt;stroke-linejoin:miter;stroke-opacity:1"/>
<path class="bond-6 atom-6 atom-7" d="M 36.3,605.7 L 48.6,601.2" style="fill:none;fill-rule:evenodd;stroke:#000000;stroke-width:2.0px;stroke-linecap:butt;stroke-linejoin:miter;stroke-opacity:1"/>
<path class="bond-7 atom-0 atom-8" d="M 96.4,638.1 L 108.4,648.2" style="fill:none;fill-rule:evenodd;stroke:#000000;stroke-width:2.0px;stroke-linecap:butt;stroke-linejoin:miter;stroke-opacity:1"/>
<path class="bond-8 atom-8 atom-9" d="M 108.4,648.2 L 123.3,642.7" style="fill:none;fill-rule:evenodd;stroke:#000000;stroke-width:2.0px;stroke-linecap:butt;stroke-linejoin:miter;stroke-opacity:1"/>
<path class="bond-9 atom-9 atom-10" d="M 129.4,642.9 L 138.8,650.8" style="fill:none;fill-rule:evenodd;stroke:#000000;stroke-width:2.0px;stroke-linecap:butt;stroke-linejoin:miter;stroke-opacity:1"/>
<path class="bond-9 atom-9 atom-10" d="M 127.6,645.1 L 137.0,652.9" style="fill:none;fill-rule:evenodd;stroke:#000000;stroke-width:2.0px;stroke-linecap:butt;stroke-linejoin:miter;stroke-opacity:1"/>
<path class="bond-10 atom-10 atom-11" d="M 142.0,651.6 L 154.9,646.9" style="fill:none;fill-rule:evenodd;stroke:#000000;stroke-width:2.0px;stroke-linecap:butt;stroke-linejoin:miter;stroke-opacity:1"/>
<path class="bond-10 atom-10 atom-11" d="M 143.0,654.2 L 155.9,649.5" style="fill:none;fill-rule:evenodd;stroke:#000000;stroke-width:2.0px;stroke-linecap:butt;stroke-linejoin:miter;stroke-opacity:1"/>
<path class="bond-11 atom-11 atom-12" d="M 160.0,649.3 L 172.0,659.4" style="fill:none;fill-rule:evenodd;stroke:#000000;stroke-width:2.0px;stroke-linecap:butt;stroke-linejoin:miter;stroke-opacity:1"/>
<path class="bond-12 atom-12 atom-13" d="M 172.0,659.4 L 187.2,653.8" style="fill:none;fill-rule:evenodd;stroke:#000000;stroke-width:2.0px;stroke-linecap:butt;stroke-linejoin:miter;stroke-opacity:1"/>
<path class="bond-13 atom-13 atom-14" d="M 190.9,656.0 L 199.9,663.5" style="fill:none;fill-rule:evenodd;stroke:#000000;stroke-width:2.0px;stroke-linecap:butt;stroke-linejoin:miter;stroke-opacity:1"/>
<path class="bond-13 atom-13 atom-14" d="M 192.7,653.8 L 201.7,661.3" style="fill:none;fill-rule:evenodd;stroke:#000000;stroke-width:2.0px;stroke-linecap:butt;stroke-linejoin:miter;stroke-opacity:1"/>
<path class="bond-14 atom-13 atom-15" d="M 188.7,649.5 L 190.8,637.6" style="fill:none;fill-rule:evenodd;stroke:#000000;stroke-width:2.0px;stroke-linecap:butt;stroke-linejoin:miter;stroke-opacity:1"/>
<path class="bond-14 atom-13 atom-15" d="M 191.5,650.0 L 193.6,638.1" style="fill:none;fill-rule:evenodd;stroke:#000000;stroke-width:2.0px;stroke-linecap:butt;stroke-linejoin:miter;stroke-opacity:1"/>
<path class="bond-15 atom-15 atom-16" d="M 194.6,632.5 L 207.2,627.9" style="fill:none;fill-rule:evenodd;stroke:#000000;stroke-width:2.0px;stroke-linecap:butt;stroke-linejoin:miter;stroke-opacity:1"/>
<path class="bond-15 atom-15 atom-16" d="M 195.5,635.1 L 208.1,630.5" style="fill:none;fill-rule:evenodd;stroke:#000000;stroke-width:2.0px;stroke-linecap:butt;stroke-linejoin:miter;stroke-opacity:1"/>
<path class="bond-16 atom-16 atom-17" d="M 210.8,625.0 L 212.9,613.1" style="fill:none;fill-rule:evenodd;stroke:#000000;stroke-width:2.0px;stroke-linecap:butt;stroke-linejoin:miter;stroke-opacity:1"/>
<path class="bond-17 atom-17 atom-18" d="M 219.4,607.7 L 231.0,603.5" style="fill:none;fill-rule:evenodd;stroke:#000000;stroke-width:2.0px;stroke-linecap:butt;stroke-linejoin:miter;stroke-opacity:1"/>
<path class="bond-18 atom-18 atom-19" d="M 231.0,603.5 L 233.6,588.6" style="fill:none;fill-rule:evenodd;stroke:#000000;stroke-width:2.0px;stroke-linecap:butt;stroke-linejoin:miter;stroke-opacity:1"/>
<path d="M 45.5,636.7 L 44.8,637.0 L 44.1,636.4" style="fill:none;stroke:#000000;stroke-width:2.0px;stroke-linecap:butt;stroke-linejoin:miter;stroke-miterlimit:10;stroke-opacity:1;"/>
<path d="M 31.2,625.6 L 30.5,625.0 L 30.6,624.2" style="fill:none;stroke:#000000;stroke-width:2.0px;stroke-linecap:butt;stroke-linejoin:miter;stroke-miterlimit:10;stroke-opacity:1;"/>
<path d="M 107.8,647.7 L 108.4,648.2 L 109.1,647.9" style="fill:none;stroke:#000000;stroke-width:2.0px;stroke-linecap:butt;stroke-linejoin:miter;stroke-miterlimit:10;stroke-opacity:1;"/>
<path d="M 171.4,658.9 L 172.0,659.4 L 172.8,659.1" style="fill:none;stroke:#000000;stroke-width:2.0px;stroke-linecap:butt;stroke-linejoin:miter;stroke-miterlimit:10;stroke-opacity:1;"/>
<path d="M 230.4,603.7 L 231.0,603.5 L 231.1,602.7" style="fill:none;stroke:#000000;stroke-width:2.0px;stroke-linecap:butt;stroke-linejoin:miter;stroke-miterlimit:10;stroke-opacity:1;"/>
<path class="atom-0" d="M 92.6 638.0 Q 92.7 638.0, 92.9 638.1 Q 93.2 638.2, 93.4 638.3 Q 93.7 638.4, 94.0 638.4 Q 94.5 638.4, 94.8 638.1 Q 95.1 637.9, 95.1 637.5 Q 95.1 637.2, 94.9 637.0 Q 94.8 636.8, 94.5 636.7 Q 94.3 636.6, 93.9 636.5 Q 93.5 636.4, 93.2 636.2 Q 92.9 636.1, 92.7 635.8 Q 92.5 635.5, 92.5 635.0 Q 92.5 634.4, 93.0 634.0 Q 93.4 633.6, 94.3 633.6 Q 94.9 633.6, 95.6 633.9 L 95.5 634.4 Q 94.8 634.2, 94.3 634.2 Q 93.8 634.2, 93.5 634.4 Q 93.3 634.6, 93.3 635.0 Q 93.3 635.2, 93.4 635.4 Q 93.6 635.6, 93.8 635.7 Q 94.0 635.8, 94.3 635.9 Q 94.8 636.0, 95.1 636.2 Q 95.4 636.3, 95.6 636.6 Q 95.8 636.9, 95.8 637.5 Q 95.8 638.2, 95.3 638.6 Q 94.8 639.0, 94.0 639.0 Q 93.5 639.0, 93.2 638.9 Q 92.8 638.8, 92.4 638.6 L 92.6 638.0 " fill="#000000"/>
<path class="atom-1" d="M 75.4 639.9 L 77.2 642.7 Q 77.3 643.0, 77.6 643.5 Q 77.9 644.0, 77.9 644.0 L 77.9 639.9 L 78.6 639.9 L 78.6 645.2 L 77.9 645.2 L 76.0 642.2 Q 75.8 641.8, 75.6 641.4 Q 75.3 641.0, 75.3 640.9 L 75.3 645.2 L 74.6 645.2 L 74.6 639.9 L 75.4 639.9 " fill="#000000"/>
<path class="atom-1" d="M 79.6 640.9 L 80.5 640.9 L 80.5 639.9 L 80.9 639.9 L 80.9 640.9 L 81.9 640.9 L 81.9 641.2 L 80.9 641.2 L 80.9 642.2 L 80.5 642.2 L 80.5 641.2 L 79.6 641.2 L 79.6 640.9 " fill="#000000"/>
<path class="atom-1" d="M 74.5 645.7 L 75.2 645.7 L 75.2 648.0 L 77.9 648.0 L 77.9 645.7 L 78.7 645.7 L 78.7 651.0 L 77.9 651.0 L 77.9 648.6 L 75.2 648.6 L 75.2 651.0 L 74.5 651.0 L 74.5 645.7 " fill="#000000"/>
<path class="atom-1" d="M 79.7 650.8 Q 79.8 650.5, 80.1 650.3 Q 80.4 650.1, 80.8 650.1 Q 81.4 650.1, 81.7 650.4 Q 82.0 650.7, 82.0 651.2 Q 82.0 651.7, 81.6 652.2 Q 81.2 652.7, 80.4 653.3 L 82.0 653.3 L 82.0 653.7 L 79.7 653.7 L 79.7 653.3 Q 80.3 652.9, 80.7 652.5 Q 81.1 652.2, 81.3 651.9 Q 81.5 651.6, 81.5 651.2 Q 81.5 650.9, 81.3 650.7 Q 81.1 650.5, 80.8 650.5 Q 80.6 650.5, 80.4 650.6 Q 80.2 650.8, 80.1 651.0 L 79.7 650.8 " fill="#000000"/>
<path class="atom-2" d="M 60.8 632.4 Q 60.9 632.4, 61.1 632.5 Q 61.4 632.6, 61.6 632.7 Q 61.9 632.8, 62.2 632.8 Q 62.7 632.8, 63.0 632.5 Q 63.3 632.3, 63.3 631.9 Q 63.3 631.6, 63.1 631.4 Q 63.0 631.2, 62.7 631.1 Q 62.5 631.0, 62.1 630.9 Q 61.7 630.8, 61.4 630.6 Q 61.1 630.5, 60.9 630.2 Q 60.7 629.9, 60.7 629.4 Q 60.7 628.8, 61.2 628.4 Q 61.6 628.0, 62.5 628.0 Q 63.1 628.0, 63.8 628.3 L 63.6 628.8 Q 63.0 628.6, 62.5 628.6 Q 62.0 628.6, 61.7 628.8 Q 61.5 629.0, 61.5 629.4 Q 61.5 629.6, 61.6 629.8 Q 61.8 630.0, 62.0 630.1 Q 62.2 630.2, 62.5 630.3 Q 63.0 630.4, 63.3 630.6 Q 63.6 630.7, 63.8 631.0 Q 64.0 631.3, 64.0 631.9 Q 64.0 632.6, 63.5 633.0 Q 63.0 633.4, 62.2 633.4 Q 61.7 633.4, 61.4 633.3 Q 61.0 633.2, 60.6 633.0 L 60.8 632.4 " fill="#000000"/>
<path class="atom-2" d="M 64.7 628.8 L 65.6 628.8 L 65.6 627.9 L 66.0 627.9 L 66.0 628.8 L 67.0 628.8 L 67.0 629.2 L 66.0 629.2 L 66.0 630.2 L 65.6 630.2 L 65.6 629.2 L 64.7 629.2 L 64.7 628.8 " fill="#000000"/>
<path class="atom-6" d="M 26.6 604.0 L 27.3 604.0 L 27.3 606.2 L 30.0 606.2 L 30.0 604.0 L 30.7 604.0 L 30.7 609.3 L 30.0 609.3 L 30.0 606.8 L 27.3 606.8 L 27.3 609.3 L 26.6 609.3 L 26.6 604.0 " fill="#000000"/>
<path class="atom-6" d="M 32.6 604.0 L 34.3 606.8 Q 34.5 607.1, 34.7 607.6 Q 35.0 608.1, 35.0 608.1 L 35.0 604.0 L 35.7 604.0 L 35.7 609.3 L 35.0 609.3 L 33.1 606.2 Q 32.9 605.9, 32.7 605.5 Q 32.5 605.0, 32.4 604.9 L 32.4 609.3 L 31.7 609.3 L 31.7 604.0 L 32.6 604.0 " fill="#000000"/>
<path class="atom-7" d="M 50.1 597.6 L 51.8 600.4 Q 52.0 600.7, 52.3 601.2 Q 52.5 601.7, 52.5 601.7 L 52.5 597.6 L 53.2 597.6 L 53.2 602.9 L 52.5 602.9 L 50.7 599.8 Q 50.4 599.5, 50.2 599.1 Q 50.0 598.7, 49.9 598.5 L 49.9 602.9 L 49.2 602.9 L 49.2 597.6 L 50.1 597.6 " fill="#000000"/>
<path class="atom-7" d="M 54.2 597.6 L 54.9 597.6 L 54.9 599.9 L 57.6 599.9 L 57.6 597.6 L 58.4 597.6 L 58.4 602.9 L 57.6 602.9 L 57.6 600.5 L 54.9 600.5 L 54.9 602.9 L 54.2 602.9 L 54.2 597.6 " fill="#000000"/>
<path class="atom-7" d="M 59.4 598.5 L 61.2 598.5 L 61.2 598.9 L 59.4 598.9 L 59.4 598.5 " fill="#000000"/>
<path class="atom-9" d="M 124.7 639.1 L 126.5 641.9 Q 126.6 642.2, 126.9 642.7 Q 127.2 643.2, 127.2 643.2 L 127.2 639.1 L 127.9 639.1 L 127.9 644.4 L 127.2 644.4 L 125.3 641.4 Q 125.1 641.0, 124.9 640.6 Q 124.7 640.2, 124.6 640.1 L 124.6 644.4 L 123.9 644.4 L 123.9 639.1 L 124.7 639.1 " fill="#000000"/>
<path class="atom-10" d="M 140.1 651.1 Q 141.0 651.1, 141.4 651.5 Q 141.9 651.9, 141.9 652.7 Q 141.9 653.4, 141.4 653.8 Q 140.9 654.2, 140.1 654.2 L 139.2 654.2 L 139.2 656.4 L 138.5 656.4 L 138.5 651.1 L 140.1 651.1 M 140.1 653.6 Q 140.6 653.6, 140.9 653.4 Q 141.1 653.1, 141.1 652.7 Q 141.1 652.2, 140.9 652.0 Q 140.6 651.7, 140.1 651.7 L 139.2 651.7 L 139.2 653.6 L 140.1 653.6 " fill="#000000"/>
<path class="atom-10" d="M 138.1 656.9 L 138.8 656.9 L 138.8 659.2 L 141.5 659.2 L 141.5 656.9 L 142.3 656.9 L 142.3 662.2 L 141.5 662.2 L 141.5 659.8 L 138.8 659.8 L 138.8 662.2 L 138.1 662.2 L 138.1 656.9 " fill="#000000"/>
<path class="atom-11" d="M 157.6 644.7 Q 158.5 644.7, 158.9 645.2 Q 159.4 645.6, 159.4 646.3 Q 159.4 647.0, 158.9 647.4 Q 158.5 647.9, 157.6 647.9 L 156.7 647.9 L 156.7 650.0 L 156.0 650.0 L 156.0 644.7 L 157.6 644.7 M 157.6 647.3 Q 158.1 647.3, 158.4 647.0 Q 158.7 646.8, 158.7 646.3 Q 158.7 645.8, 158.4 645.6 Q 158.1 645.3, 157.6 645.3 L 156.7 645.3 L 156.7 647.3 L 157.6 647.3 " fill="#000000"/>
<path class="atom-11" d="M 155.6 638.9 L 156.4 638.9 L 156.4 641.2 L 159.1 641.2 L 159.1 638.9 L 159.8 638.9 L 159.8 644.2 L 159.1 644.2 L 159.1 641.8 L 156.4 641.8 L 156.4 644.2 L 155.6 644.2 L 155.6 638.9 " fill="#000000"/>
<path class="atom-11" d="M 160.8 644.0 Q 160.9 643.7, 161.2 643.5 Q 161.5 643.3, 162.0 643.3 Q 162.5 643.3, 162.8 643.6 Q 163.1 643.9, 163.1 644.4 Q 163.1 644.9, 162.7 645.4 Q 162.3 645.9, 161.5 646.5 L 163.1 646.5 L 163.1 646.9 L 160.8 646.9 L 160.8 646.5 Q 161.4 646.1, 161.8 645.7 Q 162.2 645.4, 162.4 645.1 Q 162.6 644.8, 162.6 644.4 Q 162.6 644.1, 162.4 643.9 Q 162.3 643.7, 162.0 643.7 Q 161.7 643.7, 161.5 643.8 Q 161.3 643.9, 161.2 644.2 L 160.8 644.0 " fill="#000000"/>
<path class="atom-13" d="M 188.0 654.8 Q 188.1 654.8, 188.3 654.9 Q 188.6 655.0, 188.8 655.1 Q 189.1 655.1, 189.4 655.1 Q 189.9 655.1, 190.2 654.9 Q 190.5 654.7, 190.5 654.2 Q 190.5 653.9, 190.3 653.8 Q 190.2 653.6, 190.0 653.5 Q 189.7 653.4, 189.4 653.3 Q 188.9 653.1, 188.6 653.0 Q 188.3 652.9, 188.1 652.6 Q 187.9 652.3, 187.9 651.8 Q 187.9 651.2, 188.4 650.8 Q 188.8 650.3, 189.7 650.3 Q 190.3 650.3, 191.0 650.6 L 190.9 651.2 Q 190.2 650.9, 189.8 650.9 Q 189.2 650.9, 189.0 651.2 Q 188.7 651.4, 188.7 651.7 Q 188.7 652.0, 188.8 652.2 Q 189.0 652.4, 189.2 652.5 Q 189.4 652.6, 189.8 652.7 Q 190.2 652.8, 190.5 653.0 Q 190.8 653.1, 191.0 653.4 Q 191.2 653.7, 191.2 654.2 Q 191.2 655.0, 190.7 655.4 Q 190.2 655.8, 189.4 655.8 Q 188.9 655.8, 188.6 655.6 Q 188.2 655.5, 187.8 655.4 L 188.0 654.8 " fill="#000000"/>
<path class="atom-13" d="M 187.5 656.3 L 188.2 656.3 L 188.2 658.5 L 190.9 658.5 L 190.9 656.3 L 191.6 656.3 L 191.6 661.6 L 190.9 661.6 L 190.9 659.1 L 188.2 659.1 L 188.2 661.6 L 187.5 661.6 L 187.5 656.3 " fill="#000000"/>
<path class="atom-14" d="M 201.4 665.0 Q 201.4 663.7, 202.0 663.0 Q 202.6 662.3, 203.8 662.3 Q 205.0 662.3, 205.6 663.0 Q 206.2 663.7, 206.2 665.0 Q 206.2 666.3, 205.6 667.0 Q 205.0 667.7, 203.8 667.7 Q 202.6 667.7, 202.0 667.0 Q 201.4 666.3, 201.4 665.0 M 203.8 667.1 Q 204.6 667.1, 205.0 666.6 Q 205.5 666.0, 205.5 665.0 Q 205.5 663.9, 205.0 663.4 Q 204.6 662.9, 203.8 662.9 Q 203.0 662.9, 202.6 663.4 Q 202.1 663.9, 202.1 665.0 Q 202.1 666.0, 202.6 666.6 Q 203.0 667.1, 203.8 667.1 " fill="#000000"/>
<path class="atom-15" d="M 185.9 632.0 L 186.6 632.0 L 186.6 634.2 L 189.3 634.2 L 189.3 632.0 L 190.1 632.0 L 190.1 637.3 L 189.3 637.3 L 189.3 634.8 L 186.6 634.8 L 186.6 637.3 L 185.9 637.3 L 185.9 632.0 " fill="#000000"/>
<path class="atom-15" d="M 192.6 632.0 Q 193.5 632.0, 194.0 632.4 Q 194.4 632.8, 194.4 633.5 Q 194.4 634.3, 194.0 634.7 Q 193.5 635.1, 192.6 635.1 L 191.8 635.1 L 191.8 637.3 L 191.1 637.3 L 191.1 632.0 L 192.6 632.0 M 192.6 634.5 Q 193.1 634.5, 193.4 634.2 Q 193.7 634.0, 193.7 633.5 Q 193.7 633.1, 193.4 632.8 Q 193.1 632.6, 192.6 632.6 L 191.8 632.6 L 191.8 634.5 L 192.6 634.5 " fill="#000000"/>
<path class="atom-16" d="M 209.1 625.6 L 210.8 628.4 Q 211.0 628.7, 211.3 629.2 Q 211.6 629.7, 211.6 629.7 L 211.6 625.6 L 212.3 625.6 L 212.3 630.9 L 211.5 630.9 L 209.7 627.8 Q 209.5 627.5, 209.2 627.0 Q 209.0 626.6, 208.9 626.5 L 208.9 630.9 L 208.3 630.9 L 208.3 625.6 L 209.1 625.6 " fill="#000000"/>
<path class="atom-16" d="M 213.3 625.6 L 214.0 625.6 L 214.0 627.8 L 216.7 627.8 L 216.7 625.6 L 217.4 625.6 L 217.4 630.9 L 216.7 630.9 L 216.7 628.4 L 214.0 628.4 L 214.0 630.9 L 213.3 630.9 L 213.3 625.6 " fill="#000000"/>
<path class="atom-16" d="M 218.4 626.5 L 219.4 626.5 L 219.4 625.6 L 219.8 625.6 L 219.8 626.5 L 220.7 626.5 L 220.7 626.9 L 219.8 626.9 L 219.8 627.9 L 219.4 627.9 L 219.4 626.9 L 218.4 626.9 L 218.4 626.5 " fill="#000000"/>
<path class="atom-17" d="M 206.3 607.2 L 207.1 607.2 L 207.1 609.5 L 209.8 609.5 L 209.8 607.2 L 210.5 607.2 L 210.5 612.5 L 209.8 612.5 L 209.8 610.1 L 207.1 610.1 L 207.1 612.5 L 206.3 612.5 L 206.3 607.2 " fill="#000000"/>
<path class="atom-17" d="M 212.3 607.2 L 214.1 610.0 Q 214.2 610.3, 214.5 610.8 Q 214.8 611.3, 214.8 611.3 L 214.8 607.2 L 215.5 607.2 L 215.5 612.5 L 214.8 612.5 L 212.9 609.5 Q 212.7 609.1, 212.5 608.7 Q 212.2 608.3, 212.2 608.1 L 212.2 612.5 L 211.5 612.5 L 211.5 607.2 L 212.3 607.2 " fill="#000000"/>
<path class="atom-17" d="M 216.5 608.2 L 217.4 608.2 L 217.4 607.2 L 217.8 607.2 L 217.8 608.2 L 218.8 608.2 L 218.8 608.5 L 217.8 608.5 L 217.8 609.5 L 217.4 609.5 L 217.4 608.5 L 216.5 608.5 L 216.5 608.2 " fill="#000000"/>
<path class="atom-19" d="M 232.2 585.3 Q 232.2 584.0, 232.8 583.3 Q 233.4 582.6, 234.6 582.6 Q 235.7 582.6, 236.3 583.4 L 235.8 583.8 Q 235.4 583.2, 234.6 583.2 Q 233.8 583.2, 233.4 583.8 Q 233.0 584.3, 233.0 585.3 Q 233.0 586.3, 233.4 586.9 Q 233.8 587.4, 234.7 587.4 Q 235.3 587.4, 235.9 587.1 L 236.2 587.6 Q 235.9 587.8, 235.5 587.9 Q 235.0 588.0, 234.6 588.0 Q 233.4 588.0, 232.8 587.3 Q 232.2 586.6, 232.2 585.3 " fill="#000000"/>
<path class="atom-19" d="M 236.8 582.3 L 237.5 582.3 L 237.5 588.0 L 236.8 588.0 L 236.8 582.3 " fill="#000000"/>
<path class="atom-2" d="M 62.7,627.3 L 62.7,627.3 L 62.7,627.4 L 62.7,627.4 L 62.7,627.4 L 62.6,627.5 L 62.6,627.5 L 62.6,627.5 L 62.6,627.5 L 62.6,627.6 L 62.5,627.6 L 62.5,627.6 L 62.5,627.6 L 62.5,627.6 L 62.4,627.6 L 62.4,627.7 L 62.4,627.7 L 62.3,627.7 L 62.3,627.7 L 62.3,627.7 L 62.2,627.7 L 62.2,627.7 L 62.2,627.7 L 62.2,627.6 L 62.1,627.6 L 62.1,627.6 L 62.1,627.6 L 62.0,627.6 L 62.0,627.5 L 62.0,627.5 L 62.0,627.5 L 62.0,627.5 L 62.0,627.4 L 61.9,627.4 L 61.9,627.4 L 61.9,627.3 L 61.9,627.3 L 61.9,627.3 L 61.9,627.3 L 61.9,627.2 L 61.9,627.2 L 62.0,627.2 L 62.0,627.1 L 62.0,627.1 L 62.0,627.1 L 62.0,627.0 L 62.0,627.0 L 62.1,627.0 L 62.1,627.0 L 62.1,627.0 L 62.2,627.0 L 62.2,626.9 L 62.2,626.9 L 62.2,626.9 L 62.3,626.9 L 62.3,626.9 L 62.3,626.9 L 62.4,626.9 L 62.4,626.9 L 62.4,627.0 L 62.5,627.0 L 62.5,627.0 L 62.5,627.0 L 62.5,627.0 L 62.6,627.0 L 62.6,627.1 L 62.6,627.1 L 62.6,627.1 L 62.6,627.1 L 62.7,627.2 L 62.7,627.2 L 62.7,627.2 L 62.7,627.3 L 62.7,627.3 L 62.3,627.3 Z" style="fill:#000000;fill-rule:evenodd;fill-opacity:1;stroke:#000000;stroke-width:0.0px;stroke-linecap:butt;stroke-linejoin:miter;stroke-miterlimit:10;stroke-opacity:1;"/>
<path class="atom-8" d="M 109.5,649.8 L 109.5,649.9 L 109.5,649.9 L 109.5,649.9 L 109.5,650.0 L 109.5,650.0 L 109.5,650.0 L 109.4,650.1 L 109.4,650.1 L 109.4,650.1 L 109.4,650.1 L 109.4,650.2 L 109.3,650.2 L 109.3,650.2 L 109.3,650.2 L 109.2,650.2 L 109.2,650.2 L 109.2,650.2 L 109.1,650.2 L 109.1,650.2 L 109.1,650.2 L 109.0,650.2 L 109.0,650.2 L 109.0,650.2 L 109.0,650.2 L 108.9,650.2 L 108.9,650.1 L 108.9,650.1 L 108.9,650.1 L 108.8,650.1 L 108.8,650.0 L 108.8,650.0 L 108.8,650.0 L 108.8,650.0 L 108.8,649.9 L 108.8,649.9 L 108.8,649.9 L 108.8,649.8 L 108.8,649.8 L 108.8,649.8 L 108.8,649.7 L 108.8,649.7 L 108.8,649.7 L 108.8,649.7 L 108.8,649.6 L 108.9,649.6 L 108.9,649.6 L 108.9,649.6 L 108.9,649.5 L 109.0,649.5 L 109.0,649.5 L 109.0,649.5 L 109.0,649.5 L 109.1,649.5 L 109.1,649.5 L 109.1,649.5 L 109.2,649.5 L 109.2,649.5 L 109.2,649.5 L 109.3,649.5 L 109.3,649.5 L 109.3,649.5 L 109.4,649.5 L 109.4,649.6 L 109.4,649.6 L 109.4,649.6 L 109.4,649.6 L 109.5,649.7 L 109.5,649.7 L 109.5,649.7 L 109.5,649.8 L 109.5,649.8 L 109.5,649.8 L 109.5,649.8 L 109.1,649.8 Z" style="fill:#000000;fill-rule:evenodd;fill-opacity:1;stroke:#000000;stroke-width:0.0px;stroke-linecap:butt;stroke-linejoin:miter;stroke-miterlimit:10;stroke-opacity:1;"/>
<path class="atom-8" d="M 108.0,649.8 L 108.0,649.9 L 108.0,649.9 L 108.0,649.9 L 108.0,650.0 L 108.0,650.0 L 108.0,650.0 L 108.0,650.1 L 107.9,650.1 L 107.9,650.1 L 107.9,650.1 L 107.9,650.2 L 107.8,650.2 L 107.8,650.2 L 107.8,650.2 L 107.7,650.2 L 107.7,650.2 L 107.7,650.2 L 107.7,650.2 L 107.6,650.2 L 107.6,650.2 L 107.6,650.2 L 107.5,650.2 L 107.5,650.2 L 107.5,650.2 L 107.4,650.2 L 107.4,650.1 L 107.4,650.1 L 107.4,650.1 L 107.3,650.1 L 107.3,650.0 L 107.3,650.0 L 107.3,650.0 L 107.3,650.0 L 107.3,649.9 L 107.3,649.9 L 107.3,649.9 L 107.3,649.8 L 107.3,649.8 L 107.3,649.8 L 107.3,649.7 L 107.3,649.7 L 107.3,649.7 L 107.3,649.7 L 107.3,649.6 L 107.4,649.6 L 107.4,649.6 L 107.4,649.6 L 107.4,649.5 L 107.5,649.5 L 107.5,649.5 L 107.5,649.5 L 107.6,649.5 L 107.6,649.5 L 107.6,649.5 L 107.7,649.5 L 107.7,649.5 L 107.7,649.5 L 107.7,649.5 L 107.8,649.5 L 107.8,649.5 L 107.8,649.5 L 107.9,649.5 L 107.9,649.6 L 107.9,649.6 L 107.9,649.6 L 108.0,649.6 L 108.0,649.7 L 108.0,649.7 L 108.0,649.7 L 108.0,649.8 L 108.0,649.8 L 108.0,649.8 L 108.0,649.8 L 107.6,649.8 Z" style="fill:#000000;fill-rule:evenodd;fill-opacity:1;stroke:#000000;stroke-width:0.0px;stroke-linecap:butt;stroke-linejoin:miter;stroke-miterlimit:10;stroke-opacity:1;"/>
<path class="atom-12" d="M 173.1,661.0 L 173.1,661.1 L 173.1,661.1 L 173.1,661.1 L 173.1,661.2 L 173.1,661.2 L 173.1,661.2 L 173.1,661.2 L 173.0,661.3 L 173.0,661.3 L 173.0,661.3 L 173.0,661.3 L 172.9,661.4 L 172.9,661.4 L 172.9,661.4 L 172.8,661.4 L 172.8,661.4 L 172.8,661.4 L 172.8,661.4 L 172.7,661.4 L 172.7,661.4 L 172.7,661.4 L 172.6,661.4 L 172.6,661.4 L 172.6,661.4 L 172.5,661.3 L 172.5,661.3 L 172.5,661.3 L 172.5,661.3 L 172.4,661.3 L 172.4,661.2 L 172.4,661.2 L 172.4,661.2 L 172.4,661.1 L 172.4,661.1 L 172.4,661.1 L 172.4,661.1 L 172.4,661.0 L 172.4,661.0 L 172.4,661.0 L 172.4,660.9 L 172.4,660.9 L 172.4,660.9 L 172.4,660.8 L 172.4,660.8 L 172.5,660.8 L 172.5,660.8 L 172.5,660.7 L 172.5,660.7 L 172.6,660.7 L 172.6,660.7 L 172.6,660.7 L 172.7,660.7 L 172.7,660.7 L 172.7,660.7 L 172.8,660.7 L 172.8,660.7 L 172.8,660.7 L 172.8,660.7 L 172.9,660.7 L 172.9,660.7 L 172.9,660.7 L 173.0,660.7 L 173.0,660.8 L 173.0,660.8 L 173.0,660.8 L 173.1,660.8 L 173.1,660.9 L 173.1,660.9 L 173.1,660.9 L 173.1,660.9 L 173.1,661.0 L 173.1,661.0 L 173.1,661.0 L 172.7,661.0 Z" style="fill:#000000;fill-rule:evenodd;fill-opacity:1;stroke:#000000;stroke-width:0.0px;stroke-linecap:butt;stroke-linejoin:miter;stroke-miterlimit:10;stroke-opacity:1;"/>
<path class="atom-12" d="M 171.6,661.0 L 171.6,661.1 L 171.6,661.1 L 171.6,661.1 L 171.6,661.2 L 171.6,661.2 L 171.6,661.2 L 171.6,661.2 L 171.5,661.3 L 171.5,661.3 L 171.5,661.3 L 171.5,661.3 L 171.4,661.4 L 171.4,661.4 L 171.4,661.4 L 171.4,661.4 L 171.3,661.4 L 171.3,661.4 L 171.3,661.4 L 171.2,661.4 L 171.2,661.4 L 171.2,661.4 L 171.1,661.4 L 171.1,661.4 L 171.1,661.4 L 171.0,661.3 L 171.0,661.3 L 171.0,661.3 L 171.0,661.3 L 171.0,661.3 L 170.9,661.2 L 170.9,661.2 L 170.9,661.2 L 170.9,661.1 L 170.9,661.1 L 170.9,661.1 L 170.9,661.1 L 170.9,661.0 L 170.9,661.0 L 170.9,661.0 L 170.9,660.9 L 170.9,660.9 L 170.9,660.9 L 170.9,660.8 L 171.0,660.8 L 171.0,660.8 L 171.0,660.8 L 171.0,660.7 L 171.0,660.7 L 171.1,660.7 L 171.1,660.7 L 171.1,660.7 L 171.2,660.7 L 171.2,660.7 L 171.2,660.7 L 171.3,660.7 L 171.3,660.7 L 171.3,660.7 L 171.4,660.7 L 171.4,660.7 L 171.4,660.7 L 171.4,660.7 L 171.5,660.7 L 171.5,660.8 L 171.5,660.8 L 171.5,660.8 L 171.6,660.8 L 171.6,660.9 L 171.6,660.9 L 171.6,660.9 L 171.6,660.9 L 171.6,661.0 L 171.6,661.0 L 171.6,661.0 L 171.3,661.0 Z" style="fill:#000000;fill-rule:evenodd;fill-opacity:1;stroke:#000000;stroke-width:0.0px;stroke-linecap:butt;stroke-linejoin:miter;stroke-miterlimit:10;stroke-opacity:1;"/>
<path class="atom-17" d="M 205.6,609.9 L 205.6,609.9 L 205.6,609.9 L 205.6,610.0 L 205.6,610.0 L 205.6,610.0 L 205.5,610.1 L 205.5,610.1 L 205.5,610.1 L 205.5,610.1 L 205.5,610.2 L 205.4,610.2 L 205.4,610.2 L 205.4,610.2 L 205.4,610.2 L 205.3,610.2 L 205.3,610.2 L 205.3,610.2 L 205.2,610.2 L 205.2,610.2 L 205.2,610.2 L 205.1,610.2 L 205.1,610.2 L 205.1,610.2 L 205.0,610.2 L 205.0,610.2 L 205.0,610.2 L 205.0,610.1 L 204.9,610.1 L 204.9,610.1 L 204.9,610.1 L 204.9,610.0 L 204.9,610.0 L 204.9,610.0 L 204.9,609.9 L 204.9,609.9 L 204.8,609.9 L 204.8,609.9 L 204.9,609.8 L 204.9,609.8 L 204.9,609.8 L 204.9,609.7 L 204.9,609.7 L 204.9,609.7 L 204.9,609.6 L 204.9,609.6 L 205.0,609.6 L 205.0,609.6 L 205.0,609.6 L 205.0,609.5 L 205.1,609.5 L 205.1,609.5 L 205.1,609.5 L 205.2,609.5 L 205.2,609.5 L 205.2,609.5 L 205.3,609.5 L 205.3,609.5 L 205.3,609.5 L 205.4,609.5 L 205.4,609.5 L 205.4,609.5 L 205.4,609.6 L 205.5,609.6 L 205.5,609.6 L 205.5,609.6 L 205.5,609.7 L 205.5,609.7 L 205.6,609.7 L 205.6,609.7 L 205.6,609.8 L 205.6,609.8 L 205.6,609.8 L 205.6,609.9 L 205.2,609.9 Z" style="fill:#000000;fill-rule:evenodd;fill-opacity:1;stroke:#000000;stroke-width:0.0px;stroke-linecap:butt;stroke-linejoin:miter;stroke-miterlimit:10;stroke-opacity:1;"/>
<path class="atom-18" d="M 233.6,603.5 L 233.6,603.5 L 233.6,603.5 L 233.6,603.6 L 233.6,603.6 L 233.6,603.6 L 233.6,603.7 L 233.6,603.7 L 233.5,603.7 L 233.5,603.7 L 233.5,603.8 L 233.5,603.8 L 233.4,603.8 L 233.4,603.8 L 233.4,603.8 L 233.4,603.8 L 233.3,603.9 L 233.3,603.9 L 233.3,603.9 L 233.2,603.9 L 233.2,603.9 L 233.2,603.8 L 233.1,603.8 L 233.1,603.8 L 233.1,603.8 L 233.0,603.8 L 233.0,603.8 L 233.0,603.8 L 233.0,603.7 L 233.0,603.7 L 232.9,603.7 L 232.9,603.7 L 232.9,603.6 L 232.9,603.6 L 232.9,603.6 L 232.9,603.5 L 232.9,603.5 L 232.9,603.5 L 232.9,603.4 L 232.9,603.4 L 232.9,603.4 L 232.9,603.3 L 232.9,603.3 L 232.9,603.3 L 233.0,603.3 L 233.0,603.2 L 233.0,603.2 L 233.0,603.2 L 233.0,603.2 L 233.1,603.2 L 233.1,603.1 L 233.1,603.1 L 233.2,603.1 L 233.2,603.1 L 233.2,603.1 L 233.3,603.1 L 233.3,603.1 L 233.3,603.1 L 233.4,603.1 L 233.4,603.1 L 233.4,603.1 L 233.4,603.2 L 233.5,603.2 L 233.5,603.2 L 233.5,603.2 L 233.5,603.2 L 233.6,603.3 L 233.6,603.3 L 233.6,603.3 L 233.6,603.4 L 233.6,603.4 L 233.6,603.4 L 233.6,603.5 L 233.6,603.5 L 233.2,603.5 Z" style="fill:#000000;fill-rule:evenodd;fill-opacity:1;stroke:#000000;stroke-width:0.0px;stroke-linecap:butt;stroke-linejoin:miter;stroke-miterlimit:10;stroke-opacity:1;"/>
<path class="atom-0" d="M 357.6 610.8 L 366.9 625.8 Q 367.8 627.3, 369.3 630.0 Q 370.7 632.7, 370.8 632.8 L 370.8 610.8 L 374.6 610.8 L 374.6 639.2 L 370.7 639.2 L 360.7 622.8 Q 359.6 620.8, 358.3 618.6 Q 357.1 616.4, 356.8 615.8 L 356.8 639.2 L 353.1 639.2 L 353.1 610.8 L 357.6 610.8 " fill="#000000"/>
<path class="atom-0" d="M 379.7 615.5 L 389.4 615.5 L 389.4 617.6 L 379.7 617.6 L 379.7 615.5 " fill="#000000"/>
<path class="atom-0" d="M 397.4,629.0 L 397.4,629.2 L 397.4,629.3 L 397.3,629.5 L 397.3,629.7 L 397.2,629.8 L 397.1,630.0 L 397.0,630.1 L 396.9,630.3 L 396.8,630.4 L 396.7,630.5 L 396.6,630.6 L 396.4,630.7 L 396.3,630.8 L 396.1,630.9 L 396.0,630.9 L 395.8,631.0 L 395.6,631.0 L 395.4,631.0 L 395.3,631.0 L 395.1,631.0 L 394.9,630.9 L 394.8,630.9 L 394.6,630.8 L 394.4,630.8 L 394.3,630.7 L 394.2,630.6 L 394.0,630.5 L 393.9,630.3 L 393.8,630.2 L 393.7,630.1 L 393.6,629.9 L 393.5,629.8 L 393.5,629.6 L 393.4,629.4 L 393.4,629.3 L 393.4,629.1 L 393.4,628.9 L 393.4,628.7 L 393.4,628.6 L 393.5,628.4 L 393.5,628.2 L 393.6,628.1 L 393.7,627.9 L 393.8,627.8 L 393.9,627.7 L 394.0,627.5 L 394.2,627.4 L 394.3,627.3 L 394.4,627.2 L 394.6,627.2 L 394.8,627.1 L 394.9,627.1 L 395.1,627.0 L 395.3,627.0 L 395.4,627.0 L 395.6,627.0 L 395.8,627.0 L 396.0,627.1 L 396.1,627.1 L 396.3,627.2 L 396.4,627.3 L 396.6,627.4 L 396.7,627.5 L 396.8,627.6 L 396.9,627.7 L 397.0,627.9 L 397.1,628.0 L 397.2,628.2 L 397.3,628.3 L 397.3,628.5 L 397.4,628.7 L 397.4,628.8 L 397.4,629.0 L 395.4,629.0 Z" style="fill:#000000;fill-rule:evenodd;fill-opacity:1;stroke:#000000;stroke-width:0.0px;stroke-linecap:butt;stroke-linejoin:miter;stroke-miterlimit:10;stroke-opacity:1;"/>
<path class="atom-0" d="M 397.4,621.0 L 397.4,621.2 L 397.4,621.3 L 397.3,621.5 L 397.3,621.7 L 397.2,621.8 L 397.1,622.0 L 397.0,622.1 L 396.9,622.3 L 396.8,622.4 L 396.7,622.5 L 396.6,622.6 L 396.4,622.7 L 396.3,622.8 L 396.1,622.9 L 396.0,622.9 L 395.8,623.0 L 395.6,623.0 L 395.4,623.0 L 395.3,623.0 L 395.1,623.0 L 394.9,622.9 L 394.8,622.9 L 394.6,622.8 L 394.4,622.8 L 394.3,622.7 L 394.2,622.6 L 394.0,622.5 L 393.9,622.3 L 393.8,622.2 L 393.7,622.1 L 393.6,621.9 L 393.5,621.8 L 393.5,621.6 L 393.4,621.4 L 393.4,621.3 L 393.4,621.1 L 393.4,620.9 L 393.4,620.7 L 393.4,620.6 L 393.5,620.4 L 393.5,620.2 L 393.6,620.1 L 393.7,619.9 L 393.8,619.8 L 393.9,619.7 L 394.0,619.5 L 394.2,619.4 L 394.3,619.3 L 394.4,619.2 L 394.6,619.2 L 394.8,619.1 L 394.9,619.1 L 395.1,619.0 L 395.3,619.0 L 395.4,619.0 L 395.6,619.0 L 395.8,619.0 L 396.0,619.1 L 396.1,619.1 L 396.3,619.2 L 396.4,619.3 L 396.6,619.4 L 396.7,619.5 L 396.8,619.6 L 396.9,619.7 L 397.0,619.9 L 397.1,620.0 L 397.2,620.2 L 397.3,620.3 L 397.3,620.5 L 397.4,620.7 L 397.4,620.8 L 397.4,621.0 L 395.4,621.0 Z" style="fill:#000000;fill-rule:evenodd;fill-opacity:1;stroke:#000000;stroke-width:0.0px;stroke-linecap:butt;stroke-linejoin:miter;stroke-miterlimit:10;stroke-opacity:1;"/>
<path class="bond-0 atom-0 atom-1" d="M 695.5,628.1 L 611.5,628.1" style="fill:none;fill-rule:evenodd;stroke:#000000;stroke-width:2.0px;stroke-linecap:butt;stroke-linejoin:miter;stroke-opacity:1"/>
<path class="bond-0 atom-0 atom-1" d="M 695.5,607.9 L 611.5,607.9" style="fill:none;fill-rule:evenodd;stroke:#000000;stroke-width:2.0px;stroke-linecap:butt;stroke-linejoin:miter;stroke-opacity:1"/>
<path class="atom-0" d="M 699.9 618.1 Q 699.9 611.3, 703.3 607.5 Q 706.6 603.7, 712.9 603.7 Q 719.2 603.7, 722.6 607.5 Q 725.9 611.3, 725.9 618.1 Q 725.9 625.0, 722.5 628.9 Q 719.1 632.8, 712.9 632.8 Q 706.7 632.8, 703.3 628.9 Q 699.9 625.0, 699.9 618.1 M 712.9 629.6 Q 717.2 629.6, 719.6 626.7 Q 721.9 623.8, 721.9 618.1 Q 721.9 612.5, 719.6 609.7 Q 717.2 606.9, 712.9 606.9 Q 708.6 606.9, 706.2 609.7 Q 703.9 612.5, 703.9 618.1 Q 703.9 623.8, 706.2 626.7 Q 708.6 629.6, 712.9 629.6 " fill="#000000"/>
<path class="atom-1" d="M 524.1 603.8 L 527.9 603.8 L 527.9 615.9 L 542.4 615.9 L 542.4 603.8 L 546.2 603.8 L 546.2 632.2 L 542.4 632.2 L 542.4 619.1 L 527.9 619.1 L 527.9 632.2 L 524.1 632.2 L 524.1 603.8 " fill="#000000"/>
<path class="atom-1" d="M 551.7 631.2 Q 552.4 629.4, 554.1 628.4 Q 555.7 627.4, 558.0 627.4 Q 560.8 627.4, 562.4 628.9 Q 564.0 630.5, 564.0 633.2 Q 564.0 636.0, 561.9 638.6 Q 559.9 641.1, 555.6 644.2 L 564.3 644.2 L 564.3 646.3 L 551.7 646.3 L 551.7 644.6 Q 555.2 642.1, 557.2 640.2 Q 559.3 638.4, 560.3 636.7 Q 561.3 635.0, 561.3 633.3 Q 561.3 631.5, 560.4 630.5 Q 559.5 629.5, 558.0 629.5 Q 556.5 629.5, 555.5 630.1 Q 554.4 630.7, 553.7 632.1 L 551.7 631.2 " fill="#000000"/>
<path class="atom-1" d="M 572.4 603.8 L 581.6 618.8 Q 582.6 620.3, 584.0 623.0 Q 585.5 625.7, 585.6 625.8 L 585.6 603.8 L 589.4 603.8 L 589.4 632.2 L 585.5 632.2 L 575.5 615.8 Q 574.4 613.8, 573.1 611.6 Q 571.9 609.4, 571.6 608.8 L 571.6 632.2 L 567.9 632.2 L 567.9 603.8 L 572.4 603.8 " fill="#000000"/>
<path class="atom-1" d="M 594.7 608.9 L 599.7 608.9 L 599.7 603.7 L 601.9 603.7 L 601.9 608.9 L 607.1 608.9 L 607.1 610.8 L 601.9 610.8 L 601.9 616.1 L 599.7 616.1 L 599.7 610.8 L 594.7 610.8 L 594.7 608.9 " fill="#000000"/>
</svg>