<svg xmlns="http://www.w3.org/2000/svg" xmlns:rdkit="http://www.rdkit.org/xml" xmlns:xlink="http://www.w3.org/1999/xlink" version="1.1" baseProfile="full" xml:space="preserve" width="750px" height="750px" viewBox="0 0 750 750">
<!-- END OF HEADER -->
<rect style="opacity:1.0;fill:#FFFFFF;stroke:none" width="250.0" height="250.0" x="0.0" y="0.0"> </rect>
<path class="bond-0 atom-0 atom-1" d="M 70.2,145.0 L 57.9,135.6" style="fill:none;fill-rule:evenodd;stroke:#000000;stroke-width:2.0px;stroke-linecap:butt;stroke-linejoin:miter;stroke-opacity:1"/>
<path class="bond-1 atom-1 atom-2" d="M 57.9,135.6 L 40.9,142.7" style="fill:none;fill-rule:evenodd;stroke:#000000;stroke-width:2.0px;stroke-linecap:butt;stroke-linejoin:miter;stroke-opacity:1"/>
<path class="bond-1 atom-1 atom-2" d="M 55.4,133.7 L 41.3,139.6" style="fill:none;fill-rule:evenodd;stroke:#000000;stroke-width:2.0px;stroke-linecap:butt;stroke-linejoin:miter;stroke-opacity:1"/>
<path class="bond-2 atom-2 atom-3" d="M 40.9,142.7 L 26.3,131.6" style="fill:none;fill-rule:evenodd;stroke:#000000;stroke-width:2.0px;stroke-linecap:butt;stroke-linejoin:miter;stroke-opacity:1"/>
<path class="bond-3 atom-3 atom-4" d="M 26.3,131.6 L 28.7,113.3" style="fill:none;fill-rule:evenodd;stroke:#000000;stroke-width:2.0px;stroke-linecap:butt;stroke-linejoin:miter;stroke-opacity:1"/>
<path class="bond-3 atom-3 atom-4" d="M 29.3,130.3 L 31.2,115.3" style="fill:none;fill-rule:evenodd;stroke:#000000;stroke-width:2.0px;stroke-linecap:butt;stroke-linejoin:miter;stroke-opacity:1"/>
<path class="bond-4 atom-4 atom-5" d="M 28.7,113.3 L 16.2,103.8" style="fill:none;fill-rule:evenodd;stroke:#000000;stroke-width:2.0px;stroke-linecap:butt;stroke-linejoin:miter;stroke-opacity:1"/>
<path class="bond-5 atom-4 atom-6" d="M 28.7,113.3 L 45.6,106.2" style="fill:none;fill-rule:evenodd;stroke:#000000;stroke-width:2.0px;stroke-linecap:butt;stroke-linejoin:miter;stroke-opacity:1"/>
<path class="bond-6 atom-6 atom-7" d="M 45.6,106.2 L 60.3,117.4" style="fill:none;fill-rule:evenodd;stroke:#000000;stroke-width:2.0px;stroke-linecap:butt;stroke-linejoin:miter;stroke-opacity:1"/>
<path class="bond-6 atom-6 atom-7" d="M 45.2,109.4 L 57.3,118.6" style="fill:none;fill-rule:evenodd;stroke:#000000;stroke-width:2.0px;stroke-linecap:butt;stroke-linejoin:miter;stroke-opacity:1"/>
<path class="bond-7 atom-7 atom-8" d="M 60.3,117.4 L 74.6,111.4" style="fill:none;fill-rule:evenodd;stroke:#000000;stroke-width:2.0px;stroke-linecap:butt;stroke-linejoin:miter;stroke-opacity:1"/>
<path class="bond-8 atom-8 atom-9" d="M 79.8,112.3 L 91.8,121.5" style="fill:none;fill-rule:evenodd;stroke:#000000;stroke-width:2.0px;stroke-linecap:butt;stroke-linejoin:miter;stroke-opacity:1"/>
<path class="bond-9 atom-9 atom-10" d="M 90.6,120.5 L 88.5,136.3" style="fill:none;fill-rule:evenodd;stroke:#000000;stroke-width:2.0px;stroke-linecap:butt;stroke-linejoin:miter;stroke-opacity:1"/>
<path class="bond-9 atom-9 atom-10" d="M 93.3,120.8 L 91.3,136.6" style="fill:none;fill-rule:evenodd;stroke:#000000;stroke-width:2.0px;stroke-linecap:butt;stroke-linejoin:miter;stroke-opacity:1"/>
<path class="bond-10 atom-9 atom-11" d="M 91.8,121.5 L 108.8,114.4" style="fill:none;fill-rule:evenodd;stroke:#000000;stroke-width:2.0px;stroke-linecap:butt;stroke-linejoin:miter;stroke-opacity:1"/>
<path class="bond-11 atom-11 atom-12" d="M 108.8,114.4 L 123.4,125.5" style="fill:none;fill-rule:evenodd;stroke:#000000;stroke-width:2.0px;stroke-linecap:butt;stroke-linejoin:miter;stroke-opacity:1"/>
<path class="bond-11 atom-11 atom-12" d="M 108.4,117.5 L 121.8,127.7" style="fill:none;fill-rule:evenodd;stroke:#000000;stroke-width:2.0px;stroke-linecap:butt;stroke-linejoin:miter;stroke-opacity:1"/>
<path class="bond-12 atom-12 atom-13" d="M 123.4,125.5 L 140.4,118.4" style="fill:none;fill-rule:evenodd;stroke:#000000;stroke-width:2.0px;stroke-linecap:butt;stroke-linejoin:miter;stroke-opacity:1"/>
<path class="bond-13 atom-13 atom-14" d="M 140.4,118.4 L 155.0,129.6" style="fill:none;fill-rule:evenodd;stroke:#000000;stroke-width:2.0px;stroke-linecap:butt;stroke-linejoin:miter;stroke-opacity:1"/>
<path class="bond-13 atom-13 atom-14" d="M 140.0,121.6 L 152.1,130.8" style="fill:none;fill-rule:evenodd;stroke:#000000;stroke-width:2.0px;stroke-linecap:butt;stroke-linejoin:miter;stroke-opacity:1"/>
<path class="bond-14 atom-14 atom-15" d="M 155.0,129.6 L 169.0,123.8" style="fill:none;fill-rule:evenodd;stroke:#000000;stroke-width:2.0px;stroke-linecap:butt;stroke-linejoin:miter;stroke-opacity:1"/>
<path class="bond-15 atom-15 atom-16" d="M 175.0,124.8 L 186.6,133.7" style="fill:none;fill-rule:evenodd;stroke:#000000;stroke-width:2.0px;stroke-linecap:butt;stroke-linejoin:miter;stroke-opacity:1"/>
<path class="bond-16 atom-16 atom-17" d="M 186.6,133.7 L 203.6,126.6" style="fill:none;fill-rule:evenodd;stroke:#000000;stroke-width:2.0px;stroke-linecap:butt;stroke-linejoin:miter;stroke-opacity:1"/>
<path class="bond-17 atom-17 atom-18" d="M 203.6,126.6 L 218.2,137.7" style="fill:none;fill-rule:evenodd;stroke:#000000;stroke-width:2.0px;stroke-linecap:butt;stroke-linejoin:miter;stroke-opacity:1"/>
<path class="bond-17 atom-17 atom-18" d="M 206.5,125.3 L 218.6,134.6" style="fill:none;fill-rule:evenodd;stroke:#000000;stroke-width:2.0px;stroke-linecap:butt;stroke-linejoin:miter;stroke-opacity:1"/>
<path class="bond-18 atom-18 atom-19" d="M 218.2,137.7 L 235.2,130.6" style="fill:none;fill-rule:evenodd;stroke:#000000;stroke-width:2.0px;stroke-linecap:butt;stroke-linejoin:miter;stroke-opacity:1"/>
<path class="bond-19 atom-19 atom-20" d="M 235.2,130.6 L 237.5,112.4" style="fill:none;fill-rule:evenodd;stroke:#000000;stroke-width:2.0px;stroke-linecap:butt;stroke-linejoin:miter;stroke-opacity:1"/>
<path class="bond-19 atom-19 atom-20" d="M 232.6,128.7 L 234.6,113.6" style="fill:none;fill-rule:evenodd;stroke:#000000;stroke-width:2.0px;stroke-linecap:butt;stroke-linejoin:miter;stroke-opacity:1"/>
<path class="bond-20 atom-20 atom-21" d="M 237.5,112.4 L 222.9,101.2" style="fill:none;fill-rule:evenodd;stroke:#000000;stroke-width:2.0px;stroke-linecap:butt;stroke-linejoin:miter;stroke-opacity:1"/>
<path class="bond-21 atom-21 atom-22" d="M 222.9,101.2 L 205.9,108.3" style="fill:none;fill-rule:evenodd;stroke:#000000;stroke-width:2.0px;stroke-linecap:butt;stroke-linejoin:miter;stroke-opacity:1"/>
<path class="bond-21 atom-21 atom-22" d="M 222.5,104.4 L 208.4,110.3" style="fill:none;fill-rule:evenodd;stroke:#000000;stroke-width:2.0px;stroke-linecap:butt;stroke-linejoin:miter;stroke-opacity:1"/>
<path class="bond-22 atom-14 atom-23" d="M 155.0,129.6 L 153.1,144.6" style="fill:none;fill-rule:evenodd;stroke:#000000;stroke-width:2.0px;stroke-linecap:butt;stroke-linejoin:miter;stroke-opacity:1"/>
<path class="bond-23 atom-7 atom-1" d="M 60.3,117.4 L 57.9,135.6" style="fill:none;fill-rule:evenodd;stroke:#000000;stroke-width:2.0px;stroke-linecap:butt;stroke-linejoin:miter;stroke-opacity:1"/>
<path class="bond-24 atom-22 atom-17" d="M 205.9,108.3 L 203.6,126.6" style="fill:none;fill-rule:evenodd;stroke:#000000;stroke-width:2.0px;stroke-linecap:butt;stroke-linejoin:miter;stroke-opacity:1"/>
<path d="M 41.8,142.4 L 40.9,142.7 L 40.2,142.2" style="fill:none;stroke:#000000;stroke-width:2.0px;stroke-linecap:butt;stroke-linejoin:miter;stroke-miterlimit:10;stroke-opacity:1;"/>
<path d="M 27.1,132.1 L 26.3,131.6 L 26.4,130.7" style="fill:none;stroke:#000000;stroke-width:2.0px;stroke-linecap:butt;stroke-linejoin:miter;stroke-miterlimit:10;stroke-opacity:1;"/>
<path d="M 44.8,106.6 L 45.6,106.2 L 46.4,106.8" style="fill:none;stroke:#000000;stroke-width:2.0px;stroke-linecap:butt;stroke-linejoin:miter;stroke-miterlimit:10;stroke-opacity:1;"/>
<path d="M 91.2,121.0 L 91.8,121.5 L 92.7,121.1" style="fill:none;stroke:#000000;stroke-width:2.0px;stroke-linecap:butt;stroke-linejoin:miter;stroke-miterlimit:10;stroke-opacity:1;"/>
<path d="M 108.0,114.7 L 108.8,114.4 L 109.5,114.9" style="fill:none;stroke:#000000;stroke-width:2.0px;stroke-linecap:butt;stroke-linejoin:miter;stroke-miterlimit:10;stroke-opacity:1;"/>
<path d="M 122.7,125.0 L 123.4,125.5 L 124.3,125.2" style="fill:none;stroke:#000000;stroke-width:2.0px;stroke-linecap:butt;stroke-linejoin:miter;stroke-miterlimit:10;stroke-opacity:1;"/>
<path d="M 139.5,118.8 L 140.4,118.4 L 141.1,119.0" style="fill:none;stroke:#000000;stroke-width:2.0px;stroke-linecap:butt;stroke-linejoin:miter;stroke-miterlimit:10;stroke-opacity:1;"/>
<path d="M 186.0,133.2 L 186.6,133.7 L 187.4,133.3" style="fill:none;stroke:#000000;stroke-width:2.0px;stroke-linecap:butt;stroke-linejoin:miter;stroke-miterlimit:10;stroke-opacity:1;"/>
<path d="M 217.5,137.2 L 218.2,137.7 L 219.0,137.4" style="fill:none;stroke:#000000;stroke-width:2.0px;stroke-linecap:butt;stroke-linejoin:miter;stroke-miterlimit:10;stroke-opacity:1;"/>
<path d="M 234.3,131.0 L 235.2,130.6 L 235.3,129.7" style="fill:none;stroke:#000000;stroke-width:2.0px;stroke-linecap:butt;stroke-linejoin:miter;stroke-miterlimit:10;stroke-opacity:1;"/>
<path d="M 237.4,113.3 L 237.5,112.4 L 236.8,111.8" style="fill:none;stroke:#000000;stroke-width:2.0px;stroke-linecap:butt;stroke-linejoin:miter;stroke-miterlimit:10;stroke-opacity:1;"/>
<path d="M 223.6,101.8 L 222.9,101.2 L 222.0,101.6" style="fill:none;stroke:#000000;stroke-width:2.0px;stroke-linecap:butt;stroke-linejoin:miter;stroke-miterlimit:10;stroke-opacity:1;"/>
<path d="M 206.8,108.0 L 205.9,108.3 L 205.8,109.2" style="fill:none;stroke:#000000;stroke-width:2.0px;stroke-linecap:butt;stroke-linejoin:miter;stroke-miterlimit:10;stroke-opacity:1;"/>
<path class="atom-0" d="M 73.3 146.6 Q 73.8 146.8, 74.0 147.1 Q 74.3 147.4, 74.3 147.8 Q 74.3 148.6, 73.8 149.0 Q 73.4 149.4, 72.5 149.4 L 70.8 149.4 L 70.8 144.2 L 72.3 144.2 Q 73.2 144.2, 73.6 144.5 Q 74.1 144.9, 74.1 145.6 Q 74.1 146.3, 73.3 146.6 M 71.5 144.8 L 71.5 146.4 L 72.3 146.4 Q 72.8 146.4, 73.1 146.2 Q 73.3 146.0, 73.3 145.6 Q 73.3 144.8, 72.3 144.8 L 71.5 144.8 M 72.5 148.8 Q 73.0 148.8, 73.3 148.6 Q 73.6 148.3, 73.6 147.8 Q 73.6 147.4, 73.3 147.2 Q 73.0 147.0, 72.4 147.0 L 71.5 147.0 L 71.5 148.8 L 72.5 148.8 " fill="#000000"/>
<path class="atom-0" d="M 75.5 145.6 L 75.6 146.1 Q 76.0 145.5, 76.6 145.5 Q 76.8 145.5, 77.1 145.6 L 77.0 146.2 Q 76.7 146.2, 76.5 146.2 Q 76.2 146.2, 76.0 146.3 Q 75.8 146.4, 75.6 146.7 L 75.6 149.4 L 74.9 149.4 L 74.9 145.6 L 75.5 145.6 " fill="#000000"/>
<path class="atom-5" d="M 12.5 99.6 L 15.6 99.6 L 15.6 100.2 L 13.2 100.2 L 13.2 101.8 L 15.3 101.8 L 15.3 102.4 L 13.2 102.4 L 13.2 104.8 L 12.5 104.8 L 12.5 99.6 " fill="#000000"/>
<path class="atom-8" d="M 76.1 107.7 L 77.8 110.5 Q 77.9 110.7, 78.2 111.2 Q 78.5 111.7, 78.5 111.7 L 78.5 107.7 L 79.2 107.7 L 79.2 112.9 L 78.5 112.9 L 76.7 109.9 Q 76.4 109.5, 76.2 109.1 Q 76.0 108.7, 75.9 108.6 L 75.9 112.9 L 75.2 112.9 L 75.2 107.7 L 76.1 107.7 " fill="#000000"/>
<path class="atom-8" d="M 75.2 102.0 L 75.9 102.0 L 75.9 104.2 L 78.6 104.2 L 78.6 102.0 L 79.3 102.0 L 79.3 107.2 L 78.6 107.2 L 78.6 104.8 L 75.9 104.8 L 75.9 107.2 L 75.2 107.2 L 75.2 102.0 " fill="#000000"/>
<path class="atom-10" d="M 87.1 139.7 Q 87.1 138.5, 87.7 137.8 Q 88.3 137.1, 89.5 137.1 Q 90.6 137.1, 91.3 137.8 Q 91.9 138.5, 91.9 139.7 Q 91.9 141.0, 91.3 141.7 Q 90.6 142.4, 89.5 142.4 Q 88.3 142.4, 87.7 141.7 Q 87.1 141.0, 87.1 139.7 M 89.5 141.8 Q 90.3 141.8, 90.7 141.3 Q 91.1 140.8, 91.1 139.7 Q 91.1 138.7, 90.7 138.2 Q 90.3 137.6, 89.5 137.6 Q 88.7 137.6, 88.3 138.2 Q 87.8 138.7, 87.8 139.7 Q 87.8 140.8, 88.3 141.3 Q 88.7 141.8, 89.5 141.8 " fill="#000000"/>
<path class="atom-15" d="M 169.6 122.5 Q 169.6 121.3, 170.2 120.6 Q 170.8 119.9, 172.0 119.9 Q 173.1 119.9, 173.8 120.6 Q 174.4 121.3, 174.4 122.5 Q 174.4 123.8, 173.7 124.5 Q 173.1 125.2, 172.0 125.2 Q 170.8 125.2, 170.2 124.5 Q 169.6 123.8, 169.6 122.5 M 172.0 124.6 Q 172.8 124.6, 173.2 124.1 Q 173.6 123.6, 173.6 122.5 Q 173.6 121.5, 173.2 121.0 Q 172.8 120.5, 172.0 120.5 Q 171.2 120.5, 170.8 121.0 Q 170.3 121.5, 170.3 122.5 Q 170.3 123.6, 170.8 124.1 Q 171.2 124.6, 172.0 124.6 " fill="#000000"/>
<path class="atom-23" d="M 151.1 145.2 L 154.2 145.2 L 154.2 145.8 L 151.8 145.8 L 151.8 147.4 L 154.0 147.4 L 154.0 148.0 L 151.8 148.0 L 151.8 150.4 L 151.1 150.4 L 151.1 145.2 " fill="#000000"/>
<path class="bond-0 atom-0 atom-1" d="M 311.6,71.7 L 305.6,96.4" style="fill:none;fill-rule:evenodd;stroke:#000000;stroke-width:2.0px;stroke-linecap:butt;stroke-linejoin:miter;stroke-opacity:1"/>
<path class="bond-0 atom-0 atom-1" d="M 305.8,70.3 L 299.8,95.0" style="fill:none;fill-rule:evenodd;stroke:#000000;stroke-width:2.0px;stroke-linecap:butt;stroke-linejoin:miter;stroke-opacity:1"/>
<path class="bond-1 atom-1 atom-2" d="M 296.1,104.1 L 262.5,114.0" style="fill:none;fill-rule:evenodd;stroke:#000000;stroke-width:2.0px;stroke-linecap:butt;stroke-linejoin:miter;stroke-opacity:1"/>
<path class="bond-2 atom-1 atom-3" d="M 306.0,107.4 L 330.1,130.4" style="fill:none;fill-rule:evenodd;stroke:#000000;stroke-width:2.0px;stroke-linecap:butt;stroke-linejoin:miter;stroke-opacity:1"/>
<path class="bond-3 atom-3 atom-4" d="M 330.1,130.4 L 368.6,119.1" style="fill:none;fill-rule:evenodd;stroke:#000000;stroke-width:2.0px;stroke-linecap:butt;stroke-linejoin:miter;stroke-opacity:1"/>
<path class="bond-4 atom-4 atom-5" d="M 368.6,119.1 L 378.0,80.0" style="fill:none;fill-rule:evenodd;stroke:#000000;stroke-width:2.0px;stroke-linecap:butt;stroke-linejoin:miter;stroke-opacity:1"/>
<path class="bond-4 atom-4 atom-5" d="M 375.3,117.1 L 383.1,84.8" style="fill:none;fill-rule:evenodd;stroke:#000000;stroke-width:2.0px;stroke-linecap:butt;stroke-linejoin:miter;stroke-opacity:1"/>
<path class="bond-5 atom-5 atom-6" d="M 378.0,80.0 L 416.5,68.7" style="fill:none;fill-rule:evenodd;stroke:#000000;stroke-width:2.0px;stroke-linecap:butt;stroke-linejoin:miter;stroke-opacity:1"/>
<path class="bond-6 atom-6 atom-7" d="M 416.5,68.7 L 445.6,96.4" style="fill:none;fill-rule:evenodd;stroke:#000000;stroke-width:2.0px;stroke-linecap:butt;stroke-linejoin:miter;stroke-opacity:1"/>
<path class="bond-6 atom-6 atom-7" d="M 414.9,75.5 L 438.9,98.4" style="fill:none;fill-rule:evenodd;stroke:#000000;stroke-width:2.0px;stroke-linecap:butt;stroke-linejoin:miter;stroke-opacity:1"/>
<path class="bond-7 atom-7 atom-8" d="M 445.6,96.4 L 479.4,86.5" style="fill:none;fill-rule:evenodd;stroke:#000000;stroke-width:2.0px;stroke-linecap:butt;stroke-linejoin:miter;stroke-opacity:1"/>
<path class="bond-8 atom-7 atom-9" d="M 445.6,96.4 L 436.2,135.4" style="fill:none;fill-rule:evenodd;stroke:#000000;stroke-width:2.0px;stroke-linecap:butt;stroke-linejoin:miter;stroke-opacity:1"/>
<path class="bond-9 atom-9 atom-10" d="M 436.2,135.4 L 397.6,146.7" style="fill:none;fill-rule:evenodd;stroke:#000000;stroke-width:2.0px;stroke-linecap:butt;stroke-linejoin:miter;stroke-opacity:1"/>
<path class="bond-9 atom-9 atom-10" d="M 431.1,130.6 L 399.3,140.0" style="fill:none;fill-rule:evenodd;stroke:#000000;stroke-width:2.0px;stroke-linecap:butt;stroke-linejoin:miter;stroke-opacity:1"/>
<path class="bond-10 atom-10 atom-11" d="M 397.6,146.7 L 389.8,179.0" style="fill:none;fill-rule:evenodd;stroke:#000000;stroke-width:2.0px;stroke-linecap:butt;stroke-linejoin:miter;stroke-opacity:1"/>
<path class="bond-11 atom-10 atom-4" d="M 397.6,146.7 L 368.6,119.1" style="fill:none;fill-rule:evenodd;stroke:#000000;stroke-width:2.0px;stroke-linecap:butt;stroke-linejoin:miter;stroke-opacity:1"/>
<path d="M 328.9,129.2 L 330.1,130.4 L 332.0,129.8" style="fill:none;stroke:#000000;stroke-width:2.0px;stroke-linecap:butt;stroke-linejoin:miter;stroke-miterlimit:10;stroke-opacity:1;"/>
<path d="M 377.6,82.0 L 378.0,80.0 L 380.0,79.5" style="fill:none;stroke:#000000;stroke-width:2.0px;stroke-linecap:butt;stroke-linejoin:miter;stroke-miterlimit:10;stroke-opacity:1;"/>
<path d="M 414.6,69.3 L 416.5,68.7 L 418.0,70.1" style="fill:none;stroke:#000000;stroke-width:2.0px;stroke-linecap:butt;stroke-linejoin:miter;stroke-miterlimit:10;stroke-opacity:1;"/>
<path d="M 436.6,133.5 L 436.2,135.4 L 434.2,136.0" style="fill:none;stroke:#000000;stroke-width:2.0px;stroke-linecap:butt;stroke-linejoin:miter;stroke-miterlimit:10;stroke-opacity:1;"/>
<path class="atom-0" d="M 307.3 67.6 Q 307.4 67.6, 307.9 67.8 Q 308.4 68.1, 309.0 68.2 Q 309.6 68.3, 310.2 68.3 Q 311.3 68.3, 311.9 67.8 Q 312.5 67.3, 312.5 66.4 Q 312.5 65.8, 312.2 65.4 Q 311.9 65.0, 311.4 64.8 Q 310.9 64.6, 310.1 64.3 Q 309.1 64.0, 308.5 63.7 Q 307.9 63.4, 307.5 62.8 Q 307.1 62.2, 307.1 61.2 Q 307.1 59.8, 308.0 58.9 Q 309.0 58.0, 310.9 58.0 Q 312.2 58.0, 313.7 58.6 L 313.4 59.9 Q 312.0 59.3, 311.0 59.3 Q 309.9 59.3, 309.3 59.8 Q 308.7 60.2, 308.7 61.0 Q 308.7 61.6, 309.0 62.0 Q 309.3 62.4, 309.7 62.6 Q 310.2 62.8, 311.0 63.0 Q 312.0 63.3, 312.6 63.7 Q 313.2 64.0, 313.7 64.6 Q 314.1 65.3, 314.1 66.4 Q 314.1 68.0, 313.1 68.8 Q 312.0 69.6, 310.3 69.6 Q 309.2 69.6, 308.5 69.4 Q 307.7 69.2, 306.8 68.8 L 307.3 67.6 " fill="#000000"/>
<path class="atom-1" d="M 300.7 97.0 Q 302.7 97.0, 303.7 97.9 Q 304.6 98.7, 304.6 100.3 Q 304.6 101.9, 303.6 102.8 Q 302.6 103.7, 300.7 103.7 L 298.9 103.7 L 298.9 108.4 L 297.4 108.4 L 297.4 97.0 L 300.7 97.0 M 300.7 102.4 Q 301.8 102.4, 302.4 101.9 Q 303.0 101.3, 303.0 100.3 Q 303.0 99.3, 302.4 98.8 Q 301.9 98.3, 300.7 98.3 L 298.9 98.3 L 298.9 102.4 L 300.7 102.4 " fill="#000000"/>
<path class="atom-8" d="M 480.7 79.4 L 487.5 79.4 L 487.5 80.7 L 482.3 80.7 L 482.3 84.2 L 486.9 84.2 L 486.9 85.5 L 482.3 85.5 L 482.3 90.8 L 480.7 90.8 L 480.7 79.4 " fill="#000000"/>
<path class="atom-11" d="M 383.8 186.2 Q 383.8 183.3, 385.1 181.9 Q 386.5 180.4, 389.0 180.4 Q 391.3 180.4, 392.6 182.0 L 391.5 182.9 Q 390.6 181.7, 389.0 181.7 Q 387.3 181.7, 386.3 182.8 Q 385.4 184.0, 385.4 186.2 Q 385.4 188.4, 386.4 189.6 Q 387.3 190.7, 389.1 190.7 Q 390.4 190.7, 391.9 190.0 L 392.3 191.2 Q 391.7 191.5, 390.8 191.8 Q 389.9 192.0, 388.9 192.0 Q 386.5 192.0, 385.1 190.5 Q 383.8 189.0, 383.8 186.2 " fill="#000000"/>
<path class="atom-11" d="M 393.7 179.7 L 395.2 179.7 L 395.2 191.9 L 393.7 191.9 L 393.7 179.7 " fill="#000000"/>
<path class="atom-1" d="M 307.9,102.7 L 307.8,102.7 L 307.8,102.8 L 307.8,102.9 L 307.8,103.0 L 307.8,103.0 L 307.7,103.1 L 307.7,103.1 L 307.7,103.2 L 307.6,103.2 L 307.6,103.3 L 307.5,103.3 L 307.5,103.4 L 307.4,103.4 L 307.3,103.4 L 307.3,103.5 L 307.2,103.5 L 307.1,103.5 L 307.1,103.5 L 307.0,103.5 L 306.9,103.5 L 306.9,103.5 L 306.8,103.4 L 306.7,103.4 L 306.7,103.4 L 306.6,103.4 L 306.6,103.3 L 306.5,103.3 L 306.5,103.2 L 306.4,103.2 L 306.4,103.1 L 306.3,103.0 L 306.3,103.0 L 306.3,102.9 L 306.3,102.9 L 306.3,102.8 L 306.2,102.7 L 306.2,102.6 L 306.3,102.6 L 306.3,102.5 L 306.3,102.4 L 306.3,102.4 L 306.3,102.3 L 306.4,102.3 L 306.4,102.2 L 306.5,102.1 L 306.5,102.1 L 306.6,102.0 L 306.6,102.0 L 306.7,102.0 L 306.7,101.9 L 306.8,101.9 L 306.9,101.9 L 306.9,101.9 L 307.0,101.9 L 307.1,101.9 L 307.1,101.9 L 307.2,101.9 L 307.3,101.9 L 307.3,101.9 L 307.4,102.0 L 307.5,102.0 L 307.5,102.0 L 307.6,102.1 L 307.6,102.1 L 307.7,102.2 L 307.7,102.2 L 307.7,102.3 L 307.8,102.3 L 307.8,102.4 L 307.8,102.5 L 307.8,102.5 L 307.8,102.6 L 307.9,102.7 L 307.0,102.7 Z" style="fill:#000000;fill-rule:evenodd;fill-opacity:1;stroke:#000000;stroke-width:0.0px;stroke-linecap:butt;stroke-linejoin:miter;stroke-miterlimit:10;stroke-opacity:1;"/>
<path class="bond-0 atom-0 atom-1" d="M 688.0,117.6 L 644.7,136.1" style="fill:none;fill-rule:evenodd;stroke:#000000;stroke-width:2.0px;stroke-linecap:butt;stroke-linejoin:miter;stroke-opacity:1"/>
<path class="bond-1 atom-1 atom-2" d="M 621.8,132.3 L 577.1,98.7" style="fill:none;fill-rule:evenodd;stroke:#000000;stroke-width:2.0px;stroke-linecap:butt;stroke-linejoin:miter;stroke-opacity:1"/>
<path class="bond-2 atom-2 atom-3" d="M 577.1,98.7 L 512.5,126.2" style="fill:none;fill-rule:evenodd;stroke:#000000;stroke-width:2.0px;stroke-linecap:butt;stroke-linejoin:miter;stroke-opacity:1"/>
<path d="M 579.4,100.4 L 577.1,98.7 L 573.9,100.1" style="fill:none;stroke:#000000;stroke-width:2.0px;stroke-linecap:butt;stroke-linejoin:miter;stroke-miterlimit:10;stroke-opacity:1;"/>
<path class="atom-0" d="M 693.5 103.5 L 700.0 114.0 Q 700.7 115.1, 701.7 116.9 Q 702.7 118.8, 702.8 118.9 L 702.8 103.5 L 705.4 103.5 L 705.4 123.4 L 702.7 123.4 L 695.7 111.9 Q 694.9 110.5, 694.0 109.0 Q 693.2 107.4, 692.9 106.9 L 692.9 123.4 L 690.3 123.4 L 690.3 103.5 L 693.5 103.5 " fill="#000000"/>
<path class="atom-0" d="M 709.2 103.5 L 711.9 103.5 L 711.9 111.9 L 722.1 111.9 L 722.1 103.5 L 724.8 103.5 L 724.8 123.4 L 722.1 123.4 L 722.1 114.2 L 711.9 114.2 L 711.9 123.4 L 709.2 123.4 L 709.2 103.5 " fill="#000000"/>
<path class="atom-0" d="M 728.7 122.7 Q 729.2 121.4, 730.3 120.7 Q 731.5 120.0, 733.1 120.0 Q 735.1 120.0, 736.2 121.1 Q 737.3 122.2, 737.3 124.1 Q 737.3 126.0, 735.8 127.9 Q 734.4 129.7, 731.4 131.8 L 737.5 131.8 L 737.5 133.3 L 728.7 133.3 L 728.7 132.1 Q 731.1 130.3, 732.5 129.0 Q 734.0 127.7, 734.7 126.6 Q 735.4 125.4, 735.4 124.2 Q 735.4 122.9, 734.8 122.2 Q 734.2 121.5, 733.1 121.5 Q 732.0 121.5, 731.3 121.9 Q 730.6 122.4, 730.1 123.3 L 728.7 122.7 " fill="#000000"/>
<path class="atom-1" d="M 624.1 141.0 Q 624.1 136.2, 626.5 133.5 Q 628.9 130.9, 633.3 130.9 Q 637.7 130.9, 640.0 133.5 Q 642.4 136.2, 642.4 141.0 Q 642.4 145.8, 640.0 148.6 Q 637.6 151.3, 633.3 151.3 Q 628.9 151.3, 626.5 148.6 Q 624.1 145.8, 624.1 141.0 M 633.3 149.0 Q 636.3 149.0, 637.9 147.0 Q 639.6 145.0, 639.6 141.0 Q 639.6 137.1, 637.9 135.1 Q 636.3 133.1, 633.3 133.1 Q 630.2 133.1, 628.6 135.1 Q 626.9 137.0, 626.9 141.0 Q 626.9 145.0, 628.6 147.0 Q 630.2 149.0, 633.3 149.0 " fill="#000000"/>
<path class="bond-0 atom-0 atom-1" d="M 57.4,374.8 L 217.2,374.8" style="fill:none;fill-rule:evenodd;stroke:#000000;stroke-width:2.0px;stroke-linecap:butt;stroke-linejoin:miter;stroke-opacity:1"/>
<path class="atom-0" d="M 23.2 375.8 Q 23.2 368.8, 26.5 365.1 Q 29.8 361.4, 36.1 361.4 Q 41.9 361.4, 45.0 365.5 L 42.4 367.6 Q 40.1 364.6, 36.1 364.6 Q 31.8 364.6, 29.5 367.5 Q 27.3 370.4, 27.3 375.8 Q 27.3 381.4, 29.6 384.3 Q 32.0 387.2, 36.5 387.2 Q 39.6 387.2, 43.3 385.3 L 44.4 388.3 Q 42.9 389.2, 40.7 389.8 Q 38.4 390.4, 36.0 390.4 Q 29.8 390.4, 26.5 386.6 Q 23.2 382.8, 23.2 375.8 " fill="#000000"/>
<path class="atom-0" d="M 47.9 359.6 L 51.6 359.6 L 51.6 390.0 L 47.9 390.0 L 47.9 359.6 " fill="#000000"/>
<path class="atom-1" d="M 223.0 360.6 L 226.8 360.6 L 226.8 389.0 L 223.0 389.0 L 223.0 360.6 " fill="#000000"/>
<path class="bond-0 atom-0 atom-1" d="M 411.3,395.6 L 434.2,389.8" style="fill:none;fill-rule:evenodd;stroke:#000000;stroke-width:2.0px;stroke-linecap:butt;stroke-linejoin:miter;stroke-opacity:1"/>
<path class="bond-1 atom-1 atom-2" d="M 434.2,389.8 L 453.3,409.6" style="fill:none;fill-rule:evenodd;stroke:#000000;stroke-width:2.0px;stroke-linecap:butt;stroke-linejoin:miter;stroke-opacity:1"/>
<path class="bond-1 atom-1 atom-2" d="M 438.8,388.7 L 454.6,405.0" style="fill:none;fill-rule:evenodd;stroke:#000000;stroke-width:2.0px;stroke-linecap:butt;stroke-linejoin:miter;stroke-opacity:1"/>
<path class="bond-2 atom-2 atom-3" d="M 453.3,409.6 L 480.0,402.9" style="fill:none;fill-rule:evenodd;stroke:#000000;stroke-width:2.0px;stroke-linecap:butt;stroke-linejoin:miter;stroke-opacity:1"/>
<path class="bond-3 atom-3 atom-4" d="M 480.0,402.9 L 487.5,376.4" style="fill:none;fill-rule:evenodd;stroke:#000000;stroke-width:2.0px;stroke-linecap:butt;stroke-linejoin:miter;stroke-opacity:1"/>
<path class="bond-3 atom-3 atom-4" d="M 476.7,399.5 L 482.9,377.6" style="fill:none;fill-rule:evenodd;stroke:#000000;stroke-width:2.0px;stroke-linecap:butt;stroke-linejoin:miter;stroke-opacity:1"/>
<path class="bond-4 atom-4 atom-5" d="M 487.5,376.4 L 468.4,356.7" style="fill:none;fill-rule:evenodd;stroke:#000000;stroke-width:2.0px;stroke-linecap:butt;stroke-linejoin:miter;stroke-opacity:1"/>
<path class="bond-5 atom-5 atom-6" d="M 468.4,356.7 L 441.7,363.4" style="fill:none;fill-rule:evenodd;stroke:#000000;stroke-width:2.0px;stroke-linecap:butt;stroke-linejoin:miter;stroke-opacity:1"/>
<path class="bond-5 atom-5 atom-6" d="M 467.1,361.3 L 445.0,366.8" style="fill:none;fill-rule:evenodd;stroke:#000000;stroke-width:2.0px;stroke-linecap:butt;stroke-linejoin:miter;stroke-opacity:1"/>
<path class="bond-6 atom-6 atom-7" d="M 441.7,363.4 L 426.4,347.6" style="fill:none;fill-rule:evenodd;stroke:#000000;stroke-width:2.0px;stroke-linecap:butt;stroke-linejoin:miter;stroke-opacity:1"/>
<path class="bond-7 atom-7 atom-8" d="M 418.7,344.6 L 399.3,349.5" style="fill:none;fill-rule:evenodd;stroke:#000000;stroke-width:2.0px;stroke-linecap:butt;stroke-linejoin:miter;stroke-opacity:1"/>
<path class="bond-8 atom-8 atom-9" d="M 394.5,355.1 L 388.3,376.8" style="fill:none;fill-rule:evenodd;stroke:#000000;stroke-width:2.0px;stroke-linecap:butt;stroke-linejoin:miter;stroke-opacity:1"/>
<path class="bond-8 atom-8 atom-9" d="M 398.5,356.3 L 393.0,375.6" style="fill:none;fill-rule:evenodd;stroke:#000000;stroke-width:2.0px;stroke-linecap:butt;stroke-linejoin:miter;stroke-opacity:1"/>
<path class="bond-9 atom-9 atom-10" d="M 388.3,376.8 L 365.1,382.6" style="fill:none;fill-rule:evenodd;stroke:#000000;stroke-width:2.0px;stroke-linecap:butt;stroke-linejoin:miter;stroke-opacity:1"/>
<path class="bond-10 atom-10 atom-11" d="M 358.3,380.0 L 345.9,367.2" style="fill:none;fill-rule:evenodd;stroke:#000000;stroke-width:2.0px;stroke-linecap:butt;stroke-linejoin:miter;stroke-opacity:1"/>
<path class="bond-11 atom-11 atom-12" d="M 339.1,364.6 L 315.8,370.4" style="fill:none;fill-rule:evenodd;stroke:#000000;stroke-width:2.0px;stroke-linecap:butt;stroke-linejoin:miter;stroke-opacity:1"/>
<path class="bond-12 atom-12 atom-13" d="M 315.8,370.4 L 296.7,350.7" style="fill:none;fill-rule:evenodd;stroke:#000000;stroke-width:2.0px;stroke-linecap:butt;stroke-linejoin:miter;stroke-opacity:1"/>
<path class="bond-12 atom-12 atom-13" d="M 311.2,371.6 L 295.4,355.3" style="fill:none;fill-rule:evenodd;stroke:#000000;stroke-width:2.0px;stroke-linecap:butt;stroke-linejoin:miter;stroke-opacity:1"/>
<path class="bond-13 atom-13 atom-14" d="M 296.7,350.7 L 270.0,357.4" style="fill:none;fill-rule:evenodd;stroke:#000000;stroke-width:2.0px;stroke-linecap:butt;stroke-linejoin:miter;stroke-opacity:1"/>
<path class="bond-14 atom-14 atom-15" d="M 270.0,357.4 L 262.5,383.8" style="fill:none;fill-rule:evenodd;stroke:#000000;stroke-width:2.0px;stroke-linecap:butt;stroke-linejoin:miter;stroke-opacity:1"/>
<path class="bond-14 atom-14 atom-15" d="M 273.3,360.8 L 267.1,382.7" style="fill:none;fill-rule:evenodd;stroke:#000000;stroke-width:2.0px;stroke-linecap:butt;stroke-linejoin:miter;stroke-opacity:1"/>
<path class="bond-15 atom-15 atom-16" d="M 262.5,383.8 L 281.6,403.6" style="fill:none;fill-rule:evenodd;stroke:#000000;stroke-width:2.0px;stroke-linecap:butt;stroke-linejoin:miter;stroke-opacity:1"/>
<path class="bond-16 atom-16 atom-17" d="M 281.6,403.6 L 308.3,396.9" style="fill:none;fill-rule:evenodd;stroke:#000000;stroke-width:2.0px;stroke-linecap:butt;stroke-linejoin:miter;stroke-opacity:1"/>
<path class="bond-16 atom-16 atom-17" d="M 282.9,399.0 L 305.0,393.5" style="fill:none;fill-rule:evenodd;stroke:#000000;stroke-width:2.0px;stroke-linecap:butt;stroke-linejoin:miter;stroke-opacity:1"/>
<path class="bond-17 atom-17 atom-18" d="M 308.3,396.9 L 323.9,413.0" style="fill:none;fill-rule:evenodd;stroke:#000000;stroke-width:2.0px;stroke-linecap:butt;stroke-linejoin:miter;stroke-opacity:1"/>
<path class="bond-18 atom-9 atom-0" d="M 388.3,376.8 L 403.6,392.5" style="fill:none;fill-rule:evenodd;stroke:#000000;stroke-width:2.0px;stroke-linecap:butt;stroke-linejoin:miter;stroke-opacity:1"/>
<path class="bond-19 atom-6 atom-1" d="M 441.7,363.4 L 434.2,389.8" style="fill:none;fill-rule:evenodd;stroke:#000000;stroke-width:2.0px;stroke-linecap:butt;stroke-linejoin:miter;stroke-opacity:1"/>
<path class="bond-20 atom-17 atom-12" d="M 308.3,396.9 L 315.8,370.4" style="fill:none;fill-rule:evenodd;stroke:#000000;stroke-width:2.0px;stroke-linecap:butt;stroke-linejoin:miter;stroke-opacity:1"/>
<path d="M 452.3,408.6 L 453.3,409.6 L 454.6,409.2" style="fill:none;stroke:#000000;stroke-width:2.0px;stroke-linecap:butt;stroke-linejoin:miter;stroke-miterlimit:10;stroke-opacity:1;"/>
<path d="M 478.6,403.2 L 480.0,402.9 L 480.3,401.6" style="fill:none;stroke:#000000;stroke-width:2.0px;stroke-linecap:butt;stroke-linejoin:miter;stroke-miterlimit:10;stroke-opacity:1;"/>
<path d="M 487.1,377.7 L 487.5,376.4 L 486.5,375.4" style="fill:none;stroke:#000000;stroke-width:2.0px;stroke-linecap:butt;stroke-linejoin:miter;stroke-miterlimit:10;stroke-opacity:1;"/>
<path d="M 469.3,357.7 L 468.4,356.7 L 467.0,357.0" style="fill:none;stroke:#000000;stroke-width:2.0px;stroke-linecap:butt;stroke-linejoin:miter;stroke-miterlimit:10;stroke-opacity:1;"/>
<path d="M 297.7,351.7 L 296.7,350.7 L 295.4,351.0" style="fill:none;stroke:#000000;stroke-width:2.0px;stroke-linecap:butt;stroke-linejoin:miter;stroke-miterlimit:10;stroke-opacity:1;"/>
<path d="M 271.4,357.0 L 270.0,357.4 L 269.7,358.7" style="fill:none;stroke:#000000;stroke-width:2.0px;stroke-linecap:butt;stroke-linejoin:miter;stroke-miterlimit:10;stroke-opacity:1;"/>
<path d="M 262.9,382.5 L 262.5,383.8 L 263.5,384.8" style="fill:none;stroke:#000000;stroke-width:2.0px;stroke-linecap:butt;stroke-linejoin:miter;stroke-miterlimit:10;stroke-opacity:1;"/>
<path d="M 280.7,402.6 L 281.6,403.6 L 283.0,403.3" style="fill:none;stroke:#000000;stroke-width:2.0px;stroke-linecap:butt;stroke-linejoin:miter;stroke-miterlimit:10;stroke-opacity:1;"/>
<path class="atom-0" d="M 405.8 392.6 L 408.3 396.8 Q 408.6 397.2, 409.0 397.9 Q 409.4 398.6, 409.4 398.7 L 409.4 392.6 L 410.4 392.6 L 410.4 400.4 L 409.4 400.4 L 406.6 395.9 Q 406.3 395.4, 406.0 394.8 Q 405.6 394.2, 405.5 394.0 L 405.5 400.4 L 404.5 400.4 L 404.5 392.6 L 405.8 392.6 " fill="#000000"/>
<path class="atom-0" d="M 404.4 401.2 L 405.5 401.2 L 405.5 404.5 L 409.5 404.5 L 409.5 401.2 L 410.5 401.2 L 410.5 409.0 L 409.5 409.0 L 409.5 405.4 L 405.5 405.4 L 405.5 409.0 L 404.4 409.0 L 404.4 401.2 " fill="#000000"/>
<path class="atom-7" d="M 420.8 339.7 L 423.4 343.9 Q 423.6 344.3, 424.0 345.0 Q 424.4 345.7, 424.5 345.8 L 424.5 339.7 L 425.5 339.7 L 425.5 347.5 L 424.4 347.5 L 421.7 343.0 Q 421.4 342.5, 421.0 341.9 Q 420.7 341.3, 420.6 341.1 L 420.6 347.5 L 419.6 347.5 L 419.6 339.7 L 420.8 339.7 " fill="#000000"/>
<path class="atom-7" d="M 419.5 331.2 L 420.6 331.2 L 420.6 334.5 L 424.5 334.5 L 424.5 331.2 L 425.6 331.2 L 425.6 339.0 L 424.5 339.0 L 424.5 335.4 L 420.6 335.4 L 420.6 339.0 L 419.5 339.0 L 419.5 331.2 " fill="#000000"/>
<path class="atom-7" d="M 427.1 332.6 L 428.5 332.6 L 428.5 331.1 L 429.1 331.1 L 429.1 332.6 L 430.5 332.6 L 430.5 333.1 L 429.1 333.1 L 429.1 334.5 L 428.5 334.5 L 428.5 333.1 L 427.1 333.1 L 427.1 332.6 " fill="#000000"/>
<path class="atom-8" d="M 385.8 346.4 L 386.9 346.4 L 386.9 349.7 L 390.8 349.7 L 390.8 346.4 L 391.9 346.4 L 391.9 354.2 L 390.8 354.2 L 390.8 350.6 L 386.9 350.6 L 386.9 354.2 L 385.8 354.2 L 385.8 346.4 " fill="#000000"/>
<path class="atom-8" d="M 395.7 346.4 Q 397.0 346.4, 397.7 347.0 Q 398.4 347.6, 398.4 348.7 Q 398.4 349.8, 397.7 350.4 Q 397.0 351.0, 395.7 351.0 L 394.4 351.0 L 394.4 354.2 L 393.4 354.2 L 393.4 346.4 L 395.7 346.4 M 395.7 350.1 Q 396.4 350.1, 396.8 349.8 Q 397.3 349.4, 397.3 348.7 Q 397.3 348.0, 396.8 347.7 Q 396.5 347.3, 395.7 347.3 L 394.4 347.3 L 394.4 350.1 L 395.7 350.1 " fill="#000000"/>
<path class="atom-10" d="M 361.5 379.6 Q 362.8 379.6, 363.5 380.2 Q 364.1 380.8, 364.1 381.9 Q 364.1 383.0, 363.5 383.6 Q 362.8 384.2, 361.5 384.2 L 360.2 384.2 L 360.2 387.4 L 359.2 387.4 L 359.2 379.6 L 361.5 379.6 M 361.5 383.3 Q 362.2 383.3, 362.6 382.9 Q 363.0 382.6, 363.0 381.9 Q 363.0 381.2, 362.6 380.8 Q 362.2 380.5, 361.5 380.5 L 360.2 380.5 L 360.2 383.3 L 361.5 383.3 " fill="#000000"/>
<path class="atom-11" d="M 340.3 366.4 Q 340.4 366.4, 340.8 366.6 Q 341.1 366.7, 341.5 366.8 Q 341.9 366.9, 342.3 366.9 Q 343.1 366.9, 343.5 366.6 Q 343.9 366.2, 343.9 365.6 Q 343.9 365.2, 343.7 364.9 Q 343.5 364.6, 343.2 364.5 Q 342.8 364.3, 342.3 364.2 Q 341.6 364.0, 341.2 363.8 Q 340.8 363.6, 340.5 363.2 Q 340.2 362.7, 340.2 362.0 Q 340.2 361.1, 340.8 360.5 Q 341.5 359.8, 342.8 359.8 Q 343.7 359.8, 344.8 360.3 L 344.5 361.1 Q 343.6 360.7, 342.9 360.7 Q 342.1 360.7, 341.7 361.1 Q 341.3 361.4, 341.3 361.9 Q 341.3 362.3, 341.5 362.6 Q 341.7 362.8, 342.0 363.0 Q 342.3 363.1, 342.9 363.3 Q 343.6 363.5, 344.0 363.7 Q 344.4 363.9, 344.7 364.4 Q 345.0 364.8, 345.0 365.6 Q 345.0 366.7, 344.3 367.3 Q 343.6 367.8, 342.4 367.8 Q 341.7 367.8, 341.2 367.7 Q 340.6 367.5, 340.0 367.3 L 340.3 366.4 " fill="#000000"/>
<path class="atom-18" d="M 328.6 416.4 Q 329.3 416.6, 329.7 417.1 Q 330.1 417.6, 330.1 418.2 Q 330.1 419.3, 329.4 419.9 Q 328.7 420.5, 327.4 420.5 L 324.8 420.5 L 324.8 412.7 L 327.1 412.7 Q 328.4 412.7, 329.1 413.3 Q 329.8 413.8, 329.8 414.8 Q 329.8 416.0, 328.6 416.4 M 325.9 413.6 L 325.9 416.1 L 327.1 416.1 Q 327.9 416.1, 328.3 415.8 Q 328.7 415.4, 328.7 414.8 Q 328.7 413.6, 327.1 413.6 L 325.9 413.6 M 327.4 419.6 Q 328.2 419.6, 328.6 419.3 Q 329.0 418.9, 329.0 418.2 Q 329.0 417.6, 328.6 417.3 Q 328.1 416.9, 327.3 416.9 L 325.9 416.9 L 325.9 419.6 L 327.4 419.6 " fill="#000000"/>
<path class="atom-18" d="M 331.9 414.9 L 332.0 415.7 Q 332.6 414.8, 333.6 414.8 Q 333.9 414.8, 334.3 414.9 L 334.1 415.8 Q 333.6 415.7, 333.4 415.7 Q 332.9 415.7, 332.6 415.9 Q 332.3 416.1, 332.1 416.5 L 332.1 420.5 L 331.0 420.5 L 331.0 414.9 L 331.9 414.9 " fill="#000000"/>
<path class="atom-7" d="M 423.1,330.3 L 423.1,330.3 L 423.1,330.4 L 423.1,330.4 L 423.1,330.5 L 423.0,330.5 L 423.0,330.6 L 423.0,330.6 L 423.0,330.6 L 422.9,330.7 L 422.9,330.7 L 422.9,330.7 L 422.8,330.8 L 422.8,330.8 L 422.7,330.8 L 422.7,330.8 L 422.6,330.8 L 422.6,330.8 L 422.6,330.8 L 422.5,330.8 L 422.5,330.8 L 422.4,330.8 L 422.4,330.8 L 422.3,330.8 L 422.3,330.8 L 422.2,330.8 L 422.2,330.7 L 422.2,330.7 L 422.1,330.7 L 422.1,330.6 L 422.1,330.6 L 422.1,330.5 L 422.0,330.5 L 422.0,330.5 L 422.0,330.4 L 422.0,330.4 L 422.0,330.3 L 422.0,330.3 L 422.0,330.2 L 422.0,330.2 L 422.0,330.1 L 422.0,330.1 L 422.1,330.0 L 422.1,330.0 L 422.1,330.0 L 422.1,329.9 L 422.2,329.9 L 422.2,329.9 L 422.2,329.8 L 422.3,329.8 L 422.3,329.8 L 422.4,329.8 L 422.4,329.8 L 422.5,329.8 L 422.5,329.7 L 422.6,329.7 L 422.6,329.8 L 422.6,329.8 L 422.7,329.8 L 422.7,329.8 L 422.8,329.8 L 422.8,329.8 L 422.9,329.9 L 422.9,329.9 L 422.9,329.9 L 423.0,329.9 L 423.0,330.0 L 423.0,330.0 L 423.0,330.1 L 423.1,330.1 L 423.1,330.2 L 423.1,330.2 L 423.1,330.2 L 423.1,330.3 L 422.5,330.3 Z" style="fill:#000000;fill-rule:evenodd;fill-opacity:1;stroke:#000000;stroke-width:0.0px;stroke-linecap:butt;stroke-linejoin:miter;stroke-miterlimit:10;stroke-opacity:1;"/>
<path class="atom-8" d="M 384.7,350.3 L 384.7,350.4 L 384.7,350.4 L 384.7,350.5 L 384.7,350.5 L 384.7,350.6 L 384.6,350.6 L 384.6,350.6 L 384.6,350.7 L 384.5,350.7 L 384.5,350.7 L 384.5,350.8 L 384.4,350.8 L 384.4,350.8 L 384.3,350.8 L 384.3,350.9 L 384.3,350.9 L 384.2,350.9 L 384.2,350.9 L 384.1,350.9 L 384.1,350.9 L 384.0,350.9 L 384.0,350.8 L 383.9,350.8 L 383.9,350.8 L 383.8,350.8 L 383.8,350.8 L 383.8,350.7 L 383.7,350.7 L 383.7,350.7 L 383.7,350.6 L 383.7,350.6 L 383.6,350.5 L 383.6,350.5 L 383.6,350.4 L 383.6,350.4 L 383.6,350.4 L 383.6,350.3 L 383.6,350.3 L 383.6,350.2 L 383.6,350.2 L 383.6,350.1 L 383.7,350.1 L 383.7,350.0 L 383.7,350.0 L 383.7,350.0 L 383.8,349.9 L 383.8,349.9 L 383.8,349.9 L 383.9,349.8 L 383.9,349.8 L 384.0,349.8 L 384.0,349.8 L 384.1,349.8 L 384.1,349.8 L 384.2,349.8 L 384.2,349.8 L 384.3,349.8 L 384.3,349.8 L 384.3,349.8 L 384.4,349.8 L 384.4,349.9 L 384.5,349.9 L 384.5,349.9 L 384.5,349.9 L 384.6,350.0 L 384.6,350.0 L 384.6,350.1 L 384.7,350.1 L 384.7,350.1 L 384.7,350.2 L 384.7,350.2 L 384.7,350.3 L 384.7,350.3 L 384.2,350.3 Z" style="fill:#000000;fill-rule:evenodd;fill-opacity:1;stroke:#000000;stroke-width:0.0px;stroke-linecap:butt;stroke-linejoin:miter;stroke-miterlimit:10;stroke-opacity:1;"/>
<path class="atom-10" d="M 362.2,388.2 L 362.2,388.2 L 362.2,388.3 L 362.2,388.3 L 362.2,388.4 L 362.2,388.4 L 362.1,388.5 L 362.1,388.5 L 362.1,388.5 L 362.1,388.6 L 362.0,388.6 L 362.0,388.6 L 361.9,388.7 L 361.9,388.7 L 361.9,388.7 L 361.8,388.7 L 361.8,388.7 L 361.7,388.7 L 361.7,388.7 L 361.6,388.7 L 361.6,388.7 L 361.5,388.7 L 361.5,388.7 L 361.4,388.7 L 361.4,388.7 L 361.4,388.7 L 361.3,388.6 L 361.3,388.6 L 361.3,388.6 L 361.2,388.5 L 361.2,388.5 L 361.2,388.5 L 361.2,388.4 L 361.1,388.4 L 361.1,388.3 L 361.1,388.3 L 361.1,388.2 L 361.1,388.2 L 361.1,388.1 L 361.1,388.1 L 361.1,388.0 L 361.2,388.0 L 361.2,387.9 L 361.2,387.9 L 361.2,387.9 L 361.3,387.8 L 361.3,387.8 L 361.3,387.8 L 361.4,387.7 L 361.4,387.7 L 361.4,387.7 L 361.5,387.7 L 361.5,387.7 L 361.6,387.7 L 361.6,387.7 L 361.7,387.6 L 361.7,387.7 L 361.8,387.7 L 361.8,387.7 L 361.9,387.7 L 361.9,387.7 L 361.9,387.7 L 362.0,387.8 L 362.0,387.8 L 362.1,387.8 L 362.1,387.9 L 362.1,387.9 L 362.1,387.9 L 362.2,388.0 L 362.2,388.0 L 362.2,388.1 L 362.2,388.1 L 362.2,388.2 L 362.2,388.2 L 361.7,388.2 Z" style="fill:#000000;fill-rule:evenodd;fill-opacity:1;stroke:#000000;stroke-width:0.0px;stroke-linecap:butt;stroke-linejoin:miter;stroke-miterlimit:10;stroke-opacity:1;"/>
<path class="bond-0 atom-0 atom-1" d="M 698.2,376.5 L 657.6,353.1" style="fill:none;fill-rule:evenodd;stroke:#000000;stroke-width:2.0px;stroke-linecap:butt;stroke-linejoin:miter;stroke-opacity:1"/>
<path class="bond-1 atom-1 atom-2" d="M 657.6,353.1 L 609.2,381.1" style="fill:none;fill-rule:evenodd;stroke:#000000;stroke-width:2.0px;stroke-linecap:butt;stroke-linejoin:miter;stroke-opacity:1"/>
<path class="bond-1 atom-1 atom-2" d="M 657.6,362.8 L 613.4,388.3" style="fill:none;fill-rule:evenodd;stroke:#000000;stroke-width:2.0px;stroke-linecap:butt;stroke-linejoin:miter;stroke-opacity:1"/>
<path class="bond-2 atom-2 atom-3" d="M 609.2,381.1 L 560.9,353.1" style="fill:none;fill-rule:evenodd;stroke:#000000;stroke-width:2.0px;stroke-linecap:butt;stroke-linejoin:miter;stroke-opacity:1"/>
<path class="bond-3 atom-3 atom-4" d="M 560.9,353.1 L 512.5,381.1" style="fill:none;fill-rule:evenodd;stroke:#000000;stroke-width:2.0px;stroke-linecap:butt;stroke-linejoin:miter;stroke-opacity:1"/>
<path class="bond-3 atom-3 atom-4" d="M 560.9,362.8 L 516.7,388.3" style="fill:none;fill-rule:evenodd;stroke:#000000;stroke-width:2.0px;stroke-linecap:butt;stroke-linejoin:miter;stroke-opacity:1"/>
<path d="M 659.7,354.3 L 657.6,353.1 L 655.2,354.5" style="fill:none;stroke:#000000;stroke-width:2.0px;stroke-linecap:butt;stroke-linejoin:miter;stroke-miterlimit:10;stroke-opacity:1;"/>
<path d="M 611.7,379.7 L 609.2,381.1 L 606.8,379.7" style="fill:none;stroke:#000000;stroke-width:2.0px;stroke-linecap:butt;stroke-linejoin:miter;stroke-miterlimit:10;stroke-opacity:1;"/>
<path d="M 563.3,354.5 L 560.9,353.1 L 558.5,354.5" style="fill:none;stroke:#000000;stroke-width:2.0px;stroke-linecap:butt;stroke-linejoin:miter;stroke-miterlimit:10;stroke-opacity:1;"/>
<path class="atom-0" d="M 702.5 373.1 L 707.7 381.5 Q 708.2 382.4, 709.0 383.8 Q 709.9 385.3, 709.9 385.4 L 709.9 373.1 L 712.0 373.1 L 712.0 389.0 L 709.8 389.0 L 704.3 379.8 Q 703.6 378.7, 702.9 377.5 Q 702.3 376.3, 702.1 375.9 L 702.1 389.0 L 700.0 389.0 L 700.0 373.1 L 702.5 373.1 " fill="#000000"/>
<path class="atom-0" d="M 715.0 373.1 L 717.2 373.1 L 717.2 379.9 L 725.3 379.9 L 725.3 373.1 L 727.4 373.1 L 727.4 389.0 L 725.3 389.0 L 725.3 381.7 L 717.2 381.7 L 717.2 389.0 L 715.0 389.0 L 715.0 373.1 " fill="#000000"/>
<path class="atom-0" d="M 730.5 388.4 Q 730.9 387.4, 731.8 386.9 Q 732.7 386.3, 734.0 386.3 Q 735.6 386.3, 736.4 387.2 Q 737.3 388.0, 737.3 389.5 Q 737.3 391.1, 736.2 392.5 Q 735.0 394.0, 732.7 395.7 L 737.5 395.7 L 737.5 396.9 L 730.5 396.9 L 730.5 395.9 Q 732.4 394.5, 733.6 393.5 Q 734.7 392.4, 735.3 391.5 Q 735.8 390.6, 735.8 389.6 Q 735.8 388.6, 735.3 388.1 Q 734.8 387.5, 734.0 387.5 Q 733.1 387.5, 732.6 387.8 Q 732.0 388.2, 731.6 388.9 L 730.5 388.4 " fill="#000000"/>
<path class="bond-0 atom-0 atom-1" d="M 108.0,580.6 L 127.0,563.3" style="fill:none;fill-rule:evenodd;stroke:#000000;stroke-width:2.0px;stroke-linecap:butt;stroke-linejoin:miter;stroke-opacity:1"/>
<path class="bond-1 atom-1 atom-2" d="M 136.0,559.4 L 163.3,560.8" style="fill:none;fill-rule:evenodd;stroke:#000000;stroke-width:2.0px;stroke-linecap:butt;stroke-linejoin:miter;stroke-opacity:1"/>
<path class="bond-2 atom-2 atom-3" d="M 165.1,562.8 L 176.4,538.9" style="fill:none;fill-rule:evenodd;stroke:#000000;stroke-width:2.0px;stroke-linecap:butt;stroke-linejoin:miter;stroke-opacity:1"/>
<path class="bond-2 atom-2 atom-3" d="M 160.6,560.6 L 171.9,536.8" style="fill:none;fill-rule:evenodd;stroke:#000000;stroke-width:2.0px;stroke-linecap:butt;stroke-linejoin:miter;stroke-opacity:1"/>
<path class="bond-3 atom-2 atom-4" d="M 163.3,560.8 L 184.6,584.3" style="fill:none;fill-rule:evenodd;stroke:#000000;stroke-width:2.0px;stroke-linecap:butt;stroke-linejoin:miter;stroke-opacity:1"/>
<path class="bond-4 atom-4 atom-5" d="M 184.6,584.3 L 215.3,576.0" style="fill:none;fill-rule:evenodd;stroke:#000000;stroke-width:2.0px;stroke-linecap:butt;stroke-linejoin:miter;stroke-opacity:1"/>
<path class="bond-5 atom-5 atom-6" d="M 215.3,576.0 L 232.7,602.6" style="fill:none;fill-rule:evenodd;stroke:#000000;stroke-width:2.0px;stroke-linecap:butt;stroke-linejoin:miter;stroke-opacity:1"/>
<path class="bond-6 atom-6 atom-7" d="M 232.7,602.6 L 212.8,627.4" style="fill:none;fill-rule:evenodd;stroke:#000000;stroke-width:2.0px;stroke-linecap:butt;stroke-linejoin:miter;stroke-opacity:1"/>
<path class="bond-7 atom-7 atom-8" d="M 212.8,627.4 L 183.1,616.1" style="fill:none;fill-rule:evenodd;stroke:#000000;stroke-width:2.0px;stroke-linecap:butt;stroke-linejoin:miter;stroke-opacity:1"/>
<path class="bond-8 atom-8 atom-9" d="M 183.1,616.1 L 193.6,631.3" style="fill:none;fill-rule:evenodd;stroke:#000000;stroke-width:2.0px;stroke-linecap:butt;stroke-linejoin:miter;stroke-opacity:1"/>
<path class="bond-9 atom-9 atom-10" d="M 193.6,631.3 L 218.3,590.9" style="fill:none;fill-rule:evenodd;stroke:#000000;stroke-width:2.0px;stroke-linecap:butt;stroke-linejoin:miter;stroke-opacity:1"/>
<path class="bond-10 atom-9 atom-11" d="M 193.6,631.3 L 216.0,655.9" style="fill:none;fill-rule:evenodd;stroke:#000000;stroke-width:2.0px;stroke-linecap:butt;stroke-linejoin:miter;stroke-opacity:1"/>
<path class="bond-11 atom-11 atom-12" d="M 225.1,664.8 L 230.6,669.5" style="fill:none;fill-rule:evenodd;stroke:#000000;stroke-width:2.0px;stroke-linecap:butt;stroke-linejoin:miter;stroke-opacity:1"/>
<path class="bond-12 atom-12 atom-13" d="M 229.5,677.5 L 217.8,691.5 L 214.5,687.9 Z" style="fill:#000000;fill-rule:evenodd;fill-opacity:1;stroke:#000000;stroke-width:0.5px;stroke-linecap:butt;stroke-linejoin:miter;stroke-miterlimit:10;stroke-opacity:1;"/>
<path class="bond-13 atom-13 atom-14" d="M 207.1,694.1 L 179.3,692.7" style="fill:none;fill-rule:evenodd;stroke:#000000;stroke-width:2.0px;stroke-linecap:butt;stroke-linejoin:miter;stroke-opacity:1"/>
<path class="bond-14 atom-14 atom-15" d="M 178.0,696.0 L 177.6,695.8" style="fill:none;fill-rule:evenodd;stroke:#000000;stroke-width:1.0px;stroke-linecap:butt;stroke-linejoin:miter;stroke-opacity:1"/>
<path class="bond-14 atom-14 atom-15" d="M 176.8,699.3 L 175.8,698.9" style="fill:none;fill-rule:evenodd;stroke:#000000;stroke-width:1.0px;stroke-linecap:butt;stroke-linejoin:miter;stroke-opacity:1"/>
<path class="bond-14 atom-14 atom-15" d="M 175.5,702.7 L 174.0,701.9" style="fill:none;fill-rule:evenodd;stroke:#000000;stroke-width:1.0px;stroke-linecap:butt;stroke-linejoin:miter;stroke-opacity:1"/>
<path class="bond-14 atom-14 atom-15" d="M 174.3,706.0 L 172.3,705.0" style="fill:none;fill-rule:evenodd;stroke:#000000;stroke-width:1.0px;stroke-linecap:butt;stroke-linejoin:miter;stroke-opacity:1"/>
<path class="bond-14 atom-14 atom-15" d="M 173.0,709.3 L 170.5,708.1" style="fill:none;fill-rule:evenodd;stroke:#000000;stroke-width:1.0px;stroke-linecap:butt;stroke-linejoin:miter;stroke-opacity:1"/>
<path class="bond-14 atom-14 atom-15" d="M 171.7,712.6 L 168.8,711.2" style="fill:none;fill-rule:evenodd;stroke:#000000;stroke-width:1.0px;stroke-linecap:butt;stroke-linejoin:miter;stroke-opacity:1"/>
<path class="bond-14 atom-14 atom-15" d="M 170.5,715.9 L 167.0,714.2" style="fill:none;fill-rule:evenodd;stroke:#000000;stroke-width:1.0px;stroke-linecap:butt;stroke-linejoin:miter;stroke-opacity:1"/>
<path class="bond-14 atom-14 atom-15" d="M 169.2,719.2 L 165.2,717.3" style="fill:none;fill-rule:evenodd;stroke:#000000;stroke-width:1.0px;stroke-linecap:butt;stroke-linejoin:miter;stroke-opacity:1"/>
<path class="bond-14 atom-14 atom-15" d="M 168.0,722.5 L 163.5,720.4" style="fill:none;fill-rule:evenodd;stroke:#000000;stroke-width:1.0px;stroke-linecap:butt;stroke-linejoin:miter;stroke-opacity:1"/>
<path class="bond-15 atom-14 atom-16" d="M 179.3,692.7 L 158.0,669.2" style="fill:none;fill-rule:evenodd;stroke:#000000;stroke-width:2.0px;stroke-linecap:butt;stroke-linejoin:miter;stroke-opacity:1"/>
<path class="bond-16 atom-16 atom-17" d="M 158.1,666.5 L 132.4,675.7" style="fill:none;fill-rule:evenodd;stroke:#000000;stroke-width:2.0px;stroke-linecap:butt;stroke-linejoin:miter;stroke-opacity:1"/>
<path class="bond-16 atom-16 atom-17" d="M 159.8,671.2 L 134.1,680.3" style="fill:none;fill-rule:evenodd;stroke:#000000;stroke-width:2.0px;stroke-linecap:butt;stroke-linejoin:miter;stroke-opacity:1"/>
<path class="bond-17 atom-16 atom-18" d="M 158.0,669.2 L 159.2,643.0" style="fill:none;fill-rule:evenodd;stroke:#000000;stroke-width:2.0px;stroke-linecap:butt;stroke-linejoin:miter;stroke-opacity:1"/>
<path class="bond-18 atom-18 atom-19" d="M 155.0,637.2 L 127.8,635.9" style="fill:none;fill-rule:evenodd;stroke:#000000;stroke-width:2.0px;stroke-linecap:butt;stroke-linejoin:miter;stroke-opacity:1"/>
<path class="bond-19 atom-19 atom-20" d="M 127.8,635.9 L 110.4,616.7" style="fill:none;fill-rule:evenodd;stroke:#000000;stroke-width:2.0px;stroke-linecap:butt;stroke-linejoin:miter;stroke-opacity:1"/>
<path class="bond-20 atom-20 atom-21" d="M 102.4,613.7 L 81.0,621.4" style="fill:none;fill-rule:evenodd;stroke:#000000;stroke-width:2.0px;stroke-linecap:butt;stroke-linejoin:miter;stroke-opacity:1"/>
<path class="bond-21 atom-21 atom-22" d="M 72.0,619.2 L 52.3,602.5" style="fill:none;fill-rule:evenodd;stroke:#000000;stroke-width:2.0px;stroke-linecap:butt;stroke-linejoin:miter;stroke-opacity:1"/>
<path class="bond-22 atom-22 atom-23" d="M 52.3,602.5 L 22.3,613.2" style="fill:none;fill-rule:evenodd;stroke:#000000;stroke-width:2.0px;stroke-linecap:butt;stroke-linejoin:miter;stroke-opacity:1"/>
<path class="bond-23 atom-23 atom-24" d="M 22.3,613.2 L 17.7,638.8" style="fill:none;fill-rule:evenodd;stroke:#000000;stroke-width:2.0px;stroke-linecap:butt;stroke-linejoin:miter;stroke-opacity:1"/>
<path class="bond-24 atom-24 atom-25" d="M 21.9,648.9 L 40.9,665.0" style="fill:none;fill-rule:evenodd;stroke:#000000;stroke-width:2.0px;stroke-linecap:butt;stroke-linejoin:miter;stroke-opacity:1"/>
<path class="bond-25 atom-25 atom-26" d="M 40.9,665.0 L 70.8,654.3" style="fill:none;fill-rule:evenodd;stroke:#000000;stroke-width:2.0px;stroke-linecap:butt;stroke-linejoin:miter;stroke-opacity:1"/>
<path class="bond-26 atom-12 atom-27" d="M 233.8,667.4 L 227.6,625.7" style="fill:none;fill-rule:evenodd;stroke:#000000;stroke-width:2.0px;stroke-linecap:butt;stroke-linejoin:miter;stroke-opacity:1"/>
<path class="bond-26 atom-12 atom-27" d="M 228.9,668.1 L 222.7,626.4" style="fill:none;fill-rule:evenodd;stroke:#000000;stroke-width:2.0px;stroke-linecap:butt;stroke-linejoin:miter;stroke-opacity:1"/>
<path class="bond-27 atom-27 atom-28" d="M 222.8,623.2 L 189.6,649.6" style="fill:none;fill-rule:evenodd;stroke:#000000;stroke-width:2.0px;stroke-linecap:butt;stroke-linejoin:miter;stroke-opacity:1"/>
<path class="bond-28 atom-20 atom-0" d="M 106.7,606.7 L 108.0,580.6" style="fill:none;fill-rule:evenodd;stroke:#000000;stroke-width:2.0px;stroke-linecap:butt;stroke-linejoin:miter;stroke-opacity:1"/>
<path class="bond-29 atom-8 atom-4" d="M 183.1,616.1 L 184.6,584.3" style="fill:none;fill-rule:evenodd;stroke:#000000;stroke-width:2.0px;stroke-linecap:butt;stroke-linejoin:miter;stroke-opacity:1"/>
<path class="bond-30 atom-27 atom-5" d="M 225.3,614.5 L 215.3,576.0" style="fill:none;fill-rule:evenodd;stroke:#000000;stroke-width:2.0px;stroke-linecap:butt;stroke-linejoin:miter;stroke-opacity:1"/>
<path class="bond-31 atom-18 atom-8" d="M 164.0,633.3 L 183.1,616.1" style="fill:none;fill-rule:evenodd;stroke:#000000;stroke-width:2.0px;stroke-linecap:butt;stroke-linejoin:miter;stroke-opacity:1"/>
<path class="bond-32 atom-26 atom-21" d="M 70.8,654.3 L 75.5,628.6" style="fill:none;fill-rule:evenodd;stroke:#000000;stroke-width:2.0px;stroke-linecap:butt;stroke-linejoin:miter;stroke-opacity:1"/>
<path class="bond-33 atom-9 atom-29" d="M 191.3,633.9 L 190.5,632.9" style="fill:none;fill-rule:evenodd;stroke:#000000;stroke-width:1.0px;stroke-linecap:butt;stroke-linejoin:miter;stroke-opacity:1"/>
<path class="bond-33 atom-9 atom-29" d="M 189.0,636.6 L 187.4,634.6" style="fill:none;fill-rule:evenodd;stroke:#000000;stroke-width:1.0px;stroke-linecap:butt;stroke-linejoin:miter;stroke-opacity:1"/>
<path class="bond-33 atom-9 atom-29" d="M 186.7,639.2 L 184.3,636.3" style="fill:none;fill-rule:evenodd;stroke:#000000;stroke-width:1.0px;stroke-linecap:butt;stroke-linejoin:miter;stroke-opacity:1"/>
<path class="bond-33 atom-9 atom-29" d="M 184.3,641.9 L 181.2,638.0" style="fill:none;fill-rule:evenodd;stroke:#000000;stroke-width:1.0px;stroke-linecap:butt;stroke-linejoin:miter;stroke-opacity:1"/>
<path d="M 108.9,579.7 L 108.0,580.6 L 107.9,581.9" style="fill:none;stroke:#000000;stroke-width:2.0px;stroke-linecap:butt;stroke-linejoin:miter;stroke-miterlimit:10;stroke-opacity:1;"/>
<path d="M 161.9,560.7 L 163.3,560.8 L 164.4,561.9" style="fill:none;stroke:#000000;stroke-width:2.0px;stroke-linecap:butt;stroke-linejoin:miter;stroke-miterlimit:10;stroke-opacity:1;"/>
<path d="M 231.8,601.3 L 232.7,602.6 L 231.7,603.8" style="fill:none;stroke:#000000;stroke-width:2.0px;stroke-linecap:butt;stroke-linejoin:miter;stroke-miterlimit:10;stroke-opacity:1;"/>
<path d="M 213.8,626.1 L 212.8,627.4 L 211.3,626.8" style="fill:none;stroke:#000000;stroke-width:2.0px;stroke-linecap:butt;stroke-linejoin:miter;stroke-miterlimit:10;stroke-opacity:1;"/>
<path d="M 180.7,692.8 L 179.3,692.7 L 178.2,691.5" style="fill:none;stroke:#000000;stroke-width:2.0px;stroke-linecap:butt;stroke-linejoin:miter;stroke-miterlimit:10;stroke-opacity:1;"/>
<path d="M 159.0,670.3 L 158.0,669.2 L 158.0,667.9" style="fill:none;stroke:#000000;stroke-width:2.0px;stroke-linecap:butt;stroke-linejoin:miter;stroke-miterlimit:10;stroke-opacity:1;"/>
<path d="M 129.1,635.9 L 127.8,635.9 L 126.9,634.9" style="fill:none;stroke:#000000;stroke-width:2.0px;stroke-linecap:butt;stroke-linejoin:miter;stroke-miterlimit:10;stroke-opacity:1;"/>
<path d="M 53.2,603.3 L 52.3,602.5 L 50.8,603.0" style="fill:none;stroke:#000000;stroke-width:2.0px;stroke-linecap:butt;stroke-linejoin:miter;stroke-miterlimit:10;stroke-opacity:1;"/>
<path d="M 23.8,612.6 L 22.3,613.2 L 22.1,614.4" style="fill:none;stroke:#000000;stroke-width:2.0px;stroke-linecap:butt;stroke-linejoin:miter;stroke-miterlimit:10;stroke-opacity:1;"/>
<path d="M 39.9,664.2 L 40.9,665.0 L 42.4,664.5" style="fill:none;stroke:#000000;stroke-width:2.0px;stroke-linecap:butt;stroke-linejoin:miter;stroke-miterlimit:10;stroke-opacity:1;"/>
<path d="M 69.3,654.8 L 70.8,654.3 L 71.0,653.0" style="fill:none;stroke:#000000;stroke-width:2.0px;stroke-linecap:butt;stroke-linejoin:miter;stroke-miterlimit:10;stroke-opacity:1;"/>
<path class="atom-1" d="M 129.5 554.7 L 132.5 559.5 Q 132.8 559.9, 133.3 560.8 Q 133.7 561.6, 133.8 561.7 L 133.8 554.7 L 135.0 554.7 L 135.0 563.7 L 133.7 563.7 L 130.6 558.5 Q 130.2 557.9, 129.8 557.2 Q 129.4 556.5, 129.3 556.3 L 129.3 563.7 L 128.1 563.7 L 128.1 554.7 L 129.5 554.7 " fill="#000000"/>
<path class="atom-1" d="M 128.0 544.8 L 129.2 544.8 L 129.2 548.6 L 133.8 548.6 L 133.8 544.8 L 135.1 544.8 L 135.1 553.8 L 133.8 553.8 L 133.8 549.6 L 129.2 549.6 L 129.2 553.8 L 128.0 553.8 L 128.0 544.8 " fill="#000000"/>
<path class="atom-3" d="M 172.7 532.1 Q 172.7 529.9, 173.8 528.7 Q 174.9 527.5, 176.9 527.5 Q 178.9 527.5, 179.9 528.7 Q 181.0 529.9, 181.0 532.1 Q 181.0 534.2, 179.9 535.5 Q 178.8 536.7, 176.9 536.7 Q 174.9 536.7, 173.8 535.5 Q 172.7 534.3, 172.7 532.1 M 176.9 535.7 Q 178.3 535.7, 179.0 534.8 Q 179.7 533.9, 179.7 532.1 Q 179.7 530.3, 179.0 529.4 Q 178.3 528.5, 176.9 528.5 Q 175.5 528.5, 174.8 529.4 Q 174.0 530.3, 174.0 532.1 Q 174.0 533.9, 174.8 534.8 Q 175.5 535.7, 176.9 535.7 " fill="#000000"/>
<path class="atom-11" d="M 217.1 661.0 Q 217.1 658.7, 218.1 657.6 Q 219.2 656.4, 221.2 656.4 Q 223.0 656.4, 224.0 657.7 L 223.2 658.4 Q 222.4 657.4, 221.2 657.4 Q 219.8 657.4, 219.1 658.3 Q 218.4 659.2, 218.4 661.0 Q 218.4 662.7, 219.1 663.7 Q 219.8 664.6, 221.3 664.6 Q 222.3 664.6, 223.4 664.0 L 223.8 664.9 Q 223.3 665.2, 222.6 665.4 Q 221.9 665.6, 221.1 665.6 Q 219.2 665.6, 218.1 664.4 Q 217.1 663.2, 217.1 661.0 " fill="#000000"/>
<path class="atom-12" d="M 232.1 676.0 Q 232.2 676.1, 232.6 676.2 Q 233.0 676.4, 233.5 676.5 Q 233.9 676.6, 234.4 676.6 Q 235.2 676.6, 235.7 676.2 Q 236.2 675.8, 236.2 675.1 Q 236.2 674.6, 236.0 674.3 Q 235.7 674.0, 235.4 673.8 Q 235.0 673.6, 234.3 673.5 Q 233.5 673.2, 233.1 673.0 Q 232.6 672.8, 232.2 672.3 Q 231.9 671.8, 231.9 671.0 Q 231.9 669.8, 232.7 669.1 Q 233.5 668.4, 235.0 668.4 Q 236.0 668.4, 237.2 668.9 L 236.9 669.9 Q 235.8 669.5, 235.0 669.5 Q 234.1 669.5, 233.7 669.8 Q 233.2 670.2, 233.2 670.8 Q 233.2 671.3, 233.4 671.6 Q 233.7 671.9, 234.0 672.1 Q 234.4 672.2, 235.0 672.4 Q 235.8 672.7, 236.3 672.9 Q 236.8 673.2, 237.1 673.7 Q 237.5 674.2, 237.5 675.1 Q 237.5 676.3, 236.7 677.0 Q 235.8 677.7, 234.4 677.7 Q 233.6 677.7, 233.0 677.5 Q 232.4 677.3, 231.7 677.0 L 232.1 676.0 " fill="#000000"/>
<path class="atom-13" d="M 210.8 689.8 Q 212.4 689.8, 213.2 690.5 Q 213.9 691.2, 213.9 692.4 Q 213.9 693.7, 213.1 694.4 Q 212.3 695.1, 210.8 695.1 L 209.4 695.1 L 209.4 698.8 L 208.2 698.8 L 208.2 689.8 L 210.8 689.8 M 210.8 694.1 Q 211.7 694.1, 212.2 693.6 Q 212.7 693.2, 212.7 692.4 Q 212.7 691.6, 212.2 691.2 Q 211.7 690.8, 210.8 690.8 L 209.4 690.8 L 209.4 694.1 L 210.8 694.1 " fill="#000000"/>
<path class="atom-13" d="M 207.5 699.7 L 208.8 699.7 L 208.8 703.5 L 213.4 703.5 L 213.4 699.7 L 214.6 699.7 L 214.6 708.7 L 213.4 708.7 L 213.4 704.5 L 208.8 704.5 L 208.8 708.7 L 207.5 708.7 L 207.5 699.7 " fill="#000000"/>
<path class="atom-13" d="M 216.3 708.4 Q 216.6 707.8, 217.1 707.5 Q 217.6 707.2, 218.3 707.2 Q 219.2 707.2, 219.7 707.7 Q 220.2 708.2, 220.2 709.0 Q 220.2 709.9, 219.6 710.7 Q 218.9 711.5, 217.6 712.5 L 220.3 712.5 L 220.3 713.2 L 216.3 713.2 L 216.3 712.6 Q 217.4 711.8, 218.1 711.2 Q 218.7 710.7, 219.1 710.1 Q 219.4 709.6, 219.4 709.1 Q 219.4 708.5, 219.1 708.2 Q 218.8 707.9, 218.3 707.9 Q 217.8 707.9, 217.5 708.0 Q 217.2 708.2, 217.0 708.7 L 216.3 708.4 " fill="#000000"/>
<path class="atom-17" d="M 123.9 679.9 Q 123.9 677.7, 125.0 676.5 Q 126.0 675.3, 128.0 675.3 Q 130.0 675.3, 131.1 676.5 Q 132.2 677.7, 132.2 679.9 Q 132.2 682.1, 131.1 683.3 Q 130.0 684.6, 128.0 684.6 Q 126.0 684.6, 125.0 683.3 Q 123.9 682.1, 123.9 679.9 M 128.0 683.6 Q 129.4 683.6, 130.1 682.6 Q 130.9 681.7, 130.9 679.9 Q 130.9 678.1, 130.1 677.2 Q 129.4 676.3, 128.0 676.3 Q 126.7 676.3, 125.9 677.2 Q 125.2 678.1, 125.2 679.9 Q 125.2 681.7, 125.9 682.6 Q 126.7 683.6, 128.0 683.6 " fill="#000000"/>
<path class="atom-18" d="M 157.5 632.9 L 160.5 637.7 Q 160.8 638.2, 161.2 639.0 Q 161.7 639.9, 161.7 639.9 L 161.7 632.9 L 162.9 632.9 L 162.9 641.9 L 161.7 641.9 L 158.5 636.7 Q 158.2 636.1, 157.8 635.4 Q 157.4 634.7, 157.3 634.5 L 157.3 641.9 L 156.1 641.9 L 156.1 632.9 L 157.5 632.9 " fill="#000000"/>
<path class="atom-20" d="M 103.9 615.4 Q 104.0 615.4, 104.4 615.6 Q 104.8 615.8, 105.3 615.9 Q 105.7 616.0, 106.2 616.0 Q 107.1 616.0, 107.6 615.6 Q 108.1 615.2, 108.1 614.5 Q 108.1 614.0, 107.8 613.7 Q 107.6 613.3, 107.2 613.2 Q 106.8 613.0, 106.2 612.8 Q 105.4 612.6, 104.9 612.4 Q 104.4 612.1, 104.1 611.6 Q 103.7 611.2, 103.7 610.3 Q 103.7 609.2, 104.5 608.5 Q 105.3 607.8, 106.8 607.8 Q 107.8 607.8, 109.0 608.3 L 108.7 609.3 Q 107.6 608.8, 106.8 608.8 Q 106.0 608.8, 105.5 609.2 Q 105.0 609.6, 105.0 610.2 Q 105.0 610.7, 105.2 611.0 Q 105.5 611.3, 105.9 611.4 Q 106.2 611.6, 106.8 611.8 Q 107.6 612.0, 108.1 612.3 Q 108.6 612.5, 109.0 613.1 Q 109.3 613.6, 109.3 614.5 Q 109.3 615.7, 108.5 616.4 Q 107.6 617.0, 106.3 617.0 Q 105.5 617.0, 104.8 616.9 Q 104.2 616.7, 103.5 616.4 L 103.9 615.4 " fill="#000000"/>
<path class="atom-21" d="M 74.5 618.5 L 77.5 623.3 Q 77.7 623.8, 78.2 624.6 Q 78.7 625.5, 78.7 625.5 L 78.7 618.5 L 79.9 618.5 L 79.9 627.5 L 78.7 627.5 L 75.5 622.3 Q 75.1 621.7, 74.7 621.0 Q 74.4 620.3, 74.2 620.1 L 74.2 627.5 L 73.1 627.5 L 73.1 618.5 L 74.5 618.5 " fill="#000000"/>
<path class="atom-24" d="M 12.5 644.5 Q 12.5 642.3, 13.6 641.1 Q 14.6 639.9, 16.6 639.9 Q 18.6 639.9, 19.7 641.1 Q 20.8 642.3, 20.8 644.5 Q 20.8 646.6, 19.7 647.9 Q 18.6 649.1, 16.6 649.1 Q 14.6 649.1, 13.6 647.9 Q 12.5 646.7, 12.5 644.5 M 16.6 648.1 Q 18.0 648.1, 18.7 647.2 Q 19.5 646.3, 19.5 644.5 Q 19.5 642.7, 18.7 641.8 Q 18.0 640.9, 16.6 640.9 Q 15.3 640.9, 14.5 641.8 Q 13.8 642.7, 13.8 644.5 Q 13.8 646.3, 14.5 647.2 Q 15.3 648.1, 16.6 648.1 " fill="#000000"/>
<path class="atom-27" d="M 226.5 615.6 Q 228.1 615.6, 228.9 616.3 Q 229.6 617.0, 229.6 618.2 Q 229.6 619.5, 228.8 620.2 Q 228.0 620.9, 226.5 620.9 L 225.1 620.9 L 225.1 624.6 L 223.9 624.6 L 223.9 615.6 L 226.5 615.6 M 226.5 619.9 Q 227.4 619.9, 227.9 619.5 Q 228.4 619.0, 228.4 618.2 Q 228.4 617.4, 227.9 617.0 Q 227.4 616.6, 226.5 616.6 L 225.1 616.6 L 225.1 619.9 L 226.5 619.9 " fill="#000000"/>
<path class="atom-28" d="M 180.2 653.8 Q 180.2 651.6, 181.3 650.4 Q 182.3 649.2, 184.3 649.2 Q 186.3 649.2, 187.4 650.4 Q 188.5 651.6, 188.5 653.8 Q 188.5 656.0, 187.4 657.2 Q 186.3 658.4, 184.3 658.4 Q 182.3 658.4, 181.3 657.2 Q 180.2 656.0, 180.2 653.8 M 184.3 657.4 Q 185.7 657.4, 186.4 656.5 Q 187.2 655.6, 187.2 653.8 Q 187.2 652.0, 186.4 651.1 Q 185.7 650.2, 184.3 650.2 Q 182.9 650.2, 182.2 651.1 Q 181.5 652.0, 181.5 653.8 Q 181.5 655.6, 182.2 656.5 Q 182.9 657.4, 184.3 657.4 " fill="#000000"/>
<path class="atom-28" d="M 189.7 650.7 L 192.8 650.7 L 192.8 651.3 L 189.7 651.3 L 189.7 650.7 " fill="#000000"/>
<path class="atom-29" d="M 173.5 640.0 L 174.8 640.0 L 174.8 643.8 L 179.4 643.8 L 179.4 640.0 L 180.6 640.0 L 180.6 649.0 L 179.4 649.0 L 179.4 644.8 L 174.8 644.8 L 174.8 649.0 L 173.5 649.0 L 173.5 640.0 " fill="#000000"/>
<path class="atom-0" d="M 104.8,580.6 L 104.8,580.6 L 104.8,580.7 L 104.8,580.7 L 104.8,580.8 L 104.7,580.8 L 104.7,580.9 L 104.7,580.9 L 104.7,581.0 L 104.6,581.0 L 104.6,581.0 L 104.5,581.1 L 104.5,581.1 L 104.4,581.1 L 104.4,581.1 L 104.3,581.2 L 104.3,581.2 L 104.2,581.2 L 104.2,581.2 L 104.1,581.2 L 104.1,581.2 L 104.0,581.2 L 104.0,581.2 L 103.9,581.1 L 103.9,581.1 L 103.8,581.1 L 103.8,581.1 L 103.7,581.0 L 103.7,581.0 L 103.7,580.9 L 103.6,580.9 L 103.6,580.8 L 103.6,580.8 L 103.6,580.7 L 103.5,580.7 L 103.5,580.6 L 103.5,580.6 L 103.5,580.5 L 103.5,580.5 L 103.5,580.4 L 103.6,580.4 L 103.6,580.3 L 103.6,580.3 L 103.6,580.2 L 103.7,580.2 L 103.7,580.1 L 103.7,580.1 L 103.8,580.1 L 103.8,580.0 L 103.9,580.0 L 103.9,580.0 L 104.0,580.0 L 104.0,579.9 L 104.1,579.9 L 104.1,579.9 L 104.2,579.9 L 104.2,579.9 L 104.3,579.9 L 104.3,579.9 L 104.4,580.0 L 104.4,580.0 L 104.5,580.0 L 104.5,580.0 L 104.6,580.1 L 104.6,580.1 L 104.7,580.2 L 104.7,580.2 L 104.7,580.2 L 104.7,580.3 L 104.8,580.3 L 104.8,580.4 L 104.8,580.4 L 104.8,580.5 L 104.8,580.6 L 104.2,580.6 Z" style="fill:#000000;fill-rule:evenodd;fill-opacity:1;stroke:#000000;stroke-width:0.0px;stroke-linecap:butt;stroke-linejoin:miter;stroke-miterlimit:10;stroke-opacity:1;"/>
<path class="atom-13" d="M 211.7,714.1 L 211.7,714.2 L 211.7,714.3 L 211.7,714.3 L 211.7,714.4 L 211.6,714.4 L 211.6,714.5 L 211.6,714.5 L 211.6,714.5 L 211.5,714.6 L 211.5,714.6 L 211.4,714.7 L 211.4,714.7 L 211.3,714.7 L 211.3,714.7 L 211.2,714.8 L 211.2,714.8 L 211.1,714.8 L 211.1,714.8 L 211.0,714.8 L 211.0,714.8 L 210.9,714.8 L 210.9,714.7 L 210.8,714.7 L 210.8,714.7 L 210.7,714.7 L 210.7,714.6 L 210.6,714.6 L 210.6,714.6 L 210.6,714.5 L 210.5,714.5 L 210.5,714.4 L 210.5,714.4 L 210.5,714.3 L 210.4,714.3 L 210.4,714.2 L 210.4,714.2 L 210.4,714.1 L 210.4,714.1 L 210.4,714.0 L 210.5,714.0 L 210.5,713.9 L 210.5,713.9 L 210.5,713.8 L 210.6,713.8 L 210.6,713.7 L 210.6,713.7 L 210.7,713.6 L 210.7,713.6 L 210.8,713.6 L 210.8,713.6 L 210.9,713.5 L 210.9,713.5 L 211.0,713.5 L 211.0,713.5 L 211.1,713.5 L 211.1,713.5 L 211.2,713.5 L 211.2,713.5 L 211.3,713.5 L 211.3,713.6 L 211.4,713.6 L 211.4,713.6 L 211.5,713.7 L 211.5,713.7 L 211.6,713.7 L 211.6,713.8 L 211.6,713.8 L 211.6,713.9 L 211.7,713.9 L 211.7,714.0 L 211.7,714.0 L 211.7,714.1 L 211.7,714.1 L 211.1,714.1 Z" style="fill:#000000;fill-rule:evenodd;fill-opacity:1;stroke:#000000;stroke-width:0.0px;stroke-linecap:butt;stroke-linejoin:miter;stroke-miterlimit:10;stroke-opacity:1;"/>
<path class="atom-20" d="M 111.9,612.3 L 111.9,612.4 L 111.8,612.4 L 111.8,612.5 L 111.8,612.5 L 111.8,612.6 L 111.8,612.6 L 111.7,612.7 L 111.7,612.7 L 111.7,612.8 L 111.6,612.8 L 111.6,612.8 L 111.5,612.9 L 111.5,612.9 L 111.4,612.9 L 111.4,612.9 L 111.3,612.9 L 111.3,612.9 L 111.2,612.9 L 111.2,612.9 L 111.1,612.9 L 111.1,612.9 L 111.0,612.9 L 111.0,612.9 L 110.9,612.9 L 110.9,612.8 L 110.8,612.8 L 110.8,612.8 L 110.7,612.7 L 110.7,612.7 L 110.7,612.6 L 110.7,612.6 L 110.6,612.5 L 110.6,612.5 L 110.6,612.4 L 110.6,612.4 L 110.6,612.3 L 110.6,612.3 L 110.6,612.2 L 110.6,612.2 L 110.6,612.1 L 110.6,612.1 L 110.7,612.0 L 110.7,612.0 L 110.7,611.9 L 110.7,611.9 L 110.8,611.8 L 110.8,611.8 L 110.9,611.8 L 110.9,611.7 L 111.0,611.7 L 111.0,611.7 L 111.1,611.7 L 111.1,611.7 L 111.2,611.7 L 111.2,611.7 L 111.3,611.7 L 111.3,611.7 L 111.4,611.7 L 111.4,611.7 L 111.5,611.7 L 111.5,611.8 L 111.6,611.8 L 111.6,611.8 L 111.7,611.9 L 111.7,611.9 L 111.7,611.9 L 111.8,612.0 L 111.8,612.0 L 111.8,612.1 L 111.8,612.1 L 111.8,612.2 L 111.9,612.3 L 111.9,612.3 L 111.2,612.3 Z" style="fill:#000000;fill-rule:evenodd;fill-opacity:1;stroke:#000000;stroke-width:0.0px;stroke-linecap:butt;stroke-linejoin:miter;stroke-miterlimit:10;stroke-opacity:1;"/>
<path class="atom-27" d="M 232.2,620.1 L 232.2,620.1 L 232.2,620.2 L 232.2,620.3 L 232.1,620.3 L 232.1,620.4 L 232.1,620.4 L 232.1,620.5 L 232.0,620.5 L 232.0,620.5 L 232.0,620.6 L 231.9,620.6 L 231.9,620.6 L 231.8,620.7 L 231.8,620.7 L 231.7,620.7 L 231.7,620.7 L 231.6,620.7 L 231.6,620.7 L 231.5,620.7 L 231.4,620.7 L 231.4,620.7 L 231.3,620.7 L 231.3,620.7 L 231.2,620.7 L 231.2,620.6 L 231.1,620.6 L 231.1,620.6 L 231.1,620.5 L 231.0,620.5 L 231.0,620.4 L 231.0,620.4 L 230.9,620.3 L 230.9,620.3 L 230.9,620.2 L 230.9,620.2 L 230.9,620.1 L 230.9,620.1 L 230.9,620.0 L 230.9,620.0 L 230.9,619.9 L 230.9,619.9 L 231.0,619.8 L 231.0,619.8 L 231.0,619.7 L 231.1,619.7 L 231.1,619.6 L 231.1,619.6 L 231.2,619.6 L 231.2,619.5 L 231.3,619.5 L 231.3,619.5 L 231.4,619.5 L 231.4,619.5 L 231.5,619.5 L 231.6,619.5 L 231.6,619.5 L 231.7,619.5 L 231.7,619.5 L 231.8,619.5 L 231.8,619.5 L 231.9,619.5 L 231.9,619.6 L 232.0,619.6 L 232.0,619.6 L 232.0,619.7 L 232.1,619.7 L 232.1,619.8 L 232.1,619.8 L 232.1,619.9 L 232.2,619.9 L 232.2,620.0 L 232.2,620.0 L 232.2,620.1 L 231.5,620.1 Z" style="fill:#000000;fill-rule:evenodd;fill-opacity:1;stroke:#000000;stroke-width:0.0px;stroke-linecap:butt;stroke-linejoin:miter;stroke-miterlimit:10;stroke-opacity:1;"/>
<path class="bond-0 atom-0 atom-1" d="M 333.0,663.9 L 312.0,651.3" style="fill:none;fill-rule:evenodd;stroke:#000000;stroke-width:2.0px;stroke-linecap:butt;stroke-linejoin:miter;stroke-opacity:1"/>
<path class="bond-1 atom-1 atom-2" d="M 312.0,651.3 L 291.0,662.9" style="fill:none;fill-rule:evenodd;stroke:#000000;stroke-width:2.0px;stroke-linecap:butt;stroke-linejoin:miter;stroke-opacity:1"/>
<path class="bond-1 atom-1 atom-2" d="M 307.8,648.7 L 288.9,659.1" style="fill:none;fill-rule:evenodd;stroke:#000000;stroke-width:2.0px;stroke-linecap:butt;stroke-linejoin:miter;stroke-opacity:1"/>
<path class="bond-2 atom-2 atom-3" d="M 283.0,662.7 L 262.5,650.3" style="fill:none;fill-rule:evenodd;stroke:#000000;stroke-width:2.0px;stroke-linecap:butt;stroke-linejoin:miter;stroke-opacity:1"/>
<path class="bond-3 atom-3 atom-4" d="M 262.5,650.3 L 263.0,621.7" style="fill:none;fill-rule:evenodd;stroke:#000000;stroke-width:2.0px;stroke-linecap:butt;stroke-linejoin:miter;stroke-opacity:1"/>
<path class="bond-3 atom-3 atom-4" d="M 266.8,647.9 L 267.3,624.3" style="fill:none;fill-rule:evenodd;stroke:#000000;stroke-width:2.0px;stroke-linecap:butt;stroke-linejoin:miter;stroke-opacity:1"/>
<path class="bond-4 atom-4 atom-5" d="M 263.0,621.7 L 284.1,610.1" style="fill:none;fill-rule:evenodd;stroke:#000000;stroke-width:2.0px;stroke-linecap:butt;stroke-linejoin:miter;stroke-opacity:1"/>
<path class="bond-5 atom-5 atom-6" d="M 292.1,610.3 L 312.6,622.7" style="fill:none;fill-rule:evenodd;stroke:#000000;stroke-width:2.0px;stroke-linecap:butt;stroke-linejoin:miter;stroke-opacity:1"/>
<path class="bond-5 atom-5 atom-6" d="M 289.9,614.0 L 308.2,625.1" style="fill:none;fill-rule:evenodd;stroke:#000000;stroke-width:2.0px;stroke-linecap:butt;stroke-linejoin:miter;stroke-opacity:1"/>
<path class="bond-6 atom-6 atom-7" d="M 312.6,622.7 L 337.6,608.8" style="fill:none;fill-rule:evenodd;stroke:#000000;stroke-width:2.0px;stroke-linecap:butt;stroke-linejoin:miter;stroke-opacity:1"/>
<path class="bond-7 atom-7 atom-8" d="M 337.6,608.8 L 358.1,621.2" style="fill:none;fill-rule:evenodd;stroke:#000000;stroke-width:2.0px;stroke-linecap:butt;stroke-linejoin:miter;stroke-opacity:1"/>
<path class="bond-8 atom-8 atom-9" d="M 366.1,621.4 L 387.1,609.8" style="fill:none;fill-rule:evenodd;stroke:#000000;stroke-width:2.0px;stroke-linecap:butt;stroke-linejoin:miter;stroke-opacity:1"/>
<path class="bond-9 atom-9 atom-10" d="M 389.3,611.1 L 389.7,586.4" style="fill:none;fill-rule:evenodd;stroke:#000000;stroke-width:2.0px;stroke-linecap:butt;stroke-linejoin:miter;stroke-opacity:1"/>
<path class="bond-9 atom-9 atom-10" d="M 385.0,611.0 L 385.4,586.3" style="fill:none;fill-rule:evenodd;stroke:#000000;stroke-width:2.0px;stroke-linecap:butt;stroke-linejoin:miter;stroke-opacity:1"/>
<path class="bond-10 atom-9 atom-11" d="M 387.1,609.8 L 411.6,624.6" style="fill:none;fill-rule:evenodd;stroke:#000000;stroke-width:2.0px;stroke-linecap:butt;stroke-linejoin:miter;stroke-opacity:1"/>
<path class="bond-11 atom-11 atom-12" d="M 411.6,624.6 L 411.1,653.1" style="fill:none;fill-rule:evenodd;stroke:#000000;stroke-width:2.0px;stroke-linecap:butt;stroke-linejoin:miter;stroke-opacity:1"/>
<path class="bond-11 atom-11 atom-12" d="M 415.9,627.1 L 415.4,650.8" style="fill:none;fill-rule:evenodd;stroke:#000000;stroke-width:2.0px;stroke-linecap:butt;stroke-linejoin:miter;stroke-opacity:1"/>
<path class="bond-12 atom-12 atom-13" d="M 411.1,653.1 L 435.6,667.9" style="fill:none;fill-rule:evenodd;stroke:#000000;stroke-width:2.0px;stroke-linecap:butt;stroke-linejoin:miter;stroke-opacity:1"/>
<path class="bond-13 atom-13 atom-14" d="M 435.6,667.9 L 460.6,654.1" style="fill:none;fill-rule:evenodd;stroke:#000000;stroke-width:2.0px;stroke-linecap:butt;stroke-linejoin:miter;stroke-opacity:1"/>
<path class="bond-13 atom-13 atom-14" d="M 435.7,663.0 L 456.4,651.5" style="fill:none;fill-rule:evenodd;stroke:#000000;stroke-width:2.0px;stroke-linecap:butt;stroke-linejoin:miter;stroke-opacity:1"/>
<path class="bond-14 atom-14 atom-15" d="M 460.6,654.1 L 481.7,666.8" style="fill:none;fill-rule:evenodd;stroke:#000000;stroke-width:2.0px;stroke-linecap:butt;stroke-linejoin:miter;stroke-opacity:1"/>
<path class="bond-15 atom-14 atom-16" d="M 460.6,654.1 L 461.1,625.5" style="fill:none;fill-rule:evenodd;stroke:#000000;stroke-width:2.0px;stroke-linecap:butt;stroke-linejoin:miter;stroke-opacity:1"/>
<path class="bond-16 atom-16 atom-17" d="M 461.1,625.5 L 436.7,610.7" style="fill:none;fill-rule:evenodd;stroke:#000000;stroke-width:2.0px;stroke-linecap:butt;stroke-linejoin:miter;stroke-opacity:1"/>
<path class="bond-16 atom-16 atom-17" d="M 456.8,627.9 L 436.6,615.7" style="fill:none;fill-rule:evenodd;stroke:#000000;stroke-width:2.0px;stroke-linecap:butt;stroke-linejoin:miter;stroke-opacity:1"/>
<path class="bond-17 atom-17 atom-18" d="M 436.7,610.7 L 437.1,587.1" style="fill:none;fill-rule:evenodd;stroke:#000000;stroke-width:2.0px;stroke-linecap:butt;stroke-linejoin:miter;stroke-opacity:1"/>
<path class="bond-18 atom-6 atom-1" d="M 312.6,622.7 L 312.0,651.3" style="fill:none;fill-rule:evenodd;stroke:#000000;stroke-width:2.0px;stroke-linecap:butt;stroke-linejoin:miter;stroke-opacity:1"/>
<path class="bond-19 atom-17 atom-11" d="M 436.7,610.7 L 411.6,624.6" style="fill:none;fill-rule:evenodd;stroke:#000000;stroke-width:2.0px;stroke-linecap:butt;stroke-linejoin:miter;stroke-opacity:1"/>
<path d="M 263.5,650.9 L 262.5,650.3 L 262.5,648.9" style="fill:none;stroke:#000000;stroke-width:2.0px;stroke-linecap:butt;stroke-linejoin:miter;stroke-miterlimit:10;stroke-opacity:1;"/>
<path d="M 263.0,623.2 L 263.0,621.7 L 264.1,621.1" style="fill:none;stroke:#000000;stroke-width:2.0px;stroke-linecap:butt;stroke-linejoin:miter;stroke-miterlimit:10;stroke-opacity:1;"/>
<path d="M 336.4,609.5 L 337.6,608.8 L 338.6,609.5" style="fill:none;stroke:#000000;stroke-width:2.0px;stroke-linecap:butt;stroke-linejoin:miter;stroke-miterlimit:10;stroke-opacity:1;"/>
<path d="M 386.1,610.4 L 387.1,609.8 L 388.4,610.5" style="fill:none;stroke:#000000;stroke-width:2.0px;stroke-linecap:butt;stroke-linejoin:miter;stroke-miterlimit:10;stroke-opacity:1;"/>
<path d="M 411.1,651.7 L 411.1,653.1 L 412.3,653.9" style="fill:none;stroke:#000000;stroke-width:2.0px;stroke-linecap:butt;stroke-linejoin:miter;stroke-miterlimit:10;stroke-opacity:1;"/>
<path d="M 434.3,667.2 L 435.6,667.9 L 436.8,667.2" style="fill:none;stroke:#000000;stroke-width:2.0px;stroke-linecap:butt;stroke-linejoin:miter;stroke-miterlimit:10;stroke-opacity:1;"/>
<path d="M 461.1,626.9 L 461.1,625.5 L 459.9,624.8" style="fill:none;stroke:#000000;stroke-width:2.0px;stroke-linecap:butt;stroke-linejoin:miter;stroke-miterlimit:10;stroke-opacity:1;"/>
<path class="atom-0" d="M 334.2 668.8 Q 334.3 668.8, 334.7 669.0 Q 335.1 669.2, 335.5 669.3 Q 335.9 669.4, 336.3 669.4 Q 337.1 669.4, 337.5 669.0 Q 338.0 668.6, 338.0 668.0 Q 338.0 667.5, 337.8 667.2 Q 337.5 667.0, 337.2 666.8 Q 336.8 666.7, 336.3 666.5 Q 335.6 666.3, 335.1 666.1 Q 334.7 665.9, 334.4 665.4 Q 334.1 665.0, 334.1 664.3 Q 334.1 663.2, 334.8 662.6 Q 335.5 662.0, 336.8 662.0 Q 337.8 662.0, 338.8 662.4 L 338.6 663.3 Q 337.6 662.9, 336.9 662.9 Q 336.1 662.9, 335.7 663.2 Q 335.2 663.6, 335.2 664.1 Q 335.2 664.6, 335.5 664.8 Q 335.7 665.1, 336.0 665.2 Q 336.3 665.4, 336.9 665.6 Q 337.6 665.8, 338.0 666.0 Q 338.5 666.2, 338.8 666.7 Q 339.1 667.2, 339.1 668.0 Q 339.1 669.1, 338.4 669.7 Q 337.6 670.3, 336.4 670.3 Q 335.6 670.3, 335.1 670.1 Q 334.6 670.0, 333.9 669.7 L 334.2 668.8 " fill="#000000"/>
<path class="atom-0" d="M 340.2 663.3 L 341.6 663.3 L 341.6 661.8 L 342.2 661.8 L 342.2 663.3 L 343.7 663.3 L 343.7 663.9 L 342.2 663.9 L 342.2 665.4 L 341.6 665.4 L 341.6 663.9 L 340.2 663.9 L 340.2 663.3 " fill="#000000"/>
<path class="atom-2" d="M 285.2 661.0 L 287.9 665.3 Q 288.1 665.7, 288.5 666.5 Q 289.0 667.3, 289.0 667.3 L 289.0 661.0 L 290.1 661.0 L 290.1 669.1 L 289.0 669.1 L 286.1 664.4 Q 285.8 663.9, 285.4 663.3 Q 285.1 662.6, 285.0 662.4 L 285.0 669.1 L 283.9 669.1 L 283.9 661.0 L 285.2 661.0 " fill="#000000"/>
<path class="atom-5" d="M 286.3 603.8 L 288.9 608.1 Q 289.2 608.6, 289.6 609.3 Q 290.1 610.1, 290.1 610.1 L 290.1 603.8 L 291.2 603.8 L 291.2 611.9 L 290.0 611.9 L 287.2 607.3 Q 286.9 606.7, 286.5 606.1 Q 286.2 605.5, 286.1 605.3 L 286.1 611.9 L 285.0 611.9 L 285.0 603.8 L 286.3 603.8 " fill="#000000"/>
<path class="atom-8" d="M 360.3 619.6 L 363.0 623.8 Q 363.2 624.3, 363.6 625.0 Q 364.1 625.8, 364.1 625.9 L 364.1 619.6 L 365.2 619.6 L 365.2 627.7 L 364.1 627.7 L 361.2 623.0 Q 360.9 622.4, 360.5 621.8 Q 360.2 621.2, 360.1 621.0 L 360.1 627.7 L 359.0 627.7 L 359.0 619.6 L 360.3 619.6 " fill="#000000"/>
<path class="atom-8" d="M 358.9 628.5 L 360.0 628.5 L 360.0 631.9 L 364.2 631.9 L 364.2 628.5 L 365.3 628.5 L 365.3 636.6 L 364.2 636.6 L 364.2 632.8 L 360.0 632.8 L 360.0 636.6 L 358.9 636.6 L 358.9 628.5 " fill="#000000"/>
<path class="atom-10" d="M 384.0 581.2 Q 384.0 579.3, 384.9 578.2 Q 385.9 577.1, 387.7 577.1 Q 389.5 577.1, 390.4 578.2 Q 391.4 579.3, 391.4 581.2 Q 391.4 583.2, 390.4 584.3 Q 389.4 585.4, 387.7 585.4 Q 385.9 585.4, 384.9 584.3 Q 384.0 583.2, 384.0 581.2 M 387.7 584.5 Q 388.9 584.5, 389.6 583.7 Q 390.2 582.8, 390.2 581.2 Q 390.2 579.6, 389.6 578.8 Q 388.9 578.0, 387.7 578.0 Q 386.4 578.0, 385.8 578.8 Q 385.1 579.6, 385.1 581.2 Q 385.1 582.8, 385.8 583.7 Q 386.4 584.5, 387.7 584.5 " fill="#000000"/>
<path class="atom-15" d="M 482.7 664.8 L 487.5 664.8 L 487.5 665.7 L 483.8 665.7 L 483.8 668.2 L 487.1 668.2 L 487.1 669.1 L 483.8 669.1 L 483.8 672.9 L 482.7 672.9 L 482.7 664.8 " fill="#000000"/>
<path class="atom-18" d="M 434.8 578.1 L 439.6 578.1 L 439.6 579.0 L 435.9 579.0 L 435.9 581.5 L 439.2 581.5 L 439.2 582.4 L 435.9 582.4 L 435.9 586.2 L 434.8 586.2 L 434.8 578.1 " fill="#000000"/>
<path class="atom-0" d="M 346.0,667.2 L 346.0,667.2 L 346.0,667.3 L 346.0,667.3 L 346.0,667.4 L 345.9,667.4 L 345.9,667.5 L 345.9,667.5 L 345.9,667.5 L 345.8,667.6 L 345.8,667.6 L 345.8,667.6 L 345.7,667.7 L 345.7,667.7 L 345.6,667.7 L 345.6,667.7 L 345.5,667.7 L 345.5,667.7 L 345.4,667.7 L 345.4,667.7 L 345.3,667.7 L 345.3,667.7 L 345.2,667.7 L 345.2,667.7 L 345.1,667.7 L 345.1,667.7 L 345.1,667.6 L 345.0,667.6 L 345.0,667.6 L 345.0,667.5 L 344.9,667.5 L 344.9,667.4 L 344.9,667.4 L 344.9,667.3 L 344.9,667.3 L 344.9,667.2 L 344.8,667.2 L 344.8,667.1 L 344.9,667.1 L 344.9,667.1 L 344.9,667.0 L 344.9,667.0 L 344.9,666.9 L 344.9,666.9 L 345.0,666.8 L 345.0,666.8 L 345.0,666.8 L 345.1,666.7 L 345.1,666.7 L 345.1,666.7 L 345.2,666.6 L 345.2,666.6 L 345.3,666.6 L 345.3,666.6 L 345.4,666.6 L 345.4,666.6 L 345.5,666.6 L 345.5,666.6 L 345.6,666.6 L 345.6,666.6 L 345.7,666.7 L 345.7,666.7 L 345.8,666.7 L 345.8,666.7 L 345.8,666.8 L 345.9,666.8 L 345.9,666.8 L 345.9,666.9 L 345.9,666.9 L 346.0,667.0 L 346.0,667.0 L 346.0,667.1 L 346.0,667.1 L 346.0,667.2 L 345.4,667.2 Z" style="fill:#000000;fill-rule:evenodd;fill-opacity:1;stroke:#000000;stroke-width:0.0px;stroke-linecap:butt;stroke-linejoin:miter;stroke-miterlimit:10;stroke-opacity:1;"/>
<path class="atom-0" d="M 346.0,664.9 L 346.0,664.9 L 346.0,665.0 L 346.0,665.0 L 346.0,665.1 L 345.9,665.1 L 345.9,665.2 L 345.9,665.2 L 345.9,665.2 L 345.8,665.3 L 345.8,665.3 L 345.8,665.3 L 345.7,665.4 L 345.7,665.4 L 345.6,665.4 L 345.6,665.4 L 345.5,665.4 L 345.5,665.5 L 345.4,665.5 L 345.4,665.5 L 345.3,665.5 L 345.3,665.4 L 345.2,665.4 L 345.2,665.4 L 345.1,665.4 L 345.1,665.4 L 345.1,665.3 L 345.0,665.3 L 345.0,665.3 L 345.0,665.2 L 344.9,665.2 L 344.9,665.1 L 344.9,665.1 L 344.9,665.1 L 344.9,665.0 L 344.9,665.0 L 344.8,664.9 L 344.8,664.9 L 344.9,664.8 L 344.9,664.8 L 344.9,664.7 L 344.9,664.7 L 344.9,664.6 L 344.9,664.6 L 345.0,664.5 L 345.0,664.5 L 345.0,664.5 L 345.1,664.4 L 345.1,664.4 L 345.1,664.4 L 345.2,664.4 L 345.2,664.3 L 345.3,664.3 L 345.3,664.3 L 345.4,664.3 L 345.4,664.3 L 345.5,664.3 L 345.5,664.3 L 345.6,664.3 L 345.6,664.4 L 345.7,664.4 L 345.7,664.4 L 345.8,664.4 L 345.8,664.5 L 345.8,664.5 L 345.9,664.5 L 345.9,664.6 L 345.9,664.6 L 345.9,664.6 L 346.0,664.7 L 346.0,664.7 L 346.0,664.8 L 346.0,664.8 L 346.0,664.9 L 345.4,664.9 Z" style="fill:#000000;fill-rule:evenodd;fill-opacity:1;stroke:#000000;stroke-width:0.0px;stroke-linecap:butt;stroke-linejoin:miter;stroke-miterlimit:10;stroke-opacity:1;"/>
<path class="bond-0 atom-0 atom-1" d="M 642.4,653.1 L 610.0,669.5" style="fill:none;fill-rule:evenodd;stroke:#000000;stroke-width:2.0px;stroke-linecap:butt;stroke-linejoin:miter;stroke-opacity:1"/>
<path class="bond-1 atom-1 atom-2" d="M 590.7,671.9 L 554.4,648.2" style="fill:none;fill-rule:evenodd;stroke:#000000;stroke-width:2.0px;stroke-linecap:butt;stroke-linejoin:miter;stroke-opacity:1"/>
<path class="bond-2 atom-2 atom-3" d="M 554.4,648.2 L 557.2,597.4" style="fill:none;fill-rule:evenodd;stroke:#000000;stroke-width:2.0px;stroke-linecap:butt;stroke-linejoin:miter;stroke-opacity:1"/>
<path class="bond-3 atom-3 atom-4" d="M 554.2,595.8 L 554.5,595.3" style="fill:none;fill-rule:evenodd;stroke:#000000;stroke-width:1.0px;stroke-linecap:butt;stroke-linejoin:miter;stroke-opacity:1"/>
<path class="bond-3 atom-3 atom-4" d="M 551.2,594.1 L 551.8,593.3" style="fill:none;fill-rule:evenodd;stroke:#000000;stroke-width:1.0px;stroke-linecap:butt;stroke-linejoin:miter;stroke-opacity:1"/>
<path class="bond-3 atom-3 atom-4" d="M 548.3,592.5 L 549.1,591.2" style="fill:none;fill-rule:evenodd;stroke:#000000;stroke-width:1.0px;stroke-linecap:butt;stroke-linejoin:miter;stroke-opacity:1"/>
<path class="bond-3 atom-3 atom-4" d="M 545.3,590.8 L 546.4,589.1" style="fill:none;fill-rule:evenodd;stroke:#000000;stroke-width:1.0px;stroke-linecap:butt;stroke-linejoin:miter;stroke-opacity:1"/>
<path class="bond-3 atom-3 atom-4" d="M 542.3,589.2 L 543.7,587.1" style="fill:none;fill-rule:evenodd;stroke:#000000;stroke-width:1.0px;stroke-linecap:butt;stroke-linejoin:miter;stroke-opacity:1"/>
<path class="bond-3 atom-3 atom-4" d="M 539.3,587.6 L 541.0,585.0" style="fill:none;fill-rule:evenodd;stroke:#000000;stroke-width:1.0px;stroke-linecap:butt;stroke-linejoin:miter;stroke-opacity:1"/>
<path class="bond-3 atom-3 atom-4" d="M 536.3,585.9 L 538.3,582.9" style="fill:none;fill-rule:evenodd;stroke:#000000;stroke-width:1.0px;stroke-linecap:butt;stroke-linejoin:miter;stroke-opacity:1"/>
<path class="bond-3 atom-3 atom-4" d="M 533.4,584.3 L 535.6,580.9" style="fill:none;fill-rule:evenodd;stroke:#000000;stroke-width:1.0px;stroke-linecap:butt;stroke-linejoin:miter;stroke-opacity:1"/>
<path class="bond-3 atom-3 atom-4" d="M 530.4,582.6 L 532.9,578.8" style="fill:none;fill-rule:evenodd;stroke:#000000;stroke-width:1.0px;stroke-linecap:butt;stroke-linejoin:miter;stroke-opacity:1"/>
<path class="bond-3 atom-3 atom-4" d="M 527.4,581.0 L 530.2,576.7" style="fill:none;fill-rule:evenodd;stroke:#000000;stroke-width:1.0px;stroke-linecap:butt;stroke-linejoin:miter;stroke-opacity:1"/>
<path class="bond-3 atom-3 atom-4" d="M 524.4,579.3 L 527.5,574.7" style="fill:none;fill-rule:evenodd;stroke:#000000;stroke-width:1.0px;stroke-linecap:butt;stroke-linejoin:miter;stroke-opacity:1"/>
<path class="bond-3 atom-3 atom-4" d="M 521.4,577.7 L 524.8,572.6" style="fill:none;fill-rule:evenodd;stroke:#000000;stroke-width:1.0px;stroke-linecap:butt;stroke-linejoin:miter;stroke-opacity:1"/>
<path class="bond-3 atom-3 atom-4" d="M 518.5,576.1 L 522.1,570.5" style="fill:none;fill-rule:evenodd;stroke:#000000;stroke-width:1.0px;stroke-linecap:butt;stroke-linejoin:miter;stroke-opacity:1"/>
<path class="bond-3 atom-3 atom-4" d="M 515.5,574.4 L 519.4,568.4" style="fill:none;fill-rule:evenodd;stroke:#000000;stroke-width:1.0px;stroke-linecap:butt;stroke-linejoin:miter;stroke-opacity:1"/>
<path class="bond-3 atom-3 atom-4" d="M 512.5,572.8 L 516.7,566.4" style="fill:none;fill-rule:evenodd;stroke:#000000;stroke-width:1.0px;stroke-linecap:butt;stroke-linejoin:miter;stroke-opacity:1"/>
<path class="bond-4 atom-3 atom-5" d="M 557.2,597.4 L 594.3,578.6" style="fill:none;fill-rule:evenodd;stroke:#000000;stroke-width:2.0px;stroke-linecap:butt;stroke-linejoin:miter;stroke-opacity:1"/>
<path class="bond-5 atom-5 atom-6" d="M 610.9,579.8 L 645.2,602.3" style="fill:none;fill-rule:evenodd;stroke:#000000;stroke-width:2.0px;stroke-linecap:butt;stroke-linejoin:miter;stroke-opacity:1"/>
<path class="bond-6 atom-6 atom-7" d="M 648.4,601.0 L 648.1,600.5" style="fill:none;fill-rule:evenodd;stroke:#000000;stroke-width:1.0px;stroke-linecap:butt;stroke-linejoin:miter;stroke-opacity:1"/>
<path class="bond-6 atom-6 atom-7" d="M 651.5,599.7 L 651.0,598.7" style="fill:none;fill-rule:evenodd;stroke:#000000;stroke-width:1.0px;stroke-linecap:butt;stroke-linejoin:miter;stroke-opacity:1"/>
<path class="bond-6 atom-6 atom-7" d="M 654.7,598.4 L 653.9,596.9" style="fill:none;fill-rule:evenodd;stroke:#000000;stroke-width:1.0px;stroke-linecap:butt;stroke-linejoin:miter;stroke-opacity:1"/>
<path class="bond-6 atom-6 atom-7" d="M 657.8,597.1 L 656.8,595.2" style="fill:none;fill-rule:evenodd;stroke:#000000;stroke-width:1.0px;stroke-linecap:butt;stroke-linejoin:miter;stroke-opacity:1"/>
<path class="bond-6 atom-6 atom-7" d="M 660.9,595.8 L 659.7,593.4" style="fill:none;fill-rule:evenodd;stroke:#000000;stroke-width:1.0px;stroke-linecap:butt;stroke-linejoin:miter;stroke-opacity:1"/>
<path class="bond-6 atom-6 atom-7" d="M 664.1,594.5 L 662.6,591.6" style="fill:none;fill-rule:evenodd;stroke:#000000;stroke-width:1.0px;stroke-linecap:butt;stroke-linejoin:miter;stroke-opacity:1"/>
<path class="bond-6 atom-6 atom-7" d="M 667.2,593.2 L 665.5,589.8" style="fill:none;fill-rule:evenodd;stroke:#000000;stroke-width:1.0px;stroke-linecap:butt;stroke-linejoin:miter;stroke-opacity:1"/>
<path class="bond-6 atom-6 atom-7" d="M 670.4,591.9 L 668.4,588.1" style="fill:none;fill-rule:evenodd;stroke:#000000;stroke-width:1.0px;stroke-linecap:butt;stroke-linejoin:miter;stroke-opacity:1"/>
<path class="bond-6 atom-6 atom-7" d="M 673.5,590.7 L 671.3,586.3" style="fill:none;fill-rule:evenodd;stroke:#000000;stroke-width:1.0px;stroke-linecap:butt;stroke-linejoin:miter;stroke-opacity:1"/>
<path class="bond-6 atom-6 atom-7" d="M 676.7,589.4 L 674.2,584.5" style="fill:none;fill-rule:evenodd;stroke:#000000;stroke-width:1.0px;stroke-linecap:butt;stroke-linejoin:miter;stroke-opacity:1"/>
<path class="bond-6 atom-6 atom-7" d="M 679.8,588.1 L 677.1,582.7" style="fill:none;fill-rule:evenodd;stroke:#000000;stroke-width:1.0px;stroke-linecap:butt;stroke-linejoin:miter;stroke-opacity:1"/>
<path class="bond-6 atom-6 atom-7" d="M 683.0,586.8 L 680.0,581.0" style="fill:none;fill-rule:evenodd;stroke:#000000;stroke-width:1.0px;stroke-linecap:butt;stroke-linejoin:miter;stroke-opacity:1"/>
<path class="bond-6 atom-6 atom-7" d="M 686.1,585.5 L 682.9,579.2" style="fill:none;fill-rule:evenodd;stroke:#000000;stroke-width:1.0px;stroke-linecap:butt;stroke-linejoin:miter;stroke-opacity:1"/>
<path class="bond-6 atom-6 atom-7" d="M 689.3,584.2 L 685.8,577.4" style="fill:none;fill-rule:evenodd;stroke:#000000;stroke-width:1.0px;stroke-linecap:butt;stroke-linejoin:miter;stroke-opacity:1"/>
<path class="bond-7 atom-7 atom-8" d="M 690.6,579.3 L 727.3,603.2" style="fill:none;fill-rule:evenodd;stroke:#000000;stroke-width:2.0px;stroke-linecap:butt;stroke-linejoin:miter;stroke-opacity:1"/>
<path class="bond-8 atom-6 atom-0" d="M 645.2,602.3 L 642.4,653.1" style="fill:none;fill-rule:evenodd;stroke:#000000;stroke-width:2.0px;stroke-linecap:butt;stroke-linejoin:miter;stroke-opacity:1"/>
<path d="M 640.8,653.9 L 642.4,653.1 L 642.5,650.5" style="fill:none;stroke:#000000;stroke-width:2.0px;stroke-linecap:butt;stroke-linejoin:miter;stroke-miterlimit:10;stroke-opacity:1;"/>
<path d="M 556.2,649.4 L 554.4,648.2 L 554.5,645.7" style="fill:none;stroke:#000000;stroke-width:2.0px;stroke-linecap:butt;stroke-linejoin:miter;stroke-miterlimit:10;stroke-opacity:1;"/>
<path d="M 557.1,599.9 L 557.2,597.4 L 559.0,596.5" style="fill:none;stroke:#000000;stroke-width:2.0px;stroke-linecap:butt;stroke-linejoin:miter;stroke-miterlimit:10;stroke-opacity:1;"/>
<path d="M 643.5,601.1 L 645.2,602.3 L 645.1,604.8" style="fill:none;stroke:#000000;stroke-width:2.0px;stroke-linecap:butt;stroke-linejoin:miter;stroke-miterlimit:10;stroke-opacity:1;"/>
<path class="atom-1" d="M 592.9 681.0 Q 593.1 681.1, 593.8 681.3 Q 594.4 681.6, 595.2 681.8 Q 595.9 682.0, 596.7 682.0 Q 598.0 682.0, 598.8 681.3 Q 599.6 680.7, 599.6 679.5 Q 599.6 678.7, 599.2 678.2 Q 598.8 677.7, 598.2 677.5 Q 597.6 677.2, 596.6 676.9 Q 595.3 676.5, 594.5 676.1 Q 593.8 675.8, 593.2 675.0 Q 592.7 674.2, 592.7 672.9 Q 592.7 671.1, 593.9 670.0 Q 595.1 668.9, 597.6 668.9 Q 599.3 668.9, 601.2 669.7 L 600.7 671.2 Q 599.0 670.5, 597.6 670.5 Q 596.2 670.5, 595.5 671.1 Q 594.7 671.7, 594.7 672.7 Q 594.7 673.4, 595.1 673.9 Q 595.5 674.4, 596.1 674.6 Q 596.7 674.9, 597.6 675.2 Q 599.0 675.6, 599.7 676.0 Q 600.5 676.4, 601.0 677.3 Q 601.6 678.1, 601.6 679.5 Q 601.6 681.5, 600.3 682.6 Q 599.0 683.6, 596.7 683.6 Q 595.5 683.6, 594.5 683.3 Q 593.5 683.1, 592.4 682.6 L 592.9 681.0 " fill="#000000"/>
<path class="atom-1" d="M 603.4 671.0 L 608.3 671.0 L 608.3 672.1 L 603.4 672.1 L 603.4 671.0 " fill="#000000"/>
<path class="atom-5" d="M 596.0 574.5 Q 596.0 571.0, 597.7 569.1 Q 599.4 567.1, 602.6 567.1 Q 605.8 567.1, 607.5 569.1 Q 609.2 571.0, 609.2 574.5 Q 609.2 578.0, 607.5 580.0 Q 605.8 581.9, 602.6 581.9 Q 599.4 581.9, 597.7 580.0 Q 596.0 578.0, 596.0 574.5 M 602.6 580.3 Q 604.8 580.3, 606.0 578.8 Q 607.2 577.4, 607.2 574.5 Q 607.2 571.6, 606.0 570.2 Q 604.8 568.8, 602.6 568.8 Q 600.4 568.8, 599.2 570.2 Q 598.0 571.6, 598.0 574.5 Q 598.0 577.4, 599.2 578.8 Q 600.4 580.3, 602.6 580.3 " fill="#000000"/>
<path class="atom-8" d="M 728.9 599.9 L 737.5 599.9 L 737.5 601.5 L 730.9 601.5 L 730.9 605.9 L 736.8 605.9 L 736.8 607.6 L 730.9 607.6 L 730.9 614.3 L 728.9 614.3 L 728.9 599.9 " fill="#000000"/>
<path class="atom-0" d="M 649.5,653.1 L 649.5,653.2 L 649.5,653.2 L 649.5,653.3 L 649.5,653.4 L 649.4,653.5 L 649.4,653.6 L 649.3,653.6 L 649.3,653.7 L 649.2,653.8 L 649.2,653.8 L 649.1,653.9 L 649.0,653.9 L 649.0,654.0 L 648.9,654.0 L 648.8,654.0 L 648.7,654.1 L 648.6,654.1 L 648.5,654.1 L 648.4,654.1 L 648.4,654.1 L 648.3,654.1 L 648.2,654.0 L 648.1,654.0 L 648.0,654.0 L 648.0,653.9 L 647.9,653.9 L 647.8,653.8 L 647.8,653.7 L 647.7,653.7 L 647.6,653.6 L 647.6,653.5 L 647.6,653.5 L 647.5,653.4 L 647.5,653.3 L 647.5,653.2 L 647.5,653.1 L 647.5,653.0 L 647.5,652.9 L 647.5,652.9 L 647.5,652.8 L 647.6,652.7 L 647.6,652.6 L 647.6,652.5 L 647.7,652.5 L 647.8,652.4 L 647.8,652.3 L 647.9,652.3 L 648.0,652.2 L 648.0,652.2 L 648.1,652.1 L 648.2,652.1 L 648.3,652.1 L 648.4,652.1 L 648.4,652.1 L 648.5,652.1 L 648.6,652.1 L 648.7,652.1 L 648.8,652.1 L 648.9,652.1 L 649.0,652.2 L 649.0,652.2 L 649.1,652.2 L 649.2,652.3 L 649.2,652.4 L 649.3,652.4 L 649.3,652.5 L 649.4,652.6 L 649.4,652.6 L 649.5,652.7 L 649.5,652.8 L 649.5,652.9 L 649.5,653.0 L 649.5,653.1 L 648.5,653.1 Z" style="fill:#000000;fill-rule:evenodd;fill-opacity:1;stroke:#000000;stroke-width:0.0px;stroke-linecap:butt;stroke-linejoin:miter;stroke-miterlimit:10;stroke-opacity:1;"/>
<path class="atom-1" d="M 612.4,676.0 L 612.4,676.1 L 612.4,676.2 L 612.4,676.3 L 612.4,676.4 L 612.3,676.5 L 612.3,676.6 L 612.2,676.6 L 612.2,676.7 L 612.1,676.8 L 612.1,676.8 L 612.0,676.9 L 611.9,676.9 L 611.8,677.0 L 611.8,677.0 L 611.7,677.0 L 611.6,677.0 L 611.5,677.1 L 611.4,677.1 L 611.3,677.1 L 611.2,677.1 L 611.2,677.0 L 611.1,677.0 L 611.0,677.0 L 610.9,676.9 L 610.8,676.9 L 610.8,676.8 L 610.7,676.8 L 610.6,676.7 L 610.6,676.7 L 610.5,676.6 L 610.5,676.5 L 610.5,676.4 L 610.4,676.4 L 610.4,676.3 L 610.4,676.2 L 610.4,676.1 L 610.4,676.0 L 610.4,675.9 L 610.4,675.8 L 610.4,675.7 L 610.5,675.7 L 610.5,675.6 L 610.5,675.5 L 610.6,675.4 L 610.6,675.4 L 610.7,675.3 L 610.8,675.3 L 610.8,675.2 L 610.9,675.2 L 611.0,675.1 L 611.1,675.1 L 611.2,675.1 L 611.2,675.0 L 611.3,675.0 L 611.4,675.0 L 611.5,675.0 L 611.6,675.1 L 611.7,675.1 L 611.8,675.1 L 611.8,675.1 L 611.9,675.2 L 612.0,675.2 L 612.1,675.3 L 612.1,675.3 L 612.2,675.4 L 612.2,675.5 L 612.3,675.5 L 612.3,675.6 L 612.4,675.7 L 612.4,675.8 L 612.4,675.9 L 612.4,676.0 L 612.4,676.0 L 611.4,676.0 Z" style="fill:#000000;fill-rule:evenodd;fill-opacity:1;stroke:#000000;stroke-width:0.0px;stroke-linecap:butt;stroke-linejoin:miter;stroke-miterlimit:10;stroke-opacity:1;"/>
</svg>