<svg xmlns="http://www.w3.org/2000/svg" xmlns:rdkit="http://www.rdkit.org/xml" xmlns:xlink="http://www.w3.org/1999/xlink" version="1.1" baseProfile="full" xml:space="preserve" width="750px" height="750px" viewBox="0 0 750 750">
<!-- END OF HEADER -->
<rect style="opacity:1.0;fill:#FFFFFF;stroke:none" width="250.0" height="250.0" x="0.0" y="0.0"> </rect>
<path class="bond-0 atom-0 atom-1" d="M 51.2,112.6 L 183.9,112.6" style="fill:none;fill-rule:evenodd;stroke:#000000;stroke-width:2.0px;stroke-linecap:butt;stroke-linejoin:miter;stroke-opacity:1"/>
<path class="bond-0 atom-0 atom-1" d="M 51.2,137.4 L 183.9,137.4" style="fill:none;fill-rule:evenodd;stroke:#000000;stroke-width:2.0px;stroke-linecap:butt;stroke-linejoin:miter;stroke-opacity:1"/>
<path class="atom-0" d="M 28.8 110.8 L 38.1 125.8 Q 39.0 127.3, 40.5 130.0 Q 42.0 132.7, 42.0 132.8 L 42.0 110.8 L 45.8 110.8 L 45.8 139.2 L 41.9 139.2 L 32.0 122.8 Q 30.8 120.8, 29.6 118.6 Q 28.4 116.4, 28.0 115.8 L 28.0 139.2 L 24.3 139.2 L 24.3 110.8 L 28.8 110.8 " fill="#000000"/>
<path class="atom-0" d="M 50.9 115.5 L 60.6 115.5 L 60.6 117.6 L 50.9 117.6 L 50.9 115.5 " fill="#000000"/>
<path class="atom-1" d="M 193.9 110.8 L 203.2 125.8 Q 204.1 127.3, 205.6 130.0 Q 207.0 132.7, 207.1 132.8 L 207.1 110.8 L 210.9 110.8 L 210.9 139.2 L 207.0 139.2 L 197.0 122.8 Q 195.9 120.8, 194.6 118.6 Q 193.4 116.4, 193.1 115.8 L 193.1 139.2 L 189.4 139.2 L 189.4 110.8 L 193.9 110.8 " fill="#000000"/>
<path class="atom-1" d="M 216.0 115.5 L 225.7 115.5 L 225.7 117.6 L 216.0 117.6 L 216.0 115.5 " fill="#000000"/>
<path class="bond-0 atom-0 atom-1" d="M 353.3,124.8 L 442.6,124.8" style="fill:none;fill-rule:evenodd;stroke:#000000;stroke-width:2.0px;stroke-linecap:butt;stroke-linejoin:miter;stroke-opacity:1"/>
<path class="atom-0" d="M 282.0 110.7 L 285.8 110.7 L 285.8 122.7 L 300.3 122.7 L 300.3 110.7 L 304.1 110.7 L 304.1 139.0 L 300.3 139.0 L 300.3 125.9 L 285.8 125.9 L 285.8 139.0 L 282.0 139.0 L 282.0 110.7 " fill="#000000"/>
<path class="atom-0" d="M 314.1 110.7 L 323.4 125.7 Q 324.3 127.1, 325.8 129.8 Q 327.2 132.5, 327.3 132.7 L 327.3 110.7 L 331.1 110.7 L 331.1 139.0 L 327.2 139.0 L 317.2 122.6 Q 316.1 120.7, 314.8 118.5 Q 313.6 116.3, 313.3 115.6 L 313.3 139.0 L 309.6 139.0 L 309.6 110.7 L 314.1 110.7 " fill="#000000"/>
<path class="atom-0" d="M 336.5 115.8 L 341.5 115.8 L 341.5 110.5 L 343.7 110.5 L 343.7 115.8 L 348.8 115.8 L 348.8 117.7 L 343.7 117.7 L 343.7 122.9 L 341.5 122.9 L 341.5 117.7 L 336.5 117.7 L 336.5 115.8 " fill="#000000"/>
<path class="atom-1" d="M 447.1 125.8 Q 447.1 118.8, 450.4 115.1 Q 453.7 111.4, 460.0 111.4 Q 465.9 111.4, 469.0 115.5 L 466.3 117.6 Q 464.1 114.6, 460.0 114.6 Q 455.7 114.6, 453.5 117.5 Q 451.2 120.4, 451.2 125.8 Q 451.2 131.4, 453.5 134.3 Q 455.9 137.2, 460.5 137.2 Q 463.6 137.2, 467.2 135.3 L 468.3 138.3 Q 466.9 139.2, 464.6 139.8 Q 462.4 140.4, 459.9 140.4 Q 453.7 140.4, 450.4 136.6 Q 447.1 132.8, 447.1 125.8 " fill="#000000"/>
<path class="atom-1" d="M 471.9 109.6 L 475.5 109.6 L 475.5 140.0 L 471.9 140.0 L 471.9 109.6 " fill="#000000"/>
<path class="atom-0" d="M 278.0,128.8 L 277.9,129.0 L 277.9,129.2 L 277.9,129.3 L 277.8,129.5 L 277.8,129.7 L 277.7,129.8 L 277.6,130.0 L 277.5,130.1 L 277.4,130.2 L 277.3,130.3 L 277.1,130.4 L 277.0,130.5 L 276.8,130.6 L 276.7,130.7 L 276.5,130.7 L 276.3,130.8 L 276.2,130.8 L 276.0,130.8 L 275.8,130.8 L 275.7,130.8 L 275.5,130.8 L 275.3,130.7 L 275.2,130.7 L 275.0,130.6 L 274.9,130.5 L 274.7,130.4 L 274.6,130.3 L 274.5,130.2 L 274.4,130.0 L 274.3,129.9 L 274.2,129.7 L 274.1,129.6 L 274.0,129.4 L 274.0,129.2 L 274.0,129.1 L 274.0,128.9 L 274.0,128.7 L 274.0,128.6 L 274.0,128.4 L 274.0,128.2 L 274.1,128.1 L 274.2,127.9 L 274.3,127.8 L 274.4,127.6 L 274.5,127.5 L 274.6,127.4 L 274.7,127.2 L 274.9,127.1 L 275.0,127.1 L 275.2,127.0 L 275.3,126.9 L 275.5,126.9 L 275.7,126.8 L 275.8,126.8 L 276.0,126.8 L 276.2,126.8 L 276.3,126.9 L 276.5,126.9 L 276.7,127.0 L 276.8,127.0 L 277.0,127.1 L 277.1,127.2 L 277.3,127.3 L 277.4,127.4 L 277.5,127.5 L 277.6,127.7 L 277.7,127.8 L 277.8,128.0 L 277.8,128.1 L 277.9,128.3 L 277.9,128.5 L 277.9,128.6 L 278.0,128.8 L 276.0,128.8 Z" style="fill:#000000;fill-rule:evenodd;fill-opacity:1;stroke:#000000;stroke-width:0.0px;stroke-linecap:butt;stroke-linejoin:miter;stroke-miterlimit:10;stroke-opacity:1;"/>
<path class="atom-0" d="M 278.0,120.8 L 277.9,121.0 L 277.9,121.2 L 277.9,121.3 L 277.8,121.5 L 277.8,121.7 L 277.7,121.8 L 277.6,122.0 L 277.5,122.1 L 277.4,122.2 L 277.3,122.3 L 277.1,122.4 L 277.0,122.5 L 276.8,122.6 L 276.7,122.7 L 276.5,122.7 L 276.3,122.8 L 276.2,122.8 L 276.0,122.8 L 275.8,122.8 L 275.7,122.8 L 275.5,122.8 L 275.3,122.7 L 275.2,122.7 L 275.0,122.6 L 274.9,122.5 L 274.7,122.4 L 274.6,122.3 L 274.5,122.2 L 274.4,122.0 L 274.3,121.9 L 274.2,121.7 L 274.1,121.6 L 274.0,121.4 L 274.0,121.2 L 274.0,121.1 L 274.0,120.9 L 274.0,120.7 L 274.0,120.6 L 274.0,120.4 L 274.0,120.2 L 274.1,120.1 L 274.2,119.9 L 274.3,119.8 L 274.4,119.6 L 274.5,119.5 L 274.6,119.4 L 274.7,119.2 L 274.9,119.1 L 275.0,119.1 L 275.2,119.0 L 275.3,118.9 L 275.5,118.9 L 275.7,118.8 L 275.8,118.8 L 276.0,118.8 L 276.2,118.8 L 276.3,118.9 L 276.5,118.9 L 276.7,119.0 L 276.8,119.0 L 277.0,119.1 L 277.1,119.2 L 277.3,119.3 L 277.4,119.4 L 277.5,119.5 L 277.6,119.7 L 277.7,119.8 L 277.8,120.0 L 277.8,120.1 L 277.9,120.3 L 277.9,120.5 L 277.9,120.6 L 278.0,120.8 L 276.0,120.8 Z" style="fill:#000000;fill-rule:evenodd;fill-opacity:1;stroke:#000000;stroke-width:0.0px;stroke-linecap:butt;stroke-linejoin:miter;stroke-miterlimit:10;stroke-opacity:1;"/>
<path class="bond-0 atom-0 atom-1" d="M 532.7,109.0 L 550.7,118.9" style="fill:none;fill-rule:evenodd;stroke:#000000;stroke-width:2.0px;stroke-linecap:butt;stroke-linejoin:miter;stroke-opacity:1"/>
<path class="bond-1 atom-1 atom-2" d="M 559.6,115.1 L 574.2,106.2" style="fill:none;fill-rule:evenodd;stroke:#000000;stroke-width:2.0px;stroke-linecap:butt;stroke-linejoin:miter;stroke-opacity:1"/>
<path class="bond-1 atom-1 atom-2" d="M 561.9,118.9 L 576.5,110.0" style="fill:none;fill-rule:evenodd;stroke:#000000;stroke-width:2.0px;stroke-linecap:butt;stroke-linejoin:miter;stroke-opacity:1"/>
<path class="bond-2 atom-2 atom-3" d="M 583.6,107.8 L 601.7,117.7" style="fill:none;fill-rule:evenodd;stroke:#000000;stroke-width:2.0px;stroke-linecap:butt;stroke-linejoin:miter;stroke-opacity:1"/>
<path class="bond-3 atom-3 atom-4" d="M 613.7,114.6 L 630.4,104.4" style="fill:none;fill-rule:evenodd;stroke:#000000;stroke-width:2.0px;stroke-linecap:butt;stroke-linejoin:miter;stroke-opacity:1"/>
<path class="bond-4 atom-4 atom-5" d="M 630.4,104.4 L 656.3,118.6" style="fill:none;fill-rule:evenodd;stroke:#000000;stroke-width:2.0px;stroke-linecap:butt;stroke-linejoin:miter;stroke-opacity:1"/>
<path class="bond-5 atom-5 atom-6" d="M 656.3,118.6 L 659.0,141.8 L 654.6,141.9 Z" style="fill:#000000;fill-rule:evenodd;fill-opacity:1;stroke:#000000;stroke-width:0.5px;stroke-linecap:butt;stroke-linejoin:miter;stroke-miterlimit:10;stroke-opacity:1;"/>
<path class="bond-6 atom-5 atom-7" d="M 656.3,118.6 L 681.4,103.3" style="fill:none;fill-rule:evenodd;stroke:#000000;stroke-width:2.0px;stroke-linecap:butt;stroke-linejoin:miter;stroke-opacity:1"/>
<path class="bond-7 atom-7 atom-8" d="M 681.4,103.3 L 707.2,117.4" style="fill:none;fill-rule:evenodd;stroke:#000000;stroke-width:2.0px;stroke-linecap:butt;stroke-linejoin:miter;stroke-opacity:1"/>
<path class="bond-7 atom-7 atom-8" d="M 681.5,108.4 L 705.1,121.3" style="fill:none;fill-rule:evenodd;stroke:#000000;stroke-width:2.0px;stroke-linecap:butt;stroke-linejoin:miter;stroke-opacity:1"/>
<path class="bond-8 atom-8 atom-9" d="M 707.2,117.4 L 728.2,104.6" style="fill:none;fill-rule:evenodd;stroke:#000000;stroke-width:2.0px;stroke-linecap:butt;stroke-linejoin:miter;stroke-opacity:1"/>
<path d="M 629.6,104.9 L 630.4,104.4 L 631.7,105.1" style="fill:none;stroke:#000000;stroke-width:2.0px;stroke-linecap:butt;stroke-linejoin:miter;stroke-miterlimit:10;stroke-opacity:1;"/>
<path d="M 655.0,117.8 L 656.3,118.6 L 657.5,117.8" style="fill:none;stroke:#000000;stroke-width:2.0px;stroke-linecap:butt;stroke-linejoin:miter;stroke-miterlimit:10;stroke-opacity:1;"/>
<path d="M 680.1,104.0 L 681.4,103.3 L 682.7,104.0" style="fill:none;stroke:#000000;stroke-width:2.0px;stroke-linecap:butt;stroke-linejoin:miter;stroke-miterlimit:10;stroke-opacity:1;"/>
<path d="M 705.9,116.7 L 707.2,117.4 L 708.3,116.8" style="fill:none;stroke:#000000;stroke-width:2.0px;stroke-linecap:butt;stroke-linejoin:miter;stroke-miterlimit:10;stroke-opacity:1;"/>
<path class="atom-0" d="M 512.5 102.6 L 513.6 102.6 L 513.6 106.1 L 517.9 106.1 L 517.9 102.6 L 519.0 102.6 L 519.0 110.9 L 517.9 110.9 L 517.9 107.1 L 513.6 107.1 L 513.6 110.9 L 512.5 110.9 L 512.5 102.6 " fill="#000000"/>
<path class="atom-0" d="M 523.3 112.2 Q 523.8 112.3, 524.1 112.7 Q 524.3 113.0, 524.3 113.6 Q 524.3 114.0, 524.1 114.4 Q 523.9 114.8, 523.4 115.0 Q 523.0 115.2, 522.4 115.2 Q 521.8 115.2, 521.4 115.0 Q 521.0 114.8, 520.6 114.3 L 521.1 113.9 Q 521.4 114.3, 521.7 114.4 Q 522.0 114.5, 522.4 114.5 Q 522.9 114.5, 523.2 114.3 Q 523.5 114.0, 523.5 113.6 Q 523.5 113.0, 523.2 112.8 Q 522.9 112.5, 522.2 112.5 L 521.8 112.5 L 521.8 111.9 L 522.2 111.9 Q 522.8 111.9, 523.1 111.7 Q 523.4 111.4, 523.4 110.9 Q 523.4 110.6, 523.2 110.4 Q 522.9 110.1, 522.4 110.1 Q 522.0 110.1, 521.7 110.3 Q 521.4 110.5, 521.2 110.9 L 520.7 110.6 Q 520.9 110.1, 521.3 109.8 Q 521.8 109.5, 522.4 109.5 Q 523.3 109.5, 523.7 109.9 Q 524.2 110.3, 524.2 110.9 Q 524.2 111.4, 524.0 111.7 Q 523.7 112.0, 523.3 112.2 " fill="#000000"/>
<path class="atom-0" d="M 526.7 102.6 L 529.4 107.0 Q 529.7 107.4, 530.1 108.2 Q 530.6 109.0, 530.6 109.1 L 530.6 102.6 L 531.7 102.6 L 531.7 110.9 L 530.6 110.9 L 527.6 106.1 Q 527.3 105.5, 526.9 104.9 Q 526.6 104.2, 526.5 104.0 L 526.5 110.9 L 525.4 110.9 L 525.4 102.6 L 526.7 102.6 " fill="#000000"/>
<path class="atom-0" d="M 533.3 104.1 L 534.7 104.1 L 534.7 102.5 L 535.4 102.5 L 535.4 104.1 L 536.9 104.1 L 536.9 104.6 L 535.4 104.6 L 535.4 106.2 L 534.7 106.2 L 534.7 104.6 L 533.3 104.6 L 533.3 104.1 " fill="#000000"/>
<path class="atom-1" d="M 552.0 123.7 Q 552.1 123.8, 552.5 123.9 Q 552.9 124.1, 553.3 124.2 Q 553.7 124.3, 554.1 124.3 Q 554.9 124.3, 555.4 123.9 Q 555.9 123.5, 555.9 122.9 Q 555.9 122.4, 555.6 122.1 Q 555.4 121.8, 555.0 121.7 Q 554.7 121.5, 554.1 121.4 Q 553.4 121.1, 552.9 120.9 Q 552.5 120.7, 552.2 120.3 Q 551.9 119.8, 551.9 119.1 Q 551.9 118.0, 552.6 117.4 Q 553.3 116.7, 554.7 116.7 Q 555.7 116.7, 556.7 117.2 L 556.5 118.1 Q 555.5 117.7, 554.7 117.7 Q 553.9 117.7, 553.5 118.0 Q 553.0 118.3, 553.0 118.9 Q 553.0 119.4, 553.3 119.6 Q 553.5 119.9, 553.8 120.1 Q 554.2 120.2, 554.7 120.4 Q 555.5 120.6, 555.9 120.9 Q 556.4 121.1, 556.7 121.6 Q 557.0 122.1, 557.0 122.9 Q 557.0 124.0, 556.2 124.6 Q 555.5 125.3, 554.2 125.3 Q 553.5 125.3, 552.9 125.1 Q 552.3 124.9, 551.7 124.7 L 552.0 123.7 " fill="#000000"/>
<path class="atom-1" d="M 558.1 118.0 L 560.9 118.0 L 560.9 118.6 L 558.1 118.6 L 558.1 118.0 " fill="#000000"/>
<path class="atom-2" d="M 577.6 101.4 L 580.4 105.8 Q 580.7 106.3, 581.1 107.1 Q 581.5 107.8, 581.5 107.9 L 581.5 101.4 L 582.7 101.4 L 582.7 109.8 L 581.5 109.8 L 578.6 104.9 Q 578.2 104.4, 577.9 103.7 Q 577.5 103.1, 577.4 102.9 L 577.4 109.8 L 576.3 109.8 L 576.3 101.4 L 577.6 101.4 " fill="#000000"/>
<path class="atom-3" d="M 605.1 115.6 Q 606.5 115.6, 607.2 116.2 Q 608.0 116.8, 608.0 118.0 Q 608.0 119.2, 607.2 119.8 Q 606.5 120.5, 605.1 120.5 L 603.8 120.5 L 603.8 123.9 L 602.6 123.9 L 602.6 115.6 L 605.1 115.6 M 605.1 119.5 Q 605.9 119.5, 606.4 119.1 Q 606.8 118.7, 606.8 118.0 Q 606.8 117.3, 606.4 116.9 Q 605.9 116.5, 605.1 116.5 L 603.8 116.5 L 603.8 119.5 L 605.1 119.5 " fill="#000000"/>
<path class="atom-3" d="M 609.1 117.1 L 610.5 117.1 L 610.5 115.5 L 611.2 115.5 L 611.2 117.1 L 612.7 117.1 L 612.7 117.6 L 611.2 117.6 L 611.2 119.2 L 610.5 119.2 L 610.5 117.6 L 609.1 117.6 L 609.1 117.1 " fill="#000000"/>
<path class="atom-3" d="M 602.0 124.7 L 603.2 124.7 L 603.2 128.3 L 607.4 128.3 L 607.4 124.7 L 608.6 124.7 L 608.6 133.1 L 607.4 133.1 L 607.4 129.2 L 603.2 129.2 L 603.2 133.1 L 602.0 133.1 L 602.0 124.7 " fill="#000000"/>
<path class="atom-6" d="M 654.6 150.8 Q 654.7 150.9, 655.1 151.0 Q 655.4 151.2, 655.9 151.3 Q 656.3 151.4, 656.7 151.4 Q 657.5 151.4, 658.0 151.0 Q 658.4 150.6, 658.4 150.0 Q 658.4 149.5, 658.2 149.2 Q 658.0 149.0, 657.6 148.8 Q 657.3 148.6, 656.7 148.5 Q 655.9 148.2, 655.5 148.0 Q 655.1 147.8, 654.7 147.4 Q 654.4 146.9, 654.4 146.2 Q 654.4 145.1, 655.1 144.5 Q 655.9 143.8, 657.3 143.8 Q 658.2 143.8, 659.3 144.3 L 659.1 145.2 Q 658.1 144.8, 657.3 144.8 Q 656.5 144.8, 656.0 145.1 Q 655.6 145.5, 655.6 146.0 Q 655.6 146.5, 655.8 146.7 Q 656.1 147.0, 656.4 147.2 Q 656.7 147.3, 657.3 147.5 Q 658.1 147.7, 658.5 148.0 Q 659.0 148.2, 659.3 148.7 Q 659.6 149.2, 659.6 150.0 Q 659.6 151.1, 658.8 151.8 Q 658.1 152.4, 656.8 152.4 Q 656.0 152.4, 655.5 152.2 Q 654.9 152.0, 654.3 151.8 L 654.6 150.8 " fill="#000000"/>
<path class="atom-6" d="M 660.7 143.8 L 661.9 143.8 L 661.9 147.4 L 666.1 147.4 L 666.1 143.8 L 667.3 143.8 L 667.3 152.1 L 666.1 152.1 L 666.1 148.3 L 661.9 148.3 L 661.9 152.1 L 660.7 152.1 L 660.7 143.8 " fill="#000000"/>
<path class="atom-9" d="M 729.1 102.4 Q 729.1 100.3, 730.1 99.2 Q 731.1 98.1, 732.9 98.1 Q 734.7 98.1, 735.6 99.4 L 734.8 100.0 Q 734.1 99.1, 732.9 99.1 Q 731.7 99.1, 731.0 100.0 Q 730.3 100.8, 730.3 102.4 Q 730.3 104.0, 731.0 104.9 Q 731.7 105.7, 733.1 105.7 Q 734.0 105.7, 735.1 105.2 L 735.4 106.1 Q 734.9 106.3, 734.3 106.5 Q 733.6 106.7, 732.9 106.7 Q 731.1 106.7, 730.1 105.6 Q 729.1 104.5, 729.1 102.4 " fill="#000000"/>
<path class="atom-9" d="M 736.4 97.6 L 737.5 97.6 L 737.5 106.6 L 736.4 106.6 L 736.4 97.6 " fill="#000000"/>
<path class="atom-3" d="M 615.0,119.7 L 615.0,119.8 L 615.0,119.8 L 615.0,119.9 L 615.0,119.9 L 615.0,120.0 L 615.0,120.0 L 614.9,120.1 L 614.9,120.1 L 614.9,120.1 L 614.8,120.2 L 614.8,120.2 L 614.8,120.2 L 614.7,120.2 L 614.7,120.3 L 614.6,120.3 L 614.6,120.3 L 614.5,120.3 L 614.5,120.3 L 614.4,120.3 L 614.4,120.3 L 614.3,120.3 L 614.3,120.3 L 614.2,120.3 L 614.2,120.2 L 614.1,120.2 L 614.1,120.2 L 614.0,120.1 L 614.0,120.1 L 614.0,120.1 L 614.0,120.0 L 613.9,120.0 L 613.9,119.9 L 613.9,119.9 L 613.9,119.8 L 613.9,119.8 L 613.9,119.7 L 613.9,119.7 L 613.9,119.6 L 613.9,119.6 L 613.9,119.5 L 613.9,119.5 L 613.9,119.4 L 614.0,119.4 L 614.0,119.4 L 614.0,119.3 L 614.0,119.3 L 614.1,119.3 L 614.1,119.2 L 614.2,119.2 L 614.2,119.2 L 614.3,119.2 L 614.3,119.1 L 614.4,119.1 L 614.4,119.1 L 614.5,119.1 L 614.5,119.1 L 614.6,119.1 L 614.6,119.2 L 614.7,119.2 L 614.7,119.2 L 614.8,119.2 L 614.8,119.2 L 614.8,119.3 L 614.9,119.3 L 614.9,119.3 L 614.9,119.4 L 615.0,119.4 L 615.0,119.5 L 615.0,119.5 L 615.0,119.6 L 615.0,119.6 L 615.0,119.7 L 615.0,119.7 L 614.5,119.7 Z" style="fill:#000000;fill-rule:evenodd;fill-opacity:1;stroke:#000000;stroke-width:0.0px;stroke-linecap:butt;stroke-linejoin:miter;stroke-miterlimit:10;stroke-opacity:1;"/>
<path class="atom-4" d="M 631.0,101.8 L 631.0,101.8 L 631.0,101.9 L 631.0,101.9 L 631.0,102.0 L 631.0,102.0 L 631.0,102.1 L 630.9,102.1 L 630.9,102.2 L 630.9,102.2 L 630.8,102.2 L 630.8,102.3 L 630.7,102.3 L 630.7,102.3 L 630.7,102.3 L 630.6,102.3 L 630.6,102.4 L 630.5,102.4 L 630.5,102.4 L 630.4,102.4 L 630.4,102.4 L 630.3,102.4 L 630.3,102.3 L 630.2,102.3 L 630.2,102.3 L 630.1,102.3 L 630.1,102.2 L 630.0,102.2 L 630.0,102.2 L 630.0,102.1 L 629.9,102.1 L 629.9,102.0 L 629.9,102.0 L 629.9,102.0 L 629.9,101.9 L 629.9,101.9 L 629.9,101.8 L 629.9,101.8 L 629.9,101.7 L 629.9,101.7 L 629.9,101.6 L 629.9,101.6 L 629.9,101.5 L 629.9,101.5 L 630.0,101.4 L 630.0,101.4 L 630.0,101.3 L 630.1,101.3 L 630.1,101.3 L 630.2,101.3 L 630.2,101.2 L 630.3,101.2 L 630.3,101.2 L 630.4,101.2 L 630.4,101.2 L 630.5,101.2 L 630.5,101.2 L 630.6,101.2 L 630.6,101.2 L 630.7,101.2 L 630.7,101.2 L 630.7,101.3 L 630.8,101.3 L 630.8,101.3 L 630.9,101.4 L 630.9,101.4 L 630.9,101.4 L 631.0,101.5 L 631.0,101.5 L 631.0,101.6 L 631.0,101.6 L 631.0,101.7 L 631.0,101.7 L 631.0,101.8 L 630.4,101.8 Z" style="fill:#000000;fill-rule:evenodd;fill-opacity:1;stroke:#000000;stroke-width:0.0px;stroke-linecap:butt;stroke-linejoin:miter;stroke-miterlimit:10;stroke-opacity:1;"/>
<path class="bond-0 atom-0 atom-1" d="M 79.1,374.9 L 204.1,374.9" style="fill:none;fill-rule:evenodd;stroke:#000000;stroke-width:2.0px;stroke-linecap:butt;stroke-linejoin:miter;stroke-opacity:1"/>
<path class="atom-0" d="M 30.8 375.0 Q 30.8 368.2, 34.1 364.4 Q 37.5 360.6, 43.8 360.6 Q 50.1 360.6, 53.4 364.4 Q 56.8 368.2, 56.8 375.0 Q 56.8 381.8, 53.4 385.8 Q 50.0 389.6, 43.8 389.6 Q 37.5 389.6, 34.1 385.8 Q 30.8 381.9, 30.8 375.0 M 43.8 386.4 Q 48.1 386.4, 50.4 383.6 Q 52.8 380.6, 52.8 375.0 Q 52.8 369.4, 50.4 366.6 Q 48.1 363.8, 43.8 363.8 Q 39.5 363.8, 37.1 366.6 Q 34.8 369.4, 34.8 375.0 Q 34.8 380.7, 37.1 383.6 Q 39.5 386.4, 43.8 386.4 " fill="#000000"/>
<path class="atom-0" d="M 61.0 365.6 L 66.0 365.6 L 66.0 360.4 L 68.2 360.4 L 68.2 365.6 L 73.3 365.6 L 73.3 367.5 L 68.2 367.5 L 68.2 372.8 L 66.0 372.8 L 66.0 367.5 L 61.0 367.5 L 61.0 365.6 " fill="#000000"/>
<path class="atom-1" d="M 209.9 360.7 L 226.7 360.7 L 226.7 364.0 L 213.7 364.0 L 213.7 372.6 L 225.3 372.6 L 225.3 375.8 L 213.7 375.8 L 213.7 389.0 L 209.9 389.0 L 209.9 360.7 " fill="#000000"/>
<path class="atom-0" d="M 26.8,378.9 L 26.8,379.1 L 26.7,379.2 L 26.7,379.4 L 26.7,379.6 L 26.6,379.7 L 26.5,379.9 L 26.4,380.0 L 26.3,380.2 L 26.2,380.3 L 26.1,380.4 L 25.9,380.5 L 25.8,380.6 L 25.6,380.7 L 25.5,380.8 L 25.3,380.8 L 25.2,380.8 L 25.0,380.9 L 24.8,380.9 L 24.6,380.9 L 24.5,380.9 L 24.3,380.8 L 24.1,380.8 L 24.0,380.7 L 23.8,380.6 L 23.7,380.6 L 23.5,380.5 L 23.4,380.3 L 23.3,380.2 L 23.2,380.1 L 23.1,379.9 L 23.0,379.8 L 22.9,379.6 L 22.9,379.5 L 22.8,379.3 L 22.8,379.1 L 22.8,379.0 L 22.8,378.8 L 22.8,378.6 L 22.8,378.5 L 22.9,378.3 L 22.9,378.1 L 23.0,378.0 L 23.1,377.8 L 23.2,377.7 L 23.3,377.5 L 23.4,377.4 L 23.5,377.3 L 23.7,377.2 L 23.8,377.1 L 24.0,377.0 L 24.1,377.0 L 24.3,376.9 L 24.5,376.9 L 24.6,376.9 L 24.8,376.9 L 25.0,376.9 L 25.2,376.9 L 25.3,377.0 L 25.5,377.0 L 25.6,377.1 L 25.8,377.2 L 25.9,377.3 L 26.1,377.4 L 26.2,377.5 L 26.3,377.6 L 26.4,377.8 L 26.5,377.9 L 26.6,378.1 L 26.7,378.2 L 26.7,378.4 L 26.7,378.5 L 26.8,378.7 L 26.8,378.9 L 24.8,378.9 Z" style="fill:#000000;fill-rule:evenodd;fill-opacity:1;stroke:#000000;stroke-width:0.0px;stroke-linecap:butt;stroke-linejoin:miter;stroke-miterlimit:10;stroke-opacity:1;"/>
<path class="atom-0" d="M 26.8,370.9 L 26.8,371.1 L 26.7,371.2 L 26.7,371.4 L 26.7,371.6 L 26.6,371.7 L 26.5,371.9 L 26.4,372.0 L 26.3,372.2 L 26.2,372.3 L 26.1,372.4 L 25.9,372.5 L 25.8,372.6 L 25.6,372.7 L 25.5,372.8 L 25.3,372.8 L 25.2,372.8 L 25.0,372.9 L 24.8,372.9 L 24.6,372.9 L 24.5,372.9 L 24.3,372.8 L 24.1,372.8 L 24.0,372.7 L 23.8,372.6 L 23.7,372.6 L 23.5,372.5 L 23.4,372.3 L 23.3,372.2 L 23.2,372.1 L 23.1,371.9 L 23.0,371.8 L 22.9,371.6 L 22.9,371.5 L 22.8,371.3 L 22.8,371.1 L 22.8,371.0 L 22.8,370.8 L 22.8,370.6 L 22.8,370.5 L 22.9,370.3 L 22.9,370.1 L 23.0,370.0 L 23.1,369.8 L 23.2,369.7 L 23.3,369.5 L 23.4,369.4 L 23.5,369.3 L 23.7,369.2 L 23.8,369.1 L 24.0,369.0 L 24.1,369.0 L 24.3,368.9 L 24.5,368.9 L 24.6,368.9 L 24.8,368.9 L 25.0,368.9 L 25.2,368.9 L 25.3,369.0 L 25.5,369.0 L 25.6,369.1 L 25.8,369.2 L 25.9,369.3 L 26.1,369.4 L 26.2,369.5 L 26.3,369.6 L 26.4,369.8 L 26.5,369.9 L 26.6,370.1 L 26.7,370.2 L 26.7,370.4 L 26.7,370.5 L 26.8,370.7 L 26.8,370.9 L 24.8,370.9 Z" style="fill:#000000;fill-rule:evenodd;fill-opacity:1;stroke:#000000;stroke-width:0.0px;stroke-linecap:butt;stroke-linejoin:miter;stroke-miterlimit:10;stroke-opacity:1;"/>
<path class="bond-0 atom-0 atom-1" d="M 269.8,381.6 L 309.0,358.9" style="fill:none;fill-rule:evenodd;stroke:#000000;stroke-width:2.0px;stroke-linecap:butt;stroke-linejoin:miter;stroke-opacity:1"/>
<path class="bond-1 atom-1 atom-2" d="M 324.2,358.9 L 356.7,377.7" style="fill:none;fill-rule:evenodd;stroke:#000000;stroke-width:2.0px;stroke-linecap:butt;stroke-linejoin:miter;stroke-opacity:1"/>
<path class="bond-2 atom-2 atom-3" d="M 368.1,374.2 L 401.6,354.9" style="fill:none;fill-rule:evenodd;stroke:#000000;stroke-width:2.0px;stroke-linecap:butt;stroke-linejoin:miter;stroke-opacity:1"/>
<path class="bond-2 atom-2 atom-3" d="M 372.2,381.2 L 405.6,361.9" style="fill:none;fill-rule:evenodd;stroke:#000000;stroke-width:2.0px;stroke-linecap:butt;stroke-linejoin:miter;stroke-opacity:1"/>
<path class="bond-3 atom-3 atom-4" d="M 416.9,358.4 L 449.5,377.2" style="fill:none;fill-rule:evenodd;stroke:#000000;stroke-width:2.0px;stroke-linecap:butt;stroke-linejoin:miter;stroke-opacity:1"/>
<path class="atom-1" d="M 313.2 346.9 L 318.3 355.0 Q 318.8 355.8, 319.6 357.2 Q 320.4 358.7, 320.4 358.8 L 320.4 346.9 L 322.4 346.9 L 322.4 362.2 L 320.3 362.2 L 314.9 353.3 Q 314.3 352.3, 313.6 351.1 Q 313.0 349.9, 312.8 349.5 L 312.8 362.2 L 310.8 362.2 L 310.8 346.9 L 313.2 346.9 " fill="#000000"/>
<path class="atom-1" d="M 325.3 349.6 L 328.0 349.6 L 328.0 346.8 L 329.2 346.8 L 329.2 349.6 L 332.0 349.6 L 332.0 350.7 L 329.2 350.7 L 329.2 353.5 L 328.0 353.5 L 328.0 350.7 L 325.3 350.7 L 325.3 349.6 " fill="#000000"/>
<path class="atom-2" d="M 359.1 386.8 Q 359.3 386.9, 360.0 387.2 Q 360.7 387.5, 361.5 387.7 Q 362.3 387.8, 363.1 387.8 Q 364.5 387.8, 365.4 387.2 Q 366.2 386.4, 366.2 385.2 Q 366.2 384.4, 365.8 383.8 Q 365.4 383.3, 364.7 383.0 Q 364.1 382.8, 363.0 382.4 Q 361.6 382.0, 360.8 381.6 Q 360.0 381.3, 359.4 380.4 Q 358.9 379.6, 358.9 378.2 Q 358.9 376.3, 360.2 375.1 Q 361.5 373.9, 364.1 373.9 Q 365.8 373.9, 367.9 374.8 L 367.4 376.4 Q 365.5 375.7, 364.1 375.7 Q 362.6 375.7, 361.8 376.3 Q 361.0 376.9, 361.0 378.0 Q 361.0 378.8, 361.4 379.3 Q 361.9 379.8, 362.5 380.1 Q 363.1 380.3, 364.1 380.7 Q 365.5 381.1, 366.3 381.5 Q 367.2 382.0, 367.7 382.9 Q 368.4 383.7, 368.4 385.2 Q 368.4 387.3, 366.9 388.5 Q 365.5 389.6, 363.2 389.6 Q 361.8 389.6, 360.8 389.3 Q 359.7 389.0, 358.5 388.5 L 359.1 386.8 " fill="#000000"/>
<path class="atom-2" d="M 357.5 391.1 L 359.5 391.1 L 359.5 397.7 L 367.4 397.7 L 367.4 391.1 L 369.4 391.1 L 369.4 406.5 L 367.4 406.5 L 367.4 399.4 L 359.5 399.4 L 359.5 406.5 L 357.5 406.5 L 357.5 391.1 " fill="#000000"/>
<path class="atom-3" d="M 409.9 346.9 Q 412.5 346.9, 413.8 348.1 Q 415.2 349.2, 415.2 351.4 Q 415.2 353.5, 413.8 354.7 Q 412.4 355.9, 409.9 355.9 L 407.5 355.9 L 407.5 362.2 L 405.4 362.2 L 405.4 346.9 L 409.9 346.9 M 409.9 354.2 Q 411.4 354.2, 412.2 353.4 Q 413.0 352.7, 413.0 351.4 Q 413.0 350.0, 412.2 349.3 Q 411.4 348.6, 409.9 348.6 L 407.5 348.6 L 407.5 354.2 L 409.9 354.2 " fill="#000000"/>
<path class="atom-4" d="M 453.7 373.9 L 458.7 382.0 Q 459.2 382.8, 460.0 384.3 Q 460.8 385.7, 460.9 385.8 L 460.9 373.9 L 462.9 373.9 L 462.9 389.2 L 460.8 389.2 L 455.4 380.3 Q 454.8 379.3, 454.1 378.1 Q 453.5 376.9, 453.3 376.6 L 453.3 389.2 L 451.3 389.2 L 451.3 373.9 L 453.7 373.9 " fill="#000000"/>
<path class="atom-4" d="M 465.8 373.9 L 467.9 373.9 L 467.9 380.4 L 475.7 380.4 L 475.7 373.9 L 477.8 373.9 L 477.8 389.2 L 475.7 389.2 L 475.7 382.1 L 467.9 382.1 L 467.9 389.2 L 465.8 389.2 L 465.8 373.9 " fill="#000000"/>
<path class="atom-4" d="M 485.6 391.5 Q 486.5 391.8, 487.0 392.5 Q 487.5 393.1, 487.5 394.1 Q 487.5 395.0, 487.1 395.6 Q 486.6 396.3, 485.9 396.7 Q 485.1 397.0, 484.0 397.0 Q 483.0 397.0, 482.1 396.6 Q 481.3 396.3, 480.7 395.5 L 481.5 394.7 Q 482.1 395.3, 482.7 395.6 Q 483.2 395.9, 484.0 395.9 Q 485.0 395.9, 485.5 395.4 Q 486.1 394.9, 486.1 394.1 Q 486.1 393.1, 485.5 392.6 Q 484.9 392.1, 483.7 392.1 L 482.9 392.1 L 482.9 391.1 L 483.6 391.1 Q 484.7 391.1, 485.3 390.6 Q 485.9 390.1, 485.9 389.2 Q 485.9 388.6, 485.4 388.2 Q 484.9 387.8, 484.1 387.8 Q 483.2 387.8, 482.7 388.1 Q 482.2 388.4, 481.8 389.1 L 480.8 388.6 Q 481.1 387.8, 482.0 387.2 Q 482.9 386.6, 484.1 386.6 Q 485.5 386.6, 486.4 387.3 Q 487.3 388.0, 487.3 389.2 Q 487.3 390.0, 486.8 390.6 Q 486.4 391.2, 485.6 391.5 " fill="#000000"/>
<path class="atom-4" d="M 480.8 376.7 L 483.5 376.7 L 483.5 373.8 L 484.7 373.8 L 484.7 376.7 L 487.4 376.7 L 487.4 377.7 L 484.7 377.7 L 484.7 380.5 L 483.5 380.5 L 483.5 377.7 L 480.8 377.7 L 480.8 376.7 " fill="#000000"/>
<path class="atom-0" d="M 264.4,383.7 L 264.4,383.8 L 264.4,383.9 L 264.4,384.0 L 264.3,384.1 L 264.3,384.2 L 264.3,384.3 L 264.2,384.3 L 264.1,384.4 L 264.1,384.5 L 264.0,384.5 L 263.9,384.6 L 263.9,384.6 L 263.8,384.7 L 263.7,384.7 L 263.6,384.8 L 263.5,384.8 L 263.4,384.8 L 263.3,384.8 L 263.2,384.8 L 263.1,384.8 L 263.1,384.8 L 263.0,384.7 L 262.9,384.7 L 262.8,384.7 L 262.7,384.6 L 262.6,384.6 L 262.6,384.5 L 262.5,384.4 L 262.4,384.4 L 262.4,384.3 L 262.3,384.2 L 262.3,384.1 L 262.3,384.0 L 262.3,383.9 L 262.2,383.9 L 262.2,383.8 L 262.2,383.7 L 262.2,383.6 L 262.3,383.5 L 262.3,383.4 L 262.3,383.3 L 262.3,383.2 L 262.4,383.1 L 262.4,383.1 L 262.5,383.0 L 262.6,382.9 L 262.6,382.9 L 262.7,382.8 L 262.8,382.8 L 262.9,382.7 L 263.0,382.7 L 263.1,382.7 L 263.1,382.6 L 263.2,382.6 L 263.3,382.6 L 263.4,382.6 L 263.5,382.7 L 263.6,382.7 L 263.7,382.7 L 263.8,382.7 L 263.9,382.8 L 263.9,382.8 L 264.0,382.9 L 264.1,383.0 L 264.1,383.0 L 264.2,383.1 L 264.3,383.2 L 264.3,383.3 L 264.3,383.4 L 264.4,383.4 L 264.4,383.5 L 264.4,383.6 L 264.4,383.7 L 263.3,383.7 Z" style="fill:#000000;fill-rule:evenodd;fill-opacity:1;stroke:#000000;stroke-width:0.0px;stroke-linecap:butt;stroke-linejoin:miter;stroke-miterlimit:10;stroke-opacity:1;"/>
<path class="atom-0" d="M 264.4,379.4 L 264.4,379.5 L 264.4,379.6 L 264.4,379.7 L 264.3,379.8 L 264.3,379.8 L 264.3,379.9 L 264.2,380.0 L 264.1,380.1 L 264.1,380.1 L 264.0,380.2 L 263.9,380.3 L 263.9,380.3 L 263.8,380.4 L 263.7,380.4 L 263.6,380.4 L 263.5,380.5 L 263.4,380.5 L 263.3,380.5 L 263.2,380.5 L 263.1,380.5 L 263.1,380.4 L 263.0,380.4 L 262.9,380.4 L 262.8,380.3 L 262.7,380.3 L 262.6,380.2 L 262.6,380.2 L 262.5,380.1 L 262.4,380.0 L 262.4,380.0 L 262.3,379.9 L 262.3,379.8 L 262.3,379.7 L 262.3,379.6 L 262.2,379.5 L 262.2,379.4 L 262.2,379.3 L 262.2,379.3 L 262.3,379.2 L 262.3,379.1 L 262.3,379.0 L 262.3,378.9 L 262.4,378.8 L 262.4,378.7 L 262.5,378.7 L 262.6,378.6 L 262.6,378.5 L 262.7,378.5 L 262.8,378.4 L 262.9,378.4 L 263.0,378.4 L 263.1,378.3 L 263.1,378.3 L 263.2,378.3 L 263.3,378.3 L 263.4,378.3 L 263.5,378.3 L 263.6,378.4 L 263.7,378.4 L 263.8,378.4 L 263.9,378.5 L 263.9,378.5 L 264.0,378.6 L 264.1,378.6 L 264.1,378.7 L 264.2,378.8 L 264.3,378.9 L 264.3,378.9 L 264.3,379.0 L 264.4,379.1 L 264.4,379.2 L 264.4,379.3 L 264.4,379.4 L 263.3,379.4 Z" style="fill:#000000;fill-rule:evenodd;fill-opacity:1;stroke:#000000;stroke-width:0.0px;stroke-linecap:butt;stroke-linejoin:miter;stroke-miterlimit:10;stroke-opacity:1;"/>
<path class="atom-1" d="M 319.9,345.2 L 319.9,345.3 L 319.8,345.3 L 319.8,345.4 L 319.8,345.5 L 319.8,345.6 L 319.7,345.7 L 319.7,345.8 L 319.6,345.9 L 319.6,345.9 L 319.5,346.0 L 319.4,346.0 L 319.3,346.1 L 319.3,346.1 L 319.2,346.2 L 319.1,346.2 L 319.0,346.2 L 318.9,346.2 L 318.8,346.2 L 318.7,346.2 L 318.6,346.2 L 318.5,346.2 L 318.4,346.2 L 318.4,346.2 L 318.3,346.1 L 318.2,346.1 L 318.1,346.0 L 318.0,346.0 L 318.0,345.9 L 317.9,345.8 L 317.9,345.7 L 317.8,345.7 L 317.8,345.6 L 317.8,345.5 L 317.7,345.4 L 317.7,345.3 L 317.7,345.2 L 317.7,345.1 L 317.7,345.0 L 317.7,344.9 L 317.8,344.8 L 317.8,344.8 L 317.8,344.7 L 317.9,344.6 L 317.9,344.5 L 318.0,344.4 L 318.0,344.4 L 318.1,344.3 L 318.2,344.3 L 318.3,344.2 L 318.4,344.2 L 318.4,344.1 L 318.5,344.1 L 318.6,344.1 L 318.7,344.1 L 318.8,344.1 L 318.9,344.1 L 319.0,344.1 L 319.1,344.1 L 319.2,344.2 L 319.3,344.2 L 319.3,344.2 L 319.4,344.3 L 319.5,344.3 L 319.6,344.4 L 319.6,344.5 L 319.7,344.6 L 319.7,344.6 L 319.8,344.7 L 319.8,344.8 L 319.8,344.9 L 319.8,345.0 L 319.9,345.1 L 319.9,345.2 L 318.8,345.2 Z" style="fill:#000000;fill-rule:evenodd;fill-opacity:1;stroke:#000000;stroke-width:0.0px;stroke-linecap:butt;stroke-linejoin:miter;stroke-miterlimit:10;stroke-opacity:1;"/>
<path class="atom-1" d="M 315.5,345.2 L 315.5,345.3 L 315.5,345.3 L 315.5,345.4 L 315.5,345.5 L 315.4,345.6 L 315.4,345.7 L 315.3,345.8 L 315.3,345.9 L 315.2,345.9 L 315.2,346.0 L 315.1,346.0 L 315.0,346.1 L 314.9,346.1 L 314.8,346.2 L 314.8,346.2 L 314.7,346.2 L 314.6,346.2 L 314.5,346.2 L 314.4,346.2 L 314.3,346.2 L 314.2,346.2 L 314.1,346.2 L 314.0,346.2 L 313.9,346.1 L 313.9,346.1 L 313.8,346.0 L 313.7,346.0 L 313.7,345.9 L 313.6,345.8 L 313.5,345.7 L 313.5,345.7 L 313.5,345.6 L 313.4,345.5 L 313.4,345.4 L 313.4,345.3 L 313.4,345.2 L 313.4,345.1 L 313.4,345.0 L 313.4,344.9 L 313.4,344.8 L 313.5,344.8 L 313.5,344.7 L 313.5,344.6 L 313.6,344.5 L 313.7,344.4 L 313.7,344.4 L 313.8,344.3 L 313.9,344.3 L 313.9,344.2 L 314.0,344.2 L 314.1,344.1 L 314.2,344.1 L 314.3,344.1 L 314.4,344.1 L 314.5,344.1 L 314.6,344.1 L 314.7,344.1 L 314.8,344.1 L 314.8,344.2 L 314.9,344.2 L 315.0,344.2 L 315.1,344.3 L 315.2,344.3 L 315.2,344.4 L 315.3,344.5 L 315.3,344.6 L 315.4,344.6 L 315.4,344.7 L 315.5,344.8 L 315.5,344.9 L 315.5,345.0 L 315.5,345.1 L 315.5,345.2 L 314.5,345.2 Z" style="fill:#000000;fill-rule:evenodd;fill-opacity:1;stroke:#000000;stroke-width:0.0px;stroke-linecap:butt;stroke-linejoin:miter;stroke-miterlimit:10;stroke-opacity:1;"/>
<path class="bond-0 atom-0 atom-1" d="M 587.7,335.2 L 587.7,386.7" style="fill:none;fill-rule:evenodd;stroke:#000000;stroke-width:2.0px;stroke-linecap:butt;stroke-linejoin:miter;stroke-opacity:1"/>
<path class="bond-0 atom-0 atom-1" d="M 575.7,335.2 L 575.7,386.7" style="fill:none;fill-rule:evenodd;stroke:#000000;stroke-width:2.0px;stroke-linecap:butt;stroke-linejoin:miter;stroke-opacity:1"/>
<path class="bond-1 atom-1 atom-2" d="M 571.8,406.4 L 512.5,440.6" style="fill:none;fill-rule:evenodd;stroke:#000000;stroke-width:2.0px;stroke-linecap:butt;stroke-linejoin:miter;stroke-opacity:1"/>
<path class="bond-2 atom-1 atom-3" d="M 591.6,406.4 L 650.9,440.6" style="fill:none;fill-rule:evenodd;stroke:#000000;stroke-width:2.0px;stroke-linecap:butt;stroke-linejoin:miter;stroke-opacity:1"/>
<path class="bond-3 atom-3 atom-4" d="M 650.9,440.6 L 708.9,407.2" style="fill:none;fill-rule:evenodd;stroke:#000000;stroke-width:2.0px;stroke-linecap:butt;stroke-linejoin:miter;stroke-opacity:1"/>
<path class="bond-3 atom-3 atom-4" d="M 650.9,426.8 L 702.9,396.8" style="fill:none;fill-rule:evenodd;stroke:#000000;stroke-width:2.0px;stroke-linecap:butt;stroke-linejoin:miter;stroke-opacity:1"/>
<path d="M 647.9,438.9 L 650.9,440.6 L 653.8,439.0" style="fill:none;stroke:#000000;stroke-width:2.0px;stroke-linecap:butt;stroke-linejoin:miter;stroke-miterlimit:10;stroke-opacity:1;"/>
<path class="atom-0" d="M 571.3 320.9 Q 571.3 315.4, 574.0 312.4 Q 576.7 309.4, 581.7 309.4 Q 586.7 309.4, 589.4 312.4 Q 592.1 315.4, 592.1 320.9 Q 592.1 326.4, 589.4 329.5 Q 586.6 332.6, 581.7 332.6 Q 576.7 332.6, 574.0 329.5 Q 571.3 326.4, 571.3 320.9 M 581.7 330.0 Q 585.1 330.0, 587.0 327.7 Q 588.9 325.4, 588.9 320.9 Q 588.9 316.4, 587.0 314.2 Q 585.1 311.9, 581.7 311.9 Q 578.2 311.9, 576.4 314.2 Q 574.5 316.4, 574.5 320.9 Q 574.5 325.4, 576.4 327.7 Q 578.2 330.0, 581.7 330.0 " fill="#000000"/>
<path class="atom-0" d="M 595.5 309.6 L 598.5 309.6 L 598.5 319.2 L 610.1 319.2 L 610.1 309.6 L 613.2 309.6 L 613.2 332.2 L 610.1 332.2 L 610.1 321.8 L 598.5 321.8 L 598.5 332.2 L 595.5 332.2 L 595.5 309.6 " fill="#000000"/>
<path class="atom-0" d="M 617.7 313.7 L 621.6 313.7 L 621.6 309.5 L 623.4 309.5 L 623.4 313.7 L 627.5 313.7 L 627.5 315.2 L 623.4 315.2 L 623.4 319.4 L 621.6 319.4 L 621.6 315.2 L 617.7 315.2 L 617.7 313.7 " fill="#000000"/>
<path class="atom-1" d="M 581.1 389.4 Q 585.0 389.4, 587.0 391.1 Q 588.9 392.9, 588.9 396.0 Q 588.9 399.2, 586.9 401.0 Q 584.9 402.7, 581.1 402.7 L 577.5 402.7 L 577.5 412.0 L 574.5 412.0 L 574.5 389.4 L 581.1 389.4 M 581.1 400.2 Q 583.4 400.2, 584.5 399.1 Q 585.7 398.0, 585.7 396.0 Q 585.7 394.0, 584.5 393.0 Q 583.4 391.9, 581.1 391.9 L 577.5 391.9 L 577.5 400.2 L 581.1 400.2 " fill="#000000"/>
<path class="atom-1" d="M 572.8 414.3 L 575.9 414.3 L 575.9 423.9 L 587.5 423.9 L 587.5 414.3 L 590.5 414.3 L 590.5 436.9 L 587.5 436.9 L 587.5 426.4 L 575.9 426.4 L 575.9 436.9 L 572.8 436.9 L 572.8 414.3 " fill="#000000"/>
<path class="atom-4" d="M 712.1 384.2 L 719.5 396.2 Q 720.2 397.4, 721.4 399.5 Q 722.6 401.6, 722.7 401.8 L 722.7 384.2 L 725.7 384.2 L 725.7 406.8 L 722.6 406.8 L 714.6 393.7 Q 713.7 392.2, 712.7 390.4 Q 711.7 388.7, 711.4 388.1 L 711.4 406.8 L 708.5 406.8 L 708.5 384.2 L 712.1 384.2 " fill="#000000"/>
<path class="atom-4" d="M 729.8 387.9 L 737.5 387.9 L 737.5 389.6 L 729.8 389.6 L 729.8 387.9 " fill="#000000"/>
<path class="bond-0 atom-0 atom-1" d="M 201.6,641.7 L 143.1,608.0" style="fill:none;fill-rule:evenodd;stroke:#000000;stroke-width:2.0px;stroke-linecap:butt;stroke-linejoin:miter;stroke-opacity:1"/>
<path class="bond-1 atom-1 atom-2" d="M 119.6,608.0 L 70.0,636.6" style="fill:none;fill-rule:evenodd;stroke:#000000;stroke-width:2.0px;stroke-linecap:butt;stroke-linejoin:miter;stroke-opacity:1"/>
<path class="atom-0" d="M 217.8 648.1 Q 220.4 648.8, 221.7 650.4 Q 223.0 652.0, 223.0 654.3 Q 223.0 658.1, 220.6 660.2 Q 218.3 662.3, 213.8 662.3 L 204.7 662.3 L 204.7 635.3 L 212.7 635.3 Q 217.3 635.3, 219.6 637.2 Q 221.9 639.1, 221.9 642.5 Q 221.9 646.6, 217.8 648.1 M 208.3 638.4 L 208.3 646.8 L 212.7 646.8 Q 215.3 646.8, 216.7 645.8 Q 218.1 644.7, 218.1 642.5 Q 218.1 638.4, 212.7 638.4 L 208.3 638.4 M 213.8 659.2 Q 216.4 659.2, 217.8 658.0 Q 219.2 656.7, 219.2 654.3 Q 219.2 652.1, 217.7 651.0 Q 216.1 649.9, 213.2 649.9 L 208.3 649.9 L 208.3 659.2 L 213.8 659.2 " fill="#000000"/>
<path class="atom-0" d="M 229.2 642.7 L 229.6 645.4 Q 231.6 642.4, 235.0 642.4 Q 236.1 642.4, 237.5 642.8 L 236.9 646.0 Q 235.3 645.6, 234.4 645.6 Q 232.8 645.6, 231.7 646.2 Q 230.7 646.8, 229.8 648.3 L 229.8 662.3 L 226.3 662.3 L 226.3 642.7 L 229.2 642.7 " fill="#000000"/>
<path class="atom-1" d="M 130.7 587.7 Q 135.4 587.7, 137.7 589.8 Q 140.0 591.9, 140.0 595.6 Q 140.0 599.4, 137.6 601.5 Q 135.2 603.6, 130.7 603.6 L 126.4 603.6 L 126.4 614.7 L 122.8 614.7 L 122.8 587.7 L 130.7 587.7 M 130.7 600.5 Q 133.4 600.5, 134.8 599.3 Q 136.2 598.0, 136.2 595.6 Q 136.2 593.2, 134.8 592.0 Q 133.4 590.8, 130.7 590.8 L 126.4 590.8 L 126.4 600.5 L 130.7 600.5 " fill="#000000"/>
<path class="atom-2" d="M 12.5 635.3 L 16.2 635.3 L 16.2 646.8 L 29.9 646.8 L 29.9 635.3 L 33.6 635.3 L 33.6 662.3 L 29.9 662.3 L 29.9 649.8 L 16.2 649.8 L 16.2 662.3 L 12.5 662.3 L 12.5 635.3 " fill="#000000"/>
<path class="atom-2" d="M 43.0 635.3 L 51.8 649.6 Q 52.7 651.0, 54.1 653.6 Q 55.5 656.1, 55.6 656.3 L 55.6 635.3 L 59.1 635.3 L 59.1 662.3 L 55.5 662.3 L 46.0 646.7 Q 44.9 644.8, 43.7 642.8 Q 42.5 640.7, 42.2 640.0 L 42.2 662.3 L 38.7 662.3 L 38.7 635.3 L 43.0 635.3 " fill="#000000"/>
<path class="atom-2" d="M 64.2 639.8 L 73.4 639.8 L 73.4 641.8 L 64.2 641.8 L 64.2 639.8 " fill="#000000"/>
<path class="atom-1" d="M 147.6,601.2 L 147.6,601.4 L 147.6,601.5 L 147.6,601.7 L 147.5,601.8 L 147.5,602.0 L 147.4,602.1 L 147.3,602.3 L 147.2,602.4 L 147.1,602.5 L 147.0,602.6 L 146.8,602.7 L 146.7,602.8 L 146.6,602.9 L 146.4,603.0 L 146.2,603.0 L 146.1,603.1 L 145.9,603.1 L 145.8,603.1 L 145.6,603.1 L 145.4,603.1 L 145.3,603.0 L 145.1,603.0 L 145.0,602.9 L 144.8,602.9 L 144.7,602.8 L 144.5,602.7 L 144.4,602.6 L 144.3,602.5 L 144.2,602.3 L 144.1,602.2 L 144.0,602.1 L 144.0,601.9 L 143.9,601.8 L 143.9,601.6 L 143.8,601.4 L 143.8,601.3 L 143.8,601.1 L 143.8,600.9 L 143.9,600.8 L 143.9,600.6 L 144.0,600.5 L 144.0,600.3 L 144.1,600.2 L 144.2,600.0 L 144.3,599.9 L 144.4,599.8 L 144.5,599.7 L 144.7,599.6 L 144.8,599.5 L 145.0,599.4 L 145.1,599.4 L 145.3,599.3 L 145.4,599.3 L 145.6,599.3 L 145.8,599.3 L 145.9,599.3 L 146.1,599.3 L 146.2,599.4 L 146.4,599.4 L 146.6,599.5 L 146.7,599.6 L 146.8,599.6 L 147.0,599.7 L 147.1,599.9 L 147.2,600.0 L 147.3,600.1 L 147.4,600.3 L 147.5,600.4 L 147.5,600.5 L 147.6,600.7 L 147.6,600.9 L 147.6,601.0 L 147.6,601.2 L 145.7,601.2 Z" style="fill:#000000;fill-rule:evenodd;fill-opacity:1;stroke:#000000;stroke-width:0.0px;stroke-linecap:butt;stroke-linejoin:miter;stroke-miterlimit:10;stroke-opacity:1;"/>
<path class="atom-0" d="M 345.9 603.6 L 355.2 618.6 Q 356.1 620.1, 357.6 622.8 Q 359.1 625.5, 359.2 625.6 L 359.2 603.6 L 362.9 603.6 L 362.9 631.9 L 359.0 631.9 L 349.1 615.5 Q 347.9 613.6, 346.7 611.4 Q 345.5 609.2, 345.1 608.5 L 345.1 631.9 L 341.4 631.9 L 341.4 603.6 L 345.9 603.6 " fill="#000000"/>
<path class="atom-0" d="M 368.3 603.6 L 372.2 603.6 L 372.2 615.7 L 386.7 615.7 L 386.7 603.6 L 390.5 603.6 L 390.5 631.9 L 386.7 631.9 L 386.7 618.9 L 372.2 618.9 L 372.2 631.9 L 368.3 631.9 L 368.3 603.6 " fill="#000000"/>
<path class="atom-0" d="M 405.0 636.3 Q 406.8 636.8, 407.7 638.0 Q 408.6 639.1, 408.6 641.0 Q 408.6 642.6, 407.8 643.8 Q 407.0 645.0, 405.5 645.7 Q 404.1 646.4, 402.2 646.4 Q 400.2 646.4, 398.7 645.7 Q 397.2 645.0, 396.0 643.5 L 397.5 642.0 Q 398.7 643.3, 399.6 643.8 Q 400.6 644.3, 402.2 644.3 Q 403.9 644.3, 404.9 643.4 Q 405.9 642.4, 405.9 641.0 Q 405.9 639.1, 404.8 638.2 Q 403.8 637.3, 401.5 637.3 L 400.1 637.3 L 400.1 635.4 L 401.3 635.4 Q 403.4 635.4, 404.4 634.5 Q 405.5 633.6, 405.5 632.0 Q 405.5 630.8, 404.6 630.1 Q 403.7 629.3, 402.2 629.3 Q 400.6 629.3, 399.7 629.9 Q 398.7 630.4, 398.0 631.8 L 396.1 630.8 Q 396.8 629.3, 398.4 628.3 Q 400.0 627.2, 402.2 627.2 Q 404.9 627.2, 406.5 628.5 Q 408.2 629.8, 408.2 632.0 Q 408.2 633.5, 407.3 634.6 Q 406.5 635.7, 405.0 636.3 " fill="#000000"/>
<path class="bond-0 atom-0 atom-1" d="M 718.7,638.8 L 708.3,613.8" style="fill:none;fill-rule:evenodd;stroke:#000000;stroke-width:2.0px;stroke-linecap:butt;stroke-linejoin:miter;stroke-opacity:1"/>
<path class="bond-1 atom-1 atom-2" d="M 699.4,613.8 L 678.7,640.8" style="fill:none;fill-rule:evenodd;stroke:#000000;stroke-width:2.0px;stroke-linecap:butt;stroke-linejoin:miter;stroke-opacity:1"/>
<path class="bond-1 atom-1 atom-2" d="M 704.5,617.8 L 690.8,635.7" style="fill:none;fill-rule:evenodd;stroke:#000000;stroke-width:2.0px;stroke-linecap:butt;stroke-linejoin:miter;stroke-opacity:1"/>
<path class="bond-2 atom-2 atom-3" d="M 678.7,640.8 L 650.8,652.3" style="fill:none;fill-rule:evenodd;stroke:#000000;stroke-width:2.0px;stroke-linecap:butt;stroke-linejoin:miter;stroke-opacity:1"/>
<path class="bond-3 atom-3 atom-4" d="M 631.1,655.9 L 607.3,637.7" style="fill:none;fill-rule:evenodd;stroke:#000000;stroke-width:2.0px;stroke-linecap:butt;stroke-linejoin:miter;stroke-opacity:1"/>
<path class="bond-3 atom-3 atom-4" d="M 635.1,650.7 L 611.3,632.5" style="fill:none;fill-rule:evenodd;stroke:#000000;stroke-width:2.0px;stroke-linecap:butt;stroke-linejoin:miter;stroke-opacity:1"/>
<path class="bond-4 atom-4 atom-5" d="M 598.5,633.2 L 563.7,647.6" style="fill:none;fill-rule:evenodd;stroke:#000000;stroke-width:2.0px;stroke-linecap:butt;stroke-linejoin:miter;stroke-opacity:1"/>
<path class="bond-5 atom-5 atom-6" d="M 563.7,647.6 L 535.3,625.8" style="fill:none;fill-rule:evenodd;stroke:#000000;stroke-width:2.0px;stroke-linecap:butt;stroke-linejoin:miter;stroke-opacity:1"/>
<path class="bond-6 atom-2 atom-0" d="M 678.7,640.8 L 715.8,645.6" style="fill:none;fill-rule:evenodd;stroke:#000000;stroke-width:2.0px;stroke-linecap:butt;stroke-linejoin:miter;stroke-opacity:1"/>
<path d="M 565.4,646.9 L 563.7,647.6 L 562.3,646.5" style="fill:none;stroke:#000000;stroke-width:2.0px;stroke-linecap:butt;stroke-linejoin:miter;stroke-miterlimit:10;stroke-opacity:1;"/>
<path class="atom-0" d="M 719.1 640.3 L 723.2 646.8 Q 723.6 647.4, 724.2 648.6 Q 724.9 649.8, 724.9 649.8 L 724.9 640.3 L 726.5 640.3 L 726.5 652.6 L 724.9 652.6 L 720.5 645.4 Q 720.0 644.6, 719.5 643.7 Q 719.0 642.7, 718.8 642.4 L 718.8 652.6 L 717.2 652.6 L 717.2 640.3 L 719.1 640.3 " fill="#000000"/>
<path class="atom-0" d="M 728.9 642.5 L 731.0 642.5 L 731.0 640.2 L 732.0 640.2 L 732.0 642.5 L 734.2 642.5 L 734.2 643.3 L 732.0 643.3 L 732.0 645.6 L 731.0 645.6 L 731.0 643.3 L 728.9 643.3 L 728.9 642.5 " fill="#000000"/>
<path class="atom-1" d="M 702.5 600.0 L 706.5 606.6 Q 706.9 607.2, 707.6 608.4 Q 708.2 609.5, 708.2 609.6 L 708.2 600.0 L 709.9 600.0 L 709.9 612.4 L 708.2 612.4 L 703.8 605.2 Q 703.3 604.4, 702.8 603.4 Q 702.3 602.5, 702.1 602.2 L 702.1 612.4 L 700.5 612.4 L 700.5 600.0 L 702.5 600.0 " fill="#000000"/>
<path class="atom-1" d="M 700.4 586.5 L 702.0 586.5 L 702.0 591.7 L 708.3 591.7 L 708.3 586.5 L 710.0 586.5 L 710.0 598.8 L 708.3 598.8 L 708.3 593.1 L 702.0 593.1 L 702.0 598.8 L 700.4 598.8 L 700.4 586.5 " fill="#000000"/>
<path class="atom-1" d="M 712.4 588.7 L 714.6 588.7 L 714.6 586.4 L 715.5 586.4 L 715.5 588.7 L 717.8 588.7 L 717.8 589.5 L 715.5 589.5 L 715.5 591.8 L 714.6 591.8 L 714.6 589.5 L 712.4 589.5 L 712.4 588.7 " fill="#000000"/>
<path class="atom-3" d="M 638.2 651.3 Q 640.3 651.3, 641.4 652.2 Q 642.4 653.2, 642.4 654.9 Q 642.4 656.6, 641.3 657.6 Q 640.2 658.5, 638.2 658.5 L 636.2 658.5 L 636.2 663.6 L 634.5 663.6 L 634.5 651.3 L 638.2 651.3 M 638.2 657.1 Q 639.4 657.1, 640.0 656.6 Q 640.7 656.0, 640.7 654.9 Q 640.7 653.8, 640.0 653.2 Q 639.4 652.7, 638.2 652.7 L 636.2 652.7 L 636.2 657.1 L 638.2 657.1 " fill="#000000"/>
<path class="atom-3" d="M 644.0 653.5 L 646.2 653.5 L 646.2 651.2 L 647.2 651.2 L 647.2 653.5 L 649.4 653.5 L 649.4 654.3 L 647.2 654.3 L 647.2 656.6 L 646.2 656.6 L 646.2 654.3 L 644.0 654.3 L 644.0 653.5 " fill="#000000"/>
<path class="atom-4" d="M 600.4 635.2 Q 600.6 635.2, 601.2 635.5 Q 601.7 635.7, 602.4 635.9 Q 603.0 636.0, 603.6 636.0 Q 604.8 636.0, 605.5 635.4 Q 606.2 634.9, 606.2 633.9 Q 606.2 633.2, 605.8 632.8 Q 605.5 632.4, 605.0 632.1 Q 604.4 631.9, 603.6 631.6 Q 602.5 631.3, 601.8 631.0 Q 601.2 630.7, 600.7 630.0 Q 600.2 629.4, 600.2 628.3 Q 600.2 626.7, 601.3 625.7 Q 602.3 624.8, 604.4 624.8 Q 605.9 624.8, 607.5 625.5 L 607.1 626.8 Q 605.6 626.2, 604.5 626.2 Q 603.3 626.2, 602.6 626.7 Q 602.0 627.2, 602.0 628.0 Q 602.0 628.7, 602.3 629.1 Q 602.7 629.5, 603.1 629.7 Q 603.6 630.0, 604.5 630.2 Q 605.6 630.6, 606.3 630.9 Q 606.9 631.3, 607.4 632.0 Q 607.9 632.7, 607.9 633.9 Q 607.9 635.6, 606.7 636.5 Q 605.6 637.4, 603.7 637.4 Q 602.6 637.4, 601.8 637.2 Q 600.9 636.9, 600.0 636.5 L 600.4 635.2 " fill="#000000"/>
<path class="atom-4" d="M 599.1 610.9 L 600.8 610.9 L 600.8 616.1 L 607.1 616.1 L 607.1 610.9 L 608.8 610.9 L 608.8 623.2 L 607.1 623.2 L 607.1 617.5 L 600.8 617.5 L 600.8 623.2 L 599.1 623.2 L 599.1 610.9 " fill="#000000"/>
<path class="atom-6" d="M 512.5 615.0 L 514.2 615.0 L 514.2 620.2 L 520.5 620.2 L 520.5 615.0 L 522.1 615.0 L 522.1 627.3 L 520.5 627.3 L 520.5 621.6 L 514.2 621.6 L 514.2 627.3 L 512.5 627.3 L 512.5 615.0 " fill="#000000"/>
<path class="atom-6" d="M 526.4 615.0 L 530.5 621.5 Q 530.9 622.1, 531.5 623.3 Q 532.2 624.5, 532.2 624.5 L 532.2 615.0 L 533.8 615.0 L 533.8 627.3 L 532.1 627.3 L 527.8 620.1 Q 527.3 619.3, 526.8 618.3 Q 526.2 617.4, 526.1 617.1 L 526.1 627.3 L 524.5 627.3 L 524.5 615.0 L 526.4 615.0 " fill="#000000"/>
<path class="atom-6" d="M 536.1 617.0 L 540.3 617.0 L 540.3 617.9 L 536.1 617.9 L 536.1 617.0 " fill="#000000"/>
<path class="atom-0" d="M 737.7,648.2 L 737.7,648.2 L 737.7,648.3 L 737.7,648.4 L 737.7,648.5 L 737.6,648.5 L 737.6,648.6 L 737.6,648.7 L 737.5,648.7 L 737.5,648.8 L 737.4,648.8 L 737.4,648.9 L 737.3,648.9 L 737.2,648.9 L 737.2,649.0 L 737.1,649.0 L 737.0,649.0 L 736.9,649.0 L 736.9,649.0 L 736.8,649.0 L 736.7,649.0 L 736.6,649.0 L 736.6,649.0 L 736.5,649.0 L 736.4,648.9 L 736.4,648.9 L 736.3,648.8 L 736.3,648.8 L 736.2,648.7 L 736.2,648.7 L 736.1,648.6 L 736.1,648.6 L 736.0,648.5 L 736.0,648.4 L 736.0,648.3 L 736.0,648.3 L 736.0,648.2 L 736.0,648.1 L 736.0,648.1 L 736.0,648.0 L 736.0,647.9 L 736.0,647.8 L 736.1,647.8 L 736.1,647.7 L 736.2,647.6 L 736.2,647.6 L 736.3,647.5 L 736.3,647.5 L 736.4,647.4 L 736.4,647.4 L 736.5,647.4 L 736.6,647.3 L 736.6,647.3 L 736.7,647.3 L 736.8,647.3 L 736.9,647.3 L 736.9,647.3 L 737.0,647.3 L 737.1,647.3 L 737.2,647.3 L 737.2,647.4 L 737.3,647.4 L 737.4,647.5 L 737.4,647.5 L 737.5,647.6 L 737.5,647.6 L 737.6,647.7 L 737.6,647.7 L 737.6,647.8 L 737.7,647.9 L 737.7,647.9 L 737.7,648.0 L 737.7,648.1 L 737.7,648.2 L 736.8,648.2 Z" style="fill:#000000;fill-rule:evenodd;fill-opacity:1;stroke:#000000;stroke-width:0.0px;stroke-linecap:butt;stroke-linejoin:miter;stroke-miterlimit:10;stroke-opacity:1;"/>
<path class="atom-0" d="M 737.7,644.7 L 737.7,644.8 L 737.7,644.8 L 737.7,644.9 L 737.7,645.0 L 737.6,645.0 L 737.6,645.1 L 737.6,645.2 L 737.5,645.2 L 737.5,645.3 L 737.4,645.3 L 737.4,645.4 L 737.3,645.4 L 737.2,645.5 L 737.2,645.5 L 737.1,645.5 L 737.0,645.5 L 736.9,645.5 L 736.9,645.6 L 736.8,645.5 L 736.7,645.5 L 736.6,645.5 L 736.6,645.5 L 736.5,645.5 L 736.4,645.4 L 736.4,645.4 L 736.3,645.4 L 736.3,645.3 L 736.2,645.3 L 736.2,645.2 L 736.1,645.1 L 736.1,645.1 L 736.0,645.0 L 736.0,644.9 L 736.0,644.9 L 736.0,644.8 L 736.0,644.7 L 736.0,644.6 L 736.0,644.6 L 736.0,644.5 L 736.0,644.4 L 736.0,644.4 L 736.1,644.3 L 736.1,644.2 L 736.2,644.2 L 736.2,644.1 L 736.3,644.0 L 736.3,644.0 L 736.4,644.0 L 736.4,643.9 L 736.5,643.9 L 736.6,643.9 L 736.6,643.8 L 736.7,643.8 L 736.8,643.8 L 736.9,643.8 L 736.9,643.8 L 737.0,643.8 L 737.1,643.8 L 737.2,643.9 L 737.2,643.9 L 737.3,643.9 L 737.4,644.0 L 737.4,644.0 L 737.5,644.1 L 737.5,644.1 L 737.6,644.2 L 737.6,644.2 L 737.6,644.3 L 737.7,644.4 L 737.7,644.5 L 737.7,644.5 L 737.7,644.6 L 737.7,644.7 L 736.8,644.7 Z" style="fill:#000000;fill-rule:evenodd;fill-opacity:1;stroke:#000000;stroke-width:0.0px;stroke-linecap:butt;stroke-linejoin:miter;stroke-miterlimit:10;stroke-opacity:1;"/>
<path class="atom-3" d="M 652.9,657.4 L 652.9,657.5 L 652.9,657.6 L 652.9,657.7 L 652.8,657.7 L 652.8,657.8 L 652.8,657.9 L 652.7,657.9 L 652.7,658.0 L 652.6,658.0 L 652.6,658.1 L 652.5,658.1 L 652.5,658.2 L 652.4,658.2 L 652.3,658.2 L 652.3,658.3 L 652.2,658.3 L 652.1,658.3 L 652.0,658.3 L 652.0,658.3 L 651.9,658.3 L 651.8,658.3 L 651.7,658.3 L 651.7,658.2 L 651.6,658.2 L 651.5,658.2 L 651.5,658.1 L 651.4,658.1 L 651.4,658.0 L 651.3,658.0 L 651.3,657.9 L 651.2,657.8 L 651.2,657.8 L 651.2,657.7 L 651.2,657.6 L 651.2,657.5 L 651.1,657.5 L 651.1,657.4 L 651.2,657.3 L 651.2,657.2 L 651.2,657.2 L 651.2,657.1 L 651.2,657.0 L 651.3,657.0 L 651.3,656.9 L 651.4,656.8 L 651.4,656.8 L 651.5,656.7 L 651.5,656.7 L 651.6,656.7 L 651.7,656.6 L 651.7,656.6 L 651.8,656.6 L 651.9,656.6 L 652.0,656.6 L 652.0,656.6 L 652.1,656.6 L 652.2,656.6 L 652.3,656.6 L 652.3,656.6 L 652.4,656.6 L 652.5,656.7 L 652.5,656.7 L 652.6,656.8 L 652.6,656.8 L 652.7,656.9 L 652.7,656.9 L 652.8,657.0 L 652.8,657.1 L 652.8,657.1 L 652.9,657.2 L 652.9,657.3 L 652.9,657.4 L 652.9,657.4 L 652.0,657.4 Z" style="fill:#000000;fill-rule:evenodd;fill-opacity:1;stroke:#000000;stroke-width:0.0px;stroke-linecap:butt;stroke-linejoin:miter;stroke-miterlimit:10;stroke-opacity:1;"/>
<path class="atom-5" d="M 566.3,651.5 L 566.3,651.6 L 566.3,651.7 L 566.3,651.8 L 566.3,651.8 L 566.2,651.9 L 566.2,652.0 L 566.2,652.0 L 566.1,652.1 L 566.1,652.1 L 566.0,652.2 L 566.0,652.2 L 565.9,652.3 L 565.8,652.3 L 565.8,652.3 L 565.7,652.4 L 565.6,652.4 L 565.5,652.4 L 565.5,652.4 L 565.4,652.4 L 565.3,652.4 L 565.2,652.4 L 565.2,652.4 L 565.1,652.3 L 565.0,652.3 L 565.0,652.3 L 564.9,652.2 L 564.9,652.2 L 564.8,652.1 L 564.8,652.1 L 564.7,652.0 L 564.7,651.9 L 564.6,651.9 L 564.6,651.8 L 564.6,651.7 L 564.6,651.6 L 564.6,651.6 L 564.6,651.5 L 564.6,651.4 L 564.6,651.3 L 564.6,651.3 L 564.6,651.2 L 564.7,651.1 L 564.7,651.1 L 564.8,651.0 L 564.8,650.9 L 564.9,650.9 L 564.9,650.8 L 565.0,650.8 L 565.0,650.8 L 565.1,650.7 L 565.2,650.7 L 565.2,650.7 L 565.3,650.7 L 565.4,650.7 L 565.5,650.7 L 565.5,650.7 L 565.6,650.7 L 565.7,650.7 L 565.8,650.7 L 565.8,650.7 L 565.9,650.8 L 566.0,650.8 L 566.0,650.9 L 566.1,650.9 L 566.1,651.0 L 566.2,651.0 L 566.2,651.1 L 566.2,651.2 L 566.3,651.2 L 566.3,651.3 L 566.3,651.4 L 566.3,651.5 L 566.3,651.5 L 565.4,651.5 Z" style="fill:#000000;fill-rule:evenodd;fill-opacity:1;stroke:#000000;stroke-width:0.0px;stroke-linecap:butt;stroke-linejoin:miter;stroke-miterlimit:10;stroke-opacity:1;"/>
<path class="atom-5" d="M 562.8,651.5 L 562.8,651.6 L 562.8,651.7 L 562.8,651.8 L 562.8,651.8 L 562.8,651.9 L 562.7,652.0 L 562.7,652.0 L 562.6,652.1 L 562.6,652.1 L 562.5,652.2 L 562.5,652.2 L 562.4,652.3 L 562.3,652.3 L 562.3,652.3 L 562.2,652.4 L 562.1,652.4 L 562.1,652.4 L 562.0,652.4 L 561.9,652.4 L 561.8,652.4 L 561.8,652.4 L 561.7,652.4 L 561.6,652.3 L 561.5,652.3 L 561.5,652.3 L 561.4,652.2 L 561.4,652.2 L 561.3,652.1 L 561.3,652.1 L 561.2,652.0 L 561.2,651.9 L 561.2,651.9 L 561.1,651.8 L 561.1,651.7 L 561.1,651.6 L 561.1,651.6 L 561.1,651.5 L 561.1,651.4 L 561.1,651.3 L 561.1,651.3 L 561.2,651.2 L 561.2,651.1 L 561.2,651.1 L 561.3,651.0 L 561.3,650.9 L 561.4,650.9 L 561.4,650.8 L 561.5,650.8 L 561.5,650.8 L 561.6,650.7 L 561.7,650.7 L 561.8,650.7 L 561.8,650.7 L 561.9,650.7 L 562.0,650.7 L 562.1,650.7 L 562.1,650.7 L 562.2,650.7 L 562.3,650.7 L 562.3,650.7 L 562.4,650.8 L 562.5,650.8 L 562.5,650.9 L 562.6,650.9 L 562.6,651.0 L 562.7,651.0 L 562.7,651.1 L 562.8,651.2 L 562.8,651.2 L 562.8,651.3 L 562.8,651.4 L 562.8,651.5 L 562.8,651.5 L 562.0,651.5 Z" style="fill:#000000;fill-rule:evenodd;fill-opacity:1;stroke:#000000;stroke-width:0.0px;stroke-linecap:butt;stroke-linejoin:miter;stroke-miterlimit:10;stroke-opacity:1;"/>
</svg>