<svg xmlns="http://www.w3.org/2000/svg" xmlns:rdkit="http://www.rdkit.org/xml" xmlns:xlink="http://www.w3.org/1999/xlink" version="1.1" baseProfile="full" xml:space="preserve" width="750px" height="750px" viewBox="0 0 750 750">
<!-- END OF HEADER -->
<rect style="opacity:1.0;fill:#FFFFFF;stroke:none" width="250.0" height="250.0" x="0.0" y="0.0"> </rect>
<path class="bond-0 atom-0 atom-1" d="M 211.5,122.0 L 186.8,135.4" style="fill:none;fill-rule:evenodd;stroke:#000000;stroke-width:2.0px;stroke-linecap:butt;stroke-linejoin:miter;stroke-opacity:1"/>
<path class="bond-1 atom-1 atom-2" d="M 186.8,135.4 L 162.4,120.4" style="fill:none;fill-rule:evenodd;stroke:#000000;stroke-width:2.0px;stroke-linecap:butt;stroke-linejoin:miter;stroke-opacity:1"/>
<path class="bond-2 atom-2 atom-3" d="M 154.2,120.1 L 139.5,128.0" style="fill:none;fill-rule:evenodd;stroke:#000000;stroke-width:2.0px;stroke-linecap:butt;stroke-linejoin:miter;stroke-opacity:1"/>
<path class="bond-3 atom-3 atom-4" d="M 124.2,130.9 L 104.5,118.8" style="fill:none;fill-rule:evenodd;stroke:#000000;stroke-width:2.0px;stroke-linecap:butt;stroke-linejoin:miter;stroke-opacity:1"/>
<path class="bond-4 atom-4 atom-5" d="M 96.3,118.5 L 75.7,129.6" style="fill:none;fill-rule:evenodd;stroke:#000000;stroke-width:2.0px;stroke-linecap:butt;stroke-linejoin:miter;stroke-opacity:1"/>
<path class="bond-5 atom-5 atom-6" d="M 66.3,129.3 L 46.7,117.2" style="fill:none;fill-rule:evenodd;stroke:#000000;stroke-width:2.0px;stroke-linecap:butt;stroke-linejoin:miter;stroke-opacity:1"/>
<path class="bond-6 atom-6 atom-7" d="M 38.4,116.9 L 14.9,129.6" style="fill:none;fill-rule:evenodd;stroke:#000000;stroke-width:2.0px;stroke-linecap:butt;stroke-linejoin:miter;stroke-opacity:1"/>
<path d="M 188.0,134.7 L 186.8,135.4 L 185.6,134.6" style="fill:none;stroke:#000000;stroke-width:2.0px;stroke-linecap:butt;stroke-linejoin:miter;stroke-miterlimit:10;stroke-opacity:1;"/>
<path class="atom-0" d="M 214.1 114.7 L 217.2 119.8 Q 217.5 120.2, 218.0 121.1 Q 218.5 122.0, 218.5 122.1 L 218.5 114.7 L 219.8 114.7 L 219.8 124.2 L 218.5 124.2 L 215.1 118.7 Q 214.8 118.1, 214.3 117.3 Q 213.9 116.6, 213.8 116.4 L 213.8 124.2 L 212.6 124.2 L 212.6 114.7 L 214.1 114.7 " fill="#000000"/>
<path class="atom-0" d="M 221.6 114.7 L 222.8 114.7 L 222.8 118.8 L 227.7 118.8 L 227.7 114.7 L 229.0 114.7 L 229.0 124.2 L 227.7 124.2 L 227.7 119.8 L 222.8 119.8 L 222.8 124.2 L 221.6 124.2 L 221.6 114.7 " fill="#000000"/>
<path class="atom-0" d="M 230.8 123.9 Q 231.0 123.3, 231.6 123.0 Q 232.1 122.6, 232.9 122.6 Q 233.8 122.6, 234.4 123.1 Q 234.9 123.6, 234.9 124.6 Q 234.9 125.5, 234.2 126.3 Q 233.5 127.2, 232.1 128.2 L 235.0 128.2 L 235.0 128.9 L 230.8 128.9 L 230.8 128.3 Q 231.9 127.5, 232.6 126.9 Q 233.3 126.3, 233.7 125.7 Q 234.0 125.2, 234.0 124.6 Q 234.0 124.0, 233.7 123.7 Q 233.4 123.3, 232.9 123.3 Q 232.4 123.3, 232.0 123.5 Q 231.7 123.7, 231.5 124.2 L 230.8 123.9 " fill="#000000"/>
<path class="atom-0" d="M 230.8 116.4 L 232.5 116.4 L 232.5 114.7 L 233.2 114.7 L 233.2 116.4 L 234.9 116.4 L 234.9 117.1 L 233.2 117.1 L 233.2 118.8 L 232.5 118.8 L 232.5 117.1 L 230.8 117.1 L 230.8 116.4 " fill="#000000"/>
<path class="atom-2" d="M 155.6 121.1 Q 155.7 121.1, 156.2 121.3 Q 156.6 121.5, 157.1 121.6 Q 157.6 121.7, 158.1 121.7 Q 159.0 121.7, 159.5 121.3 Q 160.0 120.9, 160.0 120.1 Q 160.0 119.6, 159.7 119.3 Q 159.5 119.0, 159.1 118.8 Q 158.7 118.6, 158.0 118.4 Q 157.2 118.2, 156.7 117.9 Q 156.2 117.7, 155.8 117.2 Q 155.5 116.7, 155.5 115.8 Q 155.5 114.6, 156.3 113.9 Q 157.1 113.1, 158.7 113.1 Q 159.8 113.1, 161.0 113.7 L 160.7 114.7 Q 159.6 114.2, 158.7 114.2 Q 157.8 114.2, 157.3 114.6 Q 156.8 115.0, 156.8 115.6 Q 156.8 116.1, 157.1 116.5 Q 157.3 116.8, 157.7 116.9 Q 158.1 117.1, 158.7 117.3 Q 159.6 117.6, 160.1 117.8 Q 160.6 118.1, 161.0 118.7 Q 161.3 119.2, 161.3 120.1 Q 161.3 121.4, 160.5 122.1 Q 159.6 122.8, 158.1 122.8 Q 157.3 122.8, 156.6 122.6 Q 156.0 122.5, 155.3 122.2 L 155.6 121.1 " fill="#000000"/>
<path class="atom-2" d="M 162.6 114.7 L 164.2 114.7 L 164.2 112.9 L 165.0 112.9 L 165.0 114.7 L 166.7 114.7 L 166.7 115.3 L 165.0 115.3 L 165.0 117.1 L 164.2 117.1 L 164.2 115.3 L 162.6 115.3 L 162.6 114.7 " fill="#000000"/>
<path class="atom-3" d="M 126.8 129.0 L 129.9 134.0 Q 130.2 134.5, 130.7 135.4 Q 131.2 136.3, 131.2 136.4 L 131.2 129.0 L 132.5 129.0 L 132.5 138.5 L 131.2 138.5 L 127.9 133.0 Q 127.5 132.4, 127.1 131.6 Q 126.7 130.9, 126.5 130.7 L 126.5 138.5 L 125.3 138.5 L 125.3 129.0 L 126.8 129.0 " fill="#000000"/>
<path class="atom-3" d="M 134.3 130.7 L 135.9 130.7 L 135.9 129.0 L 136.7 129.0 L 136.7 130.7 L 138.4 130.7 L 138.4 131.4 L 136.7 131.4 L 136.7 133.1 L 135.9 133.1 L 135.9 131.4 L 134.3 131.4 L 134.3 130.7 " fill="#000000"/>
<path class="atom-3" d="M 125.2 139.4 L 126.5 139.4 L 126.5 143.5 L 131.3 143.5 L 131.3 139.4 L 132.6 139.4 L 132.6 148.9 L 131.3 148.9 L 131.3 144.5 L 126.5 144.5 L 126.5 148.9 L 125.2 148.9 L 125.2 139.4 " fill="#000000"/>
<path class="atom-4" d="M 100.2 111.5 Q 101.8 111.5, 102.6 112.2 Q 103.4 113.0, 103.4 114.3 Q 103.4 115.6, 102.6 116.3 Q 101.8 117.1, 100.2 117.1 L 98.7 117.1 L 98.7 121.0 L 97.4 121.0 L 97.4 111.5 L 100.2 111.5 M 100.2 116.0 Q 101.1 116.0, 101.6 115.6 Q 102.1 115.1, 102.1 114.3 Q 102.1 113.4, 101.6 113.0 Q 101.1 112.6, 100.2 112.6 L 98.7 112.6 L 98.7 116.0 L 100.2 116.0 " fill="#000000"/>
<path class="atom-4" d="M 96.7 101.1 L 98.0 101.1 L 98.0 105.1 L 102.8 105.1 L 102.8 101.1 L 104.1 101.1 L 104.1 110.6 L 102.8 110.6 L 102.8 106.2 L 98.0 106.2 L 98.0 110.6 L 96.7 110.6 L 96.7 101.1 " fill="#000000"/>
<path class="atom-5" d="M 68.9 127.4 L 72.0 132.4 Q 72.3 132.9, 72.8 133.8 Q 73.3 134.7, 73.3 134.8 L 73.3 127.4 L 74.6 127.4 L 74.6 136.9 L 73.3 136.9 L 70.0 131.4 Q 69.6 130.8, 69.2 130.0 Q 68.8 129.3, 68.7 129.1 L 68.7 136.9 L 67.4 136.9 L 67.4 127.4 L 68.9 127.4 " fill="#000000"/>
<path class="atom-5" d="M 67.3 137.8 L 68.6 137.8 L 68.6 141.8 L 73.4 141.8 L 73.4 137.8 L 74.7 137.8 L 74.7 147.3 L 73.4 147.3 L 73.4 142.9 L 68.6 142.9 L 68.6 147.3 L 67.3 147.3 L 67.3 137.8 " fill="#000000"/>
<path class="atom-6" d="M 39.9 117.9 Q 40.0 117.9, 40.4 118.1 Q 40.9 118.3, 41.3 118.4 Q 41.8 118.5, 42.3 118.5 Q 43.2 118.5, 43.7 118.1 Q 44.3 117.6, 44.3 116.9 Q 44.3 116.4, 44.0 116.0 Q 43.7 115.7, 43.3 115.5 Q 42.9 115.4, 42.3 115.2 Q 41.4 114.9, 40.9 114.7 Q 40.4 114.4, 40.1 113.9 Q 39.7 113.4, 39.7 112.6 Q 39.7 111.4, 40.5 110.6 Q 41.3 109.9, 42.9 109.9 Q 44.0 109.9, 45.3 110.4 L 45.0 111.5 Q 43.8 111.0, 43.0 111.0 Q 42.0 111.0, 41.5 111.4 Q 41.0 111.8, 41.0 112.4 Q 41.0 112.9, 41.3 113.2 Q 41.6 113.5, 41.9 113.7 Q 42.3 113.9, 43.0 114.1 Q 43.8 114.3, 44.3 114.6 Q 44.8 114.9, 45.2 115.4 Q 45.6 116.0, 45.6 116.9 Q 45.6 118.2, 44.7 118.9 Q 43.8 119.6, 42.4 119.6 Q 41.5 119.6, 40.9 119.4 Q 40.3 119.2, 39.5 118.9 L 39.9 117.9 " fill="#000000"/>
<path class="atom-6" d="M 46.8 111.5 L 48.5 111.5 L 48.5 109.7 L 49.2 109.7 L 49.2 111.5 L 50.9 111.5 L 50.9 112.1 L 49.2 112.1 L 49.2 113.9 L 48.5 113.9 L 48.5 112.1 L 46.8 112.1 L 46.8 111.5 " fill="#000000"/>
<path class="atom-7" d="M 12.5 125.8 L 13.8 125.8 L 13.8 135.3 L 12.5 135.3 L 12.5 125.8 " fill="#000000"/>
<path class="atom-0" d="M 237.7,119.5 L 237.7,119.5 L 237.7,119.6 L 237.6,119.6 L 237.6,119.7 L 237.6,119.8 L 237.6,119.8 L 237.5,119.9 L 237.5,119.9 L 237.5,119.9 L 237.4,120.0 L 237.4,120.0 L 237.3,120.0 L 237.3,120.1 L 237.2,120.1 L 237.2,120.1 L 237.1,120.1 L 237.1,120.1 L 237.0,120.1 L 237.0,120.1 L 236.9,120.1 L 236.8,120.1 L 236.8,120.1 L 236.7,120.1 L 236.7,120.1 L 236.6,120.0 L 236.6,120.0 L 236.5,120.0 L 236.5,119.9 L 236.5,119.9 L 236.4,119.8 L 236.4,119.8 L 236.4,119.7 L 236.4,119.7 L 236.3,119.6 L 236.3,119.6 L 236.3,119.5 L 236.3,119.4 L 236.3,119.4 L 236.3,119.3 L 236.4,119.3 L 236.4,119.2 L 236.4,119.2 L 236.4,119.1 L 236.5,119.1 L 236.5,119.0 L 236.5,119.0 L 236.6,118.9 L 236.6,118.9 L 236.7,118.9 L 236.7,118.9 L 236.8,118.8 L 236.8,118.8 L 236.9,118.8 L 237.0,118.8 L 237.0,118.8 L 237.1,118.8 L 237.1,118.8 L 237.2,118.8 L 237.2,118.8 L 237.3,118.9 L 237.3,118.9 L 237.4,118.9 L 237.4,119.0 L 237.5,119.0 L 237.5,119.0 L 237.5,119.1 L 237.6,119.1 L 237.6,119.2 L 237.6,119.2 L 237.6,119.3 L 237.7,119.4 L 237.7,119.4 L 237.7,119.5 L 237.0,119.5 Z" style="fill:#000000;fill-rule:evenodd;fill-opacity:1;stroke:#000000;stroke-width:0.0px;stroke-linecap:butt;stroke-linejoin:miter;stroke-miterlimit:10;stroke-opacity:1;"/>
<path class="atom-1" d="M 187.4,138.4 L 187.4,138.4 L 187.4,138.5 L 187.4,138.6 L 187.4,138.6 L 187.4,138.7 L 187.4,138.7 L 187.3,138.8 L 187.3,138.8 L 187.2,138.8 L 187.2,138.9 L 187.2,138.9 L 187.1,139.0 L 187.1,139.0 L 187.0,139.0 L 187.0,139.0 L 186.9,139.0 L 186.8,139.0 L 186.8,139.1 L 186.7,139.0 L 186.7,139.0 L 186.6,139.0 L 186.6,139.0 L 186.5,139.0 L 186.5,139.0 L 186.4,138.9 L 186.4,138.9 L 186.3,138.9 L 186.3,138.8 L 186.2,138.8 L 186.2,138.7 L 186.2,138.7 L 186.2,138.6 L 186.1,138.6 L 186.1,138.5 L 186.1,138.5 L 186.1,138.4 L 186.1,138.4 L 186.1,138.3 L 186.1,138.2 L 186.1,138.2 L 186.2,138.1 L 186.2,138.1 L 186.2,138.0 L 186.2,138.0 L 186.3,137.9 L 186.3,137.9 L 186.4,137.9 L 186.4,137.8 L 186.5,137.8 L 186.5,137.8 L 186.6,137.7 L 186.6,137.7 L 186.7,137.7 L 186.7,137.7 L 186.8,137.7 L 186.8,137.7 L 186.9,137.7 L 187.0,137.7 L 187.0,137.8 L 187.1,137.8 L 187.1,137.8 L 187.2,137.8 L 187.2,137.9 L 187.2,137.9 L 187.3,138.0 L 187.3,138.0 L 187.4,138.1 L 187.4,138.1 L 187.4,138.2 L 187.4,138.2 L 187.4,138.3 L 187.4,138.3 L 187.4,138.4 L 186.8,138.4 Z" style="fill:#000000;fill-rule:evenodd;fill-opacity:1;stroke:#000000;stroke-width:0.0px;stroke-linecap:butt;stroke-linejoin:miter;stroke-miterlimit:10;stroke-opacity:1;"/>
<path class="atom-2" d="M 159.0,111.9 L 159.0,112.0 L 159.0,112.1 L 158.9,112.1 L 158.9,112.2 L 158.9,112.2 L 158.9,112.3 L 158.8,112.3 L 158.8,112.4 L 158.8,112.4 L 158.7,112.5 L 158.7,112.5 L 158.6,112.5 L 158.6,112.5 L 158.5,112.6 L 158.5,112.6 L 158.4,112.6 L 158.4,112.6 L 158.3,112.6 L 158.3,112.6 L 158.2,112.6 L 158.1,112.6 L 158.1,112.6 L 158.0,112.6 L 158.0,112.5 L 157.9,112.5 L 157.9,112.5 L 157.8,112.4 L 157.8,112.4 L 157.8,112.3 L 157.7,112.3 L 157.7,112.2 L 157.7,112.2 L 157.7,112.1 L 157.6,112.1 L 157.6,112.0 L 157.6,112.0 L 157.6,111.9 L 157.6,111.9 L 157.6,111.8 L 157.7,111.7 L 157.7,111.7 L 157.7,111.6 L 157.7,111.6 L 157.8,111.5 L 157.8,111.5 L 157.8,111.5 L 157.9,111.4 L 157.9,111.4 L 158.0,111.4 L 158.0,111.3 L 158.1,111.3 L 158.1,111.3 L 158.2,111.3 L 158.3,111.3 L 158.3,111.3 L 158.4,111.3 L 158.4,111.3 L 158.5,111.3 L 158.5,111.3 L 158.6,111.3 L 158.6,111.4 L 158.7,111.4 L 158.7,111.4 L 158.8,111.5 L 158.8,111.5 L 158.8,111.6 L 158.9,111.6 L 158.9,111.7 L 158.9,111.7 L 158.9,111.8 L 159.0,111.8 L 159.0,111.9 L 159.0,111.9 L 158.3,111.9 Z" style="fill:#000000;fill-rule:evenodd;fill-opacity:1;stroke:#000000;stroke-width:0.0px;stroke-linecap:butt;stroke-linejoin:miter;stroke-miterlimit:10;stroke-opacity:1;"/>
<path class="atom-3" d="M 141.1,133.8 L 141.1,133.8 L 141.1,133.9 L 141.0,133.9 L 141.0,134.0 L 141.0,134.0 L 141.0,134.1 L 140.9,134.1 L 140.9,134.2 L 140.9,134.2 L 140.8,134.3 L 140.8,134.3 L 140.7,134.3 L 140.7,134.4 L 140.6,134.4 L 140.6,134.4 L 140.5,134.4 L 140.5,134.4 L 140.4,134.4 L 140.3,134.4 L 140.3,134.4 L 140.2,134.4 L 140.2,134.4 L 140.1,134.4 L 140.1,134.3 L 140.0,134.3 L 140.0,134.3 L 139.9,134.2 L 139.9,134.2 L 139.9,134.2 L 139.8,134.1 L 139.8,134.1 L 139.8,134.0 L 139.8,134.0 L 139.7,133.9 L 139.7,133.8 L 139.7,133.8 L 139.7,133.7 L 139.7,133.7 L 139.7,133.6 L 139.8,133.6 L 139.8,133.5 L 139.8,133.5 L 139.8,133.4 L 139.9,133.4 L 139.9,133.3 L 139.9,133.3 L 140.0,133.2 L 140.0,133.2 L 140.1,133.2 L 140.1,133.1 L 140.2,133.1 L 140.2,133.1 L 140.3,133.1 L 140.3,133.1 L 140.4,133.1 L 140.5,133.1 L 140.5,133.1 L 140.6,133.1 L 140.6,133.1 L 140.7,133.2 L 140.7,133.2 L 140.8,133.2 L 140.8,133.3 L 140.9,133.3 L 140.9,133.3 L 140.9,133.4 L 141.0,133.4 L 141.0,133.5 L 141.0,133.5 L 141.0,133.6 L 141.1,133.6 L 141.1,133.7 L 141.1,133.8 L 140.4,133.8 Z" style="fill:#000000;fill-rule:evenodd;fill-opacity:1;stroke:#000000;stroke-width:0.0px;stroke-linecap:butt;stroke-linejoin:miter;stroke-miterlimit:10;stroke-opacity:1;"/>
<path class="atom-6" d="M 43.2,108.7 L 43.2,108.8 L 43.2,108.8 L 43.2,108.9 L 43.2,108.9 L 43.1,109.0 L 43.1,109.0 L 43.1,109.1 L 43.1,109.1 L 43.0,109.2 L 43.0,109.2 L 42.9,109.3 L 42.9,109.3 L 42.8,109.3 L 42.8,109.3 L 42.7,109.4 L 42.7,109.4 L 42.6,109.4 L 42.6,109.4 L 42.5,109.4 L 42.4,109.4 L 42.4,109.4 L 42.3,109.3 L 42.3,109.3 L 42.2,109.3 L 42.2,109.3 L 42.1,109.2 L 42.1,109.2 L 42.0,109.2 L 42.0,109.1 L 42.0,109.1 L 41.9,109.0 L 41.9,109.0 L 41.9,108.9 L 41.9,108.9 L 41.9,108.8 L 41.9,108.7 L 41.9,108.7 L 41.9,108.6 L 41.9,108.6 L 41.9,108.5 L 41.9,108.5 L 41.9,108.4 L 42.0,108.4 L 42.0,108.3 L 42.0,108.3 L 42.1,108.2 L 42.1,108.2 L 42.2,108.2 L 42.2,108.1 L 42.3,108.1 L 42.3,108.1 L 42.4,108.1 L 42.4,108.1 L 42.5,108.0 L 42.6,108.0 L 42.6,108.0 L 42.7,108.1 L 42.7,108.1 L 42.8,108.1 L 42.8,108.1 L 42.9,108.1 L 42.9,108.2 L 43.0,108.2 L 43.0,108.2 L 43.1,108.3 L 43.1,108.3 L 43.1,108.4 L 43.1,108.4 L 43.2,108.5 L 43.2,108.5 L 43.2,108.6 L 43.2,108.7 L 43.2,108.7 L 42.5,108.7 Z" style="fill:#000000;fill-rule:evenodd;fill-opacity:1;stroke:#000000;stroke-width:0.0px;stroke-linecap:butt;stroke-linejoin:miter;stroke-miterlimit:10;stroke-opacity:1;"/>
<path class="bond-0 atom-0 atom-1" d="M 479.5,93.4 L 472.8,112.8" style="fill:none;fill-rule:evenodd;stroke:#000000;stroke-width:2.0px;stroke-linecap:butt;stroke-linejoin:miter;stroke-opacity:1"/>
<path class="bond-1 atom-1 atom-2" d="M 466.1,119.6 L 448.6,123.0" style="fill:none;fill-rule:evenodd;stroke:#000000;stroke-width:2.0px;stroke-linecap:butt;stroke-linejoin:miter;stroke-opacity:1"/>
<path class="bond-2 atom-2 atom-3" d="M 436.0,130.9 L 427.2,156.6" style="fill:none;fill-rule:evenodd;stroke:#000000;stroke-width:2.0px;stroke-linecap:butt;stroke-linejoin:miter;stroke-opacity:1"/>
<path class="bond-3 atom-3 atom-4" d="M 427.2,156.6 L 398.6,162.2" style="fill:none;fill-rule:evenodd;stroke:#000000;stroke-width:2.0px;stroke-linecap:butt;stroke-linejoin:miter;stroke-opacity:1"/>
<path class="bond-3 atom-3 atom-4" d="M 423.4,152.3 L 397.6,157.3" style="fill:none;fill-rule:evenodd;stroke:#000000;stroke-width:2.0px;stroke-linecap:butt;stroke-linejoin:miter;stroke-opacity:1"/>
<path class="bond-4 atom-4 atom-5" d="M 390.3,158.3 L 372.5,137.8" style="fill:none;fill-rule:evenodd;stroke:#000000;stroke-width:2.0px;stroke-linecap:butt;stroke-linejoin:miter;stroke-opacity:1"/>
<path class="bond-5 atom-5 atom-6" d="M 372.5,137.8 L 344.4,143.3" style="fill:none;fill-rule:evenodd;stroke:#000000;stroke-width:2.0px;stroke-linecap:butt;stroke-linejoin:miter;stroke-opacity:1"/>
<path class="bond-6 atom-6 atom-7" d="M 335.0,138.8 L 317.8,119.0" style="fill:none;fill-rule:evenodd;stroke:#000000;stroke-width:2.0px;stroke-linecap:butt;stroke-linejoin:miter;stroke-opacity:1"/>
<path class="bond-7 atom-7 atom-8" d="M 317.8,119.0 L 289.2,124.6" style="fill:none;fill-rule:evenodd;stroke:#000000;stroke-width:2.0px;stroke-linecap:butt;stroke-linejoin:miter;stroke-opacity:1"/>
<path class="bond-8 atom-8 atom-9" d="M 279.8,119.4 L 264.1,105.1 L 267.9,101.8 Z" style="fill:#000000;fill-rule:evenodd;fill-opacity:1;stroke:#000000;stroke-width:0.5px;stroke-linecap:butt;stroke-linejoin:miter;stroke-miterlimit:10;stroke-opacity:1;"/>
<path d="M 427.6,155.3 L 427.2,156.6 L 425.8,156.9" style="fill:none;stroke:#000000;stroke-width:2.0px;stroke-linecap:butt;stroke-linejoin:miter;stroke-miterlimit:10;stroke-opacity:1;"/>
<path d="M 373.4,138.8 L 372.5,137.8 L 371.1,138.1" style="fill:none;stroke:#000000;stroke-width:2.0px;stroke-linecap:butt;stroke-linejoin:miter;stroke-miterlimit:10;stroke-opacity:1;"/>
<path d="M 318.7,120.0 L 317.8,119.0 L 316.4,119.3" style="fill:none;stroke:#000000;stroke-width:2.0px;stroke-linecap:butt;stroke-linejoin:miter;stroke-miterlimit:10;stroke-opacity:1;"/>
<path class="atom-0" d="M 478.0 87.4 Q 478.0 85.1, 479.1 83.8 Q 480.2 82.6, 482.3 82.6 Q 484.3 82.6, 485.3 84.0 L 484.4 84.7 Q 483.7 83.7, 482.3 83.7 Q 480.9 83.7, 480.1 84.7 Q 479.4 85.6, 479.4 87.4 Q 479.4 89.3, 480.2 90.3 Q 480.9 91.2, 482.5 91.2 Q 483.5 91.2, 484.7 90.6 L 485.1 91.6 Q 484.6 91.9, 483.9 92.1 Q 483.1 92.3, 482.3 92.3 Q 480.2 92.3, 479.1 91.0 Q 478.0 89.8, 478.0 87.4 " fill="#000000"/>
<path class="atom-0" d="M 486.3 82.0 L 487.5 82.0 L 487.5 92.2 L 486.3 92.2 L 486.3 82.0 " fill="#000000"/>
<path class="atom-1" d="M 468.7 113.9 L 471.8 118.9 Q 472.1 119.4, 472.6 120.3 Q 473.1 121.2, 473.1 121.3 L 473.1 113.9 L 474.4 113.9 L 474.4 123.4 L 473.1 123.4 L 469.8 117.9 Q 469.4 117.3, 469.0 116.5 Q 468.6 115.8, 468.5 115.6 L 468.5 123.4 L 467.2 123.4 L 467.2 113.9 L 468.7 113.9 " fill="#000000"/>
<path class="atom-1" d="M 476.2 115.6 L 477.8 115.6 L 477.8 113.9 L 478.6 113.9 L 478.6 115.6 L 480.3 115.6 L 480.3 116.3 L 478.6 116.3 L 478.6 118.0 L 477.8 118.0 L 477.8 116.3 L 476.2 116.3 L 476.2 115.6 " fill="#000000"/>
<path class="atom-2" d="M 436.0 120.3 L 439.0 125.3 Q 439.4 125.8, 439.9 126.7 Q 440.3 127.6, 440.4 127.7 L 440.4 120.3 L 441.6 120.3 L 441.6 129.8 L 440.3 129.8 L 437.0 124.3 Q 436.6 123.7, 436.2 122.9 Q 435.8 122.2, 435.7 122.0 L 435.7 129.8 L 434.5 129.8 L 434.5 120.3 L 436.0 120.3 " fill="#000000"/>
<path class="atom-2" d="M 443.4 122.0 L 445.1 122.0 L 445.1 120.3 L 445.8 120.3 L 445.8 122.0 L 447.5 122.0 L 447.5 122.7 L 445.8 122.7 L 445.8 124.4 L 445.1 124.4 L 445.1 122.7 L 443.4 122.7 L 443.4 122.0 " fill="#000000"/>
<path class="atom-4" d="M 391.7 166.3 Q 391.9 166.3, 392.3 166.5 Q 392.7 166.7, 393.2 166.8 Q 393.7 166.9, 394.2 166.9 Q 395.1 166.9, 395.6 166.5 Q 396.1 166.0, 396.1 165.3 Q 396.1 164.7, 395.9 164.4 Q 395.6 164.1, 395.2 163.9 Q 394.8 163.8, 394.1 163.6 Q 393.3 163.3, 392.8 163.1 Q 392.3 162.8, 391.9 162.3 Q 391.6 161.8, 391.6 161.0 Q 391.6 159.8, 392.4 159.0 Q 393.2 158.3, 394.8 158.3 Q 395.9 158.3, 397.1 158.8 L 396.8 159.8 Q 395.7 159.4, 394.8 159.4 Q 393.9 159.4, 393.4 159.8 Q 392.9 160.1, 392.9 160.8 Q 392.9 161.3, 393.2 161.6 Q 393.4 161.9, 393.8 162.1 Q 394.2 162.3, 394.8 162.5 Q 395.7 162.7, 396.2 163.0 Q 396.7 163.3, 397.1 163.8 Q 397.4 164.3, 397.4 165.3 Q 397.4 166.6, 396.6 167.3 Q 395.7 168.0, 394.2 168.0 Q 393.4 168.0, 392.8 167.8 Q 392.1 167.6, 391.4 167.3 L 391.7 166.3 " fill="#000000"/>
<path class="atom-6" d="M 337.6 139.5 L 340.7 144.5 Q 341.0 145.0, 341.5 145.9 Q 342.0 146.8, 342.1 146.8 L 342.1 139.5 L 343.3 139.5 L 343.3 148.9 L 342.0 148.9 L 338.7 143.5 Q 338.3 142.8, 337.9 142.1 Q 337.5 141.3, 337.4 141.1 L 337.4 148.9 L 336.1 148.9 L 336.1 139.5 L 337.6 139.5 " fill="#000000"/>
<path class="atom-6" d="M 336.0 149.9 L 337.3 149.9 L 337.3 153.9 L 342.2 153.9 L 342.2 149.9 L 343.4 149.9 L 343.4 159.3 L 342.2 159.3 L 342.2 155.0 L 337.3 155.0 L 337.3 159.3 L 336.0 159.3 L 336.0 149.9 " fill="#000000"/>
<path class="atom-8" d="M 284.8 120.7 Q 286.4 120.7, 287.3 121.4 Q 288.1 122.1, 288.1 123.5 Q 288.1 124.8, 287.2 125.5 Q 286.4 126.2, 284.8 126.2 L 283.3 126.2 L 283.3 130.1 L 282.0 130.1 L 282.0 120.7 L 284.8 120.7 M 284.8 125.2 Q 285.7 125.2, 286.2 124.7 Q 286.7 124.3, 286.7 123.5 Q 286.7 122.6, 286.2 122.2 Q 285.8 121.7, 284.8 121.7 L 283.3 121.7 L 283.3 125.2 L 284.8 125.2 " fill="#000000"/>
<path class="atom-8" d="M 281.3 131.1 L 282.6 131.1 L 282.6 135.1 L 287.5 135.1 L 287.5 131.1 L 288.7 131.1 L 288.7 140.5 L 287.5 140.5 L 287.5 136.2 L 282.6 136.2 L 282.6 140.5 L 281.3 140.5 L 281.3 131.1 " fill="#000000"/>
<path class="atom-9" d="M 262.5 95.5 L 263.8 95.5 L 263.8 105.0 L 262.5 105.0 L 262.5 95.5 " fill="#000000"/>
<path class="atom-1" d="M 483.0,120.0 L 483.0,120.1 L 483.0,120.1 L 482.9,120.2 L 482.9,120.2 L 482.9,120.3 L 482.9,120.3 L 482.8,120.4 L 482.8,120.4 L 482.8,120.5 L 482.7,120.5 L 482.7,120.5 L 482.6,120.6 L 482.6,120.6 L 482.5,120.6 L 482.5,120.6 L 482.4,120.7 L 482.4,120.7 L 482.3,120.7 L 482.3,120.7 L 482.2,120.7 L 482.1,120.6 L 482.1,120.6 L 482.0,120.6 L 482.0,120.6 L 481.9,120.6 L 481.9,120.5 L 481.8,120.5 L 481.8,120.4 L 481.8,120.4 L 481.7,120.4 L 481.7,120.3 L 481.7,120.3 L 481.7,120.2 L 481.6,120.1 L 481.6,120.1 L 481.6,120.0 L 481.6,120.0 L 481.6,119.9 L 481.6,119.9 L 481.7,119.8 L 481.7,119.7 L 481.7,119.7 L 481.7,119.6 L 481.8,119.6 L 481.8,119.6 L 481.8,119.5 L 481.9,119.5 L 481.9,119.4 L 482.0,119.4 L 482.0,119.4 L 482.1,119.4 L 482.1,119.4 L 482.2,119.3 L 482.3,119.3 L 482.3,119.3 L 482.4,119.3 L 482.4,119.3 L 482.5,119.4 L 482.5,119.4 L 482.6,119.4 L 482.6,119.4 L 482.7,119.5 L 482.7,119.5 L 482.8,119.5 L 482.8,119.6 L 482.8,119.6 L 482.9,119.7 L 482.9,119.7 L 482.9,119.8 L 482.9,119.8 L 483.0,119.9 L 483.0,119.9 L 483.0,120.0 L 482.3,120.0 Z" style="fill:#000000;fill-rule:evenodd;fill-opacity:1;stroke:#000000;stroke-width:0.0px;stroke-linecap:butt;stroke-linejoin:miter;stroke-miterlimit:10;stroke-opacity:1;"/>
<path class="atom-1" d="M 483.0,117.3 L 483.0,117.4 L 483.0,117.4 L 482.9,117.5 L 482.9,117.6 L 482.9,117.6 L 482.9,117.7 L 482.8,117.7 L 482.8,117.8 L 482.8,117.8 L 482.7,117.8 L 482.7,117.9 L 482.6,117.9 L 482.6,117.9 L 482.5,118.0 L 482.5,118.0 L 482.4,118.0 L 482.4,118.0 L 482.3,118.0 L 482.3,118.0 L 482.2,118.0 L 482.1,118.0 L 482.1,118.0 L 482.0,117.9 L 482.0,117.9 L 481.9,117.9 L 481.9,117.9 L 481.8,117.8 L 481.8,117.8 L 481.8,117.7 L 481.7,117.7 L 481.7,117.6 L 481.7,117.6 L 481.7,117.5 L 481.6,117.5 L 481.6,117.4 L 481.6,117.4 L 481.6,117.3 L 481.6,117.2 L 481.6,117.2 L 481.7,117.1 L 481.7,117.1 L 481.7,117.0 L 481.7,117.0 L 481.8,116.9 L 481.8,116.9 L 481.8,116.8 L 481.9,116.8 L 481.9,116.8 L 482.0,116.7 L 482.0,116.7 L 482.1,116.7 L 482.1,116.7 L 482.2,116.7 L 482.3,116.7 L 482.3,116.7 L 482.4,116.7 L 482.4,116.7 L 482.5,116.7 L 482.5,116.7 L 482.6,116.7 L 482.6,116.8 L 482.7,116.8 L 482.7,116.8 L 482.8,116.9 L 482.8,116.9 L 482.8,117.0 L 482.9,117.0 L 482.9,117.1 L 482.9,117.1 L 482.9,117.2 L 483.0,117.2 L 483.0,117.3 L 483.0,117.3 L 482.3,117.3 Z" style="fill:#000000;fill-rule:evenodd;fill-opacity:1;stroke:#000000;stroke-width:0.0px;stroke-linecap:butt;stroke-linejoin:miter;stroke-miterlimit:10;stroke-opacity:1;"/>
<path class="atom-2" d="M 433.1,126.4 L 433.1,126.4 L 433.1,126.5 L 433.1,126.6 L 433.1,126.6 L 433.1,126.7 L 433.0,126.7 L 433.0,126.8 L 433.0,126.8 L 432.9,126.9 L 432.9,126.9 L 432.8,126.9 L 432.8,127.0 L 432.7,127.0 L 432.7,127.0 L 432.6,127.0 L 432.6,127.0 L 432.5,127.0 L 432.5,127.1 L 432.4,127.1 L 432.4,127.0 L 432.3,127.0 L 432.2,127.0 L 432.2,127.0 L 432.1,127.0 L 432.1,126.9 L 432.0,126.9 L 432.0,126.9 L 432.0,126.8 L 431.9,126.8 L 431.9,126.7 L 431.9,126.7 L 431.8,126.6 L 431.8,126.6 L 431.8,126.5 L 431.8,126.5 L 431.8,126.4 L 431.8,126.4 L 431.8,126.3 L 431.8,126.2 L 431.8,126.2 L 431.8,126.1 L 431.9,126.1 L 431.9,126.0 L 431.9,126.0 L 432.0,125.9 L 432.0,125.9 L 432.0,125.9 L 432.1,125.8 L 432.1,125.8 L 432.2,125.8 L 432.2,125.8 L 432.3,125.7 L 432.4,125.7 L 432.4,125.7 L 432.5,125.7 L 432.5,125.7 L 432.6,125.7 L 432.6,125.7 L 432.7,125.8 L 432.7,125.8 L 432.8,125.8 L 432.8,125.8 L 432.9,125.9 L 432.9,125.9 L 433.0,126.0 L 433.0,126.0 L 433.0,126.1 L 433.1,126.1 L 433.1,126.2 L 433.1,126.2 L 433.1,126.3 L 433.1,126.3 L 433.1,126.4 L 432.5,126.4 Z" style="fill:#000000;fill-rule:evenodd;fill-opacity:1;stroke:#000000;stroke-width:0.0px;stroke-linecap:butt;stroke-linejoin:miter;stroke-miterlimit:10;stroke-opacity:1;"/>
<path class="atom-2" d="M 433.1,123.7 L 433.1,123.8 L 433.1,123.8 L 433.1,123.9 L 433.1,123.9 L 433.1,124.0 L 433.0,124.0 L 433.0,124.1 L 433.0,124.1 L 432.9,124.2 L 432.9,124.2 L 432.8,124.3 L 432.8,124.3 L 432.7,124.3 L 432.7,124.3 L 432.6,124.4 L 432.6,124.4 L 432.5,124.4 L 432.5,124.4 L 432.4,124.4 L 432.4,124.4 L 432.3,124.4 L 432.2,124.3 L 432.2,124.3 L 432.1,124.3 L 432.1,124.3 L 432.0,124.2 L 432.0,124.2 L 432.0,124.2 L 431.9,124.1 L 431.9,124.1 L 431.9,124.0 L 431.8,124.0 L 431.8,123.9 L 431.8,123.9 L 431.8,123.8 L 431.8,123.7 L 431.8,123.7 L 431.8,123.6 L 431.8,123.6 L 431.8,123.5 L 431.8,123.5 L 431.9,123.4 L 431.9,123.4 L 431.9,123.3 L 432.0,123.3 L 432.0,123.2 L 432.0,123.2 L 432.1,123.2 L 432.1,123.1 L 432.2,123.1 L 432.2,123.1 L 432.3,123.1 L 432.4,123.1 L 432.4,123.0 L 432.5,123.0 L 432.5,123.1 L 432.6,123.1 L 432.6,123.1 L 432.7,123.1 L 432.7,123.1 L 432.8,123.1 L 432.8,123.2 L 432.9,123.2 L 432.9,123.2 L 433.0,123.3 L 433.0,123.3 L 433.0,123.4 L 433.1,123.4 L 433.1,123.5 L 433.1,123.5 L 433.1,123.6 L 433.1,123.7 L 433.1,123.7 L 432.5,123.7 Z" style="fill:#000000;fill-rule:evenodd;fill-opacity:1;stroke:#000000;stroke-width:0.0px;stroke-linecap:butt;stroke-linejoin:miter;stroke-miterlimit:10;stroke-opacity:1;"/>
<path class="atom-4" d="M 400.1,163.0 L 400.1,163.1 L 400.1,163.1 L 400.1,163.2 L 400.1,163.2 L 400.1,163.3 L 400.0,163.3 L 400.0,163.4 L 400.0,163.4 L 399.9,163.5 L 399.9,163.5 L 399.8,163.5 L 399.8,163.6 L 399.7,163.6 L 399.7,163.6 L 399.6,163.6 L 399.6,163.7 L 399.5,163.7 L 399.5,163.7 L 399.4,163.7 L 399.4,163.7 L 399.3,163.7 L 399.2,163.6 L 399.2,163.6 L 399.1,163.6 L 399.1,163.6 L 399.0,163.5 L 399.0,163.5 L 399.0,163.5 L 398.9,163.4 L 398.9,163.4 L 398.9,163.3 L 398.8,163.3 L 398.8,163.2 L 398.8,163.1 L 398.8,163.1 L 398.8,163.0 L 398.8,163.0 L 398.8,162.9 L 398.8,162.9 L 398.8,162.8 L 398.8,162.8 L 398.9,162.7 L 398.9,162.7 L 398.9,162.6 L 399.0,162.6 L 399.0,162.5 L 399.0,162.5 L 399.1,162.4 L 399.1,162.4 L 399.2,162.4 L 399.2,162.4 L 399.3,162.4 L 399.4,162.3 L 399.4,162.3 L 399.5,162.3 L 399.5,162.3 L 399.6,162.4 L 399.6,162.4 L 399.7,162.4 L 399.7,162.4 L 399.8,162.4 L 399.8,162.5 L 399.9,162.5 L 399.9,162.5 L 400.0,162.6 L 400.0,162.6 L 400.0,162.7 L 400.1,162.7 L 400.1,162.8 L 400.1,162.8 L 400.1,162.9 L 400.1,162.9 L 400.1,163.0 L 399.5,163.0 Z" style="fill:#000000;fill-rule:evenodd;fill-opacity:1;stroke:#000000;stroke-width:0.0px;stroke-linecap:butt;stroke-linejoin:miter;stroke-miterlimit:10;stroke-opacity:1;"/>
<path class="atom-5" d="M 374.5,134.8 L 374.5,134.9 L 374.5,134.9 L 374.5,135.0 L 374.5,135.0 L 374.4,135.1 L 374.4,135.1 L 374.4,135.2 L 374.4,135.2 L 374.3,135.3 L 374.3,135.3 L 374.2,135.4 L 374.2,135.4 L 374.1,135.4 L 374.1,135.4 L 374.0,135.5 L 374.0,135.5 L 373.9,135.5 L 373.9,135.5 L 373.8,135.5 L 373.7,135.5 L 373.7,135.5 L 373.6,135.4 L 373.6,135.4 L 373.5,135.4 L 373.5,135.4 L 373.4,135.3 L 373.4,135.3 L 373.3,135.3 L 373.3,135.2 L 373.3,135.2 L 373.2,135.1 L 373.2,135.1 L 373.2,135.0 L 373.2,135.0 L 373.2,134.9 L 373.2,134.8 L 373.2,134.8 L 373.2,134.7 L 373.2,134.7 L 373.2,134.6 L 373.2,134.6 L 373.2,134.5 L 373.3,134.5 L 373.3,134.4 L 373.3,134.4 L 373.4,134.3 L 373.4,134.3 L 373.5,134.3 L 373.5,134.2 L 373.6,134.2 L 373.6,134.2 L 373.7,134.2 L 373.7,134.2 L 373.8,134.1 L 373.9,134.1 L 373.9,134.2 L 374.0,134.2 L 374.0,134.2 L 374.1,134.2 L 374.1,134.2 L 374.2,134.2 L 374.2,134.3 L 374.3,134.3 L 374.3,134.3 L 374.4,134.4 L 374.4,134.4 L 374.4,134.5 L 374.4,134.5 L 374.5,134.6 L 374.5,134.6 L 374.5,134.7 L 374.5,134.8 L 374.5,134.8 L 373.8,134.8 Z" style="fill:#000000;fill-rule:evenodd;fill-opacity:1;stroke:#000000;stroke-width:0.0px;stroke-linecap:butt;stroke-linejoin:miter;stroke-miterlimit:10;stroke-opacity:1;"/>
<path class="atom-5" d="M 371.8,134.8 L 371.8,134.9 L 371.8,134.9 L 371.8,135.0 L 371.8,135.0 L 371.8,135.1 L 371.7,135.1 L 371.7,135.2 L 371.7,135.2 L 371.6,135.3 L 371.6,135.3 L 371.6,135.4 L 371.5,135.4 L 371.5,135.4 L 371.4,135.4 L 371.4,135.5 L 371.3,135.5 L 371.2,135.5 L 371.2,135.5 L 371.1,135.5 L 371.1,135.5 L 371.0,135.5 L 371.0,135.4 L 370.9,135.4 L 370.8,135.4 L 370.8,135.4 L 370.8,135.3 L 370.7,135.3 L 370.7,135.3 L 370.6,135.2 L 370.6,135.2 L 370.6,135.1 L 370.5,135.1 L 370.5,135.0 L 370.5,135.0 L 370.5,134.9 L 370.5,134.8 L 370.5,134.8 L 370.5,134.7 L 370.5,134.7 L 370.5,134.6 L 370.5,134.6 L 370.6,134.5 L 370.6,134.5 L 370.6,134.4 L 370.7,134.4 L 370.7,134.3 L 370.8,134.3 L 370.8,134.3 L 370.8,134.2 L 370.9,134.2 L 371.0,134.2 L 371.0,134.2 L 371.1,134.2 L 371.1,134.1 L 371.2,134.1 L 371.2,134.2 L 371.3,134.2 L 371.4,134.2 L 371.4,134.2 L 371.5,134.2 L 371.5,134.2 L 371.6,134.3 L 371.6,134.3 L 371.6,134.3 L 371.7,134.4 L 371.7,134.4 L 371.7,134.5 L 371.8,134.5 L 371.8,134.6 L 371.8,134.6 L 371.8,134.7 L 371.8,134.8 L 371.8,134.8 L 371.2,134.8 Z" style="fill:#000000;fill-rule:evenodd;fill-opacity:1;stroke:#000000;stroke-width:0.0px;stroke-linecap:butt;stroke-linejoin:miter;stroke-miterlimit:10;stroke-opacity:1;"/>
<path class="atom-7" d="M 318.5,116.0 L 318.5,116.1 L 318.5,116.1 L 318.5,116.2 L 318.4,116.2 L 318.4,116.3 L 318.4,116.3 L 318.4,116.4 L 318.3,116.4 L 318.3,116.5 L 318.3,116.5 L 318.2,116.6 L 318.2,116.6 L 318.1,116.6 L 318.1,116.6 L 318.0,116.7 L 317.9,116.7 L 317.9,116.7 L 317.8,116.7 L 317.8,116.7 L 317.7,116.7 L 317.7,116.7 L 317.6,116.6 L 317.6,116.6 L 317.5,116.6 L 317.5,116.6 L 317.4,116.5 L 317.4,116.5 L 317.3,116.5 L 317.3,116.4 L 317.3,116.4 L 317.2,116.3 L 317.2,116.3 L 317.2,116.2 L 317.2,116.2 L 317.2,116.1 L 317.2,116.0 L 317.2,116.0 L 317.2,115.9 L 317.2,115.9 L 317.2,115.8 L 317.2,115.8 L 317.2,115.7 L 317.3,115.7 L 317.3,115.6 L 317.3,115.6 L 317.4,115.5 L 317.4,115.5 L 317.5,115.5 L 317.5,115.4 L 317.6,115.4 L 317.6,115.4 L 317.7,115.4 L 317.7,115.4 L 317.8,115.3 L 317.8,115.3 L 317.9,115.4 L 317.9,115.4 L 318.0,115.4 L 318.1,115.4 L 318.1,115.4 L 318.2,115.4 L 318.2,115.5 L 318.3,115.5 L 318.3,115.5 L 318.3,115.6 L 318.4,115.6 L 318.4,115.7 L 318.4,115.7 L 318.4,115.8 L 318.5,115.8 L 318.5,115.9 L 318.5,116.0 L 318.5,116.0 L 317.8,116.0 Z" style="fill:#000000;fill-rule:evenodd;fill-opacity:1;stroke:#000000;stroke-width:0.0px;stroke-linecap:butt;stroke-linejoin:miter;stroke-miterlimit:10;stroke-opacity:1;"/>
<path class="bond-0 atom-0 atom-1" d="M 706.5,139.7 L 668.0,124.3" style="fill:none;fill-rule:evenodd;stroke:#000000;stroke-width:2.0px;stroke-linecap:butt;stroke-linejoin:miter;stroke-opacity:1"/>
<path class="bond-1 atom-1 atom-2" d="M 656.7,130.3 L 626.3,154.2" style="fill:none;fill-rule:evenodd;stroke:#000000;stroke-width:2.0px;stroke-linecap:butt;stroke-linejoin:miter;stroke-opacity:1"/>
<path class="bond-1 atom-1 atom-2" d="M 651.5,123.6 L 621.0,147.5" style="fill:none;fill-rule:evenodd;stroke:#000000;stroke-width:2.0px;stroke-linecap:butt;stroke-linejoin:miter;stroke-opacity:1"/>
<path class="bond-2 atom-2 atom-3" d="M 609.7,153.5 L 572.2,138.5" style="fill:none;fill-rule:evenodd;stroke:#000000;stroke-width:2.0px;stroke-linecap:butt;stroke-linejoin:miter;stroke-opacity:1"/>
<path class="bond-3 atom-3 atom-4" d="M 560.3,107.9 L 557.6,89.3" style="fill:none;fill-rule:evenodd;stroke:#000000;stroke-width:2.0px;stroke-linecap:butt;stroke-linejoin:miter;stroke-opacity:1"/>
<path class="bond-4 atom-3 atom-5" d="M 556.3,141.6 L 529.2,162.9" style="fill:none;fill-rule:evenodd;stroke:#000000;stroke-width:2.0px;stroke-linecap:butt;stroke-linejoin:miter;stroke-opacity:1"/>
<path class="atom-0" d="M 713.1 134.5 Q 715.8 134.5, 717.2 135.7 Q 718.6 137.0, 718.6 139.2 Q 718.6 141.4, 717.1 142.7 Q 715.7 143.9, 713.1 143.9 L 710.5 143.9 L 710.5 150.5 L 708.3 150.5 L 708.3 134.5 L 713.1 134.5 M 713.1 142.1 Q 714.6 142.1, 715.5 141.4 Q 716.3 140.6, 716.3 139.2 Q 716.3 137.8, 715.5 137.0 Q 714.6 136.3, 713.1 136.3 L 710.5 136.3 L 710.5 142.1 L 713.1 142.1 " fill="#000000"/>
<path class="atom-0" d="M 720.8 134.5 L 722.9 134.5 L 722.9 141.3 L 731.1 141.3 L 731.1 134.5 L 733.3 134.5 L 733.3 150.5 L 731.1 150.5 L 731.1 143.1 L 722.9 143.1 L 722.9 150.5 L 720.8 150.5 L 720.8 134.5 " fill="#000000"/>
<path class="atom-1" d="M 660.7 113.5 Q 663.4 113.5, 664.8 114.7 Q 666.2 115.9, 666.2 118.2 Q 666.2 120.4, 664.7 121.7 Q 663.3 122.9, 660.7 122.9 L 658.1 122.9 L 658.1 129.5 L 655.9 129.5 L 655.9 113.5 L 660.7 113.5 M 660.7 121.1 Q 662.2 121.1, 663.1 120.3 Q 663.9 119.6, 663.9 118.2 Q 663.9 116.8, 663.1 116.0 Q 662.2 115.3, 660.7 115.3 L 658.1 115.3 L 658.1 121.1 L 660.7 121.1 " fill="#000000"/>
<path class="atom-2" d="M 612.1 161.8 Q 612.3 161.9, 613.1 162.2 Q 613.8 162.5, 614.6 162.7 Q 615.4 162.9, 616.3 162.9 Q 617.8 162.9, 618.7 162.2 Q 619.5 161.5, 619.5 160.2 Q 619.5 159.3, 619.1 158.7 Q 618.7 158.2, 618.0 157.9 Q 617.3 157.6, 616.2 157.3 Q 614.7 156.8, 613.9 156.4 Q 613.1 156.0, 612.4 155.2 Q 611.9 154.3, 611.9 152.9 Q 611.9 150.9, 613.2 149.6 Q 614.6 148.4, 617.3 148.4 Q 619.2 148.4, 621.3 149.3 L 620.7 151.0 Q 618.8 150.2, 617.4 150.2 Q 615.8 150.2, 615.0 150.9 Q 614.1 151.5, 614.1 152.6 Q 614.1 153.5, 614.5 154.0 Q 615.0 154.5, 615.6 154.8 Q 616.3 155.1, 617.4 155.4 Q 618.8 155.9, 619.7 156.3 Q 620.5 156.8, 621.1 157.7 Q 621.8 158.6, 621.8 160.2 Q 621.8 162.4, 620.3 163.6 Q 618.8 164.8, 616.4 164.8 Q 614.9 164.8, 613.8 164.4 Q 612.8 164.1, 611.5 163.6 L 612.1 161.8 " fill="#000000"/>
<path class="atom-3" d="M 560.7 127.3 L 565.9 135.8 Q 566.5 136.6, 567.3 138.2 Q 568.1 139.7, 568.2 139.8 L 568.2 127.3 L 570.3 127.3 L 570.3 143.3 L 568.1 143.3 L 562.5 134.1 Q 561.8 133.0, 561.1 131.7 Q 560.5 130.5, 560.3 130.1 L 560.3 143.3 L 558.2 143.3 L 558.2 127.3 L 560.7 127.3 " fill="#000000"/>
<path class="atom-3" d="M 558.0 109.8 L 560.2 109.8 L 560.2 116.6 L 568.3 116.6 L 568.3 109.8 L 570.5 109.8 L 570.5 125.7 L 568.3 125.7 L 568.3 118.4 L 560.2 118.4 L 560.2 125.7 L 558.0 125.7 L 558.0 109.8 " fill="#000000"/>
<path class="atom-3" d="M 573.6 112.6 L 576.4 112.6 L 576.4 109.7 L 577.6 109.7 L 577.6 112.6 L 580.5 112.6 L 580.5 113.7 L 577.6 113.7 L 577.6 116.7 L 576.4 116.7 L 576.4 113.7 L 573.6 113.7 L 573.6 112.6 " fill="#000000"/>
<path class="atom-4" d="M 558.6 79.0 Q 560.1 79.5, 560.9 80.4 Q 561.7 81.3, 561.7 82.7 Q 561.7 84.9, 560.2 86.2 Q 558.8 87.4, 556.2 87.4 L 550.8 87.4 L 550.8 71.5 L 555.5 71.5 Q 558.3 71.5, 559.6 72.6 Q 561.0 73.7, 561.0 75.7 Q 561.0 78.1, 558.6 79.0 M 553.0 73.3 L 553.0 78.3 L 555.5 78.3 Q 557.1 78.3, 557.9 77.6 Q 558.8 77.0, 558.8 75.7 Q 558.8 73.3, 555.5 73.3 L 553.0 73.3 M 556.2 85.6 Q 557.7 85.6, 558.6 84.9 Q 559.4 84.1, 559.4 82.7 Q 559.4 81.4, 558.5 80.8 Q 557.6 80.1, 555.8 80.1 L 553.0 80.1 L 553.0 85.6 L 556.2 85.6 " fill="#000000"/>
<path class="atom-4" d="M 565.3 75.8 L 565.5 77.4 Q 566.8 75.6, 568.8 75.6 Q 569.4 75.6, 570.2 75.9 L 569.9 77.8 Q 568.9 77.5, 568.4 77.5 Q 567.4 77.5, 566.8 77.9 Q 566.2 78.3, 565.7 79.2 L 565.7 87.4 L 563.6 87.4 L 563.6 75.8 L 565.3 75.8 " fill="#000000"/>
<path class="atom-5" d="M 512.5 170.3 Q 512.5 166.4, 514.4 164.3 Q 516.3 162.1, 519.8 162.1 Q 523.4 162.1, 525.3 164.3 Q 527.2 166.4, 527.2 170.3 Q 527.2 174.1, 525.3 176.4 Q 523.3 178.5, 519.8 178.5 Q 516.3 178.5, 514.4 176.4 Q 512.5 174.2, 512.5 170.3 M 519.8 176.7 Q 522.3 176.7, 523.6 175.1 Q 524.9 173.5, 524.9 170.3 Q 524.9 167.1, 523.6 165.5 Q 522.3 163.9, 519.8 163.9 Q 517.4 163.9, 516.1 165.5 Q 514.8 167.1, 514.8 170.3 Q 514.8 173.5, 516.1 175.1 Q 517.4 176.7, 519.8 176.7 " fill="#000000"/>
<path class="atom-5" d="M 529.5 164.7 L 534.9 164.7 L 534.9 165.9 L 529.5 165.9 L 529.5 164.7 " fill="#000000"/>
<path class="atom-0" d="M 737.8,142.5 L 737.8,142.6 L 737.8,142.7 L 737.7,142.8 L 737.7,142.9 L 737.7,143.0 L 737.6,143.0 L 737.6,143.1 L 737.5,143.2 L 737.5,143.3 L 737.4,143.3 L 737.3,143.4 L 737.2,143.5 L 737.1,143.5 L 737.1,143.5 L 737.0,143.6 L 736.9,143.6 L 736.8,143.6 L 736.7,143.6 L 736.6,143.6 L 736.5,143.6 L 736.4,143.6 L 736.3,143.6 L 736.2,143.5 L 736.1,143.5 L 736.0,143.4 L 736.0,143.4 L 735.9,143.3 L 735.8,143.2 L 735.8,143.2 L 735.7,143.1 L 735.6,143.0 L 735.6,142.9 L 735.6,142.8 L 735.5,142.7 L 735.5,142.6 L 735.5,142.5 L 735.5,142.4 L 735.5,142.3 L 735.5,142.2 L 735.6,142.2 L 735.6,142.1 L 735.6,142.0 L 735.7,141.9 L 735.8,141.8 L 735.8,141.7 L 735.9,141.7 L 736.0,141.6 L 736.0,141.5 L 736.1,141.5 L 736.2,141.5 L 736.3,141.4 L 736.4,141.4 L 736.5,141.4 L 736.6,141.4 L 736.7,141.4 L 736.8,141.4 L 736.9,141.4 L 737.0,141.4 L 737.1,141.4 L 737.1,141.5 L 737.2,141.5 L 737.3,141.6 L 737.4,141.6 L 737.5,141.7 L 737.5,141.8 L 737.6,141.8 L 737.6,141.9 L 737.7,142.0 L 737.7,142.1 L 737.7,142.2 L 737.8,142.3 L 737.8,142.4 L 737.8,142.5 L 736.7,142.5 Z" style="fill:#000000;fill-rule:evenodd;fill-opacity:1;stroke:#000000;stroke-width:0.0px;stroke-linecap:butt;stroke-linejoin:miter;stroke-miterlimit:10;stroke-opacity:1;"/>
<path class="atom-2" d="M 626.3,156.4 L 626.3,156.4 L 626.3,156.5 L 626.3,156.6 L 626.2,156.7 L 626.2,156.8 L 626.1,156.9 L 626.1,157.0 L 626.0,157.1 L 626.0,157.1 L 625.9,157.2 L 625.8,157.3 L 625.7,157.3 L 625.7,157.4 L 625.6,157.4 L 625.5,157.4 L 625.4,157.5 L 625.3,157.5 L 625.2,157.5 L 625.1,157.5 L 625.0,157.5 L 624.9,157.4 L 624.8,157.4 L 624.7,157.4 L 624.6,157.3 L 624.5,157.3 L 624.5,157.2 L 624.4,157.2 L 624.3,157.1 L 624.3,157.0 L 624.2,157.0 L 624.2,156.9 L 624.1,156.8 L 624.1,156.7 L 624.1,156.6 L 624.0,156.5 L 624.0,156.4 L 624.0,156.3 L 624.0,156.2 L 624.1,156.1 L 624.1,156.0 L 624.1,155.9 L 624.2,155.8 L 624.2,155.8 L 624.3,155.7 L 624.3,155.6 L 624.4,155.5 L 624.5,155.5 L 624.5,155.4 L 624.6,155.4 L 624.7,155.3 L 624.8,155.3 L 624.9,155.3 L 625.0,155.2 L 625.1,155.2 L 625.2,155.2 L 625.3,155.2 L 625.4,155.2 L 625.5,155.3 L 625.6,155.3 L 625.7,155.3 L 625.7,155.4 L 625.8,155.4 L 625.9,155.5 L 626.0,155.6 L 626.0,155.6 L 626.1,155.7 L 626.1,155.8 L 626.2,155.9 L 626.2,156.0 L 626.3,156.1 L 626.3,156.2 L 626.3,156.3 L 626.3,156.4 L 625.2,156.4 Z" style="fill:#000000;fill-rule:evenodd;fill-opacity:1;stroke:#000000;stroke-width:0.0px;stroke-linecap:butt;stroke-linejoin:miter;stroke-miterlimit:10;stroke-opacity:1;"/>
<path class="bond-0 atom-0 atom-1" d="M 54.5,375.0 L 199.7,375.0" style="fill:none;fill-rule:evenodd;stroke:#000000;stroke-width:2.0px;stroke-linecap:butt;stroke-linejoin:miter;stroke-opacity:1"/>
<path class="bond-0 atom-0 atom-1" d="M 54.5,348.5 L 199.7,348.5" style="fill:none;fill-rule:evenodd;stroke:#000000;stroke-width:2.0px;stroke-linecap:butt;stroke-linejoin:miter;stroke-opacity:1"/>
<path class="bond-0 atom-0 atom-1" d="M 54.5,401.5 L 199.7,401.5" style="fill:none;fill-rule:evenodd;stroke:#000000;stroke-width:2.0px;stroke-linecap:butt;stroke-linejoin:miter;stroke-opacity:1"/>
<path class="atom-0" d="M 31.6 384.7 Q 31.9 384.8, 33.2 385.4 Q 34.5 386.0, 36.0 386.3 Q 37.4 386.6, 38.9 386.6 Q 41.6 386.6, 43.1 385.4 Q 44.7 384.0, 44.7 381.8 Q 44.7 380.2, 43.9 379.2 Q 43.1 378.3, 41.9 377.8 Q 40.7 377.2, 38.7 376.6 Q 36.2 375.9, 34.7 375.2 Q 33.2 374.4, 32.1 372.9 Q 31.1 371.4, 31.1 368.8 Q 31.1 365.3, 33.5 363.1 Q 35.9 360.9, 40.7 360.9 Q 44.0 360.9, 47.7 362.4 L 46.8 365.5 Q 43.4 364.1, 40.8 364.1 Q 38.1 364.1, 36.6 365.3 Q 35.0 366.4, 35.1 368.4 Q 35.1 369.9, 35.8 370.8 Q 36.6 371.7, 37.8 372.2 Q 38.9 372.8, 40.8 373.4 Q 43.4 374.2, 44.9 375.0 Q 46.4 375.8, 47.5 377.4 Q 48.6 379.0, 48.6 381.8 Q 48.6 385.7, 46.0 387.8 Q 43.4 389.9, 39.0 389.9 Q 36.5 389.9, 34.6 389.3 Q 32.7 388.8, 30.5 387.9 L 31.6 384.7 " fill="#000000"/>
<path class="atom-1" d="M 210.0 360.8 L 219.3 375.8 Q 220.2 377.3, 221.7 380.0 Q 223.2 382.7, 223.3 382.8 L 223.3 360.8 L 227.0 360.8 L 227.0 389.2 L 223.1 389.2 L 213.2 372.8 Q 212.0 370.8, 210.8 368.6 Q 209.6 366.4, 209.2 365.8 L 209.2 389.2 L 205.5 389.2 L 205.5 360.8 L 210.0 360.8 " fill="#000000"/>
<path class="atom-0" d="M 26.5,375.0 L 26.5,375.2 L 26.5,375.3 L 26.4,375.5 L 26.4,375.7 L 26.3,375.8 L 26.2,376.0 L 26.1,376.1 L 26.0,376.3 L 25.9,376.4 L 25.8,376.5 L 25.6,376.6 L 25.5,376.7 L 25.4,376.8 L 25.2,376.9 L 25.0,376.9 L 24.9,377.0 L 24.7,377.0 L 24.5,377.0 L 24.4,377.0 L 24.2,377.0 L 24.0,376.9 L 23.8,376.9 L 23.7,376.8 L 23.5,376.8 L 23.4,376.7 L 23.2,376.6 L 23.1,376.5 L 23.0,376.3 L 22.9,376.2 L 22.8,376.1 L 22.7,375.9 L 22.6,375.8 L 22.6,375.6 L 22.5,375.4 L 22.5,375.3 L 22.5,375.1 L 22.5,374.9 L 22.5,374.7 L 22.5,374.6 L 22.6,374.4 L 22.6,374.2 L 22.7,374.1 L 22.8,373.9 L 22.9,373.8 L 23.0,373.7 L 23.1,373.5 L 23.2,373.4 L 23.4,373.3 L 23.5,373.2 L 23.7,373.2 L 23.8,373.1 L 24.0,373.1 L 24.2,373.0 L 24.4,373.0 L 24.5,373.0 L 24.7,373.0 L 24.9,373.0 L 25.0,373.1 L 25.2,373.1 L 25.4,373.2 L 25.5,373.3 L 25.6,373.4 L 25.8,373.5 L 25.9,373.6 L 26.0,373.7 L 26.1,373.9 L 26.2,374.0 L 26.3,374.2 L 26.4,374.3 L 26.4,374.5 L 26.5,374.7 L 26.5,374.8 L 26.5,375.0 L 24.5,375.0 Z" style="fill:#000000;fill-rule:evenodd;fill-opacity:1;stroke:#000000;stroke-width:0.0px;stroke-linecap:butt;stroke-linejoin:miter;stroke-miterlimit:10;stroke-opacity:1;"/>
<path class="bond-0 atom-0 atom-1" d="M 454.9,357.6 L 396.0,391.6" style="fill:none;fill-rule:evenodd;stroke:#000000;stroke-width:2.0px;stroke-linecap:butt;stroke-linejoin:miter;stroke-opacity:1"/>
<path class="bond-1 atom-1 atom-2" d="M 363.1,391.6 L 295.1,352.4" style="fill:none;fill-rule:evenodd;stroke:#000000;stroke-width:2.0px;stroke-linecap:butt;stroke-linejoin:miter;stroke-opacity:1"/>
<path class="atom-0" d="M 458.3 350.3 Q 458.3 343.3, 461.6 339.6 Q 464.9 335.9, 471.2 335.9 Q 477.0 335.9, 480.2 340.0 L 477.5 342.1 Q 475.2 339.1, 471.2 339.1 Q 466.9 339.1, 464.6 342.0 Q 462.4 344.9, 462.4 350.3 Q 462.4 355.9, 464.7 358.8 Q 467.1 361.7, 471.6 361.7 Q 474.8 361.7, 478.4 359.8 L 479.5 362.8 Q 478.0 363.7, 475.8 364.3 Q 473.6 364.9, 471.1 364.9 Q 464.9 364.9, 461.6 361.1 Q 458.3 357.3, 458.3 350.3 " fill="#000000"/>
<path class="atom-0" d="M 483.0 334.1 L 486.7 334.1 L 486.7 364.5 L 483.0 364.5 L 483.0 334.1 " fill="#000000"/>
<path class="atom-1" d="M 366.5 401.2 Q 366.5 394.4, 369.9 390.6 Q 373.3 386.8, 379.5 386.8 Q 385.8 386.8, 389.2 390.6 Q 392.5 394.4, 392.5 401.2 Q 392.5 408.1, 389.1 412.0 Q 385.7 415.9, 379.5 415.9 Q 373.3 415.9, 369.9 412.0 Q 366.5 408.1, 366.5 401.2 M 379.5 412.7 Q 383.9 412.7, 386.2 409.8 Q 388.5 406.9, 388.5 401.2 Q 388.5 395.6, 386.2 392.8 Q 383.9 390.0, 379.5 390.0 Q 375.2 390.0, 372.9 392.8 Q 370.5 395.6, 370.5 401.2 Q 370.5 406.9, 372.9 409.8 Q 375.2 412.7, 379.5 412.7 " fill="#000000"/>
<path class="atom-2" d="M 263.3 350.3 Q 263.3 343.3, 266.6 339.6 Q 269.9 335.9, 276.2 335.9 Q 282.0 335.9, 285.1 340.0 L 282.5 342.1 Q 280.2 339.1, 276.2 339.1 Q 271.9 339.1, 269.6 342.0 Q 267.4 344.9, 267.4 350.3 Q 267.4 355.9, 269.7 358.8 Q 272.0 361.7, 276.6 361.7 Q 279.7 361.7, 283.4 359.8 L 284.5 362.8 Q 283.0 363.7, 280.8 364.3 Q 278.5 364.9, 276.0 364.9 Q 269.9 364.9, 266.6 361.1 Q 263.3 357.3, 263.3 350.3 " fill="#000000"/>
<path class="atom-2" d="M 288.0 334.1 L 291.7 334.1 L 291.7 364.5 L 288.0 364.5 L 288.0 334.1 " fill="#000000"/>
<path class="bond-0 atom-0 atom-1" d="M 554.3,406.3 L 555.8,392.2" style="fill:none;fill-rule:evenodd;stroke:#000000;stroke-width:2.0px;stroke-linecap:butt;stroke-linejoin:miter;stroke-opacity:1"/>
<path class="bond-1 atom-1 atom-2" d="M 553.5,386.1 L 541.4,377.3" style="fill:none;fill-rule:evenodd;stroke:#000000;stroke-width:2.0px;stroke-linecap:butt;stroke-linejoin:miter;stroke-opacity:1"/>
<path class="bond-2 atom-2 atom-3" d="M 538.7,371.1 L 540.2,356.8" style="fill:none;fill-rule:evenodd;stroke:#000000;stroke-width:2.0px;stroke-linecap:butt;stroke-linejoin:miter;stroke-opacity:1"/>
<path class="bond-3 atom-3 atom-4" d="M 537.5,350.6 L 525.8,342.1" style="fill:none;fill-rule:evenodd;stroke:#000000;stroke-width:2.0px;stroke-linecap:butt;stroke-linejoin:miter;stroke-opacity:1"/>
<path class="bond-4 atom-3 atom-5" d="M 547.7,349.8 L 558.2,345.1" style="fill:none;fill-rule:evenodd;stroke:#000000;stroke-width:2.0px;stroke-linecap:butt;stroke-linejoin:miter;stroke-opacity:1"/>
<path class="bond-5 atom-5 atom-6" d="M 563.7,345.9 L 575.8,354.7" style="fill:none;fill-rule:evenodd;stroke:#000000;stroke-width:2.0px;stroke-linecap:butt;stroke-linejoin:miter;stroke-opacity:1"/>
<path class="bond-6 atom-6 atom-7" d="M 586.0,353.9 L 596.1,349.4" style="fill:none;fill-rule:evenodd;stroke:#000000;stroke-width:2.0px;stroke-linecap:butt;stroke-linejoin:miter;stroke-opacity:1"/>
<path class="bond-7 atom-7 atom-8" d="M 602.4,350.3 L 614.4,359.1" style="fill:none;fill-rule:evenodd;stroke:#000000;stroke-width:2.0px;stroke-linecap:butt;stroke-linejoin:miter;stroke-opacity:1"/>
<path class="bond-8 atom-8 atom-9" d="M 623.5,358.3 L 634.4,353.5" style="fill:none;fill-rule:evenodd;stroke:#000000;stroke-width:2.0px;stroke-linecap:butt;stroke-linejoin:miter;stroke-opacity:1"/>
<path class="bond-9 atom-9 atom-10" d="M 640.6,354.4 L 652.7,363.2" style="fill:none;fill-rule:evenodd;stroke:#000000;stroke-width:2.0px;stroke-linecap:butt;stroke-linejoin:miter;stroke-opacity:1"/>
<path class="bond-10 atom-10 atom-11" d="M 658.2,364.0 L 672.6,357.6" style="fill:none;fill-rule:evenodd;stroke:#000000;stroke-width:2.0px;stroke-linecap:butt;stroke-linejoin:miter;stroke-opacity:1"/>
<path class="bond-11 atom-11 atom-12" d="M 679.9,357.2 L 691.6,365.7" style="fill:none;fill-rule:evenodd;stroke:#000000;stroke-width:2.0px;stroke-linecap:butt;stroke-linejoin:miter;stroke-opacity:1"/>
<path class="bond-11 atom-11 atom-12" d="M 677.9,359.9 L 689.6,368.4" style="fill:none;fill-rule:evenodd;stroke:#000000;stroke-width:2.0px;stroke-linecap:butt;stroke-linejoin:miter;stroke-opacity:1"/>
<path class="bond-12 atom-12 atom-13" d="M 700.8,366.2 L 711.3,361.6" style="fill:none;fill-rule:evenodd;stroke:#000000;stroke-width:2.0px;stroke-linecap:butt;stroke-linejoin:miter;stroke-opacity:1"/>
<path class="bond-13 atom-13 atom-14" d="M 716.8,362.4 L 729.1,371.3" style="fill:none;fill-rule:evenodd;stroke:#000000;stroke-width:2.0px;stroke-linecap:butt;stroke-linejoin:miter;stroke-opacity:1"/>
<path class="atom-0" d="M 553.7 407.1 Q 554.8 407.1, 555.3 407.6 Q 555.9 408.0, 555.9 408.9 Q 555.9 409.8, 555.3 410.3 Q 554.8 410.8, 553.7 410.8 L 552.7 410.8 L 552.7 413.4 L 551.8 413.4 L 551.8 407.1 L 553.7 407.1 M 553.7 410.1 Q 554.3 410.1, 554.6 409.8 Q 555.0 409.5, 555.0 408.9 Q 555.0 408.4, 554.6 408.1 Q 554.3 407.8, 553.7 407.8 L 552.7 407.8 L 552.7 410.1 L 553.7 410.1 " fill="#000000"/>
<path class="atom-1" d="M 554.4 390.3 Q 554.5 390.3, 554.8 390.4 Q 555.1 390.6, 555.4 390.6 Q 555.8 390.7, 556.1 390.7 Q 556.7 390.7, 557.0 390.4 Q 557.4 390.1, 557.4 389.6 Q 557.4 389.3, 557.2 389.1 Q 557.0 388.8, 556.7 388.7 Q 556.5 388.6, 556.0 388.5 Q 555.5 388.3, 555.1 388.2 Q 554.8 388.0, 554.6 387.7 Q 554.3 387.3, 554.3 386.7 Q 554.3 386.0, 554.9 385.5 Q 555.4 385.0, 556.5 385.0 Q 557.2 385.0, 558.0 385.3 L 557.8 386.0 Q 557.1 385.7, 556.5 385.7 Q 555.9 385.7, 555.6 386.0 Q 555.2 386.2, 555.2 386.6 Q 555.2 387.0, 555.4 387.2 Q 555.6 387.4, 555.8 387.5 Q 556.1 387.6, 556.5 387.8 Q 557.1 387.9, 557.4 388.1 Q 557.8 388.3, 558.0 388.6 Q 558.2 389.0, 558.2 389.6 Q 558.2 390.5, 557.7 391.0 Q 557.1 391.4, 556.1 391.4 Q 555.5 391.4, 555.1 391.3 Q 554.7 391.2, 554.2 391.0 L 554.4 390.3 " fill="#000000"/>
<path class="atom-1" d="M 559.0 385.9 L 561.2 385.9 L 561.2 386.4 L 559.0 386.4 L 559.0 385.9 " fill="#000000"/>
<path class="atom-2" d="M 529.7 371.9 L 530.6 371.9 L 530.6 374.5 L 533.8 374.5 L 533.8 371.9 L 534.6 371.9 L 534.6 378.2 L 533.8 378.2 L 533.8 375.3 L 530.6 375.3 L 530.6 378.2 L 529.7 378.2 L 529.7 371.9 " fill="#000000"/>
<path class="atom-2" d="M 536.9 371.9 L 538.9 375.2 Q 539.2 375.5, 539.5 376.1 Q 539.8 376.7, 539.8 376.8 L 539.8 371.9 L 540.7 371.9 L 540.7 378.2 L 539.8 378.2 L 537.6 374.5 Q 537.3 374.1, 537.1 373.6 Q 536.8 373.1, 536.7 373.0 L 536.7 378.2 L 535.9 378.2 L 535.9 371.9 L 536.9 371.9 " fill="#000000"/>
<path class="atom-3" d="M 539.3 349.8 L 541.3 353.1 Q 541.5 353.4, 541.8 354.0 Q 542.2 354.6, 542.2 354.7 L 542.2 349.8 L 543.0 349.8 L 543.0 356.1 L 542.2 356.1 L 540.0 352.4 Q 539.7 352.0, 539.4 351.5 Q 539.2 351.0, 539.1 350.9 L 539.1 356.1 L 538.3 356.1 L 538.3 349.8 L 539.3 349.8 " fill="#000000"/>
<path class="atom-3" d="M 544.2 350.9 L 545.3 350.9 L 545.3 349.7 L 545.8 349.7 L 545.8 350.9 L 547.0 350.9 L 547.0 351.3 L 545.8 351.3 L 545.8 352.5 L 545.3 352.5 L 545.3 351.3 L 544.2 351.3 L 544.2 350.9 " fill="#000000"/>
<path class="atom-4" d="M 514.2 336.7 L 515.0 336.7 L 515.0 339.4 L 518.2 339.4 L 518.2 336.7 L 519.1 336.7 L 519.1 343.0 L 518.2 343.0 L 518.2 340.1 L 515.0 340.1 L 515.0 343.0 L 514.2 343.0 L 514.2 336.7 " fill="#000000"/>
<path class="atom-4" d="M 521.3 336.7 L 523.4 340.0 Q 523.6 340.3, 523.9 340.9 Q 524.2 341.5, 524.2 341.6 L 524.2 336.7 L 525.1 336.7 L 525.1 343.0 L 524.2 343.0 L 522.0 339.3 Q 521.7 338.9, 521.5 338.4 Q 521.2 337.9, 521.1 337.8 L 521.1 343.0 L 520.3 343.0 L 520.3 336.7 L 521.3 336.7 " fill="#000000"/>
<path class="atom-4" d="M 526.3 337.8 L 527.4 337.8 L 527.4 336.6 L 527.9 336.6 L 527.9 337.8 L 529.0 337.8 L 529.0 338.2 L 527.9 338.2 L 527.9 339.4 L 527.4 339.4 L 527.4 338.2 L 526.3 338.2 L 526.3 337.8 " fill="#000000"/>
<path class="atom-5" d="M 559.2 346.1 Q 559.3 346.1, 559.5 346.2 Q 559.8 346.4, 560.2 346.4 Q 560.5 346.5, 560.8 346.5 Q 561.4 346.5, 561.8 346.2 Q 562.1 345.9, 562.1 345.4 Q 562.1 345.1, 561.9 344.9 Q 561.8 344.7, 561.5 344.5 Q 561.2 344.4, 560.8 344.3 Q 560.2 344.1, 559.9 344.0 Q 559.5 343.8, 559.3 343.5 Q 559.1 343.1, 559.1 342.6 Q 559.1 341.8, 559.6 341.3 Q 560.2 340.8, 561.2 340.8 Q 561.9 340.8, 562.8 341.1 L 562.6 341.8 Q 561.8 341.5, 561.2 341.5 Q 560.6 341.5, 560.3 341.8 Q 560.0 342.0, 560.0 342.5 Q 560.0 342.8, 560.1 343.0 Q 560.3 343.2, 560.6 343.3 Q 560.8 343.4, 561.2 343.6 Q 561.8 343.7, 562.2 343.9 Q 562.5 344.1, 562.7 344.5 Q 563.0 344.8, 563.0 345.4 Q 563.0 346.3, 562.4 346.8 Q 561.8 347.2, 560.8 347.2 Q 560.3 347.2, 559.9 347.1 Q 559.4 347.0, 558.9 346.8 L 559.2 346.1 " fill="#000000"/>
<path class="atom-5" d="M 563.8 341.7 L 565.9 341.7 L 565.9 342.2 L 563.8 342.2 L 563.8 341.7 " fill="#000000"/>
<path class="atom-6" d="M 577.5 353.9 L 579.6 357.2 Q 579.8 357.5, 580.1 358.1 Q 580.4 358.7, 580.5 358.8 L 580.5 353.9 L 581.3 353.9 L 581.3 360.2 L 580.4 360.2 L 578.2 356.5 Q 578.0 356.1, 577.7 355.6 Q 577.4 355.1, 577.3 355.0 L 577.3 360.2 L 576.5 360.2 L 576.5 353.9 L 577.5 353.9 " fill="#000000"/>
<path class="atom-6" d="M 582.5 355.0 L 583.6 355.0 L 583.6 353.8 L 584.1 353.8 L 584.1 355.0 L 585.2 355.0 L 585.2 355.4 L 584.1 355.4 L 584.1 356.6 L 583.6 356.6 L 583.6 355.4 L 582.5 355.4 L 582.5 355.0 " fill="#000000"/>
<path class="atom-6" d="M 576.5 360.8 L 577.3 360.8 L 577.3 363.5 L 580.5 363.5 L 580.5 360.8 L 581.4 360.8 L 581.4 367.1 L 580.5 367.1 L 580.5 364.2 L 577.3 364.2 L 577.3 367.1 L 576.5 367.1 L 576.5 360.8 " fill="#000000"/>
<path class="atom-6" d="M 582.6 366.9 Q 582.8 366.5, 583.1 366.3 Q 583.5 366.0, 584.0 366.0 Q 584.6 366.0, 585.0 366.4 Q 585.3 366.7, 585.3 367.3 Q 585.3 367.9, 584.9 368.5 Q 584.4 369.1, 583.5 369.8 L 585.4 369.8 L 585.4 370.2 L 582.6 370.2 L 582.6 369.8 Q 583.4 369.3, 583.8 368.9 Q 584.3 368.5, 584.5 368.1 Q 584.7 367.7, 584.7 367.4 Q 584.7 367.0, 584.5 366.7 Q 584.3 366.5, 584.0 366.5 Q 583.7 366.5, 583.4 366.6 Q 583.2 366.8, 583.0 367.1 L 582.6 366.9 " fill="#000000"/>
<path class="atom-7" d="M 597.8 344.9 L 599.9 348.2 Q 600.1 348.5, 600.4 349.1 Q 600.8 349.7, 600.8 349.8 L 600.8 344.9 L 601.6 344.9 L 601.6 351.2 L 600.8 351.2 L 598.5 347.5 Q 598.3 347.1, 598.0 346.6 Q 597.7 346.1, 597.7 346.0 L 597.7 351.2 L 596.8 351.2 L 596.8 344.9 L 597.8 344.9 " fill="#000000"/>
<path class="atom-7" d="M 596.8 338.0 L 597.6 338.0 L 597.6 340.6 L 600.8 340.6 L 600.8 338.0 L 601.7 338.0 L 601.7 344.3 L 600.8 344.3 L 600.8 341.3 L 597.6 341.3 L 597.6 344.3 L 596.8 344.3 L 596.8 338.0 " fill="#000000"/>
<path class="atom-8" d="M 615.4 363.3 Q 615.5 363.3, 615.8 363.4 Q 616.1 363.6, 616.4 363.6 Q 616.7 363.7, 617.0 363.7 Q 617.6 363.7, 618.0 363.4 Q 618.3 363.1, 618.3 362.6 Q 618.3 362.3, 618.1 362.1 Q 618.0 361.9, 617.7 361.7 Q 617.4 361.6, 617.0 361.5 Q 616.4 361.3, 616.1 361.2 Q 615.8 361.0, 615.5 360.7 Q 615.3 360.3, 615.3 359.8 Q 615.3 359.0, 615.8 358.5 Q 616.4 358.0, 617.4 358.0 Q 618.2 358.0, 619.0 358.3 L 618.8 359.0 Q 618.0 358.7, 617.5 358.7 Q 616.9 358.7, 616.5 359.0 Q 616.2 359.2, 616.2 359.7 Q 616.2 360.0, 616.4 360.2 Q 616.5 360.4, 616.8 360.5 Q 617.0 360.6, 617.5 360.8 Q 618.0 360.9, 618.4 361.1 Q 618.7 361.3, 618.9 361.7 Q 619.2 362.0, 619.2 362.6 Q 619.2 363.5, 618.6 364.0 Q 618.0 364.4, 617.1 364.4 Q 616.5 364.4, 616.1 364.3 Q 615.7 364.2, 615.2 364.0 L 615.4 363.3 " fill="#000000"/>
<path class="atom-8" d="M 620.0 359.0 L 621.1 359.0 L 621.1 357.9 L 621.6 357.9 L 621.6 359.0 L 622.8 359.0 L 622.8 359.5 L 621.6 359.5 L 621.6 360.6 L 621.1 360.6 L 621.1 359.5 L 620.0 359.5 L 620.0 359.0 " fill="#000000"/>
<path class="atom-9" d="M 636.1 349.0 L 638.2 352.3 Q 638.4 352.7, 638.7 353.2 Q 639.0 353.8, 639.1 353.9 L 639.1 349.0 L 639.9 349.0 L 639.9 355.3 L 639.0 355.3 L 636.8 351.6 Q 636.6 351.2, 636.3 350.7 Q 636.0 350.2, 635.9 350.1 L 635.9 355.3 L 635.1 355.3 L 635.1 349.0 L 636.1 349.0 " fill="#000000"/>
<path class="atom-9" d="M 635.0 342.1 L 635.9 342.1 L 635.9 344.7 L 639.1 344.7 L 639.1 342.1 L 640.0 342.1 L 640.0 348.4 L 639.1 348.4 L 639.1 345.5 L 635.9 345.5 L 635.9 348.4 L 635.0 348.4 L 635.0 342.1 " fill="#000000"/>
<path class="atom-9" d="M 641.2 348.1 Q 641.3 347.7, 641.7 347.5 Q 642.1 347.3, 642.6 347.3 Q 643.2 347.3, 643.5 347.6 Q 643.9 348.0, 643.9 348.6 Q 643.9 349.2, 643.4 349.8 Q 643.0 350.4, 642.0 351.0 L 644.0 351.0 L 644.0 351.5 L 641.2 351.5 L 641.2 351.1 Q 641.9 350.6, 642.4 350.2 Q 642.9 349.7, 643.1 349.4 Q 643.3 349.0, 643.3 348.6 Q 643.3 348.2, 643.1 348.0 Q 642.9 347.8, 642.6 347.8 Q 642.2 347.8, 642.0 347.9 Q 641.8 348.0, 641.6 348.3 L 641.2 348.1 " fill="#000000"/>
<path class="atom-9" d="M 641.2 343.2 L 642.3 343.2 L 642.3 342.0 L 642.8 342.0 L 642.8 343.2 L 643.9 343.2 L 643.9 343.6 L 642.8 343.6 L 642.8 344.8 L 642.3 344.8 L 642.3 343.6 L 641.2 343.6 L 641.2 343.2 " fill="#000000"/>
<path class="atom-10" d="M 653.7 367.4 Q 653.7 367.4, 654.0 367.5 Q 654.3 367.7, 654.6 367.7 Q 655.0 367.8, 655.3 367.8 Q 655.9 367.8, 656.2 367.5 Q 656.6 367.2, 656.6 366.7 Q 656.6 366.4, 656.4 366.2 Q 656.2 366.0, 656.0 365.8 Q 655.7 365.7, 655.3 365.6 Q 654.7 365.4, 654.4 365.3 Q 654.0 365.1, 653.8 364.8 Q 653.6 364.4, 653.6 363.9 Q 653.6 363.1, 654.1 362.6 Q 654.6 362.1, 655.7 362.1 Q 656.4 362.1, 657.3 362.4 L 657.1 363.1 Q 656.3 362.8, 655.7 362.8 Q 655.1 362.8, 654.8 363.1 Q 654.4 363.3, 654.5 363.8 Q 654.5 364.1, 654.6 364.3 Q 654.8 364.5, 655.0 364.6 Q 655.3 364.7, 655.7 364.9 Q 656.3 365.0, 656.6 365.2 Q 657.0 365.4, 657.2 365.8 Q 657.5 366.1, 657.5 366.7 Q 657.5 367.6, 656.9 368.1 Q 656.3 368.5, 655.3 368.5 Q 654.8 368.5, 654.3 368.4 Q 653.9 368.3, 653.4 368.1 L 653.7 367.4 " fill="#000000"/>
<path class="atom-11" d="M 674.4 353.1 L 676.4 356.4 Q 676.6 356.8, 677.0 357.3 Q 677.3 357.9, 677.3 358.0 L 677.3 353.1 L 678.2 353.1 L 678.2 359.4 L 677.3 359.4 L 675.1 355.7 Q 674.8 355.3, 674.5 354.8 Q 674.3 354.3, 674.2 354.2 L 674.2 359.4 L 673.4 359.4 L 673.4 353.1 L 674.4 353.1 " fill="#000000"/>
<path class="atom-12" d="M 692.3 366.2 L 694.4 369.5 Q 694.6 369.9, 694.9 370.4 Q 695.3 371.0, 695.3 371.1 L 695.3 366.2 L 696.1 366.2 L 696.1 372.5 L 695.2 372.5 L 693.0 368.8 Q 692.8 368.4, 692.5 367.9 Q 692.2 367.4, 692.1 367.3 L 692.1 372.5 L 691.3 372.5 L 691.3 366.2 L 692.3 366.2 " fill="#000000"/>
<path class="atom-12" d="M 697.3 367.3 L 698.4 367.3 L 698.4 366.2 L 698.9 366.2 L 698.9 367.3 L 700.0 367.3 L 700.0 367.7 L 698.9 367.7 L 698.9 368.9 L 698.4 368.9 L 698.4 367.7 L 697.3 367.7 L 697.3 367.3 " fill="#000000"/>
<path class="atom-13" d="M 712.3 362.5 Q 712.3 362.5, 712.6 362.7 Q 712.9 362.8, 713.2 362.9 Q 713.6 362.9, 713.9 362.9 Q 714.5 362.9, 714.8 362.6 Q 715.2 362.4, 715.2 361.8 Q 715.2 361.5, 715.0 361.3 Q 714.8 361.1, 714.6 361.0 Q 714.3 360.8, 713.9 360.7 Q 713.3 360.5, 713.0 360.4 Q 712.6 360.2, 712.4 359.9 Q 712.2 359.5, 712.2 359.0 Q 712.2 358.2, 712.7 357.7 Q 713.2 357.2, 714.3 357.2 Q 715.0 357.2, 715.9 357.6 L 715.6 358.2 Q 714.9 357.9, 714.3 357.9 Q 713.7 357.9, 713.4 358.2 Q 713.0 358.4, 713.0 358.9 Q 713.0 359.2, 713.2 359.4 Q 713.4 359.6, 713.6 359.7 Q 713.9 359.8, 714.3 360.0 Q 714.9 360.2, 715.2 360.3 Q 715.6 360.5, 715.8 360.9 Q 716.1 361.2, 716.1 361.8 Q 716.1 362.7, 715.5 363.2 Q 714.9 363.6, 713.9 363.6 Q 713.4 363.6, 712.9 363.5 Q 712.5 363.4, 712.0 363.2 L 712.3 362.5 " fill="#000000"/>
<path class="atom-14" d="M 732.9 373.3 Q 733.5 373.5, 733.8 373.8 Q 734.1 374.2, 734.1 374.7 Q 734.1 375.6, 733.6 376.1 Q 733.0 376.6, 732.0 376.6 L 729.8 376.6 L 729.8 370.3 L 731.7 370.3 Q 732.8 370.3, 733.3 370.7 Q 733.9 371.2, 733.9 372.0 Q 733.9 372.9, 732.9 373.3 M 730.7 371.0 L 730.7 373.0 L 731.7 373.0 Q 732.3 373.0, 732.6 372.7 Q 733.0 372.5, 733.0 372.0 Q 733.0 371.0, 731.7 371.0 L 730.7 371.0 M 732.0 375.9 Q 732.6 375.9, 732.9 375.6 Q 733.2 375.3, 733.2 374.7 Q 733.2 374.2, 732.9 374.0 Q 732.5 373.7, 731.8 373.7 L 730.7 373.7 L 730.7 375.9 L 732.0 375.9 " fill="#000000"/>
<path class="atom-14" d="M 735.6 372.0 L 735.7 372.7 Q 736.1 371.9, 736.9 371.9 Q 737.2 371.9, 737.5 372.0 L 737.4 372.8 Q 737.0 372.7, 736.8 372.7 Q 736.4 372.7, 736.1 372.8 Q 735.9 373.0, 735.7 373.3 L 735.7 376.6 L 734.9 376.6 L 734.9 372.0 L 735.6 372.0 " fill="#000000"/>
<path class="atom-0" d="M 557.6,411.1 L 557.6,411.1 L 557.6,411.2 L 557.6,411.2 L 557.6,411.2 L 557.6,411.3 L 557.6,411.3 L 557.6,411.4 L 557.5,411.4 L 557.5,411.4 L 557.5,411.4 L 557.5,411.5 L 557.4,411.5 L 557.4,411.5 L 557.4,411.5 L 557.3,411.5 L 557.3,411.5 L 557.2,411.5 L 557.2,411.5 L 557.2,411.5 L 557.1,411.5 L 557.1,411.5 L 557.1,411.5 L 557.0,411.5 L 557.0,411.5 L 557.0,411.5 L 556.9,411.4 L 556.9,411.4 L 556.9,411.4 L 556.8,411.4 L 556.8,411.3 L 556.8,411.3 L 556.8,411.3 L 556.8,411.2 L 556.8,411.2 L 556.8,411.2 L 556.8,411.1 L 556.8,411.1 L 556.8,411.0 L 556.8,411.0 L 556.8,411.0 L 556.8,410.9 L 556.8,410.9 L 556.8,410.9 L 556.8,410.8 L 556.9,410.8 L 556.9,410.8 L 556.9,410.7 L 557.0,410.7 L 557.0,410.7 L 557.0,410.7 L 557.1,410.7 L 557.1,410.7 L 557.1,410.7 L 557.2,410.7 L 557.2,410.7 L 557.2,410.7 L 557.3,410.7 L 557.3,410.7 L 557.4,410.7 L 557.4,410.7 L 557.4,410.7 L 557.5,410.7 L 557.5,410.8 L 557.5,410.8 L 557.5,410.8 L 557.6,410.8 L 557.6,410.9 L 557.6,410.9 L 557.6,410.9 L 557.6,411.0 L 557.6,411.0 L 557.6,411.1 L 557.6,411.1 L 557.2,411.1 Z" style="fill:#000000;fill-rule:evenodd;fill-opacity:1;stroke:#000000;stroke-width:0.0px;stroke-linecap:butt;stroke-linejoin:miter;stroke-miterlimit:10;stroke-opacity:1;"/>
<path class="atom-0" d="M 557.6,409.3 L 557.6,409.4 L 557.6,409.4 L 557.6,409.4 L 557.6,409.5 L 557.6,409.5 L 557.6,409.5 L 557.6,409.6 L 557.5,409.6 L 557.5,409.6 L 557.5,409.7 L 557.5,409.7 L 557.4,409.7 L 557.4,409.7 L 557.4,409.7 L 557.3,409.7 L 557.3,409.8 L 557.2,409.8 L 557.2,409.8 L 557.2,409.8 L 557.1,409.8 L 557.1,409.8 L 557.1,409.7 L 557.0,409.7 L 557.0,409.7 L 557.0,409.7 L 556.9,409.7 L 556.9,409.6 L 556.9,409.6 L 556.8,409.6 L 556.8,409.6 L 556.8,409.5 L 556.8,409.5 L 556.8,409.5 L 556.8,409.4 L 556.8,409.4 L 556.8,409.3 L 556.8,409.3 L 556.8,409.3 L 556.8,409.2 L 556.8,409.2 L 556.8,409.2 L 556.8,409.1 L 556.8,409.1 L 556.8,409.1 L 556.9,409.0 L 556.9,409.0 L 556.9,409.0 L 557.0,408.9 L 557.0,408.9 L 557.0,408.9 L 557.1,408.9 L 557.1,408.9 L 557.1,408.9 L 557.2,408.9 L 557.2,408.9 L 557.2,408.9 L 557.3,408.9 L 557.3,408.9 L 557.4,408.9 L 557.4,408.9 L 557.4,408.9 L 557.5,409.0 L 557.5,409.0 L 557.5,409.0 L 557.5,409.0 L 557.6,409.1 L 557.6,409.1 L 557.6,409.1 L 557.6,409.2 L 557.6,409.2 L 557.6,409.2 L 557.6,409.3 L 557.6,409.3 L 557.2,409.3 Z" style="fill:#000000;fill-rule:evenodd;fill-opacity:1;stroke:#000000;stroke-width:0.0px;stroke-linecap:butt;stroke-linejoin:miter;stroke-miterlimit:10;stroke-opacity:1;"/>
<path class="atom-1" d="M 563.0,388.1 L 563.0,388.2 L 562.9,388.2 L 562.9,388.2 L 562.9,388.3 L 562.9,388.3 L 562.9,388.3 L 562.9,388.4 L 562.9,388.4 L 562.8,388.4 L 562.8,388.5 L 562.8,388.5 L 562.7,388.5 L 562.7,388.5 L 562.7,388.5 L 562.6,388.5 L 562.6,388.6 L 562.6,388.6 L 562.5,388.6 L 562.5,388.6 L 562.4,388.6 L 562.4,388.5 L 562.4,388.5 L 562.3,388.5 L 562.3,388.5 L 562.3,388.5 L 562.2,388.5 L 562.2,388.4 L 562.2,388.4 L 562.2,388.4 L 562.1,388.4 L 562.1,388.3 L 562.1,388.3 L 562.1,388.2 L 562.1,388.2 L 562.1,388.2 L 562.1,388.1 L 562.1,388.1 L 562.1,388.1 L 562.1,388.0 L 562.1,388.0 L 562.1,387.9 L 562.1,387.9 L 562.1,387.9 L 562.2,387.8 L 562.2,387.8 L 562.2,387.8 L 562.2,387.8 L 562.3,387.7 L 562.3,387.7 L 562.3,387.7 L 562.4,387.7 L 562.4,387.7 L 562.4,387.7 L 562.5,387.7 L 562.5,387.7 L 562.6,387.7 L 562.6,387.7 L 562.6,387.7 L 562.7,387.7 L 562.7,387.7 L 562.7,387.7 L 562.8,387.8 L 562.8,387.8 L 562.8,387.8 L 562.9,387.8 L 562.9,387.9 L 562.9,387.9 L 562.9,387.9 L 562.9,388.0 L 562.9,388.0 L 562.9,388.0 L 563.0,388.1 L 563.0,388.1 L 562.5,388.1 Z" style="fill:#000000;fill-rule:evenodd;fill-opacity:1;stroke:#000000;stroke-width:0.0px;stroke-linecap:butt;stroke-linejoin:miter;stroke-miterlimit:10;stroke-opacity:1;"/>
<path class="atom-3" d="M 541.1,349.1 L 541.1,349.1 L 541.1,349.2 L 541.1,349.2 L 541.1,349.2 L 541.0,349.3 L 541.0,349.3 L 541.0,349.3 L 541.0,349.4 L 541.0,349.4 L 540.9,349.4 L 540.9,349.4 L 540.9,349.5 L 540.8,349.5 L 540.8,349.5 L 540.8,349.5 L 540.7,349.5 L 540.7,349.5 L 540.7,349.5 L 540.6,349.5 L 540.6,349.5 L 540.5,349.5 L 540.5,349.5 L 540.5,349.5 L 540.4,349.5 L 540.4,349.4 L 540.4,349.4 L 540.3,349.4 L 540.3,349.4 L 540.3,349.3 L 540.3,349.3 L 540.2,349.3 L 540.2,349.2 L 540.2,349.2 L 540.2,349.2 L 540.2,349.1 L 540.2,349.1 L 540.2,349.1 L 540.2,349.0 L 540.2,349.0 L 540.2,348.9 L 540.2,348.9 L 540.2,348.9 L 540.3,348.8 L 540.3,348.8 L 540.3,348.8 L 540.3,348.8 L 540.4,348.7 L 540.4,348.7 L 540.4,348.7 L 540.5,348.7 L 540.5,348.7 L 540.5,348.6 L 540.6,348.6 L 540.6,348.6 L 540.7,348.6 L 540.7,348.6 L 540.7,348.6 L 540.8,348.6 L 540.8,348.7 L 540.8,348.7 L 540.9,348.7 L 540.9,348.7 L 540.9,348.7 L 541.0,348.8 L 541.0,348.8 L 541.0,348.8 L 541.0,348.9 L 541.0,348.9 L 541.1,348.9 L 541.1,349.0 L 541.1,349.0 L 541.1,349.0 L 541.1,349.1 L 540.6,349.1 Z" style="fill:#000000;fill-rule:evenodd;fill-opacity:1;stroke:#000000;stroke-width:0.0px;stroke-linecap:butt;stroke-linejoin:miter;stroke-miterlimit:10;stroke-opacity:1;"/>
<path class="atom-4" d="M 513.3,340.7 L 513.3,340.8 L 513.3,340.8 L 513.3,340.8 L 513.3,340.9 L 513.2,340.9 L 513.2,340.9 L 513.2,341.0 L 513.2,341.0 L 513.2,341.0 L 513.1,341.0 L 513.1,341.1 L 513.1,341.1 L 513.0,341.1 L 513.0,341.1 L 513.0,341.1 L 512.9,341.1 L 512.9,341.2 L 512.8,341.2 L 512.8,341.2 L 512.8,341.2 L 512.7,341.1 L 512.7,341.1 L 512.7,341.1 L 512.6,341.1 L 512.6,341.1 L 512.6,341.1 L 512.5,341.0 L 512.5,341.0 L 512.5,341.0 L 512.5,340.9 L 512.4,340.9 L 512.4,340.9 L 512.4,340.8 L 512.4,340.8 L 512.4,340.8 L 512.4,340.7 L 512.4,340.7 L 512.4,340.7 L 512.4,340.6 L 512.4,340.6 L 512.4,340.5 L 512.4,340.5 L 512.5,340.5 L 512.5,340.4 L 512.5,340.4 L 512.5,340.4 L 512.6,340.4 L 512.6,340.3 L 512.6,340.3 L 512.7,340.3 L 512.7,340.3 L 512.7,340.3 L 512.8,340.3 L 512.8,340.3 L 512.8,340.3 L 512.9,340.3 L 512.9,340.3 L 513.0,340.3 L 513.0,340.3 L 513.0,340.3 L 513.1,340.3 L 513.1,340.4 L 513.1,340.4 L 513.2,340.4 L 513.2,340.4 L 513.2,340.5 L 513.2,340.5 L 513.2,340.5 L 513.3,340.6 L 513.3,340.6 L 513.3,340.6 L 513.3,340.7 L 513.3,340.7 L 512.8,340.7 Z" style="fill:#000000;fill-rule:evenodd;fill-opacity:1;stroke:#000000;stroke-width:0.0px;stroke-linecap:butt;stroke-linejoin:miter;stroke-miterlimit:10;stroke-opacity:1;"/>
<path class="atom-4" d="M 513.3,338.9 L 513.3,339.0 L 513.3,339.0 L 513.3,339.0 L 513.3,339.1 L 513.2,339.1 L 513.2,339.2 L 513.2,339.2 L 513.2,339.2 L 513.2,339.2 L 513.1,339.3 L 513.1,339.3 L 513.1,339.3 L 513.0,339.3 L 513.0,339.3 L 513.0,339.4 L 512.9,339.4 L 512.9,339.4 L 512.8,339.4 L 512.8,339.4 L 512.8,339.4 L 512.7,339.4 L 512.7,339.4 L 512.7,339.3 L 512.6,339.3 L 512.6,339.3 L 512.6,339.3 L 512.5,339.3 L 512.5,339.2 L 512.5,339.2 L 512.5,339.2 L 512.4,339.1 L 512.4,339.1 L 512.4,339.1 L 512.4,339.0 L 512.4,339.0 L 512.4,339.0 L 512.4,338.9 L 512.4,338.9 L 512.4,338.8 L 512.4,338.8 L 512.4,338.8 L 512.4,338.7 L 512.5,338.7 L 512.5,338.7 L 512.5,338.6 L 512.5,338.6 L 512.6,338.6 L 512.6,338.6 L 512.6,338.5 L 512.7,338.5 L 512.7,338.5 L 512.7,338.5 L 512.8,338.5 L 512.8,338.5 L 512.8,338.5 L 512.9,338.5 L 512.9,338.5 L 513.0,338.5 L 513.0,338.5 L 513.0,338.5 L 513.1,338.6 L 513.1,338.6 L 513.1,338.6 L 513.2,338.6 L 513.2,338.7 L 513.2,338.7 L 513.2,338.7 L 513.2,338.7 L 513.3,338.8 L 513.3,338.8 L 513.3,338.9 L 513.3,338.9 L 513.3,338.9 L 512.8,338.9 Z" style="fill:#000000;fill-rule:evenodd;fill-opacity:1;stroke:#000000;stroke-width:0.0px;stroke-linecap:butt;stroke-linejoin:miter;stroke-miterlimit:10;stroke-opacity:1;"/>
<path class="atom-5" d="M 567.7,343.9 L 567.7,344.0 L 567.7,344.0 L 567.7,344.0 L 567.7,344.1 L 567.7,344.1 L 567.6,344.1 L 567.6,344.2 L 567.6,344.2 L 567.6,344.2 L 567.5,344.3 L 567.5,344.3 L 567.5,344.3 L 567.4,344.3 L 567.4,344.3 L 567.4,344.4 L 567.3,344.4 L 567.3,344.4 L 567.3,344.4 L 567.2,344.4 L 567.2,344.4 L 567.1,344.4 L 567.1,344.3 L 567.1,344.3 L 567.0,344.3 L 567.0,344.3 L 567.0,344.3 L 566.9,344.3 L 566.9,344.2 L 566.9,344.2 L 566.9,344.2 L 566.9,344.1 L 566.8,344.1 L 566.8,344.1 L 566.8,344.0 L 566.8,344.0 L 566.8,343.9 L 566.8,343.9 L 566.8,343.9 L 566.8,343.8 L 566.8,343.8 L 566.8,343.8 L 566.9,343.7 L 566.9,343.7 L 566.9,343.7 L 566.9,343.6 L 566.9,343.6 L 567.0,343.6 L 567.0,343.6 L 567.0,343.5 L 567.1,343.5 L 567.1,343.5 L 567.1,343.5 L 567.2,343.5 L 567.2,343.5 L 567.3,343.5 L 567.3,343.5 L 567.3,343.5 L 567.4,343.5 L 567.4,343.5 L 567.4,343.5 L 567.5,343.5 L 567.5,343.6 L 567.5,343.6 L 567.6,343.6 L 567.6,343.6 L 567.6,343.7 L 567.6,343.7 L 567.7,343.7 L 567.7,343.8 L 567.7,343.8 L 567.7,343.9 L 567.7,343.9 L 567.7,343.9 L 567.2,343.9 Z" style="fill:#000000;fill-rule:evenodd;fill-opacity:1;stroke:#000000;stroke-width:0.0px;stroke-linecap:butt;stroke-linejoin:miter;stroke-miterlimit:10;stroke-opacity:1;"/>
<path class="atom-8" d="M 624.5,361.1 L 624.5,361.2 L 624.5,361.2 L 624.5,361.2 L 624.5,361.3 L 624.5,361.3 L 624.5,361.3 L 624.5,361.4 L 624.4,361.4 L 624.4,361.4 L 624.4,361.5 L 624.4,361.5 L 624.3,361.5 L 624.3,361.5 L 624.3,361.5 L 624.2,361.6 L 624.2,361.6 L 624.1,361.6 L 624.1,361.6 L 624.1,361.6 L 624.0,361.6 L 624.0,361.6 L 624.0,361.6 L 623.9,361.5 L 623.9,361.5 L 623.9,361.5 L 623.8,361.5 L 623.8,361.5 L 623.8,361.4 L 623.7,361.4 L 623.7,361.4 L 623.7,361.3 L 623.7,361.3 L 623.7,361.3 L 623.7,361.2 L 623.7,361.2 L 623.7,361.1 L 623.7,361.1 L 623.7,361.1 L 623.7,361.0 L 623.7,361.0 L 623.7,361.0 L 623.7,360.9 L 623.7,360.9 L 623.7,360.9 L 623.8,360.8 L 623.8,360.8 L 623.8,360.8 L 623.9,360.8 L 623.9,360.7 L 623.9,360.7 L 624.0,360.7 L 624.0,360.7 L 624.0,360.7 L 624.1,360.7 L 624.1,360.7 L 624.1,360.7 L 624.2,360.7 L 624.2,360.7 L 624.3,360.7 L 624.3,360.7 L 624.3,360.7 L 624.4,360.8 L 624.4,360.8 L 624.4,360.8 L 624.4,360.8 L 624.5,360.9 L 624.5,360.9 L 624.5,360.9 L 624.5,361.0 L 624.5,361.0 L 624.5,361.1 L 624.5,361.1 L 624.5,361.1 L 624.1,361.1 Z" style="fill:#000000;fill-rule:evenodd;fill-opacity:1;stroke:#000000;stroke-width:0.0px;stroke-linecap:butt;stroke-linejoin:miter;stroke-miterlimit:10;stroke-opacity:1;"/>
<path class="atom-12" d="M 701.8,369.3 L 701.8,369.4 L 701.8,369.4 L 701.8,369.5 L 701.8,369.5 L 701.8,369.5 L 701.7,369.6 L 701.7,369.6 L 701.7,369.6 L 701.7,369.6 L 701.7,369.7 L 701.6,369.7 L 701.6,369.7 L 701.6,369.7 L 701.5,369.8 L 701.5,369.8 L 701.4,369.8 L 701.4,369.8 L 701.4,369.8 L 701.3,369.8 L 701.3,369.8 L 701.3,369.8 L 701.2,369.8 L 701.2,369.7 L 701.2,369.7 L 701.1,369.7 L 701.1,369.7 L 701.1,369.7 L 701.0,369.6 L 701.0,369.6 L 701.0,369.6 L 701.0,369.5 L 700.9,369.5 L 700.9,369.5 L 700.9,369.4 L 700.9,369.4 L 700.9,369.4 L 700.9,369.3 L 700.9,369.3 L 700.9,369.2 L 700.9,369.2 L 700.9,369.2 L 701.0,369.1 L 701.0,369.1 L 701.0,369.1 L 701.0,369.0 L 701.1,369.0 L 701.1,369.0 L 701.1,369.0 L 701.2,368.9 L 701.2,368.9 L 701.2,368.9 L 701.3,368.9 L 701.3,368.9 L 701.3,368.9 L 701.4,368.9 L 701.4,368.9 L 701.4,368.9 L 701.5,368.9 L 701.5,368.9 L 701.6,368.9 L 701.6,369.0 L 701.6,369.0 L 701.7,369.0 L 701.7,369.0 L 701.7,369.1 L 701.7,369.1 L 701.7,369.1 L 701.8,369.2 L 701.8,369.2 L 701.8,369.2 L 701.8,369.3 L 701.8,369.3 L 701.8,369.3 L 701.4,369.3 Z" style="fill:#000000;fill-rule:evenodd;fill-opacity:1;stroke:#000000;stroke-width:0.0px;stroke-linecap:butt;stroke-linejoin:miter;stroke-miterlimit:10;stroke-opacity:1;"/>
<path class="bond-0 atom-0 atom-1" d="M 26.2,643.8 L 42.7,634.6" style="fill:none;fill-rule:evenodd;stroke:#000000;stroke-width:2.0px;stroke-linecap:butt;stroke-linejoin:miter;stroke-opacity:1"/>
<path class="bond-1 atom-1 atom-2" d="M 53.3,632.6 L 73.0,644.3" style="fill:none;fill-rule:evenodd;stroke:#000000;stroke-width:2.0px;stroke-linecap:butt;stroke-linejoin:miter;stroke-opacity:1"/>
<path class="bond-1 atom-1 atom-2" d="M 50.8,636.8 L 70.4,648.5" style="fill:none;fill-rule:evenodd;stroke:#000000;stroke-width:2.0px;stroke-linecap:butt;stroke-linejoin:miter;stroke-opacity:1"/>
<path class="bond-2 atom-2 atom-3" d="M 79.8,646.6 L 104.6,632.7" style="fill:none;fill-rule:evenodd;stroke:#000000;stroke-width:2.0px;stroke-linecap:butt;stroke-linejoin:miter;stroke-opacity:1"/>
<path class="bond-3 atom-3 atom-4" d="M 104.6,632.7 L 104.9,605.7" style="fill:none;fill-rule:evenodd;stroke:#000000;stroke-width:2.0px;stroke-linecap:butt;stroke-linejoin:miter;stroke-opacity:1"/>
<path class="bond-4 atom-3 atom-5" d="M 104.6,632.7 L 127.6,646.4" style="fill:none;fill-rule:evenodd;stroke:#000000;stroke-width:2.0px;stroke-linecap:butt;stroke-linejoin:miter;stroke-opacity:1"/>
<path class="bond-5 atom-5 atom-6" d="M 138.3,646.6 L 157.7,635.7" style="fill:none;fill-rule:evenodd;stroke:#000000;stroke-width:2.0px;stroke-linecap:butt;stroke-linejoin:miter;stroke-opacity:1"/>
<path class="bond-6 atom-6 atom-7" d="M 165.8,635.9 L 185.5,647.6" style="fill:none;fill-rule:evenodd;stroke:#000000;stroke-width:2.0px;stroke-linecap:butt;stroke-linejoin:miter;stroke-opacity:1"/>
<path class="bond-7 atom-7 atom-8" d="M 197.7,646.1 L 214.3,636.8" style="fill:none;fill-rule:evenodd;stroke:#000000;stroke-width:2.0px;stroke-linecap:butt;stroke-linejoin:miter;stroke-opacity:1"/>
<path class="atom-0" d="M 15.0 648.1 Q 15.0 645.8, 16.1 644.6 Q 17.2 643.4, 19.2 643.4 Q 21.2 643.4, 22.2 644.7 L 21.3 645.4 Q 20.6 644.5, 19.2 644.5 Q 17.8 644.5, 17.1 645.4 Q 16.3 646.3, 16.3 648.1 Q 16.3 650.0, 17.1 650.9 Q 17.9 651.9, 19.4 651.9 Q 20.4 651.9, 21.6 651.3 L 22.0 652.3 Q 21.5 652.6, 20.7 652.8 Q 20.0 652.9, 19.2 652.9 Q 17.2 652.9, 16.1 651.7 Q 15.0 650.5, 15.0 648.1 " fill="#000000"/>
<path class="atom-0" d="M 23.3 644.9 L 26.5 644.9 L 26.5 645.6 L 23.3 645.6 L 23.3 644.9 " fill="#000000"/>
<path class="atom-1" d="M 45.3 627.3 L 48.4 632.2 Q 48.7 632.7, 49.2 633.6 Q 49.7 634.5, 49.7 634.5 L 49.7 627.3 L 50.9 627.3 L 50.9 636.6 L 49.7 636.6 L 46.4 631.2 Q 46.0 630.6, 45.6 629.9 Q 45.2 629.1, 45.1 628.9 L 45.1 636.6 L 43.8 636.6 L 43.8 627.3 L 45.3 627.3 " fill="#000000"/>
<path class="atom-1" d="M 43.7 617.0 L 45.0 617.0 L 45.0 621.0 L 49.8 621.0 L 49.8 617.0 L 51.0 617.0 L 51.0 626.4 L 49.8 626.4 L 49.8 622.0 L 45.0 622.0 L 45.0 626.4 L 43.7 626.4 L 43.7 617.0 " fill="#000000"/>
<path class="atom-1" d="M 52.8 618.7 L 54.5 618.7 L 54.5 617.0 L 55.2 617.0 L 55.2 618.7 L 56.9 618.7 L 56.9 619.3 L 55.2 619.3 L 55.2 621.1 L 54.5 621.1 L 54.5 619.3 L 52.8 619.3 L 52.8 618.7 " fill="#000000"/>
<path class="atom-2" d="M 75.5 644.2 Q 77.1 644.2, 77.9 644.9 Q 78.7 645.6, 78.7 646.9 Q 78.7 648.2, 77.9 648.9 Q 77.1 649.7, 75.5 649.7 L 74.0 649.7 L 74.0 653.5 L 72.8 653.5 L 72.8 644.2 L 75.5 644.2 M 75.5 648.6 Q 76.4 648.6, 76.9 648.2 Q 77.4 647.7, 77.4 646.9 Q 77.4 646.1, 76.9 645.7 Q 76.5 645.2, 75.5 645.2 L 74.0 645.2 L 74.0 648.6 L 75.5 648.6 " fill="#000000"/>
<path class="atom-4" d="M 102.4 602.9 Q 102.5 602.9, 102.9 603.1 Q 103.3 603.3, 103.8 603.4 Q 104.3 603.5, 104.8 603.5 Q 105.7 603.5, 106.2 603.1 Q 106.7 602.7, 106.7 601.9 Q 106.7 601.4, 106.4 601.1 Q 106.2 600.8, 105.8 600.6 Q 105.4 600.4, 104.7 600.2 Q 103.9 600.0, 103.4 599.8 Q 102.9 599.5, 102.5 599.0 Q 102.2 598.5, 102.2 597.7 Q 102.2 596.5, 103.0 595.8 Q 103.8 595.0, 105.4 595.0 Q 106.5 595.0, 107.7 595.6 L 107.4 596.6 Q 106.3 596.1, 105.4 596.1 Q 104.5 596.1, 104.0 596.5 Q 103.5 596.9, 103.5 597.5 Q 103.5 598.0, 103.8 598.3 Q 104.0 598.6, 104.4 598.8 Q 104.8 599.0, 105.4 599.2 Q 106.3 599.4, 106.8 599.7 Q 107.3 599.9, 107.6 600.5 Q 108.0 601.0, 108.0 601.9 Q 108.0 603.2, 107.1 603.9 Q 106.3 604.6, 104.8 604.6 Q 104.0 604.6, 103.4 604.4 Q 102.7 604.3, 102.0 604.0 L 102.4 602.9 " fill="#000000"/>
<path class="atom-4" d="M 109.3 595.0 L 110.5 595.0 L 110.5 599.0 L 115.3 599.0 L 115.3 595.0 L 116.6 595.0 L 116.6 604.4 L 115.3 604.4 L 115.3 600.0 L 110.5 600.0 L 110.5 604.4 L 109.3 604.4 L 109.3 595.0 " fill="#000000"/>
<path class="atom-5" d="M 128.7 649.6 Q 128.7 647.4, 129.8 646.1 Q 130.9 644.8, 132.9 644.8 Q 135.0 644.8, 136.1 646.1 Q 137.2 647.4, 137.2 649.6 Q 137.2 651.9, 136.1 653.2 Q 135.0 654.4, 132.9 654.4 Q 130.9 654.4, 129.8 653.2 Q 128.7 651.9, 128.7 649.6 M 132.9 653.4 Q 134.4 653.4, 135.1 652.4 Q 135.9 651.5, 135.9 649.6 Q 135.9 647.8, 135.1 646.8 Q 134.4 645.9, 132.9 645.9 Q 131.5 645.9, 130.7 646.8 Q 130.0 647.8, 130.0 649.6 Q 130.0 651.5, 130.7 652.4 Q 131.5 653.4, 132.9 653.4 " fill="#000000"/>
<path class="atom-6" d="M 161.5 628.8 Q 163.1 628.8, 163.9 629.5 Q 164.7 630.2, 164.7 631.5 Q 164.7 632.8, 163.9 633.5 Q 163.1 634.3, 161.5 634.3 L 160.0 634.3 L 160.0 638.1 L 158.8 638.1 L 158.8 628.8 L 161.5 628.8 M 161.5 633.2 Q 162.4 633.2, 162.9 632.8 Q 163.4 632.3, 163.4 631.5 Q 163.4 630.7, 162.9 630.3 Q 162.4 629.8, 161.5 629.8 L 160.0 629.8 L 160.0 633.2 L 161.5 633.2 " fill="#000000"/>
<path class="atom-7" d="M 188.1 645.6 L 191.1 650.6 Q 191.4 651.1, 191.9 652.0 Q 192.4 652.8, 192.4 652.9 L 192.4 645.6 L 193.7 645.6 L 193.7 655.0 L 192.4 655.0 L 189.1 649.6 Q 188.7 648.9, 188.3 648.2 Q 187.9 647.5, 187.8 647.3 L 187.8 655.0 L 186.6 655.0 L 186.6 645.6 L 188.1 645.6 " fill="#000000"/>
<path class="atom-7" d="M 195.4 647.2 L 198.6 647.2 L 198.6 647.9 L 195.4 647.9 L 195.4 647.2 " fill="#000000"/>
<path class="atom-8" d="M 216.9 629.5 L 219.9 634.5 Q 220.2 634.9, 220.7 635.8 Q 221.2 636.7, 221.2 636.8 L 221.2 629.5 L 222.5 629.5 L 222.5 638.9 L 221.2 638.9 L 217.9 633.4 Q 217.5 632.8, 217.1 632.1 Q 216.7 631.4, 216.6 631.1 L 216.6 638.9 L 215.4 638.9 L 215.4 629.5 L 216.9 629.5 " fill="#000000"/>
<path class="atom-8" d="M 224.2 629.5 L 225.5 629.5 L 225.5 633.5 L 230.3 633.5 L 230.3 629.5 L 231.6 629.5 L 231.6 638.9 L 230.3 638.9 L 230.3 634.5 L 225.5 634.5 L 225.5 638.9 L 224.2 638.9 L 224.2 629.5 " fill="#000000"/>
<path class="atom-8" d="M 236.3 640.3 Q 236.9 640.5, 237.2 640.8 Q 237.5 641.2, 237.5 641.8 Q 237.5 642.4, 237.2 642.8 Q 237.0 643.2, 236.5 643.4 Q 236.0 643.6, 235.4 643.6 Q 234.7 643.6, 234.2 643.4 Q 233.7 643.2, 233.4 642.7 L 233.8 642.2 Q 234.2 642.6, 234.6 642.8 Q 234.9 642.9, 235.4 642.9 Q 235.9 642.9, 236.3 642.6 Q 236.6 642.3, 236.6 641.8 Q 236.6 641.2, 236.3 640.9 Q 235.9 640.6, 235.2 640.6 L 234.7 640.6 L 234.7 640.0 L 235.1 640.0 Q 235.8 640.0, 236.1 639.7 Q 236.5 639.4, 236.5 638.9 Q 236.5 638.5, 236.2 638.2 Q 235.9 638.0, 235.4 638.0 Q 234.9 638.0, 234.6 638.2 Q 234.2 638.3, 234.0 638.8 L 233.4 638.5 Q 233.6 638.0, 234.1 637.6 Q 234.7 637.3, 235.4 637.3 Q 236.3 637.3, 236.8 637.7 Q 237.4 638.1, 237.4 638.9 Q 237.4 639.4, 237.1 639.7 Q 236.8 640.1, 236.3 640.3 " fill="#000000"/>
<path class="atom-8" d="M 233.4 631.2 L 235.0 631.2 L 235.0 629.5 L 235.8 629.5 L 235.8 631.2 L 237.5 631.2 L 237.5 631.8 L 235.8 631.8 L 235.8 633.6 L 235.0 633.6 L 235.0 631.8 L 233.4 631.8 L 233.4 631.2 " fill="#000000"/>
<path class="atom-0" d="M 13.7,648.1 L 13.7,648.2 L 13.6,648.2 L 13.6,648.3 L 13.6,648.3 L 13.6,648.4 L 13.6,648.4 L 13.5,648.5 L 13.5,648.5 L 13.5,648.6 L 13.4,648.6 L 13.4,648.6 L 13.3,648.7 L 13.3,648.7 L 13.2,648.7 L 13.2,648.7 L 13.1,648.7 L 13.1,648.8 L 13.0,648.8 L 13.0,648.8 L 12.9,648.8 L 12.8,648.7 L 12.8,648.7 L 12.7,648.7 L 12.7,648.7 L 12.6,648.6 L 12.6,648.6 L 12.5,648.6 L 12.5,648.5 L 12.5,648.5 L 12.4,648.4 L 12.4,648.4 L 12.4,648.3 L 12.4,648.3 L 12.4,648.2 L 12.3,648.2 L 12.3,648.1 L 12.3,648.1 L 12.3,648.0 L 12.4,648.0 L 12.4,647.9 L 12.4,647.8 L 12.4,647.8 L 12.4,647.7 L 12.5,647.7 L 12.5,647.7 L 12.5,647.6 L 12.6,647.6 L 12.6,647.5 L 12.7,647.5 L 12.7,647.5 L 12.8,647.5 L 12.8,647.5 L 12.9,647.4 L 13.0,647.4 L 13.0,647.4 L 13.1,647.4 L 13.1,647.4 L 13.2,647.5 L 13.2,647.5 L 13.3,647.5 L 13.3,647.5 L 13.4,647.6 L 13.4,647.6 L 13.5,647.6 L 13.5,647.7 L 13.5,647.7 L 13.6,647.8 L 13.6,647.8 L 13.6,647.9 L 13.6,647.9 L 13.6,648.0 L 13.7,648.0 L 13.7,648.1 L 13.0,648.1 Z" style="fill:#000000;fill-rule:evenodd;fill-opacity:1;stroke:#000000;stroke-width:0.0px;stroke-linecap:butt;stroke-linejoin:miter;stroke-miterlimit:10;stroke-opacity:1;"/>
<path class="atom-3" d="M 105.2,635.7 L 105.2,635.7 L 105.2,635.8 L 105.2,635.8 L 105.2,635.9 L 105.2,635.9 L 105.1,636.0 L 105.1,636.0 L 105.1,636.1 L 105.0,636.1 L 105.0,636.2 L 105.0,636.2 L 104.9,636.2 L 104.9,636.3 L 104.8,636.3 L 104.7,636.3 L 104.7,636.3 L 104.6,636.3 L 104.6,636.3 L 104.5,636.3 L 104.5,636.3 L 104.4,636.3 L 104.4,636.3 L 104.3,636.3 L 104.3,636.3 L 104.2,636.2 L 104.2,636.2 L 104.1,636.2 L 104.1,636.1 L 104.0,636.1 L 104.0,636.0 L 104.0,636.0 L 104.0,635.9 L 103.9,635.9 L 103.9,635.8 L 103.9,635.8 L 103.9,635.7 L 103.9,635.6 L 103.9,635.6 L 103.9,635.5 L 103.9,635.5 L 104.0,635.4 L 104.0,635.4 L 104.0,635.3 L 104.0,635.3 L 104.1,635.2 L 104.1,635.2 L 104.2,635.2 L 104.2,635.1 L 104.3,635.1 L 104.3,635.1 L 104.4,635.0 L 104.4,635.0 L 104.5,635.0 L 104.5,635.0 L 104.6,635.0 L 104.6,635.0 L 104.7,635.0 L 104.7,635.0 L 104.8,635.1 L 104.9,635.1 L 104.9,635.1 L 105.0,635.1 L 105.0,635.2 L 105.0,635.2 L 105.1,635.3 L 105.1,635.3 L 105.1,635.3 L 105.2,635.4 L 105.2,635.4 L 105.2,635.5 L 105.2,635.6 L 105.2,635.6 L 105.2,635.7 L 104.6,635.7 Z" style="fill:#000000;fill-rule:evenodd;fill-opacity:1;stroke:#000000;stroke-width:0.0px;stroke-linecap:butt;stroke-linejoin:miter;stroke-miterlimit:10;stroke-opacity:1;"/>
<path class="atom-6" d="M 167.4,633.4 L 167.4,633.5 L 167.4,633.6 L 167.4,633.6 L 167.3,633.7 L 167.3,633.7 L 167.3,633.8 L 167.3,633.8 L 167.2,633.9 L 167.2,633.9 L 167.1,633.9 L 167.1,634.0 L 167.1,634.0 L 167.0,634.0 L 166.9,634.1 L 166.9,634.1 L 166.8,634.1 L 166.8,634.1 L 166.7,634.1 L 166.7,634.1 L 166.6,634.1 L 166.6,634.1 L 166.5,634.1 L 166.4,634.0 L 166.4,634.0 L 166.3,634.0 L 166.3,634.0 L 166.3,633.9 L 166.2,633.9 L 166.2,633.8 L 166.2,633.8 L 166.1,633.7 L 166.1,633.7 L 166.1,633.6 L 166.1,633.6 L 166.1,633.5 L 166.1,633.5 L 166.1,633.4 L 166.1,633.4 L 166.1,633.3 L 166.1,633.2 L 166.1,633.2 L 166.1,633.1 L 166.2,633.1 L 166.2,633.0 L 166.2,633.0 L 166.3,633.0 L 166.3,632.9 L 166.3,632.9 L 166.4,632.9 L 166.4,632.8 L 166.5,632.8 L 166.6,632.8 L 166.6,632.8 L 166.7,632.8 L 166.7,632.8 L 166.8,632.8 L 166.8,632.8 L 166.9,632.8 L 166.9,632.8 L 167.0,632.8 L 167.1,632.9 L 167.1,632.9 L 167.1,632.9 L 167.2,633.0 L 167.2,633.0 L 167.3,633.1 L 167.3,633.1 L 167.3,633.2 L 167.3,633.2 L 167.4,633.3 L 167.4,633.3 L 167.4,633.4 L 167.4,633.4 L 166.7,633.4 Z" style="fill:#000000;fill-rule:evenodd;fill-opacity:1;stroke:#000000;stroke-width:0.0px;stroke-linecap:butt;stroke-linejoin:miter;stroke-miterlimit:10;stroke-opacity:1;"/>
<path class="atom-0" d="M 370.8 634.3 Q 371.1 634.5, 372.4 635.0 Q 373.7 635.6, 375.2 635.9 Q 376.6 636.3, 378.1 636.3 Q 380.8 636.3, 382.3 635.0 Q 383.9 633.7, 383.9 631.4 Q 383.9 629.8, 383.1 628.9 Q 382.3 627.9, 381.1 627.4 Q 379.9 626.9, 377.9 626.3 Q 375.4 625.5, 373.9 624.8 Q 372.4 624.1, 371.3 622.5 Q 370.3 621.0, 370.3 618.5 Q 370.3 614.9, 372.7 612.7 Q 375.1 610.5, 379.9 610.5 Q 383.2 610.5, 386.9 612.1 L 386.0 615.1 Q 382.6 613.7, 380.0 613.7 Q 377.3 613.7, 375.8 614.9 Q 374.2 616.0, 374.3 618.0 Q 374.3 619.5, 375.0 620.4 Q 375.8 621.3, 377.0 621.9 Q 378.1 622.4, 380.0 623.0 Q 382.6 623.8, 384.1 624.6 Q 385.6 625.4, 386.7 627.0 Q 387.8 628.6, 387.8 631.4 Q 387.8 635.3, 385.2 637.4 Q 382.6 639.5, 378.2 639.5 Q 375.7 639.5, 373.8 638.9 Q 371.9 638.4, 369.7 637.5 L 370.8 634.3 " fill="#000000"/>
<path class="atom-0" d="M 365.7,628.6 L 365.7,628.8 L 365.6,629.0 L 365.6,629.1 L 365.6,629.3 L 365.5,629.5 L 365.4,629.6 L 365.3,629.8 L 365.2,629.9 L 365.1,630.0 L 365.0,630.1 L 364.8,630.2 L 364.7,630.3 L 364.5,630.4 L 364.4,630.5 L 364.2,630.5 L 364.1,630.6 L 363.9,630.6 L 363.7,630.6 L 363.5,630.6 L 363.4,630.6 L 363.2,630.6 L 363.0,630.5 L 362.9,630.5 L 362.7,630.4 L 362.6,630.3 L 362.4,630.2 L 362.3,630.1 L 362.2,630.0 L 362.1,629.8 L 362.0,629.7 L 361.9,629.5 L 361.8,629.4 L 361.8,629.2 L 361.7,629.0 L 361.7,628.9 L 361.7,628.7 L 361.7,628.5 L 361.7,628.4 L 361.7,628.2 L 361.8,628.0 L 361.8,627.9 L 361.9,627.7 L 362.0,627.6 L 362.1,627.4 L 362.2,627.3 L 362.3,627.2 L 362.4,627.0 L 362.6,626.9 L 362.7,626.9 L 362.9,626.8 L 363.0,626.7 L 363.2,626.7 L 363.4,626.6 L 363.5,626.6 L 363.7,626.6 L 363.9,626.6 L 364.1,626.7 L 364.2,626.7 L 364.4,626.8 L 364.5,626.8 L 364.7,626.9 L 364.8,627.0 L 365.0,627.1 L 365.1,627.2 L 365.2,627.3 L 365.3,627.5 L 365.4,627.6 L 365.5,627.8 L 365.6,627.9 L 365.6,628.1 L 365.6,628.3 L 365.7,628.4 L 365.7,628.6 L 363.7,628.6 Z" style="fill:#000000;fill-rule:evenodd;fill-opacity:1;stroke:#000000;stroke-width:0.0px;stroke-linecap:butt;stroke-linejoin:miter;stroke-miterlimit:10;stroke-opacity:1;"/>
<path class="atom-0" d="M 365.7,620.6 L 365.7,620.8 L 365.6,621.0 L 365.6,621.1 L 365.6,621.3 L 365.5,621.5 L 365.4,621.6 L 365.3,621.8 L 365.2,621.9 L 365.1,622.0 L 365.0,622.1 L 364.8,622.2 L 364.7,622.3 L 364.5,622.4 L 364.4,622.5 L 364.2,622.5 L 364.1,622.6 L 363.9,622.6 L 363.7,622.6 L 363.5,622.6 L 363.4,622.6 L 363.2,622.6 L 363.0,622.5 L 362.9,622.5 L 362.7,622.4 L 362.6,622.3 L 362.4,622.2 L 362.3,622.1 L 362.2,622.0 L 362.1,621.8 L 362.0,621.7 L 361.9,621.5 L 361.8,621.4 L 361.8,621.2 L 361.7,621.0 L 361.7,620.9 L 361.7,620.7 L 361.7,620.5 L 361.7,620.4 L 361.7,620.2 L 361.8,620.0 L 361.8,619.9 L 361.9,619.7 L 362.0,619.6 L 362.1,619.4 L 362.2,619.3 L 362.3,619.2 L 362.4,619.0 L 362.6,618.9 L 362.7,618.9 L 362.9,618.8 L 363.0,618.7 L 363.2,618.7 L 363.4,618.6 L 363.5,618.6 L 363.7,618.6 L 363.9,618.6 L 364.1,618.7 L 364.2,618.7 L 364.4,618.8 L 364.5,618.8 L 364.7,618.9 L 364.8,619.0 L 365.0,619.1 L 365.1,619.2 L 365.2,619.3 L 365.3,619.5 L 365.4,619.6 L 365.5,619.8 L 365.6,619.9 L 365.6,620.1 L 365.6,620.3 L 365.7,620.4 L 365.7,620.6 L 363.7,620.6 Z" style="fill:#000000;fill-rule:evenodd;fill-opacity:1;stroke:#000000;stroke-width:0.0px;stroke-linecap:butt;stroke-linejoin:miter;stroke-miterlimit:10;stroke-opacity:1;"/>
<path class="bond-0 atom-0 atom-1" d="M 695.6,638.3 L 550.3,638.3" style="fill:none;fill-rule:evenodd;stroke:#000000;stroke-width:2.0px;stroke-linecap:butt;stroke-linejoin:miter;stroke-opacity:1"/>
<path class="bond-0 atom-0 atom-1" d="M 695.6,611.7 L 550.3,611.7" style="fill:none;fill-rule:evenodd;stroke:#000000;stroke-width:2.0px;stroke-linecap:butt;stroke-linejoin:miter;stroke-opacity:1"/>
<path class="atom-0" d="M 709.8 610.8 Q 714.6 610.8, 717.1 613.0 Q 719.5 615.2, 719.5 619.2 Q 719.5 623.1, 717.0 625.3 Q 714.5 627.5, 709.8 627.5 L 705.3 627.5 L 705.3 639.2 L 701.4 639.2 L 701.4 610.8 L 709.8 610.8 M 709.8 624.3 Q 712.6 624.3, 714.0 623.0 Q 715.5 621.7, 715.5 619.2 Q 715.5 616.6, 714.0 615.4 Q 712.6 614.0, 709.8 614.0 L 705.3 614.0 L 705.3 624.3 L 709.8 624.3 " fill="#000000"/>
<path class="atom-1" d="M 527.5 610.8 L 536.7 625.8 Q 537.7 627.3, 539.1 630.0 Q 540.6 632.7, 540.7 632.8 L 540.7 610.8 L 544.5 610.8 L 544.5 639.2 L 540.6 639.2 L 530.6 622.8 Q 529.5 620.8, 528.2 618.6 Q 527.0 616.4, 526.7 615.8 L 526.7 639.2 L 523.0 639.2 L 523.0 610.8 L 527.5 610.8 " fill="#000000"/>
<path class="atom-1" d="M 549.6 615.5 L 559.3 615.5 L 559.3 617.6 L 549.6 617.6 L 549.6 615.5 " fill="#000000"/>
<path class="atom-0" d="M 727.5,625.0 L 727.5,625.2 L 727.5,625.3 L 727.5,625.5 L 727.4,625.7 L 727.3,625.8 L 727.3,626.0 L 727.2,626.1 L 727.1,626.3 L 727.0,626.4 L 726.8,626.5 L 726.7,626.6 L 726.6,626.7 L 726.4,626.8 L 726.2,626.9 L 726.1,626.9 L 725.9,627.0 L 725.7,627.0 L 725.6,627.0 L 725.4,627.0 L 725.2,627.0 L 725.1,626.9 L 724.9,626.9 L 724.7,626.8 L 724.6,626.8 L 724.4,626.7 L 724.3,626.6 L 724.2,626.5 L 724.0,626.3 L 723.9,626.2 L 723.8,626.1 L 723.7,625.9 L 723.7,625.8 L 723.6,625.6 L 723.6,625.4 L 723.5,625.3 L 723.5,625.1 L 723.5,624.9 L 723.5,624.7 L 723.6,624.6 L 723.6,624.4 L 723.7,624.2 L 723.7,624.1 L 723.8,623.9 L 723.9,623.8 L 724.0,623.7 L 724.2,623.5 L 724.3,623.4 L 724.4,623.3 L 724.6,623.2 L 724.7,623.2 L 724.9,623.1 L 725.1,623.1 L 725.2,623.0 L 725.4,623.0 L 725.6,623.0 L 725.7,623.0 L 725.9,623.0 L 726.1,623.1 L 726.2,623.1 L 726.4,623.2 L 726.6,623.3 L 726.7,623.4 L 726.8,623.5 L 727.0,623.6 L 727.1,623.7 L 727.2,623.9 L 727.3,624.0 L 727.3,624.2 L 727.4,624.3 L 727.5,624.5 L 727.5,624.7 L 727.5,624.8 L 727.5,625.0 L 725.5,625.0 Z" style="fill:#000000;fill-rule:evenodd;fill-opacity:1;stroke:#000000;stroke-width:0.0px;stroke-linecap:butt;stroke-linejoin:miter;stroke-miterlimit:10;stroke-opacity:1;"/>
</svg>