<svg xmlns="http://www.w3.org/2000/svg" xmlns:rdkit="http://www.rdkit.org/xml" xmlns:xlink="http://www.w3.org/1999/xlink" version="1.1" baseProfile="full" xml:space="preserve" width="750px" height="750px" viewBox="0 0 750 750">
<!-- END OF HEADER -->
<rect style="opacity:1.0;fill:#FFFFFF;stroke:none" width="250.0" height="250.0" x="0.0" y="0.0"> </rect>
<path class="bond-0 atom-0 atom-1" d="M 66.7,98.7 L 47.7,99.3" style="fill:none;fill-rule:evenodd;stroke:#000000;stroke-width:2.0px;stroke-linecap:butt;stroke-linejoin:miter;stroke-opacity:1"/>
<path class="bond-1 atom-1 atom-2" d="M 47.7,99.3 L 32.4,83.4" style="fill:none;fill-rule:evenodd;stroke:#000000;stroke-width:2.0px;stroke-linecap:butt;stroke-linejoin:miter;stroke-opacity:1"/>
<path class="bond-2 atom-2 atom-3" d="M 32.4,83.4 L 12.5,93.1" style="fill:none;fill-rule:evenodd;stroke:#000000;stroke-width:2.0px;stroke-linecap:butt;stroke-linejoin:miter;stroke-opacity:1"/>
<path class="bond-3 atom-3 atom-4" d="M 12.5,93.1 L 15.6,115.0" style="fill:none;fill-rule:evenodd;stroke:#000000;stroke-width:2.0px;stroke-linecap:butt;stroke-linejoin:miter;stroke-opacity:1"/>
<path class="bond-4 atom-4 atom-5" d="M 15.6,115.0 L 37.3,118.9" style="fill:none;fill-rule:evenodd;stroke:#000000;stroke-width:2.0px;stroke-linecap:butt;stroke-linejoin:miter;stroke-opacity:1"/>
<path class="bond-5 atom-5 atom-6" d="M 37.3,118.9 L 49.1,137.6" style="fill:none;fill-rule:evenodd;stroke:#000000;stroke-width:2.0px;stroke-linecap:butt;stroke-linejoin:miter;stroke-opacity:1"/>
<path class="bond-6 atom-6 atom-7" d="M 49.1,137.6 L 38.7,157.1" style="fill:none;fill-rule:evenodd;stroke:#000000;stroke-width:2.0px;stroke-linecap:butt;stroke-linejoin:miter;stroke-opacity:1"/>
<path class="bond-6 atom-6 atom-7" d="M 51.0,140.8 L 42.4,157.0" style="fill:none;fill-rule:evenodd;stroke:#000000;stroke-width:2.0px;stroke-linecap:butt;stroke-linejoin:miter;stroke-opacity:1"/>
<path class="bond-7 atom-7 atom-8" d="M 38.7,157.1 L 50.4,175.9" style="fill:none;fill-rule:evenodd;stroke:#000000;stroke-width:2.0px;stroke-linecap:butt;stroke-linejoin:miter;stroke-opacity:1"/>
<path class="bond-8 atom-8 atom-9" d="M 50.4,175.9 L 72.5,175.1" style="fill:none;fill-rule:evenodd;stroke:#000000;stroke-width:2.0px;stroke-linecap:butt;stroke-linejoin:miter;stroke-opacity:1"/>
<path class="bond-8 atom-8 atom-9" d="M 52.2,172.6 L 70.5,171.9" style="fill:none;fill-rule:evenodd;stroke:#000000;stroke-width:2.0px;stroke-linecap:butt;stroke-linejoin:miter;stroke-opacity:1"/>
<path class="bond-9 atom-9 atom-10" d="M 72.5,175.1 L 82.9,155.6" style="fill:none;fill-rule:evenodd;stroke:#000000;stroke-width:2.0px;stroke-linecap:butt;stroke-linejoin:miter;stroke-opacity:1"/>
<path class="bond-10 atom-10 atom-11" d="M 82.9,155.6 L 71.2,136.8" style="fill:none;fill-rule:evenodd;stroke:#000000;stroke-width:2.0px;stroke-linecap:butt;stroke-linejoin:miter;stroke-opacity:1"/>
<path class="bond-10 atom-10 atom-11" d="M 79.1,155.7 L 69.4,140.1" style="fill:none;fill-rule:evenodd;stroke:#000000;stroke-width:2.0px;stroke-linecap:butt;stroke-linejoin:miter;stroke-opacity:1"/>
<path class="bond-11 atom-11 atom-12" d="M 71.2,136.8 L 79.5,121.1" style="fill:none;fill-rule:evenodd;stroke:#000000;stroke-width:2.0px;stroke-linecap:butt;stroke-linejoin:miter;stroke-opacity:1"/>
<path class="bond-12 atom-12 atom-13" d="M 85.0,117.2 L 100.1,115.0 L 100.2,118.3 Z" style="fill:#000000;fill-rule:evenodd;fill-opacity:1;stroke:#000000;stroke-width:0.5px;stroke-linecap:butt;stroke-linejoin:miter;stroke-miterlimit:10;stroke-opacity:1;"/>
<path class="bond-13 atom-13 atom-14" d="M 105.7,112.7 L 114.0,97.0" style="fill:none;fill-rule:evenodd;stroke:#000000;stroke-width:2.0px;stroke-linecap:butt;stroke-linejoin:miter;stroke-opacity:1"/>
<path class="bond-14 atom-14 atom-15" d="M 114.0,97.0 L 136.1,96.2" style="fill:none;fill-rule:evenodd;stroke:#000000;stroke-width:2.0px;stroke-linecap:butt;stroke-linejoin:miter;stroke-opacity:1"/>
<path class="bond-15 atom-15 atom-16" d="M 136.1,96.2 L 135.3,74.1" style="fill:none;fill-rule:evenodd;stroke:#000000;stroke-width:2.0px;stroke-linecap:butt;stroke-linejoin:miter;stroke-opacity:1"/>
<path class="bond-16 atom-15 atom-17" d="M 136.1,96.2 L 136.9,118.3" style="fill:none;fill-rule:evenodd;stroke:#000000;stroke-width:2.0px;stroke-linecap:butt;stroke-linejoin:miter;stroke-opacity:1"/>
<path class="bond-17 atom-15 atom-18" d="M 136.1,96.2 L 158.2,95.5" style="fill:none;fill-rule:evenodd;stroke:#000000;stroke-width:2.0px;stroke-linecap:butt;stroke-linejoin:miter;stroke-opacity:1"/>
<path class="bond-18 atom-18 atom-19" d="M 158.2,95.5 L 167.5,110.4" style="fill:none;fill-rule:evenodd;stroke:#000000;stroke-width:2.0px;stroke-linecap:butt;stroke-linejoin:miter;stroke-opacity:1"/>
<path class="bond-18 atom-18 atom-19" d="M 156.4,98.8 L 164.7,112.1" style="fill:none;fill-rule:evenodd;stroke:#000000;stroke-width:2.0px;stroke-linecap:butt;stroke-linejoin:miter;stroke-opacity:1"/>
<path class="bond-19 atom-19 atom-20" d="M 173.0,114.1 L 192.0,113.4" style="fill:none;fill-rule:evenodd;stroke:#000000;stroke-width:2.0px;stroke-linecap:butt;stroke-linejoin:miter;stroke-opacity:1"/>
<path class="bond-20 atom-20 atom-21" d="M 192.0,113.4 L 203.7,132.2" style="fill:none;fill-rule:evenodd;stroke:#000000;stroke-width:2.0px;stroke-linecap:butt;stroke-linejoin:miter;stroke-opacity:1"/>
<path class="bond-20 atom-20 atom-21" d="M 190.2,116.7 L 200.9,133.9" style="fill:none;fill-rule:evenodd;stroke:#000000;stroke-width:2.0px;stroke-linecap:butt;stroke-linejoin:miter;stroke-opacity:1"/>
<path class="bond-21 atom-21 atom-22" d="M 203.7,132.2 L 225.8,131.4" style="fill:none;fill-rule:evenodd;stroke:#000000;stroke-width:2.0px;stroke-linecap:butt;stroke-linejoin:miter;stroke-opacity:1"/>
<path class="bond-22 atom-22 atom-23" d="M 225.8,131.4 L 237.5,150.1" style="fill:none;fill-rule:evenodd;stroke:#000000;stroke-width:2.0px;stroke-linecap:butt;stroke-linejoin:miter;stroke-opacity:1"/>
<path class="bond-22 atom-22 atom-23" d="M 224.0,134.7 L 234.8,151.8" style="fill:none;fill-rule:evenodd;stroke:#000000;stroke-width:2.0px;stroke-linecap:butt;stroke-linejoin:miter;stroke-opacity:1"/>
<path class="bond-23 atom-12 atom-0" d="M 79.1,113.5 L 72.2,102.4" style="fill:none;fill-rule:evenodd;stroke:#000000;stroke-width:2.0px;stroke-linecap:butt;stroke-linejoin:miter;stroke-opacity:1"/>
<path class="bond-24 atom-5 atom-1" d="M 37.3,118.9 L 47.7,99.3" style="fill:none;fill-rule:evenodd;stroke:#000000;stroke-width:2.0px;stroke-linecap:butt;stroke-linejoin:miter;stroke-opacity:1"/>
<path class="bond-25 atom-11 atom-6" d="M 71.2,136.8 L 49.1,137.6" style="fill:none;fill-rule:evenodd;stroke:#000000;stroke-width:2.0px;stroke-linecap:butt;stroke-linejoin:miter;stroke-opacity:1"/>
<path class="bond-26 atom-1 atom-24" d="M 48.4,96.1 L 49.4,96.5" style="fill:none;fill-rule:evenodd;stroke:#000000;stroke-width:1.0px;stroke-linecap:butt;stroke-linejoin:miter;stroke-opacity:1"/>
<path class="bond-26 atom-1 atom-24" d="M 49.2,92.9 L 51.2,93.7" style="fill:none;fill-rule:evenodd;stroke:#000000;stroke-width:1.0px;stroke-linecap:butt;stroke-linejoin:miter;stroke-opacity:1"/>
<path class="bond-26 atom-1 atom-24" d="M 49.9,89.6 L 52.9,90.8" style="fill:none;fill-rule:evenodd;stroke:#000000;stroke-width:1.0px;stroke-linecap:butt;stroke-linejoin:miter;stroke-opacity:1"/>
<path class="bond-27 atom-5 atom-25" d="M 37.3,118.9 L 33.5,127.4 L 30.8,125.6 Z" style="fill:#000000;fill-rule:evenodd;fill-opacity:1;stroke:#000000;stroke-width:0.5px;stroke-linecap:butt;stroke-linejoin:miter;stroke-miterlimit:10;stroke-opacity:1;"/>
<path d="M 33.1,84.2 L 32.4,83.4 L 31.4,83.9" style="fill:none;stroke:#000000;stroke-width:2.0px;stroke-linecap:butt;stroke-linejoin:miter;stroke-miterlimit:10;stroke-opacity:1;"/>
<path d="M 13.5,92.6 L 12.5,93.1 L 12.7,94.2" style="fill:none;stroke:#000000;stroke-width:2.0px;stroke-linecap:butt;stroke-linejoin:miter;stroke-miterlimit:10;stroke-opacity:1;"/>
<path d="M 15.4,113.9 L 15.6,115.0 L 16.7,115.2" style="fill:none;stroke:#000000;stroke-width:2.0px;stroke-linecap:butt;stroke-linejoin:miter;stroke-miterlimit:10;stroke-opacity:1;"/>
<path d="M 39.2,156.1 L 38.7,157.1 L 39.3,158.1" style="fill:none;stroke:#000000;stroke-width:2.0px;stroke-linecap:butt;stroke-linejoin:miter;stroke-miterlimit:10;stroke-opacity:1;"/>
<path d="M 49.8,174.9 L 50.4,175.9 L 51.5,175.8" style="fill:none;stroke:#000000;stroke-width:2.0px;stroke-linecap:butt;stroke-linejoin:miter;stroke-miterlimit:10;stroke-opacity:1;"/>
<path d="M 71.4,175.1 L 72.5,175.1 L 73.0,174.1" style="fill:none;stroke:#000000;stroke-width:2.0px;stroke-linecap:butt;stroke-linejoin:miter;stroke-miterlimit:10;stroke-opacity:1;"/>
<path d="M 82.4,156.5 L 82.9,155.6 L 82.3,154.6" style="fill:none;stroke:#000000;stroke-width:2.0px;stroke-linecap:butt;stroke-linejoin:miter;stroke-miterlimit:10;stroke-opacity:1;"/>
<path d="M 113.6,97.8 L 114.0,97.0 L 115.1,97.0" style="fill:none;stroke:#000000;stroke-width:2.0px;stroke-linecap:butt;stroke-linejoin:miter;stroke-miterlimit:10;stroke-opacity:1;"/>
<path d="M 157.1,95.5 L 158.2,95.5 L 158.6,96.2" style="fill:none;stroke:#000000;stroke-width:2.0px;stroke-linecap:butt;stroke-linejoin:miter;stroke-miterlimit:10;stroke-opacity:1;"/>
<path d="M 191.0,113.5 L 192.0,113.4 L 192.6,114.4" style="fill:none;stroke:#000000;stroke-width:2.0px;stroke-linecap:butt;stroke-linejoin:miter;stroke-miterlimit:10;stroke-opacity:1;"/>
<path d="M 203.1,131.2 L 203.7,132.2 L 204.8,132.1" style="fill:none;stroke:#000000;stroke-width:2.0px;stroke-linecap:butt;stroke-linejoin:miter;stroke-miterlimit:10;stroke-opacity:1;"/>
<path d="M 224.7,131.4 L 225.8,131.4 L 226.4,132.3" style="fill:none;stroke:#000000;stroke-width:2.0px;stroke-linecap:butt;stroke-linejoin:miter;stroke-miterlimit:10;stroke-opacity:1;"/>
<path class="atom-0" d="M 68.4 95.4 L 70.5 98.7 Q 70.7 99.1, 71.0 99.7 Q 71.3 100.3, 71.4 100.3 L 71.4 95.4 L 72.2 95.4 L 72.2 101.7 L 71.3 101.7 L 69.1 98.1 Q 68.9 97.6, 68.6 97.2 Q 68.3 96.7, 68.3 96.5 L 68.3 101.7 L 67.4 101.7 L 67.4 95.4 L 68.4 95.4 " fill="#000000"/>
<path class="atom-0" d="M 73.4 95.4 L 74.2 95.4 L 74.2 98.1 L 77.4 98.1 L 77.4 95.4 L 78.3 95.4 L 78.3 101.7 L 77.4 101.7 L 77.4 98.8 L 74.2 98.8 L 74.2 101.7 L 73.4 101.7 L 73.4 95.4 " fill="#000000"/>
<path class="atom-0" d="M 79.5 101.5 Q 79.6 101.1, 80.0 100.9 Q 80.4 100.6, 80.9 100.6 Q 81.5 100.6, 81.8 101.0 Q 82.2 101.3, 82.2 101.9 Q 82.2 102.5, 81.7 103.1 Q 81.3 103.7, 80.3 104.4 L 82.3 104.4 L 82.3 104.8 L 79.5 104.8 L 79.5 104.4 Q 80.2 103.9, 80.7 103.5 Q 81.2 103.1, 81.4 102.7 Q 81.6 102.3, 81.6 101.9 Q 81.6 101.6, 81.4 101.3 Q 81.2 101.1, 80.9 101.1 Q 80.5 101.1, 80.3 101.2 Q 80.1 101.4, 79.9 101.7 L 79.5 101.5 " fill="#000000"/>
<path class="atom-0" d="M 79.5 96.6 L 80.6 96.6 L 80.6 95.4 L 81.1 95.4 L 81.1 96.6 L 82.2 96.6 L 82.2 97.0 L 81.1 97.0 L 81.1 98.1 L 80.6 98.1 L 80.6 97.0 L 79.5 97.0 L 79.5 96.6 " fill="#000000"/>
<path class="atom-12" d="M 81.4 114.2 Q 82.4 114.2, 83.0 114.7 Q 83.5 115.1, 83.5 116.0 Q 83.5 116.9, 83.0 117.4 Q 82.4 117.9, 81.4 117.9 L 80.4 117.9 L 80.4 120.4 L 79.5 120.4 L 79.5 114.2 L 81.4 114.2 M 81.4 117.2 Q 82.0 117.2, 82.3 116.9 Q 82.6 116.6, 82.6 116.0 Q 82.6 115.5, 82.3 115.2 Q 82.0 114.9, 81.4 114.9 L 80.4 114.9 L 80.4 117.2 L 81.4 117.2 " fill="#000000"/>
<path class="atom-13" d="M 101.8 118.7 Q 101.9 118.7, 102.2 118.8 Q 102.5 118.9, 102.8 119.0 Q 103.1 119.1, 103.5 119.1 Q 104.1 119.1, 104.4 118.8 Q 104.7 118.5, 104.7 118.0 Q 104.7 117.7, 104.6 117.5 Q 104.4 117.3, 104.1 117.1 Q 103.9 117.0, 103.4 116.9 Q 102.9 116.7, 102.5 116.6 Q 102.2 116.4, 102.0 116.1 Q 101.7 115.7, 101.7 115.2 Q 101.7 114.4, 102.3 113.9 Q 102.8 113.4, 103.9 113.4 Q 104.6 113.4, 105.4 113.8 L 105.2 114.4 Q 104.5 114.1, 103.9 114.1 Q 103.3 114.1, 103.0 114.4 Q 102.6 114.6, 102.6 115.1 Q 102.6 115.4, 102.8 115.6 Q 103.0 115.8, 103.2 115.9 Q 103.5 116.0, 103.9 116.2 Q 104.5 116.3, 104.8 116.5 Q 105.1 116.7, 105.4 117.1 Q 105.6 117.4, 105.6 118.0 Q 105.6 118.9, 105.0 119.4 Q 104.5 119.8, 103.5 119.8 Q 102.9 119.8, 102.5 119.7 Q 102.1 119.6, 101.6 119.4 L 101.8 118.7 " fill="#000000"/>
<path class="atom-13" d="M 106.4 114.3 L 108.5 114.3 L 108.5 114.8 L 106.4 114.8 L 106.4 114.3 " fill="#000000"/>
<path class="atom-19" d="M 168.5 111.1 L 170.6 114.4 Q 170.8 114.7, 171.1 115.3 Q 171.4 115.9, 171.4 115.9 L 171.4 111.1 L 172.3 111.1 L 172.3 117.3 L 171.4 117.3 L 169.2 113.7 Q 168.9 113.3, 168.7 112.8 Q 168.4 112.3, 168.3 112.2 L 168.3 117.3 L 167.5 117.3 L 167.5 111.1 L 168.5 111.1 " fill="#000000"/>
<path class="atom-24" d="M 50.8 82.5 L 51.6 82.5 L 51.6 85.2 L 54.8 85.2 L 54.8 82.5 L 55.7 82.5 L 55.7 88.8 L 54.8 88.8 L 54.8 85.9 L 51.6 85.9 L 51.6 88.8 L 50.8 88.8 L 50.8 82.5 " fill="#000000"/>
<path class="atom-25" d="M 26.7 127.9 L 27.5 127.9 L 27.5 130.6 L 30.7 130.6 L 30.7 127.9 L 31.6 127.9 L 31.6 134.2 L 30.7 134.2 L 30.7 131.3 L 27.5 131.3 L 27.5 134.2 L 26.7 134.2 L 26.7 127.9 " fill="#000000"/>
<path class="atom-13" d="M 110.3,116.5 L 110.3,116.6 L 110.3,116.6 L 110.3,116.6 L 110.3,116.7 L 110.3,116.7 L 110.3,116.7 L 110.2,116.8 L 110.2,116.8 L 110.2,116.8 L 110.2,116.9 L 110.1,116.9 L 110.1,116.9 L 110.1,116.9 L 110.0,116.9 L 110.0,117.0 L 110.0,117.0 L 109.9,117.0 L 109.9,117.0 L 109.8,117.0 L 109.8,117.0 L 109.8,117.0 L 109.7,116.9 L 109.7,116.9 L 109.7,116.9 L 109.6,116.9 L 109.6,116.9 L 109.6,116.8 L 109.5,116.8 L 109.5,116.8 L 109.5,116.8 L 109.5,116.7 L 109.5,116.7 L 109.4,116.7 L 109.4,116.6 L 109.4,116.6 L 109.4,116.5 L 109.4,116.5 L 109.4,116.5 L 109.4,116.4 L 109.4,116.4 L 109.5,116.4 L 109.5,116.3 L 109.5,116.3 L 109.5,116.3 L 109.5,116.2 L 109.6,116.2 L 109.6,116.2 L 109.6,116.2 L 109.7,116.1 L 109.7,116.1 L 109.7,116.1 L 109.8,116.1 L 109.8,116.1 L 109.8,116.1 L 109.9,116.1 L 109.9,116.1 L 110.0,116.1 L 110.0,116.1 L 110.0,116.1 L 110.1,116.1 L 110.1,116.1 L 110.1,116.2 L 110.2,116.2 L 110.2,116.2 L 110.2,116.2 L 110.2,116.3 L 110.3,116.3 L 110.3,116.3 L 110.3,116.4 L 110.3,116.4 L 110.3,116.5 L 110.3,116.5 L 110.3,116.5 L 109.9,116.5 Z" style="fill:#000000;fill-rule:evenodd;fill-opacity:1;stroke:#000000;stroke-width:0.0px;stroke-linecap:butt;stroke-linejoin:miter;stroke-miterlimit:10;stroke-opacity:1;"/>
<path class="atom-14" d="M 111.8,97.0 L 111.8,97.0 L 111.8,97.1 L 111.8,97.1 L 111.8,97.2 L 111.7,97.2 L 111.7,97.2 L 111.7,97.3 L 111.7,97.3 L 111.7,97.3 L 111.6,97.3 L 111.6,97.4 L 111.6,97.4 L 111.5,97.4 L 111.5,97.4 L 111.5,97.4 L 111.4,97.4 L 111.4,97.4 L 111.3,97.5 L 111.3,97.4 L 111.3,97.4 L 111.2,97.4 L 111.2,97.4 L 111.2,97.4 L 111.1,97.4 L 111.1,97.4 L 111.1,97.4 L 111.0,97.3 L 111.0,97.3 L 111.0,97.3 L 111.0,97.2 L 110.9,97.2 L 110.9,97.2 L 110.9,97.1 L 110.9,97.1 L 110.9,97.1 L 110.9,97.0 L 110.9,97.0 L 110.9,97.0 L 110.9,96.9 L 110.9,96.9 L 110.9,96.8 L 110.9,96.8 L 111.0,96.8 L 111.0,96.7 L 111.0,96.7 L 111.0,96.7 L 111.1,96.7 L 111.1,96.6 L 111.1,96.6 L 111.2,96.6 L 111.2,96.6 L 111.2,96.6 L 111.3,96.6 L 111.3,96.6 L 111.3,96.6 L 111.4,96.6 L 111.4,96.6 L 111.5,96.6 L 111.5,96.6 L 111.5,96.6 L 111.6,96.6 L 111.6,96.6 L 111.6,96.7 L 111.7,96.7 L 111.7,96.7 L 111.7,96.8 L 111.7,96.8 L 111.7,96.8 L 111.8,96.9 L 111.8,96.9 L 111.8,96.9 L 111.8,97.0 L 111.8,97.0 L 111.3,97.0 Z" style="fill:#000000;fill-rule:evenodd;fill-opacity:1;stroke:#000000;stroke-width:0.0px;stroke-linecap:butt;stroke-linejoin:miter;stroke-miterlimit:10;stroke-opacity:1;"/>
<path class="bond-0 atom-0 atom-1" d="M 327.7,177.9 L 322.1,201.3" style="fill:none;fill-rule:evenodd;stroke:#000000;stroke-width:2.0px;stroke-linecap:butt;stroke-linejoin:miter;stroke-opacity:1"/>
<path class="bond-1 atom-1 atom-2" d="M 322.1,201.3 L 295.3,213.9" style="fill:none;fill-rule:evenodd;stroke:#000000;stroke-width:2.0px;stroke-linecap:butt;stroke-linejoin:miter;stroke-opacity:1"/>
<path class="bond-2 atom-2 atom-3" d="M 295.3,213.9 L 268.8,200.8" style="fill:none;fill-rule:evenodd;stroke:#000000;stroke-width:2.0px;stroke-linecap:butt;stroke-linejoin:miter;stroke-opacity:1"/>
<path class="bond-3 atom-3 atom-4" d="M 268.8,200.8 L 262.5,171.8" style="fill:none;fill-rule:evenodd;stroke:#000000;stroke-width:2.0px;stroke-linecap:butt;stroke-linejoin:miter;stroke-opacity:1"/>
<path class="bond-4 atom-4 atom-5" d="M 262.5,171.8 L 281.2,148.9" style="fill:none;fill-rule:evenodd;stroke:#000000;stroke-width:2.0px;stroke-linecap:butt;stroke-linejoin:miter;stroke-opacity:1"/>
<path class="bond-5 atom-5 atom-6" d="M 281.2,148.9 L 310.8,149.2" style="fill:none;fill-rule:evenodd;stroke:#000000;stroke-width:2.0px;stroke-linecap:butt;stroke-linejoin:miter;stroke-opacity:1"/>
<path class="bond-6 atom-6 atom-7" d="M 310.8,149.2 L 305.7,125.4" style="fill:none;fill-rule:evenodd;stroke:#000000;stroke-width:2.0px;stroke-linecap:butt;stroke-linejoin:miter;stroke-opacity:1"/>
<path class="bond-6 atom-6 atom-7" d="M 315.2,148.3 L 310.0,124.5" style="fill:none;fill-rule:evenodd;stroke:#000000;stroke-width:2.0px;stroke-linecap:butt;stroke-linejoin:miter;stroke-opacity:1"/>
<path class="bond-7 atom-7 atom-8" d="M 305.8,115.1 L 311.4,91.5" style="fill:none;fill-rule:evenodd;stroke:#000000;stroke-width:2.0px;stroke-linecap:butt;stroke-linejoin:miter;stroke-opacity:1"/>
<path class="bond-8 atom-8 atom-9" d="M 311.4,91.5 L 282.2,86.7" style="fill:none;fill-rule:evenodd;stroke:#000000;stroke-width:2.0px;stroke-linecap:butt;stroke-linejoin:miter;stroke-opacity:1"/>
<path class="bond-8 atom-8 atom-9" d="M 309.6,86.7 L 285.4,82.8" style="fill:none;fill-rule:evenodd;stroke:#000000;stroke-width:2.0px;stroke-linecap:butt;stroke-linejoin:miter;stroke-opacity:1"/>
<path class="bond-9 atom-9 atom-10" d="M 282.2,86.7 L 271.7,59.0" style="fill:none;fill-rule:evenodd;stroke:#000000;stroke-width:2.0px;stroke-linecap:butt;stroke-linejoin:miter;stroke-opacity:1"/>
<path class="bond-10 atom-10 atom-11" d="M 271.7,59.0 L 290.4,36.1" style="fill:none;fill-rule:evenodd;stroke:#000000;stroke-width:2.0px;stroke-linecap:butt;stroke-linejoin:miter;stroke-opacity:1"/>
<path class="bond-10 atom-10 atom-11" d="M 276.7,59.9 L 292.2,40.9" style="fill:none;fill-rule:evenodd;stroke:#000000;stroke-width:2.0px;stroke-linecap:butt;stroke-linejoin:miter;stroke-opacity:1"/>
<path class="bond-11 atom-11 atom-12" d="M 290.4,36.1 L 319.6,40.8" style="fill:none;fill-rule:evenodd;stroke:#000000;stroke-width:2.0px;stroke-linecap:butt;stroke-linejoin:miter;stroke-opacity:1"/>
<path class="bond-12 atom-12 atom-13" d="M 319.6,40.8 L 330.1,68.5" style="fill:none;fill-rule:evenodd;stroke:#000000;stroke-width:2.0px;stroke-linecap:butt;stroke-linejoin:miter;stroke-opacity:1"/>
<path class="bond-12 atom-12 atom-13" d="M 316.4,44.8 L 325.1,67.7" style="fill:none;fill-rule:evenodd;stroke:#000000;stroke-width:2.0px;stroke-linecap:butt;stroke-linejoin:miter;stroke-opacity:1"/>
<path class="bond-13 atom-13 atom-14" d="M 330.1,68.5 L 352.8,57.9" style="fill:none;fill-rule:evenodd;stroke:#000000;stroke-width:2.0px;stroke-linecap:butt;stroke-linejoin:miter;stroke-opacity:1"/>
<path class="bond-14 atom-14 atom-15" d="M 361.1,56.0 L 386.6,56.2" style="fill:none;fill-rule:evenodd;stroke:#000000;stroke-width:2.0px;stroke-linecap:butt;stroke-linejoin:miter;stroke-opacity:1"/>
<path class="bond-15 atom-15 atom-16" d="M 386.6,56.2 L 411.2,39.8" style="fill:none;fill-rule:evenodd;stroke:#000000;stroke-width:2.0px;stroke-linecap:butt;stroke-linejoin:miter;stroke-opacity:1"/>
<path class="bond-16 atom-16 atom-17" d="M 411.2,39.8 L 413.1,69.4" style="fill:none;fill-rule:evenodd;stroke:#000000;stroke-width:2.0px;stroke-linecap:butt;stroke-linejoin:miter;stroke-opacity:1"/>
<path class="bond-17 atom-17 atom-18" d="M 413.1,69.4 L 427.3,87.6" style="fill:none;fill-rule:evenodd;stroke:#000000;stroke-width:2.0px;stroke-linecap:butt;stroke-linejoin:miter;stroke-opacity:1"/>
<path class="bond-18 atom-18 atom-19" d="M 432.5,97.9 L 437.6,121.7" style="fill:none;fill-rule:evenodd;stroke:#000000;stroke-width:2.0px;stroke-linecap:butt;stroke-linejoin:miter;stroke-opacity:1"/>
<path class="bond-19 atom-19 atom-20" d="M 437.6,121.7 L 466.0,113.2" style="fill:none;fill-rule:evenodd;stroke:#000000;stroke-width:2.0px;stroke-linecap:butt;stroke-linejoin:miter;stroke-opacity:1"/>
<path class="bond-19 atom-19 atom-20" d="M 441.3,125.2 L 464.8,118.2" style="fill:none;fill-rule:evenodd;stroke:#000000;stroke-width:2.0px;stroke-linecap:butt;stroke-linejoin:miter;stroke-opacity:1"/>
<path class="bond-20 atom-20 atom-21" d="M 466.0,113.2 L 487.5,133.6" style="fill:none;fill-rule:evenodd;stroke:#000000;stroke-width:2.0px;stroke-linecap:butt;stroke-linejoin:miter;stroke-opacity:1"/>
<path class="bond-21 atom-21 atom-22" d="M 487.5,133.6 L 480.6,162.4" style="fill:none;fill-rule:evenodd;stroke:#000000;stroke-width:2.0px;stroke-linecap:butt;stroke-linejoin:miter;stroke-opacity:1"/>
<path class="bond-21 atom-21 atom-22" d="M 482.6,135.1 L 476.9,158.9" style="fill:none;fill-rule:evenodd;stroke:#000000;stroke-width:2.0px;stroke-linecap:butt;stroke-linejoin:miter;stroke-opacity:1"/>
<path class="bond-22 atom-22 atom-23" d="M 480.6,162.4 L 452.2,170.8" style="fill:none;fill-rule:evenodd;stroke:#000000;stroke-width:2.0px;stroke-linecap:butt;stroke-linejoin:miter;stroke-opacity:1"/>
<path class="bond-23 atom-23 atom-24" d="M 452.2,170.8 L 430.7,150.5" style="fill:none;fill-rule:evenodd;stroke:#000000;stroke-width:2.0px;stroke-linecap:butt;stroke-linejoin:miter;stroke-opacity:1"/>
<path class="bond-23 atom-23 atom-24" d="M 453.4,165.9 L 435.6,149.0" style="fill:none;fill-rule:evenodd;stroke:#000000;stroke-width:2.0px;stroke-linecap:butt;stroke-linejoin:miter;stroke-opacity:1"/>
<path class="bond-24 atom-24 atom-25" d="M 430.7,150.5 L 416.2,168.3" style="fill:none;fill-rule:evenodd;stroke:#000000;stroke-width:2.0px;stroke-linecap:butt;stroke-linejoin:miter;stroke-opacity:1"/>
<path class="bond-25 atom-25 atom-26" d="M 408.4,175.1 L 390.0,183.7" style="fill:none;fill-rule:evenodd;stroke:#000000;stroke-width:2.0px;stroke-linecap:butt;stroke-linejoin:miter;stroke-opacity:1"/>
<path class="bond-26 atom-26 atom-27" d="M 380.4,185.9 L 360.4,185.7" style="fill:none;fill-rule:evenodd;stroke:#000000;stroke-width:2.0px;stroke-linecap:butt;stroke-linejoin:miter;stroke-opacity:1"/>
<path class="bond-27 atom-6 atom-0" d="M 310.8,149.2 L 325.4,167.8" style="fill:none;fill-rule:evenodd;stroke:#000000;stroke-width:2.0px;stroke-linecap:butt;stroke-linejoin:miter;stroke-opacity:1"/>
<path class="bond-28 atom-27 atom-0" d="M 350.8,183.3 L 332.7,174.4" style="fill:none;fill-rule:evenodd;stroke:#000000;stroke-width:2.0px;stroke-linecap:butt;stroke-linejoin:miter;stroke-opacity:1"/>
<path class="bond-29 atom-13 atom-8" d="M 330.1,68.5 L 311.4,91.5" style="fill:none;fill-rule:evenodd;stroke:#000000;stroke-width:2.0px;stroke-linecap:butt;stroke-linejoin:miter;stroke-opacity:1"/>
<path class="bond-30 atom-17 atom-15" d="M 413.1,69.4 L 386.6,56.2" style="fill:none;fill-rule:evenodd;stroke:#000000;stroke-width:2.0px;stroke-linecap:butt;stroke-linejoin:miter;stroke-opacity:1"/>
<path class="bond-31 atom-24 atom-19" d="M 430.7,150.5 L 437.6,121.7" style="fill:none;fill-rule:evenodd;stroke:#000000;stroke-width:2.0px;stroke-linecap:butt;stroke-linejoin:miter;stroke-opacity:1"/>
<path d="M 322.4,200.2 L 322.1,201.3 L 320.8,202.0" style="fill:none;stroke:#000000;stroke-width:2.0px;stroke-linecap:butt;stroke-linejoin:miter;stroke-miterlimit:10;stroke-opacity:1;"/>
<path d="M 296.7,213.3 L 295.3,213.9 L 294.0,213.3" style="fill:none;stroke:#000000;stroke-width:2.0px;stroke-linecap:butt;stroke-linejoin:miter;stroke-miterlimit:10;stroke-opacity:1;"/>
<path d="M 270.1,201.4 L 268.8,200.8 L 268.5,199.3" style="fill:none;stroke:#000000;stroke-width:2.0px;stroke-linecap:butt;stroke-linejoin:miter;stroke-miterlimit:10;stroke-opacity:1;"/>
<path d="M 262.8,173.3 L 262.5,171.8 L 263.4,170.7" style="fill:none;stroke:#000000;stroke-width:2.0px;stroke-linecap:butt;stroke-linejoin:miter;stroke-miterlimit:10;stroke-opacity:1;"/>
<path d="M 280.3,150.0 L 281.2,148.9 L 282.7,148.9" style="fill:none;stroke:#000000;stroke-width:2.0px;stroke-linecap:butt;stroke-linejoin:miter;stroke-miterlimit:10;stroke-opacity:1;"/>
<path d="M 283.7,87.0 L 282.2,86.7 L 281.7,85.3" style="fill:none;stroke:#000000;stroke-width:2.0px;stroke-linecap:butt;stroke-linejoin:miter;stroke-miterlimit:10;stroke-opacity:1;"/>
<path d="M 272.2,60.4 L 271.7,59.0 L 272.6,57.9" style="fill:none;stroke:#000000;stroke-width:2.0px;stroke-linecap:butt;stroke-linejoin:miter;stroke-miterlimit:10;stroke-opacity:1;"/>
<path d="M 289.4,37.2 L 290.4,36.1 L 291.8,36.3" style="fill:none;stroke:#000000;stroke-width:2.0px;stroke-linecap:butt;stroke-linejoin:miter;stroke-miterlimit:10;stroke-opacity:1;"/>
<path d="M 318.2,40.6 L 319.6,40.8 L 320.1,42.2" style="fill:none;stroke:#000000;stroke-width:2.0px;stroke-linecap:butt;stroke-linejoin:miter;stroke-miterlimit:10;stroke-opacity:1;"/>
<path d="M 410.0,40.6 L 411.2,39.8 L 411.3,41.3" style="fill:none;stroke:#000000;stroke-width:2.0px;stroke-linecap:butt;stroke-linejoin:miter;stroke-miterlimit:10;stroke-opacity:1;"/>
<path d="M 464.6,113.7 L 466.0,113.2 L 467.1,114.3" style="fill:none;stroke:#000000;stroke-width:2.0px;stroke-linecap:butt;stroke-linejoin:miter;stroke-miterlimit:10;stroke-opacity:1;"/>
<path d="M 486.4,132.6 L 487.5,133.6 L 487.2,135.1" style="fill:none;stroke:#000000;stroke-width:2.0px;stroke-linecap:butt;stroke-linejoin:miter;stroke-miterlimit:10;stroke-opacity:1;"/>
<path d="M 480.9,161.0 L 480.6,162.4 L 479.2,162.8" style="fill:none;stroke:#000000;stroke-width:2.0px;stroke-linecap:butt;stroke-linejoin:miter;stroke-miterlimit:10;stroke-opacity:1;"/>
<path d="M 453.6,170.4 L 452.2,170.8 L 451.1,169.8" style="fill:none;stroke:#000000;stroke-width:2.0px;stroke-linecap:butt;stroke-linejoin:miter;stroke-miterlimit:10;stroke-opacity:1;"/>
<path class="atom-0" d="M 326.7 175.4 Q 326.8 175.5, 327.2 175.6 Q 327.5 175.8, 328.0 175.9 Q 328.4 176.0, 328.8 176.0 Q 329.6 176.0, 330.1 175.6 Q 330.6 175.2, 330.6 174.5 Q 330.6 174.1, 330.3 173.8 Q 330.1 173.5, 329.7 173.4 Q 329.4 173.2, 328.8 173.0 Q 328.0 172.8, 327.6 172.6 Q 327.2 172.4, 326.8 171.9 Q 326.5 171.5, 326.5 170.7 Q 326.5 169.7, 327.2 169.0 Q 328.0 168.4, 329.4 168.4 Q 330.4 168.4, 331.5 168.8 L 331.2 169.7 Q 330.2 169.3, 329.4 169.3 Q 328.6 169.3, 328.2 169.7 Q 327.7 170.0, 327.7 170.6 Q 327.7 171.0, 327.9 171.3 Q 328.2 171.6, 328.5 171.7 Q 328.8 171.9, 329.4 172.1 Q 330.2 172.3, 330.6 172.5 Q 331.1 172.8, 331.4 173.3 Q 331.7 173.7, 331.7 174.5 Q 331.7 175.7, 330.9 176.3 Q 330.2 176.9, 328.9 176.9 Q 328.1 176.9, 327.6 176.8 Q 327.0 176.6, 326.3 176.4 L 326.7 175.4 " fill="#000000"/>
<path class="atom-0" d="M 332.8 169.7 L 334.3 169.7 L 334.3 168.2 L 335.0 168.2 L 335.0 169.7 L 336.5 169.7 L 336.5 170.3 L 335.0 170.3 L 335.0 171.9 L 334.3 171.9 L 334.3 170.3 L 332.8 170.3 L 332.8 169.7 " fill="#000000"/>
<path class="atom-7" d="M 302.7 116.1 L 305.4 120.5 Q 305.7 120.9, 306.1 121.7 Q 306.6 122.5, 306.6 122.6 L 306.6 116.1 L 307.7 116.1 L 307.7 124.4 L 306.6 124.4 L 303.6 119.6 Q 303.3 119.0, 302.9 118.4 Q 302.6 117.7, 302.4 117.5 L 302.4 124.4 L 301.4 124.4 L 301.4 116.1 L 302.7 116.1 " fill="#000000"/>
<path class="atom-14" d="M 355.1 51.7 L 357.9 56.2 Q 358.1 56.6, 358.6 57.4 Q 359.0 58.2, 359.0 58.3 L 359.0 51.7 L 360.1 51.7 L 360.1 60.1 L 359.0 60.1 L 356.0 55.3 Q 355.7 54.7, 355.3 54.1 Q 355.0 53.4, 354.9 53.2 L 354.9 60.1 L 353.8 60.1 L 353.8 51.7 L 355.1 51.7 " fill="#000000"/>
<path class="atom-14" d="M 353.7 42.5 L 354.8 42.5 L 354.8 46.1 L 359.1 46.1 L 359.1 42.5 L 360.2 42.5 L 360.2 50.9 L 359.1 50.9 L 359.1 47.0 L 354.8 47.0 L 354.8 50.9 L 353.7 50.9 L 353.7 42.5 " fill="#000000"/>
<path class="atom-18" d="M 429.5 88.5 L 432.2 93.0 Q 432.5 93.4, 432.9 94.2 Q 433.4 95.0, 433.4 95.1 L 433.4 88.5 L 434.5 88.5 L 434.5 96.9 L 433.4 96.9 L 430.4 92.1 Q 430.1 91.5, 429.7 90.8 Q 429.4 90.2, 429.2 90.0 L 429.2 96.9 L 428.2 96.9 L 428.2 88.5 L 429.5 88.5 " fill="#000000"/>
<path class="atom-18" d="M 436.0 89.9 L 438.9 89.9 L 438.9 90.5 L 436.0 90.5 L 436.0 89.9 " fill="#000000"/>
<path class="atom-25" d="M 411.8 169.2 Q 413.2 169.2, 414.0 169.9 Q 414.7 170.5, 414.7 171.7 Q 414.7 172.9, 413.9 173.5 Q 413.2 174.2, 411.8 174.2 L 410.5 174.2 L 410.5 177.6 L 409.3 177.6 L 409.3 169.2 L 411.8 169.2 M 411.8 173.2 Q 412.6 173.2, 413.1 172.8 Q 413.5 172.4, 413.5 171.7 Q 413.5 170.9, 413.1 170.6 Q 412.6 170.2, 411.8 170.2 L 410.5 170.2 L 410.5 173.2 L 411.8 173.2 " fill="#000000"/>
<path class="atom-25" d="M 415.8 169.2 L 417.0 169.2 L 417.0 172.8 L 421.3 172.8 L 421.3 169.2 L 422.4 169.2 L 422.4 177.6 L 421.3 177.6 L 421.3 173.7 L 417.0 173.7 L 417.0 177.6 L 415.8 177.6 L 415.8 169.2 " fill="#000000"/>
<path class="atom-25" d="M 424.0 170.7 L 425.5 170.7 L 425.5 169.2 L 426.1 169.2 L 426.1 170.7 L 427.6 170.7 L 427.6 171.3 L 426.1 171.3 L 426.1 172.9 L 425.5 172.9 L 425.5 171.3 L 424.0 171.3 L 424.0 170.7 " fill="#000000"/>
<path class="atom-26" d="M 381.3 186.0 Q 381.3 184.0, 382.3 182.9 Q 383.3 181.7, 385.2 181.7 Q 387.1 181.7, 388.0 182.9 Q 389.0 184.0, 389.0 186.0 Q 389.0 188.1, 388.0 189.2 Q 387.0 190.4, 385.2 190.4 Q 383.3 190.4, 382.3 189.2 Q 381.3 188.1, 381.3 186.0 M 385.2 189.4 Q 386.5 189.4, 387.2 188.6 Q 387.9 187.7, 387.9 186.0 Q 387.9 184.4, 387.2 183.5 Q 386.5 182.7, 385.2 182.7 Q 383.9 182.7, 383.2 183.5 Q 382.5 184.4, 382.5 186.0 Q 382.5 187.7, 383.2 188.6 Q 383.9 189.4, 385.2 189.4 " fill="#000000"/>
<path class="atom-27" d="M 351.7 185.7 Q 351.7 183.7, 352.7 182.6 Q 353.7 181.4, 355.6 181.4 Q 357.4 181.4, 358.4 182.6 Q 359.4 183.7, 359.4 185.7 Q 359.4 187.7, 358.4 188.9 Q 357.4 190.0, 355.6 190.0 Q 353.7 190.0, 352.7 188.9 Q 351.7 187.7, 351.7 185.7 M 355.6 189.1 Q 356.9 189.1, 357.5 188.2 Q 358.2 187.4, 358.2 185.7 Q 358.2 184.1, 357.5 183.2 Q 356.9 182.4, 355.6 182.4 Q 354.3 182.4, 353.6 183.2 Q 352.9 184.0, 352.9 185.7 Q 352.9 187.4, 353.6 188.2 Q 354.3 189.1, 355.6 189.1 " fill="#000000"/>
<path class="atom-25" d="M 430.0,173.4 L 430.0,173.5 L 430.0,173.5 L 430.0,173.6 L 430.0,173.6 L 429.9,173.7 L 429.9,173.7 L 429.9,173.8 L 429.9,173.8 L 429.8,173.8 L 429.8,173.9 L 429.8,173.9 L 429.7,173.9 L 429.7,174.0 L 429.6,174.0 L 429.6,174.0 L 429.5,174.0 L 429.5,174.0 L 429.4,174.0 L 429.4,174.0 L 429.3,174.0 L 429.3,174.0 L 429.2,174.0 L 429.2,174.0 L 429.1,173.9 L 429.1,173.9 L 429.0,173.9 L 429.0,173.9 L 429.0,173.8 L 428.9,173.8 L 428.9,173.7 L 428.9,173.7 L 428.9,173.6 L 428.8,173.6 L 428.8,173.6 L 428.8,173.5 L 428.8,173.5 L 428.8,173.4 L 428.8,173.3 L 428.8,173.3 L 428.8,173.2 L 428.9,173.2 L 428.9,173.2 L 428.9,173.1 L 428.9,173.1 L 429.0,173.0 L 429.0,173.0 L 429.0,173.0 L 429.1,172.9 L 429.1,172.9 L 429.2,172.9 L 429.2,172.9 L 429.3,172.8 L 429.3,172.8 L 429.4,172.8 L 429.4,172.8 L 429.5,172.8 L 429.5,172.8 L 429.6,172.9 L 429.6,172.9 L 429.7,172.9 L 429.7,172.9 L 429.8,172.9 L 429.8,173.0 L 429.8,173.0 L 429.9,173.0 L 429.9,173.1 L 429.9,173.1 L 429.9,173.2 L 430.0,173.2 L 430.0,173.3 L 430.0,173.3 L 430.0,173.4 L 430.0,173.4 L 429.4,173.4 Z" style="fill:#000000;fill-rule:evenodd;fill-opacity:1;stroke:#000000;stroke-width:0.0px;stroke-linecap:butt;stroke-linejoin:miter;stroke-miterlimit:10;stroke-opacity:1;"/>
<path class="bond-0 atom-0 atom-1" d="M 709.6,130.8 L 666.5,106.0" style="fill:none;fill-rule:evenodd;stroke:#000000;stroke-width:2.0px;stroke-linecap:butt;stroke-linejoin:miter;stroke-opacity:1"/>
<path class="bond-1 atom-1 atom-2" d="M 666.5,106.0 L 615.2,135.6" style="fill:none;fill-rule:evenodd;stroke:#000000;stroke-width:2.0px;stroke-linecap:butt;stroke-linejoin:miter;stroke-opacity:1"/>
<path class="bond-1 atom-1 atom-2" d="M 666.5,116.2 L 619.6,143.3" style="fill:none;fill-rule:evenodd;stroke:#000000;stroke-width:2.0px;stroke-linecap:butt;stroke-linejoin:miter;stroke-opacity:1"/>
<path class="bond-2 atom-2 atom-3" d="M 615.2,135.6 L 563.8,106.0" style="fill:none;fill-rule:evenodd;stroke:#000000;stroke-width:2.0px;stroke-linecap:butt;stroke-linejoin:miter;stroke-opacity:1"/>
<path class="bond-3 atom-3 atom-4" d="M 563.8,106.0 L 512.5,135.6" style="fill:none;fill-rule:evenodd;stroke:#000000;stroke-width:2.0px;stroke-linecap:butt;stroke-linejoin:miter;stroke-opacity:1"/>
<path class="bond-3 atom-3 atom-4" d="M 563.8,116.2 L 516.9,143.3" style="fill:none;fill-rule:evenodd;stroke:#000000;stroke-width:2.0px;stroke-linecap:butt;stroke-linejoin:miter;stroke-opacity:1"/>
<path d="M 668.7,107.2 L 666.5,106.0 L 664.0,107.5" style="fill:none;stroke:#000000;stroke-width:2.0px;stroke-linecap:butt;stroke-linejoin:miter;stroke-miterlimit:10;stroke-opacity:1;"/>
<path d="M 617.8,134.1 L 615.2,135.6 L 612.6,134.1" style="fill:none;stroke:#000000;stroke-width:2.0px;stroke-linecap:butt;stroke-linejoin:miter;stroke-miterlimit:10;stroke-opacity:1;"/>
<path d="M 566.4,107.5 L 563.8,106.0 L 561.3,107.5" style="fill:none;stroke:#000000;stroke-width:2.0px;stroke-linecap:butt;stroke-linejoin:miter;stroke-miterlimit:10;stroke-opacity:1;"/>
<path class="atom-0" d="M 714.2 127.2 L 719.7 136.1 Q 720.2 137.0, 721.1 138.6 Q 722.0 140.2, 722.0 140.3 L 722.0 127.2 L 724.3 127.2 L 724.3 144.0 L 722.0 144.0 L 716.1 134.3 Q 715.4 133.2, 714.6 131.9 Q 713.9 130.5, 713.7 130.1 L 713.7 144.0 L 711.5 144.0 L 711.5 127.2 L 714.2 127.2 " fill="#000000"/>
<path class="atom-0" d="M 727.3 130.0 L 733.1 130.0 L 733.1 131.3 L 727.3 131.3 L 727.3 130.0 " fill="#000000"/>
<path class="atom-0" d="M 737.8,135.6 L 737.8,135.7 L 737.8,135.8 L 737.8,135.9 L 737.7,136.0 L 737.7,136.1 L 737.6,136.2 L 737.6,136.3 L 737.5,136.4 L 737.5,136.5 L 737.4,136.5 L 737.3,136.6 L 737.2,136.6 L 737.1,136.7 L 737.0,136.7 L 736.9,136.8 L 736.8,136.8 L 736.7,136.8 L 736.6,136.8 L 736.5,136.8 L 736.4,136.8 L 736.3,136.8 L 736.2,136.8 L 736.1,136.7 L 736.0,136.7 L 736.0,136.6 L 735.9,136.6 L 735.8,136.5 L 735.7,136.4 L 735.7,136.3 L 735.6,136.3 L 735.6,136.2 L 735.5,136.1 L 735.5,136.0 L 735.5,135.9 L 735.4,135.8 L 735.4,135.7 L 735.4,135.6 L 735.4,135.5 L 735.5,135.4 L 735.5,135.3 L 735.5,135.2 L 735.6,135.1 L 735.6,135.0 L 735.7,134.9 L 735.7,134.8 L 735.8,134.8 L 735.9,134.7 L 736.0,134.6 L 736.0,134.6 L 736.1,134.5 L 736.2,134.5 L 736.3,134.5 L 736.4,134.5 L 736.5,134.4 L 736.6,134.4 L 736.7,134.4 L 736.8,134.5 L 736.9,134.5 L 737.0,134.5 L 737.1,134.6 L 737.2,134.6 L 737.3,134.7 L 737.4,134.7 L 737.5,134.8 L 737.5,134.9 L 737.6,135.0 L 737.6,135.0 L 737.7,135.1 L 737.7,135.2 L 737.8,135.3 L 737.8,135.4 L 737.8,135.5 L 737.8,135.6 L 736.6,135.6 Z" style="fill:#000000;fill-rule:evenodd;fill-opacity:1;stroke:#000000;stroke-width:0.0px;stroke-linecap:butt;stroke-linejoin:miter;stroke-miterlimit:10;stroke-opacity:1;"/>
<path class="bond-0 atom-0 atom-1" d="M 67.7,390.5 L 123.0,358.6" style="fill:none;fill-rule:evenodd;stroke:#000000;stroke-width:2.0px;stroke-linecap:butt;stroke-linejoin:miter;stroke-opacity:1"/>
<path class="bond-1 atom-1 atom-2" d="M 142.3,364.5 L 197.7,396.5" style="fill:none;fill-rule:evenodd;stroke:#000000;stroke-width:2.0px;stroke-linecap:butt;stroke-linejoin:miter;stroke-opacity:1"/>
<path class="bond-1 atom-1 atom-2" d="M 149.2,352.6 L 204.5,384.5" style="fill:none;fill-rule:evenodd;stroke:#000000;stroke-width:2.0px;stroke-linecap:butt;stroke-linejoin:miter;stroke-opacity:1"/>
<path class="atom-0" d="M 19.4 384.9 L 22.9 384.9 L 22.9 396.0 L 36.2 396.0 L 36.2 384.9 L 39.8 384.9 L 39.8 411.0 L 36.2 411.0 L 36.2 399.0 L 22.9 399.0 L 22.9 411.0 L 19.4 411.0 L 19.4 384.9 " fill="#000000"/>
<path class="atom-0" d="M 49.0 384.9 L 57.5 398.7 Q 58.4 400.1, 59.8 402.6 Q 61.1 405.0, 61.2 405.2 L 61.2 384.9 L 64.6 384.9 L 64.6 411.0 L 61.1 411.0 L 51.9 395.9 Q 50.9 394.1, 49.7 392.1 Q 48.6 390.1, 48.3 389.5 L 48.3 411.0 L 44.9 411.0 L 44.9 384.9 L 49.0 384.9 " fill="#000000"/>
<path class="atom-1" d="M 127.0 360.9 Q 127.3 361.0, 128.5 361.6 Q 129.8 362.1, 131.1 362.4 Q 132.4 362.7, 133.8 362.7 Q 136.2 362.7, 137.7 361.5 Q 139.1 360.3, 139.1 358.2 Q 139.1 356.8, 138.4 355.9 Q 137.7 355.0, 136.6 354.5 Q 135.5 354.1, 133.6 353.5 Q 131.3 352.8, 129.9 352.1 Q 128.5 351.5, 127.5 350.1 Q 126.6 348.7, 126.6 346.3 Q 126.6 343.1, 128.8 341.0 Q 131.0 339.0, 135.5 339.0 Q 138.5 339.0, 141.9 340.5 L 141.0 343.3 Q 137.9 342.0, 135.6 342.0 Q 133.0 342.0, 131.6 343.1 Q 130.2 344.1, 130.3 345.9 Q 130.3 347.3, 131.0 348.1 Q 131.7 349.0, 132.7 349.5 Q 133.8 349.9, 135.6 350.5 Q 137.9 351.2, 139.3 352.0 Q 140.7 352.7, 141.7 354.2 Q 142.7 355.7, 142.7 358.2 Q 142.7 361.8, 140.3 363.8 Q 137.9 365.7, 133.9 365.7 Q 131.6 365.7, 129.8 365.2 Q 128.1 364.7, 126.0 363.8 L 127.0 360.9 " fill="#000000"/>
<path class="atom-2" d="M 208.2 384.9 L 216.8 398.7 Q 217.6 400.1, 219.0 402.6 Q 220.3 405.0, 220.4 405.2 L 220.4 384.9 L 223.9 384.9 L 223.9 411.0 L 220.3 411.0 L 211.2 395.9 Q 210.1 394.1, 208.9 392.1 Q 207.8 390.1, 207.5 389.5 L 207.5 411.0 L 204.1 411.0 L 204.1 384.9 L 208.2 384.9 " fill="#000000"/>
<path class="atom-2" d="M 228.6 389.3 L 237.5 389.3 L 237.5 391.2 L 228.6 391.2 L 228.6 389.3 " fill="#000000"/>
<path class="atom-0" d="M 15.7,398.0 L 15.7,398.1 L 15.7,398.3 L 15.7,398.4 L 15.6,398.6 L 15.5,398.7 L 15.5,398.9 L 15.4,399.0 L 15.3,399.1 L 15.2,399.3 L 15.1,399.4 L 15.0,399.5 L 14.8,399.5 L 14.7,399.6 L 14.5,399.7 L 14.4,399.7 L 14.2,399.8 L 14.1,399.8 L 13.9,399.8 L 13.8,399.8 L 13.6,399.8 L 13.4,399.8 L 13.3,399.7 L 13.1,399.7 L 13.0,399.6 L 12.9,399.5 L 12.7,399.4 L 12.6,399.3 L 12.5,399.2 L 12.4,399.1 L 12.3,398.9 L 12.2,398.8 L 12.2,398.7 L 12.1,398.5 L 12.1,398.4 L 12.1,398.2 L 12.0,398.0 L 12.0,397.9 L 12.1,397.7 L 12.1,397.6 L 12.1,397.4 L 12.2,397.3 L 12.2,397.1 L 12.3,397.0 L 12.4,396.9 L 12.5,396.7 L 12.6,396.6 L 12.7,396.5 L 12.9,396.4 L 13.0,396.3 L 13.1,396.3 L 13.3,396.2 L 13.4,396.2 L 13.6,396.1 L 13.8,396.1 L 13.9,396.1 L 14.1,396.1 L 14.2,396.2 L 14.4,396.2 L 14.5,396.2 L 14.7,396.3 L 14.8,396.4 L 15.0,396.5 L 15.1,396.6 L 15.2,396.7 L 15.3,396.8 L 15.4,396.9 L 15.5,397.1 L 15.5,397.2 L 15.6,397.3 L 15.7,397.5 L 15.7,397.6 L 15.7,397.8 L 15.7,398.0 L 13.9,398.0 Z" style="fill:#000000;fill-rule:evenodd;fill-opacity:1;stroke:#000000;stroke-width:0.0px;stroke-linecap:butt;stroke-linejoin:miter;stroke-miterlimit:10;stroke-opacity:1;"/>
<path class="atom-1" d="M 122.4,352.0 L 122.4,352.2 L 122.3,352.3 L 122.3,352.5 L 122.3,352.6 L 122.2,352.8 L 122.1,352.9 L 122.0,353.0 L 121.9,353.2 L 121.8,353.3 L 121.7,353.4 L 121.6,353.5 L 121.5,353.6 L 121.3,353.7 L 121.2,353.7 L 121.0,353.8 L 120.9,353.8 L 120.7,353.8 L 120.6,353.8 L 120.4,353.8 L 120.2,353.8 L 120.1,353.8 L 119.9,353.7 L 119.8,353.7 L 119.7,353.6 L 119.5,353.5 L 119.4,353.4 L 119.3,353.3 L 119.2,353.2 L 119.1,353.1 L 119.0,353.0 L 118.9,352.8 L 118.8,352.7 L 118.8,352.5 L 118.7,352.4 L 118.7,352.2 L 118.7,352.1 L 118.7,351.9 L 118.7,351.8 L 118.7,351.6 L 118.8,351.5 L 118.8,351.3 L 118.9,351.2 L 119.0,351.0 L 119.1,350.9 L 119.2,350.8 L 119.3,350.7 L 119.4,350.6 L 119.5,350.5 L 119.7,350.4 L 119.8,350.3 L 119.9,350.3 L 120.1,350.2 L 120.2,350.2 L 120.4,350.2 L 120.6,350.2 L 120.7,350.2 L 120.9,350.2 L 121.0,350.2 L 121.2,350.3 L 121.3,350.3 L 121.5,350.4 L 121.6,350.5 L 121.7,350.6 L 121.8,350.7 L 121.9,350.8 L 122.0,351.0 L 122.1,351.1 L 122.2,351.2 L 122.3,351.4 L 122.3,351.5 L 122.3,351.7 L 122.4,351.8 L 122.4,352.0 L 120.5,352.0 Z" style="fill:#000000;fill-rule:evenodd;fill-opacity:1;stroke:#000000;stroke-width:0.0px;stroke-linecap:butt;stroke-linejoin:miter;stroke-miterlimit:10;stroke-opacity:1;"/>
<path class="bond-0 atom-0 atom-1" d="M 279.7,386.8 L 301.7,417.1" style="fill:none;fill-rule:evenodd;stroke:#000000;stroke-width:2.0px;stroke-linecap:butt;stroke-linejoin:miter;stroke-opacity:1"/>
<path class="bond-1 atom-1 atom-2" d="M 319.2,425.5 L 372.9,408.1" style="fill:none;fill-rule:evenodd;stroke:#000000;stroke-width:2.0px;stroke-linecap:butt;stroke-linejoin:miter;stroke-opacity:1"/>
<path class="bond-2 atom-2 atom-3" d="M 372.9,408.1 L 430.2,441.2" style="fill:none;fill-rule:evenodd;stroke:#000000;stroke-width:2.0px;stroke-linecap:butt;stroke-linejoin:miter;stroke-opacity:1"/>
<path class="bond-3 atom-3 atom-4" d="M 430.2,441.2 L 487.5,408.1" style="fill:none;fill-rule:evenodd;stroke:#000000;stroke-width:2.0px;stroke-linecap:butt;stroke-linejoin:miter;stroke-opacity:1"/>
<path class="bond-4 atom-4 atom-5" d="M 487.5,408.1 L 487.5,341.9" style="fill:none;fill-rule:evenodd;stroke:#000000;stroke-width:2.0px;stroke-linecap:butt;stroke-linejoin:miter;stroke-opacity:1"/>
<path class="bond-5 atom-5 atom-6" d="M 487.5,341.9 L 430.2,308.8" style="fill:none;fill-rule:evenodd;stroke:#000000;stroke-width:2.0px;stroke-linecap:butt;stroke-linejoin:miter;stroke-opacity:1"/>
<path class="bond-6 atom-6 atom-7" d="M 430.2,308.8 L 372.9,341.9" style="fill:none;fill-rule:evenodd;stroke:#000000;stroke-width:2.0px;stroke-linecap:butt;stroke-linejoin:miter;stroke-opacity:1"/>
<path class="bond-7 atom-7 atom-8" d="M 372.9,341.9 L 319.2,324.5" style="fill:none;fill-rule:evenodd;stroke:#000000;stroke-width:2.0px;stroke-linecap:butt;stroke-linejoin:miter;stroke-opacity:1"/>
<path class="bond-8 atom-8 atom-0" d="M 301.7,332.9 L 279.5,363.5" style="fill:none;fill-rule:evenodd;stroke:#000000;stroke-width:2.0px;stroke-linecap:butt;stroke-linejoin:miter;stroke-opacity:1"/>
<path class="bond-9 atom-7 atom-2" d="M 372.9,341.9 L 372.9,408.1" style="fill:none;fill-rule:evenodd;stroke:#000000;stroke-width:2.0px;stroke-linecap:butt;stroke-linejoin:miter;stroke-opacity:1"/>
<path class="bond-10 atom-2 atom-9" d="M 372.9,408.1 L 374.4,438.9 L 365.1,438.0 Z" style="fill:#000000;fill-rule:evenodd;fill-opacity:1;stroke:#000000;stroke-width:0.5px;stroke-linecap:butt;stroke-linejoin:miter;stroke-miterlimit:10;stroke-opacity:1;"/>
<path class="bond-11 atom-7 atom-10" d="M 372.0,338.6 L 373.1,338.5" style="fill:none;fill-rule:evenodd;stroke:#000000;stroke-width:1.0px;stroke-linecap:butt;stroke-linejoin:miter;stroke-opacity:1"/>
<path class="bond-11 atom-7 atom-10" d="M 371.2,335.3 L 373.2,335.1" style="fill:none;fill-rule:evenodd;stroke:#000000;stroke-width:1.0px;stroke-linecap:butt;stroke-linejoin:miter;stroke-opacity:1"/>
<path class="bond-11 atom-7 atom-10" d="M 370.3,332.0 L 373.4,331.6" style="fill:none;fill-rule:evenodd;stroke:#000000;stroke-width:1.0px;stroke-linecap:butt;stroke-linejoin:miter;stroke-opacity:1"/>
<path class="bond-11 atom-7 atom-10" d="M 369.4,328.6 L 373.6,328.2" style="fill:none;fill-rule:evenodd;stroke:#000000;stroke-width:1.0px;stroke-linecap:butt;stroke-linejoin:miter;stroke-opacity:1"/>
<path class="bond-11 atom-7 atom-10" d="M 368.5,325.3 L 373.7,324.8" style="fill:none;fill-rule:evenodd;stroke:#000000;stroke-width:1.0px;stroke-linecap:butt;stroke-linejoin:miter;stroke-opacity:1"/>
<path class="bond-11 atom-7 atom-10" d="M 367.7,322.0 L 373.9,321.3" style="fill:none;fill-rule:evenodd;stroke:#000000;stroke-width:1.0px;stroke-linecap:butt;stroke-linejoin:miter;stroke-opacity:1"/>
<path class="bond-11 atom-7 atom-10" d="M 366.8,318.7 L 374.1,317.9" style="fill:none;fill-rule:evenodd;stroke:#000000;stroke-width:1.0px;stroke-linecap:butt;stroke-linejoin:miter;stroke-opacity:1"/>
<path class="bond-11 atom-7 atom-10" d="M 365.9,315.4 L 374.2,314.5" style="fill:none;fill-rule:evenodd;stroke:#000000;stroke-width:1.0px;stroke-linecap:butt;stroke-linejoin:miter;stroke-opacity:1"/>
<path class="bond-11 atom-7 atom-10" d="M 365.1,312.0 L 374.4,311.1" style="fill:none;fill-rule:evenodd;stroke:#000000;stroke-width:1.0px;stroke-linecap:butt;stroke-linejoin:miter;stroke-opacity:1"/>
<path d="M 427.3,439.5 L 430.2,441.2 L 433.1,439.5" style="fill:none;stroke:#000000;stroke-width:2.0px;stroke-linecap:butt;stroke-linejoin:miter;stroke-miterlimit:10;stroke-opacity:1;"/>
<path d="M 484.6,409.7 L 487.5,408.1 L 487.5,404.8" style="fill:none;stroke:#000000;stroke-width:2.0px;stroke-linecap:butt;stroke-linejoin:miter;stroke-miterlimit:10;stroke-opacity:1;"/>
<path d="M 487.5,345.2 L 487.5,341.9 L 484.6,340.3" style="fill:none;stroke:#000000;stroke-width:2.0px;stroke-linecap:butt;stroke-linejoin:miter;stroke-miterlimit:10;stroke-opacity:1;"/>
<path d="M 433.1,310.5 L 430.2,308.8 L 427.3,310.5" style="fill:none;stroke:#000000;stroke-width:2.0px;stroke-linecap:butt;stroke-linejoin:miter;stroke-miterlimit:10;stroke-opacity:1;"/>
<path class="atom-0" d="M 262.5 375.1 Q 262.5 370.6, 264.7 368.0 Q 266.9 365.5, 271.1 365.5 Q 275.3 365.5, 277.5 368.0 Q 279.7 370.6, 279.7 375.1 Q 279.7 379.6, 277.5 382.2 Q 275.2 384.8, 271.1 384.8 Q 267.0 384.8, 264.7 382.2 Q 262.5 379.6, 262.5 375.1 M 271.1 382.6 Q 274.0 382.6, 275.5 380.7 Q 277.1 378.8, 277.1 375.1 Q 277.1 371.4, 275.5 369.5 Q 274.0 367.6, 271.1 367.6 Q 268.2 367.6, 266.7 369.5 Q 265.1 371.3, 265.1 375.1 Q 265.1 378.8, 266.7 380.7 Q 268.2 382.6, 271.1 382.6 " fill="#000000"/>
<path class="atom-1" d="M 305.8 419.2 L 312.0 429.1 Q 312.6 430.1, 313.6 431.8 Q 314.6 433.6, 314.6 433.7 L 314.6 419.2 L 317.1 419.2 L 317.1 437.9 L 314.5 437.9 L 307.9 427.0 Q 307.2 425.8, 306.3 424.3 Q 305.6 422.9, 305.3 422.4 L 305.3 437.9 L 302.9 437.9 L 302.9 419.2 L 305.8 419.2 " fill="#000000"/>
<path class="atom-1" d="M 302.7 439.8 L 305.2 439.8 L 305.2 447.7 L 314.8 447.7 L 314.8 439.8 L 317.3 439.8 L 317.3 458.5 L 314.8 458.5 L 314.8 449.8 L 305.2 449.8 L 305.2 458.5 L 302.7 458.5 L 302.7 439.8 " fill="#000000"/>
<path class="atom-8" d="M 305.8 312.1 L 312.0 322.0 Q 312.6 323.0, 313.6 324.8 Q 314.6 326.6, 314.6 326.7 L 314.6 312.1 L 317.1 312.1 L 317.1 330.8 L 314.5 330.8 L 307.9 320.0 Q 307.2 318.7, 306.3 317.3 Q 305.6 315.8, 305.3 315.4 L 305.3 330.8 L 302.9 330.8 L 302.9 312.1 L 305.8 312.1 " fill="#000000"/>
<path class="atom-8" d="M 302.7 291.5 L 305.2 291.5 L 305.2 299.5 L 314.8 299.5 L 314.8 291.5 L 317.3 291.5 L 317.3 310.2 L 314.8 310.2 L 314.8 301.6 L 305.2 301.6 L 305.2 310.2 L 302.7 310.2 L 302.7 291.5 " fill="#000000"/>
<path class="atom-8" d="M 320.9 309.6 Q 321.4 308.4, 322.5 307.8 Q 323.5 307.1, 325.0 307.1 Q 326.9 307.1, 328.0 308.1 Q 329.0 309.1, 329.0 310.9 Q 329.0 312.8, 327.6 314.5 Q 326.3 316.2, 323.5 318.2 L 329.2 318.2 L 329.2 319.6 L 320.9 319.6 L 320.9 318.4 Q 323.2 316.8, 324.6 315.6 Q 325.9 314.3, 326.6 313.2 Q 327.3 312.1, 327.3 311.0 Q 327.3 309.8, 326.7 309.2 Q 326.1 308.5, 325.0 308.5 Q 324.1 308.5, 323.4 308.9 Q 322.7 309.3, 322.3 310.2 L 320.9 309.6 " fill="#000000"/>
<path class="atom-8" d="M 321.0 294.9 L 324.3 294.9 L 324.3 291.4 L 325.7 291.4 L 325.7 294.9 L 329.1 294.9 L 329.1 296.1 L 325.7 296.1 L 325.7 299.6 L 324.3 299.6 L 324.3 296.1 L 321.0 296.1 L 321.0 294.9 " fill="#000000"/>
<path class="atom-9" d="M 361.0 442.6 L 363.5 442.6 L 363.5 450.5 L 373.1 450.5 L 373.1 442.6 L 375.6 442.6 L 375.6 461.3 L 373.1 461.3 L 373.1 452.7 L 363.5 452.7 L 363.5 461.3 L 361.0 461.3 L 361.0 442.6 " fill="#000000"/>
<path class="atom-10" d="M 361.0 288.7 L 363.5 288.7 L 363.5 296.7 L 373.1 296.7 L 373.1 288.7 L 375.6 288.7 L 375.6 307.4 L 373.1 307.4 L 373.1 298.8 L 363.5 298.8 L 363.5 307.4 L 361.0 307.4 L 361.0 288.7 " fill="#000000"/>
<path class="bond-0 atom-0 atom-1" d="M 541.2,395.0 L 582.6,323.3" style="fill:none;fill-rule:evenodd;stroke:#000000;stroke-width:2.0px;stroke-linecap:butt;stroke-linejoin:miter;stroke-opacity:1"/>
<path class="bond-1 atom-1 atom-2" d="M 582.6,323.3 L 685.7,323.3" style="fill:none;fill-rule:evenodd;stroke:#000000;stroke-width:2.0px;stroke-linecap:butt;stroke-linejoin:miter;stroke-opacity:1"/>
<path class="bond-1 atom-1 atom-2" d="M 591.5,338.7 L 676.7,338.7" style="fill:none;fill-rule:evenodd;stroke:#000000;stroke-width:2.0px;stroke-linecap:butt;stroke-linejoin:miter;stroke-opacity:1"/>
<path class="bond-2 atom-2 atom-3" d="M 685.7,323.3 L 737.2,412.6" style="fill:none;fill-rule:evenodd;stroke:#000000;stroke-width:2.0px;stroke-linecap:butt;stroke-linejoin:miter;stroke-opacity:1"/>
<path d="M 580.5,326.9 L 582.6,323.3 L 587.7,323.3" style="fill:none;stroke:#000000;stroke-width:2.0px;stroke-linecap:butt;stroke-linejoin:miter;stroke-miterlimit:10;stroke-opacity:1;"/>
<path d="M 680.5,323.3 L 685.7,323.3 L 688.2,327.7" style="fill:none;stroke:#000000;stroke-width:2.0px;stroke-linecap:butt;stroke-linejoin:miter;stroke-miterlimit:10;stroke-opacity:1;"/>
<path class="atom-0" d="M 524.8 398.4 L 534.0 413.4 Q 535.0 414.9, 536.4 417.6 Q 537.9 420.2, 538.0 420.4 L 538.0 398.4 L 541.8 398.4 L 541.8 426.7 L 537.9 426.7 L 527.9 410.3 Q 526.8 408.4, 525.5 406.2 Q 524.3 404.0, 524.0 403.3 L 524.0 426.7 L 520.3 426.7 L 520.3 398.4 L 524.8 398.4 " fill="#000000"/>
<path class="atom-0" d="M 547.1 403.5 L 552.1 403.5 L 552.1 398.3 L 554.3 398.3 L 554.3 403.5 L 559.4 403.5 L 559.4 405.4 L 554.3 405.4 L 554.3 410.7 L 552.1 410.7 L 552.1 405.4 L 547.1 405.4 L 547.1 403.5 " fill="#000000"/>
<path class="atom-0" d="M 516.3,402.9 L 516.3,403.1 L 516.3,403.3 L 516.2,403.4 L 516.2,403.6 L 516.1,403.8 L 516.0,403.9 L 515.9,404.1 L 515.8,404.2 L 515.7,404.3 L 515.6,404.4 L 515.5,404.5 L 515.3,404.6 L 515.2,404.7 L 515.0,404.8 L 514.8,404.8 L 514.7,404.9 L 514.5,404.9 L 514.3,404.9 L 514.2,404.9 L 514.0,404.9 L 513.8,404.9 L 513.6,404.8 L 513.5,404.8 L 513.3,404.7 L 513.2,404.6 L 513.0,404.5 L 512.9,404.4 L 512.8,404.3 L 512.7,404.1 L 512.6,404.0 L 512.5,403.8 L 512.4,403.7 L 512.4,403.5 L 512.3,403.4 L 512.3,403.2 L 512.3,403.0 L 512.3,402.8 L 512.3,402.7 L 512.3,402.5 L 512.4,402.3 L 512.4,402.2 L 512.5,402.0 L 512.6,401.9 L 512.7,401.7 L 512.8,401.6 L 512.9,401.5 L 513.0,401.4 L 513.2,401.3 L 513.3,401.2 L 513.5,401.1 L 513.6,401.0 L 513.8,401.0 L 514.0,400.9 L 514.2,400.9 L 514.3,400.9 L 514.5,400.9 L 514.7,401.0 L 514.8,401.0 L 515.0,401.1 L 515.2,401.1 L 515.3,401.2 L 515.5,401.3 L 515.6,401.4 L 515.7,401.5 L 515.8,401.7 L 515.9,401.8 L 516.0,401.9 L 516.1,402.1 L 516.2,402.2 L 516.2,402.4 L 516.3,402.6 L 516.3,402.8 L 516.3,402.9 L 514.3,402.9 Z" style="fill:#000000;fill-rule:evenodd;fill-opacity:1;stroke:#000000;stroke-width:0.0px;stroke-linecap:butt;stroke-linejoin:miter;stroke-miterlimit:10;stroke-opacity:1;"/>
<path class="atom-0" d="M 516.3,422.2 L 516.3,422.4 L 516.3,422.5 L 516.2,422.7 L 516.2,422.9 L 516.1,423.0 L 516.0,423.2 L 515.9,423.3 L 515.8,423.5 L 515.7,423.6 L 515.6,423.7 L 515.5,423.8 L 515.3,423.9 L 515.2,424.0 L 515.0,424.1 L 514.8,424.1 L 514.7,424.2 L 514.5,424.2 L 514.3,424.2 L 514.2,424.2 L 514.0,424.2 L 513.8,424.1 L 513.6,424.1 L 513.5,424.0 L 513.3,424.0 L 513.2,423.9 L 513.0,423.8 L 512.9,423.7 L 512.8,423.5 L 512.7,423.4 L 512.6,423.3 L 512.5,423.1 L 512.4,423.0 L 512.4,422.8 L 512.3,422.6 L 512.3,422.5 L 512.3,422.3 L 512.3,422.1 L 512.3,421.9 L 512.3,421.8 L 512.4,421.6 L 512.4,421.4 L 512.5,421.3 L 512.6,421.1 L 512.7,421.0 L 512.8,420.9 L 512.9,420.7 L 513.0,420.6 L 513.2,420.5 L 513.3,420.4 L 513.5,420.4 L 513.6,420.3 L 513.8,420.3 L 514.0,420.2 L 514.2,420.2 L 514.3,420.2 L 514.5,420.2 L 514.7,420.2 L 514.8,420.3 L 515.0,420.3 L 515.2,420.4 L 515.3,420.5 L 515.5,420.6 L 515.6,420.7 L 515.7,420.8 L 515.8,420.9 L 515.9,421.1 L 516.0,421.2 L 516.1,421.4 L 516.2,421.5 L 516.2,421.7 L 516.3,421.9 L 516.3,422.0 L 516.3,422.2 L 514.3,422.2 Z" style="fill:#000000;fill-rule:evenodd;fill-opacity:1;stroke:#000000;stroke-width:0.0px;stroke-linecap:butt;stroke-linejoin:miter;stroke-miterlimit:10;stroke-opacity:1;"/>
<path class="atom-0" d="M 516.3,412.6 L 516.3,412.7 L 516.3,412.9 L 516.2,413.1 L 516.2,413.2 L 516.1,413.4 L 516.0,413.6 L 515.9,413.7 L 515.8,413.8 L 515.7,414.0 L 515.6,414.1 L 515.5,414.2 L 515.3,414.3 L 515.2,414.4 L 515.0,414.4 L 514.8,414.5 L 514.7,414.5 L 514.5,414.6 L 514.3,414.6 L 514.2,414.6 L 514.0,414.5 L 513.8,414.5 L 513.6,414.5 L 513.5,414.4 L 513.3,414.3 L 513.2,414.2 L 513.0,414.1 L 512.9,414.0 L 512.8,413.9 L 512.7,413.8 L 512.6,413.6 L 512.5,413.5 L 512.4,413.3 L 512.4,413.2 L 512.3,413.0 L 512.3,412.8 L 512.3,412.6 L 512.3,412.5 L 512.3,412.3 L 512.3,412.1 L 512.4,412.0 L 512.4,411.8 L 512.5,411.7 L 512.6,411.5 L 512.7,411.4 L 512.8,411.2 L 512.9,411.1 L 513.0,411.0 L 513.2,410.9 L 513.3,410.8 L 513.5,410.7 L 513.6,410.7 L 513.8,410.6 L 514.0,410.6 L 514.2,410.6 L 514.3,410.6 L 514.5,410.6 L 514.7,410.6 L 514.8,410.6 L 515.0,410.7 L 515.2,410.8 L 515.3,410.8 L 515.5,410.9 L 515.6,411.0 L 515.7,411.2 L 515.8,411.3 L 515.9,411.4 L 516.0,411.6 L 516.1,411.7 L 516.2,411.9 L 516.2,412.1 L 516.3,412.2 L 516.3,412.4 L 516.3,412.6 L 514.3,412.6 Z" style="fill:#000000;fill-rule:evenodd;fill-opacity:1;stroke:#000000;stroke-width:0.0px;stroke-linecap:butt;stroke-linejoin:miter;stroke-miterlimit:10;stroke-opacity:1;"/>
<path class="bond-0 atom-0 atom-1" d="M 196.6,617.7 L 183.9,627.8" style="fill:none;fill-rule:evenodd;stroke:#000000;stroke-width:2.0px;stroke-linecap:butt;stroke-linejoin:miter;stroke-opacity:1"/>
<path class="bond-1 atom-1 atom-2" d="M 183.9,627.8 L 165.9,620.6" style="fill:none;fill-rule:evenodd;stroke:#000000;stroke-width:2.0px;stroke-linecap:butt;stroke-linejoin:miter;stroke-opacity:1"/>
<path class="bond-2 atom-2 atom-3" d="M 167.4,621.3 L 165.0,604.8" style="fill:none;fill-rule:evenodd;stroke:#000000;stroke-width:2.0px;stroke-linecap:butt;stroke-linejoin:miter;stroke-opacity:1"/>
<path class="bond-2 atom-2 atom-3" d="M 164.6,621.7 L 162.2,605.2" style="fill:none;fill-rule:evenodd;stroke:#000000;stroke-width:2.0px;stroke-linecap:butt;stroke-linejoin:miter;stroke-opacity:1"/>
<path class="bond-3 atom-2 atom-4" d="M 165.9,620.6 L 153.4,630.5" style="fill:none;fill-rule:evenodd;stroke:#000000;stroke-width:2.0px;stroke-linecap:butt;stroke-linejoin:miter;stroke-opacity:1"/>
<path class="bond-4 atom-4 atom-5" d="M 148.0,631.5 L 132.7,625.5" style="fill:none;fill-rule:evenodd;stroke:#000000;stroke-width:2.0px;stroke-linecap:butt;stroke-linejoin:miter;stroke-opacity:1"/>
<path class="bond-5 atom-5 atom-6" d="M 132.7,625.5 L 117.5,637.4" style="fill:none;fill-rule:evenodd;stroke:#000000;stroke-width:2.0px;stroke-linecap:butt;stroke-linejoin:miter;stroke-opacity:1"/>
<path class="bond-6 atom-6 atom-7" d="M 117.5,637.4 L 99.6,630.3" style="fill:none;fill-rule:evenodd;stroke:#000000;stroke-width:2.0px;stroke-linecap:butt;stroke-linejoin:miter;stroke-opacity:1"/>
<path class="bond-7 atom-7 atom-8" d="M 99.6,630.3 L 87.1,640.1" style="fill:none;fill-rule:evenodd;stroke:#000000;stroke-width:2.0px;stroke-linecap:butt;stroke-linejoin:miter;stroke-opacity:1"/>
<path class="bond-8 atom-8 atom-9" d="M 81.7,641.2 L 68.8,636.1" style="fill:none;fill-rule:evenodd;stroke:#000000;stroke-width:2.0px;stroke-linecap:butt;stroke-linejoin:miter;stroke-opacity:1"/>
<path class="bond-9 atom-9 atom-10" d="M 63.7,638.1 L 59.3,649.1" style="fill:none;fill-rule:evenodd;stroke:#000000;stroke-width:2.0px;stroke-linecap:butt;stroke-linejoin:miter;stroke-opacity:1"/>
<path class="bond-9 atom-9 atom-10" d="M 66.4,639.2 L 62.0,650.2" style="fill:none;fill-rule:evenodd;stroke:#000000;stroke-width:2.0px;stroke-linecap:butt;stroke-linejoin:miter;stroke-opacity:1"/>
<path class="bond-10 atom-9 atom-11" d="M 69.1,632.3 L 73.5,621.2" style="fill:none;fill-rule:evenodd;stroke:#000000;stroke-width:2.0px;stroke-linecap:butt;stroke-linejoin:miter;stroke-opacity:1"/>
<path class="bond-10 atom-9 atom-11" d="M 66.4,631.2 L 70.8,620.1" style="fill:none;fill-rule:evenodd;stroke:#000000;stroke-width:2.0px;stroke-linecap:butt;stroke-linejoin:miter;stroke-opacity:1"/>
<path class="bond-11 atom-9 atom-12" d="M 64.0,634.1 L 48.4,627.9" style="fill:none;fill-rule:evenodd;stroke:#000000;stroke-width:2.0px;stroke-linecap:butt;stroke-linejoin:miter;stroke-opacity:1"/>
<path class="bond-12 atom-12 atom-13" d="M 48.4,627.9 L 33.3,639.9" style="fill:none;fill-rule:evenodd;stroke:#000000;stroke-width:2.0px;stroke-linecap:butt;stroke-linejoin:miter;stroke-opacity:1"/>
<path class="bond-12 atom-12 atom-13" d="M 45.3,626.7 L 32.8,636.6" style="fill:none;fill-rule:evenodd;stroke:#000000;stroke-width:2.0px;stroke-linecap:butt;stroke-linejoin:miter;stroke-opacity:1"/>
<path class="bond-13 atom-13 atom-14" d="M 33.3,639.9 L 15.3,632.8" style="fill:none;fill-rule:evenodd;stroke:#000000;stroke-width:2.0px;stroke-linecap:butt;stroke-linejoin:miter;stroke-opacity:1"/>
<path class="bond-14 atom-14 atom-15" d="M 15.3,632.8 L 12.5,613.6" style="fill:none;fill-rule:evenodd;stroke:#000000;stroke-width:2.0px;stroke-linecap:butt;stroke-linejoin:miter;stroke-opacity:1"/>
<path class="bond-14 atom-14 atom-15" d="M 17.9,630.7 L 15.6,614.9" style="fill:none;fill-rule:evenodd;stroke:#000000;stroke-width:2.0px;stroke-linecap:butt;stroke-linejoin:miter;stroke-opacity:1"/>
<path class="bond-15 atom-15 atom-16" d="M 12.5,613.6 L 27.7,601.6" style="fill:none;fill-rule:evenodd;stroke:#000000;stroke-width:2.0px;stroke-linecap:butt;stroke-linejoin:miter;stroke-opacity:1"/>
<path class="bond-16 atom-16 atom-17" d="M 27.7,601.6 L 45.7,608.8" style="fill:none;fill-rule:evenodd;stroke:#000000;stroke-width:2.0px;stroke-linecap:butt;stroke-linejoin:miter;stroke-opacity:1"/>
<path class="bond-16 atom-16 atom-17" d="M 28.2,604.9 L 43.0,610.9" style="fill:none;fill-rule:evenodd;stroke:#000000;stroke-width:2.0px;stroke-linecap:butt;stroke-linejoin:miter;stroke-opacity:1"/>
<path class="bond-17 atom-17 atom-18" d="M 45.7,608.8 L 58.6,598.6" style="fill:none;fill-rule:evenodd;stroke:#000000;stroke-width:2.0px;stroke-linecap:butt;stroke-linejoin:miter;stroke-opacity:1"/>
<path class="bond-18 atom-0 atom-19" d="M 202.0,615.4 L 214.8,620.5" style="fill:none;fill-rule:evenodd;stroke:#000000;stroke-width:2.0px;stroke-linecap:butt;stroke-linejoin:miter;stroke-opacity:1"/>
<path class="bond-18 atom-0 atom-19" d="M 200.9,618.1 L 213.7,623.2" style="fill:none;fill-rule:evenodd;stroke:#000000;stroke-width:2.0px;stroke-linecap:butt;stroke-linejoin:miter;stroke-opacity:1"/>
<path class="bond-19 atom-19 atom-20" d="M 220.3,622.7 L 232.4,627.5" style="fill:none;fill-rule:evenodd;stroke:#000000;stroke-width:2.0px;stroke-linecap:butt;stroke-linejoin:miter;stroke-opacity:1"/>
<path class="bond-19 atom-19 atom-20" d="M 219.2,625.4 L 231.3,630.2" style="fill:none;fill-rule:evenodd;stroke:#000000;stroke-width:2.0px;stroke-linecap:butt;stroke-linejoin:miter;stroke-opacity:1"/>
<path class="bond-20 atom-17 atom-12" d="M 45.7,608.8 L 48.4,627.9" style="fill:none;fill-rule:evenodd;stroke:#000000;stroke-width:2.0px;stroke-linecap:butt;stroke-linejoin:miter;stroke-opacity:1"/>
<path d="M 184.5,627.3 L 183.9,627.8 L 183.0,627.4" style="fill:none;stroke:#000000;stroke-width:2.0px;stroke-linecap:butt;stroke-linejoin:miter;stroke-miterlimit:10;stroke-opacity:1;"/>
<path d="M 166.8,621.0 L 165.9,620.6 L 165.3,621.1" style="fill:none;stroke:#000000;stroke-width:2.0px;stroke-linecap:butt;stroke-linejoin:miter;stroke-miterlimit:10;stroke-opacity:1;"/>
<path d="M 133.5,625.8 L 132.7,625.5 L 132.0,626.1" style="fill:none;stroke:#000000;stroke-width:2.0px;stroke-linecap:butt;stroke-linejoin:miter;stroke-miterlimit:10;stroke-opacity:1;"/>
<path d="M 118.3,636.8 L 117.5,637.4 L 116.6,637.1" style="fill:none;stroke:#000000;stroke-width:2.0px;stroke-linecap:butt;stroke-linejoin:miter;stroke-miterlimit:10;stroke-opacity:1;"/>
<path d="M 100.5,630.6 L 99.6,630.3 L 98.9,630.8" style="fill:none;stroke:#000000;stroke-width:2.0px;stroke-linecap:butt;stroke-linejoin:miter;stroke-miterlimit:10;stroke-opacity:1;"/>
<path d="M 34.0,639.3 L 33.3,639.9 L 32.4,639.6" style="fill:none;stroke:#000000;stroke-width:2.0px;stroke-linecap:butt;stroke-linejoin:miter;stroke-miterlimit:10;stroke-opacity:1;"/>
<path d="M 16.2,633.1 L 15.3,632.8 L 15.1,631.8" style="fill:none;stroke:#000000;stroke-width:2.0px;stroke-linecap:butt;stroke-linejoin:miter;stroke-miterlimit:10;stroke-opacity:1;"/>
<path d="M 12.6,614.6 L 12.5,613.6 L 13.3,613.0" style="fill:none;stroke:#000000;stroke-width:2.0px;stroke-linecap:butt;stroke-linejoin:miter;stroke-miterlimit:10;stroke-opacity:1;"/>
<path d="M 26.9,602.2 L 27.7,601.6 L 28.6,602.0" style="fill:none;stroke:#000000;stroke-width:2.0px;stroke-linecap:butt;stroke-linejoin:miter;stroke-miterlimit:10;stroke-opacity:1;"/>
<path class="atom-0" d="M 197.5 617.7 Q 197.6 617.7, 197.8 617.8 Q 198.1 617.9, 198.3 618.0 Q 198.6 618.1, 198.9 618.1 Q 199.4 618.1, 199.7 617.8 Q 200.0 617.6, 200.0 617.1 Q 200.0 616.8, 199.9 616.6 Q 199.7 616.5, 199.5 616.4 Q 199.3 616.3, 198.9 616.1 Q 198.4 616.0, 198.1 615.8 Q 197.8 615.7, 197.6 615.4 Q 197.4 615.1, 197.4 614.6 Q 197.4 613.9, 197.9 613.5 Q 198.3 613.1, 199.3 613.1 Q 199.9 613.1, 200.6 613.4 L 200.4 614.0 Q 199.8 613.7, 199.3 613.7 Q 198.8 613.7, 198.5 613.9 Q 198.2 614.2, 198.2 614.5 Q 198.2 614.8, 198.3 615.0 Q 198.5 615.2, 198.7 615.3 Q 198.9 615.4, 199.3 615.5 Q 199.8 615.7, 200.1 615.8 Q 200.4 616.0, 200.6 616.3 Q 200.8 616.6, 200.8 617.1 Q 200.8 617.9, 200.3 618.3 Q 199.8 618.7, 198.9 618.7 Q 198.5 618.7, 198.1 618.6 Q 197.7 618.5, 197.3 618.3 L 197.5 617.7 " fill="#000000"/>
<path class="atom-3" d="M 160.6 601.5 Q 160.6 600.2, 161.2 599.5 Q 161.9 598.7, 163.1 598.7 Q 164.3 598.7, 165.0 599.5 Q 165.6 600.2, 165.6 601.5 Q 165.6 602.8, 165.0 603.6 Q 164.3 604.4, 163.1 604.4 Q 161.9 604.4, 161.2 603.6 Q 160.6 602.8, 160.6 601.5 M 163.1 603.7 Q 163.9 603.7, 164.4 603.2 Q 164.8 602.6, 164.8 601.5 Q 164.8 600.4, 164.4 599.9 Q 163.9 599.3, 163.1 599.3 Q 162.3 599.3, 161.8 599.9 Q 161.4 600.4, 161.4 601.5 Q 161.4 602.6, 161.8 603.2 Q 162.3 603.7, 163.1 603.7 " fill="#000000"/>
<path class="atom-4" d="M 149.5 629.9 L 151.3 632.8 Q 151.5 633.1, 151.7 633.6 Q 152.0 634.1, 152.0 634.1 L 152.0 629.9 L 152.8 629.9 L 152.8 635.4 L 152.0 635.4 L 150.1 632.2 Q 149.9 631.8, 149.6 631.4 Q 149.4 631.0, 149.3 630.8 L 149.3 635.4 L 148.6 635.4 L 148.6 629.9 L 149.5 629.9 " fill="#000000"/>
<path class="atom-4" d="M 148.6 635.9 L 149.3 635.9 L 149.3 638.2 L 152.1 638.2 L 152.1 635.9 L 152.8 635.9 L 152.8 641.4 L 152.1 641.4 L 152.1 638.9 L 149.3 638.9 L 149.3 641.4 L 148.6 641.4 L 148.6 635.9 " fill="#000000"/>
<path class="atom-8" d="M 83.2 639.5 L 85.0 642.4 Q 85.1 642.7, 85.4 643.2 Q 85.7 643.7, 85.7 643.8 L 85.7 639.5 L 86.5 639.5 L 86.5 645.0 L 85.7 645.0 L 83.8 641.8 Q 83.6 641.5, 83.3 641.0 Q 83.1 640.6, 83.0 640.5 L 83.0 645.0 L 82.3 645.0 L 82.3 639.5 L 83.2 639.5 " fill="#000000"/>
<path class="atom-8" d="M 82.2 645.5 L 83.0 645.5 L 83.0 647.9 L 85.8 647.9 L 85.8 645.5 L 86.5 645.5 L 86.5 651.0 L 85.8 651.0 L 85.8 648.5 L 83.0 648.5 L 83.0 651.0 L 82.2 651.0 L 82.2 645.5 " fill="#000000"/>
<path class="atom-9" d="M 64.9 637.0 Q 64.9 637.0, 65.2 637.1 Q 65.4 637.2, 65.7 637.3 Q 66.0 637.4, 66.3 637.4 Q 66.8 637.4, 67.1 637.1 Q 67.4 636.8, 67.4 636.4 Q 67.4 636.1, 67.2 635.9 Q 67.1 635.7, 66.9 635.6 Q 66.6 635.5, 66.2 635.4 Q 65.8 635.3, 65.5 635.1 Q 65.2 635.0, 65.0 634.7 Q 64.8 634.4, 64.8 633.9 Q 64.8 633.2, 65.2 632.8 Q 65.7 632.4, 66.6 632.4 Q 67.3 632.4, 68.0 632.7 L 67.8 633.3 Q 67.2 633.0, 66.7 633.0 Q 66.1 633.0, 65.8 633.2 Q 65.5 633.4, 65.5 633.8 Q 65.5 634.1, 65.7 634.3 Q 65.8 634.5, 66.1 634.6 Q 66.3 634.7, 66.7 634.8 Q 67.2 634.9, 67.4 635.1 Q 67.7 635.2, 68.0 635.6 Q 68.2 635.9, 68.2 636.4 Q 68.2 637.2, 67.7 637.6 Q 67.2 638.0, 66.3 638.0 Q 65.8 638.0, 65.5 637.9 Q 65.1 637.8, 64.7 637.6 L 64.9 637.0 " fill="#000000"/>
<path class="atom-10" d="M 56.7 653.1 Q 56.7 651.8, 57.4 651.0 Q 58.0 650.3, 59.3 650.3 Q 60.5 650.3, 61.1 651.0 Q 61.8 651.8, 61.8 653.1 Q 61.8 654.4, 61.1 655.2 Q 60.4 655.9, 59.3 655.9 Q 58.0 655.9, 57.4 655.2 Q 56.7 654.4, 56.7 653.1 M 59.3 655.3 Q 60.1 655.3, 60.5 654.8 Q 61.0 654.2, 61.0 653.1 Q 61.0 652.0, 60.5 651.5 Q 60.1 650.9, 59.3 650.9 Q 58.4 650.9, 58.0 651.5 Q 57.5 652.0, 57.5 653.1 Q 57.5 654.2, 58.0 654.8 Q 58.4 655.3, 59.3 655.3 " fill="#000000"/>
<path class="atom-11" d="M 71.1 617.1 Q 71.1 615.8, 71.7 615.1 Q 72.4 614.4, 73.6 614.4 Q 74.8 614.4, 75.4 615.1 Q 76.1 615.8, 76.1 617.1 Q 76.1 618.5, 75.4 619.2 Q 74.8 620.0, 73.6 620.0 Q 72.4 620.0, 71.7 619.2 Q 71.1 618.5, 71.1 617.1 M 73.6 619.4 Q 74.4 619.4, 74.9 618.8 Q 75.3 618.2, 75.3 617.1 Q 75.3 616.1, 74.9 615.5 Q 74.4 615.0, 73.6 615.0 Q 72.7 615.0, 72.3 615.5 Q 71.8 616.1, 71.8 617.1 Q 71.8 618.3, 72.3 618.8 Q 72.7 619.4, 73.6 619.4 " fill="#000000"/>
<path class="atom-18" d="M 59.2 594.1 L 62.5 594.1 L 62.5 594.7 L 60.0 594.7 L 60.0 596.4 L 62.2 596.4 L 62.2 597.0 L 60.0 597.0 L 60.0 599.6 L 59.2 599.6 L 59.2 594.1 " fill="#000000"/>
<path class="atom-19" d="M 214.9 623.0 Q 214.9 621.6, 215.5 620.9 Q 216.2 620.2, 217.4 620.2 Q 218.5 620.2, 219.1 621.0 L 218.6 621.4 Q 218.2 620.8, 217.4 620.8 Q 216.6 620.8, 216.1 621.4 Q 215.7 622.0, 215.7 623.0 Q 215.7 624.1, 216.1 624.6 Q 216.6 625.2, 217.5 625.2 Q 218.1 625.2, 218.8 624.8 L 219.0 625.4 Q 218.7 625.6, 218.3 625.7 Q 217.9 625.8, 217.4 625.8 Q 216.2 625.8, 215.5 625.1 Q 214.9 624.4, 214.9 623.0 " fill="#000000"/>
<path class="atom-20" d="M 232.5 630.2 Q 232.5 628.8, 233.1 628.1 Q 233.8 627.4, 235.0 627.4 Q 236.2 627.4, 236.9 628.1 Q 237.5 628.8, 237.5 630.2 Q 237.5 631.5, 236.8 632.2 Q 236.2 633.0, 235.0 633.0 Q 233.8 633.0, 233.1 632.2 Q 232.5 631.5, 232.5 630.2 M 235.0 632.4 Q 235.8 632.4, 236.3 631.8 Q 236.7 631.3, 236.7 630.2 Q 236.7 629.1, 236.3 628.5 Q 235.8 628.0, 235.0 628.0 Q 234.1 628.0, 233.7 628.5 Q 233.2 629.1, 233.2 630.2 Q 233.2 631.3, 233.7 631.8 Q 234.1 632.4, 235.0 632.4 " fill="#000000"/>
<path class="atom-0" d="M 196.5,615.8 L 196.5,615.9 L 196.5,615.9 L 196.5,615.9 L 196.5,615.9 L 196.5,616.0 L 196.5,616.0 L 196.4,616.0 L 196.4,616.1 L 196.4,616.1 L 196.4,616.1 L 196.4,616.1 L 196.3,616.2 L 196.3,616.2 L 196.3,616.2 L 196.2,616.2 L 196.2,616.2 L 196.2,616.2 L 196.1,616.2 L 196.1,616.2 L 196.1,616.2 L 196.0,616.2 L 196.0,616.2 L 196.0,616.2 L 195.9,616.2 L 195.9,616.1 L 195.9,616.1 L 195.9,616.1 L 195.8,616.1 L 195.8,616.1 L 195.8,616.0 L 195.8,616.0 L 195.8,616.0 L 195.8,615.9 L 195.7,615.9 L 195.7,615.9 L 195.7,615.8 L 195.7,615.8 L 195.7,615.8 L 195.7,615.7 L 195.8,615.7 L 195.8,615.7 L 195.8,615.6 L 195.8,615.6 L 195.8,615.6 L 195.8,615.6 L 195.9,615.5 L 195.9,615.5 L 195.9,615.5 L 195.9,615.5 L 196.0,615.5 L 196.0,615.5 L 196.0,615.4 L 196.1,615.4 L 196.1,615.4 L 196.1,615.4 L 196.2,615.4 L 196.2,615.4 L 196.2,615.4 L 196.3,615.5 L 196.3,615.5 L 196.3,615.5 L 196.4,615.5 L 196.4,615.5 L 196.4,615.5 L 196.4,615.6 L 196.4,615.6 L 196.5,615.6 L 196.5,615.7 L 196.5,615.7 L 196.5,615.7 L 196.5,615.8 L 196.5,615.8 L 196.5,615.8 L 196.1,615.8 Z" style="fill:#000000;fill-rule:evenodd;fill-opacity:1;stroke:#000000;stroke-width:0.0px;stroke-linecap:butt;stroke-linejoin:miter;stroke-miterlimit:10;stroke-opacity:1;"/>
<path class="bond-0 atom-0 atom-1" d="M 326.7,624.8 L 430.2,624.8" style="fill:none;fill-rule:evenodd;stroke:#000000;stroke-width:2.0px;stroke-linecap:butt;stroke-linejoin:miter;stroke-opacity:1"/>
<path class="atom-0" d="M 286.9 610.6 L 296.2 625.6 Q 297.1 627.1, 298.6 629.8 Q 300.1 632.5, 300.1 632.6 L 300.1 610.6 L 303.9 610.6 L 303.9 638.9 L 300.0 638.9 L 290.1 622.5 Q 288.9 620.6, 287.7 618.4 Q 286.5 616.2, 286.1 615.5 L 286.1 638.9 L 282.4 638.9 L 282.4 610.6 L 286.9 610.6 " fill="#000000"/>
<path class="atom-0" d="M 309.2 615.7 L 314.2 615.7 L 314.2 610.5 L 316.4 610.5 L 316.4 615.7 L 321.5 615.7 L 321.5 617.6 L 316.4 617.6 L 316.4 622.9 L 314.2 622.9 L 314.2 617.6 L 309.2 617.6 L 309.2 615.7 " fill="#000000"/>
<path class="atom-1" d="M 435.4 624.9 Q 435.4 618.1, 438.7 614.3 Q 442.1 610.5, 448.4 610.5 Q 454.6 610.5, 458.0 614.3 Q 461.4 618.1, 461.4 624.9 Q 461.4 631.7, 458.0 635.7 Q 454.6 639.5, 448.4 639.5 Q 442.1 639.5, 438.7 635.7 Q 435.4 631.8, 435.4 624.9 M 448.4 636.3 Q 452.7 636.3, 455.0 633.5 Q 457.4 630.5, 457.4 624.9 Q 457.4 619.3, 455.0 616.5 Q 452.7 613.7, 448.4 613.7 Q 444.0 613.7, 441.7 616.5 Q 439.4 619.3, 439.4 624.9 Q 439.4 630.6, 441.7 633.5 Q 444.0 636.3, 448.4 636.3 " fill="#000000"/>
<path class="atom-1" d="M 465.4 615.1 L 475.1 615.1 L 475.1 617.2 L 465.4 617.2 L 465.4 615.1 " fill="#000000"/>
<path class="atom-0" d="M 278.4,619.0 L 278.4,619.2 L 278.4,619.4 L 278.3,619.6 L 278.3,619.7 L 278.2,619.9 L 278.2,620.0 L 278.1,620.2 L 278.0,620.3 L 277.8,620.4 L 277.7,620.6 L 277.6,620.7 L 277.4,620.8 L 277.3,620.8 L 277.1,620.9 L 277.0,621.0 L 276.8,621.0 L 276.6,621.0 L 276.5,621.0 L 276.3,621.0 L 276.1,621.0 L 275.9,621.0 L 275.8,620.9 L 275.6,620.9 L 275.5,620.8 L 275.3,620.7 L 275.2,620.6 L 275.0,620.5 L 274.9,620.4 L 274.8,620.3 L 274.7,620.1 L 274.6,620.0 L 274.6,619.8 L 274.5,619.6 L 274.5,619.5 L 274.4,619.3 L 274.4,619.1 L 274.4,619.0 L 274.4,618.8 L 274.5,618.6 L 274.5,618.5 L 274.6,618.3 L 274.6,618.1 L 274.7,618.0 L 274.8,617.8 L 274.9,617.7 L 275.0,617.6 L 275.2,617.5 L 275.3,617.4 L 275.5,617.3 L 275.6,617.2 L 275.8,617.2 L 275.9,617.1 L 276.1,617.1 L 276.3,617.1 L 276.5,617.0 L 276.6,617.1 L 276.8,617.1 L 277.0,617.1 L 277.1,617.2 L 277.3,617.2 L 277.4,617.3 L 277.6,617.4 L 277.7,617.5 L 277.8,617.6 L 278.0,617.8 L 278.1,617.9 L 278.2,618.1 L 278.2,618.2 L 278.3,618.4 L 278.3,618.5 L 278.4,618.7 L 278.4,618.9 L 278.4,619.0 L 276.4,619.0 Z" style="fill:#000000;fill-rule:evenodd;fill-opacity:1;stroke:#000000;stroke-width:0.0px;stroke-linecap:butt;stroke-linejoin:miter;stroke-miterlimit:10;stroke-opacity:1;"/>
<path class="atom-0" d="M 278.4,630.5 L 278.4,630.7 L 278.4,630.9 L 278.3,631.0 L 278.3,631.2 L 278.2,631.3 L 278.2,631.5 L 278.1,631.6 L 278.0,631.8 L 277.8,631.9 L 277.7,632.0 L 277.6,632.1 L 277.4,632.2 L 277.3,632.3 L 277.1,632.4 L 277.0,632.4 L 276.8,632.5 L 276.6,632.5 L 276.5,632.5 L 276.3,632.5 L 276.1,632.5 L 275.9,632.5 L 275.8,632.4 L 275.6,632.3 L 275.5,632.3 L 275.3,632.2 L 275.2,632.1 L 275.0,632.0 L 274.9,631.8 L 274.8,631.7 L 274.7,631.6 L 274.6,631.4 L 274.6,631.3 L 274.5,631.1 L 274.5,630.9 L 274.4,630.8 L 274.4,630.6 L 274.4,630.4 L 274.4,630.3 L 274.5,630.1 L 274.5,629.9 L 274.6,629.8 L 274.6,629.6 L 274.7,629.4 L 274.8,629.3 L 274.9,629.2 L 275.0,629.1 L 275.2,628.9 L 275.3,628.8 L 275.5,628.8 L 275.6,628.7 L 275.8,628.6 L 275.9,628.6 L 276.1,628.5 L 276.3,628.5 L 276.5,628.5 L 276.6,628.5 L 276.8,628.5 L 277.0,628.6 L 277.1,628.6 L 277.3,628.7 L 277.4,628.8 L 277.6,628.9 L 277.7,629.0 L 277.8,629.1 L 278.0,629.2 L 278.1,629.4 L 278.2,629.5 L 278.2,629.7 L 278.3,629.8 L 278.3,630.0 L 278.4,630.2 L 278.4,630.3 L 278.4,630.5 L 276.4,630.5 Z" style="fill:#000000;fill-rule:evenodd;fill-opacity:1;stroke:#000000;stroke-width:0.0px;stroke-linecap:butt;stroke-linejoin:miter;stroke-miterlimit:10;stroke-opacity:1;"/>
<path class="atom-0" d="M 278.4,624.8 L 278.4,625.0 L 278.4,625.1 L 278.3,625.3 L 278.3,625.5 L 278.2,625.6 L 278.2,625.8 L 278.1,625.9 L 278.0,626.1 L 277.8,626.2 L 277.7,626.3 L 277.6,626.4 L 277.4,626.5 L 277.3,626.6 L 277.1,626.6 L 277.0,626.7 L 276.8,626.7 L 276.6,626.8 L 276.5,626.8 L 276.3,626.8 L 276.1,626.8 L 275.9,626.7 L 275.8,626.7 L 275.6,626.6 L 275.5,626.5 L 275.3,626.5 L 275.2,626.4 L 275.0,626.2 L 274.9,626.1 L 274.8,626.0 L 274.7,625.8 L 274.6,625.7 L 274.6,625.5 L 274.5,625.4 L 274.5,625.2 L 274.4,625.0 L 274.4,624.9 L 274.4,624.7 L 274.4,624.5 L 274.5,624.4 L 274.5,624.2 L 274.6,624.0 L 274.6,623.9 L 274.7,623.7 L 274.8,623.6 L 274.9,623.4 L 275.0,623.3 L 275.2,623.2 L 275.3,623.1 L 275.5,623.0 L 275.6,622.9 L 275.8,622.9 L 275.9,622.8 L 276.1,622.8 L 276.3,622.8 L 276.5,622.8 L 276.6,622.8 L 276.8,622.8 L 277.0,622.9 L 277.1,622.9 L 277.3,623.0 L 277.4,623.1 L 277.6,623.2 L 277.7,623.3 L 277.8,623.4 L 278.0,623.5 L 278.1,623.6 L 278.2,623.8 L 278.2,623.9 L 278.3,624.1 L 278.3,624.3 L 278.4,624.4 L 278.4,624.6 L 278.4,624.8 L 276.4,624.8 Z" style="fill:#000000;fill-rule:evenodd;fill-opacity:1;stroke:#000000;stroke-width:0.0px;stroke-linecap:butt;stroke-linejoin:miter;stroke-miterlimit:10;stroke-opacity:1;"/>
<path class="bond-0 atom-0 atom-1" d="M 618.0,689.2 L 609.0,666.4" style="fill:none;fill-rule:evenodd;stroke:#000000;stroke-width:2.0px;stroke-linecap:butt;stroke-linejoin:miter;stroke-opacity:1"/>
<path class="bond-1 atom-1 atom-2" d="M 609.0,666.4 L 627.8,642.7" style="fill:none;fill-rule:evenodd;stroke:#000000;stroke-width:2.0px;stroke-linecap:butt;stroke-linejoin:miter;stroke-opacity:1"/>
<path class="bond-2 atom-2 atom-3" d="M 627.8,642.7 L 613.2,616.3" style="fill:none;fill-rule:evenodd;stroke:#000000;stroke-width:2.0px;stroke-linecap:butt;stroke-linejoin:miter;stroke-opacity:1"/>
<path class="bond-2 atom-2 atom-3" d="M 622.3,642.3 L 610.9,621.6" style="fill:none;fill-rule:evenodd;stroke:#000000;stroke-width:2.0px;stroke-linecap:butt;stroke-linejoin:miter;stroke-opacity:1"/>
<path class="bond-3 atom-3 atom-4" d="M 613.2,616.3 L 583.8,623.6" style="fill:none;fill-rule:evenodd;stroke:#000000;stroke-width:2.0px;stroke-linecap:butt;stroke-linejoin:miter;stroke-opacity:1"/>
<path class="bond-4 atom-4 atom-5" d="M 583.8,623.6 L 588.8,653.4" style="fill:none;fill-rule:evenodd;stroke:#000000;stroke-width:2.0px;stroke-linecap:butt;stroke-linejoin:miter;stroke-opacity:1"/>
<path class="bond-4 atom-4 atom-5" d="M 589.1,627.0 L 592.9,650.1" style="fill:none;fill-rule:evenodd;stroke:#000000;stroke-width:2.0px;stroke-linecap:butt;stroke-linejoin:miter;stroke-opacity:1"/>
<path class="bond-5 atom-5 atom-6" d="M 588.8,653.4 L 617.1,664.1" style="fill:none;fill-rule:evenodd;stroke:#000000;stroke-width:2.0px;stroke-linecap:butt;stroke-linejoin:miter;stroke-opacity:1"/>
<path class="bond-6 atom-6 atom-7" d="M 617.1,664.1 L 656.9,651.1" style="fill:none;fill-rule:evenodd;stroke:#000000;stroke-width:2.0px;stroke-linecap:butt;stroke-linejoin:miter;stroke-opacity:1"/>
<path class="bond-6 atom-6 atom-7" d="M 617.2,659.2 L 641.2,651.4" style="fill:none;fill-rule:evenodd;stroke:#000000;stroke-width:2.0px;stroke-linecap:butt;stroke-linejoin:miter;stroke-opacity:1"/>
<path class="bond-7 atom-7 atom-8" d="M 656.9,651.1 L 683.3,636.4" style="fill:none;fill-rule:evenodd;stroke:#000000;stroke-width:2.0px;stroke-linecap:butt;stroke-linejoin:miter;stroke-opacity:1"/>
<path class="bond-8 atom-8 atom-9" d="M 683.3,636.4 L 690.2,612.7" style="fill:none;fill-rule:evenodd;stroke:#000000;stroke-width:2.0px;stroke-linecap:butt;stroke-linejoin:miter;stroke-opacity:1"/>
<path class="bond-9 atom-9 atom-10" d="M 695.9,607.4 L 721.9,607.9" style="fill:none;fill-rule:evenodd;stroke:#000000;stroke-width:2.0px;stroke-linecap:butt;stroke-linejoin:miter;stroke-opacity:1"/>
<path class="bond-10 atom-10 atom-11" d="M 721.9,607.9 L 737.5,582.0" style="fill:none;fill-rule:evenodd;stroke:#000000;stroke-width:2.0px;stroke-linecap:butt;stroke-linejoin:miter;stroke-opacity:1"/>
<path class="bond-11 atom-11 atom-12" d="M 737.5,582.0 L 722.9,555.5" style="fill:none;fill-rule:evenodd;stroke:#000000;stroke-width:2.0px;stroke-linecap:butt;stroke-linejoin:miter;stroke-opacity:1"/>
<path class="bond-12 atom-12 atom-13" d="M 722.9,555.5 L 692.6,555.0" style="fill:none;fill-rule:evenodd;stroke:#000000;stroke-width:2.0px;stroke-linecap:butt;stroke-linejoin:miter;stroke-opacity:1"/>
<path class="bond-13 atom-13 atom-14" d="M 692.6,555.0 L 677.0,580.9" style="fill:none;fill-rule:evenodd;stroke:#000000;stroke-width:2.0px;stroke-linecap:butt;stroke-linejoin:miter;stroke-opacity:1"/>
<path class="bond-14 atom-14 atom-15" d="M 677.0,580.9 L 648.0,572.6" style="fill:none;fill-rule:evenodd;stroke:#000000;stroke-width:2.0px;stroke-linecap:butt;stroke-linejoin:miter;stroke-opacity:1"/>
<path class="bond-15 atom-15 atom-16" d="M 648.0,572.6 L 621.5,587.2" style="fill:none;fill-rule:evenodd;stroke:#000000;stroke-width:2.0px;stroke-linecap:butt;stroke-linejoin:miter;stroke-opacity:1"/>
<path class="bond-15 atom-15 atom-16" d="M 648.5,577.5 L 625.4,590.3" style="fill:none;fill-rule:evenodd;stroke:#000000;stroke-width:2.0px;stroke-linecap:butt;stroke-linejoin:miter;stroke-opacity:1"/>
<path class="bond-16 atom-16 atom-17" d="M 621.5,587.2 L 600.5,565.5" style="fill:none;fill-rule:evenodd;stroke:#000000;stroke-width:2.0px;stroke-linecap:butt;stroke-linejoin:miter;stroke-opacity:1"/>
<path class="bond-17 atom-17 atom-18" d="M 600.5,565.5 L 571.2,572.8" style="fill:none;fill-rule:evenodd;stroke:#000000;stroke-width:2.0px;stroke-linecap:butt;stroke-linejoin:miter;stroke-opacity:1"/>
<path class="bond-18 atom-18 atom-19" d="M 571.2,572.8 L 550.2,551.0" style="fill:none;fill-rule:evenodd;stroke:#000000;stroke-width:2.0px;stroke-linecap:butt;stroke-linejoin:miter;stroke-opacity:1"/>
<path class="bond-18 atom-18 atom-19" d="M 566.0,574.0 L 548.7,556.1" style="fill:none;fill-rule:evenodd;stroke:#000000;stroke-width:2.0px;stroke-linecap:butt;stroke-linejoin:miter;stroke-opacity:1"/>
<path class="bond-19 atom-19 atom-20" d="M 550.2,551.0 L 520.8,558.3" style="fill:none;fill-rule:evenodd;stroke:#000000;stroke-width:2.0px;stroke-linecap:butt;stroke-linejoin:miter;stroke-opacity:1"/>
<path class="bond-20 atom-20 atom-21" d="M 520.8,558.3 L 512.5,587.4" style="fill:none;fill-rule:evenodd;stroke:#000000;stroke-width:2.0px;stroke-linecap:butt;stroke-linejoin:miter;stroke-opacity:1"/>
<path class="bond-20 atom-20 atom-21" d="M 524.5,562.1 L 517.7,586.1" style="fill:none;fill-rule:evenodd;stroke:#000000;stroke-width:2.0px;stroke-linecap:butt;stroke-linejoin:miter;stroke-opacity:1"/>
<path class="bond-21 atom-21 atom-22" d="M 512.5,587.4 L 533.5,609.1" style="fill:none;fill-rule:evenodd;stroke:#000000;stroke-width:2.0px;stroke-linecap:butt;stroke-linejoin:miter;stroke-opacity:1"/>
<path class="bond-22 atom-22 atom-23" d="M 533.5,609.1 L 562.8,601.8" style="fill:none;fill-rule:evenodd;stroke:#000000;stroke-width:2.0px;stroke-linecap:butt;stroke-linejoin:miter;stroke-opacity:1"/>
<path class="bond-22 atom-22 atom-23" d="M 535.0,604.0 L 559.2,598.0" style="fill:none;fill-rule:evenodd;stroke:#000000;stroke-width:2.0px;stroke-linecap:butt;stroke-linejoin:miter;stroke-opacity:1"/>
<path class="bond-23 atom-7 atom-2" d="M 656.9,651.1 L 627.8,642.7" style="fill:none;fill-rule:evenodd;stroke:#000000;stroke-width:2.0px;stroke-linecap:butt;stroke-linejoin:miter;stroke-opacity:1"/>
<path class="bond-24 atom-16 atom-3" d="M 621.5,587.2 L 613.2,616.3" style="fill:none;fill-rule:evenodd;stroke:#000000;stroke-width:2.0px;stroke-linecap:butt;stroke-linejoin:miter;stroke-opacity:1"/>
<path class="bond-25 atom-23 atom-4" d="M 562.8,601.8 L 583.8,623.6" style="fill:none;fill-rule:evenodd;stroke:#000000;stroke-width:2.0px;stroke-linecap:butt;stroke-linejoin:miter;stroke-opacity:1"/>
<path class="bond-26 atom-14 atom-9" d="M 677.0,580.9 L 688.8,602.1" style="fill:none;fill-rule:evenodd;stroke:#000000;stroke-width:2.0px;stroke-linecap:butt;stroke-linejoin:miter;stroke-opacity:1"/>
<path class="bond-27 atom-23 atom-18" d="M 562.8,601.8 L 571.2,572.8" style="fill:none;fill-rule:evenodd;stroke:#000000;stroke-width:2.0px;stroke-linecap:butt;stroke-linejoin:miter;stroke-opacity:1"/>
<path d="M 609.4,667.5 L 609.0,666.4 L 609.9,665.2" style="fill:none;stroke:#000000;stroke-width:2.0px;stroke-linecap:butt;stroke-linejoin:miter;stroke-miterlimit:10;stroke-opacity:1;"/>
<path d="M 588.5,651.9 L 588.8,653.4 L 590.2,654.0" style="fill:none;stroke:#000000;stroke-width:2.0px;stroke-linecap:butt;stroke-linejoin:miter;stroke-miterlimit:10;stroke-opacity:1;"/>
<path d="M 615.6,663.5 L 617.1,664.1 L 619.0,663.4" style="fill:none;stroke:#000000;stroke-width:2.0px;stroke-linecap:butt;stroke-linejoin:miter;stroke-miterlimit:10;stroke-opacity:1;"/>
<path d="M 682.0,637.2 L 683.3,636.4 L 683.7,635.2" style="fill:none;stroke:#000000;stroke-width:2.0px;stroke-linecap:butt;stroke-linejoin:miter;stroke-miterlimit:10;stroke-opacity:1;"/>
<path d="M 720.6,607.9 L 721.9,607.9 L 722.7,606.6" style="fill:none;stroke:#000000;stroke-width:2.0px;stroke-linecap:butt;stroke-linejoin:miter;stroke-miterlimit:10;stroke-opacity:1;"/>
<path d="M 736.7,583.3 L 737.5,582.0 L 736.8,580.7" style="fill:none;stroke:#000000;stroke-width:2.0px;stroke-linecap:butt;stroke-linejoin:miter;stroke-miterlimit:10;stroke-opacity:1;"/>
<path d="M 723.6,556.9 L 722.9,555.5 L 721.3,555.5" style="fill:none;stroke:#000000;stroke-width:2.0px;stroke-linecap:butt;stroke-linejoin:miter;stroke-miterlimit:10;stroke-opacity:1;"/>
<path d="M 694.1,555.0 L 692.6,555.0 L 691.8,556.3" style="fill:none;stroke:#000000;stroke-width:2.0px;stroke-linecap:butt;stroke-linejoin:miter;stroke-miterlimit:10;stroke-opacity:1;"/>
<path d="M 649.4,573.0 L 648.0,572.6 L 646.7,573.3" style="fill:none;stroke:#000000;stroke-width:2.0px;stroke-linecap:butt;stroke-linejoin:miter;stroke-miterlimit:10;stroke-opacity:1;"/>
<path d="M 601.6,566.6 L 600.5,565.5 L 599.1,565.8" style="fill:none;stroke:#000000;stroke-width:2.0px;stroke-linecap:butt;stroke-linejoin:miter;stroke-miterlimit:10;stroke-opacity:1;"/>
<path d="M 551.2,552.1 L 550.2,551.0 L 548.7,551.4" style="fill:none;stroke:#000000;stroke-width:2.0px;stroke-linecap:butt;stroke-linejoin:miter;stroke-miterlimit:10;stroke-opacity:1;"/>
<path d="M 522.3,557.9 L 520.8,558.3 L 520.4,559.8" style="fill:none;stroke:#000000;stroke-width:2.0px;stroke-linecap:butt;stroke-linejoin:miter;stroke-miterlimit:10;stroke-opacity:1;"/>
<path d="M 512.9,585.9 L 512.5,587.4 L 513.5,588.5" style="fill:none;stroke:#000000;stroke-width:2.0px;stroke-linecap:butt;stroke-linejoin:miter;stroke-miterlimit:10;stroke-opacity:1;"/>
<path d="M 532.4,608.0 L 533.5,609.1 L 535.0,608.8" style="fill:none;stroke:#000000;stroke-width:2.0px;stroke-linecap:butt;stroke-linejoin:miter;stroke-miterlimit:10;stroke-opacity:1;"/>
<path class="atom-0" d="M 616.1 694.6 Q 616.1 692.5, 617.1 691.3 Q 618.2 690.2, 620.1 690.2 Q 622.0 690.2, 623.0 691.3 Q 624.0 692.5, 624.0 694.6 Q 624.0 696.6, 623.0 697.8 Q 621.9 699.0, 620.1 699.0 Q 618.2 699.0, 617.1 697.8 Q 616.1 696.6, 616.1 694.6 M 620.1 698.0 Q 621.4 698.0, 622.1 697.2 Q 622.8 696.3, 622.8 694.6 Q 622.8 692.9, 622.1 692.0 Q 621.4 691.2, 620.1 691.2 Q 618.8 691.2, 618.0 692.0 Q 617.3 692.9, 617.3 694.6 Q 617.3 696.3, 618.0 697.2 Q 618.8 698.0, 620.1 698.0 " fill="#000000"/>
<path class="atom-0" d="M 625.2 691.6 L 628.1 691.6 L 628.1 692.2 L 625.2 692.2 L 625.2 691.6 " fill="#000000"/>
<path class="atom-9" d="M 689.8 603.1 L 692.6 607.6 Q 692.9 608.1, 693.3 608.9 Q 693.8 609.7, 693.8 609.7 L 693.8 603.1 L 694.9 603.1 L 694.9 611.7 L 693.8 611.7 L 690.7 606.7 Q 690.4 606.1, 690.0 605.4 Q 689.7 604.8, 689.5 604.6 L 689.5 611.7 L 688.4 611.7 L 688.4 603.1 L 689.8 603.1 " fill="#000000"/>
</svg>