<svg xmlns="http://www.w3.org/2000/svg" xmlns:rdkit="http://www.rdkit.org/xml" xmlns:xlink="http://www.w3.org/1999/xlink" version="1.1" baseProfile="full" xml:space="preserve" width="750px" height="750px" viewBox="0 0 750 750">
<!-- END OF HEADER -->
<rect style="opacity:1.0;fill:#FFFFFF;stroke:none" width="250.0" height="250.0" x="0.0" y="0.0"> </rect>
<path class="bond-0 atom-0 atom-1" d="M 82.8,67.7 L 66.0,91.2" style="fill:none;fill-rule:evenodd;stroke:#000000;stroke-width:2.0px;stroke-linecap:butt;stroke-linejoin:miter;stroke-opacity:1"/>
<path class="bond-1 atom-1 atom-2" d="M 55.7,92.3 L 29.4,73.4" style="fill:none;fill-rule:evenodd;stroke:#000000;stroke-width:2.0px;stroke-linecap:butt;stroke-linejoin:miter;stroke-opacity:1"/>
<path class="bond-1 atom-1 atom-2" d="M 51.4,98.5 L 25.0,79.6" style="fill:none;fill-rule:evenodd;stroke:#000000;stroke-width:2.0px;stroke-linecap:butt;stroke-linejoin:miter;stroke-opacity:1"/>
<path class="bond-2 atom-1 atom-3" d="M 50.5,106.3 L 33.8,129.6" style="fill:none;fill-rule:evenodd;stroke:#000000;stroke-width:2.0px;stroke-linecap:butt;stroke-linejoin:miter;stroke-opacity:1"/>
<path class="bond-2 atom-1 atom-3" d="M 56.6,110.7 L 39.9,133.9" style="fill:none;fill-rule:evenodd;stroke:#000000;stroke-width:2.0px;stroke-linecap:butt;stroke-linejoin:miter;stroke-opacity:1"/>
<path class="bond-3 atom-1 atom-4" d="M 66.0,104.3 L 93.4,124.0" style="fill:none;fill-rule:evenodd;stroke:#000000;stroke-width:2.0px;stroke-linecap:butt;stroke-linejoin:miter;stroke-opacity:1"/>
<path class="bond-4 atom-4 atom-5" d="M 107.5,125.9 L 146.2,108.4" style="fill:none;fill-rule:evenodd;stroke:#000000;stroke-width:2.0px;stroke-linecap:butt;stroke-linejoin:miter;stroke-opacity:1"/>
<path class="bond-5 atom-5 atom-6" d="M 146.2,108.4 L 151.1,58.5" style="fill:none;fill-rule:evenodd;stroke:#000000;stroke-width:2.0px;stroke-linecap:butt;stroke-linejoin:miter;stroke-opacity:1"/>
<path class="bond-5 atom-5 atom-6" d="M 154.1,104.8 L 158.1,63.6" style="fill:none;fill-rule:evenodd;stroke:#000000;stroke-width:2.0px;stroke-linecap:butt;stroke-linejoin:miter;stroke-opacity:1"/>
<path class="bond-6 atom-6 atom-7" d="M 151.1,58.5 L 196.8,37.8" style="fill:none;fill-rule:evenodd;stroke:#000000;stroke-width:2.0px;stroke-linecap:butt;stroke-linejoin:miter;stroke-opacity:1"/>
<path class="bond-7 atom-7 atom-8" d="M 196.8,37.8 L 237.5,67.1" style="fill:none;fill-rule:evenodd;stroke:#000000;stroke-width:2.0px;stroke-linecap:butt;stroke-linejoin:miter;stroke-opacity:1"/>
<path class="bond-7 atom-7 atom-8" d="M 195.9,46.5 L 229.6,70.6" style="fill:none;fill-rule:evenodd;stroke:#000000;stroke-width:2.0px;stroke-linecap:butt;stroke-linejoin:miter;stroke-opacity:1"/>
<path class="bond-8 atom-8 atom-9" d="M 237.5,67.1 L 232.6,117.0" style="fill:none;fill-rule:evenodd;stroke:#000000;stroke-width:2.0px;stroke-linecap:butt;stroke-linejoin:miter;stroke-opacity:1"/>
<path class="bond-9 atom-9 atom-10" d="M 232.6,117.0 L 186.9,137.6" style="fill:none;fill-rule:evenodd;stroke:#000000;stroke-width:2.0px;stroke-linecap:butt;stroke-linejoin:miter;stroke-opacity:1"/>
<path class="bond-9 atom-9 atom-10" d="M 225.5,111.9 L 187.7,129.0" style="fill:none;fill-rule:evenodd;stroke:#000000;stroke-width:2.0px;stroke-linecap:butt;stroke-linejoin:miter;stroke-opacity:1"/>
<path class="bond-10 atom-10 atom-11" d="M 186.9,137.6 L 182.0,187.5" style="fill:none;fill-rule:evenodd;stroke:#000000;stroke-width:2.0px;stroke-linecap:butt;stroke-linejoin:miter;stroke-opacity:1"/>
<path class="bond-11 atom-11 atom-12" d="M 182.0,187.5 L 152.8,200.7" style="fill:none;fill-rule:evenodd;stroke:#000000;stroke-width:2.0px;stroke-linecap:butt;stroke-linejoin:miter;stroke-opacity:1"/>
<path class="bond-11 atom-11 atom-12" d="M 174.9,182.4 L 149.7,193.9" style="fill:none;fill-rule:evenodd;stroke:#000000;stroke-width:2.0px;stroke-linecap:butt;stroke-linejoin:miter;stroke-opacity:1"/>
<path class="bond-12 atom-10 atom-5" d="M 186.9,137.6 L 146.2,108.4" style="fill:none;fill-rule:evenodd;stroke:#000000;stroke-width:2.0px;stroke-linecap:butt;stroke-linejoin:miter;stroke-opacity:1"/>
<path d="M 150.8,61.0 L 151.1,58.5 L 153.4,57.5" style="fill:none;stroke:#000000;stroke-width:2.0px;stroke-linecap:butt;stroke-linejoin:miter;stroke-miterlimit:10;stroke-opacity:1;"/>
<path d="M 194.5,38.9 L 196.8,37.8 L 198.8,39.3" style="fill:none;stroke:#000000;stroke-width:2.0px;stroke-linecap:butt;stroke-linejoin:miter;stroke-miterlimit:10;stroke-opacity:1;"/>
<path d="M 235.5,65.6 L 237.5,67.1 L 237.3,69.6" style="fill:none;stroke:#000000;stroke-width:2.0px;stroke-linecap:butt;stroke-linejoin:miter;stroke-miterlimit:10;stroke-opacity:1;"/>
<path d="M 232.8,114.5 L 232.6,117.0 L 230.3,118.0" style="fill:none;stroke:#000000;stroke-width:2.0px;stroke-linecap:butt;stroke-linejoin:miter;stroke-miterlimit:10;stroke-opacity:1;"/>
<path d="M 182.2,185.0 L 182.0,187.5 L 180.5,188.2" style="fill:none;stroke:#000000;stroke-width:2.0px;stroke-linecap:butt;stroke-linejoin:miter;stroke-miterlimit:10;stroke-opacity:1;"/>
<path class="atom-0" d="M 88.6 52.0 Q 91.1 52.0, 92.3 53.1 Q 93.5 54.2, 93.5 56.2 Q 93.5 58.2, 92.2 59.3 Q 91.0 60.4, 88.6 60.4 L 86.4 60.4 L 86.4 66.2 L 84.4 66.2 L 84.4 52.0 L 88.6 52.0 M 88.6 58.8 Q 90.0 58.8, 90.8 58.1 Q 91.5 57.5, 91.5 56.2 Q 91.5 54.9, 90.8 54.3 Q 90.0 53.6, 88.6 53.6 L 86.4 53.6 L 86.4 58.8 L 88.6 58.8 " fill="#000000"/>
<path class="atom-0" d="M 95.4 52.0 L 97.4 52.0 L 97.4 58.1 L 104.6 58.1 L 104.6 52.0 L 106.5 52.0 L 106.5 66.2 L 104.6 66.2 L 104.6 59.7 L 97.4 59.7 L 97.4 66.2 L 95.4 66.2 L 95.4 52.0 " fill="#000000"/>
<path class="atom-0" d="M 109.3 65.7 Q 109.6 64.8, 110.4 64.3 Q 111.3 63.8, 112.4 63.8 Q 113.8 63.8, 114.6 64.6 Q 115.4 65.4, 115.4 66.7 Q 115.4 68.1, 114.4 69.4 Q 113.3 70.7, 111.2 72.3 L 115.6 72.3 L 115.6 73.3 L 109.2 73.3 L 109.2 72.4 Q 111.0 71.2, 112.0 70.3 Q 113.1 69.3, 113.6 68.5 Q 114.1 67.7, 114.1 66.8 Q 114.1 65.9, 113.6 65.4 Q 113.2 64.9, 112.4 64.9 Q 111.6 64.9, 111.1 65.2 Q 110.6 65.5, 110.3 66.2 L 109.3 65.7 " fill="#000000"/>
<path class="atom-1" d="M 55.7 104.7 Q 55.9 104.8, 56.6 105.1 Q 57.2 105.3, 57.9 105.5 Q 58.7 105.7, 59.4 105.7 Q 60.8 105.7, 61.5 105.0 Q 62.3 104.4, 62.3 103.2 Q 62.3 102.5, 61.9 102.0 Q 61.5 101.5, 60.9 101.2 Q 60.3 101.0, 59.3 100.7 Q 58.1 100.3, 57.3 99.9 Q 56.6 99.6, 56.0 98.8 Q 55.5 98.0, 55.5 96.8 Q 55.5 95.0, 56.7 93.9 Q 57.9 92.8, 60.3 92.8 Q 62.0 92.8, 63.8 93.6 L 63.4 95.1 Q 61.7 94.4, 60.4 94.4 Q 59.0 94.4, 58.2 95.0 Q 57.5 95.5, 57.5 96.5 Q 57.5 97.3, 57.9 97.7 Q 58.3 98.2, 58.8 98.5 Q 59.4 98.7, 60.4 99.0 Q 61.7 99.4, 62.4 99.8 Q 63.2 100.2, 63.7 101.1 Q 64.3 101.9, 64.3 103.2 Q 64.3 105.2, 63.0 106.3 Q 61.7 107.3, 59.5 107.3 Q 58.2 107.3, 57.3 107.0 Q 56.3 106.8, 55.2 106.3 L 55.7 104.7 " fill="#000000"/>
<path class="atom-2" d="M 12.5 70.7 Q 12.5 67.3, 14.2 65.4 Q 15.9 63.5, 19.0 63.5 Q 22.2 63.5, 23.8 65.4 Q 25.5 67.3, 25.5 70.7 Q 25.5 74.1, 23.8 76.1 Q 22.1 78.0, 19.0 78.0 Q 15.9 78.0, 14.2 76.1 Q 12.5 74.1, 12.5 70.7 M 19.0 76.4 Q 21.2 76.4, 22.3 75.0 Q 23.5 73.5, 23.5 70.7 Q 23.5 67.9, 22.3 66.5 Q 21.2 65.1, 19.0 65.1 Q 16.9 65.1, 15.7 66.5 Q 14.5 67.9, 14.5 70.7 Q 14.5 73.5, 15.7 75.0 Q 16.9 76.4, 19.0 76.4 " fill="#000000"/>
<path class="atom-3" d="M 24.0 140.6 Q 24.0 137.2, 25.7 135.3 Q 27.4 133.4, 30.5 133.4 Q 33.7 133.4, 35.4 135.3 Q 37.1 137.2, 37.1 140.6 Q 37.1 144.1, 35.3 146.0 Q 33.6 148.0, 30.5 148.0 Q 27.4 148.0, 25.7 146.0 Q 24.0 144.1, 24.0 140.6 M 30.5 146.4 Q 32.7 146.4, 33.9 144.9 Q 35.0 143.5, 35.0 140.6 Q 35.0 137.8, 33.9 136.4 Q 32.7 135.0, 30.5 135.0 Q 28.4 135.0, 27.2 136.4 Q 26.0 137.8, 26.0 140.6 Q 26.0 143.5, 27.2 144.9 Q 28.4 146.4, 30.5 146.4 " fill="#000000"/>
<path class="atom-4" d="M 97.3 122.0 L 102.0 129.5 Q 102.5 130.2, 103.2 131.6 Q 103.9 132.9, 104.0 133.0 L 104.0 122.0 L 105.9 122.0 L 105.9 136.2 L 103.9 136.2 L 98.9 127.9 Q 98.4 127.0, 97.7 125.9 Q 97.1 124.8, 96.9 124.4 L 96.9 136.2 L 95.1 136.2 L 95.1 122.0 L 97.3 122.0 " fill="#000000"/>
<path class="atom-4" d="M 94.9 137.6 L 96.9 137.6 L 96.9 143.6 L 104.1 143.6 L 104.1 137.6 L 106.0 137.6 L 106.0 151.8 L 104.1 151.8 L 104.1 145.2 L 96.9 145.2 L 96.9 151.8 L 94.9 151.8 L 94.9 137.6 " fill="#000000"/>
<path class="atom-12" d="M 114.3 197.7 L 116.2 197.7 L 116.2 203.8 L 123.5 203.8 L 123.5 197.7 L 125.4 197.7 L 125.4 211.9 L 123.5 211.9 L 123.5 205.4 L 116.2 205.4 L 116.2 211.9 L 114.3 211.9 L 114.3 197.7 " fill="#000000"/>
<path class="atom-12" d="M 128.2 204.8 Q 128.2 201.4, 129.9 199.5 Q 131.6 197.6, 134.7 197.6 Q 137.9 197.6, 139.6 199.5 Q 141.3 201.4, 141.3 204.8 Q 141.3 208.2, 139.5 210.2 Q 137.8 212.2, 134.7 212.2 Q 131.6 212.2, 129.9 210.2 Q 128.2 208.3, 128.2 204.8 M 134.7 210.5 Q 136.9 210.5, 138.1 209.1 Q 139.2 207.6, 139.2 204.8 Q 139.2 202.0, 138.1 200.6 Q 136.9 199.2, 134.7 199.2 Q 132.6 199.2, 131.4 200.6 Q 130.2 202.0, 130.2 204.8 Q 130.2 207.7, 131.4 209.1 Q 132.6 210.5, 134.7 210.5 " fill="#000000"/>
<path class="atom-12" d="M 143.4 200.1 L 145.9 200.1 L 145.9 197.5 L 147.0 197.5 L 147.0 200.1 L 149.6 200.1 L 149.6 201.1 L 147.0 201.1 L 147.0 203.7 L 145.9 203.7 L 145.9 201.1 L 143.4 201.1 L 143.4 200.1 " fill="#000000"/>
<path class="bond-0 atom-0 atom-1" d="M 268.0,156.7 L 277.2,139.3" style="fill:none;fill-rule:evenodd;stroke:#000000;stroke-width:2.0px;stroke-linecap:butt;stroke-linejoin:miter;stroke-opacity:1"/>
<path class="bond-1 atom-1 atom-2" d="M 277.2,139.3 L 301.8,138.5" style="fill:none;fill-rule:evenodd;stroke:#000000;stroke-width:2.0px;stroke-linecap:butt;stroke-linejoin:miter;stroke-opacity:1"/>
<path class="bond-2 atom-2 atom-3" d="M 301.8,138.5 L 313.3,116.7" style="fill:none;fill-rule:evenodd;stroke:#000000;stroke-width:2.0px;stroke-linecap:butt;stroke-linejoin:miter;stroke-opacity:1"/>
<path class="bond-3 atom-3 atom-4" d="M 313.3,116.7 L 300.3,95.9" style="fill:none;fill-rule:evenodd;stroke:#000000;stroke-width:2.0px;stroke-linecap:butt;stroke-linejoin:miter;stroke-opacity:1"/>
<path class="bond-3 atom-3 atom-4" d="M 315.3,113.0 L 304.6,95.8" style="fill:none;fill-rule:evenodd;stroke:#000000;stroke-width:2.0px;stroke-linecap:butt;stroke-linejoin:miter;stroke-opacity:1"/>
<path class="bond-4 atom-4 atom-5" d="M 300.3,95.9 L 311.8,74.2" style="fill:none;fill-rule:evenodd;stroke:#000000;stroke-width:2.0px;stroke-linecap:butt;stroke-linejoin:miter;stroke-opacity:1"/>
<path class="bond-5 atom-5 atom-6" d="M 311.8,74.2 L 336.4,73.3" style="fill:none;fill-rule:evenodd;stroke:#000000;stroke-width:2.0px;stroke-linecap:butt;stroke-linejoin:miter;stroke-opacity:1"/>
<path class="bond-5 atom-5 atom-6" d="M 314.1,77.8 L 334.4,77.1" style="fill:none;fill-rule:evenodd;stroke:#000000;stroke-width:2.0px;stroke-linecap:butt;stroke-linejoin:miter;stroke-opacity:1"/>
<path class="bond-6 atom-6 atom-7" d="M 336.4,73.3 L 349.4,94.2" style="fill:none;fill-rule:evenodd;stroke:#000000;stroke-width:2.0px;stroke-linecap:butt;stroke-linejoin:miter;stroke-opacity:1"/>
<path class="bond-7 atom-7 atom-8" d="M 349.4,94.2 L 337.9,115.9" style="fill:none;fill-rule:evenodd;stroke:#000000;stroke-width:2.0px;stroke-linecap:butt;stroke-linejoin:miter;stroke-opacity:1"/>
<path class="bond-7 atom-7 atom-8" d="M 345.2,94.3 L 335.7,112.3" style="fill:none;fill-rule:evenodd;stroke:#000000;stroke-width:2.0px;stroke-linecap:butt;stroke-linejoin:miter;stroke-opacity:1"/>
<path class="bond-8 atom-8 atom-9" d="M 337.9,115.9 L 351.0,136.7" style="fill:none;fill-rule:evenodd;stroke:#000000;stroke-width:2.0px;stroke-linecap:butt;stroke-linejoin:miter;stroke-opacity:1"/>
<path class="bond-9 atom-9 atom-10" d="M 351.0,136.7 L 339.4,158.4" style="fill:none;fill-rule:evenodd;stroke:#000000;stroke-width:2.0px;stroke-linecap:butt;stroke-linejoin:miter;stroke-opacity:1"/>
<path class="bond-9 atom-9 atom-10" d="M 353.2,140.3 L 343.7,158.3" style="fill:none;fill-rule:evenodd;stroke:#000000;stroke-width:2.0px;stroke-linecap:butt;stroke-linejoin:miter;stroke-opacity:1"/>
<path class="bond-10 atom-10 atom-11" d="M 339.4,158.4 L 352.5,179.3" style="fill:none;fill-rule:evenodd;stroke:#000000;stroke-width:2.0px;stroke-linecap:butt;stroke-linejoin:miter;stroke-opacity:1"/>
<path class="bond-11 atom-11 atom-12" d="M 352.5,179.3 L 377.0,178.4" style="fill:none;fill-rule:evenodd;stroke:#000000;stroke-width:2.0px;stroke-linecap:butt;stroke-linejoin:miter;stroke-opacity:1"/>
<path class="bond-11 atom-11 atom-12" d="M 354.5,175.5 L 374.8,174.8" style="fill:none;fill-rule:evenodd;stroke:#000000;stroke-width:2.0px;stroke-linecap:butt;stroke-linejoin:miter;stroke-opacity:1"/>
<path class="bond-12 atom-12 atom-13" d="M 377.0,178.4 L 388.6,156.7" style="fill:none;fill-rule:evenodd;stroke:#000000;stroke-width:2.0px;stroke-linecap:butt;stroke-linejoin:miter;stroke-opacity:1"/>
<path class="bond-13 atom-13 atom-14" d="M 388.6,156.7 L 375.5,135.9" style="fill:none;fill-rule:evenodd;stroke:#000000;stroke-width:2.0px;stroke-linecap:butt;stroke-linejoin:miter;stroke-opacity:1"/>
<path class="bond-13 atom-13 atom-14" d="M 384.3,156.9 L 373.5,139.6" style="fill:none;fill-rule:evenodd;stroke:#000000;stroke-width:2.0px;stroke-linecap:butt;stroke-linejoin:miter;stroke-opacity:1"/>
<path class="bond-14 atom-14 atom-15" d="M 375.5,135.9 L 387.1,114.1" style="fill:none;fill-rule:evenodd;stroke:#000000;stroke-width:2.0px;stroke-linecap:butt;stroke-linejoin:miter;stroke-opacity:1"/>
<path class="bond-15 atom-15 atom-16" d="M 387.1,114.1 L 374.0,93.3" style="fill:none;fill-rule:evenodd;stroke:#000000;stroke-width:2.0px;stroke-linecap:butt;stroke-linejoin:miter;stroke-opacity:1"/>
<path class="bond-15 atom-15 atom-16" d="M 389.1,110.4 L 378.3,93.1" style="fill:none;fill-rule:evenodd;stroke:#000000;stroke-width:2.0px;stroke-linecap:butt;stroke-linejoin:miter;stroke-opacity:1"/>
<path class="bond-16 atom-16 atom-17" d="M 374.0,93.3 L 385.6,71.6" style="fill:none;fill-rule:evenodd;stroke:#000000;stroke-width:2.0px;stroke-linecap:butt;stroke-linejoin:miter;stroke-opacity:1"/>
<path class="bond-17 atom-17 atom-18" d="M 385.6,71.6 L 410.1,70.7" style="fill:none;fill-rule:evenodd;stroke:#000000;stroke-width:2.0px;stroke-linecap:butt;stroke-linejoin:miter;stroke-opacity:1"/>
<path class="bond-17 atom-17 atom-18" d="M 387.8,75.2 L 408.1,74.5" style="fill:none;fill-rule:evenodd;stroke:#000000;stroke-width:2.0px;stroke-linecap:butt;stroke-linejoin:miter;stroke-opacity:1"/>
<path class="bond-18 atom-18 atom-19" d="M 410.1,70.7 L 423.2,91.6" style="fill:none;fill-rule:evenodd;stroke:#000000;stroke-width:2.0px;stroke-linecap:butt;stroke-linejoin:miter;stroke-opacity:1"/>
<path class="bond-19 atom-19 atom-20" d="M 423.2,91.6 L 411.6,113.3" style="fill:none;fill-rule:evenodd;stroke:#000000;stroke-width:2.0px;stroke-linecap:butt;stroke-linejoin:miter;stroke-opacity:1"/>
<path class="bond-19 atom-19 atom-20" d="M 418.9,91.7 L 409.4,109.7" style="fill:none;fill-rule:evenodd;stroke:#000000;stroke-width:2.0px;stroke-linecap:butt;stroke-linejoin:miter;stroke-opacity:1"/>
<path class="bond-20 atom-20 atom-21" d="M 411.6,113.3 L 424.7,134.1" style="fill:none;fill-rule:evenodd;stroke:#000000;stroke-width:2.0px;stroke-linecap:butt;stroke-linejoin:miter;stroke-opacity:1"/>
<path class="bond-21 atom-21 atom-22" d="M 424.7,134.1 L 449.2,133.3" style="fill:none;fill-rule:evenodd;stroke:#000000;stroke-width:2.0px;stroke-linecap:butt;stroke-linejoin:miter;stroke-opacity:1"/>
<path class="bond-22 atom-22 atom-23" d="M 449.2,133.3 L 464.4,152.6" style="fill:none;fill-rule:evenodd;stroke:#000000;stroke-width:2.0px;stroke-linecap:butt;stroke-linejoin:miter;stroke-opacity:1"/>
<path class="bond-22 atom-22 atom-23" d="M 453.8,133.1 L 465.7,148.2" style="fill:none;fill-rule:evenodd;stroke:#000000;stroke-width:2.0px;stroke-linecap:butt;stroke-linejoin:miter;stroke-opacity:1"/>
<path class="bond-23 atom-23 atom-24" d="M 464.4,152.6 L 487.5,144.2" style="fill:none;fill-rule:evenodd;stroke:#000000;stroke-width:2.0px;stroke-linecap:butt;stroke-linejoin:miter;stroke-opacity:1"/>
<path class="bond-24 atom-24 atom-25" d="M 487.5,144.2 L 486.6,119.6" style="fill:none;fill-rule:evenodd;stroke:#000000;stroke-width:2.0px;stroke-linecap:butt;stroke-linejoin:miter;stroke-opacity:1"/>
<path class="bond-24 atom-24 atom-25" d="M 483.7,141.7 L 483.0,122.4" style="fill:none;fill-rule:evenodd;stroke:#000000;stroke-width:2.0px;stroke-linecap:butt;stroke-linejoin:miter;stroke-opacity:1"/>
<path class="bond-25 atom-25 atom-26" d="M 486.6,119.6 L 467.0,114.0" style="fill:none;fill-rule:evenodd;stroke:#000000;stroke-width:2.0px;stroke-linecap:butt;stroke-linejoin:miter;stroke-opacity:1"/>
<path class="bond-26 atom-8 atom-3" d="M 337.9,115.9 L 313.3,116.7" style="fill:none;fill-rule:evenodd;stroke:#000000;stroke-width:2.0px;stroke-linecap:butt;stroke-linejoin:miter;stroke-opacity:1"/>
<path class="bond-27 atom-14 atom-9" d="M 375.5,135.9 L 351.0,136.7" style="fill:none;fill-rule:evenodd;stroke:#000000;stroke-width:2.0px;stroke-linecap:butt;stroke-linejoin:miter;stroke-opacity:1"/>
<path class="bond-28 atom-20 atom-15" d="M 411.6,113.3 L 387.1,114.1" style="fill:none;fill-rule:evenodd;stroke:#000000;stroke-width:2.0px;stroke-linecap:butt;stroke-linejoin:miter;stroke-opacity:1"/>
<path class="bond-29 atom-26 atom-22" d="M 460.0,117.3 L 449.2,133.3" style="fill:none;fill-rule:evenodd;stroke:#000000;stroke-width:2.0px;stroke-linecap:butt;stroke-linejoin:miter;stroke-opacity:1"/>
<path d="M 276.8,140.2 L 277.2,139.3 L 278.5,139.3" style="fill:none;stroke:#000000;stroke-width:2.0px;stroke-linecap:butt;stroke-linejoin:miter;stroke-miterlimit:10;stroke-opacity:1;"/>
<path d="M 300.6,138.5 L 301.8,138.5 L 302.4,137.4" style="fill:none;stroke:#000000;stroke-width:2.0px;stroke-linecap:butt;stroke-linejoin:miter;stroke-miterlimit:10;stroke-opacity:1;"/>
<path d="M 301.0,96.9 L 300.3,95.9 L 300.9,94.8" style="fill:none;stroke:#000000;stroke-width:2.0px;stroke-linecap:butt;stroke-linejoin:miter;stroke-miterlimit:10;stroke-opacity:1;"/>
<path d="M 311.3,75.3 L 311.8,74.2 L 313.1,74.1" style="fill:none;stroke:#000000;stroke-width:2.0px;stroke-linecap:butt;stroke-linejoin:miter;stroke-miterlimit:10;stroke-opacity:1;"/>
<path d="M 335.2,73.4 L 336.4,73.3 L 337.1,74.4" style="fill:none;stroke:#000000;stroke-width:2.0px;stroke-linecap:butt;stroke-linejoin:miter;stroke-miterlimit:10;stroke-opacity:1;"/>
<path d="M 348.8,93.1 L 349.4,94.2 L 348.9,95.2" style="fill:none;stroke:#000000;stroke-width:2.0px;stroke-linecap:butt;stroke-linejoin:miter;stroke-miterlimit:10;stroke-opacity:1;"/>
<path d="M 340.0,157.4 L 339.4,158.4 L 340.1,159.5" style="fill:none;stroke:#000000;stroke-width:2.0px;stroke-linecap:butt;stroke-linejoin:miter;stroke-miterlimit:10;stroke-opacity:1;"/>
<path d="M 351.8,178.2 L 352.5,179.3 L 353.7,179.2" style="fill:none;stroke:#000000;stroke-width:2.0px;stroke-linecap:butt;stroke-linejoin:miter;stroke-miterlimit:10;stroke-opacity:1;"/>
<path d="M 375.8,178.5 L 377.0,178.4 L 377.6,177.3" style="fill:none;stroke:#000000;stroke-width:2.0px;stroke-linecap:butt;stroke-linejoin:miter;stroke-miterlimit:10;stroke-opacity:1;"/>
<path d="M 388.0,157.8 L 388.6,156.7 L 387.9,155.7" style="fill:none;stroke:#000000;stroke-width:2.0px;stroke-linecap:butt;stroke-linejoin:miter;stroke-miterlimit:10;stroke-opacity:1;"/>
<path d="M 374.7,94.3 L 374.0,93.3 L 374.6,92.2" style="fill:none;stroke:#000000;stroke-width:2.0px;stroke-linecap:butt;stroke-linejoin:miter;stroke-miterlimit:10;stroke-opacity:1;"/>
<path d="M 385.0,72.7 L 385.6,71.6 L 386.8,71.5" style="fill:none;stroke:#000000;stroke-width:2.0px;stroke-linecap:butt;stroke-linejoin:miter;stroke-miterlimit:10;stroke-opacity:1;"/>
<path d="M 408.9,70.8 L 410.1,70.7 L 410.8,71.8" style="fill:none;stroke:#000000;stroke-width:2.0px;stroke-linecap:butt;stroke-linejoin:miter;stroke-miterlimit:10;stroke-opacity:1;"/>
<path d="M 422.5,90.5 L 423.2,91.6 L 422.6,92.6" style="fill:none;stroke:#000000;stroke-width:2.0px;stroke-linecap:butt;stroke-linejoin:miter;stroke-miterlimit:10;stroke-opacity:1;"/>
<path d="M 424.0,133.1 L 424.7,134.1 L 425.9,134.1" style="fill:none;stroke:#000000;stroke-width:2.0px;stroke-linecap:butt;stroke-linejoin:miter;stroke-miterlimit:10;stroke-opacity:1;"/>
<path d="M 463.6,151.7 L 464.4,152.6 L 465.6,152.2" style="fill:none;stroke:#000000;stroke-width:2.0px;stroke-linecap:butt;stroke-linejoin:miter;stroke-miterlimit:10;stroke-opacity:1;"/>
<path d="M 486.3,144.6 L 487.5,144.2 L 487.5,143.0" style="fill:none;stroke:#000000;stroke-width:2.0px;stroke-linecap:butt;stroke-linejoin:miter;stroke-miterlimit:10;stroke-opacity:1;"/>
<path d="M 486.7,120.9 L 486.6,119.6 L 485.6,119.3" style="fill:none;stroke:#000000;stroke-width:2.0px;stroke-linecap:butt;stroke-linejoin:miter;stroke-miterlimit:10;stroke-opacity:1;"/>
<path class="atom-0" d="M 262.5 161.1 Q 262.5 159.4, 263.3 158.5 Q 264.2 157.5, 265.7 157.5 Q 267.2 157.5, 268.1 158.5 Q 268.9 159.4, 268.9 161.1 Q 268.9 162.8, 268.1 163.7 Q 267.2 164.7, 265.7 164.7 Q 264.2 164.7, 263.3 163.7 Q 262.5 162.8, 262.5 161.1 M 265.7 163.9 Q 266.8 163.9, 267.3 163.2 Q 267.9 162.5, 267.9 161.1 Q 267.9 159.7, 267.3 159.0 Q 266.8 158.3, 265.7 158.3 Q 264.6 158.3, 264.1 159.0 Q 263.5 159.7, 263.5 161.1 Q 263.5 162.5, 264.1 163.2 Q 264.6 163.9, 265.7 163.9 " fill="#000000"/>
<path class="atom-0" d="M 269.9 158.7 L 272.3 158.7 L 272.3 159.2 L 269.9 159.2 L 269.9 158.7 " fill="#000000"/>
<path class="atom-26" d="M 459.8 112.9 Q 459.8 111.2, 460.6 110.3 Q 461.4 109.3, 463.0 109.3 Q 464.5 109.3, 465.4 110.3 Q 466.2 111.2, 466.2 112.9 Q 466.2 114.6, 465.4 115.5 Q 464.5 116.5, 463.0 116.5 Q 461.5 116.5, 460.6 115.5 Q 459.8 114.6, 459.8 112.9 M 463.0 115.7 Q 464.1 115.7, 464.6 115.0 Q 465.2 114.3, 465.2 112.9 Q 465.2 111.5, 464.6 110.8 Q 464.1 110.1, 463.0 110.1 Q 461.9 110.1, 461.3 110.8 Q 460.8 111.5, 460.8 112.9 Q 460.8 114.3, 461.3 115.0 Q 461.9 115.7, 463.0 115.7 " fill="#000000"/>
<path class="bond-0 atom-0 atom-1" d="M 663.6,127.6 L 594.7,87.8" style="fill:none;fill-rule:evenodd;stroke:#000000;stroke-width:2.0px;stroke-linecap:butt;stroke-linejoin:miter;stroke-opacity:1"/>
<path class="bond-1 atom-1 atom-2" d="M 594.7,87.8 L 512.5,135.3" style="fill:none;fill-rule:evenodd;stroke:#000000;stroke-width:2.0px;stroke-linecap:butt;stroke-linejoin:miter;stroke-opacity:1"/>
<path d="M 598.2,89.8 L 594.7,87.8 L 590.6,90.2" style="fill:none;stroke:#000000;stroke-width:2.0px;stroke-linecap:butt;stroke-linejoin:miter;stroke-miterlimit:10;stroke-opacity:1;"/>
<path class="atom-0" d="M 671.0 121.8 L 679.8 136.1 Q 680.7 137.5, 682.1 140.0 Q 683.5 142.6, 683.6 142.7 L 683.6 121.8 L 687.1 121.8 L 687.1 148.7 L 683.5 148.7 L 674.0 133.2 Q 672.9 131.3, 671.7 129.3 Q 670.6 127.2, 670.2 126.5 L 670.2 148.7 L 666.7 148.7 L 666.7 121.8 L 671.0 121.8 " fill="#000000"/>
<path class="atom-0" d="M 692.2 121.8 L 695.9 121.8 L 695.9 133.3 L 709.6 133.3 L 709.6 121.8 L 713.3 121.8 L 713.3 148.7 L 709.6 148.7 L 709.6 136.3 L 695.9 136.3 L 695.9 148.7 L 692.2 148.7 L 692.2 121.8 " fill="#000000"/>
<path class="atom-0" d="M 718.5 147.8 Q 719.1 146.1, 720.7 145.2 Q 722.2 144.2, 724.4 144.2 Q 727.1 144.2, 728.6 145.7 Q 730.1 147.1, 730.1 149.7 Q 730.1 152.4, 728.1 154.8 Q 726.2 157.3, 722.2 160.2 L 730.4 160.2 L 730.4 162.2 L 718.4 162.2 L 718.4 160.5 Q 721.7 158.1, 723.7 156.4 Q 725.7 154.6, 726.6 153.1 Q 727.6 151.5, 727.6 149.8 Q 727.6 148.1, 726.7 147.2 Q 725.9 146.2, 724.4 146.2 Q 723.0 146.2, 722.0 146.8 Q 721.1 147.4, 720.4 148.7 L 718.5 147.8 " fill="#000000"/>
<path class="atom-0" d="M 718.5 126.7 L 723.3 126.7 L 723.3 121.7 L 725.4 121.7 L 725.4 126.7 L 730.3 126.7 L 730.3 128.5 L 725.4 128.5 L 725.4 133.5 L 723.3 133.5 L 723.3 128.5 L 718.5 128.5 L 718.5 126.7 " fill="#000000"/>
<path class="atom-0" d="M 738.0,135.3 L 738.0,135.5 L 737.9,135.6 L 737.9,135.8 L 737.9,135.9 L 737.8,136.1 L 737.7,136.2 L 737.6,136.4 L 737.5,136.5 L 737.4,136.6 L 737.3,136.7 L 737.2,136.8 L 737.0,136.9 L 736.9,137.0 L 736.8,137.1 L 736.6,137.1 L 736.4,137.2 L 736.3,137.2 L 736.1,137.2 L 736.0,137.2 L 735.8,137.2 L 735.6,137.1 L 735.5,137.1 L 735.3,137.0 L 735.2,137.0 L 735.0,136.9 L 734.9,136.8 L 734.8,136.7 L 734.7,136.6 L 734.6,136.4 L 734.5,136.3 L 734.4,136.2 L 734.3,136.0 L 734.3,135.9 L 734.2,135.7 L 734.2,135.5 L 734.2,135.4 L 734.2,135.2 L 734.2,135.0 L 734.2,134.9 L 734.3,134.7 L 734.3,134.6 L 734.4,134.4 L 734.5,134.3 L 734.6,134.1 L 734.7,134.0 L 734.8,133.9 L 734.9,133.8 L 735.0,133.7 L 735.2,133.6 L 735.3,133.5 L 735.5,133.5 L 735.6,133.4 L 735.8,133.4 L 736.0,133.4 L 736.1,133.4 L 736.3,133.4 L 736.4,133.4 L 736.6,133.5 L 736.8,133.5 L 736.9,133.6 L 737.0,133.7 L 737.2,133.8 L 737.3,133.9 L 737.4,134.0 L 737.5,134.1 L 737.6,134.2 L 737.7,134.4 L 737.8,134.5 L 737.9,134.7 L 737.9,134.8 L 737.9,135.0 L 738.0,135.1 L 738.0,135.3 L 736.1,135.3 Z" style="fill:#000000;fill-rule:evenodd;fill-opacity:1;stroke:#000000;stroke-width:0.0px;stroke-linecap:butt;stroke-linejoin:miter;stroke-miterlimit:10;stroke-opacity:1;"/>
<path class="bond-0 atom-0 atom-1" d="M 28.6,374.9 L 46.4,367.7" style="fill:none;fill-rule:evenodd;stroke:#000000;stroke-width:2.0px;stroke-linecap:butt;stroke-linejoin:miter;stroke-opacity:1"/>
<path class="bond-1 atom-1 atom-2" d="M 53.0,368.9 L 70.9,382.8" style="fill:none;fill-rule:evenodd;stroke:#000000;stroke-width:2.0px;stroke-linecap:butt;stroke-linejoin:miter;stroke-opacity:1"/>
<path class="bond-2 atom-2 atom-3" d="M 70.9,382.8 L 91.4,374.4" style="fill:none;fill-rule:evenodd;stroke:#000000;stroke-width:2.0px;stroke-linecap:butt;stroke-linejoin:miter;stroke-opacity:1"/>
<path class="bond-3 atom-3 atom-4" d="M 100.1,376.0 L 116.9,389.0" style="fill:none;fill-rule:evenodd;stroke:#000000;stroke-width:2.0px;stroke-linecap:butt;stroke-linejoin:miter;stroke-opacity:1"/>
<path class="bond-4 atom-4 atom-5" d="M 116.9,389.0 L 141.8,378.9" style="fill:none;fill-rule:evenodd;stroke:#000000;stroke-width:2.0px;stroke-linecap:butt;stroke-linejoin:miter;stroke-opacity:1"/>
<path class="bond-5 atom-5 atom-6" d="M 141.8,378.9 L 158.6,391.9" style="fill:none;fill-rule:evenodd;stroke:#000000;stroke-width:2.0px;stroke-linecap:butt;stroke-linejoin:miter;stroke-opacity:1"/>
<path class="bond-6 atom-6 atom-7" d="M 167.4,393.5 L 187.8,385.2" style="fill:none;fill-rule:evenodd;stroke:#000000;stroke-width:2.0px;stroke-linecap:butt;stroke-linejoin:miter;stroke-opacity:1"/>
<path class="bond-7 atom-7 atom-8" d="M 187.8,385.2 L 191.4,358.6" style="fill:none;fill-rule:evenodd;stroke:#000000;stroke-width:2.0px;stroke-linecap:butt;stroke-linejoin:miter;stroke-opacity:1"/>
<path class="bond-7 atom-7 atom-8" d="M 192.1,383.4 L 195.1,361.4" style="fill:none;fill-rule:evenodd;stroke:#000000;stroke-width:2.0px;stroke-linecap:butt;stroke-linejoin:miter;stroke-opacity:1"/>
<path class="bond-8 atom-8 atom-9" d="M 191.4,358.6 L 216.3,348.4" style="fill:none;fill-rule:evenodd;stroke:#000000;stroke-width:2.0px;stroke-linecap:butt;stroke-linejoin:miter;stroke-opacity:1"/>
<path class="bond-9 atom-9 atom-10" d="M 216.3,348.4 L 237.5,364.8" style="fill:none;fill-rule:evenodd;stroke:#000000;stroke-width:2.0px;stroke-linecap:butt;stroke-linejoin:miter;stroke-opacity:1"/>
<path class="bond-9 atom-9 atom-10" d="M 215.7,353.0 L 233.2,366.6" style="fill:none;fill-rule:evenodd;stroke:#000000;stroke-width:2.0px;stroke-linecap:butt;stroke-linejoin:miter;stroke-opacity:1"/>
<path class="bond-10 atom-10 atom-11" d="M 237.5,364.8 L 233.9,391.4" style="fill:none;fill-rule:evenodd;stroke:#000000;stroke-width:2.0px;stroke-linecap:butt;stroke-linejoin:miter;stroke-opacity:1"/>
<path class="bond-11 atom-11 atom-12" d="M 233.9,391.4 L 209.0,401.6" style="fill:none;fill-rule:evenodd;stroke:#000000;stroke-width:2.0px;stroke-linecap:butt;stroke-linejoin:miter;stroke-opacity:1"/>
<path class="bond-11 atom-11 atom-12" d="M 230.2,388.6 L 209.7,397.0" style="fill:none;fill-rule:evenodd;stroke:#000000;stroke-width:2.0px;stroke-linecap:butt;stroke-linejoin:miter;stroke-opacity:1"/>
<path class="bond-12 atom-12 atom-7" d="M 209.0,401.6 L 187.8,385.2" style="fill:none;fill-rule:evenodd;stroke:#000000;stroke-width:2.0px;stroke-linecap:butt;stroke-linejoin:miter;stroke-opacity:1"/>
<path d="M 70.0,382.1 L 70.9,382.8 L 71.9,382.3" style="fill:none;stroke:#000000;stroke-width:2.0px;stroke-linecap:butt;stroke-linejoin:miter;stroke-miterlimit:10;stroke-opacity:1;"/>
<path d="M 116.1,388.4 L 116.9,389.0 L 118.2,388.5" style="fill:none;stroke:#000000;stroke-width:2.0px;stroke-linecap:butt;stroke-linejoin:miter;stroke-miterlimit:10;stroke-opacity:1;"/>
<path d="M 140.5,379.4 L 141.8,378.9 L 142.6,379.5" style="fill:none;stroke:#000000;stroke-width:2.0px;stroke-linecap:butt;stroke-linejoin:miter;stroke-miterlimit:10;stroke-opacity:1;"/>
<path d="M 191.3,359.9 L 191.4,358.6 L 192.7,358.1" style="fill:none;stroke:#000000;stroke-width:2.0px;stroke-linecap:butt;stroke-linejoin:miter;stroke-miterlimit:10;stroke-opacity:1;"/>
<path d="M 215.0,348.9 L 216.3,348.4 L 217.3,349.2" style="fill:none;stroke:#000000;stroke-width:2.0px;stroke-linecap:butt;stroke-linejoin:miter;stroke-miterlimit:10;stroke-opacity:1;"/>
<path d="M 236.4,364.0 L 237.5,364.8 L 237.3,366.2" style="fill:none;stroke:#000000;stroke-width:2.0px;stroke-linecap:butt;stroke-linejoin:miter;stroke-miterlimit:10;stroke-opacity:1;"/>
<path d="M 234.1,390.1 L 233.9,391.4 L 232.6,391.9" style="fill:none;stroke:#000000;stroke-width:2.0px;stroke-linecap:butt;stroke-linejoin:miter;stroke-miterlimit:10;stroke-opacity:1;"/>
<path d="M 210.3,401.1 L 209.0,401.6 L 208.0,400.8" style="fill:none;stroke:#000000;stroke-width:2.0px;stroke-linecap:butt;stroke-linejoin:miter;stroke-miterlimit:10;stroke-opacity:1;"/>
<path class="atom-0" d="M 14.5 372.7 L 15.5 372.7 L 15.5 375.9 L 19.4 375.9 L 19.4 372.7 L 20.5 372.7 L 20.5 380.3 L 19.4 380.3 L 19.4 376.8 L 15.5 376.8 L 15.5 380.3 L 14.5 380.3 L 14.5 372.7 " fill="#000000"/>
<path class="atom-0" d="M 23.2 372.7 L 25.6 376.7 Q 25.9 377.1, 26.3 377.8 Q 26.7 378.5, 26.7 378.6 L 26.7 372.7 L 27.7 372.7 L 27.7 380.3 L 26.7 380.3 L 24.0 375.9 Q 23.7 375.4, 23.4 374.8 Q 23.0 374.2, 22.9 374.0 L 22.9 380.3 L 22.0 380.3 L 22.0 372.7 L 23.2 372.7 " fill="#000000"/>
<path class="atom-1" d="M 47.5 368.9 Q 47.6 369.0, 48.0 369.1 Q 48.3 369.3, 48.7 369.4 Q 49.1 369.5, 49.5 369.5 Q 50.2 369.5, 50.6 369.1 Q 51.0 368.8, 51.0 368.1 Q 51.0 367.7, 50.8 367.5 Q 50.6 367.2, 50.3 367.1 Q 50.0 366.9, 49.4 366.8 Q 48.8 366.6, 48.4 366.4 Q 48.0 366.2, 47.7 365.8 Q 47.4 365.4, 47.4 364.7 Q 47.4 363.7, 48.0 363.1 Q 48.7 362.5, 50.0 362.5 Q 50.9 362.5, 51.9 363.0 L 51.6 363.8 Q 50.7 363.4, 50.0 363.4 Q 49.3 363.4, 48.9 363.7 Q 48.5 364.0, 48.5 364.5 Q 48.5 365.0, 48.7 365.2 Q 48.9 365.4, 49.2 365.6 Q 49.5 365.7, 50.0 365.9 Q 50.7 366.1, 51.1 366.3 Q 51.5 366.5, 51.8 367.0 Q 52.1 367.4, 52.1 368.1 Q 52.1 369.2, 51.4 369.8 Q 50.7 370.3, 49.5 370.3 Q 48.9 370.3, 48.3 370.2 Q 47.8 370.0, 47.2 369.8 L 47.5 368.9 " fill="#000000"/>
<path class="atom-1" d="M 53.1 363.7 L 55.7 363.7 L 55.7 364.2 L 53.1 364.2 L 53.1 363.7 " fill="#000000"/>
<path class="atom-3" d="M 92.2 372.6 Q 92.2 370.8, 93.1 369.8 Q 94.0 368.8, 95.7 368.8 Q 97.4 368.8, 98.3 369.8 Q 99.2 370.8, 99.2 372.6 Q 99.2 374.5, 98.3 375.5 Q 97.4 376.6, 95.7 376.6 Q 94.1 376.6, 93.1 375.5 Q 92.2 374.5, 92.2 372.6 M 95.7 375.7 Q 96.9 375.7, 97.5 374.9 Q 98.1 374.1, 98.1 372.6 Q 98.1 371.1, 97.5 370.4 Q 96.9 369.6, 95.7 369.6 Q 94.6 369.6, 93.9 370.4 Q 93.3 371.1, 93.3 372.6 Q 93.3 374.2, 93.9 374.9 Q 94.6 375.7, 95.7 375.7 " fill="#000000"/>
<path class="atom-6" d="M 159.5 395.3 Q 159.5 393.5, 160.4 392.5 Q 161.3 391.5, 163.0 391.5 Q 164.7 391.5, 165.6 392.5 Q 166.5 393.5, 166.5 395.3 Q 166.5 397.2, 165.6 398.2 Q 164.7 399.3, 163.0 399.3 Q 161.3 399.3, 160.4 398.2 Q 159.5 397.2, 159.5 395.3 M 163.0 398.4 Q 164.1 398.4, 164.8 397.6 Q 165.4 396.9, 165.4 395.3 Q 165.4 393.8, 164.8 393.1 Q 164.1 392.3, 163.0 392.3 Q 161.8 392.3, 161.2 393.1 Q 160.6 393.8, 160.6 395.3 Q 160.6 396.9, 161.2 397.6 Q 161.8 398.4, 163.0 398.4 " fill="#000000"/>
<path class="atom-0" d="M 13.4,376.5 L 13.4,376.5 L 13.4,376.6 L 13.4,376.6 L 13.4,376.7 L 13.4,376.7 L 13.4,376.7 L 13.3,376.8 L 13.3,376.8 L 13.3,376.9 L 13.3,376.9 L 13.2,376.9 L 13.2,376.9 L 13.1,377.0 L 13.1,377.0 L 13.1,377.0 L 13.0,377.0 L 13.0,377.0 L 12.9,377.0 L 12.9,377.0 L 12.8,377.0 L 12.8,377.0 L 12.7,377.0 L 12.7,377.0 L 12.6,377.0 L 12.6,376.9 L 12.6,376.9 L 12.5,376.9 L 12.5,376.8 L 12.5,376.8 L 12.4,376.8 L 12.4,376.7 L 12.4,376.7 L 12.4,376.6 L 12.4,376.6 L 12.4,376.6 L 12.4,376.5 L 12.4,376.5 L 12.4,376.4 L 12.4,376.4 L 12.4,376.3 L 12.4,376.3 L 12.4,376.2 L 12.4,376.2 L 12.5,376.2 L 12.5,376.1 L 12.5,376.1 L 12.6,376.1 L 12.6,376.0 L 12.6,376.0 L 12.7,376.0 L 12.7,376.0 L 12.8,376.0 L 12.8,376.0 L 12.9,375.9 L 12.9,375.9 L 13.0,375.9 L 13.0,376.0 L 13.1,376.0 L 13.1,376.0 L 13.1,376.0 L 13.2,376.0 L 13.2,376.0 L 13.3,376.1 L 13.3,376.1 L 13.3,376.1 L 13.3,376.2 L 13.4,376.2 L 13.4,376.3 L 13.4,376.3 L 13.4,376.3 L 13.4,376.4 L 13.4,376.4 L 13.4,376.5 L 12.9,376.5 Z" style="fill:#000000;fill-rule:evenodd;fill-opacity:1;stroke:#000000;stroke-width:0.0px;stroke-linecap:butt;stroke-linejoin:miter;stroke-miterlimit:10;stroke-opacity:1;"/>
<path class="atom-1" d="M 57.8,366.3 L 57.8,366.4 L 57.8,366.4 L 57.8,366.5 L 57.8,366.5 L 57.8,366.6 L 57.7,366.6 L 57.7,366.6 L 57.7,366.7 L 57.7,366.7 L 57.6,366.7 L 57.6,366.8 L 57.5,366.8 L 57.5,366.8 L 57.5,366.8 L 57.4,366.8 L 57.4,366.9 L 57.3,366.9 L 57.3,366.9 L 57.2,366.9 L 57.2,366.9 L 57.1,366.8 L 57.1,366.8 L 57.1,366.8 L 57.0,366.8 L 57.0,366.8 L 56.9,366.7 L 56.9,366.7 L 56.9,366.7 L 56.8,366.7 L 56.8,366.6 L 56.8,366.6 L 56.8,366.5 L 56.8,366.5 L 56.7,366.4 L 56.7,366.4 L 56.7,366.4 L 56.7,366.3 L 56.7,366.3 L 56.7,366.2 L 56.8,366.2 L 56.8,366.1 L 56.8,366.1 L 56.8,366.0 L 56.8,366.0 L 56.9,366.0 L 56.9,365.9 L 56.9,365.9 L 57.0,365.9 L 57.0,365.9 L 57.1,365.8 L 57.1,365.8 L 57.1,365.8 L 57.2,365.8 L 57.2,365.8 L 57.3,365.8 L 57.3,365.8 L 57.4,365.8 L 57.4,365.8 L 57.5,365.8 L 57.5,365.8 L 57.5,365.9 L 57.6,365.9 L 57.6,365.9 L 57.7,366.0 L 57.7,366.0 L 57.7,366.0 L 57.7,366.1 L 57.8,366.1 L 57.8,366.1 L 57.8,366.2 L 57.8,366.2 L 57.8,366.3 L 57.8,366.3 L 57.3,366.3 Z" style="fill:#000000;fill-rule:evenodd;fill-opacity:1;stroke:#000000;stroke-width:0.0px;stroke-linecap:butt;stroke-linejoin:miter;stroke-miterlimit:10;stroke-opacity:1;"/>
<path class="bond-0 atom-0 atom-1" d="M 417.3,365.0 L 404.7,372.5" style="fill:none;fill-rule:evenodd;stroke:#000000;stroke-width:2.0px;stroke-linecap:butt;stroke-linejoin:miter;stroke-opacity:1"/>
<path class="bond-0 atom-0 atom-1" d="M 415.0,361.2 L 402.4,368.7" style="fill:none;fill-rule:evenodd;stroke:#000000;stroke-width:2.0px;stroke-linecap:butt;stroke-linejoin:miter;stroke-opacity:1"/>
<path class="bond-1 atom-1 atom-2" d="M 394.9,381.0 L 395.1,400.3" style="fill:none;fill-rule:evenodd;stroke:#000000;stroke-width:2.0px;stroke-linecap:butt;stroke-linejoin:miter;stroke-opacity:1"/>
<path class="bond-2 atom-1 atom-3" d="M 390.6,373.5 L 373.1,363.7" style="fill:none;fill-rule:evenodd;stroke:#000000;stroke-width:2.0px;stroke-linecap:butt;stroke-linejoin:miter;stroke-opacity:1"/>
<path class="bond-3 atom-3 atom-4" d="M 364.8,363.8 L 343.4,376.5" style="fill:none;fill-rule:evenodd;stroke:#000000;stroke-width:2.0px;stroke-linecap:butt;stroke-linejoin:miter;stroke-opacity:1"/>
<path class="bond-4 atom-4 atom-5" d="M 341.2,375.3 L 341.5,401.0" style="fill:none;fill-rule:evenodd;stroke:#000000;stroke-width:2.0px;stroke-linecap:butt;stroke-linejoin:miter;stroke-opacity:1"/>
<path class="bond-4 atom-4 atom-5" d="M 345.7,375.2 L 346.0,400.9" style="fill:none;fill-rule:evenodd;stroke:#000000;stroke-width:2.0px;stroke-linecap:butt;stroke-linejoin:miter;stroke-opacity:1"/>
<path class="bond-5 atom-4 atom-6" d="M 343.4,376.5 L 317.6,362.0" style="fill:none;fill-rule:evenodd;stroke:#000000;stroke-width:2.0px;stroke-linecap:butt;stroke-linejoin:miter;stroke-opacity:1"/>
<path class="bond-6 atom-6 atom-7" d="M 317.6,362.0 L 326.3,333.7" style="fill:none;fill-rule:evenodd;stroke:#000000;stroke-width:2.0px;stroke-linecap:butt;stroke-linejoin:miter;stroke-opacity:1"/>
<path class="bond-6 atom-6 atom-7" d="M 313.6,359.8 L 321.8,333.3" style="fill:none;fill-rule:evenodd;stroke:#000000;stroke-width:2.0px;stroke-linecap:butt;stroke-linejoin:miter;stroke-opacity:1"/>
<path class="bond-7 atom-7 atom-8" d="M 326.3,333.7 L 322.8,304.3" style="fill:none;fill-rule:evenodd;stroke:#000000;stroke-width:2.0px;stroke-linecap:butt;stroke-linejoin:miter;stroke-opacity:1"/>
<path class="bond-8 atom-8 atom-9" d="M 322.8,304.3 L 303.3,326.6" style="fill:none;fill-rule:evenodd;stroke:#000000;stroke-width:2.0px;stroke-linecap:butt;stroke-linejoin:miter;stroke-opacity:1"/>
<path class="bond-8 atom-8 atom-9" d="M 319.6,314.7 L 307.3,328.8" style="fill:none;fill-rule:evenodd;stroke:#000000;stroke-width:2.0px;stroke-linecap:butt;stroke-linejoin:miter;stroke-opacity:1"/>
<path class="bond-9 atom-9 atom-10" d="M 303.3,326.6 L 294.5,354.9" style="fill:none;fill-rule:evenodd;stroke:#000000;stroke-width:2.0px;stroke-linecap:butt;stroke-linejoin:miter;stroke-opacity:1"/>
<path class="bond-10 atom-10 atom-11" d="M 294.5,354.9 L 268.5,352.5" style="fill:none;fill-rule:evenodd;stroke:#000000;stroke-width:2.0px;stroke-linecap:butt;stroke-linejoin:miter;stroke-opacity:1"/>
<path class="bond-11 atom-10 atom-12" d="M 294.5,354.9 L 298.0,384.3" style="fill:none;fill-rule:evenodd;stroke:#000000;stroke-width:2.0px;stroke-linecap:butt;stroke-linejoin:miter;stroke-opacity:1"/>
<path class="bond-11 atom-10 atom-12" d="M 299.1,355.3 L 301.3,373.9" style="fill:none;fill-rule:evenodd;stroke:#000000;stroke-width:2.0px;stroke-linecap:butt;stroke-linejoin:miter;stroke-opacity:1"/>
<path class="bond-12 atom-12 atom-13" d="M 298.0,384.3 L 310.1,404.6" style="fill:none;fill-rule:evenodd;stroke:#000000;stroke-width:2.0px;stroke-linecap:butt;stroke-linejoin:miter;stroke-opacity:1"/>
<path class="bond-13 atom-13 atom-14" d="M 317.4,412.8 L 337.4,426.9" style="fill:none;fill-rule:evenodd;stroke:#000000;stroke-width:2.0px;stroke-linecap:butt;stroke-linejoin:miter;stroke-opacity:1"/>
<path class="bond-14 atom-14 atom-15" d="M 335.6,425.6 L 325.9,448.1" style="fill:none;fill-rule:evenodd;stroke:#000000;stroke-width:2.0px;stroke-linecap:butt;stroke-linejoin:miter;stroke-opacity:1"/>
<path class="bond-14 atom-14 atom-15" d="M 339.6,427.4 L 330.0,449.8" style="fill:none;fill-rule:evenodd;stroke:#000000;stroke-width:2.0px;stroke-linecap:butt;stroke-linejoin:miter;stroke-opacity:1"/>
<path class="bond-15 atom-14 atom-16" d="M 337.4,426.9 L 362.3,431.9" style="fill:none;fill-rule:evenodd;stroke:#000000;stroke-width:2.0px;stroke-linecap:butt;stroke-linejoin:miter;stroke-opacity:1"/>
<path class="bond-16 atom-16 atom-17" d="M 366.6,437.9 L 366.9,462.3" style="fill:none;fill-rule:evenodd;stroke:#000000;stroke-width:2.0px;stroke-linecap:butt;stroke-linejoin:miter;stroke-opacity:1"/>
<path class="bond-17 atom-16 atom-18" d="M 370.7,431.8 L 395.4,426.1" style="fill:none;fill-rule:evenodd;stroke:#000000;stroke-width:2.0px;stroke-linecap:butt;stroke-linejoin:miter;stroke-opacity:1"/>
<path class="bond-18 atom-18 atom-19" d="M 395.4,426.1 L 415.0,411.5" style="fill:none;fill-rule:evenodd;stroke:#000000;stroke-width:2.0px;stroke-linecap:butt;stroke-linejoin:miter;stroke-opacity:1"/>
<path class="bond-19 atom-19 atom-20" d="M 422.1,403.2 L 433.7,382.5" style="fill:none;fill-rule:evenodd;stroke:#000000;stroke-width:2.0px;stroke-linecap:butt;stroke-linejoin:miter;stroke-opacity:1"/>
<path class="bond-20 atom-20 atom-21" d="M 433.7,382.5 L 457.9,399.6" style="fill:none;fill-rule:evenodd;stroke:#000000;stroke-width:2.0px;stroke-linecap:butt;stroke-linejoin:miter;stroke-opacity:1"/>
<path class="bond-20 atom-20 atom-21" d="M 438.3,380.4 L 458.3,394.5" style="fill:none;fill-rule:evenodd;stroke:#000000;stroke-width:2.0px;stroke-linecap:butt;stroke-linejoin:miter;stroke-opacity:1"/>
<path class="bond-21 atom-21 atom-22" d="M 457.9,399.6 L 484.8,387.2" style="fill:none;fill-rule:evenodd;stroke:#000000;stroke-width:2.0px;stroke-linecap:butt;stroke-linejoin:miter;stroke-opacity:1"/>
<path class="bond-22 atom-22 atom-23" d="M 484.8,387.2 L 487.5,357.7" style="fill:none;fill-rule:evenodd;stroke:#000000;stroke-width:2.0px;stroke-linecap:butt;stroke-linejoin:miter;stroke-opacity:1"/>
<path class="bond-22 atom-22 atom-23" d="M 480.6,384.2 L 482.8,359.8" style="fill:none;fill-rule:evenodd;stroke:#000000;stroke-width:2.0px;stroke-linecap:butt;stroke-linejoin:miter;stroke-opacity:1"/>
<path class="bond-23 atom-23 atom-24" d="M 487.5,357.7 L 463.3,340.6" style="fill:none;fill-rule:evenodd;stroke:#000000;stroke-width:2.0px;stroke-linecap:butt;stroke-linejoin:miter;stroke-opacity:1"/>
<path class="bond-24 atom-24 atom-25" d="M 463.3,340.6 L 436.4,353.0" style="fill:none;fill-rule:evenodd;stroke:#000000;stroke-width:2.0px;stroke-linecap:butt;stroke-linejoin:miter;stroke-opacity:1"/>
<path class="bond-24 atom-24 atom-25" d="M 462.8,345.7 L 440.5,355.9" style="fill:none;fill-rule:evenodd;stroke:#000000;stroke-width:2.0px;stroke-linecap:butt;stroke-linejoin:miter;stroke-opacity:1"/>
<path class="bond-25 atom-25 atom-26" d="M 436.4,353.0 L 428.6,330.3" style="fill:none;fill-rule:evenodd;stroke:#000000;stroke-width:2.0px;stroke-linecap:butt;stroke-linejoin:miter;stroke-opacity:1"/>
<path class="bond-26 atom-26 atom-27" d="M 423.1,320.9 L 406.7,303.1" style="fill:none;fill-rule:evenodd;stroke:#000000;stroke-width:2.0px;stroke-linecap:butt;stroke-linejoin:miter;stroke-opacity:1"/>
<path class="bond-27 atom-27 atom-28" d="M 406.7,303.1 L 379.4,291.4" style="fill:none;fill-rule:evenodd;stroke:#000000;stroke-width:2.0px;stroke-linecap:butt;stroke-linejoin:miter;stroke-opacity:1"/>
<path class="bond-28 atom-28 atom-29" d="M 379.4,291.4 L 353.9,291.8" style="fill:none;fill-rule:evenodd;stroke:#000000;stroke-width:2.0px;stroke-linecap:butt;stroke-linejoin:miter;stroke-opacity:1"/>
<path class="bond-28 atom-28 atom-29" d="M 378.5,295.9 L 354.0,296.2" style="fill:none;fill-rule:evenodd;stroke:#000000;stroke-width:2.0px;stroke-linecap:butt;stroke-linejoin:miter;stroke-opacity:1"/>
<path class="bond-29 atom-12 atom-6" d="M 298.0,384.3 L 317.6,362.0" style="fill:none;fill-rule:evenodd;stroke:#000000;stroke-width:2.0px;stroke-linecap:butt;stroke-linejoin:miter;stroke-opacity:1"/>
<path class="bond-30 atom-29 atom-8" d="M 345.6,293.8 L 322.8,304.3" style="fill:none;fill-rule:evenodd;stroke:#000000;stroke-width:2.0px;stroke-linecap:butt;stroke-linejoin:miter;stroke-opacity:1"/>
<path class="bond-31 atom-25 atom-20" d="M 436.4,353.0 L 433.7,382.5" style="fill:none;fill-rule:evenodd;stroke:#000000;stroke-width:2.0px;stroke-linecap:butt;stroke-linejoin:miter;stroke-opacity:1"/>
<path d="M 344.5,375.9 L 343.4,376.5 L 342.1,375.8" style="fill:none;stroke:#000000;stroke-width:2.0px;stroke-linecap:butt;stroke-linejoin:miter;stroke-miterlimit:10;stroke-opacity:1;"/>
<path d="M 325.9,335.1 L 326.3,333.7 L 326.2,332.2" style="fill:none;stroke:#000000;stroke-width:2.0px;stroke-linecap:butt;stroke-linejoin:miter;stroke-miterlimit:10;stroke-opacity:1;"/>
<path d="M 304.3,325.5 L 303.3,326.6 L 302.9,328.0" style="fill:none;stroke:#000000;stroke-width:2.0px;stroke-linecap:butt;stroke-linejoin:miter;stroke-miterlimit:10;stroke-opacity:1;"/>
<path d="M 336.4,426.2 L 337.4,426.9 L 338.7,427.2" style="fill:none;stroke:#000000;stroke-width:2.0px;stroke-linecap:butt;stroke-linejoin:miter;stroke-miterlimit:10;stroke-opacity:1;"/>
<path d="M 394.2,426.4 L 395.4,426.1 L 396.4,425.4" style="fill:none;stroke:#000000;stroke-width:2.0px;stroke-linecap:butt;stroke-linejoin:miter;stroke-miterlimit:10;stroke-opacity:1;"/>
<path d="M 456.7,398.8 L 457.9,399.6 L 459.2,399.0" style="fill:none;stroke:#000000;stroke-width:2.0px;stroke-linecap:butt;stroke-linejoin:miter;stroke-miterlimit:10;stroke-opacity:1;"/>
<path d="M 483.5,387.8 L 484.8,387.2 L 484.9,385.7" style="fill:none;stroke:#000000;stroke-width:2.0px;stroke-linecap:butt;stroke-linejoin:miter;stroke-miterlimit:10;stroke-opacity:1;"/>
<path d="M 487.4,359.1 L 487.5,357.7 L 486.3,356.8" style="fill:none;stroke:#000000;stroke-width:2.0px;stroke-linecap:butt;stroke-linejoin:miter;stroke-miterlimit:10;stroke-opacity:1;"/>
<path d="M 464.5,341.4 L 463.3,340.6 L 461.9,341.2" style="fill:none;stroke:#000000;stroke-width:2.0px;stroke-linecap:butt;stroke-linejoin:miter;stroke-miterlimit:10;stroke-opacity:1;"/>
<path d="M 407.5,304.0 L 406.7,303.1 L 405.3,302.6" style="fill:none;stroke:#000000;stroke-width:2.0px;stroke-linecap:butt;stroke-linejoin:miter;stroke-miterlimit:10;stroke-opacity:1;"/>
<path d="M 380.8,292.0 L 379.4,291.4 L 378.1,291.5" style="fill:none;stroke:#000000;stroke-width:2.0px;stroke-linecap:butt;stroke-linejoin:miter;stroke-miterlimit:10;stroke-opacity:1;"/>
<path class="atom-0" d="M 418.4 356.5 L 421.2 360.9 Q 421.4 361.3, 421.9 362.1 Q 422.3 362.9, 422.3 363.0 L 422.3 356.5 L 423.5 356.5 L 423.5 364.9 L 422.3 364.9 L 419.4 360.0 Q 419.0 359.4, 418.6 358.8 Q 418.3 358.1, 418.2 357.9 L 418.2 364.9 L 417.1 364.9 L 417.1 356.5 L 418.4 356.5 " fill="#000000"/>
<path class="atom-0" d="M 425.0 357.8 L 427.9 357.8 L 427.9 358.5 L 425.0 358.5 L 425.0 357.8 " fill="#000000"/>
<path class="atom-1" d="M 392.9 371.6 L 395.7 376.1 Q 396.0 376.5, 396.4 377.3 Q 396.8 378.1, 396.9 378.2 L 396.9 371.6 L 398.0 371.6 L 398.0 380.0 L 396.8 380.0 L 393.9 375.2 Q 393.5 374.6, 393.2 373.9 Q 392.8 373.3, 392.7 373.1 L 392.7 380.0 L 391.6 380.0 L 391.6 371.6 L 392.9 371.6 " fill="#000000"/>
<path class="atom-1" d="M 399.6 373.1 L 401.0 373.1 L 401.0 371.6 L 401.7 371.6 L 401.7 373.1 L 403.2 373.1 L 403.2 373.7 L 401.7 373.7 L 401.7 375.3 L 401.0 375.3 L 401.0 373.7 L 399.6 373.7 L 399.6 373.1 " fill="#000000"/>
<path class="atom-2" d="M 392.8 408.4 Q 392.9 408.4, 393.3 408.6 Q 393.7 408.7, 394.1 408.8 Q 394.6 408.9, 395.0 408.9 Q 395.8 408.9, 396.3 408.5 Q 396.7 408.2, 396.7 407.5 Q 396.7 407.0, 396.5 406.7 Q 396.3 406.5, 395.9 406.3 Q 395.5 406.1, 395.0 406.0 Q 394.2 405.7, 393.8 405.5 Q 393.3 405.3, 393.0 404.9 Q 392.7 404.4, 392.7 403.7 Q 392.7 402.6, 393.4 401.9 Q 394.1 401.3, 395.5 401.3 Q 396.5 401.3, 397.6 401.8 L 397.3 402.7 Q 396.3 402.3, 395.6 402.3 Q 394.8 402.3, 394.3 402.6 Q 393.9 402.9, 393.9 403.5 Q 393.9 404.0, 394.1 404.2 Q 394.3 404.5, 394.7 404.7 Q 395.0 404.8, 395.6 405.0 Q 396.3 405.2, 396.8 405.5 Q 397.2 405.7, 397.6 406.2 Q 397.9 406.7, 397.9 407.5 Q 397.9 408.6, 397.1 409.3 Q 396.3 409.9, 395.0 409.9 Q 394.3 409.9, 393.7 409.7 Q 393.2 409.6, 392.5 409.3 L 392.8 408.4 " fill="#000000"/>
<path class="atom-2" d="M 398.9 402.6 L 401.8 402.6 L 401.8 403.2 L 398.9 403.2 L 398.9 402.6 " fill="#000000"/>
<path class="atom-3" d="M 367.1 357.2 L 369.8 361.6 Q 370.1 362.0, 370.5 362.8 Q 371.0 363.6, 371.0 363.7 L 371.0 357.2 L 372.1 357.2 L 372.1 365.5 L 371.0 365.5 L 368.0 360.7 Q 367.7 360.1, 367.3 359.5 Q 366.9 358.8, 366.8 358.6 L 366.8 365.5 L 365.7 365.5 L 365.7 357.2 L 367.1 357.2 " fill="#000000"/>
<path class="atom-3" d="M 365.6 347.9 L 366.8 347.9 L 366.8 351.5 L 371.1 351.5 L 371.1 347.9 L 372.2 347.9 L 372.2 356.3 L 371.1 356.3 L 371.1 352.4 L 366.8 352.4 L 366.8 356.3 L 365.6 356.3 L 365.6 347.9 " fill="#000000"/>
<path class="atom-5" d="M 340.0 406.2 Q 340.0 404.2, 341.0 403.1 Q 342.0 401.9, 343.8 401.9 Q 345.7 401.9, 346.7 403.1 Q 347.7 404.2, 347.7 406.2 Q 347.7 408.2, 346.7 409.4 Q 345.7 410.5, 343.8 410.5 Q 342.0 410.5, 341.0 409.4 Q 340.0 408.2, 340.0 406.2 M 343.8 409.6 Q 345.1 409.6, 345.8 408.7 Q 346.5 407.9, 346.5 406.2 Q 346.5 404.5, 345.8 403.7 Q 345.1 402.9, 343.8 402.9 Q 342.6 402.9, 341.9 403.7 Q 341.2 404.5, 341.2 406.2 Q 341.2 407.9, 341.9 408.7 Q 342.6 409.6, 343.8 409.6 " fill="#000000"/>
<path class="atom-11" d="M 262.5 348.0 L 267.5 348.0 L 267.5 349.0 L 263.6 349.0 L 263.6 351.5 L 267.1 351.5 L 267.1 352.5 L 263.6 352.5 L 263.6 356.4 L 262.5 356.4 L 262.5 348.0 " fill="#000000"/>
<path class="atom-13" d="M 301.8 405.6 L 302.9 405.6 L 302.9 409.2 L 307.2 409.2 L 307.2 405.6 L 308.4 405.6 L 308.4 414.0 L 307.2 414.0 L 307.2 410.1 L 302.9 410.1 L 302.9 414.0 L 301.8 414.0 L 301.8 405.6 " fill="#000000"/>
<path class="atom-13" d="M 311.3 405.6 L 314.1 410.1 Q 314.4 410.5, 314.8 411.3 Q 315.2 412.1, 315.3 412.1 L 315.3 405.6 L 316.4 405.6 L 316.4 414.0 L 315.2 414.0 L 312.3 409.2 Q 311.9 408.6, 311.6 407.9 Q 311.2 407.3, 311.1 407.1 L 311.1 414.0 L 310.0 414.0 L 310.0 405.6 L 311.3 405.6 " fill="#000000"/>
<path class="atom-15" d="M 321.9 454.2 Q 321.9 452.2, 322.9 451.1 Q 323.9 449.9, 325.7 449.9 Q 327.6 449.9, 328.6 451.1 Q 329.6 452.2, 329.6 454.2 Q 329.6 456.2, 328.6 457.4 Q 327.6 458.6, 325.7 458.6 Q 323.9 458.6, 322.9 457.4 Q 321.9 456.3, 321.9 454.2 M 325.7 457.6 Q 327.0 457.6, 327.7 456.7 Q 328.4 455.9, 328.4 454.2 Q 328.4 452.6, 327.7 451.7 Q 327.0 450.9, 325.7 450.9 Q 324.4 450.9, 323.7 451.7 Q 323.1 452.5, 323.1 454.2 Q 323.1 455.9, 323.7 456.7 Q 324.4 457.6, 325.7 457.6 " fill="#000000"/>
<path class="atom-16" d="M 364.6 428.5 L 367.4 432.9 Q 367.7 433.4, 368.1 434.2 Q 368.5 435.0, 368.6 435.0 L 368.6 428.5 L 369.7 428.5 L 369.7 436.9 L 368.5 436.9 L 365.6 432.0 Q 365.2 431.5, 364.9 430.8 Q 364.5 430.2, 364.4 430.0 L 364.4 436.9 L 363.3 436.9 L 363.3 428.5 L 364.6 428.5 " fill="#000000"/>
<path class="atom-19" d="M 417.3 404.2 L 420.1 408.6 Q 420.3 409.1, 420.8 409.9 Q 421.2 410.7, 421.2 410.7 L 421.2 404.2 L 422.4 404.2 L 422.4 412.6 L 421.2 412.6 L 418.3 407.7 Q 417.9 407.2, 417.5 406.5 Q 417.2 405.9, 417.1 405.7 L 417.1 412.6 L 416.0 412.6 L 416.0 404.2 L 417.3 404.2 " fill="#000000"/>
<path class="atom-19" d="M 423.9 405.6 L 426.8 405.6 L 426.8 406.2 L 423.9 406.2 L 423.9 405.6 " fill="#000000"/>
<path class="atom-26" d="M 424.4 327.8 Q 424.5 327.8, 424.9 328.0 Q 425.3 328.2, 425.7 328.3 Q 426.2 328.4, 426.6 328.4 Q 427.4 328.4, 427.9 328.0 Q 428.3 327.6, 428.3 326.9 Q 428.3 326.5, 428.1 326.2 Q 427.9 325.9, 427.5 325.7 Q 427.2 325.6, 426.6 325.4 Q 425.8 325.2, 425.4 325.0 Q 424.9 324.7, 424.6 324.3 Q 424.3 323.8, 424.3 323.1 Q 424.3 322.0, 425.0 321.4 Q 425.7 320.7, 427.2 320.7 Q 428.1 320.7, 429.2 321.2 L 429.0 322.1 Q 427.9 321.7, 427.2 321.7 Q 426.4 321.7, 425.9 322.0 Q 425.5 322.4, 425.5 322.9 Q 425.5 323.4, 425.7 323.7 Q 425.9 323.9, 426.3 324.1 Q 426.6 324.2, 427.2 324.4 Q 427.9 324.7, 428.4 324.9 Q 428.9 325.1, 429.2 325.6 Q 429.5 326.1, 429.5 326.9 Q 429.5 328.1, 428.7 328.7 Q 427.9 329.3, 426.7 329.3 Q 425.9 329.3, 425.3 329.2 Q 424.8 329.0, 424.1 328.7 L 424.4 327.8 " fill="#000000"/>
<path class="atom-26" d="M 430.5 322.0 L 433.4 322.0 L 433.4 322.6 L 430.5 322.6 L 430.5 322.0 " fill="#000000"/>
<path class="atom-29" d="M 347.9 287.7 L 350.7 292.1 Q 350.9 292.5, 351.4 293.3 Q 351.8 294.1, 351.8 294.2 L 351.8 287.7 L 353.0 287.7 L 353.0 296.0 L 351.8 296.0 L 348.9 291.2 Q 348.5 290.6, 348.1 290.0 Q 347.8 289.3, 347.7 289.1 L 347.7 296.0 L 346.6 296.0 L 346.6 287.7 L 347.9 287.7 " fill="#000000"/>
<path class="atom-26" d="M 435.8,324.9 L 435.8,325.0 L 435.8,325.0 L 435.8,325.1 L 435.8,325.1 L 435.7,325.2 L 435.7,325.2 L 435.7,325.2 L 435.7,325.3 L 435.6,325.3 L 435.6,325.4 L 435.5,325.4 L 435.5,325.4 L 435.5,325.4 L 435.4,325.5 L 435.4,325.5 L 435.3,325.5 L 435.3,325.5 L 435.2,325.5 L 435.2,325.5 L 435.1,325.5 L 435.1,325.5 L 435.0,325.5 L 435.0,325.5 L 434.9,325.4 L 434.9,325.4 L 434.8,325.4 L 434.8,325.3 L 434.8,325.3 L 434.7,325.3 L 434.7,325.2 L 434.7,325.2 L 434.7,325.1 L 434.6,325.1 L 434.6,325.0 L 434.6,325.0 L 434.6,324.9 L 434.6,324.9 L 434.6,324.8 L 434.6,324.8 L 434.6,324.7 L 434.7,324.7 L 434.7,324.6 L 434.7,324.6 L 434.7,324.6 L 434.8,324.5 L 434.8,324.5 L 434.8,324.4 L 434.9,324.4 L 434.9,324.4 L 435.0,324.4 L 435.0,324.3 L 435.1,324.3 L 435.1,324.3 L 435.2,324.3 L 435.2,324.3 L 435.3,324.3 L 435.3,324.3 L 435.4,324.3 L 435.4,324.4 L 435.5,324.4 L 435.5,324.4 L 435.5,324.4 L 435.6,324.5 L 435.6,324.5 L 435.7,324.5 L 435.7,324.6 L 435.7,324.6 L 435.7,324.7 L 435.8,324.7 L 435.8,324.8 L 435.8,324.8 L 435.8,324.9 L 435.8,324.9 L 435.2,324.9 Z" style="fill:#000000;fill-rule:evenodd;fill-opacity:1;stroke:#000000;stroke-width:0.0px;stroke-linecap:butt;stroke-linejoin:miter;stroke-miterlimit:10;stroke-opacity:1;"/>
<path class="bond-0 atom-0 atom-1" d="M 625.0,308.6 L 625.0,385.1" style="fill:none;fill-rule:evenodd;stroke:#000000;stroke-width:2.0px;stroke-linecap:butt;stroke-linejoin:miter;stroke-opacity:1"/>
<path class="bond-1 atom-1 atom-2" d="M 608.0,403.0 L 539.7,442.4" style="fill:none;fill-rule:evenodd;stroke:#000000;stroke-width:2.0px;stroke-linecap:butt;stroke-linejoin:miter;stroke-opacity:1"/>
<path class="bond-1 atom-1 atom-2" d="M 616.4,417.6 L 548.1,457.1" style="fill:none;fill-rule:evenodd;stroke:#000000;stroke-width:2.0px;stroke-linecap:butt;stroke-linejoin:miter;stroke-opacity:1"/>
<path class="bond-2 atom-1 atom-3" d="M 633.6,417.6 L 701.9,457.1" style="fill:none;fill-rule:evenodd;stroke:#000000;stroke-width:2.0px;stroke-linecap:butt;stroke-linejoin:miter;stroke-opacity:1"/>
<path class="bond-2 atom-1 atom-3" d="M 642.0,403.0 L 710.3,442.4" style="fill:none;fill-rule:evenodd;stroke:#000000;stroke-width:2.0px;stroke-linecap:butt;stroke-linejoin:miter;stroke-opacity:1"/>
<path class="atom-0" d="M 617.0 299.7 Q 617.3 299.8, 618.6 300.4 Q 620.0 300.9, 621.4 301.3 Q 622.9 301.6, 624.3 301.6 Q 627.0 301.6, 628.6 300.3 Q 630.1 299.0, 630.1 296.7 Q 630.1 295.2, 629.3 294.2 Q 628.6 293.2, 627.4 292.7 Q 626.2 292.2, 624.2 291.6 Q 621.6 290.8, 620.1 290.1 Q 618.6 289.4, 617.6 287.9 Q 616.5 286.4, 616.5 283.8 Q 616.5 280.2, 618.9 278.0 Q 621.4 275.8, 626.2 275.8 Q 629.4 275.8, 633.2 277.4 L 632.2 280.5 Q 628.8 279.1, 626.3 279.1 Q 623.5 279.1, 622.0 280.2 Q 620.5 281.4, 620.5 283.3 Q 620.5 284.8, 621.3 285.8 Q 622.1 286.7, 623.2 287.2 Q 624.4 287.7, 626.3 288.3 Q 628.8 289.1, 630.4 289.9 Q 631.9 290.7, 633.0 292.4 Q 634.1 294.0, 634.1 296.7 Q 634.1 300.6, 631.4 302.8 Q 628.8 304.8, 624.5 304.8 Q 622.0 304.8, 620.0 304.3 Q 618.2 303.8, 615.9 302.8 L 617.0 299.7 " fill="#000000"/>
<path class="atom-0" d="M 637.6 280.1 L 647.3 280.1 L 647.3 282.2 L 637.6 282.2 L 637.6 280.1 " fill="#000000"/>
<path class="atom-1" d="M 617.0 412.6 Q 617.3 412.8, 618.6 413.3 Q 620.0 413.9, 621.4 414.2 Q 622.9 414.6, 624.3 414.6 Q 627.0 414.6, 628.6 413.3 Q 630.1 412.0, 630.1 409.7 Q 630.1 408.1, 629.3 407.2 Q 628.6 406.2, 627.4 405.7 Q 626.2 405.2, 624.2 404.6 Q 621.6 403.8, 620.1 403.1 Q 618.6 402.4, 617.6 400.8 Q 616.5 399.3, 616.5 396.8 Q 616.5 393.2, 618.9 391.0 Q 621.4 388.8, 626.2 388.8 Q 629.4 388.8, 633.2 390.4 L 632.2 393.4 Q 628.8 392.0, 626.3 392.0 Q 623.5 392.0, 622.0 393.2 Q 620.5 394.3, 620.5 396.3 Q 620.5 397.8, 621.3 398.7 Q 622.1 399.6, 623.2 400.2 Q 624.4 400.7, 626.3 401.3 Q 628.8 402.1, 630.4 402.9 Q 631.9 403.7, 633.0 405.3 Q 634.1 406.9, 634.1 409.7 Q 634.1 413.6, 631.4 415.7 Q 628.8 417.8, 624.5 417.8 Q 622.0 417.8, 620.0 417.2 Q 618.2 416.7, 615.9 415.8 L 617.0 412.6 " fill="#000000"/>
<path class="atom-1" d="M 613.9 420.7 L 617.8 420.7 L 617.8 432.7 L 632.2 432.7 L 632.2 420.7 L 636.1 420.7 L 636.1 449.0 L 632.2 449.0 L 632.2 435.9 L 617.8 435.9 L 617.8 449.0 L 613.9 449.0 L 613.9 420.7 " fill="#000000"/>
<path class="atom-2" d="M 514.2 459.5 Q 514.2 452.7, 517.5 448.9 Q 520.9 445.1, 527.2 445.1 Q 533.5 445.1, 536.8 448.9 Q 540.2 452.7, 540.2 459.5 Q 540.2 466.4, 536.8 470.3 Q 533.4 474.2, 527.2 474.2 Q 520.9 474.2, 517.5 470.3 Q 514.2 466.4, 514.2 459.5 M 527.2 471.0 Q 531.5 471.0, 533.8 468.1 Q 536.2 465.2, 536.2 459.5 Q 536.2 453.9, 533.8 451.1 Q 531.5 448.3, 527.2 448.3 Q 522.9 448.3, 520.5 451.1 Q 518.2 453.9, 518.2 459.5 Q 518.2 465.2, 520.5 468.1 Q 522.9 471.0, 527.2 471.0 " fill="#000000"/>
<path class="atom-3" d="M 709.8 459.5 Q 709.8 452.7, 713.2 448.9 Q 716.5 445.1, 722.8 445.1 Q 729.1 445.1, 732.5 448.9 Q 735.8 452.7, 735.8 459.5 Q 735.8 466.4, 732.4 470.3 Q 729.0 474.2, 722.8 474.2 Q 716.6 474.2, 713.2 470.3 Q 709.8 466.4, 709.8 459.5 M 722.8 471.0 Q 727.1 471.0, 729.5 468.1 Q 731.8 465.2, 731.8 459.5 Q 731.8 453.9, 729.5 451.1 Q 727.1 448.3, 722.8 448.3 Q 718.5 448.3, 716.1 451.1 Q 713.8 453.9, 713.8 459.5 Q 713.8 465.2, 716.1 468.1 Q 718.5 471.0, 722.8 471.0 " fill="#000000"/>
<path class="bond-0 atom-0 atom-1" d="M 78.6,627.7 L 86.7,653.4" style="fill:none;fill-rule:evenodd;stroke:#000000;stroke-width:2.0px;stroke-linecap:butt;stroke-linejoin:miter;stroke-opacity:1"/>
<path class="bond-1 atom-1 atom-2" d="M 85.9,650.9 L 63.9,666.7" style="fill:none;fill-rule:evenodd;stroke:#000000;stroke-width:2.0px;stroke-linecap:butt;stroke-linejoin:miter;stroke-opacity:1"/>
<path class="bond-1 atom-1 atom-2" d="M 88.8,654.9 L 66.7,670.7" style="fill:none;fill-rule:evenodd;stroke:#000000;stroke-width:2.0px;stroke-linecap:butt;stroke-linejoin:miter;stroke-opacity:1"/>
<path class="bond-2 atom-1 atom-3" d="M 86.7,653.4 L 108.6,669.5" style="fill:none;fill-rule:evenodd;stroke:#000000;stroke-width:2.0px;stroke-linecap:butt;stroke-linejoin:miter;stroke-opacity:1"/>
<path class="bond-3 atom-3 atom-4" d="M 117.8,672.9 L 146.1,673.1" style="fill:none;fill-rule:evenodd;stroke:#000000;stroke-width:2.0px;stroke-linecap:butt;stroke-linejoin:miter;stroke-opacity:1"/>
<path class="bond-4 atom-4 atom-5" d="M 146.1,673.1 L 149.3,705.8" style="fill:none;fill-rule:evenodd;stroke:#000000;stroke-width:2.0px;stroke-linecap:butt;stroke-linejoin:miter;stroke-opacity:1"/>
<path class="bond-5 atom-5 atom-6" d="M 149.3,705.8 L 179.3,719.4" style="fill:none;fill-rule:evenodd;stroke:#000000;stroke-width:2.0px;stroke-linecap:butt;stroke-linejoin:miter;stroke-opacity:1"/>
<path class="bond-6 atom-6 atom-7" d="M 179.3,719.4 L 206.1,700.2" style="fill:none;fill-rule:evenodd;stroke:#000000;stroke-width:2.0px;stroke-linecap:butt;stroke-linejoin:miter;stroke-opacity:1"/>
<path class="bond-7 atom-7 atom-8" d="M 206.1,700.2 L 202.8,667.4" style="fill:none;fill-rule:evenodd;stroke:#000000;stroke-width:2.0px;stroke-linecap:butt;stroke-linejoin:miter;stroke-opacity:1"/>
<path class="bond-8 atom-8 atom-9" d="M 202.8,667.4 L 172.8,653.9" style="fill:none;fill-rule:evenodd;stroke:#000000;stroke-width:2.0px;stroke-linecap:butt;stroke-linejoin:miter;stroke-opacity:1"/>
<path class="bond-9 atom-9 atom-10" d="M 172.8,653.9 L 183.2,622.7" style="fill:none;fill-rule:evenodd;stroke:#000000;stroke-width:2.0px;stroke-linecap:butt;stroke-linejoin:miter;stroke-opacity:1"/>
<path class="bond-10 atom-10 atom-11" d="M 183.2,622.7 L 215.3,629.7" style="fill:none;fill-rule:evenodd;stroke:#000000;stroke-width:2.0px;stroke-linecap:butt;stroke-linejoin:miter;stroke-opacity:1"/>
<path class="bond-10 atom-10 atom-11" d="M 187.0,618.5 L 213.6,624.3" style="fill:none;fill-rule:evenodd;stroke:#000000;stroke-width:2.0px;stroke-linecap:butt;stroke-linejoin:miter;stroke-opacity:1"/>
<path class="bond-11 atom-11 atom-12" d="M 215.3,629.7 L 237.5,605.4" style="fill:none;fill-rule:evenodd;stroke:#000000;stroke-width:2.0px;stroke-linecap:butt;stroke-linejoin:miter;stroke-opacity:1"/>
<path class="bond-12 atom-12 atom-13" d="M 237.5,605.4 L 227.5,574.0" style="fill:none;fill-rule:evenodd;stroke:#000000;stroke-width:2.0px;stroke-linecap:butt;stroke-linejoin:miter;stroke-opacity:1"/>
<path class="bond-12 atom-12 atom-13" d="M 232.0,604.2 L 223.7,578.2" style="fill:none;fill-rule:evenodd;stroke:#000000;stroke-width:2.0px;stroke-linecap:butt;stroke-linejoin:miter;stroke-opacity:1"/>
<path class="bond-13 atom-13 atom-14" d="M 227.5,574.0 L 195.4,567.0" style="fill:none;fill-rule:evenodd;stroke:#000000;stroke-width:2.0px;stroke-linecap:butt;stroke-linejoin:miter;stroke-opacity:1"/>
<path class="bond-14 atom-14 atom-15" d="M 195.4,567.0 L 187.4,541.8" style="fill:none;fill-rule:evenodd;stroke:#000000;stroke-width:2.0px;stroke-linecap:butt;stroke-linejoin:miter;stroke-opacity:1"/>
<path class="bond-15 atom-14 atom-16" d="M 195.4,567.0 L 173.2,591.3" style="fill:none;fill-rule:evenodd;stroke:#000000;stroke-width:2.0px;stroke-linecap:butt;stroke-linejoin:miter;stroke-opacity:1"/>
<path class="bond-15 atom-14 atom-16" d="M 197.1,572.3 L 178.7,592.5" style="fill:none;fill-rule:evenodd;stroke:#000000;stroke-width:2.0px;stroke-linecap:butt;stroke-linejoin:miter;stroke-opacity:1"/>
<path class="bond-16 atom-16 atom-17" d="M 173.2,591.3 L 146.7,571.8" style="fill:none;fill-rule:evenodd;stroke:#000000;stroke-width:2.0px;stroke-linecap:butt;stroke-linejoin:miter;stroke-opacity:1"/>
<path class="bond-17 atom-17 atom-18" d="M 146.7,571.8 L 113.8,571.6" style="fill:none;fill-rule:evenodd;stroke:#000000;stroke-width:2.0px;stroke-linecap:butt;stroke-linejoin:miter;stroke-opacity:1"/>
<path class="bond-18 atom-18 atom-19" d="M 113.8,571.6 L 87.1,590.8" style="fill:none;fill-rule:evenodd;stroke:#000000;stroke-width:2.0px;stroke-linecap:butt;stroke-linejoin:miter;stroke-opacity:1"/>
<path class="bond-18 atom-18 atom-19" d="M 115.4,576.5 L 91.2,593.8" style="fill:none;fill-rule:evenodd;stroke:#000000;stroke-width:2.0px;stroke-linecap:butt;stroke-linejoin:miter;stroke-opacity:1"/>
<path class="bond-19 atom-19 atom-20" d="M 87.1,590.8 L 55.9,580.4" style="fill:none;fill-rule:evenodd;stroke:#000000;stroke-width:2.0px;stroke-linecap:butt;stroke-linejoin:miter;stroke-opacity:1"/>
<path class="bond-20 atom-20 atom-21" d="M 55.9,580.4 L 45.5,611.7" style="fill:none;fill-rule:evenodd;stroke:#000000;stroke-width:2.0px;stroke-linecap:butt;stroke-linejoin:miter;stroke-opacity:1"/>
<path class="bond-20 atom-20 atom-21" d="M 58.9,586.6 L 51.7,608.6" style="fill:none;fill-rule:evenodd;stroke:#000000;stroke-width:2.0px;stroke-linecap:butt;stroke-linejoin:miter;stroke-opacity:1"/>
<path class="bond-21 atom-21 atom-22" d="M 45.5,611.7 L 24.6,622.2" style="fill:none;fill-rule:evenodd;stroke:#000000;stroke-width:2.0px;stroke-linecap:butt;stroke-linejoin:miter;stroke-opacity:1"/>
<path class="bond-22 atom-19 atom-0" d="M 87.1,590.8 L 78.6,616.3" style="fill:none;fill-rule:evenodd;stroke:#000000;stroke-width:2.0px;stroke-linecap:butt;stroke-linejoin:miter;stroke-opacity:1"/>
<path class="bond-23 atom-21 atom-0" d="M 45.5,611.7 L 72.1,620.5" style="fill:none;fill-rule:evenodd;stroke:#000000;stroke-width:2.0px;stroke-linecap:butt;stroke-linejoin:miter;stroke-opacity:1"/>
<path class="bond-24 atom-9 atom-4" d="M 172.8,653.9 L 146.1,673.1" style="fill:none;fill-rule:evenodd;stroke:#000000;stroke-width:2.0px;stroke-linecap:butt;stroke-linejoin:miter;stroke-opacity:1"/>
<path class="bond-25 atom-16 atom-10" d="M 173.2,591.3 L 183.2,622.7" style="fill:none;fill-rule:evenodd;stroke:#000000;stroke-width:2.0px;stroke-linecap:butt;stroke-linejoin:miter;stroke-opacity:1"/>
<path class="bond-26 atom-9 atom-23" d="M 172.8,653.9 L 159.5,647.1 L 162.4,643.2 Z" style="fill:#000000;fill-rule:evenodd;fill-opacity:1;stroke:#000000;stroke-width:0.5px;stroke-linecap:butt;stroke-linejoin:miter;stroke-miterlimit:10;stroke-opacity:1;"/>
<path d="M 86.3,652.1 L 86.7,653.4 L 87.8,654.2" style="fill:none;stroke:#000000;stroke-width:2.0px;stroke-linecap:butt;stroke-linejoin:miter;stroke-miterlimit:10;stroke-opacity:1;"/>
<path d="M 149.2,704.2 L 149.3,705.8 L 150.8,706.5" style="fill:none;stroke:#000000;stroke-width:2.0px;stroke-linecap:butt;stroke-linejoin:miter;stroke-miterlimit:10;stroke-opacity:1;"/>
<path d="M 177.8,718.7 L 179.3,719.4 L 180.7,718.4" style="fill:none;stroke:#000000;stroke-width:2.0px;stroke-linecap:butt;stroke-linejoin:miter;stroke-miterlimit:10;stroke-opacity:1;"/>
<path d="M 204.7,701.1 L 206.1,700.2 L 205.9,698.5" style="fill:none;stroke:#000000;stroke-width:2.0px;stroke-linecap:butt;stroke-linejoin:miter;stroke-miterlimit:10;stroke-opacity:1;"/>
<path d="M 203.0,669.1 L 202.8,667.4 L 201.3,666.8" style="fill:none;stroke:#000000;stroke-width:2.0px;stroke-linecap:butt;stroke-linejoin:miter;stroke-miterlimit:10;stroke-opacity:1;"/>
<path d="M 213.7,629.3 L 215.3,629.7 L 216.4,628.5" style="fill:none;stroke:#000000;stroke-width:2.0px;stroke-linecap:butt;stroke-linejoin:miter;stroke-miterlimit:10;stroke-opacity:1;"/>
<path d="M 236.4,606.6 L 237.5,605.4 L 237.0,603.8" style="fill:none;stroke:#000000;stroke-width:2.0px;stroke-linecap:butt;stroke-linejoin:miter;stroke-miterlimit:10;stroke-opacity:1;"/>
<path d="M 228.0,575.6 L 227.5,574.0 L 225.9,573.7" style="fill:none;stroke:#000000;stroke-width:2.0px;stroke-linecap:butt;stroke-linejoin:miter;stroke-miterlimit:10;stroke-opacity:1;"/>
<path d="M 148.0,572.8 L 146.7,571.8 L 145.1,571.8" style="fill:none;stroke:#000000;stroke-width:2.0px;stroke-linecap:butt;stroke-linejoin:miter;stroke-miterlimit:10;stroke-opacity:1;"/>
<path d="M 115.5,571.6 L 113.8,571.6 L 112.5,572.6" style="fill:none;stroke:#000000;stroke-width:2.0px;stroke-linecap:butt;stroke-linejoin:miter;stroke-miterlimit:10;stroke-opacity:1;"/>
<path d="M 57.4,580.9 L 55.9,580.4 L 55.3,582.0" style="fill:none;stroke:#000000;stroke-width:2.0px;stroke-linecap:butt;stroke-linejoin:miter;stroke-miterlimit:10;stroke-opacity:1;"/>
<path class="atom-0" d="M 74.7 617.3 L 77.7 622.3 Q 78.0 622.8, 78.5 623.7 Q 79.0 624.5, 79.0 624.6 L 79.0 617.3 L 80.3 617.3 L 80.3 626.7 L 79.0 626.7 L 75.7 621.3 Q 75.3 620.6, 74.9 619.9 Q 74.5 619.2, 74.4 619.0 L 74.4 626.7 L 73.2 626.7 L 73.2 617.3 L 74.7 617.3 " fill="#000000"/>
<path class="atom-2" d="M 55.7 672.6 Q 55.7 670.3, 56.8 669.1 Q 57.9 667.8, 60.0 667.8 Q 62.0 667.8, 63.1 669.1 Q 64.2 670.3, 64.2 672.6 Q 64.2 674.8, 63.1 676.1 Q 62.0 677.4, 60.0 677.4 Q 57.9 677.4, 56.8 676.1 Q 55.7 674.8, 55.7 672.6 M 60.0 676.3 Q 61.4 676.3, 62.2 675.4 Q 62.9 674.4, 62.9 672.6 Q 62.9 670.7, 62.2 669.8 Q 61.4 668.9, 60.0 668.9 Q 58.5 668.9, 57.8 669.8 Q 57.0 670.7, 57.0 672.6 Q 57.0 674.4, 57.8 675.4 Q 58.5 676.3, 60.0 676.3 " fill="#000000"/>
<path class="atom-3" d="M 111.1 668.2 L 114.2 673.1 Q 114.5 673.6, 115.0 674.5 Q 115.5 675.4, 115.5 675.4 L 115.5 668.2 L 116.7 668.2 L 116.7 677.5 L 115.5 677.5 L 112.2 672.1 Q 111.8 671.5, 111.4 670.8 Q 111.0 670.0, 110.9 669.8 L 110.9 677.5 L 109.7 677.5 L 109.7 668.2 L 111.1 668.2 " fill="#000000"/>
<path class="atom-3" d="M 109.6 678.5 L 110.8 678.5 L 110.8 682.4 L 115.6 682.4 L 115.6 678.5 L 116.9 678.5 L 116.9 687.8 L 115.6 687.8 L 115.6 683.5 L 110.8 683.5 L 110.8 687.8 L 109.6 687.8 L 109.6 678.5 " fill="#000000"/>
<path class="atom-15" d="M 181.8 536.0 Q 181.8 533.6, 182.9 532.4 Q 184.0 531.2, 186.0 531.2 Q 188.0 531.2, 189.0 532.6 L 188.1 533.3 Q 187.4 532.3, 186.0 532.3 Q 184.6 532.3, 183.9 533.2 Q 183.2 534.2, 183.2 536.0 Q 183.2 537.8, 183.9 538.7 Q 184.7 539.7, 186.2 539.7 Q 187.2 539.7, 188.4 539.1 L 188.8 540.1 Q 188.3 540.4, 187.6 540.6 Q 186.8 540.7, 186.0 540.7 Q 184.0 540.7, 182.9 539.5 Q 181.8 538.3, 181.8 536.0 " fill="#000000"/>
<path class="atom-15" d="M 189.9 530.6 L 191.2 530.6 L 191.2 540.6 L 189.9 540.6 L 189.9 530.6 " fill="#000000"/>
<path class="atom-22" d="M 12.5 626.5 Q 12.5 624.1, 13.6 622.9 Q 14.7 621.7, 16.7 621.7 Q 18.7 621.7, 19.7 623.1 L 18.8 623.8 Q 18.1 622.8, 16.7 622.8 Q 15.3 622.8, 14.6 623.7 Q 13.8 624.7, 13.8 626.5 Q 13.8 628.3, 14.6 629.2 Q 15.4 630.2, 16.9 630.2 Q 17.9 630.2, 19.1 629.6 L 19.5 630.6 Q 19.0 630.9, 18.3 631.1 Q 17.5 631.2, 16.7 631.2 Q 14.7 631.2, 13.6 630.0 Q 12.5 628.8, 12.5 626.5 " fill="#000000"/>
<path class="atom-22" d="M 20.8 623.2 L 24.0 623.2 L 24.0 623.9 L 20.8 623.9 L 20.8 623.2 " fill="#000000"/>
<path class="atom-23" d="M 151.5 636.2 L 152.8 636.2 L 152.8 640.2 L 157.6 640.2 L 157.6 636.2 L 158.8 636.2 L 158.8 645.5 L 157.6 645.5 L 157.6 641.2 L 152.8 641.2 L 152.8 645.5 L 151.5 645.5 L 151.5 636.2 " fill="#000000"/>
<path class="bond-0 atom-0 atom-1" d="M 335.6,679.6 L 348.2,694.0" style="fill:none;fill-rule:evenodd;stroke:#000000;stroke-width:2.0px;stroke-linecap:butt;stroke-linejoin:miter;stroke-opacity:1"/>
<path class="bond-1 atom-0 atom-2" d="M 332.8,668.2 L 339.8,647.5" style="fill:none;fill-rule:evenodd;stroke:#000000;stroke-width:2.0px;stroke-linecap:butt;stroke-linejoin:miter;stroke-opacity:1"/>
<path class="bond-2 atom-2 atom-3" d="M 337.0,636.0 L 319.1,615.6" style="fill:none;fill-rule:evenodd;stroke:#000000;stroke-width:2.0px;stroke-linecap:butt;stroke-linejoin:miter;stroke-opacity:1"/>
<path class="bond-3 atom-3 atom-4" d="M 319.1,615.6 L 285.3,622.4" style="fill:none;fill-rule:evenodd;stroke:#000000;stroke-width:2.0px;stroke-linecap:butt;stroke-linejoin:miter;stroke-opacity:1"/>
<path class="bond-3 atom-3 atom-4" d="M 315.2,611.2 L 287.1,616.8" style="fill:none;fill-rule:evenodd;stroke:#000000;stroke-width:2.0px;stroke-linecap:butt;stroke-linejoin:miter;stroke-opacity:1"/>
<path class="bond-4 atom-4 atom-5" d="M 285.3,622.4 L 262.5,596.5" style="fill:none;fill-rule:evenodd;stroke:#000000;stroke-width:2.0px;stroke-linecap:butt;stroke-linejoin:miter;stroke-opacity:1"/>
<path class="bond-5 atom-5 atom-6" d="M 262.5,596.5 L 273.5,563.9" style="fill:none;fill-rule:evenodd;stroke:#000000;stroke-width:2.0px;stroke-linecap:butt;stroke-linejoin:miter;stroke-opacity:1"/>
<path class="bond-5 atom-5 atom-6" d="M 268.3,595.4 L 277.4,568.3" style="fill:none;fill-rule:evenodd;stroke:#000000;stroke-width:2.0px;stroke-linecap:butt;stroke-linejoin:miter;stroke-opacity:1"/>
<path class="bond-6 atom-6 atom-7" d="M 273.5,563.9 L 307.3,557.1" style="fill:none;fill-rule:evenodd;stroke:#000000;stroke-width:2.0px;stroke-linecap:butt;stroke-linejoin:miter;stroke-opacity:1"/>
<path class="bond-7 atom-7 atom-8" d="M 307.3,557.1 L 330.1,583.0" style="fill:none;fill-rule:evenodd;stroke:#000000;stroke-width:2.0px;stroke-linecap:butt;stroke-linejoin:miter;stroke-opacity:1"/>
<path class="bond-7 atom-7 atom-8" d="M 305.4,562.7 L 324.3,584.1" style="fill:none;fill-rule:evenodd;stroke:#000000;stroke-width:2.0px;stroke-linecap:butt;stroke-linejoin:miter;stroke-opacity:1"/>
<path class="bond-8 atom-9 atom-8" d="M 360.4,576.6 L 360.6,577.2" style="fill:none;fill-rule:evenodd;stroke:#000000;stroke-width:1.0px;stroke-linecap:butt;stroke-linejoin:miter;stroke-opacity:1"/>
<path class="bond-8 atom-9 atom-8" d="M 357.0,577.0 L 357.2,578.1" style="fill:none;fill-rule:evenodd;stroke:#000000;stroke-width:1.0px;stroke-linecap:butt;stroke-linejoin:miter;stroke-opacity:1"/>
<path class="bond-8 atom-9 atom-8" d="M 353.6,577.4 L 353.9,579.1" style="fill:none;fill-rule:evenodd;stroke:#000000;stroke-width:1.0px;stroke-linecap:butt;stroke-linejoin:miter;stroke-opacity:1"/>
<path class="bond-8 atom-9 atom-8" d="M 350.1,577.8 L 350.6,580.0" style="fill:none;fill-rule:evenodd;stroke:#000000;stroke-width:1.0px;stroke-linecap:butt;stroke-linejoin:miter;stroke-opacity:1"/>
<path class="bond-8 atom-9 atom-8" d="M 346.7,578.2 L 347.3,581.0" style="fill:none;fill-rule:evenodd;stroke:#000000;stroke-width:1.0px;stroke-linecap:butt;stroke-linejoin:miter;stroke-opacity:1"/>
<path class="bond-8 atom-9 atom-8" d="M 343.3,578.6 L 343.9,581.9" style="fill:none;fill-rule:evenodd;stroke:#000000;stroke-width:1.0px;stroke-linecap:butt;stroke-linejoin:miter;stroke-opacity:1"/>
<path class="bond-8 atom-9 atom-8" d="M 339.8,579.0 L 340.6,582.9" style="fill:none;fill-rule:evenodd;stroke:#000000;stroke-width:1.0px;stroke-linecap:butt;stroke-linejoin:miter;stroke-opacity:1"/>
<path class="bond-8 atom-9 atom-8" d="M 336.4,579.4 L 337.3,583.8" style="fill:none;fill-rule:evenodd;stroke:#000000;stroke-width:1.0px;stroke-linecap:butt;stroke-linejoin:miter;stroke-opacity:1"/>
<path class="bond-8 atom-9 atom-8" d="M 333.0,579.8 L 334.0,584.8" style="fill:none;fill-rule:evenodd;stroke:#000000;stroke-width:1.0px;stroke-linecap:butt;stroke-linejoin:miter;stroke-opacity:1"/>
<path class="bond-9 atom-9 atom-10" d="M 363.9,576.2 L 378.3,544.9" style="fill:none;fill-rule:evenodd;stroke:#000000;stroke-width:2.0px;stroke-linecap:butt;stroke-linejoin:miter;stroke-opacity:1"/>
<path class="bond-10 atom-10 atom-11" d="M 378.3,544.9 L 412.5,548.9" style="fill:none;fill-rule:evenodd;stroke:#000000;stroke-width:2.0px;stroke-linecap:butt;stroke-linejoin:miter;stroke-opacity:1"/>
<path class="bond-11 atom-11 atom-12" d="M 412.5,548.9 L 419.3,582.7" style="fill:none;fill-rule:evenodd;stroke:#000000;stroke-width:2.0px;stroke-linecap:butt;stroke-linejoin:miter;stroke-opacity:1"/>
<path class="bond-12 atom-12 atom-13" d="M 419.3,582.7 L 389.2,599.6" style="fill:none;fill-rule:evenodd;stroke:#000000;stroke-width:2.0px;stroke-linecap:butt;stroke-linejoin:miter;stroke-opacity:1"/>
<path class="bond-13 atom-13 atom-14" d="M 389.2,599.6 L 388.8,634.0" style="fill:none;fill-rule:evenodd;stroke:#000000;stroke-width:2.0px;stroke-linecap:butt;stroke-linejoin:miter;stroke-opacity:1"/>
<path class="bond-14 atom-14 atom-15" d="M 388.8,634.0 L 418.5,651.6" style="fill:none;fill-rule:evenodd;stroke:#000000;stroke-width:2.0px;stroke-linecap:butt;stroke-linejoin:miter;stroke-opacity:1"/>
<path class="bond-15 atom-15 atom-16" d="M 418.5,651.6 L 448.5,634.7" style="fill:none;fill-rule:evenodd;stroke:#000000;stroke-width:2.0px;stroke-linecap:butt;stroke-linejoin:miter;stroke-opacity:1"/>
<path class="bond-16 atom-16 atom-17" d="M 448.5,634.7 L 448.9,600.2" style="fill:none;fill-rule:evenodd;stroke:#000000;stroke-width:2.0px;stroke-linecap:butt;stroke-linejoin:miter;stroke-opacity:1"/>
<path class="bond-17 atom-17 atom-18" d="M 448.9,600.2 L 474.5,585.9" style="fill:none;fill-rule:evenodd;stroke:#000000;stroke-width:2.0px;stroke-linecap:butt;stroke-linejoin:miter;stroke-opacity:1"/>
<path class="bond-18 atom-8 atom-3" d="M 330.1,583.0 L 319.1,615.6" style="fill:none;fill-rule:evenodd;stroke:#000000;stroke-width:2.0px;stroke-linecap:butt;stroke-linejoin:miter;stroke-opacity:1"/>
<path class="bond-19 atom-13 atom-9" d="M 389.2,599.6 L 363.9,576.2" style="fill:none;fill-rule:evenodd;stroke:#000000;stroke-width:2.0px;stroke-linecap:butt;stroke-linejoin:miter;stroke-opacity:1"/>
<path class="bond-20 atom-17 atom-12" d="M 448.9,600.2 L 419.3,582.7" style="fill:none;fill-rule:evenodd;stroke:#000000;stroke-width:2.0px;stroke-linecap:butt;stroke-linejoin:miter;stroke-opacity:1"/>
<path class="bond-21 atom-13 atom-19" d="M 389.2,599.6 L 375.2,608.4 L 373.2,603.7 Z" style="fill:#000000;fill-rule:evenodd;fill-opacity:1;stroke:#000000;stroke-width:0.5px;stroke-linecap:butt;stroke-linejoin:miter;stroke-miterlimit:10;stroke-opacity:1;"/>
<path d="M 287.0,622.1 L 285.3,622.4 L 284.1,621.1" style="fill:none;stroke:#000000;stroke-width:2.0px;stroke-linecap:butt;stroke-linejoin:miter;stroke-miterlimit:10;stroke-opacity:1;"/>
<path d="M 263.6,597.8 L 262.5,596.5 L 263.1,594.9" style="fill:none;stroke:#000000;stroke-width:2.0px;stroke-linecap:butt;stroke-linejoin:miter;stroke-miterlimit:10;stroke-opacity:1;"/>
<path d="M 273.0,565.5 L 273.5,563.9 L 275.2,563.5" style="fill:none;stroke:#000000;stroke-width:2.0px;stroke-linecap:butt;stroke-linejoin:miter;stroke-miterlimit:10;stroke-opacity:1;"/>
<path d="M 305.6,557.4 L 307.3,557.1 L 308.5,558.4" style="fill:none;stroke:#000000;stroke-width:2.0px;stroke-linecap:butt;stroke-linejoin:miter;stroke-miterlimit:10;stroke-opacity:1;"/>
<path d="M 328.9,581.7 L 330.1,583.0 L 329.5,584.6" style="fill:none;stroke:#000000;stroke-width:2.0px;stroke-linecap:butt;stroke-linejoin:miter;stroke-miterlimit:10;stroke-opacity:1;"/>
<path d="M 364.6,574.6 L 363.9,576.2 L 365.1,577.4" style="fill:none;stroke:#000000;stroke-width:2.0px;stroke-linecap:butt;stroke-linejoin:miter;stroke-miterlimit:10;stroke-opacity:1;"/>
<path d="M 377.5,546.4 L 378.3,544.9 L 380.0,545.1" style="fill:none;stroke:#000000;stroke-width:2.0px;stroke-linecap:butt;stroke-linejoin:miter;stroke-miterlimit:10;stroke-opacity:1;"/>
<path d="M 410.8,548.7 L 412.5,548.9 L 412.8,550.6" style="fill:none;stroke:#000000;stroke-width:2.0px;stroke-linecap:butt;stroke-linejoin:miter;stroke-miterlimit:10;stroke-opacity:1;"/>
<path d="M 388.8,632.3 L 388.8,634.0 L 390.3,634.9" style="fill:none;stroke:#000000;stroke-width:2.0px;stroke-linecap:butt;stroke-linejoin:miter;stroke-miterlimit:10;stroke-opacity:1;"/>
<path d="M 417.0,650.7 L 418.5,651.6 L 420.0,650.8" style="fill:none;stroke:#000000;stroke-width:2.0px;stroke-linecap:butt;stroke-linejoin:miter;stroke-miterlimit:10;stroke-opacity:1;"/>
<path d="M 447.0,635.6 L 448.5,634.7 L 448.5,633.0" style="fill:none;stroke:#000000;stroke-width:2.0px;stroke-linecap:butt;stroke-linejoin:miter;stroke-miterlimit:10;stroke-opacity:1;"/>
<path class="atom-0" d="M 317.5 669.3 L 318.8 669.3 L 318.8 673.4 L 323.8 673.4 L 323.8 669.3 L 325.2 669.3 L 325.2 679.0 L 323.8 679.0 L 323.8 674.5 L 318.8 674.5 L 318.8 679.0 L 317.5 679.0 L 317.5 669.3 " fill="#000000"/>
<path class="atom-0" d="M 328.6 669.3 L 331.8 674.4 Q 332.1 675.0, 332.7 675.9 Q 333.2 676.8, 333.2 676.9 L 333.2 669.3 L 334.5 669.3 L 334.5 679.0 L 333.2 679.0 L 329.7 673.4 Q 329.3 672.7, 328.9 672.0 Q 328.5 671.2, 328.4 671.0 L 328.4 679.0 L 327.1 679.0 L 327.1 669.3 L 328.6 669.3 " fill="#000000"/>
<path class="atom-1" d="M 349.1 700.1 Q 349.1 697.7, 350.2 696.4 Q 351.4 695.1, 353.6 695.1 Q 355.7 695.1, 356.9 696.4 Q 358.0 697.7, 358.0 700.1 Q 358.0 702.4, 356.9 703.8 Q 355.7 705.1, 353.6 705.1 Q 351.4 705.1, 350.2 703.8 Q 349.1 702.4, 349.1 700.1 M 353.6 704.0 Q 355.0 704.0, 355.8 703.0 Q 356.7 702.0, 356.7 700.1 Q 356.7 698.1, 355.8 697.2 Q 355.0 696.2, 353.6 696.2 Q 352.1 696.2, 351.2 697.2 Q 350.4 698.1, 350.4 700.1 Q 350.4 702.0, 351.2 703.0 Q 352.1 704.0, 353.6 704.0 " fill="#000000"/>
<path class="atom-1" d="M 359.5 695.2 L 360.9 695.2 L 360.9 699.4 L 365.9 699.4 L 365.9 695.2 L 367.2 695.2 L 367.2 705.0 L 365.9 705.0 L 365.9 700.5 L 360.9 700.5 L 360.9 705.0 L 359.5 705.0 L 359.5 695.2 " fill="#000000"/>
<path class="atom-2" d="M 339.7 636.6 L 342.9 641.8 Q 343.2 642.3, 343.7 643.2 Q 344.2 644.2, 344.2 644.2 L 344.2 636.6 L 345.5 636.6 L 345.5 646.4 L 344.2 646.4 L 340.7 640.7 Q 340.3 640.1, 339.9 639.3 Q 339.5 638.6, 339.4 638.3 L 339.4 646.4 L 338.1 646.4 L 338.1 636.6 L 339.7 636.6 " fill="#000000"/>
<path class="atom-2" d="M 347.4 636.6 L 348.7 636.6 L 348.7 640.8 L 353.7 640.8 L 353.7 636.6 L 355.1 636.6 L 355.1 646.4 L 353.7 646.4 L 353.7 641.9 L 348.7 641.9 L 348.7 646.4 L 347.4 646.4 L 347.4 636.6 " fill="#000000"/>
<path class="atom-18" d="M 480.4 583.1 Q 481.3 583.4, 481.8 584.0 Q 482.3 584.5, 482.3 585.4 Q 482.3 586.7, 481.4 587.5 Q 480.5 588.2, 478.9 588.2 L 475.6 588.2 L 475.6 578.5 L 478.5 578.5 Q 480.2 578.5, 481.0 579.2 Q 481.9 579.8, 481.9 581.1 Q 481.9 582.5, 480.4 583.1 M 476.9 579.6 L 476.9 582.6 L 478.5 582.6 Q 479.5 582.6, 480.0 582.3 Q 480.5 581.9, 480.5 581.1 Q 480.5 579.6, 478.5 579.6 L 476.9 579.6 M 478.9 587.1 Q 479.9 587.1, 480.4 586.7 Q 480.9 586.2, 480.9 585.4 Q 480.9 584.6, 480.3 584.2 Q 479.8 583.7, 478.7 583.7 L 476.9 583.7 L 476.9 587.1 L 478.9 587.1 " fill="#000000"/>
<path class="atom-18" d="M 484.5 581.2 L 484.6 582.1 Q 485.4 581.0, 486.6 581.0 Q 487.0 581.0, 487.5 581.2 L 487.3 582.3 Q 486.7 582.2, 486.4 582.2 Q 485.8 582.2, 485.4 582.4 Q 485.0 582.6, 484.7 583.2 L 484.7 588.2 L 483.4 588.2 L 483.4 581.2 L 484.5 581.2 " fill="#000000"/>
<path class="atom-19" d="M 364.3 603.8 L 365.6 603.8 L 365.6 607.9 L 370.6 607.9 L 370.6 603.8 L 371.9 603.8 L 371.9 613.5 L 370.6 613.5 L 370.6 609.0 L 365.6 609.0 L 365.6 613.5 L 364.3 613.5 L 364.3 603.8 " fill="#000000"/>
<path class="bond-0 atom-0 atom-1" d="M 518.9,610.1 L 698.5,610.1" style="fill:none;fill-rule:evenodd;stroke:#000000;stroke-width:2.0px;stroke-linecap:butt;stroke-linejoin:miter;stroke-opacity:1"/>
<path class="bond-0 atom-0 atom-1" d="M 518.9,639.9 L 698.5,639.9" style="fill:none;fill-rule:evenodd;stroke:#000000;stroke-width:2.0px;stroke-linecap:butt;stroke-linejoin:miter;stroke-opacity:1"/>
<path class="atom-1" d="M 705.1 625.1 Q 705.1 618.3, 708.4 614.5 Q 711.8 610.7, 718.1 610.7 Q 724.3 610.7, 727.7 614.5 Q 731.1 618.3, 731.1 625.1 Q 731.1 632.0, 727.7 635.9 Q 724.3 639.8, 718.1 639.8 Q 711.8 639.8, 708.4 635.9 Q 705.1 632.0, 705.1 625.1 M 718.1 636.6 Q 722.4 636.6, 724.7 633.7 Q 727.1 630.8, 727.1 625.1 Q 727.1 619.5, 724.7 616.7 Q 722.4 613.9, 718.1 613.9 Q 713.7 613.9, 711.4 616.7 Q 709.1 619.5, 709.1 625.1 Q 709.1 630.8, 711.4 633.7 Q 713.7 636.6, 718.1 636.6 " fill="#000000"/>
</svg>