<svg xmlns="http://www.w3.org/2000/svg" xmlns:rdkit="http://www.rdkit.org/xml" xmlns:xlink="http://www.w3.org/1999/xlink" version="1.1" baseProfile="full" xml:space="preserve" width="750px" height="750px" viewBox="0 0 750 750">
<!-- END OF HEADER -->
<rect style="opacity:1.0;fill:#FFFFFF;stroke:none" width="250.0" height="250.0" x="0.0" y="0.0"> </rect>
<path class="bond-0 atom-0 atom-1" d="M 46.7,137.8 L 51.3,156.4" style="fill:none;fill-rule:evenodd;stroke:#000000;stroke-width:2.0px;stroke-linecap:butt;stroke-linejoin:miter;stroke-opacity:1"/>
<path class="bond-1 atom-1 atom-2" d="M 56.3,166.9 L 69.9,186.5" style="fill:none;fill-rule:evenodd;stroke:#000000;stroke-width:2.0px;stroke-linecap:butt;stroke-linejoin:miter;stroke-opacity:1"/>
<path class="bond-2 atom-2 atom-3" d="M 69.9,186.5 L 90.8,200.5" style="fill:none;fill-rule:evenodd;stroke:#000000;stroke-width:2.0px;stroke-linecap:butt;stroke-linejoin:miter;stroke-opacity:1"/>
<path class="bond-2 atom-2 atom-3" d="M 73.1,183.2 L 93.3,196.7" style="fill:none;fill-rule:evenodd;stroke:#000000;stroke-width:2.0px;stroke-linecap:butt;stroke-linejoin:miter;stroke-opacity:1"/>
<path class="bond-3 atom-3 atom-4" d="M 99.3,204.3 L 124.5,210.0" style="fill:none;fill-rule:evenodd;stroke:#000000;stroke-width:2.0px;stroke-linecap:butt;stroke-linejoin:miter;stroke-opacity:1"/>
<path class="bond-4 atom-4 atom-5" d="M 124.5,210.0 L 150.2,206.2" style="fill:none;fill-rule:evenodd;stroke:#000000;stroke-width:2.0px;stroke-linecap:butt;stroke-linejoin:miter;stroke-opacity:1"/>
<path class="bond-5 atom-5 atom-6" d="M 158.7,203.1 L 177.0,192.7" style="fill:none;fill-rule:evenodd;stroke:#000000;stroke-width:2.0px;stroke-linecap:butt;stroke-linejoin:miter;stroke-opacity:1"/>
<path class="bond-6 atom-6 atom-7" d="M 185.2,185.2 L 195.6,172.4" style="fill:none;fill-rule:evenodd;stroke:#000000;stroke-width:2.0px;stroke-linecap:butt;stroke-linejoin:miter;stroke-opacity:1"/>
<path class="bond-7 atom-7 atom-8" d="M 201.6,161.9 L 207.5,143.7" style="fill:none;fill-rule:evenodd;stroke:#000000;stroke-width:2.0px;stroke-linecap:butt;stroke-linejoin:miter;stroke-opacity:1"/>
<path class="bond-8 atom-8 atom-9" d="M 208.9,133.1 L 207.6,108.2" style="fill:none;fill-rule:evenodd;stroke:#000000;stroke-width:2.0px;stroke-linecap:butt;stroke-linejoin:miter;stroke-opacity:1"/>
<path class="bond-9 atom-9 atom-10" d="M 207.7,110.5 L 237.5,103.2" style="fill:none;fill-rule:evenodd;stroke:#000000;stroke-width:2.0px;stroke-linecap:butt;stroke-linejoin:miter;stroke-opacity:1"/>
<path class="bond-9 atom-9 atom-10" d="M 206.6,106.1 L 236.4,98.8" style="fill:none;fill-rule:evenodd;stroke:#000000;stroke-width:2.0px;stroke-linecap:butt;stroke-linejoin:miter;stroke-opacity:1"/>
<path class="bond-10 atom-9 atom-11" d="M 207.6,108.2 L 197.5,85.9" style="fill:none;fill-rule:evenodd;stroke:#000000;stroke-width:2.0px;stroke-linecap:butt;stroke-linejoin:miter;stroke-opacity:1"/>
<path class="bond-11 atom-11 atom-12" d="M 191.4,76.9 L 178.5,64.2" style="fill:none;fill-rule:evenodd;stroke:#000000;stroke-width:2.0px;stroke-linecap:butt;stroke-linejoin:miter;stroke-opacity:1"/>
<path class="bond-11 atom-11 atom-12" d="M 188.2,80.2 L 175.3,67.5" style="fill:none;fill-rule:evenodd;stroke:#000000;stroke-width:2.0px;stroke-linecap:butt;stroke-linejoin:miter;stroke-opacity:1"/>
<path class="bond-12 atom-12 atom-13" d="M 168.6,57.3 L 150.0,49.3" style="fill:none;fill-rule:evenodd;stroke:#000000;stroke-width:2.0px;stroke-linecap:butt;stroke-linejoin:miter;stroke-opacity:1"/>
<path class="bond-13 atom-13 atom-14" d="M 141.5,47.3 L 119.2,46.4" style="fill:none;fill-rule:evenodd;stroke:#000000;stroke-width:2.0px;stroke-linecap:butt;stroke-linejoin:miter;stroke-opacity:1"/>
<path class="bond-14 atom-14 atom-15" d="M 111.8,47.6 L 86.9,56.2" style="fill:none;fill-rule:evenodd;stroke:#000000;stroke-width:2.0px;stroke-linecap:butt;stroke-linejoin:miter;stroke-opacity:1"/>
<path class="bond-15 atom-15 atom-16" d="M 86.9,56.2 L 72.4,82.7" style="fill:none;fill-rule:evenodd;stroke:#000000;stroke-width:2.0px;stroke-linecap:butt;stroke-linejoin:miter;stroke-opacity:1"/>
<path class="bond-16 atom-16 atom-17" d="M 68.8,79.8 L 55.7,96.8" style="fill:none;fill-rule:evenodd;stroke:#000000;stroke-width:2.0px;stroke-linecap:butt;stroke-linejoin:miter;stroke-opacity:1"/>
<path class="bond-16 atom-16 atom-17" d="M 72.4,82.7 L 58.7,100.3" style="fill:none;fill-rule:evenodd;stroke:#000000;stroke-width:2.0px;stroke-linecap:butt;stroke-linejoin:miter;stroke-opacity:1"/>
<path class="bond-17 atom-17 atom-18" d="M 45.6,101.0 L 22.1,93.4" style="fill:none;fill-rule:evenodd;stroke:#000000;stroke-width:2.0px;stroke-linecap:butt;stroke-linejoin:miter;stroke-opacity:1"/>
<path class="bond-18 atom-17 atom-0" d="M 48.6,107.8 L 46.1,127.0" style="fill:none;fill-rule:evenodd;stroke:#000000;stroke-width:2.0px;stroke-linecap:butt;stroke-linejoin:miter;stroke-opacity:1"/>
<path d="M 69.2,185.5 L 69.9,186.5 L 70.9,187.2" style="fill:none;stroke:#000000;stroke-width:2.0px;stroke-linecap:butt;stroke-linejoin:miter;stroke-miterlimit:10;stroke-opacity:1;"/>
<path d="M 123.3,209.7 L 124.5,210.0 L 125.8,209.8" style="fill:none;stroke:#000000;stroke-width:2.0px;stroke-linecap:butt;stroke-linejoin:miter;stroke-miterlimit:10;stroke-opacity:1;"/>
<path d="M 207.6,109.4 L 207.6,108.2 L 207.1,107.1" style="fill:none;stroke:#000000;stroke-width:2.0px;stroke-linecap:butt;stroke-linejoin:miter;stroke-miterlimit:10;stroke-opacity:1;"/>
<path d="M 88.1,55.7 L 86.9,56.2 L 86.2,57.5" style="fill:none;stroke:#000000;stroke-width:2.0px;stroke-linecap:butt;stroke-linejoin:miter;stroke-miterlimit:10;stroke-opacity:1;"/>
<path d="M 73.1,81.4 L 72.4,82.7 L 71.7,83.6" style="fill:none;stroke:#000000;stroke-width:2.0px;stroke-linecap:butt;stroke-linejoin:miter;stroke-miterlimit:10;stroke-opacity:1;"/>
<path class="atom-0" d="M 43.0 135.2 Q 43.1 135.2, 43.5 135.4 Q 43.9 135.6, 44.3 135.7 Q 44.7 135.8, 45.2 135.8 Q 46.0 135.8, 46.5 135.4 Q 46.9 135.0, 46.9 134.3 Q 46.9 133.8, 46.7 133.5 Q 46.5 133.3, 46.1 133.1 Q 45.7 132.9, 45.1 132.8 Q 44.4 132.5, 43.9 132.3 Q 43.5 132.1, 43.1 131.6 Q 42.8 131.2, 42.8 130.4 Q 42.8 129.3, 43.6 128.7 Q 44.3 128.0, 45.7 128.0 Q 46.7 128.0, 47.9 128.5 L 47.6 129.4 Q 46.6 129.0, 45.8 129.0 Q 44.9 129.0, 44.5 129.3 Q 44.0 129.7, 44.0 130.3 Q 44.0 130.7, 44.3 131.0 Q 44.5 131.3, 44.8 131.4 Q 45.2 131.6, 45.8 131.8 Q 46.6 132.0, 47.0 132.3 Q 47.5 132.5, 47.8 133.0 Q 48.1 133.5, 48.1 134.3 Q 48.1 135.5, 47.3 136.1 Q 46.6 136.8, 45.2 136.8 Q 44.5 136.8, 43.9 136.6 Q 43.3 136.4, 42.6 136.2 L 43.0 135.2 " fill="#000000"/>
<path class="atom-1" d="M 41.5 157.4 L 42.7 157.4 L 42.7 161.0 L 47.1 161.0 L 47.1 157.4 L 48.2 157.4 L 48.2 165.9 L 47.1 165.9 L 47.1 162.0 L 42.7 162.0 L 42.7 165.9 L 41.5 165.9 L 41.5 157.4 " fill="#000000"/>
<path class="atom-1" d="M 52.4 157.4 Q 53.8 157.4, 54.6 158.0 Q 55.3 158.7, 55.3 159.9 Q 55.3 161.1, 54.6 161.7 Q 53.8 162.4, 52.4 162.4 L 51.0 162.4 L 51.0 165.9 L 49.8 165.9 L 49.8 157.4 L 52.4 157.4 M 52.4 161.4 Q 53.2 161.4, 53.7 161.0 Q 54.1 160.6, 54.1 159.9 Q 54.1 159.1, 53.7 158.7 Q 53.2 158.3, 52.4 158.3 L 51.0 158.3 L 51.0 161.4 L 52.4 161.4 " fill="#000000"/>
<path class="atom-1" d="M 56.5 158.9 L 58.0 158.9 L 58.0 157.3 L 58.7 157.3 L 58.7 158.9 L 60.2 158.9 L 60.2 159.5 L 58.7 159.5 L 58.7 161.1 L 58.0 161.1 L 58.0 159.5 L 56.5 159.5 L 56.5 158.9 " fill="#000000"/>
<path class="atom-3" d="M 93.1 199.1 L 95.9 203.6 Q 96.2 204.0, 96.6 204.9 Q 97.1 205.7, 97.1 205.7 L 97.1 199.1 L 98.3 199.1 L 98.3 207.6 L 97.1 207.6 L 94.1 202.7 Q 93.7 202.1, 93.3 201.4 Q 93.0 200.8, 92.9 200.5 L 92.9 207.6 L 91.8 207.6 L 91.8 199.1 L 93.1 199.1 " fill="#000000"/>
<path class="atom-3" d="M 99.9 200.6 L 101.4 200.6 L 101.4 199.0 L 102.0 199.0 L 102.0 200.6 L 103.6 200.6 L 103.6 201.2 L 102.0 201.2 L 102.0 202.8 L 101.4 202.8 L 101.4 201.2 L 99.9 201.2 L 99.9 200.6 " fill="#000000"/>
<path class="atom-5" d="M 152.6 201.3 L 155.4 205.8 Q 155.6 206.3, 156.1 207.1 Q 156.5 207.9, 156.6 207.9 L 156.6 201.3 L 157.7 201.3 L 157.7 209.8 L 156.5 209.8 L 153.5 204.9 Q 153.2 204.3, 152.8 203.6 Q 152.4 203.0, 152.3 202.8 L 152.3 209.8 L 151.2 209.8 L 151.2 201.3 L 152.6 201.3 " fill="#000000"/>
<path class="atom-5" d="M 151.1 210.7 L 152.3 210.7 L 152.3 214.3 L 156.6 214.3 L 156.6 210.7 L 157.8 210.7 L 157.8 219.3 L 156.6 219.3 L 156.6 215.3 L 152.3 215.3 L 152.3 219.3 L 151.1 219.3 L 151.1 210.7 " fill="#000000"/>
<path class="atom-6" d="M 178.3 193.5 Q 178.4 193.6, 178.8 193.8 Q 179.2 193.9, 179.7 194.0 Q 180.1 194.1, 180.5 194.1 Q 181.4 194.1, 181.8 193.7 Q 182.3 193.3, 182.3 192.7 Q 182.3 192.2, 182.1 191.9 Q 181.8 191.6, 181.5 191.4 Q 181.1 191.3, 180.5 191.1 Q 179.7 190.9, 179.3 190.7 Q 178.8 190.4, 178.5 190.0 Q 178.2 189.5, 178.2 188.7 Q 178.2 187.7, 178.9 187.0 Q 179.6 186.3, 181.1 186.3 Q 182.1 186.3, 183.2 186.8 L 182.9 187.7 Q 181.9 187.3, 181.1 187.3 Q 180.3 187.3, 179.8 187.7 Q 179.4 188.0, 179.4 188.6 Q 179.4 189.1, 179.6 189.3 Q 179.9 189.6, 180.2 189.8 Q 180.6 189.9, 181.1 190.1 Q 181.9 190.4, 182.4 190.6 Q 182.8 190.8, 183.2 191.3 Q 183.5 191.8, 183.5 192.7 Q 183.5 193.8, 182.7 194.5 Q 181.9 195.1, 180.6 195.1 Q 179.8 195.1, 179.2 194.9 Q 178.7 194.8, 178.0 194.5 L 178.3 193.5 " fill="#000000"/>
<path class="atom-6" d="M 184.6 187.8 L 186.1 187.8 L 186.1 186.2 L 186.8 186.2 L 186.8 187.8 L 188.4 187.8 L 188.4 188.3 L 186.8 188.3 L 186.8 189.9 L 186.1 189.9 L 186.1 188.3 L 184.6 188.3 L 184.6 187.8 " fill="#000000"/>
<path class="atom-7" d="M 198.0 162.9 L 200.8 167.4 Q 201.1 167.9, 201.5 168.7 Q 202.0 169.5, 202.0 169.5 L 202.0 162.9 L 203.1 162.9 L 203.1 171.4 L 201.9 171.4 L 198.9 166.5 Q 198.6 165.9, 198.2 165.2 Q 197.8 164.6, 197.7 164.4 L 197.7 171.4 L 196.6 171.4 L 196.6 162.9 L 198.0 162.9 " fill="#000000"/>
<path class="atom-7" d="M 204.7 164.3 L 207.6 164.3 L 207.6 164.9 L 204.7 164.9 L 204.7 164.3 " fill="#000000"/>
<path class="atom-8" d="M 207.3 134.1 L 210.1 138.6 Q 210.4 139.1, 210.9 139.9 Q 211.3 140.7, 211.3 140.8 L 211.3 134.1 L 212.5 134.1 L 212.5 142.7 L 211.3 142.7 L 208.3 137.7 Q 207.9 137.1, 207.6 136.5 Q 207.2 135.8, 207.1 135.6 L 207.1 142.7 L 206.0 142.7 L 206.0 134.1 L 207.3 134.1 " fill="#000000"/>
<path class="atom-8" d="M 214.1 134.1 L 215.3 134.1 L 215.3 137.7 L 219.7 137.7 L 219.7 134.1 L 220.9 134.1 L 220.9 142.7 L 219.7 142.7 L 219.7 138.7 L 215.3 138.7 L 215.3 142.7 L 214.1 142.7 L 214.1 134.1 " fill="#000000"/>
<path class="atom-11" d="M 194.9 76.3 Q 196.4 76.3, 197.1 77.0 Q 197.8 77.6, 197.8 78.8 Q 197.8 80.0, 197.1 80.7 Q 196.3 81.4, 194.9 81.4 L 193.5 81.4 L 193.5 84.9 L 192.4 84.9 L 192.4 76.3 L 194.9 76.3 M 194.9 80.4 Q 195.7 80.4, 196.2 80.0 Q 196.6 79.6, 196.6 78.8 Q 196.6 78.1, 196.2 77.7 Q 195.7 77.3, 194.9 77.3 L 193.5 77.3 L 193.5 80.4 L 194.9 80.4 " fill="#000000"/>
<path class="atom-12" d="M 169.6 59.4 Q 169.6 57.4, 170.6 56.2 Q 171.6 55.1, 173.5 55.1 Q 175.4 55.1, 176.4 56.2 Q 177.5 57.4, 177.5 59.4 Q 177.5 61.5, 176.4 62.7 Q 175.4 63.9, 173.5 63.9 Q 171.6 63.9, 170.6 62.7 Q 169.6 61.5, 169.6 59.4 M 173.5 62.9 Q 174.8 62.9, 175.5 62.0 Q 176.2 61.1, 176.2 59.4 Q 176.2 57.7, 175.5 56.9 Q 174.8 56.0, 173.5 56.0 Q 172.2 56.0, 171.5 56.9 Q 170.8 57.7, 170.8 59.4 Q 170.8 61.2, 171.5 62.0 Q 172.2 62.9, 173.5 62.9 " fill="#000000"/>
<path class="atom-12" d="M 178.7 56.6 L 180.2 56.6 L 180.2 55.0 L 180.9 55.0 L 180.9 56.6 L 182.5 56.6 L 182.5 57.2 L 180.9 57.2 L 180.9 58.8 L 180.2 58.8 L 180.2 57.2 L 178.7 57.2 L 178.7 56.6 " fill="#000000"/>
<path class="atom-13" d="M 143.8 43.1 L 146.7 47.7 Q 146.9 48.1, 147.4 48.9 Q 147.8 49.8, 147.9 49.8 L 147.9 43.1 L 149.0 43.1 L 149.0 51.7 L 147.8 51.7 L 144.8 46.8 Q 144.4 46.2, 144.1 45.5 Q 143.7 44.8, 143.6 44.6 L 143.6 51.7 L 142.5 51.7 L 142.5 43.1 L 143.8 43.1 " fill="#000000"/>
<path class="atom-13" d="M 150.6 44.7 L 152.1 44.7 L 152.1 43.1 L 152.8 43.1 L 152.8 44.7 L 154.3 44.7 L 154.3 45.3 L 152.8 45.3 L 152.8 46.9 L 152.1 46.9 L 152.1 45.3 L 150.6 45.3 L 150.6 44.7 " fill="#000000"/>
<path class="atom-14" d="M 115.3 42.0 Q 116.8 42.0, 117.5 42.7 Q 118.2 43.3, 118.2 44.5 Q 118.2 45.7, 117.5 46.4 Q 116.7 47.1, 115.3 47.1 L 113.9 47.1 L 113.9 50.6 L 112.8 50.6 L 112.8 42.0 L 115.3 42.0 M 115.3 46.1 Q 116.1 46.1, 116.6 45.7 Q 117.0 45.3, 117.0 44.5 Q 117.0 43.8, 116.6 43.4 Q 116.1 43.0, 115.3 43.0 L 113.9 43.0 L 113.9 46.1 L 115.3 46.1 " fill="#000000"/>
<path class="atom-14" d="M 112.2 32.6 L 113.3 32.6 L 113.3 36.2 L 117.7 36.2 L 117.7 32.6 L 118.9 32.6 L 118.9 41.2 L 117.7 41.2 L 117.7 37.2 L 113.3 37.2 L 113.3 41.2 L 112.2 41.2 L 112.2 32.6 " fill="#000000"/>
<path class="atom-14" d="M 120.5 34.1 L 122.0 34.1 L 122.0 32.5 L 122.7 32.5 L 122.7 34.1 L 124.2 34.1 L 124.2 34.7 L 122.7 34.7 L 122.7 36.3 L 122.0 36.3 L 122.0 34.7 L 120.5 34.7 L 120.5 34.1 " fill="#000000"/>
<path class="atom-17" d="M 46.9 105.2 Q 47.0 105.2, 47.4 105.4 Q 47.8 105.6, 48.2 105.7 Q 48.7 105.8, 49.1 105.8 Q 49.9 105.8, 50.4 105.4 Q 50.9 105.0, 50.9 104.3 Q 50.9 103.8, 50.6 103.5 Q 50.4 103.3, 50.0 103.1 Q 49.7 102.9, 49.1 102.8 Q 48.3 102.5, 47.8 102.3 Q 47.4 102.1, 47.1 101.6 Q 46.7 101.2, 46.7 100.4 Q 46.7 99.3, 47.5 98.7 Q 48.2 98.0, 49.7 98.0 Q 50.6 98.0, 51.8 98.5 L 51.5 99.4 Q 50.5 99.0, 49.7 99.0 Q 48.9 99.0, 48.4 99.3 Q 47.9 99.7, 48.0 100.3 Q 48.0 100.7, 48.2 101.0 Q 48.4 101.3, 48.8 101.4 Q 49.1 101.6, 49.7 101.8 Q 50.5 102.0, 50.9 102.2 Q 51.4 102.5, 51.7 103.0 Q 52.1 103.5, 52.1 104.3 Q 52.1 105.5, 51.3 106.1 Q 50.5 106.8, 49.1 106.8 Q 48.4 106.8, 47.8 106.6 Q 47.2 106.4, 46.6 106.2 L 46.9 105.2 " fill="#000000"/>
<path class="atom-17" d="M 53.2 99.4 L 54.7 99.4 L 54.7 97.8 L 55.4 97.8 L 55.4 99.4 L 56.9 99.4 L 56.9 100.0 L 55.4 100.0 L 55.4 101.6 L 54.7 101.6 L 54.7 100.0 L 53.2 100.0 L 53.2 99.4 " fill="#000000"/>
<path class="atom-18" d="M 12.5 93.2 Q 12.5 91.1, 13.5 90.0 Q 14.5 88.8, 16.4 88.8 Q 18.2 88.8, 19.1 90.1 L 18.3 90.7 Q 17.6 89.8, 16.4 89.8 Q 15.1 89.8, 14.4 90.7 Q 13.7 91.5, 13.7 93.2 Q 13.7 94.9, 14.4 95.8 Q 15.2 96.6, 16.5 96.6 Q 17.5 96.6, 18.6 96.1 L 18.9 97.0 Q 18.5 97.3, 17.8 97.4 Q 17.1 97.6, 16.4 97.6 Q 14.5 97.6, 13.5 96.5 Q 12.5 95.3, 12.5 93.2 " fill="#000000"/>
<path class="atom-18" d="M 20.0 88.3 L 21.1 88.3 L 21.1 97.5 L 20.0 97.5 L 20.0 88.3 " fill="#000000"/>
<path class="atom-1" d="M 40.3,161.7 L 40.3,161.7 L 40.3,161.8 L 40.3,161.8 L 40.3,161.9 L 40.2,161.9 L 40.2,162.0 L 40.2,162.0 L 40.2,162.0 L 40.1,162.1 L 40.1,162.1 L 40.1,162.1 L 40.0,162.2 L 40.0,162.2 L 39.9,162.2 L 39.9,162.2 L 39.8,162.2 L 39.8,162.3 L 39.7,162.3 L 39.7,162.3 L 39.6,162.3 L 39.6,162.2 L 39.5,162.2 L 39.5,162.2 L 39.4,162.2 L 39.4,162.2 L 39.3,162.1 L 39.3,162.1 L 39.2,162.1 L 39.2,162.0 L 39.2,162.0 L 39.2,161.9 L 39.1,161.9 L 39.1,161.8 L 39.1,161.8 L 39.1,161.7 L 39.1,161.7 L 39.1,161.6 L 39.1,161.6 L 39.1,161.5 L 39.1,161.5 L 39.1,161.4 L 39.2,161.4 L 39.2,161.3 L 39.2,161.3 L 39.2,161.2 L 39.3,161.2 L 39.3,161.2 L 39.4,161.1 L 39.4,161.1 L 39.5,161.1 L 39.5,161.1 L 39.6,161.1 L 39.6,161.1 L 39.7,161.0 L 39.7,161.0 L 39.8,161.1 L 39.8,161.1 L 39.9,161.1 L 39.9,161.1 L 40.0,161.1 L 40.0,161.1 L 40.1,161.2 L 40.1,161.2 L 40.1,161.2 L 40.2,161.3 L 40.2,161.3 L 40.2,161.4 L 40.2,161.4 L 40.3,161.4 L 40.3,161.5 L 40.3,161.5 L 40.3,161.6 L 40.3,161.7 L 39.7,161.7 Z" style="fill:#000000;fill-rule:evenodd;fill-opacity:1;stroke:#000000;stroke-width:0.0px;stroke-linecap:butt;stroke-linejoin:miter;stroke-miterlimit:10;stroke-opacity:1;"/>
<path class="atom-2" d="M 66.9,186.5 L 66.9,186.5 L 66.9,186.6 L 66.9,186.6 L 66.8,186.7 L 66.8,186.7 L 66.8,186.8 L 66.8,186.8 L 66.7,186.8 L 66.7,186.9 L 66.7,186.9 L 66.6,187.0 L 66.6,187.0 L 66.5,187.0 L 66.5,187.0 L 66.4,187.0 L 66.4,187.1 L 66.3,187.1 L 66.3,187.1 L 66.2,187.1 L 66.2,187.1 L 66.1,187.1 L 66.1,187.0 L 66.0,187.0 L 66.0,187.0 L 65.9,187.0 L 65.9,186.9 L 65.9,186.9 L 65.8,186.9 L 65.8,186.8 L 65.8,186.8 L 65.7,186.7 L 65.7,186.7 L 65.7,186.6 L 65.7,186.6 L 65.7,186.5 L 65.7,186.5 L 65.7,186.4 L 65.7,186.4 L 65.7,186.3 L 65.7,186.3 L 65.7,186.2 L 65.7,186.2 L 65.8,186.1 L 65.8,186.1 L 65.8,186.1 L 65.9,186.0 L 65.9,186.0 L 65.9,186.0 L 66.0,185.9 L 66.0,185.9 L 66.1,185.9 L 66.1,185.9 L 66.2,185.9 L 66.2,185.9 L 66.3,185.9 L 66.3,185.9 L 66.4,185.9 L 66.4,185.9 L 66.5,185.9 L 66.5,185.9 L 66.6,185.9 L 66.6,186.0 L 66.7,186.0 L 66.7,186.0 L 66.7,186.1 L 66.8,186.1 L 66.8,186.2 L 66.8,186.2 L 66.8,186.3 L 66.9,186.3 L 66.9,186.4 L 66.9,186.4 L 66.9,186.5 L 66.3,186.5 Z" style="fill:#000000;fill-rule:evenodd;fill-opacity:1;stroke:#000000;stroke-width:0.0px;stroke-linecap:butt;stroke-linejoin:miter;stroke-miterlimit:10;stroke-opacity:1;"/>
<path class="atom-3" d="M 90.5,203.3 L 90.5,203.4 L 90.5,203.4 L 90.5,203.5 L 90.5,203.5 L 90.5,203.6 L 90.5,203.6 L 90.4,203.7 L 90.4,203.7 L 90.4,203.8 L 90.3,203.8 L 90.3,203.8 L 90.3,203.9 L 90.2,203.9 L 90.2,203.9 L 90.1,203.9 L 90.1,203.9 L 90.0,203.9 L 90.0,203.9 L 89.9,203.9 L 89.9,203.9 L 89.8,203.9 L 89.8,203.9 L 89.7,203.9 L 89.7,203.9 L 89.6,203.8 L 89.6,203.8 L 89.5,203.8 L 89.5,203.7 L 89.5,203.7 L 89.4,203.7 L 89.4,203.6 L 89.4,203.6 L 89.4,203.5 L 89.4,203.5 L 89.3,203.4 L 89.3,203.4 L 89.3,203.3 L 89.3,203.3 L 89.4,203.2 L 89.4,203.2 L 89.4,203.1 L 89.4,203.1 L 89.4,203.0 L 89.5,203.0 L 89.5,202.9 L 89.5,202.9 L 89.6,202.9 L 89.6,202.8 L 89.7,202.8 L 89.7,202.8 L 89.8,202.8 L 89.8,202.8 L 89.9,202.7 L 89.9,202.7 L 90.0,202.7 L 90.0,202.7 L 90.1,202.7 L 90.1,202.8 L 90.2,202.8 L 90.2,202.8 L 90.3,202.8 L 90.3,202.8 L 90.3,202.9 L 90.4,202.9 L 90.4,203.0 L 90.4,203.0 L 90.5,203.0 L 90.5,203.1 L 90.5,203.1 L 90.5,203.2 L 90.5,203.2 L 90.5,203.3 L 90.5,203.3 L 89.9,203.3 Z" style="fill:#000000;fill-rule:evenodd;fill-opacity:1;stroke:#000000;stroke-width:0.0px;stroke-linecap:butt;stroke-linejoin:miter;stroke-miterlimit:10;stroke-opacity:1;"/>
<path class="atom-4" d="M 126.3,212.7 L 126.3,212.8 L 126.3,212.8 L 126.3,212.9 L 126.3,212.9 L 126.3,213.0 L 126.3,213.0 L 126.2,213.1 L 126.2,213.1 L 126.2,213.2 L 126.1,213.2 L 126.1,213.2 L 126.0,213.3 L 126.0,213.3 L 125.9,213.3 L 125.9,213.3 L 125.8,213.3 L 125.8,213.3 L 125.7,213.3 L 125.7,213.3 L 125.6,213.3 L 125.6,213.3 L 125.5,213.3 L 125.5,213.3 L 125.4,213.3 L 125.4,213.2 L 125.4,213.2 L 125.3,213.2 L 125.3,213.1 L 125.2,213.1 L 125.2,213.1 L 125.2,213.0 L 125.2,213.0 L 125.2,212.9 L 125.1,212.9 L 125.1,212.8 L 125.1,212.8 L 125.1,212.7 L 125.1,212.7 L 125.1,212.6 L 125.2,212.6 L 125.2,212.5 L 125.2,212.5 L 125.2,212.4 L 125.2,212.4 L 125.3,212.3 L 125.3,212.3 L 125.4,212.3 L 125.4,212.2 L 125.4,212.2 L 125.5,212.2 L 125.5,212.2 L 125.6,212.1 L 125.6,212.1 L 125.7,212.1 L 125.7,212.1 L 125.8,212.1 L 125.8,212.1 L 125.9,212.1 L 125.9,212.2 L 126.0,212.2 L 126.0,212.2 L 126.1,212.2 L 126.1,212.3 L 126.2,212.3 L 126.2,212.3 L 126.2,212.4 L 126.3,212.4 L 126.3,212.5 L 126.3,212.5 L 126.3,212.6 L 126.3,212.6 L 126.3,212.7 L 126.3,212.7 L 125.7,212.7 Z" style="fill:#000000;fill-rule:evenodd;fill-opacity:1;stroke:#000000;stroke-width:0.0px;stroke-linecap:butt;stroke-linejoin:miter;stroke-miterlimit:10;stroke-opacity:1;"/>
<path class="atom-4" d="M 123.9,212.7 L 123.9,212.8 L 123.9,212.8 L 123.9,212.9 L 123.9,212.9 L 123.9,213.0 L 123.8,213.0 L 123.8,213.1 L 123.8,213.1 L 123.7,213.2 L 123.7,213.2 L 123.7,213.2 L 123.6,213.3 L 123.6,213.3 L 123.5,213.3 L 123.5,213.3 L 123.4,213.3 L 123.4,213.3 L 123.3,213.3 L 123.3,213.3 L 123.2,213.3 L 123.2,213.3 L 123.1,213.3 L 123.1,213.3 L 123.0,213.3 L 123.0,213.2 L 122.9,213.2 L 122.9,213.2 L 122.9,213.1 L 122.8,213.1 L 122.8,213.1 L 122.8,213.0 L 122.7,213.0 L 122.7,212.9 L 122.7,212.9 L 122.7,212.8 L 122.7,212.8 L 122.7,212.7 L 122.7,212.7 L 122.7,212.6 L 122.7,212.6 L 122.7,212.5 L 122.8,212.5 L 122.8,212.4 L 122.8,212.4 L 122.9,212.3 L 122.9,212.3 L 122.9,212.3 L 123.0,212.2 L 123.0,212.2 L 123.1,212.2 L 123.1,212.2 L 123.2,212.1 L 123.2,212.1 L 123.3,212.1 L 123.3,212.1 L 123.4,212.1 L 123.4,212.1 L 123.5,212.1 L 123.5,212.2 L 123.6,212.2 L 123.6,212.2 L 123.7,212.2 L 123.7,212.3 L 123.7,212.3 L 123.8,212.3 L 123.8,212.4 L 123.8,212.4 L 123.9,212.5 L 123.9,212.5 L 123.9,212.6 L 123.9,212.6 L 123.9,212.7 L 123.9,212.7 L 123.3,212.7 Z" style="fill:#000000;fill-rule:evenodd;fill-opacity:1;stroke:#000000;stroke-width:0.0px;stroke-linecap:butt;stroke-linejoin:miter;stroke-miterlimit:10;stroke-opacity:1;"/>
<path class="atom-6" d="M 190.8,190.6 L 190.8,190.7 L 190.8,190.7 L 190.8,190.8 L 190.7,190.8 L 190.7,190.9 L 190.7,190.9 L 190.7,191.0 L 190.6,191.0 L 190.6,191.0 L 190.6,191.1 L 190.5,191.1 L 190.5,191.1 L 190.4,191.2 L 190.4,191.2 L 190.3,191.2 L 190.3,191.2 L 190.2,191.2 L 190.2,191.2 L 190.1,191.2 L 190.1,191.2 L 190.0,191.2 L 190.0,191.2 L 189.9,191.2 L 189.9,191.1 L 189.8,191.1 L 189.8,191.1 L 189.8,191.0 L 189.7,191.0 L 189.7,191.0 L 189.7,190.9 L 189.6,190.9 L 189.6,190.8 L 189.6,190.8 L 189.6,190.7 L 189.6,190.7 L 189.6,190.6 L 189.6,190.6 L 189.6,190.5 L 189.6,190.5 L 189.6,190.4 L 189.6,190.4 L 189.6,190.3 L 189.7,190.3 L 189.7,190.2 L 189.7,190.2 L 189.8,190.2 L 189.8,190.1 L 189.8,190.1 L 189.9,190.1 L 189.9,190.1 L 190.0,190.0 L 190.0,190.0 L 190.1,190.0 L 190.1,190.0 L 190.2,190.0 L 190.2,190.0 L 190.3,190.0 L 190.3,190.0 L 190.4,190.0 L 190.4,190.1 L 190.5,190.1 L 190.5,190.1 L 190.6,190.1 L 190.6,190.2 L 190.6,190.2 L 190.7,190.3 L 190.7,190.3 L 190.7,190.4 L 190.7,190.4 L 190.8,190.5 L 190.8,190.5 L 190.8,190.6 L 190.8,190.6 L 190.2,190.6 Z" style="fill:#000000;fill-rule:evenodd;fill-opacity:1;stroke:#000000;stroke-width:0.0px;stroke-linecap:butt;stroke-linejoin:miter;stroke-miterlimit:10;stroke-opacity:1;"/>
<path class="atom-13" d="M 147.6,42.2 L 147.6,42.2 L 147.5,42.3 L 147.5,42.3 L 147.5,42.4 L 147.5,42.4 L 147.5,42.5 L 147.4,42.5 L 147.4,42.6 L 147.4,42.6 L 147.3,42.6 L 147.3,42.7 L 147.3,42.7 L 147.2,42.7 L 147.2,42.8 L 147.1,42.8 L 147.1,42.8 L 147.0,42.8 L 147.0,42.8 L 146.9,42.8 L 146.9,42.8 L 146.8,42.8 L 146.8,42.8 L 146.7,42.7 L 146.7,42.7 L 146.6,42.7 L 146.6,42.7 L 146.5,42.6 L 146.5,42.6 L 146.5,42.6 L 146.4,42.5 L 146.4,42.5 L 146.4,42.4 L 146.4,42.4 L 146.4,42.3 L 146.3,42.3 L 146.3,42.2 L 146.3,42.2 L 146.3,42.1 L 146.4,42.1 L 146.4,42.0 L 146.4,42.0 L 146.4,41.9 L 146.4,41.9 L 146.5,41.8 L 146.5,41.8 L 146.5,41.7 L 146.6,41.7 L 146.6,41.7 L 146.7,41.7 L 146.7,41.6 L 146.8,41.6 L 146.8,41.6 L 146.9,41.6 L 146.9,41.6 L 147.0,41.6 L 147.0,41.6 L 147.1,41.6 L 147.1,41.6 L 147.2,41.6 L 147.2,41.6 L 147.3,41.7 L 147.3,41.7 L 147.3,41.7 L 147.4,41.8 L 147.4,41.8 L 147.4,41.8 L 147.5,41.9 L 147.5,41.9 L 147.5,42.0 L 147.5,42.0 L 147.5,42.1 L 147.6,42.1 L 147.6,42.2 L 146.9,42.2 Z" style="fill:#000000;fill-rule:evenodd;fill-opacity:1;stroke:#000000;stroke-width:0.0px;stroke-linecap:butt;stroke-linejoin:miter;stroke-miterlimit:10;stroke-opacity:1;"/>
<path class="atom-13" d="M 145.1,42.2 L 145.1,42.2 L 145.1,42.3 L 145.1,42.3 L 145.1,42.4 L 145.1,42.4 L 145.1,42.5 L 145.0,42.5 L 145.0,42.6 L 145.0,42.6 L 144.9,42.6 L 144.9,42.7 L 144.8,42.7 L 144.8,42.7 L 144.7,42.8 L 144.7,42.8 L 144.6,42.8 L 144.6,42.8 L 144.5,42.8 L 144.5,42.8 L 144.4,42.8 L 144.4,42.8 L 144.3,42.8 L 144.3,42.7 L 144.2,42.7 L 144.2,42.7 L 144.2,42.7 L 144.1,42.6 L 144.1,42.6 L 144.0,42.6 L 144.0,42.5 L 144.0,42.5 L 144.0,42.4 L 144.0,42.4 L 143.9,42.3 L 143.9,42.3 L 143.9,42.2 L 143.9,42.2 L 143.9,42.1 L 143.9,42.1 L 144.0,42.0 L 144.0,42.0 L 144.0,41.9 L 144.0,41.9 L 144.0,41.8 L 144.1,41.8 L 144.1,41.7 L 144.2,41.7 L 144.2,41.7 L 144.2,41.7 L 144.3,41.6 L 144.3,41.6 L 144.4,41.6 L 144.4,41.6 L 144.5,41.6 L 144.5,41.6 L 144.6,41.6 L 144.6,41.6 L 144.7,41.6 L 144.7,41.6 L 144.8,41.6 L 144.8,41.7 L 144.9,41.7 L 144.9,41.7 L 145.0,41.8 L 145.0,41.8 L 145.0,41.8 L 145.1,41.9 L 145.1,41.9 L 145.1,42.0 L 145.1,42.0 L 145.1,42.1 L 145.1,42.1 L 145.1,42.2 L 144.5,42.2 Z" style="fill:#000000;fill-rule:evenodd;fill-opacity:1;stroke:#000000;stroke-width:0.0px;stroke-linecap:butt;stroke-linejoin:miter;stroke-miterlimit:10;stroke-opacity:1;"/>
<path class="atom-14" d="M 116.1,31.6 L 116.1,31.7 L 116.1,31.7 L 116.1,31.8 L 116.1,31.8 L 116.1,31.9 L 116.0,31.9 L 116.0,32.0 L 116.0,32.0 L 115.9,32.1 L 115.9,32.1 L 115.9,32.1 L 115.8,32.2 L 115.8,32.2 L 115.7,32.2 L 115.7,32.2 L 115.6,32.2 L 115.6,32.2 L 115.5,32.2 L 115.5,32.2 L 115.4,32.2 L 115.4,32.2 L 115.3,32.2 L 115.3,32.2 L 115.2,32.2 L 115.2,32.1 L 115.1,32.1 L 115.1,32.1 L 115.1,32.0 L 115.0,32.0 L 115.0,32.0 L 115.0,31.9 L 114.9,31.9 L 114.9,31.8 L 114.9,31.8 L 114.9,31.7 L 114.9,31.7 L 114.9,31.6 L 114.9,31.6 L 114.9,31.5 L 114.9,31.5 L 114.9,31.4 L 115.0,31.4 L 115.0,31.3 L 115.0,31.3 L 115.1,31.2 L 115.1,31.2 L 115.1,31.2 L 115.2,31.1 L 115.2,31.1 L 115.3,31.1 L 115.3,31.1 L 115.4,31.0 L 115.4,31.0 L 115.5,31.0 L 115.5,31.0 L 115.6,31.0 L 115.6,31.0 L 115.7,31.1 L 115.7,31.1 L 115.8,31.1 L 115.8,31.1 L 115.9,31.1 L 115.9,31.2 L 115.9,31.2 L 116.0,31.3 L 116.0,31.3 L 116.0,31.3 L 116.1,31.4 L 116.1,31.4 L 116.1,31.5 L 116.1,31.5 L 116.1,31.6 L 116.1,31.6 L 115.5,31.6 Z" style="fill:#000000;fill-rule:evenodd;fill-opacity:1;stroke:#000000;stroke-width:0.0px;stroke-linecap:butt;stroke-linejoin:miter;stroke-miterlimit:10;stroke-opacity:1;"/>
<path class="atom-17" d="M 59.3,102.3 L 59.3,102.3 L 59.3,102.4 L 59.3,102.4 L 59.3,102.5 L 59.3,102.5 L 59.3,102.6 L 59.2,102.6 L 59.2,102.6 L 59.2,102.7 L 59.1,102.7 L 59.1,102.8 L 59.0,102.8 L 59.0,102.8 L 58.9,102.8 L 58.9,102.8 L 58.8,102.9 L 58.8,102.9 L 58.7,102.9 L 58.7,102.9 L 58.6,102.9 L 58.6,102.8 L 58.5,102.8 L 58.5,102.8 L 58.4,102.8 L 58.4,102.8 L 58.4,102.7 L 58.3,102.7 L 58.3,102.7 L 58.2,102.6 L 58.2,102.6 L 58.2,102.5 L 58.2,102.5 L 58.1,102.4 L 58.1,102.4 L 58.1,102.3 L 58.1,102.3 L 58.1,102.2 L 58.1,102.2 L 58.1,102.1 L 58.1,102.1 L 58.2,102.0 L 58.2,102.0 L 58.2,101.9 L 58.2,101.9 L 58.3,101.9 L 58.3,101.8 L 58.4,101.8 L 58.4,101.8 L 58.4,101.7 L 58.5,101.7 L 58.5,101.7 L 58.6,101.7 L 58.6,101.7 L 58.7,101.7 L 58.7,101.7 L 58.8,101.7 L 58.8,101.7 L 58.9,101.7 L 58.9,101.7 L 59.0,101.7 L 59.0,101.7 L 59.1,101.8 L 59.1,101.8 L 59.2,101.8 L 59.2,101.9 L 59.2,101.9 L 59.3,102.0 L 59.3,102.0 L 59.3,102.1 L 59.3,102.1 L 59.3,102.2 L 59.3,102.2 L 59.3,102.3 L 58.7,102.3 Z" style="fill:#000000;fill-rule:evenodd;fill-opacity:1;stroke:#000000;stroke-width:0.0px;stroke-linecap:butt;stroke-linejoin:miter;stroke-miterlimit:10;stroke-opacity:1;"/>
<path class="bond-0 atom-0 atom-1" d="M 284.1,137.4 L 314.5,128.4" style="fill:none;fill-rule:evenodd;stroke:#000000;stroke-width:2.0px;stroke-linecap:butt;stroke-linejoin:miter;stroke-opacity:1"/>
<path class="bond-0 atom-0 atom-1" d="M 286.4,145.2 L 316.8,136.2" style="fill:none;fill-rule:evenodd;stroke:#000000;stroke-width:2.0px;stroke-linecap:butt;stroke-linejoin:miter;stroke-opacity:1"/>
<path class="bond-1 atom-1 atom-2" d="M 339.3,121.1 L 366.4,113.1" style="fill:none;fill-rule:evenodd;stroke:#000000;stroke-width:2.0px;stroke-linecap:butt;stroke-linejoin:miter;stroke-opacity:1"/>
<path class="bond-1 atom-1 atom-2" d="M 341.6,128.9 L 368.7,120.8" style="fill:none;fill-rule:evenodd;stroke:#000000;stroke-width:2.0px;stroke-linecap:butt;stroke-linejoin:miter;stroke-opacity:1"/>
<path class="bond-2 atom-2 atom-3" d="M 382.7,121.9 L 405.5,143.5" style="fill:none;fill-rule:evenodd;stroke:#000000;stroke-width:2.0px;stroke-linecap:butt;stroke-linejoin:miter;stroke-opacity:1"/>
<path class="bond-3 atom-3 atom-4" d="M 423.1,149.3 L 457.3,139.2" style="fill:none;fill-rule:evenodd;stroke:#000000;stroke-width:2.0px;stroke-linecap:butt;stroke-linejoin:miter;stroke-opacity:1"/>
<path class="atom-0" d="M 267.1 150.7 Q 267.3 150.7, 268.0 151.0 Q 268.7 151.3, 269.5 151.5 Q 270.3 151.7, 271.1 151.7 Q 272.5 151.7, 273.4 151.0 Q 274.2 150.3, 274.2 149.1 Q 274.2 148.2, 273.8 147.7 Q 273.4 147.2, 272.7 146.9 Q 272.1 146.6, 271.0 146.3 Q 269.6 145.9, 268.8 145.5 Q 268.0 145.1, 267.4 144.3 Q 266.9 143.5, 266.9 142.1 Q 266.9 140.1, 268.2 139.0 Q 269.5 137.8, 272.1 137.8 Q 273.9 137.8, 275.9 138.6 L 275.4 140.3 Q 273.5 139.5, 272.2 139.5 Q 270.7 139.5, 269.8 140.1 Q 269.0 140.8, 269.0 141.8 Q 269.0 142.6, 269.5 143.1 Q 269.9 143.6, 270.5 143.9 Q 271.1 144.2, 272.2 144.5 Q 273.5 144.9, 274.4 145.4 Q 275.2 145.8, 275.8 146.7 Q 276.4 147.6, 276.4 149.1 Q 276.4 151.2, 274.9 152.3 Q 273.5 153.4, 271.2 153.4 Q 269.8 153.4, 268.8 153.1 Q 267.8 152.9, 266.6 152.4 L 267.1 150.7 " fill="#000000"/>
<path class="atom-0" d="M 278.3 140.1 L 283.5 140.1 L 283.5 141.2 L 278.3 141.2 L 278.3 140.1 " fill="#000000"/>
<path class="atom-1" d="M 319.9 122.4 L 324.9 130.5 Q 325.4 131.3, 326.2 132.7 Q 327.0 134.2, 327.1 134.3 L 327.1 122.4 L 329.1 122.4 L 329.1 137.7 L 327.0 137.7 L 321.6 128.8 Q 321.0 127.8, 320.3 126.6 Q 319.7 125.4, 319.5 125.1 L 319.5 137.7 L 317.5 137.7 L 317.5 122.4 L 319.9 122.4 " fill="#000000"/>
<path class="atom-1" d="M 332.0 125.2 L 334.7 125.2 L 334.7 122.3 L 335.9 122.3 L 335.9 125.2 L 338.6 125.2 L 338.6 126.2 L 335.9 126.2 L 335.9 129.0 L 334.7 129.0 L 334.7 126.2 L 332.0 126.2 L 332.0 125.2 " fill="#000000"/>
<path class="atom-2" d="M 371.7 107.0 L 376.7 115.2 Q 377.2 115.9, 378.0 117.4 Q 378.8 118.8, 378.9 118.9 L 378.9 107.0 L 380.9 107.0 L 380.9 122.3 L 378.8 122.3 L 373.4 113.5 Q 372.8 112.4, 372.1 111.3 Q 371.5 110.1, 371.3 109.7 L 371.3 122.3 L 369.3 122.3 L 369.3 107.0 L 371.7 107.0 " fill="#000000"/>
<path class="atom-2" d="M 369.1 90.2 L 371.2 90.2 L 371.2 96.7 L 379.0 96.7 L 379.0 90.2 L 381.1 90.2 L 381.1 105.5 L 379.0 105.5 L 379.0 98.4 L 371.2 98.4 L 371.2 105.5 L 369.1 105.5 L 369.1 90.2 " fill="#000000"/>
<path class="atom-2" d="M 384.0 93.0 L 386.7 93.0 L 386.7 90.1 L 387.9 90.1 L 387.9 93.0 L 390.7 93.0 L 390.7 94.0 L 387.9 94.0 L 387.9 96.8 L 386.7 96.8 L 386.7 94.0 L 384.0 94.0 L 384.0 93.0 " fill="#000000"/>
<path class="atom-3" d="M 407.3 151.9 Q 407.3 148.3, 409.1 146.2 Q 410.9 144.2, 414.3 144.2 Q 417.7 144.2, 419.5 146.2 Q 421.3 148.3, 421.3 151.9 Q 421.3 155.7, 419.5 157.8 Q 417.6 159.9, 414.3 159.9 Q 410.9 159.9, 409.1 157.8 Q 407.3 155.7, 407.3 151.9 M 414.3 158.1 Q 416.6 158.1, 417.9 156.6 Q 419.2 155.0, 419.2 151.9 Q 419.2 148.9, 417.9 147.4 Q 416.6 145.9, 414.3 145.9 Q 412.0 145.9, 410.7 147.4 Q 409.4 148.9, 409.4 151.9 Q 409.4 155.0, 410.7 156.6 Q 412.0 158.1, 414.3 158.1 " fill="#000000"/>
<path class="atom-4" d="M 459.1 136.6 Q 459.1 132.9, 460.9 130.9 Q 462.7 128.8, 466.1 128.8 Q 469.5 128.8, 471.3 130.9 Q 473.1 132.9, 473.1 136.6 Q 473.1 140.3, 471.3 142.4 Q 469.5 144.5, 466.1 144.5 Q 462.7 144.5, 460.9 142.4 Q 459.1 140.3, 459.1 136.6 M 466.1 142.8 Q 468.5 142.8, 469.7 141.2 Q 471.0 139.7, 471.0 136.6 Q 471.0 133.6, 469.7 132.1 Q 468.5 130.5, 466.1 130.5 Q 463.8 130.5, 462.5 132.0 Q 461.3 133.6, 461.3 136.6 Q 461.3 139.7, 462.5 141.2 Q 463.8 142.8, 466.1 142.8 " fill="#000000"/>
<path class="atom-4" d="M 475.5 129.0 L 477.6 129.0 L 477.6 135.5 L 485.4 135.5 L 485.4 129.0 L 487.5 129.0 L 487.5 144.3 L 485.4 144.3 L 485.4 137.2 L 477.6 137.2 L 477.6 144.3 L 475.5 144.3 L 475.5 129.0 " fill="#000000"/>
<path class="atom-0" d="M 264.4,145.4 L 264.4,145.5 L 264.4,145.6 L 264.4,145.7 L 264.3,145.8 L 264.3,145.8 L 264.3,145.9 L 264.2,146.0 L 264.1,146.1 L 264.1,146.2 L 264.0,146.2 L 263.9,146.3 L 263.9,146.3 L 263.8,146.4 L 263.7,146.4 L 263.6,146.4 L 263.5,146.5 L 263.4,146.5 L 263.3,146.5 L 263.2,146.5 L 263.1,146.5 L 263.1,146.4 L 263.0,146.4 L 262.9,146.4 L 262.8,146.3 L 262.7,146.3 L 262.6,146.2 L 262.6,146.2 L 262.5,146.1 L 262.4,146.0 L 262.4,146.0 L 262.3,145.9 L 262.3,145.8 L 262.3,145.7 L 262.3,145.6 L 262.2,145.5 L 262.2,145.4 L 262.2,145.4 L 262.2,145.3 L 262.3,145.2 L 262.3,145.1 L 262.3,145.0 L 262.3,144.9 L 262.4,144.8 L 262.4,144.7 L 262.5,144.7 L 262.6,144.6 L 262.6,144.5 L 262.7,144.5 L 262.8,144.4 L 262.9,144.4 L 263.0,144.4 L 263.1,144.3 L 263.1,144.3 L 263.2,144.3 L 263.3,144.3 L 263.4,144.3 L 263.5,144.3 L 263.6,144.4 L 263.7,144.4 L 263.8,144.4 L 263.9,144.5 L 263.9,144.5 L 264.0,144.6 L 264.1,144.6 L 264.1,144.7 L 264.2,144.8 L 264.3,144.9 L 264.3,144.9 L 264.3,145.0 L 264.4,145.1 L 264.4,145.2 L 264.4,145.3 L 264.4,145.4 L 263.3,145.4 Z" style="fill:#000000;fill-rule:evenodd;fill-opacity:1;stroke:#000000;stroke-width:0.0px;stroke-linecap:butt;stroke-linejoin:miter;stroke-miterlimit:10;stroke-opacity:1;"/>
<path class="bond-0 atom-0 atom-1" d="M 708.9,118.6 L 682.3,134.1" style="fill:none;fill-rule:evenodd;stroke:#000000;stroke-width:2.0px;stroke-linecap:butt;stroke-linejoin:miter;stroke-opacity:1"/>
<path class="bond-1 atom-1 atom-2" d="M 682.3,134.1 L 654.9,118.3" style="fill:none;fill-rule:evenodd;stroke:#000000;stroke-width:2.0px;stroke-linecap:butt;stroke-linejoin:miter;stroke-opacity:1"/>
<path class="bond-1 atom-1 atom-2" d="M 682.3,127.7 L 657.7,113.5" style="fill:none;fill-rule:evenodd;stroke:#000000;stroke-width:2.0px;stroke-linecap:butt;stroke-linejoin:miter;stroke-opacity:1"/>
<path class="bond-2 atom-2 atom-3" d="M 645.9,118.3 L 623.7,131.1" style="fill:none;fill-rule:evenodd;stroke:#000000;stroke-width:2.0px;stroke-linecap:butt;stroke-linejoin:miter;stroke-opacity:1"/>
<path class="bond-3 atom-3 atom-4" d="M 612.0,133.5 L 590.5,121.0" style="fill:none;fill-rule:evenodd;stroke:#000000;stroke-width:2.0px;stroke-linecap:butt;stroke-linejoin:miter;stroke-opacity:1"/>
<path class="bond-3 atom-3 atom-4" d="M 614.8,128.7 L 593.2,116.3" style="fill:none;fill-rule:evenodd;stroke:#000000;stroke-width:2.0px;stroke-linecap:butt;stroke-linejoin:miter;stroke-opacity:1"/>
<path class="bond-4 atom-4 atom-5" d="M 581.5,118.6 L 565.3,128.0" style="fill:none;fill-rule:evenodd;stroke:#000000;stroke-width:2.0px;stroke-linecap:butt;stroke-linejoin:miter;stroke-opacity:1"/>
<path class="bond-5 atom-5 atom-6" d="M 550.3,131.4 L 526.4,117.6" style="fill:none;fill-rule:evenodd;stroke:#000000;stroke-width:2.0px;stroke-linecap:butt;stroke-linejoin:miter;stroke-opacity:1"/>
<path d="M 683.6,133.3 L 682.3,134.1 L 680.9,133.3" style="fill:none;stroke:#000000;stroke-width:2.0px;stroke-linecap:butt;stroke-linejoin:miter;stroke-miterlimit:10;stroke-opacity:1;"/>
<path class="atom-0" d="M 711.8 110.5 L 715.2 116.0 Q 715.6 116.5, 716.1 117.5 Q 716.6 118.5, 716.7 118.6 L 716.7 110.5 L 718.1 110.5 L 718.1 120.9 L 716.6 120.9 L 713.0 114.8 Q 712.5 114.1, 712.1 113.3 Q 711.6 112.5, 711.5 112.3 L 711.5 120.9 L 710.2 120.9 L 710.2 110.5 L 711.8 110.5 " fill="#000000"/>
<path class="atom-0" d="M 720.0 110.5 L 721.5 110.5 L 721.5 114.9 L 726.8 114.9 L 726.8 110.5 L 728.2 110.5 L 728.2 120.9 L 726.8 120.9 L 726.8 116.1 L 721.5 116.1 L 721.5 120.9 L 720.0 120.9 L 720.0 110.5 " fill="#000000"/>
<path class="atom-0" d="M 730.2 112.3 L 732.0 112.3 L 732.0 110.4 L 732.9 110.4 L 732.9 112.3 L 734.7 112.3 L 734.7 113.0 L 732.9 113.0 L 732.9 115.0 L 732.0 115.0 L 732.0 113.0 L 730.2 113.0 L 730.2 112.3 " fill="#000000"/>
<path class="atom-2" d="M 650.2 110.5 Q 651.9 110.5, 652.8 111.3 Q 653.7 112.1, 653.7 113.5 Q 653.7 115.0, 652.8 115.8 Q 651.9 116.6, 650.2 116.6 L 648.5 116.6 L 648.5 120.9 L 647.1 120.9 L 647.1 110.5 L 650.2 110.5 M 650.2 115.4 Q 651.2 115.4, 651.7 114.9 Q 652.3 114.4, 652.3 113.5 Q 652.3 112.6, 651.7 112.1 Q 651.2 111.6, 650.2 111.6 L 648.5 111.6 L 648.5 115.4 L 650.2 115.4 " fill="#000000"/>
<path class="atom-2" d="M 646.3 99.0 L 647.7 99.0 L 647.7 103.4 L 653.1 103.4 L 653.1 99.0 L 654.5 99.0 L 654.5 109.4 L 653.1 109.4 L 653.1 104.6 L 647.7 104.6 L 647.7 109.4 L 646.3 109.4 L 646.3 99.0 " fill="#000000"/>
<path class="atom-2" d="M 656.5 109.1 Q 656.8 108.4, 657.4 108.0 Q 658.0 107.7, 658.8 107.7 Q 659.8 107.7, 660.4 108.2 Q 661.0 108.8, 661.0 109.8 Q 661.0 110.8, 660.2 111.8 Q 659.5 112.7, 657.9 113.8 L 661.1 113.8 L 661.1 114.6 L 656.5 114.6 L 656.5 114.0 Q 657.8 113.1, 658.5 112.4 Q 659.3 111.7, 659.7 111.1 Q 660.0 110.5, 660.0 109.8 Q 660.0 109.2, 659.7 108.8 Q 659.4 108.5, 658.8 108.5 Q 658.2 108.5, 657.9 108.7 Q 657.5 108.9, 657.2 109.4 L 656.5 109.1 " fill="#000000"/>
<path class="atom-3" d="M 616.2 128.8 L 619.7 134.4 Q 620.0 134.9, 620.5 135.9 Q 621.1 136.9, 621.1 136.9 L 621.1 128.8 L 622.5 128.8 L 622.5 139.3 L 621.1 139.3 L 617.4 133.2 Q 617.0 132.5, 616.5 131.7 Q 616.1 130.9, 616.0 130.7 L 616.0 139.3 L 614.6 139.3 L 614.6 128.8 L 616.2 128.8 " fill="#000000"/>
<path class="atom-4" d="M 584.4 110.5 L 587.8 116.0 Q 588.1 116.5, 588.7 117.5 Q 589.2 118.5, 589.3 118.6 L 589.3 110.5 L 590.6 110.5 L 590.6 120.9 L 589.2 120.9 L 585.6 114.8 Q 585.1 114.1, 584.7 113.3 Q 584.2 112.5, 584.1 112.3 L 584.1 120.9 L 582.7 120.9 L 582.7 110.5 L 584.4 110.5 " fill="#000000"/>
<path class="atom-5" d="M 551.9 137.6 Q 552.0 137.7, 552.5 137.9 Q 553.0 138.1, 553.5 138.2 Q 554.1 138.3, 554.6 138.3 Q 555.6 138.3, 556.2 137.9 Q 556.7 137.4, 556.7 136.5 Q 556.7 136.0, 556.4 135.6 Q 556.2 135.3, 555.7 135.1 Q 555.3 134.9, 554.5 134.7 Q 553.6 134.4, 553.1 134.1 Q 552.5 133.9, 552.1 133.3 Q 551.7 132.7, 551.7 131.8 Q 551.7 130.5, 552.6 129.7 Q 553.5 128.9, 555.3 128.9 Q 556.5 128.9, 557.8 129.4 L 557.5 130.6 Q 556.3 130.1, 555.3 130.1 Q 554.3 130.1, 553.7 130.5 Q 553.2 130.9, 553.2 131.6 Q 553.2 132.2, 553.5 132.5 Q 553.8 132.9, 554.2 133.0 Q 554.6 133.2, 555.3 133.5 Q 556.3 133.7, 556.8 134.0 Q 557.4 134.3, 557.8 134.9 Q 558.2 135.5, 558.2 136.5 Q 558.2 138.0, 557.2 138.8 Q 556.3 139.5, 554.7 139.5 Q 553.7 139.5, 553.0 139.3 Q 552.3 139.1, 551.5 138.8 L 551.9 137.6 " fill="#000000"/>
<path class="atom-5" d="M 559.6 130.6 L 561.4 130.6 L 561.4 128.7 L 562.2 128.7 L 562.2 130.6 L 564.1 130.6 L 564.1 131.3 L 562.2 131.3 L 562.2 133.2 L 561.4 133.2 L 561.4 131.3 L 559.6 131.3 L 559.6 130.6 " fill="#000000"/>
<path class="atom-5" d="M 550.8 140.6 L 552.2 140.6 L 552.2 145.0 L 557.5 145.0 L 557.5 140.6 L 558.9 140.6 L 558.9 151.0 L 557.5 151.0 L 557.5 146.2 L 552.2 146.2 L 552.2 151.0 L 550.8 151.0 L 550.8 140.6 " fill="#000000"/>
<path class="atom-6" d="M 517.6 115.4 Q 518.6 115.7, 519.1 116.3 Q 519.6 116.9, 519.6 117.8 Q 519.6 119.2, 518.6 120.1 Q 517.7 120.9, 516.0 120.9 L 512.5 120.9 L 512.5 110.5 L 515.6 110.5 Q 517.4 110.5, 518.3 111.2 Q 519.1 111.9, 519.1 113.2 Q 519.1 114.8, 517.6 115.4 M 513.9 111.6 L 513.9 114.9 L 515.6 114.9 Q 516.6 114.9, 517.1 114.5 Q 517.7 114.1, 517.7 113.2 Q 517.7 111.6, 515.6 111.6 L 513.9 111.6 M 516.0 119.7 Q 517.0 119.7, 517.6 119.2 Q 518.1 118.7, 518.1 117.8 Q 518.1 116.9, 517.5 116.5 Q 516.9 116.1, 515.8 116.1 L 513.9 116.1 L 513.9 119.7 L 516.0 119.7 " fill="#000000"/>
<path class="atom-6" d="M 521.9 113.3 L 522.1 114.4 Q 522.9 113.2, 524.2 113.2 Q 524.6 113.2, 525.2 113.3 L 524.9 114.6 Q 524.3 114.4, 524.0 114.4 Q 523.3 114.4, 522.9 114.7 Q 522.5 114.9, 522.2 115.5 L 522.2 120.9 L 520.8 120.9 L 520.8 113.3 L 521.9 113.3 " fill="#000000"/>
<path class="atom-0" d="M 737.7,117.1 L 737.7,117.2 L 737.7,117.3 L 737.7,117.3 L 737.6,117.4 L 737.6,117.4 L 737.6,117.5 L 737.6,117.6 L 737.5,117.6 L 737.5,117.7 L 737.4,117.7 L 737.4,117.7 L 737.3,117.8 L 737.3,117.8 L 737.2,117.8 L 737.2,117.8 L 737.1,117.9 L 737.0,117.9 L 737.0,117.9 L 736.9,117.9 L 736.8,117.9 L 736.8,117.9 L 736.7,117.8 L 736.7,117.8 L 736.6,117.8 L 736.5,117.8 L 736.5,117.7 L 736.4,117.7 L 736.4,117.6 L 736.4,117.6 L 736.3,117.5 L 736.3,117.5 L 736.3,117.4 L 736.2,117.4 L 736.2,117.3 L 736.2,117.2 L 736.2,117.2 L 736.2,117.1 L 736.2,117.0 L 736.2,117.0 L 736.2,116.9 L 736.3,116.9 L 736.3,116.8 L 736.3,116.7 L 736.4,116.7 L 736.4,116.6 L 736.4,116.6 L 736.5,116.6 L 736.5,116.5 L 736.6,116.5 L 736.7,116.5 L 736.7,116.4 L 736.8,116.4 L 736.8,116.4 L 736.9,116.4 L 737.0,116.4 L 737.0,116.4 L 737.1,116.4 L 737.2,116.4 L 737.2,116.5 L 737.3,116.5 L 737.3,116.5 L 737.4,116.5 L 737.4,116.6 L 737.5,116.6 L 737.5,116.7 L 737.6,116.7 L 737.6,116.8 L 737.6,116.8 L 737.6,116.9 L 737.7,117.0 L 737.7,117.0 L 737.7,117.1 L 737.7,117.1 L 736.9,117.1 Z" style="fill:#000000;fill-rule:evenodd;fill-opacity:1;stroke:#000000;stroke-width:0.0px;stroke-linecap:butt;stroke-linejoin:miter;stroke-miterlimit:10;stroke-opacity:1;"/>
<path class="atom-0" d="M 737.7,114.2 L 737.7,114.3 L 737.7,114.3 L 737.7,114.4 L 737.6,114.4 L 737.6,114.5 L 737.6,114.6 L 737.6,114.6 L 737.5,114.7 L 737.5,114.7 L 737.4,114.8 L 737.4,114.8 L 737.3,114.8 L 737.3,114.9 L 737.2,114.9 L 737.2,114.9 L 737.1,114.9 L 737.0,114.9 L 737.0,114.9 L 736.9,114.9 L 736.8,114.9 L 736.8,114.9 L 736.7,114.9 L 736.7,114.9 L 736.6,114.8 L 736.5,114.8 L 736.5,114.8 L 736.4,114.7 L 736.4,114.7 L 736.4,114.6 L 736.3,114.6 L 736.3,114.5 L 736.3,114.5 L 736.2,114.4 L 736.2,114.4 L 736.2,114.3 L 736.2,114.2 L 736.2,114.2 L 736.2,114.1 L 736.2,114.0 L 736.2,114.0 L 736.3,113.9 L 736.3,113.9 L 736.3,113.8 L 736.4,113.8 L 736.4,113.7 L 736.4,113.7 L 736.5,113.6 L 736.5,113.6 L 736.6,113.5 L 736.7,113.5 L 736.7,113.5 L 736.8,113.5 L 736.8,113.5 L 736.9,113.5 L 737.0,113.5 L 737.0,113.5 L 737.1,113.5 L 737.2,113.5 L 737.2,113.5 L 737.3,113.5 L 737.3,113.6 L 737.4,113.6 L 737.4,113.6 L 737.5,113.7 L 737.5,113.7 L 737.6,113.8 L 737.6,113.8 L 737.6,113.9 L 737.6,113.9 L 737.7,114.0 L 737.7,114.1 L 737.7,114.1 L 737.7,114.2 L 736.9,114.2 Z" style="fill:#000000;fill-rule:evenodd;fill-opacity:1;stroke:#000000;stroke-width:0.0px;stroke-linecap:butt;stroke-linejoin:miter;stroke-miterlimit:10;stroke-opacity:1;"/>
<path class="bond-0 atom-0 atom-1" d="M 59.4,374.8 L 185.5,374.8" style="fill:none;fill-rule:evenodd;stroke:#000000;stroke-width:2.0px;stroke-linecap:butt;stroke-linejoin:miter;stroke-opacity:1"/>
<path class="atom-0" d="M 32.3 374.9 Q 32.3 367.9, 35.6 364.2 Q 38.9 360.5, 45.2 360.5 Q 51.1 360.5, 54.2 364.6 L 51.5 366.8 Q 49.3 363.8, 45.2 363.8 Q 40.9 363.8, 38.7 366.7 Q 36.4 369.5, 36.4 374.9 Q 36.4 380.5, 38.7 383.4 Q 41.1 386.3, 45.7 386.3 Q 48.8 386.3, 52.4 384.4 L 53.5 387.4 Q 52.1 388.4, 49.8 388.9 Q 47.6 389.5, 45.1 389.5 Q 38.9 389.5, 35.6 385.7 Q 32.3 382.0, 32.3 374.9 " fill="#000000"/>
<path class="atom-0" d="M 57.6 365.2 L 67.3 365.2 L 67.3 367.3 L 57.6 367.3 L 57.6 365.2 " fill="#000000"/>
<path class="atom-1" d="M 204.5 374.1 Q 207.2 374.9, 208.6 376.5 Q 210.0 378.2, 210.0 380.6 Q 210.0 384.5, 207.4 386.8 Q 205.0 389.0, 200.2 389.0 L 190.7 389.0 L 190.7 360.7 L 199.1 360.7 Q 203.9 360.7, 206.4 362.6 Q 208.8 364.6, 208.8 368.2 Q 208.8 372.5, 204.5 374.1 M 194.5 363.9 L 194.5 372.7 L 199.1 372.7 Q 201.9 372.7, 203.3 371.6 Q 204.8 370.5, 204.8 368.2 Q 204.8 363.9, 199.1 363.9 L 194.5 363.9 M 200.2 385.8 Q 203.0 385.8, 204.5 384.5 Q 206.0 383.1, 206.0 380.6 Q 206.0 378.3, 204.3 377.1 Q 202.7 375.9, 199.6 375.9 L 194.5 375.9 L 194.5 385.8 L 200.2 385.8 " fill="#000000"/>
<path class="atom-1" d="M 216.4 368.4 L 216.8 371.3 Q 219.0 368.1, 222.5 368.1 Q 223.6 368.1, 225.2 368.5 L 224.6 371.8 Q 222.8 371.4, 221.9 371.4 Q 220.2 371.4, 219.1 372.1 Q 218.0 372.7, 217.1 374.3 L 217.1 389.0 L 213.4 389.0 L 213.4 368.4 L 216.4 368.4 " fill="#000000"/>
<path class="atom-0" d="M 28.3,374.8 L 28.3,375.0 L 28.3,375.2 L 28.3,375.3 L 28.2,375.5 L 28.2,375.7 L 28.1,375.8 L 28.0,376.0 L 27.9,376.1 L 27.8,376.2 L 27.6,376.3 L 27.5,376.4 L 27.4,376.5 L 27.2,376.6 L 27.1,376.7 L 26.9,376.7 L 26.7,376.8 L 26.6,376.8 L 26.4,376.8 L 26.2,376.8 L 26.0,376.8 L 25.9,376.8 L 25.7,376.7 L 25.5,376.7 L 25.4,376.6 L 25.2,376.5 L 25.1,376.4 L 25.0,376.3 L 24.9,376.2 L 24.7,376.0 L 24.6,375.9 L 24.6,375.7 L 24.5,375.6 L 24.4,375.4 L 24.4,375.2 L 24.4,375.1 L 24.3,374.9 L 24.3,374.7 L 24.4,374.6 L 24.4,374.4 L 24.4,374.2 L 24.5,374.1 L 24.6,373.9 L 24.6,373.8 L 24.7,373.6 L 24.9,373.5 L 25.0,373.4 L 25.1,373.2 L 25.2,373.1 L 25.4,373.1 L 25.5,373.0 L 25.7,372.9 L 25.9,372.9 L 26.0,372.8 L 26.2,372.8 L 26.4,372.8 L 26.6,372.8 L 26.7,372.9 L 26.9,372.9 L 27.1,373.0 L 27.2,373.0 L 27.4,373.1 L 27.5,373.2 L 27.6,373.3 L 27.8,373.4 L 27.9,373.5 L 28.0,373.7 L 28.1,373.8 L 28.2,374.0 L 28.2,374.1 L 28.3,374.3 L 28.3,374.5 L 28.3,374.6 L 28.3,374.8 L 26.3,374.8 Z" style="fill:#000000;fill-rule:evenodd;fill-opacity:1;stroke:#000000;stroke-width:0.0px;stroke-linecap:butt;stroke-linejoin:miter;stroke-miterlimit:10;stroke-opacity:1;"/>
<path class="bond-0 atom-0 atom-1" d="M 479.0,353.9 L 375.0,413.9" style="fill:none;fill-rule:evenodd;stroke:#000000;stroke-width:2.0px;stroke-linecap:butt;stroke-linejoin:miter;stroke-opacity:1"/>
<path class="bond-1 atom-1 atom-2" d="M 375.0,413.9 L 271.0,353.9" style="fill:none;fill-rule:evenodd;stroke:#000000;stroke-width:2.0px;stroke-linecap:butt;stroke-linejoin:miter;stroke-opacity:1"/>
<path d="M 380.2,410.9 L 375.0,413.9 L 369.8,410.9" style="fill:none;stroke:#000000;stroke-width:2.0px;stroke-linecap:butt;stroke-linejoin:miter;stroke-miterlimit:10;stroke-opacity:1;"/>
<path class="atom-0" d="M 483.2 336.1 L 487.0 336.1 L 487.0 364.6 L 483.2 364.6 L 483.2 336.1 " fill="#000000"/>
<path class="atom-2" d="M 263.0 336.1 L 266.8 336.1 L 266.8 364.6 L 263.0 364.6 L 263.0 336.1 " fill="#000000"/>
<path class="bond-0 atom-0 atom-1" d="M 719.4,373.0 L 729.0,353.4" style="fill:none;fill-rule:evenodd;stroke:#000000;stroke-width:2.0px;stroke-linecap:butt;stroke-linejoin:miter;stroke-opacity:1"/>
<path class="bond-1 atom-0 atom-2" d="M 719.4,373.0 L 700.8,374.3" style="fill:none;fill-rule:evenodd;stroke:#000000;stroke-width:2.0px;stroke-linecap:butt;stroke-linejoin:miter;stroke-opacity:1"/>
<path class="bond-2 atom-2 atom-3" d="M 689.7,379.7 L 680.1,399.5" style="fill:none;fill-rule:evenodd;stroke:#000000;stroke-width:2.0px;stroke-linecap:butt;stroke-linejoin:miter;stroke-opacity:1"/>
<path class="bond-3 atom-3 atom-4" d="M 680.1,399.5 L 661.7,400.7" style="fill:none;fill-rule:evenodd;stroke:#000000;stroke-width:2.0px;stroke-linecap:butt;stroke-linejoin:miter;stroke-opacity:1"/>
<path class="bond-3 atom-3 atom-4" d="M 677.4,395.6 L 661.5,396.7" style="fill:none;fill-rule:evenodd;stroke:#000000;stroke-width:2.0px;stroke-linecap:butt;stroke-linejoin:miter;stroke-opacity:1"/>
<path class="bond-4 atom-4 atom-5" d="M 649.5,396.5 L 637.5,378.7" style="fill:none;fill-rule:evenodd;stroke:#000000;stroke-width:2.0px;stroke-linecap:butt;stroke-linejoin:miter;stroke-opacity:1"/>
<path class="bond-5 atom-5 atom-6" d="M 637.5,378.7 L 613.6,380.3" style="fill:none;fill-rule:evenodd;stroke:#000000;stroke-width:2.0px;stroke-linecap:butt;stroke-linejoin:miter;stroke-opacity:1"/>
<path class="bond-6 atom-6 atom-7" d="M 607.0,375.8 L 598.1,362.6" style="fill:none;fill-rule:evenodd;stroke:#000000;stroke-width:2.0px;stroke-linecap:butt;stroke-linejoin:miter;stroke-opacity:1"/>
<path class="bond-7 atom-7 atom-8" d="M 591.2,360.1 L 575.5,361.2" style="fill:none;fill-rule:evenodd;stroke:#000000;stroke-width:2.0px;stroke-linecap:butt;stroke-linejoin:miter;stroke-opacity:1"/>
<path class="bond-7 atom-7 atom-8" d="M 590.9,356.1 L 575.3,357.1" style="fill:none;fill-rule:evenodd;stroke:#000000;stroke-width:2.0px;stroke-linecap:butt;stroke-linejoin:miter;stroke-opacity:1"/>
<path class="bond-8 atom-8 atom-9" d="M 565.2,364.7 L 557.9,379.5" style="fill:none;fill-rule:evenodd;stroke:#000000;stroke-width:2.0px;stroke-linecap:butt;stroke-linejoin:miter;stroke-opacity:1"/>
<path class="bond-9 atom-9 atom-10" d="M 551.9,386.6 L 537.1,387.6" style="fill:none;fill-rule:evenodd;stroke:#000000;stroke-width:2.0px;stroke-linecap:butt;stroke-linejoin:miter;stroke-opacity:1"/>
<path class="bond-9 atom-9 atom-10" d="M 551.6,382.5 L 536.8,383.5" style="fill:none;fill-rule:evenodd;stroke:#000000;stroke-width:2.0px;stroke-linecap:butt;stroke-linejoin:miter;stroke-opacity:1"/>
<path class="bond-10 atom-10 atom-11" d="M 525.1,381.4 L 514.4,365.6" style="fill:none;fill-rule:evenodd;stroke:#000000;stroke-width:2.0px;stroke-linecap:butt;stroke-linejoin:miter;stroke-opacity:1"/>
<path d="M 719.9,372.1 L 719.4,373.0 L 718.4,373.1" style="fill:none;stroke:#000000;stroke-width:2.0px;stroke-linecap:butt;stroke-linejoin:miter;stroke-miterlimit:10;stroke-opacity:1;"/>
<path d="M 680.5,398.5 L 680.1,399.5 L 679.1,399.6" style="fill:none;stroke:#000000;stroke-width:2.0px;stroke-linecap:butt;stroke-linejoin:miter;stroke-miterlimit:10;stroke-opacity:1;"/>
<path d="M 638.1,379.6 L 637.5,378.7 L 636.3,378.7" style="fill:none;stroke:#000000;stroke-width:2.0px;stroke-linecap:butt;stroke-linejoin:miter;stroke-miterlimit:10;stroke-opacity:1;"/>
<path class="atom-1" d="M 729.2 351.1 Q 729.3 351.2, 729.7 351.3 Q 730.0 351.5, 730.4 351.6 Q 730.8 351.6, 731.2 351.6 Q 731.9 351.6, 732.4 351.3 Q 732.8 350.9, 732.8 350.3 Q 732.8 349.9, 732.6 349.6 Q 732.4 349.4, 732.0 349.2 Q 731.7 349.1, 731.2 348.9 Q 730.5 348.7, 730.1 348.5 Q 729.7 348.3, 729.4 347.9 Q 729.1 347.5, 729.1 346.8 Q 729.1 345.8, 729.7 345.2 Q 730.4 344.6, 731.7 344.6 Q 732.6 344.6, 733.6 345.0 L 733.4 345.9 Q 732.5 345.5, 731.8 345.5 Q 731.0 345.5, 730.6 345.8 Q 730.2 346.1, 730.2 346.6 Q 730.2 347.1, 730.4 347.3 Q 730.6 347.6, 730.9 347.7 Q 731.2 347.8, 731.8 348.0 Q 732.5 348.2, 732.9 348.4 Q 733.3 348.7, 733.6 349.1 Q 733.9 349.6, 733.9 350.3 Q 733.9 351.4, 733.2 352.0 Q 732.5 352.5, 731.3 352.5 Q 730.6 352.5, 730.0 352.4 Q 729.5 352.2, 728.9 352.0 L 729.2 351.1 " fill="#000000"/>
<path class="atom-1" d="M 734.8 345.8 L 737.5 345.8 L 737.5 346.3 L 734.8 346.3 L 734.8 345.8 " fill="#000000"/>
<path class="atom-2" d="M 690.4 371.0 L 692.9 375.1 Q 693.2 375.5, 693.6 376.3 Q 694.0 377.0, 694.0 377.1 L 694.0 371.0 L 695.0 371.0 L 695.0 378.8 L 694.0 378.8 L 691.2 374.3 Q 690.9 373.8, 690.6 373.2 Q 690.2 372.6, 690.1 372.4 L 690.1 378.8 L 689.1 378.8 L 689.1 371.0 L 690.4 371.0 " fill="#000000"/>
<path class="atom-2" d="M 696.5 372.4 L 697.8 372.4 L 697.8 371.0 L 698.4 371.0 L 698.4 372.4 L 699.8 372.4 L 699.8 373.0 L 698.4 373.0 L 698.4 374.4 L 697.8 374.4 L 697.8 373.0 L 696.5 373.0 L 696.5 372.4 " fill="#000000"/>
<path class="atom-4" d="M 649.2 401.4 Q 649.2 399.5, 650.1 398.5 Q 651.0 397.4, 652.8 397.4 Q 654.5 397.4, 655.4 398.5 Q 656.3 399.5, 656.3 401.4 Q 656.3 403.3, 655.4 404.3 Q 654.5 405.4, 652.8 405.4 Q 651.0 405.4, 650.1 404.3 Q 649.2 403.3, 649.2 401.4 M 652.8 404.5 Q 653.9 404.5, 654.6 403.7 Q 655.2 402.9, 655.2 401.4 Q 655.2 399.9, 654.6 399.1 Q 653.9 398.3, 652.8 398.3 Q 651.6 398.3, 650.9 399.1 Q 650.3 399.9, 650.3 401.4 Q 650.3 403.0, 650.9 403.7 Q 651.6 404.5, 652.8 404.5 " fill="#000000"/>
<path class="atom-4" d="M 657.5 398.8 L 658.8 398.8 L 658.8 397.4 L 659.4 397.4 L 659.4 398.8 L 660.8 398.8 L 660.8 399.3 L 659.4 399.3 L 659.4 400.8 L 658.8 400.8 L 658.8 399.3 L 657.5 399.3 L 657.5 398.8 " fill="#000000"/>
<path class="atom-6" d="M 608.0 383.2 Q 608.1 383.2, 608.4 383.4 Q 608.8 383.5, 609.2 383.6 Q 609.6 383.7, 610.0 383.7 Q 610.7 383.7, 611.2 383.4 Q 611.6 383.0, 611.6 382.4 Q 611.6 382.0, 611.4 381.7 Q 611.2 381.4, 610.8 381.3 Q 610.5 381.2, 610.0 381.0 Q 609.3 380.8, 608.9 380.6 Q 608.4 380.4, 608.2 380.0 Q 607.9 379.6, 607.9 378.9 Q 607.9 377.9, 608.5 377.3 Q 609.2 376.7, 610.5 376.7 Q 611.4 376.7, 612.4 377.1 L 612.2 377.9 Q 611.2 377.6, 610.5 377.6 Q 609.8 377.6, 609.4 377.9 Q 608.9 378.2, 609.0 378.7 Q 609.0 379.1, 609.2 379.4 Q 609.4 379.6, 609.7 379.8 Q 610.0 379.9, 610.5 380.1 Q 611.2 380.3, 611.7 380.5 Q 612.1 380.7, 612.4 381.2 Q 612.7 381.6, 612.7 382.4 Q 612.7 383.5, 611.9 384.0 Q 611.2 384.6, 610.0 384.6 Q 609.4 384.6, 608.8 384.5 Q 608.3 384.3, 607.7 384.1 L 608.0 383.2 " fill="#000000"/>
<path class="atom-7" d="M 593.2 354.0 L 595.7 358.1 Q 596.0 358.5, 596.4 359.2 Q 596.8 359.9, 596.8 360.0 L 596.8 354.0 L 597.9 354.0 L 597.9 361.7 L 596.8 361.7 L 594.1 357.2 Q 593.7 356.7, 593.4 356.1 Q 593.1 355.5, 593.0 355.3 L 593.0 361.7 L 592.0 361.7 L 592.0 354.0 L 593.2 354.0 " fill="#000000"/>
<path class="atom-7" d="M 599.3 355.4 L 600.7 355.4 L 600.7 353.9 L 601.3 353.9 L 601.3 355.4 L 602.7 355.4 L 602.7 355.9 L 601.3 355.9 L 601.3 357.3 L 600.7 357.3 L 600.7 355.9 L 599.3 355.9 L 599.3 355.4 " fill="#000000"/>
<path class="atom-8" d="M 565.4 362.4 Q 565.5 362.4, 565.9 362.6 Q 566.2 362.7, 566.6 362.8 Q 567.0 362.9, 567.4 362.9 Q 568.2 362.9, 568.6 362.5 Q 569.0 362.2, 569.0 361.6 Q 569.0 361.1, 568.8 360.9 Q 568.6 360.6, 568.3 360.5 Q 567.9 360.3, 567.4 360.2 Q 566.7 360.0, 566.3 359.8 Q 565.9 359.6, 565.6 359.1 Q 565.3 358.7, 565.3 358.0 Q 565.3 357.1, 566.0 356.5 Q 566.6 355.9, 567.9 355.9 Q 568.8 355.9, 569.8 356.3 L 569.6 357.1 Q 568.7 356.7, 568.0 356.7 Q 567.2 356.7, 566.8 357.1 Q 566.4 357.4, 566.4 357.9 Q 566.4 358.3, 566.6 358.6 Q 566.8 358.8, 567.1 359.0 Q 567.4 359.1, 568.0 359.3 Q 568.7 359.5, 569.1 359.7 Q 569.5 359.9, 569.8 360.4 Q 570.1 360.8, 570.1 361.6 Q 570.1 362.6, 569.4 363.2 Q 568.7 363.8, 567.5 363.8 Q 566.8 363.8, 566.3 363.6 Q 565.7 363.5, 565.1 363.2 L 565.4 362.4 " fill="#000000"/>
<path class="atom-8" d="M 571.1 357.1 L 572.5 357.1 L 572.5 355.7 L 573.1 355.7 L 573.1 357.1 L 574.5 357.1 L 574.5 357.7 L 573.1 357.7 L 573.1 359.1 L 572.5 359.1 L 572.5 357.7 L 571.1 357.7 L 571.1 357.1 " fill="#000000"/>
<path class="atom-9" d="M 553.9 380.4 L 556.4 384.5 Q 556.7 384.9, 557.1 385.7 Q 557.5 386.4, 557.5 386.4 L 557.5 380.4 L 558.5 380.4 L 558.5 388.2 L 557.5 388.2 L 554.7 383.7 Q 554.4 383.2, 554.1 382.6 Q 553.8 382.0, 553.7 381.8 L 553.7 388.2 L 552.7 388.2 L 552.7 380.4 L 553.9 380.4 " fill="#000000"/>
<path class="atom-10" d="M 526.6 382.3 L 529.1 386.4 Q 529.4 386.8, 529.8 387.5 Q 530.2 388.3, 530.2 388.3 L 530.2 382.3 L 531.2 382.3 L 531.2 390.0 L 530.2 390.0 L 527.4 385.6 Q 527.1 385.0, 526.8 384.4 Q 526.5 383.8, 526.4 383.6 L 526.4 390.0 L 525.4 390.0 L 525.4 382.3 L 526.6 382.3 " fill="#000000"/>
<path class="atom-10" d="M 532.7 383.7 L 534.1 383.7 L 534.1 382.3 L 534.7 382.3 L 534.7 383.7 L 536.1 383.7 L 536.1 384.2 L 534.7 384.2 L 534.7 385.7 L 534.1 385.7 L 534.1 384.2 L 532.7 384.2 L 532.7 383.7 " fill="#000000"/>
<path class="atom-11" d="M 512.5 359.6 L 513.5 359.6 L 513.5 367.4 L 512.5 367.4 L 512.5 359.6 " fill="#000000"/>
<path class="atom-0" d="M 723.2,373.0 L 723.2,373.1 L 723.2,373.1 L 723.2,373.2 L 723.2,373.2 L 723.2,373.3 L 723.1,373.3 L 723.1,373.3 L 723.1,373.4 L 723.1,373.4 L 723.0,373.5 L 723.0,373.5 L 722.9,373.5 L 722.9,373.5 L 722.9,373.5 L 722.8,373.6 L 722.8,373.6 L 722.7,373.6 L 722.7,373.6 L 722.6,373.6 L 722.6,373.6 L 722.5,373.6 L 722.5,373.6 L 722.4,373.5 L 722.4,373.5 L 722.4,373.5 L 722.3,373.5 L 722.3,373.4 L 722.3,373.4 L 722.2,373.4 L 722.2,373.3 L 722.2,373.3 L 722.2,373.2 L 722.1,373.2 L 722.1,373.2 L 722.1,373.1 L 722.1,373.1 L 722.1,373.0 L 722.1,373.0 L 722.1,372.9 L 722.1,372.9 L 722.2,372.8 L 722.2,372.8 L 722.2,372.7 L 722.2,372.7 L 722.3,372.7 L 722.3,372.6 L 722.3,372.6 L 722.4,372.6 L 722.4,372.6 L 722.4,372.5 L 722.5,372.5 L 722.5,372.5 L 722.6,372.5 L 722.6,372.5 L 722.7,372.5 L 722.7,372.5 L 722.8,372.5 L 722.8,372.5 L 722.9,372.5 L 722.9,372.5 L 722.9,372.6 L 723.0,372.6 L 723.0,372.6 L 723.1,372.7 L 723.1,372.7 L 723.1,372.7 L 723.1,372.8 L 723.2,372.8 L 723.2,372.9 L 723.2,372.9 L 723.2,372.9 L 723.2,373.0 L 723.2,373.0 L 722.7,373.0 Z" style="fill:#000000;fill-rule:evenodd;fill-opacity:1;stroke:#000000;stroke-width:0.0px;stroke-linecap:butt;stroke-linejoin:miter;stroke-miterlimit:10;stroke-opacity:1;"/>
<path class="atom-2" d="M 688.0,376.0 L 688.0,376.1 L 688.0,376.1 L 688.0,376.1 L 688.0,376.2 L 688.0,376.2 L 688.0,376.3 L 687.9,376.3 L 687.9,376.4 L 687.9,376.4 L 687.9,376.4 L 687.8,376.5 L 687.8,376.5 L 687.7,376.5 L 687.7,376.5 L 687.6,376.5 L 687.6,376.5 L 687.6,376.6 L 687.5,376.6 L 687.5,376.6 L 687.4,376.5 L 687.4,376.5 L 687.3,376.5 L 687.3,376.5 L 687.2,376.5 L 687.2,376.5 L 687.2,376.4 L 687.1,376.4 L 687.1,376.4 L 687.1,376.3 L 687.0,376.3 L 687.0,376.3 L 687.0,376.2 L 687.0,376.2 L 687.0,376.1 L 687.0,376.1 L 687.0,376.0 L 687.0,376.0 L 687.0,375.9 L 687.0,375.9 L 687.0,375.8 L 687.0,375.8 L 687.0,375.8 L 687.0,375.7 L 687.1,375.7 L 687.1,375.6 L 687.1,375.6 L 687.2,375.6 L 687.2,375.5 L 687.2,375.5 L 687.3,375.5 L 687.3,375.5 L 687.4,375.5 L 687.4,375.5 L 687.5,375.5 L 687.5,375.5 L 687.6,375.5 L 687.6,375.5 L 687.6,375.5 L 687.7,375.5 L 687.7,375.5 L 687.8,375.5 L 687.8,375.6 L 687.9,375.6 L 687.9,375.6 L 687.9,375.7 L 687.9,375.7 L 688.0,375.7 L 688.0,375.8 L 688.0,375.8 L 688.0,375.9 L 688.0,375.9 L 688.0,376.0 L 688.0,376.0 L 687.5,376.0 Z" style="fill:#000000;fill-rule:evenodd;fill-opacity:1;stroke:#000000;stroke-width:0.0px;stroke-linecap:butt;stroke-linejoin:miter;stroke-miterlimit:10;stroke-opacity:1;"/>
<path class="atom-2" d="M 688.0,373.8 L 688.0,373.9 L 688.0,373.9 L 688.0,374.0 L 688.0,374.0 L 688.0,374.0 L 688.0,374.1 L 687.9,374.1 L 687.9,374.2 L 687.9,374.2 L 687.9,374.2 L 687.8,374.3 L 687.8,374.3 L 687.7,374.3 L 687.7,374.3 L 687.6,374.3 L 687.6,374.4 L 687.6,374.4 L 687.5,374.4 L 687.5,374.4 L 687.4,374.4 L 687.4,374.3 L 687.3,374.3 L 687.3,374.3 L 687.2,374.3 L 687.2,374.3 L 687.2,374.2 L 687.1,374.2 L 687.1,374.2 L 687.1,374.1 L 687.0,374.1 L 687.0,374.1 L 687.0,374.0 L 687.0,374.0 L 687.0,373.9 L 687.0,373.9 L 687.0,373.8 L 687.0,373.8 L 687.0,373.7 L 687.0,373.7 L 687.0,373.7 L 687.0,373.6 L 687.0,373.6 L 687.0,373.5 L 687.1,373.5 L 687.1,373.5 L 687.1,373.4 L 687.2,373.4 L 687.2,373.4 L 687.2,373.3 L 687.3,373.3 L 687.3,373.3 L 687.4,373.3 L 687.4,373.3 L 687.5,373.3 L 687.5,373.3 L 687.6,373.3 L 687.6,373.3 L 687.6,373.3 L 687.7,373.3 L 687.7,373.3 L 687.8,373.3 L 687.8,373.4 L 687.9,373.4 L 687.9,373.4 L 687.9,373.5 L 687.9,373.5 L 688.0,373.5 L 688.0,373.6 L 688.0,373.6 L 688.0,373.7 L 688.0,373.7 L 688.0,373.8 L 688.0,373.8 L 687.5,373.8 Z" style="fill:#000000;fill-rule:evenodd;fill-opacity:1;stroke:#000000;stroke-width:0.0px;stroke-linecap:butt;stroke-linejoin:miter;stroke-miterlimit:10;stroke-opacity:1;"/>
<path class="atom-5" d="M 641.3,378.7 L 641.3,378.7 L 641.3,378.8 L 641.3,378.8 L 641.3,378.8 L 641.3,378.9 L 641.2,378.9 L 641.2,379.0 L 641.2,379.0 L 641.2,379.0 L 641.1,379.1 L 641.1,379.1 L 641.0,379.1 L 641.0,379.2 L 641.0,379.2 L 640.9,379.2 L 640.9,379.2 L 640.8,379.2 L 640.8,379.2 L 640.7,379.2 L 640.7,379.2 L 640.6,379.2 L 640.6,379.2 L 640.5,379.2 L 640.5,379.1 L 640.5,379.1 L 640.4,379.1 L 640.4,379.1 L 640.4,379.0 L 640.3,379.0 L 640.3,379.0 L 640.3,378.9 L 640.3,378.9 L 640.2,378.8 L 640.2,378.8 L 640.2,378.7 L 640.2,378.7 L 640.2,378.6 L 640.2,378.6 L 640.2,378.5 L 640.2,378.5 L 640.3,378.5 L 640.3,378.4 L 640.3,378.4 L 640.3,378.3 L 640.4,378.3 L 640.4,378.3 L 640.4,378.2 L 640.5,378.2 L 640.5,378.2 L 640.5,378.2 L 640.6,378.1 L 640.6,378.1 L 640.7,378.1 L 640.7,378.1 L 640.8,378.1 L 640.8,378.1 L 640.9,378.1 L 640.9,378.1 L 641.0,378.2 L 641.0,378.2 L 641.0,378.2 L 641.1,378.2 L 641.1,378.2 L 641.2,378.3 L 641.2,378.3 L 641.2,378.4 L 641.2,378.4 L 641.3,378.4 L 641.3,378.5 L 641.3,378.5 L 641.3,378.6 L 641.3,378.6 L 641.3,378.7 L 640.8,378.7 Z" style="fill:#000000;fill-rule:evenodd;fill-opacity:1;stroke:#000000;stroke-width:0.0px;stroke-linecap:butt;stroke-linejoin:miter;stroke-miterlimit:10;stroke-opacity:1;"/>
<path class="atom-7" d="M 604.9,357.8 L 604.9,357.9 L 604.9,357.9 L 604.9,358.0 L 604.8,358.0 L 604.8,358.1 L 604.8,358.1 L 604.8,358.1 L 604.7,358.2 L 604.7,358.2 L 604.7,358.3 L 604.6,358.3 L 604.6,358.3 L 604.6,358.3 L 604.5,358.3 L 604.5,358.4 L 604.4,358.4 L 604.4,358.4 L 604.3,358.4 L 604.3,358.4 L 604.2,358.4 L 604.2,358.4 L 604.2,358.4 L 604.1,358.3 L 604.1,358.3 L 604.0,358.3 L 604.0,358.3 L 604.0,358.2 L 603.9,358.2 L 603.9,358.2 L 603.9,358.1 L 603.8,358.1 L 603.8,358.0 L 603.8,358.0 L 603.8,358.0 L 603.8,357.9 L 603.8,357.9 L 603.8,357.8 L 603.8,357.8 L 603.8,357.7 L 603.8,357.7 L 603.8,357.6 L 603.8,357.6 L 603.9,357.5 L 603.9,357.5 L 603.9,357.5 L 604.0,357.4 L 604.0,357.4 L 604.0,357.4 L 604.1,357.4 L 604.1,357.3 L 604.2,357.3 L 604.2,357.3 L 604.2,357.3 L 604.3,357.3 L 604.3,357.3 L 604.4,357.3 L 604.4,357.3 L 604.5,357.3 L 604.5,357.3 L 604.6,357.3 L 604.6,357.4 L 604.6,357.4 L 604.7,357.4 L 604.7,357.5 L 604.7,357.5 L 604.8,357.5 L 604.8,357.6 L 604.8,357.6 L 604.8,357.7 L 604.9,357.7 L 604.9,357.7 L 604.9,357.8 L 604.9,357.8 L 604.3,357.8 Z" style="fill:#000000;fill-rule:evenodd;fill-opacity:1;stroke:#000000;stroke-width:0.0px;stroke-linecap:butt;stroke-linejoin:miter;stroke-miterlimit:10;stroke-opacity:1;"/>
<path class="atom-10" d="M 524.3,386.2 L 524.3,386.2 L 524.3,386.3 L 524.2,386.3 L 524.2,386.4 L 524.2,386.4 L 524.2,386.4 L 524.2,386.5 L 524.1,386.5 L 524.1,386.6 L 524.1,386.6 L 524.0,386.6 L 524.0,386.6 L 524.0,386.7 L 523.9,386.7 L 523.9,386.7 L 523.8,386.7 L 523.8,386.7 L 523.7,386.7 L 523.7,386.7 L 523.6,386.7 L 523.6,386.7 L 523.5,386.7 L 523.5,386.7 L 523.5,386.7 L 523.4,386.6 L 523.4,386.6 L 523.3,386.6 L 523.3,386.5 L 523.3,386.5 L 523.2,386.5 L 523.2,386.4 L 523.2,386.4 L 523.2,386.3 L 523.2,386.3 L 523.2,386.2 L 523.2,386.2 L 523.2,386.1 L 523.2,386.1 L 523.2,386.1 L 523.2,386.0 L 523.2,386.0 L 523.2,385.9 L 523.2,385.9 L 523.3,385.8 L 523.3,385.8 L 523.3,385.8 L 523.4,385.7 L 523.4,385.7 L 523.5,385.7 L 523.5,385.7 L 523.5,385.6 L 523.6,385.6 L 523.6,385.6 L 523.7,385.6 L 523.7,385.6 L 523.8,385.6 L 523.8,385.6 L 523.9,385.6 L 523.9,385.7 L 524.0,385.7 L 524.0,385.7 L 524.0,385.7 L 524.1,385.8 L 524.1,385.8 L 524.1,385.8 L 524.2,385.9 L 524.2,385.9 L 524.2,385.9 L 524.2,386.0 L 524.2,386.0 L 524.3,386.1 L 524.3,386.1 L 524.3,386.2 L 523.7,386.2 Z" style="fill:#000000;fill-rule:evenodd;fill-opacity:1;stroke:#000000;stroke-width:0.0px;stroke-linecap:butt;stroke-linejoin:miter;stroke-miterlimit:10;stroke-opacity:1;"/>
<path class="bond-0 atom-0 atom-1" d="M 48.0,606.8 L 88.6,630.2" style="fill:none;fill-rule:evenodd;stroke:#000000;stroke-width:2.0px;stroke-linecap:butt;stroke-linejoin:miter;stroke-opacity:1"/>
<path class="bond-1 atom-1 atom-2" d="M 88.6,630.2 L 135.8,602.9" style="fill:none;fill-rule:evenodd;stroke:#000000;stroke-width:2.0px;stroke-linecap:butt;stroke-linejoin:miter;stroke-opacity:1"/>
<path class="bond-2 atom-2 atom-3" d="M 135.8,602.9 L 175.5,625.8" style="fill:none;fill-rule:evenodd;stroke:#000000;stroke-width:2.0px;stroke-linecap:butt;stroke-linejoin:miter;stroke-opacity:1"/>
<path class="bond-3 atom-3 atom-4" d="M 201.8,624.1 L 223.6,611.6" style="fill:none;fill-rule:evenodd;stroke:#000000;stroke-width:2.0px;stroke-linecap:butt;stroke-linejoin:miter;stroke-opacity:1"/>
<path class="bond-3 atom-3 atom-4" d="M 197.7,617.0 L 219.5,604.5" style="fill:none;fill-rule:evenodd;stroke:#000000;stroke-width:2.0px;stroke-linecap:butt;stroke-linejoin:miter;stroke-opacity:1"/>
<path d="M 86.5,629.0 L 88.6,630.2 L 90.9,628.8" style="fill:none;stroke:#000000;stroke-width:2.0px;stroke-linecap:butt;stroke-linejoin:miter;stroke-miterlimit:10;stroke-opacity:1;"/>
<path d="M 133.5,604.3 L 135.8,602.9 L 137.8,604.0" style="fill:none;stroke:#000000;stroke-width:2.0px;stroke-linecap:butt;stroke-linejoin:miter;stroke-miterlimit:10;stroke-opacity:1;"/>
<path class="atom-0" d="M 12.5 595.2 L 14.6 595.2 L 14.6 601.7 L 22.5 601.7 L 22.5 595.2 L 24.6 595.2 L 24.6 610.6 L 22.5 610.6 L 22.5 603.5 L 14.6 603.5 L 14.6 610.6 L 12.5 610.6 L 12.5 595.2 " fill="#000000"/>
<path class="atom-0" d="M 27.6 610.1 Q 27.9 609.1, 28.8 608.6 Q 29.7 608.0, 31.0 608.0 Q 32.5 608.0, 33.4 608.9 Q 34.2 609.7, 34.2 611.2 Q 34.2 612.7, 33.1 614.1 Q 32.0 615.5, 29.7 617.2 L 34.4 617.2 L 34.4 618.4 L 27.5 618.4 L 27.5 617.4 Q 29.4 616.0, 30.6 615.0 Q 31.7 614.0, 32.2 613.1 Q 32.8 612.2, 32.8 611.3 Q 32.8 610.3, 32.3 609.7 Q 31.8 609.2, 31.0 609.2 Q 30.1 609.2, 29.6 609.5 Q 29.0 609.8, 28.7 610.6 L 27.6 610.1 " fill="#000000"/>
<path class="atom-0" d="M 40.9 595.2 Q 43.6 595.2, 44.9 596.4 Q 46.2 597.5, 46.2 599.7 Q 46.2 601.8, 44.8 603.1 Q 43.5 604.3, 40.9 604.3 L 38.4 604.3 L 38.4 610.6 L 36.4 610.6 L 36.4 595.2 L 40.9 595.2 M 40.9 602.5 Q 42.4 602.5, 43.2 601.8 Q 44.0 601.1, 44.0 599.7 Q 44.0 598.3, 43.2 597.6 Q 42.4 596.9, 40.9 596.9 L 38.4 596.9 L 38.4 602.5 L 40.9 602.5 " fill="#000000"/>
<path class="atom-3" d="M 179.7 622.5 L 184.8 630.6 Q 185.3 631.5, 186.1 632.9 Q 186.9 634.4, 186.9 634.5 L 186.9 622.5 L 189.0 622.5 L 189.0 637.9 L 186.9 637.9 L 181.4 629.0 Q 180.8 627.9, 180.1 626.7 Q 179.5 625.5, 179.3 625.1 L 179.3 637.9 L 177.3 637.9 L 177.3 622.5 L 179.7 622.5 " fill="#000000"/>
<path class="atom-3" d="M 191.9 625.2 L 194.6 625.2 L 194.6 622.4 L 195.8 622.4 L 195.8 625.2 L 198.6 625.2 L 198.6 626.3 L 195.8 626.3 L 195.8 629.2 L 194.6 629.2 L 194.6 626.3 L 191.9 626.3 L 191.9 625.2 " fill="#000000"/>
<path class="atom-3" d="M 177.1 639.5 L 179.2 639.5 L 179.2 646.0 L 187.1 646.0 L 187.1 639.5 L 189.2 639.5 L 189.2 654.9 L 187.1 654.9 L 187.1 647.8 L 179.2 647.8 L 179.2 654.9 L 177.1 654.9 L 177.1 639.5 " fill="#000000"/>
<path class="atom-4" d="M 223.3 602.9 Q 223.3 599.2, 225.1 597.1 Q 227.0 595.1, 230.4 595.1 Q 233.8 595.1, 235.7 597.1 Q 237.5 599.2, 237.5 602.9 Q 237.5 606.7, 235.6 608.8 Q 233.8 610.9, 230.4 610.9 Q 227.0 610.9, 225.1 608.8 Q 223.3 606.7, 223.3 602.9 M 230.4 609.2 Q 232.8 609.2, 234.0 607.6 Q 235.3 606.0, 235.3 602.9 Q 235.3 599.9, 234.0 598.4 Q 232.8 596.8, 230.4 596.8 Q 228.0 596.8, 226.8 598.3 Q 225.5 599.9, 225.5 602.9 Q 225.5 606.1, 226.8 607.6 Q 228.0 609.2, 230.4 609.2 " fill="#000000"/>
<path class="atom-1" d="M 91.8,635.1 L 91.8,635.2 L 91.8,635.3 L 91.8,635.4 L 91.8,635.5 L 91.7,635.6 L 91.7,635.6 L 91.6,635.7 L 91.6,635.8 L 91.5,635.9 L 91.5,635.9 L 91.4,636.0 L 91.3,636.0 L 91.2,636.1 L 91.1,636.1 L 91.1,636.2 L 91.0,636.2 L 90.9,636.2 L 90.8,636.2 L 90.7,636.2 L 90.6,636.2 L 90.5,636.2 L 90.4,636.1 L 90.3,636.1 L 90.2,636.1 L 90.2,636.0 L 90.1,636.0 L 90.0,635.9 L 89.9,635.8 L 89.9,635.8 L 89.8,635.7 L 89.8,635.6 L 89.7,635.5 L 89.7,635.4 L 89.7,635.3 L 89.7,635.2 L 89.7,635.1 L 89.7,635.1 L 89.7,635.0 L 89.7,634.9 L 89.7,634.8 L 89.7,634.7 L 89.8,634.6 L 89.8,634.5 L 89.9,634.4 L 89.9,634.4 L 90.0,634.3 L 90.1,634.2 L 90.2,634.2 L 90.2,634.1 L 90.3,634.1 L 90.4,634.1 L 90.5,634.0 L 90.6,634.0 L 90.7,634.0 L 90.8,634.0 L 90.9,634.0 L 91.0,634.0 L 91.1,634.1 L 91.1,634.1 L 91.2,634.1 L 91.3,634.2 L 91.4,634.2 L 91.5,634.3 L 91.5,634.3 L 91.6,634.4 L 91.6,634.5 L 91.7,634.6 L 91.7,634.6 L 91.8,634.7 L 91.8,634.8 L 91.8,634.9 L 91.8,635.0 L 91.8,635.1 L 90.8,635.1 Z" style="fill:#000000;fill-rule:evenodd;fill-opacity:1;stroke:#000000;stroke-width:0.0px;stroke-linecap:butt;stroke-linejoin:miter;stroke-miterlimit:10;stroke-opacity:1;"/>
<path class="atom-1" d="M 87.5,635.1 L 87.5,635.2 L 87.5,635.3 L 87.4,635.4 L 87.4,635.5 L 87.4,635.6 L 87.3,635.6 L 87.3,635.7 L 87.2,635.8 L 87.2,635.9 L 87.1,635.9 L 87.0,636.0 L 86.9,636.0 L 86.9,636.1 L 86.8,636.1 L 86.7,636.2 L 86.6,636.2 L 86.5,636.2 L 86.4,636.2 L 86.3,636.2 L 86.2,636.2 L 86.1,636.2 L 86.0,636.1 L 85.9,636.1 L 85.9,636.1 L 85.8,636.0 L 85.7,636.0 L 85.6,635.9 L 85.6,635.8 L 85.5,635.8 L 85.5,635.7 L 85.4,635.6 L 85.4,635.5 L 85.3,635.4 L 85.3,635.3 L 85.3,635.2 L 85.3,635.1 L 85.3,635.1 L 85.3,635.0 L 85.3,634.9 L 85.3,634.8 L 85.4,634.7 L 85.4,634.6 L 85.5,634.5 L 85.5,634.4 L 85.6,634.4 L 85.6,634.3 L 85.7,634.2 L 85.8,634.2 L 85.9,634.1 L 85.9,634.1 L 86.0,634.1 L 86.1,634.0 L 86.2,634.0 L 86.3,634.0 L 86.4,634.0 L 86.5,634.0 L 86.6,634.0 L 86.7,634.1 L 86.8,634.1 L 86.9,634.1 L 86.9,634.2 L 87.0,634.2 L 87.1,634.3 L 87.2,634.3 L 87.2,634.4 L 87.3,634.5 L 87.3,634.6 L 87.4,634.6 L 87.4,634.7 L 87.4,634.8 L 87.5,634.9 L 87.5,635.0 L 87.5,635.1 L 86.4,635.1 Z" style="fill:#000000;fill-rule:evenodd;fill-opacity:1;stroke:#000000;stroke-width:0.0px;stroke-linecap:butt;stroke-linejoin:miter;stroke-miterlimit:10;stroke-opacity:1;"/>
<path class="bond-0 atom-0 atom-1" d="M 540.6,644.9 L 588.1,617.4" style="fill:none;fill-rule:evenodd;stroke:#000000;stroke-width:2.0px;stroke-linecap:butt;stroke-linejoin:miter;stroke-opacity:1"/>
<path class="bond-0 atom-0 atom-1" d="M 547.7,657.2 L 595.2,629.7" style="fill:none;fill-rule:evenodd;stroke:#000000;stroke-width:2.0px;stroke-linecap:butt;stroke-linejoin:miter;stroke-opacity:1"/>
<path class="bond-1 atom-1 atom-2" d="M 618.3,623.6 L 673.8,655.6" style="fill:none;fill-rule:evenodd;stroke:#000000;stroke-width:2.0px;stroke-linecap:butt;stroke-linejoin:miter;stroke-opacity:1"/>
<path class="atom-0" d="M 512.5 663.4 Q 512.5 656.7, 515.6 653.2 Q 518.8 649.7, 524.7 649.7 Q 530.2 649.7, 533.2 653.6 L 530.7 655.7 Q 528.5 652.8, 524.7 652.8 Q 520.7 652.8, 518.5 655.6 Q 516.4 658.2, 516.4 663.4 Q 516.4 668.7, 518.6 671.4 Q 520.8 674.2, 525.1 674.2 Q 528.1 674.2, 531.5 672.4 L 532.6 675.2 Q 531.2 676.1, 529.1 676.7 Q 526.9 677.2, 524.6 677.2 Q 518.8 677.2, 515.6 673.6 Q 512.5 670.1, 512.5 663.4 " fill="#000000"/>
<path class="atom-0" d="M 536.5 654.1 L 545.6 654.1 L 545.6 656.1 L 536.5 656.1 L 536.5 654.1 " fill="#000000"/>
<path class="atom-1" d="M 599.0 602.5 L 607.8 616.7 Q 608.7 618.1, 610.1 620.6 Q 611.5 623.2, 611.6 623.3 L 611.6 602.5 L 615.1 602.5 L 615.1 629.3 L 611.5 629.3 L 602.0 613.8 Q 600.9 611.9, 599.7 609.9 Q 598.6 607.8, 598.3 607.1 L 598.3 629.3 L 594.8 629.3 L 594.8 602.5 L 599.0 602.5 " fill="#000000"/>
<path class="atom-1" d="M 594.5 572.9 L 598.1 572.9 L 598.1 584.3 L 611.8 584.3 L 611.8 572.9 L 615.5 572.9 L 615.5 599.8 L 611.8 599.8 L 611.8 587.4 L 598.1 587.4 L 598.1 599.8 L 594.5 599.8 L 594.5 572.9 " fill="#000000"/>
<path class="atom-1" d="M 620.6 577.8 L 625.4 577.8 L 625.4 572.8 L 627.5 572.8 L 627.5 577.8 L 632.3 577.8 L 632.3 579.6 L 627.5 579.6 L 627.5 584.6 L 625.4 584.6 L 625.4 579.6 L 620.6 579.6 L 620.6 577.8 " fill="#000000"/>
<path class="atom-2" d="M 681.1 649.9 L 689.9 664.1 Q 690.8 665.5, 692.2 668.0 Q 693.6 670.6, 693.7 670.7 L 693.7 649.9 L 697.2 649.9 L 697.2 676.7 L 693.6 676.7 L 684.1 661.2 Q 683.0 659.3, 681.9 657.3 Q 680.7 655.2, 680.4 654.5 L 680.4 676.7 L 676.9 676.7 L 676.9 649.9 L 681.1 649.9 " fill="#000000"/>
<path class="atom-2" d="M 702.2 649.9 L 705.9 649.9 L 705.9 661.3 L 719.6 661.3 L 719.6 649.9 L 723.2 649.9 L 723.2 676.7 L 719.6 676.7 L 719.6 664.3 L 705.9 664.3 L 705.9 676.7 L 702.2 676.7 L 702.2 649.9 " fill="#000000"/>
<path class="atom-2" d="M 728.3 654.3 L 737.5 654.3 L 737.5 656.3 L 728.3 656.3 L 728.3 654.3 " fill="#000000"/>
</svg>