<svg xmlns="http://www.w3.org/2000/svg" xmlns:rdkit="http://www.rdkit.org/xml" xmlns:xlink="http://www.w3.org/1999/xlink" version="1.1" baseProfile="full" xml:space="preserve" width="750px" height="500px" viewBox="0 0 750 500">
<!-- END OF HEADER -->
<rect style="opacity:1.0;fill:#FFFFFF;stroke:none" width="250.0" height="250.0" x="0.0" y="0.0"> </rect>
<path class="bond-0 atom-0 atom-1" d="M 487.5,114.0 L 431.2,211.4" style="fill:none;fill-rule:evenodd;stroke:#000000;stroke-width:2.0px;stroke-linecap:butt;stroke-linejoin:miter;stroke-opacity:1"/>
<path class="bond-0 atom-0 atom-1" d="M 468.0,114.0 L 421.5,194.6" style="fill:none;fill-rule:evenodd;stroke:#000000;stroke-width:2.0px;stroke-linecap:butt;stroke-linejoin:miter;stroke-opacity:1"/>
<path class="bond-1 atom-1 atom-2" d="M 431.2,211.4 L 318.7,211.4" style="fill:none;fill-rule:evenodd;stroke:#000000;stroke-width:2.0px;stroke-linecap:butt;stroke-linejoin:miter;stroke-opacity:1"/>
<path class="bond-2 atom-2 atom-3" d="M 318.7,211.4 L 262.5,114.0" style="fill:none;fill-rule:evenodd;stroke:#000000;stroke-width:2.0px;stroke-linecap:butt;stroke-linejoin:miter;stroke-opacity:1"/>
<path class="bond-2 atom-2 atom-3" d="M 328.5,194.6 L 282.0,114.0" style="fill:none;fill-rule:evenodd;stroke:#000000;stroke-width:2.0px;stroke-linecap:butt;stroke-linejoin:miter;stroke-opacity:1"/>
<path class="bond-3 atom-3 atom-4" d="M 262.5,114.0 L 318.8,16.6" style="fill:none;fill-rule:evenodd;stroke:#000000;stroke-width:2.0px;stroke-linecap:butt;stroke-linejoin:miter;stroke-opacity:1"/>
<path class="bond-4 atom-4 atom-5" d="M 318.8,16.6 L 431.2,16.6" style="fill:none;fill-rule:evenodd;stroke:#000000;stroke-width:2.0px;stroke-linecap:butt;stroke-linejoin:miter;stroke-opacity:1"/>
<path class="bond-4 atom-4 atom-5" d="M 328.5,33.4 L 421.5,33.4" style="fill:none;fill-rule:evenodd;stroke:#000000;stroke-width:2.0px;stroke-linecap:butt;stroke-linejoin:miter;stroke-opacity:1"/>
<path class="bond-5 atom-5 atom-0" d="M 431.2,16.6 L 487.5,114.0" style="fill:none;fill-rule:evenodd;stroke:#000000;stroke-width:2.0px;stroke-linecap:butt;stroke-linejoin:miter;stroke-opacity:1"/>
<path d="M 484.7,118.9 L 487.5,114.0 L 484.7,109.1" style="fill:none;stroke:#000000;stroke-width:2.0px;stroke-linecap:butt;stroke-linejoin:miter;stroke-miterlimit:10;stroke-opacity:1;"/>
<path d="M 434.1,206.6 L 431.2,211.4 L 425.6,211.4" style="fill:none;stroke:#000000;stroke-width:2.0px;stroke-linecap:butt;stroke-linejoin:miter;stroke-miterlimit:10;stroke-opacity:1;"/>
<path d="M 324.4,211.4 L 318.7,211.4 L 315.9,206.6" style="fill:none;stroke:#000000;stroke-width:2.0px;stroke-linecap:butt;stroke-linejoin:miter;stroke-miterlimit:10;stroke-opacity:1;"/>
<path d="M 265.3,118.9 L 262.5,114.0 L 265.3,109.1" style="fill:none;stroke:#000000;stroke-width:2.0px;stroke-linecap:butt;stroke-linejoin:miter;stroke-miterlimit:10;stroke-opacity:1;"/>
<path d="M 315.9,21.4 L 318.8,16.6 L 324.4,16.6" style="fill:none;stroke:#000000;stroke-width:2.0px;stroke-linecap:butt;stroke-linejoin:miter;stroke-miterlimit:10;stroke-opacity:1;"/>
<path d="M 425.6,16.6 L 431.2,16.6 L 434.1,21.4" style="fill:none;stroke:#000000;stroke-width:2.0px;stroke-linecap:butt;stroke-linejoin:miter;stroke-miterlimit:10;stroke-opacity:1;"/>
<path class="legend" d="M 327.0 223.9 L 323.5 223.9 L 323.5 222.6 L 331.8 222.6 L 331.8 223.9 L 328.5 223.9 L 328.5 233.9 L 327.0 233.9 L 327.0 223.9 " fill="#000000"/>
<path class="legend" d="M 333.6 225.7 L 333.8 226.9 Q 334.7 225.6, 336.1 225.6 Q 336.5 225.6, 337.1 225.7 L 336.9 227.1 Q 336.2 226.9, 335.8 226.9 Q 335.2 226.9, 334.7 227.2 Q 334.3 227.5, 333.9 228.1 L 333.9 233.9 L 332.4 233.9 L 332.4 225.7 L 333.6 225.7 " fill="#000000"/>
<path class="legend" d="M 337.9 231.7 Q 337.9 230.4, 339.0 229.7 Q 340.1 229.0, 342.0 229.0 L 343.2 229.0 L 343.2 228.7 Q 343.2 227.6, 342.8 227.2 Q 342.4 226.8, 341.3 226.8 Q 340.7 226.8, 340.2 226.9 Q 339.7 227.0, 338.9 227.4 L 338.4 226.3 Q 339.9 225.6, 341.4 225.6 Q 343.1 225.6, 343.9 226.3 Q 344.7 227.1, 344.7 228.7 L 344.7 233.9 L 343.5 233.9 Q 343.5 233.9, 343.5 233.6 Q 343.4 233.4, 343.3 233.0 Q 342.2 234.1, 340.6 234.1 Q 339.4 234.1, 338.7 233.5 Q 337.9 232.8, 337.9 231.7 M 339.4 231.7 Q 339.4 232.3, 339.8 232.6 Q 340.2 233.0, 340.9 233.0 Q 341.6 233.0, 342.2 232.7 Q 342.8 232.4, 343.2 231.9 L 343.2 230.1 L 342.1 230.1 Q 340.8 230.1, 340.1 230.5 Q 339.4 230.9, 339.4 231.7 " fill="#000000"/>
<path class="legend" d="M 346.5 222.6 L 348.0 222.6 L 348.0 224.0 L 346.5 224.0 L 346.5 222.6 M 346.5 225.7 L 348.0 225.7 L 348.0 233.9 L 346.5 233.9 L 346.5 225.7 " fill="#000000"/>
<path class="legend" d="M 354.2 225.6 Q 355.5 225.6, 356.2 226.3 Q 356.9 227.1, 356.9 228.5 L 356.9 233.9 L 355.4 233.9 L 355.4 228.6 Q 355.4 227.6, 355.0 227.2 Q 354.7 226.8, 353.8 226.8 Q 353.1 226.8, 352.4 227.1 Q 351.8 227.5, 351.4 228.1 L 351.4 233.9 L 349.9 233.9 L 349.9 225.7 L 351.2 225.7 L 351.3 226.9 Q 352.4 225.6, 354.2 225.6 " fill="#000000"/>
<path class="legend" d="" fill="#000000"/>
<path class="legend" d="M 364.6 229.4 Q 364.6 227.1, 365.3 225.2 Q 365.9 223.3, 367.2 221.3 L 368.1 221.9 Q 367.1 223.8, 366.6 225.5 Q 366.1 227.2, 366.1 229.4 Q 366.1 231.5, 366.6 233.3 Q 367.1 235.0, 368.1 236.9 L 367.2 237.5 Q 365.9 235.5, 365.3 233.6 Q 364.6 231.7, 364.6 229.4 " fill="#000000"/>
<path class="legend" d="M 373.4 225.6 Q 374.7 225.6, 375.4 226.3 Q 376.1 227.1, 376.1 228.5 L 376.1 233.9 L 374.6 233.9 L 374.6 228.6 Q 374.6 227.6, 374.2 227.2 Q 373.8 226.8, 373.0 226.8 Q 372.2 226.8, 371.6 227.1 Q 371.0 227.5, 370.6 228.1 L 370.6 233.9 L 369.1 233.9 L 369.1 225.7 L 370.3 225.7 L 370.5 226.9 Q 371.6 225.6, 373.4 225.6 " fill="#000000"/>
<path class="legend" d="M 377.9 227.0 L 385.2 227.0 L 385.2 228.1 L 377.9 228.1 L 377.9 227.0 M 377.9 230.4 L 385.2 230.4 L 385.2 231.6 L 377.9 231.6 L 377.9 230.4 " fill="#000000"/>
<path class="legend" d="M 387.9 232.7 L 390.3 232.7 L 390.3 224.2 L 387.6 225.1 L 387.2 224.1 L 390.7 222.6 L 391.8 222.7 L 391.8 232.7 L 394.1 232.7 L 394.1 233.9 L 387.9 233.9 L 387.9 232.7 " fill="#000000"/>
<path class="legend" d="M 401.2 223.9 L 395.3 223.9 L 395.3 222.6 L 402.8 222.6 L 402.8 223.8 L 398.3 233.9 L 396.7 233.9 L 401.2 223.9 " fill="#000000"/>
<path class="legend" d="M 408.0 226.9 Q 409.0 226.9, 409.8 227.3 Q 410.6 227.7, 411.1 228.5 Q 411.5 229.3, 411.5 230.4 Q 411.5 231.5, 410.9 232.4 Q 410.4 233.2, 409.5 233.6 Q 408.5 234.1, 407.5 234.1 Q 406.4 234.1, 405.5 233.7 Q 404.5 233.3, 403.9 232.6 L 404.8 231.6 Q 405.3 232.2, 406.1 232.5 Q 406.8 232.8, 407.5 232.8 Q 408.5 232.8, 409.2 232.2 Q 409.9 231.5, 409.9 230.4 Q 409.9 229.2, 409.2 228.6 Q 408.5 228.1, 407.4 228.1 Q 406.4 228.1, 405.3 228.5 L 404.5 228.1 L 405.0 222.6 L 410.8 222.6 L 410.7 223.9 L 406.3 223.9 L 406.0 227.3 Q 407.0 226.9, 408.0 226.9 " fill="#000000"/>
<path class="legend" d="M 418.3 228.0 Q 419.4 228.3, 419.9 229.0 Q 420.5 229.7, 420.5 230.8 Q 420.5 231.8, 420.0 232.6 Q 419.5 233.3, 418.6 233.7 Q 417.8 234.1, 416.6 234.1 Q 415.4 234.1, 414.5 233.7 Q 413.6 233.3, 412.9 232.4 L 413.8 231.5 Q 414.5 232.2, 415.1 232.5 Q 415.7 232.8, 416.6 232.8 Q 417.6 232.8, 418.2 232.3 Q 418.9 231.7, 418.9 230.8 Q 418.9 229.7, 418.2 229.2 Q 417.6 228.6, 416.2 228.6 L 415.4 228.6 L 415.4 227.5 L 416.1 227.5 Q 417.3 227.5, 418.0 226.9 Q 418.6 226.4, 418.6 225.4 Q 418.6 224.7, 418.1 224.2 Q 417.5 223.8, 416.6 223.8 Q 415.7 223.8, 415.1 224.1 Q 414.5 224.4, 414.1 225.3 L 413.0 224.7 Q 413.4 223.8, 414.3 223.1 Q 415.3 222.5, 416.6 222.5 Q 418.3 222.5, 419.3 223.3 Q 420.2 224.1, 420.2 225.4 Q 420.2 226.3, 419.7 227.0 Q 419.2 227.6, 418.3 228.0 " fill="#000000"/>
<path class="legend" d="M 425.5 229.4 Q 425.5 231.7, 424.8 233.6 Q 424.2 235.5, 422.9 237.5 L 422.0 236.9 Q 423.0 235.0, 423.5 233.3 Q 424.1 231.5, 424.1 229.4 Q 424.1 227.2, 423.5 225.5 Q 423.0 223.8, 422.0 221.9 L 422.9 221.3 Q 424.2 223.3, 424.8 225.2 Q 425.5 227.1, 425.5 229.4 " fill="#000000"/>
<path class="bond-0 atom-0 atom-1" d="M 737.5,114.0 L 715.0,153.0" style="fill:none;fill-rule:evenodd;stroke:#000000;stroke-width:2.0px;stroke-linecap:butt;stroke-linejoin:miter;stroke-opacity:1"/>
<path class="bond-0 atom-0 atom-1" d="M 729.7,114.0 L 711.1,146.2" style="fill:none;fill-rule:evenodd;stroke:#000000;stroke-width:2.0px;stroke-linecap:butt;stroke-linejoin:miter;stroke-opacity:1"/>
<path class="bond-1 atom-1 atom-2" d="M 715.0,153.0 L 670.0,153.0" style="fill:none;fill-rule:evenodd;stroke:#000000;stroke-width:2.0px;stroke-linecap:butt;stroke-linejoin:miter;stroke-opacity:1"/>
<path class="bond-2 atom-2 atom-3" d="M 670.0,153.0 L 647.5,114.0" style="fill:none;fill-rule:evenodd;stroke:#000000;stroke-width:2.0px;stroke-linecap:butt;stroke-linejoin:miter;stroke-opacity:1"/>
<path class="bond-2 atom-2 atom-3" d="M 673.9,146.2 L 655.3,114.0" style="fill:none;fill-rule:evenodd;stroke:#000000;stroke-width:2.0px;stroke-linecap:butt;stroke-linejoin:miter;stroke-opacity:1"/>
<path class="bond-3 atom-3 atom-4" d="M 647.5,114.0 L 602.5,114.0" style="fill:none;fill-rule:evenodd;stroke:#000000;stroke-width:2.0px;stroke-linecap:butt;stroke-linejoin:miter;stroke-opacity:1"/>
<path class="bond-4 atom-4 atom-5" d="M 602.5,114.0 L 580.0,75.0" style="fill:none;fill-rule:evenodd;stroke:#000000;stroke-width:2.0px;stroke-linecap:butt;stroke-linejoin:miter;stroke-opacity:1"/>
<path class="bond-4 atom-4 atom-5" d="M 594.7,114.0 L 576.1,81.8" style="fill:none;fill-rule:evenodd;stroke:#000000;stroke-width:2.0px;stroke-linecap:butt;stroke-linejoin:miter;stroke-opacity:1"/>
<path class="bond-5 atom-5 atom-6" d="M 580.0,75.0 L 535.0,75.0" style="fill:none;fill-rule:evenodd;stroke:#000000;stroke-width:2.0px;stroke-linecap:butt;stroke-linejoin:miter;stroke-opacity:1"/>
<path class="bond-6 atom-6 atom-7" d="M 535.0,75.0 L 512.5,114.0" style="fill:none;fill-rule:evenodd;stroke:#000000;stroke-width:2.0px;stroke-linecap:butt;stroke-linejoin:miter;stroke-opacity:1"/>
<path class="bond-6 atom-6 atom-7" d="M 538.9,81.8 L 520.3,114.0" style="fill:none;fill-rule:evenodd;stroke:#000000;stroke-width:2.0px;stroke-linecap:butt;stroke-linejoin:miter;stroke-opacity:1"/>
<path class="bond-7 atom-7 atom-8" d="M 512.5,114.0 L 535.0,153.0" style="fill:none;fill-rule:evenodd;stroke:#000000;stroke-width:2.0px;stroke-linecap:butt;stroke-linejoin:miter;stroke-opacity:1"/>
<path class="bond-8 atom-8 atom-9" d="M 535.0,153.0 L 580.0,153.0" style="fill:none;fill-rule:evenodd;stroke:#000000;stroke-width:2.0px;stroke-linecap:butt;stroke-linejoin:miter;stroke-opacity:1"/>
<path class="bond-8 atom-8 atom-9" d="M 538.9,146.2 L 576.1,146.2" style="fill:none;fill-rule:evenodd;stroke:#000000;stroke-width:2.0px;stroke-linecap:butt;stroke-linejoin:miter;stroke-opacity:1"/>
<path class="bond-9 atom-3 atom-10" d="M 647.5,114.0 L 670.0,75.0" style="fill:none;fill-rule:evenodd;stroke:#000000;stroke-width:2.0px;stroke-linecap:butt;stroke-linejoin:miter;stroke-opacity:1"/>
<path class="bond-10 atom-10 atom-11" d="M 670.0,75.0 L 715.0,75.0" style="fill:none;fill-rule:evenodd;stroke:#000000;stroke-width:2.0px;stroke-linecap:butt;stroke-linejoin:miter;stroke-opacity:1"/>
<path class="bond-10 atom-10 atom-11" d="M 673.9,81.8 L 711.1,81.8" style="fill:none;fill-rule:evenodd;stroke:#000000;stroke-width:2.0px;stroke-linecap:butt;stroke-linejoin:miter;stroke-opacity:1"/>
<path class="bond-11 atom-11 atom-0" d="M 715.0,75.0 L 737.5,114.0" style="fill:none;fill-rule:evenodd;stroke:#000000;stroke-width:2.0px;stroke-linecap:butt;stroke-linejoin:miter;stroke-opacity:1"/>
<path class="bond-12 atom-9 atom-4" d="M 580.0,153.0 L 602.5,114.0" style="fill:none;fill-rule:evenodd;stroke:#000000;stroke-width:2.0px;stroke-linecap:butt;stroke-linejoin:miter;stroke-opacity:1"/>
<path d="M 736.4,115.9 L 737.5,114.0 L 736.4,112.1" style="fill:none;stroke:#000000;stroke-width:2.0px;stroke-linecap:butt;stroke-linejoin:miter;stroke-miterlimit:10;stroke-opacity:1;"/>
<path d="M 716.1,151.0 L 715.0,153.0 L 712.8,153.0" style="fill:none;stroke:#000000;stroke-width:2.0px;stroke-linecap:butt;stroke-linejoin:miter;stroke-miterlimit:10;stroke-opacity:1;"/>
<path d="M 672.2,153.0 L 670.0,153.0 L 668.9,151.0" style="fill:none;stroke:#000000;stroke-width:2.0px;stroke-linecap:butt;stroke-linejoin:miter;stroke-miterlimit:10;stroke-opacity:1;"/>
<path d="M 581.1,77.0 L 580.0,75.0 L 577.8,75.0" style="fill:none;stroke:#000000;stroke-width:2.0px;stroke-linecap:butt;stroke-linejoin:miter;stroke-miterlimit:10;stroke-opacity:1;"/>
<path d="M 537.2,75.0 L 535.0,75.0 L 533.9,77.0" style="fill:none;stroke:#000000;stroke-width:2.0px;stroke-linecap:butt;stroke-linejoin:miter;stroke-miterlimit:10;stroke-opacity:1;"/>
<path d="M 513.6,112.1 L 512.5,114.0 L 513.6,115.9" style="fill:none;stroke:#000000;stroke-width:2.0px;stroke-linecap:butt;stroke-linejoin:miter;stroke-miterlimit:10;stroke-opacity:1;"/>
<path d="M 533.9,151.0 L 535.0,153.0 L 537.2,153.0" style="fill:none;stroke:#000000;stroke-width:2.0px;stroke-linecap:butt;stroke-linejoin:miter;stroke-miterlimit:10;stroke-opacity:1;"/>
<path d="M 577.8,153.0 L 580.0,153.0 L 581.1,151.0" style="fill:none;stroke:#000000;stroke-width:2.0px;stroke-linecap:butt;stroke-linejoin:miter;stroke-miterlimit:10;stroke-opacity:1;"/>
<path d="M 668.9,77.0 L 670.0,75.0 L 672.2,75.0" style="fill:none;stroke:#000000;stroke-width:2.0px;stroke-linecap:butt;stroke-linejoin:miter;stroke-miterlimit:10;stroke-opacity:1;"/>
<path d="M 712.8,75.0 L 715.0,75.0 L 716.1,77.0" style="fill:none;stroke:#000000;stroke-width:2.0px;stroke-linecap:butt;stroke-linejoin:miter;stroke-miterlimit:10;stroke-opacity:1;"/>
<path class="legend" d="M 581.1 223.9 L 577.6 223.9 L 577.6 222.6 L 585.9 222.6 L 585.9 223.9 L 582.6 223.9 L 582.6 233.9 L 581.1 233.9 L 581.1 223.9 " fill="#000000"/>
<path class="legend" d="M 587.7 225.7 L 587.9 226.9 Q 588.7 225.6, 590.1 225.6 Q 590.6 225.6, 591.2 225.7 L 591.0 227.1 Q 590.3 226.9, 589.9 226.9 Q 589.2 226.9, 588.8 227.2 Q 588.3 227.5, 588.0 228.1 L 588.0 233.9 L 586.5 233.9 L 586.5 225.7 L 587.7 225.7 " fill="#000000"/>
<path class="legend" d="M 592.0 231.7 Q 592.0 230.4, 593.1 229.7 Q 594.1 229.0, 596.0 229.0 L 597.3 229.0 L 597.3 228.7 Q 597.3 227.6, 596.8 227.2 Q 596.4 226.8, 595.4 226.8 Q 594.7 226.8, 594.2 226.9 Q 593.7 227.0, 592.9 227.4 L 592.5 226.3 Q 594.0 225.6, 595.4 225.6 Q 597.2 225.6, 598.0 226.3 Q 598.8 227.1, 598.8 228.7 L 598.8 233.9 L 597.6 233.9 Q 597.6 233.9, 597.5 233.6 Q 597.5 233.4, 597.4 233.0 Q 596.2 234.1, 594.7 234.1 Q 593.5 234.1, 592.7 233.5 Q 592.0 232.8, 592.0 231.7 M 593.5 231.7 Q 593.5 232.3, 593.9 232.6 Q 594.3 233.0, 595.0 233.0 Q 595.6 233.0, 596.2 232.7 Q 596.8 232.4, 597.3 231.9 L 597.3 230.1 L 596.1 230.1 Q 594.8 230.1, 594.2 230.5 Q 593.5 230.9, 593.5 231.7 " fill="#000000"/>
<path class="legend" d="M 600.5 222.6 L 602.0 222.6 L 602.0 224.0 L 600.5 224.0 L 600.5 222.6 M 600.5 225.7 L 602.0 225.7 L 602.0 233.9 L 600.5 233.9 L 600.5 225.7 " fill="#000000"/>
<path class="legend" d="M 608.2 225.6 Q 609.5 225.6, 610.2 226.3 Q 610.9 227.1, 610.9 228.5 L 610.9 233.9 L 609.4 233.9 L 609.4 228.6 Q 609.4 227.6, 609.1 227.2 Q 608.7 226.8, 607.9 226.8 Q 607.1 226.8, 606.5 227.1 Q 605.9 227.5, 605.5 228.1 L 605.5 233.9 L 603.9 233.9 L 603.9 225.7 L 605.2 225.7 L 605.4 226.9 Q 606.5 225.6, 608.2 225.6 " fill="#000000"/>
<path class="legend" d="" fill="#000000"/>
<path class="legend" d="M 618.6 229.4 Q 618.6 227.1, 619.3 225.2 Q 619.9 223.3, 621.2 221.3 L 622.1 221.9 Q 621.1 223.8, 620.6 225.5 Q 620.1 227.2, 620.1 229.4 Q 620.1 231.5, 620.6 233.3 Q 621.1 235.0, 622.1 236.9 L 621.2 237.5 Q 619.9 235.5, 619.3 233.6 Q 618.6 231.7, 618.6 229.4 " fill="#000000"/>
<path class="legend" d="M 627.4 225.6 Q 628.7 225.6, 629.4 226.3 Q 630.1 227.1, 630.1 228.5 L 630.1 233.9 L 628.6 233.9 L 628.6 228.6 Q 628.6 227.6, 628.2 227.2 Q 627.8 226.8, 627.0 226.8 Q 626.2 226.8, 625.6 227.1 Q 625.0 227.5, 624.6 228.1 L 624.6 233.9 L 623.1 233.9 L 623.1 225.7 L 624.3 225.7 L 624.5 226.9 Q 625.6 225.6, 627.4 225.6 " fill="#000000"/>
<path class="legend" d="M 631.9 227.0 L 639.2 227.0 L 639.2 228.1 L 631.9 228.1 L 631.9 227.0 M 631.9 230.4 L 639.2 230.4 L 639.2 231.6 L 631.9 231.6 L 631.9 230.4 " fill="#000000"/>
<path class="legend" d="M 641.2 224.8 Q 641.7 223.7, 642.6 223.1 Q 643.6 222.5, 645.0 222.5 Q 646.7 222.5, 647.7 223.4 Q 648.6 224.3, 648.6 226.0 Q 648.6 227.7, 647.4 229.2 Q 646.2 230.8, 643.6 232.7 L 648.8 232.7 L 648.8 233.9 L 641.2 233.9 L 641.2 232.9 Q 643.3 231.4, 644.6 230.3 Q 645.8 229.1, 646.4 228.1 Q 647.0 227.1, 647.0 226.1 Q 647.0 225.0, 646.5 224.4 Q 646.0 223.8, 645.0 223.8 Q 644.1 223.8, 643.5 224.1 Q 642.9 224.5, 642.5 225.3 L 641.2 224.8 " fill="#000000"/>
<path class="legend" d="M 651.0 232.7 L 653.5 232.7 L 653.5 224.2 L 650.7 225.1 L 650.3 224.1 L 653.8 222.6 L 655.0 222.7 L 655.0 232.7 L 657.2 232.7 L 657.2 233.9 L 651.0 233.9 L 651.0 232.7 " fill="#000000"/>
<path class="legend" d="M 662.2 222.5 Q 664.2 222.5, 665.2 223.9 Q 666.3 225.2, 666.3 227.9 Q 666.3 231.0, 665.0 232.5 Q 663.8 234.1, 661.3 234.1 Q 660.6 234.1, 660.0 233.9 Q 659.4 233.8, 658.9 233.4 L 659.5 232.3 Q 660.3 232.8, 661.3 232.8 Q 662.9 232.8, 663.7 231.8 Q 664.6 230.7, 664.6 228.6 Q 664.1 229.1, 663.3 229.4 Q 662.6 229.7, 661.8 229.7 Q 660.8 229.7, 660.1 229.3 Q 659.3 228.8, 658.8 228.0 Q 658.4 227.3, 658.4 226.3 Q 658.4 225.2, 658.9 224.3 Q 659.4 223.5, 660.2 223.0 Q 661.1 222.5, 662.2 222.5 M 660.0 226.3 Q 660.0 227.3, 660.6 227.8 Q 661.1 228.4, 662.1 228.4 Q 662.8 228.4, 663.5 228.1 Q 664.2 227.9, 664.6 227.4 Q 664.6 225.5, 664.0 224.7 Q 663.4 223.8, 662.2 223.8 Q 661.6 223.8, 661.1 224.1 Q 660.6 224.4, 660.3 225.0 Q 660.0 225.6, 660.0 226.3 " fill="#000000"/>
<path class="legend" d="M 671.4 229.4 Q 671.4 231.7, 670.8 233.6 Q 670.1 235.5, 668.8 237.5 L 667.9 236.9 Q 668.9 235.0, 669.5 233.3 Q 670.0 231.5, 670.0 229.4 Q 670.0 227.2, 669.5 225.5 Q 668.9 223.8, 667.9 221.9 L 668.8 221.3 Q 670.1 223.3, 670.8 225.2 Q 671.4 227.1, 671.4 229.4 " fill="#000000"/>
<path class="bond-0 atom-0 atom-1" d="M 211.7,364.0 L 161.8,295.3" style="fill:none;fill-rule:evenodd;stroke:#000000;stroke-width:2.0px;stroke-linecap:butt;stroke-linejoin:miter;stroke-opacity:1"/>
<path class="bond-1 atom-1 atom-2" d="M 134.7,282.3 L 47.4,310.6" style="fill:none;fill-rule:evenodd;stroke:#000000;stroke-width:2.0px;stroke-linecap:butt;stroke-linejoin:miter;stroke-opacity:1"/>
<path class="bond-1 atom-1 atom-2" d="M 139.6,297.5 L 63.4,322.2" style="fill:none;fill-rule:evenodd;stroke:#000000;stroke-width:2.0px;stroke-linecap:butt;stroke-linejoin:miter;stroke-opacity:1"/>
<path class="bond-2 atom-2 atom-3" d="M 47.4,310.6 L 47.4,399.7" style="fill:none;fill-rule:evenodd;stroke:#000000;stroke-width:2.0px;stroke-linecap:butt;stroke-linejoin:miter;stroke-opacity:1"/>
<path class="bond-3 atom-3 atom-4" d="M 60.0,421.5 L 134.7,445.7" style="fill:none;fill-rule:evenodd;stroke:#000000;stroke-width:2.0px;stroke-linecap:butt;stroke-linejoin:miter;stroke-opacity:1"/>
<path class="bond-4 atom-4 atom-0" d="M 161.8,432.7 L 211.7,364.0" style="fill:none;fill-rule:evenodd;stroke:#000000;stroke-width:2.0px;stroke-linecap:butt;stroke-linejoin:miter;stroke-opacity:1"/>
<path class="bond-4 atom-4 atom-0" d="M 148.8,423.3 L 191.9,364.0" style="fill:none;fill-rule:evenodd;stroke:#000000;stroke-width:2.0px;stroke-linecap:butt;stroke-linejoin:miter;stroke-opacity:1"/>
<path d="M 209.2,360.6 L 211.7,364.0 L 209.2,367.4" style="fill:none;stroke:#000000;stroke-width:2.0px;stroke-linecap:butt;stroke-linejoin:miter;stroke-miterlimit:10;stroke-opacity:1;"/>
<path d="M 51.8,309.2 L 47.4,310.6 L 47.4,315.1" style="fill:none;stroke:#000000;stroke-width:2.0px;stroke-linecap:butt;stroke-linejoin:miter;stroke-miterlimit:10;stroke-opacity:1;"/>
<path class="atom-1" d="M 142.7 263.5 L 152.0 278.5 Q 152.9 279.9, 154.4 282.6 Q 155.8 285.3, 155.9 285.5 L 155.9 263.5 L 159.7 263.5 L 159.7 291.8 L 155.8 291.8 L 145.8 275.4 Q 144.7 273.5, 143.4 271.3 Q 142.2 269.1, 141.9 268.4 L 141.9 291.8 L 138.2 291.8 L 138.2 263.5 L 142.7 263.5 " fill="#000000"/>
<path class="atom-3" d="M 39.4 427.1 Q 39.7 427.2, 41.0 427.8 Q 42.3 428.3, 43.8 428.7 Q 45.3 429.0, 46.7 429.0 Q 49.4 429.0, 50.9 427.7 Q 52.5 426.4, 52.5 424.1 Q 52.5 422.6, 51.7 421.6 Q 50.9 420.7, 49.7 420.1 Q 48.5 419.6, 46.5 419.0 Q 44.0 418.3, 42.5 417.5 Q 41.0 416.8, 39.9 415.3 Q 38.9 413.8, 38.9 411.2 Q 38.9 407.7, 41.3 405.5 Q 43.7 403.3, 48.5 403.3 Q 51.8 403.3, 55.5 404.8 L 54.6 407.9 Q 51.2 406.5, 48.7 406.5 Q 45.9 406.5, 44.4 407.7 Q 42.9 408.8, 42.9 410.7 Q 42.9 412.3, 43.7 413.2 Q 44.5 414.1, 45.6 414.6 Q 46.7 415.1, 48.7 415.7 Q 51.2 416.5, 52.7 417.3 Q 54.3 418.1, 55.3 419.8 Q 56.5 421.4, 56.5 424.1 Q 56.5 428.1, 53.8 430.2 Q 51.2 432.3, 46.9 432.3 Q 44.3 432.3, 42.4 431.7 Q 40.5 431.2, 38.3 430.3 L 39.4 427.1 " fill="#000000"/>
<path class="atom-4" d="M 142.7 436.2 L 152.0 451.2 Q 152.9 452.7, 154.4 455.4 Q 155.8 458.1, 155.9 458.2 L 155.9 436.2 L 159.7 436.2 L 159.7 464.5 L 155.8 464.5 L 145.8 448.1 Q 144.7 446.2, 143.4 444.0 Q 142.2 441.8, 141.9 441.1 L 141.9 464.5 L 138.2 464.5 L 138.2 436.2 L 142.7 436.2 " fill="#000000"/>
<path class="legend" d="M 91.9 473.9 L 88.4 473.9 L 88.4 472.6 L 96.7 472.6 L 96.7 473.9 L 93.4 473.9 L 93.4 483.9 L 91.9 483.9 L 91.9 473.9 " fill="#000000"/>
<path class="legend" d="M 97.3 479.8 Q 97.3 477.8, 98.3 476.7 Q 99.3 475.6, 101.1 475.6 Q 102.9 475.6, 103.7 476.7 Q 104.6 477.7, 104.6 479.8 L 104.6 480.0 L 98.8 480.0 Q 98.8 481.4, 99.5 482.2 Q 100.1 482.9, 101.3 482.9 Q 101.9 482.9, 102.5 482.7 Q 103.1 482.6, 103.8 482.3 L 104.2 483.3 Q 103.4 483.7, 102.7 483.9 Q 101.9 484.1, 101.2 484.1 Q 99.3 484.1, 98.3 483.0 Q 97.3 481.8, 97.3 479.8 M 101.1 476.8 Q 100.2 476.8, 99.6 477.3 Q 99.0 477.9, 98.9 478.9 L 103.0 478.9 Q 102.9 477.8, 102.4 477.3 Q 102.0 476.8, 101.1 476.8 " fill="#000000"/>
<path class="legend" d="M 106.2 482.3 Q 106.9 482.6, 107.4 482.7 Q 107.9 482.8, 108.5 482.8 Q 109.2 482.8, 109.6 482.5 Q 110.0 482.2, 110.0 481.6 Q 110.0 481.3, 109.8 481.1 Q 109.6 480.8, 109.3 480.7 Q 109.1 480.6, 108.4 480.3 Q 108.2 480.3, 107.5 480.1 Q 106.8 479.8, 106.4 479.3 Q 106.0 478.7, 106.0 477.9 Q 106.0 476.9, 106.8 476.3 Q 107.5 475.6, 109.0 475.6 Q 109.6 475.6, 110.2 475.7 Q 110.7 475.9, 111.4 476.1 L 111.0 477.3 Q 110.4 477.1, 110.0 477.0 Q 109.5 476.8, 109.0 476.8 Q 108.3 476.8, 107.9 477.1 Q 107.5 477.4, 107.5 477.9 Q 107.5 478.3, 107.8 478.6 Q 108.1 478.8, 108.8 479.0 Q 109.0 479.1, 109.1 479.1 L 109.5 479.3 Q 110.2 479.5, 110.6 479.7 Q 111.0 479.9, 111.3 480.4 Q 111.5 480.9, 111.5 481.6 Q 111.5 482.8, 110.7 483.5 Q 109.9 484.1, 108.5 484.1 Q 107.7 484.1, 107.1 483.9 Q 106.4 483.8, 105.7 483.5 L 106.2 482.3 " fill="#000000"/>
<path class="legend" d="M 113.0 476.9 L 113.0 475.7 L 114.5 475.7 L 114.8 473.3 L 115.9 473.3 L 115.9 475.7 L 118.4 475.7 L 118.4 476.9 L 115.9 476.9 L 115.9 481.4 Q 115.9 482.8, 117.1 482.8 Q 117.6 482.8, 118.3 482.6 L 118.5 483.7 Q 117.7 484.0, 116.8 484.0 Q 115.8 484.0, 115.1 483.4 Q 114.4 482.8, 114.4 481.5 L 114.4 476.9 L 113.0 476.9 " fill="#000000"/>
<path class="legend" d="" fill="#000000"/>
<path class="legend" d="M 125.4 479.4 Q 125.4 477.1, 126.0 475.2 Q 126.7 473.3, 128.0 471.3 L 128.9 471.9 Q 127.9 473.8, 127.3 475.5 Q 126.8 477.2, 126.8 479.4 Q 126.8 481.5, 127.3 483.3 Q 127.9 485.0, 128.9 486.9 L 128.0 487.5 Q 126.7 485.5, 126.0 483.6 Q 125.4 481.7, 125.4 479.4 " fill="#000000"/>
<path class="legend" d="M 134.2 475.6 Q 135.5 475.6, 136.2 476.3 Q 136.9 477.1, 136.9 478.5 L 136.9 483.9 L 135.4 483.9 L 135.4 478.6 Q 135.4 477.6, 135.0 477.2 Q 134.6 476.8, 133.8 476.8 Q 133.0 476.8, 132.4 477.1 Q 131.8 477.5, 131.4 478.1 L 131.4 483.9 L 129.9 483.9 L 129.9 475.7 L 131.1 475.7 L 131.3 476.9 Q 132.4 475.6, 134.2 475.6 " fill="#000000"/>
<path class="legend" d="M 138.7 477.0 L 146.0 477.0 L 146.0 478.1 L 138.7 478.1 L 138.7 477.0 M 138.7 480.4 L 146.0 480.4 L 146.0 481.6 L 138.7 481.6 L 138.7 480.4 " fill="#000000"/>
<path class="legend" d="M 153.4 478.0 Q 154.5 478.3, 155.1 479.0 Q 155.6 479.7, 155.6 480.8 Q 155.6 481.8, 155.1 482.6 Q 154.7 483.3, 153.8 483.7 Q 152.9 484.1, 151.7 484.1 Q 150.5 484.1, 149.6 483.7 Q 148.7 483.3, 148.0 482.4 L 148.9 481.5 Q 149.6 482.2, 150.2 482.5 Q 150.8 482.8, 151.7 482.8 Q 152.8 482.8, 153.4 482.3 Q 154.0 481.7, 154.0 480.8 Q 154.0 479.7, 153.4 479.2 Q 152.7 478.6, 151.3 478.6 L 150.5 478.6 L 150.5 477.5 L 151.2 477.5 Q 152.5 477.5, 153.1 476.9 Q 153.8 476.4, 153.8 475.4 Q 153.8 474.7, 153.2 474.2 Q 152.7 473.8, 151.8 473.8 Q 150.8 473.8, 150.2 474.1 Q 149.6 474.4, 149.2 475.3 L 148.1 474.7 Q 148.5 473.8, 149.5 473.1 Q 150.4 472.5, 151.8 472.5 Q 153.4 472.5, 154.4 473.3 Q 155.4 474.1, 155.4 475.4 Q 155.4 476.3, 154.9 477.0 Q 154.4 477.6, 153.4 478.0 " fill="#000000"/>
<path class="legend" d="M 160.6 479.4 Q 160.6 481.7, 160.0 483.6 Q 159.3 485.5, 158.0 487.5 L 157.1 486.9 Q 158.2 485.0, 158.7 483.3 Q 159.2 481.5, 159.2 479.4 Q 159.2 477.2, 158.7 475.5 Q 158.2 473.8, 157.1 471.9 L 158.0 471.3 Q 159.3 473.3, 160.0 475.2 Q 160.6 477.1, 160.6 479.4 " fill="#000000"/>
<path class="bond-0 atom-0 atom-1" d="M 319.5,290.7 L 330.3,338.0" style="fill:none;fill-rule:evenodd;stroke:#000000;stroke-width:2.0px;stroke-linecap:butt;stroke-linejoin:miter;stroke-opacity:1"/>
<path class="bond-0 atom-0 atom-1" d="M 311.3,292.6 L 322.0,339.8" style="fill:none;fill-rule:evenodd;stroke:#000000;stroke-width:2.0px;stroke-linecap:butt;stroke-linejoin:miter;stroke-opacity:1"/>
<path class="bond-1 atom-1 atom-2" d="M 325.6,336.5 L 292.2,367.6" style="fill:none;fill-rule:evenodd;stroke:#000000;stroke-width:2.0px;stroke-linecap:butt;stroke-linejoin:miter;stroke-opacity:1"/>
<path class="bond-2 atom-2 atom-3" d="M 286.5,384.8 L 294.5,420.1" style="fill:none;fill-rule:evenodd;stroke:#000000;stroke-width:2.0px;stroke-linecap:butt;stroke-linejoin:miter;stroke-opacity:1"/>
<path class="bond-3 atom-3 atom-4" d="M 304.7,432.4 L 342.8,444.2" style="fill:none;fill-rule:evenodd;stroke:#000000;stroke-width:2.0px;stroke-linecap:butt;stroke-linejoin:miter;stroke-opacity:1"/>
<path class="bond-3 atom-3 atom-4" d="M 307.2,424.3 L 345.3,436.1" style="fill:none;fill-rule:evenodd;stroke:#000000;stroke-width:2.0px;stroke-linecap:butt;stroke-linejoin:miter;stroke-opacity:1"/>
<path class="bond-4 atom-4 atom-5" d="M 358.7,439.3 L 392.1,408.2" style="fill:none;fill-rule:evenodd;stroke:#000000;stroke-width:2.0px;stroke-linecap:butt;stroke-linejoin:miter;stroke-opacity:1"/>
<path class="bond-5 atom-5 atom-6" d="M 392.1,408.2 L 446.1,424.9" style="fill:none;fill-rule:evenodd;stroke:#000000;stroke-width:2.0px;stroke-linecap:butt;stroke-linejoin:miter;stroke-opacity:1"/>
<path class="bond-5 atom-5 atom-6" d="M 399.3,401.6 L 443.9,415.3" style="fill:none;fill-rule:evenodd;stroke:#000000;stroke-width:2.0px;stroke-linecap:butt;stroke-linejoin:miter;stroke-opacity:1"/>
<path class="bond-6 atom-6 atom-7" d="M 446.1,424.9 L 487.5,386.5" style="fill:none;fill-rule:evenodd;stroke:#000000;stroke-width:2.0px;stroke-linecap:butt;stroke-linejoin:miter;stroke-opacity:1"/>
<path class="bond-7 atom-7 atom-8" d="M 487.5,386.5 L 474.9,331.4" style="fill:none;fill-rule:evenodd;stroke:#000000;stroke-width:2.0px;stroke-linecap:butt;stroke-linejoin:miter;stroke-opacity:1"/>
<path class="bond-7 atom-7 atom-8" d="M 478.2,383.6 L 467.8,338.1" style="fill:none;fill-rule:evenodd;stroke:#000000;stroke-width:2.0px;stroke-linecap:butt;stroke-linejoin:miter;stroke-opacity:1"/>
<path class="bond-8 atom-8 atom-9" d="M 474.9,331.4 L 421.0,314.8" style="fill:none;fill-rule:evenodd;stroke:#000000;stroke-width:2.0px;stroke-linecap:butt;stroke-linejoin:miter;stroke-opacity:1"/>
<path class="bond-9 atom-9 atom-10" d="M 421.0,314.8 L 379.6,353.2" style="fill:none;fill-rule:evenodd;stroke:#000000;stroke-width:2.0px;stroke-linecap:butt;stroke-linejoin:miter;stroke-opacity:1"/>
<path class="bond-9 atom-9 atom-10" d="M 423.2,324.3 L 388.9,356.1" style="fill:none;fill-rule:evenodd;stroke:#000000;stroke-width:2.0px;stroke-linecap:butt;stroke-linejoin:miter;stroke-opacity:1"/>
<path class="bond-10 atom-10 atom-1" d="M 379.6,353.2 L 325.6,336.5" style="fill:none;fill-rule:evenodd;stroke:#000000;stroke-width:2.0px;stroke-linecap:butt;stroke-linejoin:miter;stroke-opacity:1"/>
<path class="bond-11 atom-10 atom-5" d="M 379.6,353.2 L 392.1,408.2" style="fill:none;fill-rule:evenodd;stroke:#000000;stroke-width:2.0px;stroke-linecap:butt;stroke-linejoin:miter;stroke-opacity:1"/>
<path d="M 324.0,338.1 L 325.6,336.5 L 328.3,337.4" style="fill:none;stroke:#000000;stroke-width:2.0px;stroke-linecap:butt;stroke-linejoin:miter;stroke-miterlimit:10;stroke-opacity:1;"/>
<path d="M 443.4,424.0 L 446.1,424.9 L 448.2,423.0" style="fill:none;stroke:#000000;stroke-width:2.0px;stroke-linecap:butt;stroke-linejoin:miter;stroke-miterlimit:10;stroke-opacity:1;"/>
<path d="M 485.4,388.4 L 487.5,386.5 L 486.9,383.7" style="fill:none;stroke:#000000;stroke-width:2.0px;stroke-linecap:butt;stroke-linejoin:miter;stroke-miterlimit:10;stroke-opacity:1;"/>
<path d="M 475.6,334.2 L 474.9,331.4 L 472.2,330.6" style="fill:none;stroke:#000000;stroke-width:2.0px;stroke-linecap:butt;stroke-linejoin:miter;stroke-miterlimit:10;stroke-opacity:1;"/>
<path d="M 423.7,315.6 L 421.0,314.8 L 418.9,316.7" style="fill:none;stroke:#000000;stroke-width:2.0px;stroke-linecap:butt;stroke-linejoin:miter;stroke-miterlimit:10;stroke-opacity:1;"/>
<path class="atom-0" d="M 305.7 281.5 Q 305.7 277.7, 307.6 275.5 Q 309.5 273.4, 313.1 273.4 Q 316.6 273.4, 318.5 275.5 Q 320.4 277.7, 320.4 281.5 Q 320.4 285.4, 318.5 287.6 Q 316.6 289.8, 313.1 289.8 Q 309.6 289.8, 307.6 287.6 Q 305.7 285.4, 305.7 281.5 M 313.1 288.0 Q 315.5 288.0, 316.8 286.4 Q 318.2 284.7, 318.2 281.5 Q 318.2 278.4, 316.8 276.8 Q 315.5 275.2, 313.1 275.2 Q 310.6 275.2, 309.3 276.8 Q 308.0 278.3, 308.0 281.5 Q 308.0 284.7, 309.3 286.4 Q 310.6 288.0, 313.1 288.0 " fill="#000000"/>
<path class="atom-2" d="M 262.5 366.9 L 264.7 366.9 L 264.7 373.7 L 272.8 373.7 L 272.8 366.9 L 275.0 366.9 L 275.0 382.9 L 272.8 382.9 L 272.8 375.5 L 264.7 375.5 L 264.7 382.9 L 262.5 382.9 L 262.5 366.9 " fill="#000000"/>
<path class="atom-2" d="M 280.7 366.9 L 285.9 375.4 Q 286.5 376.2, 287.3 377.7 Q 288.1 379.3, 288.2 379.3 L 288.2 366.9 L 290.3 366.9 L 290.3 382.9 L 288.1 382.9 L 282.5 373.7 Q 281.8 372.6, 281.1 371.3 Q 280.4 370.1, 280.2 369.7 L 280.2 382.9 L 278.2 382.9 L 278.2 366.9 L 280.7 366.9 " fill="#000000"/>
<path class="atom-3" d="M 293.3 422.0 L 298.5 430.4 Q 299.0 431.3, 299.8 432.8 Q 300.7 434.3, 300.7 434.4 L 300.7 422.0 L 302.8 422.0 L 302.8 438.0 L 300.7 438.0 L 295.0 428.7 Q 294.4 427.6, 293.7 426.4 Q 293.0 425.1, 292.8 424.8 L 292.8 438.0 L 290.7 438.0 L 290.7 422.0 L 293.3 422.0 " fill="#000000"/>
<path class="atom-4" d="M 347.2 438.6 L 352.4 447.1 Q 353.0 447.9, 353.8 449.5 Q 354.6 451.0, 354.7 451.1 L 354.7 438.6 L 356.8 438.6 L 356.8 454.6 L 354.6 454.6 L 349.0 445.4 Q 348.3 444.3, 347.6 443.0 Q 347.0 441.8, 346.8 441.4 L 346.8 454.6 L 344.7 454.6 L 344.7 438.6 L 347.2 438.6 " fill="#000000"/>
<path class="legend" d="M 341.9 473.9 L 338.4 473.9 L 338.4 472.6 L 346.7 472.6 L 346.7 473.9 L 343.4 473.9 L 343.4 483.9 L 341.9 483.9 L 341.9 473.9 " fill="#000000"/>
<path class="legend" d="M 347.3 479.8 Q 347.3 477.8, 348.3 476.7 Q 349.3 475.6, 351.1 475.6 Q 352.9 475.6, 353.7 476.7 Q 354.6 477.7, 354.6 479.8 L 354.6 480.0 L 348.8 480.0 Q 348.8 481.4, 349.5 482.2 Q 350.1 482.9, 351.3 482.9 Q 351.9 482.9, 352.5 482.7 Q 353.1 482.6, 353.8 482.3 L 354.2 483.3 Q 353.4 483.7, 352.7 483.9 Q 351.9 484.1, 351.2 484.1 Q 349.3 484.1, 348.3 483.0 Q 347.3 481.8, 347.3 479.8 M 351.1 476.8 Q 350.2 476.8, 349.6 477.3 Q 349.0 477.9, 348.9 478.9 L 353.0 478.9 Q 352.9 477.8, 352.4 477.3 Q 352.0 476.8, 351.1 476.8 " fill="#000000"/>
<path class="legend" d="M 356.2 482.3 Q 356.9 482.6, 357.4 482.7 Q 357.9 482.8, 358.5 482.8 Q 359.2 482.8, 359.6 482.5 Q 360.0 482.2, 360.0 481.6 Q 360.0 481.3, 359.8 481.1 Q 359.6 480.8, 359.3 480.7 Q 359.1 480.6, 358.4 480.3 Q 358.2 480.3, 357.5 480.1 Q 356.8 479.8, 356.4 479.3 Q 356.0 478.7, 356.0 477.9 Q 356.0 476.9, 356.8 476.3 Q 357.5 475.6, 359.0 475.6 Q 359.6 475.6, 360.2 475.7 Q 360.7 475.9, 361.4 476.1 L 361.0 477.3 Q 360.4 477.1, 360.0 477.0 Q 359.5 476.8, 359.0 476.8 Q 358.3 476.8, 357.9 477.1 Q 357.5 477.4, 357.5 477.9 Q 357.5 478.3, 357.8 478.6 Q 358.1 478.8, 358.8 479.0 Q 359.0 479.1, 359.1 479.1 L 359.5 479.3 Q 360.2 479.5, 360.6 479.7 Q 361.0 479.9, 361.3 480.4 Q 361.5 480.9, 361.5 481.6 Q 361.5 482.8, 360.7 483.5 Q 359.9 484.1, 358.5 484.1 Q 357.7 484.1, 357.1 483.9 Q 356.4 483.8, 355.7 483.5 L 356.2 482.3 " fill="#000000"/>
<path class="legend" d="M 363.0 476.9 L 363.0 475.7 L 364.5 475.7 L 364.8 473.3 L 365.9 473.3 L 365.9 475.7 L 368.4 475.7 L 368.4 476.9 L 365.9 476.9 L 365.9 481.4 Q 365.9 482.8, 367.1 482.8 Q 367.6 482.8, 368.3 482.6 L 368.5 483.7 Q 367.7 484.0, 366.8 484.0 Q 365.8 484.0, 365.1 483.4 Q 364.4 482.8, 364.4 481.5 L 364.4 476.9 L 363.0 476.9 " fill="#000000"/>
<path class="legend" d="" fill="#000000"/>
<path class="legend" d="M 375.4 479.4 Q 375.4 477.1, 376.0 475.2 Q 376.7 473.3, 378.0 471.3 L 378.9 471.9 Q 377.9 473.8, 377.3 475.5 Q 376.8 477.2, 376.8 479.4 Q 376.8 481.5, 377.3 483.3 Q 377.9 485.0, 378.9 486.9 L 378.0 487.5 Q 376.7 485.5, 376.0 483.6 Q 375.4 481.7, 375.4 479.4 " fill="#000000"/>
<path class="legend" d="M 384.2 475.6 Q 385.5 475.6, 386.2 476.3 Q 386.9 477.1, 386.9 478.5 L 386.9 483.9 L 385.4 483.9 L 385.4 478.6 Q 385.4 477.6, 385.0 477.2 Q 384.6 476.8, 383.8 476.8 Q 383.0 476.8, 382.4 477.1 Q 381.8 477.5, 381.4 478.1 L 381.4 483.9 L 379.9 483.9 L 379.9 475.7 L 381.1 475.7 L 381.3 476.9 Q 382.4 475.6, 384.2 475.6 " fill="#000000"/>
<path class="legend" d="M 388.7 477.0 L 396.0 477.0 L 396.0 478.1 L 388.7 478.1 L 388.7 477.0 M 388.7 480.4 L 396.0 480.4 L 396.0 481.6 L 388.7 481.6 L 388.7 480.4 " fill="#000000"/>
<path class="legend" d="M 403.4 478.0 Q 404.5 478.3, 405.1 479.0 Q 405.6 479.7, 405.6 480.8 Q 405.6 481.8, 405.1 482.6 Q 404.7 483.3, 403.8 483.7 Q 402.9 484.1, 401.7 484.1 Q 400.5 484.1, 399.6 483.7 Q 398.7 483.3, 398.0 482.4 L 398.9 481.5 Q 399.6 482.2, 400.2 482.5 Q 400.8 482.8, 401.7 482.8 Q 402.8 482.8, 403.4 482.3 Q 404.0 481.7, 404.0 480.8 Q 404.0 479.7, 403.4 479.2 Q 402.7 478.6, 401.3 478.6 L 400.5 478.6 L 400.5 477.5 L 401.2 477.5 Q 402.5 477.5, 403.1 476.9 Q 403.8 476.4, 403.8 475.4 Q 403.8 474.7, 403.2 474.2 Q 402.7 473.8, 401.8 473.8 Q 400.8 473.8, 400.2 474.1 Q 399.6 474.4, 399.2 475.3 L 398.1 474.7 Q 398.5 473.8, 399.5 473.1 Q 400.4 472.5, 401.8 472.5 Q 403.4 472.5, 404.4 473.3 Q 405.4 474.1, 405.4 475.4 Q 405.4 476.3, 404.9 477.0 Q 404.4 477.6, 403.4 478.0 " fill="#000000"/>
<path class="legend" d="M 410.6 479.4 Q 410.6 481.7, 410.0 483.6 Q 409.3 485.5, 408.0 487.5 L 407.1 486.9 Q 408.2 485.0, 408.7 483.3 Q 409.2 481.5, 409.2 479.4 Q 409.2 477.2, 408.7 475.5 Q 408.2 473.8, 407.1 471.9 L 408.0 471.3 Q 409.3 473.3, 410.0 475.2 Q 410.6 477.1, 410.6 479.4 " fill="#000000"/>
<path class="bond-0 atom-0 atom-1" d="M 626.4,352.3 L 617.3,372.5" style="fill:none;fill-rule:evenodd;stroke:#000000;stroke-width:2.0px;stroke-linecap:butt;stroke-linejoin:miter;stroke-opacity:1"/>
<path class="bond-0 atom-0 atom-1" d="M 621.4,350.0 L 612.3,370.3" style="fill:none;fill-rule:evenodd;stroke:#000000;stroke-width:2.0px;stroke-linecap:butt;stroke-linejoin:miter;stroke-opacity:1"/>
<path class="bond-1 atom-1 atom-2" d="M 606.5,383.2 L 597.4,403.4" style="fill:none;fill-rule:evenodd;stroke:#000000;stroke-width:2.0px;stroke-linecap:butt;stroke-linejoin:miter;stroke-opacity:1"/>
<path class="bond-1 atom-1 atom-2" d="M 611.5,385.5 L 602.4,405.6" style="fill:none;fill-rule:evenodd;stroke:#000000;stroke-width:2.0px;stroke-linecap:butt;stroke-linejoin:miter;stroke-opacity:1"/>
<path class="bond-2 atom-1 atom-3" d="M 616.5,379.8 L 640.0,390.4" style="fill:none;fill-rule:evenodd;stroke:#000000;stroke-width:2.0px;stroke-linecap:butt;stroke-linejoin:miter;stroke-opacity:1"/>
<path class="bond-3 atom-3 atom-4" d="M 650.2,389.0 L 674.6,371.4" style="fill:none;fill-rule:evenodd;stroke:#000000;stroke-width:2.0px;stroke-linecap:butt;stroke-linejoin:miter;stroke-opacity:1"/>
<path class="bond-4 atom-4 atom-5" d="M 674.6,371.4 L 707.8,386.3" style="fill:none;fill-rule:evenodd;stroke:#000000;stroke-width:2.0px;stroke-linecap:butt;stroke-linejoin:miter;stroke-opacity:1"/>
<path class="bond-4 atom-4 atom-5" d="M 679.7,367.7 L 707.1,380.1" style="fill:none;fill-rule:evenodd;stroke:#000000;stroke-width:2.0px;stroke-linecap:butt;stroke-linejoin:miter;stroke-opacity:1"/>
<path class="bond-5 atom-5 atom-6" d="M 707.8,386.3 L 737.3,365.1" style="fill:none;fill-rule:evenodd;stroke:#000000;stroke-width:2.0px;stroke-linecap:butt;stroke-linejoin:miter;stroke-opacity:1"/>
<path class="bond-6 atom-6 atom-7" d="M 737.3,365.1 L 734.2,335.3" style="fill:none;fill-rule:evenodd;stroke:#000000;stroke-width:2.0px;stroke-linecap:butt;stroke-linejoin:miter;stroke-opacity:1"/>
<path class="bond-6 atom-6 atom-7" d="M 731.5,362.5 L 728.8,335.8" style="fill:none;fill-rule:evenodd;stroke:#000000;stroke-width:2.0px;stroke-linecap:butt;stroke-linejoin:miter;stroke-opacity:1"/>
<path class="bond-7 atom-7 atom-8" d="M 728.5,326.6 L 700.4,314.0" style="fill:none;fill-rule:evenodd;stroke:#000000;stroke-width:2.0px;stroke-linecap:butt;stroke-linejoin:miter;stroke-opacity:1"/>
<path class="bond-8 atom-8 atom-9" d="M 700.4,314.0 L 676.1,331.6" style="fill:none;fill-rule:evenodd;stroke:#000000;stroke-width:2.0px;stroke-linecap:butt;stroke-linejoin:miter;stroke-opacity:1"/>
<path class="bond-8 atom-8 atom-9" d="M 701.1,320.3 L 679.2,336.0" style="fill:none;fill-rule:evenodd;stroke:#000000;stroke-width:2.0px;stroke-linecap:butt;stroke-linejoin:miter;stroke-opacity:1"/>
<path class="bond-9 atom-1 atom-10" d="M 607.5,375.7 L 578.8,362.8" style="fill:none;fill-rule:evenodd;stroke:#000000;stroke-width:2.0px;stroke-linecap:butt;stroke-linejoin:miter;stroke-opacity:1"/>
<path class="bond-10 atom-10 atom-11" d="M 578.8,362.8 L 575.1,326.7" style="fill:none;fill-rule:evenodd;stroke:#000000;stroke-width:2.0px;stroke-linecap:butt;stroke-linejoin:miter;stroke-opacity:1"/>
<path class="bond-10 atom-10 atom-11" d="M 573.1,360.2 L 570.0,330.3" style="fill:none;fill-rule:evenodd;stroke:#000000;stroke-width:2.0px;stroke-linecap:butt;stroke-linejoin:miter;stroke-opacity:1"/>
<path class="bond-11 atom-11 atom-12" d="M 575.1,326.7 L 542.0,311.7" style="fill:none;fill-rule:evenodd;stroke:#000000;stroke-width:2.0px;stroke-linecap:butt;stroke-linejoin:miter;stroke-opacity:1"/>
<path class="bond-12 atom-12 atom-13" d="M 542.0,311.7 L 512.5,333.0" style="fill:none;fill-rule:evenodd;stroke:#000000;stroke-width:2.0px;stroke-linecap:butt;stroke-linejoin:miter;stroke-opacity:1"/>
<path class="bond-12 atom-12 atom-13" d="M 542.6,318.0 L 518.2,335.6" style="fill:none;fill-rule:evenodd;stroke:#000000;stroke-width:2.0px;stroke-linecap:butt;stroke-linejoin:miter;stroke-opacity:1"/>
<path class="bond-13 atom-13 atom-14" d="M 512.5,333.0 L 516.2,369.2" style="fill:none;fill-rule:evenodd;stroke:#000000;stroke-width:2.0px;stroke-linecap:butt;stroke-linejoin:miter;stroke-opacity:1"/>
<path class="bond-14 atom-14 atom-15" d="M 516.2,369.2 L 549.3,384.1" style="fill:none;fill-rule:evenodd;stroke:#000000;stroke-width:2.0px;stroke-linecap:butt;stroke-linejoin:miter;stroke-opacity:1"/>
<path class="bond-14 atom-14 atom-15" d="M 521.3,365.5 L 548.7,377.8" style="fill:none;fill-rule:evenodd;stroke:#000000;stroke-width:2.0px;stroke-linecap:butt;stroke-linejoin:miter;stroke-opacity:1"/>
<path class="bond-15 atom-9 atom-4" d="M 671.6,341.6 L 674.6,371.4" style="fill:none;fill-rule:evenodd;stroke:#000000;stroke-width:2.0px;stroke-linecap:butt;stroke-linejoin:miter;stroke-opacity:1"/>
<path class="bond-16 atom-15 atom-10" d="M 549.3,384.1 L 578.8,362.8" style="fill:none;fill-rule:evenodd;stroke:#000000;stroke-width:2.0px;stroke-linecap:butt;stroke-linejoin:miter;stroke-opacity:1"/>
<path d="M 706.1,385.6 L 707.8,386.3 L 709.2,385.3" style="fill:none;stroke:#000000;stroke-width:2.0px;stroke-linecap:butt;stroke-linejoin:miter;stroke-miterlimit:10;stroke-opacity:1;"/>
<path d="M 735.8,366.1 L 737.3,365.1 L 737.1,363.6" style="fill:none;stroke:#000000;stroke-width:2.0px;stroke-linecap:butt;stroke-linejoin:miter;stroke-miterlimit:10;stroke-opacity:1;"/>
<path d="M 701.8,314.6 L 700.4,314.0 L 699.2,314.9" style="fill:none;stroke:#000000;stroke-width:2.0px;stroke-linecap:butt;stroke-linejoin:miter;stroke-miterlimit:10;stroke-opacity:1;"/>
<path d="M 575.3,328.5 L 575.1,326.7 L 573.5,325.9" style="fill:none;stroke:#000000;stroke-width:2.0px;stroke-linecap:butt;stroke-linejoin:miter;stroke-miterlimit:10;stroke-opacity:1;"/>
<path d="M 543.7,312.5 L 542.0,311.7 L 540.5,312.8" style="fill:none;stroke:#000000;stroke-width:2.0px;stroke-linecap:butt;stroke-linejoin:miter;stroke-miterlimit:10;stroke-opacity:1;"/>
<path d="M 514.0,331.9 L 512.5,333.0 L 512.7,334.8" style="fill:none;stroke:#000000;stroke-width:2.0px;stroke-linecap:butt;stroke-linejoin:miter;stroke-miterlimit:10;stroke-opacity:1;"/>
<path d="M 516.0,367.4 L 516.2,369.2 L 517.8,369.9" style="fill:none;stroke:#000000;stroke-width:2.0px;stroke-linecap:butt;stroke-linejoin:miter;stroke-miterlimit:10;stroke-opacity:1;"/>
<path d="M 547.7,383.3 L 549.3,384.1 L 550.8,383.0" style="fill:none;stroke:#000000;stroke-width:2.0px;stroke-linecap:butt;stroke-linejoin:miter;stroke-miterlimit:10;stroke-opacity:1;"/>
<path class="atom-0" d="M 622.1 344.6 Q 622.1 342.1, 623.4 340.8 Q 624.6 339.4, 626.9 339.4 Q 629.2 339.4, 630.4 340.8 Q 631.6 342.1, 631.6 344.6 Q 631.6 347.1, 630.4 348.5 Q 629.1 350.0, 626.9 350.0 Q 624.6 350.0, 623.4 348.5 Q 622.1 347.1, 622.1 344.6 M 626.9 348.8 Q 628.4 348.8, 629.3 347.7 Q 630.1 346.7, 630.1 344.6 Q 630.1 342.6, 629.3 341.6 Q 628.4 340.5, 626.9 340.5 Q 625.3 340.5, 624.4 341.6 Q 623.6 342.6, 623.6 344.6 Q 623.6 346.7, 624.4 347.7 Q 625.3 348.8, 626.9 348.8 " fill="#000000"/>
<path class="atom-1" d="M 609.0 381.3 Q 609.2 381.3, 609.6 381.5 Q 610.1 381.7, 610.6 381.9 Q 611.2 382.0, 611.7 382.0 Q 612.7 382.0, 613.3 381.5 Q 613.8 381.0, 613.8 380.2 Q 613.8 379.6, 613.5 379.3 Q 613.3 378.9, 612.8 378.7 Q 612.4 378.6, 611.7 378.3 Q 610.7 378.1, 610.2 377.8 Q 609.6 377.5, 609.3 377.0 Q 608.9 376.4, 608.9 375.5 Q 608.9 374.2, 609.7 373.4 Q 610.6 372.6, 612.4 372.6 Q 613.6 372.6, 614.9 373.2 L 614.6 374.3 Q 613.4 373.8, 612.4 373.8 Q 611.4 373.8, 610.9 374.2 Q 610.3 374.6, 610.3 375.3 Q 610.3 375.9, 610.6 376.2 Q 610.9 376.6, 611.3 376.7 Q 611.7 376.9, 612.4 377.1 Q 613.4 377.4, 613.9 377.7 Q 614.5 378.0, 614.9 378.6 Q 615.3 379.2, 615.3 380.2 Q 615.3 381.6, 614.3 382.4 Q 613.4 383.2, 611.8 383.2 Q 610.9 383.2, 610.2 382.9 Q 609.5 382.8, 608.7 382.4 L 609.0 381.3 " fill="#000000"/>
<path class="atom-2" d="M 592.3 410.9 Q 592.3 408.5, 593.5 407.1 Q 594.8 405.7, 597.0 405.7 Q 599.3 405.7, 600.5 407.1 Q 601.8 408.5, 601.8 410.9 Q 601.8 413.4, 600.5 414.9 Q 599.3 416.3, 597.0 416.3 Q 594.8 416.3, 593.5 414.9 Q 592.3 413.4, 592.3 410.9 M 597.0 415.1 Q 598.6 415.1, 599.5 414.1 Q 600.3 413.0, 600.3 410.9 Q 600.3 408.9, 599.5 407.9 Q 598.6 406.9, 597.0 406.9 Q 595.5 406.9, 594.6 407.9 Q 593.8 408.9, 593.8 410.9 Q 593.8 413.0, 594.6 414.1 Q 595.5 415.1, 597.0 415.1 " fill="#000000"/>
<path class="atom-3" d="M 642.8 387.5 L 646.2 393.0 Q 646.5 393.5, 647.1 394.5 Q 647.6 395.5, 647.6 395.5 L 647.6 387.5 L 649.0 387.5 L 649.0 397.8 L 647.6 397.8 L 644.0 391.8 Q 643.6 391.1, 643.1 390.3 Q 642.7 389.5, 642.5 389.3 L 642.5 397.8 L 641.2 397.8 L 641.2 387.5 L 642.8 387.5 " fill="#000000"/>
<path class="atom-3" d="M 641.1 398.8 L 642.5 398.8 L 642.5 403.2 L 647.7 403.2 L 647.7 398.8 L 649.1 398.8 L 649.1 409.1 L 647.7 409.1 L 647.7 404.4 L 642.5 404.4 L 642.5 409.1 L 641.1 409.1 L 641.1 398.8 " fill="#000000"/>
<path class="atom-7" d="M 731.3 323.8 L 734.7 329.2 Q 735.0 329.7, 735.6 330.7 Q 736.1 331.7, 736.1 331.8 L 736.1 323.8 L 737.5 323.8 L 737.5 334.1 L 736.1 334.1 L 732.5 328.1 Q 732.0 327.4, 731.6 326.6 Q 731.2 325.8, 731.0 325.5 L 731.0 334.1 L 729.7 334.1 L 729.7 323.8 L 731.3 323.8 " fill="#000000"/>
<path class="atom-9" d="M 668.7 330.1 L 672.0 335.5 Q 672.4 336.1, 672.9 337.1 Q 673.5 338.0, 673.5 338.1 L 673.5 330.1 L 674.9 330.1 L 674.9 340.4 L 673.4 340.4 L 669.8 334.4 Q 669.4 333.7, 668.9 332.9 Q 668.5 332.1, 668.4 331.9 L 668.4 340.4 L 667.0 340.4 L 667.0 330.1 L 668.7 330.1 " fill="#000000"/>
<path class="legend" d="M 591.9 473.9 L 588.4 473.9 L 588.4 472.6 L 596.7 472.6 L 596.7 473.9 L 593.4 473.9 L 593.4 483.9 L 591.9 483.9 L 591.9 473.9 " fill="#000000"/>
<path class="legend" d="M 597.3 479.8 Q 597.3 477.8, 598.3 476.7 Q 599.3 475.6, 601.1 475.6 Q 602.9 475.6, 603.7 476.7 Q 604.6 477.7, 604.6 479.8 L 604.6 480.0 L 598.8 480.0 Q 598.8 481.4, 599.5 482.2 Q 600.1 482.9, 601.3 482.9 Q 601.9 482.9, 602.5 482.7 Q 603.1 482.6, 603.8 482.3 L 604.2 483.3 Q 603.4 483.7, 602.7 483.9 Q 601.9 484.1, 601.2 484.1 Q 599.3 484.1, 598.3 483.0 Q 597.3 481.8, 597.3 479.8 M 601.1 476.8 Q 600.2 476.8, 599.6 477.3 Q 599.0 477.9, 598.9 478.9 L 603.0 478.9 Q 602.9 477.8, 602.4 477.3 Q 602.0 476.8, 601.1 476.8 " fill="#000000"/>
<path class="legend" d="M 606.2 482.3 Q 606.9 482.6, 607.4 482.7 Q 607.9 482.8, 608.5 482.8 Q 609.2 482.8, 609.6 482.5 Q 610.0 482.2, 610.0 481.6 Q 610.0 481.3, 609.8 481.1 Q 609.6 480.8, 609.3 480.7 Q 609.1 480.6, 608.4 480.3 Q 608.2 480.3, 607.5 480.1 Q 606.8 479.8, 606.4 479.3 Q 606.0 478.7, 606.0 477.9 Q 606.0 476.9, 606.8 476.3 Q 607.5 475.6, 609.0 475.6 Q 609.6 475.6, 610.2 475.7 Q 610.7 475.9, 611.4 476.1 L 611.0 477.3 Q 610.4 477.1, 610.0 477.0 Q 609.5 476.8, 609.0 476.8 Q 608.3 476.8, 607.9 477.1 Q 607.5 477.4, 607.5 477.9 Q 607.5 478.3, 607.8 478.6 Q 608.1 478.8, 608.8 479.0 Q 609.0 479.1, 609.1 479.1 L 609.5 479.3 Q 610.2 479.5, 610.6 479.7 Q 611.0 479.9, 611.3 480.4 Q 611.5 480.9, 611.5 481.6 Q 611.5 482.8, 610.7 483.5 Q 609.9 484.1, 608.5 484.1 Q 607.7 484.1, 607.1 483.9 Q 606.4 483.8, 605.7 483.5 L 606.2 482.3 " fill="#000000"/>
<path class="legend" d="M 613.0 476.9 L 613.0 475.7 L 614.5 475.7 L 614.8 473.3 L 615.9 473.3 L 615.9 475.7 L 618.4 475.7 L 618.4 476.9 L 615.9 476.9 L 615.9 481.4 Q 615.9 482.8, 617.1 482.8 Q 617.6 482.8, 618.3 482.6 L 618.5 483.7 Q 617.7 484.0, 616.8 484.0 Q 615.8 484.0, 615.1 483.4 Q 614.4 482.8, 614.4 481.5 L 614.4 476.9 L 613.0 476.9 " fill="#000000"/>
<path class="legend" d="" fill="#000000"/>
<path class="legend" d="M 625.4 479.4 Q 625.4 477.1, 626.0 475.2 Q 626.7 473.3, 628.0 471.3 L 628.9 471.9 Q 627.9 473.8, 627.3 475.5 Q 626.8 477.2, 626.8 479.4 Q 626.8 481.5, 627.3 483.3 Q 627.9 485.0, 628.9 486.9 L 628.0 487.5 Q 626.7 485.5, 626.0 483.6 Q 625.4 481.7, 625.4 479.4 " fill="#000000"/>
<path class="legend" d="M 634.2 475.6 Q 635.5 475.6, 636.2 476.3 Q 636.9 477.1, 636.9 478.5 L 636.9 483.9 L 635.4 483.9 L 635.4 478.6 Q 635.4 477.6, 635.0 477.2 Q 634.6 476.8, 633.8 476.8 Q 633.0 476.8, 632.4 477.1 Q 631.8 477.5, 631.4 478.1 L 631.4 483.9 L 629.9 483.9 L 629.9 475.7 L 631.1 475.7 L 631.3 476.9 Q 632.4 475.6, 634.2 475.6 " fill="#000000"/>
<path class="legend" d="M 638.7 477.0 L 646.0 477.0 L 646.0 478.1 L 638.7 478.1 L 638.7 477.0 M 638.7 480.4 L 646.0 480.4 L 646.0 481.6 L 638.7 481.6 L 638.7 480.4 " fill="#000000"/>
<path class="legend" d="M 653.4 478.0 Q 654.5 478.3, 655.1 479.0 Q 655.6 479.7, 655.6 480.8 Q 655.6 481.8, 655.1 482.6 Q 654.7 483.3, 653.8 483.7 Q 652.9 484.1, 651.7 484.1 Q 650.5 484.1, 649.6 483.7 Q 648.7 483.3, 648.0 482.4 L 648.9 481.5 Q 649.6 482.2, 650.2 482.5 Q 650.8 482.8, 651.7 482.8 Q 652.8 482.8, 653.4 482.3 Q 654.0 481.7, 654.0 480.8 Q 654.0 479.7, 653.4 479.2 Q 652.7 478.6, 651.3 478.6 L 650.5 478.6 L 650.5 477.5 L 651.2 477.5 Q 652.5 477.5, 653.1 476.9 Q 653.8 476.4, 653.8 475.4 Q 653.8 474.7, 653.2 474.2 Q 652.7 473.8, 651.8 473.8 Q 650.8 473.8, 650.2 474.1 Q 649.6 474.4, 649.2 475.3 L 648.1 474.7 Q 648.5 473.8, 649.5 473.1 Q 650.4 472.5, 651.8 472.5 Q 653.4 472.5, 654.4 473.3 Q 655.4 474.1, 655.4 475.4 Q 655.4 476.3, 654.9 477.0 Q 654.4 477.6, 653.4 478.0 " fill="#000000"/>
<path class="legend" d="M 660.6 479.4 Q 660.6 481.7, 660.0 483.6 Q 659.3 485.5, 658.0 487.5 L 657.1 486.9 Q 658.2 485.0, 658.7 483.3 Q 659.2 481.5, 659.2 479.4 Q 659.2 477.2, 658.7 475.5 Q 658.2 473.8, 657.1 471.9 L 658.0 471.3 Q 659.3 473.3, 660.0 475.2 Q 660.6 477.1, 660.6 479.4 " fill="#000000"/>
</svg>