<svg xmlns="http://www.w3.org/2000/svg" xmlns:rdkit="http://www.rdkit.org/xml" xmlns:xlink="http://www.w3.org/1999/xlink" version="1.1" baseProfile="full" xml:space="preserve" width="750px" height="750px" viewBox="0 0 750 750">
<!-- END OF HEADER -->
<rect style="opacity:1.0;fill:#FFFFFF;stroke:none" width="250.0" height="250.0" x="0.0" y="0.0"> </rect>
<path class="bond-0 atom-0 atom-1" d="M 194.4,172.4 L 167.9,166.7" style="fill:none;fill-rule:evenodd;stroke:#000000;stroke-width:2.0px;stroke-linecap:butt;stroke-linejoin:miter;stroke-opacity:1"/>
<path class="bond-1 atom-1 atom-2" d="M 161.4,159.4 L 154.4,137.6" style="fill:none;fill-rule:evenodd;stroke:#000000;stroke-width:2.0px;stroke-linecap:butt;stroke-linejoin:miter;stroke-opacity:1"/>
<path class="bond-2 atom-2 atom-3" d="M 147.2,130.1 L 116.9,123.6" style="fill:none;fill-rule:evenodd;stroke:#000000;stroke-width:2.0px;stroke-linecap:butt;stroke-linejoin:miter;stroke-opacity:1"/>
<path class="bond-3 atom-3 atom-4" d="M 116.9,123.6 L 111.9,87.6" style="fill:none;fill-rule:evenodd;stroke:#000000;stroke-width:2.0px;stroke-linecap:butt;stroke-linejoin:miter;stroke-opacity:1"/>
<path class="bond-4 atom-4 atom-5" d="M 111.9,87.6 L 85.0,63.3" style="fill:none;fill-rule:evenodd;stroke:#000000;stroke-width:2.0px;stroke-linecap:butt;stroke-linejoin:miter;stroke-opacity:1"/>
<path class="bond-5 atom-5 atom-6" d="M 85.0,63.3 L 48.8,61.9" style="fill:none;fill-rule:evenodd;stroke:#000000;stroke-width:2.0px;stroke-linecap:butt;stroke-linejoin:miter;stroke-opacity:1"/>
<path class="bond-6 atom-6 atom-7" d="M 48.8,61.9 L 26.1,79.6" style="fill:none;fill-rule:evenodd;stroke:#000000;stroke-width:2.0px;stroke-linecap:butt;stroke-linejoin:miter;stroke-opacity:1"/>
<path class="bond-7 atom-7 atom-8" d="M 18.7,90.7 L 12.5,119.6" style="fill:none;fill-rule:evenodd;stroke:#000000;stroke-width:2.0px;stroke-linecap:butt;stroke-linejoin:miter;stroke-opacity:1"/>
<path class="bond-8 atom-8 atom-9" d="M 12.5,119.6 L 29.4,151.7" style="fill:none;fill-rule:evenodd;stroke:#000000;stroke-width:2.0px;stroke-linecap:butt;stroke-linejoin:miter;stroke-opacity:1"/>
<path class="bond-9 atom-9 atom-10" d="M 29.4,151.7 L 57.1,163.0" style="fill:none;fill-rule:evenodd;stroke:#000000;stroke-width:2.0px;stroke-linecap:butt;stroke-linejoin:miter;stroke-opacity:1"/>
<path class="bond-10 atom-10 atom-11" d="M 69.0,163.5 L 97.6,154.3" style="fill:none;fill-rule:evenodd;stroke:#000000;stroke-width:2.0px;stroke-linecap:butt;stroke-linejoin:miter;stroke-opacity:1"/>
<path class="bond-11 atom-11 atom-12" d="M 97.6,154.3 L 114.9,176.6" style="fill:none;fill-rule:evenodd;stroke:#000000;stroke-width:2.0px;stroke-linecap:butt;stroke-linejoin:miter;stroke-opacity:1"/>
<path class="bond-12 atom-4 atom-13" d="M 111.9,87.6 L 141.5,69.1 L 146.8,72.4 Z" style="fill:#000000;fill-rule:evenodd;fill-opacity:1;stroke:#000000;stroke-width:0.5px;stroke-linecap:butt;stroke-linejoin:miter;stroke-miterlimit:10;stroke-opacity:1;"/>
<path class="bond-13 atom-13 atom-14" d="M 141.5,69.1 L 174.7,90.0" style="fill:none;fill-rule:evenodd;stroke:#000000;stroke-width:2.0px;stroke-linecap:butt;stroke-linejoin:miter;stroke-opacity:1"/>
<path class="bond-14 atom-14 atom-15" d="M 174.7,90.0 L 206.8,73.1" style="fill:none;fill-rule:evenodd;stroke:#000000;stroke-width:2.0px;stroke-linecap:butt;stroke-linejoin:miter;stroke-opacity:1"/>
<path class="bond-15 atom-15 atom-16" d="M 206.8,73.1 L 237.5,92.4" style="fill:none;fill-rule:evenodd;stroke:#000000;stroke-width:2.0px;stroke-linecap:butt;stroke-linejoin:miter;stroke-opacity:1"/>
<path class="bond-15 atom-15 atom-16" d="M 206.6,79.3 L 234.6,97.0" style="fill:none;fill-rule:evenodd;stroke:#000000;stroke-width:2.0px;stroke-linecap:butt;stroke-linejoin:miter;stroke-opacity:1"/>
<path class="bond-16 atom-11 atom-3" d="M 97.6,154.3 L 116.9,123.6" style="fill:none;fill-rule:evenodd;stroke:#000000;stroke-width:2.0px;stroke-linecap:butt;stroke-linejoin:miter;stroke-opacity:1"/>
<path d="M 112.2,89.4 L 111.9,87.6 L 110.6,86.4" style="fill:none;stroke:#000000;stroke-width:2.0px;stroke-linecap:butt;stroke-linejoin:miter;stroke-miterlimit:10;stroke-opacity:1;"/>
<path d="M 86.4,64.5 L 85.0,63.3 L 83.2,63.2" style="fill:none;stroke:#000000;stroke-width:2.0px;stroke-linecap:butt;stroke-linejoin:miter;stroke-miterlimit:10;stroke-opacity:1;"/>
<path d="M 50.6,62.0 L 48.8,61.9 L 47.7,62.8" style="fill:none;stroke:#000000;stroke-width:2.0px;stroke-linecap:butt;stroke-linejoin:miter;stroke-miterlimit:10;stroke-opacity:1;"/>
<path d="M 12.8,118.2 L 12.5,119.6 L 13.3,121.2" style="fill:none;stroke:#000000;stroke-width:2.0px;stroke-linecap:butt;stroke-linejoin:miter;stroke-miterlimit:10;stroke-opacity:1;"/>
<path d="M 28.6,150.1 L 29.4,151.7 L 30.8,152.3" style="fill:none;stroke:#000000;stroke-width:2.0px;stroke-linecap:butt;stroke-linejoin:miter;stroke-miterlimit:10;stroke-opacity:1;"/>
<path d="M 173.1,89.0 L 174.7,90.0 L 176.3,89.2" style="fill:none;stroke:#000000;stroke-width:2.0px;stroke-linecap:butt;stroke-linejoin:miter;stroke-miterlimit:10;stroke-opacity:1;"/>
<path d="M 205.2,73.9 L 206.8,73.1 L 208.3,74.0" style="fill:none;stroke:#000000;stroke-width:2.0px;stroke-linecap:butt;stroke-linejoin:miter;stroke-miterlimit:10;stroke-opacity:1;"/>
<path class="atom-0" d="M 198.7 168.3 Q 200.4 168.3, 201.3 169.1 Q 202.2 169.8, 202.2 171.3 Q 202.2 172.7, 201.3 173.5 Q 200.4 174.3, 198.7 174.3 L 197.0 174.3 L 197.0 178.5 L 195.6 178.5 L 195.6 168.3 L 198.7 168.3 M 198.7 173.1 Q 199.7 173.1, 200.2 172.7 Q 200.7 172.2, 200.7 171.3 Q 200.7 170.4, 200.2 169.9 Q 199.7 169.4, 198.7 169.4 L 197.0 169.4 L 197.0 173.1 L 198.7 173.1 " fill="#000000"/>
<path class="atom-0" d="M 203.6 168.3 L 205.0 168.3 L 205.0 172.6 L 210.2 172.6 L 210.2 168.3 L 211.6 168.3 L 211.6 178.5 L 210.2 178.5 L 210.2 173.8 L 205.0 173.8 L 205.0 178.5 L 203.6 178.5 L 203.6 168.3 " fill="#000000"/>
<path class="atom-0" d="M 213.6 178.2 Q 213.9 177.5, 214.4 177.2 Q 215.0 176.8, 215.9 176.8 Q 216.9 176.8, 217.5 177.4 Q 218.0 177.9, 218.0 178.9 Q 218.0 179.9, 217.3 180.8 Q 216.6 181.8, 215.0 182.9 L 218.2 182.9 L 218.2 183.7 L 213.6 183.7 L 213.6 183.0 Q 214.8 182.1, 215.6 181.5 Q 216.3 180.8, 216.7 180.2 Q 217.1 179.6, 217.1 179.0 Q 217.1 178.3, 216.8 177.9 Q 216.4 177.6, 215.9 177.6 Q 215.3 177.6, 215.0 177.8 Q 214.6 178.0, 214.3 178.5 L 213.6 178.2 " fill="#000000"/>
<path class="atom-1" d="M 160.6 169.3 Q 160.7 169.3, 161.1 169.5 Q 161.6 169.7, 162.1 169.9 Q 162.7 170.0, 163.2 170.0 Q 164.2 170.0, 164.7 169.5 Q 165.3 169.0, 165.3 168.2 Q 165.3 167.6, 165.0 167.3 Q 164.7 166.9, 164.3 166.8 Q 163.9 166.6, 163.1 166.3 Q 162.2 166.1, 161.7 165.8 Q 161.1 165.5, 160.8 165.0 Q 160.4 164.4, 160.4 163.5 Q 160.4 162.2, 161.2 161.4 Q 162.1 160.6, 163.9 160.6 Q 165.1 160.6, 166.4 161.2 L 166.1 162.3 Q 164.8 161.8, 163.9 161.8 Q 162.9 161.8, 162.4 162.2 Q 161.8 162.6, 161.8 163.3 Q 161.8 163.9, 162.1 164.2 Q 162.4 164.6, 162.8 164.7 Q 163.2 164.9, 163.9 165.2 Q 164.8 165.4, 165.4 165.7 Q 165.9 166.0, 166.3 166.6 Q 166.7 167.2, 166.7 168.2 Q 166.7 169.6, 165.8 170.4 Q 164.8 171.1, 163.3 171.1 Q 162.3 171.1, 161.7 170.9 Q 161.0 170.8, 160.2 170.4 L 160.6 169.3 " fill="#000000"/>
<path class="atom-1" d="M 168.0 162.2 L 171.5 162.2 L 171.5 162.9 L 168.0 162.9 L 168.0 162.2 " fill="#000000"/>
<path class="atom-2" d="M 150.1 126.1 L 153.4 131.5 Q 153.8 132.1, 154.3 133.0 Q 154.8 134.0, 154.9 134.1 L 154.9 126.1 L 156.2 126.1 L 156.2 136.4 L 154.8 136.4 L 151.2 130.4 Q 150.8 129.7, 150.3 128.9 Q 149.9 128.1, 149.8 127.9 L 149.8 136.4 L 148.4 136.4 L 148.4 126.1 L 150.1 126.1 " fill="#000000"/>
<path class="atom-2" d="M 158.2 127.9 L 160.0 127.9 L 160.0 126.0 L 160.8 126.0 L 160.8 127.9 L 162.6 127.9 L 162.6 128.6 L 160.8 128.6 L 160.8 130.5 L 160.0 130.5 L 160.0 128.6 L 158.2 128.6 L 158.2 127.9 " fill="#000000"/>
<path class="atom-7" d="M 15.4 84.2 Q 15.4 81.7, 16.6 80.4 Q 17.9 79.0, 20.1 79.0 Q 22.4 79.0, 23.6 80.4 Q 24.9 81.7, 24.9 84.2 Q 24.9 86.7, 23.6 88.1 Q 22.4 89.5, 20.1 89.5 Q 17.9 89.5, 16.6 88.1 Q 15.4 86.7, 15.4 84.2 M 20.1 88.4 Q 21.7 88.4, 22.5 87.3 Q 23.4 86.3, 23.4 84.2 Q 23.4 82.2, 22.5 81.2 Q 21.7 80.1, 20.1 80.1 Q 18.6 80.1, 17.7 81.2 Q 16.9 82.2, 16.9 84.2 Q 16.9 86.3, 17.7 87.3 Q 18.6 88.4, 20.1 88.4 " fill="#000000"/>
<path class="atom-10" d="M 58.3 165.4 Q 58.3 163.0, 59.5 161.6 Q 60.8 160.2, 63.0 160.2 Q 65.3 160.2, 66.5 161.6 Q 67.8 163.0, 67.8 165.4 Q 67.8 167.9, 66.5 169.3 Q 65.3 170.8, 63.0 170.8 Q 60.8 170.8, 59.5 169.3 Q 58.3 167.9, 58.3 165.4 M 63.0 169.6 Q 64.6 169.6, 65.4 168.6 Q 66.3 167.5, 66.3 165.4 Q 66.3 163.4, 65.4 162.4 Q 64.6 161.4, 63.0 161.4 Q 61.5 161.4, 60.6 162.4 Q 59.8 163.4, 59.8 165.4 Q 59.8 167.5, 60.6 168.6 Q 61.5 169.6, 63.0 169.6 " fill="#000000"/>
<path class="atom-12" d="M 117.6 177.8 L 120.9 183.2 Q 121.3 183.8, 121.8 184.7 Q 122.3 185.7, 122.4 185.8 L 122.4 177.8 L 123.7 177.8 L 123.7 188.1 L 122.3 188.1 L 118.7 182.1 Q 118.3 181.4, 117.8 180.6 Q 117.4 179.8, 117.3 179.6 L 117.3 188.1 L 115.9 188.1 L 115.9 177.8 L 117.6 177.8 " fill="#000000"/>
<path class="atom-12" d="M 125.7 177.8 L 127.1 177.8 L 127.1 182.2 L 132.3 182.2 L 132.3 177.8 L 133.7 177.8 L 133.7 188.1 L 132.3 188.1 L 132.3 183.3 L 127.1 183.3 L 127.1 188.1 L 125.7 188.1 L 125.7 177.8 " fill="#000000"/>
<path class="atom-12" d="M 135.7 179.7 L 137.5 179.7 L 137.5 177.7 L 138.3 177.7 L 138.3 179.7 L 140.2 179.7 L 140.2 180.3 L 138.3 180.3 L 138.3 182.3 L 137.5 182.3 L 137.5 180.3 L 135.7 180.3 L 135.7 179.7 " fill="#000000"/>
<path class="atom-1" d="M 158.7,165.7 L 158.7,165.8 L 158.7,165.9 L 158.7,165.9 L 158.7,166.0 L 158.6,166.1 L 158.6,166.1 L 158.6,166.2 L 158.5,166.2 L 158.5,166.3 L 158.5,166.3 L 158.4,166.3 L 158.4,166.4 L 158.3,166.4 L 158.2,166.4 L 158.2,166.4 L 158.1,166.5 L 158.1,166.5 L 158.0,166.5 L 157.9,166.5 L 157.9,166.5 L 157.8,166.5 L 157.8,166.4 L 157.7,166.4 L 157.6,166.4 L 157.6,166.4 L 157.5,166.3 L 157.5,166.3 L 157.4,166.2 L 157.4,166.2 L 157.4,166.1 L 157.3,166.1 L 157.3,166.0 L 157.3,166.0 L 157.3,165.9 L 157.3,165.8 L 157.3,165.8 L 157.3,165.7 L 157.3,165.7 L 157.3,165.6 L 157.3,165.5 L 157.3,165.5 L 157.3,165.4 L 157.4,165.4 L 157.4,165.3 L 157.4,165.3 L 157.5,165.2 L 157.5,165.2 L 157.6,165.1 L 157.6,165.1 L 157.7,165.1 L 157.8,165.1 L 157.8,165.0 L 157.9,165.0 L 157.9,165.0 L 158.0,165.0 L 158.1,165.0 L 158.1,165.0 L 158.2,165.1 L 158.2,165.1 L 158.3,165.1 L 158.4,165.1 L 158.4,165.2 L 158.5,165.2 L 158.5,165.2 L 158.5,165.3 L 158.6,165.3 L 158.6,165.4 L 158.6,165.4 L 158.7,165.5 L 158.7,165.6 L 158.7,165.6 L 158.7,165.7 L 158.7,165.7 L 158.0,165.7 Z" style="fill:#000000;fill-rule:evenodd;fill-opacity:1;stroke:#000000;stroke-width:0.0px;stroke-linecap:butt;stroke-linejoin:miter;stroke-miterlimit:10;stroke-opacity:1;"/>
<path class="atom-2" d="M 165.5,132.7 L 165.5,132.7 L 165.5,132.8 L 165.5,132.9 L 165.5,132.9 L 165.5,133.0 L 165.4,133.0 L 165.4,133.1 L 165.4,133.1 L 165.3,133.2 L 165.3,133.2 L 165.2,133.3 L 165.2,133.3 L 165.1,133.3 L 165.1,133.3 L 165.0,133.4 L 165.0,133.4 L 164.9,133.4 L 164.8,133.4 L 164.8,133.4 L 164.7,133.4 L 164.6,133.4 L 164.6,133.4 L 164.5,133.3 L 164.5,133.3 L 164.4,133.3 L 164.4,133.2 L 164.3,133.2 L 164.3,133.2 L 164.2,133.1 L 164.2,133.1 L 164.2,133.0 L 164.1,132.9 L 164.1,132.9 L 164.1,132.8 L 164.1,132.8 L 164.1,132.7 L 164.1,132.6 L 164.1,132.6 L 164.1,132.5 L 164.1,132.5 L 164.1,132.4 L 164.2,132.3 L 164.2,132.3 L 164.2,132.2 L 164.3,132.2 L 164.3,132.1 L 164.4,132.1 L 164.4,132.1 L 164.5,132.0 L 164.5,132.0 L 164.6,132.0 L 164.6,132.0 L 164.7,132.0 L 164.8,131.9 L 164.8,131.9 L 164.9,131.9 L 165.0,132.0 L 165.0,132.0 L 165.1,132.0 L 165.1,132.0 L 165.2,132.0 L 165.2,132.1 L 165.3,132.1 L 165.3,132.2 L 165.4,132.2 L 165.4,132.3 L 165.4,132.3 L 165.5,132.4 L 165.5,132.4 L 165.5,132.5 L 165.5,132.5 L 165.5,132.6 L 165.5,132.7 L 164.8,132.7 Z" style="fill:#000000;fill-rule:evenodd;fill-opacity:1;stroke:#000000;stroke-width:0.0px;stroke-linecap:butt;stroke-linejoin:miter;stroke-miterlimit:10;stroke-opacity:1;"/>
<path class="atom-2" d="M 165.5,129.8 L 165.5,129.8 L 165.5,129.9 L 165.5,130.0 L 165.5,130.0 L 165.5,130.1 L 165.4,130.1 L 165.4,130.2 L 165.4,130.2 L 165.3,130.3 L 165.3,130.3 L 165.2,130.4 L 165.2,130.4 L 165.1,130.4 L 165.1,130.4 L 165.0,130.5 L 165.0,130.5 L 164.9,130.5 L 164.8,130.5 L 164.8,130.5 L 164.7,130.5 L 164.6,130.5 L 164.6,130.5 L 164.5,130.4 L 164.5,130.4 L 164.4,130.4 L 164.4,130.3 L 164.3,130.3 L 164.3,130.3 L 164.2,130.2 L 164.2,130.2 L 164.2,130.1 L 164.1,130.0 L 164.1,130.0 L 164.1,129.9 L 164.1,129.9 L 164.1,129.8 L 164.1,129.7 L 164.1,129.7 L 164.1,129.6 L 164.1,129.6 L 164.1,129.5 L 164.2,129.4 L 164.2,129.4 L 164.2,129.3 L 164.3,129.3 L 164.3,129.2 L 164.4,129.2 L 164.4,129.2 L 164.5,129.1 L 164.5,129.1 L 164.6,129.1 L 164.6,129.1 L 164.7,129.1 L 164.8,129.0 L 164.8,129.0 L 164.9,129.0 L 165.0,129.1 L 165.0,129.1 L 165.1,129.1 L 165.1,129.1 L 165.2,129.1 L 165.2,129.2 L 165.3,129.2 L 165.3,129.3 L 165.4,129.3 L 165.4,129.4 L 165.4,129.4 L 165.5,129.5 L 165.5,129.5 L 165.5,129.6 L 165.5,129.6 L 165.5,129.7 L 165.5,129.8 L 164.8,129.8 Z" style="fill:#000000;fill-rule:evenodd;fill-opacity:1;stroke:#000000;stroke-width:0.0px;stroke-linecap:butt;stroke-linejoin:miter;stroke-miterlimit:10;stroke-opacity:1;"/>
<path class="atom-12" d="M 143.1,184.4 L 143.1,184.4 L 143.1,184.5 L 143.1,184.6 L 143.0,184.6 L 143.0,184.7 L 143.0,184.7 L 142.9,184.8 L 142.9,184.8 L 142.9,184.9 L 142.8,184.9 L 142.8,185.0 L 142.7,185.0 L 142.7,185.0 L 142.6,185.1 L 142.6,185.1 L 142.5,185.1 L 142.4,185.1 L 142.4,185.1 L 142.3,185.1 L 142.2,185.1 L 142.2,185.1 L 142.1,185.1 L 142.1,185.1 L 142.0,185.0 L 142.0,185.0 L 141.9,185.0 L 141.9,184.9 L 141.8,184.9 L 141.8,184.8 L 141.7,184.8 L 141.7,184.7 L 141.7,184.7 L 141.7,184.6 L 141.6,184.5 L 141.6,184.5 L 141.6,184.4 L 141.6,184.4 L 141.6,184.3 L 141.6,184.2 L 141.7,184.2 L 141.7,184.1 L 141.7,184.1 L 141.7,184.0 L 141.8,183.9 L 141.8,183.9 L 141.9,183.9 L 141.9,183.8 L 142.0,183.8 L 142.0,183.7 L 142.1,183.7 L 142.1,183.7 L 142.2,183.7 L 142.2,183.7 L 142.3,183.7 L 142.4,183.7 L 142.4,183.7 L 142.5,183.7 L 142.6,183.7 L 142.6,183.7 L 142.7,183.7 L 142.7,183.8 L 142.8,183.8 L 142.8,183.8 L 142.9,183.9 L 142.9,183.9 L 142.9,184.0 L 143.0,184.0 L 143.0,184.1 L 143.0,184.1 L 143.1,184.2 L 143.1,184.3 L 143.1,184.3 L 143.1,184.4 L 142.4,184.4 Z" style="fill:#000000;fill-rule:evenodd;fill-opacity:1;stroke:#000000;stroke-width:0.0px;stroke-linecap:butt;stroke-linejoin:miter;stroke-miterlimit:10;stroke-opacity:1;"/>
<path class="atom-12" d="M 143.1,181.5 L 143.1,181.5 L 143.1,181.6 L 143.1,181.7 L 143.0,181.7 L 143.0,181.8 L 143.0,181.8 L 142.9,181.9 L 142.9,181.9 L 142.9,182.0 L 142.8,182.0 L 142.8,182.1 L 142.7,182.1 L 142.7,182.1 L 142.6,182.2 L 142.6,182.2 L 142.5,182.2 L 142.4,182.2 L 142.4,182.2 L 142.3,182.2 L 142.2,182.2 L 142.2,182.2 L 142.1,182.2 L 142.1,182.1 L 142.0,182.1 L 142.0,182.1 L 141.9,182.1 L 141.9,182.0 L 141.8,182.0 L 141.8,181.9 L 141.7,181.9 L 141.7,181.8 L 141.7,181.8 L 141.7,181.7 L 141.6,181.6 L 141.6,181.6 L 141.6,181.5 L 141.6,181.5 L 141.6,181.4 L 141.6,181.3 L 141.7,181.3 L 141.7,181.2 L 141.7,181.2 L 141.7,181.1 L 141.8,181.0 L 141.8,181.0 L 141.9,181.0 L 141.9,180.9 L 142.0,180.9 L 142.0,180.8 L 142.1,180.8 L 142.1,180.8 L 142.2,180.8 L 142.2,180.8 L 142.3,180.8 L 142.4,180.8 L 142.4,180.8 L 142.5,180.8 L 142.6,180.8 L 142.6,180.8 L 142.7,180.8 L 142.7,180.9 L 142.8,180.9 L 142.8,180.9 L 142.9,181.0 L 142.9,181.0 L 142.9,181.1 L 143.0,181.1 L 143.0,181.2 L 143.0,181.2 L 143.1,181.3 L 143.1,181.4 L 143.1,181.4 L 143.1,181.5 L 142.4,181.5 Z" style="fill:#000000;fill-rule:evenodd;fill-opacity:1;stroke:#000000;stroke-width:0.0px;stroke-linecap:butt;stroke-linejoin:miter;stroke-miterlimit:10;stroke-opacity:1;"/>
<path class="bond-0 atom-0 atom-1" d="M 416.8,150.6 L 437.5,157.5" style="fill:none;fill-rule:evenodd;stroke:#000000;stroke-width:2.0px;stroke-linecap:butt;stroke-linejoin:miter;stroke-opacity:1"/>
<path class="bond-0 atom-0 atom-1" d="M 418.0,147.1 L 436.1,153.0" style="fill:none;fill-rule:evenodd;stroke:#000000;stroke-width:2.0px;stroke-linecap:butt;stroke-linejoin:miter;stroke-opacity:1"/>
<path class="bond-1 atom-1 atom-2" d="M 437.5,157.5 L 452.3,137.3" style="fill:none;fill-rule:evenodd;stroke:#000000;stroke-width:2.0px;stroke-linecap:butt;stroke-linejoin:miter;stroke-opacity:1"/>
<path class="bond-2 atom-2 atom-3" d="M 452.3,137.3 L 477.2,134.8" style="fill:none;fill-rule:evenodd;stroke:#000000;stroke-width:2.0px;stroke-linecap:butt;stroke-linejoin:miter;stroke-opacity:1"/>
<path class="bond-2 atom-2 atom-3" d="M 454.1,133.4 L 474.7,131.3" style="fill:none;fill-rule:evenodd;stroke:#000000;stroke-width:2.0px;stroke-linecap:butt;stroke-linejoin:miter;stroke-opacity:1"/>
<path class="bond-3 atom-3 atom-4" d="M 477.2,134.8 L 487.5,112.1" style="fill:none;fill-rule:evenodd;stroke:#000000;stroke-width:2.0px;stroke-linecap:butt;stroke-linejoin:miter;stroke-opacity:1"/>
<path class="bond-4 atom-4 atom-5" d="M 487.5,112.1 L 472.9,91.7" style="fill:none;fill-rule:evenodd;stroke:#000000;stroke-width:2.0px;stroke-linecap:butt;stroke-linejoin:miter;stroke-opacity:1"/>
<path class="bond-4 atom-4 atom-5" d="M 483.2,112.5 L 471.1,95.7" style="fill:none;fill-rule:evenodd;stroke:#000000;stroke-width:2.0px;stroke-linecap:butt;stroke-linejoin:miter;stroke-opacity:1"/>
<path class="bond-5 atom-5 atom-6" d="M 472.9,91.7 L 448.0,94.2" style="fill:none;fill-rule:evenodd;stroke:#000000;stroke-width:2.0px;stroke-linecap:butt;stroke-linejoin:miter;stroke-opacity:1"/>
<path class="bond-6 atom-6 atom-7" d="M 448.0,94.2 L 437.7,117.0" style="fill:none;fill-rule:evenodd;stroke:#000000;stroke-width:2.0px;stroke-linecap:butt;stroke-linejoin:miter;stroke-opacity:1"/>
<path class="bond-6 atom-6 atom-7" d="M 450.6,97.7 L 442.0,116.6" style="fill:none;fill-rule:evenodd;stroke:#000000;stroke-width:2.0px;stroke-linecap:butt;stroke-linejoin:miter;stroke-opacity:1"/>
<path class="bond-7 atom-7 atom-8" d="M 437.7,117.0 L 417.4,123.5" style="fill:none;fill-rule:evenodd;stroke:#000000;stroke-width:2.0px;stroke-linecap:butt;stroke-linejoin:miter;stroke-opacity:1"/>
<path class="bond-8 atom-8 atom-9" d="M 410.4,122.0 L 393.8,109.8" style="fill:none;fill-rule:evenodd;stroke:#000000;stroke-width:2.0px;stroke-linecap:butt;stroke-linejoin:miter;stroke-opacity:1"/>
<path class="bond-9 atom-9 atom-10" d="M 393.8,109.8 L 370.9,119.8" style="fill:none;fill-rule:evenodd;stroke:#000000;stroke-width:2.0px;stroke-linecap:butt;stroke-linejoin:miter;stroke-opacity:1"/>
<path class="bond-10 atom-10 atom-11" d="M 369.1,118.5 L 366.7,140.1" style="fill:none;fill-rule:evenodd;stroke:#000000;stroke-width:2.0px;stroke-linecap:butt;stroke-linejoin:miter;stroke-opacity:1"/>
<path class="bond-10 atom-10 atom-11" d="M 372.8,118.9 L 370.4,140.5" style="fill:none;fill-rule:evenodd;stroke:#000000;stroke-width:2.0px;stroke-linecap:butt;stroke-linejoin:miter;stroke-opacity:1"/>
<path class="bond-11 atom-10 atom-12" d="M 370.9,119.8 L 354.2,107.6" style="fill:none;fill-rule:evenodd;stroke:#000000;stroke-width:2.0px;stroke-linecap:butt;stroke-linejoin:miter;stroke-opacity:1"/>
<path class="bond-12 atom-12 atom-13" d="M 347.2,106.5 L 327.8,115.0" style="fill:none;fill-rule:evenodd;stroke:#000000;stroke-width:2.0px;stroke-linecap:butt;stroke-linejoin:miter;stroke-opacity:1"/>
<path class="bond-13 atom-13 atom-14" d="M 327.8,115.0 L 307.7,100.2" style="fill:none;fill-rule:evenodd;stroke:#000000;stroke-width:2.0px;stroke-linecap:butt;stroke-linejoin:miter;stroke-opacity:1"/>
<path class="bond-13 atom-13 atom-14" d="M 323.8,116.8 L 307.2,104.5" style="fill:none;fill-rule:evenodd;stroke:#000000;stroke-width:2.0px;stroke-linecap:butt;stroke-linejoin:miter;stroke-opacity:1"/>
<path class="bond-14 atom-14 atom-15" d="M 307.7,100.2 L 284.8,110.3" style="fill:none;fill-rule:evenodd;stroke:#000000;stroke-width:2.0px;stroke-linecap:butt;stroke-linejoin:miter;stroke-opacity:1"/>
<path class="bond-15 atom-15 atom-16" d="M 284.8,110.3 L 267.5,97.6" style="fill:none;fill-rule:evenodd;stroke:#000000;stroke-width:2.0px;stroke-linecap:butt;stroke-linejoin:miter;stroke-opacity:1"/>
<path class="bond-16 atom-15 atom-17" d="M 284.8,110.3 L 282.0,135.1" style="fill:none;fill-rule:evenodd;stroke:#000000;stroke-width:2.0px;stroke-linecap:butt;stroke-linejoin:miter;stroke-opacity:1"/>
<path class="bond-16 atom-15 atom-17" d="M 288.2,112.8 L 286.0,133.4" style="fill:none;fill-rule:evenodd;stroke:#000000;stroke-width:2.0px;stroke-linecap:butt;stroke-linejoin:miter;stroke-opacity:1"/>
<path class="bond-17 atom-17 atom-18" d="M 282.0,135.1 L 302.1,149.9" style="fill:none;fill-rule:evenodd;stroke:#000000;stroke-width:2.0px;stroke-linecap:butt;stroke-linejoin:miter;stroke-opacity:1"/>
<path class="bond-18 atom-18 atom-19" d="M 302.1,149.9 L 325.0,139.9" style="fill:none;fill-rule:evenodd;stroke:#000000;stroke-width:2.0px;stroke-linecap:butt;stroke-linejoin:miter;stroke-opacity:1"/>
<path class="bond-18 atom-18 atom-19" d="M 302.6,145.6 L 321.6,137.3" style="fill:none;fill-rule:evenodd;stroke:#000000;stroke-width:2.0px;stroke-linecap:butt;stroke-linejoin:miter;stroke-opacity:1"/>
<path class="bond-19 atom-19 atom-20" d="M 325.0,139.9 L 342.0,152.3" style="fill:none;fill-rule:evenodd;stroke:#000000;stroke-width:2.0px;stroke-linecap:butt;stroke-linejoin:miter;stroke-opacity:1"/>
<path class="bond-20 atom-8 atom-0" d="M 413.9,129.0 L 413.8,145.2" style="fill:none;fill-rule:evenodd;stroke:#000000;stroke-width:2.0px;stroke-linecap:butt;stroke-linejoin:miter;stroke-opacity:1"/>
<path class="bond-21 atom-7 atom-2" d="M 437.7,117.0 L 452.3,137.3" style="fill:none;fill-rule:evenodd;stroke:#000000;stroke-width:2.0px;stroke-linecap:butt;stroke-linejoin:miter;stroke-opacity:1"/>
<path class="bond-22 atom-19 atom-13" d="M 325.0,139.9 L 327.8,115.0" style="fill:none;fill-rule:evenodd;stroke:#000000;stroke-width:2.0px;stroke-linecap:butt;stroke-linejoin:miter;stroke-opacity:1"/>
<path d="M 436.5,157.1 L 437.5,157.5 L 438.2,156.5" style="fill:none;stroke:#000000;stroke-width:2.0px;stroke-linecap:butt;stroke-linejoin:miter;stroke-miterlimit:10;stroke-opacity:1;"/>
<path d="M 476.0,135.0 L 477.2,134.8 L 477.7,133.7" style="fill:none;stroke:#000000;stroke-width:2.0px;stroke-linecap:butt;stroke-linejoin:miter;stroke-miterlimit:10;stroke-opacity:1;"/>
<path d="M 487.0,113.2 L 487.5,112.1 L 486.8,111.0" style="fill:none;stroke:#000000;stroke-width:2.0px;stroke-linecap:butt;stroke-linejoin:miter;stroke-miterlimit:10;stroke-opacity:1;"/>
<path d="M 473.6,92.8 L 472.9,91.7 L 471.7,91.9" style="fill:none;stroke:#000000;stroke-width:2.0px;stroke-linecap:butt;stroke-linejoin:miter;stroke-miterlimit:10;stroke-opacity:1;"/>
<path d="M 449.3,94.1 L 448.0,94.2 L 447.5,95.4" style="fill:none;stroke:#000000;stroke-width:2.0px;stroke-linecap:butt;stroke-linejoin:miter;stroke-miterlimit:10;stroke-opacity:1;"/>
<path d="M 394.6,110.4 L 393.8,109.8 L 392.6,110.3" style="fill:none;stroke:#000000;stroke-width:2.0px;stroke-linecap:butt;stroke-linejoin:miter;stroke-miterlimit:10;stroke-opacity:1;"/>
<path d="M 372.0,119.3 L 370.9,119.8 L 370.0,119.2" style="fill:none;stroke:#000000;stroke-width:2.0px;stroke-linecap:butt;stroke-linejoin:miter;stroke-miterlimit:10;stroke-opacity:1;"/>
<path d="M 308.7,101.0 L 307.7,100.2 L 306.5,100.7" style="fill:none;stroke:#000000;stroke-width:2.0px;stroke-linecap:butt;stroke-linejoin:miter;stroke-miterlimit:10;stroke-opacity:1;"/>
<path d="M 282.1,133.9 L 282.0,135.1 L 283.0,135.9" style="fill:none;stroke:#000000;stroke-width:2.0px;stroke-linecap:butt;stroke-linejoin:miter;stroke-miterlimit:10;stroke-opacity:1;"/>
<path d="M 301.1,149.2 L 302.1,149.9 L 303.3,149.4" style="fill:none;stroke:#000000;stroke-width:2.0px;stroke-linecap:butt;stroke-linejoin:miter;stroke-miterlimit:10;stroke-opacity:1;"/>
<path class="atom-0" d="M 404.6 146.1 L 405.6 146.1 L 405.6 149.1 L 409.2 149.1 L 409.2 146.1 L 410.2 146.1 L 410.2 153.1 L 409.2 153.1 L 409.2 149.9 L 405.6 149.9 L 405.6 153.1 L 404.6 153.1 L 404.6 146.1 " fill="#000000"/>
<path class="atom-0" d="M 413.6 146.1 Q 414.8 146.1, 415.4 146.6 Q 416.0 147.1, 416.0 148.1 Q 416.0 149.1, 415.4 149.7 Q 414.8 150.2, 413.6 150.2 L 412.5 150.2 L 412.5 153.1 L 411.5 153.1 L 411.5 146.1 L 413.6 146.1 M 413.6 149.4 Q 414.3 149.4, 414.6 149.1 Q 415.0 148.8, 415.0 148.1 Q 415.0 147.5, 414.6 147.2 Q 414.3 146.9, 413.6 146.9 L 412.5 146.9 L 412.5 149.4 L 413.6 149.4 " fill="#000000"/>
<path class="atom-0" d="M 417.0 147.3 L 418.2 147.3 L 418.2 146.0 L 418.8 146.0 L 418.8 147.3 L 420.1 147.3 L 420.1 147.8 L 418.8 147.8 L 418.8 149.1 L 418.2 149.1 L 418.2 147.8 L 417.0 147.8 L 417.0 147.3 " fill="#000000"/>
<path class="atom-8" d="M 412.3 121.1 L 414.7 124.8 Q 414.9 125.2, 415.3 125.8 Q 415.6 126.5, 415.6 126.6 L 415.6 121.1 L 416.6 121.1 L 416.6 128.1 L 415.6 128.1 L 413.1 124.0 Q 412.8 123.6, 412.5 123.0 Q 412.2 122.5, 412.1 122.3 L 412.1 128.1 L 411.2 128.1 L 411.2 121.1 L 412.3 121.1 " fill="#000000"/>
<path class="atom-11" d="M 364.8 144.7 Q 364.8 143.0, 365.7 142.0 Q 366.5 141.1, 368.1 141.1 Q 369.7 141.1, 370.5 142.0 Q 371.3 143.0, 371.3 144.7 Q 371.3 146.4, 370.5 147.4 Q 369.6 148.4, 368.1 148.4 Q 366.5 148.4, 365.7 147.4 Q 364.8 146.4, 364.8 144.7 M 368.1 147.6 Q 369.2 147.6, 369.8 146.8 Q 370.3 146.1, 370.3 144.7 Q 370.3 143.3, 369.8 142.6 Q 369.2 141.9, 368.1 141.9 Q 367.0 141.9, 366.4 142.6 Q 365.8 143.3, 365.8 144.7 Q 365.8 146.1, 366.4 146.8 Q 367.0 147.6, 368.1 147.6 " fill="#000000"/>
<path class="atom-12" d="M 349.1 101.5 L 351.5 105.2 Q 351.7 105.6, 352.1 106.3 Q 352.4 106.9, 352.5 107.0 L 352.5 101.5 L 353.4 101.5 L 353.4 108.5 L 352.4 108.5 L 349.9 104.4 Q 349.6 104.0, 349.3 103.4 Q 349.0 102.9, 348.9 102.7 L 348.9 108.5 L 348.0 108.5 L 348.0 101.5 L 349.1 101.5 " fill="#000000"/>
<path class="atom-12" d="M 347.9 93.7 L 348.9 93.7 L 348.9 96.7 L 352.5 96.7 L 352.5 93.7 L 353.5 93.7 L 353.5 100.8 L 352.5 100.8 L 352.5 97.5 L 348.9 97.5 L 348.9 100.8 L 347.9 100.8 L 347.9 93.7 " fill="#000000"/>
<path class="atom-16" d="M 262.5 91.9 L 266.7 91.9 L 266.7 92.7 L 263.5 92.7 L 263.5 94.9 L 266.4 94.9 L 266.4 95.7 L 263.5 95.7 L 263.5 99.0 L 262.5 99.0 L 262.5 91.9 " fill="#000000"/>
<path class="atom-20" d="M 346.2 154.5 Q 346.9 154.7, 347.2 155.1 Q 347.6 155.6, 347.6 156.2 Q 347.6 157.1, 347.0 157.7 Q 346.3 158.3, 345.2 158.3 L 342.8 158.3 L 342.8 151.2 L 344.9 151.2 Q 346.1 151.2, 346.7 151.7 Q 347.3 152.2, 347.3 153.1 Q 347.3 154.1, 346.2 154.5 M 343.7 152.0 L 343.7 154.2 L 344.9 154.2 Q 345.6 154.2, 345.9 153.9 Q 346.3 153.6, 346.3 153.1 Q 346.3 152.0, 344.9 152.0 L 343.7 152.0 M 345.2 157.5 Q 345.9 157.5, 346.2 157.1 Q 346.6 156.8, 346.6 156.2 Q 346.6 155.6, 346.2 155.3 Q 345.8 155.0, 345.0 155.0 L 343.7 155.0 L 343.7 157.5 L 345.2 157.5 " fill="#000000"/>
<path class="atom-20" d="M 349.2 153.1 L 349.3 153.8 Q 349.9 153.0, 350.7 153.0 Q 351.0 153.0, 351.4 153.1 L 351.2 154.0 Q 350.8 153.9, 350.6 153.9 Q 350.2 153.9, 349.9 154.0 Q 349.6 154.2, 349.4 154.6 L 349.4 158.3 L 348.4 158.3 L 348.4 153.1 L 349.2 153.1 " fill="#000000"/>
<path class="bond-0 atom-0 atom-1" d="M 700.7,88.4 L 629.3,129.6" style="fill:none;fill-rule:evenodd;stroke:#000000;stroke-width:2.0px;stroke-linecap:butt;stroke-linejoin:miter;stroke-opacity:1"/>
<path class="bond-1 atom-1 atom-2" d="M 600.3,129.6 L 521.8,84.2" style="fill:none;fill-rule:evenodd;stroke:#000000;stroke-width:2.0px;stroke-linecap:butt;stroke-linejoin:miter;stroke-opacity:1"/>
<path class="atom-0" d="M 705.5 90.7 Q 705.8 90.8, 707.2 91.4 Q 708.5 91.9, 709.9 92.3 Q 711.4 92.6, 712.8 92.6 Q 715.5 92.6, 717.1 91.3 Q 718.6 90.0, 718.6 87.7 Q 718.6 86.2, 717.8 85.2 Q 717.1 84.2, 715.9 83.7 Q 714.7 83.2, 712.7 82.6 Q 710.2 81.8, 708.6 81.1 Q 707.2 80.4, 706.1 78.9 Q 705.0 77.4, 705.0 74.8 Q 705.0 71.2, 707.4 69.0 Q 709.9 66.8, 714.7 66.8 Q 718.0 66.8, 721.7 68.4 L 720.8 71.5 Q 717.4 70.1, 714.8 70.1 Q 712.0 70.1, 710.5 71.2 Q 709.0 72.4, 709.0 74.3 Q 709.0 75.8, 709.8 76.8 Q 710.6 77.7, 711.7 78.2 Q 712.9 78.7, 714.8 79.3 Q 717.4 80.1, 718.9 80.9 Q 720.4 81.7, 721.5 83.4 Q 722.6 85.0, 722.6 87.7 Q 722.6 91.6, 720.0 93.8 Q 717.4 95.8, 713.0 95.8 Q 710.5 95.8, 708.6 95.3 Q 706.7 94.8, 704.4 93.8 L 705.5 90.7 " fill="#000000"/>
<path class="atom-0" d="M 726.1 71.1 L 735.8 71.1 L 735.8 73.2 L 726.1 73.2 L 726.1 71.1 " fill="#000000"/>
<path class="atom-1" d="M 608.5 123.8 L 617.8 138.8 Q 618.7 140.3, 620.2 143.0 Q 621.7 145.6, 621.8 145.8 L 621.8 123.8 L 625.5 123.8 L 625.5 152.1 L 621.7 152.1 L 611.7 135.7 Q 610.5 133.8, 609.3 131.6 Q 608.1 129.4, 607.7 128.7 L 607.7 152.1 L 604.1 152.1 L 604.1 123.8 L 608.5 123.8 " fill="#000000"/>
<path class="atom-1" d="M 603.7 154.9 L 607.6 154.9 L 607.6 167.0 L 622.0 167.0 L 622.0 154.9 L 625.9 154.9 L 625.9 183.3 L 622.0 183.3 L 622.0 170.2 L 607.6 170.2 L 607.6 183.3 L 603.7 183.3 L 603.7 154.9 " fill="#000000"/>
<path class="atom-2" d="M 514.2 66.7 L 518.0 66.7 L 518.0 95.2 L 514.2 95.2 L 514.2 66.7 " fill="#000000"/>
<path class="bond-0 atom-0 atom-1" d="M 45.0,359.1 L 41.1,344.5" style="fill:none;fill-rule:evenodd;stroke:#000000;stroke-width:2.0px;stroke-linecap:butt;stroke-linejoin:miter;stroke-opacity:1"/>
<path class="bond-1 atom-0 atom-2" d="M 43.6,364.7 L 32.8,375.5" style="fill:none;fill-rule:evenodd;stroke:#000000;stroke-width:2.0px;stroke-linecap:butt;stroke-linejoin:miter;stroke-opacity:1"/>
<path class="bond-2 atom-2 atom-3" d="M 34.0,374.4 L 18.3,370.2" style="fill:none;fill-rule:evenodd;stroke:#000000;stroke-width:2.0px;stroke-linecap:butt;stroke-linejoin:miter;stroke-opacity:1"/>
<path class="bond-2 atom-2 atom-3" d="M 33.2,377.1 L 17.6,372.9" style="fill:none;fill-rule:evenodd;stroke:#000000;stroke-width:2.0px;stroke-linecap:butt;stroke-linejoin:miter;stroke-opacity:1"/>
<path class="bond-3 atom-2 atom-4" d="M 32.8,375.5 L 36.8,390.2" style="fill:none;fill-rule:evenodd;stroke:#000000;stroke-width:2.0px;stroke-linecap:butt;stroke-linejoin:miter;stroke-opacity:1"/>
<path class="bond-4 atom-4 atom-5" d="M 35.0,396.0 L 24.6,406.5" style="fill:none;fill-rule:evenodd;stroke:#000000;stroke-width:2.0px;stroke-linecap:butt;stroke-linejoin:miter;stroke-opacity:1"/>
<path class="bond-5 atom-4 atom-6" d="M 40.2,394.1 L 55.6,398.2" style="fill:none;fill-rule:evenodd;stroke:#000000;stroke-width:2.0px;stroke-linecap:butt;stroke-linejoin:miter;stroke-opacity:1"/>
<path class="bond-6 atom-6 atom-7" d="M 55.6,398.2 L 66.1,387.7" style="fill:none;fill-rule:evenodd;stroke:#000000;stroke-width:2.0px;stroke-linecap:butt;stroke-linejoin:miter;stroke-opacity:1"/>
<path class="bond-6 atom-6 atom-7" d="M 54.7,395.1 L 64.1,385.7" style="fill:none;fill-rule:evenodd;stroke:#000000;stroke-width:2.0px;stroke-linecap:butt;stroke-linejoin:miter;stroke-opacity:1"/>
<path class="bond-7 atom-7 atom-8" d="M 71.3,385.8 L 86.6,389.8" style="fill:none;fill-rule:evenodd;stroke:#000000;stroke-width:2.0px;stroke-linecap:butt;stroke-linejoin:miter;stroke-opacity:1"/>
<path class="bond-8 atom-8 atom-9" d="M 86.6,389.8 L 97.1,379.3" style="fill:none;fill-rule:evenodd;stroke:#000000;stroke-width:2.0px;stroke-linecap:butt;stroke-linejoin:miter;stroke-opacity:1"/>
<path class="bond-8 atom-8 atom-9" d="M 85.7,386.7 L 95.1,377.4" style="fill:none;fill-rule:evenodd;stroke:#000000;stroke-width:2.0px;stroke-linecap:butt;stroke-linejoin:miter;stroke-opacity:1"/>
<path class="bond-9 atom-9 atom-10" d="M 102.3,377.4 L 117.6,381.5" style="fill:none;fill-rule:evenodd;stroke:#000000;stroke-width:2.0px;stroke-linecap:butt;stroke-linejoin:miter;stroke-opacity:1"/>
<path class="bond-10 atom-10 atom-11" d="M 117.6,381.5 L 128.4,370.7" style="fill:none;fill-rule:evenodd;stroke:#000000;stroke-width:2.0px;stroke-linecap:butt;stroke-linejoin:miter;stroke-opacity:1"/>
<path class="bond-11 atom-11 atom-12" d="M 129.8,365.1 L 125.8,350.5" style="fill:none;fill-rule:evenodd;stroke:#000000;stroke-width:2.0px;stroke-linecap:butt;stroke-linejoin:miter;stroke-opacity:1"/>
<path class="bond-12 atom-12 atom-13" d="M 125.8,350.5 L 138.9,337.3" style="fill:none;fill-rule:evenodd;stroke:#000000;stroke-width:2.0px;stroke-linecap:butt;stroke-linejoin:miter;stroke-opacity:1"/>
<path class="bond-12 atom-12 atom-13" d="M 128.9,351.3 L 139.8,340.4" style="fill:none;fill-rule:evenodd;stroke:#000000;stroke-width:2.0px;stroke-linecap:butt;stroke-linejoin:miter;stroke-opacity:1"/>
<path class="bond-13 atom-13 atom-14" d="M 138.9,337.3 L 156.9,342.1" style="fill:none;fill-rule:evenodd;stroke:#000000;stroke-width:2.0px;stroke-linecap:butt;stroke-linejoin:miter;stroke-opacity:1"/>
<path class="bond-14 atom-14 atom-15" d="M 156.9,342.1 L 161.7,360.0" style="fill:none;fill-rule:evenodd;stroke:#000000;stroke-width:2.0px;stroke-linecap:butt;stroke-linejoin:miter;stroke-opacity:1"/>
<path class="bond-14 atom-14 atom-15" d="M 154.6,344.4 L 158.6,359.2" style="fill:none;fill-rule:evenodd;stroke:#000000;stroke-width:2.0px;stroke-linecap:butt;stroke-linejoin:miter;stroke-opacity:1"/>
<path class="bond-15 atom-15 atom-16" d="M 161.7,360.0 L 148.6,373.1" style="fill:none;fill-rule:evenodd;stroke:#000000;stroke-width:2.0px;stroke-linecap:butt;stroke-linejoin:miter;stroke-opacity:1"/>
<path class="bond-16 atom-16 atom-17" d="M 144.9,375.0 L 142.0,390.4" style="fill:none;fill-rule:evenodd;stroke:#000000;stroke-width:2.0px;stroke-linecap:butt;stroke-linejoin:miter;stroke-opacity:1"/>
<path class="bond-16 atom-16 atom-17" d="M 148.6,373.1 L 144.8,390.9" style="fill:none;fill-rule:evenodd;stroke:#000000;stroke-width:2.0px;stroke-linecap:butt;stroke-linejoin:miter;stroke-opacity:1"/>
<path class="bond-17 atom-17 atom-18" d="M 142.0,390.4 L 142.8,405.7" style="fill:none;fill-rule:evenodd;stroke:#000000;stroke-width:2.0px;stroke-linecap:butt;stroke-linejoin:miter;stroke-opacity:1"/>
<path class="bond-18 atom-18 atom-19" d="M 144.7,412.3 L 151.4,425.5" style="fill:none;fill-rule:evenodd;stroke:#000000;stroke-width:2.0px;stroke-linecap:butt;stroke-linejoin:miter;stroke-opacity:1"/>
<path class="bond-19 atom-19 atom-20" d="M 151.4,425.5 L 163.2,435.0" style="fill:none;fill-rule:evenodd;stroke:#000000;stroke-width:2.0px;stroke-linecap:butt;stroke-linejoin:miter;stroke-opacity:1"/>
<path class="bond-20 atom-20 atom-21" d="M 171.7,436.2 L 184.1,434.2" style="fill:none;fill-rule:evenodd;stroke:#000000;stroke-width:2.0px;stroke-linecap:butt;stroke-linejoin:miter;stroke-opacity:1"/>
<path class="bond-20 atom-20 atom-21" d="M 171.3,433.4 L 181.5,431.8" style="fill:none;fill-rule:evenodd;stroke:#000000;stroke-width:2.0px;stroke-linecap:butt;stroke-linejoin:miter;stroke-opacity:1"/>
<path class="bond-21 atom-21 atom-22" d="M 184.1,434.2 L 184.9,419.0" style="fill:none;fill-rule:evenodd;stroke:#000000;stroke-width:2.0px;stroke-linecap:butt;stroke-linejoin:miter;stroke-opacity:1"/>
<path class="bond-22 atom-21 atom-23" d="M 184.1,434.2 L 199.4,438.3" style="fill:none;fill-rule:evenodd;stroke:#000000;stroke-width:2.0px;stroke-linecap:butt;stroke-linejoin:miter;stroke-opacity:1"/>
<path class="bond-23 atom-23 atom-24" d="M 204.6,437.3 L 217.6,428.9" style="fill:none;fill-rule:evenodd;stroke:#000000;stroke-width:2.0px;stroke-linecap:butt;stroke-linejoin:miter;stroke-opacity:1"/>
<path class="bond-24 atom-24 atom-25" d="M 217.6,428.9 L 227.7,413.3" style="fill:none;fill-rule:evenodd;stroke:#000000;stroke-width:2.0px;stroke-linecap:butt;stroke-linejoin:miter;stroke-opacity:1"/>
<path class="bond-25 atom-25 atom-26" d="M 227.7,413.3 L 230.5,395.0" style="fill:none;fill-rule:evenodd;stroke:#000000;stroke-width:2.0px;stroke-linecap:butt;stroke-linejoin:miter;stroke-opacity:1"/>
<path class="bond-26 atom-26 atom-27" d="M 230.5,395.0 L 226.6,380.3" style="fill:none;fill-rule:evenodd;stroke:#000000;stroke-width:2.0px;stroke-linecap:butt;stroke-linejoin:miter;stroke-opacity:1"/>
<path class="bond-27 atom-27 atom-28" d="M 223.1,373.9 L 214.0,362.7" style="fill:none;fill-rule:evenodd;stroke:#000000;stroke-width:2.0px;stroke-linecap:butt;stroke-linejoin:miter;stroke-opacity:1"/>
<path class="bond-28 atom-28 atom-29" d="M 214.0,362.7 L 224.6,347.4 L 226.8,349.1 Z" style="fill:#000000;fill-rule:evenodd;fill-opacity:1;stroke:#000000;stroke-width:0.5px;stroke-linecap:butt;stroke-linejoin:miter;stroke-miterlimit:10;stroke-opacity:1;"/>
<path class="bond-29 atom-28 atom-30" d="M 214.0,362.7 L 197.5,354.3" style="fill:none;fill-rule:evenodd;stroke:#000000;stroke-width:2.0px;stroke-linecap:butt;stroke-linejoin:miter;stroke-opacity:1"/>
<path class="bond-30 atom-30 atom-31" d="M 198.8,354.9 L 202.7,340.1" style="fill:none;fill-rule:evenodd;stroke:#000000;stroke-width:2.0px;stroke-linecap:butt;stroke-linejoin:miter;stroke-opacity:1"/>
<path class="bond-30 atom-30 atom-31" d="M 196.1,354.2 L 200.0,339.4" style="fill:none;fill-rule:evenodd;stroke:#000000;stroke-width:2.0px;stroke-linecap:butt;stroke-linejoin:miter;stroke-opacity:1"/>
<path class="bond-31 atom-30 atom-32" d="M 197.5,354.3 L 181.6,353.5" style="fill:none;fill-rule:evenodd;stroke:#000000;stroke-width:2.0px;stroke-linecap:butt;stroke-linejoin:miter;stroke-opacity:1"/>
<path class="bond-32 atom-32 atom-33" d="M 178.5,350.1 L 176.1,335.0" style="fill:none;fill-rule:evenodd;stroke:#000000;stroke-width:2.0px;stroke-linecap:butt;stroke-linejoin:miter;stroke-opacity:1"/>
<path class="bond-33 atom-33 atom-34" d="M 176.1,335.0 L 190.4,323.3" style="fill:none;fill-rule:evenodd;stroke:#000000;stroke-width:2.0px;stroke-linecap:butt;stroke-linejoin:miter;stroke-opacity:1"/>
<path class="bond-34 atom-34 atom-35" d="M 190.4,323.3 L 188.0,308.3" style="fill:none;fill-rule:evenodd;stroke:#000000;stroke-width:2.0px;stroke-linecap:butt;stroke-linejoin:miter;stroke-opacity:1"/>
<path class="bond-34 atom-34 atom-35" d="M 187.4,322.2 L 185.3,308.7" style="fill:none;fill-rule:evenodd;stroke:#000000;stroke-width:2.0px;stroke-linecap:butt;stroke-linejoin:miter;stroke-opacity:1"/>
<path class="bond-35 atom-16 atom-11" d="M 148.6,373.1 L 133.0,369.0" style="fill:none;fill-rule:evenodd;stroke:#000000;stroke-width:2.0px;stroke-linecap:butt;stroke-linejoin:miter;stroke-opacity:1"/>
<path class="bond-36 atom-32 atom-15" d="M 176.4,354.3 L 161.7,360.0" style="fill:none;fill-rule:evenodd;stroke:#000000;stroke-width:2.0px;stroke-linecap:butt;stroke-linejoin:miter;stroke-opacity:1"/>
<path d="M 33.4,375.0 L 32.8,375.5 L 33.0,376.2" style="fill:none;stroke:#000000;stroke-width:2.0px;stroke-linecap:butt;stroke-linejoin:miter;stroke-miterlimit:10;stroke-opacity:1;"/>
<path d="M 54.8,398.0 L 55.6,398.2 L 56.1,397.7" style="fill:none;stroke:#000000;stroke-width:2.0px;stroke-linecap:butt;stroke-linejoin:miter;stroke-miterlimit:10;stroke-opacity:1;"/>
<path d="M 85.8,389.6 L 86.6,389.8 L 87.1,389.3" style="fill:none;stroke:#000000;stroke-width:2.0px;stroke-linecap:butt;stroke-linejoin:miter;stroke-miterlimit:10;stroke-opacity:1;"/>
<path d="M 116.8,381.3 L 117.6,381.5 L 118.1,380.9" style="fill:none;stroke:#000000;stroke-width:2.0px;stroke-linecap:butt;stroke-linejoin:miter;stroke-miterlimit:10;stroke-opacity:1;"/>
<path d="M 126.0,351.2 L 125.8,350.5 L 126.5,349.8" style="fill:none;stroke:#000000;stroke-width:2.0px;stroke-linecap:butt;stroke-linejoin:miter;stroke-miterlimit:10;stroke-opacity:1;"/>
<path d="M 138.3,338.0 L 138.9,337.3 L 139.8,337.6" style="fill:none;stroke:#000000;stroke-width:2.0px;stroke-linecap:butt;stroke-linejoin:miter;stroke-miterlimit:10;stroke-opacity:1;"/>
<path d="M 156.0,341.9 L 156.9,342.1 L 157.1,343.0" style="fill:none;stroke:#000000;stroke-width:2.0px;stroke-linecap:butt;stroke-linejoin:miter;stroke-miterlimit:10;stroke-opacity:1;"/>
<path d="M 142.1,389.7 L 142.0,390.4 L 142.0,391.2" style="fill:none;stroke:#000000;stroke-width:2.0px;stroke-linecap:butt;stroke-linejoin:miter;stroke-miterlimit:10;stroke-opacity:1;"/>
<path d="M 151.1,424.8 L 151.4,425.5 L 152.0,425.9" style="fill:none;stroke:#000000;stroke-width:2.0px;stroke-linecap:butt;stroke-linejoin:miter;stroke-miterlimit:10;stroke-opacity:1;"/>
<path d="M 216.9,429.3 L 217.6,428.9 L 218.1,428.1" style="fill:none;stroke:#000000;stroke-width:2.0px;stroke-linecap:butt;stroke-linejoin:miter;stroke-miterlimit:10;stroke-opacity:1;"/>
<path d="M 227.1,414.1 L 227.7,413.3 L 227.8,412.4" style="fill:none;stroke:#000000;stroke-width:2.0px;stroke-linecap:butt;stroke-linejoin:miter;stroke-miterlimit:10;stroke-opacity:1;"/>
<path d="M 230.4,395.9 L 230.5,395.0 L 230.3,394.2" style="fill:none;stroke:#000000;stroke-width:2.0px;stroke-linecap:butt;stroke-linejoin:miter;stroke-miterlimit:10;stroke-opacity:1;"/>
<path d="M 214.5,363.2 L 214.0,362.7 L 213.2,362.3" style="fill:none;stroke:#000000;stroke-width:2.0px;stroke-linecap:butt;stroke-linejoin:miter;stroke-miterlimit:10;stroke-opacity:1;"/>
<path d="M 198.3,354.7 L 197.5,354.3 L 196.7,354.2" style="fill:none;stroke:#000000;stroke-width:2.0px;stroke-linecap:butt;stroke-linejoin:miter;stroke-miterlimit:10;stroke-opacity:1;"/>
<path d="M 176.2,335.8 L 176.1,335.0 L 176.8,334.4" style="fill:none;stroke:#000000;stroke-width:2.0px;stroke-linecap:butt;stroke-linejoin:miter;stroke-miterlimit:10;stroke-opacity:1;"/>
<path d="M 189.7,323.9 L 190.4,323.3 L 190.3,322.6" style="fill:none;stroke:#000000;stroke-width:2.0px;stroke-linecap:butt;stroke-linejoin:miter;stroke-miterlimit:10;stroke-opacity:1;"/>
<path class="atom-0" d="M 44.4 364.2 Q 44.5 364.2, 44.7 364.3 Q 45.0 364.4, 45.3 364.5 Q 45.5 364.5, 45.8 364.5 Q 46.3 364.5, 46.6 364.3 Q 46.9 364.1, 46.9 363.6 Q 46.9 363.3, 46.7 363.2 Q 46.6 363.0, 46.4 362.9 Q 46.1 362.8, 45.8 362.7 Q 45.3 362.5, 45.0 362.4 Q 44.7 362.3, 44.5 362.0 Q 44.3 361.7, 44.3 361.2 Q 44.3 360.6, 44.8 360.2 Q 45.2 359.8, 46.1 359.8 Q 46.7 359.8, 47.4 360.1 L 47.3 360.6 Q 46.6 360.4, 46.2 360.4 Q 45.6 360.4, 45.4 360.6 Q 45.1 360.8, 45.1 361.1 Q 45.1 361.4, 45.2 361.6 Q 45.4 361.8, 45.6 361.9 Q 45.8 362.0, 46.2 362.1 Q 46.6 362.2, 46.9 362.4 Q 47.2 362.5, 47.4 362.8 Q 47.6 363.1, 47.6 363.6 Q 47.6 364.4, 47.1 364.8 Q 46.6 365.1, 45.8 365.1 Q 45.4 365.1, 45.0 365.0 Q 44.6 364.9, 44.2 364.8 L 44.4 364.2 " fill="#000000"/>
<path class="atom-3" d="M 12.5 370.7 Q 12.5 369.5, 13.1 368.8 Q 13.7 368.1, 14.9 368.1 Q 16.1 368.1, 16.7 368.8 Q 17.3 369.5, 17.3 370.7 Q 17.3 372.0, 16.7 372.7 Q 16.1 373.5, 14.9 373.5 Q 13.8 373.5, 13.1 372.7 Q 12.5 372.0, 12.5 370.7 M 14.9 372.9 Q 15.7 372.9, 16.1 372.3 Q 16.6 371.8, 16.6 370.7 Q 16.6 369.7, 16.1 369.2 Q 15.7 368.7, 14.9 368.7 Q 14.1 368.7, 13.7 369.2 Q 13.2 369.7, 13.2 370.7 Q 13.2 371.8, 13.7 372.3 Q 14.1 372.9, 14.9 372.9 " fill="#000000"/>
<path class="atom-4" d="M 36.5 390.8 L 38.2 393.6 Q 38.4 393.8, 38.7 394.3 Q 38.9 394.8, 38.9 394.9 L 38.9 390.8 L 39.6 390.8 L 39.6 396.0 L 38.9 396.0 L 37.1 393.0 Q 36.9 392.6, 36.6 392.2 Q 36.4 391.8, 36.3 391.7 L 36.3 396.0 L 35.7 396.0 L 35.7 390.8 L 36.5 390.8 " fill="#000000"/>
<path class="atom-7" d="M 67.5 382.4 L 69.2 385.2 Q 69.4 385.5, 69.7 386.0 Q 69.9 386.5, 69.9 386.5 L 69.9 382.4 L 70.6 382.4 L 70.6 387.7 L 69.9 387.7 L 68.1 384.6 Q 67.9 384.3, 67.6 383.9 Q 67.4 383.5, 67.3 383.3 L 67.3 387.7 L 66.7 387.7 L 66.7 382.4 L 67.5 382.4 " fill="#000000"/>
<path class="atom-9" d="M 98.5 374.1 L 100.2 376.9 Q 100.4 377.1, 100.7 377.6 Q 100.9 378.1, 101.0 378.2 L 101.0 374.1 L 101.7 374.1 L 101.7 379.3 L 100.9 379.3 L 99.1 376.3 Q 98.9 375.9, 98.6 375.5 Q 98.4 375.1, 98.4 375.0 L 98.4 379.3 L 97.7 379.3 L 97.7 374.1 L 98.5 374.1 " fill="#000000"/>
<path class="atom-11" d="M 129.2 370.2 Q 129.2 370.2, 129.5 370.3 Q 129.7 370.4, 130.0 370.5 Q 130.3 370.5, 130.5 370.5 Q 131.0 370.5, 131.3 370.3 Q 131.6 370.0, 131.6 369.6 Q 131.6 369.3, 131.5 369.1 Q 131.3 369.0, 131.1 368.9 Q 130.9 368.8, 130.5 368.7 Q 130.0 368.5, 129.8 368.4 Q 129.5 368.3, 129.3 368.0 Q 129.1 367.7, 129.1 367.2 Q 129.1 366.6, 129.5 366.1 Q 130.0 365.7, 130.9 365.7 Q 131.5 365.7, 132.2 366.0 L 132.0 366.6 Q 131.4 366.3, 130.9 366.3 Q 130.4 366.3, 130.1 366.6 Q 129.8 366.8, 129.8 367.1 Q 129.8 367.4, 130.0 367.6 Q 130.1 367.7, 130.3 367.8 Q 130.5 367.9, 130.9 368.1 Q 131.4 368.2, 131.7 368.3 Q 131.9 368.5, 132.1 368.8 Q 132.4 369.1, 132.4 369.6 Q 132.4 370.3, 131.9 370.7 Q 131.4 371.1, 130.6 371.1 Q 130.1 371.1, 129.7 371.0 Q 129.4 370.9, 129.0 370.7 L 129.2 370.2 " fill="#000000"/>
<path class="atom-11" d="M 128.6 371.6 L 129.3 371.6 L 129.3 373.9 L 132.0 373.9 L 132.0 371.6 L 132.7 371.6 L 132.7 376.9 L 132.0 376.9 L 132.0 374.5 L 129.3 374.5 L 129.3 376.9 L 128.6 376.9 L 128.6 371.6 " fill="#000000"/>
<path class="atom-18" d="M 140.5 409.0 Q 140.5 407.7, 141.2 407.0 Q 141.8 406.3, 143.0 406.3 Q 144.1 406.3, 144.7 407.0 Q 145.4 407.7, 145.4 409.0 Q 145.4 410.3, 144.7 411.0 Q 144.1 411.7, 143.0 411.7 Q 141.8 411.7, 141.2 411.0 Q 140.5 410.3, 140.5 409.0 M 143.0 411.1 Q 143.8 411.1, 144.2 410.6 Q 144.6 410.0, 144.6 409.0 Q 144.6 407.9, 144.2 407.4 Q 143.8 406.9, 143.0 406.9 Q 142.2 406.9, 141.7 407.4 Q 141.3 407.9, 141.3 409.0 Q 141.3 410.0, 141.7 410.6 Q 142.2 411.1, 143.0 411.1 " fill="#000000"/>
<path class="atom-20" d="M 164.7 434.5 L 166.4 437.3 Q 166.5 437.5, 166.8 438.0 Q 167.1 438.5, 167.1 438.6 L 167.1 434.5 L 167.8 434.5 L 167.8 439.7 L 167.1 439.7 L 165.2 436.7 Q 165.0 436.3, 164.8 435.9 Q 164.6 435.5, 164.5 435.4 L 164.5 439.7 L 163.8 439.7 L 163.8 434.5 L 164.7 434.5 " fill="#000000"/>
<path class="atom-20" d="M 168.8 435.4 L 169.7 435.4 L 169.7 434.5 L 170.1 434.5 L 170.1 435.4 L 171.1 435.4 L 171.1 435.8 L 170.1 435.8 L 170.1 436.8 L 169.7 436.8 L 169.7 435.8 L 168.8 435.8 L 168.8 435.4 " fill="#000000"/>
<path class="atom-20" d="M 163.8 440.3 L 164.5 440.3 L 164.5 442.5 L 167.2 442.5 L 167.2 440.3 L 167.9 440.3 L 167.9 445.5 L 167.2 445.5 L 167.2 443.1 L 164.5 443.1 L 164.5 445.5 L 163.8 445.5 L 163.8 440.3 " fill="#000000"/>
<path class="atom-22" d="M 183.6 417.5 Q 183.6 417.5, 183.9 417.6 Q 184.1 417.7, 184.4 417.8 Q 184.7 417.8, 184.9 417.8 Q 185.4 417.8, 185.7 417.6 Q 186.0 417.4, 186.0 416.9 Q 186.0 416.6, 185.9 416.5 Q 185.7 416.3, 185.5 416.2 Q 185.3 416.1, 184.9 416.0 Q 184.4 415.8, 184.2 415.7 Q 183.9 415.6, 183.7 415.3 Q 183.5 415.0, 183.5 414.5 Q 183.5 413.9, 183.9 413.5 Q 184.4 413.1, 185.3 413.1 Q 185.9 413.1, 186.6 413.4 L 186.4 413.9 Q 185.8 413.7, 185.3 413.7 Q 184.8 413.7, 184.5 413.9 Q 184.2 414.1, 184.2 414.4 Q 184.2 414.7, 184.4 414.9 Q 184.5 415.1, 184.7 415.2 Q 185.0 415.3, 185.3 415.4 Q 185.8 415.5, 186.1 415.7 Q 186.3 415.8, 186.5 416.1 Q 186.8 416.4, 186.8 416.9 Q 186.8 417.7, 186.3 418.1 Q 185.8 418.4, 185.0 418.4 Q 184.5 418.4, 184.2 418.3 Q 183.8 418.2, 183.4 418.1 L 183.6 417.5 " fill="#000000"/>
<path class="atom-22" d="M 187.4 413.9 L 189.2 413.9 L 189.2 414.2 L 187.4 414.2 L 187.4 413.9 " fill="#000000"/>
<path class="atom-23" d="M 200.9 436.3 L 202.6 439.1 Q 202.8 439.4, 203.0 439.9 Q 203.3 440.4, 203.3 440.4 L 203.3 436.3 L 204.0 436.3 L 204.0 441.6 L 203.3 441.6 L 201.5 438.6 Q 201.2 438.2, 201.0 437.8 Q 200.8 437.4, 200.7 437.3 L 200.7 441.6 L 200.0 441.6 L 200.0 436.3 L 200.9 436.3 " fill="#000000"/>
<path class="atom-23" d="M 200.0 442.1 L 200.7 442.1 L 200.7 444.4 L 203.4 444.4 L 203.4 442.1 L 204.1 442.1 L 204.1 447.4 L 203.4 447.4 L 203.4 444.9 L 200.7 444.9 L 200.7 447.4 L 200.0 447.4 L 200.0 442.1 " fill="#000000"/>
<path class="atom-27" d="M 224.5 374.4 L 226.3 377.2 Q 226.4 377.5, 226.7 378.0 Q 227.0 378.5, 227.0 378.5 L 227.0 374.4 L 227.7 374.4 L 227.7 379.7 L 227.0 379.7 L 225.1 376.7 Q 224.9 376.3, 224.7 375.9 Q 224.5 375.5, 224.4 375.4 L 224.4 379.7 L 223.7 379.7 L 223.7 374.4 L 224.5 374.4 " fill="#000000"/>
<path class="atom-27" d="M 228.7 374.4 L 229.4 374.4 L 229.4 376.7 L 232.1 376.7 L 232.1 374.4 L 232.8 374.4 L 232.8 379.7 L 232.1 379.7 L 232.1 377.3 L 229.4 377.3 L 229.4 379.7 L 228.7 379.7 L 228.7 374.4 " fill="#000000"/>
<path class="atom-27" d="M 233.8 375.4 L 234.7 375.4 L 234.7 374.4 L 235.2 374.4 L 235.2 375.4 L 236.1 375.4 L 236.1 375.7 L 235.2 375.7 L 235.2 376.7 L 234.7 376.7 L 234.7 375.7 L 233.8 375.7 L 233.8 375.4 " fill="#000000"/>
<path class="atom-31" d="M 199.9 336.4 Q 199.9 335.1, 200.5 334.4 Q 201.1 333.7, 202.3 333.7 Q 203.4 333.7, 204.1 334.4 Q 204.7 335.1, 204.7 336.4 Q 204.7 337.7, 204.0 338.4 Q 203.4 339.1, 202.3 339.1 Q 201.1 339.1, 200.5 338.4 Q 199.9 337.7, 199.9 336.4 M 202.3 338.5 Q 203.1 338.5, 203.5 338.0 Q 203.9 337.4, 203.9 336.4 Q 203.9 335.4, 203.5 334.8 Q 203.1 334.3, 202.3 334.3 Q 201.5 334.3, 201.0 334.8 Q 200.6 335.3, 200.6 336.4 Q 200.6 337.4, 201.0 338.0 Q 201.5 338.5, 202.3 338.5 " fill="#000000"/>
<path class="atom-32" d="M 177.8 350.7 L 179.5 353.5 Q 179.7 353.8, 180.0 354.3 Q 180.3 354.8, 180.3 354.8 L 180.3 350.7 L 181.0 350.7 L 181.0 356.0 L 180.2 356.0 L 178.4 352.9 Q 178.2 352.6, 178.0 352.2 Q 177.7 351.8, 177.7 351.6 L 177.7 356.0 L 177.0 356.0 L 177.0 350.7 L 177.8 350.7 " fill="#000000"/>
<path class="atom-35" d="M 185.0 302.6 L 186.7 305.4 Q 186.9 305.7, 187.2 306.2 Q 187.4 306.7, 187.4 306.7 L 187.4 302.6 L 188.1 302.6 L 188.1 307.9 L 187.4 307.9 L 185.6 304.8 Q 185.4 304.5, 185.1 304.1 Q 184.9 303.7, 184.8 303.5 L 184.8 307.9 L 184.2 307.9 L 184.2 302.6 L 185.0 302.6 " fill="#000000"/>
<path class="atom-35" d="M 189.2 302.6 L 189.9 302.6 L 189.9 304.9 L 192.6 304.9 L 192.6 302.6 L 193.3 302.6 L 193.3 307.9 L 192.6 307.9 L 192.6 305.5 L 189.9 305.5 L 189.9 307.9 L 189.2 307.9 L 189.2 302.6 " fill="#000000"/>
<path class="atom-27" d="M 237.6,377.1 L 237.6,377.1 L 237.6,377.1 L 237.6,377.2 L 237.6,377.2 L 237.6,377.2 L 237.5,377.3 L 237.5,377.3 L 237.5,377.3 L 237.5,377.3 L 237.5,377.4 L 237.4,377.4 L 237.4,377.4 L 237.4,377.4 L 237.4,377.4 L 237.3,377.4 L 237.3,377.4 L 237.3,377.4 L 237.2,377.4 L 237.2,377.4 L 237.2,377.4 L 237.1,377.4 L 237.1,377.4 L 237.1,377.4 L 237.0,377.4 L 237.0,377.4 L 237.0,377.4 L 237.0,377.3 L 236.9,377.3 L 236.9,377.3 L 236.9,377.3 L 236.9,377.2 L 236.9,377.2 L 236.9,377.2 L 236.9,377.2 L 236.9,377.1 L 236.9,377.1 L 236.9,377.1 L 236.9,377.0 L 236.9,377.0 L 236.9,377.0 L 236.9,376.9 L 236.9,376.9 L 236.9,376.9 L 236.9,376.8 L 236.9,376.8 L 237.0,376.8 L 237.0,376.8 L 237.0,376.8 L 237.0,376.7 L 237.1,376.7 L 237.1,376.7 L 237.1,376.7 L 237.2,376.7 L 237.2,376.7 L 237.2,376.7 L 237.3,376.7 L 237.3,376.7 L 237.3,376.7 L 237.4,376.7 L 237.4,376.7 L 237.4,376.8 L 237.4,376.8 L 237.5,376.8 L 237.5,376.8 L 237.5,376.8 L 237.5,376.9 L 237.5,376.9 L 237.6,376.9 L 237.6,376.9 L 237.6,377.0 L 237.6,377.0 L 237.6,377.0 L 237.6,377.1 L 237.2,377.1 Z" style="fill:#000000;fill-rule:evenodd;fill-opacity:1;stroke:#000000;stroke-width:0.0px;stroke-linecap:butt;stroke-linejoin:miter;stroke-miterlimit:10;stroke-opacity:1;"/>
<path class="bond-0 atom-0 atom-1" d="M 463.6,400.4 L 421.3,473.6" style="fill:none;fill-rule:evenodd;stroke:#000000;stroke-width:2.0px;stroke-linecap:butt;stroke-linejoin:miter;stroke-opacity:1"/>
<path class="bond-1 atom-1 atom-2" d="M 421.3,473.6 L 315.7,473.6" style="fill:none;fill-rule:evenodd;stroke:#000000;stroke-width:2.0px;stroke-linecap:butt;stroke-linejoin:miter;stroke-opacity:1"/>
<path class="bond-2 atom-2 atom-3" d="M 315.7,473.6 L 262.9,382.2" style="fill:none;fill-rule:evenodd;stroke:#000000;stroke-width:2.0px;stroke-linecap:butt;stroke-linejoin:miter;stroke-opacity:1"/>
<path class="bond-3 atom-3 atom-4" d="M 262.9,382.2 L 315.7,290.7" style="fill:none;fill-rule:evenodd;stroke:#000000;stroke-width:2.0px;stroke-linecap:butt;stroke-linejoin:miter;stroke-opacity:1"/>
<path class="bond-4 atom-4 atom-5" d="M 315.7,290.7 L 404.8,290.7" style="fill:none;fill-rule:evenodd;stroke:#000000;stroke-width:2.0px;stroke-linecap:butt;stroke-linejoin:miter;stroke-opacity:1"/>
<path class="bond-5 atom-5 atom-0" d="M 431.9,308.9 L 463.9,364.4" style="fill:none;fill-rule:evenodd;stroke:#000000;stroke-width:2.0px;stroke-linecap:butt;stroke-linejoin:miter;stroke-opacity:1"/>
<path d="M 423.4,470.0 L 421.3,473.6 L 416.0,473.6" style="fill:none;stroke:#000000;stroke-width:2.0px;stroke-linecap:butt;stroke-linejoin:miter;stroke-miterlimit:10;stroke-opacity:1;"/>
<path d="M 321.0,473.6 L 315.7,473.6 L 313.0,469.1" style="fill:none;stroke:#000000;stroke-width:2.0px;stroke-linecap:butt;stroke-linejoin:miter;stroke-miterlimit:10;stroke-opacity:1;"/>
<path d="M 265.5,386.7 L 262.9,382.2 L 265.5,377.6" style="fill:none;stroke:#000000;stroke-width:2.0px;stroke-linecap:butt;stroke-linejoin:miter;stroke-miterlimit:10;stroke-opacity:1;"/>
<path d="M 313.0,295.3 L 315.7,290.7 L 320.1,290.7" style="fill:none;stroke:#000000;stroke-width:2.0px;stroke-linecap:butt;stroke-linejoin:miter;stroke-miterlimit:10;stroke-opacity:1;"/>
<path class="atom-0" d="M 461.1 382.2 Q 461.1 375.4, 464.5 371.6 Q 467.9 367.8, 474.1 367.8 Q 480.4 367.8, 483.8 371.6 Q 487.1 375.4, 487.1 382.2 Q 487.1 389.1, 483.7 393.0 Q 480.3 396.9, 474.1 396.9 Q 467.9 396.9, 464.5 393.0 Q 461.1 389.2, 461.1 382.2 M 474.1 393.7 Q 478.5 393.7, 480.8 390.8 Q 483.1 387.9, 483.1 382.2 Q 483.1 376.7, 480.8 373.9 Q 478.5 371.0, 474.1 371.0 Q 469.8 371.0, 467.5 373.8 Q 465.1 376.6, 465.1 382.2 Q 465.1 388.0, 467.5 390.8 Q 469.8 393.7, 474.1 393.7 " fill="#000000"/>
<path class="atom-5" d="M 408.3 290.8 Q 408.3 284.0, 411.7 280.2 Q 415.0 276.4, 421.3 276.4 Q 427.6 276.4, 431.0 280.2 Q 434.3 284.0, 434.3 290.8 Q 434.3 297.6, 430.9 301.6 Q 427.5 305.4, 421.3 305.4 Q 415.1 305.4, 411.7 301.6 Q 408.3 297.7, 408.3 290.8 M 421.3 302.2 Q 425.6 302.2, 428.0 299.4 Q 430.3 296.4, 430.3 290.8 Q 430.3 285.2, 428.0 282.4 Q 425.6 279.6, 421.3 279.6 Q 417.0 279.6, 414.6 282.4 Q 412.3 285.2, 412.3 290.8 Q 412.3 296.5, 414.6 299.4 Q 417.0 302.2, 421.3 302.2 " fill="#000000"/>
<path class="bond-0 atom-0 atom-1" d="M 530.2,389.0 L 541.3,364.2" style="fill:none;fill-rule:evenodd;stroke:#000000;stroke-width:2.0px;stroke-linecap:butt;stroke-linejoin:miter;stroke-opacity:1"/>
<path class="bond-0 atom-0 atom-1" d="M 534.8,391.1 L 544.7,368.9" style="fill:none;fill-rule:evenodd;stroke:#000000;stroke-width:2.0px;stroke-linecap:butt;stroke-linejoin:miter;stroke-opacity:1"/>
<path class="bond-1 atom-1 atom-2" d="M 541.3,364.2 L 523.2,339.3" style="fill:none;fill-rule:evenodd;stroke:#000000;stroke-width:2.0px;stroke-linecap:butt;stroke-linejoin:miter;stroke-opacity:1"/>
<path class="bond-2 atom-1 atom-3" d="M 541.3,364.2 L 574.7,360.6" style="fill:none;fill-rule:evenodd;stroke:#000000;stroke-width:2.0px;stroke-linecap:butt;stroke-linejoin:miter;stroke-opacity:1"/>
<path class="bond-3 atom-3 atom-4" d="M 574.7,360.6 L 585.8,335.7" style="fill:none;fill-rule:evenodd;stroke:#000000;stroke-width:2.0px;stroke-linecap:butt;stroke-linejoin:miter;stroke-opacity:1"/>
<path class="bond-4 atom-4 atom-5" d="M 593.1,329.3 L 621.9,326.3" style="fill:none;fill-rule:evenodd;stroke:#000000;stroke-width:2.0px;stroke-linecap:butt;stroke-linejoin:miter;stroke-opacity:1"/>
<path class="bond-5 atom-5 atom-6" d="M 623.6,328.7 L 635.2,302.6" style="fill:none;fill-rule:evenodd;stroke:#000000;stroke-width:2.0px;stroke-linecap:butt;stroke-linejoin:miter;stroke-opacity:1"/>
<path class="bond-5 atom-5 atom-6" d="M 619.0,326.6 L 630.6,300.6" style="fill:none;fill-rule:evenodd;stroke:#000000;stroke-width:2.0px;stroke-linecap:butt;stroke-linejoin:miter;stroke-opacity:1"/>
<path class="bond-6 atom-5 atom-7" d="M 621.9,326.3 L 641.7,353.5" style="fill:none;fill-rule:evenodd;stroke:#000000;stroke-width:2.0px;stroke-linecap:butt;stroke-linejoin:miter;stroke-opacity:1"/>
<path class="bond-7 atom-7 atom-8" d="M 641.7,353.5 L 628.0,384.3" style="fill:none;fill-rule:evenodd;stroke:#000000;stroke-width:2.0px;stroke-linecap:butt;stroke-linejoin:miter;stroke-opacity:1"/>
<path class="bond-7 atom-7 atom-8" d="M 635.9,354.1 L 624.6,379.6" style="fill:none;fill-rule:evenodd;stroke:#000000;stroke-width:2.0px;stroke-linecap:butt;stroke-linejoin:miter;stroke-opacity:1"/>
<path class="bond-8 atom-8 atom-9" d="M 628.0,384.3 L 647.8,411.5" style="fill:none;fill-rule:evenodd;stroke:#000000;stroke-width:2.0px;stroke-linecap:butt;stroke-linejoin:miter;stroke-opacity:1"/>
<path class="bond-9 atom-9 atom-10" d="M 647.8,411.5 L 681.3,408.0" style="fill:none;fill-rule:evenodd;stroke:#000000;stroke-width:2.0px;stroke-linecap:butt;stroke-linejoin:miter;stroke-opacity:1"/>
<path class="bond-9 atom-9 atom-10" d="M 650.2,406.2 L 677.9,403.3" style="fill:none;fill-rule:evenodd;stroke:#000000;stroke-width:2.0px;stroke-linecap:butt;stroke-linejoin:miter;stroke-opacity:1"/>
<path class="bond-10 atom-10 atom-11" d="M 681.3,408.0 L 692.4,383.1" style="fill:none;fill-rule:evenodd;stroke:#000000;stroke-width:2.0px;stroke-linecap:butt;stroke-linejoin:miter;stroke-opacity:1"/>
<path class="bond-11 atom-11 atom-12" d="M 692.8,369.9 L 681.7,354.6" style="fill:none;fill-rule:evenodd;stroke:#000000;stroke-width:2.0px;stroke-linecap:butt;stroke-linejoin:miter;stroke-opacity:1"/>
<path class="bond-11 atom-11 atom-12" d="M 688.7,372.8 L 677.6,357.6" style="fill:none;fill-rule:evenodd;stroke:#000000;stroke-width:2.0px;stroke-linecap:butt;stroke-linejoin:miter;stroke-opacity:1"/>
<path class="bond-12 atom-11 atom-13" d="M 705.7,376.1 L 723.0,374.3" style="fill:none;fill-rule:evenodd;stroke:#000000;stroke-width:2.0px;stroke-linecap:butt;stroke-linejoin:miter;stroke-opacity:1"/>
<path class="bond-13 atom-10 atom-14" d="M 681.3,408.0 L 701.1,435.2" style="fill:none;fill-rule:evenodd;stroke:#000000;stroke-width:2.0px;stroke-linecap:butt;stroke-linejoin:miter;stroke-opacity:1"/>
<path class="bond-14 atom-14 atom-15" d="M 701.1,435.2 L 730.7,432.1" style="fill:none;fill-rule:evenodd;stroke:#000000;stroke-width:2.0px;stroke-linecap:butt;stroke-linejoin:miter;stroke-opacity:1"/>
<path class="bond-15 atom-3 atom-16" d="M 574.7,360.6 L 594.5,387.8" style="fill:none;fill-rule:evenodd;stroke:#000000;stroke-width:2.0px;stroke-linecap:butt;stroke-linejoin:miter;stroke-opacity:1"/>
<path class="bond-15 atom-3 atom-16" d="M 580.5,360.0 L 596.9,382.5" style="fill:none;fill-rule:evenodd;stroke:#000000;stroke-width:2.0px;stroke-linecap:butt;stroke-linejoin:miter;stroke-opacity:1"/>
<path class="bond-16 atom-16 atom-17" d="M 594.5,387.8 L 580.9,418.6" style="fill:none;fill-rule:evenodd;stroke:#000000;stroke-width:2.0px;stroke-linecap:butt;stroke-linejoin:miter;stroke-opacity:1"/>
<path class="bond-17 atom-17 atom-18" d="M 580.9,418.6 L 551.6,421.7" style="fill:none;fill-rule:evenodd;stroke:#000000;stroke-width:2.0px;stroke-linecap:butt;stroke-linejoin:miter;stroke-opacity:1"/>
<path class="bond-18 atom-18 atom-19" d="M 549.1,428.3 L 555.0,448.6" style="fill:none;fill-rule:evenodd;stroke:#000000;stroke-width:2.0px;stroke-linecap:butt;stroke-linejoin:miter;stroke-opacity:1"/>
<path class="bond-19 atom-18 atom-20" d="M 543.2,424.2 L 521.1,435.0" style="fill:none;fill-rule:evenodd;stroke:#000000;stroke-width:2.0px;stroke-linecap:butt;stroke-linejoin:miter;stroke-opacity:1"/>
<path class="bond-20 atom-18 atom-0" d="M 543.2,416.4 L 531.7,400.6" style="fill:none;fill-rule:evenodd;stroke:#000000;stroke-width:2.0px;stroke-linecap:butt;stroke-linejoin:miter;stroke-opacity:1"/>
<path class="bond-21 atom-16 atom-8" d="M 594.5,387.8 L 628.0,384.3" style="fill:none;fill-rule:evenodd;stroke:#000000;stroke-width:2.0px;stroke-linecap:butt;stroke-linejoin:miter;stroke-opacity:1"/>
<path d="M 620.5,326.5 L 621.9,326.3 L 622.9,327.7" style="fill:none;stroke:#000000;stroke-width:2.0px;stroke-linecap:butt;stroke-linejoin:miter;stroke-miterlimit:10;stroke-opacity:1;"/>
<path d="M 640.7,352.2 L 641.7,353.5 L 641.0,355.1" style="fill:none;stroke:#000000;stroke-width:2.0px;stroke-linecap:butt;stroke-linejoin:miter;stroke-miterlimit:10;stroke-opacity:1;"/>
<path d="M 646.9,410.2 L 647.8,411.5 L 649.5,411.4" style="fill:none;stroke:#000000;stroke-width:2.0px;stroke-linecap:butt;stroke-linejoin:miter;stroke-miterlimit:10;stroke-opacity:1;"/>
<path d="M 700.2,433.9 L 701.1,435.2 L 702.6,435.1" style="fill:none;stroke:#000000;stroke-width:2.0px;stroke-linecap:butt;stroke-linejoin:miter;stroke-miterlimit:10;stroke-opacity:1;"/>
<path d="M 581.6,417.1 L 580.9,418.6 L 579.4,418.8" style="fill:none;stroke:#000000;stroke-width:2.0px;stroke-linecap:butt;stroke-linejoin:miter;stroke-miterlimit:10;stroke-opacity:1;"/>
<path class="atom-0" d="M 515.2 390.2 L 516.5 390.2 L 516.5 394.2 L 521.4 394.2 L 521.4 390.2 L 522.7 390.2 L 522.7 399.7 L 521.4 399.7 L 521.4 395.3 L 516.5 395.3 L 516.5 399.7 L 515.2 399.7 L 515.2 390.2 " fill="#000000"/>
<path class="atom-0" d="M 527.3 390.2 Q 529.0 390.2, 529.8 390.9 Q 530.6 391.6, 530.6 393.0 Q 530.6 394.3, 529.8 395.0 Q 528.9 395.8, 527.3 395.8 L 525.8 395.8 L 525.8 399.7 L 524.5 399.7 L 524.5 390.2 L 527.3 390.2 M 527.3 394.7 Q 528.3 394.7, 528.8 394.3 Q 529.3 393.8, 529.3 393.0 Q 529.3 392.1, 528.8 391.7 Q 528.3 391.2, 527.3 391.2 L 525.8 391.2 L 525.8 394.7 L 527.3 394.7 " fill="#000000"/>
<path class="atom-2" d="M 512.5 337.3 Q 512.5 334.9, 513.6 333.6 Q 514.7 332.4, 516.8 332.4 Q 518.8 332.4, 519.9 333.8 L 519.0 334.5 Q 518.2 333.5, 516.8 333.5 Q 515.4 333.5, 514.6 334.5 Q 513.9 335.4, 513.9 337.3 Q 513.9 339.1, 514.7 340.1 Q 515.4 341.1, 517.0 341.1 Q 518.0 341.1, 519.3 340.4 L 519.6 341.5 Q 519.1 341.8, 518.4 342.0 Q 517.6 342.2, 516.8 342.2 Q 514.7 342.2, 513.6 340.9 Q 512.5 339.6, 512.5 337.3 " fill="#000000"/>
<path class="atom-2" d="M 520.8 331.8 L 522.1 331.8 L 522.1 342.0 L 520.8 342.0 L 520.8 331.8 " fill="#000000"/>
<path class="atom-4" d="M 575.5 325.1 L 576.8 325.1 L 576.8 329.1 L 581.6 329.1 L 581.6 325.1 L 582.9 325.1 L 582.9 334.6 L 581.6 334.6 L 581.6 330.2 L 576.8 330.2 L 576.8 334.6 L 575.5 334.6 L 575.5 325.1 " fill="#000000"/>
<path class="atom-4" d="M 586.3 325.1 L 589.4 330.1 Q 589.7 330.6, 590.2 331.5 Q 590.7 332.4, 590.8 332.5 L 590.8 325.1 L 592.0 325.1 L 592.0 334.6 L 590.7 334.6 L 587.4 329.1 Q 587.0 328.4, 586.6 327.7 Q 586.2 327.0, 586.0 326.7 L 586.0 334.6 L 584.8 334.6 L 584.8 325.1 L 586.3 325.1 " fill="#000000"/>
<path class="atom-6" d="M 631.2 295.6 Q 631.2 293.3, 632.3 292.0 Q 633.5 290.7, 635.6 290.7 Q 637.7 290.7, 638.8 292.0 Q 640.0 293.3, 640.0 295.6 Q 640.0 297.9, 638.8 299.2 Q 637.7 300.5, 635.6 300.5 Q 633.5 300.5, 632.3 299.2 Q 631.2 297.9, 631.2 295.6 M 635.6 299.4 Q 637.0 299.4, 637.8 298.5 Q 638.6 297.5, 638.6 295.6 Q 638.6 293.7, 637.8 292.7 Q 637.0 291.8, 635.6 291.8 Q 634.1 291.8, 633.3 292.7 Q 632.6 293.7, 632.6 295.6 Q 632.6 297.5, 633.3 298.5 Q 634.1 299.4, 635.6 299.4 " fill="#000000"/>
<path class="atom-11" d="M 692.9 372.5 L 696.0 377.5 Q 696.3 378.0, 696.8 378.9 Q 697.3 379.8, 697.4 379.9 L 697.4 372.5 L 698.6 372.5 L 698.6 382.0 L 697.3 382.0 L 694.0 376.5 Q 693.6 375.8, 693.2 375.1 Q 692.8 374.3, 692.6 374.1 L 692.6 382.0 L 691.4 382.0 L 691.4 372.5 L 692.9 372.5 " fill="#000000"/>
<path class="atom-11" d="M 700.4 374.2 L 702.1 374.2 L 702.1 372.4 L 702.9 372.4 L 702.9 374.2 L 704.6 374.2 L 704.6 374.8 L 702.9 374.8 L 702.9 376.6 L 702.1 376.6 L 702.1 374.8 L 700.4 374.8 L 700.4 374.2 " fill="#000000"/>
<path class="atom-12" d="M 670.8 350.0 Q 670.8 347.7, 672.0 346.5 Q 673.1 345.2, 675.2 345.2 Q 677.3 345.2, 678.5 346.5 Q 679.6 347.7, 679.6 350.0 Q 679.6 352.3, 678.4 353.7 Q 677.3 355.0, 675.2 355.0 Q 673.1 355.0, 672.0 353.7 Q 670.8 352.4, 670.8 350.0 M 675.2 353.9 Q 676.7 353.9, 677.4 352.9 Q 678.2 351.9, 678.2 350.0 Q 678.2 348.2, 677.4 347.2 Q 676.7 346.3, 675.2 346.3 Q 673.7 346.3, 673.0 347.2 Q 672.2 348.1, 672.2 350.0 Q 672.2 352.0, 673.0 352.9 Q 673.7 353.9, 675.2 353.9 " fill="#000000"/>
<path class="atom-13" d="M 724.1 373.7 Q 724.1 371.4, 725.3 370.1 Q 726.4 368.9, 728.5 368.9 Q 730.6 368.9, 731.7 370.1 Q 732.9 371.4, 732.9 373.7 Q 732.9 376.0, 731.7 377.4 Q 730.6 378.7, 728.5 378.7 Q 726.4 378.7, 725.3 377.4 Q 724.1 376.0, 724.1 373.7 M 728.5 377.6 Q 730.0 377.6, 730.7 376.6 Q 731.5 375.6, 731.5 373.7 Q 731.5 371.8, 730.7 370.9 Q 730.0 369.9, 728.5 369.9 Q 727.0 369.9, 726.3 370.9 Q 725.5 371.8, 725.5 373.7 Q 725.5 375.6, 726.3 376.6 Q 727.0 377.6, 728.5 377.6 " fill="#000000"/>
<path class="atom-13" d="M 734.2 370.4 L 737.5 370.4 L 737.5 371.1 L 734.2 371.1 L 734.2 370.4 " fill="#000000"/>
<path class="atom-15" d="M 731.8 426.9 L 737.5 426.9 L 737.5 428.0 L 733.1 428.0 L 733.1 430.9 L 737.0 430.9 L 737.0 432.0 L 733.1 432.0 L 733.1 436.5 L 731.8 436.5 L 731.8 426.9 " fill="#000000"/>
<path class="atom-18" d="M 544.7 425.4 Q 544.8 425.5, 545.2 425.7 Q 545.7 425.8, 546.2 426.0 Q 546.7 426.1, 547.2 426.1 Q 548.1 426.1, 548.6 425.6 Q 549.1 425.2, 549.1 424.4 Q 549.1 423.9, 548.8 423.6 Q 548.6 423.3, 548.2 423.1 Q 547.8 422.9, 547.1 422.7 Q 546.2 422.5, 545.7 422.2 Q 545.2 422.0, 544.9 421.5 Q 544.5 420.9, 544.5 420.1 Q 544.5 418.9, 545.3 418.1 Q 546.2 417.4, 547.8 417.4 Q 548.9 417.4, 550.1 417.9 L 549.8 419.0 Q 548.7 418.5, 547.8 418.5 Q 546.9 418.5, 546.4 418.9 Q 545.9 419.3, 545.9 419.9 Q 545.9 420.4, 546.1 420.7 Q 546.4 421.1, 546.8 421.2 Q 547.2 421.4, 547.8 421.6 Q 548.7 421.9, 549.2 422.1 Q 549.7 422.4, 550.1 423.0 Q 550.4 423.5, 550.4 424.4 Q 550.4 425.8, 549.5 426.5 Q 548.7 427.2, 547.2 427.2 Q 546.4 427.2, 545.7 427.0 Q 545.1 426.8, 544.3 426.5 L 544.7 425.4 " fill="#000000"/>
<path class="atom-19" d="M 553.8 449.8 L 559.5 449.8 L 559.5 450.8 L 555.1 450.8 L 555.1 453.7 L 559.0 453.7 L 559.0 454.8 L 555.1 454.8 L 555.1 459.3 L 553.8 459.3 L 553.8 449.8 " fill="#000000"/>
<path class="atom-20" d="M 514.3 432.2 L 520.0 432.2 L 520.0 433.3 L 515.6 433.3 L 515.6 436.2 L 519.5 436.2 L 519.5 437.3 L 515.6 437.3 L 515.6 441.7 L 514.3 441.7 L 514.3 432.2 " fill="#000000"/>
<path class="atom-0" d="M 513.9,394.9 L 513.9,395.0 L 513.9,395.0 L 513.9,395.1 L 513.9,395.2 L 513.8,395.2 L 513.8,395.3 L 513.8,395.3 L 513.7,395.4 L 513.7,395.4 L 513.7,395.4 L 513.6,395.5 L 513.6,395.5 L 513.5,395.5 L 513.5,395.6 L 513.4,395.6 L 513.4,395.6 L 513.3,395.6 L 513.2,395.6 L 513.2,395.6 L 513.1,395.6 L 513.1,395.6 L 513.0,395.6 L 513.0,395.5 L 512.9,395.5 L 512.9,395.5 L 512.8,395.5 L 512.8,395.4 L 512.7,395.4 L 512.7,395.3 L 512.7,395.3 L 512.6,395.2 L 512.6,395.2 L 512.6,395.1 L 512.6,395.1 L 512.6,395.0 L 512.5,395.0 L 512.5,394.9 L 512.6,394.8 L 512.6,394.8 L 512.6,394.7 L 512.6,394.7 L 512.6,394.6 L 512.7,394.6 L 512.7,394.5 L 512.7,394.5 L 512.8,394.4 L 512.8,394.4 L 512.9,394.4 L 512.9,394.3 L 513.0,394.3 L 513.0,394.3 L 513.1,394.3 L 513.1,394.3 L 513.2,394.3 L 513.2,394.3 L 513.3,394.3 L 513.4,394.3 L 513.4,394.3 L 513.5,394.3 L 513.5,394.3 L 513.6,394.3 L 513.6,394.4 L 513.7,394.4 L 513.7,394.5 L 513.7,394.5 L 513.8,394.5 L 513.8,394.6 L 513.8,394.6 L 513.9,394.7 L 513.9,394.8 L 513.9,394.8 L 513.9,394.9 L 513.9,394.9 L 513.2,394.9 Z" style="fill:#000000;fill-rule:evenodd;fill-opacity:1;stroke:#000000;stroke-width:0.0px;stroke-linecap:butt;stroke-linejoin:miter;stroke-miterlimit:10;stroke-opacity:1;"/>
<path class="bond-0 atom-0 atom-1" d="M 104.0,682.7 L 79.3,688.6" style="fill:none;fill-rule:evenodd;stroke:#000000;stroke-width:2.0px;stroke-linecap:butt;stroke-linejoin:miter;stroke-opacity:1"/>
<path class="bond-1 atom-1 atom-2" d="M 67.3,688.0 L 38.6,677.9" style="fill:none;fill-rule:evenodd;stroke:#000000;stroke-width:2.0px;stroke-linecap:butt;stroke-linejoin:miter;stroke-opacity:1"/>
<path class="bond-2 atom-2 atom-3" d="M 38.6,677.9 L 15.9,648.9" style="fill:none;fill-rule:evenodd;stroke:#000000;stroke-width:2.0px;stroke-linecap:butt;stroke-linejoin:miter;stroke-opacity:1"/>
<path class="bond-3 atom-3 atom-4" d="M 15.9,648.9 L 12.5,612.2" style="fill:none;fill-rule:evenodd;stroke:#000000;stroke-width:2.0px;stroke-linecap:butt;stroke-linejoin:miter;stroke-opacity:1"/>
<path class="bond-3 atom-3 atom-4" d="M 21.2,646.8 L 18.0,611.7" style="fill:none;fill-rule:evenodd;stroke:#000000;stroke-width:2.0px;stroke-linecap:butt;stroke-linejoin:miter;stroke-opacity:1"/>
<path class="bond-4 atom-4 atom-5" d="M 12.5,612.2 L 29.5,579.5" style="fill:none;fill-rule:evenodd;stroke:#000000;stroke-width:2.0px;stroke-linecap:butt;stroke-linejoin:miter;stroke-opacity:1"/>
<path class="bond-5 atom-5 atom-6" d="M 29.5,579.5 L 61.5,561.2" style="fill:none;fill-rule:evenodd;stroke:#000000;stroke-width:2.0px;stroke-linecap:butt;stroke-linejoin:miter;stroke-opacity:1"/>
<path class="bond-5 atom-5 atom-6" d="M 33.6,583.5 L 64.2,566.0" style="fill:none;fill-rule:evenodd;stroke:#000000;stroke-width:2.0px;stroke-linecap:butt;stroke-linejoin:miter;stroke-opacity:1"/>
<path class="bond-6 atom-6 atom-7" d="M 61.5,561.2 L 98.2,563.1" style="fill:none;fill-rule:evenodd;stroke:#000000;stroke-width:2.0px;stroke-linecap:butt;stroke-linejoin:miter;stroke-opacity:1"/>
<path class="bond-7 atom-7 atom-8" d="M 98.2,563.1 L 134.1,554.5" style="fill:none;fill-rule:evenodd;stroke:#000000;stroke-width:2.0px;stroke-linecap:butt;stroke-linejoin:miter;stroke-opacity:1"/>
<path class="bond-8 atom-8 atom-9" d="M 134.1,554.5 L 163.7,564.8" style="fill:none;fill-rule:evenodd;stroke:#000000;stroke-width:2.0px;stroke-linecap:butt;stroke-linejoin:miter;stroke-opacity:1"/>
<path class="bond-8 atom-8 atom-9" d="M 133.8,560.2 L 161.9,570.1" style="fill:none;fill-rule:evenodd;stroke:#000000;stroke-width:2.0px;stroke-linecap:butt;stroke-linejoin:miter;stroke-opacity:1"/>
<path class="bond-9 atom-9 atom-10" d="M 173.9,573.1 L 186.5,589.3" style="fill:none;fill-rule:evenodd;stroke:#000000;stroke-width:2.0px;stroke-linecap:butt;stroke-linejoin:miter;stroke-opacity:1"/>
<path class="bond-10 atom-10 atom-11" d="M 192.1,602.1 L 194.9,632.4" style="fill:none;fill-rule:evenodd;stroke:#000000;stroke-width:2.0px;stroke-linecap:butt;stroke-linejoin:miter;stroke-opacity:1"/>
<path class="bond-11 atom-11 atom-12" d="M 194.9,632.4 L 225.8,638.4" style="fill:none;fill-rule:evenodd;stroke:#000000;stroke-width:2.0px;stroke-linecap:butt;stroke-linejoin:miter;stroke-opacity:1"/>
<path class="bond-12 atom-11 atom-13" d="M 197.9,638.6 L 177.9,665.1" style="fill:none;fill-rule:evenodd;stroke:#000000;stroke-width:2.0px;stroke-linecap:butt;stroke-linejoin:miter;stroke-opacity:1"/>
<path class="bond-12 atom-11 atom-13" d="M 194.9,632.4 L 173.8,661.1" style="fill:none;fill-rule:evenodd;stroke:#000000;stroke-width:2.0px;stroke-linecap:butt;stroke-linejoin:miter;stroke-opacity:1"/>
<path class="bond-13 atom-13 atom-14" d="M 177.9,665.1 L 146.0,683.4" style="fill:none;fill-rule:evenodd;stroke:#000000;stroke-width:2.0px;stroke-linecap:butt;stroke-linejoin:miter;stroke-opacity:1"/>
<path class="bond-14 atom-7 atom-15" d="M 101.5,558.6 L 123.6,581.3" style="fill:none;fill-rule:evenodd;stroke:#000000;stroke-width:2.0px;stroke-linecap:butt;stroke-linejoin:miter;stroke-opacity:1"/>
<path class="bond-14 atom-7 atom-15" d="M 98.2,563.1 L 120.4,585.8" style="fill:none;fill-rule:evenodd;stroke:#000000;stroke-width:2.0px;stroke-linecap:butt;stroke-linejoin:miter;stroke-opacity:1"/>
<path class="bond-15 atom-15 atom-16" d="M 130.7,591.0 L 139.2,612.3" style="fill:none;fill-rule:evenodd;stroke:#000000;stroke-width:2.0px;stroke-linecap:butt;stroke-linejoin:miter;stroke-opacity:1"/>
<path class="bond-15 atom-15 atom-16" d="M 125.6,593.0 L 134.1,614.4" style="fill:none;fill-rule:evenodd;stroke:#000000;stroke-width:2.0px;stroke-linecap:butt;stroke-linejoin:miter;stroke-opacity:1"/>
<path class="bond-16 atom-16 atom-17" d="M 140.5,625.2 L 135.9,648.4" style="fill:none;fill-rule:evenodd;stroke:#000000;stroke-width:2.0px;stroke-linecap:butt;stroke-linejoin:miter;stroke-opacity:1"/>
<path class="bond-17 atom-14 atom-0" d="M 146.0,683.4 L 119.5,682.0" style="fill:none;fill-rule:evenodd;stroke:#000000;stroke-width:2.0px;stroke-linecap:butt;stroke-linejoin:miter;stroke-opacity:1"/>
<path class="bond-18 atom-17 atom-0" d="M 128.7,661.2 L 115.4,675.0" style="fill:none;fill-rule:evenodd;stroke:#000000;stroke-width:2.0px;stroke-linecap:butt;stroke-linejoin:miter;stroke-opacity:1"/>
<path d="M 40.0,678.4 L 38.6,677.9 L 37.4,676.5" style="fill:none;stroke:#000000;stroke-width:2.0px;stroke-linecap:butt;stroke-linejoin:miter;stroke-miterlimit:10;stroke-opacity:1;"/>
<path d="M 17.0,650.3 L 15.9,648.9 L 15.7,647.0" style="fill:none;stroke:#000000;stroke-width:2.0px;stroke-linecap:butt;stroke-linejoin:miter;stroke-miterlimit:10;stroke-opacity:1;"/>
<path d="M 12.7,614.0 L 12.5,612.2 L 13.3,610.6" style="fill:none;stroke:#000000;stroke-width:2.0px;stroke-linecap:butt;stroke-linejoin:miter;stroke-miterlimit:10;stroke-opacity:1;"/>
<path d="M 28.6,581.1 L 29.5,579.5 L 31.1,578.6" style="fill:none;stroke:#000000;stroke-width:2.0px;stroke-linecap:butt;stroke-linejoin:miter;stroke-miterlimit:10;stroke-opacity:1;"/>
<path d="M 59.9,562.1 L 61.5,561.2 L 63.3,561.3" style="fill:none;stroke:#000000;stroke-width:2.0px;stroke-linecap:butt;stroke-linejoin:miter;stroke-miterlimit:10;stroke-opacity:1;"/>
<path d="M 132.3,554.9 L 134.1,554.5 L 135.6,555.0" style="fill:none;stroke:#000000;stroke-width:2.0px;stroke-linecap:butt;stroke-linejoin:miter;stroke-miterlimit:10;stroke-opacity:1;"/>
<path d="M 178.9,663.7 L 177.9,665.1 L 176.3,666.0" style="fill:none;stroke:#000000;stroke-width:2.0px;stroke-linecap:butt;stroke-linejoin:miter;stroke-miterlimit:10;stroke-opacity:1;"/>
<path d="M 147.6,682.5 L 146.0,683.4 L 144.6,683.3" style="fill:none;stroke:#000000;stroke-width:2.0px;stroke-linecap:butt;stroke-linejoin:miter;stroke-miterlimit:10;stroke-opacity:1;"/>
<path class="atom-0" d="M 106.9 676.3 L 110.3 681.8 Q 110.6 682.4, 111.2 683.3 Q 111.7 684.3, 111.7 684.4 L 111.7 676.3 L 113.1 676.3 L 113.1 686.7 L 111.7 686.7 L 108.0 680.7 Q 107.6 680.0, 107.1 679.2 Q 106.7 678.3, 106.6 678.1 L 106.6 686.7 L 105.2 686.7 L 105.2 676.3 L 106.9 676.3 " fill="#000000"/>
<path class="atom-0" d="M 115.1 678.2 L 116.9 678.2 L 116.9 676.2 L 117.7 676.2 L 117.7 678.2 L 119.6 678.2 L 119.6 678.9 L 117.7 678.9 L 117.7 680.8 L 116.9 680.8 L 116.9 678.9 L 115.1 678.9 L 115.1 678.2 " fill="#000000"/>
<path class="atom-1" d="M 68.5 690.1 Q 68.5 687.6, 69.8 686.2 Q 71.0 684.8, 73.3 684.8 Q 75.6 684.8, 76.9 686.2 Q 78.1 687.6, 78.1 690.1 Q 78.1 692.6, 76.9 694.1 Q 75.6 695.5, 73.3 695.5 Q 71.0 695.5, 69.8 694.1 Q 68.5 692.7, 68.5 690.1 M 73.3 694.3 Q 74.9 694.3, 75.8 693.3 Q 76.6 692.2, 76.6 690.1 Q 76.6 688.1, 75.8 687.0 Q 74.9 686.0, 73.3 686.0 Q 71.7 686.0, 70.9 687.0 Q 70.0 688.0, 70.0 690.1 Q 70.0 692.2, 70.9 693.3 Q 71.7 694.3, 73.3 694.3 " fill="#000000"/>
<path class="atom-9" d="M 166.5 561.4 L 170.0 567.0 Q 170.3 567.5, 170.8 568.5 Q 171.4 569.5, 171.4 569.5 L 171.4 561.4 L 172.8 561.4 L 172.8 571.9 L 171.4 571.9 L 167.7 565.8 Q 167.3 565.1, 166.8 564.3 Q 166.4 563.5, 166.2 563.3 L 166.2 571.9 L 164.9 571.9 L 164.9 561.4 L 166.5 561.4 " fill="#000000"/>
<path class="atom-10" d="M 189.2 590.5 L 192.6 596.0 Q 193.0 596.5, 193.5 597.5 Q 194.1 598.5, 194.1 598.6 L 194.1 590.5 L 195.5 590.5 L 195.5 600.9 L 194.1 600.9 L 190.4 594.9 Q 190.0 594.2, 189.5 593.3 Q 189.1 592.5, 188.9 592.3 L 188.9 600.9 L 187.6 600.9 L 187.6 590.5 L 189.2 590.5 " fill="#000000"/>
<path class="atom-10" d="M 197.5 590.5 L 198.9 590.5 L 198.9 594.9 L 204.3 594.9 L 204.3 590.5 L 205.7 590.5 L 205.7 600.9 L 204.3 600.9 L 204.3 596.1 L 198.9 596.1 L 198.9 600.9 L 197.5 600.9 L 197.5 590.5 " fill="#000000"/>
<path class="atom-12" d="M 227.0 639.8 Q 227.0 637.2, 228.2 635.9 Q 229.5 634.5, 231.8 634.5 Q 233.9 634.5, 235.1 636.0 L 234.1 636.8 Q 233.3 635.7, 231.8 635.7 Q 230.2 635.7, 229.4 636.8 Q 228.5 637.8, 228.5 639.8 Q 228.5 641.9, 229.4 642.9 Q 230.3 644.0, 231.9 644.0 Q 233.1 644.0, 234.4 643.3 L 234.8 644.4 Q 234.3 644.8, 233.5 645.0 Q 232.7 645.2, 231.7 645.2 Q 229.5 645.2, 228.2 643.8 Q 227.0 642.4, 227.0 639.8 " fill="#000000"/>
<path class="atom-12" d="M 236.1 633.9 L 237.5 633.9 L 237.5 645.1 L 236.1 645.1 L 236.1 633.9 " fill="#000000"/>
<path class="atom-15" d="M 127.9 579.3 Q 129.7 579.3, 130.6 580.1 Q 131.5 580.9, 131.5 582.4 Q 131.5 583.8, 130.6 584.6 Q 129.7 585.5, 127.9 585.5 L 126.3 585.5 L 126.3 589.7 L 124.9 589.7 L 124.9 579.3 L 127.9 579.3 M 127.9 584.3 Q 129.0 584.3, 129.5 583.8 Q 130.0 583.3, 130.0 582.4 Q 130.0 581.4, 129.5 581.0 Q 129.0 580.5, 127.9 580.5 L 126.3 580.5 L 126.3 584.3 L 127.9 584.3 " fill="#000000"/>
<path class="atom-16" d="M 139.5 613.6 L 142.9 619.1 Q 143.2 619.6, 143.8 620.6 Q 144.3 621.6, 144.3 621.7 L 144.3 613.6 L 145.7 613.6 L 145.7 624.0 L 144.3 624.0 L 140.6 617.9 Q 140.2 617.2, 139.7 616.4 Q 139.3 615.6, 139.2 615.4 L 139.2 624.0 L 137.8 624.0 L 137.8 613.6 L 139.5 613.6 " fill="#000000"/>
<path class="atom-17" d="M 129.9 655.0 Q 129.9 652.4, 131.1 651.0 Q 132.4 649.6, 134.7 649.6 Q 137.0 649.6, 138.2 651.0 Q 139.5 652.4, 139.5 655.0 Q 139.5 657.5, 138.2 658.9 Q 137.0 660.4, 134.7 660.4 Q 132.4 660.4, 131.1 658.9 Q 129.9 657.5, 129.9 655.0 M 134.7 659.2 Q 136.3 659.2, 137.1 658.1 Q 138.0 657.0, 138.0 655.0 Q 138.0 652.9, 137.1 651.9 Q 136.3 650.8, 134.7 650.8 Q 133.1 650.8, 132.2 651.9 Q 131.4 652.9, 131.4 655.0 Q 131.4 657.1, 132.2 658.1 Q 133.1 659.2, 134.7 659.2 " fill="#000000"/>
<path class="atom-0" d="M 103.7,681.5 L 103.7,681.6 L 103.7,681.6 L 103.7,681.7 L 103.7,681.8 L 103.7,681.8 L 103.6,681.9 L 103.6,681.9 L 103.6,682.0 L 103.5,682.0 L 103.5,682.1 L 103.4,682.1 L 103.4,682.1 L 103.3,682.2 L 103.3,682.2 L 103.2,682.2 L 103.1,682.2 L 103.1,682.2 L 103.0,682.2 L 102.9,682.2 L 102.9,682.2 L 102.8,682.2 L 102.8,682.2 L 102.7,682.2 L 102.6,682.2 L 102.6,682.1 L 102.5,682.1 L 102.5,682.0 L 102.4,682.0 L 102.4,681.9 L 102.4,681.9 L 102.3,681.8 L 102.3,681.8 L 102.3,681.7 L 102.3,681.7 L 102.3,681.6 L 102.3,681.5 L 102.3,681.5 L 102.3,681.4 L 102.3,681.3 L 102.3,681.3 L 102.3,681.2 L 102.3,681.2 L 102.4,681.1 L 102.4,681.1 L 102.4,681.0 L 102.5,681.0 L 102.5,680.9 L 102.6,680.9 L 102.6,680.9 L 102.7,680.8 L 102.8,680.8 L 102.8,680.8 L 102.9,680.8 L 102.9,680.8 L 103.0,680.8 L 103.1,680.8 L 103.1,680.8 L 103.2,680.8 L 103.3,680.8 L 103.3,680.8 L 103.4,680.9 L 103.4,680.9 L 103.5,680.9 L 103.5,681.0 L 103.6,681.0 L 103.6,681.1 L 103.6,681.1 L 103.7,681.2 L 103.7,681.3 L 103.7,681.3 L 103.7,681.4 L 103.7,681.4 L 103.7,681.5 L 103.0,681.5 Z" style="fill:#000000;fill-rule:evenodd;fill-opacity:1;stroke:#000000;stroke-width:0.0px;stroke-linecap:butt;stroke-linejoin:miter;stroke-miterlimit:10;stroke-opacity:1;"/>
<path class="atom-15" d="M 134.5,584.5 L 134.5,584.6 L 134.5,584.7 L 134.4,584.7 L 134.4,584.8 L 134.4,584.8 L 134.4,584.9 L 134.3,584.9 L 134.3,585.0 L 134.3,585.0 L 134.2,585.1 L 134.2,585.1 L 134.1,585.2 L 134.0,585.2 L 134.0,585.2 L 133.9,585.2 L 133.9,585.2 L 133.8,585.3 L 133.7,585.3 L 133.7,585.3 L 133.6,585.3 L 133.6,585.2 L 133.5,585.2 L 133.4,585.2 L 133.4,585.2 L 133.3,585.1 L 133.3,585.1 L 133.2,585.1 L 133.2,585.0 L 133.1,585.0 L 133.1,584.9 L 133.1,584.9 L 133.0,584.8 L 133.0,584.7 L 133.0,584.7 L 133.0,584.6 L 133.0,584.6 L 133.0,584.5 L 133.0,584.4 L 133.0,584.4 L 133.0,584.3 L 133.0,584.2 L 133.1,584.2 L 133.1,584.1 L 133.1,584.1 L 133.2,584.0 L 133.2,584.0 L 133.3,583.9 L 133.3,583.9 L 133.4,583.9 L 133.4,583.9 L 133.5,583.8 L 133.6,583.8 L 133.6,583.8 L 133.7,583.8 L 133.7,583.8 L 133.8,583.8 L 133.9,583.8 L 133.9,583.8 L 134.0,583.8 L 134.0,583.9 L 134.1,583.9 L 134.2,583.9 L 134.2,584.0 L 134.3,584.0 L 134.3,584.1 L 134.3,584.1 L 134.4,584.2 L 134.4,584.2 L 134.4,584.3 L 134.4,584.3 L 134.5,584.4 L 134.5,584.5 L 134.5,584.5 L 133.7,584.5 Z" style="fill:#000000;fill-rule:evenodd;fill-opacity:1;stroke:#000000;stroke-width:0.0px;stroke-linecap:butt;stroke-linejoin:miter;stroke-miterlimit:10;stroke-opacity:1;"/>
<path class="bond-0 atom-0 atom-1" d="M 278.0,574.5 L 268.4,607.5" style="fill:none;fill-rule:evenodd;stroke:#000000;stroke-width:2.0px;stroke-linecap:butt;stroke-linejoin:miter;stroke-opacity:1"/>
<path class="bond-1 atom-1 atom-2" d="M 271.5,620.2 L 295.4,645.0" style="fill:none;fill-rule:evenodd;stroke:#000000;stroke-width:2.0px;stroke-linecap:butt;stroke-linejoin:miter;stroke-opacity:1"/>
<path class="bond-2 atom-2 atom-3" d="M 295.4,645.0 L 285.9,678.0" style="fill:none;fill-rule:evenodd;stroke:#000000;stroke-width:2.0px;stroke-linecap:butt;stroke-linejoin:miter;stroke-opacity:1"/>
<path class="bond-3 atom-2 atom-4" d="M 295.4,645.0 L 330.3,636.4" style="fill:none;fill-rule:evenodd;stroke:#000000;stroke-width:2.0px;stroke-linecap:butt;stroke-linejoin:miter;stroke-opacity:1"/>
<path class="bond-3 atom-2 atom-4" d="M 296.9,651.1 L 331.8,642.5" style="fill:none;fill-rule:evenodd;stroke:#000000;stroke-width:2.0px;stroke-linecap:butt;stroke-linejoin:miter;stroke-opacity:1"/>
<path class="bond-4 atom-4 atom-5" d="M 342.1,641.1 L 360.1,659.8" style="fill:none;fill-rule:evenodd;stroke:#000000;stroke-width:2.0px;stroke-linecap:butt;stroke-linejoin:miter;stroke-opacity:1"/>
<path class="bond-5 atom-5 atom-6" d="M 370.5,663.9 L 406.0,655.1" style="fill:none;fill-rule:evenodd;stroke:#000000;stroke-width:2.0px;stroke-linecap:butt;stroke-linejoin:miter;stroke-opacity:1"/>
<path class="bond-6 atom-6 atom-7" d="M 406.0,655.1 L 417.7,614.8" style="fill:none;fill-rule:evenodd;stroke:#000000;stroke-width:2.0px;stroke-linecap:butt;stroke-linejoin:miter;stroke-opacity:1"/>
<path class="bond-6 atom-6 atom-7" d="M 413.1,653.4 L 422.7,620.0" style="fill:none;fill-rule:evenodd;stroke:#000000;stroke-width:2.0px;stroke-linecap:butt;stroke-linejoin:miter;stroke-opacity:1"/>
<path class="bond-7 atom-7 atom-8" d="M 417.7,614.8 L 458.4,604.7" style="fill:none;fill-rule:evenodd;stroke:#000000;stroke-width:2.0px;stroke-linecap:butt;stroke-linejoin:miter;stroke-opacity:1"/>
<path class="bond-8 atom-8 atom-9" d="M 458.4,604.7 L 467.9,571.7" style="fill:none;fill-rule:evenodd;stroke:#000000;stroke-width:2.0px;stroke-linecap:butt;stroke-linejoin:miter;stroke-opacity:1"/>
<path class="bond-9 atom-8 atom-10" d="M 458.4,604.7 L 487.5,635.0" style="fill:none;fill-rule:evenodd;stroke:#000000;stroke-width:2.0px;stroke-linecap:butt;stroke-linejoin:miter;stroke-opacity:1"/>
<path class="bond-9 atom-8 atom-10" d="M 456.4,611.7 L 480.4,636.7" style="fill:none;fill-rule:evenodd;stroke:#000000;stroke-width:2.0px;stroke-linecap:butt;stroke-linejoin:miter;stroke-opacity:1"/>
<path class="bond-10 atom-10 atom-11" d="M 487.5,635.0 L 475.9,675.3" style="fill:none;fill-rule:evenodd;stroke:#000000;stroke-width:2.0px;stroke-linecap:butt;stroke-linejoin:miter;stroke-opacity:1"/>
<path class="bond-11 atom-11 atom-12" d="M 475.9,675.3 L 435.1,685.4" style="fill:none;fill-rule:evenodd;stroke:#000000;stroke-width:2.0px;stroke-linecap:butt;stroke-linejoin:miter;stroke-opacity:1"/>
<path class="bond-11 atom-11 atom-12" d="M 470.8,670.0 L 437.1,678.4" style="fill:none;fill-rule:evenodd;stroke:#000000;stroke-width:2.0px;stroke-linecap:butt;stroke-linejoin:miter;stroke-opacity:1"/>
<path class="bond-12 atom-12 atom-6" d="M 435.1,685.4 L 406.0,655.1" style="fill:none;fill-rule:evenodd;stroke:#000000;stroke-width:2.0px;stroke-linecap:butt;stroke-linejoin:miter;stroke-opacity:1"/>
<path d="M 417.1,616.8 L 417.7,614.8 L 419.7,614.3" style="fill:none;stroke:#000000;stroke-width:2.0px;stroke-linecap:butt;stroke-linejoin:miter;stroke-miterlimit:10;stroke-opacity:1;"/>
<path d="M 486.0,633.4 L 487.5,635.0 L 486.9,637.0" style="fill:none;stroke:#000000;stroke-width:2.0px;stroke-linecap:butt;stroke-linejoin:miter;stroke-miterlimit:10;stroke-opacity:1;"/>
<path d="M 476.4,673.3 L 475.9,675.3 L 473.8,675.8" style="fill:none;stroke:#000000;stroke-width:2.0px;stroke-linecap:butt;stroke-linejoin:miter;stroke-miterlimit:10;stroke-opacity:1;"/>
<path d="M 437.2,684.9 L 435.1,685.4 L 433.7,683.9" style="fill:none;stroke:#000000;stroke-width:2.0px;stroke-linecap:butt;stroke-linejoin:miter;stroke-miterlimit:10;stroke-opacity:1;"/>
<path class="atom-1" d="M 263.0 618.9 Q 263.1 618.9, 263.6 619.2 Q 264.2 619.4, 264.8 619.5 Q 265.4 619.7, 266.0 619.7 Q 267.2 619.7, 267.8 619.1 Q 268.5 618.6, 268.5 617.6 Q 268.5 617.0, 268.1 616.6 Q 267.8 616.2, 267.3 616.0 Q 266.8 615.7, 266.0 615.5 Q 264.9 615.2, 264.3 614.9 Q 263.6 614.6, 263.2 613.9 Q 262.8 613.3, 262.8 612.2 Q 262.8 610.7, 263.8 609.8 Q 264.8 608.9, 266.8 608.9 Q 268.2 608.9, 269.7 609.5 L 269.4 610.8 Q 267.9 610.2, 266.8 610.2 Q 265.7 610.2, 265.1 610.7 Q 264.4 611.2, 264.4 612.0 Q 264.4 612.6, 264.7 613.0 Q 265.1 613.4, 265.6 613.6 Q 266.0 613.9, 266.8 614.1 Q 267.9 614.4, 268.6 614.8 Q 269.2 615.1, 269.7 615.8 Q 270.1 616.5, 270.1 617.6 Q 270.1 619.3, 269.0 620.2 Q 267.9 621.0, 266.1 621.0 Q 265.0 621.0, 264.2 620.8 Q 263.4 620.6, 262.5 620.2 L 263.0 618.9 " fill="#000000"/>
<path class="atom-3" d="M 278.3 685.4 Q 278.3 682.5, 279.7 680.9 Q 281.1 679.4, 283.8 679.4 Q 286.4 679.4, 287.8 680.9 Q 289.2 682.5, 289.2 685.4 Q 289.2 688.3, 287.8 689.9 Q 286.4 691.6, 283.8 691.6 Q 281.2 691.6, 279.7 689.9 Q 278.3 688.3, 278.3 685.4 M 283.8 690.2 Q 285.6 690.2, 286.6 689.0 Q 287.6 687.8, 287.6 685.4 Q 287.6 683.1, 286.6 681.9 Q 285.6 680.7, 283.8 680.7 Q 282.0 680.7, 281.0 681.9 Q 280.0 683.0, 280.0 685.4 Q 280.0 687.8, 281.0 689.0 Q 282.0 690.2, 283.8 690.2 " fill="#000000"/>
<path class="atom-3" d="M 290.9 681.3 L 295.0 681.3 L 295.0 682.2 L 290.9 682.2 L 290.9 681.3 " fill="#000000"/>
<path class="atom-4" d="M 333.5 629.0 L 337.4 635.3 Q 337.8 635.9, 338.4 637.1 Q 339.1 638.2, 339.1 638.2 L 339.1 629.0 L 340.7 629.0 L 340.7 640.9 L 339.0 640.9 L 334.9 634.0 Q 334.4 633.2, 333.9 632.3 Q 333.3 631.4, 333.2 631.1 L 333.2 640.9 L 331.7 640.9 L 331.7 629.0 L 333.5 629.0 " fill="#000000"/>
<path class="atom-5" d="M 361.9 669.3 Q 362.0 669.3, 362.6 669.6 Q 363.1 669.8, 363.8 670.0 Q 364.4 670.1, 365.0 670.1 Q 366.1 670.1, 366.8 669.5 Q 367.4 669.0, 367.4 668.0 Q 367.4 667.4, 367.1 667.0 Q 366.8 666.6, 366.3 666.4 Q 365.8 666.1, 364.9 665.9 Q 363.9 665.6, 363.2 665.3 Q 362.6 665.0, 362.1 664.3 Q 361.7 663.7, 361.7 662.6 Q 361.7 661.1, 362.7 660.2 Q 363.7 659.3, 365.8 659.3 Q 367.1 659.3, 368.7 659.9 L 368.3 661.2 Q 366.9 660.6, 365.8 660.6 Q 364.6 660.6, 364.0 661.1 Q 363.4 661.6, 363.4 662.4 Q 363.4 663.1, 363.7 663.4 Q 364.0 663.8, 364.5 664.0 Q 365.0 664.3, 365.8 664.5 Q 366.9 664.8, 367.5 665.2 Q 368.2 665.5, 368.6 666.2 Q 369.1 666.9, 369.1 668.0 Q 369.1 669.7, 368.0 670.6 Q 366.9 671.4, 365.0 671.4 Q 364.0 671.4, 363.2 671.2 Q 362.4 671.0, 361.5 670.6 L 361.9 669.3 " fill="#000000"/>
<path class="atom-9" d="M 466.5 558.4 L 473.6 558.4 L 473.6 559.8 L 468.1 559.8 L 468.1 563.4 L 473.0 563.4 L 473.0 564.8 L 468.1 564.8 L 468.1 570.3 L 466.5 570.3 L 466.5 558.4 " fill="#000000"/>
<path class="bond-0 atom-0 atom-1" d="M 529.5,648.8 L 562.6,636.1" style="fill:none;fill-rule:evenodd;stroke:#000000;stroke-width:2.0px;stroke-linecap:butt;stroke-linejoin:miter;stroke-opacity:1"/>
<path class="bond-1 atom-1 atom-2" d="M 562.6,636.1 L 592.7,660.3" style="fill:none;fill-rule:evenodd;stroke:#000000;stroke-width:2.0px;stroke-linecap:butt;stroke-linejoin:miter;stroke-opacity:1"/>
<path class="bond-2 atom-2 atom-3" d="M 608.6,663.7 L 646.3,649.2" style="fill:none;fill-rule:evenodd;stroke:#000000;stroke-width:2.0px;stroke-linecap:butt;stroke-linejoin:miter;stroke-opacity:1"/>
<path class="bond-3 atom-3 atom-4" d="M 646.3,649.2 L 684.3,679.9" style="fill:none;fill-rule:evenodd;stroke:#000000;stroke-width:2.0px;stroke-linecap:butt;stroke-linejoin:miter;stroke-opacity:1"/>
<path class="bond-3 atom-3 atom-4" d="M 654.2,646.1 L 685.6,671.5" style="fill:none;fill-rule:evenodd;stroke:#000000;stroke-width:2.0px;stroke-linecap:butt;stroke-linejoin:miter;stroke-opacity:1"/>
<path class="bond-4 atom-4 atom-5" d="M 684.3,679.9 L 729.9,662.3" style="fill:none;fill-rule:evenodd;stroke:#000000;stroke-width:2.0px;stroke-linecap:butt;stroke-linejoin:miter;stroke-opacity:1"/>
<path class="bond-5 atom-5 atom-6" d="M 729.9,662.3 L 737.5,613.9" style="fill:none;fill-rule:evenodd;stroke:#000000;stroke-width:2.0px;stroke-linecap:butt;stroke-linejoin:miter;stroke-opacity:1"/>
<path class="bond-5 atom-5 atom-6" d="M 723.3,656.9 L 729.6,617.0" style="fill:none;fill-rule:evenodd;stroke:#000000;stroke-width:2.0px;stroke-linecap:butt;stroke-linejoin:miter;stroke-opacity:1"/>
<path class="bond-6 atom-6 atom-7" d="M 737.5,613.9 L 699.4,583.2" style="fill:none;fill-rule:evenodd;stroke:#000000;stroke-width:2.0px;stroke-linecap:butt;stroke-linejoin:miter;stroke-opacity:1"/>
<path class="bond-7 atom-7 atom-8" d="M 699.4,583.2 L 653.8,600.8" style="fill:none;fill-rule:evenodd;stroke:#000000;stroke-width:2.0px;stroke-linecap:butt;stroke-linejoin:miter;stroke-opacity:1"/>
<path class="bond-7 atom-7 atom-8" d="M 698.1,591.6 L 660.4,606.2" style="fill:none;fill-rule:evenodd;stroke:#000000;stroke-width:2.0px;stroke-linecap:butt;stroke-linejoin:miter;stroke-opacity:1"/>
<path class="bond-8 atom-8 atom-9" d="M 653.8,600.8 L 615.7,570.1" style="fill:none;fill-rule:evenodd;stroke:#000000;stroke-width:2.0px;stroke-linecap:butt;stroke-linejoin:miter;stroke-opacity:1"/>
<path class="bond-9 atom-9 atom-10" d="M 615.7,570.1 L 577.0,585.1" style="fill:none;fill-rule:evenodd;stroke:#000000;stroke-width:2.0px;stroke-linecap:butt;stroke-linejoin:miter;stroke-opacity:1"/>
<path class="bond-10 atom-10 atom-1" d="M 568.8,596.3 L 562.6,636.1" style="fill:none;fill-rule:evenodd;stroke:#000000;stroke-width:2.0px;stroke-linecap:butt;stroke-linejoin:miter;stroke-opacity:1"/>
<path class="bond-11 atom-8 atom-3" d="M 653.8,600.8 L 646.3,649.2" style="fill:none;fill-rule:evenodd;stroke:#000000;stroke-width:2.0px;stroke-linecap:butt;stroke-linejoin:miter;stroke-opacity:1"/>
<path d="M 682.4,678.3 L 684.3,679.9 L 686.6,679.0" style="fill:none;stroke:#000000;stroke-width:2.0px;stroke-linecap:butt;stroke-linejoin:miter;stroke-miterlimit:10;stroke-opacity:1;"/>
<path d="M 727.7,663.1 L 729.9,662.3 L 730.3,659.8" style="fill:none;stroke:#000000;stroke-width:2.0px;stroke-linecap:butt;stroke-linejoin:miter;stroke-miterlimit:10;stroke-opacity:1;"/>
<path d="M 737.1,616.4 L 737.5,613.9 L 735.6,612.4" style="fill:none;stroke:#000000;stroke-width:2.0px;stroke-linecap:butt;stroke-linejoin:miter;stroke-miterlimit:10;stroke-opacity:1;"/>
<path d="M 701.3,584.8 L 699.4,583.2 L 697.2,584.1" style="fill:none;stroke:#000000;stroke-width:2.0px;stroke-linecap:butt;stroke-linejoin:miter;stroke-miterlimit:10;stroke-opacity:1;"/>
<path d="M 617.7,571.7 L 615.7,570.1 L 613.8,570.9" style="fill:none;stroke:#000000;stroke-width:2.0px;stroke-linecap:butt;stroke-linejoin:miter;stroke-miterlimit:10;stroke-opacity:1;"/>
<path class="atom-0" d="M 513.0 658.4 Q 513.2 658.5, 513.8 658.8 Q 514.5 659.0, 515.2 659.2 Q 515.9 659.4, 516.6 659.4 Q 517.9 659.4, 518.7 658.7 Q 519.4 658.1, 519.4 657.0 Q 519.4 656.2, 519.1 655.8 Q 518.7 655.3, 518.1 655.0 Q 517.5 654.8, 516.5 654.5 Q 515.3 654.1, 514.6 653.8 Q 513.8 653.4, 513.3 652.7 Q 512.8 651.9, 512.8 650.7 Q 512.8 648.9, 514.0 647.8 Q 515.2 646.8, 517.5 646.8 Q 519.1 646.8, 520.9 647.5 L 520.5 649.0 Q 518.8 648.4, 517.6 648.4 Q 516.2 648.4, 515.5 648.9 Q 514.7 649.5, 514.7 650.4 Q 514.7 651.2, 515.1 651.6 Q 515.5 652.1, 516.1 652.3 Q 516.6 652.6, 517.6 652.9 Q 518.8 653.3, 519.6 653.7 Q 520.3 654.0, 520.8 654.9 Q 521.4 655.6, 521.4 657.0 Q 521.4 658.9, 520.1 659.9 Q 518.8 661.0, 516.7 661.0 Q 515.5 661.0, 514.5 660.7 Q 513.6 660.4, 512.5 660.0 L 513.0 658.4 " fill="#000000"/>
<path class="atom-0" d="M 523.1 648.9 L 527.8 648.9 L 527.8 649.9 L 523.1 649.9 L 523.1 648.9 " fill="#000000"/>
<path class="atom-2" d="M 594.3 666.8 Q 594.3 663.5, 595.9 661.6 Q 597.6 659.8, 600.6 659.8 Q 603.7 659.8, 605.3 661.6 Q 607.0 663.5, 607.0 666.8 Q 607.0 670.2, 605.3 672.1 Q 603.7 674.0, 600.6 674.0 Q 597.6 674.0, 595.9 672.1 Q 594.3 670.2, 594.3 666.8 M 600.6 672.4 Q 602.7 672.4, 603.9 671.0 Q 605.0 669.6, 605.0 666.8 Q 605.0 664.1, 603.9 662.7 Q 602.7 661.3, 600.6 661.3 Q 598.5 661.3, 597.4 662.7 Q 596.2 664.1, 596.2 666.8 Q 596.2 669.6, 597.4 671.0 Q 598.5 672.4, 600.6 672.4 " fill="#000000"/>
<path class="atom-10" d="M 551.3 580.8 L 553.2 580.8 L 553.2 586.7 L 560.3 586.7 L 560.3 580.8 L 562.1 580.8 L 562.1 594.7 L 560.3 594.7 L 560.3 588.3 L 553.2 588.3 L 553.2 594.7 L 551.3 594.7 L 551.3 580.8 " fill="#000000"/>
<path class="atom-10" d="M 567.1 580.8 L 571.6 588.2 Q 572.1 588.9, 572.8 590.2 Q 573.5 591.5, 573.5 591.6 L 573.5 580.8 L 575.4 580.8 L 575.4 594.7 L 573.5 594.7 L 568.6 586.7 Q 568.0 585.7, 567.4 584.6 Q 566.8 583.6, 566.7 583.2 L 566.7 594.7 L 564.9 594.7 L 564.9 580.8 L 567.1 580.8 " fill="#000000"/>
</svg>