<svg xmlns="http://www.w3.org/2000/svg" xmlns:rdkit="http://www.rdkit.org/xml" xmlns:xlink="http://www.w3.org/1999/xlink" version="1.1" baseProfile="full" xml:space="preserve" width="750px" height="750px" viewBox="0 0 750 750">
<!-- END OF HEADER -->
<rect style="opacity:1.0;fill:#FFFFFF;stroke:none" width="250.0" height="250.0" x="0.0" y="0.0"> </rect>
<path class="bond-0 atom-0 atom-1" d="M 230.1,149.4 L 215.3,157.1" style="fill:none;fill-rule:evenodd;stroke:#000000;stroke-width:2.0px;stroke-linecap:butt;stroke-linejoin:miter;stroke-opacity:1"/>
<path class="bond-1 atom-1 atom-2" d="M 215.3,157.1 L 198.8,146.6" style="fill:none;fill-rule:evenodd;stroke:#000000;stroke-width:2.0px;stroke-linecap:butt;stroke-linejoin:miter;stroke-opacity:1"/>
<path class="bond-1 atom-1 atom-2" d="M 215.5,153.7 L 200.4,144.2" style="fill:none;fill-rule:evenodd;stroke:#000000;stroke-width:2.0px;stroke-linecap:butt;stroke-linejoin:miter;stroke-opacity:1"/>
<path class="bond-2 atom-2 atom-3" d="M 198.8,146.6 L 181.5,155.7" style="fill:none;fill-rule:evenodd;stroke:#000000;stroke-width:2.0px;stroke-linecap:butt;stroke-linejoin:miter;stroke-opacity:1"/>
<path class="bond-3 atom-3 atom-4" d="M 181.5,155.7 L 165.0,145.2" style="fill:none;fill-rule:evenodd;stroke:#000000;stroke-width:2.0px;stroke-linecap:butt;stroke-linejoin:miter;stroke-opacity:1"/>
<path class="bond-3 atom-3 atom-4" d="M 181.7,152.3 L 166.6,142.7" style="fill:none;fill-rule:evenodd;stroke:#000000;stroke-width:2.0px;stroke-linecap:butt;stroke-linejoin:miter;stroke-opacity:1"/>
<path class="bond-4 atom-4 atom-5" d="M 165.0,145.2 L 147.7,154.2" style="fill:none;fill-rule:evenodd;stroke:#000000;stroke-width:2.0px;stroke-linecap:butt;stroke-linejoin:miter;stroke-opacity:1"/>
<path class="bond-5 atom-5 atom-6" d="M 147.7,154.2 L 134.0,145.5" style="fill:none;fill-rule:evenodd;stroke:#000000;stroke-width:2.0px;stroke-linecap:butt;stroke-linejoin:miter;stroke-opacity:1"/>
<path class="bond-6 atom-6 atom-7" d="M 131.6,134.3 L 132.1,124.3" style="fill:none;fill-rule:evenodd;stroke:#000000;stroke-width:2.0px;stroke-linecap:butt;stroke-linejoin:miter;stroke-opacity:1"/>
<path class="bond-7 atom-7 atom-8" d="M 132.1,124.3 L 149.4,115.2" style="fill:none;fill-rule:evenodd;stroke:#000000;stroke-width:2.0px;stroke-linecap:butt;stroke-linejoin:miter;stroke-opacity:1"/>
<path class="bond-8 atom-8 atom-9" d="M 149.4,115.2 L 150.0,99.2" style="fill:none;fill-rule:evenodd;stroke:#000000;stroke-width:2.0px;stroke-linecap:butt;stroke-linejoin:miter;stroke-opacity:1"/>
<path class="bond-9 atom-6 atom-10" d="M 128.5,145.2 L 113.9,152.8" style="fill:none;fill-rule:evenodd;stroke:#000000;stroke-width:2.0px;stroke-linecap:butt;stroke-linejoin:miter;stroke-opacity:1"/>
<path class="bond-10 atom-10 atom-11" d="M 113.9,152.8 L 97.4,142.3" style="fill:none;fill-rule:evenodd;stroke:#000000;stroke-width:2.0px;stroke-linecap:butt;stroke-linejoin:miter;stroke-opacity:1"/>
<path class="bond-11 atom-11 atom-12" d="M 97.4,142.3 L 80.1,151.4" style="fill:none;fill-rule:evenodd;stroke:#000000;stroke-width:2.0px;stroke-linecap:butt;stroke-linejoin:miter;stroke-opacity:1"/>
<path class="bond-12 atom-12 atom-13" d="M 80.1,151.4 L 66.4,142.7" style="fill:none;fill-rule:evenodd;stroke:#000000;stroke-width:2.0px;stroke-linecap:butt;stroke-linejoin:miter;stroke-opacity:1"/>
<path class="bond-13 atom-13 atom-14" d="M 60.9,142.4 L 46.3,150.0" style="fill:none;fill-rule:evenodd;stroke:#000000;stroke-width:2.0px;stroke-linecap:butt;stroke-linejoin:miter;stroke-opacity:1"/>
<path class="bond-14 atom-14 atom-15" d="M 46.3,150.0 L 29.8,139.5" style="fill:none;fill-rule:evenodd;stroke:#000000;stroke-width:2.0px;stroke-linecap:butt;stroke-linejoin:miter;stroke-opacity:1"/>
<path class="bond-15 atom-15 atom-16" d="M 29.8,139.5 L 12.5,148.5" style="fill:none;fill-rule:evenodd;stroke:#000000;stroke-width:2.0px;stroke-linecap:butt;stroke-linejoin:miter;stroke-opacity:1"/>
<path d="M 216.1,156.7 L 215.3,157.1 L 214.5,156.6" style="fill:none;stroke:#000000;stroke-width:2.0px;stroke-linecap:butt;stroke-linejoin:miter;stroke-miterlimit:10;stroke-opacity:1;"/>
<path d="M 199.7,147.2 L 198.8,146.6 L 198.0,147.1" style="fill:none;stroke:#000000;stroke-width:2.0px;stroke-linecap:butt;stroke-linejoin:miter;stroke-miterlimit:10;stroke-opacity:1;"/>
<path d="M 182.4,155.2 L 181.5,155.7 L 180.7,155.2" style="fill:none;stroke:#000000;stroke-width:2.0px;stroke-linecap:butt;stroke-linejoin:miter;stroke-miterlimit:10;stroke-opacity:1;"/>
<path d="M 165.9,145.7 L 165.0,145.2 L 164.2,145.7" style="fill:none;stroke:#000000;stroke-width:2.0px;stroke-linecap:butt;stroke-linejoin:miter;stroke-miterlimit:10;stroke-opacity:1;"/>
<path d="M 148.6,153.8 L 147.7,154.2 L 147.0,153.8" style="fill:none;stroke:#000000;stroke-width:2.0px;stroke-linecap:butt;stroke-linejoin:miter;stroke-miterlimit:10;stroke-opacity:1;"/>
<path d="M 132.0,124.8 L 132.1,124.3 L 132.9,123.8" style="fill:none;stroke:#000000;stroke-width:2.0px;stroke-linecap:butt;stroke-linejoin:miter;stroke-miterlimit:10;stroke-opacity:1;"/>
<path d="M 148.5,115.7 L 149.4,115.2 L 149.4,114.4" style="fill:none;stroke:#000000;stroke-width:2.0px;stroke-linecap:butt;stroke-linejoin:miter;stroke-miterlimit:10;stroke-opacity:1;"/>
<path d="M 114.6,152.4 L 113.9,152.8 L 113.1,152.3" style="fill:none;stroke:#000000;stroke-width:2.0px;stroke-linecap:butt;stroke-linejoin:miter;stroke-miterlimit:10;stroke-opacity:1;"/>
<path d="M 98.3,142.9 L 97.4,142.3 L 96.6,142.8" style="fill:none;stroke:#000000;stroke-width:2.0px;stroke-linecap:butt;stroke-linejoin:miter;stroke-miterlimit:10;stroke-opacity:1;"/>
<path d="M 81.0,150.9 L 80.1,151.4 L 79.4,151.0" style="fill:none;stroke:#000000;stroke-width:2.0px;stroke-linecap:butt;stroke-linejoin:miter;stroke-miterlimit:10;stroke-opacity:1;"/>
<path d="M 47.0,149.6 L 46.3,150.0 L 45.5,149.4" style="fill:none;stroke:#000000;stroke-width:2.0px;stroke-linecap:butt;stroke-linejoin:miter;stroke-miterlimit:10;stroke-opacity:1;"/>
<path d="M 30.6,140.0 L 29.8,139.5 L 28.9,139.9" style="fill:none;stroke:#000000;stroke-width:2.0px;stroke-linecap:butt;stroke-linejoin:miter;stroke-miterlimit:10;stroke-opacity:1;"/>
<path class="atom-0" d="M 233.5 147.9 Q 234.0 148.1, 234.3 148.4 Q 234.5 148.7, 234.5 149.2 Q 234.5 150.0, 234.0 150.4 Q 233.6 150.8, 232.6 150.8 L 230.8 150.8 L 230.8 145.3 L 232.4 145.3 Q 233.4 145.3, 233.8 145.7 Q 234.3 146.1, 234.3 146.8 Q 234.3 147.6, 233.5 147.9 M 231.5 145.9 L 231.5 147.7 L 232.4 147.7 Q 233.0 147.7, 233.2 147.4 Q 233.5 147.2, 233.5 146.8 Q 233.5 145.9, 232.4 145.9 L 231.5 145.9 M 232.6 150.2 Q 233.2 150.2, 233.5 149.9 Q 233.8 149.7, 233.8 149.2 Q 233.8 148.7, 233.4 148.5 Q 233.1 148.3, 232.5 148.3 L 231.5 148.3 L 231.5 150.2 L 232.6 150.2 " fill="#000000"/>
<path class="atom-0" d="M 235.8 146.8 L 235.9 147.4 Q 236.3 146.7, 237.0 146.7 Q 237.2 146.7, 237.5 146.8 L 237.4 147.5 Q 237.0 147.4, 236.9 147.4 Q 236.5 147.4, 236.3 147.5 Q 236.1 147.7, 235.9 148.0 L 235.9 150.8 L 235.2 150.8 L 235.2 146.8 L 235.8 146.8 " fill="#000000"/>
<path class="atom-6" d="M 130.0 141.0 L 131.8 143.9 Q 132.0 144.2, 132.3 144.8 Q 132.6 145.3, 132.6 145.3 L 132.6 141.0 L 133.3 141.0 L 133.3 146.5 L 132.6 146.5 L 130.6 143.3 Q 130.4 143.0, 130.2 142.5 Q 129.9 142.1, 129.9 142.0 L 129.9 146.5 L 129.1 146.5 L 129.1 141.0 L 130.0 141.0 " fill="#000000"/>
<path class="atom-6" d="M 129.1 134.9 L 129.8 134.9 L 129.8 137.3 L 132.6 137.3 L 132.6 134.9 L 133.4 134.9 L 133.4 140.5 L 132.6 140.5 L 132.6 137.9 L 129.8 137.9 L 129.8 140.5 L 129.1 140.5 L 129.1 134.9 " fill="#000000"/>
<path class="atom-6" d="M 134.5 135.9 L 135.4 135.9 L 135.4 134.9 L 135.9 134.9 L 135.9 135.9 L 136.9 135.9 L 136.9 136.3 L 135.9 136.3 L 135.9 137.3 L 135.4 137.3 L 135.4 136.3 L 134.5 136.3 L 134.5 135.9 " fill="#000000"/>
<path class="atom-9" d="M 147.7 95.7 Q 147.7 94.4, 148.3 93.6 Q 149.0 92.9, 150.2 92.9 Q 151.4 92.9, 152.1 93.6 Q 152.7 94.4, 152.7 95.7 Q 152.7 97.1, 152.1 97.8 Q 151.4 98.6, 150.2 98.6 Q 149.0 98.6, 148.3 97.8 Q 147.7 97.1, 147.7 95.7 M 150.2 98.0 Q 151.0 98.0, 151.5 97.4 Q 152.0 96.8, 152.0 95.7 Q 152.0 94.6, 151.5 94.1 Q 151.0 93.5, 150.2 93.5 Q 149.4 93.5, 148.9 94.1 Q 148.4 94.6, 148.4 95.7 Q 148.4 96.8, 148.9 97.4 Q 149.4 98.0, 150.2 98.0 " fill="#000000"/>
<path class="atom-9" d="M 153.6 93.0 L 154.3 93.0 L 154.3 95.3 L 157.2 95.3 L 157.2 93.0 L 157.9 93.0 L 157.9 98.5 L 157.2 98.5 L 157.2 95.9 L 154.3 95.9 L 154.3 98.5 L 153.6 98.5 L 153.6 93.0 " fill="#000000"/>
<path class="atom-13" d="M 62.4 138.2 L 64.2 141.1 Q 64.4 141.4, 64.7 141.9 Q 65.0 142.4, 65.0 142.5 L 65.0 138.2 L 65.7 138.2 L 65.7 143.7 L 65.0 143.7 L 63.0 140.5 Q 62.8 140.1, 62.5 139.7 Q 62.3 139.2, 62.2 139.1 L 62.2 143.7 L 61.5 143.7 L 61.5 138.2 L 62.4 138.2 " fill="#000000"/>
<path class="atom-13" d="M 61.5 132.1 L 62.2 132.1 L 62.2 134.4 L 65.0 134.4 L 65.0 132.1 L 65.8 132.1 L 65.8 137.6 L 65.0 137.6 L 65.0 135.0 L 62.2 135.0 L 62.2 137.6 L 61.5 137.6 L 61.5 132.1 " fill="#000000"/>
<path class="atom-13" d="M 66.8 133.1 L 67.8 133.1 L 67.8 132.0 L 68.3 132.0 L 68.3 133.1 L 69.3 133.1 L 69.3 133.4 L 68.3 133.4 L 68.3 134.5 L 67.8 134.5 L 67.8 133.4 L 66.8 133.4 L 66.8 133.1 " fill="#000000"/>
<path class="atom-13" d="M 64.0,131.5 L 64.0,131.5 L 64.0,131.5 L 64.0,131.6 L 64.0,131.6 L 64.0,131.6 L 64.0,131.6 L 63.9,131.7 L 63.9,131.7 L 63.9,131.7 L 63.9,131.7 L 63.8,131.8 L 63.8,131.8 L 63.8,131.8 L 63.8,131.8 L 63.7,131.8 L 63.7,131.8 L 63.7,131.8 L 63.6,131.8 L 63.6,131.8 L 63.6,131.8 L 63.5,131.8 L 63.5,131.8 L 63.5,131.8 L 63.4,131.8 L 63.4,131.8 L 63.4,131.8 L 63.4,131.7 L 63.3,131.7 L 63.3,131.7 L 63.3,131.7 L 63.3,131.6 L 63.3,131.6 L 63.2,131.6 L 63.2,131.5 L 63.2,131.5 L 63.2,131.5 L 63.2,131.4 L 63.2,131.4 L 63.2,131.4 L 63.2,131.3 L 63.3,131.3 L 63.3,131.3 L 63.3,131.2 L 63.3,131.2 L 63.3,131.2 L 63.4,131.2 L 63.4,131.1 L 63.4,131.1 L 63.4,131.1 L 63.5,131.1 L 63.5,131.1 L 63.5,131.1 L 63.6,131.1 L 63.6,131.1 L 63.6,131.1 L 63.7,131.1 L 63.7,131.1 L 63.7,131.1 L 63.8,131.1 L 63.8,131.1 L 63.8,131.1 L 63.8,131.1 L 63.9,131.2 L 63.9,131.2 L 63.9,131.2 L 63.9,131.2 L 64.0,131.3 L 64.0,131.3 L 64.0,131.3 L 64.0,131.4 L 64.0,131.4 L 64.0,131.4 L 64.0,131.5 L 63.6,131.5 Z" style="fill:#000000;fill-rule:evenodd;fill-opacity:1;stroke:#000000;stroke-width:0.0px;stroke-linecap:butt;stroke-linejoin:miter;stroke-miterlimit:10;stroke-opacity:1;"/>
<path class="bond-0 atom-0 atom-1" d="M 475.0,55.2 L 477.9,81.9" style="fill:none;fill-rule:evenodd;stroke:#000000;stroke-width:2.0px;stroke-linecap:butt;stroke-linejoin:miter;stroke-opacity:1"/>
<path class="bond-0 atom-0 atom-1" d="M 470.2,55.7 L 473.0,82.4" style="fill:none;fill-rule:evenodd;stroke:#000000;stroke-width:2.0px;stroke-linecap:butt;stroke-linejoin:miter;stroke-opacity:1"/>
<path class="bond-1 atom-1 atom-2" d="M 472.0,90.8 L 454.3,103.7" style="fill:none;fill-rule:evenodd;stroke:#000000;stroke-width:2.0px;stroke-linecap:butt;stroke-linejoin:miter;stroke-opacity:1"/>
<path class="bond-2 atom-2 atom-3" d="M 450.3,112.7 L 452.6,133.8" style="fill:none;fill-rule:evenodd;stroke:#000000;stroke-width:2.0px;stroke-linecap:butt;stroke-linejoin:miter;stroke-opacity:1"/>
<path class="bond-3 atom-3 atom-4" d="M 448.6,142.8 L 426.9,158.6" style="fill:none;fill-rule:evenodd;stroke:#000000;stroke-width:2.0px;stroke-linecap:butt;stroke-linejoin:miter;stroke-opacity:1"/>
<path class="bond-3 atom-3 atom-4" d="M 445.7,138.8 L 426.3,153.0" style="fill:none;fill-rule:evenodd;stroke:#000000;stroke-width:2.0px;stroke-linecap:butt;stroke-linejoin:miter;stroke-opacity:1"/>
<path class="bond-4 atom-4 atom-5" d="M 426.9,158.6 L 401.7,147.5" style="fill:none;fill-rule:evenodd;stroke:#000000;stroke-width:2.0px;stroke-linecap:butt;stroke-linejoin:miter;stroke-opacity:1"/>
<path class="bond-5 atom-5 atom-6" d="M 392.5,148.8 L 374.8,161.7" style="fill:none;fill-rule:evenodd;stroke:#000000;stroke-width:2.0px;stroke-linecap:butt;stroke-linejoin:miter;stroke-opacity:1"/>
<path class="bond-6 atom-6 atom-7" d="M 373.1,170.3 L 387.2,183.9" style="fill:none;fill-rule:evenodd;stroke:#000000;stroke-width:2.0px;stroke-linecap:butt;stroke-linejoin:miter;stroke-opacity:1"/>
<path class="bond-6 atom-6 atom-7" d="M 376.5,166.8 L 390.6,180.4" style="fill:none;fill-rule:evenodd;stroke:#000000;stroke-width:2.0px;stroke-linecap:butt;stroke-linejoin:miter;stroke-opacity:1"/>
<path class="bond-7 atom-6 atom-8" d="M 364.8,169.2 L 354.4,184.6" style="fill:none;fill-rule:evenodd;stroke:#000000;stroke-width:2.0px;stroke-linecap:butt;stroke-linejoin:miter;stroke-opacity:1"/>
<path class="bond-7 atom-6 atom-8" d="M 368.8,171.9 L 358.5,187.3" style="fill:none;fill-rule:evenodd;stroke:#000000;stroke-width:2.0px;stroke-linecap:butt;stroke-linejoin:miter;stroke-opacity:1"/>
<path class="bond-8 atom-6 atom-9" d="M 366.7,162.9 L 345.5,153.5" style="fill:none;fill-rule:evenodd;stroke:#000000;stroke-width:2.0px;stroke-linecap:butt;stroke-linejoin:miter;stroke-opacity:1"/>
<path class="bond-9 atom-9 atom-10" d="M 336.4,154.8 L 314.7,170.7" style="fill:none;fill-rule:evenodd;stroke:#000000;stroke-width:2.0px;stroke-linecap:butt;stroke-linejoin:miter;stroke-opacity:1"/>
<path class="bond-10 atom-9 atom-11" d="M 340.4,145.8 L 337.5,119.1" style="fill:none;fill-rule:evenodd;stroke:#000000;stroke-width:2.0px;stroke-linecap:butt;stroke-linejoin:miter;stroke-opacity:1"/>
<path class="bond-11 atom-11 atom-12" d="M 337.5,119.1 L 307.7,105.9" style="fill:none;fill-rule:evenodd;stroke:#000000;stroke-width:2.0px;stroke-linecap:butt;stroke-linejoin:miter;stroke-opacity:1"/>
<path class="bond-12 atom-12 atom-13" d="M 307.7,105.9 L 304.2,73.5" style="fill:none;fill-rule:evenodd;stroke:#000000;stroke-width:2.0px;stroke-linecap:butt;stroke-linejoin:miter;stroke-opacity:1"/>
<path class="bond-13 atom-13 atom-14" d="M 304.2,73.5 L 278.5,62.1" style="fill:none;fill-rule:evenodd;stroke:#000000;stroke-width:2.0px;stroke-linecap:butt;stroke-linejoin:miter;stroke-opacity:1"/>
<path class="bond-14 atom-5 atom-15" d="M 396.5,139.8 L 393.6,113.1" style="fill:none;fill-rule:evenodd;stroke:#000000;stroke-width:2.0px;stroke-linecap:butt;stroke-linejoin:miter;stroke-opacity:1"/>
<path class="bond-15 atom-15 atom-16" d="M 393.6,113.1 L 363.8,99.9" style="fill:none;fill-rule:evenodd;stroke:#000000;stroke-width:2.0px;stroke-linecap:butt;stroke-linejoin:miter;stroke-opacity:1"/>
<path class="bond-16 atom-16 atom-17" d="M 366.4,101.0 L 363.4,73.1" style="fill:none;fill-rule:evenodd;stroke:#000000;stroke-width:2.0px;stroke-linecap:butt;stroke-linejoin:miter;stroke-opacity:1"/>
<path class="bond-16 atom-16 atom-17" d="M 361.5,101.5 L 358.6,73.6" style="fill:none;fill-rule:evenodd;stroke:#000000;stroke-width:2.0px;stroke-linecap:butt;stroke-linejoin:miter;stroke-opacity:1"/>
<path class="bond-17 atom-16 atom-11" d="M 363.8,99.9 L 337.5,119.1" style="fill:none;fill-rule:evenodd;stroke:#000000;stroke-width:2.0px;stroke-linecap:butt;stroke-linejoin:miter;stroke-opacity:1"/>
<path d="M 428.0,157.9 L 426.9,158.6 L 425.6,158.1" style="fill:none;stroke:#000000;stroke-width:2.0px;stroke-linecap:butt;stroke-linejoin:miter;stroke-miterlimit:10;stroke-opacity:1;"/>
<path d="M 309.2,106.5 L 307.7,105.9 L 307.5,104.3" style="fill:none;stroke:#000000;stroke-width:2.0px;stroke-linecap:butt;stroke-linejoin:miter;stroke-miterlimit:10;stroke-opacity:1;"/>
<path d="M 304.4,75.1 L 304.2,73.5 L 302.9,72.9" style="fill:none;stroke:#000000;stroke-width:2.0px;stroke-linecap:butt;stroke-linejoin:miter;stroke-miterlimit:10;stroke-opacity:1;"/>
<path d="M 393.8,114.4 L 393.6,113.1 L 392.1,112.4" style="fill:none;stroke:#000000;stroke-width:2.0px;stroke-linecap:butt;stroke-linejoin:miter;stroke-miterlimit:10;stroke-opacity:1;"/>
<path d="M 365.3,100.5 L 363.8,99.9 L 362.5,100.8" style="fill:none;stroke:#000000;stroke-width:2.0px;stroke-linecap:butt;stroke-linejoin:miter;stroke-miterlimit:10;stroke-opacity:1;"/>
<path class="atom-1" d="M 473.4 91.0 Q 473.5 91.1, 474.0 91.2 Q 474.4 91.4, 474.9 91.5 Q 475.4 91.6, 475.8 91.6 Q 476.7 91.6, 477.2 91.2 Q 477.7 90.8, 477.7 90.1 Q 477.7 89.5, 477.5 89.2 Q 477.2 88.9, 476.8 88.7 Q 476.4 88.6, 475.8 88.4 Q 475.0 88.1, 474.5 87.9 Q 474.0 87.7, 473.6 87.2 Q 473.3 86.7, 473.3 85.8 Q 473.3 84.7, 474.1 84.0 Q 474.9 83.2, 476.4 83.2 Q 477.5 83.2, 478.7 83.8 L 478.4 84.8 Q 477.3 84.3, 476.5 84.3 Q 475.6 84.3, 475.1 84.7 Q 474.6 85.0, 474.6 85.7 Q 474.6 86.2, 474.8 86.5 Q 475.1 86.8, 475.5 86.9 Q 475.8 87.1, 476.5 87.3 Q 477.3 87.6, 477.8 87.8 Q 478.3 88.1, 478.6 88.6 Q 479.0 89.2, 479.0 90.1 Q 479.0 91.3, 478.1 92.0 Q 477.3 92.7, 475.9 92.7 Q 475.1 92.7, 474.4 92.5 Q 473.8 92.3, 473.1 92.0 L 473.4 91.0 " fill="#000000"/>
<path class="atom-1" d="M 480.3 83.2 L 481.5 83.2 L 481.5 87.1 L 486.2 87.1 L 486.2 83.2 L 487.5 83.2 L 487.5 92.4 L 486.2 92.4 L 486.2 88.2 L 481.5 88.2 L 481.5 92.4 L 480.3 92.4 L 480.3 83.2 " fill="#000000"/>
<path class="atom-2" d="M 437.2 102.4 L 438.4 102.4 L 438.4 106.4 L 443.2 106.4 L 443.2 102.4 L 444.4 102.4 L 444.4 111.7 L 443.2 111.7 L 443.2 107.4 L 438.4 107.4 L 438.4 111.7 L 437.2 111.7 L 437.2 102.4 " fill="#000000"/>
<path class="atom-2" d="M 447.7 102.4 L 450.7 107.3 Q 451.0 107.8, 451.5 108.7 Q 452.0 109.5, 452.0 109.6 L 452.0 102.4 L 453.2 102.4 L 453.2 111.7 L 452.0 111.7 L 448.7 106.3 Q 448.3 105.7, 447.9 105.0 Q 447.5 104.3, 447.4 104.0 L 447.4 111.7 L 446.2 111.7 L 446.2 102.4 L 447.7 102.4 " fill="#000000"/>
<path class="atom-3" d="M 451.2 134.8 L 454.2 139.7 Q 454.5 140.2, 455.0 141.1 Q 455.5 141.9, 455.5 142.0 L 455.5 134.8 L 456.7 134.8 L 456.7 144.1 L 455.4 144.1 L 452.2 138.7 Q 451.8 138.1, 451.4 137.4 Q 451.0 136.7, 450.9 136.4 L 450.9 144.1 L 449.7 144.1 L 449.7 134.8 L 451.2 134.8 " fill="#000000"/>
<path class="atom-5" d="M 395.0 140.8 L 398.1 145.7 Q 398.4 146.2, 398.9 147.1 Q 399.3 148.0, 399.4 148.0 L 399.4 140.8 L 400.6 140.8 L 400.6 150.1 L 399.3 150.1 L 396.1 144.7 Q 395.7 144.1, 395.3 143.4 Q 394.9 142.7, 394.8 142.4 L 394.8 150.1 L 393.6 150.1 L 393.6 140.8 L 395.0 140.8 " fill="#000000"/>
<path class="atom-6" d="M 368.2 167.8 Q 368.3 167.9, 368.7 168.0 Q 369.1 168.2, 369.6 168.3 Q 370.1 168.5, 370.5 168.5 Q 371.4 168.5, 371.9 168.0 Q 372.4 167.6, 372.4 166.9 Q 372.4 166.4, 372.2 166.0 Q 371.9 165.7, 371.5 165.6 Q 371.1 165.4, 370.5 165.2 Q 369.7 164.9, 369.2 164.7 Q 368.7 164.5, 368.3 164.0 Q 368.0 163.5, 368.0 162.7 Q 368.0 161.5, 368.8 160.8 Q 369.6 160.1, 371.1 160.1 Q 372.2 160.1, 373.4 160.6 L 373.1 161.6 Q 372.0 161.1, 371.2 161.1 Q 370.3 161.1, 369.8 161.5 Q 369.3 161.9, 369.3 162.5 Q 369.3 163.0, 369.6 163.3 Q 369.8 163.6, 370.2 163.8 Q 370.6 163.9, 371.2 164.1 Q 372.0 164.4, 372.5 164.6 Q 373.0 164.9, 373.4 165.4 Q 373.7 166.0, 373.7 166.9 Q 373.7 168.1, 372.9 168.8 Q 372.0 169.5, 370.6 169.5 Q 369.8 169.5, 369.1 169.3 Q 368.5 169.2, 367.8 168.9 L 368.2 167.8 " fill="#000000"/>
<path class="atom-7" d="M 390.0 187.3 Q 390.0 185.1, 391.1 183.8 Q 392.2 182.6, 394.3 182.6 Q 396.3 182.6, 397.4 183.8 Q 398.5 185.1, 398.5 187.3 Q 398.5 189.5, 397.4 190.8 Q 396.3 192.1, 394.3 192.1 Q 392.2 192.1, 391.1 190.8 Q 390.0 189.5, 390.0 187.3 M 394.3 191.0 Q 395.7 191.0, 396.4 190.1 Q 397.2 189.1, 397.2 187.3 Q 397.2 185.5, 396.4 184.5 Q 395.7 183.6, 394.3 183.6 Q 392.8 183.6, 392.1 184.5 Q 391.3 185.4, 391.3 187.3 Q 391.3 189.1, 392.1 190.1 Q 392.8 191.0, 394.3 191.0 " fill="#000000"/>
<path class="atom-8" d="M 348.4 191.7 Q 348.4 189.5, 349.5 188.3 Q 350.6 187.0, 352.6 187.0 Q 354.6 187.0, 355.7 188.3 Q 356.8 189.5, 356.8 191.7 Q 356.8 194.0, 355.7 195.3 Q 354.6 196.5, 352.6 196.5 Q 350.6 196.5, 349.5 195.3 Q 348.4 194.0, 348.4 191.7 M 352.6 195.5 Q 354.0 195.5, 354.8 194.5 Q 355.5 193.6, 355.5 191.7 Q 355.5 189.9, 354.8 189.0 Q 354.0 188.1, 352.6 188.1 Q 351.2 188.1, 350.4 189.0 Q 349.7 189.9, 349.7 191.7 Q 349.7 193.6, 350.4 194.5 Q 351.2 195.5, 352.6 195.5 " fill="#000000"/>
<path class="atom-9" d="M 338.9 146.9 L 342.0 151.7 Q 342.3 152.2, 342.7 153.1 Q 343.2 154.0, 343.2 154.0 L 343.2 146.9 L 344.5 146.9 L 344.5 156.1 L 343.2 156.1 L 340.0 150.7 Q 339.6 150.1, 339.2 149.4 Q 338.8 148.7, 338.7 148.5 L 338.7 156.1 L 337.5 156.1 L 337.5 146.9 L 338.9 146.9 " fill="#000000"/>
<path class="atom-14" d="M 262.5 55.7 L 263.8 55.7 L 263.8 59.6 L 268.5 59.6 L 268.5 55.7 L 269.7 55.7 L 269.7 64.9 L 268.5 64.9 L 268.5 60.6 L 263.8 60.6 L 263.8 64.9 L 262.5 64.9 L 262.5 55.7 " fill="#000000"/>
<path class="atom-14" d="M 271.8 63.5 Q 271.9 63.5, 272.4 63.7 Q 272.8 63.9, 273.3 64.0 Q 273.8 64.1, 274.2 64.1 Q 275.1 64.1, 275.6 63.7 Q 276.1 63.2, 276.1 62.5 Q 276.1 62.0, 275.9 61.7 Q 275.6 61.4, 275.2 61.2 Q 274.8 61.0, 274.2 60.8 Q 273.3 60.6, 272.9 60.4 Q 272.4 60.1, 272.0 59.6 Q 271.7 59.1, 271.7 58.3 Q 271.7 57.1, 272.5 56.4 Q 273.3 55.7, 274.8 55.7 Q 275.9 55.7, 277.1 56.2 L 276.8 57.2 Q 275.7 56.8, 274.9 56.8 Q 274.0 56.8, 273.5 57.1 Q 273.0 57.5, 273.0 58.1 Q 273.0 58.6, 273.2 58.9 Q 273.5 59.2, 273.9 59.4 Q 274.2 59.6, 274.9 59.8 Q 275.7 60.0, 276.2 60.3 Q 276.7 60.5, 277.0 61.1 Q 277.4 61.6, 277.4 62.5 Q 277.4 63.8, 276.5 64.5 Q 275.7 65.1, 274.3 65.1 Q 273.5 65.1, 272.8 65.0 Q 272.2 64.8, 271.5 64.5 L 271.8 63.5 " fill="#000000"/>
<path class="atom-17" d="M 356.1 67.5 Q 356.1 65.3, 357.2 64.0 Q 358.3 62.8, 360.4 62.8 Q 362.4 62.8, 363.5 64.0 Q 364.6 65.3, 364.6 67.5 Q 364.6 69.7, 363.5 71.0 Q 362.4 72.3, 360.4 72.3 Q 358.3 72.3, 357.2 71.0 Q 356.1 69.7, 356.1 67.5 M 360.4 71.2 Q 361.8 71.2, 362.5 70.3 Q 363.3 69.3, 363.3 67.5 Q 363.3 65.7, 362.5 64.8 Q 361.8 63.8, 360.4 63.8 Q 358.9 63.8, 358.2 64.8 Q 357.4 65.7, 357.4 67.5 Q 357.4 69.4, 358.2 70.3 Q 358.9 71.2, 360.4 71.2 " fill="#000000"/>
<path class="atom-0" d="M 477.1,56.7 L 477.1,56.8 L 477.1,56.9 L 477.1,56.9 L 477.1,57.0 L 477.1,57.0 L 477.1,57.1 L 477.0,57.1 L 477.0,57.2 L 477.0,57.2 L 476.9,57.2 L 476.9,57.3 L 476.8,57.3 L 476.8,57.3 L 476.7,57.4 L 476.7,57.4 L 476.6,57.4 L 476.6,57.4 L 476.5,57.4 L 476.4,57.4 L 476.4,57.4 L 476.3,57.4 L 476.3,57.4 L 476.2,57.3 L 476.2,57.3 L 476.1,57.3 L 476.1,57.3 L 476.0,57.2 L 476.0,57.2 L 476.0,57.1 L 475.9,57.1 L 475.9,57.0 L 475.9,57.0 L 475.9,56.9 L 475.9,56.9 L 475.8,56.8 L 475.8,56.8 L 475.8,56.7 L 475.8,56.7 L 475.9,56.6 L 475.9,56.5 L 475.9,56.5 L 475.9,56.4 L 475.9,56.4 L 476.0,56.3 L 476.0,56.3 L 476.0,56.3 L 476.1,56.2 L 476.1,56.2 L 476.2,56.2 L 476.2,56.1 L 476.3,56.1 L 476.3,56.1 L 476.4,56.1 L 476.4,56.1 L 476.5,56.1 L 476.6,56.1 L 476.6,56.1 L 476.7,56.1 L 476.7,56.1 L 476.8,56.2 L 476.8,56.2 L 476.9,56.2 L 476.9,56.2 L 477.0,56.3 L 477.0,56.3 L 477.0,56.4 L 477.1,56.4 L 477.1,56.5 L 477.1,56.5 L 477.1,56.6 L 477.1,56.6 L 477.1,56.7 L 477.1,56.7 L 476.5,56.7 Z" style="fill:#000000;fill-rule:evenodd;fill-opacity:1;stroke:#000000;stroke-width:0.0px;stroke-linecap:butt;stroke-linejoin:miter;stroke-miterlimit:10;stroke-opacity:1;"/>
<path class="atom-0" d="M 477.1,54.1 L 477.1,54.2 L 477.1,54.2 L 477.1,54.3 L 477.1,54.4 L 477.1,54.4 L 477.1,54.5 L 477.0,54.5 L 477.0,54.5 L 477.0,54.6 L 476.9,54.6 L 476.9,54.7 L 476.8,54.7 L 476.8,54.7 L 476.7,54.7 L 476.7,54.8 L 476.6,54.8 L 476.6,54.8 L 476.5,54.8 L 476.4,54.8 L 476.4,54.8 L 476.3,54.8 L 476.3,54.8 L 476.2,54.7 L 476.2,54.7 L 476.1,54.7 L 476.1,54.6 L 476.0,54.6 L 476.0,54.6 L 476.0,54.5 L 475.9,54.5 L 475.9,54.4 L 475.9,54.4 L 475.9,54.3 L 475.9,54.3 L 475.8,54.2 L 475.8,54.2 L 475.8,54.1 L 475.8,54.1 L 475.9,54.0 L 475.9,53.9 L 475.9,53.9 L 475.9,53.8 L 475.9,53.8 L 476.0,53.7 L 476.0,53.7 L 476.0,53.7 L 476.1,53.6 L 476.1,53.6 L 476.2,53.6 L 476.2,53.5 L 476.3,53.5 L 476.3,53.5 L 476.4,53.5 L 476.4,53.5 L 476.5,53.5 L 476.6,53.5 L 476.6,53.5 L 476.7,53.5 L 476.7,53.5 L 476.8,53.5 L 476.8,53.6 L 476.9,53.6 L 476.9,53.6 L 477.0,53.7 L 477.0,53.7 L 477.0,53.8 L 477.1,53.8 L 477.1,53.9 L 477.1,53.9 L 477.1,54.0 L 477.1,54.0 L 477.1,54.1 L 477.1,54.1 L 476.5,54.1 Z" style="fill:#000000;fill-rule:evenodd;fill-opacity:1;stroke:#000000;stroke-width:0.0px;stroke-linecap:butt;stroke-linejoin:miter;stroke-miterlimit:10;stroke-opacity:1;"/>
<path class="bond-0 atom-0 atom-1" d="M 717.2,124.8 L 557.4,124.8" style="fill:none;fill-rule:evenodd;stroke:#000000;stroke-width:2.0px;stroke-linecap:butt;stroke-linejoin:miter;stroke-opacity:1"/>
<path class="atom-0" d="M 723.0 110.6 L 726.8 110.6 L 726.8 139.0 L 723.0 139.0 L 723.0 110.6 " fill="#000000"/>
<path class="atom-1" d="M 523.2 125.8 Q 523.2 118.8, 526.5 115.1 Q 529.8 111.4, 536.1 111.4 Q 541.9 111.4, 545.0 115.5 L 542.4 117.6 Q 540.1 114.6, 536.1 114.6 Q 531.8 114.6, 529.5 117.5 Q 527.3 120.4, 527.3 125.8 Q 527.3 131.4, 529.6 134.3 Q 532.0 137.2, 536.5 137.2 Q 539.6 137.2, 543.3 135.3 L 544.4 138.3 Q 542.9 139.2, 540.7 139.8 Q 538.4 140.4, 536.0 140.4 Q 529.8 140.4, 526.5 136.6 Q 523.2 132.8, 523.2 125.8 " fill="#000000"/>
<path class="atom-1" d="M 547.9 109.6 L 551.6 109.6 L 551.6 140.0 L 547.9 140.0 L 547.9 109.6 " fill="#000000"/>
<path class="bond-0 atom-0 atom-1" d="M 219.6,353.8 L 171.9,378.0" style="fill:none;fill-rule:evenodd;stroke:#000000;stroke-width:2.0px;stroke-linecap:butt;stroke-linejoin:miter;stroke-opacity:1"/>
<path class="bond-1 atom-1 atom-2" d="M 171.9,378.0 L 152.5,436.9" style="fill:none;fill-rule:evenodd;stroke:#000000;stroke-width:2.0px;stroke-linecap:butt;stroke-linejoin:miter;stroke-opacity:1"/>
<path class="bond-2 atom-2 atom-3" d="M 152.5,436.9 L 102.2,420.4" style="fill:none;fill-rule:evenodd;stroke:#000000;stroke-width:2.0px;stroke-linecap:butt;stroke-linejoin:miter;stroke-opacity:1"/>
<path class="bond-3 atom-3 atom-4" d="M 84.9,417.6 L 31.5,417.4" style="fill:none;fill-rule:evenodd;stroke:#000000;stroke-width:2.0px;stroke-linecap:butt;stroke-linejoin:miter;stroke-opacity:1"/>
<path class="bond-4 atom-4 atom-5" d="M 31.5,417.4 L 12.5,358.4" style="fill:none;fill-rule:evenodd;stroke:#000000;stroke-width:2.0px;stroke-linecap:butt;stroke-linejoin:miter;stroke-opacity:1"/>
<path class="bond-5 atom-5 atom-6" d="M 12.5,358.4 L 62.8,322.0" style="fill:none;fill-rule:evenodd;stroke:#000000;stroke-width:2.0px;stroke-linecap:butt;stroke-linejoin:miter;stroke-opacity:1"/>
<path class="bond-6 atom-6 atom-7" d="M 62.8,322.0 L 112.9,358.6" style="fill:none;fill-rule:evenodd;stroke:#000000;stroke-width:2.0px;stroke-linecap:butt;stroke-linejoin:miter;stroke-opacity:1"/>
<path class="bond-7 atom-7 atom-1" d="M 112.9,358.6 L 171.9,378.0" style="fill:none;fill-rule:evenodd;stroke:#000000;stroke-width:2.0px;stroke-linecap:butt;stroke-linejoin:miter;stroke-opacity:1"/>
<path class="bond-8 atom-7 atom-3" d="M 112.9,358.6 L 97.1,406.8" style="fill:none;fill-rule:evenodd;stroke:#000000;stroke-width:2.0px;stroke-linecap:butt;stroke-linejoin:miter;stroke-opacity:1"/>
<path class="bond-9 atom-7 atom-8" d="M 113.9,355.4 L 114.9,355.9" style="fill:none;fill-rule:evenodd;stroke:#000000;stroke-width:1.0px;stroke-linecap:butt;stroke-linejoin:miter;stroke-opacity:1"/>
<path class="bond-9 atom-7 atom-8" d="M 115.0,352.1 L 117.0,353.1" style="fill:none;fill-rule:evenodd;stroke:#000000;stroke-width:1.0px;stroke-linecap:butt;stroke-linejoin:miter;stroke-opacity:1"/>
<path class="bond-9 atom-7 atom-8" d="M 116.0,348.9 L 119.0,350.4" style="fill:none;fill-rule:evenodd;stroke:#000000;stroke-width:1.0px;stroke-linecap:butt;stroke-linejoin:miter;stroke-opacity:1"/>
<path class="bond-9 atom-7 atom-8" d="M 117.1,345.6 L 121.1,347.6" style="fill:none;fill-rule:evenodd;stroke:#000000;stroke-width:1.0px;stroke-linecap:butt;stroke-linejoin:miter;stroke-opacity:1"/>
<path class="bond-9 atom-7 atom-8" d="M 118.1,342.3 L 123.1,344.9" style="fill:none;fill-rule:evenodd;stroke:#000000;stroke-width:1.0px;stroke-linecap:butt;stroke-linejoin:miter;stroke-opacity:1"/>
<path class="bond-9 atom-7 atom-8" d="M 119.2,339.1 L 125.2,342.1" style="fill:none;fill-rule:evenodd;stroke:#000000;stroke-width:1.0px;stroke-linecap:butt;stroke-linejoin:miter;stroke-opacity:1"/>
<path class="bond-9 atom-7 atom-8" d="M 120.2,335.8 L 127.2,339.4" style="fill:none;fill-rule:evenodd;stroke:#000000;stroke-width:1.0px;stroke-linecap:butt;stroke-linejoin:miter;stroke-opacity:1"/>
<path class="bond-9 atom-7 atom-8" d="M 121.2,332.5 L 129.3,336.6" style="fill:none;fill-rule:evenodd;stroke:#000000;stroke-width:1.0px;stroke-linecap:butt;stroke-linejoin:miter;stroke-opacity:1"/>
<path d="M 153.5,434.0 L 152.5,436.9 L 150.0,436.1" style="fill:none;stroke:#000000;stroke-width:2.0px;stroke-linecap:butt;stroke-linejoin:miter;stroke-miterlimit:10;stroke-opacity:1;"/>
<path d="M 34.2,417.4 L 31.5,417.4 L 30.6,414.5" style="fill:none;stroke:#000000;stroke-width:2.0px;stroke-linecap:butt;stroke-linejoin:miter;stroke-miterlimit:10;stroke-opacity:1;"/>
<path d="M 13.5,361.3 L 12.5,358.4 L 15.0,356.6" style="fill:none;stroke:#000000;stroke-width:2.0px;stroke-linecap:butt;stroke-linejoin:miter;stroke-miterlimit:10;stroke-opacity:1;"/>
<path d="M 60.3,323.9 L 62.8,322.0 L 65.3,323.9" style="fill:none;stroke:#000000;stroke-width:2.0px;stroke-linecap:butt;stroke-linejoin:miter;stroke-miterlimit:10;stroke-opacity:1;"/>
<path class="atom-0" d="M 226.8 341.2 Q 229.8 341.2, 231.3 342.5 Q 232.8 343.9, 232.8 346.3 Q 232.8 348.8, 231.3 350.2 Q 229.7 351.5, 226.8 351.5 L 224.0 351.5 L 224.0 358.8 L 221.6 358.8 L 221.6 341.2 L 226.8 341.2 M 226.8 349.5 Q 228.5 349.5, 229.4 348.7 Q 230.4 347.9, 230.4 346.3 Q 230.4 344.8, 229.4 344.0 Q 228.6 343.2, 226.8 343.2 L 224.0 343.2 L 224.0 349.5 L 226.8 349.5 " fill="#000000"/>
<path class="atom-3" d="M 89.7 408.8 L 95.4 418.1 Q 96.0 419.1, 96.9 420.7 Q 97.8 422.4, 97.9 422.5 L 97.9 408.8 L 100.2 408.8 L 100.2 426.4 L 97.8 426.4 L 91.6 416.2 Q 90.9 415.0, 90.2 413.7 Q 89.4 412.3, 89.2 411.9 L 89.2 426.4 L 86.9 426.4 L 86.9 408.8 L 89.7 408.8 " fill="#000000"/>
<path class="atom-8" d="M 124.9 313.1 L 127.3 313.1 L 127.3 320.5 L 136.3 320.5 L 136.3 313.1 L 138.7 313.1 L 138.7 330.6 L 136.3 330.6 L 136.3 322.5 L 127.3 322.5 L 127.3 330.6 L 124.9 330.6 L 124.9 313.1 " fill="#000000"/>
<path class="atom-0" d="M 237.8,352.4 L 237.8,352.6 L 237.8,352.7 L 237.8,352.8 L 237.7,352.9 L 237.7,353.0 L 237.6,353.1 L 237.6,353.1 L 237.5,353.2 L 237.5,353.3 L 237.4,353.4 L 237.3,353.5 L 237.2,353.5 L 237.1,353.6 L 237.0,353.6 L 236.9,353.6 L 236.8,353.7 L 236.7,353.7 L 236.6,353.7 L 236.5,353.7 L 236.4,353.7 L 236.3,353.7 L 236.2,353.6 L 236.1,353.6 L 236.0,353.5 L 235.9,353.5 L 235.8,353.4 L 235.7,353.4 L 235.6,353.3 L 235.6,353.2 L 235.5,353.1 L 235.5,353.0 L 235.4,352.9 L 235.4,352.8 L 235.4,352.7 L 235.3,352.6 L 235.3,352.5 L 235.3,352.4 L 235.3,352.3 L 235.4,352.2 L 235.4,352.1 L 235.4,352.0 L 235.5,351.9 L 235.5,351.8 L 235.6,351.7 L 235.6,351.6 L 235.7,351.5 L 235.8,351.5 L 235.9,351.4 L 236.0,351.4 L 236.1,351.3 L 236.2,351.3 L 236.3,351.2 L 236.4,351.2 L 236.5,351.2 L 236.6,351.2 L 236.7,351.2 L 236.8,351.2 L 236.9,351.3 L 237.0,351.3 L 237.1,351.3 L 237.2,351.4 L 237.3,351.4 L 237.4,351.5 L 237.5,351.6 L 237.5,351.7 L 237.6,351.7 L 237.6,351.8 L 237.7,351.9 L 237.7,352.0 L 237.8,352.1 L 237.8,352.2 L 237.8,352.3 L 237.8,352.4 L 236.6,352.4 Z" style="fill:#000000;fill-rule:evenodd;fill-opacity:1;stroke:#000000;stroke-width:0.0px;stroke-linecap:butt;stroke-linejoin:miter;stroke-miterlimit:10;stroke-opacity:1;"/>
<path class="atom-0" d="M 237.8,347.5 L 237.8,347.6 L 237.8,347.7 L 237.8,347.8 L 237.7,347.9 L 237.7,348.0 L 237.6,348.1 L 237.6,348.2 L 237.5,348.3 L 237.5,348.3 L 237.4,348.4 L 237.3,348.5 L 237.2,348.5 L 237.1,348.6 L 237.0,348.6 L 236.9,348.7 L 236.8,348.7 L 236.7,348.7 L 236.6,348.7 L 236.5,348.7 L 236.4,348.7 L 236.3,348.7 L 236.2,348.7 L 236.1,348.6 L 236.0,348.6 L 235.9,348.5 L 235.8,348.5 L 235.7,348.4 L 235.6,348.3 L 235.6,348.2 L 235.5,348.1 L 235.5,348.0 L 235.4,348.0 L 235.4,347.8 L 235.4,347.7 L 235.3,347.6 L 235.3,347.5 L 235.3,347.4 L 235.3,347.3 L 235.4,347.2 L 235.4,347.1 L 235.4,347.0 L 235.5,346.9 L 235.5,346.8 L 235.6,346.7 L 235.6,346.7 L 235.7,346.6 L 235.8,346.5 L 235.9,346.4 L 236.0,346.4 L 236.1,346.3 L 236.2,346.3 L 236.3,346.3 L 236.4,346.3 L 236.5,346.2 L 236.6,346.2 L 236.7,346.2 L 236.8,346.3 L 236.9,346.3 L 237.0,346.3 L 237.1,346.4 L 237.2,346.4 L 237.3,346.5 L 237.4,346.5 L 237.5,346.6 L 237.5,346.7 L 237.6,346.8 L 237.6,346.9 L 237.7,347.0 L 237.7,347.1 L 237.8,347.2 L 237.8,347.3 L 237.8,347.4 L 237.8,347.5 L 236.6,347.5 Z" style="fill:#000000;fill-rule:evenodd;fill-opacity:1;stroke:#000000;stroke-width:0.0px;stroke-linecap:butt;stroke-linejoin:miter;stroke-miterlimit:10;stroke-opacity:1;"/>
<path class="bond-0 atom-0 atom-1" d="M 270.5,374.8 L 444.8,374.8" style="fill:none;fill-rule:evenodd;stroke:#000000;stroke-width:2.0px;stroke-linecap:butt;stroke-linejoin:miter;stroke-opacity:1"/>
<path class="atom-1" d="M 451.1 375.8 Q 451.1 368.8, 454.4 365.1 Q 457.7 361.4, 464.0 361.4 Q 469.8 361.4, 472.9 365.5 L 470.3 367.6 Q 468.0 364.6, 464.0 364.6 Q 459.7 364.6, 457.4 367.5 Q 455.2 370.4, 455.2 375.8 Q 455.2 381.4, 457.5 384.3 Q 459.9 387.2, 464.4 387.2 Q 467.5 387.2, 471.2 385.3 L 472.3 388.3 Q 470.8 389.2, 468.6 389.8 Q 466.3 390.4, 463.9 390.4 Q 457.7 390.4, 454.4 386.6 Q 451.1 382.8, 451.1 375.8 " fill="#000000"/>
<path class="atom-1" d="M 475.8 359.6 L 479.5 359.6 L 479.5 390.0 L 475.8 390.0 L 475.8 359.6 " fill="#000000"/>
<path class="bond-0 atom-0 atom-1" d="M 568.5,440.3 L 579.4,417.5" style="fill:none;fill-rule:evenodd;stroke:#000000;stroke-width:2.0px;stroke-linecap:butt;stroke-linejoin:miter;stroke-opacity:1"/>
<path class="bond-0 atom-0 atom-1" d="M 572.7,442.3 L 582.5,422.0" style="fill:none;fill-rule:evenodd;stroke:#000000;stroke-width:2.0px;stroke-linecap:butt;stroke-linejoin:miter;stroke-opacity:1"/>
<path class="bond-1 atom-1 atom-2" d="M 579.4,417.5 L 610.7,415.0" style="fill:none;fill-rule:evenodd;stroke:#000000;stroke-width:2.0px;stroke-linecap:butt;stroke-linejoin:miter;stroke-opacity:1"/>
<path class="bond-2 atom-2 atom-3" d="M 610.7,415.0 L 624.7,435.4" style="fill:none;fill-rule:evenodd;stroke:#000000;stroke-width:2.0px;stroke-linecap:butt;stroke-linejoin:miter;stroke-opacity:1"/>
<path class="bond-3 atom-2 atom-4" d="M 610.7,415.0 L 624.3,386.7" style="fill:none;fill-rule:evenodd;stroke:#000000;stroke-width:2.0px;stroke-linecap:butt;stroke-linejoin:miter;stroke-opacity:1"/>
<path class="bond-3 atom-2 atom-4" d="M 607.7,410.5 L 618.9,387.1" style="fill:none;fill-rule:evenodd;stroke:#000000;stroke-width:2.0px;stroke-linecap:butt;stroke-linejoin:miter;stroke-opacity:1"/>
<path class="bond-4 atom-4 atom-5" d="M 624.3,386.7 L 606.5,360.8" style="fill:none;fill-rule:evenodd;stroke:#000000;stroke-width:2.0px;stroke-linecap:butt;stroke-linejoin:miter;stroke-opacity:1"/>
<path class="bond-5 atom-5 atom-6" d="M 606.5,360.8 L 575.2,363.2" style="fill:none;fill-rule:evenodd;stroke:#000000;stroke-width:2.0px;stroke-linecap:butt;stroke-linejoin:miter;stroke-opacity:1"/>
<path class="bond-6 atom-6 atom-7" d="M 575.2,363.2 L 557.4,337.3" style="fill:none;fill-rule:evenodd;stroke:#000000;stroke-width:2.0px;stroke-linecap:butt;stroke-linejoin:miter;stroke-opacity:1"/>
<path class="bond-6 atom-6 atom-7" d="M 569.7,363.6 L 555.0,342.2" style="fill:none;fill-rule:evenodd;stroke:#000000;stroke-width:2.0px;stroke-linecap:butt;stroke-linejoin:miter;stroke-opacity:1"/>
<path class="bond-7 atom-7 atom-8" d="M 557.4,337.3 L 526.1,339.7" style="fill:none;fill-rule:evenodd;stroke:#000000;stroke-width:2.0px;stroke-linecap:butt;stroke-linejoin:miter;stroke-opacity:1"/>
<path class="bond-8 atom-8 atom-9" d="M 526.1,339.7 L 512.5,368.1" style="fill:none;fill-rule:evenodd;stroke:#000000;stroke-width:2.0px;stroke-linecap:butt;stroke-linejoin:miter;stroke-opacity:1"/>
<path class="bond-8 atom-8 atom-9" d="M 529.1,344.2 L 517.9,367.7" style="fill:none;fill-rule:evenodd;stroke:#000000;stroke-width:2.0px;stroke-linecap:butt;stroke-linejoin:miter;stroke-opacity:1"/>
<path class="bond-9 atom-9 atom-10" d="M 512.5,368.1 L 530.3,394.0" style="fill:none;fill-rule:evenodd;stroke:#000000;stroke-width:2.0px;stroke-linecap:butt;stroke-linejoin:miter;stroke-opacity:1"/>
<path class="bond-10 atom-10 atom-11" d="M 530.3,394.0 L 561.6,391.6" style="fill:none;fill-rule:evenodd;stroke:#000000;stroke-width:2.0px;stroke-linecap:butt;stroke-linejoin:miter;stroke-opacity:1"/>
<path class="bond-10 atom-10 atom-11" d="M 532.6,389.1 L 558.5,387.1" style="fill:none;fill-rule:evenodd;stroke:#000000;stroke-width:2.0px;stroke-linecap:butt;stroke-linejoin:miter;stroke-opacity:1"/>
<path class="bond-11 atom-4 atom-12" d="M 624.3,386.7 L 655.6,384.2" style="fill:none;fill-rule:evenodd;stroke:#000000;stroke-width:2.0px;stroke-linecap:butt;stroke-linejoin:miter;stroke-opacity:1"/>
<path class="bond-12 atom-12 atom-13" d="M 655.6,384.2 L 669.9,412.2" style="fill:none;fill-rule:evenodd;stroke:#000000;stroke-width:2.0px;stroke-linecap:butt;stroke-linejoin:miter;stroke-opacity:1"/>
<path class="bond-13 atom-13 atom-14" d="M 669.9,412.2 L 699.7,422.0" style="fill:none;fill-rule:evenodd;stroke:#000000;stroke-width:2.0px;stroke-linecap:butt;stroke-linejoin:miter;stroke-opacity:1"/>
<path class="bond-14 atom-14 atom-15" d="M 699.7,422.0 L 727.8,407.7" style="fill:none;fill-rule:evenodd;stroke:#000000;stroke-width:2.0px;stroke-linecap:butt;stroke-linejoin:miter;stroke-opacity:1"/>
<path class="bond-15 atom-15 atom-16" d="M 727.8,407.7 L 737.5,377.9" style="fill:none;fill-rule:evenodd;stroke:#000000;stroke-width:2.0px;stroke-linecap:butt;stroke-linejoin:miter;stroke-opacity:1"/>
<path class="bond-16 atom-16 atom-17" d="M 737.5,377.9 L 726.2,355.6" style="fill:none;fill-rule:evenodd;stroke:#000000;stroke-width:2.0px;stroke-linecap:butt;stroke-linejoin:miter;stroke-opacity:1"/>
<path class="bond-17 atom-17 atom-18" d="M 719.4,348.6 L 693.4,340.1" style="fill:none;fill-rule:evenodd;stroke:#000000;stroke-width:2.0px;stroke-linecap:butt;stroke-linejoin:miter;stroke-opacity:1"/>
<path class="bond-18 atom-18 atom-19" d="M 693.4,340.1 L 665.4,354.3" style="fill:none;fill-rule:evenodd;stroke:#000000;stroke-width:2.0px;stroke-linecap:butt;stroke-linejoin:miter;stroke-opacity:1"/>
<path class="bond-19 atom-19 atom-20" d="M 665.4,354.3 L 645.9,337.7" style="fill:none;fill-rule:evenodd;stroke:#000000;stroke-width:2.0px;stroke-linecap:butt;stroke-linejoin:miter;stroke-opacity:1"/>
<path class="bond-20 atom-20 atom-21" d="M 636.3,333.3 L 616.2,340.4" style="fill:none;fill-rule:evenodd;stroke:#000000;stroke-width:2.0px;stroke-linecap:butt;stroke-linejoin:miter;stroke-opacity:1"/>
<path class="bond-20 atom-20 atom-21" d="M 637.8,337.7 L 617.7,344.8" style="fill:none;fill-rule:evenodd;stroke:#000000;stroke-width:2.0px;stroke-linecap:butt;stroke-linejoin:miter;stroke-opacity:1"/>
<path class="bond-21 atom-20 atom-22" d="M 642.5,328.4 L 646.2,308.7" style="fill:none;fill-rule:evenodd;stroke:#000000;stroke-width:2.0px;stroke-linecap:butt;stroke-linejoin:miter;stroke-opacity:1"/>
<path class="bond-22 atom-11 atom-6" d="M 561.6,391.6 L 575.2,363.2" style="fill:none;fill-rule:evenodd;stroke:#000000;stroke-width:2.0px;stroke-linecap:butt;stroke-linejoin:miter;stroke-opacity:1"/>
<path class="bond-23 atom-19 atom-12" d="M 665.4,354.3 L 655.6,384.2" style="fill:none;fill-rule:evenodd;stroke:#000000;stroke-width:2.0px;stroke-linecap:butt;stroke-linejoin:miter;stroke-opacity:1"/>
<path d="M 578.9,418.6 L 579.4,417.5 L 581.0,417.3" style="fill:none;stroke:#000000;stroke-width:2.0px;stroke-linecap:butt;stroke-linejoin:miter;stroke-miterlimit:10;stroke-opacity:1;"/>
<path d="M 607.4,362.1 L 606.5,360.8 L 604.9,360.9" style="fill:none;stroke:#000000;stroke-width:2.0px;stroke-linecap:butt;stroke-linejoin:miter;stroke-miterlimit:10;stroke-opacity:1;"/>
<path d="M 558.3,338.6 L 557.4,337.3 L 555.8,337.4" style="fill:none;stroke:#000000;stroke-width:2.0px;stroke-linecap:butt;stroke-linejoin:miter;stroke-miterlimit:10;stroke-opacity:1;"/>
<path d="M 527.6,339.6 L 526.1,339.7 L 525.4,341.1" style="fill:none;stroke:#000000;stroke-width:2.0px;stroke-linecap:butt;stroke-linejoin:miter;stroke-miterlimit:10;stroke-opacity:1;"/>
<path d="M 513.2,366.7 L 512.5,368.1 L 513.4,369.4" style="fill:none;stroke:#000000;stroke-width:2.0px;stroke-linecap:butt;stroke-linejoin:miter;stroke-miterlimit:10;stroke-opacity:1;"/>
<path d="M 529.4,392.7 L 530.3,394.0 L 531.8,393.9" style="fill:none;stroke:#000000;stroke-width:2.0px;stroke-linecap:butt;stroke-linejoin:miter;stroke-miterlimit:10;stroke-opacity:1;"/>
<path d="M 560.0,391.7 L 561.6,391.6 L 562.3,390.1" style="fill:none;stroke:#000000;stroke-width:2.0px;stroke-linecap:butt;stroke-linejoin:miter;stroke-miterlimit:10;stroke-opacity:1;"/>
<path d="M 669.2,410.8 L 669.9,412.2 L 671.4,412.7" style="fill:none;stroke:#000000;stroke-width:2.0px;stroke-linecap:butt;stroke-linejoin:miter;stroke-miterlimit:10;stroke-opacity:1;"/>
<path d="M 698.3,421.5 L 699.7,422.0 L 701.2,421.3" style="fill:none;stroke:#000000;stroke-width:2.0px;stroke-linecap:butt;stroke-linejoin:miter;stroke-miterlimit:10;stroke-opacity:1;"/>
<path d="M 726.4,408.4 L 727.8,407.7 L 728.3,406.2" style="fill:none;stroke:#000000;stroke-width:2.0px;stroke-linecap:butt;stroke-linejoin:miter;stroke-miterlimit:10;stroke-opacity:1;"/>
<path d="M 737.0,379.3 L 737.5,377.9 L 736.9,376.7" style="fill:none;stroke:#000000;stroke-width:2.0px;stroke-linecap:butt;stroke-linejoin:miter;stroke-miterlimit:10;stroke-opacity:1;"/>
<path d="M 694.7,340.5 L 693.4,340.1 L 692.0,340.8" style="fill:none;stroke:#000000;stroke-width:2.0px;stroke-linecap:butt;stroke-linejoin:miter;stroke-miterlimit:10;stroke-opacity:1;"/>
<path class="atom-0" d="M 563.9 446.9 Q 563.9 444.7, 564.9 443.5 Q 566.0 442.3, 568.0 442.3 Q 569.9 442.3, 571.0 443.5 Q 572.1 444.7, 572.1 446.9 Q 572.1 449.0, 571.0 450.3 Q 569.9 451.5, 568.0 451.5 Q 566.0 451.5, 564.9 450.3 Q 563.9 449.0, 563.9 446.9 M 568.0 450.5 Q 569.3 450.5, 570.1 449.6 Q 570.8 448.7, 570.8 446.9 Q 570.8 445.1, 570.1 444.2 Q 569.3 443.3, 568.0 443.3 Q 566.6 443.3, 565.9 444.2 Q 565.1 445.1, 565.1 446.9 Q 565.1 448.7, 565.9 449.6 Q 566.6 450.5, 568.0 450.5 " fill="#000000"/>
<path class="atom-3" d="M 624.4 441.0 Q 624.4 438.8, 625.5 437.6 Q 626.5 436.4, 628.5 436.4 Q 630.5 436.4, 631.5 437.6 Q 632.6 438.8, 632.6 441.0 Q 632.6 443.1, 631.5 444.4 Q 630.5 445.6, 628.5 445.6 Q 626.6 445.6, 625.5 444.4 Q 624.4 443.1, 624.4 441.0 M 628.5 444.6 Q 629.9 444.6, 630.6 443.7 Q 631.3 442.8, 631.3 441.0 Q 631.3 439.2, 630.6 438.3 Q 629.9 437.4, 628.5 437.4 Q 627.2 437.4, 626.4 438.3 Q 625.7 439.2, 625.7 441.0 Q 625.7 442.8, 626.4 443.7 Q 627.2 444.6, 628.5 444.6 " fill="#000000"/>
<path class="atom-3" d="M 634.0 436.5 L 635.2 436.5 L 635.2 440.3 L 639.7 440.3 L 639.7 436.5 L 640.9 436.5 L 640.9 445.4 L 639.7 445.4 L 639.7 441.3 L 635.2 441.3 L 635.2 445.4 L 634.0 445.4 L 634.0 436.5 " fill="#000000"/>
<path class="atom-17" d="M 720.7 352.9 Q 720.8 352.9, 721.3 353.1 Q 721.7 353.3, 722.1 353.4 Q 722.6 353.5, 723.0 353.5 Q 723.9 353.5, 724.4 353.1 Q 724.9 352.7, 724.9 352.0 Q 724.9 351.5, 724.6 351.2 Q 724.4 350.9, 724.0 350.7 Q 723.6 350.5, 723.0 350.4 Q 722.2 350.1, 721.7 349.9 Q 721.3 349.7, 720.9 349.2 Q 720.6 348.7, 720.6 347.9 Q 720.6 346.8, 721.3 346.1 Q 722.1 345.4, 723.6 345.4 Q 724.6 345.4, 725.8 345.9 L 725.5 346.9 Q 724.5 346.4, 723.7 346.4 Q 722.8 346.4, 722.3 346.8 Q 721.8 347.1, 721.8 347.7 Q 721.8 348.2, 722.1 348.5 Q 722.3 348.8, 722.7 349.0 Q 723.1 349.1, 723.7 349.3 Q 724.5 349.6, 724.9 349.8 Q 725.4 350.1, 725.8 350.6 Q 726.1 351.1, 726.1 352.0 Q 726.1 353.2, 725.3 353.9 Q 724.5 354.5, 723.1 354.5 Q 722.3 354.5, 721.7 354.3 Q 721.1 354.2, 720.4 353.9 L 720.7 352.9 " fill="#000000"/>
<path class="atom-20" d="M 639.5 329.5 L 642.4 334.2 Q 642.7 334.6, 643.2 335.5 Q 643.6 336.3, 643.7 336.4 L 643.7 329.5 L 644.8 329.5 L 644.8 338.4 L 643.6 338.4 L 640.5 333.2 Q 640.1 332.6, 639.7 331.9 Q 639.4 331.2, 639.3 331.0 L 639.3 338.4 L 638.1 338.4 L 638.1 329.5 L 639.5 329.5 " fill="#000000"/>
<path class="atom-20" d="M 646.5 331.1 L 648.1 331.1 L 648.1 329.4 L 648.8 329.4 L 648.8 331.1 L 650.4 331.1 L 650.4 331.7 L 648.8 331.7 L 648.8 333.3 L 648.1 333.3 L 648.1 331.7 L 646.5 331.7 L 646.5 331.1 " fill="#000000"/>
<path class="atom-21" d="M 607.8 344.4 Q 607.8 342.3, 608.8 341.1 Q 609.9 339.9, 611.8 339.9 Q 613.8 339.9, 614.9 341.1 Q 615.9 342.3, 615.9 344.4 Q 615.9 346.6, 614.9 347.8 Q 613.8 349.0, 611.8 349.0 Q 609.9 349.0, 608.8 347.8 Q 607.8 346.6, 607.8 344.4 M 611.8 348.0 Q 613.2 348.0, 613.9 347.1 Q 614.7 346.2, 614.7 344.4 Q 614.7 342.7, 613.9 341.8 Q 613.2 340.9, 611.8 340.9 Q 610.5 340.9, 609.7 341.8 Q 609.0 342.6, 609.0 344.4 Q 609.0 346.2, 609.7 347.1 Q 610.5 348.0, 611.8 348.0 " fill="#000000"/>
<path class="atom-22" d="M 643.1 303.0 Q 643.1 300.9, 644.2 299.7 Q 645.2 298.5, 647.2 298.5 Q 649.2 298.5, 650.3 299.7 Q 651.3 300.9, 651.3 303.0 Q 651.3 305.2, 650.2 306.4 Q 649.2 307.7, 647.2 307.7 Q 645.3 307.7, 644.2 306.4 Q 643.1 305.2, 643.1 303.0 M 647.2 306.7 Q 648.6 306.7, 649.3 305.7 Q 650.1 304.8, 650.1 303.0 Q 650.1 301.3, 649.3 300.4 Q 648.6 299.5, 647.2 299.5 Q 645.9 299.5, 645.1 300.4 Q 644.4 301.3, 644.4 303.0 Q 644.4 304.8, 645.1 305.7 Q 645.9 306.7, 647.2 306.7 " fill="#000000"/>
<path class="atom-22" d="M 652.6 300.0 L 655.6 300.0 L 655.6 300.6 L 652.6 300.6 L 652.6 300.0 " fill="#000000"/>
<path class="bond-0 atom-0 atom-1" d="M 85.2,583.3 L 99.4,558.5" style="fill:none;fill-rule:evenodd;stroke:#000000;stroke-width:2.0px;stroke-linecap:butt;stroke-linejoin:miter;stroke-opacity:1"/>
<path class="bond-1 atom-1 atom-2" d="M 99.4,558.5 L 134.7,553.2" style="fill:none;fill-rule:evenodd;stroke:#000000;stroke-width:2.0px;stroke-linecap:butt;stroke-linejoin:miter;stroke-opacity:1"/>
<path class="bond-2 atom-2 atom-3" d="M 136.9,555.2 L 145.8,526.3" style="fill:none;fill-rule:evenodd;stroke:#000000;stroke-width:2.0px;stroke-linecap:butt;stroke-linejoin:miter;stroke-opacity:1"/>
<path class="bond-2 atom-2 atom-3" d="M 131.7,553.6 L 140.6,524.7" style="fill:none;fill-rule:evenodd;stroke:#000000;stroke-width:2.0px;stroke-linecap:butt;stroke-linejoin:miter;stroke-opacity:1"/>
<path class="bond-3 atom-2 atom-4" d="M 134.7,553.2 L 160.9,577.4" style="fill:none;fill-rule:evenodd;stroke:#000000;stroke-width:2.0px;stroke-linecap:butt;stroke-linejoin:miter;stroke-opacity:1"/>
<path class="bond-4 atom-4 atom-5" d="M 160.9,577.4 L 158.3,613.0" style="fill:none;fill-rule:evenodd;stroke:#000000;stroke-width:2.0px;stroke-linecap:butt;stroke-linejoin:miter;stroke-opacity:1"/>
<path class="bond-4 atom-4 atom-5" d="M 155.3,579.6 L 153.1,610.0" style="fill:none;fill-rule:evenodd;stroke:#000000;stroke-width:2.0px;stroke-linecap:butt;stroke-linejoin:miter;stroke-opacity:1"/>
<path class="bond-5 atom-5 atom-6" d="M 158.3,613.0 L 128.8,633.2" style="fill:none;fill-rule:evenodd;stroke:#000000;stroke-width:2.0px;stroke-linecap:butt;stroke-linejoin:miter;stroke-opacity:1"/>
<path class="bond-6 atom-6 atom-7" d="M 128.8,633.2 L 145.6,664.7" style="fill:none;fill-rule:evenodd;stroke:#000000;stroke-width:2.0px;stroke-linecap:butt;stroke-linejoin:miter;stroke-opacity:1"/>
<path class="bond-6 atom-6 atom-7" d="M 125.1,637.7 L 139.7,665.3" style="fill:none;fill-rule:evenodd;stroke:#000000;stroke-width:2.0px;stroke-linecap:butt;stroke-linejoin:miter;stroke-opacity:1"/>
<path class="bond-7 atom-7 atom-8" d="M 145.6,664.7 L 181.1,661.3" style="fill:none;fill-rule:evenodd;stroke:#000000;stroke-width:2.0px;stroke-linecap:butt;stroke-linejoin:miter;stroke-opacity:1"/>
<path class="bond-8 atom-8 atom-9" d="M 181.1,661.3 L 199.3,630.6" style="fill:none;fill-rule:evenodd;stroke:#000000;stroke-width:2.0px;stroke-linecap:butt;stroke-linejoin:miter;stroke-opacity:1"/>
<path class="bond-8 atom-8 atom-9" d="M 187.7,660.7 L 201.9,636.7" style="fill:none;fill-rule:evenodd;stroke:#000000;stroke-width:2.0px;stroke-linecap:butt;stroke-linejoin:miter;stroke-opacity:1"/>
<path class="bond-9 atom-9 atom-10" d="M 199.3,630.6 L 234.1,638.3" style="fill:none;fill-rule:evenodd;stroke:#000000;stroke-width:2.0px;stroke-linecap:butt;stroke-linejoin:miter;stroke-opacity:1"/>
<path class="bond-10 atom-10 atom-11" d="M 234.1,638.3 L 237.5,673.9" style="fill:none;fill-rule:evenodd;stroke:#000000;stroke-width:2.0px;stroke-linecap:butt;stroke-linejoin:miter;stroke-opacity:1"/>
<path class="bond-10 atom-10 atom-11" d="M 229.1,642.8 L 231.8,670.5" style="fill:none;fill-rule:evenodd;stroke:#000000;stroke-width:2.0px;stroke-linecap:butt;stroke-linejoin:miter;stroke-opacity:1"/>
<path class="bond-11 atom-11 atom-12" d="M 237.5,673.9 L 210.6,685.6" style="fill:none;fill-rule:evenodd;stroke:#000000;stroke-width:2.0px;stroke-linecap:butt;stroke-linejoin:miter;stroke-opacity:1"/>
<path class="bond-12 atom-7 atom-13" d="M 145.6,664.7 L 137.0,692.6" style="fill:none;fill-rule:evenodd;stroke:#000000;stroke-width:2.0px;stroke-linecap:butt;stroke-linejoin:miter;stroke-opacity:1"/>
<path class="bond-13 atom-13 atom-14" d="M 130.7,701.2 L 103.5,715.6" style="fill:none;fill-rule:evenodd;stroke:#000000;stroke-width:2.0px;stroke-linecap:butt;stroke-linejoin:miter;stroke-opacity:1"/>
<path class="bond-14 atom-14 atom-15" d="M 103.5,715.6 L 69.4,705.1" style="fill:none;fill-rule:evenodd;stroke:#000000;stroke-width:2.0px;stroke-linecap:butt;stroke-linejoin:miter;stroke-opacity:1"/>
<path class="bond-15 atom-15 atom-16" d="M 69.4,705.1 L 49.0,726.2" style="fill:none;fill-rule:evenodd;stroke:#000000;stroke-width:2.0px;stroke-linecap:butt;stroke-linejoin:miter;stroke-opacity:1"/>
<path class="bond-16 atom-16 atom-17" d="M 40.1,728.6 L 12.5,715.1" style="fill:none;fill-rule:evenodd;stroke:#000000;stroke-width:2.0px;stroke-linecap:butt;stroke-linejoin:miter;stroke-opacity:1"/>
<path class="bond-17 atom-17 atom-18" d="M 12.5,715.1 L 17.5,679.7" style="fill:none;fill-rule:evenodd;stroke:#000000;stroke-width:2.0px;stroke-linecap:butt;stroke-linejoin:miter;stroke-opacity:1"/>
<path class="bond-17 atom-17 atom-18" d="M 18.4,712.0 L 22.3,684.4" style="fill:none;fill-rule:evenodd;stroke:#000000;stroke-width:2.0px;stroke-linecap:butt;stroke-linejoin:miter;stroke-opacity:1"/>
<path class="bond-18 atom-18 atom-19" d="M 17.5,679.7 L 52.7,673.6" style="fill:none;fill-rule:evenodd;stroke:#000000;stroke-width:2.0px;stroke-linecap:butt;stroke-linejoin:miter;stroke-opacity:1"/>
<path class="bond-19 atom-19 atom-20" d="M 52.7,673.6 L 61.2,645.9" style="fill:none;fill-rule:evenodd;stroke:#000000;stroke-width:2.0px;stroke-linecap:butt;stroke-linejoin:miter;stroke-opacity:1"/>
<path class="bond-20 atom-20 atom-21" d="M 67.6,637.1 L 90.3,625.0" style="fill:none;fill-rule:evenodd;stroke:#000000;stroke-width:2.0px;stroke-linecap:butt;stroke-linejoin:miter;stroke-opacity:1"/>
<path class="bond-20 atom-20 atom-21" d="M 65.0,632.3 L 87.7,620.3" style="fill:none;fill-rule:evenodd;stroke:#000000;stroke-width:2.0px;stroke-linecap:butt;stroke-linejoin:miter;stroke-opacity:1"/>
<path class="bond-21 atom-21 atom-22" d="M 89.1,620.6 L 61.7,613.3 L 60.6,607.1 Z" style="fill:#000000;fill-rule:evenodd;fill-opacity:1;stroke:#000000;stroke-width:0.5px;stroke-linecap:butt;stroke-linejoin:miter;stroke-miterlimit:10;stroke-opacity:1;"/>
<path class="bond-22 atom-22 atom-23" d="M 61.7,613.3 L 55.2,575.1" style="fill:none;fill-rule:evenodd;stroke:#000000;stroke-width:2.0px;stroke-linecap:butt;stroke-linejoin:miter;stroke-opacity:1"/>
<path class="bond-23 atom-23 atom-24" d="M 55.2,575.1 L 50.2,546.2" style="fill:none;fill-rule:evenodd;stroke:#000000;stroke-width:2.0px;stroke-linecap:butt;stroke-linejoin:miter;stroke-opacity:1"/>
<path class="bond-24 atom-23 atom-25" d="M 55.2,575.1 L 74.8,566.5" style="fill:none;fill-rule:evenodd;stroke:#000000;stroke-width:2.0px;stroke-linecap:butt;stroke-linejoin:miter;stroke-opacity:1"/>
<path class="bond-25 atom-23 atom-26" d="M 55.2,575.1 L 24.2,580.5" style="fill:none;fill-rule:evenodd;stroke:#000000;stroke-width:2.0px;stroke-linecap:butt;stroke-linejoin:miter;stroke-opacity:1"/>
<path class="bond-26 atom-20 atom-0" d="M 65.4,633.2 L 79.2,596.0" style="fill:none;fill-rule:evenodd;stroke:#000000;stroke-width:2.0px;stroke-linecap:butt;stroke-linejoin:miter;stroke-opacity:1"/>
<path class="bond-27 atom-21 atom-0" d="M 92.2,616.5 L 84.2,596.0" style="fill:none;fill-rule:evenodd;stroke:#000000;stroke-width:2.0px;stroke-linecap:butt;stroke-linejoin:miter;stroke-opacity:1"/>
<path class="bond-28 atom-21 atom-6" d="M 99.1,624.1 L 128.8,633.2" style="fill:none;fill-rule:evenodd;stroke:#000000;stroke-width:2.0px;stroke-linecap:butt;stroke-linejoin:miter;stroke-opacity:1"/>
<path class="bond-29 atom-12 atom-8" d="M 199.2,681.8 L 181.1,661.3" style="fill:none;fill-rule:evenodd;stroke:#000000;stroke-width:2.0px;stroke-linecap:butt;stroke-linejoin:miter;stroke-opacity:1"/>
<path class="bond-30 atom-15 atom-19" d="M 69.4,705.1 L 52.7,673.6" style="fill:none;fill-rule:evenodd;stroke:#000000;stroke-width:2.0px;stroke-linecap:butt;stroke-linejoin:miter;stroke-opacity:1"/>
<path class="bond-30 atom-15 atom-19" d="M 62.8,704.2 L 49.7,679.6" style="fill:none;fill-rule:evenodd;stroke:#000000;stroke-width:2.0px;stroke-linecap:butt;stroke-linejoin:miter;stroke-opacity:1"/>
<path d="M 98.7,559.8 L 99.4,558.5 L 101.2,558.3" style="fill:none;stroke:#000000;stroke-width:2.0px;stroke-linecap:butt;stroke-linejoin:miter;stroke-miterlimit:10;stroke-opacity:1;"/>
<path d="M 132.9,553.4 L 134.7,553.2 L 136.0,554.4" style="fill:none;stroke:#000000;stroke-width:2.0px;stroke-linecap:butt;stroke-linejoin:miter;stroke-miterlimit:10;stroke-opacity:1;"/>
<path d="M 159.6,576.2 L 160.9,577.4 L 160.8,579.2" style="fill:none;stroke:#000000;stroke-width:2.0px;stroke-linecap:butt;stroke-linejoin:miter;stroke-miterlimit:10;stroke-opacity:1;"/>
<path d="M 158.4,611.2 L 158.3,613.0 L 156.8,614.0" style="fill:none;stroke:#000000;stroke-width:2.0px;stroke-linecap:butt;stroke-linejoin:miter;stroke-miterlimit:10;stroke-opacity:1;"/>
<path d="M 198.3,632.1 L 199.3,630.6 L 201.0,631.0" style="fill:none;stroke:#000000;stroke-width:2.0px;stroke-linecap:butt;stroke-linejoin:miter;stroke-miterlimit:10;stroke-opacity:1;"/>
<path d="M 232.4,638.0 L 234.1,638.3 L 234.3,640.1" style="fill:none;stroke:#000000;stroke-width:2.0px;stroke-linecap:butt;stroke-linejoin:miter;stroke-miterlimit:10;stroke-opacity:1;"/>
<path d="M 237.3,672.1 L 237.5,673.9 L 236.2,674.5" style="fill:none;stroke:#000000;stroke-width:2.0px;stroke-linecap:butt;stroke-linejoin:miter;stroke-miterlimit:10;stroke-opacity:1;"/>
<path d="M 104.9,714.9 L 103.5,715.6 L 101.8,715.1" style="fill:none;stroke:#000000;stroke-width:2.0px;stroke-linecap:butt;stroke-linejoin:miter;stroke-miterlimit:10;stroke-opacity:1;"/>
<path d="M 13.9,715.8 L 12.5,715.1 L 12.8,713.3" style="fill:none;stroke:#000000;stroke-width:2.0px;stroke-linecap:butt;stroke-linejoin:miter;stroke-miterlimit:10;stroke-opacity:1;"/>
<path d="M 17.3,681.5 L 17.5,679.7 L 19.3,679.4" style="fill:none;stroke:#000000;stroke-width:2.0px;stroke-linecap:butt;stroke-linejoin:miter;stroke-miterlimit:10;stroke-opacity:1;"/>
<path class="atom-0" d="M 78.7 593.0 Q 78.8 593.0, 79.3 593.2 Q 79.8 593.4, 80.3 593.5 Q 80.8 593.6, 81.3 593.6 Q 82.3 593.6, 82.9 593.2 Q 83.4 592.7, 83.4 591.9 Q 83.4 591.3, 83.1 591.0 Q 82.9 590.7, 82.4 590.5 Q 82.0 590.3, 81.3 590.1 Q 80.4 589.8, 79.8 589.5 Q 79.3 589.3, 78.9 588.7 Q 78.6 588.2, 78.6 587.3 Q 78.6 586.0, 79.4 585.2 Q 80.3 584.4, 82.0 584.4 Q 83.2 584.4, 84.5 585.0 L 84.2 586.1 Q 83.0 585.6, 82.0 585.6 Q 81.1 585.6, 80.5 586.0 Q 80.0 586.4, 80.0 587.1 Q 80.0 587.7, 80.3 588.0 Q 80.5 588.3, 80.9 588.5 Q 81.4 588.7, 82.0 588.9 Q 83.0 589.2, 83.5 589.5 Q 84.0 589.8, 84.4 590.3 Q 84.8 590.9, 84.8 591.9 Q 84.8 593.3, 83.9 594.1 Q 83.0 594.8, 81.4 594.8 Q 80.5 594.8, 79.8 594.6 Q 79.1 594.4, 78.3 594.1 L 78.7 593.0 " fill="#000000"/>
<path class="atom-3" d="M 140.5 519.0 Q 140.5 516.6, 141.7 515.3 Q 142.9 513.9, 145.2 513.9 Q 147.4 513.9, 148.6 515.3 Q 149.8 516.6, 149.8 519.0 Q 149.8 521.5, 148.6 522.9 Q 147.4 524.3, 145.2 524.3 Q 142.9 524.3, 141.7 522.9 Q 140.5 521.5, 140.5 519.0 M 145.2 523.1 Q 146.7 523.1, 147.5 522.1 Q 148.4 521.1, 148.4 519.0 Q 148.4 517.1, 147.5 516.1 Q 146.7 515.0, 145.2 515.0 Q 143.6 515.0, 142.8 516.0 Q 142.0 517.0, 142.0 519.0 Q 142.0 521.1, 142.8 522.1 Q 143.6 523.1, 145.2 523.1 " fill="#000000"/>
<path class="atom-12" d="M 200.1 688.1 Q 200.1 685.7, 201.3 684.3 Q 202.5 683.0, 204.7 683.0 Q 207.0 683.0, 208.2 684.3 Q 209.4 685.7, 209.4 688.1 Q 209.4 690.6, 208.2 692.0 Q 207.0 693.4, 204.7 693.4 Q 202.5 693.4, 201.3 692.0 Q 200.1 690.6, 200.1 688.1 M 204.7 692.2 Q 206.3 692.2, 207.1 691.2 Q 208.0 690.2, 208.0 688.1 Q 208.0 686.1, 207.1 685.1 Q 206.3 684.1, 204.7 684.1 Q 203.2 684.1, 202.4 685.1 Q 201.5 686.1, 201.5 688.1 Q 201.5 690.2, 202.4 691.2 Q 203.2 692.2, 204.7 692.2 " fill="#000000"/>
<path class="atom-13" d="M 132.2 702.3 Q 132.3 702.4, 132.8 702.6 Q 133.3 702.8, 133.8 702.9 Q 134.3 703.0, 134.8 703.0 Q 135.8 703.0, 136.4 702.6 Q 136.9 702.1, 136.9 701.3 Q 136.9 700.7, 136.6 700.4 Q 136.4 700.0, 135.9 699.8 Q 135.5 699.7, 134.8 699.4 Q 133.9 699.2, 133.3 698.9 Q 132.8 698.7, 132.4 698.1 Q 132.1 697.6, 132.1 696.7 Q 132.1 695.4, 132.9 694.6 Q 133.8 693.8, 135.5 693.8 Q 136.7 693.8, 138.0 694.4 L 137.7 695.5 Q 136.5 695.0, 135.5 695.0 Q 134.6 695.0, 134.0 695.4 Q 133.5 695.8, 133.5 696.5 Q 133.5 697.0, 133.8 697.4 Q 134.0 697.7, 134.4 697.9 Q 134.9 698.1, 135.5 698.3 Q 136.5 698.6, 137.0 698.8 Q 137.5 699.1, 137.9 699.7 Q 138.3 700.3, 138.3 701.3 Q 138.3 702.7, 137.4 703.4 Q 136.5 704.2, 134.9 704.2 Q 134.0 704.2, 133.3 704.0 Q 132.6 703.8, 131.8 703.5 L 132.2 702.3 " fill="#000000"/>
<path class="atom-16" d="M 41.7 734.3 Q 41.8 734.3, 42.3 734.5 Q 42.8 734.7, 43.3 734.8 Q 43.8 734.9, 44.3 734.9 Q 45.3 734.9, 45.8 734.5 Q 46.4 734.0, 46.4 733.2 Q 46.4 732.6, 46.1 732.3 Q 45.8 732.0, 45.4 731.8 Q 45.0 731.6, 44.3 731.4 Q 43.4 731.1, 42.8 730.8 Q 42.3 730.6, 41.9 730.0 Q 41.6 729.5, 41.6 728.6 Q 41.6 727.3, 42.4 726.5 Q 43.3 725.7, 45.0 725.7 Q 46.2 725.7, 47.5 726.3 L 47.2 727.4 Q 45.9 726.9, 45.0 726.9 Q 44.1 726.9, 43.5 727.3 Q 43.0 727.7, 43.0 728.4 Q 43.0 729.0, 43.3 729.3 Q 43.5 729.6, 43.9 729.8 Q 44.4 730.0, 45.0 730.2 Q 45.9 730.5, 46.5 730.8 Q 47.0 731.1, 47.4 731.6 Q 47.8 732.2, 47.8 733.2 Q 47.8 734.6, 46.9 735.4 Q 45.9 736.1, 44.4 736.1 Q 43.5 736.1, 42.8 735.9 Q 42.1 735.7, 41.3 735.4 L 41.7 734.3 " fill="#000000"/>
<path class="atom-20" d="M 60.3 642.9 Q 60.4 643.0, 60.9 643.2 Q 61.3 643.4, 61.9 643.5 Q 62.4 643.6, 62.9 643.6 Q 63.9 643.6, 64.4 643.1 Q 65.0 642.7, 65.0 641.9 Q 65.0 641.3, 64.7 641.0 Q 64.4 640.6, 64.0 640.4 Q 63.6 640.2, 62.8 640.0 Q 61.9 639.8, 61.4 639.5 Q 60.9 639.2, 60.5 638.7 Q 60.1 638.2, 60.1 637.2 Q 60.1 636.0, 61.0 635.2 Q 61.8 634.4, 63.6 634.4 Q 64.7 634.4, 66.1 635.0 L 65.7 636.1 Q 64.5 635.6, 63.6 635.6 Q 62.6 635.6, 62.1 636.0 Q 61.5 636.4, 61.5 637.1 Q 61.5 637.6, 61.8 637.9 Q 62.1 638.3, 62.5 638.5 Q 62.9 638.6, 63.6 638.9 Q 64.5 639.1, 65.1 639.4 Q 65.6 639.7, 66.0 640.3 Q 66.4 640.9, 66.4 641.9 Q 66.4 643.3, 65.4 644.0 Q 64.5 644.8, 63.0 644.8 Q 62.1 644.8, 61.4 644.6 Q 60.7 644.4, 59.9 644.0 L 60.3 642.9 " fill="#000000"/>
<path class="atom-21" d="M 94.4 617.6 Q 96.2 617.6, 97.0 618.4 Q 97.9 619.2, 97.9 620.6 Q 97.9 622.0, 97.0 622.8 Q 96.1 623.6, 94.4 623.6 L 92.8 623.6 L 92.8 627.8 L 91.5 627.8 L 91.5 617.6 L 94.4 617.6 M 94.4 622.5 Q 95.4 622.5, 96.0 622.0 Q 96.5 621.5, 96.5 620.6 Q 96.5 619.7, 96.0 619.3 Q 95.4 618.8, 94.4 618.8 L 92.8 618.8 L 92.8 622.5 L 94.4 622.5 " fill="#000000"/>
<path class="atom-24" d="M 46.1 534.9 L 52.1 534.9 L 52.1 536.0 L 47.5 536.0 L 47.5 539.1 L 51.6 539.1 L 51.6 540.3 L 47.5 540.3 L 47.5 545.0 L 46.1 545.0 L 46.1 534.9 " fill="#000000"/>
<path class="atom-25" d="M 76.0 559.6 L 82.0 559.6 L 82.0 560.8 L 77.3 560.8 L 77.3 563.8 L 81.5 563.8 L 81.5 565.0 L 77.3 565.0 L 77.3 569.7 L 76.0 569.7 L 76.0 559.6 " fill="#000000"/>
<path class="atom-26" d="M 17.0 576.1 L 23.0 576.1 L 23.0 577.3 L 18.3 577.3 L 18.3 580.3 L 22.5 580.3 L 22.5 581.5 L 18.3 581.5 L 18.3 586.2 L 17.0 586.2 L 17.0 576.1 " fill="#000000"/>
<path class="atom-0" d="M 87.7,589.5 L 87.7,589.5 L 87.7,589.6 L 87.7,589.7 L 87.6,589.7 L 87.6,589.8 L 87.6,589.8 L 87.6,589.9 L 87.5,589.9 L 87.5,590.0 L 87.4,590.0 L 87.4,590.1 L 87.3,590.1 L 87.3,590.1 L 87.2,590.2 L 87.2,590.2 L 87.1,590.2 L 87.1,590.2 L 87.0,590.2 L 86.9,590.2 L 86.9,590.2 L 86.8,590.2 L 86.7,590.2 L 86.7,590.1 L 86.6,590.1 L 86.6,590.1 L 86.5,590.0 L 86.5,590.0 L 86.4,590.0 L 86.4,589.9 L 86.4,589.9 L 86.3,589.8 L 86.3,589.8 L 86.3,589.7 L 86.3,589.6 L 86.3,589.6 L 86.3,589.5 L 86.3,589.5 L 86.3,589.4 L 86.3,589.3 L 86.3,589.3 L 86.3,589.2 L 86.3,589.2 L 86.4,589.1 L 86.4,589.1 L 86.4,589.0 L 86.5,589.0 L 86.5,588.9 L 86.6,588.9 L 86.6,588.9 L 86.7,588.8 L 86.7,588.8 L 86.8,588.8 L 86.9,588.8 L 86.9,588.8 L 87.0,588.8 L 87.1,588.8 L 87.1,588.8 L 87.2,588.8 L 87.2,588.8 L 87.3,588.8 L 87.3,588.9 L 87.4,588.9 L 87.4,588.9 L 87.5,589.0 L 87.5,589.0 L 87.6,589.1 L 87.6,589.1 L 87.6,589.2 L 87.6,589.2 L 87.7,589.3 L 87.7,589.4 L 87.7,589.4 L 87.7,589.5 L 87.0,589.5 Z" style="fill:#000000;fill-rule:evenodd;fill-opacity:1;stroke:#000000;stroke-width:0.0px;stroke-linecap:butt;stroke-linejoin:miter;stroke-miterlimit:10;stroke-opacity:1;"/>
<path class="atom-14" d="M 104.3,718.8 L 104.3,718.9 L 104.2,718.9 L 104.2,719.0 L 104.2,719.0 L 104.2,719.1 L 104.2,719.2 L 104.1,719.2 L 104.1,719.3 L 104.1,719.3 L 104.0,719.3 L 104.0,719.4 L 103.9,719.4 L 103.9,719.4 L 103.8,719.5 L 103.7,719.5 L 103.7,719.5 L 103.6,719.5 L 103.6,719.5 L 103.5,719.5 L 103.4,719.5 L 103.4,719.5 L 103.3,719.5 L 103.3,719.5 L 103.2,719.4 L 103.2,719.4 L 103.1,719.4 L 103.1,719.3 L 103.0,719.3 L 103.0,719.2 L 102.9,719.2 L 102.9,719.1 L 102.9,719.1 L 102.9,719.0 L 102.8,719.0 L 102.8,718.9 L 102.8,718.8 L 102.8,718.8 L 102.8,718.7 L 102.8,718.7 L 102.9,718.6 L 102.9,718.5 L 102.9,718.5 L 102.9,718.4 L 103.0,718.4 L 103.0,718.3 L 103.1,718.3 L 103.1,718.2 L 103.2,718.2 L 103.2,718.2 L 103.3,718.1 L 103.3,718.1 L 103.4,718.1 L 103.4,718.1 L 103.5,718.1 L 103.6,718.1 L 103.6,718.1 L 103.7,718.1 L 103.7,718.1 L 103.8,718.1 L 103.9,718.2 L 103.9,718.2 L 104.0,718.2 L 104.0,718.3 L 104.1,718.3 L 104.1,718.3 L 104.1,718.4 L 104.2,718.5 L 104.2,718.5 L 104.2,718.6 L 104.2,718.6 L 104.2,718.7 L 104.3,718.7 L 104.3,718.8 L 103.5,718.8 Z" style="fill:#000000;fill-rule:evenodd;fill-opacity:1;stroke:#000000;stroke-width:0.0px;stroke-linecap:butt;stroke-linejoin:miter;stroke-miterlimit:10;stroke-opacity:1;"/>
<path class="atom-22" d="M 57.6,610.3 L 57.6,610.4 L 57.6,610.5 L 57.6,610.5 L 57.6,610.6 L 57.6,610.6 L 57.5,610.7 L 57.5,610.7 L 57.5,610.8 L 57.4,610.8 L 57.4,610.9 L 57.3,610.9 L 57.3,610.9 L 57.2,611.0 L 57.2,611.0 L 57.1,611.0 L 57.0,611.0 L 57.0,611.0 L 56.9,611.0 L 56.9,611.0 L 56.8,611.0 L 56.7,611.0 L 56.7,611.0 L 56.6,611.0 L 56.6,611.0 L 56.5,610.9 L 56.5,610.9 L 56.4,610.9 L 56.4,610.8 L 56.3,610.8 L 56.3,610.7 L 56.3,610.7 L 56.2,610.6 L 56.2,610.5 L 56.2,610.5 L 56.2,610.4 L 56.2,610.4 L 56.2,610.3 L 56.2,610.2 L 56.2,610.2 L 56.2,610.1 L 56.2,610.1 L 56.3,610.0 L 56.3,610.0 L 56.3,609.9 L 56.4,609.9 L 56.4,609.8 L 56.5,609.8 L 56.5,609.7 L 56.6,609.7 L 56.6,609.7 L 56.7,609.7 L 56.7,609.6 L 56.8,609.6 L 56.9,609.6 L 56.9,609.6 L 57.0,609.6 L 57.0,609.6 L 57.1,609.6 L 57.2,609.7 L 57.2,609.7 L 57.3,609.7 L 57.3,609.8 L 57.4,609.8 L 57.4,609.8 L 57.5,609.9 L 57.5,609.9 L 57.5,610.0 L 57.6,610.0 L 57.6,610.1 L 57.6,610.2 L 57.6,610.2 L 57.6,610.3 L 57.6,610.3 L 56.9,610.3 Z" style="fill:#000000;fill-rule:evenodd;fill-opacity:1;stroke:#000000;stroke-width:0.0px;stroke-linecap:butt;stroke-linejoin:miter;stroke-miterlimit:10;stroke-opacity:1;"/>
<path class="bond-0 atom-0 atom-1" d="M 366.4,684.3 L 297.1,684.3" style="fill:none;fill-rule:evenodd;stroke:#000000;stroke-width:2.0px;stroke-linecap:butt;stroke-linejoin:miter;stroke-opacity:1"/>
<path class="bond-1 atom-1 atom-2" d="M 297.1,684.3 L 262.5,624.3" style="fill:none;fill-rule:evenodd;stroke:#000000;stroke-width:2.0px;stroke-linecap:butt;stroke-linejoin:miter;stroke-opacity:1"/>
<path class="bond-2 atom-2 atom-3" d="M 262.5,624.3 L 297.1,564.3" style="fill:none;fill-rule:evenodd;stroke:#000000;stroke-width:2.0px;stroke-linecap:butt;stroke-linejoin:miter;stroke-opacity:1"/>
<path class="bond-3 atom-3 atom-4" d="M 297.1,564.3 L 366.4,564.3" style="fill:none;fill-rule:evenodd;stroke:#000000;stroke-width:2.0px;stroke-linecap:butt;stroke-linejoin:miter;stroke-opacity:1"/>
<path class="bond-4 atom-4 atom-5" d="M 366.4,564.3 L 401.0,624.3" style="fill:none;fill-rule:evenodd;stroke:#000000;stroke-width:2.0px;stroke-linecap:butt;stroke-linejoin:miter;stroke-opacity:1"/>
<path class="bond-4 atom-4 atom-5" d="M 360.4,574.7 L 389.0,624.3" style="fill:none;fill-rule:evenodd;stroke:#000000;stroke-width:2.0px;stroke-linecap:butt;stroke-linejoin:miter;stroke-opacity:1"/>
<path class="bond-5 atom-5 atom-6" d="M 401.0,624.3 L 461.4,624.3" style="fill:none;fill-rule:evenodd;stroke:#000000;stroke-width:2.0px;stroke-linecap:butt;stroke-linejoin:miter;stroke-opacity:1"/>
<path class="bond-6 atom-5 atom-0" d="M 401.0,624.3 L 366.4,684.3" style="fill:none;fill-rule:evenodd;stroke:#000000;stroke-width:2.0px;stroke-linecap:butt;stroke-linejoin:miter;stroke-opacity:1"/>
<path d="M 362.9,684.3 L 366.4,684.3 L 368.1,681.3" style="fill:none;stroke:#000000;stroke-width:2.0px;stroke-linecap:butt;stroke-linejoin:miter;stroke-miterlimit:10;stroke-opacity:1;"/>
<path d="M 300.6,684.3 L 297.1,684.3 L 295.4,681.3" style="fill:none;stroke:#000000;stroke-width:2.0px;stroke-linecap:butt;stroke-linejoin:miter;stroke-miterlimit:10;stroke-opacity:1;"/>
<path d="M 264.2,627.3 L 262.5,624.3 L 264.2,621.3" style="fill:none;stroke:#000000;stroke-width:2.0px;stroke-linecap:butt;stroke-linejoin:miter;stroke-miterlimit:10;stroke-opacity:1;"/>
<path d="M 295.4,567.3 L 297.1,564.3 L 300.6,564.3" style="fill:none;stroke:#000000;stroke-width:2.0px;stroke-linecap:butt;stroke-linejoin:miter;stroke-miterlimit:10;stroke-opacity:1;"/>
<path d="M 362.9,564.3 L 366.4,564.3 L 368.1,567.3" style="fill:none;stroke:#000000;stroke-width:2.0px;stroke-linecap:butt;stroke-linejoin:miter;stroke-miterlimit:10;stroke-opacity:1;"/>
<path class="atom-6" d="M 473.2 623.8 Q 475.1 624.3, 476.0 625.5 Q 477.0 626.6, 477.0 628.3 Q 477.0 631.0, 475.2 632.6 Q 473.5 634.1, 470.2 634.1 L 463.6 634.1 L 463.6 614.5 L 469.4 614.5 Q 472.8 614.5, 474.5 615.9 Q 476.2 617.2, 476.2 619.7 Q 476.2 622.7, 473.2 623.8 M 466.3 616.7 L 466.3 622.9 L 469.4 622.9 Q 471.4 622.9, 472.4 622.1 Q 473.4 621.3, 473.4 619.7 Q 473.4 616.7, 469.4 616.7 L 466.3 616.7 M 470.2 631.9 Q 472.2 631.9, 473.2 631.0 Q 474.2 630.1, 474.2 628.3 Q 474.2 626.7, 473.1 625.9 Q 472.0 625.1, 469.8 625.1 L 466.3 625.1 L 466.3 631.9 L 470.2 631.9 " fill="#000000"/>
<path class="atom-6" d="M 481.4 619.9 L 481.7 621.8 Q 483.2 619.6, 485.7 619.6 Q 486.4 619.6, 487.5 619.9 L 487.1 622.2 Q 485.9 622.0, 485.2 622.0 Q 484.1 622.0, 483.3 622.4 Q 482.5 622.9, 481.9 623.9 L 481.9 634.1 L 479.3 634.1 L 479.3 619.9 L 481.4 619.9 " fill="#000000"/>
<path class="atom-0" d="M 376.1,684.3 L 376.1,684.4 L 376.1,684.5 L 376.1,684.7 L 376.0,684.8 L 376.0,684.9 L 375.9,685.0 L 375.9,685.1 L 375.8,685.2 L 375.7,685.3 L 375.6,685.3 L 375.5,685.4 L 375.4,685.5 L 375.3,685.5 L 375.2,685.6 L 375.1,685.6 L 375.0,685.7 L 374.9,685.7 L 374.7,685.7 L 374.6,685.7 L 374.5,685.7 L 374.4,685.6 L 374.3,685.6 L 374.2,685.6 L 374.1,685.5 L 374.0,685.5 L 373.9,685.4 L 373.8,685.3 L 373.7,685.2 L 373.6,685.1 L 373.5,685.0 L 373.5,684.9 L 373.4,684.8 L 373.4,684.7 L 373.4,684.6 L 373.3,684.5 L 373.3,684.4 L 373.3,684.2 L 373.3,684.1 L 373.4,684.0 L 373.4,683.9 L 373.4,683.8 L 373.5,683.7 L 373.5,683.6 L 373.6,683.5 L 373.7,683.4 L 373.8,683.3 L 373.9,683.2 L 374.0,683.1 L 374.1,683.1 L 374.2,683.0 L 374.3,683.0 L 374.4,683.0 L 374.5,682.9 L 374.6,682.9 L 374.7,682.9 L 374.9,682.9 L 375.0,682.9 L 375.1,683.0 L 375.2,683.0 L 375.3,683.1 L 375.4,683.1 L 375.5,683.2 L 375.6,683.2 L 375.7,683.3 L 375.8,683.4 L 375.9,683.5 L 375.9,683.6 L 376.0,683.7 L 376.0,683.8 L 376.1,683.9 L 376.1,684.1 L 376.1,684.2 L 376.1,684.3 L 374.7,684.3 Z" style="fill:#000000;fill-rule:evenodd;fill-opacity:1;stroke:#000000;stroke-width:0.0px;stroke-linecap:butt;stroke-linejoin:miter;stroke-miterlimit:10;stroke-opacity:1;"/>
<path class="bond-0 atom-0 atom-1" d="M 649.6,616.4 L 661.0,656.1" style="fill:none;fill-rule:evenodd;stroke:#000000;stroke-width:2.0px;stroke-linecap:butt;stroke-linejoin:miter;stroke-opacity:1"/>
<path class="bond-1 atom-1 atom-2" d="M 661.0,656.1 L 694.1,631.3" style="fill:none;fill-rule:evenodd;stroke:#000000;stroke-width:2.0px;stroke-linecap:butt;stroke-linejoin:miter;stroke-opacity:1"/>
<path class="bond-2 atom-2 atom-3" d="M 691.1,633.5 L 724.1,647.6" style="fill:none;fill-rule:evenodd;stroke:#000000;stroke-width:2.0px;stroke-linecap:butt;stroke-linejoin:miter;stroke-opacity:1"/>
<path class="bond-2 atom-2 atom-3" d="M 693.7,627.6 L 726.6,641.7" style="fill:none;fill-rule:evenodd;stroke:#000000;stroke-width:2.0px;stroke-linecap:butt;stroke-linejoin:miter;stroke-opacity:1"/>
<path class="bond-3 atom-2 atom-4" d="M 694.1,631.3 L 690.0,597.5" style="fill:none;fill-rule:evenodd;stroke:#000000;stroke-width:2.0px;stroke-linecap:butt;stroke-linejoin:miter;stroke-opacity:1"/>
<path class="bond-4 atom-4 atom-5" d="M 683.3,587.8 L 651.1,574.0" style="fill:none;fill-rule:evenodd;stroke:#000000;stroke-width:2.0px;stroke-linecap:butt;stroke-linejoin:miter;stroke-opacity:1"/>
<path class="bond-5 atom-5 atom-6" d="M 651.1,574.0 L 618.0,598.8" style="fill:none;fill-rule:evenodd;stroke:#000000;stroke-width:2.0px;stroke-linecap:butt;stroke-linejoin:miter;stroke-opacity:1"/>
<path class="bond-6 atom-6 atom-7" d="M 618.0,598.8 L 583.3,592.0" style="fill:none;fill-rule:evenodd;stroke:#000000;stroke-width:2.0px;stroke-linecap:butt;stroke-linejoin:miter;stroke-opacity:1"/>
<path class="bond-7 atom-7 atom-8" d="M 573.4,598.1 L 557.3,626.9" style="fill:none;fill-rule:evenodd;stroke:#000000;stroke-width:2.0px;stroke-linecap:butt;stroke-linejoin:miter;stroke-opacity:1"/>
<path class="bond-8 atom-8 atom-9" d="M 559.2,623.5 L 521.0,628.1" style="fill:none;fill-rule:evenodd;stroke:#000000;stroke-width:2.0px;stroke-linecap:butt;stroke-linejoin:miter;stroke-opacity:1"/>
<path class="bond-8 atom-8 atom-9" d="M 560.0,629.8 L 521.8,634.4" style="fill:none;fill-rule:evenodd;stroke:#000000;stroke-width:2.0px;stroke-linecap:butt;stroke-linejoin:miter;stroke-opacity:1"/>
<path class="bond-9 atom-8 atom-10" d="M 557.3,626.9 L 579.6,650.9" style="fill:none;fill-rule:evenodd;stroke:#000000;stroke-width:2.0px;stroke-linecap:butt;stroke-linejoin:miter;stroke-opacity:1"/>
<path class="bond-10 atom-10 atom-11" d="M 591.3,654.5 L 623.0,639.9" style="fill:none;fill-rule:evenodd;stroke:#000000;stroke-width:2.0px;stroke-linecap:butt;stroke-linejoin:miter;stroke-opacity:1"/>
<path class="bond-11 atom-7 atom-0" d="M 583.3,592.9 L 649.6,616.4" style="fill:none;fill-rule:evenodd;stroke:#000000;stroke-width:2.0px;stroke-linecap:butt;stroke-linejoin:miter;stroke-opacity:1"/>
<path class="bond-12 atom-11 atom-1" d="M 623.0,639.9 L 661.0,656.1" style="fill:none;fill-rule:evenodd;stroke:#000000;stroke-width:2.0px;stroke-linecap:butt;stroke-linejoin:miter;stroke-opacity:1"/>
<path class="bond-13 atom-11 atom-6" d="M 623.0,639.9 L 618.0,598.8" style="fill:none;fill-rule:evenodd;stroke:#000000;stroke-width:2.0px;stroke-linecap:butt;stroke-linejoin:miter;stroke-opacity:1"/>
<path class="bond-14 atom-11 atom-12" d="M 623.0,639.9 L 626.5,658.7 L 620.0,658.8 Z" style="fill:#000000;fill-rule:evenodd;fill-opacity:1;stroke:#000000;stroke-width:0.5px;stroke-linecap:butt;stroke-linejoin:miter;stroke-miterlimit:10;stroke-opacity:1;"/>
<path d="M 650.2,618.4 L 649.6,616.4 L 646.3,615.2" style="fill:none;stroke:#000000;stroke-width:2.0px;stroke-linecap:butt;stroke-linejoin:miter;stroke-miterlimit:10;stroke-opacity:1;"/>
<path d="M 692.4,632.6 L 694.1,631.3 L 693.9,629.6" style="fill:none;stroke:#000000;stroke-width:2.0px;stroke-linecap:butt;stroke-linejoin:miter;stroke-miterlimit:10;stroke-opacity:1;"/>
<path d="M 652.7,574.7 L 651.1,574.0 L 649.5,575.2" style="fill:none;stroke:#000000;stroke-width:2.0px;stroke-linecap:butt;stroke-linejoin:miter;stroke-miterlimit:10;stroke-opacity:1;"/>
<path d="M 558.1,625.5 L 557.3,626.9 L 558.4,628.1" style="fill:none;stroke:#000000;stroke-width:2.0px;stroke-linecap:butt;stroke-linejoin:miter;stroke-miterlimit:10;stroke-opacity:1;"/>
<path class="atom-3" d="M 726.7 647.6 Q 726.7 644.8, 728.1 643.2 Q 729.5 641.7, 732.1 641.7 Q 734.7 641.7, 736.1 643.2 Q 737.5 644.8, 737.5 647.6 Q 737.5 650.5, 736.1 652.1 Q 734.7 653.7, 732.1 653.7 Q 729.5 653.7, 728.1 652.1 Q 726.7 650.5, 726.7 647.6 M 732.1 652.4 Q 733.9 652.4, 734.9 651.2 Q 735.8 650.0, 735.8 647.6 Q 735.8 645.3, 734.9 644.1 Q 733.9 643.0, 732.1 643.0 Q 730.3 643.0, 729.4 644.1 Q 728.4 645.3, 728.4 647.6 Q 728.4 650.0, 729.4 651.2 Q 730.3 652.4, 732.1 652.4 " fill="#000000"/>
<path class="atom-4" d="M 686.6 584.4 L 690.4 590.6 Q 690.8 591.2, 691.4 592.3 Q 692.0 593.4, 692.0 593.5 L 692.0 584.4 L 693.6 584.4 L 693.6 596.1 L 692.0 596.1 L 687.9 589.3 Q 687.4 588.5, 686.9 587.6 Q 686.4 586.7, 686.2 586.4 L 686.2 596.1 L 684.7 596.1 L 684.7 584.4 L 686.6 584.4 " fill="#000000"/>
<path class="atom-4" d="M 695.9 584.4 L 697.5 584.4 L 697.5 589.4 L 703.4 589.4 L 703.4 584.4 L 705.0 584.4 L 705.0 596.1 L 703.4 596.1 L 703.4 590.7 L 697.5 590.7 L 697.5 596.1 L 695.9 596.1 L 695.9 584.4 " fill="#000000"/>
<path class="atom-7" d="M 574.9 585.0 L 578.7 591.2 Q 579.1 591.8, 579.7 592.9 Q 580.3 594.0, 580.3 594.1 L 580.3 585.0 L 581.9 585.0 L 581.9 596.7 L 580.3 596.7 L 576.2 589.9 Q 575.7 589.1, 575.2 588.2 Q 574.7 587.3, 574.5 587.0 L 574.5 596.7 L 573.0 596.7 L 573.0 585.0 L 574.9 585.0 " fill="#000000"/>
<path class="atom-9" d="M 512.9 635.9 Q 513.1 635.9, 513.6 636.2 Q 514.2 636.4, 514.8 636.6 Q 515.4 636.7, 516.0 636.7 Q 517.1 636.7, 517.7 636.2 Q 518.4 635.6, 518.4 634.7 Q 518.4 634.0, 518.0 633.6 Q 517.7 633.2, 517.2 633.0 Q 516.7 632.8, 515.9 632.6 Q 514.9 632.2, 514.2 631.9 Q 513.6 631.6, 513.2 631.0 Q 512.7 630.4, 512.7 629.3 Q 512.7 627.9, 513.7 626.9 Q 514.7 626.0, 516.7 626.0 Q 518.1 626.0, 519.6 626.7 L 519.2 628.0 Q 517.8 627.4, 516.8 627.4 Q 515.6 627.4, 515.0 627.9 Q 514.4 628.3, 514.4 629.1 Q 514.4 629.8, 514.7 630.1 Q 515.0 630.5, 515.5 630.7 Q 516.0 631.0, 516.8 631.2 Q 517.8 631.5, 518.5 631.9 Q 519.1 632.2, 519.5 632.9 Q 520.0 633.5, 520.0 634.7 Q 520.0 636.3, 518.9 637.2 Q 517.8 638.0, 516.0 638.0 Q 515.0 638.0, 514.2 637.8 Q 513.4 637.6, 512.5 637.2 L 512.9 635.9 " fill="#000000"/>
<path class="atom-10" d="M 582.9 651.4 L 586.7 657.6 Q 587.1 658.2, 587.7 659.3 Q 588.3 660.4, 588.3 660.5 L 588.3 651.4 L 589.9 651.4 L 589.9 663.1 L 588.3 663.1 L 584.2 656.3 Q 583.7 655.5, 583.2 654.6 Q 582.7 653.7, 582.5 653.4 L 582.5 663.1 L 581.0 663.1 L 581.0 651.4 L 582.9 651.4 " fill="#000000"/>
<path class="atom-10" d="M 580.9 664.3 L 582.5 664.3 L 582.5 669.3 L 588.4 669.3 L 588.4 664.3 L 590.0 664.3 L 590.0 676.0 L 588.4 676.0 L 588.4 670.6 L 582.5 670.6 L 582.5 676.0 L 580.9 676.0 L 580.9 664.3 " fill="#000000"/>
<path class="atom-12" d="M 618.8 661.6 L 620.4 661.6 L 620.4 666.6 L 626.4 666.6 L 626.4 661.6 L 628.0 661.6 L 628.0 673.3 L 626.4 673.3 L 626.4 667.9 L 620.4 667.9 L 620.4 673.3 L 618.8 673.3 L 618.8 661.6 " fill="#000000"/>
<path class="atom-0" d="M 655.4,616.4 L 655.4,616.4 L 655.4,616.5 L 655.4,616.6 L 655.4,616.6 L 655.3,616.7 L 655.3,616.8 L 655.3,616.8 L 655.2,616.9 L 655.2,616.9 L 655.1,617.0 L 655.1,617.0 L 655.0,617.1 L 654.9,617.1 L 654.9,617.1 L 654.8,617.2 L 654.7,617.2 L 654.7,617.2 L 654.6,617.2 L 654.5,617.2 L 654.5,617.2 L 654.4,617.2 L 654.3,617.2 L 654.2,617.1 L 654.2,617.1 L 654.1,617.1 L 654.1,617.0 L 654.0,617.0 L 654.0,616.9 L 653.9,616.9 L 653.9,616.8 L 653.8,616.7 L 653.8,616.7 L 653.8,616.6 L 653.8,616.5 L 653.8,616.5 L 653.7,616.4 L 653.7,616.3 L 653.8,616.3 L 653.8,616.2 L 653.8,616.1 L 653.8,616.1 L 653.8,616.0 L 653.9,615.9 L 653.9,615.9 L 654.0,615.8 L 654.0,615.8 L 654.1,615.7 L 654.1,615.7 L 654.2,615.6 L 654.2,615.6 L 654.3,615.6 L 654.4,615.6 L 654.5,615.5 L 654.5,615.5 L 654.6,615.5 L 654.7,615.5 L 654.7,615.6 L 654.8,615.6 L 654.9,615.6 L 654.9,615.6 L 655.0,615.7 L 655.1,615.7 L 655.1,615.7 L 655.2,615.8 L 655.2,615.8 L 655.3,615.9 L 655.3,616.0 L 655.3,616.0 L 655.4,616.1 L 655.4,616.2 L 655.4,616.2 L 655.4,616.3 L 655.4,616.4 L 654.6,616.4 Z" style="fill:#000000;fill-rule:evenodd;fill-opacity:1;stroke:#000000;stroke-width:0.0px;stroke-linecap:butt;stroke-linejoin:miter;stroke-miterlimit:10;stroke-opacity:1;"/>
</svg>