<svg xmlns="http://www.w3.org/2000/svg" xmlns:rdkit="http://www.rdkit.org/xml" xmlns:xlink="http://www.w3.org/1999/xlink" version="1.1" baseProfile="full" xml:space="preserve" width="750px" height="750px" viewBox="0 0 750 750">
<!-- END OF HEADER -->
<rect style="opacity:1.0;fill:#FFFFFF;stroke:none" width="250.0" height="250.0" x="0.0" y="0.0"> </rect>
<path class="bond-0 atom-0 atom-1" d="M 15.6,142.2 L 35.9,130.7" style="fill:none;fill-rule:evenodd;stroke:#000000;stroke-width:2.0px;stroke-linecap:butt;stroke-linejoin:miter;stroke-opacity:1"/>
<path class="bond-0 atom-0 atom-1" d="M 17.4,145.3 L 35.9,134.8" style="fill:none;fill-rule:evenodd;stroke:#000000;stroke-width:2.0px;stroke-linecap:butt;stroke-linejoin:miter;stroke-opacity:1"/>
<path class="bond-1 atom-1 atom-2" d="M 35.9,130.7 L 56.0,142.5" style="fill:none;fill-rule:evenodd;stroke:#000000;stroke-width:2.0px;stroke-linecap:butt;stroke-linejoin:miter;stroke-opacity:1"/>
<path class="bond-2 atom-2 atom-3" d="M 56.0,142.5 L 72.9,132.9" style="fill:none;fill-rule:evenodd;stroke:#000000;stroke-width:2.0px;stroke-linecap:butt;stroke-linejoin:miter;stroke-opacity:1"/>
<path class="bond-3 atom-3 atom-4" d="M 79.5,133.0 L 96.3,142.8" style="fill:none;fill-rule:evenodd;stroke:#000000;stroke-width:2.0px;stroke-linecap:butt;stroke-linejoin:miter;stroke-opacity:1"/>
<path class="bond-4 atom-4 atom-5" d="M 96.3,142.8 L 116.5,131.4" style="fill:none;fill-rule:evenodd;stroke:#000000;stroke-width:2.0px;stroke-linecap:butt;stroke-linejoin:miter;stroke-opacity:1"/>
<path class="bond-5 atom-5 atom-6" d="M 116.5,131.4 L 114.9,113.0 L 118.4,113.1 Z" style="fill:#000000;fill-rule:evenodd;fill-opacity:1;stroke:#000000;stroke-width:0.5px;stroke-linecap:butt;stroke-linejoin:miter;stroke-miterlimit:10;stroke-opacity:1;"/>
<path class="bond-6 atom-5 atom-7" d="M 116.5,131.4 L 136.6,143.1" style="fill:none;fill-rule:evenodd;stroke:#000000;stroke-width:2.0px;stroke-linecap:butt;stroke-linejoin:miter;stroke-opacity:1"/>
<path class="bond-7 atom-7 atom-8" d="M 136.6,143.1 L 156.9,131.7" style="fill:none;fill-rule:evenodd;stroke:#000000;stroke-width:2.0px;stroke-linecap:butt;stroke-linejoin:miter;stroke-opacity:1"/>
<path class="bond-7 atom-7 atom-8" d="M 136.6,139.1 L 155.1,128.6" style="fill:none;fill-rule:evenodd;stroke:#000000;stroke-width:2.0px;stroke-linecap:butt;stroke-linejoin:miter;stroke-opacity:1"/>
<path class="bond-8 atom-8 atom-9" d="M 156.9,131.7 L 176.9,143.5" style="fill:none;fill-rule:evenodd;stroke:#000000;stroke-width:2.0px;stroke-linecap:butt;stroke-linejoin:miter;stroke-opacity:1"/>
<path class="bond-9 atom-9 atom-10" d="M 176.9,143.5 L 197.2,132.0" style="fill:none;fill-rule:evenodd;stroke:#000000;stroke-width:2.0px;stroke-linecap:butt;stroke-linejoin:miter;stroke-opacity:1"/>
<path class="bond-9 atom-9 atom-10" d="M 177.0,139.4 L 195.5,128.9" style="fill:none;fill-rule:evenodd;stroke:#000000;stroke-width:2.0px;stroke-linecap:butt;stroke-linejoin:miter;stroke-opacity:1"/>
<path class="bond-10 atom-10 atom-11" d="M 197.2,132.0 L 217.3,143.8" style="fill:none;fill-rule:evenodd;stroke:#000000;stroke-width:2.0px;stroke-linecap:butt;stroke-linejoin:miter;stroke-opacity:1"/>
<path class="bond-11 atom-11 atom-12" d="M 217.3,143.8 L 237.5,132.3" style="fill:none;fill-rule:evenodd;stroke:#000000;stroke-width:2.0px;stroke-linecap:butt;stroke-linejoin:miter;stroke-opacity:1"/>
<path class="bond-11 atom-11 atom-12" d="M 217.3,139.7 L 235.8,129.2" style="fill:none;fill-rule:evenodd;stroke:#000000;stroke-width:2.0px;stroke-linecap:butt;stroke-linejoin:miter;stroke-opacity:1"/>
<path d="M 34.9,131.3 L 35.9,130.7 L 36.9,131.3" style="fill:none;stroke:#000000;stroke-width:2.0px;stroke-linecap:butt;stroke-linejoin:miter;stroke-miterlimit:10;stroke-opacity:1;"/>
<path d="M 55.0,141.9 L 56.0,142.5 L 56.8,142.0" style="fill:none;stroke:#000000;stroke-width:2.0px;stroke-linecap:butt;stroke-linejoin:miter;stroke-miterlimit:10;stroke-opacity:1;"/>
<path d="M 95.4,142.3 L 96.3,142.8 L 97.3,142.3" style="fill:none;stroke:#000000;stroke-width:2.0px;stroke-linecap:butt;stroke-linejoin:miter;stroke-miterlimit:10;stroke-opacity:1;"/>
<path d="M 115.5,131.9 L 116.5,131.4 L 117.5,131.9" style="fill:none;stroke:#000000;stroke-width:2.0px;stroke-linecap:butt;stroke-linejoin:miter;stroke-miterlimit:10;stroke-opacity:1;"/>
<path d="M 135.6,142.6 L 136.6,143.1 L 137.6,142.6" style="fill:none;stroke:#000000;stroke-width:2.0px;stroke-linecap:butt;stroke-linejoin:miter;stroke-miterlimit:10;stroke-opacity:1;"/>
<path d="M 155.8,132.2 L 156.9,131.7 L 157.9,132.2" style="fill:none;stroke:#000000;stroke-width:2.0px;stroke-linecap:butt;stroke-linejoin:miter;stroke-miterlimit:10;stroke-opacity:1;"/>
<path d="M 175.9,142.9 L 176.9,143.5 L 177.9,142.9" style="fill:none;stroke:#000000;stroke-width:2.0px;stroke-linecap:butt;stroke-linejoin:miter;stroke-miterlimit:10;stroke-opacity:1;"/>
<path d="M 196.2,132.5 L 197.2,132.0 L 198.2,132.6" style="fill:none;stroke:#000000;stroke-width:2.0px;stroke-linecap:butt;stroke-linejoin:miter;stroke-miterlimit:10;stroke-opacity:1;"/>
<path d="M 216.2,143.2 L 217.3,143.8 L 218.3,143.2" style="fill:none;stroke:#000000;stroke-width:2.0px;stroke-linecap:butt;stroke-linejoin:miter;stroke-miterlimit:10;stroke-opacity:1;"/>
<path class="atom-3" d="M 74.8 127.7 L 76.9 131.2 Q 77.1 131.6, 77.5 132.2 Q 77.8 132.8, 77.8 132.9 L 77.8 127.7 L 78.7 127.7 L 78.7 134.3 L 77.8 134.3 L 75.5 130.5 Q 75.2 130.1, 74.9 129.6 Q 74.7 129.1, 74.6 128.9 L 74.6 134.3 L 73.7 134.3 L 73.7 127.7 L 74.8 127.7 " fill="#000000"/>
<path class="atom-3" d="M 73.6 120.5 L 74.5 120.5 L 74.5 123.3 L 77.9 123.3 L 77.9 120.5 L 78.8 120.5 L 78.8 127.1 L 77.9 127.1 L 77.9 124.0 L 74.5 124.0 L 74.5 127.1 L 73.6 127.1 L 73.6 120.5 " fill="#000000"/>
<path class="atom-3" d="M 80.1 126.9 Q 80.2 126.4, 80.6 126.2 Q 81.0 126.0, 81.5 126.0 Q 82.2 126.0, 82.5 126.3 Q 82.9 126.7, 82.9 127.3 Q 82.9 128.0, 82.4 128.6 Q 82.0 129.2, 81.0 129.9 L 83.0 129.9 L 83.0 130.4 L 80.0 130.4 L 80.0 130.0 Q 80.9 129.4, 81.3 129.0 Q 81.8 128.5, 82.1 128.1 Q 82.3 127.8, 82.3 127.4 Q 82.3 126.9, 82.1 126.7 Q 81.9 126.5, 81.5 126.5 Q 81.2 126.5, 80.9 126.6 Q 80.7 126.8, 80.5 127.1 L 80.1 126.9 " fill="#000000"/>
<path class="atom-3" d="M 80.1 121.7 L 81.2 121.7 L 81.2 120.5 L 81.8 120.5 L 81.8 121.7 L 83.0 121.7 L 83.0 122.1 L 81.8 122.1 L 81.8 123.4 L 81.2 123.4 L 81.2 122.1 L 80.1 122.1 L 80.1 121.7 " fill="#000000"/>
<path class="atom-6" d="M 113.7 108.1 Q 113.7 106.5, 114.5 105.6 Q 115.3 104.7, 116.7 104.7 Q 118.2 104.7, 119.0 105.6 Q 119.7 106.5, 119.7 108.1 Q 119.7 109.7, 118.9 110.6 Q 118.2 111.5, 116.7 111.5 Q 115.3 111.5, 114.5 110.6 Q 113.7 109.7, 113.7 108.1 M 116.7 110.8 Q 117.7 110.8, 118.3 110.1 Q 118.8 109.4, 118.8 108.1 Q 118.8 106.8, 118.3 106.1 Q 117.7 105.5, 116.7 105.5 Q 115.7 105.5, 115.2 106.1 Q 114.6 106.8, 114.6 108.1 Q 114.6 109.4, 115.2 110.1 Q 115.7 110.8, 116.7 110.8 " fill="#000000"/>
<path class="atom-6" d="M 120.8 104.8 L 121.7 104.8 L 121.7 107.6 L 125.0 107.6 L 125.0 104.8 L 125.9 104.8 L 125.9 111.4 L 125.0 111.4 L 125.0 108.4 L 121.7 108.4 L 121.7 111.4 L 120.8 111.4 L 120.8 104.8 " fill="#000000"/>
<path class="atom-0" d="M 13.3,142.2 L 13.3,142.3 L 13.3,142.3 L 13.3,142.3 L 13.3,142.4 L 13.3,142.4 L 13.3,142.5 L 13.2,142.5 L 13.2,142.5 L 13.2,142.6 L 13.2,142.6 L 13.1,142.6 L 13.1,142.6 L 13.1,142.6 L 13.0,142.7 L 13.0,142.7 L 12.9,142.7 L 12.9,142.7 L 12.9,142.7 L 12.8,142.7 L 12.8,142.7 L 12.7,142.7 L 12.7,142.7 L 12.7,142.7 L 12.6,142.6 L 12.6,142.6 L 12.6,142.6 L 12.5,142.6 L 12.5,142.5 L 12.5,142.5 L 12.5,142.5 L 12.4,142.4 L 12.4,142.4 L 12.4,142.4 L 12.4,142.3 L 12.4,142.3 L 12.4,142.2 L 12.4,142.2 L 12.4,142.2 L 12.4,142.1 L 12.4,142.1 L 12.4,142.0 L 12.4,142.0 L 12.5,142.0 L 12.5,141.9 L 12.5,141.9 L 12.5,141.9 L 12.6,141.9 L 12.6,141.8 L 12.6,141.8 L 12.7,141.8 L 12.7,141.8 L 12.7,141.8 L 12.8,141.8 L 12.8,141.8 L 12.9,141.8 L 12.9,141.8 L 12.9,141.8 L 13.0,141.8 L 13.0,141.8 L 13.1,141.8 L 13.1,141.8 L 13.1,141.8 L 13.2,141.9 L 13.2,141.9 L 13.2,141.9 L 13.2,142.0 L 13.3,142.0 L 13.3,142.0 L 13.3,142.1 L 13.3,142.1 L 13.3,142.1 L 13.3,142.2 L 13.3,142.2 L 12.8,142.2 Z" style="fill:#000000;fill-rule:evenodd;fill-opacity:1;stroke:#000000;stroke-width:0.0px;stroke-linecap:butt;stroke-linejoin:miter;stroke-miterlimit:10;stroke-opacity:1;"/>
<path class="bond-0 atom-0 atom-1" d="M 302.2,82.0 L 287.6,87.3" style="fill:none;fill-rule:evenodd;stroke:#000000;stroke-width:2.0px;stroke-linecap:butt;stroke-linejoin:miter;stroke-opacity:1"/>
<path class="bond-1 atom-2 atom-1" d="M 282.3,105.7 L 283.4,91.7 L 286.1,92.2 Z" style="fill:#000000;fill-rule:evenodd;fill-opacity:1;stroke:#000000;stroke-width:0.5px;stroke-linecap:butt;stroke-linejoin:miter;stroke-miterlimit:10;stroke-opacity:1;"/>
<path class="bond-2 atom-2 atom-3" d="M 282.3,105.7 L 268.1,110.9" style="fill:none;fill-rule:evenodd;stroke:#000000;stroke-width:2.0px;stroke-linecap:butt;stroke-linejoin:miter;stroke-opacity:1"/>
<path class="bond-3 atom-3 atom-4" d="M 265.0,114.9 L 262.5,129.3" style="fill:none;fill-rule:evenodd;stroke:#000000;stroke-width:2.0px;stroke-linecap:butt;stroke-linejoin:miter;stroke-opacity:1"/>
<path class="bond-3 atom-3 atom-4" d="M 267.7,115.3 L 265.4,128.2" style="fill:none;fill-rule:evenodd;stroke:#000000;stroke-width:2.0px;stroke-linecap:butt;stroke-linejoin:miter;stroke-opacity:1"/>
<path class="bond-4 atom-4 atom-5" d="M 262.5,129.3 L 276.1,140.8" style="fill:none;fill-rule:evenodd;stroke:#000000;stroke-width:2.0px;stroke-linecap:butt;stroke-linejoin:miter;stroke-opacity:1"/>
<path class="bond-5 atom-5 atom-6" d="M 276.1,140.8 L 273.1,158.3" style="fill:none;fill-rule:evenodd;stroke:#000000;stroke-width:2.0px;stroke-linecap:butt;stroke-linejoin:miter;stroke-opacity:1"/>
<path class="bond-5 atom-5 atom-6" d="M 278.5,142.7 L 275.9,157.2" style="fill:none;fill-rule:evenodd;stroke:#000000;stroke-width:2.0px;stroke-linecap:butt;stroke-linejoin:miter;stroke-opacity:1"/>
<path class="bond-6 atom-6 atom-7" d="M 273.1,158.3 L 286.7,169.7" style="fill:none;fill-rule:evenodd;stroke:#000000;stroke-width:2.0px;stroke-linecap:butt;stroke-linejoin:miter;stroke-opacity:1"/>
<path class="bond-7 atom-7 atom-8" d="M 286.7,169.7 L 303.4,163.6" style="fill:none;fill-rule:evenodd;stroke:#000000;stroke-width:2.0px;stroke-linecap:butt;stroke-linejoin:miter;stroke-opacity:1"/>
<path class="bond-7 atom-7 atom-8" d="M 287.2,166.7 L 301.1,161.7" style="fill:none;fill-rule:evenodd;stroke:#000000;stroke-width:2.0px;stroke-linecap:butt;stroke-linejoin:miter;stroke-opacity:1"/>
<path class="bond-8 atom-8 atom-9" d="M 303.4,163.6 L 306.5,146.1" style="fill:none;fill-rule:evenodd;stroke:#000000;stroke-width:2.0px;stroke-linecap:butt;stroke-linejoin:miter;stroke-opacity:1"/>
<path class="bond-9 atom-9 atom-10" d="M 306.5,146.1 L 292.9,134.7" style="fill:none;fill-rule:evenodd;stroke:#000000;stroke-width:2.0px;stroke-linecap:butt;stroke-linejoin:miter;stroke-opacity:1"/>
<path class="bond-9 atom-9 atom-10" d="M 303.6,147.2 L 292.3,137.7" style="fill:none;fill-rule:evenodd;stroke:#000000;stroke-width:2.0px;stroke-linecap:butt;stroke-linejoin:miter;stroke-opacity:1"/>
<path class="bond-10 atom-10 atom-11" d="M 292.9,134.7 L 295.4,120.2" style="fill:none;fill-rule:evenodd;stroke:#000000;stroke-width:2.0px;stroke-linecap:butt;stroke-linejoin:miter;stroke-opacity:1"/>
<path class="bond-11 atom-11 atom-12" d="M 298.5,116.2 L 312.7,111.0" style="fill:none;fill-rule:evenodd;stroke:#000000;stroke-width:2.0px;stroke-linecap:butt;stroke-linejoin:miter;stroke-opacity:1"/>
<path class="bond-12 atom-12 atom-13" d="M 313.9,112.0 L 316.5,96.9" style="fill:none;fill-rule:evenodd;stroke:#000000;stroke-width:2.0px;stroke-linecap:butt;stroke-linejoin:miter;stroke-opacity:1"/>
<path class="bond-12 atom-12 atom-13" d="M 311.3,111.6 L 313.9,96.5" style="fill:none;fill-rule:evenodd;stroke:#000000;stroke-width:2.0px;stroke-linecap:butt;stroke-linejoin:miter;stroke-opacity:1"/>
<path class="bond-13 atom-12 atom-14" d="M 312.7,111.0 L 323.8,120.4" style="fill:none;fill-rule:evenodd;stroke:#000000;stroke-width:2.0px;stroke-linecap:butt;stroke-linejoin:miter;stroke-opacity:1"/>
<path class="bond-14 atom-14 atom-15" d="M 328.8,121.6 L 343.1,116.4" style="fill:none;fill-rule:evenodd;stroke:#000000;stroke-width:2.0px;stroke-linecap:butt;stroke-linejoin:miter;stroke-opacity:1"/>
<path class="bond-15 atom-15 atom-16" d="M 343.1,116.4 L 356.7,127.8" style="fill:none;fill-rule:evenodd;stroke:#000000;stroke-width:2.0px;stroke-linecap:butt;stroke-linejoin:miter;stroke-opacity:1"/>
<path class="bond-16 atom-16 atom-17" d="M 356.7,127.8 L 370.6,122.8" style="fill:none;fill-rule:evenodd;stroke:#000000;stroke-width:2.0px;stroke-linecap:butt;stroke-linejoin:miter;stroke-opacity:1"/>
<path class="bond-17 atom-17 atom-18" d="M 376.4,124.2 L 387.1,133.2" style="fill:none;fill-rule:evenodd;stroke:#000000;stroke-width:2.0px;stroke-linecap:butt;stroke-linejoin:miter;stroke-opacity:1"/>
<path class="bond-18 atom-18 atom-19" d="M 387.1,133.2 L 403.8,127.1" style="fill:none;fill-rule:evenodd;stroke:#000000;stroke-width:2.0px;stroke-linecap:butt;stroke-linejoin:miter;stroke-opacity:1"/>
<path class="bond-18 atom-18 atom-19" d="M 387.6,130.1 L 402.9,124.6" style="fill:none;fill-rule:evenodd;stroke:#000000;stroke-width:2.0px;stroke-linecap:butt;stroke-linejoin:miter;stroke-opacity:1"/>
<path class="bond-19 atom-19 atom-20" d="M 403.8,127.1 L 417.5,138.5" style="fill:none;fill-rule:evenodd;stroke:#000000;stroke-width:2.0px;stroke-linecap:butt;stroke-linejoin:miter;stroke-opacity:1"/>
<path class="bond-20 atom-20 atom-21" d="M 417.5,138.5 L 434.2,132.4" style="fill:none;fill-rule:evenodd;stroke:#000000;stroke-width:2.0px;stroke-linecap:butt;stroke-linejoin:miter;stroke-opacity:1"/>
<path class="bond-20 atom-20 atom-21" d="M 418.0,135.5 L 431.8,130.5" style="fill:none;fill-rule:evenodd;stroke:#000000;stroke-width:2.0px;stroke-linecap:butt;stroke-linejoin:miter;stroke-opacity:1"/>
<path class="bond-21 atom-21 atom-22" d="M 434.2,132.4 L 445.3,141.8" style="fill:none;fill-rule:evenodd;stroke:#000000;stroke-width:2.0px;stroke-linecap:butt;stroke-linejoin:miter;stroke-opacity:1"/>
<path class="bond-22 atom-22 atom-23" d="M 450.3,143.0 L 464.6,137.8" style="fill:none;fill-rule:evenodd;stroke:#000000;stroke-width:2.0px;stroke-linecap:butt;stroke-linejoin:miter;stroke-opacity:1"/>
<path class="bond-23 atom-23 atom-24" d="M 464.6,137.8 L 478.5,147.8 L 477.9,150.8 Z" style="fill:#000000;fill-rule:evenodd;fill-opacity:1;stroke:#000000;stroke-width:0.5px;stroke-linecap:butt;stroke-linejoin:miter;stroke-miterlimit:10;stroke-opacity:1;"/>
<path class="bond-24 atom-24 atom-25" d="M 478.5,147.8 L 475.1,166.8" style="fill:none;fill-rule:evenodd;stroke:#000000;stroke-width:2.0px;stroke-linecap:butt;stroke-linejoin:miter;stroke-opacity:1"/>
<path class="bond-25 atom-23 atom-26" d="M 464.6,137.8 L 467.7,120.3" style="fill:none;fill-rule:evenodd;stroke:#000000;stroke-width:2.0px;stroke-linecap:butt;stroke-linejoin:miter;stroke-opacity:1"/>
<path class="bond-26 atom-26 atom-27" d="M 467.7,120.3 L 484.4,114.2" style="fill:none;fill-rule:evenodd;stroke:#000000;stroke-width:2.0px;stroke-linecap:butt;stroke-linejoin:miter;stroke-opacity:1"/>
<path class="bond-26 atom-26 atom-27" d="M 468.2,117.2 L 482.0,112.2" style="fill:none;fill-rule:evenodd;stroke:#000000;stroke-width:2.0px;stroke-linecap:butt;stroke-linejoin:miter;stroke-opacity:1"/>
<path class="bond-27 atom-27 atom-28" d="M 484.4,114.2 L 487.5,96.6" style="fill:none;fill-rule:evenodd;stroke:#000000;stroke-width:2.0px;stroke-linecap:butt;stroke-linejoin:miter;stroke-opacity:1"/>
<path class="bond-28 atom-21 atom-29" d="M 434.2,132.4 L 437.3,114.9" style="fill:none;fill-rule:evenodd;stroke:#000000;stroke-width:2.0px;stroke-linecap:butt;stroke-linejoin:miter;stroke-opacity:1"/>
<path class="bond-29 atom-29 atom-30" d="M 437.3,114.9 L 451.8,109.6" style="fill:none;fill-rule:evenodd;stroke:#000000;stroke-width:2.0px;stroke-linecap:butt;stroke-linejoin:miter;stroke-opacity:1"/>
<path class="bond-30 atom-30 atom-31" d="M 455.9,105.9 L 457.9,94.6" style="fill:none;fill-rule:evenodd;stroke:#000000;stroke-width:2.0px;stroke-linecap:butt;stroke-linejoin:miter;stroke-opacity:1"/>
<path class="bond-30 atom-30 atom-31" d="M 453.3,105.5 L 455.3,94.2" style="fill:none;fill-rule:evenodd;stroke:#000000;stroke-width:2.0px;stroke-linecap:butt;stroke-linejoin:miter;stroke-opacity:1"/>
<path class="bond-31 atom-11 atom-2" d="M 293.5,115.0 L 282.3,105.7" style="fill:none;fill-rule:evenodd;stroke:#000000;stroke-width:2.0px;stroke-linecap:butt;stroke-linejoin:miter;stroke-opacity:1"/>
<path class="bond-32 atom-10 atom-5" d="M 292.9,134.7 L 276.1,140.8" style="fill:none;fill-rule:evenodd;stroke:#000000;stroke-width:2.0px;stroke-linecap:butt;stroke-linejoin:miter;stroke-opacity:1"/>
<path class="bond-33 atom-30 atom-26" d="M 456.2,110.7 L 467.7,120.3" style="fill:none;fill-rule:evenodd;stroke:#000000;stroke-width:2.0px;stroke-linecap:butt;stroke-linejoin:miter;stroke-opacity:1"/>
<path d="M 281.6,105.9 L 282.3,105.7 L 282.9,106.1" style="fill:none;stroke:#000000;stroke-width:2.0px;stroke-linecap:butt;stroke-linejoin:miter;stroke-miterlimit:10;stroke-opacity:1;"/>
<path d="M 262.6,128.6 L 262.5,129.3 L 263.2,129.9" style="fill:none;stroke:#000000;stroke-width:2.0px;stroke-linecap:butt;stroke-linejoin:miter;stroke-miterlimit:10;stroke-opacity:1;"/>
<path d="M 273.2,157.4 L 273.1,158.3 L 273.7,158.9" style="fill:none;stroke:#000000;stroke-width:2.0px;stroke-linecap:butt;stroke-linejoin:miter;stroke-miterlimit:10;stroke-opacity:1;"/>
<path d="M 286.0,169.2 L 286.7,169.7 L 287.5,169.4" style="fill:none;stroke:#000000;stroke-width:2.0px;stroke-linecap:butt;stroke-linejoin:miter;stroke-miterlimit:10;stroke-opacity:1;"/>
<path d="M 302.6,163.9 L 303.4,163.6 L 303.6,162.8" style="fill:none;stroke:#000000;stroke-width:2.0px;stroke-linecap:butt;stroke-linejoin:miter;stroke-miterlimit:10;stroke-opacity:1;"/>
<path d="M 306.4,147.0 L 306.5,146.1 L 305.8,145.5" style="fill:none;stroke:#000000;stroke-width:2.0px;stroke-linecap:butt;stroke-linejoin:miter;stroke-miterlimit:10;stroke-opacity:1;"/>
<path d="M 312.0,111.3 L 312.7,111.0 L 313.3,111.5" style="fill:none;stroke:#000000;stroke-width:2.0px;stroke-linecap:butt;stroke-linejoin:miter;stroke-miterlimit:10;stroke-opacity:1;"/>
<path d="M 342.4,116.6 L 343.1,116.4 L 343.8,117.0" style="fill:none;stroke:#000000;stroke-width:2.0px;stroke-linecap:butt;stroke-linejoin:miter;stroke-miterlimit:10;stroke-opacity:1;"/>
<path d="M 356.0,127.3 L 356.7,127.8 L 357.4,127.6" style="fill:none;stroke:#000000;stroke-width:2.0px;stroke-linecap:butt;stroke-linejoin:miter;stroke-miterlimit:10;stroke-opacity:1;"/>
<path d="M 386.6,132.7 L 387.1,133.2 L 387.9,132.9" style="fill:none;stroke:#000000;stroke-width:2.0px;stroke-linecap:butt;stroke-linejoin:miter;stroke-miterlimit:10;stroke-opacity:1;"/>
<path d="M 403.0,127.4 L 403.8,127.1 L 404.5,127.7" style="fill:none;stroke:#000000;stroke-width:2.0px;stroke-linecap:butt;stroke-linejoin:miter;stroke-miterlimit:10;stroke-opacity:1;"/>
<path d="M 416.8,138.0 L 417.5,138.5 L 418.3,138.2" style="fill:none;stroke:#000000;stroke-width:2.0px;stroke-linecap:butt;stroke-linejoin:miter;stroke-miterlimit:10;stroke-opacity:1;"/>
<path d="M 463.9,138.1 L 464.6,137.8 L 464.7,136.9" style="fill:none;stroke:#000000;stroke-width:2.0px;stroke-linecap:butt;stroke-linejoin:miter;stroke-miterlimit:10;stroke-opacity:1;"/>
<path d="M 483.6,114.5 L 484.4,114.2 L 484.6,113.3" style="fill:none;stroke:#000000;stroke-width:2.0px;stroke-linecap:butt;stroke-linejoin:miter;stroke-miterlimit:10;stroke-opacity:1;"/>
<path d="M 437.1,115.8 L 437.3,114.9 L 438.0,114.6" style="fill:none;stroke:#000000;stroke-width:2.0px;stroke-linecap:butt;stroke-linejoin:miter;stroke-miterlimit:10;stroke-opacity:1;"/>
<path class="atom-1" d="M 284.0 89.9 Q 284.0 89.9, 284.3 90.0 Q 284.5 90.1, 284.8 90.2 Q 285.0 90.2, 285.3 90.2 Q 285.8 90.2, 286.1 90.0 Q 286.3 89.7, 286.3 89.3 Q 286.3 89.1, 286.2 88.9 Q 286.1 88.7, 285.8 88.6 Q 285.6 88.5, 285.3 88.4 Q 284.8 88.3, 284.5 88.2 Q 284.3 88.0, 284.1 87.8 Q 283.9 87.5, 283.9 87.0 Q 283.9 86.4, 284.3 86.0 Q 284.8 85.6, 285.6 85.6 Q 286.2 85.6, 286.9 85.9 L 286.7 86.4 Q 286.1 86.2, 285.6 86.2 Q 285.2 86.2, 284.9 86.4 Q 284.6 86.6, 284.6 87.0 Q 284.6 87.2, 284.8 87.4 Q 284.9 87.6, 285.1 87.6 Q 285.3 87.7, 285.6 87.8 Q 286.1 88.0, 286.4 88.1 Q 286.6 88.3, 286.8 88.6 Q 287.0 88.8, 287.0 89.3 Q 287.0 90.0, 286.6 90.4 Q 286.1 90.8, 285.3 90.8 Q 284.9 90.8, 284.5 90.7 Q 284.2 90.6, 283.8 90.4 L 284.0 89.9 " fill="#000000"/>
<path class="atom-3" d="M 264.5 109.2 L 266.1 111.9 Q 266.3 112.2, 266.6 112.7 Q 266.8 113.1, 266.8 113.2 L 266.8 109.2 L 267.5 109.2 L 267.5 114.3 L 266.8 114.3 L 265.0 111.4 Q 264.8 111.0, 264.6 110.6 Q 264.4 110.2, 264.3 110.1 L 264.3 114.3 L 263.7 114.3 L 263.7 109.2 L 264.5 109.2 " fill="#000000"/>
<path class="atom-11" d="M 294.9 114.6 L 296.5 117.3 Q 296.7 117.5, 296.9 118.0 Q 297.2 118.5, 297.2 118.5 L 297.2 114.6 L 297.9 114.6 L 297.9 119.6 L 297.2 119.6 L 295.4 116.7 Q 295.2 116.4, 295.0 116.0 Q 294.8 115.6, 294.7 115.5 L 294.7 119.6 L 294.1 119.6 L 294.1 114.6 L 294.9 114.6 " fill="#000000"/>
<path class="atom-13" d="M 313.5 93.5 Q 313.5 92.3, 314.1 91.6 Q 314.7 90.9, 315.8 90.9 Q 316.9 90.9, 317.5 91.6 Q 318.1 92.3, 318.1 93.5 Q 318.1 94.7, 317.5 95.4 Q 316.9 96.1, 315.8 96.1 Q 314.7 96.1, 314.1 95.4 Q 313.5 94.7, 313.5 93.5 M 315.8 95.6 Q 316.6 95.6, 317.0 95.0 Q 317.4 94.5, 317.4 93.5 Q 317.4 92.5, 317.0 92.0 Q 316.6 91.5, 315.8 91.5 Q 315.0 91.5, 314.6 92.0 Q 314.2 92.5, 314.2 93.5 Q 314.2 94.5, 314.6 95.0 Q 315.0 95.6, 315.8 95.6 " fill="#000000"/>
<path class="atom-14" d="M 325.2 120.0 L 326.9 122.6 Q 327.0 122.9, 327.3 123.4 Q 327.6 123.8, 327.6 123.9 L 327.6 120.0 L 328.3 120.0 L 328.3 125.0 L 327.6 125.0 L 325.8 122.1 Q 325.6 121.7, 325.4 121.3 Q 325.2 121.0, 325.1 120.8 L 325.1 125.0 L 324.4 125.0 L 324.4 120.0 L 325.2 120.0 " fill="#000000"/>
<path class="atom-14" d="M 324.4 125.5 L 325.1 125.5 L 325.1 127.6 L 327.6 127.6 L 327.6 125.5 L 328.3 125.5 L 328.3 130.5 L 327.6 130.5 L 327.6 128.2 L 325.1 128.2 L 325.1 130.5 L 324.4 130.5 L 324.4 125.5 " fill="#000000"/>
<path class="atom-17" d="M 371.1 121.8 Q 371.1 120.5, 371.7 119.9 Q 372.3 119.2, 373.5 119.2 Q 374.6 119.2, 375.2 119.9 Q 375.8 120.5, 375.8 121.8 Q 375.8 123.0, 375.2 123.7 Q 374.6 124.4, 373.5 124.4 Q 372.3 124.4, 371.7 123.7 Q 371.1 123.0, 371.1 121.8 M 373.5 123.8 Q 374.2 123.8, 374.6 123.3 Q 375.1 122.8, 375.1 121.8 Q 375.1 120.8, 374.6 120.3 Q 374.2 119.8, 373.5 119.8 Q 372.7 119.8, 372.3 120.3 Q 371.9 120.8, 371.9 121.8 Q 371.9 122.8, 372.3 123.3 Q 372.7 123.8, 373.5 123.8 " fill="#000000"/>
<path class="atom-22" d="M 446.7 141.4 L 448.4 144.0 Q 448.6 144.3, 448.8 144.8 Q 449.1 145.3, 449.1 145.3 L 449.1 141.4 L 449.8 141.4 L 449.8 146.4 L 449.1 146.4 L 447.3 143.5 Q 447.1 143.2, 446.9 142.8 Q 446.7 142.4, 446.6 142.2 L 446.6 146.4 L 445.9 146.4 L 445.9 141.4 L 446.7 141.4 " fill="#000000"/>
<path class="atom-22" d="M 445.9 146.9 L 446.6 146.9 L 446.6 149.1 L 449.1 149.1 L 449.1 146.9 L 449.8 146.9 L 449.8 152.0 L 449.1 152.0 L 449.1 149.6 L 446.6 149.6 L 446.6 152.0 L 445.9 152.0 L 445.9 146.9 " fill="#000000"/>
<path class="atom-30" d="M 452.6 110.5 Q 452.7 110.6, 452.9 110.7 Q 453.1 110.8, 453.4 110.8 Q 453.7 110.9, 453.9 110.9 Q 454.4 110.9, 454.7 110.7 Q 454.9 110.4, 454.9 110.0 Q 454.9 109.7, 454.8 109.6 Q 454.7 109.4, 454.5 109.3 Q 454.2 109.2, 453.9 109.1 Q 453.4 109.0, 453.2 108.8 Q 452.9 108.7, 452.7 108.4 Q 452.5 108.2, 452.5 107.7 Q 452.5 107.1, 452.9 106.7 Q 453.4 106.3, 454.2 106.3 Q 454.8 106.3, 455.5 106.6 L 455.3 107.1 Q 454.7 106.9, 454.3 106.9 Q 453.8 106.9, 453.5 107.1 Q 453.2 107.3, 453.2 107.6 Q 453.2 107.9, 453.4 108.1 Q 453.5 108.2, 453.7 108.3 Q 453.9 108.4, 454.3 108.5 Q 454.7 108.7, 455.0 108.8 Q 455.3 109.0, 455.4 109.2 Q 455.6 109.5, 455.6 110.0 Q 455.6 110.7, 455.2 111.1 Q 454.7 111.5, 453.9 111.5 Q 453.5 111.5, 453.1 111.4 Q 452.8 111.3, 452.4 111.1 L 452.6 110.5 " fill="#000000"/>
<path class="atom-31" d="M 456.0 88.8 L 457.7 91.4 Q 457.8 91.7, 458.1 92.2 Q 458.4 92.6, 458.4 92.7 L 458.4 88.8 L 459.0 88.8 L 459.0 93.8 L 458.3 93.8 L 456.6 90.9 Q 456.4 90.5, 456.1 90.1 Q 455.9 89.8, 455.9 89.6 L 455.9 93.8 L 455.2 93.8 L 455.2 88.8 L 456.0 88.8 " fill="#000000"/>
<path class="atom-31" d="M 460.0 88.8 L 460.7 88.8 L 460.7 90.9 L 463.3 90.9 L 463.3 88.8 L 464.0 88.8 L 464.0 93.8 L 463.3 93.8 L 463.3 91.5 L 460.7 91.5 L 460.7 93.8 L 460.0 93.8 L 460.0 88.8 " fill="#000000"/>
<path class="atom-0" d="M 304.6,80.3 L 304.6,80.3 L 304.6,80.3 L 304.6,80.4 L 304.6,80.4 L 304.6,80.4 L 304.6,80.4 L 304.6,80.5 L 304.6,80.5 L 304.5,80.5 L 304.5,80.5 L 304.5,80.6 L 304.5,80.6 L 304.4,80.6 L 304.4,80.6 L 304.4,80.6 L 304.4,80.6 L 304.3,80.6 L 304.3,80.6 L 304.3,80.6 L 304.2,80.6 L 304.2,80.6 L 304.2,80.6 L 304.1,80.6 L 304.1,80.6 L 304.1,80.6 L 304.1,80.5 L 304.0,80.5 L 304.0,80.5 L 304.0,80.5 L 304.0,80.5 L 304.0,80.4 L 304.0,80.4 L 303.9,80.4 L 303.9,80.3 L 303.9,80.3 L 303.9,80.3 L 303.9,80.2 L 303.9,80.2 L 303.9,80.2 L 303.9,80.2 L 304.0,80.1 L 304.0,80.1 L 304.0,80.1 L 304.0,80.1 L 304.0,80.0 L 304.0,80.0 L 304.1,80.0 L 304.1,80.0 L 304.1,80.0 L 304.1,79.9 L 304.2,79.9 L 304.2,79.9 L 304.2,79.9 L 304.3,79.9 L 304.3,79.9 L 304.3,79.9 L 304.4,79.9 L 304.4,79.9 L 304.4,79.9 L 304.4,79.9 L 304.5,80.0 L 304.5,80.0 L 304.5,80.0 L 304.5,80.0 L 304.6,80.0 L 304.6,80.1 L 304.6,80.1 L 304.6,80.1 L 304.6,80.1 L 304.6,80.2 L 304.6,80.2 L 304.6,80.2 L 304.6,80.3 L 304.3,80.3 Z" style="fill:#000000;fill-rule:evenodd;fill-opacity:1;stroke:#000000;stroke-width:0.0px;stroke-linecap:butt;stroke-linejoin:miter;stroke-miterlimit:10;stroke-opacity:1;"/>
<path class="atom-0" d="M 304.6,83.8 L 304.6,83.9 L 304.6,83.9 L 304.6,83.9 L 304.6,83.9 L 304.6,84.0 L 304.6,84.0 L 304.6,84.0 L 304.6,84.1 L 304.5,84.1 L 304.5,84.1 L 304.5,84.1 L 304.5,84.1 L 304.4,84.1 L 304.4,84.2 L 304.4,84.2 L 304.4,84.2 L 304.3,84.2 L 304.3,84.2 L 304.3,84.2 L 304.2,84.2 L 304.2,84.2 L 304.2,84.2 L 304.1,84.2 L 304.1,84.1 L 304.1,84.1 L 304.1,84.1 L 304.0,84.1 L 304.0,84.1 L 304.0,84.0 L 304.0,84.0 L 304.0,84.0 L 304.0,84.0 L 303.9,83.9 L 303.9,83.9 L 303.9,83.9 L 303.9,83.8 L 303.9,83.8 L 303.9,83.8 L 303.9,83.8 L 303.9,83.7 L 304.0,83.7 L 304.0,83.7 L 304.0,83.6 L 304.0,83.6 L 304.0,83.6 L 304.0,83.6 L 304.1,83.5 L 304.1,83.5 L 304.1,83.5 L 304.1,83.5 L 304.2,83.5 L 304.2,83.5 L 304.2,83.5 L 304.3,83.5 L 304.3,83.5 L 304.3,83.5 L 304.4,83.5 L 304.4,83.5 L 304.4,83.5 L 304.4,83.5 L 304.5,83.5 L 304.5,83.5 L 304.5,83.6 L 304.5,83.6 L 304.6,83.6 L 304.6,83.6 L 304.6,83.7 L 304.6,83.7 L 304.6,83.7 L 304.6,83.7 L 304.6,83.8 L 304.6,83.8 L 304.6,83.8 L 304.3,83.8 Z" style="fill:#000000;fill-rule:evenodd;fill-opacity:1;stroke:#000000;stroke-width:0.0px;stroke-linecap:butt;stroke-linejoin:miter;stroke-miterlimit:10;stroke-opacity:1;"/>
<path class="atom-0" d="M 304.6,82.0 L 304.6,82.1 L 304.6,82.1 L 304.6,82.1 L 304.6,82.2 L 304.6,82.2 L 304.6,82.2 L 304.6,82.2 L 304.6,82.3 L 304.5,82.3 L 304.5,82.3 L 304.5,82.3 L 304.5,82.4 L 304.4,82.4 L 304.4,82.4 L 304.4,82.4 L 304.4,82.4 L 304.3,82.4 L 304.3,82.4 L 304.3,82.4 L 304.2,82.4 L 304.2,82.4 L 304.2,82.4 L 304.1,82.4 L 304.1,82.4 L 304.1,82.3 L 304.1,82.3 L 304.0,82.3 L 304.0,82.3 L 304.0,82.3 L 304.0,82.2 L 304.0,82.2 L 304.0,82.2 L 303.9,82.2 L 303.9,82.1 L 303.9,82.1 L 303.9,82.1 L 303.9,82.0 L 303.9,82.0 L 303.9,82.0 L 303.9,81.9 L 304.0,81.9 L 304.0,81.9 L 304.0,81.9 L 304.0,81.8 L 304.0,81.8 L 304.0,81.8 L 304.1,81.8 L 304.1,81.7 L 304.1,81.7 L 304.1,81.7 L 304.2,81.7 L 304.2,81.7 L 304.2,81.7 L 304.3,81.7 L 304.3,81.7 L 304.3,81.7 L 304.4,81.7 L 304.4,81.7 L 304.4,81.7 L 304.4,81.7 L 304.5,81.7 L 304.5,81.8 L 304.5,81.8 L 304.5,81.8 L 304.6,81.8 L 304.6,81.8 L 304.6,81.9 L 304.6,81.9 L 304.6,81.9 L 304.6,82.0 L 304.6,82.0 L 304.6,82.0 L 304.6,82.0 L 304.3,82.0 Z" style="fill:#000000;fill-rule:evenodd;fill-opacity:1;stroke:#000000;stroke-width:0.0px;stroke-linecap:butt;stroke-linejoin:miter;stroke-miterlimit:10;stroke-opacity:1;"/>
<path class="bond-0 atom-0 atom-1" d="M 580.1,124.9 L 685.5,124.9" style="fill:none;fill-rule:evenodd;stroke:#000000;stroke-width:2.0px;stroke-linecap:butt;stroke-linejoin:miter;stroke-opacity:1"/>
<path class="atom-0" d="M 532.4 125.0 Q 532.4 118.2, 535.8 114.4 Q 539.1 110.6, 545.4 110.6 Q 551.7 110.6, 555.1 114.4 Q 558.4 118.2, 558.4 125.0 Q 558.4 131.8, 555.0 135.8 Q 551.6 139.6, 545.4 139.6 Q 539.2 139.6, 535.8 135.8 Q 532.4 131.9, 532.4 125.0 M 545.4 136.4 Q 549.7 136.4, 552.1 133.6 Q 554.4 130.6, 554.4 125.0 Q 554.4 119.4, 552.1 116.6 Q 549.7 113.8, 545.4 113.8 Q 541.1 113.8, 538.7 116.6 Q 536.4 119.4, 536.4 125.0 Q 536.4 130.7, 538.7 133.6 Q 541.1 136.4, 545.4 136.4 " fill="#000000"/>
<path class="atom-0" d="M 562.7 115.6 L 567.6 115.6 L 567.6 110.4 L 569.9 110.4 L 569.9 115.6 L 575.0 115.6 L 575.0 117.5 L 569.9 117.5 L 569.9 122.8 L 567.6 122.8 L 567.6 117.5 L 562.7 117.5 L 562.7 115.6 " fill="#000000"/>
<path class="atom-1" d="M 704.4 124.2 Q 707.1 124.9, 708.5 126.6 Q 709.9 128.2, 709.9 130.7 Q 709.9 134.6, 707.4 136.8 Q 704.9 139.0, 700.2 139.0 L 690.6 139.0 L 690.6 110.7 L 699.0 110.7 Q 703.8 110.7, 706.3 112.7 Q 708.7 114.6, 708.7 118.2 Q 708.7 122.5, 704.4 124.2 M 694.4 113.9 L 694.4 122.8 L 699.0 122.8 Q 701.8 122.8, 703.2 121.7 Q 704.7 120.5, 704.7 118.2 Q 704.7 113.9, 699.0 113.9 L 694.4 113.9 M 700.2 135.8 Q 702.9 135.8, 704.4 134.5 Q 705.9 133.2, 705.9 130.7 Q 705.9 128.4, 704.2 127.2 Q 702.6 126.0, 699.6 126.0 L 694.4 126.0 L 694.4 135.8 L 700.2 135.8 " fill="#000000"/>
<path class="atom-1" d="M 716.3 118.5 L 716.8 121.3 Q 718.9 118.1, 722.4 118.1 Q 723.6 118.1, 725.1 118.5 L 724.5 121.9 Q 722.8 121.5, 721.8 121.5 Q 720.1 121.5, 719.0 122.2 Q 717.9 122.8, 717.0 124.4 L 717.0 139.0 L 713.3 139.0 L 713.3 118.5 L 716.3 118.5 " fill="#000000"/>
<path class="atom-0" d="M 528.4,128.9 L 528.4,129.1 L 528.4,129.2 L 528.4,129.4 L 528.3,129.6 L 528.2,129.7 L 528.2,129.9 L 528.1,130.0 L 528.0,130.2 L 527.9,130.3 L 527.7,130.4 L 527.6,130.5 L 527.4,130.6 L 527.3,130.7 L 527.1,130.8 L 527.0,130.8 L 526.8,130.8 L 526.6,130.9 L 526.5,130.9 L 526.3,130.9 L 526.1,130.9 L 526.0,130.8 L 525.8,130.8 L 525.6,130.7 L 525.5,130.6 L 525.3,130.6 L 525.2,130.5 L 525.1,130.3 L 524.9,130.2 L 524.8,130.1 L 524.7,129.9 L 524.6,129.8 L 524.6,129.6 L 524.5,129.5 L 524.5,129.3 L 524.4,129.1 L 524.4,129.0 L 524.4,128.8 L 524.4,128.6 L 524.5,128.5 L 524.5,128.3 L 524.6,128.1 L 524.6,128.0 L 524.7,127.8 L 524.8,127.7 L 524.9,127.5 L 525.1,127.4 L 525.2,127.3 L 525.3,127.2 L 525.5,127.1 L 525.6,127.0 L 525.8,127.0 L 526.0,126.9 L 526.1,126.9 L 526.3,126.9 L 526.5,126.9 L 526.6,126.9 L 526.8,126.9 L 527.0,127.0 L 527.1,127.0 L 527.3,127.1 L 527.4,127.2 L 527.6,127.3 L 527.7,127.4 L 527.9,127.5 L 528.0,127.6 L 528.1,127.8 L 528.2,127.9 L 528.2,128.1 L 528.3,128.2 L 528.4,128.4 L 528.4,128.5 L 528.4,128.7 L 528.4,128.9 L 526.4,128.9 Z" style="fill:#000000;fill-rule:evenodd;fill-opacity:1;stroke:#000000;stroke-width:0.0px;stroke-linecap:butt;stroke-linejoin:miter;stroke-miterlimit:10;stroke-opacity:1;"/>
<path class="atom-0" d="M 528.4,120.9 L 528.4,121.1 L 528.4,121.2 L 528.4,121.4 L 528.3,121.6 L 528.2,121.7 L 528.2,121.9 L 528.1,122.0 L 528.0,122.2 L 527.9,122.3 L 527.7,122.4 L 527.6,122.5 L 527.4,122.6 L 527.3,122.7 L 527.1,122.8 L 527.0,122.8 L 526.8,122.8 L 526.6,122.9 L 526.5,122.9 L 526.3,122.9 L 526.1,122.9 L 526.0,122.8 L 525.8,122.8 L 525.6,122.7 L 525.5,122.6 L 525.3,122.6 L 525.2,122.5 L 525.1,122.3 L 524.9,122.2 L 524.8,122.1 L 524.7,121.9 L 524.6,121.8 L 524.6,121.6 L 524.5,121.5 L 524.5,121.3 L 524.4,121.1 L 524.4,121.0 L 524.4,120.8 L 524.4,120.6 L 524.5,120.5 L 524.5,120.3 L 524.6,120.1 L 524.6,120.0 L 524.7,119.8 L 524.8,119.7 L 524.9,119.5 L 525.1,119.4 L 525.2,119.3 L 525.3,119.2 L 525.5,119.1 L 525.6,119.0 L 525.8,119.0 L 526.0,118.9 L 526.1,118.9 L 526.3,118.9 L 526.5,118.9 L 526.6,118.9 L 526.8,118.9 L 527.0,119.0 L 527.1,119.0 L 527.3,119.1 L 527.4,119.2 L 527.6,119.3 L 527.7,119.4 L 527.9,119.5 L 528.0,119.6 L 528.1,119.8 L 528.2,119.9 L 528.2,120.1 L 528.3,120.2 L 528.4,120.4 L 528.4,120.5 L 528.4,120.7 L 528.4,120.9 L 526.4,120.9 Z" style="fill:#000000;fill-rule:evenodd;fill-opacity:1;stroke:#000000;stroke-width:0.0px;stroke-linecap:butt;stroke-linejoin:miter;stroke-miterlimit:10;stroke-opacity:1;"/>
<path class="bond-0 atom-0 atom-1" d="M 202.8,463.8 L 187.8,432.8" style="fill:none;fill-rule:evenodd;stroke:#000000;stroke-width:2.0px;stroke-linecap:butt;stroke-linejoin:miter;stroke-opacity:1"/>
<path class="bond-1 atom-1 atom-2" d="M 187.8,432.8 L 207.2,404.3" style="fill:none;fill-rule:evenodd;stroke:#000000;stroke-width:2.0px;stroke-linecap:butt;stroke-linejoin:miter;stroke-opacity:1"/>
<path class="bond-2 atom-2 atom-3" d="M 207.2,404.3 L 192.3,373.2" style="fill:none;fill-rule:evenodd;stroke:#000000;stroke-width:2.0px;stroke-linecap:butt;stroke-linejoin:miter;stroke-opacity:1"/>
<path class="bond-3 atom-3 atom-4" d="M 192.3,373.2 L 209.0,352.3" style="fill:none;fill-rule:evenodd;stroke:#000000;stroke-width:2.0px;stroke-linecap:butt;stroke-linejoin:miter;stroke-opacity:1"/>
<path class="bond-4 atom-4 atom-5" d="M 212.4,340.2 L 206.1,312.6" style="fill:none;fill-rule:evenodd;stroke:#000000;stroke-width:2.0px;stroke-linecap:butt;stroke-linejoin:miter;stroke-opacity:1"/>
<path class="bond-5 atom-5 atom-6" d="M 206.7,315.4 L 229.0,297.6" style="fill:none;fill-rule:evenodd;stroke:#000000;stroke-width:2.0px;stroke-linecap:butt;stroke-linejoin:miter;stroke-opacity:1"/>
<path class="bond-5 atom-5 atom-6" d="M 203.5,311.4 L 225.8,293.6" style="fill:none;fill-rule:evenodd;stroke:#000000;stroke-width:2.0px;stroke-linecap:butt;stroke-linejoin:miter;stroke-opacity:1"/>
<path class="bond-6 atom-5 atom-7" d="M 206.1,312.6 L 175.0,297.7" style="fill:none;fill-rule:evenodd;stroke:#000000;stroke-width:2.0px;stroke-linecap:butt;stroke-linejoin:miter;stroke-opacity:1"/>
<path class="bond-7 atom-7 atom-8" d="M 175.0,297.7 L 143.9,312.7" style="fill:none;fill-rule:evenodd;stroke:#000000;stroke-width:2.0px;stroke-linecap:butt;stroke-linejoin:miter;stroke-opacity:1"/>
<path class="bond-8 atom-8 atom-9" d="M 143.9,312.7 L 137.6,340.3" style="fill:none;fill-rule:evenodd;stroke:#000000;stroke-width:2.0px;stroke-linecap:butt;stroke-linejoin:miter;stroke-opacity:1"/>
<path class="bond-9 atom-9 atom-10" d="M 133.1,341.9 L 111.9,331.7" style="fill:none;fill-rule:evenodd;stroke:#000000;stroke-width:2.0px;stroke-linecap:butt;stroke-linejoin:miter;stroke-opacity:1"/>
<path class="bond-9 atom-9 atom-10" d="M 130.9,346.6 L 109.7,336.4" style="fill:none;fill-rule:evenodd;stroke:#000000;stroke-width:2.0px;stroke-linecap:butt;stroke-linejoin:miter;stroke-opacity:1"/>
<path class="bond-10 atom-9 atom-11" d="M 130.9,353.1 L 117.6,373.7 L 111.7,372.8 Z" style="fill:#000000;fill-rule:evenodd;fill-opacity:1;stroke:#000000;stroke-width:0.5px;stroke-linecap:butt;stroke-linejoin:miter;stroke-miterlimit:10;stroke-opacity:1;"/>
<path class="bond-11 atom-11 atom-12" d="M 117.6,373.7 L 80.7,368.1" style="fill:none;fill-rule:evenodd;stroke:#000000;stroke-width:2.0px;stroke-linecap:butt;stroke-linejoin:miter;stroke-opacity:1"/>
<path class="bond-12 atom-12 atom-13" d="M 80.7,368.1 L 68.1,336.0" style="fill:none;fill-rule:evenodd;stroke:#000000;stroke-width:2.0px;stroke-linecap:butt;stroke-linejoin:miter;stroke-opacity:1"/>
<path class="bond-12 atom-12 atom-13" d="M 74.8,367.2 L 64.4,340.7" style="fill:none;fill-rule:evenodd;stroke:#000000;stroke-width:2.0px;stroke-linecap:butt;stroke-linejoin:miter;stroke-opacity:1"/>
<path class="bond-13 atom-13 atom-14" d="M 68.1,336.0 L 34.0,330.9" style="fill:none;fill-rule:evenodd;stroke:#000000;stroke-width:2.0px;stroke-linecap:butt;stroke-linejoin:miter;stroke-opacity:1"/>
<path class="bond-14 atom-14 atom-15" d="M 34.0,330.9 L 12.5,357.9" style="fill:none;fill-rule:evenodd;stroke:#000000;stroke-width:2.0px;stroke-linecap:butt;stroke-linejoin:miter;stroke-opacity:1"/>
<path class="bond-14 atom-14 atom-15" d="M 36.2,336.5 L 18.4,358.8" style="fill:none;fill-rule:evenodd;stroke:#000000;stroke-width:2.0px;stroke-linecap:butt;stroke-linejoin:miter;stroke-opacity:1"/>
<path class="bond-15 atom-15 atom-16" d="M 12.5,357.9 L 25.1,390.0" style="fill:none;fill-rule:evenodd;stroke:#000000;stroke-width:2.0px;stroke-linecap:butt;stroke-linejoin:miter;stroke-opacity:1"/>
<path class="bond-16 atom-16 atom-17" d="M 25.1,390.0 L 59.2,395.1" style="fill:none;fill-rule:evenodd;stroke:#000000;stroke-width:2.0px;stroke-linecap:butt;stroke-linejoin:miter;stroke-opacity:1"/>
<path class="bond-16 atom-16 atom-17" d="M 28.8,385.3 L 57.0,389.5" style="fill:none;fill-rule:evenodd;stroke:#000000;stroke-width:2.0px;stroke-linecap:butt;stroke-linejoin:miter;stroke-opacity:1"/>
<path class="bond-17 atom-3 atom-18" d="M 192.3,373.2 L 162.6,373.2" style="fill:none;fill-rule:evenodd;stroke:#000000;stroke-width:2.0px;stroke-linecap:butt;stroke-linejoin:miter;stroke-opacity:1"/>
<path class="bond-18 atom-9 atom-18" d="M 136.5,354.8 L 153.0,367.2" style="fill:none;fill-rule:evenodd;stroke:#000000;stroke-width:2.0px;stroke-linecap:butt;stroke-linejoin:miter;stroke-opacity:1"/>
<path class="bond-18 atom-9 atom-18" d="M 140.5,351.6 L 157.0,364.0" style="fill:none;fill-rule:evenodd;stroke:#000000;stroke-width:2.0px;stroke-linecap:butt;stroke-linejoin:miter;stroke-opacity:1"/>
<path class="bond-19 atom-17 atom-12" d="M 59.2,395.1 L 80.7,368.1" style="fill:none;fill-rule:evenodd;stroke:#000000;stroke-width:2.0px;stroke-linecap:butt;stroke-linejoin:miter;stroke-opacity:1"/>
<path d="M 188.6,434.3 L 187.8,432.8 L 188.8,431.3" style="fill:none;stroke:#000000;stroke-width:2.0px;stroke-linecap:butt;stroke-linejoin:miter;stroke-miterlimit:10;stroke-opacity:1;"/>
<path d="M 206.3,405.7 L 207.2,404.3 L 206.5,402.7" style="fill:none;stroke:#000000;stroke-width:2.0px;stroke-linecap:butt;stroke-linejoin:miter;stroke-miterlimit:10;stroke-opacity:1;"/>
<path d="M 206.4,314.0 L 206.1,312.6 L 204.5,311.9" style="fill:none;stroke:#000000;stroke-width:2.0px;stroke-linecap:butt;stroke-linejoin:miter;stroke-miterlimit:10;stroke-opacity:1;"/>
<path d="M 176.5,298.4 L 175.0,297.7 L 173.4,298.4" style="fill:none;stroke:#000000;stroke-width:2.0px;stroke-linecap:butt;stroke-linejoin:miter;stroke-miterlimit:10;stroke-opacity:1;"/>
<path d="M 145.5,311.9 L 143.9,312.7 L 143.6,314.0" style="fill:none;stroke:#000000;stroke-width:2.0px;stroke-linecap:butt;stroke-linejoin:miter;stroke-miterlimit:10;stroke-opacity:1;"/>
<path d="M 68.7,337.6 L 68.1,336.0 L 66.4,335.8" style="fill:none;stroke:#000000;stroke-width:2.0px;stroke-linecap:butt;stroke-linejoin:miter;stroke-miterlimit:10;stroke-opacity:1;"/>
<path d="M 35.7,331.2 L 34.0,330.9 L 32.9,332.3" style="fill:none;stroke:#000000;stroke-width:2.0px;stroke-linecap:butt;stroke-linejoin:miter;stroke-miterlimit:10;stroke-opacity:1;"/>
<path d="M 13.6,356.5 L 12.5,357.9 L 13.1,359.5" style="fill:none;stroke:#000000;stroke-width:2.0px;stroke-linecap:butt;stroke-linejoin:miter;stroke-miterlimit:10;stroke-opacity:1;"/>
<path d="M 24.5,388.4 L 25.1,390.0 L 26.8,390.2" style="fill:none;stroke:#000000;stroke-width:2.0px;stroke-linecap:butt;stroke-linejoin:miter;stroke-miterlimit:10;stroke-opacity:1;"/>
<path d="M 57.5,394.8 L 59.2,395.1 L 60.3,393.7" style="fill:none;stroke:#000000;stroke-width:2.0px;stroke-linecap:butt;stroke-linejoin:miter;stroke-miterlimit:10;stroke-opacity:1;"/>
<path class="atom-4" d="M 211.6 341.4 L 214.8 346.5 Q 215.1 347.0, 215.6 348.0 Q 216.1 348.9, 216.2 348.9 L 216.2 341.4 L 217.5 341.4 L 217.5 351.1 L 216.1 351.1 L 212.7 345.5 Q 212.3 344.8, 211.9 344.0 Q 211.4 343.3, 211.3 343.1 L 211.3 351.1 L 210.1 351.1 L 210.1 341.4 L 211.6 341.4 " fill="#000000"/>
<path class="atom-4" d="M 219.4 341.4 L 220.7 341.4 L 220.7 345.5 L 225.7 345.5 L 225.7 341.4 L 227.0 341.4 L 227.0 351.1 L 225.7 351.1 L 225.7 346.6 L 220.7 346.6 L 220.7 351.1 L 219.4 351.1 L 219.4 341.4 " fill="#000000"/>
<path class="atom-6" d="M 228.5 291.1 Q 228.5 288.8, 229.7 287.5 Q 230.9 286.2, 233.0 286.2 Q 235.2 286.2, 236.3 287.5 Q 237.5 288.8, 237.5 291.1 Q 237.5 293.5, 236.3 294.9 Q 235.2 296.2, 233.0 296.2 Q 230.9 296.2, 229.7 294.9 Q 228.5 293.5, 228.5 291.1 M 233.0 295.1 Q 234.5 295.1, 235.3 294.1 Q 236.1 293.1, 236.1 291.1 Q 236.1 289.2, 235.3 288.3 Q 234.5 287.3, 233.0 287.3 Q 231.5 287.3, 230.7 288.2 Q 229.9 289.2, 229.9 291.1 Q 229.9 293.1, 230.7 294.1 Q 231.5 295.1, 233.0 295.1 " fill="#000000"/>
<path class="atom-9" d="M 133.5 349.6 Q 133.6 349.7, 134.1 349.9 Q 134.5 350.1, 135.0 350.2 Q 135.5 350.3, 136.0 350.3 Q 137.0 350.3, 137.5 349.8 Q 138.0 349.4, 138.0 348.6 Q 138.0 348.1, 137.8 347.7 Q 137.5 347.4, 137.1 347.2 Q 136.7 347.0, 136.0 346.8 Q 135.1 346.6, 134.6 346.3 Q 134.1 346.1, 133.7 345.6 Q 133.4 345.0, 133.4 344.2 Q 133.4 342.9, 134.2 342.2 Q 135.0 341.4, 136.7 341.4 Q 137.8 341.4, 139.1 341.9 L 138.8 343.0 Q 137.6 342.5, 136.7 342.5 Q 135.8 342.5, 135.2 342.9 Q 134.7 343.3, 134.7 344.0 Q 134.7 344.5, 135.0 344.8 Q 135.3 345.1, 135.7 345.3 Q 136.1 345.5, 136.7 345.7 Q 137.6 346.0, 138.1 346.3 Q 138.7 346.5, 139.0 347.1 Q 139.4 347.7, 139.4 348.6 Q 139.4 350.0, 138.5 350.7 Q 137.6 351.4, 136.1 351.4 Q 135.2 351.4, 134.6 351.2 Q 133.9 351.0, 133.1 350.7 L 133.5 349.6 " fill="#000000"/>
<path class="atom-10" d="M 100.7 331.4 Q 100.7 329.0, 101.9 327.7 Q 103.0 326.4, 105.2 326.4 Q 107.4 326.4, 108.5 327.7 Q 109.7 329.0, 109.7 331.4 Q 109.7 333.7, 108.5 335.1 Q 107.3 336.4, 105.2 336.4 Q 103.1 336.4, 101.9 335.1 Q 100.7 333.7, 100.7 331.4 M 105.2 335.3 Q 106.7 335.3, 107.5 334.3 Q 108.3 333.3, 108.3 331.4 Q 108.3 329.4, 107.5 328.5 Q 106.7 327.5, 105.2 327.5 Q 103.7 327.5, 102.9 328.5 Q 102.1 329.4, 102.1 331.4 Q 102.1 333.3, 102.9 334.3 Q 103.7 335.3, 105.2 335.3 " fill="#000000"/>
<path class="atom-18" d="M 155.6 368.3 L 158.8 373.5 Q 159.2 374.0, 159.7 374.9 Q 160.2 375.9, 160.2 375.9 L 160.2 368.3 L 161.5 368.3 L 161.5 378.1 L 160.2 378.1 L 156.7 372.5 Q 156.3 371.8, 155.9 371.0 Q 155.5 370.3, 155.4 370.0 L 155.4 378.1 L 154.1 378.1 L 154.1 368.3 L 155.6 368.3 " fill="#000000"/>
<path class="bond-0 atom-0 atom-1" d="M 474.3,431.3 L 453.7,410.4" style="fill:none;fill-rule:evenodd;stroke:#000000;stroke-width:2.0px;stroke-linecap:butt;stroke-linejoin:miter;stroke-opacity:1"/>
<path class="bond-0 atom-0 atom-1" d="M 478.4,427.3 L 460.1,408.7" style="fill:none;fill-rule:evenodd;stroke:#000000;stroke-width:2.0px;stroke-linecap:butt;stroke-linejoin:miter;stroke-opacity:1"/>
<path class="bond-1 atom-1 atom-2" d="M 453.7,410.4 L 462.1,380.2" style="fill:none;fill-rule:evenodd;stroke:#000000;stroke-width:2.0px;stroke-linecap:butt;stroke-linejoin:miter;stroke-opacity:1"/>
<path class="bond-2 atom-2 atom-3" d="M 458.6,368.1 L 437.2,346.3" style="fill:none;fill-rule:evenodd;stroke:#000000;stroke-width:2.0px;stroke-linecap:butt;stroke-linejoin:miter;stroke-opacity:1"/>
<path class="bond-3 atom-3 atom-4" d="M 437.2,346.3 L 444.6,308.8 L 450.1,310.3 Z" style="fill:#000000;fill-rule:evenodd;fill-opacity:1;stroke:#000000;stroke-width:0.5px;stroke-linecap:butt;stroke-linejoin:miter;stroke-miterlimit:10;stroke-opacity:1;"/>
<path class="bond-4 atom-3 atom-5" d="M 437.2,346.3 L 400.2,355.9" style="fill:none;fill-rule:evenodd;stroke:#000000;stroke-width:2.0px;stroke-linecap:butt;stroke-linejoin:miter;stroke-opacity:1"/>
<path class="bond-5 atom-5 atom-6" d="M 400.2,355.9 L 390.0,392.7" style="fill:none;fill-rule:evenodd;stroke:#000000;stroke-width:2.0px;stroke-linecap:butt;stroke-linejoin:miter;stroke-opacity:1"/>
<path class="bond-6 atom-6 atom-7" d="M 390.0,392.7 L 353.0,402.3" style="fill:none;fill-rule:evenodd;stroke:#000000;stroke-width:2.0px;stroke-linecap:butt;stroke-linejoin:miter;stroke-opacity:1"/>
<path class="bond-7 atom-7 atom-8" d="M 353.0,402.3 L 342.8,439.1" style="fill:none;fill-rule:evenodd;stroke:#000000;stroke-width:2.0px;stroke-linecap:butt;stroke-linejoin:miter;stroke-opacity:1"/>
<path class="bond-8 atom-7 atom-9" d="M 353.0,402.3 L 331.6,380.5" style="fill:none;fill-rule:evenodd;stroke:#000000;stroke-width:2.0px;stroke-linecap:butt;stroke-linejoin:miter;stroke-opacity:1"/>
<path class="bond-8 atom-7 atom-9" d="M 348.9,406.3 L 327.5,384.5" style="fill:none;fill-rule:evenodd;stroke:#000000;stroke-width:2.0px;stroke-linecap:butt;stroke-linejoin:miter;stroke-opacity:1"/>
<path class="bond-9 atom-9 atom-10" d="M 320.9,376.4 L 295.5,383.0" style="fill:none;fill-rule:evenodd;stroke:#000000;stroke-width:2.0px;stroke-linecap:butt;stroke-linejoin:miter;stroke-opacity:1"/>
<path class="bond-10 atom-10 atom-11" d="M 283.0,378.2 L 262.5,357.3" style="fill:none;fill-rule:evenodd;stroke:#000000;stroke-width:2.0px;stroke-linecap:butt;stroke-linejoin:miter;stroke-opacity:1"/>
<path d="M 454.8,411.4 L 453.7,410.4 L 454.1,408.9" style="fill:none;stroke:#000000;stroke-width:2.0px;stroke-linecap:butt;stroke-linejoin:miter;stroke-miterlimit:10;stroke-opacity:1;"/>
<path d="M 438.2,347.4 L 437.2,346.3 L 435.3,346.8" style="fill:none;stroke:#000000;stroke-width:2.0px;stroke-linecap:butt;stroke-linejoin:miter;stroke-miterlimit:10;stroke-opacity:1;"/>
<path d="M 402.0,355.4 L 400.2,355.9 L 399.7,357.7" style="fill:none;stroke:#000000;stroke-width:2.0px;stroke-linecap:butt;stroke-linejoin:miter;stroke-miterlimit:10;stroke-opacity:1;"/>
<path d="M 390.5,390.9 L 390.0,392.7 L 388.1,393.2" style="fill:none;stroke:#000000;stroke-width:2.0px;stroke-linecap:butt;stroke-linejoin:miter;stroke-miterlimit:10;stroke-opacity:1;"/>
<path class="atom-0" d="M 477.6 435.6 Q 477.6 433.0, 478.9 431.6 Q 480.1 430.1, 482.5 430.1 Q 484.9 430.1, 486.2 431.6 Q 487.5 433.0, 487.5 435.6 Q 487.5 438.3, 486.2 439.8 Q 484.9 441.2, 482.5 441.2 Q 480.2 441.2, 478.9 439.8 Q 477.6 438.3, 477.6 435.6 M 482.5 440.0 Q 484.2 440.0, 485.1 438.9 Q 486.0 437.8, 486.0 435.6 Q 486.0 433.5, 485.1 432.4 Q 484.2 431.4, 482.5 431.4 Q 480.9 431.4, 480.0 432.4 Q 479.1 433.5, 479.1 435.6 Q 479.1 437.8, 480.0 438.9 Q 480.9 440.0, 482.5 440.0 " fill="#000000"/>
<path class="atom-2" d="M 461.5 368.2 L 465.1 373.9 Q 465.4 374.5, 466.0 375.5 Q 466.6 376.5, 466.6 376.6 L 466.6 368.2 L 468.0 368.2 L 468.0 379.0 L 466.6 379.0 L 462.7 372.7 Q 462.3 372.0, 461.8 371.1 Q 461.4 370.3, 461.2 370.0 L 461.2 379.0 L 459.8 379.0 L 459.8 368.2 L 461.5 368.2 " fill="#000000"/>
<path class="atom-2" d="M 470.1 368.2 L 471.6 368.2 L 471.6 372.8 L 477.1 372.8 L 477.1 368.2 L 478.6 368.2 L 478.6 379.0 L 477.1 379.0 L 477.1 374.0 L 471.6 374.0 L 471.6 379.0 L 470.1 379.0 L 470.1 368.2 " fill="#000000"/>
<path class="atom-9" d="M 323.9 369.6 L 327.4 375.3 Q 327.7 375.9, 328.3 376.9 Q 328.9 377.9, 328.9 378.0 L 328.9 369.6 L 330.3 369.6 L 330.3 380.4 L 328.9 380.4 L 325.1 374.2 Q 324.6 373.4, 324.1 372.6 Q 323.7 371.7, 323.5 371.5 L 323.5 380.4 L 322.1 380.4 L 322.1 369.6 L 323.9 369.6 " fill="#000000"/>
<path class="atom-10" d="M 284.3 384.6 Q 284.3 382.0, 285.6 380.6 Q 286.9 379.1, 289.3 379.1 Q 291.7 379.1, 292.9 380.6 Q 294.2 382.0, 294.2 384.6 Q 294.2 387.2, 292.9 388.7 Q 291.6 390.2, 289.3 390.2 Q 286.9 390.2, 285.6 388.7 Q 284.3 387.2, 284.3 384.6 M 289.3 389.0 Q 290.9 389.0, 291.8 387.9 Q 292.7 386.8, 292.7 384.6 Q 292.7 382.5, 291.8 381.4 Q 290.9 380.3, 289.3 380.3 Q 287.6 380.3, 286.7 381.4 Q 285.8 382.5, 285.8 384.6 Q 285.8 386.8, 286.7 387.9 Q 287.6 389.0, 289.3 389.0 " fill="#000000"/>
<path class="bond-0 atom-0 atom-1" d="M 630.7,402.9 L 661.5,441.3 L 655.5,445.5 Z" style="fill:#000000;fill-rule:evenodd;fill-opacity:1;stroke:#000000;stroke-width:0.5px;stroke-linecap:butt;stroke-linejoin:miter;stroke-miterlimit:10;stroke-opacity:1;"/>
<path class="bond-1 atom-0 atom-2" d="M 630.7,402.9 L 589.3,395.3" style="fill:none;fill-rule:evenodd;stroke:#000000;stroke-width:2.0px;stroke-linecap:butt;stroke-linejoin:miter;stroke-opacity:1"/>
<path class="bond-2 atom-2 atom-3" d="M 575.5,394.9 L 533.7,400.5" style="fill:none;fill-rule:evenodd;stroke:#000000;stroke-width:2.0px;stroke-linecap:butt;stroke-linejoin:miter;stroke-opacity:1"/>
<path class="bond-3 atom-3 atom-4" d="M 533.7,400.5 L 512.5,356.1" style="fill:none;fill-rule:evenodd;stroke:#000000;stroke-width:2.0px;stroke-linecap:butt;stroke-linejoin:miter;stroke-opacity:1"/>
<path class="bond-4 atom-4 atom-5" d="M 512.5,356.1 L 548.1,322.3" style="fill:none;fill-rule:evenodd;stroke:#000000;stroke-width:2.0px;stroke-linecap:butt;stroke-linejoin:miter;stroke-opacity:1"/>
<path class="bond-5 atom-5 atom-6" d="M 548.1,322.3 L 591.3,345.7" style="fill:none;fill-rule:evenodd;stroke:#000000;stroke-width:2.0px;stroke-linecap:butt;stroke-linejoin:miter;stroke-opacity:1"/>
<path class="bond-6 atom-6 atom-7" d="M 591.3,345.7 L 639.6,354.6" style="fill:none;fill-rule:evenodd;stroke:#000000;stroke-width:2.0px;stroke-linecap:butt;stroke-linejoin:miter;stroke-opacity:1"/>
<path class="bond-6 atom-6 atom-7" d="M 597.2,354.3 L 631.0,360.5" style="fill:none;fill-rule:evenodd;stroke:#000000;stroke-width:2.0px;stroke-linecap:butt;stroke-linejoin:miter;stroke-opacity:1"/>
<path class="bond-7 atom-7 atom-8" d="M 639.6,354.6 L 673.1,331.5" style="fill:none;fill-rule:evenodd;stroke:#000000;stroke-width:2.0px;stroke-linecap:butt;stroke-linejoin:miter;stroke-opacity:1"/>
<path class="bond-8 atom-8 atom-9" d="M 686.9,330.1 L 716.4,344.1" style="fill:none;fill-rule:evenodd;stroke:#000000;stroke-width:2.0px;stroke-linecap:butt;stroke-linejoin:miter;stroke-opacity:1"/>
<path class="bond-9 atom-7 atom-0" d="M 639.6,354.6 L 630.7,402.9" style="fill:none;fill-rule:evenodd;stroke:#000000;stroke-width:2.0px;stroke-linecap:butt;stroke-linejoin:miter;stroke-opacity:1"/>
<path class="bond-10 atom-6 atom-2" d="M 591.3,345.7 L 583.9,385.4" style="fill:none;fill-rule:evenodd;stroke:#000000;stroke-width:2.0px;stroke-linecap:butt;stroke-linejoin:miter;stroke-opacity:1"/>
<path d="M 628.6,402.5 L 630.7,402.9 L 631.1,400.5" style="fill:none;stroke:#000000;stroke-width:2.0px;stroke-linecap:butt;stroke-linejoin:miter;stroke-miterlimit:10;stroke-opacity:1;"/>
<path d="M 535.8,400.2 L 533.7,400.5 L 532.6,398.2" style="fill:none;stroke:#000000;stroke-width:2.0px;stroke-linecap:butt;stroke-linejoin:miter;stroke-miterlimit:10;stroke-opacity:1;"/>
<path d="M 513.6,358.4 L 512.5,356.1 L 514.3,354.5" style="fill:none;stroke:#000000;stroke-width:2.0px;stroke-linecap:butt;stroke-linejoin:miter;stroke-miterlimit:10;stroke-opacity:1;"/>
<path d="M 546.3,324.0 L 548.1,322.3 L 550.3,323.5" style="fill:none;stroke:#000000;stroke-width:2.0px;stroke-linecap:butt;stroke-linejoin:miter;stroke-miterlimit:10;stroke-opacity:1;"/>
<path class="atom-2" d="M 579.3 387.1 L 583.8 394.4 Q 584.3 395.2, 585.0 396.5 Q 585.8 397.8, 585.8 397.9 L 585.8 387.1 L 587.6 387.1 L 587.6 401.0 L 585.7 401.0 L 580.8 392.9 Q 580.3 392.0, 579.7 390.9 Q 579.1 389.8, 578.9 389.5 L 578.9 401.0 L 577.1 401.0 L 577.1 387.1 L 579.3 387.1 " fill="#000000"/>
<path class="atom-2" d="M 590.3 389.6 L 592.7 389.6 L 592.7 387.0 L 593.8 387.0 L 593.8 389.6 L 596.3 389.6 L 596.3 390.5 L 593.8 390.5 L 593.8 393.1 L 592.7 393.1 L 592.7 390.5 L 590.3 390.5 L 590.3 389.6 " fill="#000000"/>
<path class="atom-2" d="M 576.9 402.4 L 578.8 402.4 L 578.8 408.3 L 585.9 408.3 L 585.9 402.4 L 587.8 402.4 L 587.8 416.3 L 585.9 416.3 L 585.9 409.8 L 578.8 409.8 L 578.8 416.3 L 576.9 416.3 L 576.9 402.4 " fill="#000000"/>
<path class="atom-8" d="M 677.0 319.8 L 681.5 327.2 Q 682.0 327.9, 682.7 329.2 Q 683.4 330.6, 683.5 330.6 L 683.5 319.8 L 685.3 319.8 L 685.3 333.7 L 683.4 333.7 L 678.5 325.7 Q 677.9 324.7, 677.3 323.7 Q 676.7 322.6, 676.6 322.2 L 676.6 333.7 L 674.8 333.7 L 674.8 319.8 L 677.0 319.8 " fill="#000000"/>
<path class="atom-8" d="M 674.6 304.5 L 676.5 304.5 L 676.5 310.4 L 683.6 310.4 L 683.6 304.5 L 685.5 304.5 L 685.5 318.4 L 683.6 318.4 L 683.6 312.0 L 676.5 312.0 L 676.5 318.4 L 674.6 318.4 L 674.6 304.5 " fill="#000000"/>
<path class="atom-9" d="M 718.0 347.9 Q 718.0 344.6, 719.6 342.7 Q 721.3 340.9, 724.4 340.9 Q 727.5 340.9, 729.1 342.7 Q 730.8 344.6, 730.8 347.9 Q 730.8 351.3, 729.1 353.2 Q 727.4 355.1, 724.4 355.1 Q 721.3 355.1, 719.6 353.2 Q 718.0 351.3, 718.0 347.9 M 724.4 353.6 Q 726.5 353.6, 727.6 352.2 Q 728.8 350.7, 728.8 347.9 Q 728.8 345.2, 727.6 343.8 Q 726.5 342.4, 724.4 342.4 Q 722.3 342.4, 721.1 343.8 Q 720.0 345.2, 720.0 347.9 Q 720.0 350.7, 721.1 352.2 Q 722.3 353.6, 724.4 353.6 " fill="#000000"/>
<path class="atom-9" d="M 732.7 343.1 L 737.5 343.1 L 737.5 344.2 L 732.7 344.2 L 732.7 343.1 " fill="#000000"/>
<path class="bond-0 atom-0 atom-1" d="M 164.0,653.8 L 194.4,668.1" style="fill:none;fill-rule:evenodd;stroke:#000000;stroke-width:2.0px;stroke-linecap:butt;stroke-linejoin:miter;stroke-opacity:1"/>
<path class="bond-0 atom-0 atom-1" d="M 168.4,650.3 L 194.4,662.5" style="fill:none;fill-rule:evenodd;stroke:#000000;stroke-width:2.0px;stroke-linecap:butt;stroke-linejoin:miter;stroke-opacity:1"/>
<path class="bond-1 atom-1 atom-2" d="M 194.4,668.1 L 219.9,655.6" style="fill:none;fill-rule:evenodd;stroke:#000000;stroke-width:2.0px;stroke-linecap:butt;stroke-linejoin:miter;stroke-opacity:1"/>
<path class="bond-2 atom-2 atom-3" d="M 225.9,647.5 L 231.8,620.5" style="fill:none;fill-rule:evenodd;stroke:#000000;stroke-width:2.0px;stroke-linecap:butt;stroke-linejoin:miter;stroke-opacity:1"/>
<path class="bond-3 atom-3 atom-4" d="M 231.8,620.5 L 210.7,594.4" style="fill:none;fill-rule:evenodd;stroke:#000000;stroke-width:2.0px;stroke-linecap:butt;stroke-linejoin:miter;stroke-opacity:1"/>
<path class="bond-3 atom-3 atom-4" d="M 226.4,621.8 L 208.3,599.4" style="fill:none;fill-rule:evenodd;stroke:#000000;stroke-width:2.0px;stroke-linecap:butt;stroke-linejoin:miter;stroke-opacity:1"/>
<path class="bond-4 atom-4 atom-5" d="M 210.7,594.4 L 181.8,594.6" style="fill:none;fill-rule:evenodd;stroke:#000000;stroke-width:2.0px;stroke-linecap:butt;stroke-linejoin:miter;stroke-opacity:1"/>
<path class="bond-5 atom-5 atom-6" d="M 172.5,600.5 L 156.3,621.1" style="fill:none;fill-rule:evenodd;stroke:#000000;stroke-width:2.0px;stroke-linecap:butt;stroke-linejoin:miter;stroke-opacity:1"/>
<path class="bond-5 atom-5 atom-6" d="M 176.4,603.6 L 161.8,622.3" style="fill:none;fill-rule:evenodd;stroke:#000000;stroke-width:2.0px;stroke-linecap:butt;stroke-linejoin:miter;stroke-opacity:1"/>
<path class="bond-6 atom-6 atom-7" d="M 156.3,621.1 L 123.5,613.8" style="fill:none;fill-rule:evenodd;stroke:#000000;stroke-width:2.0px;stroke-linecap:butt;stroke-linejoin:miter;stroke-opacity:1"/>
<path class="bond-7 atom-7 atom-8" d="M 123.5,613.8 L 113.3,581.8" style="fill:none;fill-rule:evenodd;stroke:#000000;stroke-width:2.0px;stroke-linecap:butt;stroke-linejoin:miter;stroke-opacity:1"/>
<path class="bond-7 atom-7 atom-8" d="M 117.8,612.6 L 109.4,586.1" style="fill:none;fill-rule:evenodd;stroke:#000000;stroke-width:2.0px;stroke-linecap:butt;stroke-linejoin:miter;stroke-opacity:1"/>
<path class="bond-8 atom-8 atom-9" d="M 113.3,581.8 L 80.5,574.6" style="fill:none;fill-rule:evenodd;stroke:#000000;stroke-width:2.0px;stroke-linecap:butt;stroke-linejoin:miter;stroke-opacity:1"/>
<path class="bond-9 atom-9 atom-10" d="M 80.5,574.6 L 57.9,599.4" style="fill:none;fill-rule:evenodd;stroke:#000000;stroke-width:2.0px;stroke-linecap:butt;stroke-linejoin:miter;stroke-opacity:1"/>
<path class="bond-9 atom-9 atom-10" d="M 82.3,580.1 L 63.5,600.6" style="fill:none;fill-rule:evenodd;stroke:#000000;stroke-width:2.0px;stroke-linecap:butt;stroke-linejoin:miter;stroke-opacity:1"/>
<path class="bond-10 atom-10 atom-11" d="M 57.9,599.4 L 68.0,631.4" style="fill:none;fill-rule:evenodd;stroke:#000000;stroke-width:2.0px;stroke-linecap:butt;stroke-linejoin:miter;stroke-opacity:1"/>
<path class="bond-11 atom-11 atom-12" d="M 68.0,631.4 L 50.7,650.3" style="fill:none;fill-rule:evenodd;stroke:#000000;stroke-width:2.0px;stroke-linecap:butt;stroke-linejoin:miter;stroke-opacity:1"/>
<path class="bond-12 atom-12 atom-13" d="M 39.8,655.0 L 12.5,649.0" style="fill:none;fill-rule:evenodd;stroke:#000000;stroke-width:2.0px;stroke-linecap:butt;stroke-linejoin:miter;stroke-opacity:1"/>
<path class="bond-13 atom-11 atom-14" d="M 68.0,631.4 L 100.8,638.6" style="fill:none;fill-rule:evenodd;stroke:#000000;stroke-width:2.0px;stroke-linecap:butt;stroke-linejoin:miter;stroke-opacity:1"/>
<path class="bond-13 atom-11 atom-14" d="M 71.9,627.1 L 99.1,633.1" style="fill:none;fill-rule:evenodd;stroke:#000000;stroke-width:2.0px;stroke-linecap:butt;stroke-linejoin:miter;stroke-opacity:1"/>
<path class="bond-14 atom-14 atom-15" d="M 100.8,638.6 L 109.1,664.8" style="fill:none;fill-rule:evenodd;stroke:#000000;stroke-width:2.0px;stroke-linecap:butt;stroke-linejoin:miter;stroke-opacity:1"/>
<path class="bond-15 atom-6 atom-0" d="M 156.3,621.1 L 164.0,653.8" style="fill:none;fill-rule:evenodd;stroke:#000000;stroke-width:2.0px;stroke-linecap:butt;stroke-linejoin:miter;stroke-opacity:1"/>
<path class="bond-16 atom-14 atom-7" d="M 100.8,638.6 L 123.5,613.8" style="fill:none;fill-rule:evenodd;stroke:#000000;stroke-width:2.0px;stroke-linecap:butt;stroke-linejoin:miter;stroke-opacity:1"/>
<path d="M 165.6,654.5 L 164.0,653.8 L 163.6,652.1" style="fill:none;stroke:#000000;stroke-width:2.0px;stroke-linecap:butt;stroke-linejoin:miter;stroke-miterlimit:10;stroke-opacity:1;"/>
<path d="M 192.9,667.4 L 194.4,668.1 L 195.7,667.5" style="fill:none;stroke:#000000;stroke-width:2.0px;stroke-linecap:butt;stroke-linejoin:miter;stroke-miterlimit:10;stroke-opacity:1;"/>
<path d="M 231.5,621.9 L 231.8,620.5 L 230.8,619.2" style="fill:none;stroke:#000000;stroke-width:2.0px;stroke-linecap:butt;stroke-linejoin:miter;stroke-miterlimit:10;stroke-opacity:1;"/>
<path d="M 211.7,595.7 L 210.7,594.4 L 209.2,594.4" style="fill:none;stroke:#000000;stroke-width:2.0px;stroke-linecap:butt;stroke-linejoin:miter;stroke-miterlimit:10;stroke-opacity:1;"/>
<path d="M 113.9,583.4 L 113.3,581.8 L 111.7,581.4" style="fill:none;stroke:#000000;stroke-width:2.0px;stroke-linecap:butt;stroke-linejoin:miter;stroke-miterlimit:10;stroke-opacity:1;"/>
<path d="M 82.2,574.9 L 80.5,574.6 L 79.4,575.8" style="fill:none;stroke:#000000;stroke-width:2.0px;stroke-linecap:butt;stroke-linejoin:miter;stroke-miterlimit:10;stroke-opacity:1;"/>
<path d="M 59.0,598.1 L 57.9,599.4 L 58.4,601.0" style="fill:none;stroke:#000000;stroke-width:2.0px;stroke-linecap:butt;stroke-linejoin:miter;stroke-miterlimit:10;stroke-opacity:1;"/>
<path class="atom-2" d="M 222.5 648.6 L 225.6 653.6 Q 225.9 654.1, 226.4 655.0 Q 226.9 655.9, 226.9 656.0 L 226.9 648.6 L 228.2 648.6 L 228.2 658.1 L 226.9 658.1 L 223.6 652.6 Q 223.2 651.9, 222.7 651.2 Q 222.3 650.4, 222.2 650.2 L 222.2 658.1 L 221.0 658.1 L 221.0 648.6 L 222.5 648.6 " fill="#000000"/>
<path class="atom-2" d="M 230.1 648.6 L 231.3 648.6 L 231.3 652.6 L 236.2 652.6 L 236.2 648.6 L 237.5 648.6 L 237.5 658.1 L 236.2 658.1 L 236.2 653.7 L 231.3 653.7 L 231.3 658.1 L 230.1 658.1 L 230.1 648.6 " fill="#000000"/>
<path class="atom-5" d="M 175.0 589.9 L 178.1 594.9 Q 178.4 595.4, 178.9 596.3 Q 179.4 597.2, 179.4 597.3 L 179.4 589.9 L 180.7 589.9 L 180.7 599.4 L 179.4 599.4 L 176.0 593.9 Q 175.6 593.2, 175.2 592.5 Q 174.8 591.8, 174.7 591.5 L 174.7 599.4 L 173.5 599.4 L 173.5 589.9 L 175.0 589.9 " fill="#000000"/>
<path class="atom-12" d="M 41.0 656.2 Q 41.0 654.0, 42.1 652.7 Q 43.2 651.4, 45.3 651.4 Q 47.4 651.4, 48.6 652.7 Q 49.7 654.0, 49.7 656.2 Q 49.7 658.6, 48.5 659.9 Q 47.4 661.2, 45.3 661.2 Q 43.2 661.2, 42.1 659.9 Q 41.0 658.6, 41.0 656.2 M 45.3 660.1 Q 46.8 660.1, 47.6 659.1 Q 48.3 658.1, 48.3 656.2 Q 48.3 654.4, 47.6 653.4 Q 46.8 652.5, 45.3 652.5 Q 43.9 652.5, 43.1 653.4 Q 42.3 654.4, 42.3 656.2 Q 42.3 658.2, 43.1 659.1 Q 43.9 660.1, 45.3 660.1 " fill="#000000"/>
<path class="atom-15" d="M 108.1 665.9 L 113.8 665.9 L 113.8 667.0 L 109.4 667.0 L 109.4 669.9 L 113.3 669.9 L 113.3 671.0 L 109.4 671.0 L 109.4 675.4 L 108.1 675.4 L 108.1 665.9 " fill="#000000"/>
<path class="bond-0 atom-0 atom-1" d="M 324.7,661.8 L 295.8,670.8" style="fill:none;fill-rule:evenodd;stroke:#000000;stroke-width:2.0px;stroke-linecap:butt;stroke-linejoin:miter;stroke-opacity:1"/>
<path class="bond-1 atom-1 atom-2" d="M 295.8,670.8 L 262.5,681.0" style="fill:none;fill-rule:evenodd;stroke:#000000;stroke-width:2.0px;stroke-linecap:butt;stroke-linejoin:miter;stroke-opacity:1"/>
<path class="bond-2 atom-2 atom-3" d="M 262.5,681.0 L 270.3,647.1" style="fill:none;fill-rule:evenodd;stroke:#000000;stroke-width:2.0px;stroke-linecap:butt;stroke-linejoin:miter;stroke-opacity:1"/>
<path class="bond-3 atom-3 atom-4" d="M 270.3,647.1 L 276.6,619.2" style="fill:none;fill-rule:evenodd;stroke:#000000;stroke-width:2.0px;stroke-linecap:butt;stroke-linejoin:miter;stroke-opacity:1"/>
<path class="bond-3 atom-3 atom-4" d="M 276.0,645.3 L 281.7,620.4" style="fill:none;fill-rule:evenodd;stroke:#000000;stroke-width:2.0px;stroke-linecap:butt;stroke-linejoin:miter;stroke-opacity:1"/>
<path class="bond-4 atom-4 atom-5" d="M 282.9,611.7 L 311.3,602.9" style="fill:none;fill-rule:evenodd;stroke:#000000;stroke-width:2.0px;stroke-linecap:butt;stroke-linejoin:miter;stroke-opacity:1"/>
<path class="bond-5 atom-5 atom-6" d="M 311.3,602.9 L 319.0,569.0" style="fill:none;fill-rule:evenodd;stroke:#000000;stroke-width:2.0px;stroke-linecap:butt;stroke-linejoin:miter;stroke-opacity:1"/>
<path class="bond-6 atom-5 atom-7" d="M 311.3,602.9 L 336.8,626.6" style="fill:none;fill-rule:evenodd;stroke:#000000;stroke-width:2.0px;stroke-linecap:butt;stroke-linejoin:miter;stroke-opacity:1"/>
<path class="bond-6 atom-5 atom-7" d="M 309.9,608.8 L 331.0,628.4" style="fill:none;fill-rule:evenodd;stroke:#000000;stroke-width:2.0px;stroke-linecap:butt;stroke-linejoin:miter;stroke-opacity:1"/>
<path class="bond-7 atom-7 atom-8" d="M 336.8,626.6 L 370.0,616.3" style="fill:none;fill-rule:evenodd;stroke:#000000;stroke-width:2.0px;stroke-linecap:butt;stroke-linejoin:miter;stroke-opacity:1"/>
<path class="bond-8 atom-8 atom-9" d="M 370.0,616.3 L 395.5,640.0" style="fill:none;fill-rule:evenodd;stroke:#000000;stroke-width:2.0px;stroke-linecap:butt;stroke-linejoin:miter;stroke-opacity:1"/>
<path class="bond-9 atom-9 atom-10" d="M 395.5,640.0 L 428.8,629.8" style="fill:none;fill-rule:evenodd;stroke:#000000;stroke-width:2.0px;stroke-linecap:butt;stroke-linejoin:miter;stroke-opacity:1"/>
<path class="bond-9 atom-9 atom-10" d="M 396.8,634.1 L 427.2,624.8" style="fill:none;fill-rule:evenodd;stroke:#000000;stroke-width:2.0px;stroke-linecap:butt;stroke-linejoin:miter;stroke-opacity:1"/>
<path class="bond-10 atom-10 atom-11" d="M 428.8,629.8 L 454.2,653.4" style="fill:none;fill-rule:evenodd;stroke:#000000;stroke-width:2.0px;stroke-linecap:butt;stroke-linejoin:miter;stroke-opacity:1"/>
<path class="bond-11 atom-11 atom-12" d="M 454.2,653.4 L 487.5,643.2" style="fill:none;fill-rule:evenodd;stroke:#000000;stroke-width:2.0px;stroke-linecap:butt;stroke-linejoin:miter;stroke-opacity:1"/>
<path class="bond-11 atom-11 atom-12" d="M 455.6,647.6 L 486.0,638.2" style="fill:none;fill-rule:evenodd;stroke:#000000;stroke-width:2.0px;stroke-linecap:butt;stroke-linejoin:miter;stroke-opacity:1"/>
<path class="bond-12 atom-7 atom-0" d="M 336.8,626.6 L 330.4,654.4" style="fill:none;fill-rule:evenodd;stroke:#000000;stroke-width:2.0px;stroke-linecap:butt;stroke-linejoin:miter;stroke-opacity:1"/>
<path class="bond-13 atom-3 atom-1" d="M 270.3,647.1 L 295.8,670.8" style="fill:none;fill-rule:evenodd;stroke:#000000;stroke-width:2.0px;stroke-linecap:butt;stroke-linejoin:miter;stroke-opacity:1"/>
<path d="M 264.2,680.5 L 262.5,681.0 L 262.9,679.3" style="fill:none;stroke:#000000;stroke-width:2.0px;stroke-linecap:butt;stroke-linejoin:miter;stroke-miterlimit:10;stroke-opacity:1;"/>
<path d="M 368.3,616.9 L 370.0,616.3 L 371.3,617.5" style="fill:none;stroke:#000000;stroke-width:2.0px;stroke-linecap:butt;stroke-linejoin:miter;stroke-miterlimit:10;stroke-opacity:1;"/>
<path d="M 394.2,638.8 L 395.5,640.0 L 397.2,639.5" style="fill:none;stroke:#000000;stroke-width:2.0px;stroke-linecap:butt;stroke-linejoin:miter;stroke-miterlimit:10;stroke-opacity:1;"/>
<path d="M 427.1,630.3 L 428.8,629.8 L 430.0,631.0" style="fill:none;stroke:#000000;stroke-width:2.0px;stroke-linecap:butt;stroke-linejoin:miter;stroke-miterlimit:10;stroke-opacity:1;"/>
<path d="M 453.0,652.3 L 454.2,653.4 L 455.9,652.9" style="fill:none;stroke:#000000;stroke-width:2.0px;stroke-linecap:butt;stroke-linejoin:miter;stroke-miterlimit:10;stroke-opacity:1;"/>
<path class="atom-0" d="M 328.8 655.6 Q 330.4 655.6, 331.3 656.3 Q 332.1 657.1, 332.1 658.5 Q 332.1 659.8, 331.3 660.6 Q 330.4 661.4, 328.8 661.4 L 327.2 661.4 L 327.2 665.4 L 325.9 665.4 L 325.9 655.6 L 328.8 655.6 M 328.8 660.3 Q 329.7 660.3, 330.2 659.8 Q 330.8 659.4, 330.8 658.5 Q 330.8 657.6, 330.2 657.2 Q 329.7 656.7, 328.8 656.7 L 327.2 656.7 L 327.2 660.3 L 328.8 660.3 " fill="#000000"/>
<path class="atom-0" d="M 333.5 655.6 L 334.8 655.6 L 334.8 659.8 L 339.9 659.8 L 339.9 655.6 L 341.2 655.6 L 341.2 665.4 L 339.9 665.4 L 339.9 660.9 L 334.8 660.9 L 334.8 665.4 L 333.5 665.4 L 333.5 655.6 " fill="#000000"/>
<path class="atom-0" d="M 343.1 657.4 L 344.8 657.4 L 344.8 655.5 L 345.6 655.5 L 345.6 657.4 L 347.3 657.4 L 347.3 658.0 L 345.6 658.0 L 345.6 659.9 L 344.8 659.9 L 344.8 658.0 L 343.1 658.0 L 343.1 657.4 " fill="#000000"/>
<path class="atom-4" d="M 275.8 608.2 L 279.1 613.5 Q 279.4 614.0, 279.9 614.9 Q 280.4 615.8, 280.4 615.9 L 280.4 608.2 L 281.7 608.2 L 281.7 618.1 L 280.4 618.1 L 276.9 612.4 Q 276.5 611.7, 276.1 611.0 Q 275.7 610.2, 275.5 609.9 L 275.5 618.1 L 274.3 618.1 L 274.3 608.2 L 275.8 608.2 " fill="#000000"/>
<path class="atom-0" d="M 350.1,660.5 L 350.1,660.6 L 350.1,660.6 L 350.1,660.7 L 350.1,660.7 L 350.1,660.8 L 350.0,660.9 L 350.0,660.9 L 350.0,661.0 L 349.9,661.0 L 349.9,661.0 L 349.8,661.1 L 349.8,661.1 L 349.7,661.1 L 349.7,661.2 L 349.6,661.2 L 349.6,661.2 L 349.5,661.2 L 349.5,661.2 L 349.4,661.2 L 349.3,661.2 L 349.3,661.2 L 349.2,661.2 L 349.2,661.1 L 349.1,661.1 L 349.1,661.1 L 349.0,661.1 L 349.0,661.0 L 348.9,661.0 L 348.9,660.9 L 348.8,660.9 L 348.8,660.8 L 348.8,660.8 L 348.8,660.7 L 348.8,660.7 L 348.7,660.6 L 348.7,660.5 L 348.7,660.5 L 348.7,660.4 L 348.8,660.4 L 348.8,660.3 L 348.8,660.2 L 348.8,660.2 L 348.8,660.1 L 348.9,660.1 L 348.9,660.0 L 349.0,660.0 L 349.0,660.0 L 349.1,659.9 L 349.1,659.9 L 349.2,659.9 L 349.2,659.8 L 349.3,659.8 L 349.3,659.8 L 349.4,659.8 L 349.5,659.8 L 349.5,659.8 L 349.6,659.8 L 349.6,659.8 L 349.7,659.9 L 349.7,659.9 L 349.8,659.9 L 349.8,659.9 L 349.9,660.0 L 349.9,660.0 L 350.0,660.1 L 350.0,660.1 L 350.0,660.2 L 350.1,660.2 L 350.1,660.3 L 350.1,660.3 L 350.1,660.4 L 350.1,660.4 L 350.1,660.5 L 349.4,660.5 Z" style="fill:#000000;fill-rule:evenodd;fill-opacity:1;stroke:#000000;stroke-width:0.0px;stroke-linecap:butt;stroke-linejoin:miter;stroke-miterlimit:10;stroke-opacity:1;"/>
<path class="bond-0 atom-0 atom-1" d="M 528.7,653.4 L 549.3,643.7" style="fill:none;fill-rule:evenodd;stroke:#000000;stroke-width:2.0px;stroke-linecap:butt;stroke-linejoin:miter;stroke-opacity:1"/>
<path class="bond-1 atom-1 atom-2" d="M 549.3,643.7 L 551.6,616.9" style="fill:none;fill-rule:evenodd;stroke:#000000;stroke-width:2.0px;stroke-linecap:butt;stroke-linejoin:miter;stroke-opacity:1"/>
<path class="bond-1 atom-1 atom-2" d="M 553.5,641.8 L 555.4,619.6" style="fill:none;fill-rule:evenodd;stroke:#000000;stroke-width:2.0px;stroke-linecap:butt;stroke-linejoin:miter;stroke-opacity:1"/>
<path class="bond-2 atom-2 atom-3" d="M 551.6,616.9 L 576.0,605.5" style="fill:none;fill-rule:evenodd;stroke:#000000;stroke-width:2.0px;stroke-linecap:butt;stroke-linejoin:miter;stroke-opacity:1"/>
<path class="bond-3 atom-3 atom-4" d="M 576.0,605.5 L 598.1,620.9" style="fill:none;fill-rule:evenodd;stroke:#000000;stroke-width:2.0px;stroke-linecap:butt;stroke-linejoin:miter;stroke-opacity:1"/>
<path class="bond-3 atom-3 atom-4" d="M 575.6,610.1 L 593.8,622.9" style="fill:none;fill-rule:evenodd;stroke:#000000;stroke-width:2.0px;stroke-linecap:butt;stroke-linejoin:miter;stroke-opacity:1"/>
<path class="bond-4 atom-4 atom-5" d="M 598.1,620.9 L 622.5,609.5" style="fill:none;fill-rule:evenodd;stroke:#000000;stroke-width:2.0px;stroke-linecap:butt;stroke-linejoin:miter;stroke-opacity:1"/>
<path class="bond-5 atom-5 atom-6" d="M 624.4,610.8 L 626.4,587.7" style="fill:none;fill-rule:evenodd;stroke:#000000;stroke-width:2.0px;stroke-linecap:butt;stroke-linejoin:miter;stroke-opacity:1"/>
<path class="bond-5 atom-5 atom-6" d="M 620.4,610.5 L 622.3,587.4" style="fill:none;fill-rule:evenodd;stroke:#000000;stroke-width:2.0px;stroke-linecap:butt;stroke-linejoin:miter;stroke-opacity:1"/>
<path class="bond-6 atom-5 atom-7" d="M 622.5,609.5 L 640.8,622.3" style="fill:none;fill-rule:evenodd;stroke:#000000;stroke-width:2.0px;stroke-linecap:butt;stroke-linejoin:miter;stroke-opacity:1"/>
<path class="bond-7 atom-7 atom-8" d="M 648.3,623.2 L 668.9,613.5" style="fill:none;fill-rule:evenodd;stroke:#000000;stroke-width:2.0px;stroke-linecap:butt;stroke-linejoin:miter;stroke-opacity:1"/>
<path class="bond-8 atom-8 atom-9" d="M 668.9,613.5 L 691.0,628.9" style="fill:none;fill-rule:evenodd;stroke:#000000;stroke-width:2.0px;stroke-linecap:butt;stroke-linejoin:miter;stroke-opacity:1"/>
<path class="bond-9 atom-9 atom-10" d="M 691.0,628.9 L 688.7,655.8" style="fill:none;fill-rule:evenodd;stroke:#000000;stroke-width:2.0px;stroke-linecap:butt;stroke-linejoin:miter;stroke-opacity:1"/>
<path class="bond-9 atom-9 atom-10" d="M 694.8,631.6 L 692.9,653.8" style="fill:none;fill-rule:evenodd;stroke:#000000;stroke-width:2.0px;stroke-linecap:butt;stroke-linejoin:miter;stroke-opacity:1"/>
<path class="bond-10 atom-10 atom-11" d="M 688.7,655.8 L 710.8,671.2" style="fill:none;fill-rule:evenodd;stroke:#000000;stroke-width:2.0px;stroke-linecap:butt;stroke-linejoin:miter;stroke-opacity:1"/>
<path class="bond-11 atom-11 atom-12" d="M 710.8,671.2 L 735.2,659.8" style="fill:none;fill-rule:evenodd;stroke:#000000;stroke-width:2.0px;stroke-linecap:butt;stroke-linejoin:miter;stroke-opacity:1"/>
<path class="bond-11 atom-11 atom-12" d="M 711.2,666.5 L 731.4,657.1" style="fill:none;fill-rule:evenodd;stroke:#000000;stroke-width:2.0px;stroke-linecap:butt;stroke-linejoin:miter;stroke-opacity:1"/>
<path class="bond-12 atom-12 atom-13" d="M 735.2,659.8 L 737.5,632.9" style="fill:none;fill-rule:evenodd;stroke:#000000;stroke-width:2.0px;stroke-linecap:butt;stroke-linejoin:miter;stroke-opacity:1"/>
<path class="bond-13 atom-13 atom-14" d="M 737.5,632.9 L 715.4,617.5" style="fill:none;fill-rule:evenodd;stroke:#000000;stroke-width:2.0px;stroke-linecap:butt;stroke-linejoin:miter;stroke-opacity:1"/>
<path class="bond-13 atom-13 atom-14" d="M 733.3,634.9 L 715.0,622.2" style="fill:none;fill-rule:evenodd;stroke:#000000;stroke-width:2.0px;stroke-linecap:butt;stroke-linejoin:miter;stroke-opacity:1"/>
<path class="bond-14 atom-14 atom-15" d="M 715.4,617.5 L 717.3,595.4" style="fill:none;fill-rule:evenodd;stroke:#000000;stroke-width:2.0px;stroke-linecap:butt;stroke-linejoin:miter;stroke-opacity:1"/>
<path class="bond-15 atom-4 atom-16" d="M 598.1,620.9 L 596.2,643.0" style="fill:none;fill-rule:evenodd;stroke:#000000;stroke-width:2.0px;stroke-linecap:butt;stroke-linejoin:miter;stroke-opacity:1"/>
<path class="bond-16 atom-16 atom-17" d="M 592.0,649.5 L 575.1,657.4" style="fill:none;fill-rule:evenodd;stroke:#000000;stroke-width:2.0px;stroke-linecap:butt;stroke-linejoin:miter;stroke-opacity:1"/>
<path class="bond-16 atom-16 atom-17" d="M 590.3,645.9 L 573.4,653.7" style="fill:none;fill-rule:evenodd;stroke:#000000;stroke-width:2.0px;stroke-linecap:butt;stroke-linejoin:miter;stroke-opacity:1"/>
<path class="bond-17 atom-17 atom-1" d="M 567.6,656.5 L 549.3,643.7" style="fill:none;fill-rule:evenodd;stroke:#000000;stroke-width:2.0px;stroke-linecap:butt;stroke-linejoin:miter;stroke-opacity:1"/>
<path class="bond-18 atom-14 atom-9" d="M 715.4,617.5 L 691.0,628.9" style="fill:none;fill-rule:evenodd;stroke:#000000;stroke-width:2.0px;stroke-linecap:butt;stroke-linejoin:miter;stroke-opacity:1"/>
<path d="M 551.5,618.2 L 551.6,616.9 L 552.8,616.3" style="fill:none;stroke:#000000;stroke-width:2.0px;stroke-linecap:butt;stroke-linejoin:miter;stroke-miterlimit:10;stroke-opacity:1;"/>
<path d="M 574.8,606.1 L 576.0,605.5 L 577.1,606.3" style="fill:none;stroke:#000000;stroke-width:2.0px;stroke-linecap:butt;stroke-linejoin:miter;stroke-miterlimit:10;stroke-opacity:1;"/>
<path d="M 621.2,610.1 L 622.5,609.5 L 623.4,610.1" style="fill:none;stroke:#000000;stroke-width:2.0px;stroke-linecap:butt;stroke-linejoin:miter;stroke-miterlimit:10;stroke-opacity:1;"/>
<path d="M 667.9,614.0 L 668.9,613.5 L 670.0,614.3" style="fill:none;stroke:#000000;stroke-width:2.0px;stroke-linecap:butt;stroke-linejoin:miter;stroke-miterlimit:10;stroke-opacity:1;"/>
<path d="M 688.8,654.4 L 688.7,655.8 L 689.8,656.5" style="fill:none;stroke:#000000;stroke-width:2.0px;stroke-linecap:butt;stroke-linejoin:miter;stroke-miterlimit:10;stroke-opacity:1;"/>
<path d="M 709.7,670.4 L 710.8,671.2 L 712.0,670.6" style="fill:none;stroke:#000000;stroke-width:2.0px;stroke-linecap:butt;stroke-linejoin:miter;stroke-miterlimit:10;stroke-opacity:1;"/>
<path d="M 734.0,660.3 L 735.2,659.8 L 735.3,658.4" style="fill:none;stroke:#000000;stroke-width:2.0px;stroke-linecap:butt;stroke-linejoin:miter;stroke-miterlimit:10;stroke-opacity:1;"/>
<path d="M 737.4,634.3 L 737.5,632.9 L 736.4,632.2" style="fill:none;stroke:#000000;stroke-width:2.0px;stroke-linecap:butt;stroke-linejoin:miter;stroke-miterlimit:10;stroke-opacity:1;"/>
<path class="atom-0" d="M 514.5 651.3 L 515.6 651.3 L 515.6 654.6 L 519.5 654.6 L 519.5 651.3 L 520.5 651.3 L 520.5 659.0 L 519.5 659.0 L 519.5 655.4 L 515.6 655.4 L 515.6 659.0 L 514.5 659.0 L 514.5 651.3 " fill="#000000"/>
<path class="atom-0" d="M 523.2 651.3 L 525.7 655.4 Q 525.9 655.8, 526.3 656.5 Q 526.7 657.2, 526.8 657.3 L 526.8 651.3 L 527.8 651.3 L 527.8 659.0 L 526.7 659.0 L 524.0 654.5 Q 523.7 654.0, 523.4 653.4 Q 523.1 652.8, 523.0 652.7 L 523.0 659.0 L 522.0 659.0 L 522.0 651.3 L 523.2 651.3 " fill="#000000"/>
<path class="atom-6" d="M 621.3 582.7 Q 621.3 580.9, 622.2 579.8 Q 623.1 578.8, 624.8 578.8 Q 626.5 578.8, 627.4 579.8 Q 628.3 580.9, 628.3 582.7 Q 628.3 584.5, 627.4 585.6 Q 626.5 586.6, 624.8 586.6 Q 623.1 586.6, 622.2 585.6 Q 621.3 584.6, 621.3 582.7 M 624.8 585.8 Q 625.9 585.8, 626.6 585.0 Q 627.2 584.2, 627.2 582.7 Q 627.2 581.2, 626.6 580.4 Q 625.9 579.7, 624.8 579.7 Q 623.6 579.7, 623.0 580.4 Q 622.4 581.2, 622.4 582.7 Q 622.4 584.2, 623.0 585.0 Q 623.6 585.8, 624.8 585.8 " fill="#000000"/>
<path class="atom-7" d="M 642.9 621.1 L 645.4 625.1 Q 645.6 625.5, 646.0 626.3 Q 646.4 627.0, 646.4 627.0 L 646.4 621.1 L 647.4 621.1 L 647.4 628.7 L 646.4 628.7 L 643.7 624.3 Q 643.4 623.8, 643.1 623.2 Q 642.7 622.6, 642.6 622.4 L 642.6 628.7 L 641.7 628.7 L 641.7 621.1 L 642.9 621.1 " fill="#000000"/>
<path class="atom-7" d="M 641.6 629.5 L 642.6 629.5 L 642.6 632.7 L 646.5 632.7 L 646.5 629.5 L 647.5 629.5 L 647.5 637.1 L 646.5 637.1 L 646.5 633.6 L 642.6 633.6 L 642.6 637.1 L 641.6 637.1 L 641.6 629.5 " fill="#000000"/>
<path class="atom-15" d="M 715.5 586.9 L 720.0 586.9 L 720.0 587.7 L 716.5 587.7 L 716.5 590.1 L 719.6 590.1 L 719.6 590.9 L 716.5 590.9 L 716.5 594.5 L 715.5 594.5 L 715.5 586.9 " fill="#000000"/>
<path class="atom-16" d="M 594.1 643.9 L 596.6 648.0 Q 596.8 648.4, 597.2 649.1 Q 597.6 649.8, 597.6 649.9 L 597.6 643.9 L 598.6 643.9 L 598.6 651.6 L 597.6 651.6 L 594.9 647.1 Q 594.6 646.6, 594.3 646.0 Q 594.0 645.4, 593.9 645.3 L 593.9 651.6 L 592.9 651.6 L 592.9 643.9 L 594.1 643.9 " fill="#000000"/>
<path class="atom-17" d="M 569.7 655.3 L 572.2 659.4 Q 572.4 659.8, 572.8 660.5 Q 573.2 661.2, 573.2 661.3 L 573.2 655.3 L 574.3 655.3 L 574.3 663.0 L 573.2 663.0 L 570.5 658.6 Q 570.2 658.0, 569.9 657.4 Q 569.6 656.9, 569.5 656.7 L 569.5 663.0 L 568.5 663.0 L 568.5 655.3 L 569.7 655.3 " fill="#000000"/>
<path class="atom-0" d="M 513.4,655.1 L 513.4,655.2 L 513.4,655.2 L 513.4,655.3 L 513.4,655.3 L 513.4,655.4 L 513.4,655.4 L 513.3,655.5 L 513.3,655.5 L 513.3,655.5 L 513.3,655.6 L 513.2,655.6 L 513.2,655.6 L 513.1,655.6 L 513.1,655.7 L 513.1,655.7 L 513.0,655.7 L 513.0,655.7 L 512.9,655.7 L 512.9,655.7 L 512.8,655.7 L 512.8,655.7 L 512.7,655.7 L 512.7,655.6 L 512.6,655.6 L 512.6,655.6 L 512.6,655.6 L 512.5,655.5 L 512.5,655.5 L 512.5,655.5 L 512.4,655.4 L 512.4,655.4 L 512.4,655.4 L 512.4,655.3 L 512.4,655.3 L 512.4,655.2 L 512.4,655.2 L 512.4,655.1 L 512.4,655.1 L 512.4,655.0 L 512.4,655.0 L 512.4,654.9 L 512.4,654.9 L 512.4,654.9 L 512.5,654.8 L 512.5,654.8 L 512.5,654.8 L 512.6,654.7 L 512.6,654.7 L 512.6,654.7 L 512.7,654.7 L 512.7,654.6 L 512.8,654.6 L 512.8,654.6 L 512.9,654.6 L 512.9,654.6 L 513.0,654.6 L 513.0,654.6 L 513.1,654.6 L 513.1,654.6 L 513.1,654.7 L 513.2,654.7 L 513.2,654.7 L 513.3,654.7 L 513.3,654.8 L 513.3,654.8 L 513.3,654.8 L 513.4,654.9 L 513.4,654.9 L 513.4,655.0 L 513.4,655.0 L 513.4,655.1 L 513.4,655.1 L 513.4,655.1 L 512.9,655.1 Z" style="fill:#000000;fill-rule:evenodd;fill-opacity:1;stroke:#000000;stroke-width:0.0px;stroke-linecap:butt;stroke-linejoin:miter;stroke-miterlimit:10;stroke-opacity:1;"/>
</svg>