<svg xmlns="http://www.w3.org/2000/svg" xmlns:rdkit="http://www.rdkit.org/xml" xmlns:xlink="http://www.w3.org/1999/xlink" version="1.1" baseProfile="full" xml:space="preserve" width="750px" height="750px" viewBox="0 0 750 750">
<!-- END OF HEADER -->
<rect style="opacity:1.0;fill:#FFFFFF;stroke:none" width="250.0" height="250.0" x="0.0" y="0.0"> </rect>
<path class="bond-0 atom-0 atom-1" d="M 23.5,73.7 L 56.1,68.5" style="fill:none;fill-rule:evenodd;stroke:#000000;stroke-width:2.0px;stroke-linecap:butt;stroke-linejoin:miter;stroke-opacity:1"/>
<path class="bond-1 atom-1 atom-2" d="M 56.1,68.5 L 68.5,36.0" style="fill:none;fill-rule:evenodd;stroke:#000000;stroke-width:2.0px;stroke-linecap:butt;stroke-linejoin:miter;stroke-opacity:1"/>
<path class="bond-1 atom-1 atom-2" d="M 62.1,67.6 L 72.3,40.7" style="fill:none;fill-rule:evenodd;stroke:#000000;stroke-width:2.0px;stroke-linecap:butt;stroke-linejoin:miter;stroke-opacity:1"/>
<path class="bond-2 atom-2 atom-3" d="M 68.5,36.0 L 102.9,30.5" style="fill:none;fill-rule:evenodd;stroke:#000000;stroke-width:2.0px;stroke-linecap:butt;stroke-linejoin:miter;stroke-opacity:1"/>
<path class="bond-3 atom-3 atom-4" d="M 102.9,30.5 L 124.9,57.5" style="fill:none;fill-rule:evenodd;stroke:#000000;stroke-width:2.0px;stroke-linecap:butt;stroke-linejoin:miter;stroke-opacity:1"/>
<path class="bond-3 atom-3 atom-4" d="M 100.7,36.1 L 118.9,58.5" style="fill:none;fill-rule:evenodd;stroke:#000000;stroke-width:2.0px;stroke-linecap:butt;stroke-linejoin:miter;stroke-opacity:1"/>
<path class="bond-4 atom-4 atom-5" d="M 124.9,57.5 L 112.4,90.0" style="fill:none;fill-rule:evenodd;stroke:#000000;stroke-width:2.0px;stroke-linecap:butt;stroke-linejoin:miter;stroke-opacity:1"/>
<path class="bond-5 atom-5 atom-6" d="M 112.4,90.0 L 78.1,95.5" style="fill:none;fill-rule:evenodd;stroke:#000000;stroke-width:2.0px;stroke-linecap:butt;stroke-linejoin:miter;stroke-opacity:1"/>
<path class="bond-5 atom-5 atom-6" d="M 108.6,85.3 L 80.2,89.9" style="fill:none;fill-rule:evenodd;stroke:#000000;stroke-width:2.0px;stroke-linecap:butt;stroke-linejoin:miter;stroke-opacity:1"/>
<path class="bond-6 atom-6 atom-7" d="M 78.1,95.5 L 65.7,128.0" style="fill:none;fill-rule:evenodd;stroke:#000000;stroke-width:2.0px;stroke-linecap:butt;stroke-linejoin:miter;stroke-opacity:1"/>
<path class="bond-7 atom-7 atom-8" d="M 65.7,128.0 L 31.3,133.5" style="fill:none;fill-rule:evenodd;stroke:#000000;stroke-width:2.0px;stroke-linecap:butt;stroke-linejoin:miter;stroke-opacity:1"/>
<path class="bond-7 atom-7 atom-8" d="M 63.5,133.7 L 35.1,138.2" style="fill:none;fill-rule:evenodd;stroke:#000000;stroke-width:2.0px;stroke-linecap:butt;stroke-linejoin:miter;stroke-opacity:1"/>
<path class="bond-8 atom-8 atom-9" d="M 31.3,133.5 L 18.9,166.1" style="fill:none;fill-rule:evenodd;stroke:#000000;stroke-width:2.0px;stroke-linecap:butt;stroke-linejoin:miter;stroke-opacity:1"/>
<path class="bond-9 atom-9 atom-10" d="M 18.9,166.1 L 40.8,193.1" style="fill:none;fill-rule:evenodd;stroke:#000000;stroke-width:2.0px;stroke-linecap:butt;stroke-linejoin:miter;stroke-opacity:1"/>
<path class="bond-9 atom-9 atom-10" d="M 24.8,165.1 L 43.0,187.4" style="fill:none;fill-rule:evenodd;stroke:#000000;stroke-width:2.0px;stroke-linecap:butt;stroke-linejoin:miter;stroke-opacity:1"/>
<path class="bond-10 atom-10 atom-11" d="M 40.8,193.1 L 75.2,187.6" style="fill:none;fill-rule:evenodd;stroke:#000000;stroke-width:2.0px;stroke-linecap:butt;stroke-linejoin:miter;stroke-opacity:1"/>
<path class="bond-11 atom-11 atom-12" d="M 75.2,187.6 L 93.1,209.6" style="fill:none;fill-rule:evenodd;stroke:#000000;stroke-width:2.0px;stroke-linecap:butt;stroke-linejoin:miter;stroke-opacity:1"/>
<path class="bond-12 atom-11 atom-13" d="M 75.2,187.6 L 87.6,155.1" style="fill:none;fill-rule:evenodd;stroke:#000000;stroke-width:2.0px;stroke-linecap:butt;stroke-linejoin:miter;stroke-opacity:1"/>
<path class="bond-12 atom-11 atom-13" d="M 71.4,182.9 L 81.7,156.0" style="fill:none;fill-rule:evenodd;stroke:#000000;stroke-width:2.0px;stroke-linecap:butt;stroke-linejoin:miter;stroke-opacity:1"/>
<path class="bond-13 atom-13 atom-14" d="M 87.6,155.1 L 117.1,150.3" style="fill:none;fill-rule:evenodd;stroke:#000000;stroke-width:2.0px;stroke-linecap:butt;stroke-linejoin:miter;stroke-opacity:1"/>
<path class="bond-14 atom-14 atom-15" d="M 126.9,155.6 L 139.0,170.5" style="fill:none;fill-rule:evenodd;stroke:#000000;stroke-width:2.0px;stroke-linecap:butt;stroke-linejoin:miter;stroke-opacity:1"/>
<path class="bond-15 atom-15 atom-16" d="M 148.8,175.8 L 178.3,171.1" style="fill:none;fill-rule:evenodd;stroke:#000000;stroke-width:2.0px;stroke-linecap:butt;stroke-linejoin:miter;stroke-opacity:1"/>
<path class="bond-16 atom-16 atom-17" d="M 180.7,173.6 L 180.3,173.9" style="fill:none;fill-rule:evenodd;stroke:#000000;stroke-width:1.0px;stroke-linecap:butt;stroke-linejoin:miter;stroke-opacity:1"/>
<path class="bond-16 atom-16 atom-17" d="M 183.1,176.1 L 182.3,176.8" style="fill:none;fill-rule:evenodd;stroke:#000000;stroke-width:1.0px;stroke-linecap:butt;stroke-linejoin:miter;stroke-opacity:1"/>
<path class="bond-16 atom-16 atom-17" d="M 185.5,178.7 L 184.3,179.7" style="fill:none;fill-rule:evenodd;stroke:#000000;stroke-width:1.0px;stroke-linecap:butt;stroke-linejoin:miter;stroke-opacity:1"/>
<path class="bond-16 atom-16 atom-17" d="M 187.9,181.2 L 186.3,182.5" style="fill:none;fill-rule:evenodd;stroke:#000000;stroke-width:1.0px;stroke-linecap:butt;stroke-linejoin:miter;stroke-opacity:1"/>
<path class="bond-16 atom-16 atom-17" d="M 190.3,183.7 L 188.3,185.4" style="fill:none;fill-rule:evenodd;stroke:#000000;stroke-width:1.0px;stroke-linecap:butt;stroke-linejoin:miter;stroke-opacity:1"/>
<path class="bond-16 atom-16 atom-17" d="M 192.7,186.3 L 190.3,188.2" style="fill:none;fill-rule:evenodd;stroke:#000000;stroke-width:1.0px;stroke-linecap:butt;stroke-linejoin:miter;stroke-opacity:1"/>
<path class="bond-16 atom-16 atom-17" d="M 195.1,188.8 L 192.2,191.1" style="fill:none;fill-rule:evenodd;stroke:#000000;stroke-width:1.0px;stroke-linecap:butt;stroke-linejoin:miter;stroke-opacity:1"/>
<path class="bond-16 atom-16 atom-17" d="M 197.5,191.3 L 194.2,194.0" style="fill:none;fill-rule:evenodd;stroke:#000000;stroke-width:1.0px;stroke-linecap:butt;stroke-linejoin:miter;stroke-opacity:1"/>
<path class="bond-16 atom-16 atom-17" d="M 199.9,193.9 L 196.2,196.8" style="fill:none;fill-rule:evenodd;stroke:#000000;stroke-width:1.0px;stroke-linecap:butt;stroke-linejoin:miter;stroke-opacity:1"/>
<path class="bond-16 atom-16 atom-17" d="M 202.3,196.4 L 198.2,199.7" style="fill:none;fill-rule:evenodd;stroke:#000000;stroke-width:1.0px;stroke-linecap:butt;stroke-linejoin:miter;stroke-opacity:1"/>
<path class="bond-17 atom-16 atom-18" d="M 178.3,171.1 L 190.7,138.5" style="fill:none;fill-rule:evenodd;stroke:#000000;stroke-width:2.0px;stroke-linecap:butt;stroke-linejoin:miter;stroke-opacity:1"/>
<path class="bond-18 atom-18 atom-19" d="M 190.7,138.5 L 225.1,133.0" style="fill:none;fill-rule:evenodd;stroke:#000000;stroke-width:2.0px;stroke-linecap:butt;stroke-linejoin:miter;stroke-opacity:1"/>
<path class="bond-19 atom-19 atom-20" d="M 225.1,133.0 L 237.5,100.5" style="fill:none;fill-rule:evenodd;stroke:#000000;stroke-width:2.0px;stroke-linecap:butt;stroke-linejoin:miter;stroke-opacity:1"/>
<path class="bond-20 atom-20 atom-21" d="M 237.5,100.5 L 215.5,73.5" style="fill:none;fill-rule:evenodd;stroke:#000000;stroke-width:2.0px;stroke-linecap:butt;stroke-linejoin:miter;stroke-opacity:1"/>
<path class="bond-21 atom-21 atom-22" d="M 215.5,73.5 L 181.2,79.0" style="fill:none;fill-rule:evenodd;stroke:#000000;stroke-width:2.0px;stroke-linecap:butt;stroke-linejoin:miter;stroke-opacity:1"/>
<path class="bond-22 atom-22 atom-23" d="M 181.2,79.0 L 168.8,111.5" style="fill:none;fill-rule:evenodd;stroke:#000000;stroke-width:2.0px;stroke-linecap:butt;stroke-linejoin:miter;stroke-opacity:1"/>
<path class="bond-23 atom-6 atom-1" d="M 78.1,95.5 L 56.1,68.5" style="fill:none;fill-rule:evenodd;stroke:#000000;stroke-width:2.0px;stroke-linecap:butt;stroke-linejoin:miter;stroke-opacity:1"/>
<path class="bond-24 atom-13 atom-7" d="M 87.6,155.1 L 65.7,128.0" style="fill:none;fill-rule:evenodd;stroke:#000000;stroke-width:2.0px;stroke-linecap:butt;stroke-linejoin:miter;stroke-opacity:1"/>
<path class="bond-25 atom-23 atom-18" d="M 168.8,111.5 L 190.7,138.5" style="fill:none;fill-rule:evenodd;stroke:#000000;stroke-width:2.0px;stroke-linecap:butt;stroke-linejoin:miter;stroke-opacity:1"/>
<path d="M 67.9,37.6 L 68.5,36.0 L 70.2,35.7" style="fill:none;stroke:#000000;stroke-width:2.0px;stroke-linecap:butt;stroke-linejoin:miter;stroke-miterlimit:10;stroke-opacity:1;"/>
<path d="M 101.2,30.8 L 102.9,30.5 L 104.0,31.8" style="fill:none;stroke:#000000;stroke-width:2.0px;stroke-linecap:butt;stroke-linejoin:miter;stroke-miterlimit:10;stroke-opacity:1;"/>
<path d="M 123.8,56.1 L 124.9,57.5 L 124.2,59.1" style="fill:none;stroke:#000000;stroke-width:2.0px;stroke-linecap:butt;stroke-linejoin:miter;stroke-miterlimit:10;stroke-opacity:1;"/>
<path d="M 113.1,88.4 L 112.4,90.0 L 110.7,90.3" style="fill:none;stroke:#000000;stroke-width:2.0px;stroke-linecap:butt;stroke-linejoin:miter;stroke-miterlimit:10;stroke-opacity:1;"/>
<path d="M 33.0,133.3 L 31.3,133.5 L 30.7,135.2" style="fill:none;stroke:#000000;stroke-width:2.0px;stroke-linecap:butt;stroke-linejoin:miter;stroke-miterlimit:10;stroke-opacity:1;"/>
<path d="M 19.5,164.4 L 18.9,166.1 L 20.0,167.4" style="fill:none;stroke:#000000;stroke-width:2.0px;stroke-linecap:butt;stroke-linejoin:miter;stroke-miterlimit:10;stroke-opacity:1;"/>
<path d="M 39.7,191.7 L 40.8,193.1 L 42.5,192.8" style="fill:none;stroke:#000000;stroke-width:2.0px;stroke-linecap:butt;stroke-linejoin:miter;stroke-miterlimit:10;stroke-opacity:1;"/>
<path d="M 176.8,171.3 L 178.3,171.1 L 178.9,169.4" style="fill:none;stroke:#000000;stroke-width:2.0px;stroke-linecap:butt;stroke-linejoin:miter;stroke-miterlimit:10;stroke-opacity:1;"/>
<path d="M 223.4,133.3 L 225.1,133.0 L 225.7,131.4" style="fill:none;stroke:#000000;stroke-width:2.0px;stroke-linecap:butt;stroke-linejoin:miter;stroke-miterlimit:10;stroke-opacity:1;"/>
<path d="M 236.9,102.1 L 237.5,100.5 L 236.4,99.2" style="fill:none;stroke:#000000;stroke-width:2.0px;stroke-linecap:butt;stroke-linejoin:miter;stroke-miterlimit:10;stroke-opacity:1;"/>
<path d="M 216.6,74.8 L 215.5,73.5 L 213.8,73.8" style="fill:none;stroke:#000000;stroke-width:2.0px;stroke-linecap:butt;stroke-linejoin:miter;stroke-miterlimit:10;stroke-opacity:1;"/>
<path d="M 182.9,78.7 L 181.2,79.0 L 180.6,80.6" style="fill:none;stroke:#000000;stroke-width:2.0px;stroke-linecap:butt;stroke-linejoin:miter;stroke-miterlimit:10;stroke-opacity:1;"/>
<path d="M 169.4,109.9 L 168.8,111.5 L 169.9,112.9" style="fill:none;stroke:#000000;stroke-width:2.0px;stroke-linecap:butt;stroke-linejoin:miter;stroke-miterlimit:10;stroke-opacity:1;"/>
<path class="atom-0" d="M 12.5 74.4 Q 12.5 71.9, 13.6 70.6 Q 14.8 69.3, 17.0 69.3 Q 19.0 69.3, 20.1 70.8 L 19.2 71.5 Q 18.4 70.5, 17.0 70.5 Q 15.5 70.5, 14.7 71.5 Q 13.9 72.5, 13.9 74.4 Q 13.9 76.3, 14.7 77.3 Q 15.5 78.3, 17.1 78.3 Q 18.2 78.3, 19.5 77.7 L 19.9 78.7 Q 19.4 79.0, 18.6 79.2 Q 17.8 79.4, 16.9 79.4 Q 14.8 79.4, 13.6 78.1 Q 12.5 76.8, 12.5 74.4 " fill="#000000"/>
<path class="atom-0" d="M 21.1 68.7 L 22.4 68.7 L 22.4 79.3 L 21.1 79.3 L 21.1 68.7 " fill="#000000"/>
<path class="atom-12" d="M 94.2 209.7 L 100.1 209.7 L 100.1 210.8 L 95.5 210.8 L 95.5 213.8 L 99.6 213.8 L 99.6 214.9 L 95.5 214.9 L 95.5 219.5 L 94.2 219.5 L 94.2 209.7 " fill="#000000"/>
<path class="atom-14" d="M 119.8 144.6 L 123.0 149.8 Q 123.3 150.4, 123.9 151.3 Q 124.4 152.2, 124.4 152.3 L 124.4 144.6 L 125.7 144.6 L 125.7 154.5 L 124.4 154.5 L 120.9 148.8 Q 120.5 148.1, 120.1 147.3 Q 119.6 146.6, 119.5 146.3 L 119.5 154.5 L 118.2 154.5 L 118.2 144.6 L 119.8 144.6 " fill="#000000"/>
<path class="atom-14" d="M 127.6 144.6 L 128.9 144.6 L 128.9 148.8 L 134.0 148.8 L 134.0 144.6 L 135.3 144.6 L 135.3 154.5 L 134.0 154.5 L 134.0 149.9 L 128.9 149.9 L 128.9 154.5 L 127.6 154.5 L 127.6 144.6 " fill="#000000"/>
<path class="atom-14" d="M 137.2 146.4 L 138.9 146.4 L 138.9 144.6 L 139.7 144.6 L 139.7 146.4 L 141.5 146.4 L 141.5 147.1 L 139.7 147.1 L 139.7 148.9 L 138.9 148.9 L 138.9 147.1 L 137.2 147.1 L 137.2 146.4 " fill="#000000"/>
<path class="atom-15" d="M 130.5 171.6 L 131.9 171.6 L 131.9 175.8 L 136.9 175.8 L 136.9 171.6 L 138.2 171.6 L 138.2 181.5 L 136.9 181.5 L 136.9 176.9 L 131.9 176.9 L 131.9 181.5 L 130.5 181.5 L 130.5 171.6 " fill="#000000"/>
<path class="atom-15" d="M 141.7 171.6 L 145.0 176.9 Q 145.3 177.4, 145.8 178.3 Q 146.3 179.2, 146.4 179.3 L 146.4 171.6 L 147.7 171.6 L 147.7 181.5 L 146.3 181.5 L 142.8 175.8 Q 142.4 175.1, 142.0 174.3 Q 141.6 173.6, 141.5 173.3 L 141.5 181.5 L 140.2 181.5 L 140.2 171.6 L 141.7 171.6 " fill="#000000"/>
<path class="atom-14" d="M 144.3,149.5 L 144.3,149.6 L 144.3,149.7 L 144.3,149.7 L 144.2,149.8 L 144.2,149.8 L 144.2,149.9 L 144.2,149.9 L 144.1,150.0 L 144.1,150.0 L 144.0,150.1 L 144.0,150.1 L 143.9,150.1 L 143.9,150.2 L 143.8,150.2 L 143.8,150.2 L 143.7,150.2 L 143.7,150.2 L 143.6,150.2 L 143.5,150.2 L 143.5,150.2 L 143.4,150.2 L 143.4,150.2 L 143.3,150.2 L 143.3,150.2 L 143.2,150.1 L 143.2,150.1 L 143.1,150.1 L 143.1,150.0 L 143.0,150.0 L 143.0,149.9 L 143.0,149.9 L 142.9,149.8 L 142.9,149.8 L 142.9,149.7 L 142.9,149.6 L 142.9,149.6 L 142.9,149.5 L 142.9,149.5 L 142.9,149.4 L 142.9,149.3 L 142.9,149.3 L 143.0,149.2 L 143.0,149.2 L 143.0,149.1 L 143.1,149.1 L 143.1,149.0 L 143.2,149.0 L 143.2,149.0 L 143.3,148.9 L 143.3,148.9 L 143.4,148.9 L 143.4,148.9 L 143.5,148.9 L 143.5,148.9 L 143.6,148.9 L 143.7,148.9 L 143.7,148.9 L 143.8,148.9 L 143.8,148.9 L 143.9,148.9 L 143.9,148.9 L 144.0,149.0 L 144.0,149.0 L 144.1,149.1 L 144.1,149.1 L 144.2,149.2 L 144.2,149.2 L 144.2,149.3 L 144.2,149.3 L 144.3,149.4 L 144.3,149.4 L 144.3,149.5 L 144.3,149.5 L 143.6,149.5 Z" style="fill:#000000;fill-rule:evenodd;fill-opacity:1;stroke:#000000;stroke-width:0.0px;stroke-linecap:butt;stroke-linejoin:miter;stroke-miterlimit:10;stroke-opacity:1;"/>
<path class="bond-0 atom-0 atom-1" d="M 462.9,163.9 L 419.4,153.7" style="fill:none;fill-rule:evenodd;stroke:#000000;stroke-width:2.0px;stroke-linecap:butt;stroke-linejoin:miter;stroke-opacity:1"/>
<path class="bond-1 atom-1 atom-2" d="M 419.4,153.7 L 383.7,191.8" style="fill:none;fill-rule:evenodd;stroke:#000000;stroke-width:2.0px;stroke-linecap:butt;stroke-linejoin:miter;stroke-opacity:1"/>
<path class="bond-1 atom-1 atom-2" d="M 410.6,151.6 L 381.1,183.1" style="fill:none;fill-rule:evenodd;stroke:#000000;stroke-width:2.0px;stroke-linecap:butt;stroke-linejoin:miter;stroke-opacity:1"/>
<path class="bond-2 atom-2 atom-3" d="M 383.7,191.8 L 332.9,179.9" style="fill:none;fill-rule:evenodd;stroke:#000000;stroke-width:2.0px;stroke-linecap:butt;stroke-linejoin:miter;stroke-opacity:1"/>
<path class="bond-3 atom-3 atom-4" d="M 332.9,179.9 L 317.7,129.9" style="fill:none;fill-rule:evenodd;stroke:#000000;stroke-width:2.0px;stroke-linecap:butt;stroke-linejoin:miter;stroke-opacity:1"/>
<path class="bond-3 atom-3 atom-4" d="M 339.0,173.3 L 326.5,132.0" style="fill:none;fill-rule:evenodd;stroke:#000000;stroke-width:2.0px;stroke-linecap:butt;stroke-linejoin:miter;stroke-opacity:1"/>
<path class="bond-4 atom-4 atom-5" d="M 317.7,129.9 L 273.0,119.4" style="fill:none;fill-rule:evenodd;stroke:#000000;stroke-width:2.0px;stroke-linecap:butt;stroke-linejoin:miter;stroke-opacity:1"/>
<path class="bond-5 atom-4 atom-6" d="M 317.7,129.9 L 353.4,91.8" style="fill:none;fill-rule:evenodd;stroke:#000000;stroke-width:2.0px;stroke-linecap:butt;stroke-linejoin:miter;stroke-opacity:1"/>
<path class="bond-6 atom-6 atom-7" d="M 353.4,91.8 L 404.3,103.7" style="fill:none;fill-rule:evenodd;stroke:#000000;stroke-width:2.0px;stroke-linecap:butt;stroke-linejoin:miter;stroke-opacity:1"/>
<path class="bond-6 atom-6 atom-7" d="M 356.1,100.5 L 398.1,110.3" style="fill:none;fill-rule:evenodd;stroke:#000000;stroke-width:2.0px;stroke-linecap:butt;stroke-linejoin:miter;stroke-opacity:1"/>
<path class="bond-7 atom-7 atom-8" d="M 404.3,103.7 L 433.9,72.2" style="fill:none;fill-rule:evenodd;stroke:#000000;stroke-width:2.0px;stroke-linecap:butt;stroke-linejoin:miter;stroke-opacity:1"/>
<path class="bond-8 atom-7 atom-1" d="M 404.3,103.7 L 419.4,153.7" style="fill:none;fill-rule:evenodd;stroke:#000000;stroke-width:2.0px;stroke-linecap:butt;stroke-linejoin:miter;stroke-opacity:1"/>
<path d="M 385.5,189.9 L 383.7,191.8 L 381.1,191.2" style="fill:none;stroke:#000000;stroke-width:2.0px;stroke-linecap:butt;stroke-linejoin:miter;stroke-miterlimit:10;stroke-opacity:1;"/>
<path d="M 335.4,180.5 L 332.9,179.9 L 332.1,177.4" style="fill:none;stroke:#000000;stroke-width:2.0px;stroke-linecap:butt;stroke-linejoin:miter;stroke-miterlimit:10;stroke-opacity:1;"/>
<path d="M 351.7,93.7 L 353.4,91.8 L 356.0,92.4" style="fill:none;stroke:#000000;stroke-width:2.0px;stroke-linecap:butt;stroke-linejoin:miter;stroke-miterlimit:10;stroke-opacity:1;"/>
<path class="atom-0" d="M 467.0 158.2 L 471.8 166.0 Q 472.3 166.8, 473.1 168.2 Q 473.8 169.6, 473.9 169.7 L 473.9 158.2 L 475.8 158.2 L 475.8 173.0 L 473.8 173.0 L 468.6 164.4 Q 468.0 163.4, 467.4 162.3 Q 466.7 161.1, 466.6 160.7 L 466.6 173.0 L 464.6 173.0 L 464.6 158.2 L 467.0 158.2 " fill="#000000"/>
<path class="atom-0" d="M 478.5 160.6 L 483.6 160.6 L 483.6 161.7 L 478.5 161.7 L 478.5 160.6 " fill="#000000"/>
<path class="atom-5" d="M 262.5 110.6 L 271.3 110.6 L 271.3 112.3 L 264.5 112.3 L 264.5 116.8 L 270.5 116.8 L 270.5 118.5 L 264.5 118.5 L 264.5 125.4 L 262.5 125.4 L 262.5 110.6 " fill="#000000"/>
<path class="atom-8" d="M 435.6 58.2 L 444.4 58.2 L 444.4 59.9 L 437.6 59.9 L 437.6 64.4 L 443.6 64.4 L 443.6 66.1 L 437.6 66.1 L 437.6 73.0 L 435.6 73.0 L 435.6 58.2 " fill="#000000"/>
<path class="atom-0" d="M 487.8,165.6 L 487.8,165.7 L 487.7,165.8 L 487.7,165.8 L 487.7,165.9 L 487.7,166.0 L 487.6,166.1 L 487.6,166.2 L 487.5,166.2 L 487.5,166.3 L 487.4,166.4 L 487.3,166.4 L 487.3,166.5 L 487.2,166.5 L 487.1,166.5 L 487.0,166.6 L 486.9,166.6 L 486.8,166.6 L 486.7,166.6 L 486.6,166.6 L 486.6,166.6 L 486.5,166.6 L 486.4,166.6 L 486.3,166.5 L 486.2,166.5 L 486.1,166.4 L 486.1,166.4 L 486.0,166.3 L 485.9,166.3 L 485.9,166.2 L 485.8,166.1 L 485.8,166.0 L 485.8,166.0 L 485.7,165.9 L 485.7,165.8 L 485.7,165.7 L 485.7,165.6 L 485.7,165.5 L 485.7,165.4 L 485.7,165.3 L 485.7,165.3 L 485.8,165.2 L 485.8,165.1 L 485.8,165.0 L 485.9,164.9 L 485.9,164.9 L 486.0,164.8 L 486.1,164.8 L 486.1,164.7 L 486.2,164.7 L 486.3,164.6 L 486.4,164.6 L 486.5,164.6 L 486.6,164.5 L 486.6,164.5 L 486.7,164.5 L 486.8,164.5 L 486.9,164.5 L 487.0,164.6 L 487.1,164.6 L 487.2,164.6 L 487.3,164.7 L 487.3,164.7 L 487.4,164.8 L 487.5,164.8 L 487.5,164.9 L 487.6,165.0 L 487.6,165.1 L 487.7,165.1 L 487.7,165.2 L 487.7,165.3 L 487.7,165.4 L 487.8,165.5 L 487.8,165.6 L 486.7,165.6 Z" style="fill:#000000;fill-rule:evenodd;fill-opacity:1;stroke:#000000;stroke-width:0.0px;stroke-linecap:butt;stroke-linejoin:miter;stroke-miterlimit:10;stroke-opacity:1;"/>
<path class="bond-0 atom-0 atom-1" d="M 696.6,132.2 L 656.4,109.0" style="fill:none;fill-rule:evenodd;stroke:#000000;stroke-width:2.0px;stroke-linecap:butt;stroke-linejoin:miter;stroke-opacity:1"/>
<path class="bond-0 atom-0 atom-1" d="M 692.4,139.4 L 656.4,118.6" style="fill:none;fill-rule:evenodd;stroke:#000000;stroke-width:2.0px;stroke-linecap:butt;stroke-linejoin:miter;stroke-opacity:1"/>
<path class="bond-1 atom-1 atom-2" d="M 656.4,109.0 L 608.4,136.7" style="fill:none;fill-rule:evenodd;stroke:#000000;stroke-width:2.0px;stroke-linecap:butt;stroke-linejoin:miter;stroke-opacity:1"/>
<path class="bond-2 atom-2 atom-3" d="M 608.4,136.7 L 560.5,109.0" style="fill:none;fill-rule:evenodd;stroke:#000000;stroke-width:2.0px;stroke-linecap:butt;stroke-linejoin:miter;stroke-opacity:1"/>
<path class="bond-2 atom-2 atom-3" d="M 608.4,127.1 L 564.6,101.8" style="fill:none;fill-rule:evenodd;stroke:#000000;stroke-width:2.0px;stroke-linecap:butt;stroke-linejoin:miter;stroke-opacity:1"/>
<path class="bond-3 atom-3 atom-4" d="M 560.5,109.0 L 512.5,136.7" style="fill:none;fill-rule:evenodd;stroke:#000000;stroke-width:2.0px;stroke-linecap:butt;stroke-linejoin:miter;stroke-opacity:1"/>
<path d="M 658.4,110.2 L 656.4,109.0 L 654.0,110.4" style="fill:none;stroke:#000000;stroke-width:2.0px;stroke-linecap:butt;stroke-linejoin:miter;stroke-miterlimit:10;stroke-opacity:1;"/>
<path d="M 610.8,135.3 L 608.4,136.7 L 606.0,135.3" style="fill:none;stroke:#000000;stroke-width:2.0px;stroke-linecap:butt;stroke-linejoin:miter;stroke-miterlimit:10;stroke-opacity:1;"/>
<path d="M 562.9,110.4 L 560.5,109.0 L 558.1,110.4" style="fill:none;stroke:#000000;stroke-width:2.0px;stroke-linecap:butt;stroke-linejoin:miter;stroke-miterlimit:10;stroke-opacity:1;"/>
<path class="atom-0" d="M 698.8 132.5 L 703.9 140.8 Q 704.5 141.6, 705.3 143.1 Q 706.1 144.6, 706.1 144.7 L 706.1 132.5 L 708.2 132.5 L 708.2 148.2 L 706.1 148.2 L 700.6 139.1 Q 699.9 138.0, 699.2 136.8 Q 698.6 135.6, 698.4 135.2 L 698.4 148.2 L 696.3 148.2 L 696.3 132.5 L 698.8 132.5 " fill="#000000"/>
<path class="atom-0" d="M 711.2 132.5 L 713.3 132.5 L 713.3 139.1 L 721.4 139.1 L 721.4 132.5 L 723.5 132.5 L 723.5 148.2 L 721.4 148.2 L 721.4 140.9 L 713.3 140.9 L 713.3 148.2 L 711.2 148.2 L 711.2 132.5 " fill="#000000"/>
<path class="atom-0" d="M 726.5 135.3 L 729.3 135.3 L 729.3 132.4 L 730.5 132.4 L 730.5 135.3 L 733.3 135.3 L 733.3 136.4 L 730.5 136.4 L 730.5 139.3 L 729.3 139.3 L 729.3 136.4 L 726.5 136.4 L 726.5 135.3 " fill="#000000"/>
<path class="atom-0" d="M 737.8,136.7 L 737.8,136.8 L 737.8,136.9 L 737.7,137.0 L 737.7,137.1 L 737.7,137.2 L 737.6,137.3 L 737.6,137.4 L 737.5,137.4 L 737.5,137.5 L 737.4,137.6 L 737.3,137.6 L 737.2,137.7 L 737.2,137.7 L 737.1,137.8 L 737.0,137.8 L 736.9,137.8 L 736.8,137.8 L 736.7,137.8 L 736.6,137.8 L 736.5,137.8 L 736.4,137.8 L 736.3,137.8 L 736.2,137.7 L 736.1,137.7 L 736.1,137.6 L 736.0,137.6 L 735.9,137.5 L 735.8,137.5 L 735.8,137.4 L 735.7,137.3 L 735.7,137.2 L 735.6,137.1 L 735.6,137.1 L 735.6,137.0 L 735.6,136.9 L 735.6,136.8 L 735.6,136.7 L 735.6,136.6 L 735.6,136.5 L 735.6,136.4 L 735.6,136.3 L 735.7,136.2 L 735.7,136.1 L 735.8,136.1 L 735.8,136.0 L 735.9,135.9 L 736.0,135.9 L 736.1,135.8 L 736.1,135.7 L 736.2,135.7 L 736.3,135.7 L 736.4,135.6 L 736.5,135.6 L 736.6,135.6 L 736.7,135.6 L 736.8,135.6 L 736.9,135.6 L 737.0,135.7 L 737.1,135.7 L 737.2,135.7 L 737.2,135.8 L 737.3,135.8 L 737.4,135.9 L 737.5,135.9 L 737.5,136.0 L 737.6,136.1 L 737.6,136.2 L 737.7,136.3 L 737.7,136.3 L 737.7,136.4 L 737.8,136.5 L 737.8,136.6 L 737.8,136.7 L 736.7,136.7 Z" style="fill:#000000;fill-rule:evenodd;fill-opacity:1;stroke:#000000;stroke-width:0.0px;stroke-linecap:butt;stroke-linejoin:miter;stroke-miterlimit:10;stroke-opacity:1;"/>
<path class="bond-0 atom-0 atom-1" d="M 65.3,406.4 L 31.0,440.7" style="fill:none;fill-rule:evenodd;stroke:#000000;stroke-width:2.0px;stroke-linecap:butt;stroke-linejoin:miter;stroke-opacity:1"/>
<path class="bond-1 atom-0 atom-2" d="M 65.3,406.4 L 128.3,406.4" style="fill:none;fill-rule:evenodd;stroke:#000000;stroke-width:2.0px;stroke-linecap:butt;stroke-linejoin:miter;stroke-opacity:1"/>
<path class="bond-2 atom-2 atom-3" d="M 128.3,406.4 L 182.9,437.9" style="fill:none;fill-rule:evenodd;stroke:#000000;stroke-width:2.0px;stroke-linecap:butt;stroke-linejoin:miter;stroke-opacity:1"/>
<path class="bond-2 atom-2 atom-3" d="M 137.8,400.9 L 182.9,427.0" style="fill:none;fill-rule:evenodd;stroke:#000000;stroke-width:2.0px;stroke-linecap:butt;stroke-linejoin:miter;stroke-opacity:1"/>
<path class="bond-3 atom-3 atom-4" d="M 182.9,437.9 L 237.5,406.4" style="fill:none;fill-rule:evenodd;stroke:#000000;stroke-width:2.0px;stroke-linecap:butt;stroke-linejoin:miter;stroke-opacity:1"/>
<path class="bond-4 atom-4 atom-5" d="M 237.5,406.4 L 237.5,343.3" style="fill:none;fill-rule:evenodd;stroke:#000000;stroke-width:2.0px;stroke-linecap:butt;stroke-linejoin:miter;stroke-opacity:1"/>
<path class="bond-4 atom-4 atom-5" d="M 228.0,400.9 L 228.0,348.8" style="fill:none;fill-rule:evenodd;stroke:#000000;stroke-width:2.0px;stroke-linecap:butt;stroke-linejoin:miter;stroke-opacity:1"/>
<path class="bond-5 atom-5 atom-6" d="M 237.5,343.3 L 182.9,311.8" style="fill:none;fill-rule:evenodd;stroke:#000000;stroke-width:2.0px;stroke-linecap:butt;stroke-linejoin:miter;stroke-opacity:1"/>
<path class="bond-6 atom-6 atom-7" d="M 182.9,311.8 L 128.3,343.3" style="fill:none;fill-rule:evenodd;stroke:#000000;stroke-width:2.0px;stroke-linecap:butt;stroke-linejoin:miter;stroke-opacity:1"/>
<path class="bond-6 atom-6 atom-7" d="M 182.9,322.7 L 137.8,348.8" style="fill:none;fill-rule:evenodd;stroke:#000000;stroke-width:2.0px;stroke-linecap:butt;stroke-linejoin:miter;stroke-opacity:1"/>
<path class="bond-7 atom-7 atom-8" d="M 128.3,343.3 L 65.3,343.3" style="fill:none;fill-rule:evenodd;stroke:#000000;stroke-width:2.0px;stroke-linecap:butt;stroke-linejoin:miter;stroke-opacity:1"/>
<path class="bond-8 atom-8 atom-9" d="M 72.0,343.3 L 34.3,305.7" style="fill:none;fill-rule:evenodd;stroke:#000000;stroke-width:2.0px;stroke-linecap:butt;stroke-linejoin:miter;stroke-opacity:1"/>
<path class="bond-8 atom-8 atom-9" d="M 65.3,350.0 L 27.6,312.4" style="fill:none;fill-rule:evenodd;stroke:#000000;stroke-width:2.0px;stroke-linecap:butt;stroke-linejoin:miter;stroke-opacity:1"/>
<path class="bond-9 atom-8 atom-0" d="M 65.3,343.3 L 65.3,406.4" style="fill:none;fill-rule:evenodd;stroke:#000000;stroke-width:2.0px;stroke-linecap:butt;stroke-linejoin:miter;stroke-opacity:1"/>
<path class="bond-10 atom-7 atom-2" d="M 128.3,343.3 L 128.3,406.4" style="fill:none;fill-rule:evenodd;stroke:#000000;stroke-width:2.0px;stroke-linecap:butt;stroke-linejoin:miter;stroke-opacity:1"/>
<path d="M 180.2,436.3 L 182.9,437.9 L 185.6,436.3" style="fill:none;stroke:#000000;stroke-width:2.0px;stroke-linecap:butt;stroke-linejoin:miter;stroke-miterlimit:10;stroke-opacity:1;"/>
<path d="M 234.8,408.0 L 237.5,406.4 L 237.5,403.2" style="fill:none;stroke:#000000;stroke-width:2.0px;stroke-linecap:butt;stroke-linejoin:miter;stroke-miterlimit:10;stroke-opacity:1;"/>
<path d="M 237.5,346.5 L 237.5,343.3 L 234.8,341.8" style="fill:none;stroke:#000000;stroke-width:2.0px;stroke-linecap:butt;stroke-linejoin:miter;stroke-miterlimit:10;stroke-opacity:1;"/>
<path d="M 185.6,313.4 L 182.9,311.8 L 180.2,313.4" style="fill:none;stroke:#000000;stroke-width:2.0px;stroke-linecap:butt;stroke-linejoin:miter;stroke-miterlimit:10;stroke-opacity:1;"/>
<path d="M 68.4,343.3 L 65.3,343.3 L 65.3,346.5" style="fill:none;stroke:#000000;stroke-width:2.0px;stroke-linecap:butt;stroke-linejoin:miter;stroke-miterlimit:10;stroke-opacity:1;"/>
<path class="atom-1" d="M 12.5 451.0 Q 12.5 446.7, 14.6 444.3 Q 16.7 441.9, 20.7 441.9 Q 24.7 441.9, 26.8 444.3 Q 28.9 446.7, 28.9 451.0 Q 28.9 455.3, 26.7 457.8 Q 24.6 460.3, 20.7 460.3 Q 16.8 460.3, 14.6 457.8 Q 12.5 455.4, 12.5 451.0 M 20.7 458.2 Q 23.4 458.2, 24.9 456.4 Q 26.4 454.6, 26.4 451.0 Q 26.4 447.5, 24.9 445.7 Q 23.4 443.9, 20.7 443.9 Q 18.0 443.9, 16.5 445.7 Q 15.0 447.5, 15.0 451.0 Q 15.0 454.6, 16.5 456.4 Q 18.0 458.2, 20.7 458.2 " fill="#000000"/>
<path class="atom-1" d="M 31.4 444.8 L 37.5 444.8 L 37.5 446.2 L 31.4 446.2 L 31.4 444.8 " fill="#000000"/>
<path class="atom-9" d="M 12.5 298.8 Q 12.5 294.5, 14.6 292.1 Q 16.7 289.7, 20.7 289.7 Q 24.7 289.7, 26.8 292.1 Q 28.9 294.5, 28.9 298.8 Q 28.9 303.2, 26.7 305.6 Q 24.6 308.1, 20.7 308.1 Q 16.8 308.1, 14.6 305.6 Q 12.5 303.2, 12.5 298.8 M 20.7 306.1 Q 23.4 306.1, 24.9 304.2 Q 26.4 302.4, 26.4 298.8 Q 26.4 295.3, 24.9 293.5 Q 23.4 291.8, 20.7 291.8 Q 18.0 291.8, 16.5 293.5 Q 15.0 295.3, 15.0 298.8 Q 15.0 302.4, 16.5 304.2 Q 18.0 306.1, 20.7 306.1 " fill="#000000"/>
<path class="bond-0 atom-0 atom-1" d="M 289.5,347.9 L 262.5,362.3" style="fill:none;fill-rule:evenodd;stroke:#000000;stroke-width:2.0px;stroke-linecap:butt;stroke-linejoin:miter;stroke-opacity:1"/>
<path class="bond-1 atom-1 atom-2" d="M 262.5,362.3 L 268.8,398.1" style="fill:none;fill-rule:evenodd;stroke:#000000;stroke-width:2.0px;stroke-linecap:butt;stroke-linejoin:miter;stroke-opacity:1"/>
<path class="bond-2 atom-2 atom-3" d="M 268.8,398.1 L 304.8,403.2" style="fill:none;fill-rule:evenodd;stroke:#000000;stroke-width:2.0px;stroke-linecap:butt;stroke-linejoin:miter;stroke-opacity:1"/>
<path class="bond-3 atom-3 atom-4" d="M 304.8,403.2 L 320.8,370.5" style="fill:none;fill-rule:evenodd;stroke:#000000;stroke-width:2.0px;stroke-linecap:butt;stroke-linejoin:miter;stroke-opacity:1"/>
<path class="bond-4 atom-4 atom-5" d="M 320.8,370.5 L 351.5,365.2" style="fill:none;fill-rule:evenodd;stroke:#000000;stroke-width:2.0px;stroke-linecap:butt;stroke-linejoin:miter;stroke-opacity:1"/>
<path class="bond-5 atom-5 atom-6" d="M 361.9,370.6 L 380.0,392.2" style="fill:none;fill-rule:evenodd;stroke:#000000;stroke-width:2.0px;stroke-linecap:butt;stroke-linejoin:miter;stroke-opacity:1"/>
<path class="bond-6 atom-6 atom-7" d="M 378.0,389.7 L 367.3,419.0" style="fill:none;fill-rule:evenodd;stroke:#000000;stroke-width:2.0px;stroke-linecap:butt;stroke-linejoin:miter;stroke-opacity:1"/>
<path class="bond-6 atom-6 atom-7" d="M 383.1,391.6 L 372.4,420.9" style="fill:none;fill-rule:evenodd;stroke:#000000;stroke-width:2.0px;stroke-linecap:butt;stroke-linejoin:miter;stroke-opacity:1"/>
<path class="bond-7 atom-6 atom-8" d="M 380.0,392.2 L 415.8,385.9" style="fill:none;fill-rule:evenodd;stroke:#000000;stroke-width:2.0px;stroke-linecap:butt;stroke-linejoin:miter;stroke-opacity:1"/>
<path class="bond-8 atom-8 atom-9" d="M 415.8,385.9 L 439.2,413.8" style="fill:none;fill-rule:evenodd;stroke:#000000;stroke-width:2.0px;stroke-linecap:butt;stroke-linejoin:miter;stroke-opacity:1"/>
<path class="bond-8 atom-8 atom-9" d="M 422.0,384.8 L 441.3,407.9" style="fill:none;fill-rule:evenodd;stroke:#000000;stroke-width:2.0px;stroke-linecap:butt;stroke-linejoin:miter;stroke-opacity:1"/>
<path class="bond-9 atom-9 atom-10" d="M 439.2,413.8 L 475.0,407.5" style="fill:none;fill-rule:evenodd;stroke:#000000;stroke-width:2.0px;stroke-linecap:butt;stroke-linejoin:miter;stroke-opacity:1"/>
<path class="bond-10 atom-10 atom-11" d="M 475.0,407.5 L 487.5,373.3" style="fill:none;fill-rule:evenodd;stroke:#000000;stroke-width:2.0px;stroke-linecap:butt;stroke-linejoin:miter;stroke-opacity:1"/>
<path class="bond-10 atom-10 atom-11" d="M 471.0,402.7 L 481.3,374.4" style="fill:none;fill-rule:evenodd;stroke:#000000;stroke-width:2.0px;stroke-linecap:butt;stroke-linejoin:miter;stroke-opacity:1"/>
<path class="bond-11 atom-11 atom-12" d="M 487.5,373.3 L 464.1,345.4" style="fill:none;fill-rule:evenodd;stroke:#000000;stroke-width:2.0px;stroke-linecap:butt;stroke-linejoin:miter;stroke-opacity:1"/>
<path class="bond-12 atom-12 atom-13" d="M 464.1,345.4 L 428.3,351.7" style="fill:none;fill-rule:evenodd;stroke:#000000;stroke-width:2.0px;stroke-linecap:butt;stroke-linejoin:miter;stroke-opacity:1"/>
<path class="bond-12 atom-12 atom-13" d="M 462.0,351.4 L 432.4,356.5" style="fill:none;fill-rule:evenodd;stroke:#000000;stroke-width:2.0px;stroke-linecap:butt;stroke-linejoin:miter;stroke-opacity:1"/>
<path class="bond-13 atom-13 atom-14" d="M 428.3,351.7 L 406.8,326.0" style="fill:none;fill-rule:evenodd;stroke:#000000;stroke-width:2.0px;stroke-linecap:butt;stroke-linejoin:miter;stroke-opacity:1"/>
<path class="bond-14 atom-4 atom-0" d="M 320.8,370.5 L 299.8,350.2" style="fill:none;fill-rule:evenodd;stroke:#000000;stroke-width:2.0px;stroke-linecap:butt;stroke-linejoin:miter;stroke-opacity:1"/>
<path class="bond-15 atom-13 atom-8" d="M 428.3,351.7 L 415.8,385.9" style="fill:none;fill-rule:evenodd;stroke:#000000;stroke-width:2.0px;stroke-linecap:butt;stroke-linejoin:miter;stroke-opacity:1"/>
<path d="M 263.9,361.6 L 262.5,362.3 L 262.8,364.1" style="fill:none;stroke:#000000;stroke-width:2.0px;stroke-linecap:butt;stroke-linejoin:miter;stroke-miterlimit:10;stroke-opacity:1;"/>
<path d="M 268.5,396.3 L 268.8,398.1 L 270.6,398.4" style="fill:none;stroke:#000000;stroke-width:2.0px;stroke-linecap:butt;stroke-linejoin:miter;stroke-miterlimit:10;stroke-opacity:1;"/>
<path d="M 303.0,403.0 L 304.8,403.2 L 305.6,401.6" style="fill:none;stroke:#000000;stroke-width:2.0px;stroke-linecap:butt;stroke-linejoin:miter;stroke-miterlimit:10;stroke-opacity:1;"/>
<path d="M 379.1,391.1 L 380.0,392.2 L 381.8,391.9" style="fill:none;stroke:#000000;stroke-width:2.0px;stroke-linecap:butt;stroke-linejoin:miter;stroke-miterlimit:10;stroke-opacity:1;"/>
<path d="M 438.0,412.4 L 439.2,413.8 L 441.0,413.5" style="fill:none;stroke:#000000;stroke-width:2.0px;stroke-linecap:butt;stroke-linejoin:miter;stroke-miterlimit:10;stroke-opacity:1;"/>
<path d="M 473.2,407.8 L 475.0,407.5 L 475.6,405.8" style="fill:none;stroke:#000000;stroke-width:2.0px;stroke-linecap:butt;stroke-linejoin:miter;stroke-miterlimit:10;stroke-opacity:1;"/>
<path d="M 486.9,375.1 L 487.5,373.3 L 486.3,371.9" style="fill:none;stroke:#000000;stroke-width:2.0px;stroke-linecap:butt;stroke-linejoin:miter;stroke-miterlimit:10;stroke-opacity:1;"/>
<path d="M 465.3,346.8 L 464.1,345.4 L 462.4,345.8" style="fill:none;stroke:#000000;stroke-width:2.0px;stroke-linecap:butt;stroke-linejoin:miter;stroke-miterlimit:10;stroke-opacity:1;"/>
<path class="atom-0" d="M 292.4 340.1 L 295.7 345.5 Q 296.1 346.1, 296.6 347.0 Q 297.2 348.0, 297.2 348.1 L 297.2 340.1 L 298.6 340.1 L 298.6 350.4 L 297.1 350.4 L 293.5 344.4 Q 293.1 343.7, 292.6 342.9 Q 292.2 342.1, 292.1 341.9 L 292.1 350.4 L 290.7 350.4 L 290.7 340.1 L 292.4 340.1 " fill="#000000"/>
<path class="atom-0" d="M 300.5 341.9 L 302.3 341.9 L 302.3 340.0 L 303.1 340.0 L 303.1 341.9 L 305.0 341.9 L 305.0 342.6 L 303.1 342.6 L 303.1 344.5 L 302.3 344.5 L 302.3 342.6 L 300.5 342.6 L 300.5 341.9 " fill="#000000"/>
<path class="atom-5" d="M 354.4 359.1 L 357.7 364.6 Q 358.1 365.1, 358.6 366.1 Q 359.1 367.1, 359.2 367.1 L 359.2 359.1 L 360.5 359.1 L 360.5 369.4 L 359.1 369.4 L 355.5 363.4 Q 355.1 362.7, 354.6 361.9 Q 354.2 361.1, 354.1 360.9 L 354.1 369.4 L 352.7 369.4 L 352.7 359.1 L 354.4 359.1 " fill="#000000"/>
<path class="atom-5" d="M 362.5 359.1 L 363.9 359.1 L 363.9 363.5 L 369.2 363.5 L 369.2 359.1 L 370.6 359.1 L 370.6 369.4 L 369.2 369.4 L 369.2 364.7 L 363.9 364.7 L 363.9 369.4 L 362.5 369.4 L 362.5 359.1 " fill="#000000"/>
<path class="atom-7" d="M 362.8 426.4 Q 362.8 423.9, 364.0 422.5 Q 365.2 421.1, 367.5 421.1 Q 369.8 421.1, 371.0 422.5 Q 372.2 423.9, 372.2 426.4 Q 372.2 428.9, 371.0 430.3 Q 369.8 431.7, 367.5 431.7 Q 365.2 431.7, 364.0 430.3 Q 362.8 428.9, 362.8 426.4 M 367.5 430.5 Q 369.1 430.5, 369.9 429.5 Q 370.8 428.4, 370.8 426.4 Q 370.8 424.3, 369.9 423.3 Q 369.1 422.3, 367.5 422.3 Q 365.9 422.3, 365.1 423.3 Q 364.2 424.3, 364.2 426.4 Q 364.2 428.4, 365.1 429.5 Q 365.9 430.5, 367.5 430.5 " fill="#000000"/>
<path class="atom-14" d="M 395.3 324.2 Q 395.3 321.6, 396.5 320.3 Q 397.7 318.9, 400.0 318.9 Q 402.1 318.9, 403.2 320.4 L 402.3 321.2 Q 401.4 320.1, 400.0 320.1 Q 398.4 320.1, 397.6 321.2 Q 396.8 322.2, 396.8 324.2 Q 396.8 326.2, 397.6 327.3 Q 398.5 328.3, 400.1 328.3 Q 401.3 328.3, 402.6 327.6 L 403.0 328.7 Q 402.5 329.1, 401.7 329.3 Q 400.8 329.5, 399.9 329.5 Q 397.7 329.5, 396.5 328.1 Q 395.3 326.7, 395.3 324.2 " fill="#000000"/>
<path class="atom-14" d="M 404.3 318.3 L 405.6 318.3 L 405.6 329.3 L 404.3 329.3 L 404.3 318.3 " fill="#000000"/>
<path class="atom-0" d="M 296.8,338.9 L 296.8,339.0 L 296.8,339.1 L 296.8,339.1 L 296.8,339.2 L 296.8,339.2 L 296.7,339.3 L 296.7,339.3 L 296.7,339.4 L 296.6,339.4 L 296.6,339.5 L 296.5,339.5 L 296.5,339.6 L 296.4,339.6 L 296.4,339.6 L 296.3,339.6 L 296.2,339.6 L 296.2,339.7 L 296.1,339.7 L 296.1,339.7 L 296.0,339.7 L 295.9,339.6 L 295.9,339.6 L 295.8,339.6 L 295.8,339.6 L 295.7,339.5 L 295.7,339.5 L 295.6,339.5 L 295.6,339.4 L 295.5,339.4 L 295.5,339.3 L 295.5,339.3 L 295.4,339.2 L 295.4,339.1 L 295.4,339.1 L 295.4,339.0 L 295.4,339.0 L 295.4,338.9 L 295.4,338.8 L 295.4,338.8 L 295.4,338.7 L 295.4,338.7 L 295.5,338.6 L 295.5,338.5 L 295.5,338.5 L 295.6,338.4 L 295.6,338.4 L 295.7,338.4 L 295.7,338.3 L 295.8,338.3 L 295.8,338.3 L 295.9,338.2 L 295.9,338.2 L 296.0,338.2 L 296.1,338.2 L 296.1,338.2 L 296.2,338.2 L 296.2,338.2 L 296.3,338.2 L 296.4,338.3 L 296.4,338.3 L 296.5,338.3 L 296.5,338.3 L 296.6,338.4 L 296.6,338.4 L 296.7,338.5 L 296.7,338.5 L 296.7,338.6 L 296.8,338.6 L 296.8,338.7 L 296.8,338.7 L 296.8,338.8 L 296.8,338.9 L 296.8,338.9 L 296.1,338.9 Z" style="fill:#000000;fill-rule:evenodd;fill-opacity:1;stroke:#000000;stroke-width:0.0px;stroke-linecap:butt;stroke-linejoin:miter;stroke-miterlimit:10;stroke-opacity:1;"/>
<path class="atom-0" d="M 293.9,338.9 L 293.9,339.0 L 293.9,339.1 L 293.9,339.1 L 293.9,339.2 L 293.9,339.2 L 293.8,339.3 L 293.8,339.3 L 293.8,339.4 L 293.7,339.4 L 293.7,339.5 L 293.6,339.5 L 293.6,339.6 L 293.5,339.6 L 293.5,339.6 L 293.4,339.6 L 293.3,339.6 L 293.3,339.7 L 293.2,339.7 L 293.1,339.7 L 293.1,339.7 L 293.0,339.6 L 293.0,339.6 L 292.9,339.6 L 292.8,339.6 L 292.8,339.5 L 292.7,339.5 L 292.7,339.5 L 292.6,339.4 L 292.6,339.4 L 292.6,339.3 L 292.5,339.3 L 292.5,339.2 L 292.5,339.1 L 292.5,339.1 L 292.5,339.0 L 292.5,339.0 L 292.5,338.9 L 292.5,338.8 L 292.5,338.8 L 292.5,338.7 L 292.5,338.7 L 292.5,338.6 L 292.6,338.5 L 292.6,338.5 L 292.6,338.4 L 292.7,338.4 L 292.7,338.4 L 292.8,338.3 L 292.8,338.3 L 292.9,338.3 L 293.0,338.2 L 293.0,338.2 L 293.1,338.2 L 293.1,338.2 L 293.2,338.2 L 293.3,338.2 L 293.3,338.2 L 293.4,338.2 L 293.5,338.3 L 293.5,338.3 L 293.6,338.3 L 293.6,338.3 L 293.7,338.4 L 293.7,338.4 L 293.8,338.5 L 293.8,338.5 L 293.8,338.6 L 293.9,338.6 L 293.9,338.7 L 293.9,338.7 L 293.9,338.8 L 293.9,338.9 L 293.9,338.9 L 293.2,338.9 Z" style="fill:#000000;fill-rule:evenodd;fill-opacity:1;stroke:#000000;stroke-width:0.0px;stroke-linecap:butt;stroke-linejoin:miter;stroke-miterlimit:10;stroke-opacity:1;"/>
<path class="bond-0 atom-0 atom-1" d="M 718.3,381.9 L 688.8,364.9" style="fill:none;fill-rule:evenodd;stroke:#000000;stroke-width:2.0px;stroke-linecap:butt;stroke-linejoin:miter;stroke-opacity:1"/>
<path class="bond-1 atom-1 atom-2" d="M 688.8,364.9 L 653.5,385.2" style="fill:none;fill-rule:evenodd;stroke:#000000;stroke-width:2.0px;stroke-linecap:butt;stroke-linejoin:miter;stroke-opacity:1"/>
<path class="bond-2 atom-2 atom-3" d="M 653.5,385.2 L 624.9,368.7" style="fill:none;fill-rule:evenodd;stroke:#000000;stroke-width:2.0px;stroke-linecap:butt;stroke-linejoin:miter;stroke-opacity:1"/>
<path class="bond-3 atom-3 atom-4" d="M 611.6,368.7 L 583.0,385.2" style="fill:none;fill-rule:evenodd;stroke:#000000;stroke-width:2.0px;stroke-linecap:butt;stroke-linejoin:miter;stroke-opacity:1"/>
<path class="bond-4 atom-4 atom-5" d="M 583.0,385.2 L 547.8,364.9" style="fill:none;fill-rule:evenodd;stroke:#000000;stroke-width:2.0px;stroke-linecap:butt;stroke-linejoin:miter;stroke-opacity:1"/>
<path class="bond-4 atom-4 atom-5" d="M 583.0,378.2 L 550.8,359.6" style="fill:none;fill-rule:evenodd;stroke:#000000;stroke-width:2.0px;stroke-linecap:butt;stroke-linejoin:miter;stroke-opacity:1"/>
<path class="bond-5 atom-5 atom-6" d="M 547.8,364.9 L 512.5,385.2" style="fill:none;fill-rule:evenodd;stroke:#000000;stroke-width:2.0px;stroke-linecap:butt;stroke-linejoin:miter;stroke-opacity:1"/>
<path d="M 690.3,365.7 L 688.8,364.9 L 687.0,365.9" style="fill:none;stroke:#000000;stroke-width:2.0px;stroke-linecap:butt;stroke-linejoin:miter;stroke-miterlimit:10;stroke-opacity:1;"/>
<path d="M 655.3,384.2 L 653.5,385.2 L 652.1,384.4" style="fill:none;stroke:#000000;stroke-width:2.0px;stroke-linecap:butt;stroke-linejoin:miter;stroke-miterlimit:10;stroke-opacity:1;"/>
<path d="M 584.4,384.4 L 583.0,385.2 L 581.3,384.2" style="fill:none;stroke:#000000;stroke-width:2.0px;stroke-linecap:butt;stroke-linejoin:miter;stroke-miterlimit:10;stroke-opacity:1;"/>
<path d="M 549.5,365.9 L 547.8,364.9 L 546.0,365.9" style="fill:none;stroke:#000000;stroke-width:2.0px;stroke-linecap:butt;stroke-linejoin:miter;stroke-miterlimit:10;stroke-opacity:1;"/>
<path class="atom-0" d="M 721.5 379.4 L 725.3 385.6 Q 725.6 386.2, 726.2 387.2 Q 726.9 388.3, 726.9 388.4 L 726.9 379.4 L 728.4 379.4 L 728.4 391.0 L 726.8 391.0 L 722.8 384.3 Q 722.3 383.5, 721.8 382.6 Q 721.3 381.7, 721.2 381.4 L 721.2 391.0 L 719.7 391.0 L 719.7 379.4 L 721.5 379.4 " fill="#000000"/>
<path class="atom-0" d="M 730.5 381.4 L 734.4 381.4 L 734.4 382.2 L 730.5 382.2 L 730.5 381.4 " fill="#000000"/>
<path class="atom-3" d="M 613.0 364.9 Q 613.0 362.1, 614.3 360.6 Q 615.7 359.0, 618.3 359.0 Q 620.8 359.0, 622.2 360.6 Q 623.6 362.1, 623.6 364.9 Q 623.6 367.7, 622.2 369.3 Q 620.8 370.9, 618.3 370.9 Q 615.7 370.9, 614.3 369.3 Q 613.0 367.7, 613.0 364.9 M 618.3 369.6 Q 620.0 369.6, 621.0 368.4 Q 621.9 367.2, 621.9 364.9 Q 621.9 362.6, 621.0 361.5 Q 620.0 360.3, 618.3 360.3 Q 616.5 360.3, 615.6 361.5 Q 614.6 362.6, 614.6 364.9 Q 614.6 367.2, 615.6 368.4 Q 616.5 369.6, 618.3 369.6 " fill="#000000"/>
<path class="atom-0" d="M 737.7,385.2 L 737.7,385.3 L 737.7,385.3 L 737.7,385.4 L 737.7,385.5 L 737.6,385.6 L 737.6,385.6 L 737.6,385.7 L 737.5,385.7 L 737.5,385.8 L 737.4,385.8 L 737.4,385.9 L 737.3,385.9 L 737.2,385.9 L 737.2,386.0 L 737.1,386.0 L 737.0,386.0 L 737.0,386.0 L 736.9,386.0 L 736.8,386.0 L 736.8,386.0 L 736.7,386.0 L 736.6,386.0 L 736.6,386.0 L 736.5,385.9 L 736.4,385.9 L 736.4,385.9 L 736.3,385.8 L 736.3,385.8 L 736.2,385.7 L 736.2,385.6 L 736.2,385.6 L 736.1,385.5 L 736.1,385.5 L 736.1,385.4 L 736.1,385.3 L 736.1,385.2 L 736.1,385.2 L 736.1,385.1 L 736.1,385.0 L 736.1,385.0 L 736.1,384.9 L 736.2,384.8 L 736.2,384.8 L 736.2,384.7 L 736.3,384.7 L 736.3,384.6 L 736.4,384.6 L 736.4,384.5 L 736.5,384.5 L 736.6,384.5 L 736.6,384.4 L 736.7,384.4 L 736.8,384.4 L 736.8,384.4 L 736.9,384.4 L 737.0,384.4 L 737.0,384.4 L 737.1,384.4 L 737.2,384.5 L 737.2,384.5 L 737.3,384.5 L 737.4,384.5 L 737.4,384.6 L 737.5,384.6 L 737.5,384.7 L 737.6,384.7 L 737.6,384.8 L 737.6,384.9 L 737.7,384.9 L 737.7,385.0 L 737.7,385.1 L 737.7,385.1 L 737.7,385.2 L 736.9,385.2 Z" style="fill:#000000;fill-rule:evenodd;fill-opacity:1;stroke:#000000;stroke-width:0.0px;stroke-linecap:butt;stroke-linejoin:miter;stroke-miterlimit:10;stroke-opacity:1;"/>
<path class="bond-0 atom-0 atom-1" d="M 227.4,686.2 L 218.8,707.9" style="fill:none;fill-rule:evenodd;stroke:#000000;stroke-width:2.0px;stroke-linecap:butt;stroke-linejoin:miter;stroke-opacity:1"/>
<path class="bond-1 atom-1 atom-2" d="M 218.8,707.9 L 236.6,730.5" style="fill:none;fill-rule:evenodd;stroke:#000000;stroke-width:2.0px;stroke-linecap:butt;stroke-linejoin:miter;stroke-opacity:1"/>
<path class="bond-2 atom-1 atom-3" d="M 218.8,707.9 L 190.3,712.0" style="fill:none;fill-rule:evenodd;stroke:#000000;stroke-width:2.0px;stroke-linecap:butt;stroke-linejoin:miter;stroke-opacity:1"/>
<path class="bond-3 atom-3 atom-4" d="M 190.3,712.0 L 172.5,689.5" style="fill:none;fill-rule:evenodd;stroke:#000000;stroke-width:2.0px;stroke-linecap:butt;stroke-linejoin:miter;stroke-opacity:1"/>
<path class="bond-3 atom-3 atom-4" d="M 192.1,707.4 L 175.9,686.8" style="fill:none;fill-rule:evenodd;stroke:#000000;stroke-width:2.0px;stroke-linecap:butt;stroke-linejoin:miter;stroke-opacity:1"/>
<path class="bond-4 atom-4 atom-5" d="M 172.5,689.5 L 144.0,693.6" style="fill:none;fill-rule:evenodd;stroke:#000000;stroke-width:2.0px;stroke-linecap:butt;stroke-linejoin:miter;stroke-opacity:1"/>
<path class="bond-5 atom-5 atom-6" d="M 144.0,693.6 L 133.4,720.3" style="fill:none;fill-rule:evenodd;stroke:#000000;stroke-width:2.0px;stroke-linecap:butt;stroke-linejoin:miter;stroke-opacity:1"/>
<path class="bond-5 atom-5 atom-6" d="M 139.1,694.3 L 130.3,716.4" style="fill:none;fill-rule:evenodd;stroke:#000000;stroke-width:2.0px;stroke-linecap:butt;stroke-linejoin:miter;stroke-opacity:1"/>
<path class="bond-6 atom-6 atom-7" d="M 133.4,720.3 L 104.9,724.5" style="fill:none;fill-rule:evenodd;stroke:#000000;stroke-width:2.0px;stroke-linecap:butt;stroke-linejoin:miter;stroke-opacity:1"/>
<path class="bond-7 atom-7 atom-8" d="M 104.9,724.5 L 87.1,701.9" style="fill:none;fill-rule:evenodd;stroke:#000000;stroke-width:2.0px;stroke-linecap:butt;stroke-linejoin:miter;stroke-opacity:1"/>
<path class="bond-7 atom-7 atom-8" d="M 106.7,719.8 L 92.0,701.2" style="fill:none;fill-rule:evenodd;stroke:#000000;stroke-width:2.0px;stroke-linecap:butt;stroke-linejoin:miter;stroke-opacity:1"/>
<path class="bond-8 atom-8 atom-9" d="M 87.1,701.9 L 97.7,675.2" style="fill:none;fill-rule:evenodd;stroke:#000000;stroke-width:2.0px;stroke-linecap:butt;stroke-linejoin:miter;stroke-opacity:1"/>
<path class="bond-9 atom-9 atom-10" d="M 97.7,675.2 L 126.2,671.0" style="fill:none;fill-rule:evenodd;stroke:#000000;stroke-width:2.0px;stroke-linecap:butt;stroke-linejoin:miter;stroke-opacity:1"/>
<path class="bond-9 atom-9 atom-10" d="M 100.8,679.1 L 124.3,675.7" style="fill:none;fill-rule:evenodd;stroke:#000000;stroke-width:2.0px;stroke-linecap:butt;stroke-linejoin:miter;stroke-opacity:1"/>
<path class="bond-10 atom-10 atom-11" d="M 126.2,671.0 L 150.0,654.9" style="fill:none;fill-rule:evenodd;stroke:#000000;stroke-width:2.0px;stroke-linecap:butt;stroke-linejoin:miter;stroke-opacity:1"/>
<path class="bond-11 atom-11 atom-12" d="M 148.0,656.3 L 169.4,668.2" style="fill:none;fill-rule:evenodd;stroke:#000000;stroke-width:2.0px;stroke-linecap:butt;stroke-linejoin:miter;stroke-opacity:1"/>
<path class="bond-11 atom-11 atom-12" d="M 151.1,653.1 L 171.5,664.5" style="fill:none;fill-rule:evenodd;stroke:#000000;stroke-width:2.0px;stroke-linecap:butt;stroke-linejoin:miter;stroke-opacity:1"/>
<path class="bond-12 atom-11 atom-13" d="M 150.0,654.9 L 161.6,635.1" style="fill:none;fill-rule:evenodd;stroke:#000000;stroke-width:2.0px;stroke-linecap:butt;stroke-linejoin:miter;stroke-opacity:1"/>
<path class="bond-13 atom-13 atom-14" d="M 168.6,632.9 L 188.2,646.4" style="fill:none;fill-rule:evenodd;stroke:#000000;stroke-width:2.0px;stroke-linecap:butt;stroke-linejoin:miter;stroke-opacity:1"/>
<path class="bond-14 atom-14 atom-15" d="M 188.2,646.4 L 214.2,634.1" style="fill:none;fill-rule:evenodd;stroke:#000000;stroke-width:2.0px;stroke-linecap:butt;stroke-linejoin:miter;stroke-opacity:1"/>
<path class="bond-15 atom-15 atom-16" d="M 214.2,634.1 L 216.5,605.4" style="fill:none;fill-rule:evenodd;stroke:#000000;stroke-width:2.0px;stroke-linecap:butt;stroke-linejoin:miter;stroke-opacity:1"/>
<path class="bond-16 atom-16 atom-17" d="M 216.5,605.4 L 192.8,589.1" style="fill:none;fill-rule:evenodd;stroke:#000000;stroke-width:2.0px;stroke-linecap:butt;stroke-linejoin:miter;stroke-opacity:1"/>
<path class="bond-17 atom-17 atom-18" d="M 192.8,589.1 L 166.8,601.4" style="fill:none;fill-rule:evenodd;stroke:#000000;stroke-width:2.0px;stroke-linecap:butt;stroke-linejoin:miter;stroke-opacity:1"/>
<path class="bond-18 atom-18 atom-19" d="M 166.8,601.4 L 177.5,574.7" style="fill:none;fill-rule:evenodd;stroke:#000000;stroke-width:2.0px;stroke-linecap:butt;stroke-linejoin:miter;stroke-opacity:1"/>
<path class="bond-19 atom-19 atom-20" d="M 177.5,574.7 L 205.9,570.6" style="fill:none;fill-rule:evenodd;stroke:#000000;stroke-width:2.0px;stroke-linecap:butt;stroke-linejoin:miter;stroke-opacity:1"/>
<path class="bond-20 atom-20 atom-21" d="M 205.9,570.6 L 230.4,567.0" style="fill:none;fill-rule:evenodd;stroke:#000000;stroke-width:2.0px;stroke-linecap:butt;stroke-linejoin:miter;stroke-opacity:1"/>
<path class="bond-20 atom-20 atom-21" d="M 205.3,566.3 L 229.8,562.8" style="fill:none;fill-rule:evenodd;stroke:#000000;stroke-width:2.0px;stroke-linecap:butt;stroke-linejoin:miter;stroke-opacity:1"/>
<path class="bond-20 atom-20 atom-21" d="M 206.6,574.8 L 231.0,571.3" style="fill:none;fill-rule:evenodd;stroke:#000000;stroke-width:2.0px;stroke-linecap:butt;stroke-linejoin:miter;stroke-opacity:1"/>
<path class="bond-21 atom-18 atom-22" d="M 166.8,601.4 L 158.4,579.6" style="fill:none;fill-rule:evenodd;stroke:#000000;stroke-width:2.0px;stroke-linecap:butt;stroke-linejoin:miter;stroke-opacity:1"/>
<path class="bond-22 atom-22 atom-23" d="M 152.4,570.8 L 135.5,554.9" style="fill:none;fill-rule:evenodd;stroke:#000000;stroke-width:2.0px;stroke-linecap:butt;stroke-linejoin:miter;stroke-opacity:1"/>
<path class="bond-22 atom-22 atom-23" d="M 149.5,574.0 L 133.2,558.8" style="fill:none;fill-rule:evenodd;stroke:#000000;stroke-width:2.0px;stroke-linecap:butt;stroke-linejoin:miter;stroke-opacity:1"/>
<path class="bond-23 atom-23 atom-24" d="M 135.5,554.9 L 150.0,530.1" style="fill:none;fill-rule:evenodd;stroke:#000000;stroke-width:2.0px;stroke-linecap:butt;stroke-linejoin:miter;stroke-opacity:1"/>
<path class="bond-24 atom-23 atom-25" d="M 135.5,554.9 L 108.0,546.3" style="fill:none;fill-rule:evenodd;stroke:#000000;stroke-width:2.0px;stroke-linecap:butt;stroke-linejoin:miter;stroke-opacity:1"/>
<path class="bond-25 atom-25 atom-26" d="M 108.0,546.3 L 79.6,550.5" style="fill:none;fill-rule:evenodd;stroke:#000000;stroke-width:2.0px;stroke-linecap:butt;stroke-linejoin:miter;stroke-opacity:1"/>
<path class="bond-26 atom-26 atom-27" d="M 79.6,550.5 L 71.2,528.8" style="fill:none;fill-rule:evenodd;stroke:#000000;stroke-width:2.0px;stroke-linecap:butt;stroke-linejoin:miter;stroke-opacity:1"/>
<path class="bond-27 atom-26 atom-28" d="M 79.6,550.5 L 60.4,563.4" style="fill:none;fill-rule:evenodd;stroke:#000000;stroke-width:2.0px;stroke-linecap:butt;stroke-linejoin:miter;stroke-opacity:1"/>
<path class="bond-28 atom-28 atom-29" d="M 52.7,571.7 L 44.1,586.4" style="fill:none;fill-rule:evenodd;stroke:#000000;stroke-width:2.0px;stroke-linecap:butt;stroke-linejoin:miter;stroke-opacity:1"/>
<path class="bond-29 atom-29 atom-30" d="M 40.8,596.6 L 39.3,615.0" style="fill:none;fill-rule:evenodd;stroke:#000000;stroke-width:2.0px;stroke-linecap:butt;stroke-linejoin:miter;stroke-opacity:1"/>
<path class="bond-30 atom-30 atom-31" d="M 40.9,625.1 L 47.4,641.9" style="fill:none;fill-rule:evenodd;stroke:#000000;stroke-width:2.0px;stroke-linecap:butt;stroke-linejoin:miter;stroke-opacity:1"/>
<path class="bond-31 atom-31 atom-32" d="M 52.8,650.2 L 70.3,666.6" style="fill:none;fill-rule:evenodd;stroke:#000000;stroke-width:2.0px;stroke-linecap:butt;stroke-linejoin:miter;stroke-opacity:1"/>
<path class="bond-31 atom-31 atom-32" d="M 55.8,647.1 L 72.5,662.7" style="fill:none;fill-rule:evenodd;stroke:#000000;stroke-width:2.0px;stroke-linecap:butt;stroke-linejoin:miter;stroke-opacity:1"/>
<path class="bond-32 atom-32 atom-33" d="M 70.3,666.6 L 55.8,691.4" style="fill:none;fill-rule:evenodd;stroke:#000000;stroke-width:2.0px;stroke-linecap:butt;stroke-linejoin:miter;stroke-opacity:1"/>
<path class="bond-33 atom-33 atom-34" d="M 55.8,691.4 L 27.0,691.2" style="fill:none;fill-rule:evenodd;stroke:#000000;stroke-width:2.0px;stroke-linecap:butt;stroke-linejoin:miter;stroke-opacity:1"/>
<path class="bond-34 atom-34 atom-35" d="M 27.0,691.2 L 12.5,716.1" style="fill:none;fill-rule:evenodd;stroke:#000000;stroke-width:2.0px;stroke-linecap:butt;stroke-linejoin:miter;stroke-opacity:1"/>
<path class="bond-34 atom-34 atom-35" d="M 29.5,695.6 L 16.2,718.3" style="fill:none;fill-rule:evenodd;stroke:#000000;stroke-width:2.0px;stroke-linecap:butt;stroke-linejoin:miter;stroke-opacity:1"/>
<path class="bond-35 atom-10 atom-5" d="M 126.2,671.0 L 144.0,693.6" style="fill:none;fill-rule:evenodd;stroke:#000000;stroke-width:2.0px;stroke-linecap:butt;stroke-linejoin:miter;stroke-opacity:1"/>
<path class="bond-36 atom-32 atom-9" d="M 70.3,666.6 L 97.7,675.2" style="fill:none;fill-rule:evenodd;stroke:#000000;stroke-width:2.0px;stroke-linecap:butt;stroke-linejoin:miter;stroke-opacity:1"/>
<path class="bond-37 atom-18 atom-13" d="M 166.8,601.4 L 164.9,625.1" style="fill:none;fill-rule:evenodd;stroke:#000000;stroke-width:2.0px;stroke-linecap:butt;stroke-linejoin:miter;stroke-opacity:1"/>
<path d="M 191.7,711.8 L 190.3,712.0 L 189.4,710.9" style="fill:none;stroke:#000000;stroke-width:2.0px;stroke-linecap:butt;stroke-linejoin:miter;stroke-miterlimit:10;stroke-opacity:1;"/>
<path d="M 173.4,690.6 L 172.5,689.5 L 171.0,689.7" style="fill:none;stroke:#000000;stroke-width:2.0px;stroke-linecap:butt;stroke-linejoin:miter;stroke-miterlimit:10;stroke-opacity:1;"/>
<path d="M 133.9,719.0 L 133.4,720.3 L 131.9,720.5" style="fill:none;stroke:#000000;stroke-width:2.0px;stroke-linecap:butt;stroke-linejoin:miter;stroke-miterlimit:10;stroke-opacity:1;"/>
<path d="M 106.3,724.3 L 104.9,724.5 L 104.0,723.3" style="fill:none;stroke:#000000;stroke-width:2.0px;stroke-linecap:butt;stroke-linejoin:miter;stroke-miterlimit:10;stroke-opacity:1;"/>
<path d="M 88.0,703.0 L 87.1,701.9 L 87.6,700.6" style="fill:none;stroke:#000000;stroke-width:2.0px;stroke-linecap:butt;stroke-linejoin:miter;stroke-miterlimit:10;stroke-opacity:1;"/>
<path d="M 148.8,655.8 L 150.0,654.9 L 150.6,654.0" style="fill:none;stroke:#000000;stroke-width:2.0px;stroke-linecap:butt;stroke-linejoin:miter;stroke-miterlimit:10;stroke-opacity:1;"/>
<path d="M 187.2,645.8 L 188.2,646.4 L 189.5,645.8" style="fill:none;stroke:#000000;stroke-width:2.0px;stroke-linecap:butt;stroke-linejoin:miter;stroke-miterlimit:10;stroke-opacity:1;"/>
<path d="M 212.9,634.7 L 214.2,634.1 L 214.3,632.7" style="fill:none;stroke:#000000;stroke-width:2.0px;stroke-linecap:butt;stroke-linejoin:miter;stroke-miterlimit:10;stroke-opacity:1;"/>
<path d="M 216.4,606.8 L 216.5,605.4 L 215.3,604.6" style="fill:none;stroke:#000000;stroke-width:2.0px;stroke-linecap:butt;stroke-linejoin:miter;stroke-miterlimit:10;stroke-opacity:1;"/>
<path d="M 194.0,589.9 L 192.8,589.1 L 191.5,589.7" style="fill:none;stroke:#000000;stroke-width:2.0px;stroke-linecap:butt;stroke-linejoin:miter;stroke-miterlimit:10;stroke-opacity:1;"/>
<path d="M 177.0,576.1 L 177.5,574.7 L 178.9,574.5" style="fill:none;stroke:#000000;stroke-width:2.0px;stroke-linecap:butt;stroke-linejoin:miter;stroke-miterlimit:10;stroke-opacity:1;"/>
<path d="M 204.5,570.8 L 205.9,570.6 L 207.2,570.4" style="fill:none;stroke:#000000;stroke-width:2.0px;stroke-linecap:butt;stroke-linejoin:miter;stroke-miterlimit:10;stroke-opacity:1;"/>
<path d="M 109.4,546.8 L 108.0,546.3 L 106.6,546.5" style="fill:none;stroke:#000000;stroke-width:2.0px;stroke-linecap:butt;stroke-linejoin:miter;stroke-miterlimit:10;stroke-opacity:1;"/>
<path d="M 56.5,690.1 L 55.8,691.4 L 54.3,691.4" style="fill:none;stroke:#000000;stroke-width:2.0px;stroke-linecap:butt;stroke-linejoin:miter;stroke-miterlimit:10;stroke-opacity:1;"/>
<path d="M 28.4,691.3 L 27.0,691.2 L 26.3,692.5" style="fill:none;stroke:#000000;stroke-width:2.0px;stroke-linecap:butt;stroke-linejoin:miter;stroke-miterlimit:10;stroke-opacity:1;"/>
<path class="atom-0" d="M 230.6 681.0 Q 231.4 681.2, 231.8 681.7 Q 232.2 682.1, 232.2 682.9 Q 232.2 684.0, 231.4 684.6 Q 230.7 685.3, 229.4 685.3 L 226.6 685.3 L 226.6 677.1 L 229.0 677.1 Q 230.4 677.1, 231.1 677.7 Q 231.8 678.2, 231.8 679.3 Q 231.8 680.5, 230.6 681.0 M 227.7 678.0 L 227.7 680.6 L 229.0 680.6 Q 229.8 680.6, 230.3 680.3 Q 230.7 679.9, 230.7 679.3 Q 230.7 678.0, 229.0 678.0 L 227.7 678.0 M 229.4 684.3 Q 230.2 684.3, 230.6 684.0 Q 231.0 683.6, 231.0 682.9 Q 231.0 682.2, 230.5 681.9 Q 230.1 681.5, 229.2 681.5 L 227.7 681.5 L 227.7 684.3 L 229.4 684.3 " fill="#000000"/>
<path class="atom-0" d="M 234.0 679.3 L 234.1 680.2 Q 234.8 679.2, 235.8 679.2 Q 236.1 679.2, 236.5 679.4 L 236.4 680.3 Q 235.9 680.2, 235.6 680.2 Q 235.1 680.2, 234.8 680.4 Q 234.5 680.6, 234.2 681.0 L 234.2 685.3 L 233.1 685.3 L 233.1 679.3 L 234.0 679.3 " fill="#000000"/>
<path class="atom-12" d="M 171.4 669.0 Q 171.4 667.0, 172.4 665.9 Q 173.3 664.8, 175.2 664.8 Q 177.0 664.8, 177.9 665.9 Q 178.9 667.0, 178.9 669.0 Q 178.9 671.0, 177.9 672.1 Q 176.9 673.2, 175.2 673.2 Q 173.4 673.2, 172.4 672.1 Q 171.4 671.0, 171.4 669.0 M 175.2 672.3 Q 176.4 672.3, 177.1 671.5 Q 177.7 670.6, 177.7 669.0 Q 177.7 667.4, 177.1 666.6 Q 176.4 665.8, 175.2 665.8 Q 173.9 665.8, 173.2 666.6 Q 172.6 667.4, 172.6 669.0 Q 172.6 670.6, 173.2 671.5 Q 173.9 672.3, 175.2 672.3 " fill="#000000"/>
<path class="atom-13" d="M 162.7 626.0 L 165.4 630.4 Q 165.7 630.8, 166.1 631.5 Q 166.5 632.3, 166.6 632.4 L 166.6 626.0 L 167.6 626.0 L 167.6 634.2 L 166.5 634.2 L 163.7 629.5 Q 163.3 628.9, 163.0 628.3 Q 162.6 627.6, 162.5 627.5 L 162.5 634.2 L 161.5 634.2 L 161.5 626.0 L 162.7 626.0 " fill="#000000"/>
<path class="atom-21" d="M 232.6 562.4 L 235.3 566.7 Q 235.5 567.1, 236.0 567.9 Q 236.4 568.6, 236.4 568.7 L 236.4 562.4 L 237.5 562.4 L 237.5 570.5 L 236.4 570.5 L 233.5 565.8 Q 233.2 565.2, 232.8 564.6 Q 232.5 564.0, 232.4 563.8 L 232.4 570.5 L 231.3 570.5 L 231.3 562.4 L 232.6 562.4 " fill="#000000"/>
<path class="atom-22" d="M 154.7 570.5 L 157.3 574.9 Q 157.6 575.3, 158.0 576.0 Q 158.5 576.8, 158.5 576.9 L 158.5 570.5 L 159.6 570.5 L 159.6 578.7 L 158.4 578.7 L 155.6 574.0 Q 155.2 573.4, 154.9 572.8 Q 154.5 572.1, 154.4 572.0 L 154.4 578.7 L 153.4 578.7 L 153.4 570.5 L 154.7 570.5 " fill="#000000"/>
<path class="atom-22" d="M 161.1 570.5 L 162.2 570.5 L 162.2 574.0 L 166.4 574.0 L 166.4 570.5 L 167.5 570.5 L 167.5 578.7 L 166.4 578.7 L 166.4 574.9 L 162.2 574.9 L 162.2 578.7 L 161.1 578.7 L 161.1 570.5 " fill="#000000"/>
<path class="atom-22" d="M 169.1 572.0 L 170.5 572.0 L 170.5 570.5 L 171.1 570.5 L 171.1 572.0 L 172.6 572.0 L 172.6 572.6 L 171.1 572.6 L 171.1 574.1 L 170.5 574.1 L 170.5 572.6 L 169.1 572.6 L 169.1 572.0 " fill="#000000"/>
<path class="atom-27" d="M 57.4 519.6 L 58.5 519.6 L 58.5 523.1 L 62.7 523.1 L 62.7 519.6 L 63.8 519.6 L 63.8 527.8 L 62.7 527.8 L 62.7 524.0 L 58.5 524.0 L 58.5 527.8 L 57.4 527.8 L 57.4 519.6 " fill="#000000"/>
<path class="atom-27" d="M 65.5 523.7 Q 65.5 521.7, 66.4 520.6 Q 67.4 519.5, 69.2 519.5 Q 71.0 519.5, 72.0 520.6 Q 72.9 521.7, 72.9 523.7 Q 72.9 525.6, 72.0 526.8 Q 71.0 527.9, 69.2 527.9 Q 67.4 527.9, 66.4 526.8 Q 65.5 525.6, 65.5 523.7 M 69.2 527.0 Q 70.4 527.0, 71.1 526.1 Q 71.8 525.3, 71.8 523.7 Q 71.8 522.1, 71.1 521.3 Q 70.4 520.4, 69.2 520.4 Q 68.0 520.4, 67.3 521.2 Q 66.6 522.0, 66.6 523.7 Q 66.6 525.3, 67.3 526.1 Q 68.0 527.0, 69.2 527.0 " fill="#000000"/>
<path class="atom-28" d="M 52.0 566.6 Q 52.0 564.6, 53.0 563.5 Q 53.9 562.4, 55.7 562.4 Q 57.5 562.4, 58.5 563.5 Q 59.5 564.6, 59.5 566.6 Q 59.5 568.5, 58.5 569.7 Q 57.5 570.8, 55.7 570.8 Q 53.9 570.8, 53.0 569.7 Q 52.0 568.6, 52.0 566.6 M 55.7 569.9 Q 57.0 569.9, 57.6 569.0 Q 58.3 568.2, 58.3 566.6 Q 58.3 565.0, 57.6 564.2 Q 57.0 563.3, 55.7 563.3 Q 54.5 563.3, 53.8 564.2 Q 53.1 565.0, 53.1 566.6 Q 53.1 568.2, 53.8 569.0 Q 54.5 569.9, 55.7 569.9 " fill="#000000"/>
<path class="atom-29" d="M 38.9 594.2 Q 39.0 594.2, 39.4 594.4 Q 39.8 594.5, 40.2 594.6 Q 40.6 594.7, 41.0 594.7 Q 41.8 594.7, 42.2 594.4 Q 42.7 594.0, 42.7 593.3 Q 42.7 592.9, 42.5 592.6 Q 42.2 592.3, 41.9 592.2 Q 41.6 592.0, 41.0 591.9 Q 40.3 591.6, 39.8 591.4 Q 39.4 591.2, 39.1 590.8 Q 38.8 590.3, 38.8 589.6 Q 38.8 588.6, 39.5 588.0 Q 40.2 587.3, 41.6 587.3 Q 42.5 587.3, 43.6 587.8 L 43.3 588.7 Q 42.3 588.3, 41.6 588.3 Q 40.8 588.3, 40.4 588.6 Q 39.9 588.9, 39.9 589.5 Q 39.9 589.9, 40.1 590.2 Q 40.4 590.4, 40.7 590.6 Q 41.0 590.7, 41.6 590.9 Q 42.3 591.1, 42.8 591.4 Q 43.2 591.6, 43.5 592.1 Q 43.8 592.5, 43.8 593.3 Q 43.8 594.5, 43.1 595.1 Q 42.3 595.7, 41.1 595.7 Q 40.3 595.7, 39.8 595.5 Q 39.3 595.4, 38.6 595.1 L 38.9 594.2 " fill="#000000"/>
<path class="atom-30" d="M 38.7 616.0 Q 40.1 616.0, 40.8 616.6 Q 41.5 617.2, 41.5 618.4 Q 41.5 619.5, 40.8 620.1 Q 40.1 620.8, 38.7 620.8 L 37.4 620.8 L 37.4 624.1 L 36.3 624.1 L 36.3 616.0 L 38.7 616.0 M 38.7 619.9 Q 39.5 619.9, 39.9 619.5 Q 40.4 619.1, 40.4 618.4 Q 40.4 617.6, 39.9 617.3 Q 39.5 616.9, 38.7 616.9 L 37.4 616.9 L 37.4 619.9 L 38.7 619.9 " fill="#000000"/>
<path class="atom-31" d="M 38.8 642.8 L 39.9 642.8 L 39.9 646.3 L 44.0 646.3 L 44.0 642.8 L 45.1 642.8 L 45.1 651.0 L 44.0 651.0 L 44.0 647.2 L 39.9 647.2 L 39.9 651.0 L 38.8 651.0 L 38.8 642.8 " fill="#000000"/>
<path class="atom-31" d="M 49.1 642.8 Q 50.5 642.8, 51.2 643.4 Q 51.9 644.1, 51.9 645.2 Q 51.9 646.3, 51.2 647.0 Q 50.5 647.6, 49.1 647.6 L 47.8 647.6 L 47.8 651.0 L 46.7 651.0 L 46.7 642.8 L 49.1 642.8 M 49.1 646.7 Q 49.9 646.7, 50.3 646.3 Q 50.7 645.9, 50.7 645.2 Q 50.7 644.5, 50.3 644.1 Q 49.9 643.7, 49.1 643.7 L 47.8 643.7 L 47.8 646.7 L 49.1 646.7 " fill="#000000"/>
<path class="atom-30" d="M 35.2,620.1 L 35.2,620.1 L 35.2,620.2 L 35.2,620.2 L 35.1,620.2 L 35.1,620.3 L 35.1,620.3 L 35.1,620.4 L 35.0,620.4 L 35.0,620.5 L 35.0,620.5 L 34.9,620.5 L 34.9,620.5 L 34.8,620.6 L 34.8,620.6 L 34.8,620.6 L 34.7,620.6 L 34.7,620.6 L 34.6,620.6 L 34.6,620.6 L 34.5,620.6 L 34.5,620.6 L 34.4,620.6 L 34.4,620.6 L 34.3,620.6 L 34.3,620.5 L 34.2,620.5 L 34.2,620.5 L 34.2,620.4 L 34.1,620.4 L 34.1,620.4 L 34.1,620.3 L 34.1,620.3 L 34.0,620.2 L 34.0,620.2 L 34.0,620.1 L 34.0,620.1 L 34.0,620.0 L 34.0,620.0 L 34.0,619.9 L 34.0,619.9 L 34.1,619.8 L 34.1,619.8 L 34.1,619.7 L 34.1,619.7 L 34.2,619.7 L 34.2,619.6 L 34.2,619.6 L 34.3,619.6 L 34.3,619.5 L 34.4,619.5 L 34.4,619.5 L 34.5,619.5 L 34.5,619.5 L 34.6,619.5 L 34.6,619.5 L 34.7,619.5 L 34.7,619.5 L 34.8,619.5 L 34.8,619.5 L 34.8,619.5 L 34.9,619.6 L 34.9,619.6 L 35.0,619.6 L 35.0,619.7 L 35.0,619.7 L 35.1,619.7 L 35.1,619.8 L 35.1,619.8 L 35.1,619.9 L 35.2,619.9 L 35.2,620.0 L 35.2,620.0 L 35.2,620.1 L 34.6,620.1 Z" style="fill:#000000;fill-rule:evenodd;fill-opacity:1;stroke:#000000;stroke-width:0.0px;stroke-linecap:butt;stroke-linejoin:miter;stroke-miterlimit:10;stroke-opacity:1;"/>
<path class="atom-31" d="M 37.6,646.9 L 37.6,646.9 L 37.6,647.0 L 37.6,647.0 L 37.6,647.1 L 37.6,647.1 L 37.5,647.2 L 37.5,647.2 L 37.5,647.2 L 37.4,647.3 L 37.4,647.3 L 37.4,647.3 L 37.3,647.4 L 37.3,647.4 L 37.2,647.4 L 37.2,647.4 L 37.1,647.4 L 37.1,647.5 L 37.1,647.5 L 37.0,647.5 L 37.0,647.5 L 36.9,647.4 L 36.9,647.4 L 36.8,647.4 L 36.8,647.4 L 36.7,647.4 L 36.7,647.3 L 36.6,647.3 L 36.6,647.3 L 36.6,647.2 L 36.6,647.2 L 36.5,647.1 L 36.5,647.1 L 36.5,647.1 L 36.5,647.0 L 36.5,647.0 L 36.5,646.9 L 36.5,646.9 L 36.5,646.8 L 36.5,646.8 L 36.5,646.7 L 36.5,646.7 L 36.5,646.6 L 36.6,646.6 L 36.6,646.5 L 36.6,646.5 L 36.6,646.5 L 36.7,646.4 L 36.7,646.4 L 36.8,646.4 L 36.8,646.4 L 36.9,646.3 L 36.9,646.3 L 37.0,646.3 L 37.0,646.3 L 37.1,646.3 L 37.1,646.3 L 37.1,646.3 L 37.2,646.3 L 37.2,646.3 L 37.3,646.4 L 37.3,646.4 L 37.4,646.4 L 37.4,646.4 L 37.4,646.5 L 37.5,646.5 L 37.5,646.6 L 37.5,646.6 L 37.6,646.6 L 37.6,646.7 L 37.6,646.7 L 37.6,646.8 L 37.6,646.8 L 37.6,646.9 L 37.0,646.9 Z" style="fill:#000000;fill-rule:evenodd;fill-opacity:1;stroke:#000000;stroke-width:0.0px;stroke-linecap:butt;stroke-linejoin:miter;stroke-miterlimit:10;stroke-opacity:1;"/>
<path class="bond-0 atom-0 atom-1" d="M 439.2,617.6 L 363.0,661.7" style="fill:none;fill-rule:evenodd;stroke:#000000;stroke-width:2.0px;stroke-linecap:butt;stroke-linejoin:miter;stroke-opacity:1"/>
<path class="bond-1 atom-1 atom-2" d="M 363.0,661.7 L 289.0,618.9" style="fill:none;fill-rule:evenodd;stroke:#000000;stroke-width:2.0px;stroke-linecap:butt;stroke-linejoin:miter;stroke-opacity:1"/>
<path class="bond-1 atom-1 atom-2" d="M 363.0,643.6 L 296.9,605.4" style="fill:none;fill-rule:evenodd;stroke:#000000;stroke-width:2.0px;stroke-linecap:butt;stroke-linejoin:miter;stroke-opacity:1"/>
<path d="M 366.8,659.5 L 363.0,661.7 L 359.3,659.5" style="fill:none;stroke:#000000;stroke-width:2.0px;stroke-linecap:butt;stroke-linejoin:miter;stroke-miterlimit:10;stroke-opacity:1;"/>
<path class="atom-0" d="M 447.2 595.3 L 456.4 610.3 Q 457.4 611.8, 458.8 614.4 Q 460.3 617.1, 460.4 617.3 L 460.4 595.3 L 464.2 595.3 L 464.2 623.6 L 460.3 623.6 L 450.3 607.2 Q 449.2 605.3, 447.9 603.1 Q 446.7 600.9, 446.4 600.2 L 446.4 623.6 L 442.7 623.6 L 442.7 595.3 L 447.2 595.3 " fill="#000000"/>
<path class="atom-0" d="M 469.3 600.0 L 479.0 600.0 L 479.0 602.1 L 469.3 602.1 L 469.3 600.0 " fill="#000000"/>
<path class="atom-2" d="M 263.5 602.7 Q 263.5 595.9, 266.9 592.1 Q 270.2 588.3, 276.5 588.3 Q 282.8 588.3, 286.2 592.1 Q 289.5 595.9, 289.5 602.7 Q 289.5 609.6, 286.1 613.5 Q 282.7 617.4, 276.5 617.4 Q 270.3 617.4, 266.9 613.5 Q 263.5 609.7, 263.5 602.7 M 276.5 614.2 Q 280.8 614.2, 283.2 611.3 Q 285.5 608.4, 285.5 602.7 Q 285.5 597.2, 283.2 594.4 Q 280.8 591.5, 276.5 591.5 Q 272.2 591.5, 269.8 594.3 Q 267.5 597.1, 267.5 602.7 Q 267.5 608.5, 269.8 611.3 Q 272.2 614.2, 276.5 614.2 " fill="#000000"/>
<path class="atom-0" d="M 487.0,609.4 L 487.0,609.6 L 487.0,609.8 L 486.9,610.0 L 486.9,610.1 L 486.8,610.3 L 486.7,610.4 L 486.6,610.6 L 486.5,610.7 L 486.4,610.8 L 486.3,611.0 L 486.2,611.1 L 486.0,611.2 L 485.9,611.2 L 485.7,611.3 L 485.5,611.4 L 485.4,611.4 L 485.2,611.4 L 485.0,611.4 L 484.9,611.4 L 484.7,611.4 L 484.5,611.4 L 484.4,611.3 L 484.2,611.3 L 484.0,611.2 L 483.9,611.1 L 483.7,611.0 L 483.6,610.9 L 483.5,610.8 L 483.4,610.7 L 483.3,610.5 L 483.2,610.4 L 483.1,610.2 L 483.1,610.0 L 483.0,609.9 L 483.0,609.7 L 483.0,609.5 L 483.0,609.4 L 483.0,609.2 L 483.0,609.0 L 483.1,608.9 L 483.1,608.7 L 483.2,608.5 L 483.3,608.4 L 483.4,608.2 L 483.5,608.1 L 483.6,608.0 L 483.7,607.9 L 483.9,607.8 L 484.0,607.7 L 484.2,607.6 L 484.4,607.6 L 484.5,607.5 L 484.7,607.5 L 484.9,607.5 L 485.0,607.5 L 485.2,607.5 L 485.4,607.5 L 485.5,607.5 L 485.7,607.6 L 485.9,607.7 L 486.0,607.7 L 486.2,607.8 L 486.3,607.9 L 486.4,608.1 L 486.5,608.2 L 486.6,608.3 L 486.7,608.5 L 486.8,608.6 L 486.9,608.8 L 486.9,608.9 L 487.0,609.1 L 487.0,609.3 L 487.0,609.4 L 485.0,609.4 Z" style="fill:#000000;fill-rule:evenodd;fill-opacity:1;stroke:#000000;stroke-width:0.0px;stroke-linecap:butt;stroke-linejoin:miter;stroke-miterlimit:10;stroke-opacity:1;"/>
<path class="bond-0 atom-0 atom-1" d="M 573.2,620.5 L 530.2,620.5" style="fill:none;fill-rule:evenodd;stroke:#000000;stroke-width:2.0px;stroke-linecap:butt;stroke-linejoin:miter;stroke-opacity:1"/>
<path class="bond-0 atom-0 atom-1" d="M 573.2,629.5 L 530.2,629.5" style="fill:none;fill-rule:evenodd;stroke:#000000;stroke-width:2.0px;stroke-linecap:butt;stroke-linejoin:miter;stroke-opacity:1"/>
<path class="bond-1 atom-0 atom-2" d="M 588.2,629.3 L 633.0,655.2" style="fill:none;fill-rule:evenodd;stroke:#000000;stroke-width:2.0px;stroke-linecap:butt;stroke-linejoin:miter;stroke-opacity:1"/>
<path class="bond-2 atom-2 atom-3" d="M 633.0,655.2 L 685.2,685.4" style="fill:none;fill-rule:evenodd;stroke:#000000;stroke-width:2.0px;stroke-linecap:butt;stroke-linejoin:miter;stroke-opacity:1"/>
<path class="bond-2 atom-2 atom-3" d="M 642.0,649.9 L 685.2,674.9" style="fill:none;fill-rule:evenodd;stroke:#000000;stroke-width:2.0px;stroke-linecap:butt;stroke-linejoin:miter;stroke-opacity:1"/>
<path class="bond-3 atom-3 atom-4" d="M 685.2,685.4 L 737.5,655.2" style="fill:none;fill-rule:evenodd;stroke:#000000;stroke-width:2.0px;stroke-linecap:butt;stroke-linejoin:miter;stroke-opacity:1"/>
<path class="bond-4 atom-4 atom-5" d="M 737.5,655.2 L 737.5,594.8" style="fill:none;fill-rule:evenodd;stroke:#000000;stroke-width:2.0px;stroke-linecap:butt;stroke-linejoin:miter;stroke-opacity:1"/>
<path class="bond-4 atom-4 atom-5" d="M 728.4,649.9 L 728.4,600.1" style="fill:none;fill-rule:evenodd;stroke:#000000;stroke-width:2.0px;stroke-linecap:butt;stroke-linejoin:miter;stroke-opacity:1"/>
<path class="bond-5 atom-5 atom-6" d="M 737.5,594.8 L 685.2,564.6" style="fill:none;fill-rule:evenodd;stroke:#000000;stroke-width:2.0px;stroke-linecap:butt;stroke-linejoin:miter;stroke-opacity:1"/>
<path class="bond-6 atom-6 atom-7" d="M 685.2,564.6 L 633.0,594.8" style="fill:none;fill-rule:evenodd;stroke:#000000;stroke-width:2.0px;stroke-linecap:butt;stroke-linejoin:miter;stroke-opacity:1"/>
<path class="bond-6 atom-6 atom-7" d="M 685.2,575.1 L 642.0,600.1" style="fill:none;fill-rule:evenodd;stroke:#000000;stroke-width:2.0px;stroke-linecap:butt;stroke-linejoin:miter;stroke-opacity:1"/>
<path class="bond-7 atom-7 atom-0" d="M 633.0,594.8 L 588.2,620.7" style="fill:none;fill-rule:evenodd;stroke:#000000;stroke-width:2.0px;stroke-linecap:butt;stroke-linejoin:miter;stroke-opacity:1"/>
<path class="bond-8 atom-7 atom-2" d="M 633.0,594.8 L 633.0,655.2" style="fill:none;fill-rule:evenodd;stroke:#000000;stroke-width:2.0px;stroke-linecap:butt;stroke-linejoin:miter;stroke-opacity:1"/>
<path d="M 682.6,683.8 L 685.2,685.4 L 687.8,683.8" style="fill:none;stroke:#000000;stroke-width:2.0px;stroke-linecap:butt;stroke-linejoin:miter;stroke-miterlimit:10;stroke-opacity:1;"/>
<path d="M 734.9,656.7 L 737.5,655.2 L 737.5,652.2" style="fill:none;stroke:#000000;stroke-width:2.0px;stroke-linecap:butt;stroke-linejoin:miter;stroke-miterlimit:10;stroke-opacity:1;"/>
<path d="M 737.5,597.8 L 737.5,594.8 L 734.9,593.3" style="fill:none;stroke:#000000;stroke-width:2.0px;stroke-linecap:butt;stroke-linejoin:miter;stroke-miterlimit:10;stroke-opacity:1;"/>
<path d="M 687.8,566.2 L 685.2,564.6 L 682.6,566.2" style="fill:none;stroke:#000000;stroke-width:2.0px;stroke-linecap:butt;stroke-linejoin:miter;stroke-miterlimit:10;stroke-opacity:1;"/>
<path class="atom-0" d="M 575.9 630.9 Q 576.1 630.9, 576.9 631.3 Q 577.7 631.6, 578.5 631.8 Q 579.4 632.0, 580.3 632.0 Q 581.9 632.0, 582.8 631.3 Q 583.8 630.5, 583.8 629.1 Q 583.8 628.1, 583.3 627.6 Q 582.8 627.0, 582.1 626.7 Q 581.4 626.4, 580.2 626.0 Q 578.7 625.5, 577.8 625.1 Q 576.9 624.7, 576.2 623.7 Q 575.6 622.8, 575.6 621.3 Q 575.6 619.1, 577.0 617.8 Q 578.5 616.5, 581.4 616.5 Q 583.4 616.5, 585.6 617.4 L 585.1 619.3 Q 583.0 618.4, 581.5 618.4 Q 579.8 618.4, 578.9 619.1 Q 578.0 619.8, 578.0 621.0 Q 578.0 621.9, 578.5 622.5 Q 578.9 623.0, 579.6 623.3 Q 580.3 623.6, 581.5 624.0 Q 583.0 624.5, 583.9 625.0 Q 584.9 625.5, 585.5 626.4 Q 586.2 627.4, 586.2 629.1 Q 586.2 631.4, 584.6 632.7 Q 583.0 634.0, 580.4 634.0 Q 578.9 634.0, 577.7 633.6 Q 576.6 633.3, 575.2 632.8 L 575.9 630.9 " fill="#000000"/>
<path class="atom-1" d="M 512.5 625.0 Q 512.5 620.9, 514.5 618.7 Q 516.6 616.4, 520.3 616.4 Q 524.1 616.4, 526.2 618.7 Q 528.2 620.9, 528.2 625.0 Q 528.2 629.2, 526.1 631.6 Q 524.1 633.9, 520.3 633.9 Q 516.6 633.9, 514.5 631.6 Q 512.5 629.2, 512.5 625.0 M 520.3 632.0 Q 523.0 632.0, 524.4 630.2 Q 525.8 628.5, 525.8 625.0 Q 525.8 621.7, 524.4 620.0 Q 523.0 618.3, 520.3 618.3 Q 517.7 618.3, 516.3 620.0 Q 514.9 621.7, 514.9 625.0 Q 514.9 628.5, 516.3 630.2 Q 517.7 632.0, 520.3 632.0 " fill="#000000"/>
</svg>