<svg xmlns="http://www.w3.org/2000/svg" xmlns:rdkit="http://www.rdkit.org/xml" xmlns:xlink="http://www.w3.org/1999/xlink" version="1.1" baseProfile="full" xml:space="preserve" width="750px" height="750px" viewBox="0 0 750 750">
<!-- END OF HEADER -->
<rect style="opacity:1.0;fill:#FFFFFF;stroke:none" width="250.0" height="250.0" x="0.0" y="0.0"> </rect>
<path class="bond-0 atom-0 atom-1" d="M 165.8,118.9 L 98.9,157.6" style="fill:none;fill-rule:evenodd;stroke:#000000;stroke-width:2.0px;stroke-linecap:butt;stroke-linejoin:miter;stroke-opacity:1"/>
<path class="bond-1 atom-1 atom-2" d="M 98.9,157.6 L 31.9,118.9" style="fill:none;fill-rule:evenodd;stroke:#000000;stroke-width:2.0px;stroke-linecap:butt;stroke-linejoin:miter;stroke-opacity:1"/>
<path class="bond-1 atom-1 atom-2" d="M 98.9,141.6 L 38.8,107.0" style="fill:none;fill-rule:evenodd;stroke:#000000;stroke-width:2.0px;stroke-linecap:butt;stroke-linejoin:miter;stroke-opacity:1"/>
<path d="M 102.2,155.7 L 98.9,157.6 L 95.5,155.7" style="fill:none;stroke:#000000;stroke-width:2.0px;stroke-linecap:butt;stroke-linejoin:miter;stroke-miterlimit:10;stroke-opacity:1;"/>
<path class="atom-0" d="M 173.0 98.4 L 181.6 112.2 Q 182.4 113.6, 183.8 116.1 Q 185.2 118.5, 185.2 118.7 L 185.2 98.4 L 188.7 98.4 L 188.7 124.5 L 185.1 124.5 L 175.9 109.4 Q 174.9 107.6, 173.7 105.6 Q 172.6 103.6, 172.3 102.9 L 172.3 124.5 L 168.9 124.5 L 168.9 98.4 L 173.0 98.4 " fill="#000000"/>
<path class="atom-0" d="M 193.7 98.4 L 197.2 98.4 L 197.2 109.5 L 210.6 109.5 L 210.6 98.4 L 214.1 98.4 L 214.1 124.5 L 210.6 124.5 L 210.6 112.5 L 197.2 112.5 L 197.2 124.5 L 193.7 124.5 L 193.7 98.4 " fill="#000000"/>
<path class="atom-0" d="M 219.2 103.1 L 223.8 103.1 L 223.8 98.3 L 225.9 98.3 L 225.9 103.1 L 230.6 103.1 L 230.6 104.9 L 225.9 104.9 L 225.9 109.7 L 223.8 109.7 L 223.8 104.9 L 219.2 104.9 L 219.2 103.1 " fill="#000000"/>
<path class="atom-2" d="M 16.6 92.4 L 25.2 106.2 Q 26.0 107.6, 27.4 110.1 Q 28.8 112.6, 28.9 112.7 L 28.9 92.4 L 32.3 92.4 L 32.3 118.5 L 28.7 118.5 L 19.6 103.4 Q 18.5 101.6, 17.3 99.6 Q 16.2 97.6, 15.9 96.9 L 15.9 118.5 L 12.5 118.5 L 12.5 92.4 L 16.6 92.4 " fill="#000000"/>
<path class="atom-2" d="M 37.1 96.7 L 46.0 96.7 L 46.0 98.7 L 37.1 98.7 L 37.1 96.7 " fill="#000000"/>
<path class="atom-0" d="M 238.0,115.2 L 238.0,115.3 L 237.9,115.5 L 237.9,115.6 L 237.9,115.8 L 237.8,115.9 L 237.7,116.1 L 237.6,116.2 L 237.5,116.3 L 237.4,116.4 L 237.3,116.6 L 237.2,116.6 L 237.1,116.7 L 236.9,116.8 L 236.8,116.9 L 236.6,116.9 L 236.5,117.0 L 236.3,117.0 L 236.2,117.0 L 236.0,117.0 L 235.8,117.0 L 235.7,116.9 L 235.5,116.9 L 235.4,116.8 L 235.2,116.8 L 235.1,116.7 L 235.0,116.6 L 234.9,116.5 L 234.7,116.4 L 234.6,116.3 L 234.6,116.1 L 234.5,116.0 L 234.4,115.8 L 234.4,115.7 L 234.3,115.5 L 234.3,115.4 L 234.3,115.2 L 234.3,115.1 L 234.3,114.9 L 234.3,114.8 L 234.4,114.6 L 234.4,114.5 L 234.5,114.3 L 234.6,114.2 L 234.6,114.0 L 234.7,113.9 L 234.9,113.8 L 235.0,113.7 L 235.1,113.6 L 235.2,113.5 L 235.4,113.5 L 235.5,113.4 L 235.7,113.4 L 235.8,113.3 L 236.0,113.3 L 236.2,113.3 L 236.3,113.3 L 236.5,113.3 L 236.6,113.4 L 236.8,113.4 L 236.9,113.5 L 237.1,113.6 L 237.2,113.7 L 237.3,113.8 L 237.4,113.9 L 237.5,114.0 L 237.6,114.1 L 237.7,114.2 L 237.8,114.4 L 237.9,114.5 L 237.9,114.7 L 237.9,114.8 L 238.0,115.0 L 238.0,115.2 L 236.1,115.2 Z" style="fill:#000000;fill-rule:evenodd;fill-opacity:1;stroke:#000000;stroke-width:0.0px;stroke-linecap:butt;stroke-linejoin:miter;stroke-miterlimit:10;stroke-opacity:1;"/>
<path class="atom-0" d="M 238.0,107.8 L 238.0,107.9 L 237.9,108.1 L 237.9,108.2 L 237.9,108.4 L 237.8,108.5 L 237.7,108.7 L 237.6,108.8 L 237.5,108.9 L 237.4,109.1 L 237.3,109.2 L 237.2,109.3 L 237.1,109.4 L 236.9,109.4 L 236.8,109.5 L 236.6,109.5 L 236.5,109.6 L 236.3,109.6 L 236.2,109.6 L 236.0,109.6 L 235.8,109.6 L 235.7,109.6 L 235.5,109.5 L 235.4,109.5 L 235.2,109.4 L 235.1,109.3 L 235.0,109.2 L 234.9,109.1 L 234.7,109.0 L 234.6,108.9 L 234.6,108.7 L 234.5,108.6 L 234.4,108.5 L 234.4,108.3 L 234.3,108.2 L 234.3,108.0 L 234.3,107.8 L 234.3,107.7 L 234.3,107.5 L 234.3,107.4 L 234.4,107.2 L 234.4,107.1 L 234.5,106.9 L 234.6,106.8 L 234.6,106.7 L 234.7,106.5 L 234.9,106.4 L 235.0,106.3 L 235.1,106.2 L 235.2,106.1 L 235.4,106.1 L 235.5,106.0 L 235.7,106.0 L 235.8,105.9 L 236.0,105.9 L 236.2,105.9 L 236.3,105.9 L 236.5,106.0 L 236.6,106.0 L 236.8,106.0 L 236.9,106.1 L 237.1,106.2 L 237.2,106.3 L 237.3,106.4 L 237.4,106.5 L 237.5,106.6 L 237.6,106.7 L 237.7,106.9 L 237.8,107.0 L 237.9,107.1 L 237.9,107.3 L 237.9,107.5 L 238.0,107.6 L 238.0,107.8 L 236.1,107.8 Z" style="fill:#000000;fill-rule:evenodd;fill-opacity:1;stroke:#000000;stroke-width:0.0px;stroke-linecap:butt;stroke-linejoin:miter;stroke-miterlimit:10;stroke-opacity:1;"/>
<path class="bond-0 atom-0 atom-1" d="M 291.7,124.0 L 306.0,116.3" style="fill:none;fill-rule:evenodd;stroke:#000000;stroke-width:2.0px;stroke-linecap:butt;stroke-linejoin:miter;stroke-opacity:1"/>
<path class="bond-1 atom-1 atom-2" d="M 315.5,116.6 L 339.7,131.4" style="fill:none;fill-rule:evenodd;stroke:#000000;stroke-width:2.0px;stroke-linecap:butt;stroke-linejoin:miter;stroke-opacity:1"/>
<path class="bond-2 atom-2 atom-3" d="M 339.7,131.4 L 369.5,115.3" style="fill:none;fill-rule:evenodd;stroke:#000000;stroke-width:2.0px;stroke-linecap:butt;stroke-linejoin:miter;stroke-opacity:1"/>
<path class="bond-2 atom-2 atom-3" d="M 339.8,125.6 L 367.1,110.9" style="fill:none;fill-rule:evenodd;stroke:#000000;stroke-width:2.0px;stroke-linecap:butt;stroke-linejoin:miter;stroke-opacity:1"/>
<path class="bond-3 atom-3 atom-4" d="M 369.5,115.3 L 393.6,130.2" style="fill:none;fill-rule:evenodd;stroke:#000000;stroke-width:2.0px;stroke-linecap:butt;stroke-linejoin:miter;stroke-opacity:1"/>
<path class="bond-4 atom-4 atom-5" d="M 403.1,130.5 L 423.4,119.5" style="fill:none;fill-rule:evenodd;stroke:#000000;stroke-width:2.0px;stroke-linecap:butt;stroke-linejoin:miter;stroke-opacity:1"/>
<path class="bond-5 atom-5 atom-6" d="M 432.9,119.9 L 452.3,131.8" style="fill:none;fill-rule:evenodd;stroke:#000000;stroke-width:2.0px;stroke-linecap:butt;stroke-linejoin:miter;stroke-opacity:1"/>
<path class="bond-6 atom-6 atom-7" d="M 467.8,128.9 L 485.1,119.6" style="fill:none;fill-rule:evenodd;stroke:#000000;stroke-width:2.0px;stroke-linecap:butt;stroke-linejoin:miter;stroke-opacity:1"/>
<path d="M 338.5,130.7 L 339.7,131.4 L 341.2,130.6" style="fill:none;stroke:#000000;stroke-width:2.0px;stroke-linecap:butt;stroke-linejoin:miter;stroke-miterlimit:10;stroke-opacity:1;"/>
<path d="M 368.0,116.1 L 369.5,115.3 L 370.7,116.1" style="fill:none;stroke:#000000;stroke-width:2.0px;stroke-linecap:butt;stroke-linejoin:miter;stroke-miterlimit:10;stroke-opacity:1;"/>
<path class="atom-0" d="M 262.5 125.0 L 263.8 125.0 L 263.8 129.1 L 268.7 129.1 L 268.7 125.0 L 270.0 125.0 L 270.0 134.6 L 268.7 134.6 L 268.7 130.2 L 263.8 130.2 L 263.8 134.6 L 262.5 134.6 L 262.5 125.0 " fill="#000000"/>
<path class="atom-0" d="M 274.9 136.1 Q 275.5 136.3, 275.8 136.7 Q 276.1 137.0, 276.1 137.7 Q 276.1 138.2, 275.8 138.6 Q 275.6 139.0, 275.1 139.3 Q 274.6 139.5, 273.9 139.5 Q 273.3 139.5, 272.8 139.3 Q 272.3 139.0, 271.9 138.5 L 272.4 138.0 Q 272.8 138.5, 273.1 138.6 Q 273.4 138.8, 273.9 138.8 Q 274.5 138.8, 274.9 138.5 Q 275.2 138.2, 275.2 137.7 Q 275.2 137.0, 274.9 136.7 Q 274.5 136.4, 273.7 136.4 L 273.3 136.4 L 273.3 135.8 L 273.7 135.8 Q 274.4 135.8, 274.7 135.5 Q 275.1 135.2, 275.1 134.6 Q 275.1 134.2, 274.8 134.0 Q 274.5 133.7, 274.0 133.7 Q 273.4 133.7, 273.1 133.9 Q 272.8 134.1, 272.5 134.6 L 271.9 134.2 Q 272.1 133.7, 272.7 133.4 Q 273.2 133.0, 274.0 133.0 Q 274.9 133.0, 275.4 133.4 Q 276.0 133.9, 276.0 134.6 Q 276.0 135.1, 275.7 135.5 Q 275.4 135.9, 274.9 136.1 " fill="#000000"/>
<path class="atom-0" d="M 278.8 125.0 L 282.0 130.1 Q 282.3 130.6, 282.8 131.5 Q 283.3 132.4, 283.3 132.5 L 283.3 125.0 L 284.6 125.0 L 284.6 134.6 L 283.3 134.6 L 279.9 129.1 Q 279.5 128.4, 279.1 127.7 Q 278.7 126.9, 278.6 126.7 L 278.6 134.6 L 277.3 134.6 L 277.3 125.0 L 278.8 125.0 " fill="#000000"/>
<path class="atom-0" d="M 286.4 126.7 L 288.1 126.7 L 288.1 125.0 L 288.9 125.0 L 288.9 126.7 L 290.6 126.7 L 290.6 127.4 L 288.9 127.4 L 288.9 129.2 L 288.1 129.2 L 288.1 127.4 L 286.4 127.4 L 286.4 126.7 " fill="#000000"/>
<path class="atom-1" d="M 308.7 108.9 L 311.8 114.0 Q 312.1 114.5, 312.6 115.4 Q 313.1 116.3, 313.2 116.3 L 313.2 108.9 L 314.4 108.9 L 314.4 118.5 L 313.1 118.5 L 309.7 112.9 Q 309.3 112.3, 308.9 111.5 Q 308.5 110.8, 308.4 110.6 L 308.4 118.5 L 307.1 118.5 L 307.1 108.9 L 308.7 108.9 " fill="#000000"/>
<path class="atom-1" d="M 316.2 110.5 L 319.5 110.5 L 319.5 111.2 L 316.2 111.2 L 316.2 110.5 " fill="#000000"/>
<path class="atom-4" d="M 396.2 128.3 L 399.4 133.4 Q 399.7 133.9, 400.2 134.8 Q 400.7 135.7, 400.7 135.7 L 400.7 128.3 L 402.0 128.3 L 402.0 137.9 L 400.7 137.9 L 397.3 132.3 Q 396.9 131.7, 396.5 130.9 Q 396.1 130.2, 396.0 130.0 L 396.0 137.9 L 394.7 137.9 L 394.7 128.3 L 396.2 128.3 " fill="#000000"/>
<path class="atom-4" d="M 394.6 138.8 L 395.9 138.8 L 395.9 142.9 L 400.8 142.9 L 400.8 138.8 L 402.1 138.8 L 402.1 148.4 L 400.8 148.4 L 400.8 144.0 L 395.9 144.0 L 395.9 148.4 L 394.6 148.4 L 394.6 138.8 " fill="#000000"/>
<path class="atom-5" d="M 426.0 112.2 L 429.2 117.2 Q 429.5 117.8, 430.0 118.7 Q 430.5 119.6, 430.5 119.6 L 430.5 112.2 L 431.8 112.2 L 431.8 121.8 L 430.5 121.8 L 427.1 116.2 Q 426.7 115.6, 426.3 114.8 Q 425.9 114.1, 425.8 113.8 L 425.8 121.8 L 424.5 121.8 L 424.5 112.2 L 426.0 112.2 " fill="#000000"/>
<path class="atom-5" d="M 424.4 101.6 L 425.7 101.6 L 425.7 105.7 L 430.6 105.7 L 430.6 101.6 L 431.9 101.6 L 431.9 111.2 L 430.6 111.2 L 430.6 106.8 L 425.7 106.8 L 425.7 111.2 L 424.4 111.2 L 424.4 101.6 " fill="#000000"/>
<path class="atom-5" d="M 433.8 110.9 Q 434.0 110.3, 434.6 109.9 Q 435.1 109.6, 435.9 109.6 Q 436.8 109.6, 437.4 110.1 Q 437.9 110.6, 437.9 111.6 Q 437.9 112.5, 437.2 113.4 Q 436.5 114.2, 435.1 115.3 L 438.0 115.3 L 438.0 116.0 L 433.8 116.0 L 433.8 115.4 Q 434.9 114.6, 435.6 113.9 Q 436.3 113.3, 436.7 112.7 Q 437.0 112.2, 437.0 111.6 Q 437.0 111.0, 436.7 110.7 Q 436.4 110.3, 435.9 110.3 Q 435.4 110.3, 435.0 110.5 Q 434.7 110.7, 434.5 111.2 L 433.8 110.9 " fill="#000000"/>
<path class="atom-5" d="M 433.8 103.3 L 435.5 103.3 L 435.5 101.6 L 436.2 101.6 L 436.2 103.3 L 438.0 103.3 L 438.0 104.0 L 436.2 104.0 L 436.2 105.8 L 435.5 105.8 L 435.5 104.0 L 433.8 104.0 L 433.8 103.3 " fill="#000000"/>
<path class="atom-6" d="M 454.9 129.9 L 458.1 135.0 Q 458.4 135.5, 458.9 136.4 Q 459.4 137.3, 459.4 137.4 L 459.4 129.9 L 460.7 129.9 L 460.7 139.5 L 459.4 139.5 L 456.0 134.0 Q 455.6 133.3, 455.2 132.6 Q 454.8 131.8, 454.6 131.6 L 454.6 139.5 L 453.4 139.5 L 453.4 129.9 L 454.9 129.9 " fill="#000000"/>
<path class="atom-6" d="M 462.5 131.7 L 464.2 131.7 L 464.2 129.9 L 464.9 129.9 L 464.9 131.7 L 466.7 131.7 L 466.7 132.3 L 464.9 132.3 L 464.9 134.1 L 464.2 134.1 L 464.2 132.3 L 462.5 132.3 L 462.5 131.7 " fill="#000000"/>
<path class="atom-7" d="M 486.2 113.8 L 487.5 113.8 L 487.5 123.4 L 486.2 123.4 L 486.2 113.8 " fill="#000000"/>
<path class="atom-2" d="M 340.3,134.5 L 340.3,134.6 L 340.3,134.6 L 340.3,134.7 L 340.3,134.7 L 340.3,134.8 L 340.2,134.8 L 340.2,134.9 L 340.2,134.9 L 340.1,135.0 L 340.1,135.0 L 340.1,135.0 L 340.0,135.1 L 340.0,135.1 L 339.9,135.1 L 339.8,135.2 L 339.8,135.2 L 339.7,135.2 L 339.7,135.2 L 339.6,135.2 L 339.6,135.2 L 339.5,135.2 L 339.4,135.1 L 339.4,135.1 L 339.3,135.1 L 339.3,135.1 L 339.2,135.0 L 339.2,135.0 L 339.2,135.0 L 339.1,134.9 L 339.1,134.9 L 339.1,134.8 L 339.0,134.8 L 339.0,134.7 L 339.0,134.6 L 339.0,134.6 L 339.0,134.5 L 339.0,134.5 L 339.0,134.4 L 339.0,134.4 L 339.0,134.3 L 339.0,134.2 L 339.1,134.2 L 339.1,134.1 L 339.1,134.1 L 339.2,134.0 L 339.2,134.0 L 339.2,134.0 L 339.3,133.9 L 339.3,133.9 L 339.4,133.9 L 339.4,133.9 L 339.5,133.8 L 339.6,133.8 L 339.6,133.8 L 339.7,133.8 L 339.7,133.8 L 339.8,133.8 L 339.8,133.8 L 339.9,133.9 L 340.0,133.9 L 340.0,133.9 L 340.1,133.9 L 340.1,134.0 L 340.1,134.0 L 340.2,134.1 L 340.2,134.1 L 340.2,134.2 L 340.3,134.2 L 340.3,134.3 L 340.3,134.3 L 340.3,134.4 L 340.3,134.4 L 340.3,134.5 L 339.7,134.5 Z" style="fill:#000000;fill-rule:evenodd;fill-opacity:1;stroke:#000000;stroke-width:0.0px;stroke-linecap:butt;stroke-linejoin:miter;stroke-miterlimit:10;stroke-opacity:1;"/>
<path class="atom-3" d="M 370.2,112.3 L 370.2,112.3 L 370.1,112.4 L 370.1,112.4 L 370.1,112.5 L 370.1,112.6 L 370.1,112.6 L 370.0,112.7 L 370.0,112.7 L 370.0,112.7 L 369.9,112.8 L 369.9,112.8 L 369.8,112.9 L 369.8,112.9 L 369.7,112.9 L 369.7,112.9 L 369.6,112.9 L 369.6,112.9 L 369.5,113.0 L 369.4,113.0 L 369.4,112.9 L 369.3,112.9 L 369.3,112.9 L 369.2,112.9 L 369.2,112.9 L 369.1,112.8 L 369.1,112.8 L 369.0,112.8 L 369.0,112.7 L 368.9,112.7 L 368.9,112.6 L 368.9,112.6 L 368.9,112.5 L 368.8,112.5 L 368.8,112.4 L 368.8,112.4 L 368.8,112.3 L 368.8,112.2 L 368.8,112.2 L 368.8,112.1 L 368.8,112.1 L 368.9,112.0 L 368.9,112.0 L 368.9,111.9 L 368.9,111.9 L 369.0,111.8 L 369.0,111.8 L 369.1,111.7 L 369.1,111.7 L 369.2,111.7 L 369.2,111.7 L 369.3,111.6 L 369.3,111.6 L 369.4,111.6 L 369.4,111.6 L 369.5,111.6 L 369.6,111.6 L 369.6,111.6 L 369.7,111.6 L 369.7,111.6 L 369.8,111.7 L 369.8,111.7 L 369.9,111.7 L 369.9,111.8 L 370.0,111.8 L 370.0,111.8 L 370.0,111.9 L 370.1,111.9 L 370.1,112.0 L 370.1,112.0 L 370.1,112.1 L 370.1,112.2 L 370.2,112.2 L 370.2,112.3 L 369.5,112.3 Z" style="fill:#000000;fill-rule:evenodd;fill-opacity:1;stroke:#000000;stroke-width:0.0px;stroke-linecap:butt;stroke-linejoin:miter;stroke-miterlimit:10;stroke-opacity:1;"/>
<path class="atom-6" d="M 469.4,136.1 L 469.4,136.1 L 469.4,136.2 L 469.4,136.3 L 469.3,136.3 L 469.3,136.4 L 469.3,136.4 L 469.3,136.5 L 469.2,136.5 L 469.2,136.6 L 469.1,136.6 L 469.1,136.6 L 469.0,136.7 L 469.0,136.7 L 468.9,136.7 L 468.9,136.7 L 468.8,136.7 L 468.8,136.8 L 468.7,136.8 L 468.7,136.8 L 468.6,136.8 L 468.5,136.7 L 468.5,136.7 L 468.4,136.7 L 468.4,136.7 L 468.3,136.6 L 468.3,136.6 L 468.2,136.6 L 468.2,136.5 L 468.2,136.5 L 468.1,136.4 L 468.1,136.4 L 468.1,136.3 L 468.1,136.3 L 468.0,136.2 L 468.0,136.2 L 468.0,136.1 L 468.0,136.1 L 468.0,136.0 L 468.0,135.9 L 468.1,135.9 L 468.1,135.8 L 468.1,135.8 L 468.1,135.7 L 468.2,135.7 L 468.2,135.6 L 468.2,135.6 L 468.3,135.5 L 468.3,135.5 L 468.4,135.5 L 468.4,135.5 L 468.5,135.4 L 468.5,135.4 L 468.6,135.4 L 468.7,135.4 L 468.7,135.4 L 468.8,135.4 L 468.8,135.4 L 468.9,135.4 L 468.9,135.4 L 469.0,135.5 L 469.0,135.5 L 469.1,135.5 L 469.1,135.6 L 469.2,135.6 L 469.2,135.7 L 469.3,135.7 L 469.3,135.7 L 469.3,135.8 L 469.3,135.9 L 469.4,135.9 L 469.4,136.0 L 469.4,136.0 L 469.4,136.1 L 468.7,136.1 Z" style="fill:#000000;fill-rule:evenodd;fill-opacity:1;stroke:#000000;stroke-width:0.0px;stroke-linecap:butt;stroke-linejoin:miter;stroke-miterlimit:10;stroke-opacity:1;"/>
<path class="atom-6" d="M 469.4,133.4 L 469.4,133.4 L 469.4,133.5 L 469.4,133.5 L 469.3,133.6 L 469.3,133.7 L 469.3,133.7 L 469.3,133.8 L 469.2,133.8 L 469.2,133.8 L 469.1,133.9 L 469.1,133.9 L 469.0,134.0 L 469.0,134.0 L 468.9,134.0 L 468.9,134.0 L 468.8,134.0 L 468.8,134.0 L 468.7,134.0 L 468.7,134.0 L 468.6,134.0 L 468.5,134.0 L 468.5,134.0 L 468.4,134.0 L 468.4,134.0 L 468.3,133.9 L 468.3,133.9 L 468.2,133.9 L 468.2,133.8 L 468.2,133.8 L 468.1,133.7 L 468.1,133.7 L 468.1,133.6 L 468.1,133.6 L 468.0,133.5 L 468.0,133.5 L 468.0,133.4 L 468.0,133.3 L 468.0,133.3 L 468.0,133.2 L 468.1,133.2 L 468.1,133.1 L 468.1,133.1 L 468.1,133.0 L 468.2,133.0 L 468.2,132.9 L 468.2,132.9 L 468.3,132.8 L 468.3,132.8 L 468.4,132.8 L 468.4,132.7 L 468.5,132.7 L 468.5,132.7 L 468.6,132.7 L 468.7,132.7 L 468.7,132.7 L 468.8,132.7 L 468.8,132.7 L 468.9,132.7 L 468.9,132.7 L 469.0,132.8 L 469.0,132.8 L 469.1,132.8 L 469.1,132.9 L 469.2,132.9 L 469.2,132.9 L 469.3,133.0 L 469.3,133.0 L 469.3,133.1 L 469.3,133.1 L 469.4,133.2 L 469.4,133.3 L 469.4,133.3 L 469.4,133.4 L 468.7,133.4 Z" style="fill:#000000;fill-rule:evenodd;fill-opacity:1;stroke:#000000;stroke-width:0.0px;stroke-linecap:butt;stroke-linejoin:miter;stroke-miterlimit:10;stroke-opacity:1;"/>
<path class="bond-0 atom-0 atom-1" d="M 698.6,134.3 L 645.2,103.4" style="fill:none;fill-rule:evenodd;stroke:#000000;stroke-width:2.0px;stroke-linecap:butt;stroke-linejoin:miter;stroke-opacity:1"/>
<path class="bond-1 atom-1 atom-2" d="M 620.5,97.8 L 582.7,119.6" style="fill:none;fill-rule:evenodd;stroke:#000000;stroke-width:2.0px;stroke-linecap:butt;stroke-linejoin:miter;stroke-opacity:1"/>
<path class="bond-1 atom-1 atom-2" d="M 627.0,109.1 L 589.2,130.9" style="fill:none;fill-rule:evenodd;stroke:#000000;stroke-width:2.0px;stroke-linecap:butt;stroke-linejoin:miter;stroke-opacity:1"/>
<path class="atom-0" d="M 702.4 148.9 Q 702.7 149.0, 703.8 149.5 Q 704.9 149.9, 706.2 150.2 Q 707.5 150.5, 708.7 150.5 Q 711.0 150.5, 712.4 149.4 Q 713.7 148.3, 713.7 146.3 Q 713.7 145.0, 713.0 144.1 Q 712.4 143.3, 711.3 142.9 Q 710.3 142.4, 708.6 141.9 Q 706.4 141.2, 705.1 140.6 Q 703.8 140.0, 702.9 138.7 Q 702.0 137.4, 702.0 135.1 Q 702.0 132.1, 704.0 130.2 Q 706.2 128.3, 710.3 128.3 Q 713.1 128.3, 716.4 129.6 L 715.6 132.3 Q 712.6 131.1, 710.4 131.1 Q 708.0 131.1, 706.7 132.1 Q 705.4 133.0, 705.4 134.7 Q 705.4 136.0, 706.1 136.8 Q 706.8 137.6, 707.7 138.1 Q 708.8 138.5, 710.4 139.1 Q 712.6 139.7, 713.9 140.4 Q 715.2 141.1, 716.2 142.5 Q 717.1 143.9, 717.1 146.3 Q 717.1 149.7, 714.9 151.5 Q 712.6 153.3, 708.9 153.3 Q 706.7 153.3, 705.0 152.8 Q 703.4 152.4, 701.5 151.6 L 702.4 148.9 " fill="#000000"/>
<path class="atom-0" d="M 720.4 132.3 L 724.7 132.3 L 724.7 127.8 L 726.6 127.8 L 726.6 132.3 L 731.0 132.3 L 731.0 134.0 L 726.6 134.0 L 726.6 138.5 L 724.7 138.5 L 724.7 134.0 L 720.4 134.0 L 720.4 132.3 " fill="#000000"/>
<path class="atom-1" d="M 627.6 105.7 Q 627.8 105.8, 629.0 106.2 Q 630.1 106.7, 631.4 107.0 Q 632.6 107.3, 633.9 107.3 Q 636.2 107.3, 637.5 106.2 Q 638.9 105.1, 638.9 103.1 Q 638.9 101.8, 638.2 100.9 Q 637.5 100.1, 636.5 99.6 Q 635.5 99.2, 633.7 98.7 Q 631.6 98.0, 630.3 97.4 Q 629.0 96.8, 628.0 95.5 Q 627.1 94.2, 627.1 91.9 Q 627.1 88.9, 629.2 87.0 Q 631.3 85.1, 635.5 85.1 Q 638.3 85.1, 641.5 86.4 L 640.7 89.1 Q 637.8 87.9, 635.6 87.9 Q 633.2 87.9, 631.9 88.9 Q 630.6 89.8, 630.6 91.5 Q 630.6 92.8, 631.3 93.6 Q 631.9 94.4, 632.9 94.9 Q 633.9 95.3, 635.6 95.8 Q 637.8 96.5, 639.1 97.2 Q 640.4 97.9, 641.3 99.3 Q 642.3 100.7, 642.3 103.1 Q 642.3 106.5, 640.0 108.3 Q 637.8 110.1, 634.0 110.1 Q 631.8 110.1, 630.2 109.6 Q 628.6 109.2, 626.6 108.4 L 627.6 105.7 " fill="#000000"/>
<path class="atom-2" d="M 512.5 128.2 L 515.8 128.2 L 515.8 138.6 L 528.3 138.6 L 528.3 128.2 L 531.6 128.2 L 531.6 152.7 L 528.3 152.7 L 528.3 141.4 L 515.8 141.4 L 515.8 152.7 L 512.5 152.7 L 512.5 128.2 " fill="#000000"/>
<path class="atom-2" d="M 536.4 151.8 Q 537.0 150.3, 538.4 149.5 Q 539.8 148.6, 541.8 148.6 Q 544.2 148.6, 545.6 149.9 Q 547.0 151.3, 547.0 153.6 Q 547.0 156.0, 545.2 158.2 Q 543.4 160.5, 539.8 163.1 L 547.2 163.1 L 547.2 164.9 L 536.3 164.9 L 536.3 163.4 Q 539.4 161.3, 541.1 159.7 Q 542.9 158.1, 543.8 156.6 Q 544.7 155.2, 544.7 153.7 Q 544.7 152.2, 543.9 151.3 Q 543.1 150.4, 541.8 150.4 Q 540.5 150.4, 539.6 151.0 Q 538.7 151.5, 538.1 152.6 L 536.4 151.8 " fill="#000000"/>
<path class="atom-2" d="M 554.2 128.2 L 562.2 141.2 Q 563.0 142.5, 564.3 144.8 Q 565.6 147.1, 565.7 147.2 L 565.7 128.2 L 568.9 128.2 L 568.9 152.7 L 565.6 152.7 L 557.0 138.5 Q 556.0 136.9, 554.9 135.0 Q 553.8 133.1, 553.5 132.5 L 553.5 152.7 L 550.4 152.7 L 550.4 128.2 L 554.2 128.2 " fill="#000000"/>
<path class="atom-2" d="M 573.5 132.6 L 577.9 132.6 L 577.9 128.1 L 579.8 128.1 L 579.8 132.6 L 584.2 132.6 L 584.2 134.3 L 579.8 134.3 L 579.8 138.8 L 577.9 138.8 L 577.9 134.3 L 573.5 134.3 L 573.5 132.6 " fill="#000000"/>
<path class="atom-0" d="M 737.9,143.9 L 737.9,144.1 L 737.9,144.2 L 737.9,144.4 L 737.8,144.5 L 737.8,144.6 L 737.7,144.8 L 737.6,144.9 L 737.5,145.0 L 737.4,145.1 L 737.3,145.2 L 737.2,145.3 L 737.1,145.4 L 737.0,145.5 L 736.8,145.5 L 736.7,145.6 L 736.5,145.6 L 736.4,145.6 L 736.2,145.7 L 736.1,145.6 L 735.9,145.6 L 735.8,145.6 L 735.7,145.6 L 735.5,145.5 L 735.4,145.4 L 735.3,145.4 L 735.1,145.3 L 735.0,145.2 L 734.9,145.1 L 734.8,145.0 L 734.7,144.8 L 734.7,144.7 L 734.6,144.6 L 734.6,144.4 L 734.5,144.3 L 734.5,144.1 L 734.5,144.0 L 734.5,143.8 L 734.5,143.7 L 734.5,143.6 L 734.6,143.4 L 734.6,143.3 L 734.7,143.1 L 734.7,143.0 L 734.8,142.9 L 734.9,142.8 L 735.0,142.7 L 735.1,142.6 L 735.3,142.5 L 735.4,142.4 L 735.5,142.3 L 735.7,142.3 L 735.8,142.2 L 735.9,142.2 L 736.1,142.2 L 736.2,142.2 L 736.4,142.2 L 736.5,142.2 L 736.7,142.3 L 736.8,142.3 L 737.0,142.4 L 737.1,142.4 L 737.2,142.5 L 737.3,142.6 L 737.4,142.7 L 737.5,142.8 L 737.6,142.9 L 737.7,143.1 L 737.8,143.2 L 737.8,143.3 L 737.9,143.5 L 737.9,143.6 L 737.9,143.8 L 737.9,143.9 L 736.2,143.9 Z" style="fill:#000000;fill-rule:evenodd;fill-opacity:1;stroke:#000000;stroke-width:0.0px;stroke-linecap:butt;stroke-linejoin:miter;stroke-miterlimit:10;stroke-opacity:1;"/>
<path class="atom-0" d="M 737.9,137.0 L 737.9,137.2 L 737.9,137.3 L 737.9,137.5 L 737.8,137.6 L 737.8,137.7 L 737.7,137.9 L 737.6,138.0 L 737.5,138.1 L 737.4,138.2 L 737.3,138.3 L 737.2,138.4 L 737.1,138.5 L 737.0,138.6 L 736.8,138.6 L 736.7,138.7 L 736.5,138.7 L 736.4,138.7 L 736.2,138.7 L 736.1,138.7 L 735.9,138.7 L 735.8,138.7 L 735.7,138.7 L 735.5,138.6 L 735.4,138.5 L 735.3,138.5 L 735.1,138.4 L 735.0,138.3 L 734.9,138.2 L 734.8,138.1 L 734.7,137.9 L 734.7,137.8 L 734.6,137.7 L 734.6,137.5 L 734.5,137.4 L 734.5,137.2 L 734.5,137.1 L 734.5,136.9 L 734.5,136.8 L 734.5,136.6 L 734.6,136.5 L 734.6,136.4 L 734.7,136.2 L 734.7,136.1 L 734.8,136.0 L 734.9,135.9 L 735.0,135.8 L 735.1,135.7 L 735.3,135.6 L 735.4,135.5 L 735.5,135.4 L 735.7,135.4 L 735.8,135.3 L 735.9,135.3 L 736.1,135.3 L 736.2,135.3 L 736.4,135.3 L 736.5,135.3 L 736.7,135.4 L 736.8,135.4 L 737.0,135.5 L 737.1,135.5 L 737.2,135.6 L 737.3,135.7 L 737.4,135.8 L 737.5,135.9 L 737.6,136.0 L 737.7,136.2 L 737.8,136.3 L 737.8,136.4 L 737.9,136.6 L 737.9,136.7 L 737.9,136.9 L 737.9,137.0 L 736.2,137.0 Z" style="fill:#000000;fill-rule:evenodd;fill-opacity:1;stroke:#000000;stroke-width:0.0px;stroke-linecap:butt;stroke-linejoin:miter;stroke-miterlimit:10;stroke-opacity:1;"/>
<path class="atom-1" d="M 649.2,97.3 L 649.2,97.4 L 649.2,97.6 L 649.2,97.7 L 649.1,97.8 L 649.1,98.0 L 649.0,98.1 L 648.9,98.2 L 648.8,98.4 L 648.7,98.5 L 648.6,98.6 L 648.5,98.7 L 648.4,98.7 L 648.3,98.8 L 648.1,98.9 L 648.0,98.9 L 647.8,99.0 L 647.7,99.0 L 647.5,99.0 L 647.4,99.0 L 647.2,99.0 L 647.1,98.9 L 647.0,98.9 L 646.8,98.8 L 646.7,98.8 L 646.6,98.7 L 646.4,98.6 L 646.3,98.5 L 646.2,98.4 L 646.1,98.3 L 646.0,98.2 L 646.0,98.0 L 645.9,97.9 L 645.8,97.8 L 645.8,97.6 L 645.8,97.5 L 645.8,97.3 L 645.8,97.2 L 645.8,97.0 L 645.8,96.9 L 645.8,96.7 L 645.9,96.6 L 646.0,96.5 L 646.0,96.3 L 646.1,96.2 L 646.2,96.1 L 646.3,96.0 L 646.4,95.9 L 646.6,95.8 L 646.7,95.7 L 646.8,95.7 L 647.0,95.6 L 647.1,95.6 L 647.2,95.6 L 647.4,95.5 L 647.5,95.5 L 647.7,95.5 L 647.8,95.6 L 648.0,95.6 L 648.1,95.6 L 648.3,95.7 L 648.4,95.8 L 648.5,95.9 L 648.6,96.0 L 648.7,96.1 L 648.8,96.2 L 648.9,96.3 L 649.0,96.4 L 649.1,96.5 L 649.1,96.7 L 649.2,96.8 L 649.2,97.0 L 649.2,97.1 L 649.2,97.3 L 647.5,97.3 Z" style="fill:#000000;fill-rule:evenodd;fill-opacity:1;stroke:#000000;stroke-width:0.0px;stroke-linecap:butt;stroke-linejoin:miter;stroke-miterlimit:10;stroke-opacity:1;"/>
<path class="bond-0 atom-0 atom-1" d="M 202.7,382.1 L 221.9,371.5" style="fill:none;fill-rule:evenodd;stroke:#000000;stroke-width:2.0px;stroke-linecap:butt;stroke-linejoin:miter;stroke-opacity:1"/>
<path class="bond-1 atom-0 atom-2" d="M 202.7,382.1 L 184.1,370.9" style="fill:none;fill-rule:evenodd;stroke:#000000;stroke-width:2.0px;stroke-linecap:butt;stroke-linejoin:miter;stroke-opacity:1"/>
<path class="bond-2 atom-2 atom-3" d="M 176.7,370.7 L 161.3,379.3" style="fill:none;fill-rule:evenodd;stroke:#000000;stroke-width:2.0px;stroke-linecap:butt;stroke-linejoin:miter;stroke-opacity:1"/>
<path class="bond-3 atom-3 atom-4" d="M 153.9,379.1 L 138.5,369.8" style="fill:none;fill-rule:evenodd;stroke:#000000;stroke-width:2.0px;stroke-linecap:butt;stroke-linejoin:miter;stroke-opacity:1"/>
<path class="bond-4 atom-4 atom-5" d="M 133.0,371.4 L 117.1,380.2" style="fill:none;fill-rule:evenodd;stroke:#000000;stroke-width:2.0px;stroke-linecap:butt;stroke-linejoin:miter;stroke-opacity:1"/>
<path class="bond-4 atom-4 atom-5" d="M 131.1,368.0 L 115.2,376.8" style="fill:none;fill-rule:evenodd;stroke:#000000;stroke-width:2.0px;stroke-linecap:butt;stroke-linejoin:miter;stroke-opacity:1"/>
<path class="bond-5 atom-5 atom-6" d="M 108.8,378.3 L 93.3,369.0" style="fill:none;fill-rule:evenodd;stroke:#000000;stroke-width:2.0px;stroke-linecap:butt;stroke-linejoin:miter;stroke-opacity:1"/>
<path class="bond-6 atom-6 atom-7" d="M 86.9,368.9 L 67.3,379.7" style="fill:none;fill-rule:evenodd;stroke:#000000;stroke-width:2.0px;stroke-linecap:butt;stroke-linejoin:miter;stroke-opacity:1"/>
<path class="bond-7 atom-7 atom-8" d="M 67.3,379.7 L 45.0,366.3" style="fill:none;fill-rule:evenodd;stroke:#000000;stroke-width:2.0px;stroke-linecap:butt;stroke-linejoin:miter;stroke-opacity:1"/>
<path class="bond-8 atom-8 atom-9" d="M 45.0,366.3 L 30.6,374.3" style="fill:none;fill-rule:evenodd;stroke:#000000;stroke-width:2.0px;stroke-linecap:butt;stroke-linejoin:miter;stroke-opacity:1"/>
<path class="bond-8 atom-8 atom-9" d="M 44.9,370.8 L 32.5,377.7" style="fill:none;fill-rule:evenodd;stroke:#000000;stroke-width:2.0px;stroke-linecap:butt;stroke-linejoin:miter;stroke-opacity:1"/>
<path d="M 203.7,381.6 L 202.7,382.1 L 201.8,381.6" style="fill:none;stroke:#000000;stroke-width:2.0px;stroke-linecap:butt;stroke-linejoin:miter;stroke-miterlimit:10;stroke-opacity:1;"/>
<path d="M 68.3,379.2 L 67.3,379.7 L 66.2,379.1" style="fill:none;stroke:#000000;stroke-width:2.0px;stroke-linecap:butt;stroke-linejoin:miter;stroke-miterlimit:10;stroke-opacity:1;"/>
<path d="M 46.1,367.0 L 45.0,366.3 L 44.3,366.7" style="fill:none;stroke:#000000;stroke-width:2.0px;stroke-linecap:butt;stroke-linejoin:miter;stroke-miterlimit:10;stroke-opacity:1;"/>
<path class="atom-1" d="M 223.9 365.8 L 226.3 369.7 Q 226.6 370.1, 226.9 370.8 Q 227.3 371.5, 227.4 371.5 L 227.4 365.8 L 228.3 365.8 L 228.3 373.2 L 227.3 373.2 L 224.7 368.9 Q 224.4 368.4, 224.1 367.8 Q 223.8 367.3, 223.7 367.1 L 223.7 373.2 L 222.7 373.2 L 222.7 365.8 L 223.9 365.8 " fill="#000000"/>
<path class="atom-1" d="M 229.8 365.8 L 230.8 365.8 L 230.8 368.9 L 234.5 368.9 L 234.5 365.8 L 235.5 365.8 L 235.5 373.2 L 234.5 373.2 L 234.5 369.8 L 230.8 369.8 L 230.8 373.2 L 229.8 373.2 L 229.8 365.8 " fill="#000000"/>
<path class="atom-2" d="M 178.8 365.0 L 181.2 368.9 Q 181.4 369.3, 181.8 370.0 Q 182.2 370.7, 182.2 370.7 L 182.2 365.0 L 183.2 365.0 L 183.2 372.4 L 182.2 372.4 L 179.6 368.1 Q 179.3 367.6, 179.0 367.0 Q 178.7 366.5, 178.6 366.3 L 178.6 372.4 L 177.6 372.4 L 177.6 365.0 L 178.8 365.0 " fill="#000000"/>
<path class="atom-2" d="M 177.5 356.9 L 178.5 356.9 L 178.5 360.0 L 182.3 360.0 L 182.3 356.9 L 183.3 356.9 L 183.3 364.3 L 182.3 364.3 L 182.3 360.9 L 178.5 360.9 L 178.5 364.3 L 177.5 364.3 L 177.5 356.9 " fill="#000000"/>
<path class="atom-2" d="M 184.7 364.0 Q 184.9 363.6, 185.3 363.3 Q 185.7 363.0, 186.3 363.0 Q 187.1 363.0, 187.5 363.4 Q 187.9 363.8, 187.9 364.5 Q 187.9 365.3, 187.4 365.9 Q 186.8 366.6, 185.7 367.4 L 188.0 367.4 L 188.0 368.0 L 184.7 368.0 L 184.7 367.5 Q 185.6 366.9, 186.1 366.4 Q 186.7 365.9, 186.9 365.5 Q 187.2 365.0, 187.2 364.6 Q 187.2 364.1, 187.0 363.9 Q 186.7 363.6, 186.3 363.6 Q 185.9 363.6, 185.7 363.7 Q 185.4 363.9, 185.2 364.3 L 184.7 364.0 " fill="#000000"/>
<path class="atom-2" d="M 184.7 358.2 L 186.0 358.2 L 186.0 356.9 L 186.6 356.9 L 186.6 358.2 L 187.9 358.2 L 187.9 358.7 L 186.6 358.7 L 186.6 360.1 L 186.0 360.1 L 186.0 358.7 L 184.7 358.7 L 184.7 358.2 " fill="#000000"/>
<path class="atom-3" d="M 156.0 377.6 L 158.4 381.6 Q 158.6 381.9, 159.0 382.6 Q 159.4 383.3, 159.4 383.4 L 159.4 377.6 L 160.4 377.6 L 160.4 385.0 L 159.4 385.0 L 156.8 380.8 Q 156.5 380.3, 156.2 379.7 Q 155.9 379.1, 155.8 378.9 L 155.8 385.0 L 154.8 385.0 L 154.8 377.6 L 156.0 377.6 " fill="#000000"/>
<path class="atom-3" d="M 154.7 385.8 L 155.7 385.8 L 155.7 388.9 L 159.5 388.9 L 159.5 385.8 L 160.5 385.8 L 160.5 393.1 L 159.5 393.1 L 159.5 389.7 L 155.7 389.7 L 155.7 393.1 L 154.7 393.1 L 154.7 385.8 " fill="#000000"/>
<path class="atom-4" d="M 135.1 364.2 Q 136.3 364.2, 137.0 364.8 Q 137.6 365.4, 137.6 366.4 Q 137.6 367.4, 137.0 368.0 Q 136.3 368.6, 135.1 368.6 L 133.9 368.6 L 133.9 371.6 L 132.9 371.6 L 132.9 364.2 L 135.1 364.2 M 135.1 367.7 Q 135.8 367.7, 136.2 367.4 Q 136.6 367.0, 136.6 366.4 Q 136.6 365.7, 136.2 365.4 Q 135.8 365.0, 135.1 365.0 L 133.9 365.0 L 133.9 367.7 L 135.1 367.7 " fill="#000000"/>
<path class="atom-5" d="M 110.8 376.8 L 113.2 380.8 Q 113.5 381.1, 113.9 381.8 Q 114.3 382.5, 114.3 382.6 L 114.3 376.8 L 115.3 376.8 L 115.3 384.2 L 114.2 384.2 L 111.7 380.0 Q 111.3 379.5, 111.0 378.9 Q 110.7 378.3, 110.6 378.1 L 110.6 384.2 L 109.7 384.2 L 109.7 376.8 L 110.8 376.8 " fill="#000000"/>
<path class="atom-6" d="M 88.0 369.6 Q 88.1 369.7, 88.5 369.8 Q 88.8 370.0, 89.2 370.1 Q 89.6 370.1, 89.9 370.1 Q 90.6 370.1, 91.0 369.8 Q 91.5 369.5, 91.5 368.9 Q 91.5 368.5, 91.2 368.2 Q 91.0 368.0, 90.7 367.8 Q 90.4 367.7, 89.9 367.5 Q 89.2 367.3, 88.8 367.2 Q 88.5 367.0, 88.2 366.6 Q 87.9 366.2, 87.9 365.5 Q 87.9 364.6, 88.5 364.0 Q 89.2 363.4, 90.4 363.4 Q 91.3 363.4, 92.2 363.8 L 92.0 364.6 Q 91.1 364.3, 90.5 364.3 Q 89.7 364.3, 89.3 364.6 Q 88.9 364.9, 89.0 365.4 Q 89.0 365.8, 89.2 366.0 Q 89.4 366.3, 89.7 366.4 Q 90.0 366.5, 90.5 366.7 Q 91.1 366.9, 91.5 367.1 Q 91.9 367.3, 92.2 367.7 Q 92.5 368.2, 92.5 368.9 Q 92.5 369.9, 91.8 370.4 Q 91.1 371.0, 90.0 371.0 Q 89.3 371.0, 88.8 370.8 Q 88.3 370.7, 87.8 370.5 L 88.0 369.6 " fill="#000000"/>
<path class="atom-9" d="M 12.5 377.0 L 13.5 377.0 L 13.5 380.1 L 17.3 380.1 L 17.3 377.0 L 18.3 377.0 L 18.3 384.4 L 17.3 384.4 L 17.3 381.0 L 13.5 381.0 L 13.5 384.4 L 12.5 384.4 L 12.5 377.0 " fill="#000000"/>
<path class="atom-9" d="M 19.7 380.7 Q 19.7 378.9, 20.6 377.9 Q 21.5 376.9, 23.1 376.9 Q 24.8 376.9, 25.6 377.9 Q 26.5 378.9, 26.5 380.7 Q 26.5 382.5, 25.6 383.5 Q 24.7 384.5, 23.1 384.5 Q 21.5 384.5, 20.6 383.5 Q 19.7 382.5, 19.7 380.7 M 23.1 383.7 Q 24.3 383.7, 24.9 382.9 Q 25.5 382.2, 25.5 380.7 Q 25.5 379.2, 24.9 378.5 Q 24.3 377.8, 23.1 377.8 Q 22.0 377.8, 21.4 378.5 Q 20.8 379.2, 20.8 380.7 Q 20.8 382.2, 21.4 382.9 Q 22.0 383.7, 23.1 383.7 " fill="#000000"/>
<path class="atom-9" d="M 27.6 378.2 L 28.9 378.2 L 28.9 376.9 L 29.5 376.9 L 29.5 378.2 L 30.8 378.2 L 30.8 378.7 L 29.5 378.7 L 29.5 380.1 L 28.9 380.1 L 28.9 378.7 L 27.6 378.7 L 27.6 378.2 " fill="#000000"/>
<path class="atom-0" d="M 204.3,384.5 L 204.3,384.5 L 204.3,384.6 L 204.3,384.6 L 204.3,384.7 L 204.3,384.7 L 204.2,384.7 L 204.2,384.8 L 204.2,384.8 L 204.2,384.8 L 204.1,384.9 L 204.1,384.9 L 204.0,384.9 L 204.0,384.9 L 204.0,385.0 L 203.9,385.0 L 203.9,385.0 L 203.8,385.0 L 203.8,385.0 L 203.7,385.0 L 203.7,385.0 L 203.7,385.0 L 203.6,385.0 L 203.6,385.0 L 203.5,384.9 L 203.5,384.9 L 203.5,384.9 L 203.4,384.9 L 203.4,384.8 L 203.4,384.8 L 203.3,384.8 L 203.3,384.7 L 203.3,384.7 L 203.3,384.6 L 203.3,384.6 L 203.3,384.5 L 203.3,384.5 L 203.3,384.5 L 203.3,384.4 L 203.3,384.4 L 203.3,384.3 L 203.3,384.3 L 203.3,384.2 L 203.3,384.2 L 203.4,384.2 L 203.4,384.1 L 203.4,384.1 L 203.5,384.1 L 203.5,384.0 L 203.5,384.0 L 203.6,384.0 L 203.6,384.0 L 203.7,384.0 L 203.7,384.0 L 203.7,384.0 L 203.8,384.0 L 203.8,384.0 L 203.9,384.0 L 203.9,384.0 L 204.0,384.0 L 204.0,384.0 L 204.0,384.0 L 204.1,384.1 L 204.1,384.1 L 204.2,384.1 L 204.2,384.1 L 204.2,384.2 L 204.2,384.2 L 204.3,384.3 L 204.3,384.3 L 204.3,384.3 L 204.3,384.4 L 204.3,384.4 L 204.3,384.5 L 203.8,384.5 Z" style="fill:#000000;fill-rule:evenodd;fill-opacity:1;stroke:#000000;stroke-width:0.0px;stroke-linecap:butt;stroke-linejoin:miter;stroke-miterlimit:10;stroke-opacity:1;"/>
<path class="atom-0" d="M 202.2,384.5 L 202.2,384.5 L 202.2,384.6 L 202.2,384.6 L 202.2,384.7 L 202.2,384.7 L 202.1,384.7 L 202.1,384.8 L 202.1,384.8 L 202.1,384.8 L 202.0,384.9 L 202.0,384.9 L 202.0,384.9 L 201.9,384.9 L 201.9,385.0 L 201.8,385.0 L 201.8,385.0 L 201.7,385.0 L 201.7,385.0 L 201.7,385.0 L 201.6,385.0 L 201.6,385.0 L 201.5,385.0 L 201.5,385.0 L 201.4,384.9 L 201.4,384.9 L 201.4,384.9 L 201.3,384.9 L 201.3,384.8 L 201.3,384.8 L 201.3,384.8 L 201.2,384.7 L 201.2,384.7 L 201.2,384.6 L 201.2,384.6 L 201.2,384.5 L 201.2,384.5 L 201.2,384.5 L 201.2,384.4 L 201.2,384.4 L 201.2,384.3 L 201.2,384.3 L 201.2,384.2 L 201.3,384.2 L 201.3,384.2 L 201.3,384.1 L 201.3,384.1 L 201.4,384.1 L 201.4,384.0 L 201.4,384.0 L 201.5,384.0 L 201.5,384.0 L 201.6,384.0 L 201.6,384.0 L 201.7,384.0 L 201.7,384.0 L 201.7,384.0 L 201.8,384.0 L 201.8,384.0 L 201.9,384.0 L 201.9,384.0 L 202.0,384.0 L 202.0,384.1 L 202.0,384.1 L 202.1,384.1 L 202.1,384.1 L 202.1,384.2 L 202.1,384.2 L 202.2,384.3 L 202.2,384.3 L 202.2,384.3 L 202.2,384.4 L 202.2,384.4 L 202.2,384.5 L 201.7,384.5 Z" style="fill:#000000;fill-rule:evenodd;fill-opacity:1;stroke:#000000;stroke-width:0.0px;stroke-linecap:butt;stroke-linejoin:miter;stroke-miterlimit:10;stroke-opacity:1;"/>
<path class="atom-1" d="M 237.6,369.5 L 237.6,369.5 L 237.6,369.6 L 237.6,369.6 L 237.6,369.7 L 237.6,369.7 L 237.6,369.8 L 237.5,369.8 L 237.5,369.8 L 237.5,369.9 L 237.4,369.9 L 237.4,369.9 L 237.4,369.9 L 237.3,370.0 L 237.3,370.0 L 237.3,370.0 L 237.2,370.0 L 237.2,370.0 L 237.1,370.0 L 237.1,370.0 L 237.0,370.0 L 237.0,370.0 L 236.9,370.0 L 236.9,370.0 L 236.9,370.0 L 236.8,369.9 L 236.8,369.9 L 236.8,369.9 L 236.7,369.8 L 236.7,369.8 L 236.7,369.8 L 236.6,369.7 L 236.6,369.7 L 236.6,369.7 L 236.6,369.6 L 236.6,369.6 L 236.6,369.5 L 236.6,369.5 L 236.6,369.4 L 236.6,369.4 L 236.6,369.3 L 236.6,369.3 L 236.6,369.3 L 236.7,369.2 L 236.7,369.2 L 236.7,369.2 L 236.8,369.1 L 236.8,369.1 L 236.8,369.1 L 236.9,369.0 L 236.9,369.0 L 236.9,369.0 L 237.0,369.0 L 237.0,369.0 L 237.1,369.0 L 237.1,369.0 L 237.2,369.0 L 237.2,369.0 L 237.3,369.0 L 237.3,369.0 L 237.3,369.0 L 237.4,369.1 L 237.4,369.1 L 237.4,369.1 L 237.5,369.1 L 237.5,369.2 L 237.5,369.2 L 237.6,369.2 L 237.6,369.3 L 237.6,369.3 L 237.6,369.4 L 237.6,369.4 L 237.6,369.5 L 237.6,369.5 L 237.1,369.5 Z" style="fill:#000000;fill-rule:evenodd;fill-opacity:1;stroke:#000000;stroke-width:0.0px;stroke-linecap:butt;stroke-linejoin:miter;stroke-miterlimit:10;stroke-opacity:1;"/>
<path class="atom-7" d="M 67.8,382.1 L 67.8,382.1 L 67.8,382.2 L 67.8,382.2 L 67.8,382.3 L 67.8,382.3 L 67.8,382.3 L 67.8,382.4 L 67.7,382.4 L 67.7,382.5 L 67.7,382.5 L 67.6,382.5 L 67.6,382.5 L 67.5,382.6 L 67.5,382.6 L 67.5,382.6 L 67.4,382.6 L 67.4,382.6 L 67.3,382.6 L 67.3,382.6 L 67.2,382.6 L 67.2,382.6 L 67.2,382.6 L 67.1,382.6 L 67.1,382.5 L 67.0,382.5 L 67.0,382.5 L 67.0,382.5 L 66.9,382.4 L 66.9,382.4 L 66.9,382.4 L 66.9,382.3 L 66.8,382.3 L 66.8,382.2 L 66.8,382.2 L 66.8,382.2 L 66.8,382.1 L 66.8,382.1 L 66.8,382.0 L 66.8,382.0 L 66.8,381.9 L 66.8,381.9 L 66.9,381.8 L 66.9,381.8 L 66.9,381.8 L 66.9,381.7 L 67.0,381.7 L 67.0,381.7 L 67.0,381.7 L 67.1,381.6 L 67.1,381.6 L 67.2,381.6 L 67.2,381.6 L 67.2,381.6 L 67.3,381.6 L 67.3,381.6 L 67.4,381.6 L 67.4,381.6 L 67.5,381.6 L 67.5,381.6 L 67.5,381.6 L 67.6,381.6 L 67.6,381.7 L 67.7,381.7 L 67.7,381.7 L 67.7,381.8 L 67.8,381.8 L 67.8,381.8 L 67.8,381.9 L 67.8,381.9 L 67.8,382.0 L 67.8,382.0 L 67.8,382.0 L 67.8,382.1 L 67.3,382.1 Z" style="fill:#000000;fill-rule:evenodd;fill-opacity:1;stroke:#000000;stroke-width:0.0px;stroke-linecap:butt;stroke-linejoin:miter;stroke-miterlimit:10;stroke-opacity:1;"/>
<path class="atom-8" d="M 45.5,364.0 L 45.5,364.0 L 45.5,364.1 L 45.5,364.1 L 45.5,364.1 L 45.5,364.2 L 45.4,364.2 L 45.4,364.3 L 45.4,364.3 L 45.4,364.3 L 45.3,364.4 L 45.3,364.4 L 45.3,364.4 L 45.2,364.4 L 45.2,364.5 L 45.1,364.5 L 45.1,364.5 L 45.0,364.5 L 45.0,364.5 L 44.9,364.5 L 44.9,364.5 L 44.9,364.5 L 44.8,364.5 L 44.8,364.4 L 44.7,364.4 L 44.7,364.4 L 44.7,364.4 L 44.6,364.3 L 44.6,364.3 L 44.6,364.3 L 44.5,364.2 L 44.5,364.2 L 44.5,364.2 L 44.5,364.1 L 44.5,364.1 L 44.5,364.0 L 44.5,364.0 L 44.5,363.9 L 44.5,363.9 L 44.5,363.9 L 44.5,363.8 L 44.5,363.8 L 44.5,363.7 L 44.5,363.7 L 44.6,363.7 L 44.6,363.6 L 44.6,363.6 L 44.7,363.6 L 44.7,363.5 L 44.7,363.5 L 44.8,363.5 L 44.8,363.5 L 44.9,363.5 L 44.9,363.4 L 44.9,363.4 L 45.0,363.4 L 45.0,363.4 L 45.1,363.5 L 45.1,363.5 L 45.2,363.5 L 45.2,363.5 L 45.3,363.5 L 45.3,363.5 L 45.3,363.6 L 45.4,363.6 L 45.4,363.6 L 45.4,363.7 L 45.4,363.7 L 45.5,363.7 L 45.5,363.8 L 45.5,363.8 L 45.5,363.9 L 45.5,363.9 L 45.5,364.0 L 45.0,364.0 Z" style="fill:#000000;fill-rule:evenodd;fill-opacity:1;stroke:#000000;stroke-width:0.0px;stroke-linecap:butt;stroke-linejoin:miter;stroke-miterlimit:10;stroke-opacity:1;"/>
<path class="bond-0 atom-1 atom-0" d="M 320.2,362.6 L 320.6,362.1" style="fill:none;fill-rule:evenodd;stroke:#000000;stroke-width:1.0px;stroke-linecap:butt;stroke-linejoin:miter;stroke-opacity:1"/>
<path class="bond-0 atom-1 atom-0" d="M 317.3,360.7 L 318.1,359.8" style="fill:none;fill-rule:evenodd;stroke:#000000;stroke-width:1.0px;stroke-linecap:butt;stroke-linejoin:miter;stroke-opacity:1"/>
<path class="bond-0 atom-1 atom-0" d="M 314.5,358.9 L 315.6,357.5" style="fill:none;fill-rule:evenodd;stroke:#000000;stroke-width:1.0px;stroke-linecap:butt;stroke-linejoin:miter;stroke-opacity:1"/>
<path class="bond-0 atom-1 atom-0" d="M 311.6,357.0 L 313.1,355.1" style="fill:none;fill-rule:evenodd;stroke:#000000;stroke-width:1.0px;stroke-linecap:butt;stroke-linejoin:miter;stroke-opacity:1"/>
<path class="bond-0 atom-1 atom-0" d="M 308.8,355.2 L 310.6,352.8" style="fill:none;fill-rule:evenodd;stroke:#000000;stroke-width:1.0px;stroke-linecap:butt;stroke-linejoin:miter;stroke-opacity:1"/>
<path class="bond-0 atom-1 atom-0" d="M 305.9,353.3 L 308.2,350.5" style="fill:none;fill-rule:evenodd;stroke:#000000;stroke-width:1.0px;stroke-linecap:butt;stroke-linejoin:miter;stroke-opacity:1"/>
<path class="bond-0 atom-1 atom-0" d="M 303.1,351.5 L 305.7,348.1" style="fill:none;fill-rule:evenodd;stroke:#000000;stroke-width:1.0px;stroke-linecap:butt;stroke-linejoin:miter;stroke-opacity:1"/>
<path class="bond-0 atom-1 atom-0" d="M 300.2,349.6 L 303.2,345.8" style="fill:none;fill-rule:evenodd;stroke:#000000;stroke-width:1.0px;stroke-linecap:butt;stroke-linejoin:miter;stroke-opacity:1"/>
<path class="bond-0 atom-1 atom-0" d="M 297.4,347.7 L 300.7,343.5" style="fill:none;fill-rule:evenodd;stroke:#000000;stroke-width:1.0px;stroke-linecap:butt;stroke-linejoin:miter;stroke-opacity:1"/>
<path class="bond-0 atom-1 atom-0" d="M 294.5,345.9 L 298.2,341.1" style="fill:none;fill-rule:evenodd;stroke:#000000;stroke-width:1.0px;stroke-linecap:butt;stroke-linejoin:miter;stroke-opacity:1"/>
<path class="bond-0 atom-1 atom-0" d="M 291.6,344.0 L 295.8,338.8" style="fill:none;fill-rule:evenodd;stroke:#000000;stroke-width:1.0px;stroke-linecap:butt;stroke-linejoin:miter;stroke-opacity:1"/>
<path class="bond-0 atom-1 atom-0" d="M 288.8,342.2 L 293.3,336.4" style="fill:none;fill-rule:evenodd;stroke:#000000;stroke-width:1.0px;stroke-linecap:butt;stroke-linejoin:miter;stroke-opacity:1"/>
<path class="bond-0 atom-1 atom-0" d="M 285.9,340.3 L 290.8,334.1" style="fill:none;fill-rule:evenodd;stroke:#000000;stroke-width:1.0px;stroke-linecap:butt;stroke-linejoin:miter;stroke-opacity:1"/>
<path class="bond-0 atom-1 atom-0" d="M 283.1,338.4 L 288.3,331.8" style="fill:none;fill-rule:evenodd;stroke:#000000;stroke-width:1.0px;stroke-linecap:butt;stroke-linejoin:miter;stroke-opacity:1"/>
<path class="bond-1 atom-1 atom-2" d="M 323.1,364.5 L 316.5,410.5" style="fill:none;fill-rule:evenodd;stroke:#000000;stroke-width:2.0px;stroke-linecap:butt;stroke-linejoin:miter;stroke-opacity:1"/>
<path class="bond-2 atom-1 atom-3" d="M 323.1,364.5 L 366.3,347.1" style="fill:none;fill-rule:evenodd;stroke:#000000;stroke-width:2.0px;stroke-linecap:butt;stroke-linejoin:miter;stroke-opacity:1"/>
<path class="bond-3 atom-3 atom-4" d="M 384.7,350.7 L 413.0,372.9" style="fill:none;fill-rule:evenodd;stroke:#000000;stroke-width:2.0px;stroke-linecap:butt;stroke-linejoin:miter;stroke-opacity:1"/>
<path class="bond-4 atom-4 atom-5" d="M 428.8,374.8 L 459.7,357.8 L 462.9,365.7 Z" style="fill:#000000;fill-rule:evenodd;fill-opacity:1;stroke:#000000;stroke-width:0.5px;stroke-linecap:butt;stroke-linejoin:miter;stroke-miterlimit:10;stroke-opacity:1;"/>
<path d="M 322.7,366.8 L 323.1,364.5 L 325.2,363.6" style="fill:none;stroke:#000000;stroke-width:2.0px;stroke-linecap:butt;stroke-linejoin:miter;stroke-miterlimit:10;stroke-opacity:1;"/>
<path class="atom-0" d="M 270.3 329.2 Q 271.8 329.6, 272.6 330.5 Q 273.4 331.5, 273.4 332.8 Q 273.4 335.1, 271.9 336.3 Q 270.5 337.6, 267.9 337.6 L 262.5 337.6 L 262.5 321.6 L 267.2 321.6 Q 270.0 321.6, 271.3 322.7 Q 272.7 323.8, 272.7 325.8 Q 272.7 328.2, 270.3 329.2 M 264.6 323.4 L 264.6 328.4 L 267.2 328.4 Q 268.8 328.4, 269.6 327.8 Q 270.5 327.1, 270.5 325.8 Q 270.5 323.4, 267.2 323.4 L 264.6 323.4 M 267.9 335.8 Q 269.4 335.8, 270.3 335.0 Q 271.1 334.3, 271.1 332.8 Q 271.1 331.5, 270.2 330.9 Q 269.3 330.2, 267.5 330.2 L 264.6 330.2 L 264.6 335.8 L 267.9 335.8 " fill="#000000"/>
<path class="atom-0" d="M 277.0 325.9 L 277.3 327.5 Q 278.5 325.7, 280.5 325.7 Q 281.1 325.7, 282.0 326.0 L 281.6 327.9 Q 280.6 327.6, 280.1 327.6 Q 279.2 327.6, 278.5 328.0 Q 277.9 328.4, 277.4 329.3 L 277.4 337.6 L 275.3 337.6 L 275.3 325.9 L 277.0 325.9 " fill="#000000"/>
<path class="atom-2" d="M 314.0 412.4 L 316.1 412.4 L 316.1 428.4 L 314.0 428.4 L 314.0 412.4 " fill="#000000"/>
<path class="atom-3" d="M 368.2 343.5 Q 368.2 339.6, 370.1 337.5 Q 372.0 335.3, 375.5 335.3 Q 379.1 335.3, 381.0 337.5 Q 382.9 339.6, 382.9 343.5 Q 382.9 347.4, 380.9 349.6 Q 379.0 351.8, 375.5 351.8 Q 372.0 351.8, 370.1 349.6 Q 368.2 347.4, 368.2 343.5 M 375.5 350.0 Q 378.0 350.0, 379.3 348.3 Q 380.6 346.7, 380.6 343.5 Q 380.6 340.3, 379.3 338.8 Q 378.0 337.2, 375.5 337.2 Q 373.1 337.2, 371.7 338.7 Q 370.4 340.3, 370.4 343.5 Q 370.4 346.7, 371.7 348.3 Q 373.1 350.0, 375.5 350.0 " fill="#000000"/>
<path class="atom-4" d="M 419.6 370.3 Q 422.3 370.3, 423.7 371.6 Q 425.1 372.8, 425.1 375.0 Q 425.1 377.3, 423.6 378.5 Q 422.2 379.8, 419.6 379.8 L 417.0 379.8 L 417.0 386.3 L 414.8 386.3 L 414.8 370.3 L 419.6 370.3 M 419.6 378.0 Q 421.1 378.0, 422.0 377.2 Q 422.8 376.5, 422.8 375.0 Q 422.8 373.6, 422.0 372.9 Q 421.1 372.1, 419.6 372.1 L 417.0 372.1 L 417.0 378.0 L 419.6 378.0 " fill="#000000"/>
<path class="atom-4" d="M 413.7 387.9 L 415.9 387.9 L 415.9 394.7 L 424.0 394.7 L 424.0 387.9 L 426.2 387.9 L 426.2 403.9 L 424.0 403.9 L 424.0 396.6 L 415.9 396.6 L 415.9 403.9 L 413.7 403.9 L 413.7 387.9 " fill="#000000"/>
<path class="atom-5" d="M 465.1 357.4 Q 465.1 353.5, 467.0 351.4 Q 468.9 349.2, 472.4 349.2 Q 475.9 349.2, 477.8 351.4 Q 479.7 353.5, 479.7 357.4 Q 479.7 361.2, 477.8 363.5 Q 475.9 365.7, 472.4 365.7 Q 468.9 365.7, 467.0 363.5 Q 465.1 361.3, 465.1 357.4 M 472.4 363.8 Q 474.8 363.8, 476.2 362.2 Q 477.5 360.6, 477.5 357.4 Q 477.5 354.2, 476.2 352.6 Q 474.8 351.0, 472.4 351.0 Q 470.0 351.0, 468.6 352.6 Q 467.3 354.2, 467.3 357.4 Q 467.3 360.6, 468.6 362.2 Q 470.0 363.8, 472.4 363.8 " fill="#000000"/>
<path class="atom-5" d="M 482.0 351.8 L 487.5 351.8 L 487.5 353.0 L 482.0 353.0 L 482.0 351.8 " fill="#000000"/>
<path class="bond-0 atom-0 atom-1" d="M 732.2,369.9 L 691.5,387.3" style="fill:none;fill-rule:evenodd;stroke:#000000;stroke-width:2.0px;stroke-linecap:butt;stroke-linejoin:miter;stroke-opacity:1"/>
<path class="bond-1 atom-1 atom-2" d="M 657.6,389.4 L 619.3,360.6" style="fill:none;fill-rule:evenodd;stroke:#000000;stroke-width:2.0px;stroke-linecap:butt;stroke-linejoin:miter;stroke-opacity:1"/>
<path class="bond-2 atom-2 atom-3" d="M 598.5,357.2 L 562.2,372.6" style="fill:none;fill-rule:evenodd;stroke:#000000;stroke-width:2.0px;stroke-linecap:butt;stroke-linejoin:miter;stroke-opacity:1"/>
<path class="atom-0" d="M 734.7 357.7 L 737.5 357.7 L 737.5 378.8 L 734.7 378.8 L 734.7 357.7 " fill="#000000"/>
<path class="atom-1" d="M 663.4 386.8 L 670.2 397.9 Q 670.9 399.0, 672.0 400.9 Q 673.1 402.9, 673.2 403.0 L 673.2 386.8 L 676.0 386.8 L 676.0 407.7 L 673.1 407.7 L 665.7 395.6 Q 664.9 394.2, 663.9 392.5 Q 663.1 390.9, 662.8 390.4 L 662.8 407.7 L 660.1 407.7 L 660.1 386.8 L 663.4 386.8 " fill="#000000"/>
<path class="atom-1" d="M 679.9 390.5 L 683.6 390.5 L 683.6 386.7 L 685.2 386.7 L 685.2 390.5 L 689.0 390.5 L 689.0 391.9 L 685.2 391.9 L 685.2 395.9 L 683.6 395.9 L 683.6 391.9 L 679.9 391.9 L 679.9 390.5 " fill="#000000"/>
<path class="atom-1" d="M 659.8 409.8 L 662.7 409.8 L 662.7 418.7 L 673.4 418.7 L 673.4 409.8 L 676.2 409.8 L 676.2 430.8 L 673.4 430.8 L 673.4 421.1 L 662.7 421.1 L 662.7 430.8 L 659.8 430.8 L 659.8 409.8 " fill="#000000"/>
<path class="atom-2" d="M 604.2 342.3 L 611.1 353.4 Q 611.8 354.5, 612.9 356.5 Q 614.0 358.4, 614.0 358.6 L 614.0 342.3 L 616.8 342.3 L 616.8 363.2 L 614.0 363.2 L 606.6 351.1 Q 605.7 349.7, 604.8 348.1 Q 603.9 346.4, 603.7 345.9 L 603.7 363.2 L 600.9 363.2 L 600.9 342.3 L 604.2 342.3 " fill="#000000"/>
<path class="atom-2" d="M 600.7 319.2 L 603.5 319.2 L 603.5 328.1 L 614.2 328.1 L 614.2 319.2 L 617.1 319.2 L 617.1 340.2 L 614.2 340.2 L 614.2 330.5 L 603.5 330.5 L 603.5 340.2 L 600.7 340.2 L 600.7 319.2 " fill="#000000"/>
<path class="atom-3" d="M 512.5 371.3 L 515.3 371.3 L 515.3 380.2 L 526.1 380.2 L 526.1 371.3 L 528.9 371.3 L 528.9 392.2 L 526.1 392.2 L 526.1 382.5 L 515.3 382.5 L 515.3 392.2 L 512.5 392.2 L 512.5 371.3 " fill="#000000"/>
<path class="atom-3" d="M 536.2 371.3 L 543.0 382.4 Q 543.7 383.4, 544.8 385.4 Q 545.9 387.4, 546.0 387.5 L 546.0 371.3 L 548.7 371.3 L 548.7 392.2 L 545.9 392.2 L 538.5 380.1 Q 537.6 378.7, 536.7 377.0 Q 535.8 375.4, 535.6 374.9 L 535.6 392.2 L 532.9 392.2 L 532.9 371.3 L 536.2 371.3 " fill="#000000"/>
<path class="atom-3" d="M 552.6 374.7 L 559.8 374.7 L 559.8 376.3 L 552.6 376.3 L 552.6 374.7 " fill="#000000"/>
<path class="atom-1" d="M 694.9,397.2 L 694.9,397.4 L 694.9,397.5 L 694.9,397.6 L 694.9,397.7 L 694.8,397.9 L 694.7,398.0 L 694.7,398.1 L 694.6,398.2 L 694.5,398.3 L 694.4,398.4 L 694.3,398.4 L 694.2,398.5 L 694.1,398.6 L 694.0,398.6 L 693.9,398.7 L 693.7,398.7 L 693.6,398.7 L 693.5,398.7 L 693.4,398.7 L 693.2,398.7 L 693.1,398.7 L 693.0,398.6 L 692.9,398.6 L 692.8,398.5 L 692.6,398.5 L 692.5,398.4 L 692.4,398.3 L 692.4,398.2 L 692.3,398.1 L 692.2,398.0 L 692.1,397.9 L 692.1,397.8 L 692.0,397.7 L 692.0,397.6 L 692.0,397.4 L 692.0,397.3 L 692.0,397.2 L 692.0,397.0 L 692.0,396.9 L 692.0,396.8 L 692.1,396.7 L 692.1,396.6 L 692.2,396.5 L 692.3,396.3 L 692.4,396.2 L 692.4,396.2 L 692.5,396.1 L 692.6,396.0 L 692.8,395.9 L 692.9,395.9 L 693.0,395.8 L 693.1,395.8 L 693.2,395.8 L 693.4,395.8 L 693.5,395.8 L 693.6,395.8 L 693.7,395.8 L 693.9,395.8 L 694.0,395.9 L 694.1,395.9 L 694.2,396.0 L 694.3,396.0 L 694.4,396.1 L 694.5,396.2 L 694.6,396.3 L 694.7,396.4 L 694.7,396.5 L 694.8,396.6 L 694.9,396.7 L 694.9,396.9 L 694.9,397.0 L 694.9,397.1 L 694.9,397.2 L 693.5,397.2 Z" style="fill:#000000;fill-rule:evenodd;fill-opacity:1;stroke:#000000;stroke-width:0.0px;stroke-linecap:butt;stroke-linejoin:miter;stroke-miterlimit:10;stroke-opacity:1;"/>
<path class="bond-0 atom-0 atom-1" d="M 16.5,638.9 L 46.5,621.5" style="fill:none;fill-rule:evenodd;stroke:#000000;stroke-width:2.0px;stroke-linecap:butt;stroke-linejoin:miter;stroke-opacity:1"/>
<path class="bond-0 atom-0 atom-1" d="M 19.5,644.2 L 49.6,626.8" style="fill:none;fill-rule:evenodd;stroke:#000000;stroke-width:2.0px;stroke-linecap:butt;stroke-linejoin:miter;stroke-opacity:1"/>
<path class="bond-1 atom-1 atom-2" d="M 58.1,624.2 L 81.6,637.7" style="fill:none;fill-rule:evenodd;stroke:#000000;stroke-width:2.0px;stroke-linecap:butt;stroke-linejoin:miter;stroke-opacity:1"/>
<path class="bond-2 atom-2 atom-3" d="M 94.8,637.7 L 117.6,624.5" style="fill:none;fill-rule:evenodd;stroke:#000000;stroke-width:2.0px;stroke-linecap:butt;stroke-linejoin:miter;stroke-opacity:1"/>
<path class="bond-3 atom-3 atom-4" d="M 129.0,624.5 L 153.4,638.6" style="fill:none;fill-rule:evenodd;stroke:#000000;stroke-width:2.0px;stroke-linecap:butt;stroke-linejoin:miter;stroke-opacity:1"/>
<path class="bond-4 atom-4 atom-5" d="M 163.4,638.6 L 193.5,621.3" style="fill:none;fill-rule:evenodd;stroke:#000000;stroke-width:2.0px;stroke-linecap:butt;stroke-linejoin:miter;stroke-opacity:1"/>
<path class="bond-5 atom-5 atom-6" d="M 193.5,621.3 L 223.0,638.2" style="fill:none;fill-rule:evenodd;stroke:#000000;stroke-width:2.0px;stroke-linecap:butt;stroke-linejoin:miter;stroke-opacity:1"/>
<path class="bond-5 atom-5 atom-6" d="M 193.5,628.3 L 219.9,643.5" style="fill:none;fill-rule:evenodd;stroke:#000000;stroke-width:2.0px;stroke-linecap:butt;stroke-linejoin:miter;stroke-opacity:1"/>
<path d="M 192.0,622.1 L 193.5,621.3 L 195.0,622.1" style="fill:none;stroke:#000000;stroke-width:2.0px;stroke-linecap:butt;stroke-linejoin:miter;stroke-miterlimit:10;stroke-opacity:1;"/>
<path class="atom-1" d="M 49.8 625.2 Q 50.0 625.3, 50.5 625.5 Q 51.0 625.7, 51.6 625.9 Q 52.2 626.0, 52.8 626.0 Q 53.9 626.0, 54.5 625.5 Q 55.2 624.9, 55.2 624.0 Q 55.2 623.4, 54.8 623.0 Q 54.5 622.6, 54.0 622.4 Q 53.6 622.2, 52.7 621.9 Q 51.7 621.6, 51.1 621.3 Q 50.5 621.0, 50.1 620.4 Q 49.6 619.8, 49.6 618.8 Q 49.6 617.3, 50.6 616.4 Q 51.6 615.5, 53.6 615.5 Q 54.9 615.5, 56.4 616.2 L 56.0 617.4 Q 54.6 616.8, 53.6 616.8 Q 52.5 616.8, 51.9 617.3 Q 51.3 617.8, 51.3 618.6 Q 51.3 619.2, 51.6 619.6 Q 51.9 619.9, 52.4 620.1 Q 52.8 620.4, 53.6 620.6 Q 54.6 620.9, 55.3 621.2 Q 55.9 621.6, 56.3 622.2 Q 56.8 622.9, 56.8 624.0 Q 56.8 625.6, 55.7 626.5 Q 54.6 627.3, 52.9 627.3 Q 51.9 627.3, 51.1 627.1 Q 50.3 626.9, 49.4 626.5 L 49.8 625.2 " fill="#000000"/>
<path class="atom-1" d="M 48.6 602.6 L 50.2 602.6 L 50.2 607.5 L 56.0 607.5 L 56.0 602.6 L 57.6 602.6 L 57.6 614.1 L 56.0 614.1 L 56.0 608.8 L 50.2 608.8 L 50.2 614.1 L 48.6 614.1 L 48.6 602.6 " fill="#000000"/>
<path class="atom-1" d="M 59.8 604.7 L 61.8 604.7 L 61.8 602.5 L 62.7 602.5 L 62.7 604.7 L 64.8 604.7 L 64.8 605.4 L 62.7 605.4 L 62.7 607.6 L 61.8 607.6 L 61.8 605.4 L 59.8 605.4 L 59.8 604.7 " fill="#000000"/>
<path class="atom-2" d="M 82.9 641.6 Q 82.9 638.8, 84.3 637.3 Q 85.7 635.7, 88.2 635.7 Q 90.7 635.7, 92.1 637.3 Q 93.5 638.8, 93.5 641.6 Q 93.5 644.4, 92.1 645.9 Q 90.7 647.5, 88.2 647.5 Q 85.7 647.5, 84.3 645.9 Q 82.9 644.4, 82.9 641.6 M 88.2 646.2 Q 90.0 646.2, 90.9 645.1 Q 91.9 643.9, 91.9 641.6 Q 91.9 639.3, 90.9 638.2 Q 90.0 637.0, 88.2 637.0 Q 86.5 637.0, 85.5 638.2 Q 84.6 639.3, 84.6 641.6 Q 84.6 643.9, 85.5 645.1 Q 86.5 646.2, 88.2 646.2 " fill="#000000"/>
<path class="atom-3" d="M 120.8 615.5 L 124.5 621.6 Q 124.9 622.2, 125.5 623.3 Q 126.1 624.4, 126.1 624.4 L 126.1 615.5 L 127.7 615.5 L 127.7 627.0 L 126.1 627.0 L 122.1 620.4 Q 121.6 619.6, 121.1 618.7 Q 120.6 617.8, 120.5 617.5 L 120.5 627.0 L 119.0 627.0 L 119.0 615.5 L 120.8 615.5 " fill="#000000"/>
<path class="atom-3" d="M 129.8 617.6 L 131.9 617.6 L 131.9 615.5 L 132.8 615.5 L 132.8 617.6 L 134.8 617.6 L 134.8 618.4 L 132.8 618.4 L 132.8 620.5 L 131.9 620.5 L 131.9 618.4 L 129.8 618.4 L 129.8 617.6 " fill="#000000"/>
<path class="atom-4" d="M 155.2 645.5 Q 155.3 645.5, 155.9 645.8 Q 156.4 646.0, 157.0 646.1 Q 157.6 646.3, 158.2 646.3 Q 159.2 646.3, 159.9 645.7 Q 160.5 645.2, 160.5 644.3 Q 160.5 643.6, 160.2 643.3 Q 159.9 642.9, 159.4 642.7 Q 158.9 642.4, 158.1 642.2 Q 157.1 641.9, 156.5 641.6 Q 155.9 641.3, 155.4 640.7 Q 155.0 640.1, 155.0 639.0 Q 155.0 637.6, 156.0 636.7 Q 157.0 635.8, 158.9 635.8 Q 160.2 635.8, 161.7 636.4 L 161.4 637.7 Q 160.0 637.1, 158.9 637.1 Q 157.8 637.1, 157.2 637.6 Q 156.6 638.0, 156.6 638.8 Q 156.6 639.5, 156.9 639.8 Q 157.2 640.2, 157.7 640.4 Q 158.2 640.6, 158.9 640.9 Q 160.0 641.2, 160.6 641.5 Q 161.2 641.8, 161.7 642.5 Q 162.1 643.2, 162.1 644.3 Q 162.1 645.9, 161.0 646.7 Q 160.0 647.6, 158.2 647.6 Q 157.2 647.6, 156.4 647.3 Q 155.7 647.1, 154.7 646.8 L 155.2 645.5 " fill="#000000"/>
<path class="atom-6" d="M 224.6 638.4 L 228.4 644.5 Q 228.7 645.1, 229.3 646.2 Q 229.9 647.3, 230.0 647.3 L 230.0 638.4 L 231.5 638.4 L 231.5 649.9 L 229.9 649.9 L 225.9 643.3 Q 225.4 642.5, 224.9 641.6 Q 224.4 640.7, 224.3 640.4 L 224.3 649.9 L 222.8 649.9 L 222.8 638.4 L 224.6 638.4 " fill="#000000"/>
<path class="atom-6" d="M 233.6 640.3 L 237.5 640.3 L 237.5 641.2 L 233.6 641.2 L 233.6 640.3 " fill="#000000"/>
<path class="atom-0" d="M 13.9,643.2 L 13.9,643.2 L 13.9,643.3 L 13.9,643.4 L 13.9,643.4 L 13.8,643.5 L 13.8,643.6 L 13.8,643.6 L 13.7,643.7 L 13.7,643.7 L 13.6,643.8 L 13.6,643.8 L 13.5,643.9 L 13.5,643.9 L 13.4,643.9 L 13.3,643.9 L 13.3,644.0 L 13.2,644.0 L 13.1,644.0 L 13.1,644.0 L 13.0,644.0 L 12.9,643.9 L 12.9,643.9 L 12.8,643.9 L 12.7,643.9 L 12.7,643.8 L 12.6,643.8 L 12.6,643.7 L 12.5,643.7 L 12.5,643.6 L 12.4,643.6 L 12.4,643.5 L 12.4,643.5 L 12.3,643.4 L 12.3,643.3 L 12.3,643.3 L 12.3,643.2 L 12.3,643.1 L 12.3,643.1 L 12.3,643.0 L 12.3,642.9 L 12.4,642.8 L 12.4,642.8 L 12.4,642.7 L 12.5,642.7 L 12.5,642.6 L 12.6,642.6 L 12.6,642.5 L 12.7,642.5 L 12.7,642.4 L 12.8,642.4 L 12.9,642.4 L 12.9,642.4 L 13.0,642.4 L 13.1,642.3 L 13.1,642.3 L 13.2,642.3 L 13.3,642.4 L 13.3,642.4 L 13.4,642.4 L 13.5,642.4 L 13.5,642.5 L 13.6,642.5 L 13.6,642.5 L 13.7,642.6 L 13.7,642.6 L 13.8,642.7 L 13.8,642.8 L 13.8,642.8 L 13.9,642.9 L 13.9,642.9 L 13.9,643.0 L 13.9,643.1 L 13.9,643.2 L 13.1,643.2 Z" style="fill:#000000;fill-rule:evenodd;fill-opacity:1;stroke:#000000;stroke-width:0.0px;stroke-linecap:butt;stroke-linejoin:miter;stroke-miterlimit:10;stroke-opacity:1;"/>
<path class="atom-0" d="M 13.9,639.9 L 13.9,640.0 L 13.9,640.1 L 13.9,640.1 L 13.9,640.2 L 13.8,640.2 L 13.8,640.3 L 13.8,640.4 L 13.7,640.4 L 13.7,640.5 L 13.6,640.5 L 13.6,640.6 L 13.5,640.6 L 13.5,640.6 L 13.4,640.7 L 13.3,640.7 L 13.3,640.7 L 13.2,640.7 L 13.1,640.7 L 13.1,640.7 L 13.0,640.7 L 12.9,640.7 L 12.9,640.7 L 12.8,640.7 L 12.7,640.6 L 12.7,640.6 L 12.6,640.5 L 12.6,640.5 L 12.5,640.5 L 12.5,640.4 L 12.4,640.3 L 12.4,640.3 L 12.4,640.2 L 12.3,640.2 L 12.3,640.1 L 12.3,640.0 L 12.3,639.9 L 12.3,639.9 L 12.3,639.8 L 12.3,639.7 L 12.3,639.7 L 12.4,639.6 L 12.4,639.5 L 12.4,639.5 L 12.5,639.4 L 12.5,639.4 L 12.6,639.3 L 12.6,639.3 L 12.7,639.2 L 12.7,639.2 L 12.8,639.2 L 12.9,639.1 L 12.9,639.1 L 13.0,639.1 L 13.1,639.1 L 13.1,639.1 L 13.2,639.1 L 13.3,639.1 L 13.3,639.1 L 13.4,639.2 L 13.5,639.2 L 13.5,639.2 L 13.6,639.3 L 13.6,639.3 L 13.7,639.3 L 13.7,639.4 L 13.8,639.5 L 13.8,639.5 L 13.8,639.6 L 13.9,639.6 L 13.9,639.7 L 13.9,639.8 L 13.9,639.8 L 13.9,639.9 L 13.1,639.9 Z" style="fill:#000000;fill-rule:evenodd;fill-opacity:1;stroke:#000000;stroke-width:0.0px;stroke-linecap:butt;stroke-linejoin:miter;stroke-miterlimit:10;stroke-opacity:1;"/>
<path class="atom-1" d="M 53.9,601.3 L 53.9,601.4 L 53.9,601.4 L 53.9,601.5 L 53.9,601.6 L 53.8,601.6 L 53.8,601.7 L 53.8,601.8 L 53.7,601.8 L 53.7,601.9 L 53.6,601.9 L 53.6,602.0 L 53.5,602.0 L 53.4,602.0 L 53.4,602.1 L 53.3,602.1 L 53.2,602.1 L 53.2,602.1 L 53.1,602.1 L 53.0,602.1 L 53.0,602.1 L 52.9,602.1 L 52.8,602.1 L 52.8,602.1 L 52.7,602.0 L 52.6,602.0 L 52.6,601.9 L 52.5,601.9 L 52.5,601.8 L 52.4,601.8 L 52.4,601.7 L 52.4,601.7 L 52.3,601.6 L 52.3,601.5 L 52.3,601.5 L 52.3,601.4 L 52.3,601.3 L 52.3,601.3 L 52.3,601.2 L 52.3,601.1 L 52.3,601.1 L 52.3,601.0 L 52.4,600.9 L 52.4,600.9 L 52.4,600.8 L 52.5,600.8 L 52.5,600.7 L 52.6,600.7 L 52.6,600.6 L 52.7,600.6 L 52.8,600.6 L 52.8,600.5 L 52.9,600.5 L 53.0,600.5 L 53.0,600.5 L 53.1,600.5 L 53.2,600.5 L 53.2,600.5 L 53.3,600.5 L 53.4,600.6 L 53.4,600.6 L 53.5,600.6 L 53.6,600.6 L 53.6,600.7 L 53.7,600.7 L 53.7,600.8 L 53.8,600.8 L 53.8,600.9 L 53.8,601.0 L 53.9,601.0 L 53.9,601.1 L 53.9,601.2 L 53.9,601.2 L 53.9,601.3 L 53.1,601.3 Z" style="fill:#000000;fill-rule:evenodd;fill-opacity:1;stroke:#000000;stroke-width:0.0px;stroke-linecap:butt;stroke-linejoin:miter;stroke-miterlimit:10;stroke-opacity:1;"/>
<path class="atom-3" d="M 125.7,614.2 L 125.7,614.3 L 125.7,614.4 L 125.7,614.4 L 125.7,614.5 L 125.7,614.6 L 125.6,614.6 L 125.6,614.7 L 125.6,614.8 L 125.5,614.8 L 125.5,614.9 L 125.4,614.9 L 125.4,614.9 L 125.3,615.0 L 125.2,615.0 L 125.2,615.0 L 125.1,615.0 L 125.0,615.0 L 125.0,615.1 L 124.9,615.1 L 124.8,615.0 L 124.7,615.0 L 124.7,615.0 L 124.6,615.0 L 124.6,615.0 L 124.5,614.9 L 124.4,614.9 L 124.4,614.8 L 124.3,614.8 L 124.3,614.7 L 124.3,614.7 L 124.2,614.6 L 124.2,614.5 L 124.2,614.5 L 124.1,614.4 L 124.1,614.3 L 124.1,614.3 L 124.1,614.2 L 124.1,614.1 L 124.1,614.1 L 124.2,614.0 L 124.2,613.9 L 124.2,613.9 L 124.3,613.8 L 124.3,613.8 L 124.3,613.7 L 124.4,613.7 L 124.4,613.6 L 124.5,613.6 L 124.6,613.5 L 124.6,613.5 L 124.7,613.5 L 124.7,613.5 L 124.8,613.4 L 124.9,613.4 L 125.0,613.4 L 125.0,613.4 L 125.1,613.4 L 125.2,613.5 L 125.2,613.5 L 125.3,613.5 L 125.4,613.5 L 125.4,613.6 L 125.5,613.6 L 125.5,613.7 L 125.6,613.7 L 125.6,613.8 L 125.6,613.8 L 125.7,613.9 L 125.7,614.0 L 125.7,614.0 L 125.7,614.1 L 125.7,614.2 L 125.7,614.2 L 124.9,614.2 Z" style="fill:#000000;fill-rule:evenodd;fill-opacity:1;stroke:#000000;stroke-width:0.0px;stroke-linecap:butt;stroke-linejoin:miter;stroke-miterlimit:10;stroke-opacity:1;"/>
<path class="atom-3" d="M 122.5,614.2 L 122.5,614.3 L 122.5,614.4 L 122.5,614.4 L 122.5,614.5 L 122.4,614.6 L 122.4,614.6 L 122.4,614.7 L 122.3,614.8 L 122.3,614.8 L 122.2,614.9 L 122.2,614.9 L 122.1,614.9 L 122.0,615.0 L 122.0,615.0 L 121.9,615.0 L 121.9,615.0 L 121.8,615.0 L 121.7,615.1 L 121.6,615.1 L 121.6,615.0 L 121.5,615.0 L 121.4,615.0 L 121.4,615.0 L 121.3,615.0 L 121.2,614.9 L 121.2,614.9 L 121.1,614.8 L 121.1,614.8 L 121.0,614.7 L 121.0,614.7 L 121.0,614.6 L 120.9,614.5 L 120.9,614.5 L 120.9,614.4 L 120.9,614.3 L 120.9,614.3 L 120.9,614.2 L 120.9,614.1 L 120.9,614.1 L 120.9,614.0 L 120.9,613.9 L 121.0,613.9 L 121.0,613.8 L 121.0,613.8 L 121.1,613.7 L 121.1,613.7 L 121.2,613.6 L 121.2,613.6 L 121.3,613.5 L 121.4,613.5 L 121.4,613.5 L 121.5,613.5 L 121.6,613.4 L 121.6,613.4 L 121.7,613.4 L 121.8,613.4 L 121.9,613.4 L 121.9,613.5 L 122.0,613.5 L 122.0,613.5 L 122.1,613.5 L 122.2,613.6 L 122.2,613.6 L 122.3,613.7 L 122.3,613.7 L 122.4,613.8 L 122.4,613.8 L 122.4,613.9 L 122.5,614.0 L 122.5,614.0 L 122.5,614.1 L 122.5,614.2 L 122.5,614.2 L 121.7,614.2 Z" style="fill:#000000;fill-rule:evenodd;fill-opacity:1;stroke:#000000;stroke-width:0.0px;stroke-linecap:butt;stroke-linejoin:miter;stroke-miterlimit:10;stroke-opacity:1;"/>
<path class="bond-0 atom-0 atom-1" d="M 269.4,624.0 L 283.6,615.2" style="fill:none;fill-rule:evenodd;stroke:#000000;stroke-width:2.0px;stroke-linecap:butt;stroke-linejoin:miter;stroke-opacity:1"/>
<path class="bond-0 atom-0 atom-1" d="M 271.6,627.5 L 285.8,618.6" style="fill:none;fill-rule:evenodd;stroke:#000000;stroke-width:2.0px;stroke-linecap:butt;stroke-linejoin:miter;stroke-opacity:1"/>
<path class="bond-1 atom-1 atom-2" d="M 293.6,616.5 L 309.4,624.9" style="fill:none;fill-rule:evenodd;stroke:#000000;stroke-width:2.0px;stroke-linecap:butt;stroke-linejoin:miter;stroke-opacity:1"/>
<path class="bond-2 atom-2 atom-3" d="M 317.0,624.5 L 336.3,612.5" style="fill:none;fill-rule:evenodd;stroke:#000000;stroke-width:2.0px;stroke-linecap:butt;stroke-linejoin:miter;stroke-opacity:1"/>
<path class="bond-3 atom-3 atom-4" d="M 336.3,612.5 L 357.0,623.5" style="fill:none;fill-rule:evenodd;stroke:#000000;stroke-width:2.0px;stroke-linecap:butt;stroke-linejoin:miter;stroke-opacity:1"/>
<path class="bond-4 atom-4 atom-5" d="M 368.0,620.5 L 379.6,613.2" style="fill:none;fill-rule:evenodd;stroke:#000000;stroke-width:2.0px;stroke-linecap:butt;stroke-linejoin:miter;stroke-opacity:1"/>
<path class="bond-5 atom-5 atom-6" d="M 387.3,612.9 L 403.7,621.6" style="fill:none;fill-rule:evenodd;stroke:#000000;stroke-width:2.0px;stroke-linecap:butt;stroke-linejoin:miter;stroke-opacity:1"/>
<path class="bond-6 atom-6 atom-7" d="M 415.2,618.9 L 427.2,611.3" style="fill:none;fill-rule:evenodd;stroke:#000000;stroke-width:2.0px;stroke-linecap:butt;stroke-linejoin:miter;stroke-opacity:1"/>
<path class="bond-7 atom-7 atom-8" d="M 434.9,609.2 L 452.2,618.4" style="fill:none;fill-rule:evenodd;stroke:#000000;stroke-width:2.0px;stroke-linecap:butt;stroke-linejoin:miter;stroke-opacity:1"/>
<path class="bond-7 atom-7 atom-8" d="M 433.0,612.8 L 450.3,622.0" style="fill:none;fill-rule:evenodd;stroke:#000000;stroke-width:2.0px;stroke-linecap:butt;stroke-linejoin:miter;stroke-opacity:1"/>
<path class="bond-8 atom-8 atom-9" d="M 458.9,619.4 L 471.9,608.8 L 474.1,612.3 Z" style="fill:#000000;fill-rule:evenodd;fill-opacity:1;stroke:#000000;stroke-width:0.5px;stroke-linecap:butt;stroke-linejoin:miter;stroke-miterlimit:10;stroke-opacity:1;"/>
<path class="bond-9 atom-8 atom-10" d="M 454.8,627.0 L 455.4,644.5" style="fill:none;fill-rule:evenodd;stroke:#000000;stroke-width:2.0px;stroke-linecap:butt;stroke-linejoin:miter;stroke-opacity:1"/>
<path d="M 335.3,613.1 L 336.3,612.5 L 337.3,613.0" style="fill:none;stroke:#000000;stroke-width:2.0px;stroke-linecap:butt;stroke-linejoin:miter;stroke-miterlimit:10;stroke-opacity:1;"/>
<path class="atom-0" d="M 262.5 628.6 Q 262.5 626.7, 263.4 625.7 Q 264.3 624.6, 266.0 624.6 Q 267.8 624.6, 268.7 625.7 Q 269.6 626.7, 269.6 628.6 Q 269.6 630.4, 268.7 631.5 Q 267.7 632.6, 266.0 632.6 Q 264.3 632.6, 263.4 631.5 Q 262.5 630.5, 262.5 628.6 M 266.0 631.7 Q 267.2 631.7, 267.8 630.9 Q 268.5 630.1, 268.5 628.6 Q 268.5 627.1, 267.8 626.3 Q 267.2 625.5, 266.0 625.5 Q 264.9 625.5, 264.2 626.3 Q 263.6 627.0, 263.6 628.6 Q 263.6 630.1, 264.2 630.9 Q 264.9 631.7, 266.0 631.7 " fill="#000000"/>
<path class="atom-1" d="M 285.6 614.1 Q 285.6 612.3, 286.5 611.3 Q 287.4 610.2, 289.1 610.2 Q 290.9 610.2, 291.8 611.3 Q 292.7 612.3, 292.7 614.1 Q 292.7 616.0, 291.8 617.1 Q 290.8 618.1, 289.1 618.1 Q 287.4 618.1, 286.5 617.1 Q 285.6 616.0, 285.6 614.1 M 289.1 617.3 Q 290.3 617.3, 291.0 616.5 Q 291.6 615.7, 291.6 614.1 Q 291.6 612.6, 291.0 611.9 Q 290.3 611.1, 289.1 611.1 Q 288.0 611.1, 287.3 611.9 Q 286.7 612.6, 286.7 614.1 Q 286.7 615.7, 287.3 616.5 Q 288.0 617.3, 289.1 617.3 " fill="#000000"/>
<path class="atom-1" d="M 293.8 611.6 L 295.2 611.6 L 295.2 610.2 L 295.8 610.2 L 295.8 611.6 L 297.2 611.6 L 297.2 612.1 L 295.8 612.1 L 295.8 613.6 L 295.2 613.6 L 295.2 612.1 L 293.8 612.1 L 293.8 611.6 " fill="#000000"/>
<path class="atom-2" d="M 311.5 623.1 L 314.0 627.1 Q 314.3 627.5, 314.7 628.3 Q 315.1 629.0, 315.1 629.1 L 315.1 623.1 L 316.1 623.1 L 316.1 630.8 L 315.1 630.8 L 312.3 626.3 Q 312.0 625.8, 311.7 625.2 Q 311.4 624.6, 311.3 624.4 L 311.3 630.8 L 310.3 630.8 L 310.3 623.1 L 311.5 623.1 " fill="#000000"/>
<path class="atom-2" d="M 310.2 631.5 L 311.2 631.5 L 311.2 634.8 L 315.2 634.8 L 315.2 631.5 L 316.2 631.5 L 316.2 639.3 L 315.2 639.3 L 315.2 635.7 L 311.2 635.7 L 311.2 639.3 L 310.2 639.3 L 310.2 631.5 " fill="#000000"/>
<path class="atom-4" d="M 360.1 621.4 Q 361.5 621.4, 362.1 622.0 Q 362.8 622.6, 362.8 623.7 Q 362.8 624.8, 362.1 625.4 Q 361.4 626.0, 360.1 626.0 L 358.9 626.0 L 358.9 629.1 L 357.9 629.1 L 357.9 621.4 L 360.1 621.4 M 360.1 625.1 Q 360.9 625.1, 361.3 624.7 Q 361.7 624.4, 361.7 623.7 Q 361.7 623.0, 361.3 622.7 Q 360.9 622.3, 360.1 622.3 L 358.9 622.3 L 358.9 625.1 L 360.1 625.1 " fill="#000000"/>
<path class="atom-4" d="M 363.8 622.8 L 365.2 622.8 L 365.2 621.4 L 365.8 621.4 L 365.8 622.8 L 367.2 622.8 L 367.2 623.3 L 365.8 623.3 L 365.8 624.8 L 365.2 624.8 L 365.2 623.3 L 363.8 623.3 L 363.8 622.8 " fill="#000000"/>
<path class="atom-5" d="M 381.7 607.0 L 384.3 611.1 Q 384.5 611.5, 384.9 612.2 Q 385.3 613.0, 385.3 613.0 L 385.3 607.0 L 386.4 607.0 L 386.4 614.7 L 385.3 614.7 L 382.6 610.2 Q 382.3 609.7, 381.9 609.1 Q 381.6 608.5, 381.5 608.3 L 381.5 614.7 L 380.5 614.7 L 380.5 607.0 L 381.7 607.0 " fill="#000000"/>
<path class="atom-5" d="M 387.8 608.4 L 389.2 608.4 L 389.2 607.0 L 389.8 607.0 L 389.8 608.4 L 391.2 608.4 L 391.2 608.9 L 389.8 608.9 L 389.8 610.3 L 389.2 610.3 L 389.2 608.9 L 387.8 608.9 L 387.8 608.4 " fill="#000000"/>
<path class="atom-6" d="M 405.8 619.8 L 408.3 623.9 Q 408.5 624.3, 409.0 625.0 Q 409.4 625.7, 409.4 625.8 L 409.4 619.8 L 410.4 619.8 L 410.4 627.5 L 409.3 627.5 L 406.6 623.0 Q 406.3 622.5, 406.0 621.9 Q 405.7 621.3, 405.6 621.1 L 405.6 627.5 L 404.6 627.5 L 404.6 619.8 L 405.8 619.8 " fill="#000000"/>
<path class="atom-6" d="M 411.9 621.2 L 413.2 621.2 L 413.2 619.8 L 413.8 619.8 L 413.8 621.2 L 415.2 621.2 L 415.2 621.7 L 413.8 621.7 L 413.8 623.1 L 413.2 623.1 L 413.2 621.7 L 411.9 621.7 L 411.9 621.2 " fill="#000000"/>
<path class="atom-6" d="M 404.5 628.3 L 405.5 628.3 L 405.5 631.6 L 409.4 631.6 L 409.4 628.3 L 410.5 628.3 L 410.5 636.0 L 409.4 636.0 L 409.4 632.4 L 405.5 632.4 L 405.5 636.0 L 404.5 636.0 L 404.5 628.3 " fill="#000000"/>
<path class="atom-7" d="M 430.4 605.4 Q 431.7 605.4, 432.4 606.0 Q 433.0 606.6, 433.0 607.6 Q 433.0 608.7, 432.4 609.3 Q 431.7 609.9, 430.4 609.9 L 429.2 609.9 L 429.2 613.1 L 428.1 613.1 L 428.1 605.4 L 430.4 605.4 M 430.4 609.0 Q 431.1 609.0, 431.5 608.7 Q 432.0 608.3, 432.0 607.6 Q 432.0 607.0, 431.5 606.6 Q 431.2 606.2, 430.4 606.2 L 429.2 606.2 L 429.2 609.0 L 430.4 609.0 " fill="#000000"/>
<path class="atom-7" d="M 427.6 596.9 L 428.6 596.9 L 428.6 600.2 L 432.5 600.2 L 432.5 596.9 L 433.6 596.9 L 433.6 604.6 L 432.5 604.6 L 432.5 601.0 L 428.6 601.0 L 428.6 604.6 L 427.6 604.6 L 427.6 596.9 " fill="#000000"/>
<path class="atom-8" d="M 452.4 624.7 Q 452.5 624.7, 452.9 624.9 Q 453.2 625.0, 453.6 625.1 Q 454.0 625.2, 454.4 625.2 Q 455.2 625.2, 455.6 624.8 Q 456.0 624.5, 456.0 623.9 Q 456.0 623.4, 455.8 623.2 Q 455.6 622.9, 455.3 622.8 Q 454.9 622.6, 454.4 622.5 Q 453.7 622.3, 453.3 622.1 Q 452.9 621.9, 452.6 621.5 Q 452.3 621.0, 452.3 620.3 Q 452.3 619.4, 453.0 618.8 Q 453.6 618.2, 454.9 618.2 Q 455.8 618.2, 456.8 618.6 L 456.6 619.4 Q 455.7 619.1, 455.0 619.1 Q 454.2 619.1, 453.8 619.4 Q 453.4 619.7, 453.4 620.2 Q 453.4 620.6, 453.6 620.9 Q 453.8 621.1, 454.1 621.3 Q 454.4 621.4, 455.0 621.6 Q 455.7 621.8, 456.1 622.0 Q 456.5 622.2, 456.8 622.7 Q 457.1 623.1, 457.1 623.9 Q 457.1 624.9, 456.4 625.5 Q 455.7 626.1, 454.5 626.1 Q 453.8 626.1, 453.3 625.9 Q 452.8 625.8, 452.1 625.5 L 452.4 624.7 " fill="#000000"/>
<path class="atom-9" d="M 476.0 603.7 L 478.5 607.8 Q 478.8 608.2, 479.2 609.0 Q 479.6 609.7, 479.6 609.7 L 479.6 603.7 L 480.6 603.7 L 480.6 611.5 L 479.6 611.5 L 476.9 607.0 Q 476.6 606.5, 476.2 605.9 Q 475.9 605.3, 475.8 605.1 L 475.8 611.5 L 474.8 611.5 L 474.8 603.7 L 476.0 603.7 " fill="#000000"/>
<path class="atom-9" d="M 482.1 605.1 L 483.5 605.1 L 483.5 603.7 L 484.1 603.7 L 484.1 605.1 L 485.5 605.1 L 485.5 605.6 L 484.1 605.6 L 484.1 607.1 L 483.5 607.1 L 483.5 605.6 L 482.1 605.6 L 482.1 605.1 " fill="#000000"/>
<path class="atom-10" d="M 455.0 645.4 L 456.1 645.4 L 456.1 653.1 L 455.0 653.1 L 455.0 645.4 " fill="#000000"/>
<path class="atom-3" d="M 336.8,610.0 L 336.8,610.1 L 336.8,610.1 L 336.8,610.2 L 336.8,610.2 L 336.8,610.3 L 336.8,610.3 L 336.7,610.3 L 336.7,610.4 L 336.7,610.4 L 336.6,610.5 L 336.6,610.5 L 336.6,610.5 L 336.5,610.5 L 336.5,610.5 L 336.4,610.6 L 336.4,610.6 L 336.3,610.6 L 336.3,610.6 L 336.3,610.6 L 336.2,610.6 L 336.2,610.6 L 336.1,610.6 L 336.1,610.5 L 336.0,610.5 L 336.0,610.5 L 336.0,610.5 L 335.9,610.4 L 335.9,610.4 L 335.9,610.4 L 335.8,610.3 L 335.8,610.3 L 335.8,610.2 L 335.8,610.2 L 335.8,610.2 L 335.7,610.1 L 335.7,610.1 L 335.7,610.0 L 335.7,610.0 L 335.8,609.9 L 335.8,609.9 L 335.8,609.8 L 335.8,609.8 L 335.8,609.7 L 335.9,609.7 L 335.9,609.7 L 335.9,609.6 L 336.0,609.6 L 336.0,609.6 L 336.0,609.6 L 336.1,609.5 L 336.1,609.5 L 336.2,609.5 L 336.2,609.5 L 336.3,609.5 L 336.3,609.5 L 336.3,609.5 L 336.4,609.5 L 336.4,609.5 L 336.5,609.5 L 336.5,609.5 L 336.6,609.6 L 336.6,609.6 L 336.6,609.6 L 336.7,609.7 L 336.7,609.7 L 336.7,609.7 L 336.8,609.8 L 336.8,609.8 L 336.8,609.9 L 336.8,609.9 L 336.8,609.9 L 336.8,610.0 L 336.8,610.0 L 336.3,610.0 Z" style="fill:#000000;fill-rule:evenodd;fill-opacity:1;stroke:#000000;stroke-width:0.0px;stroke-linecap:butt;stroke-linejoin:miter;stroke-miterlimit:10;stroke-opacity:1;"/>
<path class="atom-4" d="M 369.3,626.4 L 369.3,626.4 L 369.3,626.5 L 369.3,626.5 L 369.3,626.6 L 369.3,626.6 L 369.3,626.6 L 369.2,626.7 L 369.2,626.7 L 369.2,626.8 L 369.2,626.8 L 369.1,626.8 L 369.1,626.8 L 369.0,626.9 L 369.0,626.9 L 368.9,626.9 L 368.9,626.9 L 368.9,626.9 L 368.8,626.9 L 368.8,626.9 L 368.7,626.9 L 368.7,626.9 L 368.6,626.9 L 368.6,626.9 L 368.5,626.9 L 368.5,626.8 L 368.5,626.8 L 368.4,626.8 L 368.4,626.7 L 368.4,626.7 L 368.3,626.7 L 368.3,626.6 L 368.3,626.6 L 368.3,626.5 L 368.3,626.5 L 368.3,626.4 L 368.3,626.4 L 368.3,626.3 L 368.3,626.3 L 368.3,626.3 L 368.3,626.2 L 368.3,626.2 L 368.3,626.1 L 368.3,626.1 L 368.4,626.0 L 368.4,626.0 L 368.4,626.0 L 368.5,625.9 L 368.5,625.9 L 368.5,625.9 L 368.6,625.9 L 368.6,625.9 L 368.7,625.8 L 368.7,625.8 L 368.8,625.8 L 368.8,625.8 L 368.9,625.8 L 368.9,625.8 L 368.9,625.8 L 369.0,625.9 L 369.0,625.9 L 369.1,625.9 L 369.1,625.9 L 369.2,626.0 L 369.2,626.0 L 369.2,626.0 L 369.2,626.1 L 369.3,626.1 L 369.3,626.1 L 369.3,626.2 L 369.3,626.2 L 369.3,626.3 L 369.3,626.3 L 369.3,626.4 L 368.8,626.4 Z" style="fill:#000000;fill-rule:evenodd;fill-opacity:1;stroke:#000000;stroke-width:0.0px;stroke-linecap:butt;stroke-linejoin:miter;stroke-miterlimit:10;stroke-opacity:1;"/>
<path class="atom-4" d="M 369.3,624.2 L 369.3,624.2 L 369.3,624.3 L 369.3,624.3 L 369.3,624.4 L 369.3,624.4 L 369.3,624.5 L 369.2,624.5 L 369.2,624.5 L 369.2,624.6 L 369.2,624.6 L 369.1,624.6 L 369.1,624.7 L 369.0,624.7 L 369.0,624.7 L 368.9,624.7 L 368.9,624.7 L 368.9,624.7 L 368.8,624.7 L 368.8,624.7 L 368.7,624.7 L 368.7,624.7 L 368.6,624.7 L 368.6,624.7 L 368.5,624.7 L 368.5,624.6 L 368.5,624.6 L 368.4,624.6 L 368.4,624.6 L 368.4,624.5 L 368.3,624.5 L 368.3,624.4 L 368.3,624.4 L 368.3,624.4 L 368.3,624.3 L 368.3,624.3 L 368.3,624.2 L 368.3,624.2 L 368.3,624.1 L 368.3,624.1 L 368.3,624.0 L 368.3,624.0 L 368.3,623.9 L 368.3,623.9 L 368.4,623.9 L 368.4,623.8 L 368.4,623.8 L 368.5,623.8 L 368.5,623.7 L 368.5,623.7 L 368.6,623.7 L 368.6,623.7 L 368.7,623.7 L 368.7,623.7 L 368.8,623.7 L 368.8,623.6 L 368.9,623.7 L 368.9,623.7 L 368.9,623.7 L 369.0,623.7 L 369.0,623.7 L 369.1,623.7 L 369.1,623.8 L 369.2,623.8 L 369.2,623.8 L 369.2,623.8 L 369.2,623.9 L 369.3,623.9 L 369.3,624.0 L 369.3,624.0 L 369.3,624.1 L 369.3,624.1 L 369.3,624.1 L 369.3,624.2 L 368.8,624.2 Z" style="fill:#000000;fill-rule:evenodd;fill-opacity:1;stroke:#000000;stroke-width:0.0px;stroke-linecap:butt;stroke-linejoin:miter;stroke-miterlimit:10;stroke-opacity:1;"/>
<path class="atom-5" d="M 385.1,606.1 L 385.1,606.2 L 385.1,606.2 L 385.0,606.3 L 385.0,606.3 L 385.0,606.4 L 385.0,606.4 L 385.0,606.5 L 384.9,606.5 L 384.9,606.5 L 384.9,606.6 L 384.8,606.6 L 384.8,606.6 L 384.8,606.6 L 384.7,606.7 L 384.7,606.7 L 384.6,606.7 L 384.6,606.7 L 384.5,606.7 L 384.5,606.7 L 384.4,606.7 L 384.4,606.7 L 384.3,606.7 L 384.3,606.6 L 384.3,606.6 L 384.2,606.6 L 384.2,606.6 L 384.1,606.5 L 384.1,606.5 L 384.1,606.5 L 384.1,606.4 L 384.0,606.4 L 384.0,606.4 L 384.0,606.3 L 384.0,606.3 L 384.0,606.2 L 384.0,606.2 L 384.0,606.1 L 384.0,606.1 L 384.0,606.0 L 384.0,606.0 L 384.0,605.9 L 384.0,605.9 L 384.1,605.9 L 384.1,605.8 L 384.1,605.8 L 384.1,605.7 L 384.2,605.7 L 384.2,605.7 L 384.3,605.7 L 384.3,605.6 L 384.3,605.6 L 384.4,605.6 L 384.4,605.6 L 384.5,605.6 L 384.5,605.6 L 384.6,605.6 L 384.6,605.6 L 384.7,605.6 L 384.7,605.6 L 384.8,605.7 L 384.8,605.7 L 384.8,605.7 L 384.9,605.7 L 384.9,605.8 L 384.9,605.8 L 385.0,605.8 L 385.0,605.9 L 385.0,605.9 L 385.0,606.0 L 385.0,606.0 L 385.1,606.1 L 385.1,606.1 L 385.1,606.1 L 384.5,606.1 Z" style="fill:#000000;fill-rule:evenodd;fill-opacity:1;stroke:#000000;stroke-width:0.0px;stroke-linecap:butt;stroke-linejoin:miter;stroke-miterlimit:10;stroke-opacity:1;"/>
<path class="atom-5" d="M 382.9,606.1 L 382.9,606.2 L 382.9,606.2 L 382.9,606.3 L 382.9,606.3 L 382.8,606.4 L 382.8,606.4 L 382.8,606.5 L 382.8,606.5 L 382.7,606.5 L 382.7,606.6 L 382.7,606.6 L 382.6,606.6 L 382.6,606.6 L 382.5,606.7 L 382.5,606.7 L 382.4,606.7 L 382.4,606.7 L 382.4,606.7 L 382.3,606.7 L 382.3,606.7 L 382.2,606.7 L 382.2,606.7 L 382.1,606.6 L 382.1,606.6 L 382.0,606.6 L 382.0,606.6 L 382.0,606.5 L 381.9,606.5 L 381.9,606.5 L 381.9,606.4 L 381.9,606.4 L 381.8,606.4 L 381.8,606.3 L 381.8,606.3 L 381.8,606.2 L 381.8,606.2 L 381.8,606.1 L 381.8,606.1 L 381.8,606.0 L 381.8,606.0 L 381.8,605.9 L 381.9,605.9 L 381.9,605.9 L 381.9,605.8 L 381.9,605.8 L 382.0,605.7 L 382.0,605.7 L 382.0,605.7 L 382.1,605.7 L 382.1,605.6 L 382.2,605.6 L 382.2,605.6 L 382.3,605.6 L 382.3,605.6 L 382.4,605.6 L 382.4,605.6 L 382.4,605.6 L 382.5,605.6 L 382.5,605.6 L 382.6,605.7 L 382.6,605.7 L 382.7,605.7 L 382.7,605.7 L 382.7,605.8 L 382.8,605.8 L 382.8,605.8 L 382.8,605.9 L 382.8,605.9 L 382.9,606.0 L 382.9,606.0 L 382.9,606.1 L 382.9,606.1 L 382.9,606.1 L 382.3,606.1 Z" style="fill:#000000;fill-rule:evenodd;fill-opacity:1;stroke:#000000;stroke-width:0.0px;stroke-linecap:butt;stroke-linejoin:miter;stroke-miterlimit:10;stroke-opacity:1;"/>
<path class="atom-6" d="M 417.4,623.7 L 417.4,623.7 L 417.4,623.7 L 417.4,623.8 L 417.4,623.8 L 417.3,623.9 L 417.3,623.9 L 417.3,624.0 L 417.3,624.0 L 417.2,624.0 L 417.2,624.1 L 417.2,624.1 L 417.1,624.1 L 417.1,624.1 L 417.0,624.2 L 417.0,624.2 L 416.9,624.2 L 416.9,624.2 L 416.9,624.2 L 416.8,624.2 L 416.8,624.2 L 416.7,624.2 L 416.7,624.2 L 416.6,624.2 L 416.6,624.1 L 416.5,624.1 L 416.5,624.1 L 416.5,624.1 L 416.4,624.0 L 416.4,624.0 L 416.4,623.9 L 416.4,623.9 L 416.3,623.9 L 416.3,623.8 L 416.3,623.8 L 416.3,623.7 L 416.3,623.7 L 416.3,623.6 L 416.3,623.6 L 416.3,623.5 L 416.3,623.5 L 416.3,623.4 L 416.4,623.4 L 416.4,623.4 L 416.4,623.3 L 416.4,623.3 L 416.5,623.3 L 416.5,623.2 L 416.5,623.2 L 416.6,623.2 L 416.6,623.2 L 416.7,623.1 L 416.7,623.1 L 416.8,623.1 L 416.8,623.1 L 416.9,623.1 L 416.9,623.1 L 416.9,623.1 L 417.0,623.1 L 417.0,623.1 L 417.1,623.2 L 417.1,623.2 L 417.2,623.2 L 417.2,623.2 L 417.2,623.3 L 417.3,623.3 L 417.3,623.3 L 417.3,623.4 L 417.3,623.4 L 417.4,623.5 L 417.4,623.5 L 417.4,623.6 L 417.4,623.6 L 417.4,623.7 L 416.8,623.7 Z" style="fill:#000000;fill-rule:evenodd;fill-opacity:1;stroke:#000000;stroke-width:0.0px;stroke-linecap:butt;stroke-linejoin:miter;stroke-miterlimit:10;stroke-opacity:1;"/>
<path class="atom-7" d="M 426.5,609.2 L 426.5,609.3 L 426.5,609.3 L 426.5,609.4 L 426.4,609.4 L 426.4,609.5 L 426.4,609.5 L 426.4,609.5 L 426.3,609.6 L 426.3,609.6 L 426.3,609.6 L 426.2,609.7 L 426.2,609.7 L 426.2,609.7 L 426.1,609.7 L 426.1,609.8 L 426.0,609.8 L 426.0,609.8 L 425.9,609.8 L 425.9,609.8 L 425.8,609.8 L 425.8,609.8 L 425.8,609.7 L 425.7,609.7 L 425.7,609.7 L 425.6,609.7 L 425.6,609.7 L 425.6,609.6 L 425.5,609.6 L 425.5,609.6 L 425.5,609.5 L 425.4,609.5 L 425.4,609.4 L 425.4,609.4 L 425.4,609.3 L 425.4,609.3 L 425.4,609.3 L 425.4,609.2 L 425.4,609.2 L 425.4,609.1 L 425.4,609.1 L 425.4,609.0 L 425.4,609.0 L 425.5,608.9 L 425.5,608.9 L 425.5,608.9 L 425.6,608.8 L 425.6,608.8 L 425.6,608.8 L 425.7,608.7 L 425.7,608.7 L 425.8,608.7 L 425.8,608.7 L 425.8,608.7 L 425.9,608.7 L 425.9,608.7 L 426.0,608.7 L 426.0,608.7 L 426.1,608.7 L 426.1,608.7 L 426.2,608.7 L 426.2,608.8 L 426.2,608.8 L 426.3,608.8 L 426.3,608.8 L 426.3,608.9 L 426.4,608.9 L 426.4,609.0 L 426.4,609.0 L 426.4,609.0 L 426.5,609.1 L 426.5,609.1 L 426.5,609.2 L 426.5,609.2 L 425.9,609.2 Z" style="fill:#000000;fill-rule:evenodd;fill-opacity:1;stroke:#000000;stroke-width:0.0px;stroke-linecap:butt;stroke-linejoin:miter;stroke-miterlimit:10;stroke-opacity:1;"/>
<path class="atom-9" d="M 487.6,604.9 L 487.6,604.9 L 487.6,605.0 L 487.6,605.0 L 487.6,605.1 L 487.6,605.1 L 487.6,605.1 L 487.5,605.2 L 487.5,605.2 L 487.5,605.3 L 487.4,605.3 L 487.4,605.3 L 487.4,605.3 L 487.3,605.4 L 487.3,605.4 L 487.2,605.4 L 487.2,605.4 L 487.1,605.4 L 487.1,605.4 L 487.1,605.4 L 487.0,605.4 L 487.0,605.4 L 486.9,605.4 L 486.9,605.4 L 486.8,605.4 L 486.8,605.3 L 486.8,605.3 L 486.7,605.3 L 486.7,605.2 L 486.7,605.2 L 486.6,605.2 L 486.6,605.1 L 486.6,605.1 L 486.6,605.0 L 486.6,605.0 L 486.6,604.9 L 486.5,604.9 L 486.5,604.8 L 486.6,604.8 L 486.6,604.8 L 486.6,604.7 L 486.6,604.7 L 486.6,604.6 L 486.6,604.6 L 486.7,604.5 L 486.7,604.5 L 486.7,604.5 L 486.8,604.4 L 486.8,604.4 L 486.8,604.4 L 486.9,604.4 L 486.9,604.4 L 487.0,604.3 L 487.0,604.3 L 487.1,604.3 L 487.1,604.3 L 487.1,604.3 L 487.2,604.3 L 487.2,604.3 L 487.3,604.4 L 487.3,604.4 L 487.4,604.4 L 487.4,604.4 L 487.4,604.5 L 487.5,604.5 L 487.5,604.5 L 487.5,604.6 L 487.6,604.6 L 487.6,604.6 L 487.6,604.7 L 487.6,604.7 L 487.6,604.8 L 487.6,604.8 L 487.6,604.9 L 487.1,604.9 Z" style="fill:#000000;fill-rule:evenodd;fill-opacity:1;stroke:#000000;stroke-width:0.0px;stroke-linecap:butt;stroke-linejoin:miter;stroke-miterlimit:10;stroke-opacity:1;"/>
<path class="atom-9" d="M 487.6,610.3 L 487.6,610.4 L 487.6,610.4 L 487.6,610.5 L 487.6,610.5 L 487.6,610.5 L 487.6,610.6 L 487.5,610.6 L 487.5,610.7 L 487.5,610.7 L 487.4,610.7 L 487.4,610.8 L 487.4,610.8 L 487.3,610.8 L 487.3,610.8 L 487.2,610.8 L 487.2,610.9 L 487.1,610.9 L 487.1,610.9 L 487.1,610.9 L 487.0,610.9 L 487.0,610.8 L 486.9,610.8 L 486.9,610.8 L 486.8,610.8 L 486.8,610.8 L 486.8,610.7 L 486.7,610.7 L 486.7,610.7 L 486.7,610.6 L 486.6,610.6 L 486.6,610.6 L 486.6,610.5 L 486.6,610.5 L 486.6,610.4 L 486.6,610.4 L 486.5,610.3 L 486.5,610.3 L 486.6,610.2 L 486.6,610.2 L 486.6,610.2 L 486.6,610.1 L 486.6,610.1 L 486.6,610.0 L 486.7,610.0 L 486.7,610.0 L 486.7,609.9 L 486.8,609.9 L 486.8,609.9 L 486.8,609.8 L 486.9,609.8 L 486.9,609.8 L 487.0,609.8 L 487.0,609.8 L 487.1,609.8 L 487.1,609.8 L 487.1,609.8 L 487.2,609.8 L 487.2,609.8 L 487.3,609.8 L 487.3,609.8 L 487.4,609.9 L 487.4,609.9 L 487.4,609.9 L 487.5,609.9 L 487.5,610.0 L 487.5,610.0 L 487.6,610.1 L 487.6,610.1 L 487.6,610.1 L 487.6,610.2 L 487.6,610.2 L 487.6,610.3 L 487.6,610.3 L 487.1,610.3 Z" style="fill:#000000;fill-rule:evenodd;fill-opacity:1;stroke:#000000;stroke-width:0.0px;stroke-linecap:butt;stroke-linejoin:miter;stroke-miterlimit:10;stroke-opacity:1;"/>
<path class="atom-9" d="M 487.6,607.6 L 487.6,607.6 L 487.6,607.7 L 487.6,607.7 L 487.6,607.8 L 487.6,607.8 L 487.6,607.9 L 487.5,607.9 L 487.5,607.9 L 487.5,608.0 L 487.4,608.0 L 487.4,608.0 L 487.4,608.1 L 487.3,608.1 L 487.3,608.1 L 487.2,608.1 L 487.2,608.1 L 487.1,608.1 L 487.1,608.1 L 487.1,608.1 L 487.0,608.1 L 487.0,608.1 L 486.9,608.1 L 486.9,608.1 L 486.8,608.1 L 486.8,608.1 L 486.8,608.0 L 486.7,608.0 L 486.7,608.0 L 486.7,607.9 L 486.6,607.9 L 486.6,607.8 L 486.6,607.8 L 486.6,607.8 L 486.6,607.7 L 486.6,607.7 L 486.5,607.6 L 486.5,607.6 L 486.6,607.5 L 486.6,607.5 L 486.6,607.4 L 486.6,607.4 L 486.6,607.3 L 486.6,607.3 L 486.7,607.3 L 486.7,607.2 L 486.7,607.2 L 486.8,607.2 L 486.8,607.1 L 486.8,607.1 L 486.9,607.1 L 486.9,607.1 L 487.0,607.1 L 487.0,607.1 L 487.1,607.1 L 487.1,607.1 L 487.1,607.1 L 487.2,607.1 L 487.2,607.1 L 487.3,607.1 L 487.3,607.1 L 487.4,607.1 L 487.4,607.2 L 487.4,607.2 L 487.5,607.2 L 487.5,607.3 L 487.5,607.3 L 487.6,607.3 L 487.6,607.4 L 487.6,607.4 L 487.6,607.5 L 487.6,607.5 L 487.6,607.5 L 487.6,607.6 L 487.1,607.6 Z" style="fill:#000000;fill-rule:evenodd;fill-opacity:1;stroke:#000000;stroke-width:0.0px;stroke-linecap:butt;stroke-linejoin:miter;stroke-miterlimit:10;stroke-opacity:1;"/>
<path class="bond-0 atom-0 atom-1" d="M 573.0,645.5 L 634.6,610.0" style="fill:none;fill-rule:evenodd;stroke:#000000;stroke-width:2.0px;stroke-linecap:butt;stroke-linejoin:miter;stroke-opacity:1"/>
<path class="bond-1 atom-1 atom-2" d="M 659.5,610.0 L 729.9,650.6" style="fill:none;fill-rule:evenodd;stroke:#000000;stroke-width:2.0px;stroke-linecap:butt;stroke-linejoin:miter;stroke-opacity:1"/>
<path class="atom-0" d="M 520.4 639.5 L 524.3 639.5 L 524.3 651.6 L 538.7 651.6 L 538.7 639.5 L 542.6 639.5 L 542.6 667.8 L 538.7 667.8 L 538.7 654.8 L 524.3 654.8 L 524.3 667.8 L 520.4 667.8 L 520.4 639.5 " fill="#000000"/>
<path class="atom-0" d="M 552.6 639.5 L 561.9 654.5 Q 562.8 656.0, 564.3 658.7 Q 565.8 661.4, 565.9 661.5 L 565.9 639.5 L 569.6 639.5 L 569.6 667.8 L 565.8 667.8 L 555.8 651.4 Q 554.6 649.5, 553.4 647.3 Q 552.2 645.1, 551.8 644.4 L 551.8 667.8 L 548.2 667.8 L 548.2 639.5 L 552.6 639.5 " fill="#000000"/>
<path class="atom-1" d="M 639.0 612.5 Q 639.4 612.6, 640.7 613.2 Q 642.0 613.8, 643.4 614.1 Q 644.9 614.4, 646.4 614.4 Q 649.0 614.4, 650.6 613.2 Q 652.2 611.8, 652.2 609.6 Q 652.2 608.0, 651.4 607.0 Q 650.6 606.1, 649.4 605.6 Q 648.2 605.0, 646.2 604.4 Q 643.7 603.7, 642.2 603.0 Q 640.7 602.2, 639.6 600.7 Q 638.6 599.2, 638.6 596.6 Q 638.6 593.1, 641.0 590.9 Q 643.4 588.7, 648.2 588.7 Q 651.5 588.7, 655.2 590.2 L 654.3 593.3 Q 650.9 591.9, 648.3 591.9 Q 645.6 591.9, 644.0 593.1 Q 642.5 594.2, 642.6 596.2 Q 642.6 597.7, 643.3 598.6 Q 644.1 599.5, 645.2 600.0 Q 646.4 600.6, 648.3 601.2 Q 650.9 602.0, 652.4 602.8 Q 653.9 603.6, 655.0 605.2 Q 656.1 606.8, 656.1 609.6 Q 656.1 613.5, 653.5 615.6 Q 650.9 617.7, 646.5 617.7 Q 644.0 617.7, 642.1 617.1 Q 640.2 616.6, 638.0 615.7 L 639.0 612.5 " fill="#000000"/>
<path class="atom-1" d="M 659.8 593.4 L 664.8 593.4 L 664.8 588.1 L 667.1 588.1 L 667.1 593.4 L 672.2 593.4 L 672.2 595.3 L 667.1 595.3 L 667.1 600.5 L 664.8 600.5 L 664.8 595.3 L 659.8 595.3 L 659.8 593.4 " fill="#000000"/>
<path class="atom-2" d="M 733.3 639.5 L 737.1 639.5 L 737.1 667.9 L 733.3 667.9 L 733.3 639.5 " fill="#000000"/>
<path class="atom-0" d="M 516.4,653.7 L 516.4,653.8 L 516.4,654.0 L 516.4,654.2 L 516.3,654.4 L 516.2,654.5 L 516.2,654.7 L 516.1,654.8 L 516.0,654.9 L 515.9,655.1 L 515.7,655.2 L 515.6,655.3 L 515.4,655.4 L 515.3,655.5 L 515.1,655.5 L 515.0,655.6 L 514.8,655.6 L 514.6,655.7 L 514.5,655.7 L 514.3,655.7 L 514.1,655.7 L 514.0,655.6 L 513.8,655.6 L 513.6,655.5 L 513.5,655.4 L 513.3,655.3 L 513.2,655.2 L 513.1,655.1 L 512.9,655.0 L 512.8,654.9 L 512.7,654.7 L 512.6,654.6 L 512.6,654.4 L 512.5,654.3 L 512.5,654.1 L 512.4,653.9 L 512.4,653.8 L 512.4,653.6 L 512.4,653.4 L 512.5,653.2 L 512.5,653.1 L 512.6,652.9 L 512.6,652.8 L 512.7,652.6 L 512.8,652.5 L 512.9,652.3 L 513.1,652.2 L 513.2,652.1 L 513.3,652.0 L 513.5,651.9 L 513.6,651.8 L 513.8,651.8 L 514.0,651.7 L 514.1,651.7 L 514.3,651.7 L 514.5,651.7 L 514.6,651.7 L 514.8,651.7 L 515.0,651.8 L 515.1,651.8 L 515.3,651.9 L 515.4,652.0 L 515.6,652.1 L 515.7,652.2 L 515.9,652.3 L 516.0,652.4 L 516.1,652.5 L 516.2,652.7 L 516.2,652.8 L 516.3,653.0 L 516.4,653.2 L 516.4,653.3 L 516.4,653.5 L 516.4,653.7 L 514.4,653.7 Z" style="fill:#000000;fill-rule:evenodd;fill-opacity:1;stroke:#000000;stroke-width:0.0px;stroke-linecap:butt;stroke-linejoin:miter;stroke-miterlimit:10;stroke-opacity:1;"/>
<path class="atom-1" d="M 649.0,585.1 L 649.0,585.3 L 649.0,585.4 L 649.0,585.6 L 648.9,585.8 L 648.9,585.9 L 648.8,586.1 L 648.7,586.2 L 648.6,586.4 L 648.5,586.5 L 648.3,586.6 L 648.2,586.7 L 648.1,586.8 L 647.9,586.9 L 647.8,587.0 L 647.6,587.0 L 647.4,587.1 L 647.3,587.1 L 647.1,587.1 L 646.9,587.1 L 646.7,587.1 L 646.6,587.0 L 646.4,587.0 L 646.2,586.9 L 646.1,586.9 L 645.9,586.8 L 645.8,586.7 L 645.7,586.6 L 645.6,586.4 L 645.4,586.3 L 645.3,586.2 L 645.3,586.0 L 645.2,585.9 L 645.1,585.7 L 645.1,585.5 L 645.1,585.4 L 645.0,585.2 L 645.0,585.0 L 645.1,584.8 L 645.1,584.7 L 645.1,584.5 L 645.2,584.3 L 645.3,584.2 L 645.3,584.0 L 645.4,583.9 L 645.6,583.8 L 645.7,583.6 L 645.8,583.5 L 645.9,583.4 L 646.1,583.3 L 646.2,583.3 L 646.4,583.2 L 646.6,583.2 L 646.7,583.1 L 646.9,583.1 L 647.1,583.1 L 647.3,583.1 L 647.4,583.1 L 647.6,583.2 L 647.8,583.2 L 647.9,583.3 L 648.1,583.4 L 648.2,583.5 L 648.3,583.6 L 648.5,583.7 L 648.6,583.8 L 648.7,584.0 L 648.8,584.1 L 648.9,584.3 L 648.9,584.4 L 649.0,584.6 L 649.0,584.8 L 649.0,584.9 L 649.0,585.1 L 647.0,585.1 Z" style="fill:#000000;fill-rule:evenodd;fill-opacity:1;stroke:#000000;stroke-width:0.0px;stroke-linecap:butt;stroke-linejoin:miter;stroke-miterlimit:10;stroke-opacity:1;"/>
</svg>