<svg xmlns="http://www.w3.org/2000/svg" xmlns:rdkit="http://www.rdkit.org/xml" xmlns:xlink="http://www.w3.org/1999/xlink" version="1.1" baseProfile="full" xml:space="preserve" width="800px" height="800px" viewBox="0 0 800 800">
<!-- END OF HEADER -->
<rect style="opacity:1.0;fill:#FFFFFF;stroke:none" width="800.0" height="800.0" x="0.0" y="0.0"> </rect>
<path class="bond-0 atom-0 atom-6" d="M 286.5,82.0 L 302.0,147.3" style="fill:none;fill-rule:evenodd;stroke:#000000;stroke-width:2.0px;stroke-linecap:butt;stroke-linejoin:miter;stroke-opacity:1"/>
<path class="bond-1 atom-1 atom-2" d="M 381.8,231.9 L 333.0,278.0" style="fill:none;fill-rule:evenodd;stroke:#000000;stroke-width:2.0px;stroke-linecap:butt;stroke-linejoin:miter;stroke-opacity:1"/>
<path class="bond-1 atom-1 atom-2" d="M 370.7,228.6 L 330.3,266.7" style="fill:none;fill-rule:evenodd;stroke:#000000;stroke-width:2.0px;stroke-linecap:butt;stroke-linejoin:miter;stroke-opacity:1"/>
<path class="bond-2 atom-1 atom-3" d="M 381.8,231.9 L 366.3,166.6" style="fill:none;fill-rule:evenodd;stroke:#000000;stroke-width:2.0px;stroke-linecap:butt;stroke-linejoin:miter;stroke-opacity:1"/>
<path class="bond-3 atom-2 atom-4" d="M 333.0,278.0 L 268.7,258.7" style="fill:none;fill-rule:evenodd;stroke:#000000;stroke-width:2.0px;stroke-linecap:butt;stroke-linejoin:miter;stroke-opacity:1"/>
<path class="bond-4 atom-3 atom-6" d="M 366.3,166.6 L 302.0,147.3" style="fill:none;fill-rule:evenodd;stroke:#000000;stroke-width:2.0px;stroke-linecap:butt;stroke-linejoin:miter;stroke-opacity:1"/>
<path class="bond-4 atom-3 atom-6" d="M 357.9,174.6 L 304.7,158.7" style="fill:none;fill-rule:evenodd;stroke:#000000;stroke-width:2.0px;stroke-linecap:butt;stroke-linejoin:miter;stroke-opacity:1"/>
<path class="bond-5 atom-4 atom-7" d="M 268.7,258.7 L 253.2,193.4" style="fill:none;fill-rule:evenodd;stroke:#000000;stroke-width:2.0px;stroke-linecap:butt;stroke-linejoin:miter;stroke-opacity:1"/>
<path class="bond-5 atom-4 atom-7" d="M 277.1,250.8 L 264.3,196.8" style="fill:none;fill-rule:evenodd;stroke:#000000;stroke-width:2.0px;stroke-linecap:butt;stroke-linejoin:miter;stroke-opacity:1"/>
<path class="bond-6 atom-5 atom-8" d="M 140.0,220.3 L 75.7,201.0" style="fill:none;fill-rule:evenodd;stroke:#000000;stroke-width:2.0px;stroke-linecap:butt;stroke-linejoin:miter;stroke-opacity:1"/>
<path class="bond-7 atom-5 atom-11" d="M 140.0,220.3 L 177.9,184.5" style="fill:none;fill-rule:evenodd;stroke:#000000;stroke-width:2.0px;stroke-linecap:butt;stroke-linejoin:miter;stroke-opacity:1"/>
<path class="bond-8 atom-6 atom-7" d="M 302.0,147.3 L 253.2,193.4" style="fill:none;fill-rule:evenodd;stroke:#000000;stroke-width:2.0px;stroke-linecap:butt;stroke-linejoin:miter;stroke-opacity:1"/>
<path class="bond-9 atom-7 atom-11" d="M 253.2,193.4 L 199.8,177.5" style="fill:none;fill-rule:evenodd;stroke:#000000;stroke-width:2.0px;stroke-linecap:butt;stroke-linejoin:miter;stroke-opacity:1"/>
<path class="bond-10 atom-8 atom-9" d="M 74.4,195.4 L 34.4,233.1" style="fill:none;fill-rule:evenodd;stroke:#000000;stroke-width:2.0px;stroke-linecap:butt;stroke-linejoin:miter;stroke-opacity:1"/>
<path class="bond-10 atom-8 atom-9" d="M 81.3,202.7 L 41.3,240.4" style="fill:none;fill-rule:evenodd;stroke:#000000;stroke-width:2.0px;stroke-linecap:butt;stroke-linejoin:miter;stroke-opacity:1"/>
<path class="bond-11 atom-8 atom-10" d="M 75.7,201.0 L 63.1,147.8" style="fill:none;fill-rule:evenodd;stroke:#000000;stroke-width:2.0px;stroke-linecap:butt;stroke-linejoin:miter;stroke-opacity:1"/>
<path d="M 379.4,234.2 L 381.8,231.9 L 381.0,228.6" style="fill:none;stroke:#000000;stroke-width:2.0px;stroke-linecap:butt;stroke-linejoin:miter;stroke-opacity:1;"/>
<path d="M 335.4,275.7 L 333.0,278.0 L 329.8,277.0" style="fill:none;stroke:#000000;stroke-width:2.0px;stroke-linecap:butt;stroke-linejoin:miter;stroke-opacity:1;"/>
<path d="M 367.1,169.8 L 366.3,166.6 L 363.1,165.6" style="fill:none;stroke:#000000;stroke-width:2.0px;stroke-linecap:butt;stroke-linejoin:miter;stroke-opacity:1;"/>
<path d="M 271.9,259.7 L 268.7,258.7 L 267.9,255.5" style="fill:none;stroke:#000000;stroke-width:2.0px;stroke-linecap:butt;stroke-linejoin:miter;stroke-opacity:1;"/>
<path d="M 136.8,219.3 L 140.0,220.3 L 141.9,218.5" style="fill:none;stroke:#000000;stroke-width:2.0px;stroke-linecap:butt;stroke-linejoin:miter;stroke-opacity:1;"/>
<path d="M 78.9,202.0 L 75.7,201.0 L 75.1,198.4" style="fill:none;stroke:#000000;stroke-width:2.0px;stroke-linecap:butt;stroke-linejoin:miter;stroke-opacity:1;"/>
<path class="atom-9" d="M 18.2 247.2 Q 18.2 242.6, 20.4 240.0 Q 22.7 237.5, 26.9 237.5 Q 31.1 237.5, 33.4 240.0 Q 35.6 242.6, 35.6 247.2 Q 35.6 251.8, 33.4 254.4 Q 31.1 257.0, 26.9 257.0 Q 22.7 257.0, 20.4 254.4 Q 18.2 251.8, 18.2 247.2 M 26.9 254.9 Q 29.8 254.9, 31.4 252.9 Q 33.0 251.0, 33.0 247.2 Q 33.0 243.4, 31.4 241.6 Q 29.8 239.6, 26.9 239.6 Q 24.0 239.6, 22.4 241.5 Q 20.9 243.4, 20.9 247.2 Q 20.9 251.0, 22.4 252.9 Q 24.0 254.9, 26.9 254.9 " fill="#000000"/>
<path class="atom-10" d="M 51.5 135.8 Q 51.5 131.2, 53.8 128.6 Q 56.0 126.1, 60.2 126.1 Q 64.4 126.1, 66.7 128.6 Q 69.0 131.2, 69.0 135.8 Q 69.0 140.4, 66.7 143.0 Q 64.4 145.6, 60.2 145.6 Q 56.0 145.6, 53.8 143.0 Q 51.5 140.4, 51.5 135.8 M 60.2 143.5 Q 63.1 143.5, 64.7 141.5 Q 66.3 139.6, 66.3 135.8 Q 66.3 132.0, 64.7 130.2 Q 63.1 128.2, 60.2 128.2 Q 57.3 128.2, 55.7 130.1 Q 54.2 132.0, 54.2 135.8 Q 54.2 139.6, 55.7 141.5 Q 57.3 143.5, 60.2 143.5 " fill="#000000"/>
<path class="atom-10" d="M 71.9 126.3 L 74.5 126.3 L 74.5 134.4 L 84.2 134.4 L 84.2 126.3 L 86.8 126.3 L 86.8 145.3 L 84.2 145.3 L 84.2 136.5 L 74.5 136.5 L 74.5 145.3 L 71.9 145.3 L 71.9 126.3 " fill="#000000"/>
<path class="atom-11" d="M 180.1 174.2 Q 180.1 169.7, 182.4 167.1 Q 184.6 164.6, 188.9 164.6 Q 193.1 164.6, 195.3 167.1 Q 197.6 169.7, 197.6 174.2 Q 197.6 178.9, 195.3 181.5 Q 193.0 184.1, 188.9 184.1 Q 184.7 184.1, 182.4 181.5 Q 180.1 178.9, 180.1 174.2 M 188.9 181.9 Q 191.8 181.9, 193.3 180.0 Q 194.9 178.1, 194.9 174.2 Q 194.9 170.5, 193.3 168.6 Q 191.8 166.7, 188.9 166.7 Q 186.0 166.7, 184.4 168.6 Q 182.8 170.5, 182.8 174.2 Q 182.8 178.1, 184.4 180.0 Q 186.0 181.9, 188.9 181.9 " fill="#000000"/>
<path class="legend" d="M 174.8 384.1 Q 174.8 381.3, 176.1 379.8 Q 177.5 378.4, 180.0 378.4 Q 182.3 378.4, 183.6 380.0 L 182.5 380.9 Q 181.6 379.7, 180.0 379.7 Q 178.3 379.7, 177.4 380.8 Q 176.5 382.0, 176.5 384.1 Q 176.5 386.4, 177.4 387.5 Q 178.3 388.7, 180.2 388.7 Q 181.4 388.7, 182.9 387.9 L 183.3 389.1 Q 182.7 389.5, 181.8 389.7 Q 180.9 390.0, 179.9 390.0 Q 177.5 390.0, 176.1 388.4 Q 174.8 386.9, 174.8 384.1 " fill="#000000"/>
<path class="legend" d="M 184.7 377.7 L 186.2 377.7 L 186.2 389.8 L 184.7 389.8 L 184.7 377.7 " fill="#000000"/>
<path class="legend" d="M 188.1 387.6 Q 188.1 386.3, 189.2 385.6 Q 190.2 384.8, 192.2 384.8 L 193.4 384.8 L 193.4 384.5 Q 193.4 383.5, 192.9 383.1 Q 192.5 382.6, 191.5 382.6 Q 190.8 382.6, 190.3 382.8 Q 189.8 382.9, 189.0 383.2 L 188.6 382.2 Q 190.1 381.4, 191.5 381.4 Q 193.3 381.4, 194.1 382.2 Q 194.9 382.9, 194.9 384.5 L 194.9 389.8 L 193.7 389.8 Q 193.7 389.7, 193.6 389.5 Q 193.6 389.2, 193.5 388.8 Q 192.3 390.0, 190.8 390.0 Q 189.6 390.0, 188.8 389.3 Q 188.1 388.7, 188.1 387.6 M 189.6 387.6 Q 189.6 388.2, 190.0 388.5 Q 190.4 388.8, 191.1 388.8 Q 191.7 388.8, 192.3 388.5 Q 193.0 388.2, 193.4 387.7 L 193.4 386.0 L 192.2 386.0 Q 190.9 386.0, 190.3 386.4 Q 189.6 386.8, 189.6 387.6 " fill="#000000"/>
<path class="legend" d="M 197.1 388.1 Q 197.8 388.4, 198.3 388.6 Q 198.9 388.7, 199.4 388.7 Q 200.1 388.7, 200.5 388.4 Q 200.9 388.1, 200.9 387.5 Q 200.9 387.1, 200.7 386.9 Q 200.5 386.7, 200.2 386.6 Q 200.0 386.4, 199.3 386.2 Q 199.2 386.2, 198.4 385.9 Q 197.7 385.7, 197.3 385.1 Q 196.9 384.6, 196.9 383.8 Q 196.9 382.8, 197.7 382.1 Q 198.4 381.4, 199.9 381.4 Q 200.5 381.4, 201.1 381.6 Q 201.7 381.7, 202.3 382.0 L 201.9 383.2 Q 201.3 382.9, 200.9 382.8 Q 200.4 382.7, 199.9 382.7 Q 199.2 382.7, 198.8 383.0 Q 198.4 383.3, 198.4 383.8 Q 198.4 384.2, 198.7 384.4 Q 199.0 384.6, 199.7 384.9 Q 199.9 384.9, 200.0 385.0 L 200.4 385.1 Q 201.1 385.4, 201.5 385.6 Q 201.9 385.8, 202.2 386.3 Q 202.5 386.7, 202.5 387.5 Q 202.5 388.7, 201.6 389.3 Q 200.8 390.0, 199.4 390.0 Q 198.6 390.0, 198.0 389.8 Q 197.3 389.6, 196.6 389.3 L 197.1 388.1 " fill="#000000"/>
<path class="legend" d="M 204.3 388.1 Q 205.0 388.4, 205.5 388.6 Q 206.1 388.7, 206.6 388.7 Q 207.3 388.7, 207.7 388.4 Q 208.1 388.1, 208.1 387.5 Q 208.1 387.1, 207.9 386.9 Q 207.7 386.7, 207.4 386.6 Q 207.2 386.4, 206.5 386.2 Q 206.4 386.2, 205.6 385.9 Q 204.9 385.7, 204.5 385.1 Q 204.1 384.6, 204.1 383.8 Q 204.1 382.8, 204.9 382.1 Q 205.6 381.4, 207.1 381.4 Q 207.7 381.4, 208.3 381.6 Q 208.9 381.7, 209.5 382.0 L 209.1 383.2 Q 208.5 382.9, 208.1 382.8 Q 207.6 382.7, 207.1 382.7 Q 206.4 382.7, 206.0 383.0 Q 205.6 383.3, 205.6 383.8 Q 205.6 384.2, 205.9 384.4 Q 206.2 384.6, 206.9 384.9 Q 207.1 384.9, 207.2 385.0 L 207.6 385.1 Q 208.3 385.4, 208.7 385.6 Q 209.1 385.8, 209.4 386.3 Q 209.7 386.7, 209.7 387.5 Q 209.7 388.7, 208.8 389.3 Q 208.0 390.0, 206.6 390.0 Q 205.8 390.0, 205.2 389.8 Q 204.5 389.6, 203.8 389.3 L 204.3 388.1 " fill="#000000"/>
<path class="legend" d="" fill="#000000"/>
<path class="legend" d="M 221.0 389.9 Q 219.0 389.9, 217.9 388.4 Q 216.9 386.9, 216.9 384.1 Q 216.9 381.4, 217.9 379.9 Q 218.9 378.4, 221.0 378.4 Q 223.1 378.4, 224.2 379.9 Q 225.2 381.4, 225.2 384.1 Q 225.2 386.9, 224.1 388.4 Q 223.1 389.9, 221.0 389.9 M 221.0 388.7 Q 222.3 388.7, 222.9 387.5 Q 223.6 386.4, 223.6 384.1 Q 223.6 381.9, 222.9 380.8 Q 222.3 379.6, 221.0 379.6 Q 219.8 379.6, 219.1 380.8 Q 218.5 381.9, 218.5 384.1 Q 218.5 386.4, 219.1 387.5 Q 219.8 388.7, 221.0 388.7 " fill="#000000"/>
<path class="bond-0 atom-0 atom-1" d="M 576.8,315.4 L 583.2,297.4" style="fill:none;fill-rule:evenodd;stroke:#000000;stroke-width:2.0px;stroke-linecap:butt;stroke-linejoin:miter;stroke-opacity:1"/>
<path class="bond-1 atom-1 atom-2" d="M 583.2,297.4 L 602.0,293.8" style="fill:none;fill-rule:evenodd;stroke:#000000;stroke-width:2.0px;stroke-linecap:butt;stroke-linejoin:miter;stroke-opacity:1"/>
<path class="bond-2 atom-2 atom-3" d="M 602.0,293.8 L 608.4,275.7" style="fill:none;fill-rule:evenodd;stroke:#000000;stroke-width:2.0px;stroke-linecap:butt;stroke-linejoin:miter;stroke-opacity:1"/>
<path class="bond-3 atom-3 atom-4" d="M 608.4,275.7 L 627.2,272.2" style="fill:none;fill-rule:evenodd;stroke:#000000;stroke-width:2.0px;stroke-linecap:butt;stroke-linejoin:miter;stroke-opacity:1"/>
<path class="bond-4 atom-4 atom-5" d="M 627.2,272.2 L 633.6,254.1" style="fill:none;fill-rule:evenodd;stroke:#000000;stroke-width:2.0px;stroke-linecap:butt;stroke-linejoin:miter;stroke-opacity:1"/>
<path class="bond-5 atom-5 atom-6" d="M 633.6,254.1 L 652.4,250.6" style="fill:none;fill-rule:evenodd;stroke:#000000;stroke-width:2.0px;stroke-linecap:butt;stroke-linejoin:miter;stroke-opacity:1"/>
<path class="bond-6 atom-6 atom-7" d="M 652.4,250.6 L 658.8,232.5" style="fill:none;fill-rule:evenodd;stroke:#000000;stroke-width:2.0px;stroke-linecap:butt;stroke-linejoin:miter;stroke-opacity:1"/>
<path class="bond-7 atom-7 atom-8" d="M 658.8,232.5 L 677.6,229.0" style="fill:none;fill-rule:evenodd;stroke:#000000;stroke-width:2.0px;stroke-linecap:butt;stroke-linejoin:miter;stroke-opacity:1"/>
<path class="bond-8 atom-8 atom-9" d="M 677.6,229.0 L 684.0,210.9" style="fill:none;fill-rule:evenodd;stroke:#000000;stroke-width:2.0px;stroke-linecap:butt;stroke-linejoin:miter;stroke-opacity:1"/>
<path class="bond-9 atom-9 atom-10" d="M 684.0,210.9 L 702.9,207.3" style="fill:none;fill-rule:evenodd;stroke:#000000;stroke-width:2.0px;stroke-linecap:butt;stroke-linejoin:miter;stroke-opacity:1"/>
<path class="bond-10 atom-10 atom-21" d="M 702.9,207.3 L 709.2,189.3" style="fill:none;fill-rule:evenodd;stroke:#000000;stroke-width:2.0px;stroke-linecap:butt;stroke-linejoin:miter;stroke-opacity:1"/>
<path class="bond-11 atom-11 atom-13" d="M 552.6,134.2 L 571.4,130.6" style="fill:none;fill-rule:evenodd;stroke:#000000;stroke-width:2.0px;stroke-linecap:butt;stroke-linejoin:miter;stroke-opacity:1"/>
<path class="bond-11 atom-11 atom-13" d="M 554.7,136.7 L 570.3,133.8" style="fill:none;fill-rule:evenodd;stroke:#000000;stroke-width:2.0px;stroke-linecap:butt;stroke-linejoin:miter;stroke-opacity:1"/>
<path class="bond-12 atom-11 atom-25" d="M 552.6,134.2 L 546.2,152.3" style="fill:none;fill-rule:evenodd;stroke:#000000;stroke-width:2.0px;stroke-linecap:butt;stroke-linejoin:miter;stroke-opacity:1"/>
<path class="bond-13 atom-12 atom-14" d="M 558.7,166.8 L 577.5,163.3" style="fill:none;fill-rule:evenodd;stroke:#000000;stroke-width:2.0px;stroke-linecap:butt;stroke-linejoin:miter;stroke-opacity:1"/>
<path class="bond-14 atom-12 atom-25" d="M 558.7,166.8 L 546.2,152.3" style="fill:none;fill-rule:evenodd;stroke:#000000;stroke-width:2.0px;stroke-linecap:butt;stroke-linejoin:miter;stroke-opacity:1"/>
<path class="bond-14 atom-12 atom-25" d="M 559.8,163.7 L 549.5,151.6" style="fill:none;fill-rule:evenodd;stroke:#000000;stroke-width:2.0px;stroke-linecap:butt;stroke-linejoin:miter;stroke-opacity:1"/>
<path class="bond-15 atom-13 atom-26" d="M 571.4,130.6 L 583.9,145.2" style="fill:none;fill-rule:evenodd;stroke:#000000;stroke-width:2.0px;stroke-linecap:butt;stroke-linejoin:miter;stroke-opacity:1"/>
<path class="bond-16 atom-14 atom-26" d="M 577.5,163.3 L 583.9,145.2" style="fill:none;fill-rule:evenodd;stroke:#000000;stroke-width:2.0px;stroke-linecap:butt;stroke-linejoin:miter;stroke-opacity:1"/>
<path class="bond-16 atom-14 atom-26" d="M 575.4,160.7 L 580.6,145.8" style="fill:none;fill-rule:evenodd;stroke:#000000;stroke-width:2.0px;stroke-linecap:butt;stroke-linejoin:miter;stroke-opacity:1"/>
<path class="bond-17 atom-15 atom-18" d="M 489.7,162.9 L 470.8,166.4" style="fill:none;fill-rule:evenodd;stroke:#000000;stroke-width:2.0px;stroke-linecap:butt;stroke-linejoin:miter;stroke-opacity:1"/>
<path class="bond-17 atom-15 atom-18" d="M 487.5,160.3 L 471.9,163.3" style="fill:none;fill-rule:evenodd;stroke:#000000;stroke-width:2.0px;stroke-linecap:butt;stroke-linejoin:miter;stroke-opacity:1"/>
<path class="bond-18 atom-15 atom-27" d="M 489.7,162.9 L 496.0,144.8" style="fill:none;fill-rule:evenodd;stroke:#000000;stroke-width:2.0px;stroke-linecap:butt;stroke-linejoin:miter;stroke-opacity:1"/>
<path class="bond-19 atom-16 atom-19" d="M 483.6,130.2 L 464.7,133.8" style="fill:none;fill-rule:evenodd;stroke:#000000;stroke-width:2.0px;stroke-linecap:butt;stroke-linejoin:miter;stroke-opacity:1"/>
<path class="bond-20 atom-16 atom-27" d="M 483.6,130.2 L 496.0,144.8" style="fill:none;fill-rule:evenodd;stroke:#000000;stroke-width:2.0px;stroke-linecap:butt;stroke-linejoin:miter;stroke-opacity:1"/>
<path class="bond-20 atom-16 atom-27" d="M 482.5,133.3 L 492.8,145.4" style="fill:none;fill-rule:evenodd;stroke:#000000;stroke-width:2.0px;stroke-linecap:butt;stroke-linejoin:miter;stroke-opacity:1"/>
<path class="bond-21 atom-17 atom-20" d="M 690.6,142.1 L 671.8,145.6" style="fill:none;fill-rule:evenodd;stroke:#000000;stroke-width:2.0px;stroke-linecap:butt;stroke-linejoin:miter;stroke-opacity:1"/>
<path class="bond-21 atom-17 atom-20" d="M 688.4,139.5 L 672.9,142.5" style="fill:none;fill-rule:evenodd;stroke:#000000;stroke-width:2.0px;stroke-linecap:butt;stroke-linejoin:miter;stroke-opacity:1"/>
<path class="bond-22 atom-17 atom-28" d="M 690.6,142.1 L 697.0,124.0" style="fill:none;fill-rule:evenodd;stroke:#000000;stroke-width:2.0px;stroke-linecap:butt;stroke-linejoin:miter;stroke-opacity:1"/>
<path class="bond-23 atom-18 atom-29" d="M 470.8,166.4 L 458.4,151.8" style="fill:none;fill-rule:evenodd;stroke:#000000;stroke-width:2.0px;stroke-linecap:butt;stroke-linejoin:miter;stroke-opacity:1"/>
<path class="bond-24 atom-19 atom-29" d="M 464.7,133.8 L 458.4,151.8" style="fill:none;fill-rule:evenodd;stroke:#000000;stroke-width:2.0px;stroke-linecap:butt;stroke-linejoin:miter;stroke-opacity:1"/>
<path class="bond-24 atom-19 atom-29" d="M 466.9,136.3 L 461.6,151.2" style="fill:none;fill-rule:evenodd;stroke:#000000;stroke-width:2.0px;stroke-linecap:butt;stroke-linejoin:miter;stroke-opacity:1"/>
<path class="bond-25 atom-20 atom-30" d="M 671.8,145.6 L 659.3,131.0" style="fill:none;fill-rule:evenodd;stroke:#000000;stroke-width:2.0px;stroke-linecap:butt;stroke-linejoin:miter;stroke-opacity:1"/>
<path class="bond-26 atom-21 atom-38" d="M 709.2,189.3 L 725.4,186.2" style="fill:none;fill-rule:evenodd;stroke:#000000;stroke-width:2.0px;stroke-linecap:butt;stroke-linejoin:miter;stroke-opacity:1"/>
<path class="bond-27 atom-22 atom-24" d="M 684.5,109.4 L 665.6,113.0" style="fill:none;fill-rule:evenodd;stroke:#000000;stroke-width:2.0px;stroke-linecap:butt;stroke-linejoin:miter;stroke-opacity:1"/>
<path class="bond-28 atom-22 atom-28" d="M 684.5,109.4 L 697.0,124.0" style="fill:none;fill-rule:evenodd;stroke:#000000;stroke-width:2.0px;stroke-linecap:butt;stroke-linejoin:miter;stroke-opacity:1"/>
<path class="bond-28 atom-22 atom-28" d="M 683.4,112.6 L 693.7,124.6" style="fill:none;fill-rule:evenodd;stroke:#000000;stroke-width:2.0px;stroke-linecap:butt;stroke-linejoin:miter;stroke-opacity:1"/>
<path class="bond-29 atom-23 atom-24" d="M 653.2,98.4 L 665.6,113.0" style="fill:none;fill-rule:evenodd;stroke:#000000;stroke-width:2.0px;stroke-linecap:butt;stroke-linejoin:miter;stroke-opacity:1"/>
<path class="bond-30 atom-23 atom-31" d="M 653.2,98.4 L 634.3,101.9" style="fill:none;fill-rule:evenodd;stroke:#000000;stroke-width:2.0px;stroke-linecap:butt;stroke-linejoin:miter;stroke-opacity:1"/>
<path class="bond-30 atom-23 atom-31" d="M 652.1,101.5 L 636.5,104.5" style="fill:none;fill-rule:evenodd;stroke:#000000;stroke-width:2.0px;stroke-linecap:butt;stroke-linejoin:miter;stroke-opacity:1"/>
<path class="bond-31 atom-24 atom-30" d="M 665.6,113.0 L 659.3,131.0" style="fill:none;fill-rule:evenodd;stroke:#000000;stroke-width:2.0px;stroke-linecap:butt;stroke-linejoin:miter;stroke-opacity:1"/>
<path class="bond-31 atom-24 atom-30" d="M 667.8,115.5 L 662.5,130.4" style="fill:none;fill-rule:evenodd;stroke:#000000;stroke-width:2.0px;stroke-linecap:butt;stroke-linejoin:miter;stroke-opacity:1"/>
<path class="bond-32 atom-25 atom-43" d="M 546.2,152.3 L 530.1,155.3" style="fill:none;fill-rule:evenodd;stroke:#000000;stroke-width:2.0px;stroke-linecap:butt;stroke-linejoin:miter;stroke-opacity:1"/>
<path class="bond-33 atom-26 atom-45" d="M 583.9,145.2 L 600.1,142.2" style="fill:none;fill-rule:evenodd;stroke:#000000;stroke-width:2.0px;stroke-linecap:butt;stroke-linejoin:miter;stroke-opacity:1"/>
<path class="bond-34 atom-27 atom-44" d="M 496.0,144.8 L 512.2,141.7" style="fill:none;fill-rule:evenodd;stroke:#000000;stroke-width:2.0px;stroke-linecap:butt;stroke-linejoin:miter;stroke-opacity:1"/>
<path class="bond-35 atom-28 atom-39" d="M 697.0,124.0 L 713.1,120.9" style="fill:none;fill-rule:evenodd;stroke:#000000;stroke-width:2.0px;stroke-linecap:butt;stroke-linejoin:miter;stroke-opacity:1"/>
<path class="bond-36 atom-29 atom-54" d="M 458.4,151.8 L 441.9,154.9" style="fill:none;fill-rule:evenodd;stroke:#000000;stroke-width:2.0px;stroke-linecap:butt;stroke-linejoin:miter;stroke-opacity:1"/>
<path class="bond-37 atom-30 atom-33" d="M 659.3,131.0 L 640.4,134.6" style="fill:none;fill-rule:evenodd;stroke:#000000;stroke-width:2.0px;stroke-linecap:butt;stroke-linejoin:miter;stroke-opacity:1"/>
<path class="bond-38 atom-31 atom-32" d="M 634.3,101.9 L 628.0,120.0" style="fill:none;fill-rule:evenodd;stroke:#000000;stroke-width:2.0px;stroke-linecap:butt;stroke-linejoin:miter;stroke-opacity:1"/>
<path class="bond-39 atom-31 atom-55" d="M 634.3,101.9 L 624.2,90.2" style="fill:none;fill-rule:evenodd;stroke:#000000;stroke-width:2.0px;stroke-linecap:butt;stroke-linejoin:miter;stroke-opacity:1"/>
<path class="bond-40 atom-32 atom-33" d="M 628.0,120.0 L 640.4,134.6" style="fill:none;fill-rule:evenodd;stroke:#000000;stroke-width:2.0px;stroke-linecap:butt;stroke-linejoin:miter;stroke-opacity:1"/>
<path class="bond-40 atom-32 atom-33" d="M 631.2,119.4 L 641.5,131.4" style="fill:none;fill-rule:evenodd;stroke:#000000;stroke-width:2.0px;stroke-linecap:butt;stroke-linejoin:miter;stroke-opacity:1"/>
<path class="bond-41 atom-32 atom-46" d="M 628.0,120.0 L 611.8,123.1" style="fill:none;fill-rule:evenodd;stroke:#000000;stroke-width:2.0px;stroke-linecap:butt;stroke-linejoin:miter;stroke-opacity:1"/>
<path class="bond-42 atom-33 atom-47" d="M 640.4,134.6 L 635.3,149.3" style="fill:none;fill-rule:evenodd;stroke:#000000;stroke-width:2.0px;stroke-linecap:butt;stroke-linejoin:miter;stroke-opacity:1"/>
<path class="bond-43 atom-34 atom-37" d="M 759.6,146.0 L 775.7,143.0" style="fill:none;fill-rule:evenodd;stroke:#000000;stroke-width:2.0px;stroke-linecap:butt;stroke-linejoin:miter;stroke-opacity:1"/>
<path class="bond-44 atom-34 atom-40" d="M 759.6,146.0 L 754.4,160.7" style="fill:none;fill-rule:evenodd;stroke:#000000;stroke-width:2.0px;stroke-linecap:butt;stroke-linejoin:miter;stroke-opacity:1"/>
<path class="bond-44 atom-34 atom-40" d="M 756.4,146.6 L 751.7,159.8" style="fill:none;fill-rule:evenodd;stroke:#000000;stroke-width:2.0px;stroke-linecap:butt;stroke-linejoin:miter;stroke-opacity:1"/>
<path class="bond-45 atom-34 atom-41" d="M 759.6,146.0 L 749.8,134.6" style="fill:none;fill-rule:evenodd;stroke:#000000;stroke-width:2.0px;stroke-linecap:butt;stroke-linejoin:miter;stroke-opacity:1"/>
<path class="bond-46 atom-35 atom-38" d="M 734.4,167.6 L 729.2,182.4" style="fill:none;fill-rule:evenodd;stroke:#000000;stroke-width:2.0px;stroke-linecap:butt;stroke-linejoin:miter;stroke-opacity:1"/>
<path class="bond-46 atom-35 atom-38" d="M 731.2,168.2 L 727.0,180.1" style="fill:none;fill-rule:evenodd;stroke:#000000;stroke-width:2.0px;stroke-linecap:butt;stroke-linejoin:miter;stroke-opacity:1"/>
<path class="bond-47 atom-35 atom-40" d="M 734.4,167.6 L 750.6,164.6" style="fill:none;fill-rule:evenodd;stroke:#000000;stroke-width:2.0px;stroke-linecap:butt;stroke-linejoin:miter;stroke-opacity:1"/>
<path class="bond-48 atom-35 atom-42" d="M 734.4,167.6 L 724.6,156.2" style="fill:none;fill-rule:evenodd;stroke:#000000;stroke-width:2.0px;stroke-linecap:butt;stroke-linejoin:miter;stroke-opacity:1"/>
<path class="bond-49 atom-36 atom-39" d="M 728.3,135.0 L 718.5,123.6" style="fill:none;fill-rule:evenodd;stroke:#000000;stroke-width:2.0px;stroke-linecap:butt;stroke-linejoin:miter;stroke-opacity:1"/>
<path class="bond-50 atom-36 atom-41" d="M 728.3,135.0 L 744.4,132.0" style="fill:none;fill-rule:evenodd;stroke:#000000;stroke-width:2.0px;stroke-linecap:butt;stroke-linejoin:miter;stroke-opacity:1"/>
<path class="bond-50 atom-36 atom-41" d="M 730.5,137.5 L 745.0,134.8" style="fill:none;fill-rule:evenodd;stroke:#000000;stroke-width:2.0px;stroke-linecap:butt;stroke-linejoin:miter;stroke-opacity:1"/>
<path class="bond-51 atom-36 atom-42" d="M 728.3,135.0 L 723.1,149.7" style="fill:none;fill-rule:evenodd;stroke:#000000;stroke-width:2.0px;stroke-linecap:butt;stroke-linejoin:miter;stroke-opacity:1"/>
<path class="bond-52 atom-43 atom-44" d="M 524.7,152.6 L 517.6,144.4" style="fill:none;fill-rule:evenodd;stroke:#000000;stroke-width:2.0px;stroke-linecap:butt;stroke-linejoin:miter;stroke-opacity:1"/>
<path class="bond-52 atom-43 atom-44" d="M 526.0,149.7 L 519.8,142.5" style="fill:none;fill-rule:evenodd;stroke:#000000;stroke-width:2.0px;stroke-linecap:butt;stroke-linejoin:miter;stroke-opacity:1"/>
<path class="bond-53 atom-45 atom-46" d="M 603.9,138.3 L 607.9,126.9" style="fill:none;fill-rule:evenodd;stroke:#000000;stroke-width:2.0px;stroke-linecap:butt;stroke-linejoin:miter;stroke-opacity:1"/>
<path class="bond-53 atom-45 atom-46" d="M 601.7,136.0 L 605.2,126.0" style="fill:none;fill-rule:evenodd;stroke:#000000;stroke-width:2.0px;stroke-linecap:butt;stroke-linejoin:miter;stroke-opacity:1"/>
<path class="bond-54 atom-48 atom-54" d="M 423.5,156.9 L 436.9,154.4" style="fill:none;fill-rule:evenodd;stroke:#000000;stroke-width:2.0px;stroke-linecap:butt;stroke-linejoin:miter;stroke-opacity:1"/>
<path class="bond-54 atom-48 atom-54" d="M 424.1,159.7 L 437.4,157.2" style="fill:none;fill-rule:evenodd;stroke:#000000;stroke-width:2.0px;stroke-linecap:butt;stroke-linejoin:miter;stroke-opacity:1"/>
<path class="bond-55 atom-49 atom-54" d="M 436.6,140.0 L 438.9,152.0" style="fill:none;fill-rule:evenodd;stroke:#000000;stroke-width:2.0px;stroke-linecap:butt;stroke-linejoin:miter;stroke-opacity:1"/>
<path class="bond-56 atom-50 atom-54" d="M 441.0,171.1 L 438.8,159.1" style="fill:none;fill-rule:evenodd;stroke:#000000;stroke-width:2.0px;stroke-linecap:butt;stroke-linejoin:miter;stroke-opacity:1"/>
<path class="bond-56 atom-50 atom-54" d="M 443.8,170.6 L 441.6,158.6" style="fill:none;fill-rule:evenodd;stroke:#000000;stroke-width:2.0px;stroke-linecap:butt;stroke-linejoin:miter;stroke-opacity:1"/>
<path class="bond-57 atom-51 atom-55" d="M 612.3,76.3 L 619.5,84.6" style="fill:none;fill-rule:evenodd;stroke:#000000;stroke-width:2.0px;stroke-linecap:butt;stroke-linejoin:miter;stroke-opacity:1"/>
<path class="bond-58 atom-52 atom-55" d="M 634.2,78.7 L 625.1,86.4" style="fill:none;fill-rule:evenodd;stroke:#000000;stroke-width:2.0px;stroke-linecap:butt;stroke-linejoin:miter;stroke-opacity:1"/>
<path class="bond-58 atom-52 atom-55" d="M 632.3,76.5 L 623.3,84.3" style="fill:none;fill-rule:evenodd;stroke:#000000;stroke-width:2.0px;stroke-linecap:butt;stroke-linejoin:miter;stroke-opacity:1"/>
<path class="bond-59 atom-53 atom-55" d="M 609.5,96.1 L 618.5,88.3" style="fill:none;fill-rule:evenodd;stroke:#000000;stroke-width:2.0px;stroke-linecap:butt;stroke-linejoin:miter;stroke-opacity:1"/>
<path class="bond-59 atom-53 atom-55" d="M 611.3,98.3 L 620.4,90.5" style="fill:none;fill-rule:evenodd;stroke:#000000;stroke-width:2.0px;stroke-linecap:butt;stroke-linejoin:miter;stroke-opacity:1"/>
<path d="M 582.9,298.3 L 583.2,297.4 L 584.1,297.2" style="fill:none;stroke:#000000;stroke-width:2.0px;stroke-linecap:butt;stroke-linejoin:miter;stroke-opacity:1;"/>
<path d="M 601.1,294.0 L 602.0,293.8 L 602.4,292.9" style="fill:none;stroke:#000000;stroke-width:2.0px;stroke-linecap:butt;stroke-linejoin:miter;stroke-opacity:1;"/>
<path d="M 608.1,276.6 L 608.4,275.7 L 609.3,275.6" style="fill:none;stroke:#000000;stroke-width:2.0px;stroke-linecap:butt;stroke-linejoin:miter;stroke-opacity:1;"/>
<path d="M 626.3,272.4 L 627.2,272.2 L 627.6,271.3" style="fill:none;stroke:#000000;stroke-width:2.0px;stroke-linecap:butt;stroke-linejoin:miter;stroke-opacity:1;"/>
<path d="M 633.3,255.0 L 633.6,254.1 L 634.5,253.9" style="fill:none;stroke:#000000;stroke-width:2.0px;stroke-linecap:butt;stroke-linejoin:miter;stroke-opacity:1;"/>
<path d="M 651.5,250.8 L 652.4,250.6 L 652.8,249.7" style="fill:none;stroke:#000000;stroke-width:2.0px;stroke-linecap:butt;stroke-linejoin:miter;stroke-opacity:1;"/>
<path d="M 658.5,233.4 L 658.8,232.5 L 659.7,232.3" style="fill:none;stroke:#000000;stroke-width:2.0px;stroke-linecap:butt;stroke-linejoin:miter;stroke-opacity:1;"/>
<path d="M 676.7,229.1 L 677.6,229.0 L 678.0,228.1" style="fill:none;stroke:#000000;stroke-width:2.0px;stroke-linecap:butt;stroke-linejoin:miter;stroke-opacity:1;"/>
<path d="M 683.7,211.8 L 684.0,210.9 L 685.0,210.7" style="fill:none;stroke:#000000;stroke-width:2.0px;stroke-linecap:butt;stroke-linejoin:miter;stroke-opacity:1;"/>
<path d="M 701.9,207.5 L 702.9,207.3 L 703.2,206.4" style="fill:none;stroke:#000000;stroke-width:2.0px;stroke-linecap:butt;stroke-linejoin:miter;stroke-opacity:1;"/>
<path d="M 553.5,134.0 L 552.6,134.2 L 552.3,135.1" style="fill:none;stroke:#000000;stroke-width:2.0px;stroke-linecap:butt;stroke-linejoin:miter;stroke-opacity:1;"/>
<path d="M 559.6,166.6 L 558.7,166.8 L 558.1,166.1" style="fill:none;stroke:#000000;stroke-width:2.0px;stroke-linecap:butt;stroke-linejoin:miter;stroke-opacity:1;"/>
<path d="M 570.5,130.8 L 571.4,130.6 L 572.0,131.4" style="fill:none;stroke:#000000;stroke-width:2.0px;stroke-linecap:butt;stroke-linejoin:miter;stroke-opacity:1;"/>
<path d="M 576.6,163.4 L 577.5,163.3 L 577.9,162.4" style="fill:none;stroke:#000000;stroke-width:2.0px;stroke-linecap:butt;stroke-linejoin:miter;stroke-opacity:1;"/>
<path d="M 488.7,163.0 L 489.7,162.9 L 490.0,162.0" style="fill:none;stroke:#000000;stroke-width:2.0px;stroke-linecap:butt;stroke-linejoin:miter;stroke-opacity:1;"/>
<path d="M 482.6,130.4 L 483.6,130.2 L 484.2,130.9" style="fill:none;stroke:#000000;stroke-width:2.0px;stroke-linecap:butt;stroke-linejoin:miter;stroke-opacity:1;"/>
<path d="M 689.7,142.2 L 690.6,142.1 L 690.9,141.2" style="fill:none;stroke:#000000;stroke-width:2.0px;stroke-linecap:butt;stroke-linejoin:miter;stroke-opacity:1;"/>
<path d="M 471.8,166.2 L 470.8,166.4 L 470.2,165.7" style="fill:none;stroke:#000000;stroke-width:2.0px;stroke-linecap:butt;stroke-linejoin:miter;stroke-opacity:1;"/>
<path d="M 465.7,133.6 L 464.7,133.8 L 464.4,134.7" style="fill:none;stroke:#000000;stroke-width:2.0px;stroke-linecap:butt;stroke-linejoin:miter;stroke-opacity:1;"/>
<path d="M 672.7,145.4 L 671.8,145.6 L 671.1,144.9" style="fill:none;stroke:#000000;stroke-width:2.0px;stroke-linecap:butt;stroke-linejoin:miter;stroke-opacity:1;"/>
<path d="M 708.9,190.2 L 709.2,189.3 L 710.0,189.1" style="fill:none;stroke:#000000;stroke-width:2.0px;stroke-linecap:butt;stroke-linejoin:miter;stroke-opacity:1;"/>
<path d="M 683.5,109.6 L 684.5,109.4 L 685.1,110.1" style="fill:none;stroke:#000000;stroke-width:2.0px;stroke-linecap:butt;stroke-linejoin:miter;stroke-opacity:1;"/>
<path d="M 653.8,99.1 L 653.2,98.4 L 652.2,98.6" style="fill:none;stroke:#000000;stroke-width:2.0px;stroke-linecap:butt;stroke-linejoin:miter;stroke-opacity:1;"/>
<path class="atom-37" d="M 776.4 142.7 Q 776.4 141.3, 777.0 140.6 Q 777.6 139.9, 778.8 139.9 Q 780.0 139.9, 780.6 140.7 L 780.1 141.1 Q 779.6 140.5, 778.8 140.5 Q 778.0 140.5, 777.6 141.1 Q 777.2 141.6, 777.2 142.7 Q 777.2 143.7, 777.6 144.3 Q 778.1 144.8, 778.9 144.8 Q 779.5 144.8, 780.2 144.5 L 780.4 145.1 Q 780.2 145.2, 779.7 145.3 Q 779.3 145.5, 778.8 145.5 Q 777.6 145.5, 777.0 144.7 Q 776.4 144.0, 776.4 142.7 " fill="#000000"/>
<path class="atom-37" d="M 781.1 139.6 L 781.8 139.6 L 781.8 145.4 L 781.1 145.4 L 781.1 139.6 " fill="#000000"/>
<path class="atom-38" d="M 726.9 183.0 L 728.6 185.9 Q 728.8 186.2, 729.1 186.7 Q 729.4 187.2, 729.4 187.2 L 729.4 183.0 L 730.1 183.0 L 730.1 188.4 L 729.4 188.4 L 727.5 185.3 Q 727.2 184.9, 727.0 184.5 Q 726.8 184.1, 726.7 183.9 L 726.7 188.4 L 726.0 188.4 L 726.0 183.0 L 726.9 183.0 " fill="#000000"/>
<path class="atom-39" d="M 714.6 117.7 L 716.4 120.6 Q 716.6 120.9, 716.9 121.4 Q 717.1 121.9, 717.2 121.9 L 717.2 117.7 L 717.9 117.7 L 717.9 123.2 L 717.1 123.2 L 715.2 120.0 Q 715.0 119.6, 714.8 119.2 Q 714.5 118.8, 714.5 118.7 L 714.5 123.2 L 713.8 123.2 L 713.8 117.7 L 714.6 117.7 " fill="#000000"/>
<path class="atom-39" d="M 713.7 111.8 L 714.4 111.8 L 714.4 114.1 L 717.2 114.1 L 717.2 111.8 L 717.9 111.8 L 717.9 117.2 L 717.2 117.2 L 717.2 114.7 L 714.4 114.7 L 714.4 117.2 L 713.7 117.2 L 713.7 111.8 " fill="#000000"/>
<path class="atom-40" d="M 752.1 161.4 L 753.8 164.3 Q 754.0 164.5, 754.3 165.1 Q 754.6 165.6, 754.6 165.6 L 754.6 161.4 L 755.3 161.4 L 755.3 166.8 L 754.6 166.8 L 752.7 163.7 Q 752.4 163.3, 752.2 162.9 Q 752.0 162.5, 751.9 162.3 L 751.9 166.8 L 751.2 166.8 L 751.2 161.4 L 752.1 161.4 " fill="#000000"/>
<path class="atom-41" d="M 745.9 128.7 L 747.7 131.6 Q 747.9 131.9, 748.2 132.4 Q 748.5 132.9, 748.5 133.0 L 748.5 128.7 L 749.2 128.7 L 749.2 134.2 L 748.5 134.2 L 746.5 131.0 Q 746.3 130.7, 746.1 130.2 Q 745.9 129.8, 745.8 129.7 L 745.8 134.2 L 745.1 134.2 L 745.1 128.7 L 745.9 128.7 " fill="#000000"/>
<path class="atom-42" d="M 714.6 150.4 L 715.3 150.4 L 715.3 152.7 L 718.1 152.7 L 718.1 150.4 L 718.8 150.4 L 718.8 155.8 L 718.1 155.8 L 718.1 153.3 L 715.3 153.3 L 715.3 155.8 L 714.6 155.8 L 714.6 150.4 " fill="#000000"/>
<path class="atom-42" d="M 720.7 150.4 L 722.5 153.2 Q 722.7 153.5, 723.0 154.0 Q 723.3 154.5, 723.3 154.6 L 723.3 150.4 L 724.0 150.4 L 724.0 155.8 L 723.3 155.8 L 721.3 152.6 Q 721.1 152.3, 720.9 151.9 Q 720.7 151.4, 720.6 151.3 L 720.6 155.8 L 719.9 155.8 L 719.9 150.4 L 720.7 150.4 " fill="#000000"/>
<path class="atom-43" d="M 526.2 153.1 L 528.0 155.9 Q 528.1 156.2, 528.4 156.7 Q 528.7 157.3, 528.7 157.3 L 528.7 153.1 L 529.4 153.1 L 529.4 158.5 L 528.7 158.5 L 526.8 155.4 Q 526.6 155.0, 526.3 154.6 Q 526.1 154.1, 526.0 154.0 L 526.0 158.5 L 525.3 158.5 L 525.3 153.1 L 526.2 153.1 " fill="#000000"/>
<path class="atom-44" d="M 513.7 138.5 L 515.5 141.4 Q 515.6 141.7, 515.9 142.2 Q 516.2 142.7, 516.2 142.7 L 516.2 138.5 L 517.0 138.5 L 517.0 143.9 L 516.2 143.9 L 514.3 140.8 Q 514.1 140.4, 513.8 140.0 Q 513.6 139.6, 513.5 139.5 L 513.5 143.9 L 512.8 143.9 L 512.8 138.5 L 513.7 138.5 " fill="#000000"/>
<path class="atom-45" d="M 601.6 138.9 L 603.3 141.8 Q 603.5 142.1, 603.8 142.6 Q 604.1 143.1, 604.1 143.1 L 604.1 138.9 L 604.8 138.9 L 604.8 144.4 L 604.1 144.4 L 602.2 141.2 Q 601.9 140.8, 601.7 140.4 Q 601.5 140.0, 601.4 139.9 L 601.4 144.4 L 600.7 144.4 L 600.7 138.9 L 601.6 138.9 " fill="#000000"/>
<path class="atom-46" d="M 607.9 120.8 L 609.7 123.7 Q 609.9 124.0, 610.2 124.5 Q 610.4 125.0, 610.5 125.1 L 610.5 120.8 L 611.2 120.8 L 611.2 126.3 L 610.4 126.3 L 608.5 123.1 Q 608.3 122.8, 608.1 122.3 Q 607.8 121.9, 607.8 121.8 L 607.8 126.3 L 607.1 126.3 L 607.1 120.8 L 607.9 120.8 " fill="#000000"/>
<path class="atom-47" d="M 631.6 152.7 Q 631.6 151.4, 632.2 150.6 Q 632.9 149.9, 634.1 149.9 Q 635.3 149.9, 635.9 150.6 Q 636.6 151.4, 636.6 152.7 Q 636.6 154.0, 635.9 154.8 Q 635.3 155.5, 634.1 155.5 Q 632.9 155.5, 632.2 154.8 Q 631.6 154.0, 631.6 152.7 M 634.1 154.9 Q 634.9 154.9, 635.4 154.3 Q 635.8 153.8, 635.8 152.7 Q 635.8 151.6, 635.4 151.1 Q 634.9 150.5, 634.1 150.5 Q 633.2 150.5, 632.8 151.1 Q 632.4 151.6, 632.4 152.7 Q 632.4 153.8, 632.8 154.3 Q 633.2 154.9, 634.1 154.9 " fill="#000000"/>
<path class="atom-47" d="M 637.3 150.8 L 639.2 150.8 L 639.2 151.2 L 637.3 151.2 L 637.3 150.8 " fill="#000000"/>
<path class="atom-48" d="M 418.2 158.9 Q 418.2 157.6, 418.8 156.9 Q 419.5 156.2, 420.7 156.2 Q 421.9 156.2, 422.5 156.9 Q 423.2 157.6, 423.2 158.9 Q 423.2 160.2, 422.5 161.0 Q 421.9 161.7, 420.7 161.7 Q 419.5 161.7, 418.8 161.0 Q 418.2 160.2, 418.2 158.9 M 420.7 161.1 Q 421.5 161.1, 421.9 160.6 Q 422.4 160.0, 422.4 158.9 Q 422.4 157.9, 421.9 157.3 Q 421.5 156.8, 420.7 156.8 Q 419.8 156.8, 419.4 157.3 Q 418.9 157.8, 418.9 158.9 Q 418.9 160.0, 419.4 160.6 Q 419.8 161.1, 420.7 161.1 " fill="#000000"/>
<path class="atom-49" d="M 433.5 136.5 Q 433.5 135.2, 434.1 134.5 Q 434.8 133.8, 436.0 133.8 Q 437.2 133.8, 437.8 134.5 Q 438.5 135.2, 438.5 136.5 Q 438.5 137.9, 437.8 138.6 Q 437.2 139.4, 436.0 139.4 Q 434.8 139.4, 434.1 138.6 Q 433.5 137.9, 433.5 136.5 M 436.0 138.7 Q 436.8 138.7, 437.3 138.2 Q 437.7 137.6, 437.7 136.5 Q 437.7 135.5, 437.3 134.9 Q 436.8 134.4, 436.0 134.4 Q 435.2 134.4, 434.7 134.9 Q 434.3 135.5, 434.3 136.5 Q 434.3 137.6, 434.7 138.2 Q 435.2 138.7, 436.0 138.7 " fill="#000000"/>
<path class="atom-49" d="M 439.2 134.7 L 441.1 134.7 L 441.1 135.1 L 439.2 135.1 L 439.2 134.7 " fill="#000000"/>
<path class="atom-50" d="M 440.6 174.2 Q 440.6 172.9, 441.2 172.2 Q 441.8 171.5, 443.1 171.5 Q 444.3 171.5, 444.9 172.2 Q 445.5 172.9, 445.5 174.2 Q 445.5 175.5, 444.9 176.3 Q 444.2 177.0, 443.1 177.0 Q 441.9 177.0, 441.2 176.3 Q 440.6 175.6, 440.6 174.2 M 443.1 176.4 Q 443.9 176.4, 444.3 175.9 Q 444.8 175.3, 444.8 174.2 Q 444.8 173.2, 444.3 172.6 Q 443.9 172.1, 443.1 172.1 Q 442.2 172.1, 441.8 172.6 Q 441.3 173.2, 441.3 174.2 Q 441.3 175.3, 441.8 175.9 Q 442.2 176.4, 443.1 176.4 " fill="#000000"/>
<path class="atom-51" d="M 601.5 70.2 L 602.2 70.2 L 602.2 72.5 L 605.0 72.5 L 605.0 70.2 L 605.7 70.2 L 605.7 75.6 L 605.0 75.6 L 605.0 73.1 L 602.2 73.1 L 602.2 75.6 L 601.5 75.6 L 601.5 70.2 " fill="#000000"/>
<path class="atom-51" d="M 606.9 72.9 Q 606.9 71.5, 607.5 70.8 Q 608.1 70.1, 609.4 70.1 Q 610.6 70.1, 611.2 70.8 Q 611.8 71.5, 611.8 72.9 Q 611.8 74.2, 611.2 74.9 Q 610.5 75.7, 609.4 75.7 Q 608.2 75.7, 607.5 74.9 Q 606.9 74.2, 606.9 72.9 M 609.4 75.1 Q 610.2 75.1, 610.6 74.5 Q 611.1 73.9, 611.1 72.9 Q 611.1 71.8, 610.6 71.2 Q 610.2 70.7, 609.4 70.7 Q 608.5 70.7, 608.1 71.2 Q 607.6 71.8, 607.6 72.9 Q 607.6 73.9, 608.1 74.5 Q 608.5 75.1, 609.4 75.1 " fill="#000000"/>
<path class="atom-52" d="M 633.9 74.9 Q 633.9 73.6, 634.5 72.9 Q 635.2 72.2, 636.4 72.2 Q 637.6 72.2, 638.2 72.9 Q 638.9 73.6, 638.9 74.9 Q 638.9 76.2, 638.2 77.0 Q 637.6 77.7, 636.4 77.7 Q 635.2 77.7, 634.5 77.0 Q 633.9 76.2, 633.9 74.9 M 636.4 77.1 Q 637.2 77.1, 637.7 76.6 Q 638.1 76.0, 638.1 74.9 Q 638.1 73.9, 637.7 73.3 Q 637.2 72.8, 636.4 72.8 Q 635.6 72.8, 635.1 73.3 Q 634.7 73.8, 634.7 74.9 Q 634.7 76.0, 635.1 76.6 Q 635.6 77.1, 636.4 77.1 " fill="#000000"/>
<path class="atom-53" d="M 604.8 99.9 Q 604.8 98.6, 605.4 97.9 Q 606.1 97.1, 607.3 97.1 Q 608.5 97.1, 609.1 97.9 Q 609.8 98.6, 609.8 99.9 Q 609.8 101.2, 609.1 102.0 Q 608.5 102.7, 607.3 102.7 Q 606.1 102.7, 605.4 102.0 Q 604.8 101.2, 604.8 99.9 M 607.3 102.1 Q 608.1 102.1, 608.6 101.5 Q 609.0 101.0, 609.0 99.9 Q 609.0 98.8, 608.6 98.3 Q 608.1 97.7, 607.3 97.7 Q 606.5 97.7, 606.0 98.3 Q 605.6 98.8, 605.6 99.9 Q 605.6 101.0, 606.0 101.5 Q 606.5 102.1, 607.3 102.1 " fill="#000000"/>
<path class="atom-54" d="M 438.0 157.2 Q 438.0 157.3, 438.3 157.4 Q 438.6 157.5, 438.8 157.5 Q 439.1 157.6, 439.4 157.6 Q 439.9 157.6, 440.2 157.4 Q 440.5 157.1, 440.5 156.7 Q 440.5 156.4, 440.3 156.2 Q 440.2 156.0, 440.0 155.9 Q 439.7 155.8, 439.4 155.7 Q 438.9 155.5, 438.6 155.4 Q 438.3 155.3, 438.1 155.0 Q 437.9 154.7, 437.9 154.2 Q 437.9 153.5, 438.4 153.1 Q 438.8 152.7, 439.7 152.7 Q 440.4 152.7, 441.1 153.0 L 440.9 153.6 Q 440.3 153.3, 439.8 153.3 Q 439.2 153.3, 438.9 153.5 Q 438.7 153.7, 438.7 154.1 Q 438.7 154.4, 438.8 154.6 Q 439.0 154.7, 439.2 154.8 Q 439.4 154.9, 439.8 155.1 Q 440.3 155.2, 440.5 155.4 Q 440.8 155.5, 441.0 155.8 Q 441.3 156.1, 441.3 156.7 Q 441.3 157.4, 440.8 157.8 Q 440.3 158.2, 439.4 158.2 Q 438.9 158.2, 438.6 158.1 Q 438.2 158.0, 437.8 157.8 L 438.0 157.2 " fill="#000000"/>
<path class="atom-55" d="M 620.3 89.3 Q 620.4 89.3, 620.6 89.4 Q 620.9 89.5, 621.1 89.6 Q 621.4 89.6, 621.7 89.6 Q 622.2 89.6, 622.5 89.4 Q 622.8 89.1, 622.8 88.7 Q 622.8 88.4, 622.7 88.2 Q 622.5 88.0, 622.3 87.9 Q 622.1 87.8, 621.7 87.7 Q 621.2 87.6, 620.9 87.4 Q 620.6 87.3, 620.4 87.0 Q 620.2 86.7, 620.2 86.2 Q 620.2 85.5, 620.7 85.1 Q 621.1 84.7, 622.1 84.7 Q 622.7 84.7, 623.4 85.0 L 623.2 85.6 Q 622.6 85.3, 622.1 85.3 Q 621.6 85.3, 621.3 85.5 Q 621.0 85.7, 621.0 86.1 Q 621.0 86.4, 621.1 86.6 Q 621.3 86.8, 621.5 86.9 Q 621.7 87.0, 622.1 87.1 Q 622.6 87.2, 622.9 87.4 Q 623.2 87.5, 623.4 87.8 Q 623.6 88.2, 623.6 88.7 Q 623.6 89.4, 623.1 89.8 Q 622.6 90.2, 621.7 90.2 Q 621.3 90.2, 620.9 90.1 Q 620.5 90.0, 620.1 89.9 L 620.3 89.3 " fill="#000000"/>
<path class="atom-56" d="M 612.4 57.3 L 614.2 60.2 Q 614.4 60.5, 614.7 61.0 Q 615.0 61.5, 615.0 61.6 L 615.0 57.3 L 615.7 57.3 L 615.7 62.8 L 615.0 62.8 L 613.0 59.6 Q 612.8 59.3, 612.6 58.8 Q 612.4 58.4, 612.3 58.3 L 612.3 62.8 L 611.6 62.8 L 611.6 57.3 L 612.4 57.3 " fill="#000000"/>
<path class="atom-56" d="M 616.7 61.7 Q 616.7 61.1, 617.2 60.7 Q 617.7 60.4, 618.6 60.4 L 619.2 60.4 L 619.2 60.2 Q 619.2 59.7, 619.0 59.5 Q 618.8 59.3, 618.3 59.3 Q 618.0 59.3, 617.8 59.4 Q 617.5 59.4, 617.1 59.6 L 616.9 59.1 Q 617.6 58.8, 618.3 58.8 Q 619.2 58.8, 619.6 59.1 Q 619.9 59.5, 619.9 60.2 L 619.9 62.8 L 619.4 62.8 Q 619.4 62.7, 619.4 62.6 Q 619.3 62.5, 619.3 62.3 Q 618.7 62.9, 618.0 62.9 Q 617.4 62.9, 617.1 62.5 Q 616.7 62.2, 616.7 61.7 M 617.4 61.7 Q 617.4 62.0, 617.6 62.1 Q 617.8 62.3, 618.1 62.3 Q 618.4 62.3, 618.7 62.2 Q 619.0 62.0, 619.2 61.8 L 619.2 60.9 L 618.7 60.9 Q 618.1 60.9, 617.7 61.1 Q 617.4 61.3, 617.4 61.7 " fill="#000000"/>
<path class="atom-56" d="M 620.9 59.0 L 621.9 59.0 L 621.9 58.0 L 622.3 58.0 L 622.3 59.0 L 623.3 59.0 L 623.3 59.3 L 622.3 59.3 L 622.3 60.4 L 621.9 60.4 L 621.9 59.3 L 620.9 59.3 L 620.9 59.0 " fill="#000000"/>
<path class="atom-57" d="M 612.4 44.6 L 614.2 47.4 Q 614.4 47.7, 614.7 48.2 Q 615.0 48.7, 615.0 48.8 L 615.0 44.6 L 615.7 44.6 L 615.7 50.0 L 615.0 50.0 L 613.0 46.8 Q 612.8 46.5, 612.6 46.1 Q 612.4 45.6, 612.3 45.5 L 612.3 50.0 L 611.6 50.0 L 611.6 44.6 L 612.4 44.6 " fill="#000000"/>
<path class="atom-57" d="M 616.7 48.9 Q 616.7 48.3, 617.2 47.9 Q 617.7 47.6, 618.6 47.6 L 619.2 47.6 L 619.2 47.4 Q 619.2 47.0, 619.0 46.8 Q 618.8 46.5, 618.3 46.5 Q 618.0 46.5, 617.8 46.6 Q 617.5 46.7, 617.1 46.8 L 616.9 46.3 Q 617.6 46.0, 618.3 46.0 Q 619.2 46.0, 619.6 46.3 Q 619.9 46.7, 619.9 47.5 L 619.9 50.0 L 619.4 50.0 Q 619.4 50.0, 619.4 49.8 Q 619.3 49.7, 619.3 49.5 Q 618.7 50.1, 618.0 50.1 Q 617.4 50.1, 617.1 49.8 Q 616.7 49.5, 616.7 48.9 M 617.4 48.9 Q 617.4 49.2, 617.6 49.4 Q 617.8 49.5, 618.1 49.5 Q 618.4 49.5, 618.7 49.4 Q 619.0 49.2, 619.2 49.0 L 619.2 48.1 L 618.7 48.1 Q 618.1 48.1, 617.7 48.3 Q 617.4 48.5, 617.4 48.9 " fill="#000000"/>
<path class="atom-57" d="M 620.9 46.2 L 621.9 46.2 L 621.9 45.2 L 622.3 45.2 L 622.3 46.2 L 623.3 46.2 L 623.3 46.6 L 622.3 46.6 L 622.3 47.6 L 621.9 47.6 L 621.9 46.6 L 620.9 46.6 L 620.9 46.2 " fill="#000000"/>
<path class="legend" d="M 575.6 384.1 Q 575.6 381.3, 576.9 379.8 Q 578.3 378.4, 580.8 378.4 Q 583.1 378.4, 584.3 380.0 L 583.3 380.9 Q 582.4 379.7, 580.8 379.7 Q 579.1 379.7, 578.1 380.8 Q 577.2 382.0, 577.2 384.1 Q 577.2 386.4, 578.2 387.5 Q 579.1 388.7, 580.9 388.7 Q 582.2 388.7, 583.6 387.9 L 584.1 389.1 Q 583.5 389.5, 582.6 389.7 Q 581.7 390.0, 580.7 390.0 Q 578.3 390.0, 576.9 388.4 Q 575.6 386.9, 575.6 384.1 " fill="#000000"/>
<path class="legend" d="M 585.5 377.7 L 587.0 377.7 L 587.0 389.8 L 585.5 389.8 L 585.5 377.7 " fill="#000000"/>
<path class="legend" d="M 588.9 387.6 Q 588.9 386.3, 589.9 385.6 Q 591.0 384.8, 592.9 384.8 L 594.1 384.8 L 594.1 384.5 Q 594.1 383.5, 593.7 383.1 Q 593.3 382.6, 592.2 382.6 Q 591.6 382.6, 591.1 382.8 Q 590.6 382.9, 589.8 383.2 L 589.3 382.2 Q 590.8 381.4, 592.3 381.4 Q 594.0 381.4, 594.8 382.2 Q 595.6 382.9, 595.6 384.5 L 595.6 389.8 L 594.5 389.8 Q 594.4 389.7, 594.4 389.5 Q 594.3 389.2, 594.2 388.8 Q 593.1 390.0, 591.6 390.0 Q 590.3 390.0, 589.6 389.3 Q 588.9 388.7, 588.9 387.6 M 590.4 387.6 Q 590.4 388.2, 590.7 388.5 Q 591.1 388.8, 591.8 388.8 Q 592.5 388.8, 593.1 388.5 Q 593.7 388.2, 594.1 387.7 L 594.1 386.0 L 593.0 386.0 Q 591.7 386.0, 591.0 386.4 Q 590.4 386.8, 590.4 387.6 " fill="#000000"/>
<path class="legend" d="M 597.8 388.1 Q 598.5 388.4, 599.1 388.6 Q 599.6 388.7, 600.1 388.7 Q 600.9 388.7, 601.3 388.4 Q 601.7 388.1, 601.7 387.5 Q 601.7 387.1, 601.5 386.9 Q 601.2 386.7, 601.0 386.6 Q 600.7 386.4, 600.0 386.2 Q 599.9 386.2, 599.1 385.9 Q 598.4 385.7, 598.0 385.1 Q 597.6 384.6, 597.6 383.8 Q 597.6 382.8, 598.4 382.1 Q 599.2 381.4, 600.7 381.4 Q 601.3 381.4, 601.8 381.6 Q 602.4 381.7, 603.0 382.0 L 602.6 383.2 Q 602.1 382.9, 601.6 382.8 Q 601.1 382.7, 600.7 382.7 Q 599.9 382.7, 599.5 383.0 Q 599.1 383.3, 599.1 383.8 Q 599.1 384.2, 599.4 384.4 Q 599.7 384.6, 600.4 384.9 Q 600.6 384.9, 600.7 385.0 L 601.1 385.1 Q 601.8 385.4, 602.2 385.6 Q 602.6 385.8, 602.9 386.3 Q 603.2 386.7, 603.2 387.5 Q 603.2 388.7, 602.3 389.3 Q 601.5 390.0, 600.2 390.0 Q 599.4 390.0, 598.7 389.8 Q 598.0 389.6, 597.4 389.3 L 597.8 388.1 " fill="#000000"/>
<path class="legend" d="M 605.0 388.1 Q 605.7 388.4, 606.2 388.6 Q 606.8 388.7, 607.3 388.7 Q 608.0 388.7, 608.4 388.4 Q 608.9 388.1, 608.9 387.5 Q 608.9 387.1, 608.6 386.9 Q 608.4 386.7, 608.2 386.6 Q 607.9 386.4, 607.2 386.2 Q 607.1 386.2, 606.3 385.9 Q 605.6 385.7, 605.2 385.1 Q 604.8 384.6, 604.8 383.8 Q 604.8 382.8, 605.6 382.1 Q 606.3 381.4, 607.8 381.4 Q 608.5 381.4, 609.0 381.6 Q 609.6 381.7, 610.2 382.0 L 609.8 383.2 Q 609.2 382.9, 608.8 382.8 Q 608.3 382.7, 607.8 382.7 Q 607.1 382.7, 606.7 383.0 Q 606.3 383.3, 606.3 383.8 Q 606.3 384.2, 606.6 384.4 Q 606.9 384.6, 607.6 384.9 Q 607.8 384.9, 607.9 385.0 L 608.3 385.1 Q 609.0 385.4, 609.4 385.6 Q 609.8 385.8, 610.1 386.3 Q 610.4 386.7, 610.4 387.5 Q 610.4 388.7, 609.5 389.3 Q 608.7 390.0, 607.3 390.0 Q 606.6 390.0, 605.9 389.8 Q 605.2 389.6, 604.5 389.3 L 605.0 388.1 " fill="#000000"/>
<path class="legend" d="" fill="#000000"/>
<path class="legend" d="M 618.2 388.5 L 620.7 388.5 L 620.7 380.1 L 617.9 380.9 L 617.6 380.0 L 621.0 378.4 L 622.2 378.6 L 622.2 388.5 L 624.4 388.5 L 624.4 389.8 L 618.2 389.8 L 618.2 388.5 " fill="#000000"/>
<path class="bond-0 atom-0 atom-5" d="M 365.8,538.9 L 325.3,546.6" style="fill:none;fill-rule:evenodd;stroke:#000000;stroke-width:2.0px;stroke-linecap:butt;stroke-linejoin:miter;stroke-opacity:1"/>
<path class="bond-1 atom-1 atom-6" d="M 381.8,572.2 L 350.6,599.1" style="fill:none;fill-rule:evenodd;stroke:#000000;stroke-width:2.0px;stroke-linecap:butt;stroke-linejoin:miter;stroke-opacity:1"/>
<path class="bond-2 atom-2 atom-17" d="M 298.1,624.4 L 311.7,585.5" style="fill:none;fill-rule:evenodd;stroke:#000000;stroke-width:2.0px;stroke-linecap:butt;stroke-linejoin:miter;stroke-opacity:1"/>
<path class="bond-3 atom-3 atom-21" d="M 116.1,485.6 L 83.3,495.5" style="fill:none;fill-rule:evenodd;stroke:#000000;stroke-width:2.0px;stroke-linecap:butt;stroke-linejoin:miter;stroke-opacity:1"/>
<path class="bond-4 atom-4 atom-22" d="M 108.2,674.4 L 115.9,641.7" style="fill:none;fill-rule:evenodd;stroke:#000000;stroke-width:2.0px;stroke-linecap:butt;stroke-linejoin:miter;stroke-opacity:1"/>
<path class="bond-5 atom-5 atom-17" d="M 325.3,546.6 L 311.7,585.5" style="fill:none;fill-rule:evenodd;stroke:#000000;stroke-width:2.0px;stroke-linecap:butt;stroke-linejoin:miter;stroke-opacity:1"/>
<path class="bond-6 atom-6 atom-17" d="M 350.6,599.1 L 311.7,585.5" style="fill:none;fill-rule:evenodd;stroke:#000000;stroke-width:2.0px;stroke-linecap:butt;stroke-linejoin:miter;stroke-opacity:1"/>
<path class="bond-7 atom-7 atom-8" d="M 18.2,589.6 L 27.7,549.5" style="fill:none;fill-rule:evenodd;stroke:#000000;stroke-width:2.0px;stroke-linecap:butt;stroke-linejoin:miter;stroke-opacity:1"/>
<path class="bond-7 atom-7 atom-8" d="M 25.0,587.5 L 32.8,554.4" style="fill:none;fill-rule:evenodd;stroke:#000000;stroke-width:2.0px;stroke-linecap:butt;stroke-linejoin:miter;stroke-opacity:1"/>
<path class="bond-8 atom-7 atom-9" d="M 18.2,589.6 L 48.2,617.8" style="fill:none;fill-rule:evenodd;stroke:#000000;stroke-width:2.0px;stroke-linecap:butt;stroke-linejoin:miter;stroke-opacity:1"/>
<path class="bond-9 atom-8 atom-11" d="M 27.7,549.5 L 67.1,537.6" style="fill:none;fill-rule:evenodd;stroke:#000000;stroke-width:2.0px;stroke-linecap:butt;stroke-linejoin:miter;stroke-opacity:1"/>
<path class="bond-10 atom-9 atom-12" d="M 48.2,617.8 L 87.7,606.0" style="fill:none;fill-rule:evenodd;stroke:#000000;stroke-width:2.0px;stroke-linecap:butt;stroke-linejoin:miter;stroke-opacity:1"/>
<path class="bond-10 atom-9 atom-12" d="M 49.8,610.9 L 82.5,601.1" style="fill:none;fill-rule:evenodd;stroke:#000000;stroke-width:2.0px;stroke-linecap:butt;stroke-linejoin:miter;stroke-opacity:1"/>
<path class="bond-11 atom-10 atom-13" d="M 238.9,595.4 L 272.8,571.9" style="fill:none;fill-rule:evenodd;stroke:#000000;stroke-width:2.0px;stroke-linecap:butt;stroke-linejoin:miter;stroke-opacity:1"/>
<path class="bond-12 atom-10 atom-14" d="M 238.9,595.4 L 206.1,570.4" style="fill:none;fill-rule:evenodd;stroke:#000000;stroke-width:2.0px;stroke-linecap:butt;stroke-linejoin:miter;stroke-opacity:1"/>
<path class="bond-12 atom-10 atom-14" d="M 239.1,587.7 L 213.4,568.2" style="fill:none;fill-rule:evenodd;stroke:#000000;stroke-width:2.0px;stroke-linecap:butt;stroke-linejoin:miter;stroke-opacity:1"/>
<path class="bond-13 atom-11 atom-15" d="M 67.1,537.6 L 97.1,565.9" style="fill:none;fill-rule:evenodd;stroke:#000000;stroke-width:2.0px;stroke-linecap:butt;stroke-linejoin:miter;stroke-opacity:1"/>
<path class="bond-13 atom-11 atom-15" d="M 65.5,544.6 L 90.3,567.9" style="fill:none;fill-rule:evenodd;stroke:#000000;stroke-width:2.0px;stroke-linecap:butt;stroke-linejoin:miter;stroke-opacity:1"/>
<path class="bond-14 atom-11 atom-21" d="M 67.1,537.6 L 74.8,504.9" style="fill:none;fill-rule:evenodd;stroke:#000000;stroke-width:2.0px;stroke-linecap:butt;stroke-linejoin:miter;stroke-opacity:1"/>
<path class="bond-15 atom-12 atom-15" d="M 87.7,606.0 L 97.1,565.9" style="fill:none;fill-rule:evenodd;stroke:#000000;stroke-width:2.0px;stroke-linecap:butt;stroke-linejoin:miter;stroke-opacity:1"/>
<path class="bond-16 atom-12 atom-22" d="M 87.7,606.0 L 111.0,627.9" style="fill:none;fill-rule:evenodd;stroke:#000000;stroke-width:2.0px;stroke-linecap:butt;stroke-linejoin:miter;stroke-opacity:1"/>
<path class="bond-17 atom-13 atom-17" d="M 272.8,571.9 L 311.7,585.5" style="fill:none;fill-rule:evenodd;stroke:#000000;stroke-width:2.0px;stroke-linecap:butt;stroke-linejoin:miter;stroke-opacity:1"/>
<path class="bond-18 atom-13 atom-19" d="M 272.8,571.9 L 263.1,539.6" style="fill:none;fill-rule:evenodd;stroke:#000000;stroke-width:2.0px;stroke-linecap:butt;stroke-linejoin:miter;stroke-opacity:1"/>
<path class="bond-18 atom-13 atom-19" d="M 265.6,569.4 L 257.1,541.4" style="fill:none;fill-rule:evenodd;stroke:#000000;stroke-width:2.0px;stroke-linecap:butt;stroke-linejoin:miter;stroke-opacity:1"/>
<path class="bond-19 atom-14 atom-18" d="M 206.1,570.4 L 172.4,580.5" style="fill:none;fill-rule:evenodd;stroke:#000000;stroke-width:2.0px;stroke-linecap:butt;stroke-linejoin:miter;stroke-opacity:1"/>
<path class="bond-20 atom-14 atom-23" d="M 206.1,570.4 L 217.1,539.0" style="fill:none;fill-rule:evenodd;stroke:#000000;stroke-width:2.0px;stroke-linecap:butt;stroke-linejoin:miter;stroke-opacity:1"/>
<path class="bond-21 atom-15 atom-16" d="M 97.1,565.9 L 136.6,554.0" style="fill:none;fill-rule:evenodd;stroke:#000000;stroke-width:2.0px;stroke-linecap:butt;stroke-linejoin:miter;stroke-opacity:1"/>
<path class="bond-22 atom-16 atom-18" d="M 136.6,554.0 L 160.8,576.8" style="fill:none;fill-rule:evenodd;stroke:#000000;stroke-width:2.0px;stroke-linecap:butt;stroke-linejoin:miter;stroke-opacity:1"/>
<path class="bond-23 atom-16 atom-20" d="M 139.2,556.5 L 147.3,522.1" style="fill:none;fill-rule:evenodd;stroke:#000000;stroke-width:2.0px;stroke-linecap:butt;stroke-linejoin:miter;stroke-opacity:1"/>
<path class="bond-23 atom-16 atom-20" d="M 133.2,555.0 L 141.3,520.6" style="fill:none;fill-rule:evenodd;stroke:#000000;stroke-width:2.0px;stroke-linecap:butt;stroke-linejoin:miter;stroke-opacity:1"/>
<path class="bond-24 atom-19 atom-23" d="M 255.1,532.3 L 226.4,531.7" style="fill:none;fill-rule:evenodd;stroke:#000000;stroke-width:2.0px;stroke-linecap:butt;stroke-linejoin:miter;stroke-opacity:1"/>
<path d="M 327.3,546.2 L 325.3,546.6 L 324.6,548.6" style="fill:none;stroke:#000000;stroke-width:2.0px;stroke-linecap:butt;stroke-linejoin:miter;stroke-opacity:1;"/>
<path d="M 352.1,597.8 L 350.6,599.1 L 348.6,598.4" style="fill:none;stroke:#000000;stroke-width:2.0px;stroke-linecap:butt;stroke-linejoin:miter;stroke-opacity:1;"/>
<path d="M 18.7,587.6 L 18.2,589.6 L 19.7,591.0" style="fill:none;stroke:#000000;stroke-width:2.0px;stroke-linecap:butt;stroke-linejoin:miter;stroke-opacity:1;"/>
<path d="M 27.2,551.5 L 27.7,549.5 L 29.6,548.9" style="fill:none;stroke:#000000;stroke-width:2.0px;stroke-linecap:butt;stroke-linejoin:miter;stroke-opacity:1;"/>
<path d="M 46.7,616.4 L 48.2,617.8 L 50.2,617.3" style="fill:none;stroke:#000000;stroke-width:2.0px;stroke-linecap:butt;stroke-linejoin:miter;stroke-opacity:1;"/>
<path d="M 240.6,594.2 L 238.9,595.4 L 237.2,594.1" style="fill:none;stroke:#000000;stroke-width:2.0px;stroke-linecap:butt;stroke-linejoin:miter;stroke-opacity:1;"/>
<path d="M 134.6,554.6 L 136.6,554.0 L 137.8,555.2" style="fill:none;stroke:#000000;stroke-width:2.0px;stroke-linecap:butt;stroke-linejoin:miter;stroke-opacity:1;"/>
<path class="atom-18" d="M 164.0 576.4 L 167.9 582.6 Q 168.2 583.2, 168.8 584.3 Q 169.5 585.4, 169.5 585.5 L 169.5 576.4 L 171.0 576.4 L 171.0 588.1 L 169.4 588.1 L 165.3 581.3 Q 164.9 580.6, 164.3 579.6 Q 163.9 578.7, 163.7 578.5 L 163.7 588.1 L 162.2 588.1 L 162.2 576.4 L 164.0 576.4 " fill="#000000"/>
<path class="atom-18" d="M 162.0 589.3 L 163.6 589.3 L 163.6 594.2 L 169.6 594.2 L 169.6 589.3 L 171.2 589.3 L 171.2 600.9 L 169.6 600.9 L 169.6 595.6 L 163.6 595.6 L 163.6 600.9 L 162.0 600.9 L 162.0 589.3 " fill="#000000"/>
<path class="atom-19" d="M 258.3 526.6 L 262.2 532.8 Q 262.5 533.4, 263.1 534.5 Q 263.8 535.6, 263.8 535.7 L 263.8 526.6 L 265.3 526.6 L 265.3 538.3 L 263.7 538.3 L 259.6 531.5 Q 259.2 530.7, 258.6 529.8 Q 258.1 528.9, 258.0 528.6 L 258.0 538.3 L 256.5 538.3 L 256.5 526.6 L 258.3 526.6 " fill="#000000"/>
<path class="atom-20" d="M 140.7 513.9 Q 140.7 511.1, 142.1 509.6 Q 143.5 508.0, 146.1 508.0 Q 148.7 508.0, 150.1 509.6 Q 151.4 511.1, 151.4 513.9 Q 151.4 516.8, 150.0 518.4 Q 148.6 520.0, 146.1 520.0 Q 143.5 520.0, 142.1 518.4 Q 140.7 516.8, 140.7 513.9 M 146.1 518.7 Q 147.9 518.7, 148.8 517.5 Q 149.8 516.3, 149.8 513.9 Q 149.8 511.6, 148.8 510.5 Q 147.9 509.3, 146.1 509.3 Q 144.3 509.3, 143.3 510.5 Q 142.4 511.6, 142.4 513.9 Q 142.4 516.3, 143.3 517.5 Q 144.3 518.7, 146.1 518.7 " fill="#000000"/>
<path class="atom-21" d="M 71.2 497.5 Q 71.2 494.7, 72.6 493.2 Q 74.0 491.6, 76.6 491.6 Q 79.2 491.6, 80.6 493.2 Q 82.0 494.7, 82.0 497.5 Q 82.0 500.4, 80.6 502.0 Q 79.1 503.6, 76.6 503.6 Q 74.0 503.6, 72.6 502.0 Q 71.2 500.4, 71.2 497.5 M 76.6 502.3 Q 78.4 502.3, 79.3 501.1 Q 80.3 499.9, 80.3 497.5 Q 80.3 495.2, 79.3 494.1 Q 78.4 492.9, 76.6 492.9 Q 74.8 492.9, 73.8 494.1 Q 72.9 495.2, 72.9 497.5 Q 72.9 499.9, 73.8 501.1 Q 74.8 502.3, 76.6 502.3 " fill="#000000"/>
<path class="atom-22" d="M 112.3 634.3 Q 112.3 631.5, 113.7 629.9 Q 115.1 628.3, 117.7 628.3 Q 120.3 628.3, 121.6 629.9 Q 123.0 631.5, 123.0 634.3 Q 123.0 637.1, 121.6 638.7 Q 120.2 640.3, 117.7 640.3 Q 115.1 640.3, 113.7 638.7 Q 112.3 637.1, 112.3 634.3 M 117.7 639.0 Q 119.5 639.0, 120.4 637.8 Q 121.4 636.6, 121.4 634.3 Q 121.4 632.0, 120.4 630.8 Q 119.5 629.7, 117.7 629.7 Q 115.9 629.7, 114.9 630.8 Q 114.0 632.0, 114.0 634.3 Q 114.0 636.6, 114.9 637.8 Q 115.9 639.0, 117.7 639.0 " fill="#000000"/>
<path class="atom-23" d="M 214.3 531.5 Q 214.3 528.7, 215.7 527.2 Q 217.1 525.6, 219.7 525.6 Q 222.3 525.6, 223.7 527.2 Q 225.1 528.7, 225.1 531.5 Q 225.1 534.4, 223.7 536.0 Q 222.3 537.6, 219.7 537.6 Q 217.1 537.6, 215.7 536.0 Q 214.3 534.4, 214.3 531.5 M 219.7 536.3 Q 221.5 536.3, 222.4 535.1 Q 223.4 533.9, 223.4 531.5 Q 223.4 529.2, 222.4 528.1 Q 221.5 526.9, 219.7 526.9 Q 217.9 526.9, 216.9 528.1 Q 216.0 529.2, 216.0 531.5 Q 216.0 533.9, 216.9 535.1 Q 217.9 536.3, 219.7 536.3 " fill="#000000"/>
<path class="legend" d="M 175.2 784.1 Q 175.2 781.3, 176.5 779.8 Q 177.8 778.4, 180.3 778.4 Q 182.7 778.4, 183.9 780.0 L 182.9 780.9 Q 181.9 779.7, 180.3 779.7 Q 178.6 779.7, 177.7 780.8 Q 176.8 782.0, 176.8 784.1 Q 176.8 786.4, 177.7 787.5 Q 178.7 788.7, 180.5 788.7 Q 181.8 788.7, 183.2 787.9 L 183.7 789.1 Q 183.1 789.5, 182.2 789.7 Q 181.3 790.0, 180.3 790.0 Q 177.8 790.0, 176.5 788.4 Q 175.2 786.9, 175.2 784.1 " fill="#000000"/>
<path class="legend" d="M 185.1 777.7 L 186.5 777.7 L 186.5 789.8 L 185.1 789.8 L 185.1 777.7 " fill="#000000"/>
<path class="legend" d="M 188.4 787.6 Q 188.4 786.3, 189.5 785.6 Q 190.6 784.8, 192.5 784.8 L 193.7 784.8 L 193.7 784.5 Q 193.7 783.5, 193.3 783.1 Q 192.9 782.6, 191.8 782.6 Q 191.2 782.6, 190.7 782.8 Q 190.2 782.9, 189.4 783.2 L 188.9 782.2 Q 190.4 781.4, 191.9 781.4 Q 193.6 781.4, 194.4 782.2 Q 195.2 782.9, 195.2 784.5 L 195.2 789.8 L 194.0 789.8 Q 194.0 789.7, 194.0 789.5 Q 193.9 789.2, 193.8 788.8 Q 192.7 790.0, 191.1 790.0 Q 189.9 790.0, 189.2 789.3 Q 188.4 788.7, 188.4 787.6 M 189.9 787.6 Q 189.9 788.2, 190.3 788.5 Q 190.7 788.8, 191.4 788.8 Q 192.1 788.8, 192.7 788.5 Q 193.3 788.2, 193.7 787.7 L 193.7 786.0 L 192.6 786.0 Q 191.3 786.0, 190.6 786.4 Q 189.9 786.8, 189.9 787.6 " fill="#000000"/>
<path class="legend" d="M 197.4 788.1 Q 198.1 788.4, 198.7 788.6 Q 199.2 788.7, 199.7 788.7 Q 200.5 788.7, 200.9 788.4 Q 201.3 788.1, 201.3 787.5 Q 201.3 787.1, 201.1 786.9 Q 200.8 786.7, 200.6 786.6 Q 200.3 786.4, 199.6 786.2 Q 199.5 786.2, 198.7 785.9 Q 198.0 785.7, 197.6 785.1 Q 197.2 784.6, 197.2 783.8 Q 197.2 782.8, 198.0 782.1 Q 198.8 781.4, 200.3 781.4 Q 200.9 781.4, 201.4 781.6 Q 202.0 781.7, 202.6 782.0 L 202.2 783.2 Q 201.7 782.9, 201.2 782.8 Q 200.7 782.7, 200.3 782.7 Q 199.5 782.7, 199.1 783.0 Q 198.7 783.3, 198.7 783.8 Q 198.7 784.2, 199.0 784.4 Q 199.3 784.6, 200.0 784.9 Q 200.2 784.9, 200.3 785.0 L 200.7 785.1 Q 201.4 785.4, 201.8 785.6 Q 202.2 785.8, 202.5 786.3 Q 202.8 786.7, 202.8 787.5 Q 202.8 788.7, 201.9 789.3 Q 201.1 790.0, 199.8 790.0 Q 199.0 790.0, 198.3 789.8 Q 197.6 789.6, 197.0 789.3 L 197.4 788.1 " fill="#000000"/>
<path class="legend" d="M 204.6 788.1 Q 205.3 788.4, 205.8 788.6 Q 206.4 788.7, 206.9 788.7 Q 207.7 788.7, 208.1 788.4 Q 208.5 788.1, 208.5 787.5 Q 208.5 787.1, 208.2 786.9 Q 208.0 786.7, 207.8 786.6 Q 207.5 786.4, 206.8 786.2 Q 206.7 786.2, 205.9 785.9 Q 205.2 785.7, 204.8 785.1 Q 204.4 784.6, 204.4 783.8 Q 204.4 782.8, 205.2 782.1 Q 206.0 781.4, 207.4 781.4 Q 208.1 781.4, 208.6 781.6 Q 209.2 781.7, 209.8 782.0 L 209.4 783.2 Q 208.9 782.9, 208.4 782.8 Q 207.9 782.7, 207.4 782.7 Q 206.7 782.7, 206.3 783.0 Q 205.9 783.3, 205.9 783.8 Q 205.9 784.2, 206.2 784.4 Q 206.5 784.6, 207.2 784.9 Q 207.4 784.9, 207.5 785.0 L 207.9 785.1 Q 208.6 785.4, 209.0 785.6 Q 209.4 785.8, 209.7 786.3 Q 210.0 786.7, 210.0 787.5 Q 210.0 788.7, 209.1 789.3 Q 208.3 790.0, 206.9 790.0 Q 206.2 790.0, 205.5 789.8 Q 204.8 789.6, 204.1 789.3 L 204.6 788.1 " fill="#000000"/>
<path class="legend" d="" fill="#000000"/>
<path class="legend" d="M 217.2 780.6 Q 217.6 779.6, 218.6 779.0 Q 219.6 778.4, 221.0 778.4 Q 222.7 778.4, 223.7 779.3 Q 224.6 780.2, 224.6 781.9 Q 224.6 783.5, 223.4 785.1 Q 222.1 786.7, 219.6 788.5 L 224.8 788.5 L 224.8 789.8 L 217.2 789.8 L 217.2 788.7 Q 219.3 787.2, 220.5 786.1 Q 221.8 785.0, 222.4 784.0 Q 223.0 783.0, 223.0 781.9 Q 223.0 780.8, 222.5 780.2 Q 221.9 779.6, 221.0 779.6 Q 220.1 779.6, 219.5 780.0 Q 218.9 780.4, 218.4 781.2 L 217.2 780.6 " fill="#000000"/>
<path class="bond-0 atom-19 atom-0" d="M 668.0,582.8 L 704.5,582.0 L 704.2,587.5 Z" style="fill:#000000;fill-rule:evenodd;fill-opacity:1;stroke:#000000;stroke-width:0.5px;stroke-linecap:butt;stroke-linejoin:miter;stroke-opacity:1;"/>
<path class="bond-1 atom-20 atom-1" d="M 558.9,577.0 L 538.1,607.0 L 533.8,603.5 Z" style="fill:#000000;fill-rule:evenodd;fill-opacity:1;stroke:#000000;stroke-width:0.5px;stroke-linecap:butt;stroke-linejoin:miter;stroke-opacity:1;"/>
<path class="bond-2 atom-2 atom-3" d="M 671.3,519.8 L 635.0,517.9" style="fill:none;fill-rule:evenodd;stroke:#000000;stroke-width:2.0px;stroke-linecap:butt;stroke-linejoin:miter;stroke-opacity:1"/>
<path class="bond-3 atom-2 atom-11" d="M 671.3,519.8 L 687.8,552.3" style="fill:none;fill-rule:evenodd;stroke:#000000;stroke-width:2.0px;stroke-linecap:butt;stroke-linejoin:miter;stroke-opacity:1"/>
<path class="bond-4 atom-3 atom-13" d="M 635.0,517.9 L 615.1,548.4" style="fill:none;fill-rule:evenodd;stroke:#000000;stroke-width:2.0px;stroke-linecap:butt;stroke-linejoin:miter;stroke-opacity:1"/>
<path class="bond-5 atom-4 atom-5" d="M 555.9,518.1 L 521.9,531.2" style="fill:none;fill-rule:evenodd;stroke:#000000;stroke-width:2.0px;stroke-linecap:butt;stroke-linejoin:miter;stroke-opacity:1"/>
<path class="bond-6 atom-4 atom-14" d="M 555.9,518.1 L 578.8,546.5" style="fill:none;fill-rule:evenodd;stroke:#000000;stroke-width:2.0px;stroke-linecap:butt;stroke-linejoin:miter;stroke-opacity:1"/>
<path class="bond-7 atom-5 atom-15" d="M 521.9,531.2 L 523.7,567.5" style="fill:none;fill-rule:evenodd;stroke:#000000;stroke-width:2.0px;stroke-linecap:butt;stroke-linejoin:miter;stroke-opacity:1"/>
<path class="bond-8 atom-6 atom-7" d="M 720.9,617.2 L 684.5,615.3" style="fill:none;fill-rule:evenodd;stroke:#000000;stroke-width:2.0px;stroke-linecap:butt;stroke-linejoin:miter;stroke-opacity:1"/>
<path class="bond-9 atom-6 atom-12" d="M 720.9,617.2 L 740.7,586.7" style="fill:none;fill-rule:evenodd;stroke:#000000;stroke-width:2.0px;stroke-linecap:butt;stroke-linejoin:miter;stroke-opacity:1"/>
<path class="bond-10 atom-7 atom-19" d="M 684.5,615.3 L 668.0,582.8" style="fill:none;fill-rule:evenodd;stroke:#000000;stroke-width:2.0px;stroke-linecap:butt;stroke-linejoin:miter;stroke-opacity:1"/>
<path class="bond-11 atom-8 atom-11" d="M 724.2,554.2 L 687.8,552.3" style="fill:none;fill-rule:evenodd;stroke:#000000;stroke-width:2.0px;stroke-linecap:butt;stroke-linejoin:miter;stroke-opacity:1"/>
<path class="bond-11 atom-8 atom-11" d="M 720.8,559.5 L 690.7,557.9" style="fill:none;fill-rule:evenodd;stroke:#000000;stroke-width:2.0px;stroke-linecap:butt;stroke-linejoin:miter;stroke-opacity:1"/>
<path class="bond-12 atom-8 atom-12" d="M 724.2,554.2 L 740.7,586.7" style="fill:none;fill-rule:evenodd;stroke:#000000;stroke-width:2.0px;stroke-linecap:butt;stroke-linejoin:miter;stroke-opacity:1"/>
<path class="bond-13 atom-9 atom-16" d="M 575.4,609.4 L 611.8,611.4" style="fill:none;fill-rule:evenodd;stroke:#000000;stroke-width:2.0px;stroke-linecap:butt;stroke-linejoin:miter;stroke-opacity:1"/>
<path class="bond-14 atom-9 atom-20" d="M 575.4,609.4 L 558.9,577.0" style="fill:none;fill-rule:evenodd;stroke:#000000;stroke-width:2.0px;stroke-linecap:butt;stroke-linejoin:miter;stroke-opacity:1"/>
<path class="bond-15 atom-10 atom-17" d="M 461.4,577.3 L 495.4,590.4" style="fill:none;fill-rule:evenodd;stroke:#000000;stroke-width:2.0px;stroke-linecap:butt;stroke-linejoin:miter;stroke-opacity:1"/>
<path class="bond-16 atom-10 atom-21" d="M 461.4,577.3 L 439.0,595.4" style="fill:none;fill-rule:evenodd;stroke:#000000;stroke-width:2.0px;stroke-linecap:butt;stroke-linejoin:miter;stroke-opacity:1"/>
<path class="bond-17 atom-11 atom-19" d="M 687.8,552.3 L 668.0,582.8" style="fill:none;fill-rule:evenodd;stroke:#000000;stroke-width:2.0px;stroke-linecap:butt;stroke-linejoin:miter;stroke-opacity:1"/>
<path class="bond-18 atom-12 atom-22" d="M 739.0,589.3 L 771.0,591.0" style="fill:none;fill-rule:evenodd;stroke:#000000;stroke-width:2.0px;stroke-linecap:butt;stroke-linejoin:miter;stroke-opacity:1"/>
<path class="bond-18 atom-12 atom-22" d="M 739.3,583.9 L 771.3,585.6" style="fill:none;fill-rule:evenodd;stroke:#000000;stroke-width:2.0px;stroke-linecap:butt;stroke-linejoin:miter;stroke-opacity:1"/>
<path class="bond-19 atom-13 atom-14" d="M 615.1,548.4 L 578.8,546.5" style="fill:none;fill-rule:evenodd;stroke:#000000;stroke-width:2.0px;stroke-linecap:butt;stroke-linejoin:miter;stroke-opacity:1"/>
<path class="bond-20 atom-13 atom-18" d="M 615.1,548.4 L 631.6,580.9" style="fill:none;fill-rule:evenodd;stroke:#000000;stroke-width:2.0px;stroke-linecap:butt;stroke-linejoin:miter;stroke-opacity:1"/>
<path class="bond-21 atom-14 atom-20" d="M 578.8,546.5 L 558.9,577.0" style="fill:none;fill-rule:evenodd;stroke:#000000;stroke-width:2.0px;stroke-linecap:butt;stroke-linejoin:miter;stroke-opacity:1"/>
<path class="bond-22 atom-15 atom-17" d="M 523.7,567.5 L 495.9,593.7 L 495.4,590.4 Z" style="fill:#000000;fill-rule:evenodd;fill-opacity:1;stroke:#000000;stroke-width:0.5px;stroke-linecap:butt;stroke-linejoin:miter;stroke-opacity:1;"/>
<path class="bond-22 atom-15 atom-17" d="M 523.7,567.5 L 495.4,590.4 L 492.3,589.2 Z" style="fill:#000000;fill-rule:evenodd;fill-opacity:1;stroke:#000000;stroke-width:0.5px;stroke-linecap:butt;stroke-linejoin:miter;stroke-opacity:1;"/>
<path class="bond-23 atom-15 atom-20" d="M 523.7,567.5 L 558.9,577.0" style="fill:none;fill-rule:evenodd;stroke:#000000;stroke-width:2.0px;stroke-linecap:butt;stroke-linejoin:miter;stroke-opacity:1"/>
<path class="bond-24 atom-16 atom-18" d="M 611.8,611.4 L 631.6,580.9" style="fill:none;fill-rule:evenodd;stroke:#000000;stroke-width:2.0px;stroke-linecap:butt;stroke-linejoin:miter;stroke-opacity:1"/>
<path class="bond-25 atom-16 atom-23" d="M 611.8,611.4 L 626.8,635.0 L 622.0,637.5 Z" style="fill:#000000;fill-rule:evenodd;fill-opacity:1;stroke:#000000;stroke-width:0.5px;stroke-linecap:butt;stroke-linejoin:miter;stroke-opacity:1;"/>
<path class="bond-26 atom-17 atom-24" d="M 492.5,589.3 L 497.4,620.4" style="fill:none;fill-rule:evenodd;stroke:#000000;stroke-width:2.0px;stroke-linecap:butt;stroke-linejoin:miter;stroke-opacity:1"/>
<path class="bond-26 atom-17 atom-24" d="M 497.9,588.4 L 502.8,619.6" style="fill:none;fill-rule:evenodd;stroke:#000000;stroke-width:2.0px;stroke-linecap:butt;stroke-linejoin:miter;stroke-opacity:1"/>
<path class="bond-27 atom-18 atom-19" d="M 631.6,580.9 L 668.0,582.8" style="fill:none;fill-rule:evenodd;stroke:#000000;stroke-width:2.0px;stroke-linecap:butt;stroke-linejoin:miter;stroke-opacity:1"/>
<path class="bond-28 atom-13 atom-25" d="M 615.1,548.4 L 600.0,524.7 L 604.9,522.3 Z" style="fill:#000000;fill-rule:evenodd;fill-opacity:1;stroke:#000000;stroke-width:0.5px;stroke-linecap:butt;stroke-linejoin:miter;stroke-opacity:1;"/>
<path class="bond-29 atom-14 atom-26" d="M 580.3,549.6 L 579.7,549.9" style="fill:none;fill-rule:evenodd;stroke:#000000;stroke-width:1.0px;stroke-linecap:butt;stroke-linejoin:miter;stroke-opacity:1"/>
<path class="bond-29 atom-14 atom-26" d="M 581.9,552.8 L 580.6,553.3" style="fill:none;fill-rule:evenodd;stroke:#000000;stroke-width:1.0px;stroke-linecap:butt;stroke-linejoin:miter;stroke-opacity:1"/>
<path class="bond-29 atom-14 atom-26" d="M 583.5,556.0 L 581.6,556.7" style="fill:none;fill-rule:evenodd;stroke:#000000;stroke-width:1.0px;stroke-linecap:butt;stroke-linejoin:miter;stroke-opacity:1"/>
<path class="bond-29 atom-14 atom-26" d="M 585.1,559.2 L 582.5,560.2" style="fill:none;fill-rule:evenodd;stroke:#000000;stroke-width:1.0px;stroke-linecap:butt;stroke-linejoin:miter;stroke-opacity:1"/>
<path class="bond-29 atom-14 atom-26" d="M 586.7,562.4 L 583.5,563.6" style="fill:none;fill-rule:evenodd;stroke:#000000;stroke-width:1.0px;stroke-linecap:butt;stroke-linejoin:miter;stroke-opacity:1"/>
<path class="bond-29 atom-14 atom-26" d="M 588.3,565.6 L 584.4,567.0" style="fill:none;fill-rule:evenodd;stroke:#000000;stroke-width:1.0px;stroke-linecap:butt;stroke-linejoin:miter;stroke-opacity:1"/>
<path class="bond-29 atom-14 atom-26" d="M 589.8,568.7 L 585.4,570.5" style="fill:none;fill-rule:evenodd;stroke:#000000;stroke-width:1.0px;stroke-linecap:butt;stroke-linejoin:miter;stroke-opacity:1"/>
<path class="bond-29 atom-14 atom-26" d="M 591.4,571.9 L 586.3,573.9" style="fill:none;fill-rule:evenodd;stroke:#000000;stroke-width:1.0px;stroke-linecap:butt;stroke-linejoin:miter;stroke-opacity:1"/>
<path class="bond-30 atom-18 atom-27" d="M 633.5,583.8 L 632.9,584.1" style="fill:none;fill-rule:evenodd;stroke:#000000;stroke-width:1.0px;stroke-linecap:butt;stroke-linejoin:miter;stroke-opacity:1"/>
<path class="bond-30 atom-18 atom-27" d="M 635.4,586.8 L 634.2,587.4" style="fill:none;fill-rule:evenodd;stroke:#000000;stroke-width:1.0px;stroke-linecap:butt;stroke-linejoin:miter;stroke-opacity:1"/>
<path class="bond-30 atom-18 atom-27" d="M 637.3,589.7 L 635.5,590.7" style="fill:none;fill-rule:evenodd;stroke:#000000;stroke-width:1.0px;stroke-linecap:butt;stroke-linejoin:miter;stroke-opacity:1"/>
<path class="bond-30 atom-18 atom-27" d="M 639.2,592.7 L 636.7,593.9" style="fill:none;fill-rule:evenodd;stroke:#000000;stroke-width:1.0px;stroke-linecap:butt;stroke-linejoin:miter;stroke-opacity:1"/>
<path class="bond-30 atom-18 atom-27" d="M 641.1,595.6 L 638.0,597.2" style="fill:none;fill-rule:evenodd;stroke:#000000;stroke-width:1.0px;stroke-linecap:butt;stroke-linejoin:miter;stroke-opacity:1"/>
<path class="bond-30 atom-18 atom-27" d="M 642.9,598.6 L 639.3,600.5" style="fill:none;fill-rule:evenodd;stroke:#000000;stroke-width:1.0px;stroke-linecap:butt;stroke-linejoin:miter;stroke-opacity:1"/>
<path class="bond-30 atom-18 atom-27" d="M 644.8,601.6 L 640.6,603.7" style="fill:none;fill-rule:evenodd;stroke:#000000;stroke-width:1.0px;stroke-linecap:butt;stroke-linejoin:miter;stroke-opacity:1"/>
<path class="bond-30 atom-18 atom-27" d="M 646.7,604.5 L 641.9,607.0" style="fill:none;fill-rule:evenodd;stroke:#000000;stroke-width:1.0px;stroke-linecap:butt;stroke-linejoin:miter;stroke-opacity:1"/>
<path d="M 669.5,519.7 L 671.3,519.8 L 672.2,521.4" style="fill:none;stroke:#000000;stroke-width:2.0px;stroke-linecap:butt;stroke-linejoin:miter;stroke-opacity:1;"/>
<path d="M 636.8,518.0 L 635.0,517.9 L 634.0,519.4" style="fill:none;stroke:#000000;stroke-width:2.0px;stroke-linecap:butt;stroke-linejoin:miter;stroke-opacity:1;"/>
<path d="M 554.2,518.8 L 555.9,518.1 L 557.0,519.6" style="fill:none;stroke:#000000;stroke-width:2.0px;stroke-linecap:butt;stroke-linejoin:miter;stroke-opacity:1;"/>
<path d="M 523.6,530.5 L 521.9,531.2 L 521.9,533.0" style="fill:none;stroke:#000000;stroke-width:2.0px;stroke-linecap:butt;stroke-linejoin:miter;stroke-opacity:1;"/>
<path d="M 719.0,617.1 L 720.9,617.2 L 721.9,615.7" style="fill:none;stroke:#000000;stroke-width:2.0px;stroke-linecap:butt;stroke-linejoin:miter;stroke-opacity:1;"/>
<path d="M 686.3,615.4 L 684.5,615.3 L 683.7,613.6" style="fill:none;stroke:#000000;stroke-width:2.0px;stroke-linecap:butt;stroke-linejoin:miter;stroke-opacity:1;"/>
<path d="M 722.4,554.1 L 724.2,554.2 L 725.0,555.8" style="fill:none;stroke:#000000;stroke-width:2.0px;stroke-linecap:butt;stroke-linejoin:miter;stroke-opacity:1;"/>
<path d="M 577.2,609.5 L 575.4,609.4 L 574.6,607.8" style="fill:none;stroke:#000000;stroke-width:2.0px;stroke-linecap:butt;stroke-linejoin:miter;stroke-opacity:1;"/>
<path d="M 463.1,578.0 L 461.4,577.3 L 460.3,578.2" style="fill:none;stroke:#000000;stroke-width:2.0px;stroke-linecap:butt;stroke-linejoin:miter;stroke-opacity:1;"/>
<path d="M 739.7,588.2 L 740.7,586.7 L 739.9,585.0" style="fill:none;stroke:#000000;stroke-width:2.0px;stroke-linecap:butt;stroke-linejoin:miter;stroke-opacity:1;"/>
<path d="M 523.6,565.7 L 523.7,567.5 L 525.5,568.0" style="fill:none;stroke:#000000;stroke-width:2.0px;stroke-linecap:butt;stroke-linejoin:miter;stroke-opacity:1;"/>
<path d="M 609.9,611.3 L 611.8,611.4 L 612.8,609.9" style="fill:none;stroke:#000000;stroke-width:2.0px;stroke-linecap:butt;stroke-linejoin:miter;stroke-opacity:1;"/>
<path class="atom-21" d="M 418.2 595.1 L 419.6 595.1 L 419.6 599.5 L 424.9 599.5 L 424.9 595.1 L 426.3 595.1 L 426.3 605.5 L 424.9 605.5 L 424.9 600.7 L 419.6 600.7 L 419.6 605.5 L 418.2 605.5 L 418.2 595.1 " fill="#000000"/>
<path class="atom-21" d="M 428.4 600.3 Q 428.4 597.8, 429.6 596.4 Q 430.8 595.0, 433.1 595.0 Q 435.4 595.0, 436.6 596.4 Q 437.8 597.8, 437.8 600.3 Q 437.8 602.8, 436.6 604.2 Q 435.4 605.6, 433.1 605.6 Q 430.8 605.6, 429.6 604.2 Q 428.4 602.8, 428.4 600.3 M 433.1 604.4 Q 434.7 604.4, 435.5 603.4 Q 436.4 602.3, 436.4 600.3 Q 436.4 598.2, 435.5 597.2 Q 434.7 596.2, 433.1 596.2 Q 431.5 596.2, 430.7 597.2 Q 429.8 598.2, 429.8 600.3 Q 429.8 602.3, 430.7 603.4 Q 431.5 604.4, 433.1 604.4 " fill="#000000"/>
<path class="atom-22" d="M 772.3 588.6 Q 772.3 586.2, 773.6 584.8 Q 774.8 583.4, 777.1 583.4 Q 779.4 583.4, 780.6 584.8 Q 781.8 586.2, 781.8 588.6 Q 781.8 591.1, 780.6 592.6 Q 779.3 594.0, 777.1 594.0 Q 774.8 594.0, 773.6 592.6 Q 772.3 591.2, 772.3 588.6 M 777.1 592.8 Q 778.7 592.8, 779.5 591.8 Q 780.4 590.7, 780.4 588.6 Q 780.4 586.6, 779.5 585.6 Q 778.7 584.6, 777.1 584.6 Q 775.5 584.6, 774.7 585.6 Q 773.8 586.6, 773.8 588.6 Q 773.8 590.7, 774.7 591.8 Q 775.5 592.8, 777.1 592.8 " fill="#000000"/>
<path class="atom-23" d="M 623.5 643.9 Q 623.5 641.4, 624.8 640.0 Q 626.0 638.6, 628.3 638.6 Q 630.6 638.6, 631.8 640.0 Q 633.0 641.4, 633.0 643.9 Q 633.0 646.4, 631.8 647.8 Q 630.5 649.2, 628.3 649.2 Q 626.0 649.2, 624.8 647.8 Q 623.5 646.4, 623.5 643.9 M 628.3 648.1 Q 629.8 648.1, 630.7 647.0 Q 631.5 645.9, 631.5 643.9 Q 631.5 641.8, 630.7 640.8 Q 629.8 639.8, 628.3 639.8 Q 626.7 639.8, 625.8 640.8 Q 625.0 641.8, 625.0 643.9 Q 625.0 646.0, 625.8 647.0 Q 626.7 648.1, 628.3 648.1 " fill="#000000"/>
<path class="atom-23" d="M 634.6 638.7 L 636.0 638.7 L 636.0 643.1 L 641.3 643.1 L 641.3 638.7 L 642.7 638.7 L 642.7 649.1 L 641.3 649.1 L 641.3 644.3 L 636.0 644.3 L 636.0 649.1 L 634.6 649.1 L 634.6 638.7 " fill="#000000"/>
<path class="atom-24" d="M 496.3 626.4 Q 496.3 623.9, 497.6 622.6 Q 498.8 621.2, 501.1 621.2 Q 503.4 621.2, 504.6 622.6 Q 505.8 623.9, 505.8 626.4 Q 505.8 628.9, 504.6 630.4 Q 503.3 631.8, 501.1 631.8 Q 498.8 631.8, 497.6 630.4 Q 496.3 628.9, 496.3 626.4 M 501.1 630.6 Q 502.6 630.6, 503.5 629.6 Q 504.4 628.5, 504.4 626.4 Q 504.4 624.4, 503.5 623.4 Q 502.6 622.3, 501.1 622.3 Q 499.5 622.3, 498.6 623.4 Q 497.8 624.4, 497.8 626.4 Q 497.8 628.5, 498.6 629.6 Q 499.5 630.6, 501.1 630.6 " fill="#000000"/>
<path class="atom-25" d="M 594.6 510.8 L 596.0 510.8 L 596.0 515.2 L 601.3 515.2 L 601.3 510.8 L 602.6 510.8 L 602.6 521.1 L 601.3 521.1 L 601.3 516.3 L 596.0 516.3 L 596.0 521.1 L 594.6 521.1 L 594.6 510.8 " fill="#000000"/>
<path class="atom-26" d="M 587.7 575.3 L 589.1 575.3 L 589.1 579.7 L 594.4 579.7 L 594.4 575.3 L 595.8 575.3 L 595.8 585.6 L 594.4 585.6 L 594.4 580.9 L 589.1 580.9 L 589.1 585.6 L 587.7 585.6 L 587.7 575.3 " fill="#000000"/>
<path class="atom-27" d="M 644.1 608.2 L 645.5 608.2 L 645.5 612.5 L 650.8 612.5 L 650.8 608.2 L 652.2 608.2 L 652.2 618.5 L 650.8 618.5 L 650.8 613.7 L 645.5 613.7 L 645.5 618.5 L 644.1 618.5 L 644.1 608.2 " fill="#000000"/>
<path class="legend" d="M 575.2 784.1 Q 575.2 781.3, 576.5 779.8 Q 577.8 778.4, 580.3 778.4 Q 582.7 778.4, 583.9 780.0 L 582.9 780.9 Q 582.0 779.7, 580.3 779.7 Q 578.6 779.7, 577.7 780.8 Q 576.8 782.0, 576.8 784.1 Q 576.8 786.4, 577.7 787.5 Q 578.7 788.7, 580.5 788.7 Q 581.8 788.7, 583.2 787.9 L 583.7 789.1 Q 583.1 789.5, 582.2 789.7 Q 581.3 790.0, 580.3 790.0 Q 577.8 790.0, 576.5 788.4 Q 575.2 786.9, 575.2 784.1 " fill="#000000"/>
<path class="legend" d="M 585.1 777.7 L 586.6 777.7 L 586.6 789.8 L 585.1 789.8 L 585.1 777.7 " fill="#000000"/>
<path class="legend" d="M 588.4 787.6 Q 588.4 786.3, 589.5 785.6 Q 590.6 784.8, 592.5 784.8 L 593.7 784.8 L 593.7 784.5 Q 593.7 783.5, 593.3 783.1 Q 592.9 782.6, 591.8 782.6 Q 591.2 782.6, 590.7 782.8 Q 590.2 782.9, 589.4 783.2 L 588.9 782.2 Q 590.4 781.4, 591.9 781.4 Q 593.6 781.4, 594.4 782.2 Q 595.2 782.9, 595.2 784.5 L 595.2 789.8 L 594.0 789.8 Q 594.0 789.7, 594.0 789.5 Q 593.9 789.2, 593.8 788.8 Q 592.7 790.0, 591.2 790.0 Q 589.9 790.0, 589.2 789.3 Q 588.4 788.7, 588.4 787.6 M 590.0 787.6 Q 590.0 788.2, 590.3 788.5 Q 590.7 788.8, 591.4 788.8 Q 592.1 788.8, 592.7 788.5 Q 593.3 788.2, 593.7 787.7 L 593.7 786.0 L 592.6 786.0 Q 591.3 786.0, 590.6 786.4 Q 590.0 786.8, 590.0 787.6 " fill="#000000"/>
<path class="legend" d="M 597.4 788.1 Q 598.1 788.4, 598.7 788.6 Q 599.2 788.7, 599.7 788.7 Q 600.5 788.7, 600.9 788.4 Q 601.3 788.1, 601.3 787.5 Q 601.3 787.1, 601.1 786.9 Q 600.9 786.7, 600.6 786.6 Q 600.3 786.4, 599.6 786.2 Q 599.5 786.2, 598.8 785.9 Q 598.0 785.7, 597.6 785.1 Q 597.2 784.6, 597.2 783.8 Q 597.2 782.8, 598.0 782.1 Q 598.8 781.4, 600.3 781.4 Q 600.9 781.4, 601.4 781.6 Q 602.0 781.7, 602.6 782.0 L 602.2 783.2 Q 601.7 782.9, 601.2 782.8 Q 600.8 782.7, 600.3 782.7 Q 599.5 782.7, 599.1 783.0 Q 598.7 783.3, 598.7 783.8 Q 598.7 784.2, 599.0 784.4 Q 599.3 784.6, 600.0 784.9 Q 600.2 784.9, 600.3 785.0 L 600.7 785.1 Q 601.4 785.4, 601.8 785.6 Q 602.2 785.8, 602.5 786.3 Q 602.8 786.7, 602.8 787.5 Q 602.8 788.7, 601.9 789.3 Q 601.1 790.0, 599.8 790.0 Q 599.0 790.0, 598.3 789.8 Q 597.6 789.6, 597.0 789.3 L 597.4 788.1 " fill="#000000"/>
<path class="legend" d="M 604.6 788.1 Q 605.3 788.4, 605.9 788.6 Q 606.4 788.7, 606.9 788.7 Q 607.7 788.7, 608.1 788.4 Q 608.5 788.1, 608.5 787.5 Q 608.5 787.1, 608.3 786.9 Q 608.0 786.7, 607.8 786.6 Q 607.5 786.4, 606.8 786.2 Q 606.7 786.2, 605.9 785.9 Q 605.2 785.7, 604.8 785.1 Q 604.4 784.6, 604.4 783.8 Q 604.4 782.8, 605.2 782.1 Q 606.0 781.4, 607.5 781.4 Q 608.1 781.4, 608.6 781.6 Q 609.2 781.7, 609.8 782.0 L 609.4 783.2 Q 608.9 782.9, 608.4 782.8 Q 607.9 782.7, 607.5 782.7 Q 606.7 782.7, 606.3 783.0 Q 605.9 783.3, 605.9 783.8 Q 605.9 784.2, 606.2 784.4 Q 606.5 784.6, 607.2 784.9 Q 607.4 784.9, 607.5 785.0 L 607.9 785.1 Q 608.6 785.4, 609.0 785.6 Q 609.4 785.8, 609.7 786.3 Q 610.0 786.7, 610.0 787.5 Q 610.0 788.7, 609.1 789.3 Q 608.3 790.0, 607.0 790.0 Q 606.2 790.0, 605.5 789.8 Q 604.8 789.6, 604.2 789.3 L 604.6 788.1 " fill="#000000"/>
<path class="legend" d="" fill="#000000"/>
<path class="legend" d="M 622.6 783.8 Q 623.7 784.2, 624.3 784.9 Q 624.8 785.6, 624.8 786.7 Q 624.8 787.7, 624.3 788.4 Q 623.9 789.2, 623.0 789.6 Q 622.1 790.0, 620.9 790.0 Q 619.7 790.0, 618.8 789.6 Q 617.9 789.1, 617.2 788.3 L 618.1 787.3 Q 618.8 788.1, 619.4 788.4 Q 620.0 788.7, 620.9 788.7 Q 622.0 788.7, 622.6 788.1 Q 623.2 787.6, 623.2 786.7 Q 623.2 785.5, 622.6 785.0 Q 621.9 784.5, 620.5 784.5 L 619.7 784.5 L 619.7 783.3 L 620.4 783.3 Q 621.7 783.3, 622.3 782.8 Q 623.0 782.3, 623.0 781.2 Q 623.0 780.5, 622.4 780.1 Q 621.9 779.6, 621.0 779.6 Q 620.0 779.6, 619.4 780.0 Q 618.8 780.3, 618.4 781.2 L 617.3 780.6 Q 617.7 779.6, 618.7 779.0 Q 619.6 778.4, 621.0 778.4 Q 622.6 778.4, 623.6 779.1 Q 624.6 779.9, 624.6 781.2 Q 624.6 782.2, 624.1 782.8 Q 623.6 783.5, 622.6 783.8 " fill="#000000"/>
</svg>