<svg xmlns="http://www.w3.org/2000/svg" xmlns:rdkit="http://www.rdkit.org/xml" xmlns:xlink="http://www.w3.org/1999/xlink" version="1.1" baseProfile="full" xml:space="preserve" width="750px" height="750px" viewBox="0 0 750 750">
<!-- END OF HEADER -->
<rect style="opacity:1.0;fill:#FFFFFF;stroke:none" width="750.0" height="750.0" x="0.0" y="0.0"> </rect>
<path class="bond-0 atom-0 atom-1" d="M 71.9,40.2 L 43.1,51.6" style="fill:none;fill-rule:evenodd;stroke:#000000;stroke-width:2.0px;stroke-linecap:butt;stroke-linejoin:miter;stroke-opacity:1"/>
<path class="bond-1 atom-1 atom-2" d="M 43.1,51.6 L 22.1,74.3" style="fill:none;fill-rule:evenodd;stroke:#000000;stroke-width:2.0px;stroke-linecap:butt;stroke-linejoin:miter;stroke-opacity:1"/>
<path class="bond-2 atom-2 atom-3" d="M 22.1,74.3 L 12.9,103.9" style="fill:none;fill-rule:evenodd;stroke:#000000;stroke-width:2.0px;stroke-linecap:butt;stroke-linejoin:miter;stroke-opacity:1"/>
<path class="bond-2 atom-2 atom-3" d="M 26.2,76.7 L 17.4,105.3" style="fill:none;fill-rule:evenodd;stroke:#000000;stroke-width:2.0px;stroke-linecap:butt;stroke-linejoin:miter;stroke-opacity:1"/>
<path class="bond-3 atom-3 atom-4" d="M 12.9,103.9 L 17.6,134.5" style="fill:none;fill-rule:evenodd;stroke:#000000;stroke-width:2.0px;stroke-linecap:butt;stroke-linejoin:miter;stroke-opacity:1"/>
<path class="bond-4 atom-4 atom-5" d="M 17.6,134.5 L 35.0,160.1" style="fill:none;fill-rule:evenodd;stroke:#000000;stroke-width:2.0px;stroke-linecap:butt;stroke-linejoin:miter;stroke-opacity:1"/>
<path class="bond-4 atom-4 atom-5" d="M 22.0,132.8 L 29.1,159.7" style="fill:none;fill-rule:evenodd;stroke:#000000;stroke-width:2.0px;stroke-linecap:butt;stroke-linejoin:miter;stroke-opacity:1"/>
<path class="bond-5 atom-5 atom-6" d="M 35.0,160.1 L 61.9,175.6" style="fill:none;fill-rule:evenodd;stroke:#000000;stroke-width:2.0px;stroke-linecap:butt;stroke-linejoin:miter;stroke-opacity:1"/>
<path class="bond-6 atom-6 atom-7" d="M 59.8,174.4 L 52.2,199.0" style="fill:none;fill-rule:evenodd;stroke:#000000;stroke-width:2.0px;stroke-linecap:butt;stroke-linejoin:miter;stroke-opacity:1"/>
<path class="bond-6 atom-6 atom-7" d="M 64.2,175.8 L 56.6,200.4" style="fill:none;fill-rule:evenodd;stroke:#000000;stroke-width:2.0px;stroke-linecap:butt;stroke-linejoin:miter;stroke-opacity:1"/>
<path class="bond-7 atom-6 atom-8" d="M 61.9,175.6 L 88.4,177.6" style="fill:none;fill-rule:evenodd;stroke:#000000;stroke-width:2.0px;stroke-linecap:butt;stroke-linejoin:miter;stroke-opacity:1"/>
<path class="bond-8 atom-8 atom-9" d="M 97.1,176.2 L 121.6,166.6" style="fill:none;fill-rule:evenodd;stroke:#000000;stroke-width:2.0px;stroke-linecap:butt;stroke-linejoin:miter;stroke-opacity:1"/>
<path class="bond-9 atom-9 atom-10" d="M 121.6,166.6 L 142.6,143.8" style="fill:none;fill-rule:evenodd;stroke:#000000;stroke-width:2.0px;stroke-linecap:butt;stroke-linejoin:miter;stroke-opacity:1"/>
<path class="bond-10 atom-10 atom-11" d="M 142.6,143.8 L 163.7,166.5" style="fill:none;fill-rule:evenodd;stroke:#000000;stroke-width:2.0px;stroke-linecap:butt;stroke-linejoin:miter;stroke-opacity:1"/>
<path class="bond-10 atom-10 atom-11" d="M 147.9,142.6 L 165.3,161.4" style="fill:none;fill-rule:evenodd;stroke:#000000;stroke-width:2.0px;stroke-linecap:butt;stroke-linejoin:miter;stroke-opacity:1"/>
<path class="bond-11 atom-11 atom-12" d="M 163.7,166.5 L 193.9,159.6" style="fill:none;fill-rule:evenodd;stroke:#000000;stroke-width:2.0px;stroke-linecap:butt;stroke-linejoin:miter;stroke-opacity:1"/>
<path class="bond-12 atom-12 atom-13" d="M 193.9,159.6 L 203.0,130.0" style="fill:none;fill-rule:evenodd;stroke:#000000;stroke-width:2.0px;stroke-linecap:butt;stroke-linejoin:miter;stroke-opacity:1"/>
<path class="bond-12 atom-12 atom-13" d="M 190.3,155.7 L 197.8,131.2" style="fill:none;fill-rule:evenodd;stroke:#000000;stroke-width:2.0px;stroke-linecap:butt;stroke-linejoin:miter;stroke-opacity:1"/>
<path class="bond-13 atom-13 atom-14" d="M 203.0,130.0 L 228.8,124.1" style="fill:none;fill-rule:evenodd;stroke:#000000;stroke-width:2.0px;stroke-linecap:butt;stroke-linejoin:miter;stroke-opacity:1"/>
<path class="bond-14 atom-13 atom-15" d="M 203.0,130.0 L 182.0,107.3" style="fill:none;fill-rule:evenodd;stroke:#000000;stroke-width:2.0px;stroke-linecap:butt;stroke-linejoin:miter;stroke-opacity:1"/>
<path class="bond-15 atom-15 atom-16" d="M 182.0,107.3 L 151.8,114.2" style="fill:none;fill-rule:evenodd;stroke:#000000;stroke-width:2.0px;stroke-linecap:butt;stroke-linejoin:miter;stroke-opacity:1"/>
<path class="bond-15 atom-15 atom-16" d="M 180.4,112.5 L 155.4,118.2" style="fill:none;fill-rule:evenodd;stroke:#000000;stroke-width:2.0px;stroke-linecap:butt;stroke-linejoin:miter;stroke-opacity:1"/>
<path class="bond-16 atom-16 atom-17" d="M 151.8,114.2 L 148.0,89.2" style="fill:none;fill-rule:evenodd;stroke:#000000;stroke-width:2.0px;stroke-linecap:butt;stroke-linejoin:miter;stroke-opacity:1"/>
<path class="bond-17 atom-17 atom-18" d="M 143.4,78.2 L 129.7,58.0" style="fill:none;fill-rule:evenodd;stroke:#000000;stroke-width:2.0px;stroke-linecap:butt;stroke-linejoin:miter;stroke-opacity:1"/>
<path class="bond-18 atom-18 atom-19" d="M 129.7,58.0 L 102.8,42.5" style="fill:none;fill-rule:evenodd;stroke:#000000;stroke-width:2.0px;stroke-linecap:butt;stroke-linejoin:miter;stroke-opacity:1"/>
<path class="bond-18 atom-18 atom-19" d="M 126.4,61.5 L 100.5,46.6" style="fill:none;fill-rule:evenodd;stroke:#000000;stroke-width:2.0px;stroke-linecap:butt;stroke-linejoin:miter;stroke-opacity:1"/>
<path class="bond-19 atom-5 atom-20" d="M 35.0,160.1 L 17.6,178.9" style="fill:none;fill-rule:evenodd;stroke:#000000;stroke-width:2.0px;stroke-linecap:butt;stroke-linejoin:miter;stroke-opacity:1"/>
<path class="bond-20 atom-19 atom-0" d="M 102.8,42.5 L 71.9,40.2" style="fill:none;fill-rule:evenodd;stroke:#000000;stroke-width:2.0px;stroke-linecap:butt;stroke-linejoin:miter;stroke-opacity:1"/>
<path class="bond-21 atom-16 atom-10" d="M 151.8,114.2 L 142.6,143.8" style="fill:none;fill-rule:evenodd;stroke:#000000;stroke-width:2.0px;stroke-linecap:butt;stroke-linejoin:miter;stroke-opacity:1"/>
<path d="M 70.5,40.8 L 71.9,40.2 L 73.5,40.4" style="fill:none;stroke:#000000;stroke-width:2.0px;stroke-linecap:butt;stroke-linejoin:miter;stroke-opacity:1;"/>
<path d="M 44.6,51.0 L 43.1,51.6 L 42.1,52.7" style="fill:none;stroke:#000000;stroke-width:2.0px;stroke-linecap:butt;stroke-linejoin:miter;stroke-opacity:1;"/>
<path d="M 23.1,73.2 L 22.1,74.3 L 21.6,75.8" style="fill:none;stroke:#000000;stroke-width:2.0px;stroke-linecap:butt;stroke-linejoin:miter;stroke-opacity:1;"/>
<path d="M 13.4,102.4 L 12.9,103.9 L 13.2,105.4" style="fill:none;stroke:#000000;stroke-width:2.0px;stroke-linecap:butt;stroke-linejoin:miter;stroke-opacity:1;"/>
<path d="M 17.3,133.0 L 17.6,134.5 L 18.4,135.8" style="fill:none;stroke:#000000;stroke-width:2.0px;stroke-linecap:butt;stroke-linejoin:miter;stroke-opacity:1;"/>
<path d="M 60.5,174.8 L 61.9,175.6 L 63.2,175.7" style="fill:none;stroke:#000000;stroke-width:2.0px;stroke-linecap:butt;stroke-linejoin:miter;stroke-opacity:1;"/>
<path d="M 120.4,167.0 L 121.6,166.6 L 122.6,165.4" style="fill:none;stroke:#000000;stroke-width:2.0px;stroke-linecap:butt;stroke-linejoin:miter;stroke-opacity:1;"/>
<path d="M 162.7,165.4 L 163.7,166.5 L 165.2,166.2" style="fill:none;stroke:#000000;stroke-width:2.0px;stroke-linecap:butt;stroke-linejoin:miter;stroke-opacity:1;"/>
<path d="M 192.4,160.0 L 193.9,159.6 L 194.4,158.1" style="fill:none;stroke:#000000;stroke-width:2.0px;stroke-linecap:butt;stroke-linejoin:miter;stroke-opacity:1;"/>
<path d="M 183.0,108.5 L 182.0,107.3 L 180.4,107.7" style="fill:none;stroke:#000000;stroke-width:2.0px;stroke-linecap:butt;stroke-linejoin:miter;stroke-opacity:1;"/>
<path d="M 130.4,59.0 L 129.7,58.0 L 128.3,57.2" style="fill:none;stroke:#000000;stroke-width:2.0px;stroke-linecap:butt;stroke-linejoin:miter;stroke-opacity:1;"/>
<path d="M 104.2,43.3 L 102.8,42.5 L 101.3,42.4" style="fill:none;stroke:#000000;stroke-width:2.0px;stroke-linecap:butt;stroke-linejoin:miter;stroke-opacity:1;"/>
<path class="atom-7" d="M 48.7 205.2 Q 48.7 203.1, 49.8 201.9 Q 50.8 200.7, 52.7 200.7 Q 54.7 200.7, 55.7 201.9 Q 56.8 203.1, 56.8 205.2 Q 56.8 207.3, 55.7 208.6 Q 54.7 209.8, 52.7 209.8 Q 50.8 209.8, 49.8 208.6 Q 48.7 207.4, 48.7 205.2 M 52.7 208.8 Q 54.1 208.8, 54.8 207.9 Q 55.5 207.0, 55.5 205.2 Q 55.5 203.5, 54.8 202.6 Q 54.1 201.7, 52.7 201.7 Q 51.4 201.7, 50.7 202.6 Q 50.0 203.5, 50.0 205.2 Q 50.0 207.0, 50.7 207.9 Q 51.4 208.8, 52.7 208.8 " fill="#000000"/>
<path class="atom-8" d="M 90.8 173.5 L 93.7 178.1 Q 94.0 178.6, 94.4 179.4 Q 94.9 180.3, 94.9 180.3 L 94.9 173.5 L 96.1 173.5 L 96.1 182.3 L 94.9 182.3 L 91.8 177.2 Q 91.4 176.6, 91.0 175.9 Q 90.7 175.2, 90.6 175.0 L 90.6 182.3 L 89.4 182.3 L 89.4 173.5 L 90.8 173.5 " fill="#000000"/>
<path class="atom-8" d="M 89.3 183.1 L 90.5 183.1 L 90.5 186.9 L 95.0 186.9 L 95.0 183.1 L 96.2 183.1 L 96.2 191.9 L 95.0 191.9 L 95.0 187.9 L 90.5 187.9 L 90.5 191.9 L 89.3 191.9 L 89.3 183.1 " fill="#000000"/>
<path class="atom-14" d="M 229.8 123.4 Q 229.8 121.2, 230.9 120.1 Q 231.9 119.0, 233.8 119.0 Q 235.6 119.0, 236.6 120.2 L 235.8 120.9 Q 235.1 120.0, 233.8 120.0 Q 232.5 120.0, 231.8 120.9 Q 231.1 121.7, 231.1 123.4 Q 231.1 125.2, 231.8 126.1 Q 232.6 126.9, 234.0 126.9 Q 234.9 126.9, 236.1 126.4 L 236.4 127.3 Q 235.9 127.6, 235.3 127.8 Q 234.6 127.9, 233.8 127.9 Q 231.9 127.9, 230.9 126.8 Q 229.8 125.6, 229.8 123.4 " fill="#000000"/>
<path class="atom-14" d="M 237.5 118.4 L 238.6 118.4 L 238.6 127.8 L 237.5 127.8 L 237.5 118.4 " fill="#000000"/>
<path class="atom-17" d="M 143.1 83.6 Q 143.1 81.5, 144.1 80.4 Q 145.2 79.2, 147.1 79.2 Q 149.1 79.2, 150.1 80.4 Q 151.2 81.5, 151.2 83.6 Q 151.2 85.8, 150.1 87.0 Q 149.0 88.2, 147.1 88.2 Q 145.2 88.2, 144.1 87.0 Q 143.1 85.8, 143.1 83.6 M 147.1 87.2 Q 148.5 87.2, 149.2 86.3 Q 149.9 85.4, 149.9 83.6 Q 149.9 81.9, 149.2 81.0 Q 148.5 80.2, 147.1 80.2 Q 145.8 80.2, 145.1 81.0 Q 144.3 81.9, 144.3 83.6 Q 144.3 85.4, 145.1 86.3 Q 145.8 87.2, 147.1 87.2 " fill="#000000"/>
<path class="atom-20" d="M 11.4 178.4 L 16.6 178.4 L 16.6 179.4 L 12.5 179.4 L 12.5 182.1 L 16.1 182.1 L 16.1 183.1 L 12.5 183.1 L 12.5 187.2 L 11.4 187.2 L 11.4 178.4 " fill="#000000"/>
<path class="bond-0 atom-0 atom-1" d="M 426.5,124.7 L 305.3,124.7" style="fill:none;fill-rule:evenodd;stroke:#000000;stroke-width:2.0px;stroke-linecap:butt;stroke-linejoin:miter;stroke-opacity:1"/>
<path class="atom-0" d="M 432.6 134.5 Q 433.0 134.6, 434.3 135.1 Q 435.6 135.7, 437.0 136.1 Q 438.5 136.4, 440.0 136.4 Q 442.6 136.4, 444.2 135.1 Q 445.8 133.8, 445.8 131.5 Q 445.8 129.9, 445.0 129.0 Q 444.2 128.0, 443.0 127.5 Q 441.8 127.0, 439.8 126.4 Q 437.3 125.6, 435.8 124.9 Q 434.3 124.2, 433.2 122.7 Q 432.2 121.1, 432.2 118.6 Q 432.2 115.0, 434.6 112.8 Q 437.0 110.6, 441.8 110.6 Q 445.1 110.6, 448.8 112.2 L 447.9 115.3 Q 444.5 113.9, 441.9 113.9 Q 439.2 113.9, 437.6 115.0 Q 436.1 116.1, 436.2 118.1 Q 436.2 119.6, 436.9 120.5 Q 437.7 121.5, 438.8 122.0 Q 440.0 122.5, 441.9 123.1 Q 444.5 123.9, 446.0 124.7 Q 447.5 125.5, 448.6 127.1 Q 449.7 128.7, 449.7 131.5 Q 449.7 135.4, 447.1 137.5 Q 444.5 139.6, 440.1 139.6 Q 437.6 139.6, 435.7 139.1 Q 433.8 138.5, 431.6 137.6 L 432.6 134.5 " fill="#000000"/>
<path class="atom-0" d="M 453.6 110.5 L 457.5 110.5 L 457.5 122.6 L 471.9 122.6 L 471.9 110.5 L 475.8 110.5 L 475.8 138.9 L 471.9 138.9 L 471.9 125.8 L 457.5 125.8 L 457.5 138.9 L 453.6 138.9 L 453.6 110.5 " fill="#000000"/>
<path class="atom-1" d="M 274.2 124.8 Q 274.2 118.0, 277.6 114.2 Q 280.9 110.4, 287.2 110.4 Q 293.5 110.4, 296.9 114.2 Q 300.2 118.0, 300.2 124.8 Q 300.2 131.7, 296.8 135.6 Q 293.4 139.5, 287.2 139.5 Q 281.0 139.5, 277.6 135.6 Q 274.2 131.7, 274.2 124.8 M 287.2 136.3 Q 291.5 136.3, 293.9 133.4 Q 296.2 130.5, 296.2 124.8 Q 296.2 119.2, 293.9 116.4 Q 291.5 113.6, 287.2 113.6 Q 282.9 113.6, 280.5 116.4 Q 278.2 119.2, 278.2 124.8 Q 278.2 130.5, 280.5 133.4 Q 282.9 136.3, 287.2 136.3 " fill="#000000"/>
<path class="atom-1" d="M 304.3 115.0 L 313.9 115.0 L 313.9 117.1 L 304.3 117.1 L 304.3 115.0 " fill="#000000"/>
<path class="bond-0 atom-0 atom-1" d="M 519.9,138.9 L 574.6,107.3" style="fill:none;fill-rule:evenodd;stroke:#000000;stroke-width:2.0px;stroke-linecap:butt;stroke-linejoin:miter;stroke-opacity:1"/>
<path class="bond-1 atom-1 atom-2" d="M 574.6,107.3 L 629.3,138.9" style="fill:none;fill-rule:evenodd;stroke:#000000;stroke-width:2.0px;stroke-linecap:butt;stroke-linejoin:miter;stroke-opacity:1"/>
<path class="bond-2 atom-2 atom-3" d="M 629.3,138.9 L 683.9,107.3" style="fill:none;fill-rule:evenodd;stroke:#000000;stroke-width:2.0px;stroke-linecap:butt;stroke-linejoin:miter;stroke-opacity:1"/>
<path class="bond-3 atom-3 atom-4" d="M 683.9,107.3 L 738.6,138.9" style="fill:none;fill-rule:evenodd;stroke:#000000;stroke-width:2.0px;stroke-linecap:butt;stroke-linejoin:miter;stroke-opacity:1"/>
<path d="M 571.8,108.9 L 574.6,107.3 L 577.3,108.9" style="fill:none;stroke:#000000;stroke-width:2.0px;stroke-linecap:butt;stroke-linejoin:miter;stroke-opacity:1;"/>
<path d="M 626.5,137.3 L 629.3,138.9 L 632.0,137.3" style="fill:none;stroke:#000000;stroke-width:2.0px;stroke-linecap:butt;stroke-linejoin:miter;stroke-opacity:1;"/>
<path d="M 681.2,108.9 L 683.9,107.3 L 686.7,108.9" style="fill:none;stroke:#000000;stroke-width:2.0px;stroke-linecap:butt;stroke-linejoin:miter;stroke-opacity:1;"/>
<path class="atom-0" d="M 513.6,141.4 L 513.6,141.5 L 513.6,141.6 L 513.5,141.7 L 513.5,141.8 L 513.5,141.9 L 513.4,142.0 L 513.4,142.1 L 513.3,142.2 L 513.2,142.3 L 513.1,142.4 L 513.0,142.4 L 513.0,142.5 L 512.9,142.6 L 512.8,142.6 L 512.7,142.6 L 512.6,142.7 L 512.4,142.7 L 512.3,142.7 L 512.2,142.7 L 512.1,142.7 L 512.0,142.6 L 511.9,142.6 L 511.8,142.6 L 511.7,142.5 L 511.6,142.5 L 511.5,142.4 L 511.4,142.3 L 511.4,142.3 L 511.3,142.2 L 511.2,142.1 L 511.2,142.0 L 511.1,141.9 L 511.1,141.8 L 511.1,141.7 L 511.1,141.6 L 511.0,141.5 L 511.0,141.4 L 511.1,141.3 L 511.1,141.1 L 511.1,141.0 L 511.1,140.9 L 511.2,140.8 L 511.2,140.7 L 511.3,140.7 L 511.4,140.6 L 511.4,140.5 L 511.5,140.4 L 511.6,140.4 L 511.7,140.3 L 511.8,140.3 L 511.9,140.2 L 512.0,140.2 L 512.1,140.2 L 512.2,140.2 L 512.3,140.2 L 512.4,140.2 L 512.6,140.2 L 512.7,140.2 L 512.8,140.2 L 512.9,140.3 L 513.0,140.3 L 513.0,140.4 L 513.1,140.5 L 513.2,140.5 L 513.3,140.6 L 513.4,140.7 L 513.4,140.8 L 513.5,140.9 L 513.5,141.0 L 513.5,141.1 L 513.6,141.2 L 513.6,141.3 L 513.6,141.4 L 512.3,141.4 Z" style="fill:#000000;fill-rule:evenodd;fill-opacity:1;stroke:#000000;stroke-width:0.0px;stroke-linecap:butt;stroke-linejoin:miter;stroke-opacity:1;"/>
<path class="atom-0" d="M 513.6,136.4 L 513.6,136.5 L 513.6,136.6 L 513.5,136.7 L 513.5,136.8 L 513.5,136.9 L 513.4,137.0 L 513.4,137.1 L 513.3,137.2 L 513.2,137.2 L 513.1,137.3 L 513.0,137.4 L 513.0,137.5 L 512.9,137.5 L 512.8,137.5 L 512.7,137.6 L 512.6,137.6 L 512.4,137.6 L 512.3,137.6 L 512.2,137.6 L 512.1,137.6 L 512.0,137.6 L 511.9,137.6 L 511.8,137.5 L 511.7,137.5 L 511.6,137.4 L 511.5,137.4 L 511.4,137.3 L 511.4,137.2 L 511.3,137.1 L 511.2,137.0 L 511.2,136.9 L 511.1,136.8 L 511.1,136.7 L 511.1,136.6 L 511.1,136.5 L 511.0,136.4 L 511.0,136.3 L 511.1,136.2 L 511.1,136.1 L 511.1,136.0 L 511.1,135.9 L 511.2,135.8 L 511.2,135.7 L 511.3,135.6 L 511.4,135.5 L 511.4,135.4 L 511.5,135.4 L 511.6,135.3 L 511.7,135.3 L 511.8,135.2 L 511.9,135.2 L 512.0,135.1 L 512.1,135.1 L 512.2,135.1 L 512.3,135.1 L 512.4,135.1 L 512.6,135.1 L 512.7,135.2 L 512.8,135.2 L 512.9,135.2 L 513.0,135.3 L 513.0,135.3 L 513.1,135.4 L 513.2,135.5 L 513.3,135.6 L 513.4,135.7 L 513.4,135.7 L 513.5,135.8 L 513.5,135.9 L 513.5,136.0 L 513.6,136.2 L 513.6,136.3 L 513.6,136.4 L 512.3,136.4 Z" style="fill:#000000;fill-rule:evenodd;fill-opacity:1;stroke:#000000;stroke-width:0.0px;stroke-linecap:butt;stroke-linejoin:miter;stroke-opacity:1;"/>
<path class="bond-0 atom-0 atom-1" d="M 217.8,370.5 L 193.2,386.7" style="fill:none;fill-rule:evenodd;stroke:#000000;stroke-width:2.0px;stroke-linecap:butt;stroke-linejoin:miter;stroke-opacity:1"/>
<path class="bond-1 atom-1 atom-2" d="M 177.5,387.9 L 142.2,370.1" style="fill:none;fill-rule:evenodd;stroke:#000000;stroke-width:2.0px;stroke-linecap:butt;stroke-linejoin:miter;stroke-opacity:1"/>
<path class="bond-2 atom-2 atom-3" d="M 142.2,370.1 L 101.8,396.7" style="fill:none;fill-rule:evenodd;stroke:#000000;stroke-width:2.0px;stroke-linecap:butt;stroke-linejoin:miter;stroke-opacity:1"/>
<path class="bond-3 atom-3 atom-4" d="M 101.8,396.7 L 58.6,375.0" style="fill:none;fill-rule:evenodd;stroke:#000000;stroke-width:2.0px;stroke-linecap:butt;stroke-linejoin:miter;stroke-opacity:1"/>
<path class="bond-4 atom-4 atom-5" d="M 58.6,375.0 L 21.1,356.2" style="fill:none;fill-rule:evenodd;stroke:#000000;stroke-width:2.0px;stroke-linecap:butt;stroke-linejoin:miter;stroke-opacity:1"/>
<path class="bond-5 atom-4 atom-6" d="M 58.6,375.0 L 41.2,409.7" style="fill:none;fill-rule:evenodd;stroke:#000000;stroke-width:2.0px;stroke-linecap:butt;stroke-linejoin:miter;stroke-opacity:1"/>
<path class="bond-6 atom-4 atom-7" d="M 58.6,375.0 L 76.1,340.3" style="fill:none;fill-rule:evenodd;stroke:#000000;stroke-width:2.0px;stroke-linecap:butt;stroke-linejoin:miter;stroke-opacity:1"/>
<path d="M 143.9,371.0 L 142.2,370.1 L 140.1,371.5" style="fill:none;stroke:#000000;stroke-width:2.0px;stroke-linecap:butt;stroke-linejoin:miter;stroke-opacity:1;"/>
<path d="M 103.8,395.4 L 101.8,396.7 L 99.6,395.6" style="fill:none;stroke:#000000;stroke-width:2.0px;stroke-linecap:butt;stroke-linejoin:miter;stroke-opacity:1;"/>
<path class="atom-0" d="M 219.4 365.3 Q 219.4 362.1, 221.1 360.2 Q 222.7 358.4, 225.7 358.4 Q 228.8 358.4, 230.4 360.2 Q 232.0 362.1, 232.0 365.3 Q 232.0 368.7, 230.4 370.6 Q 228.7 372.4, 225.7 372.4 Q 222.7 372.4, 221.1 370.6 Q 219.4 368.7, 219.4 365.3 M 225.7 370.9 Q 227.8 370.9, 228.9 369.5 Q 230.1 368.1, 230.1 365.3 Q 230.1 362.6, 228.9 361.3 Q 227.8 359.9, 225.7 359.9 Q 223.6 359.9, 222.5 361.3 Q 221.4 362.6, 221.4 365.3 Q 221.4 368.1, 222.5 369.5 Q 223.6 370.9, 225.7 370.9 " fill="#000000"/>
<path class="atom-0" d="M 234.0 360.6 L 238.6 360.6 L 238.6 361.6 L 234.0 361.6 L 234.0 360.6 " fill="#000000"/>
<path class="atom-1" d="M 179.1 391.9 Q 179.1 388.6, 180.7 386.8 Q 182.3 384.9, 185.3 384.9 Q 188.4 384.9, 190.0 386.8 Q 191.6 388.6, 191.6 391.9 Q 191.6 395.2, 190.0 397.1 Q 188.3 399.0, 185.3 399.0 Q 182.3 399.0, 180.7 397.1 Q 179.1 395.2, 179.1 391.9 M 185.3 397.4 Q 187.4 397.4, 188.6 396.0 Q 189.7 394.6, 189.7 391.9 Q 189.7 389.2, 188.6 387.8 Q 187.4 386.5, 185.3 386.5 Q 183.3 386.5, 182.1 387.8 Q 181.0 389.2, 181.0 391.9 Q 181.0 394.6, 182.1 396.0 Q 183.3 397.4, 185.3 397.4 " fill="#000000"/>
<path class="atom-5" d="M 11.4 346.5 L 19.5 346.5 L 19.5 348.0 L 13.2 348.0 L 13.2 352.2 L 18.8 352.2 L 18.8 353.8 L 13.2 353.8 L 13.2 360.1 L 11.4 360.1 L 11.4 346.5 " fill="#000000"/>
<path class="atom-6" d="M 32.8 411.3 L 41.0 411.3 L 41.0 412.9 L 34.7 412.9 L 34.7 417.1 L 40.3 417.1 L 40.3 418.6 L 34.7 418.6 L 34.7 425.0 L 32.8 425.0 L 32.8 411.3 " fill="#000000"/>
<path class="atom-7" d="M 76.2 325.0 L 84.4 325.0 L 84.4 326.5 L 78.1 326.5 L 78.1 330.7 L 83.7 330.7 L 83.7 332.3 L 78.1 332.3 L 78.1 338.7 L 76.2 338.7 L 76.2 325.0 " fill="#000000"/>
<path class="bond-0 atom-0 atom-1" d="M 393.6,423.9 L 399.9,437.4" style="fill:none;fill-rule:evenodd;stroke:#000000;stroke-width:2.0px;stroke-linecap:butt;stroke-linejoin:miter;stroke-opacity:1"/>
<path class="bond-0 atom-0 atom-1" d="M 396.9,422.4 L 403.2,435.9" style="fill:none;fill-rule:evenodd;stroke:#000000;stroke-width:2.0px;stroke-linecap:butt;stroke-linejoin:miter;stroke-opacity:1"/>
<path class="bond-1 atom-1 atom-2" d="M 404.9,437.4 L 412.9,426.1" style="fill:none;fill-rule:evenodd;stroke:#000000;stroke-width:2.0px;stroke-linecap:butt;stroke-linejoin:miter;stroke-opacity:1"/>
<path class="bond-2 atom-2 atom-3" d="M 423.6,418.3 L 437.9,411.7" style="fill:none;fill-rule:evenodd;stroke:#000000;stroke-width:2.0px;stroke-linecap:butt;stroke-linejoin:miter;stroke-opacity:1"/>
<path class="bond-3 atom-3 atom-4" d="M 437.9,411.7 L 439.7,391.7" style="fill:none;fill-rule:evenodd;stroke:#000000;stroke-width:2.0px;stroke-linecap:butt;stroke-linejoin:miter;stroke-opacity:1"/>
<path class="bond-4 atom-4 atom-5" d="M 443.5,385.9 L 462.2,377.3" style="fill:none;fill-rule:evenodd;stroke:#000000;stroke-width:2.0px;stroke-linecap:butt;stroke-linejoin:miter;stroke-opacity:1"/>
<path class="bond-5 atom-5 atom-6" d="M 460.3,378.2 L 477.0,390.0" style="fill:none;fill-rule:evenodd;stroke:#000000;stroke-width:2.0px;stroke-linecap:butt;stroke-linejoin:miter;stroke-opacity:1"/>
<path class="bond-5 atom-5 atom-6" d="M 462.4,375.2 L 479.1,387.0" style="fill:none;fill-rule:evenodd;stroke:#000000;stroke-width:2.0px;stroke-linecap:butt;stroke-linejoin:miter;stroke-opacity:1"/>
<path class="bond-6 atom-5 atom-7" d="M 462.2,377.3 L 464.4,353.1" style="fill:none;fill-rule:evenodd;stroke:#000000;stroke-width:2.0px;stroke-linecap:butt;stroke-linejoin:miter;stroke-opacity:1"/>
<path class="bond-7 atom-7 atom-8" d="M 464.4,353.1 L 486.4,342.9" style="fill:none;fill-rule:evenodd;stroke:#000000;stroke-width:2.0px;stroke-linecap:butt;stroke-linejoin:miter;stroke-opacity:1"/>
<path class="bond-7 atom-7 atom-8" d="M 464.8,348.9 L 483.0,340.5" style="fill:none;fill-rule:evenodd;stroke:#000000;stroke-width:2.0px;stroke-linecap:butt;stroke-linejoin:miter;stroke-opacity:1"/>
<path class="bond-8 atom-8 atom-9" d="M 486.4,342.9 L 488.6,318.7" style="fill:none;fill-rule:evenodd;stroke:#000000;stroke-width:2.0px;stroke-linecap:butt;stroke-linejoin:miter;stroke-opacity:1"/>
<path class="bond-9 atom-9 atom-10" d="M 488.6,318.7 L 468.8,304.7" style="fill:none;fill-rule:evenodd;stroke:#000000;stroke-width:2.0px;stroke-linecap:butt;stroke-linejoin:miter;stroke-opacity:1"/>
<path class="bond-9 atom-9 atom-10" d="M 484.8,320.5 L 468.4,308.9" style="fill:none;fill-rule:evenodd;stroke:#000000;stroke-width:2.0px;stroke-linecap:butt;stroke-linejoin:miter;stroke-opacity:1"/>
<path class="bond-10 atom-10 atom-11" d="M 468.8,304.7 L 446.7,314.9" style="fill:none;fill-rule:evenodd;stroke:#000000;stroke-width:2.0px;stroke-linecap:butt;stroke-linejoin:miter;stroke-opacity:1"/>
<path class="bond-11 atom-11 atom-12" d="M 446.7,314.9 L 444.5,339.1" style="fill:none;fill-rule:evenodd;stroke:#000000;stroke-width:2.0px;stroke-linecap:butt;stroke-linejoin:miter;stroke-opacity:1"/>
<path class="bond-11 atom-11 atom-12" d="M 450.2,317.3 L 448.3,337.3" style="fill:none;fill-rule:evenodd;stroke:#000000;stroke-width:2.0px;stroke-linecap:butt;stroke-linejoin:miter;stroke-opacity:1"/>
<path class="bond-12 atom-12 atom-13" d="M 444.5,339.1 L 426.4,347.4" style="fill:none;fill-rule:evenodd;stroke:#000000;stroke-width:2.0px;stroke-linecap:butt;stroke-linejoin:miter;stroke-opacity:1"/>
<path class="bond-13 atom-13 atom-14" d="M 418.5,346.5 L 405.6,337.4" style="fill:none;fill-rule:evenodd;stroke:#000000;stroke-width:2.0px;stroke-linecap:butt;stroke-linejoin:miter;stroke-opacity:1"/>
<path class="bond-14 atom-14 atom-15" d="M 399.6,336.7 L 380.6,345.5" style="fill:none;fill-rule:evenodd;stroke:#000000;stroke-width:2.0px;stroke-linecap:butt;stroke-linejoin:miter;stroke-opacity:1"/>
<path class="bond-15 atom-15 atom-16" d="M 380.6,345.5 L 360.7,331.5" style="fill:none;fill-rule:evenodd;stroke:#000000;stroke-width:2.0px;stroke-linecap:butt;stroke-linejoin:miter;stroke-opacity:1"/>
<path class="bond-16 atom-16 atom-17" d="M 360.7,331.5 L 356.6,307.5" style="fill:none;fill-rule:evenodd;stroke:#000000;stroke-width:2.0px;stroke-linecap:butt;stroke-linejoin:miter;stroke-opacity:1"/>
<path class="bond-17 atom-17 atom-18" d="M 356.6,307.5 L 332.6,311.6" style="fill:none;fill-rule:evenodd;stroke:#000000;stroke-width:2.0px;stroke-linecap:butt;stroke-linejoin:miter;stroke-opacity:1"/>
<path class="bond-18 atom-18 atom-19" d="M 332.6,311.6 L 336.8,335.6" style="fill:none;fill-rule:evenodd;stroke:#000000;stroke-width:2.0px;stroke-linecap:butt;stroke-linejoin:miter;stroke-opacity:1"/>
<path class="bond-19 atom-19 atom-20" d="M 336.8,335.6 L 325.8,351.2" style="fill:none;fill-rule:evenodd;stroke:#000000;stroke-width:2.0px;stroke-linecap:butt;stroke-linejoin:miter;stroke-opacity:1"/>
<path class="bond-20 atom-20 atom-21" d="M 319.4,355.1 L 302.4,353.6" style="fill:none;fill-rule:evenodd;stroke:#000000;stroke-width:2.0px;stroke-linecap:butt;stroke-linejoin:miter;stroke-opacity:1"/>
<path class="bond-21 atom-21 atom-22" d="M 301.2,349.4 L 305.1,329.8" style="fill:none;fill-rule:evenodd;stroke:#000000;stroke-width:2.0px;stroke-linecap:butt;stroke-linejoin:miter;stroke-opacity:1"/>
<path class="bond-21 atom-21 atom-22" d="M 297.6,348.6 L 301.5,329.1" style="fill:none;fill-rule:evenodd;stroke:#000000;stroke-width:2.0px;stroke-linecap:butt;stroke-linejoin:miter;stroke-opacity:1"/>
<path class="bond-22 atom-21 atom-23" d="M 295.6,352.3 L 275.4,346.1" style="fill:none;fill-rule:evenodd;stroke:#000000;stroke-width:2.0px;stroke-linecap:butt;stroke-linejoin:miter;stroke-opacity:1"/>
<path class="bond-23 atom-23 atom-24" d="M 275.4,346.1 L 261.4,365.9" style="fill:none;fill-rule:evenodd;stroke:#000000;stroke-width:2.0px;stroke-linecap:butt;stroke-linejoin:miter;stroke-opacity:1"/>
<path class="bond-23 atom-23 atom-24" d="M 276.8,350.3 L 265.9,365.8" style="fill:none;fill-rule:evenodd;stroke:#000000;stroke-width:2.0px;stroke-linecap:butt;stroke-linejoin:miter;stroke-opacity:1"/>
<path class="bond-24 atom-24 atom-25" d="M 261.4,365.9 L 275.9,385.4" style="fill:none;fill-rule:evenodd;stroke:#000000;stroke-width:2.0px;stroke-linecap:butt;stroke-linejoin:miter;stroke-opacity:1"/>
<path class="bond-25 atom-25 atom-26" d="M 275.9,385.4 L 298.9,377.5" style="fill:none;fill-rule:evenodd;stroke:#000000;stroke-width:2.0px;stroke-linecap:butt;stroke-linejoin:miter;stroke-opacity:1"/>
<path class="bond-25 atom-25 atom-26" d="M 277.2,381.1 L 295.2,374.9" style="fill:none;fill-rule:evenodd;stroke:#000000;stroke-width:2.0px;stroke-linecap:butt;stroke-linejoin:miter;stroke-opacity:1"/>
<path class="bond-26 atom-26 atom-27" d="M 298.9,377.5 L 315.6,389.3" style="fill:none;fill-rule:evenodd;stroke:#000000;stroke-width:2.0px;stroke-linecap:butt;stroke-linejoin:miter;stroke-opacity:1"/>
<path class="bond-27 atom-2 atom-0" d="M 412.5,421.5 L 395.5,420.0" style="fill:none;fill-rule:evenodd;stroke:#000000;stroke-width:2.0px;stroke-linecap:butt;stroke-linejoin:miter;stroke-opacity:1"/>
<path class="bond-28 atom-12 atom-7" d="M 444.5,339.1 L 464.4,353.1" style="fill:none;fill-rule:evenodd;stroke:#000000;stroke-width:2.0px;stroke-linecap:butt;stroke-linejoin:miter;stroke-opacity:1"/>
<path class="bond-29 atom-19 atom-16" d="M 336.8,335.6 L 360.7,331.5" style="fill:none;fill-rule:evenodd;stroke:#000000;stroke-width:2.0px;stroke-linecap:butt;stroke-linejoin:miter;stroke-opacity:1"/>
<path class="bond-30 atom-26 atom-21" d="M 298.9,377.5 L 298.6,357.5" style="fill:none;fill-rule:evenodd;stroke:#000000;stroke-width:2.0px;stroke-linecap:butt;stroke-linejoin:miter;stroke-opacity:1"/>
<path d="M 437.2,412.0 L 437.9,411.7 L 438.0,410.7" style="fill:none;stroke:#000000;stroke-width:2.0px;stroke-linecap:butt;stroke-linejoin:miter;stroke-opacity:1;"/>
<path d="M 461.2,377.7 L 462.2,377.3 L 462.3,376.1" style="fill:none;stroke:#000000;stroke-width:2.0px;stroke-linecap:butt;stroke-linejoin:miter;stroke-opacity:1;"/>
<path d="M 485.3,343.4 L 486.4,342.9 L 486.5,341.7" style="fill:none;stroke:#000000;stroke-width:2.0px;stroke-linecap:butt;stroke-linejoin:miter;stroke-opacity:1;"/>
<path d="M 488.5,319.9 L 488.6,318.7 L 487.6,318.0" style="fill:none;stroke:#000000;stroke-width:2.0px;stroke-linecap:butt;stroke-linejoin:miter;stroke-opacity:1;"/>
<path d="M 469.8,305.4 L 468.8,304.7 L 467.7,305.2" style="fill:none;stroke:#000000;stroke-width:2.0px;stroke-linecap:butt;stroke-linejoin:miter;stroke-opacity:1;"/>
<path d="M 447.8,314.4 L 446.7,314.9 L 446.6,316.1" style="fill:none;stroke:#000000;stroke-width:2.0px;stroke-linecap:butt;stroke-linejoin:miter;stroke-opacity:1;"/>
<path d="M 381.5,345.0 L 380.6,345.5 L 379.6,344.8" style="fill:none;stroke:#000000;stroke-width:2.0px;stroke-linecap:butt;stroke-linejoin:miter;stroke-opacity:1;"/>
<path d="M 356.8,308.7 L 356.6,307.5 L 355.4,307.7" style="fill:none;stroke:#000000;stroke-width:2.0px;stroke-linecap:butt;stroke-linejoin:miter;stroke-opacity:1;"/>
<path d="M 333.8,311.4 L 332.6,311.6 L 332.8,312.8" style="fill:none;stroke:#000000;stroke-width:2.0px;stroke-linecap:butt;stroke-linejoin:miter;stroke-opacity:1;"/>
<path d="M 276.4,346.4 L 275.4,346.1 L 274.7,347.0" style="fill:none;stroke:#000000;stroke-width:2.0px;stroke-linecap:butt;stroke-linejoin:miter;stroke-opacity:1;"/>
<path d="M 262.1,364.9 L 261.4,365.9 L 262.1,366.9" style="fill:none;stroke:#000000;stroke-width:2.0px;stroke-linecap:butt;stroke-linejoin:miter;stroke-opacity:1;"/>
<path d="M 275.2,384.4 L 275.9,385.4 L 277.1,385.0" style="fill:none;stroke:#000000;stroke-width:2.0px;stroke-linecap:butt;stroke-linejoin:miter;stroke-opacity:1;"/>
<path class="atom-0" d="M 382.8 416.2 L 383.7 416.2 L 383.7 419.1 L 387.2 419.1 L 387.2 416.2 L 388.2 416.2 L 388.2 423.1 L 387.2 423.1 L 387.2 419.9 L 383.7 419.9 L 383.7 423.1 L 382.8 423.1 L 382.8 416.2 " fill="#000000"/>
<path class="atom-0" d="M 391.5 416.2 Q 392.7 416.2, 393.3 416.8 Q 393.9 417.3, 393.9 418.2 Q 393.9 419.2, 393.3 419.7 Q 392.7 420.3, 391.5 420.3 L 390.4 420.3 L 390.4 423.1 L 389.5 423.1 L 389.5 416.2 L 391.5 416.2 M 391.5 419.5 Q 392.2 419.5, 392.5 419.2 Q 392.9 418.9, 392.9 418.2 Q 392.9 417.6, 392.5 417.3 Q 392.2 417.0, 391.5 417.0 L 390.4 417.0 L 390.4 419.5 L 391.5 419.5 " fill="#000000"/>
<path class="atom-0" d="M 394.8 417.5 L 396.0 417.5 L 396.0 416.2 L 396.6 416.2 L 396.6 417.5 L 397.8 417.5 L 397.8 417.9 L 396.6 417.9 L 396.6 419.2 L 396.0 419.2 L 396.0 417.9 L 394.8 417.9 L 394.8 417.5 " fill="#000000"/>
<path class="atom-1" d="M 398.7 441.7 Q 398.7 440.1, 399.5 439.2 Q 400.3 438.2, 401.9 438.2 Q 403.4 438.2, 404.2 439.2 Q 405.0 440.1, 405.0 441.7 Q 405.0 443.4, 404.2 444.4 Q 403.4 445.3, 401.9 445.3 Q 400.3 445.3, 399.5 444.4 Q 398.7 443.4, 398.7 441.7 M 401.9 444.5 Q 402.9 444.5, 403.5 443.8 Q 404.0 443.1, 404.0 441.7 Q 404.0 440.4, 403.5 439.7 Q 402.9 439.0, 401.9 439.0 Q 400.8 439.0, 400.2 439.7 Q 399.7 440.4, 399.7 441.7 Q 399.7 443.1, 400.2 443.8 Q 400.8 444.5, 401.9 444.5 " fill="#000000"/>
<path class="atom-1" d="M 406.0 439.5 L 407.3 439.5 L 407.3 438.2 L 407.8 438.2 L 407.8 439.5 L 409.0 439.5 L 409.0 439.9 L 407.8 439.9 L 407.8 441.2 L 407.3 441.2 L 407.3 439.9 L 406.0 439.9 L 406.0 439.5 " fill="#000000"/>
<path class="atom-2" d="M 414.3 418.4 L 416.6 422.1 Q 416.8 422.4, 417.2 423.1 Q 417.5 423.7, 417.6 423.8 L 417.6 418.4 L 418.5 418.4 L 418.5 425.3 L 417.5 425.3 L 415.1 421.3 Q 414.8 420.8, 414.5 420.3 Q 414.2 419.8, 414.1 419.6 L 414.1 425.3 L 413.3 425.3 L 413.3 418.4 L 414.3 418.4 " fill="#000000"/>
<path class="atom-2" d="M 419.8 419.7 L 421.0 419.7 L 421.0 418.4 L 421.5 418.4 L 421.5 419.7 L 422.8 419.7 L 422.8 420.1 L 421.5 420.1 L 421.5 421.4 L 421.0 421.4 L 421.0 420.1 L 419.8 420.1 L 419.8 419.7 " fill="#000000"/>
<path class="atom-4" d="M 430.8 384.0 L 431.7 384.0 L 431.7 387.0 L 435.2 387.0 L 435.2 384.0 L 436.2 384.0 L 436.2 390.9 L 435.2 390.9 L 435.2 387.7 L 431.7 387.7 L 431.7 390.9 L 430.8 390.9 L 430.8 384.0 " fill="#000000"/>
<path class="atom-4" d="M 438.6 384.0 L 440.9 387.7 Q 441.1 388.0, 441.4 388.7 Q 441.8 389.3, 441.8 389.4 L 441.8 384.0 L 442.7 384.0 L 442.7 390.9 L 441.8 390.9 L 439.4 386.9 Q 439.1 386.5, 438.8 385.9 Q 438.5 385.4, 438.4 385.2 L 438.4 390.9 L 437.5 390.9 L 437.5 384.0 L 438.6 384.0 " fill="#000000"/>
<path class="atom-6" d="M 478.9 391.3 Q 478.9 389.7, 479.7 388.7 Q 480.5 387.8, 482.0 387.8 Q 483.6 387.8, 484.4 388.7 Q 485.2 389.7, 485.2 391.3 Q 485.2 393.0, 484.4 393.9 Q 483.5 394.9, 482.0 394.9 Q 480.5 394.9, 479.7 393.9 Q 478.9 393.0, 478.9 391.3 M 482.0 394.1 Q 483.1 394.1, 483.6 393.4 Q 484.2 392.7, 484.2 391.3 Q 484.2 390.0, 483.6 389.3 Q 483.1 388.6, 482.0 388.6 Q 481.0 388.6, 480.4 389.3 Q 479.8 390.0, 479.8 391.3 Q 479.8 392.7, 480.4 393.4 Q 481.0 394.1, 482.0 394.1 " fill="#000000"/>
<path class="atom-13" d="M 419.3 349.3 Q 419.3 347.6, 420.1 346.7 Q 420.9 345.8, 422.5 345.8 Q 424.0 345.8, 424.8 346.7 Q 425.6 347.6, 425.6 349.3 Q 425.6 351.0, 424.8 351.9 Q 424.0 352.9, 422.5 352.9 Q 421.0 352.9, 420.1 351.9 Q 419.3 351.0, 419.3 349.3 M 422.5 352.1 Q 423.5 352.1, 424.1 351.4 Q 424.7 350.7, 424.7 349.3 Q 424.7 347.9, 424.1 347.3 Q 423.5 346.6, 422.5 346.6 Q 421.4 346.6, 420.9 347.3 Q 420.3 347.9, 420.3 349.3 Q 420.3 350.7, 420.9 351.4 Q 421.4 352.1, 422.5 352.1 " fill="#000000"/>
<path class="atom-14" d="M 400.7 337.6 Q 400.8 337.7, 401.1 337.8 Q 401.4 337.9, 401.7 338.0 Q 402.1 338.1, 402.5 338.1 Q 403.1 338.1, 403.5 337.8 Q 403.9 337.5, 403.9 336.9 Q 403.9 336.5, 403.7 336.3 Q 403.5 336.1, 403.2 335.9 Q 402.9 335.8, 402.4 335.7 Q 401.8 335.5, 401.4 335.3 Q 401.1 335.1, 400.8 334.8 Q 400.6 334.4, 400.6 333.8 Q 400.6 332.9, 401.1 332.4 Q 401.7 331.8, 402.9 331.8 Q 403.7 331.8, 404.6 332.2 L 404.4 333.0 Q 403.6 332.6, 402.9 332.6 Q 402.3 332.6, 401.9 332.9 Q 401.5 333.2, 401.5 333.7 Q 401.5 334.0, 401.7 334.3 Q 401.9 334.5, 402.2 334.6 Q 402.5 334.7, 402.9 334.9 Q 403.6 335.1, 403.9 335.3 Q 404.3 335.5, 404.6 335.9 Q 404.8 336.2, 404.8 336.9 Q 404.8 337.9, 404.2 338.4 Q 403.6 338.9, 402.5 338.9 Q 401.9 338.9, 401.4 338.8 Q 401.0 338.6, 400.4 338.4 L 400.7 337.6 " fill="#000000"/>
<path class="atom-20" d="M 321.2 352.0 L 323.5 355.6 Q 323.7 356.0, 324.1 356.7 Q 324.4 357.3, 324.5 357.3 L 324.5 352.0 L 325.4 352.0 L 325.4 358.9 L 324.4 358.9 L 322.0 354.9 Q 321.7 354.4, 321.4 353.9 Q 321.1 353.4, 321.1 353.2 L 321.1 358.9 L 320.2 358.9 L 320.2 352.0 L 321.2 352.0 " fill="#000000"/>
<path class="atom-20" d="M 326.7 352.0 L 327.6 352.0 L 327.6 354.9 L 331.2 354.9 L 331.2 352.0 L 332.1 352.0 L 332.1 358.9 L 331.2 358.9 L 331.2 355.7 L 327.6 355.7 L 327.6 358.9 L 326.7 358.9 L 326.7 352.0 " fill="#000000"/>
<path class="atom-21" d="M 298.4 349.8 Q 299.6 349.8, 300.2 350.3 Q 300.8 350.9, 300.8 351.8 Q 300.8 352.8, 300.2 353.3 Q 299.6 353.9, 298.4 353.9 L 297.3 353.9 L 297.3 356.7 L 296.4 356.7 L 296.4 349.8 L 298.4 349.8 M 298.4 353.1 Q 299.1 353.1, 299.4 352.8 Q 299.8 352.4, 299.8 351.8 Q 299.8 351.2, 299.4 350.9 Q 299.1 350.6, 298.4 350.6 L 297.3 350.6 L 297.3 353.1 L 298.4 353.1 " fill="#000000"/>
<path class="atom-21" d="M 301.7 351.0 L 302.9 351.0 L 302.9 349.8 L 303.4 349.8 L 303.4 351.0 L 304.7 351.0 L 304.7 351.5 L 303.4 351.5 L 303.4 352.8 L 302.9 352.8 L 302.9 351.5 L 301.7 351.5 L 301.7 351.0 " fill="#000000"/>
<path class="atom-27" d="M 319.8 391.4 Q 320.4 391.5, 320.8 392.0 Q 321.1 392.4, 321.1 392.9 Q 321.1 393.9, 320.5 394.4 Q 319.9 395.0, 318.7 395.0 L 316.4 395.0 L 316.4 388.1 L 318.5 388.1 Q 319.6 388.1, 320.2 388.6 Q 320.8 389.0, 320.8 389.9 Q 320.8 391.0, 319.8 391.4 M 317.4 388.9 L 317.4 391.0 L 318.5 391.0 Q 319.1 391.0, 319.5 390.8 Q 319.8 390.5, 319.8 389.9 Q 319.8 388.9, 318.5 388.9 L 317.4 388.9 M 318.7 394.2 Q 319.4 394.2, 319.8 393.9 Q 320.1 393.6, 320.1 392.9 Q 320.1 392.4, 319.7 392.1 Q 319.3 391.8, 318.6 391.8 L 317.4 391.8 L 317.4 394.2 L 318.7 394.2 " fill="#000000"/>
<path class="atom-27" d="M 322.7 390.0 L 322.8 390.7 Q 323.3 389.9, 324.2 389.9 Q 324.4 389.9, 324.8 390.0 L 324.6 390.8 Q 324.2 390.7, 324.0 390.7 Q 323.6 390.7, 323.3 390.9 Q 323.1 391.0, 322.8 391.4 L 322.8 395.0 L 321.9 395.0 L 321.9 390.0 L 322.7 390.0 " fill="#000000"/>
<path class="atom-2" d="M 424.7,421.9 L 424.7,421.9 L 424.7,421.9 L 424.7,422.0 L 424.7,422.0 L 424.7,422.1 L 424.6,422.1 L 424.6,422.1 L 424.6,422.2 L 424.6,422.2 L 424.5,422.2 L 424.5,422.3 L 424.5,422.3 L 424.4,422.3 L 424.4,422.3 L 424.4,422.3 L 424.3,422.3 L 424.3,422.3 L 424.2,422.3 L 424.2,422.3 L 424.1,422.3 L 424.1,422.3 L 424.1,422.3 L 424.0,422.3 L 424.0,422.3 L 424.0,422.3 L 423.9,422.2 L 423.9,422.2 L 423.9,422.2 L 423.8,422.2 L 423.8,422.1 L 423.8,422.1 L 423.8,422.0 L 423.8,422.0 L 423.7,422.0 L 423.7,421.9 L 423.7,421.9 L 423.7,421.8 L 423.7,421.8 L 423.7,421.8 L 423.8,421.7 L 423.8,421.7 L 423.8,421.6 L 423.8,421.6 L 423.8,421.6 L 423.9,421.5 L 423.9,421.5 L 423.9,421.5 L 424.0,421.5 L 424.0,421.4 L 424.0,421.4 L 424.1,421.4 L 424.1,421.4 L 424.1,421.4 L 424.2,421.4 L 424.2,421.4 L 424.3,421.4 L 424.3,421.4 L 424.4,421.4 L 424.4,421.4 L 424.4,421.4 L 424.5,421.4 L 424.5,421.5 L 424.5,421.5 L 424.6,421.5 L 424.6,421.6 L 424.6,421.6 L 424.6,421.6 L 424.7,421.7 L 424.7,421.7 L 424.7,421.7 L 424.7,421.8 L 424.7,421.8 L 424.7,421.9 L 424.2,421.9 Z" style="fill:#000000;fill-rule:evenodd;fill-opacity:1;stroke:#000000;stroke-width:0.0px;stroke-linecap:butt;stroke-linejoin:miter;stroke-opacity:1;"/>
<path class="atom-21" d="M 295.4,353.2 L 295.4,353.3 L 295.4,353.3 L 295.4,353.4 L 295.4,353.4 L 295.4,353.4 L 295.3,353.5 L 295.3,353.5 L 295.3,353.5 L 295.3,353.6 L 295.2,353.6 L 295.2,353.6 L 295.2,353.7 L 295.1,353.7 L 295.1,353.7 L 295.1,353.7 L 295.0,353.7 L 295.0,353.7 L 294.9,353.7 L 294.9,353.7 L 294.8,353.7 L 294.8,353.7 L 294.8,353.7 L 294.7,353.7 L 294.7,353.7 L 294.7,353.6 L 294.6,353.6 L 294.6,353.6 L 294.6,353.6 L 294.5,353.5 L 294.5,353.5 L 294.5,353.5 L 294.5,353.4 L 294.5,353.4 L 294.4,353.3 L 294.4,353.3 L 294.4,353.3 L 294.4,353.2 L 294.4,353.2 L 294.4,353.1 L 294.5,353.1 L 294.5,353.1 L 294.5,353.0 L 294.5,353.0 L 294.5,352.9 L 294.6,352.9 L 294.6,352.9 L 294.6,352.9 L 294.7,352.8 L 294.7,352.8 L 294.7,352.8 L 294.8,352.8 L 294.8,352.8 L 294.8,352.8 L 294.9,352.8 L 294.9,352.8 L 295.0,352.8 L 295.0,352.8 L 295.1,352.8 L 295.1,352.8 L 295.1,352.8 L 295.2,352.8 L 295.2,352.8 L 295.2,352.9 L 295.3,352.9 L 295.3,352.9 L 295.3,353.0 L 295.3,353.0 L 295.4,353.0 L 295.4,353.1 L 295.4,353.1 L 295.4,353.2 L 295.4,353.2 L 295.4,353.2 L 294.9,353.2 Z" style="fill:#000000;fill-rule:evenodd;fill-opacity:1;stroke:#000000;stroke-width:0.0px;stroke-linecap:butt;stroke-linejoin:miter;stroke-opacity:1;"/>
<path class="bond-0 atom-0 atom-1" d="M 534.0,379.3 L 564.0,391.9" style="fill:none;fill-rule:evenodd;stroke:#000000;stroke-width:2.0px;stroke-linecap:butt;stroke-linejoin:miter;stroke-opacity:1"/>
<path class="bond-1 atom-1 atom-2" d="M 564.0,391.9 L 595.5,367.9" style="fill:none;fill-rule:evenodd;stroke:#000000;stroke-width:2.0px;stroke-linecap:butt;stroke-linejoin:miter;stroke-opacity:1"/>
<path class="bond-1 atom-1 atom-2" d="M 563.2,385.1 L 591.9,363.2" style="fill:none;fill-rule:evenodd;stroke:#000000;stroke-width:2.0px;stroke-linecap:butt;stroke-linejoin:miter;stroke-opacity:1"/>
<path class="bond-2 atom-2 atom-3" d="M 595.5,367.9 L 632.0,383.2" style="fill:none;fill-rule:evenodd;stroke:#000000;stroke-width:2.0px;stroke-linecap:butt;stroke-linejoin:miter;stroke-opacity:1"/>
<path class="bond-3 atom-3 atom-4" d="M 632.0,383.2 L 663.4,359.3" style="fill:none;fill-rule:evenodd;stroke:#000000;stroke-width:2.0px;stroke-linecap:butt;stroke-linejoin:miter;stroke-opacity:1"/>
<path class="bond-3 atom-3 atom-4" d="M 631.1,376.5 L 659.8,354.6" style="fill:none;fill-rule:evenodd;stroke:#000000;stroke-width:2.0px;stroke-linecap:butt;stroke-linejoin:miter;stroke-opacity:1"/>
<path class="bond-4 atom-4 atom-5" d="M 663.4,359.3 L 699.9,374.6" style="fill:none;fill-rule:evenodd;stroke:#000000;stroke-width:2.0px;stroke-linecap:butt;stroke-linejoin:miter;stroke-opacity:1"/>
<path class="bond-5 atom-5 atom-6" d="M 699.9,374.6 L 736.3,389.9" style="fill:none;fill-rule:evenodd;stroke:#000000;stroke-width:2.0px;stroke-linecap:butt;stroke-linejoin:miter;stroke-opacity:1"/>
<path class="bond-5 atom-5 atom-6" d="M 702.2,369.2 L 738.6,384.5" style="fill:none;fill-rule:evenodd;stroke:#000000;stroke-width:2.0px;stroke-linecap:butt;stroke-linejoin:miter;stroke-opacity:1"/>
<path class="bond-5 atom-5 atom-6" d="M 697.6,380.1 L 734.0,395.4" style="fill:none;fill-rule:evenodd;stroke:#000000;stroke-width:2.0px;stroke-linecap:butt;stroke-linejoin:miter;stroke-opacity:1"/>
<path d="M 562.5,391.2 L 564.0,391.9 L 565.6,390.7" style="fill:none;stroke:#000000;stroke-width:2.0px;stroke-linecap:butt;stroke-linejoin:miter;stroke-opacity:1;"/>
<path d="M 593.9,369.1 L 595.5,367.9 L 597.3,368.7" style="fill:none;stroke:#000000;stroke-width:2.0px;stroke-linecap:butt;stroke-linejoin:miter;stroke-opacity:1;"/>
<path d="M 630.1,382.5 L 632.0,383.2 L 633.5,382.1" style="fill:none;stroke:#000000;stroke-width:2.0px;stroke-linecap:butt;stroke-linejoin:miter;stroke-opacity:1;"/>
<path d="M 661.9,360.5 L 663.4,359.3 L 665.3,360.1" style="fill:none;stroke:#000000;stroke-width:2.0px;stroke-linecap:butt;stroke-linejoin:miter;stroke-opacity:1;"/>
<path d="M 698.1,373.9 L 699.9,374.6 L 701.7,375.4" style="fill:none;stroke:#000000;stroke-width:2.0px;stroke-linecap:butt;stroke-linejoin:miter;stroke-opacity:1;"/>
<path class="atom-0" d="M 511.4 371.0 L 512.9 371.0 L 512.9 375.8 L 518.6 375.8 L 518.6 371.0 L 520.1 371.0 L 520.1 382.2 L 518.6 382.2 L 518.6 377.1 L 512.9 377.1 L 512.9 382.2 L 511.4 382.2 L 511.4 371.0 " fill="#000000"/>
<path class="atom-0" d="M 522.4 376.6 Q 522.4 373.9, 523.7 372.4 Q 525.1 370.9, 527.6 370.9 Q 530.0 370.9, 531.4 372.4 Q 532.7 373.9, 532.7 376.6 Q 532.7 379.3, 531.4 380.9 Q 530.0 382.4, 527.6 382.4 Q 525.1 382.4, 523.7 380.9 Q 522.4 379.3, 522.4 376.6 M 527.6 381.1 Q 529.3 381.1, 530.2 380.0 Q 531.1 378.8, 531.1 376.6 Q 531.1 374.4, 530.2 373.3 Q 529.3 372.2, 527.6 372.2 Q 525.9 372.2, 524.9 373.3 Q 524.0 374.4, 524.0 376.6 Q 524.0 378.9, 524.9 380.0 Q 525.9 381.1, 527.6 381.1 " fill="#000000"/>
<path class="bond-0 atom-0 atom-1" d="M 151.0,597.6 L 149.5,620.0" style="fill:none;fill-rule:evenodd;stroke:#000000;stroke-width:2.0px;stroke-linecap:butt;stroke-linejoin:miter;stroke-opacity:1"/>
<path class="bond-0 atom-0 atom-1" d="M 147.1,597.3 L 145.6,619.7" style="fill:none;fill-rule:evenodd;stroke:#000000;stroke-width:2.0px;stroke-linecap:butt;stroke-linejoin:miter;stroke-opacity:1"/>
<path class="bond-1 atom-1 atom-2" d="M 147.6,618.7 L 169.1,633.1" style="fill:none;fill-rule:evenodd;stroke:#000000;stroke-width:2.0px;stroke-linecap:butt;stroke-linejoin:miter;stroke-opacity:1"/>
<path class="bond-2 atom-2 atom-3" d="M 169.1,633.1 L 192.3,621.7" style="fill:none;fill-rule:evenodd;stroke:#000000;stroke-width:2.0px;stroke-linecap:butt;stroke-linejoin:miter;stroke-opacity:1"/>
<path class="bond-3 atom-3 atom-4" d="M 192.3,621.7 L 194.0,595.9" style="fill:none;fill-rule:evenodd;stroke:#000000;stroke-width:2.0px;stroke-linecap:butt;stroke-linejoin:miter;stroke-opacity:1"/>
<path class="bond-3 atom-3 atom-4" d="M 196.3,619.7 L 197.7,598.4" style="fill:none;fill-rule:evenodd;stroke:#000000;stroke-width:2.0px;stroke-linecap:butt;stroke-linejoin:miter;stroke-opacity:1"/>
<path class="bond-4 atom-4 atom-5" d="M 194.0,595.9 L 217.2,584.5" style="fill:none;fill-rule:evenodd;stroke:#000000;stroke-width:2.0px;stroke-linecap:butt;stroke-linejoin:miter;stroke-opacity:1"/>
<path class="bond-5 atom-5 atom-6" d="M 217.2,584.5 L 238.6,598.9" style="fill:none;fill-rule:evenodd;stroke:#000000;stroke-width:2.0px;stroke-linecap:butt;stroke-linejoin:miter;stroke-opacity:1"/>
<path class="bond-5 atom-5 atom-6" d="M 216.9,589.0 L 234.6,600.8" style="fill:none;fill-rule:evenodd;stroke:#000000;stroke-width:2.0px;stroke-linecap:butt;stroke-linejoin:miter;stroke-opacity:1"/>
<path class="bond-6 atom-6 atom-7" d="M 238.6,598.9 L 236.9,624.6" style="fill:none;fill-rule:evenodd;stroke:#000000;stroke-width:2.0px;stroke-linecap:butt;stroke-linejoin:miter;stroke-opacity:1"/>
<path class="bond-7 atom-7 atom-8" d="M 236.9,624.6 L 213.8,636.1" style="fill:none;fill-rule:evenodd;stroke:#000000;stroke-width:2.0px;stroke-linecap:butt;stroke-linejoin:miter;stroke-opacity:1"/>
<path class="bond-7 atom-7 atom-8" d="M 233.2,622.2 L 214.0,631.6" style="fill:none;fill-rule:evenodd;stroke:#000000;stroke-width:2.0px;stroke-linecap:butt;stroke-linejoin:miter;stroke-opacity:1"/>
<path class="bond-8 atom-8 atom-9" d="M 213.8,636.1 L 212.3,657.3" style="fill:none;fill-rule:evenodd;stroke:#000000;stroke-width:2.0px;stroke-linecap:butt;stroke-linejoin:miter;stroke-opacity:1"/>
<path class="bond-9 atom-1 atom-10" d="M 147.6,618.7 L 124.4,630.2" style="fill:none;fill-rule:evenodd;stroke:#000000;stroke-width:2.0px;stroke-linecap:butt;stroke-linejoin:miter;stroke-opacity:1"/>
<path class="bond-10 atom-10 atom-11" d="M 124.4,630.2 L 103.0,615.8" style="fill:none;fill-rule:evenodd;stroke:#000000;stroke-width:2.0px;stroke-linecap:butt;stroke-linejoin:miter;stroke-opacity:1"/>
<path class="bond-10 atom-10 atom-11" d="M 124.7,625.7 L 105.1,612.6" style="fill:none;fill-rule:evenodd;stroke:#000000;stroke-width:2.0px;stroke-linecap:butt;stroke-linejoin:miter;stroke-opacity:1"/>
<path class="bond-11 atom-11 atom-12" d="M 103.0,615.8 L 79.8,627.2" style="fill:none;fill-rule:evenodd;stroke:#000000;stroke-width:2.0px;stroke-linecap:butt;stroke-linejoin:miter;stroke-opacity:1"/>
<path class="bond-12 atom-12 atom-13" d="M 79.8,627.2 L 58.3,612.8" style="fill:none;fill-rule:evenodd;stroke:#000000;stroke-width:2.0px;stroke-linecap:butt;stroke-linejoin:miter;stroke-opacity:1"/>
<path class="bond-12 atom-12 atom-13" d="M 80.1,622.7 L 60.5,609.6" style="fill:none;fill-rule:evenodd;stroke:#000000;stroke-width:2.0px;stroke-linecap:butt;stroke-linejoin:miter;stroke-opacity:1"/>
<path class="bond-13 atom-13 atom-14" d="M 58.3,612.8 L 35.1,624.3" style="fill:none;fill-rule:evenodd;stroke:#000000;stroke-width:2.0px;stroke-linecap:butt;stroke-linejoin:miter;stroke-opacity:1"/>
<path class="bond-14 atom-14 atom-15" d="M 35.1,624.3 L 17.9,612.7" style="fill:none;fill-rule:evenodd;stroke:#000000;stroke-width:2.0px;stroke-linecap:butt;stroke-linejoin:miter;stroke-opacity:1"/>
<path class="bond-14 atom-14 atom-15" d="M 35.4,619.8 L 20.0,609.5" style="fill:none;fill-rule:evenodd;stroke:#000000;stroke-width:2.0px;stroke-linecap:butt;stroke-linejoin:miter;stroke-opacity:1"/>
<path class="bond-15 atom-8 atom-3" d="M 213.8,636.1 L 192.3,621.7" style="fill:none;fill-rule:evenodd;stroke:#000000;stroke-width:2.0px;stroke-linecap:butt;stroke-linejoin:miter;stroke-opacity:1"/>
<path d="M 148.7,619.5 L 147.6,618.7 L 146.5,619.3" style="fill:none;stroke:#000000;stroke-width:2.0px;stroke-linecap:butt;stroke-linejoin:miter;stroke-opacity:1;"/>
<path d="M 168.0,632.4 L 169.1,633.1 L 170.3,632.5" style="fill:none;stroke:#000000;stroke-width:2.0px;stroke-linecap:butt;stroke-linejoin:miter;stroke-opacity:1;"/>
<path d="M 193.9,597.2 L 194.0,595.9 L 195.1,595.3" style="fill:none;stroke:#000000;stroke-width:2.0px;stroke-linecap:butt;stroke-linejoin:miter;stroke-opacity:1;"/>
<path d="M 216.0,585.1 L 217.2,584.5 L 218.2,585.2" style="fill:none;stroke:#000000;stroke-width:2.0px;stroke-linecap:butt;stroke-linejoin:miter;stroke-opacity:1;"/>
<path d="M 237.6,598.1 L 238.6,598.9 L 238.6,600.2" style="fill:none;stroke:#000000;stroke-width:2.0px;stroke-linecap:butt;stroke-linejoin:miter;stroke-opacity:1;"/>
<path d="M 237.0,623.4 L 236.9,624.6 L 235.8,625.2" style="fill:none;stroke:#000000;stroke-width:2.0px;stroke-linecap:butt;stroke-linejoin:miter;stroke-opacity:1;"/>
<path d="M 125.6,629.6 L 124.4,630.2 L 123.4,629.4" style="fill:none;stroke:#000000;stroke-width:2.0px;stroke-linecap:butt;stroke-linejoin:miter;stroke-opacity:1;"/>
<path d="M 104.0,616.5 L 103.0,615.8 L 101.8,616.4" style="fill:none;stroke:#000000;stroke-width:2.0px;stroke-linecap:butt;stroke-linejoin:miter;stroke-opacity:1;"/>
<path d="M 80.9,626.6 L 79.8,627.2 L 78.7,626.5" style="fill:none;stroke:#000000;stroke-width:2.0px;stroke-linecap:butt;stroke-linejoin:miter;stroke-opacity:1;"/>
<path d="M 59.4,613.6 L 58.3,612.8 L 57.1,613.4" style="fill:none;stroke:#000000;stroke-width:2.0px;stroke-linecap:butt;stroke-linejoin:miter;stroke-opacity:1;"/>
<path d="M 36.3,623.7 L 35.1,624.3 L 34.3,623.7" style="fill:none;stroke:#000000;stroke-width:2.0px;stroke-linecap:butt;stroke-linejoin:miter;stroke-opacity:1;"/>
<path class="atom-0" d="M 149.1 589.3 Q 150.4 589.3, 151.0 589.9 Q 151.7 590.4, 151.7 591.5 Q 151.7 592.5, 151.0 593.0 Q 150.4 593.6, 149.1 593.6 L 148.0 593.6 L 148.0 596.6 L 147.0 596.6 L 147.0 589.3 L 149.1 589.3 M 149.1 592.8 Q 149.9 592.8, 150.2 592.4 Q 150.6 592.1, 150.6 591.5 Q 150.6 590.8, 150.2 590.5 Q 149.9 590.1, 149.1 590.1 L 148.0 590.1 L 148.0 592.8 L 149.1 592.8 " fill="#000000"/>
<path class="atom-0" d="M 152.7 589.3 L 153.7 589.3 L 153.7 592.4 L 157.4 592.4 L 157.4 589.3 L 158.4 589.3 L 158.4 596.6 L 157.4 596.6 L 157.4 593.2 L 153.7 593.2 L 153.7 596.6 L 152.7 596.6 L 152.7 589.3 " fill="#000000"/>
<path class="atom-9" d="M 213.1 661.7 Q 213.8 661.9, 214.2 662.3 Q 214.5 662.7, 214.5 663.3 Q 214.5 664.4, 213.9 664.9 Q 213.2 665.5, 212.0 665.5 L 209.6 665.5 L 209.6 658.2 L 211.7 658.2 Q 213.0 658.2, 213.6 658.7 Q 214.2 659.2, 214.2 660.1 Q 214.2 661.2, 213.1 661.7 M 210.5 659.0 L 210.5 661.3 L 211.7 661.3 Q 212.4 661.3, 212.8 661.0 Q 213.2 660.7, 213.2 660.1 Q 213.2 659.0, 211.7 659.0 L 210.5 659.0 M 212.0 664.7 Q 212.7 664.7, 213.1 664.3 Q 213.5 664.0, 213.5 663.3 Q 213.5 662.7, 213.1 662.4 Q 212.7 662.1, 211.9 662.1 L 210.5 662.1 L 210.5 664.7 L 212.0 664.7 " fill="#000000"/>
<path class="atom-9" d="M 216.2 660.2 L 216.3 660.9 Q 216.9 660.1, 217.8 660.1 Q 218.1 660.1, 218.5 660.2 L 218.3 661.1 Q 217.9 661.0, 217.6 661.0 Q 217.2 661.0, 216.9 661.1 Q 216.6 661.3, 216.4 661.7 L 216.4 665.5 L 215.4 665.5 L 215.4 660.2 L 216.2 660.2 " fill="#000000"/>
<path class="atom-15" d="M 11.4 608.3 Q 11.4 606.5, 12.2 605.6 Q 13.1 604.6, 14.7 604.6 Q 16.3 604.6, 17.2 605.6 Q 18.1 606.5, 18.1 608.3 Q 18.1 610.1, 17.2 611.1 Q 16.3 612.1, 14.7 612.1 Q 13.1 612.1, 12.2 611.1 Q 11.4 610.1, 11.4 608.3 M 14.7 611.3 Q 15.8 611.3, 16.4 610.5 Q 17.0 609.8, 17.0 608.3 Q 17.0 606.9, 16.4 606.1 Q 15.8 605.4, 14.7 605.4 Q 13.6 605.4, 13.0 606.1 Q 12.4 606.8, 12.4 608.3 Q 12.4 609.8, 13.0 610.5 Q 13.6 611.3, 14.7 611.3 " fill="#000000"/>
<path class="bond-0 atom-0 atom-1" d="M 439.5,624.9 L 466.1,624.9" style="fill:none;fill-rule:evenodd;stroke:#000000;stroke-width:2.0px;stroke-linecap:butt;stroke-linejoin:miter;stroke-opacity:1"/>
<path class="bond-1 atom-0 atom-2" d="M 415.7,615.7 L 391.6,582.6" style="fill:none;fill-rule:evenodd;stroke:#000000;stroke-width:2.0px;stroke-linecap:butt;stroke-linejoin:miter;stroke-opacity:1"/>
<path class="bond-2 atom-2 atom-3" d="M 391.6,582.6 L 341.9,598.7" style="fill:none;fill-rule:evenodd;stroke:#000000;stroke-width:2.0px;stroke-linecap:butt;stroke-linejoin:miter;stroke-opacity:1"/>
<path class="bond-2 atom-2 atom-3" d="M 388.6,591.8 L 349.7,604.4" style="fill:none;fill-rule:evenodd;stroke:#000000;stroke-width:2.0px;stroke-linecap:butt;stroke-linejoin:miter;stroke-opacity:1"/>
<path class="bond-3 atom-3 atom-4" d="M 341.9,598.7 L 341.9,651.0" style="fill:none;fill-rule:evenodd;stroke:#000000;stroke-width:2.0px;stroke-linecap:butt;stroke-linejoin:miter;stroke-opacity:1"/>
<path class="bond-4 atom-4 atom-5" d="M 341.9,651.0 L 391.6,667.2" style="fill:none;fill-rule:evenodd;stroke:#000000;stroke-width:2.0px;stroke-linecap:butt;stroke-linejoin:miter;stroke-opacity:1"/>
<path class="bond-4 atom-4 atom-5" d="M 349.7,645.3 L 388.6,658.0" style="fill:none;fill-rule:evenodd;stroke:#000000;stroke-width:2.0px;stroke-linecap:butt;stroke-linejoin:miter;stroke-opacity:1"/>
<path class="bond-5 atom-4 atom-6" d="M 341.9,651.0 L 300.6,664.4" style="fill:none;fill-rule:evenodd;stroke:#000000;stroke-width:2.0px;stroke-linecap:butt;stroke-linejoin:miter;stroke-opacity:1"/>
<path class="bond-6 atom-6 atom-7" d="M 285.4,658.0 L 261.4,624.9" style="fill:none;fill-rule:evenodd;stroke:#000000;stroke-width:2.0px;stroke-linecap:butt;stroke-linejoin:miter;stroke-opacity:1"/>
<path class="bond-7 atom-7 atom-8" d="M 261.4,624.9 L 285.2,592.0" style="fill:none;fill-rule:evenodd;stroke:#000000;stroke-width:2.0px;stroke-linecap:butt;stroke-linejoin:miter;stroke-opacity:1"/>
<path class="bond-8 atom-5 atom-0" d="M 391.6,667.2 L 415.5,634.3" style="fill:none;fill-rule:evenodd;stroke:#000000;stroke-width:2.0px;stroke-linecap:butt;stroke-linejoin:miter;stroke-opacity:1"/>
<path class="bond-9 atom-8 atom-3" d="M 300.6,585.3 L 341.9,598.7" style="fill:none;fill-rule:evenodd;stroke:#000000;stroke-width:2.0px;stroke-linecap:butt;stroke-linejoin:miter;stroke-opacity:1"/>
<path d="M 392.8,584.2 L 391.6,582.6 L 389.1,583.4" style="fill:none;stroke:#000000;stroke-width:2.0px;stroke-linecap:butt;stroke-linejoin:miter;stroke-opacity:1;"/>
<path d="M 389.1,666.4 L 391.6,667.2 L 392.8,665.6" style="fill:none;stroke:#000000;stroke-width:2.0px;stroke-linecap:butt;stroke-linejoin:miter;stroke-opacity:1;"/>
<path d="M 262.6,626.5 L 261.4,624.9 L 262.6,623.2" style="fill:none;stroke:#000000;stroke-width:2.0px;stroke-linecap:butt;stroke-linejoin:miter;stroke-opacity:1;"/>
<path class="atom-0" d="M 415.6 624.9 Q 415.6 621.4, 417.3 619.4 Q 419.1 617.4, 422.4 617.4 Q 425.6 617.4, 427.4 619.4 Q 429.2 621.4, 429.2 624.9 Q 429.2 628.5, 427.4 630.6 Q 425.6 632.6, 422.4 632.6 Q 419.1 632.6, 417.3 630.6 Q 415.6 628.5, 415.6 624.9 M 422.4 630.9 Q 424.6 630.9, 425.8 629.4 Q 427.1 627.9, 427.1 624.9 Q 427.1 622.0, 425.8 620.6 Q 424.6 619.1, 422.4 619.1 Q 420.1 619.1, 418.9 620.5 Q 417.6 622.0, 417.6 624.9 Q 417.6 627.9, 418.9 629.4 Q 420.1 630.9, 422.4 630.9 " fill="#000000"/>
<path class="atom-0" d="M 431.4 620.0 L 434.0 620.0 L 434.0 617.3 L 435.1 617.3 L 435.1 620.0 L 437.8 620.0 L 437.8 621.0 L 435.1 621.0 L 435.1 623.8 L 434.0 623.8 L 434.0 621.0 L 431.4 621.0 L 431.4 620.0 " fill="#000000"/>
<path class="atom-1" d="M 467.9 624.9 Q 467.9 621.4, 469.6 619.4 Q 471.4 617.4, 474.7 617.4 Q 477.9 617.4, 479.7 619.4 Q 481.5 621.4, 481.5 624.9 Q 481.5 628.5, 479.7 630.6 Q 477.9 632.6, 474.7 632.6 Q 471.4 632.6, 469.6 630.6 Q 467.9 628.5, 467.9 624.9 M 474.7 630.9 Q 476.9 630.9, 478.1 629.4 Q 479.4 627.9, 479.4 624.9 Q 479.4 622.0, 478.1 620.6 Q 476.9 619.1, 474.7 619.1 Q 472.4 619.1, 471.2 620.5 Q 470.0 622.0, 470.0 624.9 Q 470.0 627.9, 471.2 629.4 Q 472.4 630.9, 474.7 630.9 " fill="#000000"/>
<path class="atom-1" d="M 483.6 619.8 L 488.6 619.8 L 488.6 620.9 L 483.6 620.9 L 483.6 619.8 " fill="#000000"/>
<path class="atom-6" d="M 285.3 667.2 Q 285.3 663.7, 287.1 661.7 Q 288.8 659.7, 292.1 659.7 Q 295.4 659.7, 297.2 661.7 Q 298.9 663.7, 298.9 667.2 Q 298.9 670.8, 297.1 672.9 Q 295.4 674.9, 292.1 674.9 Q 288.8 674.9, 287.1 672.9 Q 285.3 670.9, 285.3 667.2 M 292.1 673.2 Q 294.4 673.2, 295.6 671.7 Q 296.8 670.2, 296.8 667.2 Q 296.8 664.3, 295.6 662.9 Q 294.4 661.4, 292.1 661.4 Q 289.8 661.4, 288.6 662.9 Q 287.4 664.3, 287.4 667.2 Q 287.4 670.2, 288.6 671.7 Q 289.8 673.2, 292.1 673.2 " fill="#000000"/>
<path class="atom-8" d="M 285.3 582.6 Q 285.3 579.1, 287.1 577.1 Q 288.8 575.1, 292.1 575.1 Q 295.4 575.1, 297.2 577.1 Q 298.9 579.1, 298.9 582.6 Q 298.9 586.2, 297.1 588.3 Q 295.4 590.3, 292.1 590.3 Q 288.8 590.3, 287.1 588.3 Q 285.3 586.2, 285.3 582.6 M 292.1 588.6 Q 294.4 588.6, 295.6 587.1 Q 296.8 585.6, 296.8 582.6 Q 296.8 579.7, 295.6 578.2 Q 294.4 576.8, 292.1 576.8 Q 289.8 576.8, 288.6 578.2 Q 287.4 579.7, 287.4 582.6 Q 287.4 585.6, 288.6 587.1 Q 289.8 588.6, 292.1 588.6 " fill="#000000"/>
<path class="bond-0 atom-0 atom-1" d="M 528.5,576.1 L 549.7,607.5" style="fill:none;fill-rule:evenodd;stroke:#000000;stroke-width:2.0px;stroke-linecap:butt;stroke-linejoin:miter;stroke-opacity:1"/>
<path class="bond-1 atom-1 atom-2" d="M 549.7,607.5 L 595.0,604.3" style="fill:none;fill-rule:evenodd;stroke:#000000;stroke-width:2.0px;stroke-linecap:butt;stroke-linejoin:miter;stroke-opacity:1"/>
<path class="bond-2 atom-2 atom-3" d="M 595.0,604.3 L 614.8,563.5" style="fill:none;fill-rule:evenodd;stroke:#000000;stroke-width:2.0px;stroke-linecap:butt;stroke-linejoin:miter;stroke-opacity:1"/>
<path class="bond-2 atom-2 atom-3" d="M 602.8,603.7 L 619.2,570.0" style="fill:none;fill-rule:evenodd;stroke:#000000;stroke-width:2.0px;stroke-linecap:butt;stroke-linejoin:miter;stroke-opacity:1"/>
<path class="bond-3 atom-3 atom-4" d="M 614.8,563.5 L 660.1,560.3" style="fill:none;fill-rule:evenodd;stroke:#000000;stroke-width:2.0px;stroke-linecap:butt;stroke-linejoin:miter;stroke-opacity:1"/>
<path class="bond-4 atom-4 atom-5" d="M 660.1,560.3 L 685.5,597.9" style="fill:none;fill-rule:evenodd;stroke:#000000;stroke-width:2.0px;stroke-linecap:butt;stroke-linejoin:miter;stroke-opacity:1"/>
<path class="bond-4 atom-4 atom-5" d="M 656.6,567.4 L 677.6,598.4" style="fill:none;fill-rule:evenodd;stroke:#000000;stroke-width:2.0px;stroke-linecap:butt;stroke-linejoin:miter;stroke-opacity:1"/>
<path class="bond-5 atom-5 atom-6" d="M 685.5,597.9 L 724.3,595.1" style="fill:none;fill-rule:evenodd;stroke:#000000;stroke-width:2.0px;stroke-linecap:butt;stroke-linejoin:miter;stroke-opacity:1"/>
<path class="bond-6 atom-5 atom-7" d="M 685.5,597.9 L 665.6,638.7" style="fill:none;fill-rule:evenodd;stroke:#000000;stroke-width:2.0px;stroke-linecap:butt;stroke-linejoin:miter;stroke-opacity:1"/>
<path class="bond-7 atom-7 atom-8" d="M 665.6,638.7 L 620.4,641.9" style="fill:none;fill-rule:evenodd;stroke:#000000;stroke-width:2.0px;stroke-linecap:butt;stroke-linejoin:miter;stroke-opacity:1"/>
<path class="bond-7 atom-7 atom-8" d="M 661.2,632.2 L 623.8,634.8" style="fill:none;fill-rule:evenodd;stroke:#000000;stroke-width:2.0px;stroke-linecap:butt;stroke-linejoin:miter;stroke-opacity:1"/>
<path class="bond-8 atom-8 atom-9" d="M 620.4,641.9 L 602.8,677.9" style="fill:none;fill-rule:evenodd;stroke:#000000;stroke-width:2.0px;stroke-linecap:butt;stroke-linejoin:miter;stroke-opacity:1"/>
<path class="bond-9 atom-8 atom-2" d="M 620.4,641.9 L 595.0,604.3" style="fill:none;fill-rule:evenodd;stroke:#000000;stroke-width:2.0px;stroke-linecap:butt;stroke-linejoin:miter;stroke-opacity:1"/>
<path d="M 548.6,605.9 L 549.7,607.5 L 552.0,607.3" style="fill:none;stroke:#000000;stroke-width:2.0px;stroke-linecap:butt;stroke-linejoin:miter;stroke-opacity:1;"/>
<path d="M 613.8,565.5 L 614.8,563.5 L 617.1,563.3" style="fill:none;stroke:#000000;stroke-width:2.0px;stroke-linecap:butt;stroke-linejoin:miter;stroke-opacity:1;"/>
<path d="M 657.8,560.5 L 660.1,560.3 L 661.3,562.2" style="fill:none;stroke:#000000;stroke-width:2.0px;stroke-linecap:butt;stroke-linejoin:miter;stroke-opacity:1;"/>
<path d="M 666.6,636.6 L 665.6,638.7 L 663.3,638.8" style="fill:none;stroke:#000000;stroke-width:2.0px;stroke-linecap:butt;stroke-linejoin:miter;stroke-opacity:1;"/>
<path class="atom-0" d="M 517.6 569.6 Q 518.8 569.9, 519.5 570.7 Q 520.1 571.4, 520.1 572.5 Q 520.1 574.3, 518.9 575.3 Q 517.8 576.3, 515.7 576.3 L 511.4 576.3 L 511.4 563.5 L 515.2 563.5 Q 517.4 563.5, 518.5 564.4 Q 519.6 565.3, 519.6 566.9 Q 519.6 568.8, 517.6 569.6 M 513.1 564.9 L 513.1 569.0 L 515.2 569.0 Q 516.4 569.0, 517.1 568.4 Q 517.8 567.9, 517.8 566.9 Q 517.8 564.9, 515.2 564.9 L 513.1 564.9 M 515.7 574.9 Q 516.9 574.9, 517.6 574.3 Q 518.3 573.7, 518.3 572.5 Q 518.3 571.5, 517.5 571.0 Q 516.8 570.4, 515.4 570.4 L 513.1 570.4 L 513.1 574.9 L 515.7 574.9 " fill="#000000"/>
<path class="atom-0" d="M 523.0 567.0 L 523.2 568.3 Q 524.2 566.8, 525.8 566.8 Q 526.3 566.8, 527.0 567.0 L 526.7 568.5 Q 525.9 568.4, 525.5 568.4 Q 524.7 568.4, 524.2 568.7 Q 523.7 569.0, 523.3 569.7 L 523.3 576.3 L 521.6 576.3 L 521.6 567.0 L 523.0 567.0 " fill="#000000"/>
<path class="atom-6" d="M 725.8 595.1 Q 725.8 591.9, 727.2 590.3 Q 728.7 588.6, 731.6 588.6 Q 734.2 588.6, 735.7 590.4 L 734.5 591.4 Q 733.4 590.1, 731.6 590.1 Q 729.7 590.1, 728.6 591.4 Q 727.6 592.7, 727.6 595.1 Q 727.6 597.7, 728.7 599.0 Q 729.7 600.3, 731.8 600.3 Q 733.2 600.3, 734.9 599.4 L 735.4 600.8 Q 734.7 601.2, 733.7 601.5 Q 732.7 601.7, 731.5 601.7 Q 728.7 601.7, 727.2 600.0 Q 725.8 598.3, 725.8 595.1 " fill="#000000"/>
<path class="atom-6" d="M 737.0 587.8 L 738.6 587.8 L 738.6 601.6 L 737.0 601.6 L 737.0 587.8 " fill="#000000"/>
<path class="atom-9" d="M 588.5 683.1 Q 588.5 679.9, 589.9 678.2 Q 591.4 676.6, 594.3 676.6 Q 596.9 676.6, 598.4 678.4 L 597.2 679.4 Q 596.1 678.0, 594.3 678.0 Q 592.4 678.0, 591.3 679.3 Q 590.3 680.6, 590.3 683.1 Q 590.3 685.6, 591.4 687.0 Q 592.4 688.3, 594.5 688.3 Q 595.9 688.3, 597.6 687.4 L 598.1 688.8 Q 597.4 689.2, 596.4 689.5 Q 595.4 689.7, 594.2 689.7 Q 591.4 689.7, 589.9 688.0 Q 588.5 686.3, 588.5 683.1 " fill="#000000"/>
<path class="atom-9" d="M 599.7 675.8 L 601.3 675.8 L 601.3 689.5 L 599.7 689.5 L 599.7 675.8 " fill="#000000"/>
</svg>