<svg xmlns="http://www.w3.org/2000/svg" xmlns:rdkit="http://www.rdkit.org/xml" xmlns:xlink="http://www.w3.org/1999/xlink" version="1.1" baseProfile="full" xml:space="preserve" width="750px" height="750px" viewBox="0 0 750 750">
<!-- END OF HEADER -->
<rect style="opacity:1.0;fill:#FFFFFF;stroke:none" width="750.0" height="750.0" x="0.0" y="0.0"> </rect>
<path class="bond-0 atom-0 atom-1" d="M 217.3,117.9 L 111.9,117.9" style="fill:none;fill-rule:evenodd;stroke:#000000;stroke-width:2.0px;stroke-linecap:butt;stroke-linejoin:miter;stroke-opacity:1"/>
<path class="atom-0" d="M 222.1 103.6 L 225.9 103.6 L 225.9 132.1 L 222.1 132.1 L 222.1 103.6 " fill="#000000"/>
<path class="atom-1" d="M 24.1 103.7 L 28.0 103.7 L 28.0 115.7 L 42.5 115.7 L 42.5 103.7 L 46.3 103.7 L 46.3 132.0 L 42.5 132.0 L 42.5 118.9 L 28.0 118.9 L 28.0 132.0 L 24.1 132.0 L 24.1 103.7 " fill="#000000"/>
<path class="atom-1" d="M 60.7 136.3 Q 62.5 136.9, 63.4 138.1 Q 64.3 139.2, 64.3 141.1 Q 64.3 142.6, 63.5 143.9 Q 62.7 145.1, 61.3 145.8 Q 59.8 146.4, 57.9 146.4 Q 55.9 146.4, 54.4 145.8 Q 52.9 145.0, 51.7 143.6 L 53.2 142.1 Q 54.4 143.4, 55.4 143.9 Q 56.4 144.3, 57.9 144.3 Q 59.6 144.3, 60.6 143.4 Q 61.7 142.5, 61.7 141.0 Q 61.7 139.1, 60.6 138.3 Q 59.5 137.4, 57.2 137.4 L 55.9 137.4 L 55.9 135.5 L 57.1 135.5 Q 59.1 135.5, 60.2 134.6 Q 61.3 133.7, 61.3 132.1 Q 61.3 130.8, 60.4 130.1 Q 59.5 129.4, 57.9 129.4 Q 56.4 129.4, 55.4 129.9 Q 54.5 130.5, 53.7 131.9 L 51.9 130.9 Q 52.6 129.4, 54.1 128.3 Q 55.7 127.3, 57.9 127.3 Q 60.7 127.3, 62.3 128.6 Q 63.9 129.9, 63.9 132.1 Q 63.9 133.6, 63.1 134.6 Q 62.3 135.7, 60.7 136.3 " fill="#000000"/>
<path class="atom-1" d="M 72.4 103.7 L 81.7 118.7 Q 82.6 120.2, 84.1 122.9 Q 85.5 125.5, 85.6 125.7 L 85.6 103.7 L 89.4 103.7 L 89.4 132.0 L 85.5 132.0 L 75.5 115.6 Q 74.4 113.7, 73.1 111.5 Q 71.9 109.3, 71.6 108.6 L 71.6 132.0 L 67.9 132.0 L 67.9 103.7 L 72.4 103.7 " fill="#000000"/>
<path class="atom-1" d="M 94.7 108.8 L 99.7 108.8 L 99.7 103.6 L 101.9 103.6 L 101.9 108.8 L 107.1 108.8 L 107.1 110.7 L 101.9 110.7 L 101.9 116.0 L 99.7 116.0 L 99.7 110.7 L 94.7 110.7 L 94.7 108.8 " fill="#000000"/>
<path class="bond-0 atom-0 atom-1" d="M 329.6,163.1 L 326.4,149.4" style="fill:none;fill-rule:evenodd;stroke:#000000;stroke-width:2.0px;stroke-linecap:butt;stroke-linejoin:miter;stroke-opacity:1"/>
<path class="bond-1 atom-1 atom-2" d="M 321.8,144.3 L 304.0,139.0" style="fill:none;fill-rule:evenodd;stroke:#000000;stroke-width:2.0px;stroke-linecap:butt;stroke-linejoin:miter;stroke-opacity:1"/>
<path class="bond-2 atom-2 atom-3" d="M 304.0,139.0 L 287.9,154.3" style="fill:none;fill-rule:evenodd;stroke:#000000;stroke-width:2.0px;stroke-linecap:butt;stroke-linejoin:miter;stroke-opacity:1"/>
<path class="bond-2 atom-2 atom-3" d="M 300.4,137.9 L 287.0,150.6" style="fill:none;fill-rule:evenodd;stroke:#000000;stroke-width:2.0px;stroke-linecap:butt;stroke-linejoin:miter;stroke-opacity:1"/>
<path class="bond-3 atom-3 atom-4" d="M 287.9,154.3 L 266.5,148.0" style="fill:none;fill-rule:evenodd;stroke:#000000;stroke-width:2.0px;stroke-linecap:butt;stroke-linejoin:miter;stroke-opacity:1"/>
<path class="bond-4 atom-4 atom-5" d="M 266.5,148.0 L 261.4,126.4" style="fill:none;fill-rule:evenodd;stroke:#000000;stroke-width:2.0px;stroke-linecap:butt;stroke-linejoin:miter;stroke-opacity:1"/>
<path class="bond-4 atom-4 atom-5" d="M 269.3,145.4 L 265.1,127.5" style="fill:none;fill-rule:evenodd;stroke:#000000;stroke-width:2.0px;stroke-linecap:butt;stroke-linejoin:miter;stroke-opacity:1"/>
<path class="bond-5 atom-5 atom-6" d="M 261.4,126.4 L 277.5,111.0" style="fill:none;fill-rule:evenodd;stroke:#000000;stroke-width:2.0px;stroke-linecap:butt;stroke-linejoin:miter;stroke-opacity:1"/>
<path class="bond-6 atom-6 atom-7" d="M 277.5,111.0 L 298.9,117.4" style="fill:none;fill-rule:evenodd;stroke:#000000;stroke-width:2.0px;stroke-linecap:butt;stroke-linejoin:miter;stroke-opacity:1"/>
<path class="bond-6 atom-6 atom-7" d="M 278.4,114.8 L 296.1,120.0" style="fill:none;fill-rule:evenodd;stroke:#000000;stroke-width:2.0px;stroke-linecap:butt;stroke-linejoin:miter;stroke-opacity:1"/>
<path class="bond-7 atom-7 atom-8" d="M 298.9,117.4 L 315.0,102.1" style="fill:none;fill-rule:evenodd;stroke:#000000;stroke-width:2.0px;stroke-linecap:butt;stroke-linejoin:miter;stroke-opacity:1"/>
<path class="bond-8 atom-8 atom-9" d="M 316.9,102.6 L 312.4,84.0" style="fill:none;fill-rule:evenodd;stroke:#000000;stroke-width:2.0px;stroke-linecap:butt;stroke-linejoin:miter;stroke-opacity:1"/>
<path class="bond-8 atom-8 atom-9" d="M 313.6,103.4 L 309.2,84.8" style="fill:none;fill-rule:evenodd;stroke:#000000;stroke-width:2.0px;stroke-linecap:butt;stroke-linejoin:miter;stroke-opacity:1"/>
<path class="bond-9 atom-8 atom-10" d="M 315.0,102.1 L 336.4,108.4" style="fill:none;fill-rule:evenodd;stroke:#000000;stroke-width:2.0px;stroke-linecap:butt;stroke-linejoin:miter;stroke-opacity:1"/>
<path class="bond-10 atom-10 atom-11" d="M 336.4,108.4 L 352.5,93.1" style="fill:none;fill-rule:evenodd;stroke:#000000;stroke-width:2.0px;stroke-linecap:butt;stroke-linejoin:miter;stroke-opacity:1"/>
<path class="bond-10 atom-10 atom-11" d="M 335.5,104.6 L 350.2,90.7" style="fill:none;fill-rule:evenodd;stroke:#000000;stroke-width:2.0px;stroke-linecap:butt;stroke-linejoin:miter;stroke-opacity:1"/>
<path class="bond-11 atom-11 atom-12" d="M 352.5,93.1 L 373.9,99.4" style="fill:none;fill-rule:evenodd;stroke:#000000;stroke-width:2.0px;stroke-linecap:butt;stroke-linejoin:miter;stroke-opacity:1"/>
<path class="bond-12 atom-12 atom-13" d="M 373.9,99.4 L 390.0,84.1" style="fill:none;fill-rule:evenodd;stroke:#000000;stroke-width:2.0px;stroke-linecap:butt;stroke-linejoin:miter;stroke-opacity:1"/>
<path class="bond-12 atom-12 atom-13" d="M 373.0,95.7 L 387.7,81.7" style="fill:none;fill-rule:evenodd;stroke:#000000;stroke-width:2.0px;stroke-linecap:butt;stroke-linejoin:miter;stroke-opacity:1"/>
<path class="bond-13 atom-13 atom-14" d="M 390.0,84.1 L 411.4,90.4" style="fill:none;fill-rule:evenodd;stroke:#000000;stroke-width:2.0px;stroke-linecap:butt;stroke-linejoin:miter;stroke-opacity:1"/>
<path class="bond-14 atom-14 atom-15" d="M 411.4,90.4 L 422.0,110.0" style="fill:none;fill-rule:evenodd;stroke:#000000;stroke-width:2.0px;stroke-linecap:butt;stroke-linejoin:miter;stroke-opacity:1"/>
<path class="bond-14 atom-14 atom-15" d="M 415.9,91.8 L 423.3,105.5" style="fill:none;fill-rule:evenodd;stroke:#000000;stroke-width:2.0px;stroke-linecap:butt;stroke-linejoin:miter;stroke-opacity:1"/>
<path class="bond-15 atom-15 atom-16" d="M 422.0,110.0 L 441.5,99.4" style="fill:none;fill-rule:evenodd;stroke:#000000;stroke-width:2.0px;stroke-linecap:butt;stroke-linejoin:miter;stroke-opacity:1"/>
<path class="bond-16 atom-16 atom-17" d="M 441.5,99.4 L 462.9,105.7" style="fill:none;fill-rule:evenodd;stroke:#000000;stroke-width:2.0px;stroke-linecap:butt;stroke-linejoin:miter;stroke-opacity:1"/>
<path class="bond-17 atom-17 atom-18" d="M 462.9,105.7 L 467.1,123.5" style="fill:none;fill-rule:evenodd;stroke:#000000;stroke-width:2.0px;stroke-linecap:butt;stroke-linejoin:miter;stroke-opacity:1"/>
<path class="bond-18 atom-18 atom-19" d="M 471.2,128.7 L 488.6,135.9" style="fill:none;fill-rule:evenodd;stroke:#000000;stroke-width:2.0px;stroke-linecap:butt;stroke-linejoin:miter;stroke-opacity:1"/>
<path class="bond-19 atom-19 atom-20" d="M 488.6,135.9 L 486.9,158.1" style="fill:none;fill-rule:evenodd;stroke:#000000;stroke-width:2.0px;stroke-linecap:butt;stroke-linejoin:miter;stroke-opacity:1"/>
<path class="bond-19 atom-19 atom-20" d="M 485.1,138.1 L 483.7,155.4" style="fill:none;fill-rule:evenodd;stroke:#000000;stroke-width:2.0px;stroke-linecap:butt;stroke-linejoin:miter;stroke-opacity:1"/>
<path class="bond-20 atom-20 atom-21" d="M 486.9,158.1 L 472.3,161.6" style="fill:none;fill-rule:evenodd;stroke:#000000;stroke-width:2.0px;stroke-linecap:butt;stroke-linejoin:miter;stroke-opacity:1"/>
<path class="bond-21 atom-21 atom-22" d="M 462.8,159.4 L 453.6,144.3" style="fill:none;fill-rule:evenodd;stroke:#000000;stroke-width:2.0px;stroke-linecap:butt;stroke-linejoin:miter;stroke-opacity:1"/>
<path class="bond-21 atom-21 atom-22" d="M 465.7,157.7 L 457.7,144.6" style="fill:none;fill-rule:evenodd;stroke:#000000;stroke-width:2.0px;stroke-linecap:butt;stroke-linejoin:miter;stroke-opacity:1"/>
<path class="bond-22 atom-16 atom-23" d="M 441.5,99.4 L 433.0,83.7" style="fill:none;fill-rule:evenodd;stroke:#000000;stroke-width:2.0px;stroke-linecap:butt;stroke-linejoin:miter;stroke-opacity:1"/>
<path class="bond-22 atom-16 atom-23" d="M 437.0,98.1 L 430.1,85.3" style="fill:none;fill-rule:evenodd;stroke:#000000;stroke-width:2.0px;stroke-linecap:butt;stroke-linejoin:miter;stroke-opacity:1"/>
<path class="bond-23 atom-7 atom-2" d="M 298.9,117.4 L 304.0,139.0" style="fill:none;fill-rule:evenodd;stroke:#000000;stroke-width:2.0px;stroke-linecap:butt;stroke-linejoin:miter;stroke-opacity:1"/>
<path class="bond-24 atom-23 atom-14" d="M 427.8,81.5 L 411.4,90.4" style="fill:none;fill-rule:evenodd;stroke:#000000;stroke-width:2.0px;stroke-linecap:butt;stroke-linejoin:miter;stroke-opacity:1"/>
<path class="bond-25 atom-22 atom-18" d="M 453.6,144.3 L 464.9,131.0" style="fill:none;fill-rule:evenodd;stroke:#000000;stroke-width:2.0px;stroke-linecap:butt;stroke-linejoin:miter;stroke-opacity:1"/>
<path d="M 288.7,153.6 L 287.9,154.3 L 286.8,154.0" style="fill:none;stroke:#000000;stroke-width:2.0px;stroke-linecap:butt;stroke-linejoin:miter;stroke-opacity:1;"/>
<path d="M 267.6,148.3 L 266.5,148.0 L 266.3,146.9" style="fill:none;stroke:#000000;stroke-width:2.0px;stroke-linecap:butt;stroke-linejoin:miter;stroke-opacity:1;"/>
<path d="M 261.6,127.4 L 261.4,126.4 L 262.2,125.6" style="fill:none;stroke:#000000;stroke-width:2.0px;stroke-linecap:butt;stroke-linejoin:miter;stroke-opacity:1;"/>
<path d="M 276.7,111.8 L 277.5,111.0 L 278.6,111.4" style="fill:none;stroke:#000000;stroke-width:2.0px;stroke-linecap:butt;stroke-linejoin:miter;stroke-opacity:1;"/>
<path d="M 314.2,102.8 L 315.0,102.1 L 316.1,102.4" style="fill:none;stroke:#000000;stroke-width:2.0px;stroke-linecap:butt;stroke-linejoin:miter;stroke-opacity:1;"/>
<path d="M 335.3,108.1 L 336.4,108.4 L 337.2,107.6" style="fill:none;stroke:#000000;stroke-width:2.0px;stroke-linecap:butt;stroke-linejoin:miter;stroke-opacity:1;"/>
<path d="M 351.7,93.8 L 352.5,93.1 L 353.6,93.4" style="fill:none;stroke:#000000;stroke-width:2.0px;stroke-linecap:butt;stroke-linejoin:miter;stroke-opacity:1;"/>
<path d="M 372.8,99.1 L 373.9,99.4 L 374.7,98.7" style="fill:none;stroke:#000000;stroke-width:2.0px;stroke-linecap:butt;stroke-linejoin:miter;stroke-opacity:1;"/>
<path d="M 389.2,84.9 L 390.0,84.1 L 391.1,84.4" style="fill:none;stroke:#000000;stroke-width:2.0px;stroke-linecap:butt;stroke-linejoin:miter;stroke-opacity:1;"/>
<path d="M 421.4,109.0 L 422.0,110.0 L 423.0,109.5" style="fill:none;stroke:#000000;stroke-width:2.0px;stroke-linecap:butt;stroke-linejoin:miter;stroke-opacity:1;"/>
<path d="M 461.8,105.4 L 462.9,105.7 L 463.1,106.6" style="fill:none;stroke:#000000;stroke-width:2.0px;stroke-linecap:butt;stroke-linejoin:miter;stroke-opacity:1;"/>
<path d="M 487.8,135.6 L 488.6,135.9 L 488.5,137.0" style="fill:none;stroke:#000000;stroke-width:2.0px;stroke-linecap:butt;stroke-linejoin:miter;stroke-opacity:1;"/>
<path d="M 487.0,157.0 L 486.9,158.1 L 486.1,158.3" style="fill:none;stroke:#000000;stroke-width:2.0px;stroke-linecap:butt;stroke-linejoin:miter;stroke-opacity:1;"/>
<path d="M 454.1,145.1 L 453.6,144.3 L 454.2,143.6" style="fill:none;stroke:#000000;stroke-width:2.0px;stroke-linecap:butt;stroke-linejoin:miter;stroke-opacity:1;"/>
<path class="atom-0" d="M 329.2 163.9 L 331.2 167.2 Q 331.5 167.5, 331.8 168.1 Q 332.1 168.7, 332.1 168.8 L 332.1 163.9 L 333.0 163.9 L 333.0 170.2 L 332.1 170.2 L 329.9 166.5 Q 329.6 166.1, 329.3 165.6 Q 329.1 165.1, 329.0 165.0 L 329.0 170.2 L 328.2 170.2 L 328.2 163.9 L 329.2 163.9 " fill="#000000"/>
<path class="atom-0" d="M 334.2 163.9 L 335.0 163.9 L 335.0 166.5 L 338.2 166.5 L 338.2 163.9 L 339.1 163.9 L 339.1 170.2 L 338.2 170.2 L 338.2 167.3 L 335.0 167.3 L 335.0 170.2 L 334.2 170.2 L 334.2 163.9 " fill="#000000"/>
<path class="atom-0" d="M 340.3 169.9 Q 340.5 169.6, 340.9 169.3 Q 341.2 169.1, 341.7 169.1 Q 342.4 169.1, 342.7 169.5 Q 343.1 169.8, 343.1 170.4 Q 343.1 171.0, 342.6 171.6 Q 342.1 172.2, 341.2 172.8 L 343.1 172.8 L 343.1 173.3 L 340.3 173.3 L 340.3 172.9 Q 341.1 172.4, 341.6 172.0 Q 342.0 171.6, 342.2 171.2 Q 342.5 170.8, 342.5 170.4 Q 342.5 170.0, 342.3 169.8 Q 342.1 169.6, 341.7 169.6 Q 341.4 169.6, 341.2 169.7 Q 340.9 169.9, 340.8 170.2 L 340.3 169.9 " fill="#000000"/>
<path class="atom-1" d="M 322.5 145.4 Q 322.5 143.9, 323.2 143.0 Q 324.0 142.2, 325.4 142.2 Q 326.8 142.2, 327.5 143.0 Q 328.3 143.9, 328.3 145.4 Q 328.3 146.9, 327.5 147.8 Q 326.8 148.7, 325.4 148.7 Q 324.0 148.7, 323.2 147.8 Q 322.5 146.9, 322.5 145.4 M 325.4 147.9 Q 326.4 147.9, 326.9 147.3 Q 327.4 146.6, 327.4 145.4 Q 327.4 144.1, 326.9 143.5 Q 326.4 142.9, 325.4 142.9 Q 324.4 142.9, 323.9 143.5 Q 323.4 144.1, 323.4 145.4 Q 323.4 146.7, 323.9 147.3 Q 324.4 147.9, 325.4 147.9 " fill="#000000"/>
<path class="atom-9" d="M 306.9 80.4 Q 306.9 78.9, 307.7 78.1 Q 308.4 77.2, 309.8 77.2 Q 311.2 77.2, 312.0 78.1 Q 312.7 78.9, 312.7 80.4 Q 312.7 82.0, 312.0 82.8 Q 311.2 83.7, 309.8 83.7 Q 308.5 83.7, 307.7 82.8 Q 306.9 82.0, 306.9 80.4 M 309.8 83.0 Q 310.8 83.0, 311.3 82.3 Q 311.8 81.7, 311.8 80.4 Q 311.8 79.2, 311.3 78.6 Q 310.8 77.9, 309.8 77.9 Q 308.9 77.9, 308.4 78.6 Q 307.8 79.2, 307.8 80.4 Q 307.8 81.7, 308.4 82.3 Q 308.9 83.0, 309.8 83.0 " fill="#000000"/>
<path class="atom-18" d="M 466.7 124.2 L 468.7 127.6 Q 469.0 127.9, 469.3 128.5 Q 469.6 129.1, 469.6 129.1 L 469.6 124.2 L 470.5 124.2 L 470.5 130.5 L 469.6 130.5 L 467.4 126.9 Q 467.1 126.5, 466.8 126.0 Q 466.6 125.5, 466.5 125.3 L 466.5 130.5 L 465.7 130.5 L 465.7 124.2 L 466.7 124.2 " fill="#000000"/>
<path class="atom-21" d="M 456.7 160.1 L 457.5 160.1 L 457.5 162.8 L 460.8 162.8 L 460.8 160.1 L 461.6 160.1 L 461.6 166.5 L 460.8 166.5 L 460.8 163.5 L 457.5 163.5 L 457.5 166.5 L 456.7 166.5 L 456.7 160.1 " fill="#000000"/>
<path class="atom-21" d="M 463.8 160.1 L 465.9 163.5 Q 466.1 163.8, 466.4 164.4 Q 466.8 165.0, 466.8 165.0 L 466.8 160.1 L 467.6 160.1 L 467.6 166.5 L 466.8 166.5 L 464.5 162.8 Q 464.3 162.4, 464.0 161.9 Q 463.7 161.4, 463.7 161.2 L 463.7 166.5 L 462.8 166.5 L 462.8 160.1 L 463.8 160.1 " fill="#000000"/>
<path class="atom-21" d="M 468.8 161.3 L 469.9 161.3 L 469.9 160.1 L 470.4 160.1 L 470.4 161.3 L 471.6 161.3 L 471.6 161.7 L 470.4 161.7 L 470.4 162.9 L 469.9 162.9 L 469.9 161.7 L 468.8 161.7 L 468.8 161.3 " fill="#000000"/>
<path class="atom-23" d="M 429.5 76.7 L 431.6 80.0 Q 431.8 80.3, 432.1 80.9 Q 432.5 81.5, 432.5 81.6 L 432.5 76.7 L 433.3 76.7 L 433.3 83.0 L 432.5 83.0 L 430.2 79.3 Q 430.0 78.9, 429.7 78.4 Q 429.4 77.9, 429.4 77.8 L 429.4 83.0 L 428.5 83.0 L 428.5 76.7 L 429.5 76.7 " fill="#000000"/>
<path class="bond-0 atom-0 atom-1" d="M 660.3,172.5 L 648.5,144.1" style="fill:none;fill-rule:evenodd;stroke:#000000;stroke-width:2.0px;stroke-linecap:butt;stroke-linejoin:miter;stroke-opacity:1"/>
<path class="bond-1 atom-0 atom-2" d="M 667.7,179.7 L 700.5,184.0" style="fill:none;fill-rule:evenodd;stroke:#000000;stroke-width:2.0px;stroke-linecap:butt;stroke-linejoin:miter;stroke-opacity:1"/>
<path class="bond-1 atom-0 atom-2" d="M 668.4,174.1 L 698.0,177.9" style="fill:none;fill-rule:evenodd;stroke:#000000;stroke-width:2.0px;stroke-linecap:butt;stroke-linejoin:miter;stroke-opacity:1"/>
<path class="bond-2 atom-2 atom-3" d="M 700.5,184.0 L 723.5,153.9" style="fill:none;fill-rule:evenodd;stroke:#000000;stroke-width:2.0px;stroke-linecap:butt;stroke-linejoin:miter;stroke-opacity:1"/>
<path class="bond-3 atom-3 atom-4" d="M 723.5,153.9 L 709.0,119.0" style="fill:none;fill-rule:evenodd;stroke:#000000;stroke-width:2.0px;stroke-linecap:butt;stroke-linejoin:miter;stroke-opacity:1"/>
<path class="bond-3 atom-3 atom-4" d="M 717.0,153.1 L 705.0,124.2" style="fill:none;fill-rule:evenodd;stroke:#000000;stroke-width:2.0px;stroke-linecap:butt;stroke-linejoin:miter;stroke-opacity:1"/>
<path class="bond-4 atom-4 atom-5" d="M 709.0,119.0 L 726.6,96.0" style="fill:none;fill-rule:evenodd;stroke:#000000;stroke-width:2.0px;stroke-linecap:butt;stroke-linejoin:miter;stroke-opacity:1"/>
<path class="bond-5 atom-4 atom-6" d="M 709.0,119.0 L 671.5,114.1" style="fill:none;fill-rule:evenodd;stroke:#000000;stroke-width:2.0px;stroke-linecap:butt;stroke-linejoin:miter;stroke-opacity:1"/>
<path class="bond-6 atom-6 atom-7" d="M 671.5,114.1 L 654.7,89.8" style="fill:none;fill-rule:evenodd;stroke:#000000;stroke-width:2.0px;stroke-linecap:butt;stroke-linejoin:miter;stroke-opacity:1"/>
<path class="bond-7 atom-7 atom-8" d="M 643.8,84.8 L 613.7,93.7" style="fill:none;fill-rule:evenodd;stroke:#000000;stroke-width:2.0px;stroke-linecap:butt;stroke-linejoin:miter;stroke-opacity:1"/>
<path class="bond-8 atom-8 atom-9" d="M 610.7,91.8 L 611.1,91.3" style="fill:none;fill-rule:evenodd;stroke:#000000;stroke-width:1.0px;stroke-linecap:butt;stroke-linejoin:miter;stroke-opacity:1"/>
<path class="bond-8 atom-8 atom-9" d="M 607.7,89.9 L 608.5,88.8" style="fill:none;fill-rule:evenodd;stroke:#000000;stroke-width:1.0px;stroke-linecap:butt;stroke-linejoin:miter;stroke-opacity:1"/>
<path class="bond-8 atom-8 atom-9" d="M 604.6,88.1 L 605.9,86.4" style="fill:none;fill-rule:evenodd;stroke:#000000;stroke-width:1.0px;stroke-linecap:butt;stroke-linejoin:miter;stroke-opacity:1"/>
<path class="bond-8 atom-8 atom-9" d="M 601.6,86.2 L 603.3,83.9" style="fill:none;fill-rule:evenodd;stroke:#000000;stroke-width:1.0px;stroke-linecap:butt;stroke-linejoin:miter;stroke-opacity:1"/>
<path class="bond-8 atom-8 atom-9" d="M 598.5,84.3 L 600.7,81.5" style="fill:none;fill-rule:evenodd;stroke:#000000;stroke-width:1.0px;stroke-linecap:butt;stroke-linejoin:miter;stroke-opacity:1"/>
<path class="bond-8 atom-8 atom-9" d="M 595.5,82.4 L 598.1,79.0" style="fill:none;fill-rule:evenodd;stroke:#000000;stroke-width:1.0px;stroke-linecap:butt;stroke-linejoin:miter;stroke-opacity:1"/>
<path class="bond-8 atom-8 atom-9" d="M 592.4,80.5 L 595.4,76.6" style="fill:none;fill-rule:evenodd;stroke:#000000;stroke-width:1.0px;stroke-linecap:butt;stroke-linejoin:miter;stroke-opacity:1"/>
<path class="bond-8 atom-8 atom-9" d="M 589.4,78.6 L 592.8,74.1" style="fill:none;fill-rule:evenodd;stroke:#000000;stroke-width:1.0px;stroke-linecap:butt;stroke-linejoin:miter;stroke-opacity:1"/>
<path class="bond-9 atom-8 atom-10" d="M 613.7,93.7 L 612.8,131.5" style="fill:none;fill-rule:evenodd;stroke:#000000;stroke-width:2.0px;stroke-linecap:butt;stroke-linejoin:miter;stroke-opacity:1"/>
<path class="bond-10 atom-10 atom-11" d="M 612.8,131.5 L 586.3,149.8" style="fill:none;fill-rule:evenodd;stroke:#000000;stroke-width:2.0px;stroke-linecap:butt;stroke-linejoin:miter;stroke-opacity:1"/>
<path class="bond-11 atom-11 atom-12" d="M 576.9,150.8 L 552.8,139.3" style="fill:none;fill-rule:evenodd;stroke:#000000;stroke-width:2.0px;stroke-linecap:butt;stroke-linejoin:miter;stroke-opacity:1"/>
<path class="bond-12 atom-12 atom-13" d="M 540.5,138.1 L 520.8,151.6" style="fill:none;fill-rule:evenodd;stroke:#000000;stroke-width:2.0px;stroke-linecap:butt;stroke-linejoin:miter;stroke-opacity:1"/>
<path class="bond-12 atom-12 atom-13" d="M 543.7,142.8 L 524.1,156.3" style="fill:none;fill-rule:evenodd;stroke:#000000;stroke-width:2.0px;stroke-linecap:butt;stroke-linejoin:miter;stroke-opacity:1"/>
<path class="bond-13 atom-12 atom-14" d="M 546.9,130.2 L 545.0,105.9" style="fill:none;fill-rule:evenodd;stroke:#000000;stroke-width:2.0px;stroke-linecap:butt;stroke-linejoin:miter;stroke-opacity:1"/>
<path class="bond-14 atom-6 atom-1" d="M 671.5,114.1 L 648.5,144.1" style="fill:none;fill-rule:evenodd;stroke:#000000;stroke-width:2.0px;stroke-linecap:butt;stroke-linejoin:miter;stroke-opacity:1"/>
<path class="bond-15 atom-10 atom-1" d="M 612.8,131.5 L 648.5,144.1" style="fill:none;fill-rule:evenodd;stroke:#000000;stroke-width:2.0px;stroke-linecap:butt;stroke-linejoin:miter;stroke-opacity:1"/>
<path class="bond-16 atom-6 atom-15" d="M 673.1,110.8 L 673.7,111.2" style="fill:none;fill-rule:evenodd;stroke:#000000;stroke-width:1.0px;stroke-linecap:butt;stroke-linejoin:miter;stroke-opacity:1"/>
<path class="bond-16 atom-6 atom-15" d="M 674.6,107.6 L 675.8,108.3" style="fill:none;fill-rule:evenodd;stroke:#000000;stroke-width:1.0px;stroke-linecap:butt;stroke-linejoin:miter;stroke-opacity:1"/>
<path class="bond-16 atom-6 atom-15" d="M 676.2,104.4 L 678.0,105.5" style="fill:none;fill-rule:evenodd;stroke:#000000;stroke-width:1.0px;stroke-linecap:butt;stroke-linejoin:miter;stroke-opacity:1"/>
<path class="bond-16 atom-6 atom-15" d="M 677.7,101.1 L 680.2,102.6" style="fill:none;fill-rule:evenodd;stroke:#000000;stroke-width:1.0px;stroke-linecap:butt;stroke-linejoin:miter;stroke-opacity:1"/>
<path class="bond-16 atom-6 atom-15" d="M 679.3,97.9 L 682.3,99.7" style="fill:none;fill-rule:evenodd;stroke:#000000;stroke-width:1.0px;stroke-linecap:butt;stroke-linejoin:miter;stroke-opacity:1"/>
<path class="bond-16 atom-6 atom-15" d="M 680.9,94.6 L 684.5,96.9" style="fill:none;fill-rule:evenodd;stroke:#000000;stroke-width:1.0px;stroke-linecap:butt;stroke-linejoin:miter;stroke-opacity:1"/>
<path class="bond-16 atom-6 atom-15" d="M 682.4,91.4 L 686.7,94.0" style="fill:none;fill-rule:evenodd;stroke:#000000;stroke-width:1.0px;stroke-linecap:butt;stroke-linejoin:miter;stroke-opacity:1"/>
<path class="bond-16 atom-6 atom-15" d="M 684.0,88.2 L 688.8,91.1" style="fill:none;fill-rule:evenodd;stroke:#000000;stroke-width:1.0px;stroke-linecap:butt;stroke-linejoin:miter;stroke-opacity:1"/>
<path d="M 698.9,183.8 L 700.5,184.0 L 701.7,182.5" style="fill:none;stroke:#000000;stroke-width:2.0px;stroke-linecap:butt;stroke-linejoin:miter;stroke-opacity:1;"/>
<path d="M 722.4,155.4 L 723.5,153.9 L 722.8,152.2" style="fill:none;stroke:#000000;stroke-width:2.0px;stroke-linecap:butt;stroke-linejoin:miter;stroke-opacity:1;"/>
<path d="M 615.2,93.3 L 613.7,93.7 L 613.7,95.6" style="fill:none;stroke:#000000;stroke-width:2.0px;stroke-linecap:butt;stroke-linejoin:miter;stroke-opacity:1;"/>
<path class="atom-0" d="M 660.0 182.8 Q 660.1 182.8, 660.6 183.0 Q 661.1 183.2, 661.6 183.4 Q 662.2 183.5, 662.7 183.5 Q 663.8 183.5, 664.4 183.0 Q 664.9 182.5, 664.9 181.6 Q 664.9 181.1, 664.6 180.7 Q 664.4 180.3, 663.9 180.1 Q 663.4 179.9, 662.7 179.7 Q 661.7 179.4, 661.2 179.1 Q 660.6 178.9, 660.2 178.3 Q 659.8 177.7, 659.8 176.8 Q 659.8 175.4, 660.7 174.6 Q 661.6 173.7, 663.4 173.7 Q 664.7 173.7, 666.1 174.3 L 665.7 175.5 Q 664.5 175.0, 663.5 175.0 Q 662.4 175.0, 661.9 175.4 Q 661.3 175.8, 661.3 176.6 Q 661.3 177.1, 661.6 177.5 Q 661.9 177.8, 662.3 178.0 Q 662.8 178.2, 663.5 178.5 Q 664.5 178.8, 665.0 179.1 Q 665.6 179.4, 666.0 180.0 Q 666.4 180.6, 666.4 181.6 Q 666.4 183.1, 665.4 183.9 Q 664.5 184.7, 662.8 184.7 Q 661.9 184.7, 661.1 184.5 Q 660.4 184.3, 659.6 184.0 L 660.0 182.8 " fill="#000000"/>
<path class="atom-5" d="M 727.9 89.3 Q 727.9 86.6, 729.1 85.2 Q 730.4 83.8, 732.8 83.8 Q 735.0 83.8, 736.2 85.4 L 735.2 86.2 Q 734.3 85.1, 732.8 85.1 Q 731.1 85.1, 730.3 86.2 Q 729.4 87.2, 729.4 89.3 Q 729.4 91.4, 730.3 92.5 Q 731.2 93.6, 732.9 93.6 Q 734.1 93.6, 735.5 92.9 L 735.9 94.0 Q 735.4 94.4, 734.5 94.6 Q 733.7 94.8, 732.7 94.8 Q 730.4 94.8, 729.1 93.4 Q 727.9 92.0, 727.9 89.3 " fill="#000000"/>
<path class="atom-5" d="M 737.2 83.2 L 738.6 83.2 L 738.6 94.7 L 737.2 94.7 L 737.2 83.2 " fill="#000000"/>
<path class="atom-7" d="M 645.1 82.9 Q 645.1 80.4, 646.4 78.9 Q 647.6 77.5, 650.0 77.5 Q 652.4 77.5, 653.7 78.9 Q 654.9 80.4, 654.9 82.9 Q 654.9 85.6, 653.7 87.0 Q 652.4 88.5, 650.0 88.5 Q 647.7 88.5, 646.4 87.0 Q 645.1 85.6, 645.1 82.9 M 650.0 87.3 Q 651.7 87.3, 652.5 86.2 Q 653.4 85.1, 653.4 82.9 Q 653.4 80.8, 652.5 79.8 Q 651.7 78.7, 650.0 78.7 Q 648.4 78.7, 647.5 79.8 Q 646.6 80.8, 646.6 82.9 Q 646.6 85.1, 647.5 86.2 Q 648.4 87.3, 650.0 87.3 " fill="#000000"/>
<path class="atom-9" d="M 568.2 65.4 L 569.6 65.4 L 569.6 70.0 L 575.1 70.0 L 575.1 65.4 L 576.6 65.4 L 576.6 76.1 L 575.1 76.1 L 575.1 71.2 L 569.6 71.2 L 569.6 76.1 L 568.2 76.1 L 568.2 65.4 " fill="#000000"/>
<path class="atom-9" d="M 578.8 70.7 Q 578.8 68.2, 580.0 66.7 Q 581.3 65.3, 583.7 65.3 Q 586.1 65.3, 587.3 66.7 Q 588.6 68.2, 588.6 70.7 Q 588.6 73.3, 587.3 74.8 Q 586.0 76.3, 583.7 76.3 Q 581.3 76.3, 580.0 74.8 Q 578.8 73.4, 578.8 70.7 M 583.7 75.1 Q 585.3 75.1, 586.2 74.0 Q 587.1 72.9, 587.1 70.7 Q 587.1 68.6, 586.2 67.6 Q 585.3 66.5, 583.7 66.5 Q 582.1 66.5, 581.2 67.6 Q 580.3 68.6, 580.3 70.7 Q 580.3 72.9, 581.2 74.0 Q 582.1 75.1, 583.7 75.1 " fill="#000000"/>
<path class="atom-11" d="M 578.6 156.7 Q 578.7 156.7, 579.2 156.9 Q 579.7 157.2, 580.3 157.3 Q 580.8 157.4, 581.4 157.4 Q 582.4 157.4, 583.0 156.9 Q 583.6 156.4, 583.6 155.6 Q 583.6 155.0, 583.3 154.6 Q 583.0 154.3, 582.5 154.1 Q 582.1 153.9, 581.3 153.6 Q 580.4 153.3, 579.8 153.1 Q 579.2 152.8, 578.8 152.2 Q 578.4 151.7, 578.4 150.7 Q 578.4 149.3, 579.3 148.5 Q 580.2 147.7, 582.1 147.7 Q 583.3 147.7, 584.7 148.3 L 584.4 149.4 Q 583.1 148.9, 582.1 148.9 Q 581.1 148.9, 580.5 149.3 Q 579.9 149.8, 579.9 150.5 Q 579.9 151.1, 580.2 151.4 Q 580.5 151.8, 580.9 152.0 Q 581.4 152.2, 582.1 152.4 Q 583.1 152.7, 583.7 153.0 Q 584.2 153.3, 584.6 153.9 Q 585.1 154.5, 585.1 155.6 Q 585.1 157.1, 584.1 157.9 Q 583.1 158.6, 581.4 158.6 Q 580.5 158.6, 579.8 158.4 Q 579.0 158.2, 578.2 157.9 L 578.6 156.7 " fill="#000000"/>
<path class="atom-12" d="M 545.1 131.4 L 548.6 137.1 Q 548.9 137.6, 549.5 138.7 Q 550.1 139.7, 550.1 139.7 L 550.1 131.4 L 551.5 131.4 L 551.5 142.1 L 550.0 142.1 L 546.3 135.9 Q 545.8 135.2, 545.4 134.4 Q 544.9 133.5, 544.8 133.3 L 544.8 142.1 L 543.4 142.1 L 543.4 131.4 L 545.1 131.4 " fill="#000000"/>
<path class="atom-12" d="M 553.5 133.3 L 555.4 133.3 L 555.4 131.3 L 556.3 131.3 L 556.3 133.3 L 558.2 133.3 L 558.2 134.1 L 556.3 134.1 L 556.3 136.0 L 555.4 136.0 L 555.4 134.1 L 553.5 134.1 L 553.5 133.3 " fill="#000000"/>
<path class="atom-13" d="M 511.4 158.3 Q 511.4 155.7, 512.6 154.2 Q 513.9 152.8, 516.3 152.8 Q 518.7 152.8, 519.9 154.2 Q 521.2 155.7, 521.2 158.3 Q 521.2 160.9, 519.9 162.3 Q 518.6 163.8, 516.3 163.8 Q 513.9 163.8, 512.6 162.3 Q 511.4 160.9, 511.4 158.3 M 516.3 162.6 Q 517.9 162.6, 518.8 161.5 Q 519.7 160.4, 519.7 158.3 Q 519.7 156.2, 518.8 155.1 Q 517.9 154.0, 516.3 154.0 Q 514.6 154.0, 513.8 155.1 Q 512.9 156.1, 512.9 158.3 Q 512.9 160.4, 513.8 161.5 Q 514.6 162.6, 516.3 162.6 " fill="#000000"/>
<path class="atom-14" d="M 539.5 99.1 Q 539.5 96.5, 540.8 95.1 Q 542.1 93.6, 544.4 93.6 Q 546.8 93.6, 548.1 95.1 Q 549.4 96.5, 549.4 99.1 Q 549.4 101.7, 548.1 103.2 Q 546.8 104.6, 544.4 104.6 Q 542.1 104.6, 540.8 103.2 Q 539.5 101.7, 539.5 99.1 M 544.4 103.4 Q 546.1 103.4, 547.0 102.3 Q 547.8 101.2, 547.8 99.1 Q 547.8 97.0, 547.0 95.9 Q 546.1 94.8, 544.4 94.8 Q 542.8 94.8, 541.9 95.9 Q 541.0 96.9, 541.0 99.1 Q 541.0 101.2, 541.9 102.3 Q 542.8 103.4, 544.4 103.4 " fill="#000000"/>
<path class="atom-14" d="M 550.9 95.4 L 554.6 95.4 L 554.6 96.2 L 550.9 96.2 L 550.9 95.4 " fill="#000000"/>
<path class="atom-15" d="M 687.0 76.4 L 688.5 76.4 L 688.5 81.0 L 694.0 81.0 L 694.0 76.4 L 695.4 76.4 L 695.4 87.2 L 694.0 87.2 L 694.0 82.2 L 688.5 82.2 L 688.5 87.2 L 687.0 87.2 L 687.0 76.4 " fill="#000000"/>
<path class="atom-0" d="M 658.1,179.1 L 658.1,179.2 L 658.0,179.2 L 658.0,179.3 L 658.0,179.3 L 658.0,179.4 L 658.0,179.5 L 657.9,179.5 L 657.9,179.6 L 657.8,179.6 L 657.8,179.7 L 657.7,179.7 L 657.7,179.7 L 657.6,179.8 L 657.6,179.8 L 657.5,179.8 L 657.4,179.8 L 657.4,179.8 L 657.3,179.8 L 657.2,179.8 L 657.2,179.8 L 657.1,179.8 L 657.1,179.8 L 657.0,179.8 L 656.9,179.8 L 656.9,179.7 L 656.8,179.7 L 656.8,179.6 L 656.7,179.6 L 656.7,179.5 L 656.7,179.5 L 656.6,179.4 L 656.6,179.4 L 656.6,179.3 L 656.6,179.2 L 656.5,179.2 L 656.5,179.1 L 656.5,179.1 L 656.5,179.0 L 656.6,178.9 L 656.6,178.9 L 656.6,178.8 L 656.6,178.7 L 656.7,178.7 L 656.7,178.6 L 656.7,178.6 L 656.8,178.5 L 656.8,178.5 L 656.9,178.5 L 656.9,178.4 L 657.0,178.4 L 657.1,178.4 L 657.1,178.3 L 657.2,178.3 L 657.2,178.3 L 657.3,178.3 L 657.4,178.3 L 657.4,178.3 L 657.5,178.4 L 657.6,178.4 L 657.6,178.4 L 657.7,178.4 L 657.7,178.5 L 657.8,178.5 L 657.8,178.6 L 657.9,178.6 L 657.9,178.7 L 658.0,178.7 L 658.0,178.8 L 658.0,178.8 L 658.0,178.9 L 658.0,179.0 L 658.1,179.0 L 658.1,179.1 L 657.3,179.1 Z" style="fill:#000000;fill-rule:evenodd;fill-opacity:1;stroke:#000000;stroke-width:0.0px;stroke-linecap:butt;stroke-linejoin:miter;stroke-opacity:1;"/>
<path class="bond-0 atom-0 atom-1" d="M 170.9,471.3 L 168.9,458.9" style="fill:none;fill-rule:evenodd;stroke:#000000;stroke-width:2.0px;stroke-linecap:butt;stroke-linejoin:miter;stroke-opacity:1"/>
<path class="bond-1 atom-1 atom-2" d="M 171.1,453.2 L 183.5,443.2" style="fill:none;fill-rule:evenodd;stroke:#000000;stroke-width:2.0px;stroke-linecap:butt;stroke-linejoin:miter;stroke-opacity:1"/>
<path class="bond-2 atom-2 atom-3" d="M 183.5,443.2 L 180.4,423.9" style="fill:none;fill-rule:evenodd;stroke:#000000;stroke-width:2.0px;stroke-linecap:butt;stroke-linejoin:miter;stroke-opacity:1"/>
<path class="bond-3 atom-3 atom-4" d="M 180.4,423.9 L 195.5,411.6" style="fill:none;fill-rule:evenodd;stroke:#000000;stroke-width:2.0px;stroke-linecap:butt;stroke-linejoin:miter;stroke-opacity:1"/>
<path class="bond-3 atom-3 atom-4" d="M 183.5,425.1 L 197.4,413.8" style="fill:none;fill-rule:evenodd;stroke:#000000;stroke-width:2.0px;stroke-linecap:butt;stroke-linejoin:miter;stroke-opacity:1"/>
<path class="bond-4 atom-4 atom-5" d="M 195.5,411.6 L 192.4,392.3" style="fill:none;fill-rule:evenodd;stroke:#000000;stroke-width:2.0px;stroke-linecap:butt;stroke-linejoin:miter;stroke-opacity:1"/>
<path class="bond-5 atom-5 atom-6" d="M 192.4,392.3 L 199.4,374.1" style="fill:none;fill-rule:evenodd;stroke:#000000;stroke-width:2.0px;stroke-linecap:butt;stroke-linejoin:miter;stroke-opacity:1"/>
<path class="bond-6 atom-6 atom-7" d="M 199.4,374.1 L 211.8,364.0" style="fill:none;fill-rule:evenodd;stroke:#000000;stroke-width:2.0px;stroke-linecap:butt;stroke-linejoin:miter;stroke-opacity:1"/>
<path class="bond-7 atom-7 atom-8" d="M 214.0,358.3 L 211.4,342.5" style="fill:none;fill-rule:evenodd;stroke:#000000;stroke-width:2.0px;stroke-linecap:butt;stroke-linejoin:miter;stroke-opacity:1"/>
<path class="bond-8 atom-8 atom-9" d="M 211.4,342.5 L 226.6,330.2" style="fill:none;fill-rule:evenodd;stroke:#000000;stroke-width:2.0px;stroke-linecap:butt;stroke-linejoin:miter;stroke-opacity:1"/>
<path class="bond-9 atom-9 atom-10" d="M 226.6,330.2 L 223.5,310.9" style="fill:none;fill-rule:evenodd;stroke:#000000;stroke-width:2.0px;stroke-linecap:butt;stroke-linejoin:miter;stroke-opacity:1"/>
<path class="bond-10 atom-10 atom-11" d="M 223.5,310.9 L 238.6,298.6" style="fill:none;fill-rule:evenodd;stroke:#000000;stroke-width:2.0px;stroke-linecap:butt;stroke-linejoin:miter;stroke-opacity:1"/>
<path class="bond-11 atom-11 atom-12" d="M 238.6,298.6 L 235.5,279.3" style="fill:none;fill-rule:evenodd;stroke:#000000;stroke-width:2.0px;stroke-linecap:butt;stroke-linejoin:miter;stroke-opacity:1"/>
<path class="bond-12 atom-12 atom-13" d="M 235.5,279.3 L 217.3,272.4" style="fill:none;fill-rule:evenodd;stroke:#000000;stroke-width:2.0px;stroke-linecap:butt;stroke-linejoin:miter;stroke-opacity:1"/>
<path class="bond-13 atom-13 atom-14" d="M 217.3,272.4 L 202.2,284.7" style="fill:none;fill-rule:evenodd;stroke:#000000;stroke-width:2.0px;stroke-linecap:butt;stroke-linejoin:miter;stroke-opacity:1"/>
<path class="bond-14 atom-14 atom-15" d="M 202.2,284.7 L 205.3,303.9" style="fill:none;fill-rule:evenodd;stroke:#000000;stroke-width:2.0px;stroke-linecap:butt;stroke-linejoin:miter;stroke-opacity:1"/>
<path class="bond-15 atom-5 atom-16" d="M 192.4,392.3 L 180.1,377.2" style="fill:none;fill-rule:evenodd;stroke:#000000;stroke-width:2.0px;stroke-linecap:butt;stroke-linejoin:miter;stroke-opacity:1"/>
<path class="bond-16 atom-16 atom-17" d="M 180.1,377.2 L 161.9,370.2" style="fill:none;fill-rule:evenodd;stroke:#000000;stroke-width:2.0px;stroke-linecap:butt;stroke-linejoin:miter;stroke-opacity:1"/>
<path class="bond-16 atom-16 atom-17" d="M 180.4,374.1 L 164.5,368.1" style="fill:none;fill-rule:evenodd;stroke:#000000;stroke-width:2.0px;stroke-linecap:butt;stroke-linejoin:miter;stroke-opacity:1"/>
<path class="bond-17 atom-17 atom-18" d="M 161.9,370.2 L 158.8,350.9" style="fill:none;fill-rule:evenodd;stroke:#000000;stroke-width:2.0px;stroke-linecap:butt;stroke-linejoin:miter;stroke-opacity:1"/>
<path class="bond-18 atom-18 atom-19" d="M 158.8,350.9 L 143.3,345.0" style="fill:none;fill-rule:evenodd;stroke:#000000;stroke-width:2.0px;stroke-linecap:butt;stroke-linejoin:miter;stroke-opacity:1"/>
<path class="bond-19 atom-19 atom-20" d="M 140.0,340.6 L 137.5,324.7" style="fill:none;fill-rule:evenodd;stroke:#000000;stroke-width:2.0px;stroke-linecap:butt;stroke-linejoin:miter;stroke-opacity:1"/>
<path class="bond-20 atom-20 atom-21" d="M 137.5,324.7 L 152.6,312.4" style="fill:none;fill-rule:evenodd;stroke:#000000;stroke-width:2.0px;stroke-linecap:butt;stroke-linejoin:miter;stroke-opacity:1"/>
<path class="bond-20 atom-20 atom-21" d="M 136.9,321.4 L 149.4,311.2" style="fill:none;fill-rule:evenodd;stroke:#000000;stroke-width:2.0px;stroke-linecap:butt;stroke-linejoin:miter;stroke-opacity:1"/>
<path class="bond-21 atom-21 atom-22" d="M 152.6,312.4 L 149.5,293.1" style="fill:none;fill-rule:evenodd;stroke:#000000;stroke-width:2.0px;stroke-linecap:butt;stroke-linejoin:miter;stroke-opacity:1"/>
<path class="bond-22 atom-22 atom-23" d="M 149.5,293.1 L 131.3,286.1" style="fill:none;fill-rule:evenodd;stroke:#000000;stroke-width:2.0px;stroke-linecap:butt;stroke-linejoin:miter;stroke-opacity:1"/>
<path class="bond-22 atom-22 atom-23" d="M 146.9,295.2 L 131.8,289.5" style="fill:none;fill-rule:evenodd;stroke:#000000;stroke-width:2.0px;stroke-linecap:butt;stroke-linejoin:miter;stroke-opacity:1"/>
<path class="bond-23 atom-23 atom-24" d="M 131.3,286.1 L 116.1,298.5" style="fill:none;fill-rule:evenodd;stroke:#000000;stroke-width:2.0px;stroke-linecap:butt;stroke-linejoin:miter;stroke-opacity:1"/>
<path class="bond-24 atom-24 atom-25" d="M 116.1,298.5 L 119.2,317.7" style="fill:none;fill-rule:evenodd;stroke:#000000;stroke-width:2.0px;stroke-linecap:butt;stroke-linejoin:miter;stroke-opacity:1"/>
<path class="bond-24 atom-24 atom-25" d="M 119.3,299.7 L 121.8,315.6" style="fill:none;fill-rule:evenodd;stroke:#000000;stroke-width:2.0px;stroke-linecap:butt;stroke-linejoin:miter;stroke-opacity:1"/>
<path class="bond-25 atom-25 atom-26" d="M 119.2,317.7 L 106.8,327.8" style="fill:none;fill-rule:evenodd;stroke:#000000;stroke-width:2.0px;stroke-linecap:butt;stroke-linejoin:miter;stroke-opacity:1"/>
<path class="bond-26 atom-26 atom-27" d="M 101.3,329.0 L 85.8,323.1" style="fill:none;fill-rule:evenodd;stroke:#000000;stroke-width:2.0px;stroke-linecap:butt;stroke-linejoin:miter;stroke-opacity:1"/>
<path class="bond-27 atom-27 atom-28" d="M 85.8,323.1 L 73.4,333.2" style="fill:none;fill-rule:evenodd;stroke:#000000;stroke-width:2.0px;stroke-linecap:butt;stroke-linejoin:miter;stroke-opacity:1"/>
<path class="bond-27 atom-27 atom-28" d="M 86.4,326.4 L 75.3,335.4" style="fill:none;fill-rule:evenodd;stroke:#000000;stroke-width:2.0px;stroke-linecap:butt;stroke-linejoin:miter;stroke-opacity:1"/>
<path class="bond-28 atom-28 atom-29" d="M 68.0,334.3 L 52.5,328.4" style="fill:none;fill-rule:evenodd;stroke:#000000;stroke-width:2.0px;stroke-linecap:butt;stroke-linejoin:miter;stroke-opacity:1"/>
<path class="bond-29 atom-29 atom-30" d="M 52.5,328.4 L 49.4,309.2" style="fill:none;fill-rule:evenodd;stroke:#000000;stroke-width:2.0px;stroke-linecap:butt;stroke-linejoin:miter;stroke-opacity:1"/>
<path class="bond-29 atom-29 atom-30" d="M 49.3,327.2 L 46.8,311.3" style="fill:none;fill-rule:evenodd;stroke:#000000;stroke-width:2.0px;stroke-linecap:butt;stroke-linejoin:miter;stroke-opacity:1"/>
<path class="bond-30 atom-30 atom-31" d="M 49.4,309.2 L 31.1,302.2" style="fill:none;fill-rule:evenodd;stroke:#000000;stroke-width:2.0px;stroke-linecap:butt;stroke-linejoin:miter;stroke-opacity:1"/>
<path class="bond-31 atom-31 atom-32" d="M 31.1,302.2 L 16.0,314.5" style="fill:none;fill-rule:evenodd;stroke:#000000;stroke-width:2.0px;stroke-linecap:butt;stroke-linejoin:miter;stroke-opacity:1"/>
<path class="bond-31 atom-31 atom-32" d="M 31.7,305.5 L 19.2,315.7" style="fill:none;fill-rule:evenodd;stroke:#000000;stroke-width:2.0px;stroke-linecap:butt;stroke-linejoin:miter;stroke-opacity:1"/>
<path class="bond-32 atom-32 atom-33" d="M 16.0,314.5 L 19.1,333.8" style="fill:none;fill-rule:evenodd;stroke:#000000;stroke-width:2.0px;stroke-linecap:butt;stroke-linejoin:miter;stroke-opacity:1"/>
<path class="bond-33 atom-33 atom-34" d="M 19.1,333.8 L 37.3,340.7" style="fill:none;fill-rule:evenodd;stroke:#000000;stroke-width:2.0px;stroke-linecap:butt;stroke-linejoin:miter;stroke-opacity:1"/>
<path class="bond-33 atom-33 atom-34" d="M 21.7,331.7 L 36.8,337.4" style="fill:none;fill-rule:evenodd;stroke:#000000;stroke-width:2.0px;stroke-linecap:butt;stroke-linejoin:miter;stroke-opacity:1"/>
<path class="bond-34 atom-34 atom-35" d="M 37.3,340.7 L 40.4,360.0" style="fill:none;fill-rule:evenodd;stroke:#000000;stroke-width:2.0px;stroke-linecap:butt;stroke-linejoin:miter;stroke-opacity:1"/>
<path class="bond-35 atom-35 atom-36" d="M 40.4,360.0 L 25.3,372.3" style="fill:none;fill-rule:evenodd;stroke:#000000;stroke-width:2.0px;stroke-linecap:butt;stroke-linejoin:miter;stroke-opacity:1"/>
<path class="bond-36 atom-36 atom-37" d="M 25.3,372.3 L 28.4,391.6" style="fill:none;fill-rule:evenodd;stroke:#000000;stroke-width:2.0px;stroke-linecap:butt;stroke-linejoin:miter;stroke-opacity:1"/>
<path class="bond-37 atom-37 atom-38" d="M 28.4,391.6 L 13.2,403.9" style="fill:none;fill-rule:evenodd;stroke:#000000;stroke-width:2.0px;stroke-linecap:butt;stroke-linejoin:miter;stroke-opacity:1"/>
<path class="bond-37 atom-37 atom-38" d="M 25.2,390.4 L 11.4,401.6" style="fill:none;fill-rule:evenodd;stroke:#000000;stroke-width:2.0px;stroke-linecap:butt;stroke-linejoin:miter;stroke-opacity:1"/>
<path class="bond-38 atom-16 atom-6" d="M 180.1,377.2 L 199.4,374.1" style="fill:none;fill-rule:evenodd;stroke:#000000;stroke-width:2.0px;stroke-linecap:butt;stroke-linejoin:miter;stroke-opacity:1"/>
<path class="bond-39 atom-15 atom-10" d="M 205.3,303.9 L 223.5,310.9" style="fill:none;fill-rule:evenodd;stroke:#000000;stroke-width:2.0px;stroke-linecap:butt;stroke-linejoin:miter;stroke-opacity:1"/>
<path class="bond-40 atom-25 atom-20" d="M 119.2,317.7 L 137.5,324.7" style="fill:none;fill-rule:evenodd;stroke:#000000;stroke-width:2.0px;stroke-linecap:butt;stroke-linejoin:miter;stroke-opacity:1"/>
<path class="bond-41 atom-34 atom-29" d="M 37.3,340.7 L 52.5,328.4" style="fill:none;fill-rule:evenodd;stroke:#000000;stroke-width:2.0px;stroke-linecap:butt;stroke-linejoin:miter;stroke-opacity:1"/>
<path d="M 182.8,443.7 L 183.5,443.2 L 183.3,442.2" style="fill:none;stroke:#000000;stroke-width:2.0px;stroke-linecap:butt;stroke-linejoin:miter;stroke-opacity:1;"/>
<path d="M 180.5,424.8 L 180.4,423.9 L 181.1,423.3" style="fill:none;stroke:#000000;stroke-width:2.0px;stroke-linecap:butt;stroke-linejoin:miter;stroke-opacity:1;"/>
<path d="M 194.8,412.2 L 195.5,411.6 L 195.4,410.6" style="fill:none;stroke:#000000;stroke-width:2.0px;stroke-linecap:butt;stroke-linejoin:miter;stroke-opacity:1;"/>
<path d="M 211.6,343.3 L 211.4,342.5 L 212.2,341.9" style="fill:none;stroke:#000000;stroke-width:2.0px;stroke-linecap:butt;stroke-linejoin:miter;stroke-opacity:1;"/>
<path d="M 225.8,330.8 L 226.6,330.2 L 226.4,329.2" style="fill:none;stroke:#000000;stroke-width:2.0px;stroke-linecap:butt;stroke-linejoin:miter;stroke-opacity:1;"/>
<path d="M 237.9,299.2 L 238.6,298.6 L 238.5,297.6" style="fill:none;stroke:#000000;stroke-width:2.0px;stroke-linecap:butt;stroke-linejoin:miter;stroke-opacity:1;"/>
<path d="M 235.7,280.3 L 235.5,279.3 L 234.6,279.0" style="fill:none;stroke:#000000;stroke-width:2.0px;stroke-linecap:butt;stroke-linejoin:miter;stroke-opacity:1;"/>
<path d="M 218.2,272.7 L 217.3,272.4 L 216.6,273.0" style="fill:none;stroke:#000000;stroke-width:2.0px;stroke-linecap:butt;stroke-linejoin:miter;stroke-opacity:1;"/>
<path d="M 202.9,284.0 L 202.2,284.7 L 202.3,285.6" style="fill:none;stroke:#000000;stroke-width:2.0px;stroke-linecap:butt;stroke-linejoin:miter;stroke-opacity:1;"/>
<path d="M 205.1,303.0 L 205.3,303.9 L 206.2,304.3" style="fill:none;stroke:#000000;stroke-width:2.0px;stroke-linecap:butt;stroke-linejoin:miter;stroke-opacity:1;"/>
<path d="M 162.8,370.5 L 161.9,370.2 L 161.7,369.2" style="fill:none;stroke:#000000;stroke-width:2.0px;stroke-linecap:butt;stroke-linejoin:miter;stroke-opacity:1;"/>
<path d="M 158.9,351.9 L 158.8,350.9 L 158.0,350.6" style="fill:none;stroke:#000000;stroke-width:2.0px;stroke-linecap:butt;stroke-linejoin:miter;stroke-opacity:1;"/>
<path d="M 151.8,313.0 L 152.6,312.4 L 152.5,311.4" style="fill:none;stroke:#000000;stroke-width:2.0px;stroke-linecap:butt;stroke-linejoin:miter;stroke-opacity:1;"/>
<path d="M 149.7,294.1 L 149.5,293.1 L 148.6,292.8" style="fill:none;stroke:#000000;stroke-width:2.0px;stroke-linecap:butt;stroke-linejoin:miter;stroke-opacity:1;"/>
<path d="M 132.2,286.5 L 131.3,286.1 L 130.5,286.8" style="fill:none;stroke:#000000;stroke-width:2.0px;stroke-linecap:butt;stroke-linejoin:miter;stroke-opacity:1;"/>
<path d="M 116.9,297.8 L 116.1,298.5 L 116.3,299.4" style="fill:none;stroke:#000000;stroke-width:2.0px;stroke-linecap:butt;stroke-linejoin:miter;stroke-opacity:1;"/>
<path d="M 86.6,323.4 L 85.8,323.1 L 85.2,323.6" style="fill:none;stroke:#000000;stroke-width:2.0px;stroke-linecap:butt;stroke-linejoin:miter;stroke-opacity:1;"/>
<path d="M 49.5,310.1 L 49.4,309.2 L 48.5,308.8" style="fill:none;stroke:#000000;stroke-width:2.0px;stroke-linecap:butt;stroke-linejoin:miter;stroke-opacity:1;"/>
<path d="M 32.1,302.5 L 31.1,302.2 L 30.4,302.8" style="fill:none;stroke:#000000;stroke-width:2.0px;stroke-linecap:butt;stroke-linejoin:miter;stroke-opacity:1;"/>
<path d="M 16.8,313.9 L 16.0,314.5 L 16.2,315.5" style="fill:none;stroke:#000000;stroke-width:2.0px;stroke-linecap:butt;stroke-linejoin:miter;stroke-opacity:1;"/>
<path d="M 18.9,332.8 L 19.1,333.8 L 20.0,334.1" style="fill:none;stroke:#000000;stroke-width:2.0px;stroke-linecap:butt;stroke-linejoin:miter;stroke-opacity:1;"/>
<path d="M 40.3,359.1 L 40.4,360.0 L 39.7,360.6" style="fill:none;stroke:#000000;stroke-width:2.0px;stroke-linecap:butt;stroke-linejoin:miter;stroke-opacity:1;"/>
<path d="M 26.0,371.7 L 25.3,372.3 L 25.4,373.3" style="fill:none;stroke:#000000;stroke-width:2.0px;stroke-linecap:butt;stroke-linejoin:miter;stroke-opacity:1;"/>
<path d="M 28.2,390.6 L 28.4,391.6 L 27.6,392.2" style="fill:none;stroke:#000000;stroke-width:2.0px;stroke-linecap:butt;stroke-linejoin:miter;stroke-opacity:1;"/>
<path class="atom-0" d="M 169.8 476.6 Q 169.9 476.7, 170.2 476.8 Q 170.4 476.9, 170.7 477.0 Q 171.0 477.0, 171.3 477.0 Q 171.8 477.0, 172.1 476.8 Q 172.4 476.5, 172.4 476.1 Q 172.4 475.8, 172.2 475.6 Q 172.1 475.4, 171.9 475.3 Q 171.6 475.2, 171.2 475.1 Q 170.7 474.9, 170.4 474.8 Q 170.2 474.6, 169.9 474.3 Q 169.7 474.0, 169.7 473.5 Q 169.7 472.8, 170.2 472.4 Q 170.7 472.0, 171.6 472.0 Q 172.3 472.0, 173.0 472.3 L 172.8 472.9 Q 172.2 472.6, 171.7 472.6 Q 171.1 472.6, 170.8 472.8 Q 170.5 473.1, 170.5 473.4 Q 170.5 473.7, 170.7 473.9 Q 170.8 474.1, 171.1 474.2 Q 171.3 474.3, 171.7 474.4 Q 172.2 474.6, 172.4 474.7 Q 172.7 474.9, 173.0 475.2 Q 173.2 475.5, 173.2 476.1 Q 173.2 476.8, 172.7 477.2 Q 172.2 477.6, 171.3 477.6 Q 170.8 477.6, 170.4 477.5 Q 170.1 477.4, 169.6 477.3 L 169.8 476.6 " fill="#000000"/>
<path class="atom-0" d="M 173.9 472.0 L 174.7 472.0 L 174.7 474.3 L 177.5 474.3 L 177.5 472.0 L 178.3 472.0 L 178.3 477.5 L 177.5 477.5 L 177.5 474.9 L 174.7 474.9 L 174.7 477.5 L 173.9 477.5 L 173.9 472.0 " fill="#000000"/>
<path class="atom-1" d="M 160.8 452.7 L 161.5 452.7 L 161.5 455.1 L 164.4 455.1 L 164.4 452.7 L 165.1 452.7 L 165.1 458.2 L 164.4 458.2 L 164.4 455.7 L 161.5 455.7 L 161.5 458.2 L 160.8 458.2 L 160.8 452.7 " fill="#000000"/>
<path class="atom-1" d="M 167.1 452.7 L 168.9 455.6 Q 169.1 455.9, 169.4 456.4 Q 169.7 457.0, 169.7 457.0 L 169.7 452.7 L 170.4 452.7 L 170.4 458.2 L 169.7 458.2 L 167.7 455.0 Q 167.5 454.7, 167.2 454.2 Q 167.0 453.8, 166.9 453.7 L 166.9 458.2 L 166.2 458.2 L 166.2 452.7 L 167.1 452.7 " fill="#000000"/>
<path class="atom-7" d="M 213.3 359.0 L 215.1 361.9 Q 215.3 362.2, 215.6 362.7 Q 215.9 363.2, 215.9 363.3 L 215.9 359.0 L 216.6 359.0 L 216.6 364.5 L 215.9 364.5 L 213.9 361.3 Q 213.7 360.9, 213.5 360.5 Q 213.2 360.1, 213.1 359.9 L 213.1 364.5 L 212.4 364.5 L 212.4 359.0 L 213.3 359.0 " fill="#000000"/>
<path class="atom-7" d="M 217.7 359.0 L 218.4 359.0 L 218.4 361.3 L 221.3 361.3 L 221.3 359.0 L 222.0 359.0 L 222.0 364.5 L 221.3 364.5 L 221.3 362.0 L 218.4 362.0 L 218.4 364.5 L 217.7 364.5 L 217.7 359.0 " fill="#000000"/>
<path class="atom-7" d="M 223.1 360.0 L 224.0 360.0 L 224.0 359.0 L 224.5 359.0 L 224.5 360.0 L 225.5 360.0 L 225.5 360.4 L 224.5 360.4 L 224.5 361.4 L 224.0 361.4 L 224.0 360.4 L 223.1 360.4 L 223.1 360.0 " fill="#000000"/>
<path class="atom-19" d="M 129.9 341.2 L 130.7 341.2 L 130.7 343.5 L 133.5 343.5 L 133.5 341.2 L 134.2 341.2 L 134.2 346.7 L 133.5 346.7 L 133.5 344.2 L 130.7 344.2 L 130.7 346.7 L 129.9 346.7 L 129.9 341.2 " fill="#000000"/>
<path class="atom-19" d="M 135.3 346.5 Q 135.4 346.2, 135.8 346.0 Q 136.1 345.8, 136.5 345.8 Q 137.1 345.8, 137.4 346.1 Q 137.7 346.4, 137.7 346.9 Q 137.7 347.5, 137.3 348.0 Q 136.9 348.5, 136.1 349.1 L 137.7 349.1 L 137.7 349.5 L 135.3 349.5 L 135.3 349.1 Q 136.0 348.7, 136.4 348.3 Q 136.8 347.9, 137.0 347.6 Q 137.2 347.3, 137.2 347.0 Q 137.2 346.6, 137.0 346.4 Q 136.8 346.2, 136.5 346.2 Q 136.2 346.2, 136.0 346.3 Q 135.8 346.4, 135.7 346.7 L 135.3 346.5 " fill="#000000"/>
<path class="atom-19" d="M 139.3 341.2 L 141.1 344.1 Q 141.3 344.4, 141.6 344.9 Q 141.9 345.5, 141.9 345.5 L 141.9 341.2 L 142.6 341.2 L 142.6 346.7 L 141.9 346.7 L 139.9 343.5 Q 139.7 343.1, 139.5 342.7 Q 139.2 342.3, 139.2 342.2 L 139.2 346.7 L 138.5 346.7 L 138.5 341.2 L 139.3 341.2 " fill="#000000"/>
<path class="atom-19" d="M 143.7 342.2 L 144.7 342.2 L 144.7 341.2 L 145.1 341.2 L 145.1 342.2 L 146.1 342.2 L 146.1 342.6 L 145.1 342.6 L 145.1 343.6 L 144.7 343.6 L 144.7 342.6 L 143.7 342.6 L 143.7 342.2 " fill="#000000"/>
<path class="atom-26" d="M 102.9 327.3 L 104.7 330.2 Q 104.8 330.5, 105.1 331.0 Q 105.4 331.5, 105.4 331.6 L 105.4 327.3 L 106.2 327.3 L 106.2 332.8 L 105.4 332.8 L 103.5 329.6 Q 103.2 329.2, 103.0 328.8 Q 102.8 328.4, 102.7 328.2 L 102.7 332.8 L 102.0 332.8 L 102.0 327.3 L 102.9 327.3 " fill="#000000"/>
<path class="atom-26" d="M 101.9 333.4 L 102.7 333.4 L 102.7 335.7 L 105.5 335.7 L 105.5 333.4 L 106.2 333.4 L 106.2 338.9 L 105.5 338.9 L 105.5 336.3 L 102.7 336.3 L 102.7 338.9 L 101.9 338.9 L 101.9 333.4 " fill="#000000"/>
<path class="atom-28" d="M 69.5 332.6 L 71.3 335.6 Q 71.5 335.8, 71.8 336.4 Q 72.0 336.9, 72.1 336.9 L 72.1 332.6 L 72.8 332.6 L 72.8 338.2 L 72.0 338.2 L 70.1 335.0 Q 69.9 334.6, 69.6 334.2 Q 69.4 333.7, 69.3 333.6 L 69.3 338.2 L 68.6 338.2 L 68.6 332.6 L 69.5 332.6 " fill="#000000"/>
<path class="atom-7" d="M 227.0,361.8 L 227.0,361.8 L 227.0,361.8 L 227.0,361.9 L 227.0,361.9 L 227.0,361.9 L 227.0,361.9 L 227.0,362.0 L 226.9,362.0 L 226.9,362.0 L 226.9,362.0 L 226.9,362.1 L 226.8,362.1 L 226.8,362.1 L 226.8,362.1 L 226.8,362.1 L 226.7,362.1 L 226.7,362.1 L 226.7,362.1 L 226.6,362.1 L 226.6,362.1 L 226.6,362.1 L 226.5,362.1 L 226.5,362.1 L 226.5,362.1 L 226.4,362.1 L 226.4,362.1 L 226.4,362.0 L 226.4,362.0 L 226.3,362.0 L 226.3,362.0 L 226.3,361.9 L 226.3,361.9 L 226.3,361.9 L 226.3,361.8 L 226.3,361.8 L 226.3,361.8 L 226.3,361.7 L 226.3,361.7 L 226.3,361.7 L 226.3,361.6 L 226.3,361.6 L 226.3,361.6 L 226.3,361.5 L 226.3,361.5 L 226.4,361.5 L 226.4,361.5 L 226.4,361.4 L 226.4,361.4 L 226.5,361.4 L 226.5,361.4 L 226.5,361.4 L 226.6,361.4 L 226.6,361.4 L 226.6,361.4 L 226.7,361.4 L 226.7,361.4 L 226.7,361.4 L 226.8,361.4 L 226.8,361.4 L 226.8,361.4 L 226.8,361.4 L 226.9,361.4 L 226.9,361.5 L 226.9,361.5 L 226.9,361.5 L 227.0,361.5 L 227.0,361.6 L 227.0,361.6 L 227.0,361.6 L 227.0,361.7 L 227.0,361.7 L 227.0,361.7 L 227.0,361.8 L 226.6,361.8 Z" style="fill:#000000;fill-rule:evenodd;fill-opacity:1;stroke:#000000;stroke-width:0.0px;stroke-linecap:butt;stroke-linejoin:miter;stroke-opacity:1;"/>
<path class="bond-0 atom-0 atom-1" d="M 367.4,409.8 L 367.4,446.5" style="fill:none;fill-rule:evenodd;stroke:#000000;stroke-width:2.0px;stroke-linecap:butt;stroke-linejoin:miter;stroke-opacity:1"/>
<path class="bond-1 atom-0 atom-2" d="M 360.4,395.4 L 318.1,371.0" style="fill:none;fill-rule:evenodd;stroke:#000000;stroke-width:2.0px;stroke-linecap:butt;stroke-linejoin:miter;stroke-opacity:1"/>
<path class="bond-2 atom-2 atom-3" d="M 318.1,366.0 L 275.9,390.4" style="fill:none;fill-rule:evenodd;stroke:#000000;stroke-width:2.0px;stroke-linecap:butt;stroke-linejoin:miter;stroke-opacity:1"/>
<path class="bond-2 atom-2 atom-3" d="M 322.4,373.4 L 280.2,397.8" style="fill:none;fill-rule:evenodd;stroke:#000000;stroke-width:2.0px;stroke-linecap:butt;stroke-linejoin:miter;stroke-opacity:1"/>
<path class="bond-3 atom-2 atom-4" d="M 318.1,371.0 L 318.1,314.0" style="fill:none;fill-rule:evenodd;stroke:#000000;stroke-width:2.0px;stroke-linecap:butt;stroke-linejoin:miter;stroke-opacity:1"/>
<path class="bond-4 atom-4 atom-5" d="M 318.1,314.0 L 367.4,285.5" style="fill:none;fill-rule:evenodd;stroke:#000000;stroke-width:2.0px;stroke-linecap:butt;stroke-linejoin:miter;stroke-opacity:1"/>
<path class="bond-4 atom-4 atom-5" d="M 326.6,318.9 L 367.4,295.4" style="fill:none;fill-rule:evenodd;stroke:#000000;stroke-width:2.0px;stroke-linecap:butt;stroke-linejoin:miter;stroke-opacity:1"/>
<path class="bond-5 atom-5 atom-6" d="M 367.4,285.5 L 416.8,314.0" style="fill:none;fill-rule:evenodd;stroke:#000000;stroke-width:2.0px;stroke-linecap:butt;stroke-linejoin:miter;stroke-opacity:1"/>
<path class="bond-6 atom-6 atom-7" d="M 416.8,314.0 L 416.8,371.0" style="fill:none;fill-rule:evenodd;stroke:#000000;stroke-width:2.0px;stroke-linecap:butt;stroke-linejoin:miter;stroke-opacity:1"/>
<path class="bond-6 atom-6 atom-7" d="M 408.2,318.9 L 408.2,366.0" style="fill:none;fill-rule:evenodd;stroke:#000000;stroke-width:2.0px;stroke-linecap:butt;stroke-linejoin:miter;stroke-opacity:1"/>
<path class="bond-7 atom-7 atom-8" d="M 416.8,371.0 L 456.8,394.1" style="fill:none;fill-rule:evenodd;stroke:#000000;stroke-width:2.0px;stroke-linecap:butt;stroke-linejoin:miter;stroke-opacity:1"/>
<path class="bond-8 atom-7 atom-0" d="M 416.8,371.0 L 380.4,392.0" style="fill:none;fill-rule:evenodd;stroke:#000000;stroke-width:2.0px;stroke-linecap:butt;stroke-linejoin:miter;stroke-opacity:1"/>
<path d="M 320.2,372.2 L 318.1,371.0 L 318.1,368.1" style="fill:none;stroke:#000000;stroke-width:2.0px;stroke-linecap:butt;stroke-linejoin:miter;stroke-opacity:1;"/>
<path d="M 318.1,316.9 L 318.1,314.0 L 320.6,312.6" style="fill:none;stroke:#000000;stroke-width:2.0px;stroke-linecap:butt;stroke-linejoin:miter;stroke-opacity:1;"/>
<path d="M 365.0,286.9 L 367.4,285.5 L 369.9,286.9" style="fill:none;stroke:#000000;stroke-width:2.0px;stroke-linecap:butt;stroke-linejoin:miter;stroke-opacity:1;"/>
<path d="M 414.3,312.6 L 416.8,314.0 L 416.8,316.9" style="fill:none;stroke:#000000;stroke-width:2.0px;stroke-linecap:butt;stroke-linejoin:miter;stroke-opacity:1;"/>
<path class="atom-0" d="M 362.9 405.0 Q 363.1 405.1, 363.8 405.4 Q 364.6 405.7, 365.4 405.9 Q 366.2 406.1, 367.0 406.1 Q 368.6 406.1, 369.5 405.4 Q 370.3 404.6, 370.3 403.3 Q 370.3 402.4, 369.9 401.9 Q 369.5 401.3, 368.8 401.0 Q 368.1 400.7, 367.0 400.4 Q 365.5 400.0, 364.7 399.5 Q 363.8 399.1, 363.2 398.3 Q 362.6 397.4, 362.6 395.9 Q 362.6 393.9, 364.0 392.7 Q 365.4 391.4, 368.1 391.4 Q 370.0 391.4, 372.1 392.3 L 371.6 394.0 Q 369.6 393.3, 368.2 393.3 Q 366.6 393.3, 365.7 393.9 Q 364.9 394.5, 364.9 395.7 Q 364.9 396.5, 365.3 397.1 Q 365.8 397.6, 366.4 397.9 Q 367.1 398.2, 368.2 398.5 Q 369.6 399.0, 370.5 399.4 Q 371.4 399.9, 372.0 400.8 Q 372.6 401.7, 372.6 403.3 Q 372.6 405.5, 371.1 406.7 Q 369.6 407.9, 367.1 407.9 Q 365.7 407.9, 364.6 407.6 Q 363.5 407.3, 362.3 406.8 L 362.9 405.0 " fill="#000000"/>
<path class="atom-0" d="M 374.6 393.8 L 380.1 393.8 L 380.1 395.0 L 374.6 395.0 L 374.6 393.8 " fill="#000000"/>
<path class="atom-1" d="M 369.8 456.0 Q 371.3 456.4, 372.1 457.4 Q 372.9 458.3, 372.9 459.7 Q 372.9 461.9, 371.5 463.2 Q 370.1 464.5, 367.4 464.5 L 362.0 464.5 L 362.0 448.3 L 366.7 448.3 Q 369.5 448.3, 370.9 449.5 Q 372.3 450.6, 372.3 452.6 Q 372.3 455.1, 369.8 456.0 M 364.1 450.2 L 364.1 455.2 L 366.7 455.2 Q 368.3 455.2, 369.1 454.6 Q 370.0 453.9, 370.0 452.6 Q 370.0 450.2, 366.7 450.2 L 364.1 450.2 M 367.4 462.7 Q 368.9 462.7, 369.8 461.9 Q 370.6 461.2, 370.6 459.7 Q 370.6 458.4, 369.7 457.7 Q 368.8 457.1, 367.0 457.1 L 364.1 457.1 L 364.1 462.7 L 367.4 462.7 " fill="#000000"/>
<path class="atom-1" d="M 376.6 452.8 L 376.8 454.4 Q 378.1 452.6, 380.1 452.6 Q 380.7 452.6, 381.6 452.8 L 381.2 454.7 Q 380.2 454.5, 379.7 454.5 Q 378.7 454.5, 378.1 454.9 Q 377.5 455.2, 377.0 456.1 L 377.0 464.5 L 374.8 464.5 L 374.8 452.8 L 376.6 452.8 " fill="#000000"/>
<path class="atom-3" d="M 261.4 399.5 Q 261.4 395.6, 263.3 393.5 Q 265.2 391.3, 268.8 391.3 Q 272.3 391.3, 274.3 393.5 Q 276.2 395.6, 276.2 399.5 Q 276.2 403.4, 274.2 405.6 Q 272.3 407.9, 268.8 407.9 Q 265.2 407.9, 263.3 405.6 Q 261.4 403.4, 261.4 399.5 M 268.8 406.0 Q 271.2 406.0, 272.6 404.4 Q 273.9 402.7, 273.9 399.5 Q 273.9 396.3, 272.6 394.7 Q 271.2 393.1, 268.8 393.1 Q 266.3 393.1, 265.0 394.7 Q 263.6 396.3, 263.6 399.5 Q 263.6 402.8, 265.0 404.4 Q 266.3 406.0, 268.8 406.0 " fill="#000000"/>
<path class="atom-8" d="M 458.7 399.5 Q 458.7 395.6, 460.6 393.5 Q 462.5 391.3, 466.1 391.3 Q 469.7 391.3, 471.6 393.5 Q 473.5 395.6, 473.5 399.5 Q 473.5 403.4, 471.6 405.6 Q 469.6 407.9, 466.1 407.9 Q 462.5 407.9, 460.6 405.6 Q 458.7 403.4, 458.7 399.5 M 466.1 406.0 Q 468.6 406.0, 469.9 404.4 Q 471.2 402.7, 471.2 399.5 Q 471.2 396.3, 469.9 394.7 Q 468.6 393.1, 466.1 393.1 Q 463.6 393.1, 462.3 394.7 Q 461.0 396.3, 461.0 399.5 Q 461.0 402.8, 462.3 404.4 Q 463.6 406.0, 466.1 406.0 " fill="#000000"/>
<path class="atom-8" d="M 476.0 391.5 L 478.2 391.5 L 478.2 398.3 L 486.4 398.3 L 486.4 391.5 L 488.6 391.5 L 488.6 407.6 L 486.4 407.6 L 486.4 400.2 L 478.2 400.2 L 478.2 407.6 L 476.0 407.6 L 476.0 391.5 " fill="#000000"/>
<path class="bond-0 atom-0 atom-1" d="M 548.2,342.4 L 539.7,357.3" style="fill:none;fill-rule:evenodd;stroke:#000000;stroke-width:2.0px;stroke-linecap:butt;stroke-linejoin:miter;stroke-opacity:1"/>
<path class="bond-1 atom-1 atom-2" d="M 539.7,357.3 L 521.6,359.3" style="fill:none;fill-rule:evenodd;stroke:#000000;stroke-width:2.0px;stroke-linecap:butt;stroke-linejoin:miter;stroke-opacity:1"/>
<path class="bond-2 atom-2 atom-3" d="M 517.3,363.6 L 514.5,377.2" style="fill:none;fill-rule:evenodd;stroke:#000000;stroke-width:2.0px;stroke-linecap:butt;stroke-linejoin:miter;stroke-opacity:1"/>
<path class="bond-3 atom-3 atom-4" d="M 516.8,382.7 L 532.6,391.8" style="fill:none;fill-rule:evenodd;stroke:#000000;stroke-width:2.0px;stroke-linecap:butt;stroke-linejoin:miter;stroke-opacity:1"/>
<path class="bond-3 atom-3 atom-4" d="M 518.4,379.9 L 532.2,387.8" style="fill:none;fill-rule:evenodd;stroke:#000000;stroke-width:2.0px;stroke-linecap:butt;stroke-linejoin:miter;stroke-opacity:1"/>
<path class="bond-4 atom-4 atom-5" d="M 532.6,391.8 L 545.7,379.9" style="fill:none;fill-rule:evenodd;stroke:#000000;stroke-width:2.0px;stroke-linecap:butt;stroke-linejoin:miter;stroke-opacity:1"/>
<path class="bond-5 atom-5 atom-6" d="M 551.8,377.7 L 570.0,381.5" style="fill:none;fill-rule:evenodd;stroke:#000000;stroke-width:2.0px;stroke-linecap:butt;stroke-linejoin:miter;stroke-opacity:1"/>
<path class="bond-6 atom-6 atom-7" d="M 570.0,381.5 L 584.5,365.2" style="fill:none;fill-rule:evenodd;stroke:#000000;stroke-width:2.0px;stroke-linecap:butt;stroke-linejoin:miter;stroke-opacity:1"/>
<path class="bond-7 atom-7 atom-8" d="M 584.5,365.2 L 579.8,344.0" style="fill:none;fill-rule:evenodd;stroke:#000000;stroke-width:2.0px;stroke-linecap:butt;stroke-linejoin:miter;stroke-opacity:1"/>
<path class="bond-8 atom-8 atom-9" d="M 579.8,344.0 L 598.6,332.9" style="fill:none;fill-rule:evenodd;stroke:#000000;stroke-width:2.0px;stroke-linecap:butt;stroke-linejoin:miter;stroke-opacity:1"/>
<path class="bond-9 atom-9 atom-10" d="M 598.6,332.9 L 614.9,347.4" style="fill:none;fill-rule:evenodd;stroke:#000000;stroke-width:2.0px;stroke-linecap:butt;stroke-linejoin:miter;stroke-opacity:1"/>
<path class="bond-10 atom-10 atom-11" d="M 614.9,347.4 L 606.2,367.4" style="fill:none;fill-rule:evenodd;stroke:#000000;stroke-width:2.0px;stroke-linecap:butt;stroke-linejoin:miter;stroke-opacity:1"/>
<path class="bond-11 atom-11 atom-12" d="M 606.2,367.4 L 617.2,386.1" style="fill:none;fill-rule:evenodd;stroke:#000000;stroke-width:2.0px;stroke-linecap:butt;stroke-linejoin:miter;stroke-opacity:1"/>
<path class="bond-12 atom-12 atom-13" d="M 617.2,386.1 L 606.4,405.1" style="fill:none;fill-rule:evenodd;stroke:#000000;stroke-width:2.0px;stroke-linecap:butt;stroke-linejoin:miter;stroke-opacity:1"/>
<path class="bond-12 atom-12 atom-13" d="M 619.1,389.4 L 610.2,405.0" style="fill:none;fill-rule:evenodd;stroke:#000000;stroke-width:2.0px;stroke-linecap:butt;stroke-linejoin:miter;stroke-opacity:1"/>
<path class="bond-13 atom-13 atom-14" d="M 606.4,405.1 L 617.4,423.9" style="fill:none;fill-rule:evenodd;stroke:#000000;stroke-width:2.0px;stroke-linecap:butt;stroke-linejoin:miter;stroke-opacity:1"/>
<path class="bond-14 atom-14 atom-15" d="M 617.4,423.9 L 639.2,423.7" style="fill:none;fill-rule:evenodd;stroke:#000000;stroke-width:2.0px;stroke-linecap:butt;stroke-linejoin:miter;stroke-opacity:1"/>
<path class="bond-14 atom-14 atom-15" d="M 619.3,420.6 L 637.3,420.5" style="fill:none;fill-rule:evenodd;stroke:#000000;stroke-width:2.0px;stroke-linecap:butt;stroke-linejoin:miter;stroke-opacity:1"/>
<path class="bond-15 atom-15 atom-16" d="M 639.2,423.7 L 650.0,404.8" style="fill:none;fill-rule:evenodd;stroke:#000000;stroke-width:2.0px;stroke-linecap:butt;stroke-linejoin:miter;stroke-opacity:1"/>
<path class="bond-16 atom-16 atom-17" d="M 650.0,404.8 L 638.9,386.0" style="fill:none;fill-rule:evenodd;stroke:#000000;stroke-width:2.0px;stroke-linecap:butt;stroke-linejoin:miter;stroke-opacity:1"/>
<path class="bond-16 atom-16 atom-17" d="M 646.2,404.8 L 637.1,389.3" style="fill:none;fill-rule:evenodd;stroke:#000000;stroke-width:2.0px;stroke-linecap:butt;stroke-linejoin:miter;stroke-opacity:1"/>
<path class="bond-17 atom-17 atom-18" d="M 638.9,386.0 L 647.6,370.9" style="fill:none;fill-rule:evenodd;stroke:#000000;stroke-width:2.0px;stroke-linecap:butt;stroke-linejoin:miter;stroke-opacity:1"/>
<path class="bond-18 atom-18 atom-19" d="M 656.6,367.0 L 671.5,366.9" style="fill:none;fill-rule:evenodd;stroke:#000000;stroke-width:2.0px;stroke-linecap:butt;stroke-linejoin:miter;stroke-opacity:1"/>
<path class="bond-19 atom-19 atom-20" d="M 671.5,366.9 L 682.5,385.7" style="fill:none;fill-rule:evenodd;stroke:#000000;stroke-width:2.0px;stroke-linecap:butt;stroke-linejoin:miter;stroke-opacity:1"/>
<path class="bond-19 atom-19 atom-20" d="M 675.3,366.9 L 684.4,382.4" style="fill:none;fill-rule:evenodd;stroke:#000000;stroke-width:2.0px;stroke-linecap:butt;stroke-linejoin:miter;stroke-opacity:1"/>
<path class="bond-20 atom-20 atom-21" d="M 682.5,385.7 L 704.3,385.6" style="fill:none;fill-rule:evenodd;stroke:#000000;stroke-width:2.0px;stroke-linecap:butt;stroke-linejoin:miter;stroke-opacity:1"/>
<path class="bond-21 atom-21 atom-22" d="M 704.3,385.6 L 715.0,366.7" style="fill:none;fill-rule:evenodd;stroke:#000000;stroke-width:2.0px;stroke-linecap:butt;stroke-linejoin:miter;stroke-opacity:1"/>
<path class="bond-21 atom-21 atom-22" d="M 702.4,382.3 L 711.3,366.7" style="fill:none;fill-rule:evenodd;stroke:#000000;stroke-width:2.0px;stroke-linecap:butt;stroke-linejoin:miter;stroke-opacity:1"/>
<path class="bond-22 atom-22 atom-23" d="M 715.0,366.7 L 734.3,366.5" style="fill:none;fill-rule:evenodd;stroke:#000000;stroke-width:2.0px;stroke-linecap:butt;stroke-linejoin:miter;stroke-opacity:1"/>
<path class="bond-23 atom-22 atom-24" d="M 715.0,366.7 L 704.0,347.9" style="fill:none;fill-rule:evenodd;stroke:#000000;stroke-width:2.0px;stroke-linecap:butt;stroke-linejoin:miter;stroke-opacity:1"/>
<path class="bond-24 atom-24 atom-25" d="M 704.0,347.9 L 682.3,348.0" style="fill:none;fill-rule:evenodd;stroke:#000000;stroke-width:2.0px;stroke-linecap:butt;stroke-linejoin:miter;stroke-opacity:1"/>
<path class="bond-24 atom-24 atom-25" d="M 702.2,351.2 L 684.2,351.3" style="fill:none;fill-rule:evenodd;stroke:#000000;stroke-width:2.0px;stroke-linecap:butt;stroke-linejoin:miter;stroke-opacity:1"/>
<path class="bond-25 atom-25 atom-26" d="M 682.3,348.0 L 673.2,332.6" style="fill:none;fill-rule:evenodd;stroke:#000000;stroke-width:2.0px;stroke-linecap:butt;stroke-linejoin:miter;stroke-opacity:1"/>
<path class="bond-26 atom-5 atom-1" d="M 547.0,373.3 L 539.7,357.3" style="fill:none;fill-rule:evenodd;stroke:#000000;stroke-width:2.0px;stroke-linecap:butt;stroke-linejoin:miter;stroke-opacity:1"/>
<path class="bond-27 atom-11 atom-7" d="M 606.2,367.4 L 584.5,365.2" style="fill:none;fill-rule:evenodd;stroke:#000000;stroke-width:2.0px;stroke-linecap:butt;stroke-linejoin:miter;stroke-opacity:1"/>
<path class="bond-28 atom-17 atom-12" d="M 638.9,386.0 L 617.2,386.1" style="fill:none;fill-rule:evenodd;stroke:#000000;stroke-width:2.0px;stroke-linecap:butt;stroke-linejoin:miter;stroke-opacity:1"/>
<path class="bond-29 atom-25 atom-19" d="M 682.3,348.0 L 671.5,366.9" style="fill:none;fill-rule:evenodd;stroke:#000000;stroke-width:2.0px;stroke-linecap:butt;stroke-linejoin:miter;stroke-opacity:1"/>
<path d="M 531.8,391.3 L 532.6,391.8 L 533.3,391.2" style="fill:none;stroke:#000000;stroke-width:2.0px;stroke-linecap:butt;stroke-linejoin:miter;stroke-opacity:1;"/>
<path d="M 569.1,381.3 L 570.0,381.5 L 570.8,380.7" style="fill:none;stroke:#000000;stroke-width:2.0px;stroke-linecap:butt;stroke-linejoin:miter;stroke-opacity:1;"/>
<path d="M 580.1,345.0 L 579.8,344.0 L 580.8,343.4" style="fill:none;stroke:#000000;stroke-width:2.0px;stroke-linecap:butt;stroke-linejoin:miter;stroke-opacity:1;"/>
<path d="M 597.7,333.5 L 598.6,332.9 L 599.4,333.7" style="fill:none;stroke:#000000;stroke-width:2.0px;stroke-linecap:butt;stroke-linejoin:miter;stroke-opacity:1;"/>
<path d="M 614.1,346.7 L 614.9,347.4 L 614.5,348.4" style="fill:none;stroke:#000000;stroke-width:2.0px;stroke-linecap:butt;stroke-linejoin:miter;stroke-opacity:1;"/>
<path d="M 607.0,404.1 L 606.4,405.1 L 607.0,406.0" style="fill:none;stroke:#000000;stroke-width:2.0px;stroke-linecap:butt;stroke-linejoin:miter;stroke-opacity:1;"/>
<path d="M 616.9,422.9 L 617.4,423.9 L 618.5,423.8" style="fill:none;stroke:#000000;stroke-width:2.0px;stroke-linecap:butt;stroke-linejoin:miter;stroke-opacity:1;"/>
<path d="M 638.1,423.7 L 639.2,423.7 L 639.7,422.8" style="fill:none;stroke:#000000;stroke-width:2.0px;stroke-linecap:butt;stroke-linejoin:miter;stroke-opacity:1;"/>
<path d="M 649.4,405.7 L 650.0,404.8 L 649.4,403.9" style="fill:none;stroke:#000000;stroke-width:2.0px;stroke-linecap:butt;stroke-linejoin:miter;stroke-opacity:1;"/>
<path d="M 681.9,384.8 L 682.5,385.7 L 683.6,385.7" style="fill:none;stroke:#000000;stroke-width:2.0px;stroke-linecap:butt;stroke-linejoin:miter;stroke-opacity:1;"/>
<path d="M 703.2,385.6 L 704.3,385.6 L 704.8,384.6" style="fill:none;stroke:#000000;stroke-width:2.0px;stroke-linecap:butt;stroke-linejoin:miter;stroke-opacity:1;"/>
<path d="M 704.6,348.8 L 704.0,347.9 L 702.9,347.9" style="fill:none;stroke:#000000;stroke-width:2.0px;stroke-linecap:butt;stroke-linejoin:miter;stroke-opacity:1;"/>
<path class="atom-0" d="M 548.1 338.6 Q 548.1 337.0, 548.8 336.2 Q 549.6 335.4, 550.9 335.4 Q 552.2 335.4, 552.9 336.3 L 552.3 336.8 Q 551.8 336.1, 550.9 336.1 Q 550.0 336.1, 549.5 336.8 Q 549.0 337.4, 549.0 338.6 Q 549.0 339.8, 549.5 340.4 Q 550.0 341.0, 551.0 341.0 Q 551.7 341.0, 552.5 340.6 L 552.7 341.3 Q 552.4 341.5, 551.9 341.6 Q 551.4 341.7, 550.9 341.7 Q 549.6 341.7, 548.8 340.9 Q 548.1 340.1, 548.1 338.6 " fill="#000000"/>
<path class="atom-0" d="M 553.5 335.0 L 554.3 335.0 L 554.3 341.6 L 553.5 341.6 L 553.5 335.0 " fill="#000000"/>
<path class="atom-2" d="M 515.3 359.7 Q 515.3 358.2, 516.0 357.4 Q 516.7 356.6, 518.1 356.6 Q 519.5 356.6, 520.2 357.4 Q 520.9 358.2, 520.9 359.7 Q 520.9 361.2, 520.2 362.1 Q 519.4 362.9, 518.1 362.9 Q 516.7 362.9, 516.0 362.1 Q 515.3 361.2, 515.3 359.7 M 518.1 362.2 Q 519.0 362.2, 519.5 361.6 Q 520.1 360.9, 520.1 359.7 Q 520.1 358.5, 519.5 357.9 Q 519.0 357.3, 518.1 357.3 Q 517.2 357.3, 516.6 357.9 Q 516.1 358.5, 516.1 359.7 Q 516.1 360.9, 516.6 361.6 Q 517.2 362.2, 518.1 362.2 " fill="#000000"/>
<path class="atom-3" d="M 512.3 377.9 L 514.4 381.2 Q 514.6 381.5, 514.9 382.1 Q 515.2 382.7, 515.2 382.7 L 515.2 377.9 L 516.0 377.9 L 516.0 384.1 L 515.2 384.1 L 513.0 380.5 Q 512.8 380.1, 512.5 379.6 Q 512.2 379.1, 512.2 379.0 L 512.2 384.1 L 511.4 384.1 L 511.4 377.9 L 512.3 377.9 " fill="#000000"/>
<path class="atom-5" d="M 547.4 374.0 L 549.4 377.3 Q 549.6 377.6, 549.9 378.2 Q 550.2 378.8, 550.2 378.8 L 550.2 374.0 L 551.1 374.0 L 551.1 380.2 L 550.2 380.2 L 548.0 376.6 Q 547.8 376.2, 547.5 375.7 Q 547.3 375.2, 547.2 375.1 L 547.2 380.2 L 546.4 380.2 L 546.4 374.0 L 547.4 374.0 " fill="#000000"/>
<path class="atom-18" d="M 641.4 364.0 L 642.2 364.0 L 642.2 366.6 L 645.3 366.6 L 645.3 364.0 L 646.2 364.0 L 646.2 370.2 L 645.3 370.2 L 645.3 367.3 L 642.2 367.3 L 642.2 370.2 L 641.4 370.2 L 641.4 364.0 " fill="#000000"/>
<path class="atom-18" d="M 648.4 364.0 L 650.4 367.3 Q 650.6 367.6, 650.9 368.2 Q 651.2 368.8, 651.2 368.8 L 651.2 364.0 L 652.1 364.0 L 652.1 370.2 L 651.2 370.2 L 649.0 366.6 Q 648.8 366.2, 648.5 365.7 Q 648.3 365.2, 648.2 365.1 L 648.2 370.2 L 647.4 370.2 L 647.4 364.0 L 648.4 364.0 " fill="#000000"/>
<path class="atom-18" d="M 653.2 365.1 L 654.3 365.1 L 654.3 364.0 L 654.8 364.0 L 654.8 365.1 L 655.9 365.1 L 655.9 365.5 L 654.8 365.5 L 654.8 366.7 L 654.3 366.7 L 654.3 365.5 L 653.2 365.5 L 653.2 365.1 " fill="#000000"/>
<path class="atom-23" d="M 735.0 363.4 L 738.6 363.4 L 738.6 364.1 L 735.8 364.1 L 735.8 366.0 L 738.3 366.0 L 738.3 366.7 L 735.8 366.7 L 735.8 369.6 L 735.0 369.6 L 735.0 363.4 " fill="#000000"/>
<path class="atom-26" d="M 668.0 329.1 Q 668.6 329.2, 668.9 329.6 Q 669.2 330.0, 669.2 330.5 Q 669.2 331.3, 668.7 331.8 Q 668.1 332.3, 667.1 332.3 L 665.0 332.3 L 665.0 326.1 L 666.9 326.1 Q 667.9 326.1, 668.4 326.6 Q 669.0 327.0, 669.0 327.8 Q 669.0 328.7, 668.0 329.1 M 665.9 326.8 L 665.9 328.8 L 666.9 328.8 Q 667.5 328.8, 667.8 328.5 Q 668.1 328.3, 668.1 327.8 Q 668.1 326.8, 666.9 326.8 L 665.9 326.8 M 667.1 331.6 Q 667.7 331.6, 668.0 331.3 Q 668.4 331.0, 668.4 330.5 Q 668.4 330.0, 668.0 329.7 Q 667.6 329.5, 667.0 329.5 L 665.9 329.5 L 665.9 331.6 L 667.1 331.6 " fill="#000000"/>
<path class="atom-26" d="M 670.6 327.8 L 670.7 328.5 Q 671.2 327.8, 672.0 327.8 Q 672.2 327.8, 672.5 327.8 L 672.4 328.6 Q 672.0 328.5, 671.8 328.5 Q 671.5 328.5, 671.2 328.6 Q 671.0 328.8, 670.8 329.1 L 670.8 332.3 L 670.0 332.3 L 670.0 327.8 L 670.6 327.8 " fill="#000000"/>
<path class="atom-18" d="M 640.5,367.1 L 640.5,367.1 L 640.5,367.2 L 640.5,367.2 L 640.5,367.2 L 640.4,367.3 L 640.4,367.3 L 640.4,367.3 L 640.4,367.4 L 640.4,367.4 L 640.3,367.4 L 640.3,367.4 L 640.3,367.5 L 640.2,367.5 L 640.2,367.5 L 640.2,367.5 L 640.1,367.5 L 640.1,367.5 L 640.1,367.5 L 640.0,367.5 L 640.0,367.5 L 640.0,367.5 L 639.9,367.5 L 639.9,367.5 L 639.8,367.5 L 639.8,367.4 L 639.8,367.4 L 639.8,367.4 L 639.7,367.4 L 639.7,367.3 L 639.7,367.3 L 639.7,367.3 L 639.6,367.2 L 639.6,367.2 L 639.6,367.2 L 639.6,367.1 L 639.6,367.1 L 639.6,367.1 L 639.6,367.0 L 639.6,367.0 L 639.6,366.9 L 639.6,366.9 L 639.7,366.9 L 639.7,366.8 L 639.7,366.8 L 639.7,366.8 L 639.8,366.8 L 639.8,366.7 L 639.8,366.7 L 639.8,366.7 L 639.9,366.7 L 639.9,366.7 L 640.0,366.7 L 640.0,366.6 L 640.0,366.6 L 640.1,366.6 L 640.1,366.6 L 640.1,366.7 L 640.2,366.7 L 640.2,366.7 L 640.2,366.7 L 640.3,366.7 L 640.3,366.7 L 640.3,366.7 L 640.4,366.8 L 640.4,366.8 L 640.4,366.8 L 640.4,366.9 L 640.4,366.9 L 640.5,366.9 L 640.5,367.0 L 640.5,367.0 L 640.5,367.0 L 640.5,367.1 L 640.1,367.1 Z" style="fill:#000000;fill-rule:evenodd;fill-opacity:1;stroke:#000000;stroke-width:0.0px;stroke-linecap:butt;stroke-linejoin:miter;stroke-opacity:1;"/>
<path class="bond-0 atom-0 atom-1" d="M 221.8,635.4 L 224.4,651.2" style="fill:none;fill-rule:evenodd;stroke:#000000;stroke-width:2.0px;stroke-linecap:butt;stroke-linejoin:miter;stroke-opacity:1"/>
<path class="bond-1 atom-0 atom-2" d="M 224.3,627.5 L 238.6,613.0" style="fill:none;fill-rule:evenodd;stroke:#000000;stroke-width:2.0px;stroke-linecap:butt;stroke-linejoin:miter;stroke-opacity:1"/>
<path class="bond-2 atom-2 atom-3" d="M 238.6,613.0 L 227.1,590.7" style="fill:none;fill-rule:evenodd;stroke:#000000;stroke-width:2.0px;stroke-linecap:butt;stroke-linejoin:miter;stroke-opacity:1"/>
<path class="bond-3 atom-3 atom-4" d="M 227.1,590.7 L 202.3,594.8" style="fill:none;fill-rule:evenodd;stroke:#000000;stroke-width:2.0px;stroke-linecap:butt;stroke-linejoin:miter;stroke-opacity:1"/>
<path class="bond-4 atom-4 atom-5" d="M 202.3,594.8 L 198.6,619.6" style="fill:none;fill-rule:evenodd;stroke:#000000;stroke-width:2.0px;stroke-linecap:butt;stroke-linejoin:miter;stroke-opacity:1"/>
<path class="bond-5 atom-5 atom-6" d="M 198.6,619.6 L 178.1,632.3 L 174.4,630.0 Z" style="fill:#000000;fill-rule:evenodd;fill-opacity:1;stroke:#000000;stroke-width:0.5px;stroke-linecap:butt;stroke-linejoin:miter;stroke-opacity:1;"/>
<path class="bond-6 atom-6 atom-7" d="M 178.1,632.3 L 155.2,617.7" style="fill:none;fill-rule:evenodd;stroke:#000000;stroke-width:2.0px;stroke-linecap:butt;stroke-linejoin:miter;stroke-opacity:1"/>
<path class="bond-7 atom-7 atom-8" d="M 155.2,617.7 L 133.0,629.3" style="fill:none;fill-rule:evenodd;stroke:#000000;stroke-width:2.0px;stroke-linecap:butt;stroke-linejoin:miter;stroke-opacity:1"/>
<path class="bond-8 atom-8 atom-9" d="M 133.0,629.3 L 111.8,615.8" style="fill:none;fill-rule:evenodd;stroke:#000000;stroke-width:2.0px;stroke-linecap:butt;stroke-linejoin:miter;stroke-opacity:1"/>
<path class="bond-9 atom-9 atom-10" d="M 111.8,615.8 L 89.6,627.4" style="fill:none;fill-rule:evenodd;stroke:#000000;stroke-width:2.0px;stroke-linecap:butt;stroke-linejoin:miter;stroke-opacity:1"/>
<path class="bond-10 atom-10 atom-11" d="M 89.6,627.4 L 71.5,615.9" style="fill:none;fill-rule:evenodd;stroke:#000000;stroke-width:2.0px;stroke-linecap:butt;stroke-linejoin:miter;stroke-opacity:1"/>
<path class="bond-11 atom-11 atom-12" d="M 65.3,615.5 L 46.2,625.5" style="fill:none;fill-rule:evenodd;stroke:#000000;stroke-width:2.0px;stroke-linecap:butt;stroke-linejoin:miter;stroke-opacity:1"/>
<path class="bond-12 atom-12 atom-13" d="M 46.2,625.5 L 28.6,614.2" style="fill:none;fill-rule:evenodd;stroke:#000000;stroke-width:2.0px;stroke-linecap:butt;stroke-linejoin:miter;stroke-opacity:1"/>
<path class="bond-13 atom-5 atom-0" d="M 198.6,619.6 L 217.9,629.3" style="fill:none;fill-rule:evenodd;stroke:#000000;stroke-width:2.0px;stroke-linecap:butt;stroke-linejoin:miter;stroke-opacity:1"/>
<path d="M 237.9,613.7 L 238.6,613.0 L 238.1,611.9" style="fill:none;stroke:#000000;stroke-width:2.0px;stroke-linecap:butt;stroke-linejoin:miter;stroke-opacity:1;"/>
<path d="M 227.6,591.8 L 227.1,590.7 L 225.8,590.9" style="fill:none;stroke:#000000;stroke-width:2.0px;stroke-linecap:butt;stroke-linejoin:miter;stroke-opacity:1;"/>
<path d="M 203.6,594.6 L 202.3,594.8 L 202.1,596.1" style="fill:none;stroke:#000000;stroke-width:2.0px;stroke-linecap:butt;stroke-linejoin:miter;stroke-opacity:1;"/>
<path d="M 198.8,618.4 L 198.6,619.6 L 199.6,620.1" style="fill:none;stroke:#000000;stroke-width:2.0px;stroke-linecap:butt;stroke-linejoin:miter;stroke-opacity:1;"/>
<path d="M 156.4,618.5 L 155.2,617.7 L 154.1,618.3" style="fill:none;stroke:#000000;stroke-width:2.0px;stroke-linecap:butt;stroke-linejoin:miter;stroke-opacity:1;"/>
<path d="M 134.1,628.7 L 133.0,629.3 L 131.9,628.6" style="fill:none;stroke:#000000;stroke-width:2.0px;stroke-linecap:butt;stroke-linejoin:miter;stroke-opacity:1;"/>
<path d="M 112.9,616.5 L 111.8,615.8 L 110.7,616.4" style="fill:none;stroke:#000000;stroke-width:2.0px;stroke-linecap:butt;stroke-linejoin:miter;stroke-opacity:1;"/>
<path d="M 90.7,626.8 L 89.6,627.4 L 88.7,626.8" style="fill:none;stroke:#000000;stroke-width:2.0px;stroke-linecap:butt;stroke-linejoin:miter;stroke-opacity:1;"/>
<path d="M 47.1,625.0 L 46.2,625.5 L 45.3,624.9" style="fill:none;stroke:#000000;stroke-width:2.0px;stroke-linecap:butt;stroke-linejoin:miter;stroke-opacity:1;"/>
<path class="atom-0" d="M 219.0 633.3 Q 219.1 633.3, 219.5 633.5 Q 219.8 633.6, 220.1 633.7 Q 220.5 633.8, 220.9 633.8 Q 221.6 633.8, 221.9 633.4 Q 222.3 633.1, 222.3 632.5 Q 222.3 632.2, 222.1 631.9 Q 221.9 631.7, 221.6 631.5 Q 221.3 631.4, 220.8 631.3 Q 220.2 631.1, 219.8 630.9 Q 219.5 630.7, 219.2 630.3 Q 218.9 629.9, 218.9 629.3 Q 218.9 628.4, 219.5 627.9 Q 220.1 627.3, 221.3 627.3 Q 222.2 627.3, 223.1 627.7 L 222.9 628.5 Q 222.0 628.1, 221.4 628.1 Q 220.7 628.1, 220.3 628.4 Q 219.9 628.7, 219.9 629.2 Q 219.9 629.6, 220.1 629.8 Q 220.3 630.0, 220.6 630.2 Q 220.9 630.3, 221.4 630.4 Q 222.0 630.6, 222.4 630.8 Q 222.8 631.0, 223.0 631.4 Q 223.3 631.8, 223.3 632.5 Q 223.3 633.5, 222.7 634.1 Q 222.0 634.6, 220.9 634.6 Q 220.3 634.6, 219.8 634.4 Q 219.3 634.3, 218.8 634.1 L 219.0 633.3 " fill="#000000"/>
<path class="atom-0" d="M 224.2 628.4 L 226.6 628.4 L 226.6 628.9 L 224.2 628.9 L 224.2 628.4 " fill="#000000"/>
<path class="atom-1" d="M 221.9 655.6 Q 221.9 653.9, 222.8 652.9 Q 223.6 652.0, 225.2 652.0 Q 226.8 652.0, 227.6 652.9 Q 228.4 653.9, 228.4 655.6 Q 228.4 657.3, 227.6 658.3 Q 226.7 659.3, 225.2 659.3 Q 223.6 659.3, 222.8 658.3 Q 221.9 657.3, 221.9 655.6 M 225.2 658.5 Q 226.3 658.5, 226.8 657.8 Q 227.4 657.0, 227.4 655.6 Q 227.4 654.2, 226.8 653.5 Q 226.3 652.8, 225.2 652.8 Q 224.1 652.8, 223.5 653.5 Q 222.9 654.2, 222.9 655.6 Q 222.9 657.0, 223.5 657.8 Q 224.1 658.5, 225.2 658.5 " fill="#000000"/>
<path class="atom-1" d="M 229.5 652.1 L 230.5 652.1 L 230.5 655.1 L 234.1 655.1 L 234.1 652.1 L 235.1 652.1 L 235.1 659.2 L 234.1 659.2 L 234.1 655.9 L 230.5 655.9 L 230.5 659.2 L 229.5 659.2 L 229.5 652.1 " fill="#000000"/>
<path class="atom-11" d="M 66.4 616.4 Q 66.5 616.4, 66.8 616.5 Q 67.2 616.7, 67.5 616.8 Q 67.9 616.8, 68.3 616.8 Q 68.9 616.8, 69.3 616.5 Q 69.7 616.2, 69.7 615.6 Q 69.7 615.2, 69.5 615.0 Q 69.3 614.7, 69.0 614.6 Q 68.7 614.5, 68.2 614.3 Q 67.6 614.1, 67.2 614.0 Q 66.8 613.8, 66.6 613.4 Q 66.3 613.0, 66.3 612.4 Q 66.3 611.5, 66.9 610.9 Q 67.5 610.4, 68.7 610.4 Q 69.5 610.4, 70.5 610.8 L 70.2 611.5 Q 69.4 611.2, 68.7 611.2 Q 68.1 611.2, 67.7 611.5 Q 67.3 611.8, 67.3 612.2 Q 67.3 612.6, 67.5 612.9 Q 67.7 613.1, 68.0 613.2 Q 68.3 613.4, 68.7 613.5 Q 69.4 613.7, 69.8 613.9 Q 70.2 614.1, 70.4 614.5 Q 70.7 614.9, 70.7 615.6 Q 70.7 616.6, 70.0 617.1 Q 69.4 617.6, 68.3 617.6 Q 67.7 617.6, 67.2 617.5 Q 66.7 617.4, 66.1 617.1 L 66.4 616.4 " fill="#000000"/>
<path class="atom-11" d="M 71.6 611.4 L 74.0 611.4 L 74.0 612.0 L 71.6 612.0 L 71.6 611.4 " fill="#000000"/>
<path class="atom-13" d="M 11.4 608.5 L 12.3 608.5 L 12.3 611.5 L 16.0 611.5 L 16.0 608.5 L 16.9 608.5 L 16.9 615.6 L 16.0 615.6 L 16.0 612.3 L 12.3 612.3 L 12.3 615.6 L 11.4 615.6 L 11.4 608.5 " fill="#000000"/>
<path class="atom-13" d="M 20.5 616.6 Q 21.0 616.8, 21.2 617.1 Q 21.4 617.4, 21.4 617.8 Q 21.4 618.2, 21.2 618.5 Q 21.0 618.8, 20.7 619.0 Q 20.3 619.2, 19.8 619.2 Q 19.3 619.2, 19.0 619.0 Q 18.6 618.8, 18.3 618.5 L 18.7 618.1 Q 19.0 618.4, 19.2 618.5 Q 19.4 618.6, 19.8 618.6 Q 20.3 618.6, 20.5 618.4 Q 20.8 618.2, 20.8 617.8 Q 20.8 617.3, 20.5 617.1 Q 20.2 616.9, 19.7 616.9 L 19.3 616.9 L 19.3 616.4 L 19.6 616.4 Q 20.1 616.4, 20.4 616.2 Q 20.7 616.0, 20.7 615.6 Q 20.7 615.3, 20.4 615.1 Q 20.2 614.9, 19.8 614.9 Q 19.4 614.9, 19.2 615.0 Q 19.0 615.2, 18.8 615.5 L 18.3 615.3 Q 18.5 614.9, 18.9 614.6 Q 19.3 614.4, 19.8 614.4 Q 20.5 614.4, 20.9 614.7 Q 21.3 615.0, 21.3 615.6 Q 21.3 615.9, 21.1 616.2 Q 20.9 616.5, 20.5 616.6 " fill="#000000"/>
<path class="atom-13" d="M 23.5 608.5 L 25.8 612.2 Q 26.0 612.6, 26.4 613.3 Q 26.8 613.9, 26.8 614.0 L 26.8 608.5 L 27.7 608.5 L 27.7 615.6 L 26.7 615.6 L 24.3 611.4 Q 24.0 611.0, 23.7 610.4 Q 23.3 609.9, 23.3 609.7 L 23.3 615.6 L 22.3 615.6 L 22.3 608.5 L 23.5 608.5 " fill="#000000"/>
<path class="atom-13" d="M 29.1 609.7 L 30.3 609.7 L 30.3 608.4 L 30.9 608.4 L 30.9 609.7 L 32.2 609.7 L 32.2 610.2 L 30.9 610.2 L 30.9 611.5 L 30.3 611.5 L 30.3 610.2 L 29.1 610.2 L 29.1 609.7 " fill="#000000"/>
<path class="atom-11" d="M 76.0,613.9 L 76.0,614.0 L 76.0,614.0 L 76.0,614.0 L 76.0,614.1 L 76.0,614.1 L 76.0,614.2 L 75.9,614.2 L 75.9,614.2 L 75.9,614.3 L 75.8,614.3 L 75.8,614.3 L 75.8,614.3 L 75.7,614.4 L 75.7,614.4 L 75.7,614.4 L 75.6,614.4 L 75.6,614.4 L 75.5,614.4 L 75.5,614.4 L 75.4,614.4 L 75.4,614.4 L 75.4,614.4 L 75.3,614.4 L 75.3,614.4 L 75.2,614.3 L 75.2,614.3 L 75.2,614.3 L 75.1,614.2 L 75.1,614.2 L 75.1,614.2 L 75.1,614.1 L 75.1,614.1 L 75.0,614.1 L 75.0,614.0 L 75.0,614.0 L 75.0,613.9 L 75.0,613.9 L 75.0,613.8 L 75.0,613.8 L 75.0,613.8 L 75.1,613.7 L 75.1,613.7 L 75.1,613.6 L 75.1,613.6 L 75.1,613.6 L 75.2,613.5 L 75.2,613.5 L 75.2,613.5 L 75.3,613.5 L 75.3,613.5 L 75.4,613.4 L 75.4,613.4 L 75.4,613.4 L 75.5,613.4 L 75.5,613.4 L 75.6,613.4 L 75.6,613.4 L 75.7,613.4 L 75.7,613.4 L 75.7,613.5 L 75.8,613.5 L 75.8,613.5 L 75.8,613.5 L 75.9,613.6 L 75.9,613.6 L 75.9,613.6 L 76.0,613.7 L 76.0,613.7 L 76.0,613.7 L 76.0,613.8 L 76.0,613.8 L 76.0,613.9 L 76.0,613.9 L 75.5,613.9 Z" style="fill:#000000;fill-rule:evenodd;fill-opacity:1;stroke:#000000;stroke-width:0.0px;stroke-linecap:butt;stroke-linejoin:miter;stroke-opacity:1;"/>
<path class="bond-0 atom-0 atom-1" d="M 303.8,611.3 L 446.2,611.3" style="fill:none;fill-rule:evenodd;stroke:#000000;stroke-width:2.0px;stroke-linecap:butt;stroke-linejoin:miter;stroke-opacity:1"/>
<path class="bond-0 atom-0 atom-1" d="M 303.8,638.3 L 446.2,638.3" style="fill:none;fill-rule:evenodd;stroke:#000000;stroke-width:2.0px;stroke-linecap:butt;stroke-linejoin:miter;stroke-opacity:1"/>
<path class="atom-0" d="M 271.8 624.9 Q 271.8 618.1, 275.2 614.3 Q 278.5 610.5, 284.8 610.5 Q 291.1 610.5, 294.5 614.3 Q 297.8 618.1, 297.8 624.9 Q 297.8 631.7, 294.4 635.7 Q 291.0 639.5, 284.8 639.5 Q 278.6 639.5, 275.2 635.7 Q 271.8 631.8, 271.8 624.9 M 284.8 636.3 Q 289.1 636.3, 291.5 633.5 Q 293.8 630.5, 293.8 624.9 Q 293.8 619.3, 291.5 616.5 Q 289.1 613.7, 284.8 613.7 Q 280.5 613.7, 278.1 616.5 Q 275.8 619.3, 275.8 624.9 Q 275.8 630.6, 278.1 633.5 Q 280.5 636.3, 284.8 636.3 " fill="#000000"/>
<path class="atom-1" d="M 452.2 624.9 Q 452.2 618.1, 455.5 614.3 Q 458.9 610.5, 465.2 610.5 Q 471.5 610.5, 474.8 614.3 Q 478.2 618.1, 478.2 624.9 Q 478.2 631.7, 474.8 635.7 Q 471.4 639.5, 465.2 639.5 Q 458.9 639.5, 455.5 635.7 Q 452.2 631.8, 452.2 624.9 M 465.2 636.3 Q 469.5 636.3, 471.8 633.5 Q 474.2 630.5, 474.2 624.9 Q 474.2 619.3, 471.8 616.5 Q 469.5 613.7, 465.2 613.7 Q 460.9 613.7, 458.5 616.5 Q 456.2 619.3, 456.2 624.9 Q 456.2 630.6, 458.5 633.5 Q 460.9 636.3, 465.2 636.3 " fill="#000000"/>
<path class="bond-0 atom-0 atom-1" d="M 538.1,588.5 L 561.0,610.0" style="fill:none;fill-rule:evenodd;stroke:#000000;stroke-width:2.0px;stroke-linecap:butt;stroke-linejoin:miter;stroke-opacity:1"/>
<path class="bond-1 atom-1 atom-2" d="M 558.5,607.7 L 550.8,640.4" style="fill:none;fill-rule:evenodd;stroke:#000000;stroke-width:2.0px;stroke-linecap:butt;stroke-linejoin:miter;stroke-opacity:1"/>
<path class="bond-1 atom-1 atom-2" d="M 564.2,609.1 L 556.5,641.8" style="fill:none;fill-rule:evenodd;stroke:#000000;stroke-width:2.0px;stroke-linecap:butt;stroke-linejoin:miter;stroke-opacity:1"/>
<path class="bond-2 atom-1 atom-3" d="M 561.0,610.0 L 592.8,600.5" style="fill:none;fill-rule:evenodd;stroke:#000000;stroke-width:2.0px;stroke-linecap:butt;stroke-linejoin:miter;stroke-opacity:1"/>
<path class="bond-3 atom-3 atom-4" d="M 603.8,604.0 L 621.2,620.5" style="fill:none;fill-rule:evenodd;stroke:#000000;stroke-width:2.0px;stroke-linecap:butt;stroke-linejoin:miter;stroke-opacity:1"/>
<path class="bond-4 atom-4 atom-5" d="M 632.1,624.0 L 664.0,614.5" style="fill:none;fill-rule:evenodd;stroke:#000000;stroke-width:2.0px;stroke-linecap:butt;stroke-linejoin:miter;stroke-opacity:1"/>
<path class="bond-5 atom-5 atom-6" d="M 664.0,614.5 L 673.0,576.5" style="fill:none;fill-rule:evenodd;stroke:#000000;stroke-width:2.0px;stroke-linecap:butt;stroke-linejoin:miter;stroke-opacity:1"/>
<path class="bond-5 atom-5 atom-6" d="M 670.4,612.5 L 677.9,581.2" style="fill:none;fill-rule:evenodd;stroke:#000000;stroke-width:2.0px;stroke-linecap:butt;stroke-linejoin:miter;stroke-opacity:1"/>
<path class="bond-6 atom-6 atom-7" d="M 673.0,576.5 L 710.3,565.4" style="fill:none;fill-rule:evenodd;stroke:#000000;stroke-width:2.0px;stroke-linecap:butt;stroke-linejoin:miter;stroke-opacity:1"/>
<path class="bond-7 atom-7 atom-8" d="M 710.3,565.4 L 738.6,592.1" style="fill:none;fill-rule:evenodd;stroke:#000000;stroke-width:2.0px;stroke-linecap:butt;stroke-linejoin:miter;stroke-opacity:1"/>
<path class="bond-7 atom-7 atom-8" d="M 708.7,571.9 L 732.2,594.1" style="fill:none;fill-rule:evenodd;stroke:#000000;stroke-width:2.0px;stroke-linecap:butt;stroke-linejoin:miter;stroke-opacity:1"/>
<path class="bond-8 atom-8 atom-9" d="M 738.6,592.1 L 729.6,630.0" style="fill:none;fill-rule:evenodd;stroke:#000000;stroke-width:2.0px;stroke-linecap:butt;stroke-linejoin:miter;stroke-opacity:1"/>
<path class="bond-9 atom-9 atom-10" d="M 729.6,630.0 L 692.3,641.2" style="fill:none;fill-rule:evenodd;stroke:#000000;stroke-width:2.0px;stroke-linecap:butt;stroke-linejoin:miter;stroke-opacity:1"/>
<path class="bond-9 atom-9 atom-10" d="M 724.7,625.4 L 693.9,634.6" style="fill:none;fill-rule:evenodd;stroke:#000000;stroke-width:2.0px;stroke-linecap:butt;stroke-linejoin:miter;stroke-opacity:1"/>
<path class="bond-10 atom-10 atom-11" d="M 692.3,641.2 L 684.9,672.3" style="fill:none;fill-rule:evenodd;stroke:#000000;stroke-width:2.0px;stroke-linecap:butt;stroke-linejoin:miter;stroke-opacity:1"/>
<path class="bond-11 atom-10 atom-5" d="M 692.3,641.2 L 664.0,614.5" style="fill:none;fill-rule:evenodd;stroke:#000000;stroke-width:2.0px;stroke-linecap:butt;stroke-linejoin:miter;stroke-opacity:1"/>
<path d="M 559.8,609.0 L 561.0,610.0 L 562.6,609.6" style="fill:none;stroke:#000000;stroke-width:2.0px;stroke-linecap:butt;stroke-linejoin:miter;stroke-opacity:1;"/>
<path d="M 672.5,578.4 L 673.0,576.5 L 674.8,576.0" style="fill:none;stroke:#000000;stroke-width:2.0px;stroke-linecap:butt;stroke-linejoin:miter;stroke-opacity:1;"/>
<path d="M 708.4,565.9 L 710.3,565.4 L 711.7,566.7" style="fill:none;stroke:#000000;stroke-width:2.0px;stroke-linecap:butt;stroke-linejoin:miter;stroke-opacity:1;"/>
<path d="M 737.2,590.8 L 738.6,592.1 L 738.2,594.0" style="fill:none;stroke:#000000;stroke-width:2.0px;stroke-linecap:butt;stroke-linejoin:miter;stroke-opacity:1;"/>
<path d="M 730.1,628.1 L 729.6,630.0 L 727.8,630.6" style="fill:none;stroke:#000000;stroke-width:2.0px;stroke-linecap:butt;stroke-linejoin:miter;stroke-opacity:1;"/>
<path class="atom-0" d="M 511.4 577.8 L 512.9 577.8 L 512.9 582.5 L 518.5 582.5 L 518.5 577.8 L 520.0 577.8 L 520.0 588.8 L 518.5 588.8 L 518.5 583.7 L 512.9 583.7 L 512.9 588.8 L 511.4 588.8 L 511.4 577.8 " fill="#000000"/>
<path class="atom-0" d="M 522.2 588.4 Q 522.4 587.7, 523.1 587.4 Q 523.7 587.0, 524.6 587.0 Q 525.7 587.0, 526.3 587.6 Q 526.9 588.2, 526.9 589.2 Q 526.9 590.3, 526.1 591.3 Q 525.3 592.3, 523.7 593.5 L 527.0 593.5 L 527.0 594.3 L 522.1 594.3 L 522.1 593.6 Q 523.5 592.7, 524.3 592.0 Q 525.1 591.2, 525.5 590.6 Q 525.9 589.9, 525.9 589.3 Q 525.9 588.6, 525.5 588.2 Q 525.2 587.8, 524.6 587.8 Q 524.0 587.8, 523.6 588.0 Q 523.2 588.3, 522.9 588.8 L 522.2 588.4 " fill="#000000"/>
<path class="atom-0" d="M 530.2 577.8 L 533.8 583.6 Q 534.2 584.2, 534.8 585.2 Q 535.3 586.3, 535.4 586.3 L 535.4 577.8 L 536.8 577.8 L 536.8 588.8 L 535.3 588.8 L 531.5 582.4 Q 531.0 581.7, 530.5 580.8 Q 530.0 580.0, 529.9 579.7 L 529.9 588.8 L 528.5 588.8 L 528.5 577.8 L 530.2 577.8 " fill="#000000"/>
<path class="atom-2" d="M 546.9 648.0 Q 546.9 645.3, 548.2 643.8 Q 549.6 642.4, 552.0 642.4 Q 554.4 642.4, 555.8 643.8 Q 557.1 645.3, 557.1 648.0 Q 557.1 650.7, 555.7 652.2 Q 554.4 653.7, 552.0 653.7 Q 549.6 653.7, 548.2 652.2 Q 546.9 650.7, 546.9 648.0 M 552.0 652.5 Q 553.7 652.5, 554.6 651.3 Q 555.5 650.2, 555.5 648.0 Q 555.5 645.8, 554.6 644.7 Q 553.7 643.6, 552.0 643.6 Q 550.3 643.6, 549.4 644.7 Q 548.5 645.8, 548.5 648.0 Q 548.5 650.2, 549.4 651.3 Q 550.3 652.5, 552.0 652.5 " fill="#000000"/>
<path class="atom-3" d="M 595.9 593.4 L 599.5 599.2 Q 599.9 599.8, 600.4 600.8 Q 601.0 601.9, 601.0 601.9 L 601.0 593.4 L 602.5 593.4 L 602.5 604.4 L 601.0 604.4 L 597.1 598.0 Q 596.7 597.3, 596.2 596.4 Q 595.7 595.5, 595.6 595.3 L 595.6 604.4 L 594.1 604.4 L 594.1 593.4 L 595.9 593.4 " fill="#000000"/>
<path class="atom-3" d="M 594.0 581.2 L 595.5 581.2 L 595.5 585.9 L 601.1 585.9 L 601.1 581.2 L 602.6 581.2 L 602.6 592.3 L 601.1 592.3 L 601.1 587.2 L 595.5 587.2 L 595.5 592.3 L 594.0 592.3 L 594.0 581.2 " fill="#000000"/>
<path class="atom-4" d="M 624.2 620.1 L 627.8 625.9 Q 628.2 626.5, 628.8 627.6 Q 629.3 628.6, 629.4 628.7 L 629.4 620.1 L 630.8 620.1 L 630.8 631.1 L 629.3 631.1 L 625.4 624.7 Q 625.0 624.0, 624.5 623.1 Q 624.0 622.3, 623.9 622.0 L 623.9 631.1 L 622.5 631.1 L 622.5 620.1 L 624.2 620.1 " fill="#000000"/>
<path class="atom-4" d="M 622.3 632.2 L 623.8 632.2 L 623.8 636.9 L 629.5 636.9 L 629.5 632.2 L 631.0 632.2 L 631.0 643.3 L 629.5 643.3 L 629.5 638.2 L 623.8 638.2 L 623.8 643.3 L 622.3 643.3 L 622.3 632.2 " fill="#000000"/>
<path class="atom-11" d="M 684.9 678.8 Q 686.0 679.1, 686.5 679.8 Q 687.1 680.4, 687.1 681.4 Q 687.1 682.9, 686.1 683.8 Q 685.1 684.6, 683.3 684.6 L 679.6 684.6 L 679.6 673.6 L 682.8 673.6 Q 684.7 673.6, 685.7 674.4 Q 686.6 675.1, 686.6 676.5 Q 686.6 678.2, 684.9 678.8 M 681.1 674.8 L 681.1 678.3 L 682.8 678.3 Q 683.9 678.3, 684.5 677.9 Q 685.1 677.4, 685.1 676.5 Q 685.1 674.8, 682.8 674.8 L 681.1 674.8 M 683.3 683.4 Q 684.4 683.4, 684.9 682.9 Q 685.5 682.3, 685.5 681.4 Q 685.5 680.5, 684.9 680.0 Q 684.2 679.5, 683.0 679.5 L 681.1 679.5 L 681.1 683.4 L 683.3 683.4 " fill="#000000"/>
<path class="atom-11" d="M 689.6 676.6 L 689.7 677.7 Q 690.6 676.5, 692.0 676.5 Q 692.4 676.5, 693.0 676.6 L 692.8 677.9 Q 692.1 677.8, 691.7 677.8 Q 691.1 677.8, 690.6 678.0 Q 690.2 678.3, 689.9 678.9 L 689.9 684.6 L 688.4 684.6 L 688.4 676.6 L 689.6 676.6 " fill="#000000"/>
</svg>