<svg xmlns="http://www.w3.org/2000/svg" xmlns:rdkit="http://www.rdkit.org/xml" xmlns:xlink="http://www.w3.org/1999/xlink" version="1.1" baseProfile="full" xml:space="preserve" width="750px" height="750px" viewBox="0 0 750 750">
<!-- END OF HEADER -->
<rect style="opacity:1.0;fill:#FFFFFF;stroke:none" width="750.0" height="750.0" x="0.0" y="0.0"> </rect>
<path class="bond-0 atom-0 atom-1" d="M 48.2,121.7 L 83.6,106.7" style="fill:none;fill-rule:evenodd;stroke:#000000;stroke-width:2.0px;stroke-linecap:butt;stroke-linejoin:miter;stroke-opacity:1"/>
<path class="bond-1 atom-1 atom-2" d="M 101.9,109.7 L 142.7,140.3" style="fill:none;fill-rule:evenodd;stroke:#000000;stroke-width:2.0px;stroke-linecap:butt;stroke-linejoin:miter;stroke-opacity:1"/>
<path class="bond-2 atom-2 atom-3" d="M 174.9,143.4 L 211.6,127.8" style="fill:none;fill-rule:evenodd;stroke:#000000;stroke-width:2.0px;stroke-linecap:butt;stroke-linejoin:miter;stroke-opacity:1"/>
<path class="bond-2 atom-2 atom-3" d="M 170.6,133.2 L 207.2,117.6" style="fill:none;fill-rule:evenodd;stroke:#000000;stroke-width:2.0px;stroke-linecap:butt;stroke-linejoin:miter;stroke-opacity:1"/>
<path class="atom-0" d="M 20.2 121.2 L 27.1 132.3 Q 27.7 133.4, 28.8 135.4 Q 29.9 137.4, 30.0 137.5 L 30.0 121.2 L 32.8 121.2 L 32.8 142.2 L 29.9 142.2 L 22.5 130.1 Q 21.7 128.6, 20.8 127.0 Q 19.9 125.4, 19.6 124.9 L 19.6 142.2 L 16.9 142.2 L 16.9 121.2 L 20.2 121.2 " fill="#000000"/>
<path class="atom-0" d="M 36.7 125.0 L 40.4 125.0 L 40.4 121.1 L 42.0 121.1 L 42.0 125.0 L 45.8 125.0 L 45.8 126.4 L 42.0 126.4 L 42.0 130.3 L 40.4 130.3 L 40.4 126.4 L 36.7 126.4 L 36.7 125.0 " fill="#000000"/>
<path class="atom-1" d="M 86.9 110.0 Q 87.1 110.1, 88.1 110.5 Q 89.1 110.9, 90.1 111.1 Q 91.2 111.4, 92.3 111.4 Q 94.3 111.4, 95.4 110.4 Q 96.6 109.5, 96.6 107.8 Q 96.6 106.6, 96.0 105.9 Q 95.4 105.2, 94.5 104.8 Q 93.6 104.4, 92.2 104.0 Q 90.3 103.4, 89.2 102.9 Q 88.1 102.4, 87.3 101.3 Q 86.5 100.1, 86.5 98.2 Q 86.5 95.6, 88.3 94.0 Q 90.1 92.4, 93.6 92.4 Q 96.1 92.4, 98.8 93.5 L 98.1 95.8 Q 95.6 94.8, 93.7 94.8 Q 91.7 94.8, 90.6 95.6 Q 89.5 96.4, 89.5 97.9 Q 89.5 99.0, 90.0 99.7 Q 90.6 100.4, 91.5 100.8 Q 92.3 101.1, 93.7 101.6 Q 95.6 102.2, 96.7 102.8 Q 97.9 103.4, 98.7 104.6 Q 99.5 105.7, 99.5 107.8 Q 99.5 110.7, 97.5 112.2 Q 95.6 113.8, 92.4 113.8 Q 90.5 113.8, 89.1 113.4 Q 87.7 113.0, 86.1 112.3 L 86.9 110.0 " fill="#000000"/>
<path class="atom-2" d="M 151.3 136.7 Q 154.9 136.7, 156.7 138.3 Q 158.5 139.9, 158.5 142.9 Q 158.5 145.8, 156.6 147.4 Q 154.8 149.0, 151.3 149.0 L 148.0 149.0 L 148.0 157.6 L 145.1 157.6 L 145.1 136.7 L 151.3 136.7 M 151.3 146.7 Q 153.3 146.7, 154.4 145.7 Q 155.5 144.7, 155.5 142.9 Q 155.5 141.0, 154.4 140.1 Q 153.4 139.1, 151.3 139.1 L 148.0 139.1 L 148.0 146.7 L 151.3 146.7 " fill="#000000"/>
<path class="atom-2" d="M 161.2 140.5 L 164.9 140.5 L 164.9 136.6 L 166.6 136.6 L 166.6 140.5 L 170.3 140.5 L 170.3 141.9 L 166.6 141.9 L 166.6 145.8 L 164.9 145.8 L 164.9 141.9 L 161.2 141.9 L 161.2 140.5 " fill="#000000"/>
<path class="atom-3" d="M 215.1 107.8 L 222.0 118.9 Q 222.7 120.0, 223.8 122.0 Q 224.9 123.9, 224.9 124.1 L 224.9 107.8 L 227.7 107.8 L 227.7 128.7 L 224.8 128.7 L 217.5 116.6 Q 216.6 115.2, 215.7 113.6 Q 214.8 111.9, 214.5 111.4 L 214.5 128.7 L 211.8 128.7 L 211.8 107.8 L 215.1 107.8 " fill="#000000"/>
<path class="atom-3" d="M 231.5 111.3 L 238.6 111.3 L 238.6 112.8 L 231.5 112.8 L 231.5 111.3 " fill="#000000"/>
<path class="atom-0" d="M 13.9,124.3 L 13.9,124.4 L 13.9,124.6 L 13.9,124.7 L 13.9,124.8 L 13.8,124.9 L 13.8,125.0 L 13.7,125.2 L 13.6,125.3 L 13.5,125.4 L 13.4,125.4 L 13.3,125.5 L 13.2,125.6 L 13.1,125.6 L 13.0,125.7 L 12.9,125.7 L 12.8,125.8 L 12.6,125.8 L 12.5,125.8 L 12.4,125.8 L 12.2,125.8 L 12.1,125.8 L 12.0,125.7 L 11.9,125.7 L 11.8,125.6 L 11.7,125.6 L 11.6,125.5 L 11.5,125.4 L 11.4,125.3 L 11.3,125.2 L 11.2,125.1 L 11.2,125.0 L 11.1,124.9 L 11.1,124.8 L 11.0,124.6 L 11.0,124.5 L 11.0,124.4 L 11.0,124.3 L 11.0,124.1 L 11.0,124.0 L 11.1,123.9 L 11.1,123.8 L 11.2,123.6 L 11.2,123.5 L 11.3,123.4 L 11.4,123.3 L 11.5,123.2 L 11.6,123.2 L 11.7,123.1 L 11.8,123.0 L 11.9,123.0 L 12.0,122.9 L 12.1,122.9 L 12.2,122.9 L 12.4,122.8 L 12.5,122.8 L 12.6,122.9 L 12.8,122.9 L 12.9,122.9 L 13.0,122.9 L 13.1,123.0 L 13.2,123.1 L 13.3,123.1 L 13.4,123.2 L 13.5,123.3 L 13.6,123.4 L 13.7,123.5 L 13.8,123.6 L 13.8,123.7 L 13.9,123.8 L 13.9,123.9 L 13.9,124.1 L 13.9,124.2 L 13.9,124.3 L 12.5,124.3 Z" style="fill:#000000;fill-rule:evenodd;fill-opacity:1;stroke:#000000;stroke-width:0.0px;stroke-linecap:butt;stroke-linejoin:miter;stroke-opacity:1;"/>
<path class="atom-0" d="M 13.9,139.1 L 13.9,139.2 L 13.9,139.3 L 13.9,139.5 L 13.9,139.6 L 13.8,139.7 L 13.8,139.8 L 13.7,139.9 L 13.6,140.0 L 13.5,140.1 L 13.4,140.2 L 13.3,140.3 L 13.2,140.4 L 13.1,140.4 L 13.0,140.5 L 12.9,140.5 L 12.8,140.5 L 12.6,140.6 L 12.5,140.6 L 12.4,140.6 L 12.2,140.6 L 12.1,140.5 L 12.0,140.5 L 11.9,140.4 L 11.8,140.4 L 11.7,140.3 L 11.6,140.3 L 11.5,140.2 L 11.4,140.1 L 11.3,140.0 L 11.2,139.9 L 11.2,139.8 L 11.1,139.6 L 11.1,139.5 L 11.0,139.4 L 11.0,139.3 L 11.0,139.2 L 11.0,139.0 L 11.0,138.9 L 11.0,138.8 L 11.1,138.7 L 11.1,138.5 L 11.2,138.4 L 11.2,138.3 L 11.3,138.2 L 11.4,138.1 L 11.5,138.0 L 11.6,137.9 L 11.7,137.9 L 11.8,137.8 L 11.9,137.7 L 12.0,137.7 L 12.1,137.7 L 12.2,137.6 L 12.4,137.6 L 12.5,137.6 L 12.6,137.6 L 12.8,137.6 L 12.9,137.7 L 13.0,137.7 L 13.1,137.8 L 13.2,137.8 L 13.3,137.9 L 13.4,138.0 L 13.5,138.1 L 13.6,138.2 L 13.7,138.3 L 13.8,138.4 L 13.8,138.5 L 13.9,138.6 L 13.9,138.7 L 13.9,138.8 L 13.9,139.0 L 13.9,139.1 L 12.5,139.1 Z" style="fill:#000000;fill-rule:evenodd;fill-opacity:1;stroke:#000000;stroke-width:0.0px;stroke-linecap:butt;stroke-linejoin:miter;stroke-opacity:1;"/>
<path class="atom-0" d="M 13.9,131.7 L 13.9,131.8 L 13.9,132.0 L 13.9,132.1 L 13.9,132.2 L 13.8,132.3 L 13.8,132.4 L 13.7,132.5 L 13.6,132.6 L 13.5,132.7 L 13.4,132.8 L 13.3,132.9 L 13.2,133.0 L 13.1,133.0 L 13.0,133.1 L 12.9,133.1 L 12.8,133.2 L 12.6,133.2 L 12.5,133.2 L 12.4,133.2 L 12.2,133.2 L 12.1,133.1 L 12.0,133.1 L 11.9,133.1 L 11.8,133.0 L 11.7,132.9 L 11.6,132.9 L 11.5,132.8 L 11.4,132.7 L 11.3,132.6 L 11.2,132.5 L 11.2,132.4 L 11.1,132.3 L 11.1,132.1 L 11.0,132.0 L 11.0,131.9 L 11.0,131.8 L 11.0,131.6 L 11.0,131.5 L 11.0,131.4 L 11.1,131.3 L 11.1,131.1 L 11.2,131.0 L 11.2,130.9 L 11.3,130.8 L 11.4,130.7 L 11.5,130.6 L 11.6,130.5 L 11.7,130.5 L 11.8,130.4 L 11.9,130.4 L 12.0,130.3 L 12.1,130.3 L 12.2,130.2 L 12.4,130.2 L 12.5,130.2 L 12.6,130.2 L 12.8,130.3 L 12.9,130.3 L 13.0,130.3 L 13.1,130.4 L 13.2,130.4 L 13.3,130.5 L 13.4,130.6 L 13.5,130.7 L 13.6,130.8 L 13.7,130.9 L 13.8,131.0 L 13.8,131.1 L 13.9,131.2 L 13.9,131.3 L 13.9,131.5 L 13.9,131.6 L 13.9,131.7 L 12.5,131.7 Z" style="fill:#000000;fill-rule:evenodd;fill-opacity:1;stroke:#000000;stroke-width:0.0px;stroke-linecap:butt;stroke-linejoin:miter;stroke-opacity:1;"/>
<path class="atom-2" d="M 176.2,147.2 L 176.2,147.3 L 176.2,147.4 L 176.2,147.6 L 176.2,147.7 L 176.1,147.8 L 176.1,147.9 L 176.0,148.0 L 175.9,148.1 L 175.8,148.2 L 175.7,148.3 L 175.6,148.4 L 175.5,148.4 L 175.4,148.5 L 175.3,148.6 L 175.2,148.6 L 175.1,148.6 L 174.9,148.6 L 174.8,148.7 L 174.7,148.7 L 174.5,148.6 L 174.4,148.6 L 174.3,148.6 L 174.2,148.5 L 174.1,148.5 L 174.0,148.4 L 173.9,148.3 L 173.8,148.3 L 173.7,148.2 L 173.6,148.1 L 173.5,148.0 L 173.5,147.9 L 173.4,147.7 L 173.4,147.6 L 173.3,147.5 L 173.3,147.4 L 173.3,147.2 L 173.3,147.1 L 173.3,147.0 L 173.3,146.9 L 173.4,146.7 L 173.4,146.6 L 173.5,146.5 L 173.5,146.4 L 173.6,146.3 L 173.7,146.2 L 173.8,146.1 L 173.9,146.0 L 174.0,145.9 L 174.1,145.9 L 174.2,145.8 L 174.3,145.8 L 174.4,145.7 L 174.5,145.7 L 174.7,145.7 L 174.8,145.7 L 174.9,145.7 L 175.1,145.7 L 175.2,145.8 L 175.3,145.8 L 175.4,145.9 L 175.5,145.9 L 175.6,146.0 L 175.7,146.1 L 175.8,146.1 L 175.9,146.2 L 176.0,146.3 L 176.1,146.5 L 176.1,146.6 L 176.2,146.7 L 176.2,146.8 L 176.2,146.9 L 176.2,147.1 L 176.2,147.2 L 174.8,147.2 Z" style="fill:#000000;fill-rule:evenodd;fill-opacity:1;stroke:#000000;stroke-width:0.0px;stroke-linecap:butt;stroke-linejoin:miter;stroke-opacity:1;"/>
<path class="bond-0 atom-0 atom-1" d="M 268.1,131.7 L 305.3,112.7" style="fill:none;fill-rule:evenodd;stroke:#000000;stroke-width:2.0px;stroke-linecap:butt;stroke-linejoin:miter;stroke-opacity:1"/>
<path class="bond-1 atom-1 atom-2" d="M 319.4,113.7 L 346.0,130.9" style="fill:none;fill-rule:evenodd;stroke:#000000;stroke-width:2.0px;stroke-linecap:butt;stroke-linejoin:miter;stroke-opacity:1"/>
<path class="bond-2 atom-2 atom-3" d="M 370.5,127.8 L 391.4,117.0" style="fill:none;fill-rule:evenodd;stroke:#000000;stroke-width:2.0px;stroke-linecap:butt;stroke-linejoin:miter;stroke-opacity:1"/>
<path class="bond-3 atom-3 atom-4" d="M 405.4,118.0 L 434.0,136.5" style="fill:none;fill-rule:evenodd;stroke:#000000;stroke-width:2.0px;stroke-linecap:butt;stroke-linejoin:miter;stroke-opacity:1"/>
<path class="bond-4 atom-4 atom-5" d="M 446.3,137.3 L 478.6,120.8" style="fill:none;fill-rule:evenodd;stroke:#000000;stroke-width:2.0px;stroke-linecap:butt;stroke-linejoin:miter;stroke-opacity:1"/>
<path class="atom-1" d="M 306.9 109.2 Q 306.9 105.7, 308.6 103.8 Q 310.2 102.0, 313.3 102.0 Q 316.2 102.0, 317.8 104.0 L 316.5 105.1 Q 315.3 103.6, 313.3 103.6 Q 311.2 103.6, 310.1 105.0 Q 309.0 106.4, 309.0 109.2 Q 309.0 111.9, 310.1 113.4 Q 311.3 114.8, 313.6 114.8 Q 315.1 114.8, 316.9 113.9 L 317.5 115.4 Q 316.7 115.8, 315.6 116.1 Q 314.5 116.4, 313.3 116.4 Q 310.2 116.4, 308.6 114.5 Q 306.9 112.7, 306.9 109.2 " fill="#000000"/>
<path class="atom-1" d="M 319.5 104.3 L 324.3 104.3 L 324.3 105.3 L 319.5 105.3 L 319.5 104.3 " fill="#000000"/>
<path class="atom-2" d="M 347.7 136.2 Q 347.7 132.8, 349.3 130.9 Q 351.0 129.0, 354.1 129.0 Q 357.2 129.0, 358.9 130.9 Q 360.6 132.8, 360.6 136.2 Q 360.6 139.6, 358.9 141.5 Q 357.2 143.5, 354.1 143.5 Q 351.0 143.5, 349.3 141.5 Q 347.7 139.6, 347.7 136.2 M 354.1 141.9 Q 356.3 141.9, 357.4 140.4 Q 358.6 139.0, 358.6 136.2 Q 358.6 133.4, 357.4 132.0 Q 356.3 130.6, 354.1 130.6 Q 352.0 130.6, 350.8 132.0 Q 349.6 133.4, 349.6 136.2 Q 349.6 139.0, 350.8 140.4 Q 352.0 141.9, 354.1 141.9 " fill="#000000"/>
<path class="atom-2" d="M 362.7 131.5 L 365.2 131.5 L 365.2 128.9 L 366.3 128.9 L 366.3 131.5 L 368.8 131.5 L 368.8 132.5 L 366.3 132.5 L 366.3 135.1 L 365.2 135.1 L 365.2 132.5 L 362.7 132.5 L 362.7 131.5 " fill="#000000"/>
<path class="atom-2" d="M 348.6 145.0 L 350.5 145.0 L 350.5 151.0 L 357.7 151.0 L 357.7 145.0 L 359.6 145.0 L 359.6 159.1 L 357.7 159.1 L 357.7 152.6 L 350.5 152.6 L 350.5 159.1 L 348.6 159.1 L 348.6 145.0 " fill="#000000"/>
<path class="atom-3" d="M 395.3 106.4 L 399.9 113.9 Q 400.4 114.6, 401.1 116.0 Q 401.8 117.3, 401.9 117.4 L 401.9 106.4 L 403.7 106.4 L 403.7 120.5 L 401.8 120.5 L 396.9 112.4 Q 396.3 111.4, 395.7 110.3 Q 395.1 109.2, 394.9 108.9 L 394.9 120.5 L 393.1 120.5 L 393.1 106.4 L 395.3 106.4 " fill="#000000"/>
<path class="atom-3" d="M 392.9 90.9 L 394.8 90.9 L 394.8 96.9 L 402.0 96.9 L 402.0 90.9 L 403.9 90.9 L 403.9 105.0 L 402.0 105.0 L 402.0 98.5 L 394.8 98.5 L 394.8 105.0 L 392.9 105.0 L 392.9 90.9 " fill="#000000"/>
<path class="atom-4" d="M 436.2 145.3 Q 436.3 145.4, 437.0 145.7 Q 437.7 145.9, 438.4 146.1 Q 439.1 146.3, 439.8 146.3 Q 441.2 146.3, 441.9 145.6 Q 442.7 145.0, 442.7 143.9 Q 442.7 143.1, 442.3 142.6 Q 441.9 142.1, 441.3 141.9 Q 440.7 141.6, 439.7 141.3 Q 438.5 140.9, 437.7 140.6 Q 437.0 140.2, 436.5 139.5 Q 435.9 138.7, 435.9 137.4 Q 435.9 135.7, 437.1 134.6 Q 438.4 133.5, 440.7 133.5 Q 442.4 133.5, 444.2 134.2 L 443.8 135.8 Q 442.1 135.1, 440.8 135.1 Q 439.4 135.1, 438.7 135.7 Q 437.9 136.2, 437.9 137.2 Q 437.9 137.9, 438.3 138.4 Q 438.7 138.9, 439.3 139.1 Q 439.8 139.4, 440.8 139.7 Q 442.1 140.1, 442.8 140.5 Q 443.6 140.9, 444.1 141.7 Q 444.7 142.5, 444.7 143.9 Q 444.7 145.8, 443.4 146.9 Q 442.1 147.9, 439.9 147.9 Q 438.7 147.9, 437.7 147.6 Q 436.8 147.4, 435.6 146.9 L 436.2 145.3 " fill="#000000"/>
<path class="atom-5" d="M 480.3 110.8 L 488.6 110.8 L 488.6 112.4 L 482.2 112.4 L 482.2 116.7 L 487.9 116.7 L 487.9 118.3 L 482.2 118.3 L 482.2 124.9 L 480.3 124.9 L 480.3 110.8 " fill="#000000"/>
<path class="atom-0" d="M 263.1,133.7 L 263.1,133.8 L 263.1,133.9 L 263.1,134.0 L 263.0,134.1 L 263.0,134.2 L 263.0,134.2 L 262.9,134.3 L 262.9,134.4 L 262.8,134.4 L 262.8,134.5 L 262.7,134.5 L 262.6,134.6 L 262.5,134.6 L 262.5,134.7 L 262.4,134.7 L 262.3,134.7 L 262.2,134.7 L 262.1,134.7 L 262.0,134.7 L 262.0,134.7 L 261.9,134.7 L 261.8,134.7 L 261.7,134.6 L 261.6,134.6 L 261.6,134.6 L 261.5,134.5 L 261.4,134.5 L 261.4,134.4 L 261.3,134.3 L 261.3,134.3 L 261.2,134.2 L 261.2,134.1 L 261.2,134.0 L 261.1,133.9 L 261.1,133.9 L 261.1,133.8 L 261.1,133.7 L 261.1,133.6 L 261.1,133.5 L 261.2,133.4 L 261.2,133.4 L 261.2,133.3 L 261.3,133.2 L 261.3,133.1 L 261.4,133.1 L 261.4,133.0 L 261.5,133.0 L 261.6,132.9 L 261.6,132.9 L 261.7,132.8 L 261.8,132.8 L 261.9,132.8 L 262.0,132.8 L 262.0,132.7 L 262.1,132.7 L 262.2,132.7 L 262.3,132.8 L 262.4,132.8 L 262.5,132.8 L 262.5,132.8 L 262.6,132.9 L 262.7,132.9 L 262.8,133.0 L 262.8,133.0 L 262.9,133.1 L 262.9,133.2 L 263.0,133.2 L 263.0,133.3 L 263.0,133.4 L 263.1,133.5 L 263.1,133.6 L 263.1,133.7 L 263.1,133.7 L 262.1,133.7 Z" style="fill:#000000;fill-rule:evenodd;fill-opacity:1;stroke:#000000;stroke-width:0.0px;stroke-linecap:butt;stroke-linejoin:miter;stroke-opacity:1;"/>
<path class="atom-0" d="M 263.1,129.8 L 263.1,129.8 L 263.1,129.9 L 263.1,130.0 L 263.0,130.1 L 263.0,130.2 L 263.0,130.2 L 262.9,130.3 L 262.9,130.4 L 262.8,130.5 L 262.8,130.5 L 262.7,130.6 L 262.6,130.6 L 262.5,130.7 L 262.5,130.7 L 262.4,130.7 L 262.3,130.7 L 262.2,130.7 L 262.1,130.8 L 262.0,130.7 L 262.0,130.7 L 261.9,130.7 L 261.8,130.7 L 261.7,130.7 L 261.6,130.6 L 261.6,130.6 L 261.5,130.5 L 261.4,130.5 L 261.4,130.4 L 261.3,130.4 L 261.3,130.3 L 261.2,130.2 L 261.2,130.1 L 261.2,130.1 L 261.1,130.0 L 261.1,129.9 L 261.1,129.8 L 261.1,129.7 L 261.1,129.6 L 261.1,129.5 L 261.2,129.5 L 261.2,129.4 L 261.2,129.3 L 261.3,129.2 L 261.3,129.2 L 261.4,129.1 L 261.4,129.0 L 261.5,129.0 L 261.6,128.9 L 261.6,128.9 L 261.7,128.8 L 261.8,128.8 L 261.9,128.8 L 262.0,128.8 L 262.0,128.8 L 262.1,128.8 L 262.2,128.8 L 262.3,128.8 L 262.4,128.8 L 262.5,128.8 L 262.5,128.9 L 262.6,128.9 L 262.7,128.9 L 262.8,129.0 L 262.8,129.1 L 262.9,129.1 L 262.9,129.2 L 263.0,129.3 L 263.0,129.3 L 263.0,129.4 L 263.1,129.5 L 263.1,129.6 L 263.1,129.7 L 263.1,129.8 L 262.1,129.8 Z" style="fill:#000000;fill-rule:evenodd;fill-opacity:1;stroke:#000000;stroke-width:0.0px;stroke-linecap:butt;stroke-linejoin:miter;stroke-opacity:1;"/>
<path class="bond-0 atom-0 atom-1" d="M 524.4,129.7 L 556.8,150.5" style="fill:none;fill-rule:evenodd;stroke:#000000;stroke-width:2.0px;stroke-linecap:butt;stroke-linejoin:miter;stroke-opacity:1"/>
<path class="bond-1 atom-1 atom-2" d="M 556.8,150.5 L 587.5,134.6" style="fill:none;fill-rule:evenodd;stroke:#000000;stroke-width:2.0px;stroke-linecap:butt;stroke-linejoin:miter;stroke-opacity:1"/>
<path class="bond-2 atom-2 atom-3" d="M 599.0,135.3 L 622.0,150.0" style="fill:none;fill-rule:evenodd;stroke:#000000;stroke-width:2.0px;stroke-linecap:butt;stroke-linejoin:miter;stroke-opacity:1"/>
<path class="bond-3 atom-3 atom-4" d="M 640.8,147.0 L 659.1,137.5" style="fill:none;fill-rule:evenodd;stroke:#000000;stroke-width:2.0px;stroke-linecap:butt;stroke-linejoin:miter;stroke-opacity:1"/>
<path class="bond-4 atom-4 atom-5" d="M 664.5,127.7 L 665.8,101.1" style="fill:none;fill-rule:evenodd;stroke:#000000;stroke-width:2.0px;stroke-linecap:butt;stroke-linejoin:miter;stroke-opacity:1"/>
<path class="bond-5 atom-4 atom-6" d="M 669.3,138.1 L 698.8,157.0" style="fill:none;fill-rule:evenodd;stroke:#000000;stroke-width:2.0px;stroke-linecap:butt;stroke-linejoin:miter;stroke-opacity:1"/>
<path class="bond-6 atom-6 atom-7" d="M 698.8,157.0 L 730.4,140.6" style="fill:none;fill-rule:evenodd;stroke:#000000;stroke-width:2.0px;stroke-linecap:butt;stroke-linejoin:miter;stroke-opacity:1"/>
<path d="M 555.2,149.4 L 556.8,150.5 L 558.3,149.7" style="fill:none;stroke:#000000;stroke-width:2.0px;stroke-linecap:butt;stroke-linejoin:miter;stroke-opacity:1;"/>
<path d="M 697.3,156.0 L 698.8,157.0 L 700.3,156.2" style="fill:none;stroke:#000000;stroke-width:2.0px;stroke-linecap:butt;stroke-linejoin:miter;stroke-opacity:1;"/>
<path class="atom-0" d="M 511.4 128.7 Q 511.4 125.8, 512.7 124.3 Q 514.1 122.8, 516.6 122.8 Q 519.0 122.8, 520.3 124.5 L 519.2 125.4 Q 518.3 124.2, 516.6 124.2 Q 514.9 124.2, 514.0 125.3 Q 513.0 126.5, 513.0 128.7 Q 513.0 131.0, 514.0 132.2 Q 515.0 133.4, 516.8 133.4 Q 518.1 133.4, 519.6 132.6 L 520.1 133.9 Q 519.5 134.2, 518.5 134.5 Q 517.6 134.7, 516.6 134.7 Q 514.1 134.7, 512.7 133.2 Q 511.4 131.6, 511.4 128.7 " fill="#000000"/>
<path class="atom-0" d="M 521.5 122.1 L 523.0 122.1 L 523.0 134.6 L 521.5 134.6 L 521.5 122.1 " fill="#000000"/>
<path class="atom-2" d="M 590.7 125.8 L 594.5 131.9 Q 594.8 132.6, 595.5 133.7 Q 596.1 134.8, 596.1 134.8 L 596.1 125.8 L 597.6 125.8 L 597.6 137.4 L 596.0 137.4 L 592.0 130.7 Q 591.5 129.9, 591.0 129.0 Q 590.5 128.1, 590.3 127.8 L 590.3 137.4 L 588.8 137.4 L 588.8 125.8 L 590.7 125.8 " fill="#000000"/>
<path class="atom-2" d="M 599.7 127.7 L 603.7 127.7 L 603.7 128.6 L 599.7 128.6 L 599.7 127.7 " fill="#000000"/>
<path class="atom-3" d="M 625.2 147.9 L 629.0 154.1 Q 629.4 154.7, 630.0 155.8 Q 630.6 156.9, 630.6 156.9 L 630.6 147.9 L 632.2 147.9 L 632.2 159.5 L 630.6 159.5 L 626.5 152.8 Q 626.0 152.0, 625.5 151.1 Q 625.0 150.2, 624.9 149.9 L 624.9 159.5 L 623.4 159.5 L 623.4 147.9 L 625.2 147.9 " fill="#000000"/>
<path class="atom-3" d="M 634.4 150.0 L 636.4 150.0 L 636.4 147.9 L 637.3 147.9 L 637.3 150.0 L 639.4 150.0 L 639.4 150.8 L 637.3 150.8 L 637.3 153.0 L 636.4 153.0 L 636.4 150.8 L 634.4 150.8 L 634.4 150.0 " fill="#000000"/>
<path class="atom-4" d="M 660.9 138.9 Q 661.1 138.9, 661.6 139.1 Q 662.1 139.4, 662.7 139.5 Q 663.3 139.6, 663.9 139.6 Q 665.0 139.6, 665.7 139.1 Q 666.3 138.6, 666.3 137.6 Q 666.3 137.0, 666.0 136.6 Q 665.7 136.2, 665.2 136.0 Q 664.7 135.8, 663.9 135.5 Q 662.8 135.2, 662.2 134.9 Q 661.6 134.6, 661.2 134.0 Q 660.7 133.4, 660.7 132.3 Q 660.7 130.9, 661.7 130.0 Q 662.7 129.1, 664.7 129.1 Q 666.0 129.1, 667.6 129.7 L 667.2 131.0 Q 665.8 130.4, 664.7 130.4 Q 663.6 130.4, 663.0 130.9 Q 662.4 131.3, 662.4 132.1 Q 662.4 132.8, 662.7 133.1 Q 663.0 133.5, 663.5 133.7 Q 663.9 134.0, 664.7 134.2 Q 665.8 134.5, 666.4 134.9 Q 667.0 135.2, 667.5 135.9 Q 667.9 136.5, 667.9 137.6 Q 667.9 139.3, 666.8 140.1 Q 665.8 141.0, 664.0 141.0 Q 663.0 141.0, 662.2 140.7 Q 661.4 140.5, 660.5 140.2 L 660.9 138.9 " fill="#000000"/>
<path class="atom-4" d="M 659.7 142.1 L 661.2 142.1 L 661.2 147.1 L 667.2 147.1 L 667.2 142.1 L 668.8 142.1 L 668.8 153.8 L 667.2 153.8 L 667.2 148.4 L 661.2 148.4 L 661.2 153.8 L 659.7 153.8 L 659.7 142.1 " fill="#000000"/>
<path class="atom-5" d="M 662.6 88.1 L 669.5 88.1 L 669.5 89.4 L 664.2 89.4 L 664.2 92.9 L 669.0 92.9 L 669.0 94.3 L 664.2 94.3 L 664.2 99.7 L 662.6 99.7 L 662.6 88.1 " fill="#000000"/>
<path class="atom-7" d="M 731.7 132.3 L 738.6 132.3 L 738.6 133.7 L 733.3 133.7 L 733.3 137.2 L 738.0 137.2 L 738.0 138.5 L 733.3 138.5 L 733.3 143.9 L 731.7 143.9 L 731.7 132.3 " fill="#000000"/>
<path class="atom-1" d="M 559.3,154.1 L 559.3,154.2 L 559.3,154.3 L 559.2,154.4 L 559.2,154.4 L 559.2,154.5 L 559.2,154.6 L 559.1,154.6 L 559.1,154.7 L 559.0,154.7 L 559.0,154.8 L 558.9,154.8 L 558.9,154.9 L 558.8,154.9 L 558.7,154.9 L 558.7,154.9 L 558.6,155.0 L 558.5,155.0 L 558.5,155.0 L 558.4,155.0 L 558.3,155.0 L 558.2,154.9 L 558.2,154.9 L 558.1,154.9 L 558.1,154.9 L 558.0,154.8 L 557.9,154.8 L 557.9,154.7 L 557.8,154.7 L 557.8,154.6 L 557.7,154.6 L 557.7,154.5 L 557.7,154.5 L 557.7,154.4 L 557.6,154.3 L 557.6,154.3 L 557.6,154.2 L 557.6,154.1 L 557.6,154.0 L 557.6,154.0 L 557.7,153.9 L 557.7,153.8 L 557.7,153.8 L 557.7,153.7 L 557.8,153.7 L 557.8,153.6 L 557.9,153.5 L 557.9,153.5 L 558.0,153.5 L 558.1,153.4 L 558.1,153.4 L 558.2,153.4 L 558.2,153.4 L 558.3,153.3 L 558.4,153.3 L 558.5,153.3 L 558.5,153.3 L 558.6,153.3 L 558.7,153.4 L 558.7,153.4 L 558.8,153.4 L 558.9,153.4 L 558.9,153.5 L 559.0,153.5 L 559.0,153.6 L 559.1,153.6 L 559.1,153.7 L 559.2,153.7 L 559.2,153.8 L 559.2,153.9 L 559.2,153.9 L 559.3,154.0 L 559.3,154.1 L 559.3,154.1 L 558.4,154.1 Z" style="fill:#000000;fill-rule:evenodd;fill-opacity:1;stroke:#000000;stroke-width:0.0px;stroke-linecap:butt;stroke-linejoin:miter;stroke-opacity:1;"/>
<path class="atom-1" d="M 556.0,154.1 L 556.0,154.2 L 556.0,154.3 L 556.0,154.4 L 555.9,154.4 L 555.9,154.5 L 555.9,154.6 L 555.8,154.6 L 555.8,154.7 L 555.7,154.7 L 555.7,154.8 L 555.6,154.8 L 555.6,154.9 L 555.5,154.9 L 555.5,154.9 L 555.4,154.9 L 555.3,155.0 L 555.2,155.0 L 555.2,155.0 L 555.1,155.0 L 555.0,155.0 L 555.0,154.9 L 554.9,154.9 L 554.8,154.9 L 554.8,154.9 L 554.7,154.8 L 554.7,154.8 L 554.6,154.7 L 554.5,154.7 L 554.5,154.6 L 554.5,154.6 L 554.4,154.5 L 554.4,154.5 L 554.4,154.4 L 554.4,154.3 L 554.3,154.3 L 554.3,154.2 L 554.3,154.1 L 554.3,154.0 L 554.4,154.0 L 554.4,153.9 L 554.4,153.8 L 554.4,153.8 L 554.5,153.7 L 554.5,153.7 L 554.5,153.6 L 554.6,153.5 L 554.7,153.5 L 554.7,153.5 L 554.8,153.4 L 554.8,153.4 L 554.9,153.4 L 555.0,153.4 L 555.0,153.3 L 555.1,153.3 L 555.2,153.3 L 555.2,153.3 L 555.3,153.3 L 555.4,153.4 L 555.5,153.4 L 555.5,153.4 L 555.6,153.4 L 555.6,153.5 L 555.7,153.5 L 555.7,153.6 L 555.8,153.6 L 555.8,153.7 L 555.9,153.7 L 555.9,153.8 L 555.9,153.9 L 556.0,153.9 L 556.0,154.0 L 556.0,154.1 L 556.0,154.1 L 555.2,154.1 Z" style="fill:#000000;fill-rule:evenodd;fill-opacity:1;stroke:#000000;stroke-width:0.0px;stroke-linecap:butt;stroke-linejoin:miter;stroke-opacity:1;"/>
<path class="atom-3" d="M 642.7,155.4 L 642.7,155.4 L 642.7,155.5 L 642.7,155.6 L 642.7,155.6 L 642.6,155.7 L 642.6,155.8 L 642.6,155.8 L 642.5,155.9 L 642.5,155.9 L 642.4,156.0 L 642.4,156.0 L 642.3,156.1 L 642.2,156.1 L 642.2,156.1 L 642.1,156.2 L 642.0,156.2 L 642.0,156.2 L 641.9,156.2 L 641.8,156.2 L 641.8,156.2 L 641.7,156.2 L 641.6,156.1 L 641.6,156.1 L 641.5,156.1 L 641.4,156.1 L 641.4,156.0 L 641.3,156.0 L 641.3,155.9 L 641.2,155.9 L 641.2,155.8 L 641.2,155.7 L 641.1,155.7 L 641.1,155.6 L 641.1,155.5 L 641.1,155.5 L 641.1,155.4 L 641.1,155.3 L 641.1,155.3 L 641.1,155.2 L 641.1,155.1 L 641.1,155.1 L 641.2,155.0 L 641.2,154.9 L 641.2,154.9 L 641.3,154.8 L 641.3,154.8 L 641.4,154.7 L 641.4,154.7 L 641.5,154.6 L 641.6,154.6 L 641.6,154.6 L 641.7,154.6 L 641.8,154.6 L 641.8,154.5 L 641.9,154.5 L 642.0,154.5 L 642.0,154.6 L 642.1,154.6 L 642.2,154.6 L 642.2,154.6 L 642.3,154.7 L 642.4,154.7 L 642.4,154.7 L 642.5,154.8 L 642.5,154.8 L 642.6,154.9 L 642.6,155.0 L 642.6,155.0 L 642.7,155.1 L 642.7,155.2 L 642.7,155.2 L 642.7,155.3 L 642.7,155.4 L 641.9,155.4 Z" style="fill:#000000;fill-rule:evenodd;fill-opacity:1;stroke:#000000;stroke-width:0.0px;stroke-linecap:butt;stroke-linejoin:miter;stroke-opacity:1;"/>
<path class="atom-3" d="M 642.7,152.1 L 642.7,152.2 L 642.7,152.2 L 642.7,152.3 L 642.7,152.4 L 642.6,152.4 L 642.6,152.5 L 642.6,152.5 L 642.5,152.6 L 642.5,152.7 L 642.4,152.7 L 642.4,152.7 L 642.3,152.8 L 642.2,152.8 L 642.2,152.8 L 642.1,152.9 L 642.0,152.9 L 642.0,152.9 L 641.9,152.9 L 641.8,152.9 L 641.8,152.9 L 641.7,152.9 L 641.6,152.9 L 641.6,152.8 L 641.5,152.8 L 641.4,152.8 L 641.4,152.7 L 641.3,152.7 L 641.3,152.6 L 641.2,152.6 L 641.2,152.5 L 641.2,152.5 L 641.1,152.4 L 641.1,152.3 L 641.1,152.3 L 641.1,152.2 L 641.1,152.1 L 641.1,152.0 L 641.1,152.0 L 641.1,151.9 L 641.1,151.8 L 641.1,151.8 L 641.2,151.7 L 641.2,151.6 L 641.2,151.6 L 641.3,151.5 L 641.3,151.5 L 641.4,151.4 L 641.4,151.4 L 641.5,151.4 L 641.6,151.3 L 641.6,151.3 L 641.7,151.3 L 641.8,151.3 L 641.8,151.3 L 641.9,151.3 L 642.0,151.3 L 642.0,151.3 L 642.1,151.3 L 642.2,151.3 L 642.2,151.3 L 642.3,151.4 L 642.4,151.4 L 642.4,151.5 L 642.5,151.5 L 642.5,151.6 L 642.6,151.6 L 642.6,151.7 L 642.6,151.7 L 642.7,151.8 L 642.7,151.9 L 642.7,151.9 L 642.7,152.0 L 642.7,152.1 L 641.9,152.1 Z" style="fill:#000000;fill-rule:evenodd;fill-opacity:1;stroke:#000000;stroke-width:0.0px;stroke-linecap:butt;stroke-linejoin:miter;stroke-opacity:1;"/>
<path class="atom-6" d="M 699.6,160.7 L 699.6,160.8 L 699.6,160.8 L 699.5,160.9 L 699.5,161.0 L 699.5,161.0 L 699.5,161.1 L 699.4,161.2 L 699.4,161.2 L 699.3,161.3 L 699.3,161.3 L 699.2,161.4 L 699.2,161.4 L 699.1,161.4 L 699.0,161.5 L 699.0,161.5 L 698.9,161.5 L 698.8,161.5 L 698.8,161.5 L 698.7,161.5 L 698.6,161.5 L 698.6,161.5 L 698.5,161.5 L 698.4,161.4 L 698.4,161.4 L 698.3,161.4 L 698.2,161.3 L 698.2,161.3 L 698.1,161.2 L 698.1,161.2 L 698.1,161.1 L 698.0,161.1 L 698.0,161.0 L 698.0,160.9 L 697.9,160.9 L 697.9,160.8 L 697.9,160.7 L 697.9,160.6 L 697.9,160.6 L 697.9,160.5 L 698.0,160.4 L 698.0,160.4 L 698.0,160.3 L 698.1,160.2 L 698.1,160.2 L 698.1,160.1 L 698.2,160.1 L 698.2,160.0 L 698.3,160.0 L 698.4,160.0 L 698.4,159.9 L 698.5,159.9 L 698.6,159.9 L 698.6,159.9 L 698.7,159.9 L 698.8,159.9 L 698.8,159.9 L 698.9,159.9 L 699.0,159.9 L 699.0,159.9 L 699.1,159.9 L 699.2,160.0 L 699.2,160.0 L 699.3,160.1 L 699.3,160.1 L 699.4,160.2 L 699.4,160.2 L 699.5,160.3 L 699.5,160.3 L 699.5,160.4 L 699.5,160.5 L 699.6,160.5 L 699.6,160.6 L 699.6,160.7 L 698.8,160.7 Z" style="fill:#000000;fill-rule:evenodd;fill-opacity:1;stroke:#000000;stroke-width:0.0px;stroke-linecap:butt;stroke-linejoin:miter;stroke-opacity:1;"/>
<path class="bond-0 atom-0 atom-1" d="M 31.2,379.4 L 82.2,386.6" style="fill:none;fill-rule:evenodd;stroke:#000000;stroke-width:2.0px;stroke-linecap:butt;stroke-linejoin:miter;stroke-opacity:1"/>
<path class="bond-1 atom-1 atom-2" d="M 99.2,376.9 L 133.0,333.7" style="fill:none;fill-rule:evenodd;stroke:#000000;stroke-width:2.0px;stroke-linecap:butt;stroke-linejoin:miter;stroke-opacity:1"/>
<path class="bond-2 atom-2 atom-3" d="M 133.0,333.7 L 201.0,343.3" style="fill:none;fill-rule:evenodd;stroke:#000000;stroke-width:2.0px;stroke-linecap:butt;stroke-linejoin:miter;stroke-opacity:1"/>
<path class="bond-2 atom-2 atom-3" d="M 137.5,344.7 L 193.7,352.7" style="fill:none;fill-rule:evenodd;stroke:#000000;stroke-width:2.0px;stroke-linecap:butt;stroke-linejoin:miter;stroke-opacity:1"/>
<path class="bond-3 atom-3 atom-4" d="M 201.0,343.3 L 222.0,395.5" style="fill:none;fill-rule:evenodd;stroke:#000000;stroke-width:2.0px;stroke-linecap:butt;stroke-linejoin:miter;stroke-opacity:1"/>
<path d="M 131.3,335.9 L 133.0,333.7 L 136.4,334.2" style="fill:none;stroke:#000000;stroke-width:2.0px;stroke-linecap:butt;stroke-linejoin:miter;stroke-opacity:1;"/>
<path d="M 197.6,342.8 L 201.0,343.3 L 202.0,345.9" style="fill:none;stroke:#000000;stroke-width:2.0px;stroke-linecap:butt;stroke-linejoin:miter;stroke-opacity:1;"/>
<path class="atom-0" d="M 17.3 384.8 Q 17.5 384.9, 18.4 385.3 Q 19.3 385.7, 20.3 385.9 Q 21.3 386.1, 22.3 386.1 Q 24.1 386.1, 25.2 385.3 Q 26.3 384.4, 26.3 382.8 Q 26.3 381.7, 25.7 381.1 Q 25.2 380.4, 24.4 380.0 Q 23.5 379.7, 22.2 379.3 Q 20.4 378.8, 19.4 378.3 Q 18.4 377.8, 17.6 376.7 Q 16.9 375.7, 16.9 373.9 Q 16.9 371.5, 18.6 370.0 Q 20.2 368.5, 23.5 368.5 Q 25.8 368.5, 28.3 369.5 L 27.7 371.6 Q 25.4 370.7, 23.6 370.7 Q 21.7 370.7, 20.7 371.5 Q 19.6 372.2, 19.7 373.6 Q 19.7 374.6, 20.2 375.3 Q 20.7 375.9, 21.5 376.3 Q 22.3 376.6, 23.6 377.0 Q 25.4 377.6, 26.4 378.1 Q 27.5 378.7, 28.2 379.8 Q 29.0 380.9, 29.0 382.8 Q 29.0 385.5, 27.2 386.9 Q 25.4 388.4, 22.4 388.4 Q 20.7 388.4, 19.3 388.0 Q 18.0 387.6, 16.5 387.0 L 17.3 384.8 " fill="#000000"/>
<path class="atom-1" d="M 85.2 394.4 Q 85.4 394.5, 86.3 394.9 Q 87.3 395.3, 88.2 395.5 Q 89.3 395.8, 90.2 395.8 Q 92.1 395.8, 93.2 394.9 Q 94.2 394.0, 94.2 392.4 Q 94.2 391.3, 93.7 390.7 Q 93.2 390.0, 92.3 389.7 Q 91.5 389.3, 90.1 388.9 Q 88.4 388.4, 87.4 387.9 Q 86.3 387.4, 85.6 386.3 Q 84.9 385.3, 84.9 383.5 Q 84.9 381.1, 86.5 379.6 Q 88.2 378.1, 91.5 378.1 Q 93.8 378.1, 96.3 379.1 L 95.7 381.3 Q 93.3 380.3, 91.6 380.3 Q 89.7 380.3, 88.7 381.1 Q 87.6 381.9, 87.6 383.2 Q 87.6 384.3, 88.2 384.9 Q 88.7 385.5, 89.5 385.9 Q 90.3 386.2, 91.6 386.6 Q 93.3 387.2, 94.4 387.7 Q 95.4 388.3, 96.2 389.4 Q 96.9 390.5, 96.9 392.4 Q 96.9 395.1, 95.1 396.6 Q 93.3 398.0, 90.4 398.0 Q 88.6 398.0, 87.3 397.6 Q 86.0 397.2, 84.5 396.6 L 85.2 394.4 " fill="#000000"/>
<path class="atom-4" d="M 219.1 407.7 Q 219.1 402.8, 221.4 400.3 Q 223.7 397.8, 228.0 397.8 Q 232.0 397.8, 234.1 400.6 L 232.3 402.1 Q 230.8 400.0, 228.0 400.0 Q 225.0 400.0, 223.5 402.0 Q 221.9 403.9, 221.9 407.7 Q 221.9 411.5, 223.5 413.5 Q 225.2 415.5, 228.3 415.5 Q 230.4 415.5, 232.9 414.2 L 233.7 416.2 Q 232.7 416.9, 231.1 417.3 Q 229.6 417.7, 227.9 417.7 Q 223.7 417.7, 221.4 415.1 Q 219.1 412.5, 219.1 407.7 " fill="#000000"/>
<path class="atom-4" d="M 236.1 396.6 L 238.6 396.6 L 238.6 417.4 L 236.1 417.4 L 236.1 396.6 " fill="#000000"/>
<path class="atom-0" d="M 13.8,378.2 L 13.8,378.3 L 13.7,378.4 L 13.7,378.5 L 13.7,378.6 L 13.6,378.7 L 13.6,378.8 L 13.5,378.9 L 13.5,379.0 L 13.4,379.1 L 13.3,379.2 L 13.2,379.3 L 13.1,379.3 L 13.0,379.4 L 12.9,379.4 L 12.8,379.5 L 12.7,379.5 L 12.5,379.5 L 12.4,379.5 L 12.3,379.5 L 12.2,379.5 L 12.1,379.5 L 12.0,379.5 L 11.8,379.4 L 11.7,379.4 L 11.6,379.3 L 11.5,379.2 L 11.5,379.2 L 11.4,379.1 L 11.3,379.0 L 11.2,378.9 L 11.2,378.8 L 11.1,378.7 L 11.1,378.6 L 11.1,378.4 L 11.0,378.3 L 11.0,378.2 L 11.0,378.1 L 11.0,378.0 L 11.1,377.9 L 11.1,377.7 L 11.1,377.6 L 11.2,377.5 L 11.2,377.4 L 11.3,377.3 L 11.4,377.2 L 11.5,377.2 L 11.5,377.1 L 11.6,377.0 L 11.7,376.9 L 11.8,376.9 L 12.0,376.9 L 12.1,376.8 L 12.2,376.8 L 12.3,376.8 L 12.4,376.8 L 12.5,376.8 L 12.7,376.8 L 12.8,376.8 L 12.9,376.9 L 13.0,376.9 L 13.1,377.0 L 13.2,377.0 L 13.3,377.1 L 13.4,377.2 L 13.5,377.3 L 13.5,377.4 L 13.6,377.5 L 13.6,377.6 L 13.7,377.7 L 13.7,377.8 L 13.7,377.9 L 13.8,378.0 L 13.8,378.2 L 12.4,378.2 Z" style="fill:#000000;fill-rule:evenodd;fill-opacity:1;stroke:#000000;stroke-width:0.0px;stroke-linecap:butt;stroke-linejoin:miter;stroke-opacity:1;"/>
<path class="atom-2" d="M 126.2,333.7 L 126.1,333.8 L 126.1,333.9 L 126.1,334.1 L 126.1,334.2 L 126.0,334.3 L 126.0,334.4 L 125.9,334.5 L 125.8,334.6 L 125.8,334.7 L 125.7,334.8 L 125.6,334.8 L 125.5,334.9 L 125.4,334.9 L 125.3,335.0 L 125.2,335.0 L 125.0,335.1 L 124.9,335.1 L 124.8,335.1 L 124.7,335.1 L 124.6,335.1 L 124.5,335.0 L 124.3,335.0 L 124.2,335.0 L 124.1,334.9 L 124.0,334.9 L 123.9,334.8 L 123.8,334.7 L 123.8,334.6 L 123.7,334.5 L 123.6,334.4 L 123.6,334.3 L 123.5,334.2 L 123.5,334.1 L 123.4,334.0 L 123.4,333.9 L 123.4,333.8 L 123.4,333.7 L 123.4,333.5 L 123.4,333.4 L 123.5,333.3 L 123.5,333.2 L 123.6,333.1 L 123.6,333.0 L 123.7,332.9 L 123.8,332.8 L 123.8,332.7 L 123.9,332.6 L 124.0,332.6 L 124.1,332.5 L 124.2,332.5 L 124.3,332.4 L 124.5,332.4 L 124.6,332.4 L 124.7,332.3 L 124.8,332.3 L 124.9,332.3 L 125.0,332.4 L 125.2,332.4 L 125.3,332.4 L 125.4,332.5 L 125.5,332.5 L 125.6,332.6 L 125.7,332.7 L 125.8,332.8 L 125.8,332.8 L 125.9,332.9 L 126.0,333.0 L 126.0,333.1 L 126.1,333.2 L 126.1,333.4 L 126.1,333.5 L 126.1,333.6 L 126.2,333.7 L 124.8,333.7 Z" style="fill:#000000;fill-rule:evenodd;fill-opacity:1;stroke:#000000;stroke-width:0.0px;stroke-linecap:butt;stroke-linejoin:miter;stroke-opacity:1;"/>
<path class="atom-3" d="M 210.6,343.3 L 210.6,343.4 L 210.6,343.6 L 210.5,343.7 L 210.5,343.8 L 210.5,343.9 L 210.4,344.0 L 210.4,344.1 L 210.3,344.2 L 210.2,344.3 L 210.1,344.4 L 210.0,344.4 L 209.9,344.5 L 209.8,344.6 L 209.7,344.6 L 209.6,344.6 L 209.5,344.7 L 209.4,344.7 L 209.3,344.7 L 209.1,344.7 L 209.0,344.7 L 208.9,344.7 L 208.8,344.6 L 208.7,344.6 L 208.6,344.5 L 208.5,344.5 L 208.4,344.4 L 208.3,344.3 L 208.2,344.2 L 208.1,344.2 L 208.1,344.1 L 208.0,344.0 L 207.9,343.8 L 207.9,343.7 L 207.9,343.6 L 207.9,343.5 L 207.8,343.4 L 207.8,343.3 L 207.9,343.1 L 207.9,343.0 L 207.9,342.9 L 207.9,342.8 L 208.0,342.7 L 208.1,342.6 L 208.1,342.5 L 208.2,342.4 L 208.3,342.3 L 208.4,342.2 L 208.5,342.2 L 208.6,342.1 L 208.7,342.1 L 208.8,342.0 L 208.9,342.0 L 209.0,342.0 L 209.1,342.0 L 209.3,342.0 L 209.4,342.0 L 209.5,342.0 L 209.6,342.0 L 209.7,342.0 L 209.8,342.1 L 209.9,342.1 L 210.0,342.2 L 210.1,342.3 L 210.2,342.4 L 210.3,342.5 L 210.4,342.5 L 210.4,342.6 L 210.5,342.8 L 210.5,342.9 L 210.5,343.0 L 210.6,343.1 L 210.6,343.2 L 210.6,343.3 L 209.2,343.3 Z" style="fill:#000000;fill-rule:evenodd;fill-opacity:1;stroke:#000000;stroke-width:0.0px;stroke-linecap:butt;stroke-linejoin:miter;stroke-opacity:1;"/>
<path class="bond-0 atom-0 atom-1" d="M 300.9,374.8 L 431.2,374.8" style="fill:none;fill-rule:evenodd;stroke:#000000;stroke-width:2.0px;stroke-linecap:butt;stroke-linejoin:miter;stroke-opacity:1"/>
<path class="atom-0" d="M 273.6 374.9 Q 273.6 367.9, 276.9 364.2 Q 280.2 360.5, 286.5 360.5 Q 292.3 360.5, 295.5 364.6 L 292.8 366.7 Q 290.5 363.7, 286.5 363.7 Q 282.2 363.7, 279.9 366.6 Q 277.7 369.5, 277.7 374.9 Q 277.7 380.5, 280.0 383.4 Q 282.4 386.3, 286.9 386.3 Q 290.1 386.3, 293.7 384.4 L 294.8 387.4 Q 293.3 388.3, 291.1 388.9 Q 288.9 389.5, 286.4 389.5 Q 280.2 389.5, 276.9 385.7 Q 273.6 381.9, 273.6 374.9 " fill="#000000"/>
<path class="atom-0" d="M 298.9 365.1 L 308.6 365.1 L 308.6 367.2 L 298.9 367.2 L 298.9 365.1 " fill="#000000"/>
<path class="atom-1" d="M 436.7 374.9 Q 436.7 368.1, 440.0 364.3 Q 443.4 360.5, 449.7 360.5 Q 455.9 360.5, 459.3 364.3 Q 462.7 368.1, 462.7 374.9 Q 462.7 381.7, 459.3 385.7 Q 455.9 389.5, 449.7 389.5 Q 443.4 389.5, 440.0 385.7 Q 436.7 381.8, 436.7 374.9 M 449.7 386.3 Q 454.0 386.3, 456.3 383.5 Q 458.7 380.5, 458.7 374.9 Q 458.7 369.3, 456.3 366.5 Q 454.0 363.7, 449.7 363.7 Q 445.3 363.7, 443.0 366.5 Q 440.7 369.3, 440.7 374.9 Q 440.7 380.6, 443.0 383.5 Q 445.3 386.3, 449.7 386.3 " fill="#000000"/>
<path class="atom-1" d="M 466.7 365.1 L 476.4 365.1 L 476.4 367.2 L 466.7 367.2 L 466.7 365.1 " fill="#000000"/>
<path class="bond-0 atom-0 atom-1" d="M 536.3,374.8 L 693.1,374.8" style="fill:none;fill-rule:evenodd;stroke:#000000;stroke-width:2.0px;stroke-linecap:butt;stroke-linejoin:miter;stroke-opacity:1"/>
<path class="atom-1" d="M 698.9 375.8 Q 698.9 368.8, 702.1 365.1 Q 705.5 361.4, 711.7 361.4 Q 717.6 361.4, 720.7 365.5 L 718.1 367.6 Q 715.8 364.6, 711.7 364.6 Q 707.5 364.6, 705.2 367.5 Q 702.9 370.4, 702.9 375.8 Q 702.9 381.4, 705.3 384.3 Q 707.6 387.2, 712.2 387.2 Q 715.3 387.2, 718.9 385.3 L 720.1 388.3 Q 718.6 389.2, 716.3 389.8 Q 714.1 390.4, 711.6 390.4 Q 705.5 390.4, 702.1 386.6 Q 698.9 382.8, 698.9 375.8 " fill="#000000"/>
<path class="atom-1" d="M 723.6 359.6 L 727.2 359.6 L 727.2 390.0 L 723.6 390.0 L 723.6 359.6 " fill="#000000"/>
<path class="atom-0" d="M 526.3,378.8 L 526.2,379.0 L 526.2,379.2 L 526.2,379.3 L 526.1,379.5 L 526.1,379.7 L 526.0,379.8 L 525.9,380.0 L 525.8,380.1 L 525.7,380.2 L 525.6,380.3 L 525.4,380.4 L 525.3,380.5 L 525.1,380.6 L 525.0,380.7 L 524.8,380.7 L 524.6,380.8 L 524.5,380.8 L 524.3,380.8 L 524.1,380.8 L 524.0,380.8 L 523.8,380.8 L 523.6,380.7 L 523.5,380.7 L 523.3,380.6 L 523.2,380.5 L 523.0,380.4 L 522.9,380.3 L 522.8,380.2 L 522.7,380.0 L 522.6,379.9 L 522.5,379.7 L 522.4,379.6 L 522.3,379.4 L 522.3,379.2 L 522.3,379.1 L 522.3,378.9 L 522.3,378.7 L 522.3,378.6 L 522.3,378.4 L 522.3,378.2 L 522.4,378.1 L 522.5,377.9 L 522.6,377.8 L 522.7,377.6 L 522.8,377.5 L 522.9,377.4 L 523.0,377.2 L 523.2,377.1 L 523.3,377.1 L 523.5,377.0 L 523.6,376.9 L 523.8,376.9 L 524.0,376.8 L 524.1,376.8 L 524.3,376.8 L 524.5,376.8 L 524.6,376.9 L 524.8,376.9 L 525.0,377.0 L 525.1,377.0 L 525.3,377.1 L 525.4,377.2 L 525.6,377.3 L 525.7,377.4 L 525.8,377.5 L 525.9,377.7 L 526.0,377.8 L 526.1,378.0 L 526.1,378.1 L 526.2,378.3 L 526.2,378.5 L 526.2,378.6 L 526.3,378.8 L 524.3,378.8 Z" style="fill:#000000;fill-rule:evenodd;fill-opacity:1;stroke:#000000;stroke-width:0.0px;stroke-linecap:butt;stroke-linejoin:miter;stroke-opacity:1;"/>
<path class="atom-0" d="M 526.3,370.8 L 526.2,371.0 L 526.2,371.2 L 526.2,371.3 L 526.1,371.5 L 526.1,371.7 L 526.0,371.8 L 525.9,372.0 L 525.8,372.1 L 525.7,372.2 L 525.6,372.3 L 525.4,372.4 L 525.3,372.5 L 525.1,372.6 L 525.0,372.7 L 524.8,372.7 L 524.6,372.8 L 524.5,372.8 L 524.3,372.8 L 524.1,372.8 L 524.0,372.8 L 523.8,372.8 L 523.6,372.7 L 523.5,372.7 L 523.3,372.6 L 523.2,372.5 L 523.0,372.4 L 522.9,372.3 L 522.8,372.2 L 522.7,372.0 L 522.6,371.9 L 522.5,371.7 L 522.4,371.6 L 522.3,371.4 L 522.3,371.2 L 522.3,371.1 L 522.3,370.9 L 522.3,370.7 L 522.3,370.6 L 522.3,370.4 L 522.3,370.2 L 522.4,370.1 L 522.5,369.9 L 522.6,369.8 L 522.7,369.6 L 522.8,369.5 L 522.9,369.4 L 523.0,369.2 L 523.2,369.1 L 523.3,369.1 L 523.5,369.0 L 523.6,368.9 L 523.8,368.9 L 524.0,368.8 L 524.1,368.8 L 524.3,368.8 L 524.5,368.8 L 524.6,368.9 L 524.8,368.9 L 525.0,369.0 L 525.1,369.0 L 525.3,369.1 L 525.4,369.2 L 525.6,369.3 L 525.7,369.4 L 525.8,369.5 L 525.9,369.7 L 526.0,369.8 L 526.1,370.0 L 526.1,370.1 L 526.2,370.3 L 526.2,370.5 L 526.2,370.6 L 526.3,370.8 L 524.3,370.8 Z" style="fill:#000000;fill-rule:evenodd;fill-opacity:1;stroke:#000000;stroke-width:0.0px;stroke-linecap:butt;stroke-linejoin:miter;stroke-opacity:1;"/>
<path class="bond-0 atom-0 atom-1" d="M 26.3,628.3 L 44.9,617.6" style="fill:none;fill-rule:evenodd;stroke:#000000;stroke-width:2.0px;stroke-linecap:butt;stroke-linejoin:miter;stroke-opacity:1"/>
<path class="bond-0 atom-0 atom-1" d="M 28.7,632.3 L 47.2,621.6" style="fill:none;fill-rule:evenodd;stroke:#000000;stroke-width:2.0px;stroke-linecap:butt;stroke-linejoin:miter;stroke-opacity:1"/>
<path class="bond-1 atom-1 atom-2" d="M 53.6,619.6 L 71.4,629.9" style="fill:none;fill-rule:evenodd;stroke:#000000;stroke-width:2.0px;stroke-linecap:butt;stroke-linejoin:miter;stroke-opacity:1"/>
<path class="bond-2 atom-2 atom-3" d="M 81.4,629.9 L 99.2,619.6" style="fill:none;fill-rule:evenodd;stroke:#000000;stroke-width:2.0px;stroke-linecap:butt;stroke-linejoin:miter;stroke-opacity:1"/>
<path class="bond-3 atom-3 atom-4" d="M 106.8,619.6 L 125.8,630.6" style="fill:none;fill-rule:evenodd;stroke:#000000;stroke-width:2.0px;stroke-linecap:butt;stroke-linejoin:miter;stroke-opacity:1"/>
<path class="bond-4 atom-4 atom-5" d="M 133.4,630.6 L 151.9,619.9" style="fill:none;fill-rule:evenodd;stroke:#000000;stroke-width:2.0px;stroke-linecap:butt;stroke-linejoin:miter;stroke-opacity:1"/>
<path class="bond-5 atom-5 atom-6" d="M 160.5,619.9 L 179.0,630.6" style="fill:none;fill-rule:evenodd;stroke:#000000;stroke-width:2.0px;stroke-linecap:butt;stroke-linejoin:miter;stroke-opacity:1"/>
<path class="bond-6 atom-6 atom-7" d="M 186.6,630.6 L 205.6,619.6" style="fill:none;fill-rule:evenodd;stroke:#000000;stroke-width:2.0px;stroke-linecap:butt;stroke-linejoin:miter;stroke-opacity:1"/>
<path class="bond-6 atom-6 atom-7" d="M 186.3,625.5 L 203.3,615.6" style="fill:none;fill-rule:evenodd;stroke:#000000;stroke-width:2.0px;stroke-linecap:butt;stroke-linejoin:miter;stroke-opacity:1"/>
<path class="bond-7 atom-7 atom-8" d="M 213.2,619.6 L 232.4,630.7" style="fill:none;fill-rule:evenodd;stroke:#000000;stroke-width:2.0px;stroke-linecap:butt;stroke-linejoin:miter;stroke-opacity:1"/>
<path class="atom-0" d="M 11.4 628.4 L 12.5 628.4 L 12.5 632.1 L 17.0 632.1 L 17.0 628.4 L 18.2 628.4 L 18.2 637.1 L 17.0 637.1 L 17.0 633.1 L 12.5 633.1 L 12.5 637.1 L 11.4 637.1 L 11.4 628.4 " fill="#000000"/>
<path class="atom-0" d="M 21.3 628.4 L 24.1 633.1 Q 24.4 633.5, 24.9 634.3 Q 25.3 635.2, 25.3 635.2 L 25.3 628.4 L 26.5 628.4 L 26.5 637.1 L 25.3 637.1 L 22.2 632.1 Q 21.9 631.5, 21.5 630.8 Q 21.1 630.2, 21.0 630.0 L 21.0 637.1 L 19.9 637.1 L 19.9 628.4 L 21.3 628.4 " fill="#000000"/>
<path class="atom-1" d="M 49.6 613.1 Q 51.1 613.1, 51.8 613.8 Q 52.6 614.4, 52.6 615.6 Q 52.6 616.8, 51.8 617.5 Q 51.0 618.2, 49.6 618.2 L 48.2 618.2 L 48.2 621.8 L 47.0 621.8 L 47.0 613.1 L 49.6 613.1 M 49.6 617.2 Q 50.4 617.2, 50.9 616.8 Q 51.3 616.4, 51.3 615.6 Q 51.3 614.9, 50.9 614.5 Q 50.4 614.1, 49.6 614.1 L 48.2 614.1 L 48.2 617.2 L 49.6 617.2 " fill="#000000"/>
<path class="atom-2" d="M 72.4 632.8 Q 72.4 630.7, 73.4 629.6 Q 74.5 628.4, 76.4 628.4 Q 78.3 628.4, 79.4 629.6 Q 80.4 630.7, 80.4 632.8 Q 80.4 634.9, 79.4 636.1 Q 78.3 637.3, 76.4 637.3 Q 74.5 637.3, 73.4 636.1 Q 72.4 634.9, 72.4 632.8 M 76.4 636.3 Q 77.7 636.3, 78.4 635.5 Q 79.2 634.6, 79.2 632.8 Q 79.2 631.1, 78.4 630.3 Q 77.7 629.4, 76.4 629.4 Q 75.1 629.4, 74.4 630.2 Q 73.6 631.1, 73.6 632.8 Q 73.6 634.6, 74.4 635.5 Q 75.1 636.3, 76.4 636.3 " fill="#000000"/>
<path class="atom-3" d="M 100.6 620.4 Q 100.7 620.5, 101.1 620.6 Q 101.5 620.8, 101.9 620.9 Q 102.4 621.0, 102.8 621.0 Q 103.6 621.0, 104.1 620.6 Q 104.6 620.2, 104.6 619.5 Q 104.6 619.0, 104.3 618.7 Q 104.1 618.4, 103.7 618.3 Q 103.4 618.1, 102.8 617.9 Q 102.0 617.7, 101.5 617.5 Q 101.1 617.3, 100.7 616.8 Q 100.4 616.3, 100.4 615.5 Q 100.4 614.4, 101.1 613.8 Q 101.9 613.1, 103.4 613.1 Q 104.4 613.1, 105.5 613.6 L 105.2 614.5 Q 104.2 614.1, 103.4 614.1 Q 102.6 614.1, 102.1 614.4 Q 101.6 614.8, 101.6 615.4 Q 101.6 615.9, 101.9 616.1 Q 102.1 616.4, 102.5 616.6 Q 102.8 616.7, 103.4 616.9 Q 104.2 617.2, 104.7 617.4 Q 105.1 617.7, 105.5 618.2 Q 105.8 618.7, 105.8 619.5 Q 105.8 620.7, 105.0 621.4 Q 104.2 622.0, 102.9 622.0 Q 102.1 622.0, 101.5 621.8 Q 100.9 621.7, 100.2 621.4 L 100.6 620.4 " fill="#000000"/>
<path class="atom-3" d="M 106.9 614.4 L 109.9 614.4 L 109.9 615.1 L 106.9 615.1 L 106.9 614.4 " fill="#000000"/>
<path class="atom-4" d="M 129.4 628.4 Q 130.9 628.4, 131.6 629.1 Q 132.4 629.8, 132.4 631.0 Q 132.4 632.2, 131.6 632.9 Q 130.9 633.6, 129.4 633.6 L 128.0 633.6 L 128.0 637.1 L 126.8 637.1 L 126.8 628.4 L 129.4 628.4 M 129.4 632.6 Q 130.3 632.6, 130.7 632.2 Q 131.2 631.8, 131.2 631.0 Q 131.2 630.2, 130.7 629.8 Q 130.3 629.4, 129.4 629.4 L 128.0 629.4 L 128.0 632.6 L 129.4 632.6 " fill="#000000"/>
<path class="atom-5" d="M 154.3 613.1 L 157.2 617.7 Q 157.4 618.1, 157.9 619.0 Q 158.3 619.8, 158.4 619.8 L 158.4 613.1 L 159.5 613.1 L 159.5 621.8 L 158.3 621.8 L 155.3 616.7 Q 154.9 616.2, 154.5 615.5 Q 154.2 614.8, 154.1 614.6 L 154.1 621.8 L 152.9 621.8 L 152.9 613.1 L 154.3 613.1 " fill="#000000"/>
<path class="atom-5" d="M 152.8 603.5 L 154.0 603.5 L 154.0 607.2 L 158.5 607.2 L 158.5 603.5 L 159.6 603.5 L 159.6 612.2 L 158.5 612.2 L 158.5 608.2 L 154.0 608.2 L 154.0 612.2 L 152.8 612.2 L 152.8 603.5 " fill="#000000"/>
<path class="atom-6" d="M 182.6 628.4 Q 184.1 628.4, 184.9 629.1 Q 185.6 629.8, 185.6 631.0 Q 185.6 632.2, 184.8 632.9 Q 184.1 633.6, 182.6 633.6 L 181.2 633.6 L 181.2 637.1 L 180.1 637.1 L 180.1 628.4 L 182.6 628.4 M 182.6 632.6 Q 183.5 632.6, 183.9 632.2 Q 184.4 631.8, 184.4 631.0 Q 184.4 630.2, 183.9 629.8 Q 183.5 629.4, 182.6 629.4 L 181.2 629.4 L 181.2 632.6 L 182.6 632.6 " fill="#000000"/>
<path class="atom-6" d="M 179.4 638.0 L 180.6 638.0 L 180.6 641.7 L 185.1 641.7 L 185.1 638.0 L 186.2 638.0 L 186.2 646.7 L 185.1 646.7 L 185.1 642.7 L 180.6 642.7 L 180.6 646.7 L 179.4 646.7 L 179.4 638.0 " fill="#000000"/>
<path class="atom-7" d="M 207.0 620.4 Q 207.1 620.5, 207.5 620.6 Q 207.9 620.8, 208.3 620.9 Q 208.8 621.0, 209.2 621.0 Q 210.1 621.0, 210.5 620.6 Q 211.0 620.2, 211.0 619.5 Q 211.0 619.0, 210.8 618.7 Q 210.5 618.4, 210.2 618.3 Q 209.8 618.1, 209.2 617.9 Q 208.4 617.7, 207.9 617.5 Q 207.5 617.3, 207.2 616.8 Q 206.8 616.3, 206.8 615.5 Q 206.8 614.4, 207.6 613.8 Q 208.3 613.1, 209.8 613.1 Q 210.8 613.1, 211.9 613.6 L 211.7 614.5 Q 210.6 614.1, 209.8 614.1 Q 209.0 614.1, 208.5 614.4 Q 208.1 614.8, 208.1 615.4 Q 208.1 615.9, 208.3 616.1 Q 208.5 616.4, 208.9 616.6 Q 209.2 616.7, 209.8 616.9 Q 210.6 617.2, 211.1 617.4 Q 211.6 617.7, 211.9 618.2 Q 212.2 618.7, 212.2 619.5 Q 212.2 620.7, 211.4 621.4 Q 210.6 622.0, 209.3 622.0 Q 208.5 622.0, 207.9 621.8 Q 207.3 621.7, 206.7 621.4 L 207.0 620.4 " fill="#000000"/>
<path class="atom-7" d="M 206.0 603.3 L 207.2 603.3 L 207.2 607.0 L 211.7 607.0 L 211.7 603.3 L 212.8 603.3 L 212.8 612.0 L 211.7 612.0 L 211.7 608.0 L 207.2 608.0 L 207.2 612.0 L 206.0 612.0 L 206.0 603.3 " fill="#000000"/>
<path class="atom-8" d="M 233.5 628.4 L 238.6 628.4 L 238.6 629.4 L 234.6 629.4 L 234.6 632.1 L 238.2 632.1 L 238.2 633.1 L 234.6 633.1 L 234.6 637.1 L 233.5 637.1 L 233.5 628.4 " fill="#000000"/>
<path class="atom-3" d="M 103.6,622.9 L 103.6,623.0 L 103.6,623.0 L 103.6,623.1 L 103.6,623.1 L 103.6,623.2 L 103.5,623.2 L 103.5,623.3 L 103.5,623.3 L 103.4,623.4 L 103.4,623.4 L 103.4,623.4 L 103.3,623.5 L 103.3,623.5 L 103.2,623.5 L 103.2,623.5 L 103.1,623.5 L 103.1,623.5 L 103.0,623.5 L 103.0,623.5 L 102.9,623.5 L 102.9,623.5 L 102.8,623.5 L 102.8,623.5 L 102.7,623.5 L 102.7,623.4 L 102.6,623.4 L 102.6,623.4 L 102.6,623.3 L 102.5,623.3 L 102.5,623.3 L 102.5,623.2 L 102.4,623.2 L 102.4,623.1 L 102.4,623.1 L 102.4,623.0 L 102.4,623.0 L 102.4,622.9 L 102.4,622.8 L 102.4,622.8 L 102.4,622.7 L 102.4,622.7 L 102.5,622.6 L 102.5,622.6 L 102.5,622.6 L 102.6,622.5 L 102.6,622.5 L 102.6,622.4 L 102.7,622.4 L 102.7,622.4 L 102.8,622.4 L 102.8,622.3 L 102.9,622.3 L 102.9,622.3 L 103.0,622.3 L 103.0,622.3 L 103.1,622.3 L 103.1,622.3 L 103.2,622.3 L 103.2,622.4 L 103.3,622.4 L 103.3,622.4 L 103.4,622.4 L 103.4,622.5 L 103.4,622.5 L 103.5,622.5 L 103.5,622.6 L 103.5,622.6 L 103.6,622.7 L 103.6,622.7 L 103.6,622.8 L 103.6,622.8 L 103.6,622.9 L 103.6,622.9 L 103.0,622.9 Z" style="fill:#000000;fill-rule:evenodd;fill-opacity:1;stroke:#000000;stroke-width:0.0px;stroke-linecap:butt;stroke-linejoin:miter;stroke-opacity:1;"/>
<path class="atom-4" d="M 134.9,632.8 L 134.9,632.8 L 134.8,632.9 L 134.8,633.0 L 134.8,633.0 L 134.8,633.1 L 134.8,633.1 L 134.7,633.1 L 134.7,633.2 L 134.7,633.2 L 134.6,633.3 L 134.6,633.3 L 134.6,633.3 L 134.5,633.3 L 134.5,633.4 L 134.4,633.4 L 134.4,633.4 L 134.3,633.4 L 134.3,633.4 L 134.2,633.4 L 134.1,633.4 L 134.1,633.4 L 134.0,633.4 L 134.0,633.4 L 133.9,633.3 L 133.9,633.3 L 133.9,633.3 L 133.8,633.2 L 133.8,633.2 L 133.7,633.2 L 133.7,633.1 L 133.7,633.1 L 133.7,633.0 L 133.7,633.0 L 133.6,632.9 L 133.6,632.9 L 133.6,632.8 L 133.6,632.8 L 133.6,632.7 L 133.6,632.7 L 133.7,632.6 L 133.7,632.6 L 133.7,632.5 L 133.7,632.5 L 133.7,632.4 L 133.8,632.4 L 133.8,632.3 L 133.9,632.3 L 133.9,632.3 L 133.9,632.3 L 134.0,632.2 L 134.0,632.2 L 134.1,632.2 L 134.1,632.2 L 134.2,632.2 L 134.3,632.2 L 134.3,632.2 L 134.4,632.2 L 134.4,632.2 L 134.5,632.2 L 134.5,632.2 L 134.6,632.3 L 134.6,632.3 L 134.6,632.3 L 134.7,632.4 L 134.7,632.4 L 134.7,632.4 L 134.8,632.5 L 134.8,632.5 L 134.8,632.6 L 134.8,632.6 L 134.8,632.7 L 134.9,632.7 L 134.9,632.8 L 134.2,632.8 Z" style="fill:#000000;fill-rule:evenodd;fill-opacity:1;stroke:#000000;stroke-width:0.0px;stroke-linecap:butt;stroke-linejoin:miter;stroke-opacity:1;"/>
<path class="atom-6" d="M 188.7,632.8 L 188.7,632.8 L 188.7,632.9 L 188.7,633.0 L 188.7,633.0 L 188.6,633.1 L 188.6,633.1 L 188.6,633.1 L 188.6,633.2 L 188.5,633.2 L 188.5,633.3 L 188.4,633.3 L 188.4,633.3 L 188.3,633.3 L 188.3,633.4 L 188.3,633.4 L 188.2,633.4 L 188.1,633.4 L 188.1,633.4 L 188.0,633.4 L 188.0,633.4 L 187.9,633.4 L 187.9,633.4 L 187.8,633.4 L 187.8,633.3 L 187.7,633.3 L 187.7,633.3 L 187.7,633.2 L 187.6,633.2 L 187.6,633.2 L 187.6,633.1 L 187.5,633.1 L 187.5,633.0 L 187.5,633.0 L 187.5,632.9 L 187.5,632.9 L 187.5,632.8 L 187.5,632.8 L 187.5,632.7 L 187.5,632.7 L 187.5,632.6 L 187.5,632.6 L 187.5,632.5 L 187.6,632.5 L 187.6,632.4 L 187.6,632.4 L 187.7,632.3 L 187.7,632.3 L 187.7,632.3 L 187.8,632.3 L 187.8,632.2 L 187.9,632.2 L 187.9,632.2 L 188.0,632.2 L 188.0,632.2 L 188.1,632.2 L 188.1,632.2 L 188.2,632.2 L 188.3,632.2 L 188.3,632.2 L 188.3,632.2 L 188.4,632.3 L 188.4,632.3 L 188.5,632.3 L 188.5,632.4 L 188.6,632.4 L 188.6,632.4 L 188.6,632.5 L 188.6,632.5 L 188.7,632.6 L 188.7,632.6 L 188.7,632.7 L 188.7,632.7 L 188.7,632.8 L 188.1,632.8 Z" style="fill:#000000;fill-rule:evenodd;fill-opacity:1;stroke:#000000;stroke-width:0.0px;stroke-linecap:butt;stroke-linejoin:miter;stroke-opacity:1;"/>
<path class="atom-0" d="M 344.1 603.8 L 347.9 603.8 L 347.9 615.8 L 362.4 615.8 L 362.4 603.8 L 366.2 603.8 L 366.2 632.1 L 362.4 632.1 L 362.4 619.0 L 347.9 619.0 L 347.9 632.1 L 344.1 632.1 L 344.1 603.8 " fill="#000000"/>
<path class="atom-0" d="M 371.7 631.1 Q 372.4 629.3, 374.0 628.3 Q 375.6 627.3, 377.9 627.3 Q 380.7 627.3, 382.3 628.9 Q 383.9 630.4, 383.9 633.1 Q 383.9 635.9, 381.8 638.5 Q 379.8 641.1, 375.6 644.1 L 384.2 644.1 L 384.2 646.2 L 371.6 646.2 L 371.6 644.5 Q 375.1 642.0, 377.2 640.1 Q 379.2 638.3, 380.2 636.6 Q 381.2 635.0, 381.2 633.3 Q 381.2 631.5, 380.3 630.5 Q 379.5 629.4, 377.9 629.4 Q 376.4 629.4, 375.4 630.1 Q 374.4 630.7, 373.7 632.0 L 371.7 631.1 " fill="#000000"/>
<path class="atom-0" d="M 388.8 627.7 Q 389.2 627.8, 390.5 628.4 Q 391.8 628.9, 393.2 629.3 Q 394.7 629.6, 396.2 629.6 Q 398.8 629.6, 400.4 628.3 Q 402.0 627.0, 402.0 624.7 Q 402.0 623.2, 401.2 622.2 Q 400.4 621.2, 399.2 620.7 Q 398.0 620.2, 396.0 619.6 Q 393.5 618.8, 392.0 618.1 Q 390.5 617.4, 389.4 615.9 Q 388.4 614.4, 388.4 611.8 Q 388.4 608.2, 390.8 606.0 Q 393.2 603.8, 398.0 603.8 Q 401.3 603.8, 405.0 605.4 L 404.1 608.5 Q 400.7 607.1, 398.1 607.1 Q 395.4 607.1, 393.8 608.2 Q 392.3 609.4, 392.4 611.3 Q 392.4 612.8, 393.1 613.8 Q 393.9 614.7, 395.0 615.2 Q 396.2 615.7, 398.1 616.3 Q 400.7 617.1, 402.2 617.9 Q 403.7 618.7, 404.8 620.4 Q 405.9 622.0, 405.9 624.7 Q 405.9 628.6, 403.3 630.8 Q 400.7 632.8, 396.3 632.8 Q 393.8 632.8, 391.9 632.3 Q 390.0 631.8, 387.8 630.8 L 388.8 627.7 " fill="#000000"/>
<path class="bond-0 atom-0 atom-1" d="M 511.4,649.8 L 554.3,625.0" style="fill:none;fill-rule:evenodd;stroke:#000000;stroke-width:2.0px;stroke-linecap:butt;stroke-linejoin:miter;stroke-opacity:1"/>
<path class="bond-1 atom-1 atom-2" d="M 574.2,625.0 L 608.6,644.9" style="fill:none;fill-rule:evenodd;stroke:#000000;stroke-width:2.0px;stroke-linecap:butt;stroke-linejoin:miter;stroke-opacity:1"/>
<path class="bond-2 atom-2 atom-3" d="M 635.8,639.1 L 661.5,624.2" style="fill:none;fill-rule:evenodd;stroke:#000000;stroke-width:2.0px;stroke-linecap:butt;stroke-linejoin:miter;stroke-opacity:1"/>
<path class="bond-3 atom-3 atom-4" d="M 676.4,628.2 L 712.2,648.9" style="fill:none;fill-rule:evenodd;stroke:#000000;stroke-width:2.0px;stroke-linecap:butt;stroke-linejoin:miter;stroke-opacity:1"/>
<path class="bond-3 atom-3 atom-4" d="M 681.0,620.3 L 716.7,640.9" style="fill:none;fill-rule:evenodd;stroke:#000000;stroke-width:2.0px;stroke-linecap:butt;stroke-linejoin:miter;stroke-opacity:1"/>
<path class="atom-1" d="M 556.3 619.3 Q 556.3 615.2, 558.4 612.9 Q 560.4 610.5, 564.3 610.5 Q 568.1 610.5, 570.2 612.9 Q 572.2 615.2, 572.2 619.3 Q 572.2 623.5, 570.1 625.9 Q 568.1 628.3, 564.3 628.3 Q 560.5 628.3, 558.4 625.9 Q 556.3 623.6, 556.3 619.3 M 564.3 626.4 Q 566.9 626.4, 568.3 624.6 Q 569.8 622.8, 569.8 619.3 Q 569.8 615.9, 568.3 614.2 Q 566.9 612.5, 564.3 612.5 Q 561.6 612.5, 560.2 614.2 Q 558.8 615.9, 558.8 619.3 Q 558.8 622.8, 560.2 624.6 Q 561.6 626.4, 564.3 626.4 " fill="#000000"/>
<path class="atom-1" d="M 574.8 613.6 L 577.9 613.6 L 577.9 610.4 L 579.2 610.4 L 579.2 613.6 L 582.3 613.6 L 582.3 614.8 L 579.2 614.8 L 579.2 618.0 L 577.9 618.0 L 577.9 614.8 L 574.8 614.8 L 574.8 613.6 " fill="#000000"/>
<path class="atom-2" d="M 613.4 641.2 L 619.0 650.4 Q 619.6 651.3, 620.5 652.9 Q 621.4 654.5, 621.5 654.6 L 621.5 641.2 L 623.8 641.2 L 623.8 658.5 L 621.4 658.5 L 615.3 648.5 Q 614.6 647.3, 613.8 646.0 Q 613.1 644.6, 612.9 644.2 L 612.9 658.5 L 610.6 658.5 L 610.6 641.2 L 613.4 641.2 " fill="#000000"/>
<path class="atom-2" d="M 627.0 644.3 L 630.1 644.3 L 630.1 641.1 L 631.4 641.1 L 631.4 644.3 L 634.5 644.3 L 634.5 645.5 L 631.4 645.5 L 631.4 648.7 L 630.1 648.7 L 630.1 645.5 L 627.0 645.5 L 627.0 644.3 " fill="#000000"/>
<path class="atom-3" d="M 666.3 610.6 L 672.0 619.8 Q 672.5 620.7, 673.4 622.3 Q 674.3 624.0, 674.4 624.1 L 674.4 610.6 L 676.7 610.6 L 676.7 627.9 L 674.3 627.9 L 668.2 617.9 Q 667.5 616.7, 666.7 615.4 Q 666.0 614.1, 665.8 613.6 L 665.8 627.9 L 663.5 627.9 L 663.5 610.6 L 666.3 610.6 " fill="#000000"/>
<path class="atom-3" d="M 663.3 591.6 L 665.7 591.6 L 665.7 599.0 L 674.5 599.0 L 674.5 591.6 L 676.9 591.6 L 676.9 608.9 L 674.5 608.9 L 674.5 600.9 L 665.7 600.9 L 665.7 608.9 L 663.3 608.9 L 663.3 591.6 " fill="#000000"/>
<path class="atom-3" d="M 680.2 594.7 L 683.3 594.7 L 683.3 591.5 L 684.6 591.5 L 684.6 594.7 L 687.7 594.7 L 687.7 595.9 L 684.6 595.9 L 684.6 599.1 L 683.3 599.1 L 683.3 595.9 L 680.2 595.9 L 680.2 594.7 " fill="#000000"/>
<path class="atom-4" d="M 719.2 641.2 L 724.9 650.4 Q 725.4 651.3, 726.3 652.9 Q 727.2 654.5, 727.3 654.6 L 727.3 641.2 L 729.6 641.2 L 729.6 658.5 L 727.2 658.5 L 721.1 648.5 Q 720.4 647.3, 719.7 646.0 Q 718.9 644.6, 718.7 644.2 L 718.7 658.5 L 716.5 658.5 L 716.5 641.2 L 719.2 641.2 " fill="#000000"/>
<path class="atom-4" d="M 732.7 644.0 L 738.6 644.0 L 738.6 645.3 L 732.7 645.3 L 732.7 644.0 " fill="#000000"/>
<path class="atom-1" d="M 565.5,608.6 L 565.5,608.7 L 565.5,608.8 L 565.5,608.9 L 565.4,609.0 L 565.4,609.1 L 565.3,609.2 L 565.3,609.3 L 565.2,609.4 L 565.2,609.4 L 565.1,609.5 L 565.0,609.6 L 564.9,609.6 L 564.8,609.7 L 564.7,609.7 L 564.6,609.8 L 564.5,609.8 L 564.4,609.8 L 564.3,609.8 L 564.2,609.8 L 564.1,609.8 L 564.0,609.8 L 563.9,609.7 L 563.8,609.7 L 563.7,609.7 L 563.6,609.6 L 563.5,609.5 L 563.4,609.5 L 563.4,609.4 L 563.3,609.3 L 563.2,609.2 L 563.2,609.1 L 563.1,609.0 L 563.1,608.9 L 563.1,608.8 L 563.1,608.7 L 563.1,608.6 L 563.1,608.5 L 563.1,608.4 L 563.1,608.3 L 563.1,608.2 L 563.1,608.1 L 563.2,608.0 L 563.2,607.9 L 563.3,607.8 L 563.4,607.8 L 563.4,607.7 L 563.5,607.6 L 563.6,607.6 L 563.7,607.5 L 563.8,607.5 L 563.9,607.4 L 564.0,607.4 L 564.1,607.4 L 564.2,607.4 L 564.3,607.4 L 564.4,607.4 L 564.5,607.4 L 564.6,607.4 L 564.7,607.4 L 564.8,607.5 L 564.9,607.5 L 565.0,607.6 L 565.1,607.7 L 565.2,607.7 L 565.2,607.8 L 565.3,607.9 L 565.3,608.0 L 565.4,608.1 L 565.4,608.2 L 565.5,608.3 L 565.5,608.4 L 565.5,608.5 L 565.5,608.6 L 564.3,608.6 Z" style="fill:#000000;fill-rule:evenodd;fill-opacity:1;stroke:#000000;stroke-width:0.0px;stroke-linecap:butt;stroke-linejoin:miter;stroke-opacity:1;"/>
<path class="atom-2" d="M 639.4,652.3 L 639.4,652.4 L 639.4,652.5 L 639.4,652.6 L 639.4,652.7 L 639.3,652.8 L 639.3,652.9 L 639.2,653.0 L 639.2,653.1 L 639.1,653.1 L 639.0,653.2 L 638.9,653.3 L 638.8,653.3 L 638.7,653.4 L 638.6,653.4 L 638.5,653.5 L 638.4,653.5 L 638.3,653.5 L 638.2,653.5 L 638.1,653.5 L 638.0,653.5 L 637.9,653.5 L 637.8,653.4 L 637.7,653.4 L 637.6,653.4 L 637.5,653.3 L 637.5,653.2 L 637.4,653.2 L 637.3,653.1 L 637.2,653.0 L 637.2,652.9 L 637.1,652.8 L 637.1,652.7 L 637.0,652.6 L 637.0,652.5 L 637.0,652.4 L 637.0,652.3 L 637.0,652.2 L 637.0,652.1 L 637.0,652.0 L 637.0,651.9 L 637.1,651.8 L 637.1,651.7 L 637.2,651.6 L 637.2,651.5 L 637.3,651.5 L 637.4,651.4 L 637.5,651.3 L 637.5,651.3 L 637.6,651.2 L 637.7,651.2 L 637.8,651.1 L 637.9,651.1 L 638.0,651.1 L 638.1,651.1 L 638.2,651.1 L 638.3,651.1 L 638.4,651.1 L 638.5,651.1 L 638.6,651.1 L 638.7,651.2 L 638.8,651.2 L 638.9,651.3 L 639.0,651.4 L 639.1,651.4 L 639.2,651.5 L 639.2,651.6 L 639.3,651.7 L 639.3,651.8 L 639.4,651.9 L 639.4,652.0 L 639.4,652.1 L 639.4,652.2 L 639.4,652.3 L 638.2,652.3 Z" style="fill:#000000;fill-rule:evenodd;fill-opacity:1;stroke:#000000;stroke-width:0.0px;stroke-linecap:butt;stroke-linejoin:miter;stroke-opacity:1;"/>
<path class="atom-2" d="M 639.4,647.4 L 639.4,647.5 L 639.4,647.6 L 639.4,647.7 L 639.4,647.8 L 639.3,647.9 L 639.3,648.0 L 639.2,648.1 L 639.2,648.2 L 639.1,648.2 L 639.0,648.3 L 638.9,648.4 L 638.8,648.4 L 638.7,648.5 L 638.6,648.5 L 638.5,648.6 L 638.4,648.6 L 638.3,648.6 L 638.2,648.6 L 638.1,648.6 L 638.0,648.6 L 637.9,648.6 L 637.8,648.6 L 637.7,648.5 L 637.6,648.5 L 637.5,648.4 L 637.5,648.4 L 637.4,648.3 L 637.3,648.2 L 637.2,648.1 L 637.2,648.0 L 637.1,648.0 L 637.1,647.9 L 637.0,647.8 L 637.0,647.7 L 637.0,647.6 L 637.0,647.4 L 637.0,647.3 L 637.0,647.2 L 637.0,647.1 L 637.0,647.0 L 637.1,646.9 L 637.1,646.8 L 637.2,646.7 L 637.2,646.7 L 637.3,646.6 L 637.4,646.5 L 637.5,646.4 L 637.5,646.4 L 637.6,646.3 L 637.7,646.3 L 637.8,646.2 L 637.9,646.2 L 638.0,646.2 L 638.1,646.2 L 638.2,646.2 L 638.3,646.2 L 638.4,646.2 L 638.5,646.2 L 638.6,646.3 L 638.7,646.3 L 638.8,646.3 L 638.9,646.4 L 639.0,646.5 L 639.1,646.5 L 639.2,646.6 L 639.2,646.7 L 639.3,646.8 L 639.3,646.9 L 639.4,647.0 L 639.4,647.1 L 639.4,647.2 L 639.4,647.3 L 639.4,647.4 L 638.2,647.4 Z" style="fill:#000000;fill-rule:evenodd;fill-opacity:1;stroke:#000000;stroke-width:0.0px;stroke-linecap:butt;stroke-linejoin:miter;stroke-opacity:1;"/>
</svg>