<svg xmlns="http://www.w3.org/2000/svg" xmlns:rdkit="http://www.rdkit.org/xml" xmlns:xlink="http://www.w3.org/1999/xlink" version="1.1" baseProfile="full" xml:space="preserve" width="750px" height="750px" viewBox="0 0 750 750">
<!-- END OF HEADER -->
<rect style="opacity:1.0;fill:#FFFFFF;stroke:none" width="750.0" height="750.0" x="0.0" y="0.0"> </rect>
<path class="bond-0 atom-0 atom-1" d="M 166.3,118.9 L 98.6,157.9" style="fill:none;fill-rule:evenodd;stroke:#000000;stroke-width:2.0px;stroke-linecap:butt;stroke-linejoin:miter;stroke-opacity:1"/>
<path class="bond-1 atom-1 atom-2" d="M 98.6,157.9 L 31.0,118.9" style="fill:none;fill-rule:evenodd;stroke:#000000;stroke-width:2.0px;stroke-linecap:butt;stroke-linejoin:miter;stroke-opacity:1"/>
<path class="bond-1 atom-1 atom-2" d="M 98.6,141.8 L 38.0,106.8" style="fill:none;fill-rule:evenodd;stroke:#000000;stroke-width:2.0px;stroke-linecap:butt;stroke-linejoin:miter;stroke-opacity:1"/>
<path d="M 102.0,156.0 L 98.6,157.9 L 95.2,156.0" style="fill:none;stroke:#000000;stroke-width:2.0px;stroke-linecap:butt;stroke-linejoin:miter;stroke-opacity:1;"/>
<path class="atom-0" d="M 173.5 98.1 L 182.2 112.1 Q 183.0 113.5, 184.4 116.0 Q 185.8 118.5, 185.9 118.6 L 185.9 98.1 L 189.4 98.1 L 189.4 124.5 L 185.7 124.5 L 176.5 109.2 Q 175.4 107.4, 174.2 105.4 Q 173.1 103.3, 172.8 102.7 L 172.8 124.5 L 169.3 124.5 L 169.3 98.1 L 173.5 98.1 " fill="#000000"/>
<path class="atom-0" d="M 194.4 98.1 L 198.0 98.1 L 198.0 109.3 L 211.5 109.3 L 211.5 98.1 L 215.0 98.1 L 215.0 124.5 L 211.5 124.5 L 211.5 112.3 L 198.0 112.3 L 198.0 124.5 L 194.4 124.5 L 194.4 98.1 " fill="#000000"/>
<path class="atom-0" d="M 220.2 102.9 L 224.8 102.9 L 224.8 98.0 L 226.9 98.0 L 226.9 102.9 L 231.6 102.9 L 231.6 104.7 L 226.9 104.7 L 226.9 109.6 L 224.8 109.6 L 224.8 104.7 L 220.2 104.7 L 220.2 102.9 " fill="#000000"/>
<path class="atom-2" d="M 15.5 92.1 L 24.2 106.1 Q 25.0 107.4, 26.4 109.9 Q 27.8 112.4, 27.9 112.6 L 27.9 92.1 L 31.4 92.1 L 31.4 118.5 L 27.8 118.5 L 18.5 103.2 Q 17.4 101.4, 16.2 99.3 Q 15.1 97.3, 14.8 96.7 L 14.8 118.5 L 11.4 118.5 L 11.4 92.1 L 15.5 92.1 " fill="#000000"/>
<path class="atom-2" d="M 36.2 96.4 L 45.2 96.4 L 45.2 98.4 L 36.2 98.4 L 36.2 96.4 " fill="#000000"/>
<path class="atom-0" d="M 239.1,115.1 L 239.1,115.2 L 239.1,115.4 L 239.0,115.5 L 239.0,115.7 L 238.9,115.8 L 238.9,116.0 L 238.8,116.1 L 238.7,116.2 L 238.6,116.4 L 238.5,116.5 L 238.3,116.6 L 238.2,116.7 L 238.1,116.7 L 237.9,116.8 L 237.8,116.8 L 237.6,116.9 L 237.4,116.9 L 237.3,116.9 L 237.1,116.9 L 237.0,116.9 L 236.8,116.9 L 236.6,116.8 L 236.5,116.8 L 236.4,116.7 L 236.2,116.6 L 236.1,116.5 L 236.0,116.4 L 235.9,116.3 L 235.7,116.2 L 235.7,116.0 L 235.6,115.9 L 235.5,115.8 L 235.5,115.6 L 235.4,115.4 L 235.4,115.3 L 235.4,115.1 L 235.4,115.0 L 235.4,114.8 L 235.4,114.7 L 235.5,114.5 L 235.5,114.3 L 235.6,114.2 L 235.7,114.1 L 235.7,113.9 L 235.9,113.8 L 236.0,113.7 L 236.1,113.6 L 236.2,113.5 L 236.4,113.4 L 236.5,113.3 L 236.6,113.3 L 236.8,113.2 L 237.0,113.2 L 237.1,113.2 L 237.3,113.2 L 237.4,113.2 L 237.6,113.2 L 237.8,113.3 L 237.9,113.3 L 238.1,113.4 L 238.2,113.4 L 238.3,113.5 L 238.5,113.6 L 238.6,113.7 L 238.7,113.9 L 238.8,114.0 L 238.9,114.1 L 238.9,114.3 L 239.0,114.4 L 239.0,114.6 L 239.1,114.7 L 239.1,114.9 L 239.1,115.1 L 237.2,115.1 Z" style="fill:#000000;fill-rule:evenodd;fill-opacity:1;stroke:#000000;stroke-width:0.0px;stroke-linecap:butt;stroke-linejoin:miter;stroke-opacity:1;"/>
<path class="atom-0" d="M 239.1,107.6 L 239.1,107.8 L 239.1,107.9 L 239.0,108.1 L 239.0,108.2 L 238.9,108.4 L 238.9,108.5 L 238.8,108.6 L 238.7,108.8 L 238.6,108.9 L 238.5,109.0 L 238.3,109.1 L 238.2,109.2 L 238.1,109.3 L 237.9,109.3 L 237.8,109.4 L 237.6,109.4 L 237.4,109.4 L 237.3,109.5 L 237.1,109.5 L 237.0,109.4 L 236.8,109.4 L 236.6,109.4 L 236.5,109.3 L 236.4,109.2 L 236.2,109.2 L 236.1,109.1 L 236.0,109.0 L 235.9,108.8 L 235.7,108.7 L 235.7,108.6 L 235.6,108.4 L 235.5,108.3 L 235.5,108.1 L 235.4,108.0 L 235.4,107.8 L 235.4,107.7 L 235.4,107.5 L 235.4,107.4 L 235.4,107.2 L 235.5,107.0 L 235.5,106.9 L 235.6,106.7 L 235.7,106.6 L 235.7,106.5 L 235.9,106.3 L 236.0,106.2 L 236.1,106.1 L 236.2,106.0 L 236.4,106.0 L 236.5,105.9 L 236.6,105.8 L 236.8,105.8 L 237.0,105.7 L 237.1,105.7 L 237.3,105.7 L 237.4,105.7 L 237.6,105.8 L 237.8,105.8 L 237.9,105.9 L 238.1,105.9 L 238.2,106.0 L 238.3,106.1 L 238.5,106.2 L 238.6,106.3 L 238.7,106.4 L 238.8,106.5 L 238.9,106.7 L 238.9,106.8 L 239.0,107.0 L 239.0,107.1 L 239.1,107.3 L 239.1,107.4 L 239.1,107.6 L 237.2,107.6 Z" style="fill:#000000;fill-rule:evenodd;fill-opacity:1;stroke:#000000;stroke-width:0.0px;stroke-linecap:butt;stroke-linejoin:miter;stroke-opacity:1;"/>
<path class="bond-0 atom-0 atom-1" d="M 290.9,124.0 L 305.3,116.2" style="fill:none;fill-rule:evenodd;stroke:#000000;stroke-width:2.0px;stroke-linecap:butt;stroke-linejoin:miter;stroke-opacity:1"/>
<path class="bond-1 atom-1 atom-2" d="M 314.9,116.5 L 339.3,131.5" style="fill:none;fill-rule:evenodd;stroke:#000000;stroke-width:2.0px;stroke-linecap:butt;stroke-linejoin:miter;stroke-opacity:1"/>
<path class="bond-2 atom-2 atom-3" d="M 339.3,131.5 L 369.4,115.2" style="fill:none;fill-rule:evenodd;stroke:#000000;stroke-width:2.0px;stroke-linecap:butt;stroke-linejoin:miter;stroke-opacity:1"/>
<path class="bond-2 atom-2 atom-3" d="M 339.5,125.6 L 367.0,110.7" style="fill:none;fill-rule:evenodd;stroke:#000000;stroke-width:2.0px;stroke-linecap:butt;stroke-linejoin:miter;stroke-opacity:1"/>
<path class="bond-3 atom-3 atom-4" d="M 369.4,115.2 L 393.8,130.2" style="fill:none;fill-rule:evenodd;stroke:#000000;stroke-width:2.0px;stroke-linecap:butt;stroke-linejoin:miter;stroke-opacity:1"/>
<path class="bond-4 atom-4 atom-5" d="M 403.4,130.6 L 423.9,119.5" style="fill:none;fill-rule:evenodd;stroke:#000000;stroke-width:2.0px;stroke-linecap:butt;stroke-linejoin:miter;stroke-opacity:1"/>
<path class="bond-5 atom-5 atom-6" d="M 433.5,119.8 L 453.1,131.9" style="fill:none;fill-rule:evenodd;stroke:#000000;stroke-width:2.0px;stroke-linecap:butt;stroke-linejoin:miter;stroke-opacity:1"/>
<path class="bond-6 atom-6 atom-7" d="M 468.7,129.0 L 486.2,119.5" style="fill:none;fill-rule:evenodd;stroke:#000000;stroke-width:2.0px;stroke-linecap:butt;stroke-linejoin:miter;stroke-opacity:1"/>
<path d="M 338.1,130.8 L 339.3,131.5 L 340.8,130.7" style="fill:none;stroke:#000000;stroke-width:2.0px;stroke-linecap:butt;stroke-linejoin:miter;stroke-opacity:1;"/>
<path d="M 367.9,116.0 L 369.4,115.2 L 370.6,116.0" style="fill:none;stroke:#000000;stroke-width:2.0px;stroke-linecap:butt;stroke-linejoin:miter;stroke-opacity:1;"/>
<path class="atom-0" d="M 261.4 125.0 L 262.7 125.0 L 262.7 129.1 L 267.6 129.1 L 267.6 125.0 L 269.0 125.0 L 269.0 134.7 L 267.6 134.7 L 267.6 130.2 L 262.7 130.2 L 262.7 134.7 L 261.4 134.7 L 261.4 125.0 " fill="#000000"/>
<path class="atom-0" d="M 273.9 136.2 Q 274.5 136.4, 274.8 136.8 Q 275.1 137.2, 275.1 137.8 Q 275.1 138.3, 274.8 138.8 Q 274.6 139.2, 274.1 139.4 Q 273.6 139.6, 272.9 139.6 Q 272.2 139.6, 271.7 139.4 Q 271.2 139.2, 270.8 138.7 L 271.3 138.2 Q 271.7 138.6, 272.1 138.8 Q 272.4 138.9, 272.9 138.9 Q 273.5 138.9, 273.9 138.6 Q 274.2 138.3, 274.2 137.8 Q 274.2 137.1, 273.8 136.9 Q 273.5 136.6, 272.7 136.6 L 272.2 136.6 L 272.2 135.9 L 272.6 135.9 Q 273.3 135.9, 273.7 135.6 Q 274.1 135.3, 274.1 134.7 Q 274.1 134.3, 273.8 134.1 Q 273.5 133.8, 272.9 133.8 Q 272.4 133.8, 272.1 134.0 Q 271.7 134.2, 271.5 134.7 L 270.9 134.3 Q 271.1 133.8, 271.6 133.4 Q 272.2 133.1, 272.9 133.1 Q 273.9 133.1, 274.4 133.5 Q 275.0 134.0, 275.0 134.7 Q 275.0 135.2, 274.7 135.6 Q 274.4 136.0, 273.9 136.2 " fill="#000000"/>
<path class="atom-0" d="M 277.9 125.0 L 281.1 130.1 Q 281.4 130.7, 281.9 131.6 Q 282.4 132.5, 282.4 132.5 L 282.4 125.0 L 283.7 125.0 L 283.7 134.7 L 282.4 134.7 L 279.0 129.1 Q 278.6 128.4, 278.1 127.7 Q 277.7 126.9, 277.6 126.7 L 277.6 134.7 L 276.3 134.7 L 276.3 125.0 L 277.9 125.0 " fill="#000000"/>
<path class="atom-0" d="M 285.5 126.8 L 287.2 126.8 L 287.2 125.0 L 288.0 125.0 L 288.0 126.8 L 289.8 126.8 L 289.8 127.4 L 288.0 127.4 L 288.0 129.2 L 287.2 129.2 L 287.2 127.4 L 285.5 127.4 L 285.5 126.8 " fill="#000000"/>
<path class="atom-1" d="M 308.0 108.7 L 311.2 113.9 Q 311.5 114.4, 312.0 115.3 Q 312.5 116.2, 312.5 116.3 L 312.5 108.7 L 313.8 108.7 L 313.8 118.4 L 312.5 118.4 L 309.1 112.8 Q 308.7 112.1, 308.3 111.4 Q 307.8 110.6, 307.7 110.4 L 307.7 118.4 L 306.5 118.4 L 306.5 108.7 L 308.0 108.7 " fill="#000000"/>
<path class="atom-1" d="M 315.6 110.3 L 318.9 110.3 L 318.9 111.1 L 315.6 111.1 L 315.6 110.3 " fill="#000000"/>
<path class="atom-4" d="M 396.4 128.3 L 399.6 133.5 Q 399.9 134.0, 400.4 134.9 Q 400.9 135.8, 401.0 135.9 L 401.0 128.3 L 402.3 128.3 L 402.3 138.0 L 400.9 138.0 L 397.5 132.4 Q 397.1 131.7, 396.7 131.0 Q 396.3 130.2, 396.2 130.0 L 396.2 138.0 L 394.9 138.0 L 394.9 128.3 L 396.4 128.3 " fill="#000000"/>
<path class="atom-4" d="M 394.8 139.0 L 396.1 139.0 L 396.1 143.1 L 401.1 143.1 L 401.1 139.0 L 402.4 139.0 L 402.4 148.7 L 401.1 148.7 L 401.1 144.2 L 396.1 144.2 L 396.1 148.7 L 394.8 148.7 L 394.8 139.0 " fill="#000000"/>
<path class="atom-5" d="M 426.6 112.0 L 429.7 117.2 Q 430.1 117.7, 430.6 118.6 Q 431.1 119.5, 431.1 119.6 L 431.1 112.0 L 432.4 112.0 L 432.4 121.7 L 431.1 121.7 L 427.6 116.1 Q 427.2 115.5, 426.8 114.7 Q 426.4 114.0, 426.3 113.7 L 426.3 121.7 L 425.0 121.7 L 425.0 112.0 L 426.6 112.0 " fill="#000000"/>
<path class="atom-5" d="M 424.9 101.4 L 426.2 101.4 L 426.2 105.5 L 431.2 105.5 L 431.2 101.4 L 432.5 101.4 L 432.5 111.1 L 431.2 111.1 L 431.2 106.6 L 426.2 106.6 L 426.2 111.1 L 424.9 111.1 L 424.9 101.4 " fill="#000000"/>
<path class="atom-5" d="M 434.4 110.7 Q 434.6 110.1, 435.2 109.8 Q 435.7 109.4, 436.5 109.4 Q 437.5 109.4, 438.0 110.0 Q 438.5 110.5, 438.5 111.4 Q 438.5 112.4, 437.8 113.3 Q 437.1 114.1, 435.7 115.2 L 438.7 115.2 L 438.7 115.9 L 434.3 115.9 L 434.3 115.3 Q 435.5 114.5, 436.2 113.8 Q 437.0 113.2, 437.3 112.6 Q 437.6 112.1, 437.6 111.5 Q 437.6 110.9, 437.3 110.5 Q 437.0 110.2, 436.5 110.2 Q 436.0 110.2, 435.6 110.4 Q 435.3 110.6, 435.1 111.0 L 434.4 110.7 " fill="#000000"/>
<path class="atom-5" d="M 434.4 103.1 L 436.1 103.1 L 436.1 101.3 L 436.9 101.3 L 436.9 103.1 L 438.6 103.1 L 438.6 103.8 L 436.9 103.8 L 436.9 105.6 L 436.1 105.6 L 436.1 103.8 L 434.4 103.8 L 434.4 103.1 " fill="#000000"/>
<path class="atom-6" d="M 455.7 130.0 L 458.9 135.1 Q 459.2 135.6, 459.7 136.5 Q 460.2 137.5, 460.3 137.5 L 460.3 130.0 L 461.5 130.0 L 461.5 139.7 L 460.2 139.7 L 456.8 134.1 Q 456.4 133.4, 456.0 132.6 Q 455.6 131.9, 455.4 131.7 L 455.4 139.7 L 454.2 139.7 L 454.2 130.0 L 455.7 130.0 " fill="#000000"/>
<path class="atom-6" d="M 463.4 131.7 L 465.1 131.7 L 465.1 129.9 L 465.8 129.9 L 465.8 131.7 L 467.6 131.7 L 467.6 132.4 L 465.8 132.4 L 465.8 134.2 L 465.1 134.2 L 465.1 132.4 L 463.4 132.4 L 463.4 131.7 " fill="#000000"/>
<path class="atom-7" d="M 487.3 113.7 L 488.6 113.7 L 488.6 123.4 L 487.3 123.4 L 487.3 113.7 " fill="#000000"/>
<path class="atom-2" d="M 340.0,134.6 L 340.0,134.7 L 340.0,134.7 L 340.0,134.8 L 339.9,134.8 L 339.9,134.9 L 339.9,134.9 L 339.9,135.0 L 339.8,135.0 L 339.8,135.1 L 339.7,135.1 L 339.7,135.2 L 339.7,135.2 L 339.6,135.2 L 339.5,135.2 L 339.5,135.3 L 339.4,135.3 L 339.4,135.3 L 339.3,135.3 L 339.3,135.3 L 339.2,135.3 L 339.1,135.3 L 339.1,135.2 L 339.0,135.2 L 339.0,135.2 L 338.9,135.2 L 338.9,135.1 L 338.8,135.1 L 338.8,135.1 L 338.8,135.0 L 338.7,135.0 L 338.7,134.9 L 338.7,134.9 L 338.6,134.8 L 338.6,134.7 L 338.6,134.7 L 338.6,134.6 L 338.6,134.6 L 338.6,134.5 L 338.6,134.4 L 338.6,134.4 L 338.7,134.3 L 338.7,134.3 L 338.7,134.2 L 338.8,134.2 L 338.8,134.1 L 338.8,134.1 L 338.9,134.1 L 338.9,134.0 L 339.0,134.0 L 339.0,134.0 L 339.1,133.9 L 339.1,133.9 L 339.2,133.9 L 339.3,133.9 L 339.3,133.9 L 339.4,133.9 L 339.4,133.9 L 339.5,133.9 L 339.5,134.0 L 339.6,134.0 L 339.7,134.0 L 339.7,134.0 L 339.7,134.1 L 339.8,134.1 L 339.8,134.2 L 339.9,134.2 L 339.9,134.3 L 339.9,134.3 L 339.9,134.4 L 340.0,134.4 L 340.0,134.5 L 340.0,134.5 L 340.0,134.6 L 339.3,134.6 Z" style="fill:#000000;fill-rule:evenodd;fill-opacity:1;stroke:#000000;stroke-width:0.0px;stroke-linecap:butt;stroke-linejoin:miter;stroke-opacity:1;"/>
<path class="atom-3" d="M 370.1,112.1 L 370.1,112.2 L 370.1,112.3 L 370.1,112.3 L 370.1,112.4 L 370.0,112.4 L 370.0,112.5 L 370.0,112.5 L 370.0,112.6 L 369.9,112.6 L 369.9,112.7 L 369.8,112.7 L 369.8,112.7 L 369.7,112.8 L 369.7,112.8 L 369.6,112.8 L 369.6,112.8 L 369.5,112.8 L 369.4,112.8 L 369.4,112.8 L 369.3,112.8 L 369.3,112.8 L 369.2,112.8 L 369.1,112.8 L 369.1,112.7 L 369.0,112.7 L 369.0,112.7 L 369.0,112.6 L 368.9,112.6 L 368.9,112.6 L 368.8,112.5 L 368.8,112.5 L 368.8,112.4 L 368.8,112.3 L 368.8,112.3 L 368.7,112.2 L 368.7,112.2 L 368.7,112.1 L 368.7,112.1 L 368.8,112.0 L 368.8,111.9 L 368.8,111.9 L 368.8,111.8 L 368.8,111.8 L 368.9,111.7 L 368.9,111.7 L 369.0,111.6 L 369.0,111.6 L 369.0,111.6 L 369.1,111.5 L 369.1,111.5 L 369.2,111.5 L 369.3,111.5 L 369.3,111.5 L 369.4,111.5 L 369.4,111.5 L 369.5,111.5 L 369.6,111.5 L 369.6,111.5 L 369.7,111.5 L 369.7,111.5 L 369.8,111.6 L 369.8,111.6 L 369.9,111.6 L 369.9,111.7 L 370.0,111.7 L 370.0,111.8 L 370.0,111.8 L 370.0,111.9 L 370.1,111.9 L 370.1,112.0 L 370.1,112.0 L 370.1,112.1 L 370.1,112.1 L 369.4,112.1 Z" style="fill:#000000;fill-rule:evenodd;fill-opacity:1;stroke:#000000;stroke-width:0.0px;stroke-linecap:butt;stroke-linejoin:miter;stroke-opacity:1;"/>
<path class="atom-6" d="M 470.3,136.2 L 470.3,136.3 L 470.3,136.3 L 470.3,136.4 L 470.3,136.4 L 470.3,136.5 L 470.2,136.5 L 470.2,136.6 L 470.2,136.6 L 470.1,136.7 L 470.1,136.7 L 470.0,136.7 L 470.0,136.8 L 469.9,136.8 L 469.9,136.8 L 469.8,136.9 L 469.8,136.9 L 469.7,136.9 L 469.7,136.9 L 469.6,136.9 L 469.5,136.9 L 469.5,136.9 L 469.4,136.8 L 469.4,136.8 L 469.3,136.8 L 469.3,136.8 L 469.2,136.7 L 469.2,136.7 L 469.1,136.7 L 469.1,136.6 L 469.1,136.6 L 469.0,136.5 L 469.0,136.5 L 469.0,136.4 L 469.0,136.3 L 469.0,136.3 L 469.0,136.2 L 469.0,136.2 L 469.0,136.1 L 469.0,136.0 L 469.0,136.0 L 469.0,135.9 L 469.0,135.9 L 469.1,135.8 L 469.1,135.8 L 469.1,135.7 L 469.2,135.7 L 469.2,135.7 L 469.3,135.6 L 469.3,135.6 L 469.4,135.6 L 469.4,135.5 L 469.5,135.5 L 469.5,135.5 L 469.6,135.5 L 469.7,135.5 L 469.7,135.5 L 469.8,135.5 L 469.8,135.5 L 469.9,135.6 L 469.9,135.6 L 470.0,135.6 L 470.0,135.6 L 470.1,135.7 L 470.1,135.7 L 470.2,135.8 L 470.2,135.8 L 470.2,135.9 L 470.3,135.9 L 470.3,136.0 L 470.3,136.0 L 470.3,136.1 L 470.3,136.1 L 470.3,136.2 L 469.6,136.2 Z" style="fill:#000000;fill-rule:evenodd;fill-opacity:1;stroke:#000000;stroke-width:0.0px;stroke-linecap:butt;stroke-linejoin:miter;stroke-opacity:1;"/>
<path class="atom-6" d="M 470.3,133.5 L 470.3,133.5 L 470.3,133.6 L 470.3,133.6 L 470.3,133.7 L 470.3,133.7 L 470.2,133.8 L 470.2,133.8 L 470.2,133.9 L 470.1,133.9 L 470.1,134.0 L 470.0,134.0 L 470.0,134.0 L 469.9,134.1 L 469.9,134.1 L 469.8,134.1 L 469.8,134.1 L 469.7,134.1 L 469.7,134.1 L 469.6,134.1 L 469.5,134.1 L 469.5,134.1 L 469.4,134.1 L 469.4,134.1 L 469.3,134.1 L 469.3,134.0 L 469.2,134.0 L 469.2,134.0 L 469.1,133.9 L 469.1,133.9 L 469.1,133.8 L 469.0,133.8 L 469.0,133.7 L 469.0,133.7 L 469.0,133.6 L 469.0,133.5 L 469.0,133.5 L 469.0,133.4 L 469.0,133.4 L 469.0,133.3 L 469.0,133.3 L 469.0,133.2 L 469.0,133.1 L 469.1,133.1 L 469.1,133.0 L 469.1,133.0 L 469.2,133.0 L 469.2,132.9 L 469.3,132.9 L 469.3,132.9 L 469.4,132.8 L 469.4,132.8 L 469.5,132.8 L 469.5,132.8 L 469.6,132.8 L 469.7,132.8 L 469.7,132.8 L 469.8,132.8 L 469.8,132.8 L 469.9,132.8 L 469.9,132.8 L 470.0,132.9 L 470.0,132.9 L 470.1,132.9 L 470.1,133.0 L 470.2,133.0 L 470.2,133.1 L 470.2,133.1 L 470.3,133.2 L 470.3,133.2 L 470.3,133.3 L 470.3,133.3 L 470.3,133.4 L 470.3,133.5 L 469.6,133.5 Z" style="fill:#000000;fill-rule:evenodd;fill-opacity:1;stroke:#000000;stroke-width:0.0px;stroke-linecap:butt;stroke-linejoin:miter;stroke-opacity:1;"/>
<path class="bond-0 atom-0 atom-1" d="M 699.3,134.4 L 645.4,103.2" style="fill:none;fill-rule:evenodd;stroke:#000000;stroke-width:2.0px;stroke-linecap:butt;stroke-linejoin:miter;stroke-opacity:1"/>
<path class="bond-1 atom-1 atom-2" d="M 620.5,97.6 L 582.3,119.6" style="fill:none;fill-rule:evenodd;stroke:#000000;stroke-width:2.0px;stroke-linecap:butt;stroke-linejoin:miter;stroke-opacity:1"/>
<path class="bond-1 atom-1 atom-2" d="M 627.0,108.9 L 588.9,130.9" style="fill:none;fill-rule:evenodd;stroke:#000000;stroke-width:2.0px;stroke-linecap:butt;stroke-linejoin:miter;stroke-opacity:1"/>
<path class="atom-0" d="M 703.2 149.1 Q 703.5 149.2, 704.6 149.7 Q 705.8 150.2, 707.0 150.5 Q 708.3 150.8, 709.6 150.8 Q 711.9 150.8, 713.3 149.7 Q 714.6 148.5, 714.6 146.5 Q 714.6 145.2, 713.9 144.3 Q 713.3 143.5, 712.2 143.0 Q 711.2 142.6, 709.4 142.1 Q 707.2 141.4, 705.9 140.8 Q 704.6 140.1, 703.7 138.8 Q 702.8 137.5, 702.8 135.2 Q 702.8 132.1, 704.8 130.2 Q 707.0 128.3, 711.2 128.3 Q 714.0 128.3, 717.3 129.7 L 716.5 132.3 Q 713.5 131.1, 711.3 131.1 Q 708.9 131.1, 707.5 132.1 Q 706.2 133.1, 706.2 134.8 Q 706.2 136.2, 706.9 137.0 Q 707.6 137.8, 708.6 138.2 Q 709.6 138.7, 711.3 139.2 Q 713.5 139.9, 714.8 140.6 Q 716.2 141.3, 717.1 142.7 Q 718.1 144.1, 718.1 146.5 Q 718.1 149.9, 715.8 151.8 Q 713.5 153.6, 709.7 153.6 Q 707.5 153.6, 705.8 153.1 Q 704.2 152.7, 702.2 151.9 L 703.2 149.1 " fill="#000000"/>
<path class="atom-0" d="M 721.3 132.4 L 725.7 132.4 L 725.7 127.8 L 727.6 127.8 L 727.6 132.4 L 732.1 132.4 L 732.1 134.0 L 727.6 134.0 L 727.6 138.7 L 725.7 138.7 L 725.7 134.0 L 721.3 134.0 L 721.3 132.4 " fill="#000000"/>
<path class="atom-1" d="M 627.6 105.5 Q 627.9 105.6, 629.0 106.1 Q 630.2 106.5, 631.4 106.9 Q 632.7 107.1, 634.0 107.1 Q 636.3 107.1, 637.7 106.0 Q 639.0 104.9, 639.0 102.9 Q 639.0 101.5, 638.3 100.7 Q 637.7 99.8, 636.6 99.4 Q 635.6 98.9, 633.8 98.4 Q 631.6 97.7, 630.3 97.1 Q 629.0 96.5, 628.1 95.2 Q 627.2 93.8, 627.2 91.6 Q 627.2 88.5, 629.3 86.6 Q 631.4 84.7, 635.6 84.7 Q 638.4 84.7, 641.7 86.0 L 640.9 88.7 Q 637.9 87.5, 635.7 87.5 Q 633.3 87.5, 631.9 88.5 Q 630.6 89.5, 630.7 91.2 Q 630.7 92.5, 631.3 93.3 Q 632.0 94.1, 633.0 94.6 Q 634.0 95.0, 635.7 95.6 Q 637.9 96.2, 639.2 96.9 Q 640.6 97.6, 641.5 99.1 Q 642.5 100.5, 642.5 102.9 Q 642.5 106.3, 640.2 108.2 Q 637.9 110.0, 634.1 110.0 Q 631.9 110.0, 630.2 109.5 Q 628.6 109.0, 626.6 108.2 L 627.6 105.5 " fill="#000000"/>
<path class="atom-2" d="M 511.4 128.3 L 514.7 128.3 L 514.7 138.8 L 527.4 138.8 L 527.4 128.3 L 530.7 128.3 L 530.7 153.0 L 527.4 153.0 L 527.4 141.6 L 514.7 141.6 L 514.7 153.0 L 511.4 153.0 L 511.4 128.3 " fill="#000000"/>
<path class="atom-2" d="M 535.5 152.1 Q 536.1 150.6, 537.5 149.7 Q 539.0 148.8, 540.9 148.8 Q 543.4 148.8, 544.8 150.2 Q 546.2 151.5, 546.2 153.9 Q 546.2 156.3, 544.4 158.6 Q 542.6 160.8, 538.9 163.5 L 546.4 163.5 L 546.4 165.3 L 535.4 165.3 L 535.4 163.8 Q 538.5 161.6, 540.3 160.0 Q 542.1 158.4, 543.0 157.0 Q 543.9 155.5, 543.9 154.0 Q 543.9 152.4, 543.1 151.6 Q 542.3 150.7, 540.9 150.7 Q 539.6 150.7, 538.7 151.2 Q 537.9 151.7, 537.2 152.9 L 535.5 152.1 " fill="#000000"/>
<path class="atom-2" d="M 553.5 128.3 L 561.6 141.4 Q 562.4 142.6, 563.7 145.0 Q 565.0 147.3, 565.1 147.5 L 565.1 128.3 L 568.3 128.3 L 568.3 153.0 L 565.0 153.0 L 556.3 138.7 Q 555.3 137.0, 554.2 135.1 Q 553.1 133.2, 552.8 132.6 L 552.8 153.0 L 549.6 153.0 L 549.6 128.3 L 553.5 128.3 " fill="#000000"/>
<path class="atom-2" d="M 573.0 132.7 L 577.4 132.7 L 577.4 128.1 L 579.3 128.1 L 579.3 132.7 L 583.8 132.7 L 583.8 134.4 L 579.3 134.4 L 579.3 139.0 L 577.4 139.0 L 577.4 134.4 L 573.0 134.4 L 573.0 132.7 " fill="#000000"/>
<path class="atom-0" d="M 739.1,144.1 L 739.1,144.3 L 739.0,144.4 L 739.0,144.6 L 739.0,144.7 L 738.9,144.8 L 738.8,145.0 L 738.8,145.1 L 738.7,145.2 L 738.6,145.3 L 738.5,145.4 L 738.3,145.5 L 738.2,145.6 L 738.1,145.7 L 738.0,145.7 L 737.8,145.8 L 737.7,145.8 L 737.5,145.9 L 737.4,145.9 L 737.2,145.9 L 737.1,145.8 L 736.9,145.8 L 736.8,145.8 L 736.6,145.7 L 736.5,145.7 L 736.4,145.6 L 736.2,145.5 L 736.1,145.4 L 736.0,145.3 L 735.9,145.2 L 735.8,145.0 L 735.8,144.9 L 735.7,144.8 L 735.7,144.6 L 735.6,144.5 L 735.6,144.3 L 735.6,144.2 L 735.6,144.0 L 735.6,143.9 L 735.6,143.7 L 735.7,143.6 L 735.7,143.5 L 735.8,143.3 L 735.8,143.2 L 735.9,143.1 L 736.0,142.9 L 736.1,142.8 L 736.2,142.7 L 736.4,142.7 L 736.5,142.6 L 736.6,142.5 L 736.8,142.5 L 736.9,142.4 L 737.1,142.4 L 737.2,142.4 L 737.4,142.4 L 737.5,142.4 L 737.7,142.4 L 737.8,142.4 L 738.0,142.5 L 738.1,142.5 L 738.2,142.6 L 738.3,142.7 L 738.5,142.8 L 738.6,142.9 L 738.7,143.0 L 738.8,143.1 L 738.8,143.3 L 738.9,143.4 L 739.0,143.5 L 739.0,143.7 L 739.0,143.8 L 739.1,144.0 L 739.1,144.1 L 737.3,144.1 Z" style="fill:#000000;fill-rule:evenodd;fill-opacity:1;stroke:#000000;stroke-width:0.0px;stroke-linecap:butt;stroke-linejoin:miter;stroke-opacity:1;"/>
<path class="atom-0" d="M 739.1,137.1 L 739.1,137.3 L 739.0,137.4 L 739.0,137.6 L 739.0,137.7 L 738.9,137.9 L 738.8,138.0 L 738.8,138.1 L 738.7,138.2 L 738.6,138.4 L 738.5,138.5 L 738.3,138.5 L 738.2,138.6 L 738.1,138.7 L 738.0,138.8 L 737.8,138.8 L 737.7,138.8 L 737.5,138.9 L 737.4,138.9 L 737.2,138.9 L 737.1,138.9 L 736.9,138.8 L 736.8,138.8 L 736.6,138.7 L 736.5,138.7 L 736.4,138.6 L 736.2,138.5 L 736.1,138.4 L 736.0,138.3 L 735.9,138.2 L 735.8,138.1 L 735.8,137.9 L 735.7,137.8 L 735.7,137.7 L 735.6,137.5 L 735.6,137.4 L 735.6,137.2 L 735.6,137.1 L 735.6,136.9 L 735.6,136.8 L 735.7,136.6 L 735.7,136.5 L 735.8,136.3 L 735.8,136.2 L 735.9,136.1 L 736.0,136.0 L 736.1,135.9 L 736.2,135.8 L 736.4,135.7 L 736.5,135.6 L 736.6,135.5 L 736.8,135.5 L 736.9,135.4 L 737.1,135.4 L 737.2,135.4 L 737.4,135.4 L 737.5,135.4 L 737.7,135.4 L 737.8,135.5 L 738.0,135.5 L 738.1,135.6 L 738.2,135.6 L 738.3,135.7 L 738.5,135.8 L 738.6,135.9 L 738.7,136.0 L 738.8,136.1 L 738.8,136.3 L 738.9,136.4 L 739.0,136.5 L 739.0,136.7 L 739.0,136.8 L 739.1,137.0 L 739.1,137.1 L 737.3,137.1 Z" style="fill:#000000;fill-rule:evenodd;fill-opacity:1;stroke:#000000;stroke-width:0.0px;stroke-linecap:butt;stroke-linejoin:miter;stroke-opacity:1;"/>
<path class="atom-1" d="M 649.5,97.0 L 649.5,97.1 L 649.4,97.3 L 649.4,97.4 L 649.4,97.6 L 649.3,97.7 L 649.2,97.8 L 649.2,98.0 L 649.1,98.1 L 649.0,98.2 L 648.9,98.3 L 648.7,98.4 L 648.6,98.5 L 648.5,98.6 L 648.4,98.6 L 648.2,98.7 L 648.1,98.7 L 647.9,98.7 L 647.8,98.7 L 647.6,98.7 L 647.5,98.7 L 647.3,98.7 L 647.2,98.6 L 647.0,98.6 L 646.9,98.5 L 646.8,98.4 L 646.6,98.4 L 646.5,98.3 L 646.4,98.1 L 646.3,98.0 L 646.2,97.9 L 646.2,97.8 L 646.1,97.6 L 646.1,97.5 L 646.0,97.4 L 646.0,97.2 L 646.0,97.1 L 646.0,96.9 L 646.0,96.8 L 646.0,96.6 L 646.1,96.5 L 646.1,96.3 L 646.2,96.2 L 646.2,96.1 L 646.3,95.9 L 646.4,95.8 L 646.5,95.7 L 646.6,95.6 L 646.8,95.5 L 646.9,95.4 L 647.0,95.4 L 647.2,95.3 L 647.3,95.3 L 647.5,95.3 L 647.6,95.2 L 647.8,95.2 L 647.9,95.2 L 648.1,95.3 L 648.2,95.3 L 648.4,95.4 L 648.5,95.4 L 648.6,95.5 L 648.7,95.6 L 648.9,95.7 L 649.0,95.8 L 649.1,95.9 L 649.2,96.0 L 649.2,96.1 L 649.3,96.3 L 649.4,96.4 L 649.4,96.5 L 649.4,96.7 L 649.5,96.8 L 649.5,97.0 L 647.7,97.0 Z" style="fill:#000000;fill-rule:evenodd;fill-opacity:1;stroke:#000000;stroke-width:0.0px;stroke-linecap:butt;stroke-linejoin:miter;stroke-opacity:1;"/>
<path class="bond-0 atom-0 atom-1" d="M 203.5,382.2 L 222.9,371.5" style="fill:none;fill-rule:evenodd;stroke:#000000;stroke-width:2.0px;stroke-linecap:butt;stroke-linejoin:miter;stroke-opacity:1"/>
<path class="bond-1 atom-0 atom-2" d="M 203.5,382.2 L 184.7,370.9" style="fill:none;fill-rule:evenodd;stroke:#000000;stroke-width:2.0px;stroke-linecap:butt;stroke-linejoin:miter;stroke-opacity:1"/>
<path class="bond-2 atom-2 atom-3" d="M 177.3,370.7 L 161.6,379.4" style="fill:none;fill-rule:evenodd;stroke:#000000;stroke-width:2.0px;stroke-linecap:butt;stroke-linejoin:miter;stroke-opacity:1"/>
<path class="bond-3 atom-3 atom-4" d="M 154.2,379.2 L 138.6,369.8" style="fill:none;fill-rule:evenodd;stroke:#000000;stroke-width:2.0px;stroke-linecap:butt;stroke-linejoin:miter;stroke-opacity:1"/>
<path class="bond-4 atom-4 atom-5" d="M 132.1,369.6 L 116.0,378.5" style="fill:none;fill-rule:evenodd;stroke:#000000;stroke-width:2.0px;stroke-linecap:butt;stroke-linejoin:miter;stroke-opacity:1"/>
<path class="bond-4 atom-4 atom-5" d="M 132.3,374.1 L 117.9,382.0" style="fill:none;fill-rule:evenodd;stroke:#000000;stroke-width:2.0px;stroke-linecap:butt;stroke-linejoin:miter;stroke-opacity:1"/>
<path class="bond-5 atom-5 atom-6" d="M 108.6,378.4 L 93.0,369.0" style="fill:none;fill-rule:evenodd;stroke:#000000;stroke-width:2.0px;stroke-linecap:butt;stroke-linejoin:miter;stroke-opacity:1"/>
<path class="bond-6 atom-6 atom-7" d="M 86.5,368.8 L 66.7,379.8" style="fill:none;fill-rule:evenodd;stroke:#000000;stroke-width:2.0px;stroke-linecap:butt;stroke-linejoin:miter;stroke-opacity:1"/>
<path class="bond-7 atom-7 atom-8" d="M 66.7,379.8 L 44.2,366.2" style="fill:none;fill-rule:evenodd;stroke:#000000;stroke-width:2.0px;stroke-linecap:butt;stroke-linejoin:miter;stroke-opacity:1"/>
<path class="bond-8 atom-8 atom-9" d="M 44.2,366.2 L 29.6,374.3" style="fill:none;fill-rule:evenodd;stroke:#000000;stroke-width:2.0px;stroke-linecap:butt;stroke-linejoin:miter;stroke-opacity:1"/>
<path class="bond-8 atom-8 atom-9" d="M 44.1,370.8 L 31.5,377.7" style="fill:none;fill-rule:evenodd;stroke:#000000;stroke-width:2.0px;stroke-linecap:butt;stroke-linejoin:miter;stroke-opacity:1"/>
<path d="M 204.5,381.7 L 203.5,382.2 L 202.6,381.6" style="fill:none;stroke:#000000;stroke-width:2.0px;stroke-linecap:butt;stroke-linejoin:miter;stroke-opacity:1;"/>
<path d="M 67.7,379.2 L 66.7,379.8 L 65.6,379.1" style="fill:none;stroke:#000000;stroke-width:2.0px;stroke-linecap:butt;stroke-linejoin:miter;stroke-opacity:1;"/>
<path d="M 45.3,366.9 L 44.2,366.2 L 43.4,366.6" style="fill:none;stroke:#000000;stroke-width:2.0px;stroke-linecap:butt;stroke-linejoin:miter;stroke-opacity:1;"/>
<path class="atom-1" d="M 224.9 365.7 L 227.3 369.7 Q 227.6 370.1, 228.0 370.8 Q 228.4 371.5, 228.4 371.5 L 228.4 365.7 L 229.4 365.7 L 229.4 373.2 L 228.4 373.2 L 225.7 368.9 Q 225.4 368.4, 225.1 367.8 Q 224.8 367.2, 224.7 367.0 L 224.7 373.2 L 223.7 373.2 L 223.7 365.7 L 224.9 365.7 " fill="#000000"/>
<path class="atom-1" d="M 230.8 365.7 L 231.8 365.7 L 231.8 368.9 L 235.7 368.9 L 235.7 365.7 L 236.7 365.7 L 236.7 373.2 L 235.7 373.2 L 235.7 369.7 L 231.8 369.7 L 231.8 373.2 L 230.8 373.2 L 230.8 365.7 " fill="#000000"/>
<path class="atom-2" d="M 179.3 364.9 L 181.8 368.9 Q 182.0 369.3, 182.4 370.0 Q 182.8 370.7, 182.8 370.7 L 182.8 364.9 L 183.8 364.9 L 183.8 372.4 L 182.8 372.4 L 180.1 368.1 Q 179.8 367.5, 179.5 367.0 Q 179.2 366.4, 179.1 366.2 L 179.1 372.4 L 178.1 372.4 L 178.1 364.9 L 179.3 364.9 " fill="#000000"/>
<path class="atom-2" d="M 178.0 356.7 L 179.1 356.7 L 179.1 359.9 L 182.9 359.9 L 182.9 356.7 L 183.9 356.7 L 183.9 364.2 L 182.9 364.2 L 182.9 360.7 L 179.1 360.7 L 179.1 364.2 L 178.0 364.2 L 178.0 356.7 " fill="#000000"/>
<path class="atom-2" d="M 185.3 363.9 Q 185.5 363.4, 185.9 363.2 Q 186.4 362.9, 186.9 362.9 Q 187.7 362.9, 188.1 363.3 Q 188.5 363.7, 188.5 364.4 Q 188.5 365.2, 188.0 365.9 Q 187.5 366.5, 186.3 367.3 L 188.6 367.3 L 188.6 367.9 L 185.3 367.9 L 185.3 367.4 Q 186.2 366.8, 186.8 366.3 Q 187.3 365.8, 187.6 365.4 Q 187.8 364.9, 187.8 364.5 Q 187.8 364.0, 187.6 363.7 Q 187.4 363.5, 186.9 363.5 Q 186.6 363.5, 186.3 363.6 Q 186.0 363.8, 185.8 364.1 L 185.3 363.9 " fill="#000000"/>
<path class="atom-2" d="M 185.3 358.1 L 186.6 358.1 L 186.6 356.7 L 187.2 356.7 L 187.2 358.1 L 188.6 358.1 L 188.6 358.6 L 187.2 358.6 L 187.2 359.9 L 186.6 359.9 L 186.6 358.6 L 185.3 358.6 L 185.3 358.1 " fill="#000000"/>
<path class="atom-3" d="M 156.3 377.7 L 158.7 381.6 Q 159.0 382.0, 159.4 382.7 Q 159.7 383.4, 159.8 383.5 L 159.8 377.7 L 160.8 377.7 L 160.8 385.1 L 159.7 385.1 L 157.1 380.8 Q 156.8 380.3, 156.5 379.7 Q 156.2 379.1, 156.1 379.0 L 156.1 385.1 L 155.1 385.1 L 155.1 377.7 L 156.3 377.7 " fill="#000000"/>
<path class="atom-3" d="M 155.0 385.9 L 156.0 385.9 L 156.0 389.0 L 159.8 389.0 L 159.8 385.9 L 160.8 385.9 L 160.8 393.3 L 159.8 393.3 L 159.8 389.9 L 156.0 389.9 L 156.0 393.3 L 155.0 393.3 L 155.0 385.9 " fill="#000000"/>
<path class="atom-4" d="M 135.2 364.1 Q 136.5 364.1, 137.1 364.7 Q 137.7 365.3, 137.7 366.3 Q 137.7 367.3, 137.1 367.9 Q 136.4 368.5, 135.2 368.5 L 134.0 368.5 L 134.0 371.6 L 133.0 371.6 L 133.0 364.1 L 135.2 364.1 M 135.2 367.7 Q 135.9 367.7, 136.3 367.3 Q 136.7 367.0, 136.7 366.3 Q 136.7 365.6, 136.3 365.3 Q 135.9 364.9, 135.2 364.9 L 134.0 364.9 L 134.0 367.7 L 135.2 367.7 " fill="#000000"/>
<path class="atom-5" d="M 110.7 376.9 L 113.1 380.8 Q 113.4 381.2, 113.8 381.9 Q 114.2 382.6, 114.2 382.7 L 114.2 376.9 L 115.2 376.9 L 115.2 384.3 L 114.1 384.3 L 111.5 380.0 Q 111.2 379.5, 110.9 378.9 Q 110.6 378.3, 110.5 378.2 L 110.5 384.3 L 109.5 384.3 L 109.5 376.9 L 110.7 376.9 " fill="#000000"/>
<path class="atom-6" d="M 87.7 369.6 Q 87.7 369.6, 88.1 369.8 Q 88.4 369.9, 88.8 370.0 Q 89.2 370.1, 89.6 370.1 Q 90.3 370.1, 90.7 369.8 Q 91.1 369.4, 91.1 368.8 Q 91.1 368.4, 90.9 368.1 Q 90.7 367.9, 90.4 367.8 Q 90.1 367.6, 89.5 367.5 Q 88.9 367.3, 88.5 367.1 Q 88.1 366.9, 87.8 366.5 Q 87.5 366.1, 87.5 365.4 Q 87.5 364.5, 88.2 363.9 Q 88.8 363.3, 90.1 363.3 Q 90.9 363.3, 91.9 363.7 L 91.7 364.5 Q 90.8 364.2, 90.1 364.2 Q 89.4 364.2, 89.0 364.5 Q 88.6 364.8, 88.6 365.3 Q 88.6 365.7, 88.8 365.9 Q 89.0 366.2, 89.3 366.3 Q 89.6 366.4, 90.1 366.6 Q 90.8 366.8, 91.2 367.0 Q 91.6 367.2, 91.9 367.7 Q 92.2 368.1, 92.2 368.8 Q 92.2 369.8, 91.5 370.4 Q 90.8 370.9, 89.6 370.9 Q 89.0 370.9, 88.5 370.8 Q 88.0 370.7, 87.4 370.4 L 87.7 369.6 " fill="#000000"/>
<path class="atom-9" d="M 11.4 377.0 L 12.4 377.0 L 12.4 380.2 L 16.2 380.2 L 16.2 377.0 L 17.2 377.0 L 17.2 384.5 L 16.2 384.5 L 16.2 381.0 L 12.4 381.0 L 12.4 384.5 L 11.4 384.5 L 11.4 377.0 " fill="#000000"/>
<path class="atom-9" d="M 18.7 380.7 Q 18.7 378.9, 19.6 377.9 Q 20.4 376.9, 22.1 376.9 Q 23.8 376.9, 24.6 377.9 Q 25.5 378.9, 25.5 380.7 Q 25.5 382.5, 24.6 383.6 Q 23.7 384.6, 22.1 384.6 Q 20.5 384.6, 19.6 383.6 Q 18.7 382.6, 18.7 380.7 M 22.1 383.8 Q 23.2 383.8, 23.9 383.0 Q 24.5 382.2, 24.5 380.7 Q 24.5 379.3, 23.9 378.5 Q 23.2 377.8, 22.1 377.8 Q 21.0 377.8, 20.3 378.5 Q 19.7 379.3, 19.7 380.7 Q 19.7 382.2, 20.3 383.0 Q 21.0 383.8, 22.1 383.8 " fill="#000000"/>
<path class="atom-9" d="M 26.6 378.3 L 28.0 378.3 L 28.0 376.9 L 28.5 376.9 L 28.5 378.3 L 29.9 378.3 L 29.9 378.8 L 28.5 378.8 L 28.5 380.2 L 28.0 380.2 L 28.0 378.8 L 26.6 378.8 L 26.6 378.3 " fill="#000000"/>
<path class="atom-0" d="M 205.1,384.6 L 205.1,384.6 L 205.1,384.7 L 205.1,384.7 L 205.1,384.8 L 205.1,384.8 L 205.0,384.8 L 205.0,384.9 L 205.0,384.9 L 205.0,384.9 L 204.9,385.0 L 204.9,385.0 L 204.8,385.0 L 204.8,385.0 L 204.8,385.1 L 204.7,385.1 L 204.7,385.1 L 204.6,385.1 L 204.6,385.1 L 204.5,385.1 L 204.5,385.1 L 204.5,385.1 L 204.4,385.1 L 204.4,385.1 L 204.3,385.0 L 204.3,385.0 L 204.2,385.0 L 204.2,385.0 L 204.2,384.9 L 204.2,384.9 L 204.1,384.9 L 204.1,384.8 L 204.1,384.8 L 204.1,384.7 L 204.1,384.7 L 204.1,384.6 L 204.0,384.6 L 204.0,384.6 L 204.1,384.5 L 204.1,384.5 L 204.1,384.4 L 204.1,384.4 L 204.1,384.3 L 204.1,384.3 L 204.2,384.3 L 204.2,384.2 L 204.2,384.2 L 204.2,384.2 L 204.3,384.1 L 204.3,384.1 L 204.4,384.1 L 204.4,384.1 L 204.5,384.1 L 204.5,384.1 L 204.5,384.0 L 204.6,384.0 L 204.6,384.1 L 204.7,384.1 L 204.7,384.1 L 204.8,384.1 L 204.8,384.1 L 204.8,384.1 L 204.9,384.1 L 204.9,384.2 L 205.0,384.2 L 205.0,384.2 L 205.0,384.3 L 205.0,384.3 L 205.1,384.4 L 205.1,384.4 L 205.1,384.4 L 205.1,384.5 L 205.1,384.5 L 205.1,384.6 L 204.6,384.6 Z" style="fill:#000000;fill-rule:evenodd;fill-opacity:1;stroke:#000000;stroke-width:0.0px;stroke-linecap:butt;stroke-linejoin:miter;stroke-opacity:1;"/>
<path class="atom-0" d="M 203.0,384.6 L 203.0,384.6 L 203.0,384.7 L 203.0,384.7 L 203.0,384.8 L 202.9,384.8 L 202.9,384.8 L 202.9,384.9 L 202.9,384.9 L 202.8,384.9 L 202.8,385.0 L 202.8,385.0 L 202.7,385.0 L 202.7,385.0 L 202.7,385.1 L 202.6,385.1 L 202.6,385.1 L 202.5,385.1 L 202.5,385.1 L 202.4,385.1 L 202.4,385.1 L 202.3,385.1 L 202.3,385.1 L 202.3,385.1 L 202.2,385.0 L 202.2,385.0 L 202.1,385.0 L 202.1,385.0 L 202.1,384.9 L 202.0,384.9 L 202.0,384.9 L 202.0,384.8 L 202.0,384.8 L 202.0,384.7 L 202.0,384.7 L 201.9,384.6 L 201.9,384.6 L 201.9,384.6 L 201.9,384.5 L 202.0,384.5 L 202.0,384.4 L 202.0,384.4 L 202.0,384.3 L 202.0,384.3 L 202.0,384.3 L 202.1,384.2 L 202.1,384.2 L 202.1,384.2 L 202.2,384.1 L 202.2,384.1 L 202.3,384.1 L 202.3,384.1 L 202.3,384.1 L 202.4,384.1 L 202.4,384.0 L 202.5,384.0 L 202.5,384.1 L 202.6,384.1 L 202.6,384.1 L 202.7,384.1 L 202.7,384.1 L 202.7,384.1 L 202.8,384.1 L 202.8,384.2 L 202.8,384.2 L 202.9,384.2 L 202.9,384.3 L 202.9,384.3 L 202.9,384.4 L 203.0,384.4 L 203.0,384.4 L 203.0,384.5 L 203.0,384.5 L 203.0,384.6 L 202.5,384.6 Z" style="fill:#000000;fill-rule:evenodd;fill-opacity:1;stroke:#000000;stroke-width:0.0px;stroke-linecap:butt;stroke-linejoin:miter;stroke-opacity:1;"/>
<path class="atom-1" d="M 238.8,369.4 L 238.8,369.5 L 238.8,369.5 L 238.8,369.6 L 238.7,369.6 L 238.7,369.7 L 238.7,369.7 L 238.7,369.7 L 238.6,369.8 L 238.6,369.8 L 238.6,369.8 L 238.5,369.9 L 238.5,369.9 L 238.5,369.9 L 238.4,369.9 L 238.4,370.0 L 238.3,370.0 L 238.3,370.0 L 238.3,370.0 L 238.2,370.0 L 238.2,370.0 L 238.1,370.0 L 238.1,369.9 L 238.0,369.9 L 238.0,369.9 L 238.0,369.9 L 237.9,369.9 L 237.9,369.8 L 237.8,369.8 L 237.8,369.8 L 237.8,369.7 L 237.8,369.7 L 237.8,369.6 L 237.7,369.6 L 237.7,369.6 L 237.7,369.5 L 237.7,369.5 L 237.7,369.4 L 237.7,369.4 L 237.7,369.3 L 237.7,369.3 L 237.8,369.2 L 237.8,369.2 L 237.8,369.2 L 237.8,369.1 L 237.8,369.1 L 237.9,369.1 L 237.9,369.0 L 238.0,369.0 L 238.0,369.0 L 238.0,369.0 L 238.1,368.9 L 238.1,368.9 L 238.2,368.9 L 238.2,368.9 L 238.3,368.9 L 238.3,368.9 L 238.3,368.9 L 238.4,368.9 L 238.4,369.0 L 238.5,369.0 L 238.5,369.0 L 238.5,369.0 L 238.6,369.0 L 238.6,369.1 L 238.6,369.1 L 238.7,369.1 L 238.7,369.2 L 238.7,369.2 L 238.7,369.3 L 238.8,369.3 L 238.8,369.4 L 238.8,369.4 L 238.8,369.4 L 238.2,369.4 Z" style="fill:#000000;fill-rule:evenodd;fill-opacity:1;stroke:#000000;stroke-width:0.0px;stroke-linecap:butt;stroke-linejoin:miter;stroke-opacity:1;"/>
<path class="atom-7" d="M 67.3,382.2 L 67.3,382.2 L 67.3,382.2 L 67.2,382.3 L 67.2,382.3 L 67.2,382.4 L 67.2,382.4 L 67.2,382.5 L 67.1,382.5 L 67.1,382.5 L 67.1,382.6 L 67.0,382.6 L 67.0,382.6 L 67.0,382.6 L 66.9,382.6 L 66.9,382.7 L 66.8,382.7 L 66.8,382.7 L 66.8,382.7 L 66.7,382.7 L 66.7,382.7 L 66.6,382.7 L 66.6,382.7 L 66.5,382.6 L 66.5,382.6 L 66.5,382.6 L 66.4,382.6 L 66.4,382.5 L 66.3,382.5 L 66.3,382.5 L 66.3,382.4 L 66.3,382.4 L 66.3,382.4 L 66.2,382.3 L 66.2,382.3 L 66.2,382.2 L 66.2,382.2 L 66.2,382.1 L 66.2,382.1 L 66.2,382.0 L 66.2,382.0 L 66.3,382.0 L 66.3,381.9 L 66.3,381.9 L 66.3,381.8 L 66.3,381.8 L 66.4,381.8 L 66.4,381.7 L 66.5,381.7 L 66.5,381.7 L 66.5,381.7 L 66.6,381.7 L 66.6,381.6 L 66.7,381.6 L 66.7,381.6 L 66.8,381.6 L 66.8,381.6 L 66.8,381.6 L 66.9,381.7 L 66.9,381.7 L 67.0,381.7 L 67.0,381.7 L 67.0,381.7 L 67.1,381.8 L 67.1,381.8 L 67.1,381.8 L 67.2,381.9 L 67.2,381.9 L 67.2,381.9 L 67.2,382.0 L 67.2,382.0 L 67.3,382.1 L 67.3,382.1 L 67.3,382.2 L 66.7,382.2 Z" style="fill:#000000;fill-rule:evenodd;fill-opacity:1;stroke:#000000;stroke-width:0.0px;stroke-linecap:butt;stroke-linejoin:miter;stroke-opacity:1;"/>
<path class="atom-8" d="M 44.7,363.9 L 44.7,363.9 L 44.7,363.9 L 44.7,364.0 L 44.7,364.0 L 44.7,364.1 L 44.6,364.1 L 44.6,364.2 L 44.6,364.2 L 44.6,364.2 L 44.5,364.3 L 44.5,364.3 L 44.4,364.3 L 44.4,364.3 L 44.4,364.3 L 44.3,364.4 L 44.3,364.4 L 44.2,364.4 L 44.2,364.4 L 44.1,364.4 L 44.1,364.4 L 44.1,364.4 L 44.0,364.4 L 44.0,364.3 L 43.9,364.3 L 43.9,364.3 L 43.8,364.3 L 43.8,364.2 L 43.8,364.2 L 43.8,364.2 L 43.7,364.1 L 43.7,364.1 L 43.7,364.1 L 43.7,364.0 L 43.7,364.0 L 43.7,363.9 L 43.6,363.9 L 43.6,363.8 L 43.7,363.8 L 43.7,363.7 L 43.7,363.7 L 43.7,363.7 L 43.7,363.6 L 43.7,363.6 L 43.8,363.5 L 43.8,363.5 L 43.8,363.5 L 43.8,363.4 L 43.9,363.4 L 43.9,363.4 L 44.0,363.4 L 44.0,363.4 L 44.1,363.3 L 44.1,363.3 L 44.1,363.3 L 44.2,363.3 L 44.2,363.3 L 44.3,363.3 L 44.3,363.3 L 44.4,363.4 L 44.4,363.4 L 44.4,363.4 L 44.5,363.4 L 44.5,363.5 L 44.6,363.5 L 44.6,363.5 L 44.6,363.6 L 44.6,363.6 L 44.7,363.6 L 44.7,363.7 L 44.7,363.7 L 44.7,363.8 L 44.7,363.8 L 44.7,363.9 L 44.2,363.9 Z" style="fill:#000000;fill-rule:evenodd;fill-opacity:1;stroke:#000000;stroke-width:0.0px;stroke-linecap:butt;stroke-linejoin:miter;stroke-opacity:1;"/>
<path class="bond-0 atom-1 atom-0" d="M 319.7,362.5 L 320.0,362.0" style="fill:none;fill-rule:evenodd;stroke:#000000;stroke-width:1.0px;stroke-linecap:butt;stroke-linejoin:miter;stroke-opacity:1"/>
<path class="bond-0 atom-1 atom-0" d="M 316.8,360.6 L 317.5,359.6" style="fill:none;fill-rule:evenodd;stroke:#000000;stroke-width:1.0px;stroke-linecap:butt;stroke-linejoin:miter;stroke-opacity:1"/>
<path class="bond-0 atom-1 atom-0" d="M 313.9,358.7 L 315.0,357.3" style="fill:none;fill-rule:evenodd;stroke:#000000;stroke-width:1.0px;stroke-linecap:butt;stroke-linejoin:miter;stroke-opacity:1"/>
<path class="bond-0 atom-1 atom-0" d="M 311.0,356.9 L 312.5,354.9" style="fill:none;fill-rule:evenodd;stroke:#000000;stroke-width:1.0px;stroke-linecap:butt;stroke-linejoin:miter;stroke-opacity:1"/>
<path class="bond-0 atom-1 atom-0" d="M 308.1,355.0 L 310.0,352.6" style="fill:none;fill-rule:evenodd;stroke:#000000;stroke-width:1.0px;stroke-linecap:butt;stroke-linejoin:miter;stroke-opacity:1"/>
<path class="bond-0 atom-1 atom-0" d="M 305.2,353.1 L 307.5,350.2" style="fill:none;fill-rule:evenodd;stroke:#000000;stroke-width:1.0px;stroke-linecap:butt;stroke-linejoin:miter;stroke-opacity:1"/>
<path class="bond-0 atom-1 atom-0" d="M 302.3,351.2 L 305.0,347.9" style="fill:none;fill-rule:evenodd;stroke:#000000;stroke-width:1.0px;stroke-linecap:butt;stroke-linejoin:miter;stroke-opacity:1"/>
<path class="bond-0 atom-1 atom-0" d="M 299.5,349.3 L 302.5,345.5" style="fill:none;fill-rule:evenodd;stroke:#000000;stroke-width:1.0px;stroke-linecap:butt;stroke-linejoin:miter;stroke-opacity:1"/>
<path class="bond-0 atom-1 atom-0" d="M 296.6,347.5 L 300.0,343.1" style="fill:none;fill-rule:evenodd;stroke:#000000;stroke-width:1.0px;stroke-linecap:butt;stroke-linejoin:miter;stroke-opacity:1"/>
<path class="bond-0 atom-1 atom-0" d="M 293.7,345.6 L 297.5,340.8" style="fill:none;fill-rule:evenodd;stroke:#000000;stroke-width:1.0px;stroke-linecap:butt;stroke-linejoin:miter;stroke-opacity:1"/>
<path class="bond-0 atom-1 atom-0" d="M 290.8,343.7 L 295.0,338.4" style="fill:none;fill-rule:evenodd;stroke:#000000;stroke-width:1.0px;stroke-linecap:butt;stroke-linejoin:miter;stroke-opacity:1"/>
<path class="bond-0 atom-1 atom-0" d="M 287.9,341.8 L 292.4,336.1" style="fill:none;fill-rule:evenodd;stroke:#000000;stroke-width:1.0px;stroke-linecap:butt;stroke-linejoin:miter;stroke-opacity:1"/>
<path class="bond-0 atom-1 atom-0" d="M 285.0,340.0 L 289.9,333.7" style="fill:none;fill-rule:evenodd;stroke:#000000;stroke-width:1.0px;stroke-linecap:butt;stroke-linejoin:miter;stroke-opacity:1"/>
<path class="bond-0 atom-1 atom-0" d="M 282.1,338.1 L 287.4,331.3" style="fill:none;fill-rule:evenodd;stroke:#000000;stroke-width:1.0px;stroke-linecap:butt;stroke-linejoin:miter;stroke-opacity:1"/>
<path class="bond-1 atom-1 atom-2" d="M 322.5,364.4 L 315.9,410.9" style="fill:none;fill-rule:evenodd;stroke:#000000;stroke-width:2.0px;stroke-linecap:butt;stroke-linejoin:miter;stroke-opacity:1"/>
<path class="bond-2 atom-1 atom-3" d="M 322.5,364.4 L 366.2,346.8" style="fill:none;fill-rule:evenodd;stroke:#000000;stroke-width:2.0px;stroke-linecap:butt;stroke-linejoin:miter;stroke-opacity:1"/>
<path class="bond-3 atom-3 atom-4" d="M 384.8,350.4 L 413.4,372.8" style="fill:none;fill-rule:evenodd;stroke:#000000;stroke-width:2.0px;stroke-linecap:butt;stroke-linejoin:miter;stroke-opacity:1"/>
<path class="bond-4 atom-4 atom-5" d="M 429.3,374.8 L 460.6,357.6 L 463.8,365.6 Z" style="fill:#000000;fill-rule:evenodd;fill-opacity:1;stroke:#000000;stroke-width:0.5px;stroke-linecap:butt;stroke-linejoin:miter;stroke-opacity:1;"/>
<path d="M 322.2,366.7 L 322.5,364.4 L 324.7,363.5" style="fill:none;stroke:#000000;stroke-width:2.0px;stroke-linecap:butt;stroke-linejoin:miter;stroke-opacity:1;"/>
<path class="atom-0" d="M 269.2 328.7 Q 270.8 329.1, 271.5 330.1 Q 272.3 331.0, 272.3 332.4 Q 272.3 334.6, 270.9 335.9 Q 269.5 337.2, 266.8 337.2 L 261.4 337.2 L 261.4 321.0 L 266.1 321.0 Q 268.9 321.0, 270.3 322.1 Q 271.7 323.3, 271.7 325.3 Q 271.7 327.8, 269.2 328.7 M 263.5 322.8 L 263.5 327.9 L 266.1 327.9 Q 267.7 327.9, 268.6 327.3 Q 269.4 326.6, 269.4 325.3 Q 269.4 322.8, 266.1 322.8 L 263.5 322.8 M 266.8 335.4 Q 268.4 335.4, 269.2 334.6 Q 270.1 333.9, 270.1 332.4 Q 270.1 331.1, 269.1 330.4 Q 268.2 329.7, 266.5 329.7 L 263.5 329.7 L 263.5 335.4 L 266.8 335.4 " fill="#000000"/>
<path class="atom-0" d="M 276.0 325.4 L 276.3 327.1 Q 277.5 325.2, 279.5 325.2 Q 280.1 325.2, 281.0 325.5 L 280.7 327.4 Q 279.7 327.2, 279.1 327.2 Q 278.2 327.2, 277.5 327.5 Q 276.9 327.9, 276.4 328.8 L 276.4 337.2 L 274.3 337.2 L 274.3 325.4 L 276.0 325.4 " fill="#000000"/>
<path class="atom-2" d="M 313.4 412.7 L 315.5 412.7 L 315.5 429.0 L 313.4 429.0 L 313.4 412.7 " fill="#000000"/>
<path class="atom-3" d="M 368.1 343.2 Q 368.1 339.3, 370.0 337.1 Q 371.9 334.9, 375.5 334.9 Q 379.1 334.9, 381.0 337.1 Q 382.9 339.3, 382.9 343.2 Q 382.9 347.1, 381.0 349.3 Q 379.1 351.5, 375.5 351.5 Q 372.0 351.5, 370.0 349.3 Q 368.1 347.1, 368.1 343.2 M 375.5 349.7 Q 378.0 349.7, 379.3 348.1 Q 380.7 346.4, 380.7 343.2 Q 380.7 340.0, 379.3 338.4 Q 378.0 336.8, 375.5 336.8 Q 373.1 336.8, 371.7 338.4 Q 370.4 340.0, 370.4 343.2 Q 370.4 346.4, 371.7 348.1 Q 373.1 349.7, 375.5 349.7 " fill="#000000"/>
<path class="atom-4" d="M 420.0 370.3 Q 422.8 370.3, 424.2 371.6 Q 425.6 372.8, 425.6 375.0 Q 425.6 377.3, 424.1 378.6 Q 422.7 379.8, 420.0 379.8 L 417.4 379.8 L 417.4 386.5 L 415.2 386.5 L 415.2 370.3 L 420.0 370.3 M 420.0 378.0 Q 421.6 378.0, 422.4 377.2 Q 423.3 376.5, 423.3 375.0 Q 423.3 373.6, 422.4 372.9 Q 421.6 372.1, 420.0 372.1 L 417.4 372.1 L 417.4 378.0 L 420.0 378.0 " fill="#000000"/>
<path class="atom-4" d="M 414.1 388.1 L 416.3 388.1 L 416.3 394.9 L 424.5 394.9 L 424.5 388.1 L 426.7 388.1 L 426.7 404.2 L 424.5 404.2 L 424.5 396.8 L 416.3 396.8 L 416.3 404.2 L 414.1 404.2 L 414.1 388.1 " fill="#000000"/>
<path class="atom-5" d="M 466.0 357.2 Q 466.0 353.3, 467.9 351.1 Q 469.8 349.0, 473.4 349.0 Q 477.0 349.0, 478.9 351.1 Q 480.8 353.3, 480.8 357.2 Q 480.8 361.1, 478.9 363.3 Q 476.9 365.6, 473.4 365.6 Q 469.8 365.6, 467.9 363.3 Q 466.0 361.1, 466.0 357.2 M 473.4 363.7 Q 475.8 363.7, 477.2 362.1 Q 478.5 360.4, 478.5 357.2 Q 478.5 354.0, 477.2 352.4 Q 475.8 350.8, 473.4 350.8 Q 470.9 350.8, 469.6 352.4 Q 468.2 354.0, 468.2 357.2 Q 468.2 360.4, 469.6 362.1 Q 470.9 363.7, 473.4 363.7 " fill="#000000"/>
<path class="atom-5" d="M 483.1 351.6 L 488.6 351.6 L 488.6 352.8 L 483.1 352.8 L 483.1 351.6 " fill="#000000"/>
<path class="bond-0 atom-0 atom-1" d="M 733.3,369.9 L 692.1,387.4" style="fill:none;fill-rule:evenodd;stroke:#000000;stroke-width:2.0px;stroke-linecap:butt;stroke-linejoin:miter;stroke-opacity:1"/>
<path class="bond-1 atom-1 atom-2" d="M 658.0,389.6 L 619.2,360.4" style="fill:none;fill-rule:evenodd;stroke:#000000;stroke-width:2.0px;stroke-linecap:butt;stroke-linejoin:miter;stroke-opacity:1"/>
<path class="bond-2 atom-2 atom-3" d="M 598.2,357.0 L 561.6,372.6" style="fill:none;fill-rule:evenodd;stroke:#000000;stroke-width:2.0px;stroke-linecap:butt;stroke-linejoin:miter;stroke-opacity:1"/>
<path class="atom-0" d="M 735.8 357.6 L 738.6 357.6 L 738.6 378.8 L 735.8 378.8 L 735.8 357.6 " fill="#000000"/>
<path class="atom-1" d="M 663.8 386.9 L 670.7 398.1 Q 671.4 399.2, 672.5 401.2 Q 673.6 403.2, 673.7 403.3 L 673.7 386.9 L 676.5 386.9 L 676.5 408.0 L 673.6 408.0 L 666.1 395.8 Q 665.3 394.4, 664.3 392.7 Q 663.4 391.1, 663.2 390.6 L 663.2 408.0 L 660.4 408.0 L 660.4 386.9 L 663.8 386.9 " fill="#000000"/>
<path class="atom-1" d="M 680.5 390.7 L 684.2 390.7 L 684.2 386.8 L 685.8 386.8 L 685.8 390.7 L 689.7 390.7 L 689.7 392.1 L 685.8 392.1 L 685.8 396.1 L 684.2 396.1 L 684.2 392.1 L 680.5 392.1 L 680.5 390.7 " fill="#000000"/>
<path class="atom-1" d="M 660.2 410.2 L 663.0 410.2 L 663.0 419.2 L 673.9 419.2 L 673.9 410.2 L 676.7 410.2 L 676.7 431.3 L 673.9 431.3 L 673.9 421.6 L 663.0 421.6 L 663.0 431.3 L 660.2 431.3 L 660.2 410.2 " fill="#000000"/>
<path class="atom-2" d="M 604.0 342.0 L 611.0 353.2 Q 611.7 354.3, 612.8 356.3 Q 613.9 358.3, 613.9 358.4 L 613.9 342.0 L 616.7 342.0 L 616.7 363.1 L 613.8 363.1 L 606.4 350.9 Q 605.5 349.4, 604.6 347.8 Q 603.7 346.1, 603.4 345.6 L 603.4 363.1 L 600.7 363.1 L 600.7 342.0 L 604.0 342.0 " fill="#000000"/>
<path class="atom-2" d="M 600.4 318.7 L 603.3 318.7 L 603.3 327.7 L 614.1 327.7 L 614.1 318.7 L 617.0 318.7 L 617.0 339.8 L 614.1 339.8 L 614.1 330.1 L 603.3 330.1 L 603.3 339.8 L 600.4 339.8 L 600.4 318.7 " fill="#000000"/>
<path class="atom-3" d="M 511.4 371.2 L 514.2 371.2 L 514.2 380.2 L 525.1 380.2 L 525.1 371.2 L 527.9 371.2 L 527.9 392.4 L 525.1 392.4 L 525.1 382.6 L 514.2 382.6 L 514.2 392.4 L 511.4 392.4 L 511.4 371.2 " fill="#000000"/>
<path class="atom-3" d="M 535.3 371.2 L 542.2 382.4 Q 542.9 383.5, 544.0 385.5 Q 545.1 387.5, 545.2 387.7 L 545.2 371.2 L 548.0 371.2 L 548.0 392.4 L 545.1 392.4 L 537.6 380.1 Q 536.8 378.7, 535.8 377.0 Q 534.9 375.4, 534.7 374.9 L 534.7 392.4 L 531.9 392.4 L 531.9 371.2 L 535.3 371.2 " fill="#000000"/>
<path class="atom-3" d="M 551.9 374.7 L 559.1 374.7 L 559.1 376.3 L 551.9 376.3 L 551.9 374.7 " fill="#000000"/>
<path class="atom-1" d="M 695.6,397.5 L 695.6,397.6 L 695.6,397.7 L 695.6,397.8 L 695.6,398.0 L 695.5,398.1 L 695.5,398.2 L 695.4,398.3 L 695.3,398.4 L 695.2,398.5 L 695.1,398.6 L 695.0,398.7 L 694.9,398.7 L 694.8,398.8 L 694.7,398.9 L 694.6,398.9 L 694.4,398.9 L 694.3,398.9 L 694.2,399.0 L 694.1,399.0 L 693.9,398.9 L 693.8,398.9 L 693.7,398.9 L 693.6,398.8 L 693.4,398.8 L 693.3,398.7 L 693.2,398.6 L 693.1,398.6 L 693.0,398.5 L 693.0,398.4 L 692.9,398.3 L 692.8,398.1 L 692.8,398.0 L 692.7,397.9 L 692.7,397.8 L 692.7,397.7 L 692.7,397.5 L 692.7,397.4 L 692.7,397.3 L 692.7,397.1 L 692.7,397.0 L 692.8,396.9 L 692.8,396.8 L 692.9,396.7 L 693.0,396.6 L 693.0,396.5 L 693.1,396.4 L 693.2,396.3 L 693.3,396.2 L 693.4,396.1 L 693.6,396.1 L 693.7,396.0 L 693.8,396.0 L 693.9,396.0 L 694.1,396.0 L 694.2,396.0 L 694.3,396.0 L 694.4,396.0 L 694.6,396.0 L 694.7,396.1 L 694.8,396.1 L 694.9,396.2 L 695.0,396.2 L 695.1,396.3 L 695.2,396.4 L 695.3,396.5 L 695.4,396.6 L 695.5,396.7 L 695.5,396.8 L 695.6,397.0 L 695.6,397.1 L 695.6,397.2 L 695.6,397.3 L 695.6,397.5 L 694.2,397.5 Z" style="fill:#000000;fill-rule:evenodd;fill-opacity:1;stroke:#000000;stroke-width:0.0px;stroke-linecap:butt;stroke-linejoin:miter;stroke-opacity:1;"/>
<path class="bond-0 atom-0 atom-1" d="M 15.4,639.0 L 45.8,621.5" style="fill:none;fill-rule:evenodd;stroke:#000000;stroke-width:2.0px;stroke-linecap:butt;stroke-linejoin:miter;stroke-opacity:1"/>
<path class="bond-0 atom-0 atom-1" d="M 18.4,644.4 L 48.8,626.8" style="fill:none;fill-rule:evenodd;stroke:#000000;stroke-width:2.0px;stroke-linecap:butt;stroke-linejoin:miter;stroke-opacity:1"/>
<path class="bond-1 atom-1 atom-2" d="M 57.4,624.1 L 81.2,637.8" style="fill:none;fill-rule:evenodd;stroke:#000000;stroke-width:2.0px;stroke-linecap:butt;stroke-linejoin:miter;stroke-opacity:1"/>
<path class="bond-2 atom-2 atom-3" d="M 94.5,637.8 L 117.5,624.5" style="fill:none;fill-rule:evenodd;stroke:#000000;stroke-width:2.0px;stroke-linecap:butt;stroke-linejoin:miter;stroke-opacity:1"/>
<path class="bond-3 atom-3 atom-4" d="M 129.0,624.5 L 153.7,638.8" style="fill:none;fill-rule:evenodd;stroke:#000000;stroke-width:2.0px;stroke-linecap:butt;stroke-linejoin:miter;stroke-opacity:1"/>
<path class="bond-4 atom-4 atom-5" d="M 163.8,638.8 L 194.2,621.2" style="fill:none;fill-rule:evenodd;stroke:#000000;stroke-width:2.0px;stroke-linecap:butt;stroke-linejoin:miter;stroke-opacity:1"/>
<path class="bond-5 atom-5 atom-6" d="M 194.2,621.2 L 224.0,638.4" style="fill:none;fill-rule:evenodd;stroke:#000000;stroke-width:2.0px;stroke-linecap:butt;stroke-linejoin:miter;stroke-opacity:1"/>
<path class="bond-5 atom-5 atom-6" d="M 194.2,628.3 L 220.9,643.7" style="fill:none;fill-rule:evenodd;stroke:#000000;stroke-width:2.0px;stroke-linecap:butt;stroke-linejoin:miter;stroke-opacity:1"/>
<path d="M 192.7,622.1 L 194.2,621.2 L 195.7,622.1" style="fill:none;stroke:#000000;stroke-width:2.0px;stroke-linecap:butt;stroke-linejoin:miter;stroke-opacity:1;"/>
<path class="atom-1" d="M 49.1 625.2 Q 49.2 625.3, 49.8 625.5 Q 50.3 625.7, 50.9 625.9 Q 51.5 626.0, 52.1 626.0 Q 53.2 626.0, 53.8 625.5 Q 54.5 624.9, 54.5 624.0 Q 54.5 623.4, 54.1 623.0 Q 53.8 622.6, 53.3 622.4 Q 52.8 622.1, 52.0 621.9 Q 51.0 621.6, 50.4 621.3 Q 49.8 621.0, 49.3 620.4 Q 48.9 619.7, 48.9 618.7 Q 48.9 617.2, 49.9 616.3 Q 50.9 615.4, 52.8 615.4 Q 54.2 615.4, 55.7 616.1 L 55.3 617.3 Q 53.9 616.8, 52.9 616.8 Q 51.8 616.8, 51.1 617.2 Q 50.5 617.7, 50.5 618.5 Q 50.5 619.1, 50.8 619.5 Q 51.2 619.9, 51.6 620.1 Q 52.1 620.3, 52.9 620.6 Q 53.9 620.9, 54.6 621.2 Q 55.2 621.5, 55.6 622.2 Q 56.1 622.9, 56.1 624.0 Q 56.1 625.6, 55.0 626.5 Q 53.9 627.3, 52.1 627.3 Q 51.1 627.3, 50.3 627.1 Q 49.6 626.9, 48.6 626.5 L 49.1 625.2 " fill="#000000"/>
<path class="atom-1" d="M 47.8 602.4 L 49.4 602.4 L 49.4 607.3 L 55.3 607.3 L 55.3 602.4 L 56.9 602.4 L 56.9 614.0 L 55.3 614.0 L 55.3 608.6 L 49.4 608.6 L 49.4 614.0 L 47.8 614.0 L 47.8 602.4 " fill="#000000"/>
<path class="atom-1" d="M 59.1 604.4 L 61.2 604.4 L 61.2 602.3 L 62.1 602.3 L 62.1 604.4 L 64.2 604.4 L 64.2 605.2 L 62.1 605.2 L 62.1 607.4 L 61.2 607.4 L 61.2 605.2 L 59.1 605.2 L 59.1 604.4 " fill="#000000"/>
<path class="atom-2" d="M 82.5 641.7 Q 82.5 638.9, 83.9 637.4 Q 85.3 635.8, 87.8 635.8 Q 90.4 635.8, 91.8 637.4 Q 93.2 638.9, 93.2 641.7 Q 93.2 644.6, 91.8 646.2 Q 90.4 647.7, 87.8 647.7 Q 85.3 647.7, 83.9 646.2 Q 82.5 644.6, 82.5 641.7 M 87.8 646.4 Q 89.6 646.4, 90.5 645.3 Q 91.5 644.1, 91.5 641.7 Q 91.5 639.5, 90.5 638.3 Q 89.6 637.1, 87.8 637.1 Q 86.1 637.1, 85.1 638.3 Q 84.1 639.4, 84.1 641.7 Q 84.1 644.1, 85.1 645.3 Q 86.1 646.4, 87.8 646.4 " fill="#000000"/>
<path class="atom-3" d="M 120.7 615.4 L 124.5 621.6 Q 124.9 622.2, 125.5 623.3 Q 126.1 624.4, 126.2 624.4 L 126.2 615.4 L 127.7 615.4 L 127.7 627.0 L 126.1 627.0 L 122.0 620.3 Q 121.6 619.5, 121.0 618.6 Q 120.6 617.7, 120.4 617.4 L 120.4 627.0 L 118.9 627.0 L 118.9 615.4 L 120.7 615.4 " fill="#000000"/>
<path class="atom-3" d="M 129.9 617.5 L 131.9 617.5 L 131.9 615.4 L 132.8 615.4 L 132.8 617.5 L 134.9 617.5 L 134.9 618.3 L 132.8 618.3 L 132.8 620.5 L 131.9 620.5 L 131.9 618.3 L 129.9 618.3 L 129.9 617.5 " fill="#000000"/>
<path class="atom-4" d="M 155.5 645.7 Q 155.6 645.7, 156.2 646.0 Q 156.7 646.2, 157.3 646.3 Q 157.9 646.5, 158.5 646.5 Q 159.6 646.5, 160.2 645.9 Q 160.9 645.4, 160.9 644.5 Q 160.9 643.8, 160.5 643.4 Q 160.2 643.0, 159.7 642.8 Q 159.2 642.6, 158.4 642.4 Q 157.4 642.1, 156.8 641.8 Q 156.2 641.5, 155.7 640.8 Q 155.3 640.2, 155.3 639.2 Q 155.3 637.7, 156.3 636.8 Q 157.3 635.9, 159.2 635.9 Q 160.6 635.9, 162.1 636.6 L 161.7 637.8 Q 160.3 637.2, 159.3 637.2 Q 158.2 637.2, 157.5 637.7 Q 156.9 638.2, 156.9 639.0 Q 156.9 639.6, 157.2 640.0 Q 157.6 640.4, 158.0 640.6 Q 158.5 640.8, 159.3 641.0 Q 160.3 641.4, 161.0 641.7 Q 161.6 642.0, 162.0 642.7 Q 162.5 643.3, 162.5 644.5 Q 162.5 646.1, 161.4 646.9 Q 160.3 647.8, 158.6 647.8 Q 157.5 647.8, 156.7 647.6 Q 156.0 647.4, 155.0 647.0 L 155.5 645.7 " fill="#000000"/>
<path class="atom-6" d="M 225.6 638.6 L 229.4 644.7 Q 229.8 645.3, 230.4 646.4 Q 231.0 647.5, 231.0 647.6 L 231.0 638.6 L 232.6 638.6 L 232.6 650.2 L 231.0 650.2 L 226.9 643.4 Q 226.4 642.7, 225.9 641.8 Q 225.4 640.9, 225.3 640.6 L 225.3 650.2 L 223.8 650.2 L 223.8 638.6 L 225.6 638.6 " fill="#000000"/>
<path class="atom-6" d="M 234.7 640.5 L 238.6 640.5 L 238.6 641.3 L 234.7 641.3 L 234.7 640.5 " fill="#000000"/>
<path class="atom-0" d="M 12.8,643.3 L 12.8,643.4 L 12.8,643.5 L 12.8,643.5 L 12.7,643.6 L 12.7,643.7 L 12.7,643.7 L 12.7,643.8 L 12.6,643.9 L 12.6,643.9 L 12.5,644.0 L 12.5,644.0 L 12.4,644.0 L 12.3,644.1 L 12.3,644.1 L 12.2,644.1 L 12.1,644.1 L 12.1,644.2 L 12.0,644.2 L 11.9,644.2 L 11.9,644.1 L 11.8,644.1 L 11.7,644.1 L 11.7,644.1 L 11.6,644.1 L 11.5,644.0 L 11.5,644.0 L 11.4,643.9 L 11.4,643.9 L 11.3,643.8 L 11.3,643.8 L 11.2,643.7 L 11.2,643.6 L 11.2,643.6 L 11.2,643.5 L 11.2,643.4 L 11.2,643.4 L 11.2,643.3 L 11.2,643.2 L 11.2,643.2 L 11.2,643.1 L 11.2,643.0 L 11.2,643.0 L 11.3,642.9 L 11.3,642.8 L 11.4,642.8 L 11.4,642.7 L 11.5,642.7 L 11.5,642.7 L 11.6,642.6 L 11.7,642.6 L 11.7,642.6 L 11.8,642.5 L 11.9,642.5 L 11.9,642.5 L 12.0,642.5 L 12.1,642.5 L 12.1,642.5 L 12.2,642.6 L 12.3,642.6 L 12.3,642.6 L 12.4,642.6 L 12.5,642.7 L 12.5,642.7 L 12.6,642.8 L 12.6,642.8 L 12.7,642.9 L 12.7,642.9 L 12.7,643.0 L 12.7,643.1 L 12.8,643.1 L 12.8,643.2 L 12.8,643.3 L 12.8,643.3 L 12.0,643.3 Z" style="fill:#000000;fill-rule:evenodd;fill-opacity:1;stroke:#000000;stroke-width:0.0px;stroke-linecap:butt;stroke-linejoin:miter;stroke-opacity:1;"/>
<path class="atom-0" d="M 12.8,640.1 L 12.8,640.1 L 12.8,640.2 L 12.8,640.3 L 12.7,640.3 L 12.7,640.4 L 12.7,640.5 L 12.7,640.5 L 12.6,640.6 L 12.6,640.6 L 12.5,640.7 L 12.5,640.7 L 12.4,640.8 L 12.3,640.8 L 12.3,640.8 L 12.2,640.8 L 12.1,640.9 L 12.1,640.9 L 12.0,640.9 L 11.9,640.9 L 11.9,640.9 L 11.8,640.9 L 11.7,640.8 L 11.7,640.8 L 11.6,640.8 L 11.5,640.7 L 11.5,640.7 L 11.4,640.7 L 11.4,640.6 L 11.3,640.6 L 11.3,640.5 L 11.2,640.4 L 11.2,640.4 L 11.2,640.3 L 11.2,640.2 L 11.2,640.2 L 11.2,640.1 L 11.2,640.0 L 11.2,640.0 L 11.2,639.9 L 11.2,639.8 L 11.2,639.8 L 11.2,639.7 L 11.3,639.6 L 11.3,639.6 L 11.4,639.5 L 11.4,639.5 L 11.5,639.4 L 11.5,639.4 L 11.6,639.3 L 11.7,639.3 L 11.7,639.3 L 11.8,639.3 L 11.9,639.3 L 11.9,639.2 L 12.0,639.2 L 12.1,639.2 L 12.1,639.3 L 12.2,639.3 L 12.3,639.3 L 12.3,639.3 L 12.4,639.4 L 12.5,639.4 L 12.5,639.4 L 12.6,639.5 L 12.6,639.5 L 12.7,639.6 L 12.7,639.7 L 12.7,639.7 L 12.7,639.8 L 12.8,639.9 L 12.8,639.9 L 12.8,640.0 L 12.8,640.1 L 12.0,640.1 Z" style="fill:#000000;fill-rule:evenodd;fill-opacity:1;stroke:#000000;stroke-width:0.0px;stroke-linecap:butt;stroke-linejoin:miter;stroke-opacity:1;"/>
<path class="atom-1" d="M 53.2,601.1 L 53.2,601.1 L 53.2,601.2 L 53.2,601.3 L 53.1,601.3 L 53.1,601.4 L 53.1,601.5 L 53.0,601.5 L 53.0,601.6 L 52.9,601.6 L 52.9,601.7 L 52.8,601.7 L 52.8,601.8 L 52.7,601.8 L 52.7,601.8 L 52.6,601.9 L 52.5,601.9 L 52.4,601.9 L 52.4,601.9 L 52.3,601.9 L 52.2,601.9 L 52.2,601.9 L 52.1,601.8 L 52.0,601.8 L 52.0,601.8 L 51.9,601.8 L 51.9,601.7 L 51.8,601.7 L 51.8,601.6 L 51.7,601.6 L 51.7,601.5 L 51.6,601.4 L 51.6,601.4 L 51.6,601.3 L 51.6,601.2 L 51.5,601.2 L 51.5,601.1 L 51.5,601.0 L 51.5,601.0 L 51.6,600.9 L 51.6,600.8 L 51.6,600.8 L 51.6,600.7 L 51.7,600.6 L 51.7,600.6 L 51.8,600.5 L 51.8,600.5 L 51.9,600.4 L 51.9,600.4 L 52.0,600.3 L 52.0,600.3 L 52.1,600.3 L 52.2,600.3 L 52.2,600.3 L 52.3,600.3 L 52.4,600.2 L 52.4,600.3 L 52.5,600.3 L 52.6,600.3 L 52.7,600.3 L 52.7,600.3 L 52.8,600.4 L 52.8,600.4 L 52.9,600.4 L 52.9,600.5 L 53.0,600.5 L 53.0,600.6 L 53.1,600.7 L 53.1,600.7 L 53.1,600.8 L 53.2,600.9 L 53.2,600.9 L 53.2,601.0 L 53.2,601.1 L 52.4,601.1 Z" style="fill:#000000;fill-rule:evenodd;fill-opacity:1;stroke:#000000;stroke-width:0.0px;stroke-linecap:butt;stroke-linejoin:miter;stroke-opacity:1;"/>
<path class="atom-3" d="M 125.8,614.1 L 125.8,614.2 L 125.7,614.3 L 125.7,614.3 L 125.7,614.4 L 125.7,614.5 L 125.6,614.5 L 125.6,614.6 L 125.6,614.7 L 125.5,614.7 L 125.5,614.8 L 125.4,614.8 L 125.4,614.8 L 125.3,614.9 L 125.2,614.9 L 125.2,614.9 L 125.1,614.9 L 125.0,614.9 L 125.0,615.0 L 124.9,615.0 L 124.8,614.9 L 124.7,614.9 L 124.7,614.9 L 124.6,614.9 L 124.5,614.9 L 124.5,614.8 L 124.4,614.8 L 124.4,614.7 L 124.3,614.7 L 124.3,614.6 L 124.2,614.6 L 124.2,614.5 L 124.2,614.4 L 124.2,614.4 L 124.1,614.3 L 124.1,614.2 L 124.1,614.2 L 124.1,614.1 L 124.1,614.0 L 124.1,614.0 L 124.2,613.9 L 124.2,613.8 L 124.2,613.8 L 124.2,613.7 L 124.3,613.6 L 124.3,613.6 L 124.4,613.5 L 124.4,613.5 L 124.5,613.4 L 124.5,613.4 L 124.6,613.4 L 124.7,613.4 L 124.7,613.3 L 124.8,613.3 L 124.9,613.3 L 125.0,613.3 L 125.0,613.3 L 125.1,613.3 L 125.2,613.3 L 125.2,613.4 L 125.3,613.4 L 125.4,613.4 L 125.4,613.5 L 125.5,613.5 L 125.5,613.6 L 125.6,613.6 L 125.6,613.7 L 125.6,613.7 L 125.7,613.8 L 125.7,613.9 L 125.7,613.9 L 125.7,614.0 L 125.8,614.1 L 125.8,614.1 L 124.9,614.1 Z" style="fill:#000000;fill-rule:evenodd;fill-opacity:1;stroke:#000000;stroke-width:0.0px;stroke-linecap:butt;stroke-linejoin:miter;stroke-opacity:1;"/>
<path class="atom-3" d="M 122.5,614.1 L 122.5,614.2 L 122.5,614.3 L 122.5,614.3 L 122.4,614.4 L 122.4,614.5 L 122.4,614.5 L 122.3,614.6 L 122.3,614.7 L 122.2,614.7 L 122.2,614.8 L 122.1,614.8 L 122.1,614.8 L 122.0,614.9 L 122.0,614.9 L 121.9,614.9 L 121.8,614.9 L 121.7,614.9 L 121.7,615.0 L 121.6,615.0 L 121.5,614.9 L 121.5,614.9 L 121.4,614.9 L 121.3,614.9 L 121.3,614.9 L 121.2,614.8 L 121.2,614.8 L 121.1,614.7 L 121.1,614.7 L 121.0,614.6 L 121.0,614.6 L 120.9,614.5 L 120.9,614.4 L 120.9,614.4 L 120.9,614.3 L 120.8,614.2 L 120.8,614.2 L 120.8,614.1 L 120.8,614.0 L 120.9,614.0 L 120.9,613.9 L 120.9,613.8 L 120.9,613.8 L 121.0,613.7 L 121.0,613.6 L 121.1,613.6 L 121.1,613.5 L 121.2,613.5 L 121.2,613.4 L 121.3,613.4 L 121.3,613.4 L 121.4,613.4 L 121.5,613.3 L 121.5,613.3 L 121.6,613.3 L 121.7,613.3 L 121.7,613.3 L 121.8,613.3 L 121.9,613.3 L 122.0,613.4 L 122.0,613.4 L 122.1,613.4 L 122.1,613.5 L 122.2,613.5 L 122.2,613.6 L 122.3,613.6 L 122.3,613.7 L 122.4,613.7 L 122.4,613.8 L 122.4,613.9 L 122.5,613.9 L 122.5,614.0 L 122.5,614.1 L 122.5,614.1 L 121.7,614.1 Z" style="fill:#000000;fill-rule:evenodd;fill-opacity:1;stroke:#000000;stroke-width:0.0px;stroke-linecap:butt;stroke-linejoin:miter;stroke-opacity:1;"/>
<path class="bond-0 atom-0 atom-1" d="M 268.3,624.0 L 282.7,615.1" style="fill:none;fill-rule:evenodd;stroke:#000000;stroke-width:2.0px;stroke-linecap:butt;stroke-linejoin:miter;stroke-opacity:1"/>
<path class="bond-0 atom-0 atom-1" d="M 270.5,627.5 L 284.9,618.6" style="fill:none;fill-rule:evenodd;stroke:#000000;stroke-width:2.0px;stroke-linecap:butt;stroke-linejoin:miter;stroke-opacity:1"/>
<path class="bond-1 atom-1 atom-2" d="M 292.8,616.4 L 308.7,624.9" style="fill:none;fill-rule:evenodd;stroke:#000000;stroke-width:2.0px;stroke-linecap:butt;stroke-linejoin:miter;stroke-opacity:1"/>
<path class="bond-2 atom-2 atom-3" d="M 316.4,624.5 L 335.9,612.4" style="fill:none;fill-rule:evenodd;stroke:#000000;stroke-width:2.0px;stroke-linecap:butt;stroke-linejoin:miter;stroke-opacity:1"/>
<path class="bond-3 atom-3 atom-4" d="M 335.9,612.4 L 356.8,623.5" style="fill:none;fill-rule:evenodd;stroke:#000000;stroke-width:2.0px;stroke-linecap:butt;stroke-linejoin:miter;stroke-opacity:1"/>
<path class="bond-4 atom-4 atom-5" d="M 367.9,620.4 L 379.7,613.1" style="fill:none;fill-rule:evenodd;stroke:#000000;stroke-width:2.0px;stroke-linecap:butt;stroke-linejoin:miter;stroke-opacity:1"/>
<path class="bond-5 atom-5 atom-6" d="M 387.4,612.8 L 403.9,621.6" style="fill:none;fill-rule:evenodd;stroke:#000000;stroke-width:2.0px;stroke-linecap:butt;stroke-linejoin:miter;stroke-opacity:1"/>
<path class="bond-6 atom-6 atom-7" d="M 415.6,618.8 L 427.7,611.2" style="fill:none;fill-rule:evenodd;stroke:#000000;stroke-width:2.0px;stroke-linecap:butt;stroke-linejoin:miter;stroke-opacity:1"/>
<path class="bond-7 atom-7 atom-8" d="M 434.5,610.9 L 452.0,620.2" style="fill:none;fill-rule:evenodd;stroke:#000000;stroke-width:2.0px;stroke-linecap:butt;stroke-linejoin:miter;stroke-opacity:1"/>
<path class="bond-7 atom-7 atom-8" d="M 434.4,615.5 L 448.2,622.8" style="fill:none;fill-rule:evenodd;stroke:#000000;stroke-width:2.0px;stroke-linecap:butt;stroke-linejoin:miter;stroke-opacity:1"/>
<path class="bond-8 atom-8 atom-9" d="M 459.7,619.3 L 472.9,608.6 L 475.1,612.1 Z" style="fill:#000000;fill-rule:evenodd;fill-opacity:1;stroke:#000000;stroke-width:0.5px;stroke-linecap:butt;stroke-linejoin:miter;stroke-opacity:1;"/>
<path class="bond-9 atom-8 atom-10" d="M 455.6,627.0 L 456.2,644.7" style="fill:none;fill-rule:evenodd;stroke:#000000;stroke-width:2.0px;stroke-linecap:butt;stroke-linejoin:miter;stroke-opacity:1"/>
<path d="M 334.9,613.0 L 335.9,612.4 L 336.9,612.9" style="fill:none;stroke:#000000;stroke-width:2.0px;stroke-linecap:butt;stroke-linejoin:miter;stroke-opacity:1;"/>
<path class="atom-0" d="M 261.4 628.6 Q 261.4 626.7, 262.3 625.7 Q 263.2 624.6, 264.9 624.6 Q 266.7 624.6, 267.6 625.7 Q 268.5 626.7, 268.5 628.6 Q 268.5 630.5, 267.6 631.6 Q 266.6 632.6, 264.9 632.6 Q 263.2 632.6, 262.3 631.6 Q 261.4 630.5, 261.4 628.6 M 264.9 631.8 Q 266.1 631.8, 266.8 631.0 Q 267.4 630.2, 267.4 628.6 Q 267.4 627.1, 266.8 626.3 Q 266.1 625.5, 264.9 625.5 Q 263.8 625.5, 263.1 626.3 Q 262.5 627.1, 262.5 628.6 Q 262.5 630.2, 263.1 631.0 Q 263.8 631.8, 264.9 631.8 " fill="#000000"/>
<path class="atom-1" d="M 284.7 614.0 Q 284.7 612.2, 285.6 611.1 Q 286.5 610.1, 288.3 610.1 Q 290.0 610.1, 290.9 611.1 Q 291.9 612.2, 291.9 614.0 Q 291.9 615.9, 290.9 617.0 Q 290.0 618.1, 288.3 618.1 Q 286.6 618.1, 285.6 617.0 Q 284.7 615.9, 284.7 614.0 M 288.3 617.2 Q 289.5 617.2, 290.1 616.4 Q 290.8 615.6, 290.8 614.0 Q 290.8 612.5, 290.1 611.7 Q 289.5 611.0, 288.3 611.0 Q 287.1 611.0, 286.4 611.7 Q 285.8 612.5, 285.8 614.0 Q 285.8 615.6, 286.4 616.4 Q 287.1 617.2, 288.3 617.2 " fill="#000000"/>
<path class="atom-1" d="M 293.0 611.5 L 294.4 611.5 L 294.4 610.0 L 295.0 610.0 L 295.0 611.5 L 296.4 611.5 L 296.4 612.0 L 295.0 612.0 L 295.0 613.4 L 294.4 613.4 L 294.4 612.0 L 293.0 612.0 L 293.0 611.5 " fill="#000000"/>
<path class="atom-2" d="M 310.8 623.0 L 313.4 627.2 Q 313.6 627.6, 314.1 628.3 Q 314.5 629.0, 314.5 629.1 L 314.5 623.0 L 315.5 623.0 L 315.5 630.8 L 314.4 630.8 L 311.7 626.3 Q 311.4 625.8, 311.0 625.2 Q 310.7 624.6, 310.6 624.4 L 310.6 630.8 L 309.6 630.8 L 309.6 623.0 L 310.8 623.0 " fill="#000000"/>
<path class="atom-2" d="M 309.5 631.6 L 310.6 631.6 L 310.6 634.9 L 314.6 634.9 L 314.6 631.6 L 315.6 631.6 L 315.6 639.4 L 314.6 639.4 L 314.6 635.8 L 310.6 635.8 L 310.6 639.4 L 309.5 639.4 L 309.5 631.6 " fill="#000000"/>
<path class="atom-4" d="M 360.0 621.4 Q 361.3 621.4, 362.0 622.0 Q 362.7 622.6, 362.7 623.7 Q 362.7 624.8, 362.0 625.4 Q 361.3 626.0, 360.0 626.0 L 358.8 626.0 L 358.8 629.2 L 357.7 629.2 L 357.7 621.4 L 360.0 621.4 M 360.0 625.1 Q 360.8 625.1, 361.2 624.7 Q 361.6 624.4, 361.6 623.7 Q 361.6 623.0, 361.2 622.6 Q 360.8 622.3, 360.0 622.3 L 358.8 622.3 L 358.8 625.1 L 360.0 625.1 " fill="#000000"/>
<path class="atom-4" d="M 363.7 622.8 L 365.1 622.8 L 365.1 621.4 L 365.7 621.4 L 365.7 622.8 L 367.1 622.8 L 367.1 623.3 L 365.7 623.3 L 365.7 624.8 L 365.1 624.8 L 365.1 623.3 L 363.7 623.3 L 363.7 622.8 " fill="#000000"/>
<path class="atom-5" d="M 381.8 606.8 L 384.3 610.9 Q 384.6 611.4, 385.0 612.1 Q 385.4 612.8, 385.4 612.9 L 385.4 606.8 L 386.5 606.8 L 386.5 614.6 L 385.4 614.6 L 382.7 610.1 Q 382.3 609.6, 382.0 609.0 Q 381.7 608.4, 381.6 608.2 L 381.6 614.6 L 380.6 614.6 L 380.6 606.8 L 381.8 606.8 " fill="#000000"/>
<path class="atom-5" d="M 387.9 608.2 L 389.3 608.2 L 389.3 606.8 L 389.9 606.8 L 389.9 608.2 L 391.3 608.2 L 391.3 608.7 L 389.9 608.7 L 389.9 610.2 L 389.3 610.2 L 389.3 608.7 L 387.9 608.7 L 387.9 608.2 " fill="#000000"/>
<path class="atom-6" d="M 406.1 619.7 L 408.6 623.9 Q 408.9 624.3, 409.3 625.0 Q 409.7 625.8, 409.7 625.8 L 409.7 619.7 L 410.8 619.7 L 410.8 627.5 L 409.7 627.5 L 407.0 623.0 Q 406.6 622.5, 406.3 621.9 Q 406.0 621.3, 405.9 621.1 L 405.9 627.5 L 404.8 627.5 L 404.8 619.7 L 406.1 619.7 " fill="#000000"/>
<path class="atom-6" d="M 412.2 621.1 L 413.6 621.1 L 413.6 619.7 L 414.2 619.7 L 414.2 621.1 L 415.6 621.1 L 415.6 621.7 L 414.2 621.7 L 414.2 623.1 L 413.6 623.1 L 413.6 621.7 L 412.2 621.7 L 412.2 621.1 " fill="#000000"/>
<path class="atom-6" d="M 404.8 628.3 L 405.8 628.3 L 405.8 631.6 L 409.8 631.6 L 409.8 628.3 L 410.9 628.3 L 410.9 636.1 L 409.8 636.1 L 409.8 632.5 L 405.8 632.5 L 405.8 636.1 L 404.8 636.1 L 404.8 628.3 " fill="#000000"/>
<path class="atom-7" d="M 431.0 605.2 Q 432.3 605.2, 433.0 605.8 Q 433.6 606.4, 433.6 607.5 Q 433.6 608.5, 432.9 609.2 Q 432.3 609.8, 431.0 609.8 L 429.7 609.8 L 429.7 613.0 L 428.7 613.0 L 428.7 605.2 L 431.0 605.2 M 431.0 608.9 Q 431.7 608.9, 432.1 608.5 Q 432.5 608.2, 432.5 607.5 Q 432.5 606.8, 432.1 606.4 Q 431.7 606.1, 431.0 606.1 L 429.7 606.1 L 429.7 608.9 L 431.0 608.9 " fill="#000000"/>
<path class="atom-7" d="M 428.1 596.6 L 429.1 596.6 L 429.1 599.9 L 433.1 599.9 L 433.1 596.6 L 434.2 596.6 L 434.2 604.4 L 433.1 604.4 L 433.1 600.8 L 429.1 600.8 L 429.1 604.4 L 428.1 604.4 L 428.1 596.6 " fill="#000000"/>
<path class="atom-8" d="M 453.2 624.7 Q 453.3 624.7, 453.7 624.9 Q 454.0 625.0, 454.4 625.1 Q 454.8 625.2, 455.2 625.2 Q 456.0 625.2, 456.4 624.8 Q 456.8 624.5, 456.8 623.9 Q 456.8 623.4, 456.6 623.2 Q 456.4 622.9, 456.1 622.8 Q 455.7 622.6, 455.2 622.4 Q 454.5 622.2, 454.1 622.0 Q 453.7 621.8, 453.4 621.4 Q 453.1 621.0, 453.1 620.3 Q 453.1 619.3, 453.8 618.7 Q 454.4 618.1, 455.7 618.1 Q 456.6 618.1, 457.7 618.5 L 457.4 619.4 Q 456.5 619.0, 455.8 619.0 Q 455.0 619.0, 454.6 619.3 Q 454.2 619.6, 454.2 620.2 Q 454.2 620.6, 454.4 620.8 Q 454.6 621.1, 454.9 621.2 Q 455.2 621.4, 455.8 621.5 Q 456.5 621.8, 456.9 622.0 Q 457.3 622.2, 457.6 622.7 Q 457.9 623.1, 457.9 623.9 Q 457.9 624.9, 457.2 625.5 Q 456.5 626.1, 455.3 626.1 Q 454.6 626.1, 454.1 625.9 Q 453.5 625.8, 452.9 625.5 L 453.2 624.7 " fill="#000000"/>
<path class="atom-9" d="M 477.0 603.5 L 479.6 607.7 Q 479.8 608.1, 480.3 608.8 Q 480.7 609.5, 480.7 609.6 L 480.7 603.5 L 481.7 603.5 L 481.7 611.3 L 480.6 611.3 L 477.9 606.8 Q 477.6 606.3, 477.2 605.7 Q 476.9 605.1, 476.8 604.9 L 476.8 611.3 L 475.8 611.3 L 475.8 603.5 L 477.0 603.5 " fill="#000000"/>
<path class="atom-9" d="M 483.2 604.9 L 484.6 604.9 L 484.6 603.5 L 485.2 603.5 L 485.2 604.9 L 486.6 604.9 L 486.6 605.5 L 485.2 605.5 L 485.2 606.9 L 484.6 606.9 L 484.6 605.5 L 483.2 605.5 L 483.2 604.9 " fill="#000000"/>
<path class="atom-10" d="M 455.9 645.6 L 456.9 645.6 L 456.9 653.4 L 455.9 653.4 L 455.9 645.6 " fill="#000000"/>
<path class="atom-3" d="M 336.4,609.9 L 336.4,609.9 L 336.4,610.0 L 336.4,610.0 L 336.4,610.1 L 336.4,610.1 L 336.4,610.2 L 336.3,610.2 L 336.3,610.2 L 336.3,610.3 L 336.3,610.3 L 336.2,610.3 L 336.2,610.4 L 336.1,610.4 L 336.1,610.4 L 336.0,610.4 L 336.0,610.4 L 336.0,610.4 L 335.9,610.4 L 335.9,610.4 L 335.8,610.4 L 335.8,610.4 L 335.7,610.4 L 335.7,610.4 L 335.6,610.4 L 335.6,610.3 L 335.6,610.3 L 335.5,610.3 L 335.5,610.3 L 335.5,610.2 L 335.4,610.2 L 335.4,610.1 L 335.4,610.1 L 335.4,610.1 L 335.4,610.0 L 335.4,610.0 L 335.3,609.9 L 335.3,609.9 L 335.4,609.8 L 335.4,609.8 L 335.4,609.7 L 335.4,609.7 L 335.4,609.6 L 335.4,609.6 L 335.5,609.6 L 335.5,609.5 L 335.5,609.5 L 335.6,609.5 L 335.6,609.4 L 335.6,609.4 L 335.7,609.4 L 335.7,609.4 L 335.8,609.4 L 335.8,609.3 L 335.9,609.3 L 335.9,609.3 L 336.0,609.3 L 336.0,609.3 L 336.0,609.4 L 336.1,609.4 L 336.1,609.4 L 336.2,609.4 L 336.2,609.4 L 336.3,609.5 L 336.3,609.5 L 336.3,609.5 L 336.3,609.6 L 336.4,609.6 L 336.4,609.7 L 336.4,609.7 L 336.4,609.7 L 336.4,609.8 L 336.4,609.8 L 336.4,609.9 L 335.9,609.9 Z" style="fill:#000000;fill-rule:evenodd;fill-opacity:1;stroke:#000000;stroke-width:0.0px;stroke-linecap:butt;stroke-linejoin:miter;stroke-opacity:1;"/>
<path class="atom-4" d="M 369.3,626.4 L 369.3,626.4 L 369.3,626.5 L 369.3,626.5 L 369.3,626.6 L 369.2,626.6 L 369.2,626.7 L 369.2,626.7 L 369.2,626.7 L 369.1,626.8 L 369.1,626.8 L 369.1,626.8 L 369.0,626.9 L 369.0,626.9 L 368.9,626.9 L 368.9,626.9 L 368.8,626.9 L 368.8,626.9 L 368.7,626.9 L 368.7,626.9 L 368.7,626.9 L 368.6,626.9 L 368.6,626.9 L 368.5,626.9 L 368.5,626.9 L 368.4,626.8 L 368.4,626.8 L 368.4,626.8 L 368.3,626.8 L 368.3,626.7 L 368.3,626.7 L 368.2,626.6 L 368.2,626.6 L 368.2,626.6 L 368.2,626.5 L 368.2,626.5 L 368.2,626.4 L 368.2,626.4 L 368.2,626.3 L 368.2,626.3 L 368.2,626.2 L 368.2,626.2 L 368.2,626.1 L 368.3,626.1 L 368.3,626.1 L 368.3,626.0 L 368.4,626.0 L 368.4,626.0 L 368.4,625.9 L 368.5,625.9 L 368.5,625.9 L 368.6,625.9 L 368.6,625.9 L 368.7,625.8 L 368.7,625.8 L 368.7,625.8 L 368.8,625.8 L 368.8,625.8 L 368.9,625.9 L 368.9,625.9 L 369.0,625.9 L 369.0,625.9 L 369.1,625.9 L 369.1,626.0 L 369.1,626.0 L 369.2,626.0 L 369.2,626.1 L 369.2,626.1 L 369.2,626.2 L 369.3,626.2 L 369.3,626.2 L 369.3,626.3 L 369.3,626.3 L 369.3,626.4 L 368.7,626.4 Z" style="fill:#000000;fill-rule:evenodd;fill-opacity:1;stroke:#000000;stroke-width:0.0px;stroke-linecap:butt;stroke-linejoin:miter;stroke-opacity:1;"/>
<path class="atom-4" d="M 369.3,624.2 L 369.3,624.2 L 369.3,624.3 L 369.3,624.3 L 369.3,624.4 L 369.2,624.4 L 369.2,624.5 L 369.2,624.5 L 369.2,624.5 L 369.1,624.6 L 369.1,624.6 L 369.1,624.6 L 369.0,624.7 L 369.0,624.7 L 368.9,624.7 L 368.9,624.7 L 368.8,624.7 L 368.8,624.7 L 368.7,624.7 L 368.7,624.7 L 368.7,624.7 L 368.6,624.7 L 368.6,624.7 L 368.5,624.7 L 368.5,624.7 L 368.4,624.6 L 368.4,624.6 L 368.4,624.6 L 368.3,624.6 L 368.3,624.5 L 368.3,624.5 L 368.2,624.4 L 368.2,624.4 L 368.2,624.3 L 368.2,624.3 L 368.2,624.3 L 368.2,624.2 L 368.2,624.2 L 368.2,624.1 L 368.2,624.1 L 368.2,624.0 L 368.2,624.0 L 368.2,623.9 L 368.3,623.9 L 368.3,623.9 L 368.3,623.8 L 368.4,623.8 L 368.4,623.8 L 368.4,623.7 L 368.5,623.7 L 368.5,623.7 L 368.6,623.7 L 368.6,623.7 L 368.7,623.6 L 368.7,623.6 L 368.7,623.6 L 368.8,623.6 L 368.8,623.6 L 368.9,623.7 L 368.9,623.7 L 369.0,623.7 L 369.0,623.7 L 369.1,623.7 L 369.1,623.8 L 369.1,623.8 L 369.2,623.8 L 369.2,623.9 L 369.2,623.9 L 369.2,624.0 L 369.3,624.0 L 369.3,624.0 L 369.3,624.1 L 369.3,624.1 L 369.3,624.2 L 368.7,624.2 Z" style="fill:#000000;fill-rule:evenodd;fill-opacity:1;stroke:#000000;stroke-width:0.0px;stroke-linecap:butt;stroke-linejoin:miter;stroke-opacity:1;"/>
<path class="atom-5" d="M 385.2,606.0 L 385.2,606.0 L 385.2,606.0 L 385.2,606.1 L 385.1,606.1 L 385.1,606.2 L 385.1,606.2 L 385.1,606.3 L 385.0,606.3 L 385.0,606.3 L 385.0,606.4 L 384.9,606.4 L 384.9,606.4 L 384.9,606.4 L 384.8,606.5 L 384.8,606.5 L 384.7,606.5 L 384.7,606.5 L 384.6,606.5 L 384.6,606.5 L 384.5,606.5 L 384.5,606.5 L 384.4,606.5 L 384.4,606.5 L 384.4,606.4 L 384.3,606.4 L 384.3,606.4 L 384.2,606.4 L 384.2,606.3 L 384.2,606.3 L 384.2,606.2 L 384.1,606.2 L 384.1,606.2 L 384.1,606.1 L 384.1,606.1 L 384.1,606.0 L 384.1,606.0 L 384.1,605.9 L 384.1,605.9 L 384.1,605.8 L 384.1,605.8 L 384.1,605.7 L 384.1,605.7 L 384.2,605.7 L 384.2,605.6 L 384.2,605.6 L 384.2,605.6 L 384.3,605.5 L 384.3,605.5 L 384.4,605.5 L 384.4,605.4 L 384.4,605.4 L 384.5,605.4 L 384.5,605.4 L 384.6,605.4 L 384.6,605.4 L 384.7,605.4 L 384.7,605.4 L 384.8,605.4 L 384.8,605.4 L 384.9,605.5 L 384.9,605.5 L 384.9,605.5 L 385.0,605.5 L 385.0,605.6 L 385.0,605.6 L 385.1,605.6 L 385.1,605.7 L 385.1,605.7 L 385.1,605.8 L 385.2,605.8 L 385.2,605.9 L 385.2,605.9 L 385.2,606.0 L 384.6,606.0 Z" style="fill:#000000;fill-rule:evenodd;fill-opacity:1;stroke:#000000;stroke-width:0.0px;stroke-linecap:butt;stroke-linejoin:miter;stroke-opacity:1;"/>
<path class="atom-5" d="M 383.0,606.0 L 383.0,606.0 L 383.0,606.0 L 382.9,606.1 L 382.9,606.1 L 382.9,606.2 L 382.9,606.2 L 382.9,606.3 L 382.8,606.3 L 382.8,606.3 L 382.8,606.4 L 382.7,606.4 L 382.7,606.4 L 382.7,606.4 L 382.6,606.5 L 382.6,606.5 L 382.5,606.5 L 382.5,606.5 L 382.4,606.5 L 382.4,606.5 L 382.3,606.5 L 382.3,606.5 L 382.2,606.5 L 382.2,606.5 L 382.2,606.4 L 382.1,606.4 L 382.1,606.4 L 382.0,606.4 L 382.0,606.3 L 382.0,606.3 L 382.0,606.2 L 381.9,606.2 L 381.9,606.2 L 381.9,606.1 L 381.9,606.1 L 381.9,606.0 L 381.9,606.0 L 381.9,605.9 L 381.9,605.9 L 381.9,605.8 L 381.9,605.8 L 381.9,605.7 L 381.9,605.7 L 382.0,605.7 L 382.0,605.6 L 382.0,605.6 L 382.0,605.6 L 382.1,605.5 L 382.1,605.5 L 382.2,605.5 L 382.2,605.4 L 382.2,605.4 L 382.3,605.4 L 382.3,605.4 L 382.4,605.4 L 382.4,605.4 L 382.5,605.4 L 382.5,605.4 L 382.6,605.4 L 382.6,605.4 L 382.7,605.5 L 382.7,605.5 L 382.7,605.5 L 382.8,605.5 L 382.8,605.6 L 382.8,605.6 L 382.9,605.6 L 382.9,605.7 L 382.9,605.7 L 382.9,605.8 L 382.9,605.8 L 383.0,605.9 L 383.0,605.9 L 383.0,606.0 L 382.4,606.0 Z" style="fill:#000000;fill-rule:evenodd;fill-opacity:1;stroke:#000000;stroke-width:0.0px;stroke-linecap:butt;stroke-linejoin:miter;stroke-opacity:1;"/>
<path class="atom-6" d="M 417.8,623.6 L 417.8,623.7 L 417.8,623.7 L 417.8,623.8 L 417.8,623.8 L 417.8,623.9 L 417.7,623.9 L 417.7,624.0 L 417.7,624.0 L 417.7,624.0 L 417.6,624.1 L 417.6,624.1 L 417.5,624.1 L 417.5,624.1 L 417.5,624.2 L 417.4,624.2 L 417.4,624.2 L 417.3,624.2 L 417.3,624.2 L 417.2,624.2 L 417.2,624.2 L 417.1,624.2 L 417.1,624.2 L 417.0,624.1 L 417.0,624.1 L 417.0,624.1 L 416.9,624.1 L 416.9,624.0 L 416.9,624.0 L 416.8,624.0 L 416.8,623.9 L 416.8,623.9 L 416.8,623.8 L 416.7,623.8 L 416.7,623.8 L 416.7,623.7 L 416.7,623.7 L 416.7,623.6 L 416.7,623.6 L 416.7,623.5 L 416.7,623.5 L 416.8,623.4 L 416.8,623.4 L 416.8,623.3 L 416.8,623.3 L 416.9,623.3 L 416.9,623.2 L 416.9,623.2 L 417.0,623.2 L 417.0,623.2 L 417.0,623.1 L 417.1,623.1 L 417.1,623.1 L 417.2,623.1 L 417.2,623.1 L 417.3,623.1 L 417.3,623.1 L 417.4,623.1 L 417.4,623.1 L 417.5,623.1 L 417.5,623.1 L 417.5,623.2 L 417.6,623.2 L 417.6,623.2 L 417.7,623.3 L 417.7,623.3 L 417.7,623.3 L 417.7,623.4 L 417.8,623.4 L 417.8,623.5 L 417.8,623.5 L 417.8,623.5 L 417.8,623.6 L 417.8,623.6 L 417.3,623.6 Z" style="fill:#000000;fill-rule:evenodd;fill-opacity:1;stroke:#000000;stroke-width:0.0px;stroke-linecap:butt;stroke-linejoin:miter;stroke-opacity:1;"/>
<path class="atom-7" d="M 436.4,609.1 L 436.4,609.1 L 436.4,609.2 L 436.4,609.2 L 436.4,609.3 L 436.3,609.3 L 436.3,609.3 L 436.3,609.4 L 436.3,609.4 L 436.2,609.5 L 436.2,609.5 L 436.2,609.5 L 436.1,609.5 L 436.1,609.6 L 436.0,609.6 L 436.0,609.6 L 435.9,609.6 L 435.9,609.6 L 435.9,609.6 L 435.8,609.6 L 435.8,609.6 L 435.7,609.6 L 435.7,609.6 L 435.6,609.6 L 435.6,609.6 L 435.5,609.5 L 435.5,609.5 L 435.5,609.5 L 435.4,609.4 L 435.4,609.4 L 435.4,609.4 L 435.3,609.3 L 435.3,609.3 L 435.3,609.2 L 435.3,609.2 L 435.3,609.1 L 435.3,609.1 L 435.3,609.0 L 435.3,609.0 L 435.3,609.0 L 435.3,608.9 L 435.3,608.9 L 435.3,608.8 L 435.4,608.8 L 435.4,608.7 L 435.4,608.7 L 435.5,608.7 L 435.5,608.6 L 435.5,608.6 L 435.6,608.6 L 435.6,608.6 L 435.7,608.5 L 435.7,608.5 L 435.8,608.5 L 435.8,608.5 L 435.9,608.5 L 435.9,608.5 L 435.9,608.5 L 436.0,608.5 L 436.0,608.6 L 436.1,608.6 L 436.1,608.6 L 436.2,608.6 L 436.2,608.7 L 436.2,608.7 L 436.3,608.7 L 436.3,608.8 L 436.3,608.8 L 436.3,608.8 L 436.4,608.9 L 436.4,608.9 L 436.4,609.0 L 436.4,609.0 L 436.4,609.1 L 435.8,609.1 Z" style="fill:#000000;fill-rule:evenodd;fill-opacity:1;stroke:#000000;stroke-width:0.0px;stroke-linecap:butt;stroke-linejoin:miter;stroke-opacity:1;"/>
<path class="atom-9" d="M 488.8,604.7 L 488.8,604.7 L 488.8,604.8 L 488.8,604.8 L 488.7,604.9 L 488.7,604.9 L 488.7,604.9 L 488.7,605.0 L 488.6,605.0 L 488.6,605.1 L 488.6,605.1 L 488.5,605.1 L 488.5,605.1 L 488.5,605.2 L 488.4,605.2 L 488.4,605.2 L 488.3,605.2 L 488.3,605.2 L 488.2,605.2 L 488.2,605.2 L 488.1,605.2 L 488.1,605.2 L 488.0,605.2 L 488.0,605.2 L 488.0,605.2 L 487.9,605.1 L 487.9,605.1 L 487.8,605.1 L 487.8,605.0 L 487.8,605.0 L 487.8,605.0 L 487.7,604.9 L 487.7,604.9 L 487.7,604.8 L 487.7,604.8 L 487.7,604.7 L 487.7,604.7 L 487.7,604.6 L 487.7,604.6 L 487.7,604.6 L 487.7,604.5 L 487.7,604.5 L 487.7,604.4 L 487.8,604.4 L 487.8,604.3 L 487.8,604.3 L 487.8,604.3 L 487.9,604.2 L 487.9,604.2 L 488.0,604.2 L 488.0,604.2 L 488.0,604.1 L 488.1,604.1 L 488.1,604.1 L 488.2,604.1 L 488.2,604.1 L 488.3,604.1 L 488.3,604.1 L 488.4,604.1 L 488.4,604.2 L 488.5,604.2 L 488.5,604.2 L 488.5,604.2 L 488.6,604.3 L 488.6,604.3 L 488.6,604.3 L 488.7,604.4 L 488.7,604.4 L 488.7,604.4 L 488.7,604.5 L 488.8,604.5 L 488.8,604.6 L 488.8,604.6 L 488.8,604.7 L 488.2,604.7 Z" style="fill:#000000;fill-rule:evenodd;fill-opacity:1;stroke:#000000;stroke-width:0.0px;stroke-linecap:butt;stroke-linejoin:miter;stroke-opacity:1;"/>
<path class="atom-9" d="M 488.8,610.2 L 488.8,610.2 L 488.8,610.3 L 488.8,610.3 L 488.7,610.4 L 488.7,610.4 L 488.7,610.4 L 488.7,610.5 L 488.6,610.5 L 488.6,610.6 L 488.6,610.6 L 488.5,610.6 L 488.5,610.6 L 488.5,610.7 L 488.4,610.7 L 488.4,610.7 L 488.3,610.7 L 488.3,610.7 L 488.2,610.7 L 488.2,610.7 L 488.1,610.7 L 488.1,610.7 L 488.0,610.7 L 488.0,610.7 L 488.0,610.7 L 487.9,610.6 L 487.9,610.6 L 487.8,610.6 L 487.8,610.5 L 487.8,610.5 L 487.8,610.5 L 487.7,610.4 L 487.7,610.4 L 487.7,610.3 L 487.7,610.3 L 487.7,610.2 L 487.7,610.2 L 487.7,610.1 L 487.7,610.1 L 487.7,610.1 L 487.7,610.0 L 487.7,610.0 L 487.7,609.9 L 487.8,609.9 L 487.8,609.8 L 487.8,609.8 L 487.8,609.8 L 487.9,609.7 L 487.9,609.7 L 488.0,609.7 L 488.0,609.7 L 488.0,609.6 L 488.1,609.6 L 488.1,609.6 L 488.2,609.6 L 488.2,609.6 L 488.3,609.6 L 488.3,609.6 L 488.4,609.6 L 488.4,609.7 L 488.5,609.7 L 488.5,609.7 L 488.5,609.7 L 488.6,609.8 L 488.6,609.8 L 488.6,609.8 L 488.7,609.9 L 488.7,609.9 L 488.7,609.9 L 488.7,610.0 L 488.8,610.0 L 488.8,610.1 L 488.8,610.1 L 488.8,610.2 L 488.2,610.2 Z" style="fill:#000000;fill-rule:evenodd;fill-opacity:1;stroke:#000000;stroke-width:0.0px;stroke-linecap:butt;stroke-linejoin:miter;stroke-opacity:1;"/>
<path class="atom-9" d="M 488.8,607.4 L 488.8,607.5 L 488.8,607.5 L 488.8,607.6 L 488.7,607.6 L 488.7,607.6 L 488.7,607.7 L 488.7,607.7 L 488.6,607.8 L 488.6,607.8 L 488.6,607.8 L 488.5,607.9 L 488.5,607.9 L 488.5,607.9 L 488.4,607.9 L 488.4,607.9 L 488.3,608.0 L 488.3,608.0 L 488.2,608.0 L 488.2,608.0 L 488.1,608.0 L 488.1,608.0 L 488.0,607.9 L 488.0,607.9 L 488.0,607.9 L 487.9,607.9 L 487.9,607.9 L 487.8,607.8 L 487.8,607.8 L 487.8,607.8 L 487.8,607.7 L 487.7,607.7 L 487.7,607.6 L 487.7,607.6 L 487.7,607.5 L 487.7,607.5 L 487.7,607.4 L 487.7,607.4 L 487.7,607.3 L 487.7,607.3 L 487.7,607.3 L 487.7,607.2 L 487.7,607.2 L 487.8,607.1 L 487.8,607.1 L 487.8,607.1 L 487.8,607.0 L 487.9,607.0 L 487.9,607.0 L 488.0,606.9 L 488.0,606.9 L 488.0,606.9 L 488.1,606.9 L 488.1,606.9 L 488.2,606.9 L 488.2,606.9 L 488.3,606.9 L 488.3,606.9 L 488.4,606.9 L 488.4,606.9 L 488.5,606.9 L 488.5,606.9 L 488.5,607.0 L 488.6,607.0 L 488.6,607.0 L 488.6,607.1 L 488.7,607.1 L 488.7,607.1 L 488.7,607.2 L 488.7,607.2 L 488.8,607.3 L 488.8,607.3 L 488.8,607.4 L 488.8,607.4 L 488.2,607.4 Z" style="fill:#000000;fill-rule:evenodd;fill-opacity:1;stroke:#000000;stroke-width:0.0px;stroke-linecap:butt;stroke-linejoin:miter;stroke-opacity:1;"/>
<path class="bond-0 atom-0 atom-1" d="M 572.1,645.8 L 634.6,609.7" style="fill:none;fill-rule:evenodd;stroke:#000000;stroke-width:2.0px;stroke-linecap:butt;stroke-linejoin:miter;stroke-opacity:1"/>
<path class="bond-1 atom-1 atom-2" d="M 659.5,609.7 L 730.8,650.9" style="fill:none;fill-rule:evenodd;stroke:#000000;stroke-width:2.0px;stroke-linecap:butt;stroke-linejoin:miter;stroke-opacity:1"/>
<path class="atom-0" d="M 519.5 639.8 L 523.4 639.8 L 523.4 651.8 L 537.9 651.8 L 537.9 639.8 L 541.7 639.8 L 541.7 668.1 L 537.9 668.1 L 537.9 655.0 L 523.4 655.0 L 523.4 668.1 L 519.5 668.1 L 519.5 639.8 " fill="#000000"/>
<path class="atom-0" d="M 551.8 639.8 L 561.0 654.8 Q 562.0 656.3, 563.4 658.9 Q 564.9 661.6, 565.0 661.8 L 565.0 639.8 L 568.8 639.8 L 568.8 668.1 L 564.9 668.1 L 554.9 651.7 Q 553.8 649.8, 552.5 647.6 Q 551.3 645.4, 551.0 644.7 L 551.0 668.1 L 547.3 668.1 L 547.3 639.8 L 551.8 639.8 " fill="#000000"/>
<path class="atom-1" d="M 639.0 612.3 Q 639.4 612.4, 640.7 612.9 Q 642.0 613.5, 643.4 613.9 Q 644.9 614.2, 646.4 614.2 Q 649.0 614.2, 650.6 612.9 Q 652.2 611.6, 652.2 609.3 Q 652.2 607.7, 651.4 606.8 Q 650.6 605.8, 649.4 605.3 Q 648.2 604.8, 646.2 604.2 Q 643.7 603.4, 642.2 602.7 Q 640.7 602.0, 639.6 600.5 Q 638.6 598.9, 638.6 596.4 Q 638.6 592.8, 641.0 590.6 Q 643.4 588.4, 648.2 588.4 Q 651.5 588.4, 655.2 590.0 L 654.3 593.1 Q 650.9 591.7, 648.3 591.7 Q 645.6 591.7, 644.0 592.8 Q 642.5 593.9, 642.6 595.9 Q 642.6 597.4, 643.3 598.3 Q 644.1 599.3, 645.2 599.8 Q 646.4 600.3, 648.3 600.9 Q 650.9 601.7, 652.4 602.5 Q 653.9 603.3, 655.0 604.9 Q 656.1 606.5, 656.1 609.3 Q 656.1 613.2, 653.5 615.3 Q 650.9 617.4, 646.5 617.4 Q 644.0 617.4, 642.1 616.9 Q 640.2 616.3, 638.0 615.4 L 639.0 612.3 " fill="#000000"/>
<path class="atom-1" d="M 659.8 593.1 L 664.8 593.1 L 664.8 587.8 L 667.1 587.8 L 667.1 593.1 L 672.2 593.1 L 672.2 595.0 L 667.1 595.0 L 667.1 600.3 L 664.8 600.3 L 664.8 595.0 L 659.8 595.0 L 659.8 593.1 " fill="#000000"/>
<path class="atom-2" d="M 734.2 639.7 L 738.0 639.7 L 738.0 668.2 L 734.2 668.2 L 734.2 639.7 " fill="#000000"/>
<path class="atom-0" d="M 515.5,653.9 L 515.5,654.1 L 515.5,654.3 L 515.5,654.4 L 515.4,654.6 L 515.4,654.8 L 515.3,654.9 L 515.2,655.1 L 515.1,655.2 L 515.0,655.3 L 514.8,655.5 L 514.7,655.6 L 514.6,655.7 L 514.4,655.7 L 514.2,655.8 L 514.1,655.9 L 513.9,655.9 L 513.7,655.9 L 513.6,655.9 L 513.4,655.9 L 513.2,655.9 L 513.1,655.9 L 512.9,655.8 L 512.7,655.8 L 512.6,655.7 L 512.4,655.6 L 512.3,655.5 L 512.2,655.4 L 512.0,655.3 L 511.9,655.1 L 511.8,655.0 L 511.8,654.8 L 511.7,654.7 L 511.6,654.5 L 511.6,654.4 L 511.6,654.2 L 511.5,654.0 L 511.5,653.8 L 511.6,653.7 L 511.6,653.5 L 511.6,653.3 L 511.7,653.2 L 511.8,653.0 L 511.8,652.9 L 511.9,652.7 L 512.0,652.6 L 512.2,652.5 L 512.3,652.4 L 512.4,652.3 L 512.6,652.2 L 512.7,652.1 L 512.9,652.0 L 513.1,652.0 L 513.2,652.0 L 513.4,651.9 L 513.6,651.9 L 513.7,651.9 L 513.9,652.0 L 514.1,652.0 L 514.2,652.1 L 514.4,652.1 L 514.6,652.2 L 514.7,652.3 L 514.8,652.4 L 515.0,652.5 L 515.1,652.7 L 515.2,652.8 L 515.3,652.9 L 515.4,653.1 L 515.4,653.3 L 515.5,653.4 L 515.5,653.6 L 515.5,653.8 L 515.5,653.9 L 513.5,653.9 Z" style="fill:#000000;fill-rule:evenodd;fill-opacity:1;stroke:#000000;stroke-width:0.0px;stroke-linecap:butt;stroke-linejoin:miter;stroke-opacity:1;"/>
<path class="atom-1" d="M 649.0,584.8 L 649.0,585.0 L 649.0,585.2 L 649.0,585.4 L 648.9,585.5 L 648.9,585.7 L 648.8,585.8 L 648.7,586.0 L 648.6,586.1 L 648.5,586.2 L 648.3,586.4 L 648.2,586.5 L 648.1,586.6 L 647.9,586.6 L 647.8,586.7 L 647.6,586.8 L 647.4,586.8 L 647.3,586.8 L 647.1,586.8 L 646.9,586.8 L 646.7,586.8 L 646.6,586.8 L 646.4,586.7 L 646.2,586.7 L 646.1,586.6 L 645.9,586.5 L 645.8,586.4 L 645.7,586.3 L 645.6,586.2 L 645.4,586.0 L 645.3,585.9 L 645.3,585.8 L 645.2,585.6 L 645.1,585.4 L 645.1,585.3 L 645.1,585.1 L 645.0,584.9 L 645.0,584.8 L 645.1,584.6 L 645.1,584.4 L 645.1,584.3 L 645.2,584.1 L 645.3,583.9 L 645.3,583.8 L 645.4,583.6 L 645.6,583.5 L 645.7,583.4 L 645.8,583.3 L 645.9,583.2 L 646.1,583.1 L 646.2,583.0 L 646.4,582.9 L 646.6,582.9 L 646.7,582.9 L 646.9,582.9 L 647.1,582.8 L 647.3,582.9 L 647.4,582.9 L 647.6,582.9 L 647.8,583.0 L 647.9,583.0 L 648.1,583.1 L 648.2,583.2 L 648.3,583.3 L 648.5,583.4 L 648.6,583.6 L 648.7,583.7 L 648.8,583.9 L 648.9,584.0 L 648.9,584.2 L 649.0,584.3 L 649.0,584.5 L 649.0,584.7 L 649.0,584.8 L 647.0,584.8 Z" style="fill:#000000;fill-rule:evenodd;fill-opacity:1;stroke:#000000;stroke-width:0.0px;stroke-linecap:butt;stroke-linejoin:miter;stroke-opacity:1;"/>
</svg>