<svg xmlns="http://www.w3.org/2000/svg" xmlns:rdkit="http://www.rdkit.org/xml" xmlns:xlink="http://www.w3.org/1999/xlink" version="1.1" baseProfile="full" xml:space="preserve" width="750px" height="750px" viewBox="0 0 750 750">
<!-- END OF HEADER -->
<rect style="opacity:1.0;fill:#FFFFFF;stroke:none" width="750.0" height="750.0" x="0.0" y="0.0"> </rect>
<path class="bond-0 atom-0 atom-1" d="M 12.3,147.7 L 103.7,94.9" style="fill:none;fill-rule:evenodd;stroke:#000000;stroke-width:2.0px;stroke-linecap:butt;stroke-linejoin:miter;stroke-opacity:1"/>
<path class="bond-0 atom-0 atom-1" d="M 21.5,163.6 L 112.9,110.8" style="fill:none;fill-rule:evenodd;stroke:#000000;stroke-width:2.0px;stroke-linecap:butt;stroke-linejoin:miter;stroke-opacity:1"/>
<path class="bond-1 atom-1 atom-2" d="M 137.9,102.9 L 216.8,148.5" style="fill:none;fill-rule:evenodd;stroke:#000000;stroke-width:2.0px;stroke-linecap:butt;stroke-linejoin:miter;stroke-opacity:1"/>
<path class="atom-1" d="M 116.8 80.2 L 126.1 95.2 Q 127.0 96.7, 128.5 99.3 Q 130.0 102.0, 130.1 102.2 L 130.1 80.2 L 133.8 80.2 L 133.8 108.5 L 129.9 108.5 L 120.0 92.1 Q 118.8 90.2, 117.6 88.0 Q 116.4 85.8, 116.0 85.1 L 116.0 108.5 L 112.3 108.5 L 112.3 80.2 L 116.8 80.2 " fill="#000000"/>
<path class="atom-2" d="M 220.8 141.5 L 237.7 141.5 L 237.7 144.7 L 224.6 144.7 L 224.6 153.3 L 236.2 153.3 L 236.2 156.6 L 224.6 156.6 L 224.6 169.8 L 220.8 169.8 L 220.8 141.5 " fill="#000000"/>
<path class="bond-0 atom-0 atom-1" d="M 261.4,141.5 L 306.9,118.2" style="fill:none;fill-rule:evenodd;stroke:#000000;stroke-width:2.0px;stroke-linecap:butt;stroke-linejoin:miter;stroke-opacity:1"/>
<path class="bond-0 atom-0 atom-1" d="M 264.9,148.3 L 306.4,127.0" style="fill:none;fill-rule:evenodd;stroke:#000000;stroke-width:2.0px;stroke-linecap:butt;stroke-linejoin:miter;stroke-opacity:1"/>
<path class="bond-1 atom-1 atom-2" d="M 306.9,118.2 L 349.8,146.0" style="fill:none;fill-rule:evenodd;stroke:#000000;stroke-width:2.0px;stroke-linecap:butt;stroke-linejoin:miter;stroke-opacity:1"/>
<path class="bond-2 atom-2 atom-3" d="M 349.8,146.0 L 388.1,126.4" style="fill:none;fill-rule:evenodd;stroke:#000000;stroke-width:2.0px;stroke-linecap:butt;stroke-linejoin:miter;stroke-opacity:1"/>
<path class="bond-3 atom-3 atom-4" d="M 402.5,127.3 L 438.2,150.5" style="fill:none;fill-rule:evenodd;stroke:#000000;stroke-width:2.0px;stroke-linecap:butt;stroke-linejoin:miter;stroke-opacity:1"/>
<path class="bond-4 atom-4 atom-5" d="M 438.2,150.5 L 475.4,131.5" style="fill:none;fill-rule:evenodd;stroke:#000000;stroke-width:2.0px;stroke-linecap:butt;stroke-linejoin:miter;stroke-opacity:1"/>
<path class="bond-4 atom-4 atom-5" d="M 438.7,141.6 L 471.9,124.6" style="fill:none;fill-rule:evenodd;stroke:#000000;stroke-width:2.0px;stroke-linecap:butt;stroke-linejoin:miter;stroke-opacity:1"/>
<path d="M 304.6,119.4 L 306.9,118.2 L 309.0,119.6" style="fill:none;stroke:#000000;stroke-width:2.0px;stroke-linecap:butt;stroke-linejoin:miter;stroke-opacity:1;"/>
<path d="M 347.6,144.6 L 349.8,146.0 L 351.7,145.0" style="fill:none;stroke:#000000;stroke-width:2.0px;stroke-linecap:butt;stroke-linejoin:miter;stroke-opacity:1;"/>
<path d="M 436.4,149.3 L 438.2,150.5 L 440.1,149.5" style="fill:none;stroke:#000000;stroke-width:2.0px;stroke-linecap:butt;stroke-linejoin:miter;stroke-opacity:1;"/>
<path class="atom-3" d="M 392.1 115.5 L 396.9 123.1 Q 397.3 123.9, 398.1 125.3 Q 398.8 126.6, 398.9 126.7 L 398.9 115.5 L 400.8 115.5 L 400.8 129.9 L 398.8 129.9 L 393.7 121.5 Q 393.1 120.6, 392.5 119.4 Q 391.9 118.3, 391.7 118.0 L 391.7 129.9 L 389.8 129.9 L 389.8 115.5 L 392.1 115.5 " fill="#000000"/>
<path class="atom-3" d="M 389.6 99.5 L 391.6 99.5 L 391.6 105.7 L 399.0 105.7 L 399.0 99.5 L 401.0 99.5 L 401.0 114.0 L 399.0 114.0 L 399.0 107.3 L 391.6 107.3 L 391.6 114.0 L 389.6 114.0 L 389.6 99.5 " fill="#000000"/>
<path class="atom-5" d="M 475.3 123.8 Q 475.3 120.3, 477.1 118.4 Q 478.8 116.5, 482.0 116.5 Q 485.2 116.5, 486.9 118.4 Q 488.6 120.3, 488.6 123.8 Q 488.6 127.3, 486.9 129.3 Q 485.2 131.3, 482.0 131.3 Q 478.8 131.3, 477.1 129.3 Q 475.3 127.4, 475.3 123.8 M 482.0 129.7 Q 484.2 129.7, 485.4 128.2 Q 486.6 126.7, 486.6 123.8 Q 486.6 121.0, 485.4 119.5 Q 484.2 118.1, 482.0 118.1 Q 479.8 118.1, 478.6 119.5 Q 477.4 121.0, 477.4 123.8 Q 477.4 126.7, 478.6 128.2 Q 479.8 129.7, 482.0 129.7 " fill="#000000"/>
<path class="bond-0 atom-0 atom-1" d="M 672.7,146.9 L 667.6,177.6" style="fill:none;fill-rule:evenodd;stroke:#000000;stroke-width:2.0px;stroke-linecap:butt;stroke-linejoin:miter;stroke-opacity:1"/>
<path class="bond-1 atom-0 atom-2" d="M 672.6,133.4 L 668.0,109.2" style="fill:none;fill-rule:evenodd;stroke:#000000;stroke-width:2.0px;stroke-linecap:butt;stroke-linejoin:miter;stroke-opacity:1"/>
<path class="bond-2 atom-2 atom-3" d="M 672.1,98.0 L 690.3,82.4" style="fill:none;fill-rule:evenodd;stroke:#000000;stroke-width:2.0px;stroke-linecap:butt;stroke-linejoin:miter;stroke-opacity:1"/>
<path class="bond-3 atom-3 atom-4" d="M 701.0,79.7 L 731.6,90.4" style="fill:none;fill-rule:evenodd;stroke:#000000;stroke-width:2.0px;stroke-linecap:butt;stroke-linejoin:miter;stroke-opacity:1"/>
<path class="bond-3 atom-3 atom-4" d="M 699.1,85.1 L 726.6,94.7" style="fill:none;fill-rule:evenodd;stroke:#000000;stroke-width:2.0px;stroke-linecap:butt;stroke-linejoin:miter;stroke-opacity:1"/>
<path class="bond-4 atom-4 atom-5" d="M 731.6,90.4 L 738.6,127.8" style="fill:none;fill-rule:evenodd;stroke:#000000;stroke-width:2.0px;stroke-linecap:butt;stroke-linejoin:miter;stroke-opacity:1"/>
<path class="bond-5 atom-5 atom-6" d="M 738.6,127.8 L 709.7,152.6" style="fill:none;fill-rule:evenodd;stroke:#000000;stroke-width:2.0px;stroke-linecap:butt;stroke-linejoin:miter;stroke-opacity:1"/>
<path class="bond-5 atom-5 atom-6" d="M 732.4,125.7 L 708.5,146.2" style="fill:none;fill-rule:evenodd;stroke:#000000;stroke-width:2.0px;stroke-linecap:butt;stroke-linejoin:miter;stroke-opacity:1"/>
<path class="bond-6 atom-0 atom-7" d="M 669.1,140.1 L 641.9,140.4" style="fill:none;fill-rule:evenodd;stroke:#000000;stroke-width:2.0px;stroke-linecap:butt;stroke-linejoin:miter;stroke-opacity:1"/>
<path class="bond-7 atom-7 atom-8" d="M 631.7,133.7 L 616.3,107.7" style="fill:none;fill-rule:evenodd;stroke:#000000;stroke-width:2.0px;stroke-linecap:butt;stroke-linejoin:miter;stroke-opacity:1"/>
<path class="bond-8 atom-8 atom-9" d="M 616.3,107.7 L 578.2,108.1" style="fill:none;fill-rule:evenodd;stroke:#000000;stroke-width:2.0px;stroke-linecap:butt;stroke-linejoin:miter;stroke-opacity:1"/>
<path class="bond-9 atom-9 atom-10" d="M 578.2,108.1 L 558.8,75.4" style="fill:none;fill-rule:evenodd;stroke:#000000;stroke-width:2.0px;stroke-linecap:butt;stroke-linejoin:miter;stroke-opacity:1"/>
<path class="bond-10 atom-9 atom-11" d="M 578.2,108.1 L 559.6,141.3" style="fill:none;fill-rule:evenodd;stroke:#000000;stroke-width:2.0px;stroke-linecap:butt;stroke-linejoin:miter;stroke-opacity:1"/>
<path class="bond-11 atom-11 atom-12" d="M 559.6,141.3 L 523.4,141.7" style="fill:none;fill-rule:evenodd;stroke:#000000;stroke-width:2.0px;stroke-linecap:butt;stroke-linejoin:miter;stroke-opacity:1"/>
<path class="bond-12 atom-6 atom-0" d="M 709.7,152.6 L 678.5,141.7" style="fill:none;fill-rule:evenodd;stroke:#000000;stroke-width:2.0px;stroke-linecap:butt;stroke-linejoin:miter;stroke-opacity:1"/>
<path d="M 730.1,89.9 L 731.6,90.4 L 732.0,92.3" style="fill:none;stroke:#000000;stroke-width:2.0px;stroke-linecap:butt;stroke-linejoin:miter;stroke-opacity:1;"/>
<path d="M 738.3,126.0 L 738.6,127.8 L 737.2,129.1" style="fill:none;stroke:#000000;stroke-width:2.0px;stroke-linecap:butt;stroke-linejoin:miter;stroke-opacity:1;"/>
<path d="M 711.2,151.4 L 709.7,152.6 L 708.2,152.1" style="fill:none;stroke:#000000;stroke-width:2.0px;stroke-linecap:butt;stroke-linejoin:miter;stroke-opacity:1;"/>
<path d="M 617.1,109.0 L 616.3,107.7 L 614.4,107.7" style="fill:none;stroke:#000000;stroke-width:2.0px;stroke-linecap:butt;stroke-linejoin:miter;stroke-opacity:1;"/>
<path d="M 560.5,139.7 L 559.6,141.3 L 557.8,141.3" style="fill:none;stroke:#000000;stroke-width:2.0px;stroke-linecap:butt;stroke-linejoin:miter;stroke-opacity:1;"/>
<path class="atom-0" d="M 670.8 143.7 Q 670.9 143.8, 671.4 144.0 Q 671.9 144.2, 672.4 144.3 Q 673.0 144.5, 673.5 144.5 Q 674.6 144.5, 675.2 144.0 Q 675.8 143.5, 675.8 142.6 Q 675.8 142.0, 675.5 141.6 Q 675.2 141.3, 674.7 141.1 Q 674.2 140.9, 673.5 140.7 Q 672.5 140.4, 671.9 140.1 Q 671.4 139.8, 671.0 139.2 Q 670.6 138.7, 670.6 137.7 Q 670.6 136.3, 671.5 135.5 Q 672.4 134.6, 674.2 134.6 Q 675.5 134.6, 676.9 135.2 L 676.6 136.4 Q 675.3 135.9, 674.3 135.9 Q 673.2 135.9, 672.7 136.3 Q 672.1 136.8, 672.1 137.5 Q 672.1 138.1, 672.4 138.4 Q 672.7 138.8, 673.1 139.0 Q 673.6 139.2, 674.3 139.4 Q 675.3 139.7, 675.8 140.0 Q 676.4 140.3, 676.8 140.9 Q 677.3 141.5, 677.3 142.6 Q 677.3 144.1, 676.3 144.9 Q 675.3 145.7, 673.6 145.7 Q 672.6 145.7, 671.9 145.5 Q 671.2 145.3, 670.3 144.9 L 670.8 143.7 " fill="#000000"/>
<path class="atom-2" d="M 652.1 97.2 L 653.6 97.2 L 653.6 101.8 L 659.1 101.8 L 659.1 97.2 L 660.6 97.2 L 660.6 108.0 L 659.1 108.0 L 659.1 103.0 L 653.6 103.0 L 653.6 108.0 L 652.1 108.0 L 652.1 97.2 " fill="#000000"/>
<path class="atom-2" d="M 664.4 97.2 L 667.9 102.9 Q 668.3 103.5, 668.8 104.5 Q 669.4 105.5, 669.4 105.6 L 669.4 97.2 L 670.9 97.2 L 670.9 108.0 L 669.4 108.0 L 665.6 101.7 Q 665.1 101.0, 664.7 100.2 Q 664.2 99.3, 664.1 99.1 L 664.1 108.0 L 662.7 108.0 L 662.7 97.2 L 664.4 97.2 " fill="#000000"/>
<path class="atom-3" d="M 693.3 72.4 L 696.8 78.1 Q 697.2 78.7, 697.7 79.7 Q 698.3 80.7, 698.3 80.8 L 698.3 72.4 L 699.8 72.4 L 699.8 83.2 L 698.3 83.2 L 694.5 76.9 Q 694.0 76.2, 693.6 75.4 Q 693.1 74.5, 693.0 74.3 L 693.0 83.2 L 691.6 83.2 L 691.6 72.4 L 693.3 72.4 " fill="#000000"/>
<path class="atom-7" d="M 630.8 140.5 Q 630.8 137.9, 632.1 136.4 Q 633.3 135.0, 635.7 135.0 Q 638.1 135.0, 639.4 136.4 Q 640.7 137.9, 640.7 140.5 Q 640.7 143.1, 639.4 144.6 Q 638.1 146.1, 635.7 146.1 Q 633.3 146.1, 632.1 144.6 Q 630.8 143.1, 630.8 140.5 M 635.7 144.9 Q 637.4 144.9, 638.3 143.8 Q 639.2 142.6, 639.2 140.5 Q 639.2 138.4, 638.3 137.3 Q 637.4 136.2, 635.7 136.2 Q 634.1 136.2, 633.2 137.3 Q 632.3 138.4, 632.3 140.5 Q 632.3 142.7, 633.2 143.8 Q 634.1 144.9, 635.7 144.9 " fill="#000000"/>
<path class="atom-12" d="M 511.4 142.1 Q 511.4 139.4, 512.6 138.0 Q 513.9 136.6, 516.3 136.6 Q 518.5 136.6, 519.7 138.2 L 518.7 139.0 Q 517.8 137.9, 516.3 137.9 Q 514.6 137.9, 513.8 139.0 Q 512.9 140.0, 512.9 142.1 Q 512.9 144.3, 513.8 145.4 Q 514.7 146.4, 516.4 146.4 Q 517.6 146.4, 519.0 145.7 L 519.4 146.9 Q 518.9 147.2, 518.0 147.5 Q 517.2 147.7, 516.2 147.7 Q 513.9 147.7, 512.6 146.2 Q 511.4 144.8, 511.4 142.1 " fill="#000000"/>
<path class="atom-12" d="M 520.8 136.0 L 522.2 136.0 L 522.2 147.5 L 520.8 147.5 L 520.8 136.0 " fill="#000000"/>
<path class="bond-0 atom-0 atom-1" d="M 11.4,358.3 L 28.9,371.3" style="fill:none;fill-rule:evenodd;stroke:#000000;stroke-width:2.0px;stroke-linecap:butt;stroke-linejoin:miter;stroke-opacity:1"/>
<path class="bond-1 atom-1 atom-2" d="M 28.9,371.3 L 45.9,364.0" style="fill:none;fill-rule:evenodd;stroke:#000000;stroke-width:2.0px;stroke-linecap:butt;stroke-linejoin:miter;stroke-opacity:1"/>
<path class="bond-1 atom-1 atom-2" d="M 29.3,367.6 L 44.6,361.0" style="fill:none;fill-rule:evenodd;stroke:#000000;stroke-width:2.0px;stroke-linecap:butt;stroke-linejoin:miter;stroke-opacity:1"/>
<path class="bond-2 atom-2 atom-3" d="M 52.1,365.0 L 66.5,375.7" style="fill:none;fill-rule:evenodd;stroke:#000000;stroke-width:2.0px;stroke-linecap:butt;stroke-linejoin:miter;stroke-opacity:1"/>
<path class="bond-3 atom-3 atom-4" d="M 66.5,375.7 L 86.6,367.1" style="fill:none;fill-rule:evenodd;stroke:#000000;stroke-width:2.0px;stroke-linecap:butt;stroke-linejoin:miter;stroke-opacity:1"/>
<path class="bond-4 atom-4 atom-5" d="M 86.6,367.1 L 104.1,380.1" style="fill:none;fill-rule:evenodd;stroke:#000000;stroke-width:2.0px;stroke-linecap:butt;stroke-linejoin:miter;stroke-opacity:1"/>
<path class="bond-4 atom-4 atom-5" d="M 86.2,370.8 L 102.2,382.8" style="fill:none;fill-rule:evenodd;stroke:#000000;stroke-width:2.0px;stroke-linecap:butt;stroke-linejoin:miter;stroke-opacity:1"/>
<path class="bond-5 atom-5 atom-6" d="M 104.1,380.1 L 124.2,371.5" style="fill:none;fill-rule:evenodd;stroke:#000000;stroke-width:2.0px;stroke-linecap:butt;stroke-linejoin:miter;stroke-opacity:1"/>
<path class="bond-6 atom-6 atom-7" d="M 124.2,371.5 L 138.7,382.2" style="fill:none;fill-rule:evenodd;stroke:#000000;stroke-width:2.0px;stroke-linecap:butt;stroke-linejoin:miter;stroke-opacity:1"/>
<path class="bond-7 atom-7 atom-8" d="M 144.8,383.2 L 161.8,375.9" style="fill:none;fill-rule:evenodd;stroke:#000000;stroke-width:2.0px;stroke-linecap:butt;stroke-linejoin:miter;stroke-opacity:1"/>
<path class="bond-7 atom-7 atom-8" d="M 145.0,379.5 L 160.5,372.8" style="fill:none;fill-rule:evenodd;stroke:#000000;stroke-width:2.0px;stroke-linecap:butt;stroke-linejoin:miter;stroke-opacity:1"/>
<path class="bond-8 atom-8 atom-9" d="M 161.8,375.9 L 179.4,388.9" style="fill:none;fill-rule:evenodd;stroke:#000000;stroke-width:2.0px;stroke-linecap:butt;stroke-linejoin:miter;stroke-opacity:1"/>
<path class="bond-9 atom-9 atom-10" d="M 179.4,388.9 L 177.3,406.8" style="fill:none;fill-rule:evenodd;stroke:#000000;stroke-width:2.0px;stroke-linecap:butt;stroke-linejoin:miter;stroke-opacity:1"/>
<path class="bond-10 atom-10 atom-11" d="M 173.8,412.0 L 156.8,419.3" style="fill:none;fill-rule:evenodd;stroke:#000000;stroke-width:2.0px;stroke-linecap:butt;stroke-linejoin:miter;stroke-opacity:1"/>
<path class="bond-11 atom-9 atom-12" d="M 179.4,388.9 L 199.5,380.3" style="fill:none;fill-rule:evenodd;stroke:#000000;stroke-width:2.0px;stroke-linecap:butt;stroke-linejoin:miter;stroke-opacity:1"/>
<path class="bond-12 atom-12 atom-13" d="M 199.5,380.3 L 221.2,382.8" style="fill:none;fill-rule:evenodd;stroke:#000000;stroke-width:2.0px;stroke-linecap:butt;stroke-linejoin:miter;stroke-opacity:1"/>
<path class="bond-13 atom-12 atom-14" d="M 199.5,380.3 L 212.5,362.7" style="fill:none;fill-rule:evenodd;stroke:#000000;stroke-width:2.0px;stroke-linecap:butt;stroke-linejoin:miter;stroke-opacity:1"/>
<path class="bond-13 atom-12 atom-14" d="M 205.5,377.7 L 211.8,369.2" style="fill:none;fill-rule:evenodd;stroke:#000000;stroke-width:2.0px;stroke-linecap:butt;stroke-linejoin:miter;stroke-opacity:1"/>
<path class="bond-14 atom-14 atom-15" d="M 212.5,362.7 L 215.1,341.0" style="fill:none;fill-rule:evenodd;stroke:#000000;stroke-width:2.0px;stroke-linecap:butt;stroke-linejoin:miter;stroke-opacity:1"/>
<path class="bond-15 atom-15 atom-16" d="M 215.1,341.0 L 231.6,333.9" style="fill:none;fill-rule:evenodd;stroke:#000000;stroke-width:2.0px;stroke-linecap:butt;stroke-linejoin:miter;stroke-opacity:1"/>
<path class="bond-15 atom-15 atom-16" d="M 218.1,343.3 L 232.9,336.9" style="fill:none;fill-rule:evenodd;stroke:#000000;stroke-width:2.0px;stroke-linecap:butt;stroke-linejoin:miter;stroke-opacity:1"/>
<path class="bond-16 atom-14 atom-13" d="M 212.5,362.7 L 221.2,382.8" style="fill:none;fill-rule:evenodd;stroke:#000000;stroke-width:2.0px;stroke-linecap:butt;stroke-linejoin:miter;stroke-opacity:1"/>
<path d="M 28.0,370.7 L 28.9,371.3 L 29.8,371.0" style="fill:none;stroke:#000000;stroke-width:2.0px;stroke-linecap:butt;stroke-linejoin:miter;stroke-opacity:1;"/>
<path d="M 65.8,375.2 L 66.5,375.7 L 67.5,375.3" style="fill:none;stroke:#000000;stroke-width:2.0px;stroke-linecap:butt;stroke-linejoin:miter;stroke-opacity:1;"/>
<path d="M 85.6,367.5 L 86.6,367.1 L 87.5,367.7" style="fill:none;stroke:#000000;stroke-width:2.0px;stroke-linecap:butt;stroke-linejoin:miter;stroke-opacity:1;"/>
<path d="M 103.3,379.5 L 104.1,380.1 L 105.2,379.7" style="fill:none;stroke:#000000;stroke-width:2.0px;stroke-linecap:butt;stroke-linejoin:miter;stroke-opacity:1;"/>
<path d="M 123.2,371.9 L 124.2,371.5 L 124.9,372.0" style="fill:none;stroke:#000000;stroke-width:2.0px;stroke-linecap:butt;stroke-linejoin:miter;stroke-opacity:1;"/>
<path d="M 161.0,376.2 L 161.8,375.9 L 162.7,376.5" style="fill:none;stroke:#000000;stroke-width:2.0px;stroke-linecap:butt;stroke-linejoin:miter;stroke-opacity:1;"/>
<path d="M 220.1,382.7 L 221.2,382.8 L 220.8,381.8" style="fill:none;stroke:#000000;stroke-width:2.0px;stroke-linecap:butt;stroke-linejoin:miter;stroke-opacity:1;"/>
<path d="M 214.9,342.1 L 215.1,341.0 L 215.9,340.6" style="fill:none;stroke:#000000;stroke-width:2.0px;stroke-linecap:butt;stroke-linejoin:miter;stroke-opacity:1;"/>
<path class="atom-2" d="M 47.6 359.6 L 49.6 362.9 Q 49.8 363.2, 50.2 363.8 Q 50.5 364.3, 50.5 364.4 L 50.5 359.6 L 51.3 359.6 L 51.3 365.8 L 50.5 365.8 L 48.3 362.2 Q 48.1 361.8, 47.8 361.3 Q 47.5 360.8, 47.4 360.6 L 47.4 365.8 L 46.6 365.8 L 46.6 359.6 L 47.6 359.6 " fill="#000000"/>
<path class="atom-7" d="M 140.4 381.4 L 142.4 384.7 Q 142.6 385.0, 143.0 385.6 Q 143.3 386.2, 143.3 386.2 L 143.3 381.4 L 144.1 381.4 L 144.1 387.6 L 143.3 387.6 L 141.1 384.0 Q 140.8 383.6, 140.6 383.1 Q 140.3 382.6, 140.2 382.5 L 140.2 387.6 L 139.4 387.6 L 139.4 381.4 L 140.4 381.4 " fill="#000000"/>
<path class="atom-10" d="M 175.5 407.5 L 177.5 410.8 Q 177.7 411.1, 178.0 411.7 Q 178.4 412.3, 178.4 412.3 L 178.4 407.5 L 179.2 407.5 L 179.2 413.7 L 178.4 413.7 L 176.2 410.1 Q 175.9 409.7, 175.6 409.2 Q 175.4 408.8, 175.3 408.6 L 175.3 413.7 L 174.5 413.7 L 174.5 407.5 L 175.5 407.5 " fill="#000000"/>
<path class="atom-10" d="M 180.4 407.5 L 181.2 407.5 L 181.2 410.2 L 184.4 410.2 L 184.4 407.5 L 185.2 407.5 L 185.2 413.7 L 184.4 413.7 L 184.4 410.9 L 181.2 410.9 L 181.2 413.7 L 180.4 413.7 L 180.4 407.5 " fill="#000000"/>
<path class="atom-16" d="M 233.0 333.9 Q 233.0 332.4, 233.7 331.5 Q 234.4 330.7, 235.8 330.7 Q 237.2 330.7, 237.9 331.5 Q 238.6 332.4, 238.6 333.9 Q 238.6 335.4, 237.9 336.2 Q 237.1 337.1, 235.8 337.1 Q 234.4 337.1, 233.7 336.2 Q 233.0 335.4, 233.0 333.9 M 235.8 336.4 Q 236.7 336.4, 237.2 335.7 Q 237.8 335.1, 237.8 333.9 Q 237.8 332.6, 237.2 332.0 Q 236.7 331.4, 235.8 331.4 Q 234.8 331.4, 234.3 332.0 Q 233.8 332.6, 233.8 333.9 Q 233.8 335.1, 234.3 335.7 Q 234.8 336.4, 235.8 336.4 " fill="#000000"/>
<path class="bond-0 atom-0 atom-1" d="M 261.4,382.8 L 340.6,349.1" style="fill:none;fill-rule:evenodd;stroke:#000000;stroke-width:2.0px;stroke-linecap:butt;stroke-linejoin:miter;stroke-opacity:1"/>
<path class="bond-0 atom-0 atom-1" d="M 266.4,394.7 L 338.8,363.9" style="fill:none;fill-rule:evenodd;stroke:#000000;stroke-width:2.0px;stroke-linecap:butt;stroke-linejoin:miter;stroke-opacity:1"/>
<path class="bond-1 atom-1 atom-2" d="M 340.6,349.1 L 409.4,400.9" style="fill:none;fill-rule:evenodd;stroke:#000000;stroke-width:2.0px;stroke-linecap:butt;stroke-linejoin:miter;stroke-opacity:1"/>
<path class="bond-2 atom-2 atom-3" d="M 409.4,400.9 L 488.6,367.2" style="fill:none;fill-rule:evenodd;stroke:#000000;stroke-width:2.0px;stroke-linecap:butt;stroke-linejoin:miter;stroke-opacity:1"/>
<path d="M 336.6,350.8 L 340.6,349.1 L 344.0,351.7" style="fill:none;stroke:#000000;stroke-width:2.0px;stroke-linecap:butt;stroke-linejoin:miter;stroke-opacity:1;"/>
<path d="M 406.0,398.3 L 409.4,400.9 L 413.4,399.2" style="fill:none;stroke:#000000;stroke-width:2.0px;stroke-linecap:butt;stroke-linejoin:miter;stroke-opacity:1;"/>
<path class="bond-0 atom-0 atom-1" d="M 576.2,426.0 L 511.4,388.8" style="fill:none;fill-rule:evenodd;stroke:#000000;stroke-width:2.0px;stroke-linecap:butt;stroke-linejoin:miter;stroke-opacity:1"/>
<path class="bond-0 atom-0 atom-1" d="M 572.1,410.7 L 526.7,384.7" style="fill:none;fill-rule:evenodd;stroke:#000000;stroke-width:2.0px;stroke-linecap:butt;stroke-linejoin:miter;stroke-opacity:1"/>
<path class="bond-1 atom-1 atom-2" d="M 511.4,388.8 L 548.6,324.0" style="fill:none;fill-rule:evenodd;stroke:#000000;stroke-width:2.0px;stroke-linecap:butt;stroke-linejoin:miter;stroke-opacity:1"/>
<path class="bond-2 atom-2 atom-3" d="M 548.6,324.0 L 604.2,355.9" style="fill:none;fill-rule:evenodd;stroke:#000000;stroke-width:2.0px;stroke-linecap:butt;stroke-linejoin:miter;stroke-opacity:1"/>
<path class="bond-3 atom-3 atom-4" d="M 622.7,358.7 L 675.1,344.5" style="fill:none;fill-rule:evenodd;stroke:#000000;stroke-width:2.0px;stroke-linecap:butt;stroke-linejoin:miter;stroke-opacity:1"/>
<path class="bond-3 atom-3 atom-4" d="M 629.6,368.4 L 672.6,356.8" style="fill:none;fill-rule:evenodd;stroke:#000000;stroke-width:2.0px;stroke-linecap:butt;stroke-linejoin:miter;stroke-opacity:1"/>
<path class="bond-4 atom-4 atom-5" d="M 696.1,352.1 L 738.6,394.4" style="fill:none;fill-rule:evenodd;stroke:#000000;stroke-width:2.0px;stroke-linecap:butt;stroke-linejoin:miter;stroke-opacity:1"/>
<path class="bond-5 atom-3 atom-0" d="M 605.6,374.8 L 576.2,426.0" style="fill:none;fill-rule:evenodd;stroke:#000000;stroke-width:2.0px;stroke-linecap:butt;stroke-linejoin:miter;stroke-opacity:1"/>
<path d="M 573.0,424.2 L 576.2,426.0 L 577.7,423.5" style="fill:none;stroke:#000000;stroke-width:2.0px;stroke-linecap:butt;stroke-linejoin:miter;stroke-opacity:1;"/>
<path d="M 514.6,390.7 L 511.4,388.8 L 513.2,385.6" style="fill:none;stroke:#000000;stroke-width:2.0px;stroke-linecap:butt;stroke-linejoin:miter;stroke-opacity:1;"/>
<path d="M 546.7,327.2 L 548.6,324.0 L 551.4,325.6" style="fill:none;stroke:#000000;stroke-width:2.0px;stroke-linecap:butt;stroke-linejoin:miter;stroke-opacity:1;"/>
<path class="atom-3" d="M 607.5 368.4 Q 607.7 368.5, 608.7 369.0 Q 609.7 369.4, 610.7 369.6 Q 611.9 369.9, 612.9 369.9 Q 614.9 369.9, 616.1 368.9 Q 617.3 367.9, 617.3 366.2 Q 617.3 365.1, 616.7 364.3 Q 616.1 363.6, 615.2 363.2 Q 614.3 362.9, 612.8 362.4 Q 610.9 361.8, 609.8 361.3 Q 608.7 360.8, 607.9 359.6 Q 607.1 358.5, 607.1 356.6 Q 607.1 353.9, 608.9 352.3 Q 610.7 350.6, 614.3 350.6 Q 616.8 350.6, 619.5 351.8 L 618.9 354.1 Q 616.3 353.0, 614.4 353.0 Q 612.3 353.0, 611.2 353.9 Q 610.1 354.7, 610.1 356.2 Q 610.1 357.3, 610.7 358.0 Q 611.3 358.7, 612.1 359.1 Q 613.0 359.5, 614.4 360.0 Q 616.3 360.5, 617.4 361.1 Q 618.6 361.7, 619.4 363.0 Q 620.2 364.2, 620.2 366.2 Q 620.2 369.2, 618.3 370.7 Q 616.3 372.3, 613.1 372.3 Q 611.2 372.3, 609.7 371.9 Q 608.3 371.5, 606.6 370.8 L 607.5 368.4 " fill="#000000"/>
<path class="atom-4" d="M 680.9 331.0 L 687.9 342.3 Q 688.6 343.4, 689.7 345.4 Q 690.8 347.4, 690.8 347.5 L 690.8 331.0 L 693.6 331.0 L 693.6 352.2 L 690.7 352.2 L 683.3 340.0 Q 682.4 338.5, 681.5 336.9 Q 680.6 335.2, 680.3 334.7 L 680.3 352.2 L 677.6 352.2 L 677.6 331.0 L 680.9 331.0 " fill="#000000"/>
<path class="bond-0 atom-0 atom-1" d="M 57.6,611.7 L 45.2,620.4" style="fill:none;fill-rule:evenodd;stroke:#000000;stroke-width:2.0px;stroke-linecap:butt;stroke-linejoin:miter;stroke-opacity:1"/>
<path class="bond-0 atom-0 atom-1" d="M 55.5,610.3 L 44.6,618.0" style="fill:none;fill-rule:evenodd;stroke:#000000;stroke-width:2.0px;stroke-linecap:butt;stroke-linejoin:miter;stroke-opacity:1"/>
<path class="bond-1 atom-1 atom-2" d="M 45.2,620.4 L 48.4,635.2" style="fill:none;fill-rule:evenodd;stroke:#000000;stroke-width:2.0px;stroke-linecap:butt;stroke-linejoin:miter;stroke-opacity:1"/>
<path class="bond-2 atom-2 atom-3" d="M 48.4,635.2 L 39.7,643.2" style="fill:none;fill-rule:evenodd;stroke:#000000;stroke-width:2.0px;stroke-linecap:butt;stroke-linejoin:miter;stroke-opacity:1"/>
<path class="bond-3 atom-3 atom-4" d="M 37.9,648.2 L 40.5,660.3" style="fill:none;fill-rule:evenodd;stroke:#000000;stroke-width:2.0px;stroke-linecap:butt;stroke-linejoin:miter;stroke-opacity:1"/>
<path class="bond-4 atom-4 atom-5" d="M 39.6,661.1 L 52.5,665.2" style="fill:none;fill-rule:evenodd;stroke:#000000;stroke-width:2.0px;stroke-linecap:butt;stroke-linejoin:miter;stroke-opacity:1"/>
<path class="bond-4 atom-4 atom-5" d="M 40.2,659.0 L 53.2,663.1" style="fill:none;fill-rule:evenodd;stroke:#000000;stroke-width:2.0px;stroke-linecap:butt;stroke-linejoin:miter;stroke-opacity:1"/>
<path class="bond-5 atom-4 atom-6" d="M 40.5,660.3 L 29.3,670.5" style="fill:none;fill-rule:evenodd;stroke:#000000;stroke-width:2.0px;stroke-linecap:butt;stroke-linejoin:miter;stroke-opacity:1"/>
<path class="bond-6 atom-1 atom-7" d="M 45.2,620.4 L 32.7,618.2" style="fill:none;fill-rule:evenodd;stroke:#000000;stroke-width:2.0px;stroke-linecap:butt;stroke-linejoin:miter;stroke-opacity:1"/>
<path class="bond-7 atom-7 atom-8" d="M 28.3,615.0 L 21.5,605.3" style="fill:none;fill-rule:evenodd;stroke:#000000;stroke-width:2.0px;stroke-linecap:butt;stroke-linejoin:miter;stroke-opacity:1"/>
<path class="bond-8 atom-8 atom-9" d="M 21.5,605.3 L 24.2,590.3" style="fill:none;fill-rule:evenodd;stroke:#000000;stroke-width:2.0px;stroke-linecap:butt;stroke-linejoin:miter;stroke-opacity:1"/>
<path class="bond-8 atom-8 atom-9" d="M 23.9,604.7 L 26.2,591.7" style="fill:none;fill-rule:evenodd;stroke:#000000;stroke-width:2.0px;stroke-linecap:butt;stroke-linejoin:miter;stroke-opacity:1"/>
<path class="bond-9 atom-9 atom-10" d="M 24.2,590.3 L 11.4,582.2" style="fill:none;fill-rule:evenodd;stroke:#000000;stroke-width:2.0px;stroke-linecap:butt;stroke-linejoin:miter;stroke-opacity:1"/>
<path class="bond-10 atom-9 atom-11" d="M 24.2,590.3 L 34.7,582.9" style="fill:none;fill-rule:evenodd;stroke:#000000;stroke-width:2.0px;stroke-linecap:butt;stroke-linejoin:miter;stroke-opacity:1"/>
<path class="bond-11 atom-11 atom-12" d="M 38.5,582.0 L 51.6,584.3" style="fill:none;fill-rule:evenodd;stroke:#000000;stroke-width:2.0px;stroke-linecap:butt;stroke-linejoin:miter;stroke-opacity:1"/>
<path class="bond-12 atom-12 atom-13" d="M 51.6,584.3 L 60.3,596.7" style="fill:none;fill-rule:evenodd;stroke:#000000;stroke-width:2.0px;stroke-linecap:butt;stroke-linejoin:miter;stroke-opacity:1"/>
<path class="bond-12 atom-12 atom-13" d="M 50.2,586.4 L 57.8,597.3" style="fill:none;fill-rule:evenodd;stroke:#000000;stroke-width:2.0px;stroke-linecap:butt;stroke-linejoin:miter;stroke-opacity:1"/>
<path class="bond-13 atom-13 atom-14" d="M 60.3,596.7 L 75.1,593.4" style="fill:none;fill-rule:evenodd;stroke:#000000;stroke-width:2.0px;stroke-linecap:butt;stroke-linejoin:miter;stroke-opacity:1"/>
<path class="bond-14 atom-14 atom-15" d="M 75.1,593.4 L 89.9,590.2" style="fill:none;fill-rule:evenodd;stroke:#000000;stroke-width:2.0px;stroke-linecap:butt;stroke-linejoin:miter;stroke-opacity:1"/>
<path class="bond-14 atom-14 atom-15" d="M 74.6,591.2 L 89.4,587.9" style="fill:none;fill-rule:evenodd;stroke:#000000;stroke-width:2.0px;stroke-linecap:butt;stroke-linejoin:miter;stroke-opacity:1"/>
<path class="bond-14 atom-14 atom-15" d="M 75.6,595.7 L 90.4,592.4" style="fill:none;fill-rule:evenodd;stroke:#000000;stroke-width:2.0px;stroke-linecap:butt;stroke-linejoin:miter;stroke-opacity:1"/>
<path class="bond-15 atom-15 atom-16" d="M 89.9,590.2 L 104.7,586.9" style="fill:none;fill-rule:evenodd;stroke:#000000;stroke-width:2.0px;stroke-linecap:butt;stroke-linejoin:miter;stroke-opacity:1"/>
<path class="bond-16 atom-16 atom-17" d="M 104.7,586.9 L 115.0,598.1" style="fill:none;fill-rule:evenodd;stroke:#000000;stroke-width:2.0px;stroke-linecap:butt;stroke-linejoin:miter;stroke-opacity:1"/>
<path class="bond-17 atom-17 atom-18" d="M 115.0,598.1 L 129.8,594.8" style="fill:none;fill-rule:evenodd;stroke:#000000;stroke-width:2.0px;stroke-linecap:butt;stroke-linejoin:miter;stroke-opacity:1"/>
<path class="bond-18 atom-18 atom-19" d="M 129.8,594.8 L 137.6,603.3" style="fill:none;fill-rule:evenodd;stroke:#000000;stroke-width:2.0px;stroke-linecap:butt;stroke-linejoin:miter;stroke-opacity:1"/>
<path class="bond-19 atom-19 atom-20" d="M 142.5,605.5 L 154.9,602.7" style="fill:none;fill-rule:evenodd;stroke:#000000;stroke-width:2.0px;stroke-linecap:butt;stroke-linejoin:miter;stroke-opacity:1"/>
<path class="bond-20 atom-20 atom-21" d="M 154.9,602.7 L 165.1,613.9" style="fill:none;fill-rule:evenodd;stroke:#000000;stroke-width:2.0px;stroke-linecap:butt;stroke-linejoin:miter;stroke-opacity:1"/>
<path class="bond-21 atom-21 atom-22" d="M 165.1,613.9 L 179.9,610.6" style="fill:none;fill-rule:evenodd;stroke:#000000;stroke-width:2.0px;stroke-linecap:butt;stroke-linejoin:miter;stroke-opacity:1"/>
<path class="bond-22 atom-22 atom-23" d="M 179.9,610.6 L 188.1,619.5" style="fill:none;fill-rule:evenodd;stroke:#000000;stroke-width:2.0px;stroke-linecap:butt;stroke-linejoin:miter;stroke-opacity:1"/>
<path class="bond-23 atom-23 atom-24" d="M 192.3,621.4 L 205.0,618.6" style="fill:none;fill-rule:evenodd;stroke:#000000;stroke-width:2.0px;stroke-linecap:butt;stroke-linejoin:miter;stroke-opacity:1"/>
<path class="bond-23 atom-23 atom-24" d="M 192.9,618.9 L 204.5,616.3" style="fill:none;fill-rule:evenodd;stroke:#000000;stroke-width:2.0px;stroke-linecap:butt;stroke-linejoin:miter;stroke-opacity:1"/>
<path class="bond-24 atom-24 atom-25" d="M 205.0,618.6 L 215.3,629.8" style="fill:none;fill-rule:evenodd;stroke:#000000;stroke-width:2.0px;stroke-linecap:butt;stroke-linejoin:miter;stroke-opacity:1"/>
<path class="bond-25 atom-25 atom-26" d="M 215.3,629.8 L 227.9,627.0" style="fill:none;fill-rule:evenodd;stroke:#000000;stroke-width:2.0px;stroke-linecap:butt;stroke-linejoin:miter;stroke-opacity:1"/>
<path class="bond-26 atom-13 atom-0" d="M 60.3,596.7 L 57.6,611.7" style="fill:none;fill-rule:evenodd;stroke:#000000;stroke-width:2.0px;stroke-linecap:butt;stroke-linejoin:miter;stroke-opacity:1"/>
<path d="M 57.0,612.1 L 57.6,611.7 L 57.7,610.9" style="fill:none;stroke:#000000;stroke-width:2.0px;stroke-linecap:butt;stroke-linejoin:miter;stroke-opacity:1;"/>
<path d="M 48.3,634.4 L 48.4,635.2 L 48.0,635.6" style="fill:none;stroke:#000000;stroke-width:2.0px;stroke-linecap:butt;stroke-linejoin:miter;stroke-opacity:1;"/>
<path d="M 40.4,659.7 L 40.5,660.3 L 40.0,660.8" style="fill:none;stroke:#000000;stroke-width:2.0px;stroke-linecap:butt;stroke-linejoin:miter;stroke-opacity:1;"/>
<path d="M 21.9,605.8 L 21.5,605.3 L 21.6,604.5" style="fill:none;stroke:#000000;stroke-width:2.0px;stroke-linecap:butt;stroke-linejoin:miter;stroke-opacity:1;"/>
<path d="M 50.9,584.2 L 51.6,584.3 L 52.0,584.9" style="fill:none;stroke:#000000;stroke-width:2.0px;stroke-linecap:butt;stroke-linejoin:miter;stroke-opacity:1;"/>
<path d="M 74.3,593.6 L 75.1,593.4 L 75.8,593.3" style="fill:none;stroke:#000000;stroke-width:2.0px;stroke-linecap:butt;stroke-linejoin:miter;stroke-opacity:1;"/>
<path d="M 89.2,590.3 L 89.9,590.2 L 90.6,590.0" style="fill:none;stroke:#000000;stroke-width:2.0px;stroke-linecap:butt;stroke-linejoin:miter;stroke-opacity:1;"/>
<path d="M 104.0,587.1 L 104.7,586.9 L 105.2,587.4" style="fill:none;stroke:#000000;stroke-width:2.0px;stroke-linecap:butt;stroke-linejoin:miter;stroke-opacity:1;"/>
<path d="M 114.5,597.5 L 115.0,598.1 L 115.7,597.9" style="fill:none;stroke:#000000;stroke-width:2.0px;stroke-linecap:butt;stroke-linejoin:miter;stroke-opacity:1;"/>
<path d="M 129.0,595.0 L 129.8,594.8 L 130.2,595.2" style="fill:none;stroke:#000000;stroke-width:2.0px;stroke-linecap:butt;stroke-linejoin:miter;stroke-opacity:1;"/>
<path d="M 154.2,602.9 L 154.9,602.7 L 155.4,603.3" style="fill:none;stroke:#000000;stroke-width:2.0px;stroke-linecap:butt;stroke-linejoin:miter;stroke-opacity:1;"/>
<path d="M 164.6,613.4 L 165.1,613.9 L 165.9,613.8" style="fill:none;stroke:#000000;stroke-width:2.0px;stroke-linecap:butt;stroke-linejoin:miter;stroke-opacity:1;"/>
<path d="M 179.2,610.8 L 179.9,610.6 L 180.3,611.1" style="fill:none;stroke:#000000;stroke-width:2.0px;stroke-linecap:butt;stroke-linejoin:miter;stroke-opacity:1;"/>
<path d="M 204.4,618.7 L 205.0,618.6 L 205.5,619.1" style="fill:none;stroke:#000000;stroke-width:2.0px;stroke-linecap:butt;stroke-linejoin:miter;stroke-opacity:1;"/>
<path d="M 214.7,629.2 L 215.3,629.8 L 215.9,629.6" style="fill:none;stroke:#000000;stroke-width:2.0px;stroke-linecap:butt;stroke-linejoin:miter;stroke-opacity:1;"/>
<path class="atom-3" d="M 35.3 645.5 Q 35.3 644.4, 35.8 643.8 Q 36.3 643.3, 37.2 643.3 Q 38.2 643.3, 38.7 643.8 Q 39.2 644.4, 39.2 645.5 Q 39.2 646.5, 38.7 647.1 Q 38.2 647.7, 37.2 647.7 Q 36.3 647.7, 35.8 647.1 Q 35.3 646.5, 35.3 645.5 M 37.2 647.2 Q 37.9 647.2, 38.3 646.8 Q 38.6 646.3, 38.6 645.5 Q 38.6 644.6, 38.3 644.2 Q 37.9 643.8, 37.2 643.8 Q 36.6 643.8, 36.2 644.2 Q 35.9 644.6, 35.9 645.5 Q 35.9 646.3, 36.2 646.8 Q 36.6 647.2, 37.2 647.2 " fill="#000000"/>
<path class="atom-5" d="M 54.0 662.7 L 55.5 665.0 Q 55.6 665.2, 55.8 665.6 Q 56.0 666.0, 56.1 666.0 L 56.1 662.7 L 56.6 662.7 L 56.6 667.0 L 56.0 667.0 L 54.5 664.5 Q 54.4 664.2, 54.2 663.9 Q 54.0 663.5, 53.9 663.4 L 53.9 667.0 L 53.4 667.0 L 53.4 662.7 L 54.0 662.7 " fill="#000000"/>
<path class="atom-5" d="M 57.5 662.7 L 58.0 662.7 L 58.0 664.5 L 60.2 664.5 L 60.2 662.7 L 60.8 662.7 L 60.8 667.0 L 60.2 667.0 L 60.2 665.0 L 58.0 665.0 L 58.0 667.0 L 57.5 667.0 L 57.5 662.7 " fill="#000000"/>
<path class="atom-7" d="M 28.2 617.7 Q 28.2 616.7, 28.8 616.1 Q 29.3 615.5, 30.2 615.5 Q 31.2 615.5, 31.7 616.1 Q 32.2 616.7, 32.2 617.7 Q 32.2 618.8, 31.7 619.4 Q 31.2 620.0, 30.2 620.0 Q 29.3 620.0, 28.8 619.4 Q 28.2 618.8, 28.2 617.7 M 30.2 619.5 Q 30.9 619.5, 31.2 619.0 Q 31.6 618.6, 31.6 617.7 Q 31.6 616.9, 31.2 616.5 Q 30.9 616.0, 30.2 616.0 Q 29.6 616.0, 29.2 616.5 Q 28.9 616.9, 28.9 617.7 Q 28.9 618.6, 29.2 619.0 Q 29.6 619.5, 30.2 619.5 " fill="#000000"/>
<path class="atom-11" d="M 35.4 583.1 Q 35.4 583.1, 35.6 583.2 Q 35.8 583.3, 36.1 583.4 Q 36.3 583.4, 36.5 583.4 Q 36.9 583.4, 37.1 583.2 Q 37.4 583.0, 37.4 582.7 Q 37.4 582.4, 37.3 582.3 Q 37.1 582.1, 37.0 582.1 Q 36.8 582.0, 36.5 581.9 Q 36.1 581.8, 35.9 581.7 Q 35.6 581.5, 35.5 581.3 Q 35.3 581.1, 35.3 580.7 Q 35.3 580.2, 35.7 579.8 Q 36.0 579.5, 36.8 579.5 Q 37.3 579.5, 37.8 579.7 L 37.7 580.2 Q 37.2 580.0, 36.8 580.0 Q 36.4 580.0, 36.1 580.2 Q 35.9 580.3, 35.9 580.6 Q 35.9 580.9, 36.0 581.0 Q 36.2 581.1, 36.3 581.2 Q 36.5 581.3, 36.8 581.4 Q 37.2 581.5, 37.4 581.6 Q 37.6 581.7, 37.8 582.0 Q 38.0 582.2, 38.0 582.7 Q 38.0 583.3, 37.6 583.6 Q 37.2 583.9, 36.5 583.9 Q 36.1 583.9, 35.8 583.8 Q 35.6 583.7, 35.2 583.6 L 35.4 583.1 " fill="#000000"/>
<path class="atom-19" d="M 138.1 606.0 Q 138.1 605.0, 138.6 604.4 Q 139.1 603.8, 140.0 603.8 Q 141.0 603.8, 141.5 604.4 Q 142.0 605.0, 142.0 606.0 Q 142.0 607.1, 141.5 607.7 Q 141.0 608.2, 140.0 608.2 Q 139.1 608.2, 138.6 607.7 Q 138.1 607.1, 138.1 606.0 M 140.0 607.8 Q 140.7 607.8, 141.0 607.3 Q 141.4 606.9, 141.4 606.0 Q 141.4 605.2, 141.0 604.7 Q 140.7 604.3, 140.0 604.3 Q 139.4 604.3, 139.0 604.7 Q 138.7 605.2, 138.7 606.0 Q 138.7 606.9, 139.0 607.3 Q 139.4 607.8, 140.0 607.8 " fill="#000000"/>
<path class="atom-23" d="M 189.2 619.7 L 190.6 622.0 Q 190.8 622.2, 191.0 622.6 Q 191.2 623.0, 191.2 623.0 L 191.2 619.7 L 191.8 619.7 L 191.8 624.0 L 191.2 624.0 L 189.7 621.5 Q 189.5 621.2, 189.3 620.9 Q 189.2 620.5, 189.1 620.4 L 189.1 624.0 L 188.6 624.0 L 188.6 619.7 L 189.2 619.7 " fill="#000000"/>
<path class="atom-26" d="M 229.1 624.3 L 230.5 626.6 Q 230.7 626.8, 230.9 627.3 Q 231.1 627.7, 231.1 627.7 L 231.1 624.3 L 231.7 624.3 L 231.7 628.6 L 231.1 628.6 L 229.6 626.2 Q 229.4 625.9, 229.2 625.5 Q 229.1 625.2, 229.0 625.1 L 229.0 628.6 L 228.4 628.6 L 228.4 624.3 L 229.1 624.3 " fill="#000000"/>
<path class="atom-26" d="M 232.5 624.3 L 233.1 624.3 L 233.1 626.2 L 235.3 626.2 L 235.3 624.3 L 235.9 624.3 L 235.9 628.6 L 235.3 628.6 L 235.3 626.7 L 233.1 626.7 L 233.1 628.6 L 232.5 628.6 L 232.5 624.3 " fill="#000000"/>
<path class="atom-26" d="M 236.7 628.5 Q 236.8 628.2, 237.1 628.1 Q 237.3 627.9, 237.7 627.9 Q 238.1 627.9, 238.3 628.2 Q 238.6 628.4, 238.6 628.8 Q 238.6 629.2, 238.3 629.6 Q 238.0 630.0, 237.3 630.5 L 238.6 630.5 L 238.6 630.8 L 236.7 630.8 L 236.7 630.5 Q 237.3 630.1, 237.6 629.9 Q 237.9 629.6, 238.0 629.3 Q 238.2 629.1, 238.2 628.8 Q 238.2 628.5, 238.1 628.4 Q 237.9 628.2, 237.7 628.2 Q 237.5 628.2, 237.3 628.3 Q 237.1 628.4, 237.0 628.6 L 236.7 628.5 " fill="#000000"/>
<path class="atom-17" d="M 115.3,599.5 L 115.3,599.5 L 115.3,599.5 L 115.3,599.5 L 115.3,599.6 L 115.2,599.6 L 115.2,599.6 L 115.2,599.6 L 115.2,599.6 L 115.2,599.7 L 115.2,599.7 L 115.1,599.7 L 115.1,599.7 L 115.1,599.7 L 115.1,599.7 L 115.1,599.7 L 115.0,599.7 L 115.0,599.8 L 115.0,599.8 L 114.9,599.8 L 114.9,599.8 L 114.9,599.7 L 114.9,599.7 L 114.8,599.7 L 114.8,599.7 L 114.8,599.7 L 114.8,599.7 L 114.8,599.7 L 114.7,599.7 L 114.7,599.6 L 114.7,599.6 L 114.7,599.6 L 114.7,599.6 L 114.7,599.5 L 114.7,599.5 L 114.7,599.5 L 114.7,599.5 L 114.7,599.4 L 114.7,599.4 L 114.7,599.4 L 114.7,599.4 L 114.7,599.3 L 114.7,599.3 L 114.7,599.3 L 114.7,599.3 L 114.7,599.2 L 114.8,599.2 L 114.8,599.2 L 114.8,599.2 L 114.8,599.2 L 114.8,599.2 L 114.9,599.2 L 114.9,599.2 L 114.9,599.2 L 114.9,599.1 L 115.0,599.1 L 115.0,599.1 L 115.0,599.2 L 115.1,599.2 L 115.1,599.2 L 115.1,599.2 L 115.1,599.2 L 115.1,599.2 L 115.2,599.2 L 115.2,599.2 L 115.2,599.3 L 115.2,599.3 L 115.2,599.3 L 115.2,599.3 L 115.3,599.3 L 115.3,599.4 L 115.3,599.4 L 115.3,599.4 L 115.3,599.5 L 115.0,599.5 Z" style="fill:#000000;fill-rule:evenodd;fill-opacity:1;stroke:#000000;stroke-width:0.0px;stroke-linecap:butt;stroke-linejoin:miter;stroke-opacity:1;"/>
<path class="bond-0 atom-0 atom-1" d="M 341.4,628.8 L 349.0,652.7" style="fill:none;fill-rule:evenodd;stroke:#000000;stroke-width:2.0px;stroke-linecap:butt;stroke-linejoin:miter;stroke-opacity:1"/>
<path class="bond-1 atom-0 atom-2" d="M 341.4,628.8 L 333.9,604.9" style="fill:none;fill-rule:evenodd;stroke:#000000;stroke-width:2.0px;stroke-linecap:butt;stroke-linejoin:miter;stroke-opacity:1"/>
<path class="bond-2 atom-2 atom-3" d="M 333.9,604.9 L 357.8,597.3" style="fill:none;fill-rule:evenodd;stroke:#000000;stroke-width:2.0px;stroke-linecap:butt;stroke-linejoin:miter;stroke-opacity:1"/>
<path class="bond-3 atom-3 atom-4" d="M 357.8,597.3 L 364.0,616.8" style="fill:none;fill-rule:evenodd;stroke:#000000;stroke-width:2.0px;stroke-linecap:butt;stroke-linejoin:miter;stroke-opacity:1"/>
<path class="bond-4 atom-4 atom-5" d="M 368.9,623.0 L 387.6,632.7" style="fill:none;fill-rule:evenodd;stroke:#000000;stroke-width:2.0px;stroke-linecap:butt;stroke-linejoin:miter;stroke-opacity:1"/>
<path class="bond-5 atom-5 atom-6" d="M 387.6,632.7 L 408.8,619.2" style="fill:none;fill-rule:evenodd;stroke:#000000;stroke-width:2.0px;stroke-linecap:butt;stroke-linejoin:miter;stroke-opacity:1"/>
<path class="bond-6 atom-6 atom-7" d="M 408.8,619.2 L 431.1,630.8" style="fill:none;fill-rule:evenodd;stroke:#000000;stroke-width:2.0px;stroke-linecap:butt;stroke-linejoin:miter;stroke-opacity:1"/>
<path class="bond-7 atom-7 atom-8" d="M 431.1,630.8 L 452.2,617.2" style="fill:none;fill-rule:evenodd;stroke:#000000;stroke-width:2.0px;stroke-linecap:butt;stroke-linejoin:miter;stroke-opacity:1"/>
<path class="bond-8 atom-8 atom-9" d="M 452.2,617.2 L 471.0,626.9" style="fill:none;fill-rule:evenodd;stroke:#000000;stroke-width:2.0px;stroke-linecap:butt;stroke-linejoin:miter;stroke-opacity:1"/>
<path class="bond-9 atom-0 atom-10" d="M 341.4,628.8 L 317.5,636.4" style="fill:none;fill-rule:evenodd;stroke:#000000;stroke-width:2.0px;stroke-linecap:butt;stroke-linejoin:miter;stroke-opacity:1"/>
<path class="bond-10 atom-10 atom-11" d="M 317.5,636.4 L 302.5,622.7" style="fill:none;fill-rule:evenodd;stroke:#000000;stroke-width:2.0px;stroke-linecap:butt;stroke-linejoin:miter;stroke-opacity:1"/>
<path class="bond-10 atom-10 atom-11" d="M 318.5,632.1 L 305.1,619.9" style="fill:none;fill-rule:evenodd;stroke:#000000;stroke-width:2.0px;stroke-linecap:butt;stroke-linejoin:miter;stroke-opacity:1"/>
<path class="bond-11 atom-11 atom-12" d="M 295.5,620.6 L 278.6,626.0" style="fill:none;fill-rule:evenodd;stroke:#000000;stroke-width:2.0px;stroke-linecap:butt;stroke-linejoin:miter;stroke-opacity:1"/>
<path class="bond-12 atom-4 atom-0" d="M 361.8,622.3 L 341.4,628.8" style="fill:none;fill-rule:evenodd;stroke:#000000;stroke-width:2.0px;stroke-linecap:butt;stroke-linejoin:miter;stroke-opacity:1"/>
<path d="M 334.2,606.1 L 333.9,604.9 L 335.0,604.5" style="fill:none;stroke:#000000;stroke-width:2.0px;stroke-linecap:butt;stroke-linejoin:miter;stroke-opacity:1;"/>
<path d="M 356.6,597.7 L 357.8,597.3 L 358.1,598.3" style="fill:none;stroke:#000000;stroke-width:2.0px;stroke-linecap:butt;stroke-linejoin:miter;stroke-opacity:1;"/>
<path d="M 386.7,632.3 L 387.6,632.7 L 388.7,632.1" style="fill:none;stroke:#000000;stroke-width:2.0px;stroke-linecap:butt;stroke-linejoin:miter;stroke-opacity:1;"/>
<path d="M 407.7,619.9 L 408.8,619.2 L 409.9,619.8" style="fill:none;stroke:#000000;stroke-width:2.0px;stroke-linecap:butt;stroke-linejoin:miter;stroke-opacity:1;"/>
<path d="M 430.0,630.2 L 431.1,630.8 L 432.1,630.1" style="fill:none;stroke:#000000;stroke-width:2.0px;stroke-linecap:butt;stroke-linejoin:miter;stroke-opacity:1;"/>
<path d="M 451.1,617.9 L 452.2,617.2 L 453.1,617.7" style="fill:none;stroke:#000000;stroke-width:2.0px;stroke-linecap:butt;stroke-linejoin:miter;stroke-opacity:1;"/>
<path d="M 318.7,636.0 L 317.5,636.4 L 316.8,635.7" style="fill:none;stroke:#000000;stroke-width:2.0px;stroke-linecap:butt;stroke-linejoin:miter;stroke-opacity:1;"/>
<path class="atom-4" d="M 363.8 617.6 L 366.1 621.4 Q 366.4 621.8, 366.7 622.5 Q 367.1 623.1, 367.1 623.2 L 367.1 617.6 L 368.1 617.6 L 368.1 624.8 L 367.1 624.8 L 364.6 620.6 Q 364.3 620.2, 364.0 619.6 Q 363.7 619.1, 363.6 618.9 L 363.6 624.8 L 362.7 624.8 L 362.7 617.6 L 363.8 617.6 " fill="#000000"/>
<path class="atom-9" d="M 472.9 625.2 L 475.2 629.0 Q 475.5 629.4, 475.8 630.0 Q 476.2 630.7, 476.2 630.7 L 476.2 625.2 L 477.2 625.2 L 477.2 632.3 L 476.2 632.3 L 473.7 628.2 Q 473.4 627.7, 473.1 627.2 Q 472.8 626.6, 472.7 626.5 L 472.7 632.3 L 471.8 632.3 L 471.8 625.2 L 472.9 625.2 " fill="#000000"/>
<path class="atom-9" d="M 478.5 625.2 L 479.5 625.2 L 479.5 628.2 L 483.1 628.2 L 483.1 625.2 L 484.1 625.2 L 484.1 632.3 L 483.1 632.3 L 483.1 629.0 L 479.5 629.0 L 479.5 632.3 L 478.5 632.3 L 478.5 625.2 " fill="#000000"/>
<path class="atom-9" d="M 485.5 632.1 Q 485.7 631.6, 486.1 631.4 Q 486.5 631.1, 487.1 631.1 Q 487.8 631.1, 488.2 631.5 Q 488.6 631.9, 488.6 632.6 Q 488.6 633.3, 488.0 633.9 Q 487.5 634.6, 486.5 635.3 L 488.6 635.3 L 488.6 635.9 L 485.5 635.9 L 485.5 635.4 Q 486.4 634.8, 486.9 634.3 Q 487.4 633.9, 487.6 633.5 Q 487.9 633.0, 487.9 632.6 Q 487.9 632.2, 487.7 631.9 Q 487.4 631.7, 487.1 631.7 Q 486.7 631.7, 486.4 631.8 Q 486.2 632.0, 486.0 632.3 L 485.5 632.1 " fill="#000000"/>
<path class="atom-11" d="M 297.4 615.9 L 299.8 619.7 Q 300.0 620.1, 300.4 620.7 Q 300.7 621.4, 300.7 621.4 L 300.7 615.9 L 301.7 615.9 L 301.7 623.0 L 300.7 623.0 L 298.2 618.9 Q 297.9 618.4, 297.6 617.9 Q 297.3 617.3, 297.2 617.2 L 297.2 623.0 L 296.3 623.0 L 296.3 615.9 L 297.4 615.9 " fill="#000000"/>
<path class="atom-12" d="M 261.4 623.5 L 262.3 623.5 L 262.3 626.5 L 266.0 626.5 L 266.0 623.5 L 266.9 623.5 L 266.9 630.6 L 266.0 630.6 L 266.0 627.3 L 262.3 627.3 L 262.3 630.6 L 261.4 630.6 L 261.4 623.5 " fill="#000000"/>
<path class="atom-12" d="M 268.3 630.4 Q 268.5 629.9, 268.9 629.7 Q 269.3 629.4, 269.9 629.4 Q 270.6 629.4, 271.0 629.8 Q 271.4 630.2, 271.4 630.9 Q 271.4 631.6, 270.9 632.2 Q 270.4 632.9, 269.3 633.7 L 271.5 633.7 L 271.5 634.2 L 268.3 634.2 L 268.3 633.7 Q 269.2 633.1, 269.7 632.7 Q 270.2 632.2, 270.5 631.8 Q 270.7 631.4, 270.7 630.9 Q 270.7 630.5, 270.5 630.2 Q 270.3 630.0, 269.9 630.0 Q 269.5 630.0, 269.2 630.1 Q 269.0 630.3, 268.8 630.6 L 268.3 630.4 " fill="#000000"/>
<path class="atom-12" d="M 273.5 623.5 L 275.8 627.3 Q 276.1 627.7, 276.4 628.3 Q 276.8 629.0, 276.8 629.0 L 276.8 623.5 L 277.8 623.5 L 277.8 630.6 L 276.8 630.6 L 274.3 626.5 Q 274.0 626.0, 273.7 625.5 Q 273.4 624.9, 273.3 624.8 L 273.3 630.6 L 272.4 630.6 L 272.4 623.5 L 273.5 623.5 " fill="#000000"/>
<path class="atom-5" d="M 388.2,635.0 L 388.1,635.0 L 388.1,635.1 L 388.1,635.1 L 388.1,635.2 L 388.1,635.2 L 388.1,635.2 L 388.1,635.3 L 388.0,635.3 L 388.0,635.4 L 388.0,635.4 L 387.9,635.4 L 387.9,635.4 L 387.9,635.5 L 387.8,635.5 L 387.8,635.5 L 387.7,635.5 L 387.7,635.5 L 387.7,635.5 L 387.6,635.5 L 387.6,635.5 L 387.5,635.5 L 387.5,635.5 L 387.4,635.5 L 387.4,635.4 L 387.4,635.4 L 387.3,635.4 L 387.3,635.4 L 387.3,635.3 L 387.2,635.3 L 387.2,635.3 L 387.2,635.2 L 387.2,635.2 L 387.2,635.2 L 387.2,635.1 L 387.2,635.1 L 387.1,635.0 L 387.1,635.0 L 387.2,634.9 L 387.2,634.9 L 387.2,634.9 L 387.2,634.8 L 387.2,634.8 L 387.2,634.7 L 387.2,634.7 L 387.3,634.7 L 387.3,634.6 L 387.3,634.6 L 387.4,634.6 L 387.4,634.6 L 387.4,634.5 L 387.5,634.5 L 387.5,634.5 L 387.6,634.5 L 387.6,634.5 L 387.7,634.5 L 387.7,634.5 L 387.7,634.5 L 387.8,634.5 L 387.8,634.5 L 387.9,634.5 L 387.9,634.6 L 387.9,634.6 L 388.0,634.6 L 388.0,634.7 L 388.0,634.7 L 388.1,634.7 L 388.1,634.8 L 388.1,634.8 L 388.1,634.8 L 388.1,634.9 L 388.1,634.9 L 388.1,635.0 L 388.2,635.0 L 387.6,635.0 Z" style="fill:#000000;fill-rule:evenodd;fill-opacity:1;stroke:#000000;stroke-width:0.0px;stroke-linecap:butt;stroke-linejoin:miter;stroke-opacity:1;"/>
<path class="bond-0 atom-0 atom-1" d="M 738.6,618.1 L 727.2,636.1" style="fill:none;fill-rule:evenodd;stroke:#000000;stroke-width:2.0px;stroke-linecap:butt;stroke-linejoin:miter;stroke-opacity:1"/>
<path class="bond-1 atom-1 atom-2" d="M 719.8,640.7 L 697.4,639.7" style="fill:none;fill-rule:evenodd;stroke:#000000;stroke-width:2.0px;stroke-linecap:butt;stroke-linejoin:miter;stroke-opacity:1"/>
<path class="bond-2 atom-2 atom-3" d="M 697.4,639.7 L 682.9,662.4" style="fill:none;fill-rule:evenodd;stroke:#000000;stroke-width:2.0px;stroke-linecap:butt;stroke-linejoin:miter;stroke-opacity:1"/>
<path class="bond-3 atom-3 atom-4" d="M 682.9,662.4 L 656.1,661.3" style="fill:none;fill-rule:evenodd;stroke:#000000;stroke-width:2.0px;stroke-linecap:butt;stroke-linejoin:miter;stroke-opacity:1"/>
<path class="bond-3 atom-3 atom-4" d="M 680.8,658.3 L 656.2,657.3" style="fill:none;fill-rule:evenodd;stroke:#000000;stroke-width:2.0px;stroke-linecap:butt;stroke-linejoin:miter;stroke-opacity:1"/>
<path class="bond-4 atom-4 atom-5" d="M 656.1,661.3 L 641.7,684.0" style="fill:none;fill-rule:evenodd;stroke:#000000;stroke-width:2.0px;stroke-linecap:butt;stroke-linejoin:miter;stroke-opacity:1"/>
<path class="bond-5 atom-2 atom-6" d="M 697.4,639.7 L 684.9,615.9" style="fill:none;fill-rule:evenodd;stroke:#000000;stroke-width:2.0px;stroke-linecap:butt;stroke-linejoin:miter;stroke-opacity:1"/>
<path class="bond-6 atom-6 atom-7" d="M 684.9,615.9 L 696.3,597.9" style="fill:none;fill-rule:evenodd;stroke:#000000;stroke-width:2.0px;stroke-linecap:butt;stroke-linejoin:miter;stroke-opacity:1"/>
<path class="bond-7 atom-6 atom-8" d="M 684.9,615.9 L 658.0,614.8" style="fill:none;fill-rule:evenodd;stroke:#000000;stroke-width:2.0px;stroke-linecap:butt;stroke-linejoin:miter;stroke-opacity:1"/>
<path class="bond-8 atom-8 atom-9" d="M 658.0,614.8 L 648.0,595.6" style="fill:none;fill-rule:evenodd;stroke:#000000;stroke-width:2.0px;stroke-linecap:butt;stroke-linejoin:miter;stroke-opacity:1"/>
<path class="bond-8 atom-8 atom-9" d="M 660.5,610.8 L 651.6,593.8" style="fill:none;fill-rule:evenodd;stroke:#000000;stroke-width:2.0px;stroke-linecap:butt;stroke-linejoin:miter;stroke-opacity:1"/>
<path class="bond-9 atom-9 atom-10" d="M 641.8,590.8 L 618.7,589.8" style="fill:none;fill-rule:evenodd;stroke:#000000;stroke-width:2.0px;stroke-linecap:butt;stroke-linejoin:miter;stroke-opacity:1"/>
<path class="bond-10 atom-10 atom-11" d="M 618.7,589.8 L 606.2,566.0" style="fill:none;fill-rule:evenodd;stroke:#000000;stroke-width:2.0px;stroke-linecap:butt;stroke-linejoin:miter;stroke-opacity:1"/>
<path class="bond-11 atom-10 atom-12" d="M 618.7,589.8 L 604.3,612.5" style="fill:none;fill-rule:evenodd;stroke:#000000;stroke-width:2.0px;stroke-linecap:butt;stroke-linejoin:miter;stroke-opacity:1"/>
<path class="bond-11 atom-10 atom-12" d="M 614.0,589.6 L 602.1,608.4" style="fill:none;fill-rule:evenodd;stroke:#000000;stroke-width:2.0px;stroke-linecap:butt;stroke-linejoin:miter;stroke-opacity:1"/>
<path class="bond-12 atom-12 atom-13" d="M 604.3,612.5 L 577.4,611.4" style="fill:none;fill-rule:evenodd;stroke:#000000;stroke-width:2.0px;stroke-linecap:butt;stroke-linejoin:miter;stroke-opacity:1"/>
<path class="bond-13 atom-13 atom-14" d="M 577.4,611.4 L 563.0,634.1" style="fill:none;fill-rule:evenodd;stroke:#000000;stroke-width:2.0px;stroke-linecap:butt;stroke-linejoin:miter;stroke-opacity:1"/>
<path class="bond-14 atom-14 atom-15" d="M 563.0,634.1 L 539.5,633.1" style="fill:none;fill-rule:evenodd;stroke:#000000;stroke-width:2.0px;stroke-linecap:butt;stroke-linejoin:miter;stroke-opacity:1"/>
<path class="bond-15 atom-15 atom-16" d="M 531.3,636.8 L 523.0,649.9" style="fill:none;fill-rule:evenodd;stroke:#000000;stroke-width:2.0px;stroke-linecap:butt;stroke-linejoin:miter;stroke-opacity:1"/>
<path class="bond-15 atom-15 atom-16" d="M 534.7,639.0 L 526.4,652.1" style="fill:none;fill-rule:evenodd;stroke:#000000;stroke-width:2.0px;stroke-linecap:butt;stroke-linejoin:miter;stroke-opacity:1"/>
<path d="M 683.7,661.3 L 682.9,662.4 L 681.6,662.4" style="fill:none;stroke:#000000;stroke-width:2.0px;stroke-linecap:butt;stroke-linejoin:miter;stroke-opacity:1;"/>
<path d="M 657.4,661.4 L 656.1,661.3 L 655.4,662.4" style="fill:none;stroke:#000000;stroke-width:2.0px;stroke-linecap:butt;stroke-linejoin:miter;stroke-opacity:1;"/>
<path d="M 659.4,614.8 L 658.0,614.8 L 657.5,613.8" style="fill:none;stroke:#000000;stroke-width:2.0px;stroke-linecap:butt;stroke-linejoin:miter;stroke-opacity:1;"/>
<path d="M 605.0,611.4 L 604.3,612.5 L 602.9,612.5" style="fill:none;stroke:#000000;stroke-width:2.0px;stroke-linecap:butt;stroke-linejoin:miter;stroke-opacity:1;"/>
<path d="M 578.7,611.5 L 577.4,611.4 L 576.7,612.5" style="fill:none;stroke:#000000;stroke-width:2.0px;stroke-linecap:butt;stroke-linejoin:miter;stroke-opacity:1;"/>
<path d="M 563.7,633.0 L 563.0,634.1 L 561.8,634.1" style="fill:none;stroke:#000000;stroke-width:2.0px;stroke-linecap:butt;stroke-linejoin:miter;stroke-opacity:1;"/>
<path class="atom-1" d="M 720.7 640.9 Q 720.7 639.0, 721.6 638.0 Q 722.5 637.0, 724.2 637.0 Q 725.9 637.0, 726.8 638.0 Q 727.7 639.0, 727.7 640.9 Q 727.7 642.7, 726.8 643.8 Q 725.9 644.8, 724.2 644.8 Q 722.5 644.8, 721.6 643.8 Q 720.7 642.7, 720.7 640.9 M 724.2 644.0 Q 725.4 644.0, 726.0 643.2 Q 726.6 642.4, 726.6 640.9 Q 726.6 639.4, 726.0 638.6 Q 725.4 637.9, 724.2 637.9 Q 723.1 637.9, 722.4 638.6 Q 721.8 639.4, 721.8 640.9 Q 721.8 642.4, 722.4 643.2 Q 723.1 644.0, 724.2 644.0 " fill="#000000"/>
<path class="atom-7" d="M 697.0 589.4 L 701.6 589.4 L 701.6 590.2 L 698.1 590.2 L 698.1 592.6 L 701.2 592.6 L 701.2 593.4 L 698.1 593.4 L 698.1 597.0 L 697.0 597.0 L 697.0 589.4 " fill="#000000"/>
<path class="atom-9" d="M 643.9 587.1 L 646.4 591.2 Q 646.6 591.6, 647.0 592.3 Q 647.4 593.0, 647.4 593.0 L 647.4 587.1 L 648.4 587.1 L 648.4 594.7 L 647.4 594.7 L 644.7 590.3 Q 644.4 589.8, 644.1 589.2 Q 643.8 588.6, 643.7 588.4 L 643.7 594.7 L 642.7 594.7 L 642.7 587.1 L 643.9 587.1 " fill="#000000"/>
<path class="atom-9" d="M 649.9 587.1 L 650.9 587.1 L 650.9 590.4 L 654.8 590.4 L 654.8 587.1 L 655.9 587.1 L 655.9 594.7 L 654.8 594.7 L 654.8 591.2 L 650.9 591.2 L 650.9 594.7 L 649.9 594.7 L 649.9 587.1 " fill="#000000"/>
<path class="atom-9" d="M 657.3 588.5 L 658.7 588.5 L 658.7 587.1 L 659.3 587.1 L 659.3 588.5 L 660.6 588.5 L 660.6 589.0 L 659.3 589.0 L 659.3 590.4 L 658.7 590.4 L 658.7 589.0 L 657.3 589.0 L 657.3 588.5 " fill="#000000"/>
<path class="atom-15" d="M 526.3 629.2 L 527.3 629.2 L 527.3 632.4 L 531.2 632.4 L 531.2 629.2 L 532.2 629.2 L 532.2 636.8 L 531.2 636.8 L 531.2 633.3 L 527.3 633.3 L 527.3 636.8 L 526.3 636.8 L 526.3 629.2 " fill="#000000"/>
<path class="atom-15" d="M 534.0 635.6 Q 534.1 635.6, 534.4 635.8 Q 534.8 635.9, 535.2 636.0 Q 535.6 636.1, 535.9 636.1 Q 536.7 636.1, 537.1 635.8 Q 537.5 635.4, 537.5 634.8 Q 537.5 634.4, 537.3 634.1 Q 537.1 633.9, 536.8 633.7 Q 536.4 633.6, 535.9 633.4 Q 535.2 633.2, 534.8 633.0 Q 534.4 632.8, 534.1 632.4 Q 533.8 632.0, 533.8 631.3 Q 533.8 630.4, 534.5 629.8 Q 535.1 629.2, 536.4 629.2 Q 537.3 629.2, 538.3 629.6 L 538.1 630.4 Q 537.2 630.1, 536.5 630.1 Q 535.7 630.1, 535.3 630.4 Q 534.9 630.7, 534.9 631.2 Q 534.9 631.6, 535.1 631.9 Q 535.3 632.1, 535.6 632.3 Q 536.0 632.4, 536.5 632.6 Q 537.2 632.8, 537.6 633.0 Q 538.0 633.2, 538.3 633.6 Q 538.6 634.1, 538.6 634.8 Q 538.6 635.9, 537.9 636.4 Q 537.2 637.0, 536.0 637.0 Q 535.3 637.0, 534.8 636.8 Q 534.3 636.7, 533.7 636.5 L 534.0 635.6 " fill="#000000"/>
<path class="atom-16" d="M 511.4 651.9 L 512.4 651.9 L 512.4 655.1 L 516.3 655.1 L 516.3 651.9 L 517.3 651.9 L 517.3 659.5 L 516.3 659.5 L 516.3 656.0 L 512.4 656.0 L 512.4 659.5 L 511.4 659.5 L 511.4 651.9 " fill="#000000"/>
<path class="atom-16" d="M 520.0 651.9 L 522.5 655.9 Q 522.8 656.3, 523.2 657.0 Q 523.6 657.8, 523.6 657.8 L 523.6 651.9 L 524.6 651.9 L 524.6 659.5 L 523.6 659.5 L 520.9 655.1 Q 520.6 654.6, 520.2 654.0 Q 519.9 653.4, 519.8 653.2 L 519.8 659.5 L 518.8 659.5 L 518.8 651.9 L 520.0 651.9 " fill="#000000"/>
</svg>